<?xml version="1.0" encoding="utf-8"?>
<!-- Generator: Adobe Illustrator 16.0.4, SVG Export Plug-In . SVG Version: 6.00 Build 0)  -->
<!DOCTYPE svg PUBLIC "-//W3C//DTD SVG 1.1//EN" "http://www.w3.org/Graphics/SVG/1.1/DTD/svg11.dtd">
<svg version="1.1" xmlns="http://www.w3.org/2000/svg" xmlns:xlink="http://www.w3.org/1999/xlink" x="0px" y="0px" width="889px"
	 height="538px" viewBox="0 0 889 538" enable-background="new 0 0 889 538" xml:space="preserve">
<g id="Layer_2">
</g>
<g id="Layer_1">
	<g>
		<text transform="matrix(1 0 0 1 93.6465 82.3218)"><tspan x="0" y="0" fill="#5D9F7F" font-family="'BrandonGrotesque-Regular'" font-size="17.8249" letter-spacing="3">PERC</tspan><tspan x="58.679" y="0" fill="#5D9F7F" font-family="'BrandonGrotesque-Regular'" font-size="17.8249" letter-spacing="3">E</tspan><tspan x="72.492" y="0" fill="#5D9F7F" font-family="'BrandonGrotesque-Regular'" font-size="17.8249" letter-spacing="3">N</tspan><tspan x="89.568" y="0" fill="#5D9F7F" font-family="'BrandonGrotesque-Regular'" font-size="17.8249" letter-spacing="2">T</tspan><tspan x="100.691" y="0" fill="#5D9F7F" font-family="'BrandonGrotesque-Regular'" font-size="17.8249" letter-spacing="3">A</tspan><tspan x="115.718" y="0" fill="#5D9F7F" font-family="'BrandonGrotesque-Regular'" font-size="17.8249" letter-spacing="3">G</tspan><tspan x="132.045" y="0" fill="#5D9F7F" font-family="'BrandonGrotesque-Regular'" font-size="17.8249" letter-spacing="3">E</tspan><tspan x="145.859" y="0" fill="#5D9F7F" font-family="'BrandonGrotesque-Regular'" font-size="17.8249" letter-spacing="3"> OF STU</tspan><tspan x="232.291" y="0" fill="#5D9F7F" font-family="'BrandonGrotesque-Regular'" font-size="17.8249" letter-spacing="3">D</tspan><tspan x="248.868" y="0" fill="#5D9F7F" font-family="'BrandonGrotesque-Regular'" font-size="17.8249" letter-spacing="3">ENTS R</tspan><tspan x="326.654" y="0" fill="#5D9F7F" font-family="'BrandonGrotesque-Regular'" font-size="17.8249" letter-spacing="3">E</tspan><tspan x="340.416" y="0" fill="#5D9F7F" font-family="'BrandonGrotesque-Regular'" font-size="17.8249" letter-spacing="3">CE</tspan><tspan x="370.129" y="0" fill="#5D9F7F" font-family="'BrandonGrotesque-Regular'" font-size="17.8249" letter-spacing="3">I</tspan><tspan x="378.418" y="0" fill="#5D9F7F" font-family="'BrandonGrotesque-Regular'" font-size="17.8249" letter-spacing="3">VING F</tspan><tspan x="455.902" y="0" fill="#5D9F7F" font-family="'BrandonGrotesque-Regular'" font-size="17.8249" letter-spacing="3">I</tspan><tspan x="464.189" y="0" fill="#5D9F7F" font-family="'BrandonGrotesque-Regular'" font-size="17.8249" letter-spacing="3">NANCI</tspan><tspan x="537.629" y="0" fill="#5D9F7F" font-family="'BrandonGrotesque-Regular'" font-size="17.8249" letter-spacing="3">A</tspan><tspan x="552.707" y="0" fill="#5D9F7F" font-family="'BrandonGrotesque-Regular'" font-size="17.8249" letter-spacing="3">L AI</tspan><tspan x="595.381" y="0" fill="#5D9F7F" font-family="'BrandonGrotesque-Regular'" font-size="17.8249">D</tspan></text>
		<text transform="matrix(0 -1 1 0 15.0508 333.1621)"><tspan x="0" y="0" fill="#888888" font-family="'BrandonGrotesque-Regular'" font-size="14.8608">P</tspan><tspan x="8.277" y="0" fill="#888888" font-family="'BrandonGrotesque-Regular'" font-size="14.8608">e</tspan><tspan x="15.068" y="0" fill="#888888" font-family="'BrandonGrotesque-Regular'" font-size="14.8608">r</tspan><tspan x="19.973" y="0" fill="#888888" font-family="'BrandonGrotesque-Regular'" font-size="14.8608">centage</tspan></text>
		<g>
			<line fill="none" stroke="#B8B7B7" stroke-miterlimit="10" x1="87.895" y1="131.117" x2="105.266" y2="131.117"/>
			<line fill="none" stroke="#B8B7B7" stroke-miterlimit="10" x1="87.895" y1="486.576" x2="737.049" y2="486.576"/>
			<line fill="none" stroke="#231F20" stroke-miterlimit="10" x1="87.895" y1="486.598" x2="87.895" y2="477.71"/>
			
				<text transform="matrix(1 0 0 1 77.0381 498.8115)" fill="#888888" font-family="'BrandonGrotesque-Regular'" font-size="13.9701">0</text>
			<text transform="matrix(1 0 0 1 62.8457 454.377)"><tspan x="0" y="0" fill="#888888" font-family="'BrandonGrotesque-Regular'" font-size="14.8608">1</tspan><tspan x="4.815" y="0" fill="#888888" font-family="'BrandonGrotesque-Regular'" font-size="14.8608">0</tspan></text>
			
				<text transform="matrix(1 0 0 1 59.9336 409.9434)" fill="#888888" font-family="'BrandonGrotesque-Regular'" font-size="14.8608">20</text>
			
				<text transform="matrix(1 0 0 1 59.7402 365.5093)" fill="#888888" font-family="'BrandonGrotesque-Regular'" font-size="14.8608">30</text>
			
				<text transform="matrix(1 0 0 1 58.9375 321.0757)" fill="#888888" font-family="'BrandonGrotesque-Regular'" font-size="14.8608">40</text>
			
				<text transform="matrix(1 0 0 1 59.7256 276.6416)" fill="#888888" font-family="'BrandonGrotesque-Regular'" font-size="14.8608">50</text>
			
				<text transform="matrix(1 0 0 1 59.5762 232.208)" fill="#888888" font-family="'BrandonGrotesque-Regular'" font-size="14.8608">60</text>
			<text transform="matrix(1 0 0 1 60.6768 187.7739)"><tspan x="0" y="0" fill="#888888" font-family="'BrandonGrotesque-Regular'" font-size="14.8608">7</tspan><tspan x="6.984" y="0" fill="#888888" font-family="'BrandonGrotesque-Regular'" font-size="14.8608">0</tspan></text>
			
				<text transform="matrix(1 0 0 1 59.1309 143.3403)" fill="#888888" font-family="'BrandonGrotesque-Regular'" font-size="14.8608">80</text>
			<line fill="none" stroke="#B8B7B7" stroke-miterlimit="10" x1="87.895" y1="486.598" x2="87.895" y2="131.117"/>
			<line fill="none" stroke="#B8B7B7" stroke-miterlimit="10" x1="87.895" y1="486.598" x2="105.266" y2="486.598"/>
			<line fill="none" stroke="#B8B7B7" stroke-miterlimit="10" x1="87.895" y1="442.162" x2="105.266" y2="442.162"/>
			<line fill="none" stroke="#B8B7B7" stroke-miterlimit="10" x1="87.895" y1="397.727" x2="105.266" y2="397.727"/>
			<line fill="none" stroke="#B8B7B7" stroke-miterlimit="10" x1="87.895" y1="353.292" x2="105.266" y2="353.292"/>
			<line fill="none" stroke="#B8B7B7" stroke-miterlimit="10" x1="87.895" y1="308.857" x2="105.266" y2="308.857"/>
			<line fill="none" stroke="#B8B7B7" stroke-miterlimit="10" x1="87.895" y1="264.422" x2="105.266" y2="264.422"/>
			<line fill="none" stroke="#B8B7B7" stroke-miterlimit="10" x1="87.895" y1="219.987" x2="105.266" y2="219.987"/>
			<line fill="none" stroke="#B8B7B7" stroke-miterlimit="10" x1="87.895" y1="175.552" x2="105.266" y2="175.552"/>
			<rect x="671.448" y="207.69" fill="#5D9F7F" width="25.422" height="273.545"/>
			<text transform="matrix(1 0 0 1 673.3057 513.5801)"><tspan x="0" y="0" fill="#888888" font-family="'BrandonGrotesque-Regular'" font-size="13.9701" letter-spacing="-1">Y</tspan><tspan x="6.496" y="0" fill="#888888" font-family="'BrandonGrotesque-Regular'" font-size="13.9701">ale</tspan></text>
			<rect x="598.546" y="220.717" fill="#5D9F7F" width="25.421" height="260.519"/>
			<text transform="matrix(1 0 0 1 584.4971 513.5801)"><tspan x="0" y="0" fill="#888888" font-family="'BrandonGrotesque-Regular'" font-size="13.9701">P</tspan><tspan x="8.019" y="0" fill="#888888" font-family="'BrandonGrotesque-Regular'" font-size="13.9701">rinceton</tspan></text>
			<rect x="525.643" y="277.162" fill="#5D9F7F" width="25.422" height="204.073"/>
			<text transform="matrix(1 0 0 1 524.3555 513.5801)"><tspan x="0" y="0" fill="#888888" font-family="'BrandonGrotesque-Regular'" font-size="13.9701">P</tspan><tspan x="7.781" y="0" fill="#888888" font-family="'BrandonGrotesque-Regular'" font-size="13.9701">enn</tspan></text>
			<rect x="452.739" y="242.427" fill="#5D9F7F" width="25.422" height="238.809"/>
			<text transform="matrix(1 0 0 1 443.4258 513.5801)"><tspan x="0" y="0" fill="#888888" font-family="'BrandonGrotesque-Regular'" font-size="13.9701">H</tspan><tspan x="10.422" y="0" fill="#888888" font-family="'BrandonGrotesque-Regular'" font-size="13.9701">a</tspan><tspan x="16.289" y="0" fill="#888888" font-family="'BrandonGrotesque-Regular'" font-size="13.9701">r</tspan><tspan x="21.039" y="0" fill="#888888" font-family="'BrandonGrotesque-Regular'" font-size="13.9701">vard</tspan></text>
			<rect x="379.836" y="251.111" fill="#5D9F7F" width="25.422" height="230.125"/>
			<text transform="matrix(1 0 0 1 361.8418 513.5801)"><tspan x="0" y="0" fill="#888888" font-family="'BrandonGrotesque-Regular'" font-size="13.9701">D</tspan><tspan x="10.24" y="0" fill="#888888" font-family="'BrandonGrotesque-Regular'" font-size="13.9701">artmouth</tspan></text>
			<rect x="234.03" y="281.504" fill="#5D9F7F" width="25.422" height="199.731"/>
			<text transform="matrix(1 0 0 1 226.5547 513.5801)"><tspan x="0" y="0" fill="#888888" font-family="'BrandonGrotesque-Regular'" font-size="13.9701">C</tspan><tspan x="9.723" y="0" fill="#888888" font-family="'BrandonGrotesque-Regular'" font-size="13.9701">ornell</tspan></text>
			<rect x="161.127" y="298.873" fill="#5D9F7F" width="25.422" height="182.362"/>
			<text transform="matrix(1 0 0 1 156.2012 513.5801)"><tspan x="0" y="0" fill="#888888" font-family="'BrandonGrotesque-Regular'" font-size="13.9701">B</tspan><tspan x="8.562" y="0" fill="#888888" font-family="'BrandonGrotesque-Regular'" font-size="13.9701">r</tspan><tspan x="13.188" y="0" fill="#888888" font-family="'BrandonGrotesque-Regular'" font-size="13.9701">own</tspan></text>
			<rect x="306.934" y="265.113" fill="#5D9F7F" width="25.422" height="216.122"/>
			
				<text transform="matrix(1 0 0 1 293.3672 513.5801)" fill="#888888" font-family="'BrandonGrotesque-Regular'" font-size="13.9701">Columbia</text>
		</g>
	</g>
	<rect x="746.76" y="236.154" fill="#5D9F7F" width="21.335" height="21.335"/>
	<g>
		<text transform="matrix(1 0 0 1 780.0078 242.8662)"><tspan x="0" y="0" fill="#5D9F7F" font-family="'BrandonGrotesque-Regular'" font-size="14.7858">A</tspan><tspan x="9.521" y="0" fill="#5D9F7F" font-family="'BrandonGrotesque-Regular'" font-size="14.7858">verage </tspan><tspan x="50.33" y="0" fill="#5D9F7F" font-family="'BrandonGrotesque-Regular'" font-size="14.7858">F</tspan><tspan x="58.536" y="0" fill="#5D9F7F" font-family="'BrandonGrotesque-Regular'" font-size="14.7858">inancial </tspan></text>
		<text transform="matrix(1 0 0 1 780.0078 257.8149)"><tspan x="0" y="0" fill="#5D9F7F" font-family="'BrandonGrotesque-Regular'" font-size="14.7858">Aid </tspan><tspan x="23.331" y="0" fill="#5D9F7F" font-family="'BrandonGrotesque-Regular'" font-size="14.7858">P</tspan><tspan x="31.76" y="0" fill="#5D9F7F" font-family="'BrandonGrotesque-Regular'" font-size="14.7858">ac</tspan><tspan x="44.49" y="0" fill="#5D9F7F" font-family="'BrandonGrotesque-Regular'" font-size="14.7858">k</tspan><tspan x="51.069" y="0" fill="#5D9F7F" font-family="'BrandonGrotesque-Regular'" font-size="14.7858">age</tspan></text>
	</g>
	<g>
		<rect x="746.76" y="290.278" fill="#9EBDAA" width="21.335" height="21.335"/>
		<g>
			<text transform="matrix(1 0 0 1 780.0078 299.1548)"><tspan x="0" y="0" fill="#5D9F7F" font-family="'BrandonGrotesque-Regular'" font-size="14.7858">C</tspan><tspan x="10.276" y="0" fill="#5D9F7F" font-family="'BrandonGrotesque-Regular'" font-size="14.7858">ost of </tspan></text>
			<text transform="matrix(1 0 0 1 780.0078 314.1035)"><tspan x="0" y="0" fill="#5D9F7F" font-family="'BrandonGrotesque-Regular'" font-size="14.7858">A</tspan><tspan x="9.641" y="0" fill="#5D9F7F" font-family="'BrandonGrotesque-Regular'" font-size="14.7858">ttendance</tspan></text>
		</g>
	</g>
</g>
</svg>
