<?xml version="1.0" encoding="utf-8"?>
<!-- Generator: Adobe Illustrator 16.0.4, SVG Export Plug-In . SVG Version: 6.00 Build 0)  -->
<!DOCTYPE svg PUBLIC "-//W3C//DTD SVG 1.1//EN" "http://www.w3.org/Graphics/SVG/1.1/DTD/svg11.dtd">
<svg version="1.1" xmlns="http://www.w3.org/2000/svg" xmlns:xlink="http://www.w3.org/1999/xlink" x="0px" y="0px" width="889px"
	 height="538px" viewBox="0 0 889 538" enable-background="new 0 0 889 538" xml:space="preserve">
<g id="Layer_2">
</g>
<g id="Layer_1">
	<rect x="742.049" y="250.218" fill="#5D9F7F" width="21.335" height="21.335"/>
	<g>
		<text transform="matrix(1 0 0 1 775.2969 256.9302)"><tspan x="0" y="0" fill="#5D9F7F" font-family="'BrandonGrotesque-Regular'" font-size="14.7858">A</tspan><tspan x="9.521" y="0" fill="#5D9F7F" font-family="'BrandonGrotesque-Regular'" font-size="14.7858">verage </tspan><tspan x="50.33" y="0" fill="#5D9F7F" font-family="'BrandonGrotesque-Regular'" font-size="14.7858">F</tspan><tspan x="58.536" y="0" fill="#5D9F7F" font-family="'BrandonGrotesque-Regular'" font-size="14.7858">inancial </tspan></text>
		<text transform="matrix(1 0 0 1 775.2969 271.8789)"><tspan x="0" y="0" fill="#5D9F7F" font-family="'BrandonGrotesque-Regular'" font-size="14.7858">Aid </tspan><tspan x="23.331" y="0" fill="#5D9F7F" font-family="'BrandonGrotesque-Regular'" font-size="14.7858">P</tspan><tspan x="31.76" y="0" fill="#5D9F7F" font-family="'BrandonGrotesque-Regular'" font-size="14.7858">ac</tspan><tspan x="44.49" y="0" fill="#5D9F7F" font-family="'BrandonGrotesque-Regular'" font-size="14.7858">k</tspan><tspan x="51.069" y="0" fill="#5D9F7F" font-family="'BrandonGrotesque-Regular'" font-size="14.7858">age</tspan></text>
	</g>
	<g>
		<rect x="742.049" y="304.342" fill="#9EBDAA" width="21.335" height="21.335"/>
		<g>
			<text transform="matrix(1 0 0 1 775.2969 313.2188)"><tspan x="0" y="0" fill="#5D9F7F" font-family="'BrandonGrotesque-Regular'" font-size="14.7858">C</tspan><tspan x="10.276" y="0" fill="#5D9F7F" font-family="'BrandonGrotesque-Regular'" font-size="14.7858">ost of </tspan></text>
			<text transform="matrix(1 0 0 1 775.2969 328.1675)"><tspan x="0" y="0" fill="#5D9F7F" font-family="'BrandonGrotesque-Regular'" font-size="14.7858">A</tspan><tspan x="9.641" y="0" fill="#5D9F7F" font-family="'BrandonGrotesque-Regular'" font-size="14.7858">ttendance</tspan></text>
		</g>
	</g>
	<text transform="matrix(1 0 0 1 302.0234 82.3218)"><tspan x="0" y="0" fill="#5D9F7F" font-family="'BrandonGrotesque-Regular'" font-size="17.8249" letter-spacing="3">NUM</tspan><tspan x="51.763" y="0" fill="#5D9F7F" font-family="'BrandonGrotesque-Regular'" font-size="17.8249" letter-spacing="3">B</tspan><tspan x="66.165" y="0" fill="#5D9F7F" font-family="'BrandonGrotesque-Regular'" font-size="17.8249" letter-spacing="3">E</tspan><tspan x="79.997" y="0" fill="#5D9F7F" font-family="'BrandonGrotesque-Regular'" font-size="17.8249" letter-spacing="3">R</tspan><tspan x="95.041" y="0" fill="#5D9F7F" font-family="'BrandonGrotesque-Regular'" font-size="17.8249" letter-spacing="3">S P</tspan><tspan x="128.961" y="0" fill="#5D9F7F" font-family="'BrandonGrotesque-Regular'" font-size="17.8249" letter-spacing="3">E</tspan><tspan x="142.775" y="0" fill="#5D9F7F" font-family="'BrandonGrotesque-Regular'" font-size="17.8249" letter-spacing="3">R STU</tspan><tspan x="205.696" y="0" fill="#5D9F7F" font-family="'BrandonGrotesque-Regular'" font-size="17.8249" letter-spacing="3">D</tspan><tspan x="222.273" y="0" fill="#5D9F7F" font-family="'BrandonGrotesque-Regular'" font-size="17.8249" letter-spacing="3">EN</tspan><tspan x="253.182" y="0" fill="#5D9F7F" font-family="'BrandonGrotesque-Regular'" font-size="17.8249">T</tspan></text>
	<g>
		<line fill="none" stroke="#B8B7B7" stroke-miterlimit="10" x1="113.554" y1="491.748" x2="731.331" y2="491.748"/>
		<line fill="none" stroke="#231F20" stroke-miterlimit="10" x1="85.584" y1="491.748" x2="85.584" y2="483.646"/>
		<text transform="matrix(1 0 0 1 69.2559 500.2461)" fill="#888888" font-family="'BrandonGrotesque-Regular'" font-size="13.885">0</text>
		<text transform="matrix(1 0 0 1 64.7715 459.7295)"><tspan x="0" y="0" fill="#888888" font-family="'BrandonGrotesque-Regular'" font-size="13.885">1</tspan><tspan x="4.498" y="0" fill="#888888" font-family="'BrandonGrotesque-Regular'" font-size="13.885">0</tspan></text>
		<text transform="matrix(1 0 0 1 62.0488 419.2129)" fill="#888888" font-family="'BrandonGrotesque-Regular'" font-size="13.885">20</text>
		<text transform="matrix(1 0 0 1 61.8691 378.6968)" fill="#888888" font-family="'BrandonGrotesque-Regular'" font-size="13.885">30</text>
		<text transform="matrix(1 0 0 1 61.1191 338.1802)" fill="#888888" font-family="'BrandonGrotesque-Regular'" font-size="13.885">40</text>
		<text transform="matrix(1 0 0 1 61.8555 297.6636)" fill="#888888" font-family="'BrandonGrotesque-Regular'" font-size="13.885">50</text>
		<text transform="matrix(1 0 0 1 61.7168 257.1475)" fill="#888888" font-family="'BrandonGrotesque-Regular'" font-size="13.885">60</text>
		<text transform="matrix(1 0 0 1 62.7441 216.6309)"><tspan x="0" y="0" fill="#888888" font-family="'BrandonGrotesque-Regular'" font-size="13.885">7</tspan><tspan x="6.525" y="0" fill="#888888" font-family="'BrandonGrotesque-Regular'" font-size="13.885">0</tspan></text>
		<text transform="matrix(1 0 0 1 61.2998 176.1143)" fill="#888888" font-family="'BrandonGrotesque-Regular'" font-size="13.885">80</text>
		<line fill="none" stroke="#B8B7B7" stroke-miterlimit="10" x1="85.584" y1="491.748" x2="85.584" y2="167.659"/>
		<line fill="none" stroke="#B8B7B7" stroke-miterlimit="10" x1="85.584" y1="491.748" x2="125.639" y2="491.748"/>
		<line fill="none" stroke="#B8B7B7" stroke-miterlimit="10" x1="85.584" y1="451.237" x2="97.669" y2="451.237"/>
		<line fill="none" stroke="#B8B7B7" stroke-miterlimit="10" x1="85.584" y1="410.727" x2="97.669" y2="410.727"/>
		<line fill="none" stroke="#B8B7B7" stroke-miterlimit="10" x1="85.584" y1="370.215" x2="97.669" y2="370.215"/>
		<line fill="none" stroke="#B8B7B7" stroke-miterlimit="10" x1="85.584" y1="329.704" x2="97.669" y2="329.704"/>
		<line fill="none" stroke="#B8B7B7" stroke-miterlimit="10" x1="85.584" y1="289.192" x2="97.669" y2="289.192"/>
		<line fill="none" stroke="#B8B7B7" stroke-miterlimit="10" x1="85.584" y1="248.682" x2="97.669" y2="248.682"/>
		<line fill="none" stroke="#B8B7B7" stroke-miterlimit="10" x1="85.584" y1="208.17" x2="97.669" y2="208.17"/>
		<line fill="none" stroke="#B8B7B7" stroke-miterlimit="10" x1="85.584" y1="167.659" x2="97.669" y2="167.659"/>
		<g>
			<rect x="690.703" y="214.834" fill="#9EBDAA" width="21.024" height="271.982"/>
			<rect x="664.343" y="311.465" fill="#5D9F7F" width="21.024" height="175.352"/>
		</g>
		<text transform="matrix(1 0 0 1 677.8936 521.0107)"><tspan x="0" y="0" fill="#888888" font-family="'BrandonGrotesque-Regular'" font-size="13.0528" letter-spacing="-1">Y</tspan><tspan x="6.069" y="0" fill="#888888" font-family="'BrandonGrotesque-Regular'" font-size="13.0528">ale</tspan></text>
		<g>
			<rect x="614.034" y="232.932" fill="#9EBDAA" width="21.023" height="253.885"/>
			<rect x="587.674" y="293.084" fill="#5D9F7F" width="21.023" height="193.732"/>
		</g>
		<text transform="matrix(1 0 0 1 586.3633 521.0107)"><tspan x="0" y="0" fill="#888888" font-family="'BrandonGrotesque-Regular'" font-size="13.0528">P</tspan><tspan x="7.492" y="0" fill="#888888" font-family="'BrandonGrotesque-Regular'" font-size="13.0528">rinceton</tspan></text>
		<g>
			<rect x="537.364" y="210.409" fill="#9EBDAA" width="21.024" height="276.407"/>
			<rect x="511.005" y="293.064" fill="#5D9F7F" width="21.024" height="193.752"/>
		</g>
		<text transform="matrix(1 0 0 1 521.6172 521.0107)"><tspan x="0" y="0" fill="#888888" font-family="'BrandonGrotesque-Regular'" font-size="13.0528">P</tspan><tspan x="7.271" y="0" fill="#888888" font-family="'BrandonGrotesque-Regular'" font-size="13.0528">enn</tspan></text>
		<g>
			<rect x="460.695" y="220.136" fill="#9EBDAA" width="21.024" height="266.681"/>
			<rect x="434.337" y="323.379" fill="#5D9F7F" width="21.023" height="163.438"/>
		</g>
		<text transform="matrix(1 0 0 1 437.4512 521.0107)"><tspan x="0" y="0" fill="#888888" font-family="'BrandonGrotesque-Regular'" font-size="13.0528">H</tspan><tspan x="9.736" y="0" fill="#888888" font-family="'BrandonGrotesque-Regular'" font-size="13.0528">a</tspan><tspan x="15.219" y="0" fill="#888888" font-family="'BrandonGrotesque-Regular'" font-size="13.0528">r</tspan><tspan x="19.656" y="0" fill="#888888" font-family="'BrandonGrotesque-Regular'" font-size="13.0528">vard</tspan></text>
		<g>
			<rect x="384.027" y="227.179" fill="#9EBDAA" width="21.024" height="259.637"/>
			<rect x="357.668" y="302.193" fill="#5D9F7F" width="21.023" height="184.624"/>
		</g>
		<text transform="matrix(1 0 0 1 352.6699 521.0107)"><tspan x="0" y="0" fill="#888888" font-family="'BrandonGrotesque-Regular'" font-size="13.0528">D</tspan><tspan x="9.568" y="0" fill="#888888" font-family="'BrandonGrotesque-Regular'" font-size="13.0528">artmouth</tspan></text>
		<g>
			<rect x="230.691" y="217.293" fill="#9EBDAA" width="21.023" height="269.523"/>
			<rect x="204.33" y="332.316" fill="#5D9F7F" width="21.025" height="154.5"/>
		</g>
		<text transform="matrix(1 0 0 1 209.1621 521.0107)"><tspan x="0" y="0" fill="#888888" font-family="'BrandonGrotesque-Regular'" font-size="13.0528">C</tspan><tspan x="9.084" y="0" fill="#888888" font-family="'BrandonGrotesque-Regular'" font-size="13.0528">ornell</tspan></text>
		<g>
			<rect x="154.021" y="215.112" fill="#9EBDAA" width="21.023" height="271.704"/>
			<rect x="127.662" y="298.026" fill="#5D9F7F" width="21.023" height="188.79"/>
		</g>
		<text transform="matrix(1 0 0 1 134.875 521.0107)"><tspan x="0" y="0" fill="#888888" font-family="'BrandonGrotesque-Regular'" font-size="13.0528">B</tspan><tspan x="7.988" y="0" fill="#888888" font-family="'BrandonGrotesque-Regular'" font-size="13.0528">r</tspan><tspan x="12.321" y="0" fill="#888888" font-family="'BrandonGrotesque-Regular'" font-size="13.0528">own</tspan></text>
		<text transform="matrix(0 -1 1 0 19.2227 380.5278)"><tspan x="0" y="0" fill="#888888" font-family="'BrandonGrotesque-Regular'" font-size="13.885">D</tspan><tspan x="10.219" y="0" fill="#888888" font-family="'BrandonGrotesque-Regular'" font-size="13.885">ollars (</tspan><tspan x="46.097" y="0" fill="#888888" font-family="'BrandonGrotesque-Regular'" font-size="13.885">T</tspan><tspan x="52.609" y="0" fill="#888888" font-family="'BrandonGrotesque-Regular'" font-size="13.885">housand</tspan><tspan x="97.263" y="0" fill="#888888" font-family="'BrandonGrotesque-Regular'" font-size="13.885">s</tspan><tspan x="102.067" y="0" fill="#888888" font-family="'BrandonGrotesque-Regular'" font-size="13.885">)</tspan></text>
		<g>
			<rect x="307.361" y="202.502" fill="#9EBDAA" width="21.021" height="285.195"/>
			<rect x="281" y="303.012" fill="#5D9F7F" width="21.023" height="184.685"/>
		</g>
		
			<text transform="matrix(1 0 0 1 280.584 521.0107)" fill="#888888" font-family="'BrandonGrotesque-Regular'" font-size="13.0528">Columbia</text>
	</g>
</g>
</svg>
