<?xml version="1.0" encoding="utf-8"?>
<!-- Generator: Adobe Illustrator 16.0.4, SVG Export Plug-In . SVG Version: 6.00 Build 0)  -->
<!DOCTYPE svg PUBLIC "-//W3C//DTD SVG 1.1//EN" "http://www.w3.org/Graphics/SVG/1.1/DTD/svg11.dtd">
<svg version="1.1" id="Layer_1" xmlns="http://www.w3.org/2000/svg" xmlns:xlink="http://www.w3.org/1999/xlink" x="0px" y="0px"
	 width="631px" height="86.4px" viewBox="0 0 631 86.4" style="enable-background:new 0 0 631 86.4;" xml:space="preserve">
<style type="text/css">
<![CDATA[
	.st0{fill:#FFFFFF;}
	.st1{opacity:0.87;fill:#231F20;stroke:#231F20;stroke-miterlimit:10;enable-background:new    ;}
]]>
</style>
<rect x="4.6" y="15.9" class="st1" width="619.9" height="54.6"/>
<g>
	<path class="st0" d="M36.3,47h-3.1v-4h-4.6v4h-3.1V36.8h3.1v3.7h4.6v-3.7h3.1V47z"/>
	<path class="st0" d="M49.7,41.9c0,0.9-0.2,1.8-0.7,2.6c-0.4,0.8-1.1,1.4-2,1.9c-0.9,0.5-1.9,0.7-3.2,0.7c-1.3,0-2.3-0.2-3.2-0.7
		s-1.5-1.1-1.9-1.9c-0.4-0.8-0.6-1.6-0.6-2.6c0-0.9,0.2-1.8,0.6-2.6c0.4-0.8,1.1-1.4,1.9-1.9c0.9-0.5,1.9-0.7,3.2-0.7
		c0.9,0,1.8,0.1,2.5,0.4c0.7,0.3,1.3,0.7,1.8,1.1c0.5,0.5,0.8,1,1.1,1.7C49.6,40.5,49.7,41.2,49.7,41.9z M46.6,41.9
		c0-0.4-0.1-0.7-0.2-1c-0.1-0.3-0.3-0.6-0.5-0.8c-0.2-0.2-0.5-0.4-0.8-0.5c-0.3-0.1-0.7-0.2-1.1-0.2c-0.8,0-1.5,0.2-1.9,0.7
		s-0.7,1.1-0.7,1.9s0.2,1.4,0.7,1.9c0.5,0.5,1.1,0.7,1.9,0.7c0.6,0,1-0.1,1.4-0.3s0.7-0.5,0.9-0.9C46.5,42.9,46.6,42.4,46.6,41.9z"
		/>
	<path class="st0" d="M63.4,47h-3.1v-5.9l-2.8,3.4h-0.2l-2.8-3.4V47h-3V36.8h2.8l3.1,3.8l3.1-3.8h2.8V47z"/>
	<path class="st0" d="M73.6,47H66V36.8h7.5v2H69v1.9h4.3v2H69v2.2h4.6V47z"/>
	<path class="st0" d="M121.9,44.6v1.6c-1.1,0.6-2.3,0.9-3.7,0.9c-1.1,0-2.1-0.2-2.9-0.7c-0.8-0.5-1.4-1.1-1.9-1.9
		c-0.5-0.8-0.7-1.7-0.7-2.6c0-1.5,0.5-2.7,1.6-3.8c1.1-1,2.4-1.5,3.9-1.5c1.1,0,2.3,0.3,3.6,0.8V39c-1.2-0.7-2.4-1-3.5-1
		c-1.2,0-2.1,0.4-2.9,1.1c-0.8,0.7-1.2,1.7-1.2,2.8c0,1.1,0.4,2,1.1,2.8s1.7,1.1,2.9,1.1C119.5,45.8,120.7,45.4,121.9,44.6z"/>
	<path class="st0" d="M123.7,36.8h1.5v8.9h4.6V47h-6.1V36.8z"/>
	<path class="st0" d="M134.3,36.7h1l4.6,10.3h-1.5l-1.4-3h-4.4l-1.3,3h-1.5L134.3,36.7z M136.4,42.7l-1.7-3.7l-1.5,3.7H136.4z"/>
	<path class="st0" d="M143.6,42.7l-1.1-0.7c-0.7-0.4-1.2-0.8-1.5-1.3c-0.3-0.4-0.4-0.9-0.4-1.4c0-0.8,0.3-1.5,0.8-2
		c0.6-0.5,1.3-0.8,2.2-0.8c0.9,0,1.6,0.2,2.4,0.7V39c-0.7-0.7-1.5-1.1-2.4-1.1c-0.5,0-0.9,0.1-1.2,0.3c-0.3,0.2-0.5,0.5-0.5,0.9
		c0,0.3,0.1,0.6,0.3,0.9s0.6,0.5,1.1,0.8l1.1,0.7c1.2,0.7,1.9,1.7,1.9,2.8c0,0.8-0.3,1.5-0.8,2c-0.5,0.5-1.3,0.8-2.1,0.8
		c-1,0-1.9-0.3-2.8-0.9v-1.9c0.8,1,1.7,1.5,2.7,1.5c0.5,0,0.8-0.1,1.1-0.4c0.3-0.3,0.5-0.6,0.5-1C144.9,43.9,144.5,43.3,143.6,42.7z
		"/>
	<path class="st0" d="M150.4,42.7l-1.1-0.7c-0.7-0.4-1.2-0.8-1.5-1.3c-0.3-0.4-0.4-0.9-0.4-1.4c0-0.8,0.3-1.5,0.8-2
		c0.6-0.5,1.3-0.8,2.2-0.8c0.9,0,1.6,0.2,2.4,0.7V39c-0.7-0.7-1.5-1.1-2.4-1.1c-0.5,0-0.9,0.1-1.2,0.3c-0.3,0.2-0.5,0.5-0.5,0.9
		c0,0.3,0.1,0.6,0.3,0.9s0.6,0.5,1.1,0.8l1.1,0.7c1.2,0.7,1.9,1.7,1.9,2.8c0,0.8-0.3,1.5-0.8,2c-0.5,0.5-1.3,0.8-2.1,0.8
		c-1,0-1.9-0.3-2.8-0.9v-1.9c0.8,1,1.7,1.5,2.7,1.5c0.5,0,0.8-0.1,1.1-0.4c0.3-0.3,0.5-0.6,0.5-1C151.8,43.9,151.3,43.3,150.4,42.7z
		"/>
	<path class="st0" d="M154.8,36.8h5.8v1.3h-4.3v3.1h4.2v1.3h-4.2v3.2h4.5V47h-5.9V36.8z"/>
	<path class="st0" d="M164.8,42.7l-1.1-0.7c-0.7-0.4-1.2-0.8-1.5-1.3c-0.3-0.4-0.4-0.9-0.4-1.4c0-0.8,0.3-1.5,0.8-2
		c0.6-0.5,1.3-0.8,2.2-0.8c0.9,0,1.6,0.2,2.4,0.7V39c-0.7-0.7-1.5-1.1-2.4-1.1c-0.5,0-0.9,0.1-1.2,0.3c-0.3,0.2-0.5,0.5-0.5,0.9
		c0,0.3,0.1,0.6,0.3,0.9s0.6,0.5,1.1,0.8l1.1,0.7c1.2,0.7,1.9,1.7,1.9,2.8c0,0.8-0.3,1.5-0.8,2c-0.5,0.5-1.3,0.8-2.1,0.8
		c-1,0-1.9-0.3-2.8-0.9v-1.9c0.8,1,1.7,1.5,2.7,1.5c0.5,0,0.8-0.1,1.1-0.4c0.3-0.3,0.5-0.6,0.5-1C166.1,43.9,165.7,43.3,164.8,42.7z
		"/>
	<path class="st0" d="M206.7,47V36.8h3.4c1.4,0,2.5,0.2,3.3,0.6c0.8,0.4,1.5,1,1.9,1.8s0.7,1.7,0.7,2.7c0,0.7-0.1,1.3-0.4,2
		c-0.3,0.6-0.6,1.2-1.1,1.6c-0.5,0.5-1.1,0.9-1.7,1.1c-0.4,0.2-0.7,0.3-1.1,0.3c-0.3,0.1-0.9,0.1-1.8,0.1H206.7z M210,38.1h-1.8v7.6
		h1.9c0.7,0,1.3,0,1.7-0.2c0.4-0.1,0.7-0.2,1-0.4c0.3-0.2,0.5-0.3,0.7-0.6c0.7-0.7,1.1-1.7,1.1-2.8c0-1.1-0.4-2-1.1-2.7
		c-0.3-0.3-0.6-0.5-0.9-0.6c-0.4-0.2-0.7-0.3-1-0.3S210.7,38.1,210,38.1z"/>
	<path class="st0" d="M222.9,36.6c1.6,0,2.9,0.5,3.9,1.5s1.6,2.3,1.6,3.8s-0.5,2.8-1.6,3.7s-2.4,1.5-4,1.5c-1.5,0-2.8-0.5-3.9-1.5
		c-1-1-1.5-2.2-1.5-3.7c0-1.5,0.5-2.8,1.6-3.8S221.3,36.6,222.9,36.6z M223,38c-1.2,0-2.1,0.4-2.9,1.1s-1.1,1.7-1.1,2.8
		c0,1.1,0.4,2,1.1,2.8s1.7,1.1,2.8,1.1c1.1,0,2.1-0.4,2.9-1.1c0.8-0.7,1.1-1.7,1.1-2.8c0-1.1-0.4-2-1.1-2.7
		C225,38.4,224.1,38,223,38z"/>
	<path class="st0" d="M230.3,47V36.8h2.6c1,0,1.9,0.3,2.5,0.8c0.6,0.5,0.9,1.2,0.9,2.1c0,0.6-0.1,1.1-0.4,1.5
		c-0.3,0.4-0.7,0.8-1.3,1c0.3,0.2,0.6,0.5,1,0.9s0.8,1,1.3,1.9c0.4,0.6,0.6,1,0.9,1.3l0.5,0.7h-1.7l-0.4-0.7c0,0,0-0.1-0.1-0.1
		l-0.3-0.4l-0.5-0.7l-0.5-0.8c-0.3-0.4-0.6-0.8-0.8-1c-0.3-0.2-0.5-0.4-0.7-0.5c-0.2-0.1-0.5-0.2-1-0.2h-0.4V47H230.3z M232.2,38
		h-0.4v3.2h0.6c0.7,0,1.3-0.1,1.5-0.2c0.3-0.1,0.5-0.3,0.6-0.6c0.2-0.3,0.2-0.5,0.2-0.9c0-0.3-0.1-0.6-0.3-0.9
		c-0.2-0.3-0.4-0.4-0.7-0.6C233.4,38.1,232.9,38,232.2,38z"/>
	<path class="st0" d="M247.4,36.8h1.4V47h-1.5v-8l-3.1,4h-0.3l-3.2-4v8h-1.5V36.8h1.4l3.4,4.2L247.4,36.8z"/>
	<path class="st0" d="M253.5,42.7l-1.1-0.7c-0.7-0.4-1.2-0.8-1.5-1.3c-0.3-0.4-0.4-0.9-0.4-1.4c0-0.8,0.3-1.5,0.8-2
		c0.6-0.5,1.3-0.8,2.2-0.8c0.9,0,1.6,0.2,2.4,0.7V39c-0.7-0.7-1.5-1.1-2.4-1.1c-0.5,0-0.9,0.1-1.2,0.3c-0.3,0.2-0.5,0.5-0.5,0.9
		c0,0.3,0.1,0.6,0.3,0.9s0.6,0.5,1.1,0.8l1.1,0.7c1.2,0.7,1.9,1.7,1.9,2.8c0,0.8-0.3,1.5-0.8,2c-0.5,0.5-1.3,0.8-2.1,0.8
		c-1,0-1.9-0.3-2.8-0.9v-1.9c0.8,1,1.7,1.5,2.7,1.5c0.5,0,0.8-0.1,1.1-0.4c0.3-0.3,0.5-0.6,0.5-1C254.9,43.9,254.4,43.3,253.5,42.7z
		"/>
	<path class="st0" d="M295.4,36.8h5.5v1.3h-4v2.9h4v1.3h-4V47h-1.5V36.8z"/>
	<path class="st0" d="M307.5,36.6c1.6,0,2.9,0.5,3.9,1.5s1.6,2.3,1.6,3.8s-0.5,2.8-1.6,3.7s-2.4,1.5-4,1.5c-1.5,0-2.8-0.5-3.9-1.5
		c-1-1-1.5-2.2-1.5-3.7c0-1.5,0.5-2.8,1.6-3.8S305.9,36.6,307.5,36.6z M307.5,38c-1.2,0-2.1,0.4-2.9,1.1s-1.1,1.7-1.1,2.8
		c0,1.1,0.4,2,1.1,2.8s1.7,1.1,2.8,1.1c1.1,0,2.1-0.4,2.9-1.1c0.8-0.7,1.1-1.7,1.1-2.8c0-1.1-0.4-2-1.1-2.7
		C309.6,38.4,308.6,38,307.5,38z"/>
	<path class="st0" d="M319.8,36.6c1.6,0,2.9,0.5,3.9,1.5s1.6,2.3,1.6,3.8s-0.5,2.8-1.6,3.7s-2.4,1.5-4,1.5c-1.5,0-2.8-0.5-3.9-1.5
		c-1-1-1.5-2.2-1.5-3.7c0-1.5,0.5-2.8,1.6-3.8S318.2,36.6,319.8,36.6z M319.9,38c-1.2,0-2.1,0.4-2.9,1.1s-1.1,1.7-1.1,2.8
		c0,1.1,0.4,2,1.1,2.8s1.7,1.1,2.8,1.1c1.1,0,2.1-0.4,2.9-1.1c0.8-0.7,1.1-1.7,1.1-2.8c0-1.1-0.4-2-1.1-2.7
		C321.9,38.4,321,38,319.9,38z"/>
	<path class="st0" d="M327.1,47V36.8h3.4c1.4,0,2.5,0.2,3.3,0.6c0.8,0.4,1.5,1,1.9,1.8s0.7,1.7,0.7,2.7c0,0.7-0.1,1.3-0.4,2
		c-0.3,0.6-0.6,1.2-1.1,1.6c-0.5,0.5-1.1,0.9-1.7,1.1c-0.4,0.2-0.7,0.3-1.1,0.3c-0.3,0.1-0.9,0.1-1.8,0.1H327.1z M330.4,38.1h-1.8
		v7.6h1.9c0.7,0,1.3,0,1.7-0.2c0.4-0.1,0.7-0.2,1-0.4c0.3-0.2,0.5-0.3,0.7-0.6c0.7-0.7,1.1-1.7,1.1-2.8c0-1.1-0.4-2-1.1-2.7
		c-0.3-0.3-0.6-0.5-0.9-0.6c-0.4-0.2-0.7-0.3-1-0.3S331.1,38.1,330.4,38.1z"/>
	<path class="st0" d="M375.8,47V36.7h3.2c1,0,1.8,0.3,2.3,0.8c0.6,0.5,0.9,1.2,0.9,2.1c0,0.6-0.1,1.1-0.4,1.6
		c-0.3,0.5-0.7,0.8-1.2,1c-0.5,0.2-1.3,0.3-2.2,0.3h-1.1V47H375.8z M378.8,38.1h-1.5v3.2h1.6c0.6,0,1.1-0.1,1.4-0.4
		c0.3-0.3,0.5-0.7,0.5-1.2C380.7,38.6,380.1,38.1,378.8,38.1z"/>
	<path class="st0" d="M390.7,36.8h1.5V47h-1.5v-4.5H385V47h-1.5V36.8h1.5v4.4h5.7V36.8z"/>
	<path class="st0" d="M394.5,36.8h1.5V47h-1.5V36.8z"/>
	<path class="st0" d="M398.2,36.8h1.5v8.9h4.6V47h-6.1V36.8z"/>
	<path class="st0" d="M405.6,36.8h1.5v8.9h4.6V47h-6.1V36.8z"/>
	<path class="st0" d="M417.4,36.8h1.8l-3.8,4.8V47h-1.5v-5.4l-3.8-4.8h1.8l2.7,3.5L417.4,36.8z"/>
	<path class="st0" d="M457.9,36.8h5.5v1.3h-4v2.9h4v1.3h-4V47h-1.5V36.8z"/>
	<path class="st0" d="M472,36.8h1.5v5.8c0,0.8-0.1,1.4-0.2,1.8c-0.1,0.4-0.3,0.7-0.4,1c-0.2,0.3-0.4,0.5-0.6,0.7
		c-0.8,0.7-1.9,1-3.2,1c-1.3,0-2.4-0.3-3.2-1c-0.2-0.2-0.5-0.5-0.6-0.7c-0.2-0.3-0.3-0.6-0.4-1c-0.1-0.4-0.2-1-0.2-1.8v-5.8h1.5v5.8
		c0,1,0.1,1.6,0.3,2c0.2,0.4,0.6,0.7,1,0.9s1,0.3,1.6,0.3c0.9,0,1.6-0.2,2.1-0.7c0.3-0.2,0.5-0.5,0.6-0.9s0.2-0.9,0.2-1.7V36.8z"/>
	<path class="st0" d="M483.6,36.8h1.4V47h-1.3l-6.8-7.9V47h-1.4V36.8h1.2l6.9,7.9V36.8z"/>
	<path class="st0" d="M524.8,47V36.8h2.6c1,0,1.9,0.3,2.5,0.8c0.6,0.5,0.9,1.2,0.9,2.1c0,0.6-0.1,1.1-0.4,1.5
		c-0.3,0.4-0.7,0.8-1.3,1c0.3,0.2,0.6,0.5,1,0.9s0.8,1,1.3,1.9c0.4,0.6,0.6,1,0.9,1.3l0.5,0.7h-1.7l-0.4-0.7c0,0,0-0.1-0.1-0.1
		l-0.3-0.4l-0.5-0.7l-0.5-0.8c-0.3-0.4-0.6-0.8-0.8-1c-0.3-0.2-0.5-0.4-0.7-0.5c-0.2-0.1-0.5-0.2-1-0.2h-0.4V47H524.8z M526.7,38
		h-0.4v3.2h0.6c0.7,0,1.3-0.1,1.5-0.2c0.3-0.1,0.5-0.3,0.6-0.6c0.2-0.3,0.2-0.5,0.2-0.9c0-0.3-0.1-0.6-0.3-0.9
		c-0.2-0.3-0.4-0.4-0.7-0.6C527.9,38.1,527.4,38,526.7,38z"/>
	<path class="st0" d="M533.8,36.8h5.8v1.3h-4.3v3.1h4.2v1.3h-4.2v3.2h4.5V47h-5.9V36.8z"/>
	<path class="st0" d="M543.8,42.7l-1.1-0.7c-0.7-0.4-1.2-0.8-1.5-1.3c-0.3-0.4-0.4-0.9-0.4-1.4c0-0.8,0.3-1.5,0.8-2
		c0.6-0.5,1.3-0.8,2.2-0.8c0.9,0,1.6,0.2,2.4,0.7V39c-0.7-0.7-1.5-1.1-2.4-1.1c-0.5,0-0.9,0.1-1.2,0.3c-0.3,0.2-0.5,0.5-0.5,0.9
		c0,0.3,0.1,0.6,0.3,0.9s0.6,0.5,1.1,0.8l1.1,0.7c1.2,0.7,1.9,1.7,1.9,2.8c0,0.8-0.3,1.5-0.8,2c-0.5,0.5-1.3,0.8-2.1,0.8
		c-1,0-1.9-0.3-2.8-0.9v-1.9c0.8,1,1.7,1.5,2.7,1.5c0.5,0,0.8-0.1,1.1-0.4c0.3-0.3,0.5-0.6,0.5-1C545.2,43.9,544.7,43.3,543.8,42.7z
		"/>
	<path class="st0" d="M553.2,36.6c1.6,0,2.9,0.5,3.9,1.5s1.6,2.3,1.6,3.8s-0.5,2.8-1.6,3.7s-2.4,1.5-4,1.5c-1.5,0-2.8-0.5-3.9-1.5
		c-1-1-1.5-2.2-1.5-3.7c0-1.5,0.5-2.8,1.6-3.8S551.6,36.6,553.2,36.6z M553.2,38c-1.2,0-2.1,0.4-2.9,1.1s-1.1,1.7-1.1,2.8
		c0,1.1,0.4,2,1.1,2.8s1.7,1.1,2.8,1.1c1.1,0,2.1-0.4,2.9-1.1c0.8-0.7,1.1-1.7,1.1-2.8c0-1.1-0.4-2-1.1-2.7
		C555.3,38.4,554.3,38,553.2,38z"/>
	<path class="st0" d="M567.6,36.8h1.5v5.8c0,0.8-0.1,1.4-0.2,1.8c-0.1,0.4-0.3,0.7-0.4,1c-0.2,0.3-0.4,0.5-0.6,0.7
		c-0.8,0.7-1.9,1-3.2,1c-1.3,0-2.4-0.3-3.2-1c-0.2-0.2-0.5-0.5-0.6-0.7c-0.2-0.3-0.3-0.6-0.4-1c-0.1-0.4-0.2-1-0.2-1.8v-5.8h1.5v5.8
		c0,1,0.1,1.6,0.3,2c0.2,0.4,0.6,0.7,1,0.9s1,0.3,1.6,0.3c0.9,0,1.6-0.2,2.1-0.7c0.3-0.2,0.5-0.5,0.6-0.9s0.2-0.9,0.2-1.7V36.8z"/>
	<path class="st0" d="M571.2,47V36.8h2.6c1,0,1.9,0.3,2.5,0.8c0.6,0.5,0.9,1.2,0.9,2.1c0,0.6-0.1,1.1-0.4,1.5
		c-0.3,0.4-0.7,0.8-1.3,1c0.3,0.2,0.6,0.5,1,0.9s0.8,1,1.3,1.9c0.4,0.6,0.6,1,0.9,1.3l0.5,0.7h-1.7l-0.4-0.7c0,0,0-0.1-0.1-0.1
		l-0.3-0.4L576,45l-0.5-0.8c-0.3-0.4-0.6-0.8-0.8-1c-0.3-0.2-0.5-0.4-0.7-0.5c-0.2-0.1-0.5-0.2-1-0.2h-0.4V47H571.2z M573.1,38h-0.4
		v3.2h0.6c0.7,0,1.3-0.1,1.5-0.2c0.3-0.1,0.5-0.3,0.6-0.6c0.2-0.3,0.2-0.5,0.2-0.9c0-0.3-0.1-0.6-0.3-0.9c-0.2-0.3-0.4-0.4-0.7-0.6
		C574.3,38.1,573.8,38,573.1,38z"/>
	<path class="st0" d="M589,44.6v1.6c-1.1,0.6-2.3,0.9-3.7,0.9c-1.1,0-2.1-0.2-2.9-0.7c-0.8-0.5-1.4-1.1-1.9-1.9
		c-0.5-0.8-0.7-1.7-0.7-2.6c0-1.5,0.5-2.7,1.6-3.8c1.1-1,2.4-1.5,3.9-1.5c1.1,0,2.3,0.3,3.6,0.8V39c-1.2-0.7-2.4-1-3.5-1
		c-1.2,0-2.1,0.4-2.9,1.1c-0.8,0.7-1.2,1.7-1.2,2.8c0,1.1,0.4,2,1.1,2.8s1.7,1.1,2.9,1.1C586.6,45.8,587.8,45.4,589,44.6z"/>
	<path class="st0" d="M590.8,36.8h5.8v1.3h-4.3v3.1h4.2v1.3h-4.2v3.2h4.5V47h-5.9V36.8z"/>
	<path class="st0" d="M600.8,42.7l-1.1-0.7c-0.7-0.4-1.2-0.8-1.5-1.3c-0.3-0.4-0.4-0.9-0.4-1.4c0-0.8,0.3-1.5,0.8-2
		c0.6-0.5,1.3-0.8,2.2-0.8c0.9,0,1.6,0.2,2.4,0.7V39c-0.7-0.7-1.5-1.1-2.4-1.1c-0.5,0-0.9,0.1-1.2,0.3c-0.3,0.2-0.5,0.5-0.5,0.9
		c0,0.3,0.1,0.6,0.3,0.9s0.6,0.5,1.1,0.8l1.1,0.7c1.2,0.7,1.9,1.7,1.9,2.8c0,0.8-0.3,1.5-0.8,2c-0.5,0.5-1.3,0.8-2.1,0.8
		c-1,0-1.9-0.3-2.8-0.9v-1.9c0.8,1,1.7,1.5,2.7,1.5c0.5,0,0.8-0.1,1.1-0.4c0.3-0.3,0.5-0.6,0.5-1C602.2,43.9,601.7,43.3,600.8,42.7z
		"/>
</g>
</svg>
