<?xml version="1.0" encoding="utf-8"?>
<!-- Generator: Adobe Illustrator 16.0.4, SVG Export Plug-In . SVG Version: 6.00 Build 0)  -->
<!DOCTYPE svg PUBLIC "-//W3C//DTD SVG 1.1//EN" "http://www.w3.org/Graphics/SVG/1.1/DTD/svg11.dtd">
<svg version="1.1"
	 id="Layer_1" xmlns:rdf="http://www.w3.org/1999/02/22-rdf-syntax-ns#" xmlns:cc="http://creativecommons.org/ns#" xmlns:dc="http://purl.org/dc/elements/1.1/"
	 xmlns="http://www.w3.org/2000/svg" xmlns:xlink="http://www.w3.org/1999/xlink" x="0px" y="0px" width="88.32px"
	 height="95.622px" viewBox="0 0 88.32 95.622" enable-background="new 0 0 88.32 95.622" xml:space="preserve">
<path fill="#0D3876" d="M84.918,66.663c-0.053-0.025-0.135-0.076-0.218-0.137c-0.114-0.082-0.232-0.181-0.307-0.25l-0.08-0.076
	h-0.002l-0.01-0.011c-0.33-0.362-0.7-0.651-1.081-0.878c0.008-0.062,0.013-0.119,0.017-0.166c0.783-0.438,1.313-1.275,1.313-2.238
	c0-0.923-0.487-1.729-1.217-2.182l0.002-0.001c-0.026-0.017-0.124-0.076-0.271-0.16c0.035-0.438,0.011-0.909-0.095-1.388v-0.001
	l-0.002-0.005v-0.002l-0.001-0.003v-0.004l-0.001-0.003l-0.015-0.107c-0.015-0.102-0.026-0.255-0.028-0.396
	c-0.001-0.101,0.007-0.194,0.014-0.254c0.253-0.396,0.401-0.867,0.401-1.373c0-1.078-0.663-1.998-1.603-2.379
	c-0.114-1.311-1.215-2.341-2.556-2.341c-0.093,0-0.184,0.006-0.274,0.015c-0.04,0.006-0.144,0.016-0.295,0.039
	c-0.241-0.373-0.546-0.73-0.922-1.048l-0.003-0.001l-0.006-0.006l-0.08-0.078c-0.072-0.072-0.175-0.186-0.263-0.297
	c-0.062-0.078-0.112-0.156-0.143-0.208c-0.116-1.312-1.215-2.341-2.556-2.341c-0.5,0-0.967,0.143-1.361,0.391l-5.059-3.903
	l4.841-4.408V14.489L58.956,1.128H14.28v19.74c-0.024-0.001-0.047-0.002-0.069-0.002c-1.419,0-2.567,1.148-2.567,2.567
	c0,0.185,0.021,0.365,0.058,0.539c-0.014,0.058-0.039,0.146-0.075,0.239c-0.05,0.134-0.116,0.272-0.164,0.363l-0.052,0.096
	l-0.005,0.008c-0.267,0.414-0.454,0.848-0.574,1.275c-0.167,0.026-0.278,0.047-0.31,0.054c-1.174,0.236-2.058,1.272-2.058,2.516
	c0,0.044,0.005,0.086,0.006,0.13c-0.264-0.091-0.545-0.144-0.84-0.144c-1.419,0-2.567,1.15-2.567,2.567
	c0,0.506,0.148,0.976,0.401,1.375c0.007,0.059,0.015,0.152,0.014,0.254c-0.001,0.141-0.016,0.293-0.029,0.396l-0.015,0.107
	l-0.001,0.009L5.43,33.221v0.005c-0.105,0.479-0.13,0.947-0.095,1.389c-0.147,0.083-0.245,0.143-0.271,0.159l0.002,0.002
	c-0.73,0.453-1.217,1.259-1.217,2.18c0,0.962,0.53,1.8,1.314,2.24c0.003,0.046,0.008,0.103,0.015,0.167
	c-0.381,0.226-0.753,0.516-1.083,0.88l-0.002,0.002l-0.009,0.008l-0.001,0.001l-0.078,0.074c-0.075,0.069-0.192,0.167-0.308,0.25
	c-0.082,0.06-0.163,0.109-0.216,0.136c-1.36,0.066-2.442,1.187-2.442,2.562c0,1.301,0.97,2.375,2.225,2.542
	c0.05,0.032,0.128,0.087,0.203,0.153c0.108,0.091,0.216,0.2,0.286,0.275l0.073,0.083l0.007,0.007v0.001
	c0.299,0.391,0.644,0.712,1.005,0.97c-0.031,0.167-0.048,0.279-0.053,0.31h0.003c-0.018,0.121-0.03,0.244-0.03,0.37
	c0,0.967,0.533,1.807,1.322,2.244c-0.555,0.473-0.909,1.174-0.909,1.958c0,1.419,1.15,2.567,2.568,2.567
	c0.368,0,0.717-0.078,1.033-0.217c0.061,0.001,0.152,0.01,0.25,0.024c0.141,0.022,0.289,0.06,0.388,0.087l0.104,0.031l0.012,0.004
	c0.458,0.18,0.92,0.274,1.362,0.307c0.054,0.143,0.094,0.238,0.108,0.277c0.003,0.006,0.005,0.012,0.007,0.014v0.002
	c0.136,0.316,0.333,0.6,0.577,0.836c-0.019,0.286-0.012,0.582,0.026,0.887v0.002l0.001,0.009l0.007,0.108
	c0.003,0.104,0.002,0.256-0.011,0.398c-0.007,0.101-0.023,0.193-0.036,0.254c-0.335,0.432-0.537,0.975-0.537,1.565
	c0,1.417,1.149,2.566,2.568,2.566c0.235,0,0.464-0.032,0.681-0.093v29.437h23.394c-0.113,0.287-0.177,0.6-0.177,0.927
	c0,1.418,1.15,2.568,2.568,2.568c0.202,0,0.396-0.025,0.584-0.068l0,0l4.995-1.166v-0.002c0.74-0.172,1.356-0.662,1.696-1.322
	l0.001,0.002c0.172-0.328,0.348-0.641,0.529-0.939h8.34c0.457,0.424,1.067,0.685,1.74,0.685c0.433,0,0.839-0.107,1.194-0.296
	l0.002,0.001c0.002-0.003,0.01-0.005,0.014-0.008c0.009-0.005,0.019-0.01,0.027-0.017c0.047-0.024,0.129-0.069,0.232-0.129
	c0.362,0.253,0.778,0.471,1.245,0.623l0.013,0.005h0.002l0.102,0.042c0.095,0.041,0.232,0.105,0.354,0.177
	c0.088,0.049,0.164,0.103,0.212,0.14c0.425,0.829,1.287,1.399,2.283,1.399c1.419,0,2.569-1.149,2.569-2.569
	c0-0.257-0.039-0.504-0.11-0.74c0.009-0.059,0.027-0.149,0.055-0.243c0.039-0.136,0.094-0.278,0.134-0.374l0.045-0.1l0.007-0.013
	v-0.001c0.231-0.433,0.382-0.879,0.467-1.312c0.165-0.04,0.275-0.071,0.304-0.078v-0.002c0.339-0.098,0.649-0.262,0.914-0.478
	c0.248,0.08,0.513,0.125,0.786,0.125c0.771,0,1.459-0.341,1.929-0.878l0.002,0.002c0.009-0.008,0.027-0.031,0.05-0.058
	c0.001,0,0.001-0.001,0.002-0.001c0.035-0.044,0.087-0.104,0.15-0.184c0.428,0.108,0.893,0.16,1.38,0.136h0.001h0.002h0.001h0.001
	h0.008h0.005h0.003l0.109,0.003c0.103,0.004,0.255,0.016,0.396,0.039c0.1,0.014,0.192,0.037,0.25,0.056
	c0.453,0.406,1.052,0.656,1.711,0.656c1.417,0,2.567-1.149,2.567-2.567c0-0.59-0.201-1.134-0.536-1.568
	c-0.014-0.059-0.03-0.15-0.037-0.252c-0.012-0.141-0.013-0.295-0.009-0.397l0.005-0.108l0.001-0.003v-0.01v-0.003v-0.001
	l0.001-0.007c0.038-0.299,0.044-0.591,0.026-0.873c0.251-0.244,0.452-0.537,0.588-0.866c0.019-0.044,0.056-0.136,0.104-0.264
	c0.442-0.032,0.905-0.128,1.363-0.307l0.012-0.003l0.104-0.031c0.098-0.029,0.247-0.064,0.388-0.088
	c0.098-0.017,0.189-0.023,0.249-0.023c0.316,0.137,0.665,0.216,1.032,0.216c1.419,0,2.567-1.149,2.567-2.567
	c0-0.785-0.353-1.486-0.907-1.957c0.787-0.439,1.321-1.279,1.321-2.246c0-0.126-0.011-0.248-0.028-0.369h0.002
	c-0.005-0.031-0.022-0.145-0.054-0.311c0.361-0.258,0.706-0.578,1.007-0.97l0.005-0.007l0.074-0.084
	c0.069-0.076,0.177-0.184,0.285-0.275c0.076-0.066,0.154-0.121,0.204-0.154c1.255-0.168,2.224-1.24,2.224-2.542
	C87.359,67.849,86.277,66.729,84.918,66.663"/>
<path fill="#E5E5E4" d="M63.23,45.075l6.624-6.03V15.875L57.683,4.343H17.499v83.702H57.69l13.673-13.047V51.352L63.23,45.075z
	 M47.156,35.275h-5.449v-9.958h5.449V35.275z M41.707,56.25h5.449v10.82h-5.449V56.25z"/>
<path fill="#0D3876" d="M58.23,45.275l9.917,7.653v20.693L56.398,84.831H20.706V7.553h35.692l10.238,9.7v20.37L58.23,45.275z
	 M38.489,38.485h11.873V22.103H38.489V38.485z M38.489,70.28h11.873V53.034H38.489V70.28z"/>
<path fill="#0D3876" d="M61.768,23.963l0.009-0.039l0.054-0.15l0.016-0.028c0.582-0.244,0.99-0.817,0.99-1.487
	c0-0.629-0.359-1.172-0.885-1.438V20.82c-0.035-0.017-0.37-0.186-0.852-0.365c0.079-0.521,0.061-1.121-0.135-1.74l-0.001-0.004
	l-0.002-0.005l-0.006-0.026l-0.035-0.144c-0.027-0.129-0.062-0.315-0.077-0.505c-0.019-0.19-0.021-0.385-0.001-0.516l0.027-0.138
	l0.004-0.014l0.002-0.005c0.154-0.248,0.245-0.539,0.245-0.853c0-0.89-0.722-1.612-1.612-1.612c-0.562,0-1.058,0.29-1.347,0.728
	l-0.013,0.012l-0.113,0.083c-0.111,0.07-0.289,0.151-0.47,0.214c-0.181,0.063-0.363,0.111-0.491,0.14l-0.146,0.03l-0.024,0.004H56.9
	c-0.646,0.08-1.201,0.313-1.642,0.604c-0.318-0.316-0.58-0.534-0.663-0.601c-0.004-0.002-0.006-0.005-0.009-0.006
	c-0.006-0.005-0.014-0.011-0.016-0.014l-0.002,0.001c-0.274-0.22-0.623-0.353-1.002-0.353c-0.891,0-1.612,0.722-1.612,1.612
	c0,0.018,0.002,0.035,0.002,0.054l-0.02,0.027l-0.115,0.113l-0.025,0.019l-0.005,0.005h-0.001l-0.012,0.008l-0.004,0.002
	l0.002,0.001c-0.053,0.036-0.103,0.076-0.15,0.119l-0.001-0.001c-0.597,0.527-0.995,1.089-1.201,1.661
	c-0.227,0.015-0.438,0.074-0.63,0.171v-0.001c-0.005,0.002-0.016,0.008-0.029,0.015c-0.004,0.002-0.006,0.004-0.01,0.006
	c-0.104,0.054-0.397,0.214-0.762,0.454c-0.355-0.354-0.822-0.675-1.397-0.882c-0.025-0.011-0.054-0.021-0.081-0.031
	c-0.004-0.001-0.007-0.004-0.011-0.005v-0.001l-0.026-0.01l-0.138-0.058c-0.119-0.052-0.289-0.136-0.452-0.234
	c-0.165-0.096-0.323-0.211-0.419-0.302l-0.095-0.104l-0.009-0.012l-0.002-0.002c-0.238-0.593-0.817-1.012-1.494-1.012
	c-0.891,0-1.613,0.723-1.613,1.613c0,0.199,0.039,0.389,0.104,0.565v0.001v0.003l0.002,0.014v0.142
	c-0.009,0.131-0.048,0.324-0.104,0.506c-0.055,0.183-0.124,0.359-0.177,0.479l-0.062,0.134l-0.012,0.027l-0.002,0.001
	c-0.313,0.566-0.452,1.148-0.479,1.675c-0.317,0.054-0.566,0.119-0.724,0.16c-0.06,0.009-0.119,0.021-0.177,0.036
	c-0.001,0-0.006,0.001-0.007,0.001v0.001c-0.683,0.188-1.184,0.81-1.184,1.553c0,0.555,0.281,1.045,0.708,1.335l0.011,0.03
	l0.022,0.159l0.001,0.035v-0.004h0.001v0.005h-0.001v0.005v0.004v-0.003v-0.001h0.001c0,0.016-0.002,0.032-0.002,0.05
	c0,0.053,0.002,0.105,0.007,0.156v0.004c0.002,0.006,0.003,0.012,0.003,0.019c0.096,0.968,0.402,1.731,0.89,2.26
	c0.204,0.225,0.427,0.384,0.637,0.498c0.346,0.306,0.729,0.518,1.101,0.657c-0.416,0.18-0.707,0.595-0.707,1.078v0.976
	c0,0.65,0.526,1.176,1.175,1.176c0.089,0,0.175-0.011,0.259-0.03h0.001c2.558-0.565,4.614-1.333,6.283-2.3
	c-0.161,0.31-0.285,0.668-0.325,1.08c-0.084,0.164-0.169,0.358-0.242,0.59c-0.196,0.592-0.25,1.499,0.127,2.385
	c0.041,0.235,0.121,0.496,0.271,0.761c0.35,0.634,0.985,1.17,1.884,1.567V36.75c0.063,0.029,0.13,0.054,0.197,0.074h0.001
	l0.005,0.001v0.001l0.029,0.01l0.144,0.073l0.027,0.02c0.19,0.677,0.812,1.174,1.55,1.174c0.56,0,1.051-0.284,1.341-0.715
	c0.021-0.034,0.229-0.345,0.466-0.8c0.505,0.141,1.1,0.195,1.733,0.078l0.009-0.001h0.005l0.03-0.005l0.147-0.016
	c0.132-0.013,0.32-0.023,0.512-0.017c0.189,0.004,0.385,0.028,0.513,0.062l0.134,0.043l0.012,0.006l0.002,0.001
	c0.277,0.225,0.63,0.36,1.016,0.36c0.891,0,1.611-0.721,1.611-1.611c0-0.493-0.221-0.932-0.568-1.229l-0.004-0.002l-0.008-0.013
	l-0.068-0.123c-0.057-0.12-0.116-0.305-0.155-0.493c-0.041-0.186-0.066-0.374-0.079-0.503l-0.012-0.149l-0.002-0.031v-0.001
	c0-0.65-0.165-1.229-0.398-1.702c0.403-0.317,0.671-0.579,0.7-0.607h-0.001c0.297-0.292,0.482-0.699,0.482-1.148
	c0-0.844-0.646-1.534-1.471-1.605l-0.024-0.024l-0.098-0.127L60.3,27.698l-0.002-0.001v-0.001h-0.001
	c-0.031-0.062-0.066-0.122-0.106-0.179c-0.222-0.324-0.461-0.6-0.708-0.833c0.062-0.031,0.126-0.06,0.188-0.096
	c0.229-0.069,0.479-0.18,0.724-0.361c0.581-0.42,1.032-1.107,1.318-2.035c0.003-0.007,0.005-0.015,0.008-0.024
	c0.001,0,0.001-0.001,0.001-0.001c0.021-0.066,0.034-0.135,0.046-0.204L61.768,23.963L61.768,23.963z"/>
<path fill="#0D3876" d="M51.855,56.363c-0.241,0-0.47,0.056-0.676,0.149l-0.003,0.002h-0.002l-0.004,0.002l-0.013,0.002
	l-0.141,0.012c-0.132,0-0.325-0.024-0.512-0.066c-0.188-0.039-0.367-0.096-0.491-0.139l-0.14-0.052l-0.026-0.011l-0.016-0.007
	c-0.585-0.267-1.172-0.356-1.694-0.343c-0.075-0.305-0.158-0.543-0.21-0.698c-0.007-0.026-0.017-0.052-0.022-0.077
	c-0.062-0.578-0.429-1.065-0.939-1.297l0.002-0.001c-0.004-0.001-0.014-0.004-0.024-0.009l-0.019-0.008
	c-0.108-0.047-0.414-0.178-0.825-0.309c0.057-0.523,0.011-1.123-0.214-1.731l-0.002-0.009l-0.003-0.008l-0.005-0.018l-0.041-0.143
	c-0.034-0.127-0.075-0.312-0.102-0.5c-0.027-0.188-0.036-0.385-0.024-0.516l0.022-0.141l0.004-0.012l0.001-0.004v-0.001l0.001-0.001
	c0.132-0.235,0.208-0.503,0.208-0.789c0-0.892-0.723-1.614-1.613-1.614c-0.587,0-1.099,0.315-1.381,0.786l-0.003,0.002h0.002
	l-0.002,0.001l-0.001,0.001l-0.001,0.002l-0.001,0.002l-0.011,0.009l-0.108,0.088c-0.108,0.075-0.282,0.165-0.46,0.235
	c-0.178,0.072-0.357,0.127-0.485,0.16l-0.143,0.037l-0.028,0.006c-0.005,0-0.009,0.002-0.013,0.002c-0.002,0-0.005,0-0.006,0
	c-0.635,0.111-1.173,0.367-1.597,0.674c-0.381-0.344-0.684-0.566-0.716-0.588l-0.001,0.001c-0.266-0.194-0.592-0.308-0.945-0.308
	c-0.211,0-0.413,0.043-0.598,0.115c-0.152-0.021-0.347-0.051-0.577-0.064c-0.075-0.521-0.267-1.088-0.632-1.622l-0.002-0.005
	l-0.016-0.025l-0.073-0.127c-0.063-0.115-0.148-0.284-0.222-0.46c-0.072-0.178-0.129-0.364-0.149-0.495l-0.013-0.141l0.001-0.018
	v-0.001v-0.006v0.003v-0.003v0.003v-0.003v-0.001c0.036-0.133,0.057-0.27,0.057-0.415c0-0.89-0.722-1.611-1.611-1.611
	c-0.731,0-1.347,0.486-1.545,1.152l-0.002,0.003l-0.007,0.014l-0.085,0.111c-0.087,0.1-0.234,0.227-0.388,0.34
	c-0.155,0.114-0.316,0.211-0.432,0.273l-0.13,0.073l-0.027,0.012l0.005-0.003l-0.01,0.007c-0.028,0.014-0.058,0.028-0.085,0.042
	c-0.552,0.261-0.983,0.624-1.305,1.009c-0.145-0.078-0.278-0.144-0.393-0.2c0.037-0.136,0.06-0.28,0.06-0.43
	c0-0.795-0.573-1.452-1.33-1.585v-0.001h-0.007c-0.06-0.01-0.119-0.018-0.18-0.02c-0.161-0.026-0.414-0.07-0.734-0.093
	c-0.075-0.519-0.267-1.085-0.63-1.62l-0.003-0.004l-0.016-0.026l-0.074-0.13c-0.063-0.114-0.15-0.283-0.222-0.459
	c-0.072-0.176-0.128-0.363-0.149-0.494l-0.014-0.141l0.001-0.014v-0.004v-0.001c0.036-0.136,0.058-0.275,0.058-0.424
	c0-0.889-0.723-1.611-1.612-1.611c-0.73,0-1.347,0.487-1.544,1.154l-0.001,0.002l-0.008,0.013l-0.085,0.112
	c-0.086,0.098-0.233,0.228-0.388,0.34c-0.155,0.114-0.316,0.211-0.431,0.275l-0.131,0.07l-0.024,0.011l0.002-0.001l-0.002,0.001
	c-0.098-0.118-0.223-0.265-0.373-0.428c0.303-0.425,0.554-0.961,0.66-1.592v-0.001c0.003-0.011,0.004-0.02,0.007-0.03l-0.002,0.004
	l0.007-0.029l0.035-0.145c0.033-0.126,0.087-0.308,0.157-0.486c0.068-0.176,0.157-0.351,0.232-0.46l0.086-0.111l0.011-0.009
	l0.003-0.003h0.002l0.001-0.001v-0.001c0.464-0.282,0.775-0.793,0.775-1.375c0-0.89-0.723-1.612-1.613-1.612
	c-0.291,0-0.563,0.079-0.8,0.214l-0.005,0.001h-0.003l-0.011,0.005l-0.139,0.021c-0.132,0.014-0.326,0.006-0.515-0.02
	c-0.19-0.024-0.376-0.065-0.502-0.097l-0.144-0.042l-0.03-0.007l-0.005-0.001c-0.004-0.001-0.006-0.002-0.009-0.002
	c-0.006-0.002-0.011-0.004-0.016-0.006c-0.602-0.211-1.19-0.251-1.707-0.192c-0.134-0.404-0.262-0.705-0.312-0.817
	c-0.001-0.001-0.002-0.004-0.002-0.006c-0.01-0.02-0.017-0.035-0.019-0.04h-0.002c-0.241-0.525-0.756-0.894-1.361-0.933
	c-0.016-0.091-0.034-0.184-0.063-0.281c-0.196-0.675-0.678-1.319-1.429-1.894c-0.002,0-0.004-0.001-0.005-0.003
	c-0.02-0.015-0.037-0.032-0.058-0.046l-0.001,0.001c-0.058-0.042-0.116-0.081-0.178-0.117v-0.001l-0.03-0.018l-0.123-0.101
	l-0.024-0.027c-0.045-0.85-0.746-1.526-1.607-1.526c-0.43,0-0.818,0.17-1.107,0.444l-0.001-0.001
	c-0.029,0.027-0.3,0.285-0.631,0.678c-0.466-0.25-1.038-0.437-1.688-0.46v-0.001h-0.003l-0.028-0.002l-0.148-0.015
	c-0.13-0.018-0.315-0.049-0.501-0.096c-0.185-0.046-0.368-0.112-0.486-0.175l-0.121-0.07l-0.011-0.01l-0.004-0.003l-0.001-0.002
	c-0.296-0.371-0.752-0.611-1.263-0.611c-0.891,0-1.611,0.72-1.611,1.611c0,0.364,0.121,0.698,0.323,0.968v0.001l0.008,0.017
	l0.039,0.136c0.028,0.127,0.046,0.324,0.043,0.514c-0.001,0.192-0.017,0.38-0.034,0.51l-0.021,0.146l-0.004,0.023L6.37,33.4
	l-0.002,0.008c-0.141,0.634-0.108,1.232,0.016,1.745c-0.464,0.22-0.782,0.417-0.816,0.438v0.002
	c-0.457,0.284-0.764,0.79-0.764,1.369c0,0.719,0.471,1.326,1.121,1.535l0.018,0.026l0.066,0.146l0.013,0.035l0.001-0.001
	c0.018,0.07,0.039,0.135,0.064,0.201l-0.001,0.001c0.001,0.001,0.003,0.004,0.004,0.005c0.005,0.012,0.01,0.023,0.015,0.034
	c0.002,0.019,0.002,0.036,0.003,0.052H6.104c0.002,0.004,0.003,0.01,0.003,0.013C6.112,39.07,6.118,39.13,6.13,39.19
	c0.013,0.163,0.03,0.417,0.081,0.73c-0.49,0.194-1,0.515-1.435,0.998l-0.019,0.019l-0.109,0.101
	c-0.096,0.089-0.24,0.211-0.395,0.322c-0.155,0.11-0.324,0.21-0.446,0.262l-0.133,0.045L3.66,41.669L3.656,41.67H3.655h0.001H3.655
	h0.001H3.651h0.004H3.653H3.651c-0.016,0-0.029-0.002-0.044-0.002c-0.892,0-1.612,0.721-1.612,1.613c0,0.86,0.675,1.561,1.523,1.607
	v0.001l0.018,0.005l0.129,0.056c0.117,0.06,0.277,0.174,0.422,0.296c0.146,0.126,0.278,0.259,0.367,0.356l0.099,0.11l0.019,0.023
	l0.004,0.003l0.005,0.006c0.39,0.511,0.866,0.87,1.335,1.105c-0.079,0.31-0.119,0.562-0.146,0.724
	c-0.015,0.058-0.026,0.115-0.036,0.174c-0.001,0.004-0.002,0.01-0.004,0.011l0.003,0.001c-0.012,0.075-0.019,0.152-0.019,0.231
	c0,0.892,0.721,1.612,1.612,1.612c0.06,0,0.119-0.006,0.178-0.012l-0.002,0.002l-0.038,0.143c-0.036,0.127-0.097,0.304-0.172,0.481
	c-0.073,0.177-0.166,0.347-0.244,0.454l-0.091,0.108l-0.014,0.014l-0.001,0.001c-0.486,0.277-0.815,0.801-0.815,1.4
	c0,0.891,0.722,1.611,1.611,1.611c0.278,0,0.538-0.071,0.766-0.193h0.001l0.014-0.004l0.14-0.02
	c0.132-0.008,0.326,0.004,0.516,0.037c0.188,0.029,0.371,0.074,0.497,0.109l0.143,0.044l0.022,0.007l0.005,0.002
	c0.566,0.224,1.125,0.289,1.625,0.259c0.061,0.132,0.136,0.255,0.227,0.364c0.091,0.266,0.166,0.447,0.185,0.492
	c0.143,0.34,0.399,0.619,0.721,0.795c-0.073,0.373-0.096,0.785-0.04,1.217v0.003v0.001h0.001v0.006l0.003,0.028l0.007,0.148
	c0.005,0.13,0.004,0.319-0.013,0.511c-0.015,0.188-0.05,0.382-0.09,0.507l-0.051,0.132l-0.008,0.012l-0.002,0.002l-0.002,0.002
	v0.002l-0.002,0.004c-0.258,0.285-0.415,0.662-0.415,1.076c0,0.891,0.721,1.613,1.612,1.613c0.457,0,0.87-0.193,1.164-0.502h0.001
	h0.002l0.003-0.004l0.012-0.006l0.127-0.061c0.123-0.051,0.312-0.1,0.5-0.128c0.188-0.031,0.378-0.045,0.508-0.05l0.148-0.003h0.026
	h0.009c0.648,0.034,1.233-0.097,1.719-0.302c0.295,0.421,0.541,0.701,0.567,0.733l0.001-0.001c0.295,0.334,0.728,0.549,1.21,0.549
	c0.384,0,0.735-0.135,1.012-0.359c0.206,0.359,0.548,0.635,0.955,0.752h-0.001h0.007c0.058,0.018,0.116,0.029,0.177,0.039
	c0.157,0.043,0.404,0.111,0.721,0.168c0.021,0.525,0.151,1.107,0.456,1.675l0.006,0.011h0.001l0,0l0.01,0.024L23,63.633
	c0.051,0.123,0.117,0.299,0.171,0.48c0.054,0.185,0.09,0.377,0.098,0.507l-0.001,0.143l-0.003,0.013l-0.001,0.005h0.001
	c-0.07,0.183-0.109,0.379-0.109,0.583c0,0.891,0.721,1.611,1.61,1.611c0.673,0,1.248-0.412,1.49-0.996l0.001-0.002l0.008-0.01
	l0.097-0.104c0.096-0.09,0.256-0.203,0.421-0.299s0.336-0.174,0.456-0.227l0.138-0.057l0.029-0.01
	c0.619-0.199,1.121-0.533,1.501-0.901c0.384,0.261,0.688,0.429,0.77,0.47l0.008,0.004c0.004,0.004,0.011,0.009,0.014,0.01v-0.001
	c0.225,0.118,0.48,0.185,0.75,0.185c0.138,0,0.27-0.018,0.397-0.052c0.027,0.211,0.074,0.429,0.143,0.648v0.003l0.001,0.004
	l0.008,0.025l0.033,0.146c0.026,0.129,0.06,0.315,0.077,0.506c0.017,0.188,0.017,0.385,0,0.518l-0.029,0.135l-0.005,0.016v0.002
	l-0.001,0.002v0.002c-0.156,0.246-0.249,0.541-0.249,0.855c0,0.891,0.723,1.613,1.612,1.613c0.562,0,1.056-0.288,1.344-0.725v-0.001
	l0.001-0.001v0.001l0.012-0.011l0.113-0.083c0.113-0.069,0.292-0.149,0.472-0.212c0.182-0.062,0.363-0.111,0.491-0.137l0.146-0.03
	l0.029-0.005l0.012-0.002c0.641-0.08,1.192-0.309,1.632-0.596c0.325,0.326,0.592,0.547,0.667,0.606
	c0.002,0.001,0.005,0.003,0.007,0.007c0.004,0.002,0.011,0.008,0.013,0.01c0.276,0.223,0.626,0.354,1.009,0.354
	c0.89,0,1.611-0.723,1.611-1.612c0-0.016-0.001-0.031-0.003-0.048l0.021-0.027l0.114-0.111l0.026-0.021l0,0h0.001
	c0.059-0.039,0.115-0.084,0.169-0.132l0.001,0.001c0.695-0.612,1.126-1.27,1.294-1.938c0.214,0.286,0.555,0.473,0.939,0.473
	c0.353,0,0.668-0.156,0.884-0.403c0.17,0.174,0.369,0.334,0.605,0.473c0.112,0.146,0.254,0.303,0.434,0.467
	c0.456,0.425,1.256,0.852,2.219,0.88c0.231,0.062,0.502,0.098,0.807,0.071c0.704-0.051,1.438-0.391,2.157-1.01
	c0.01-0.01,0.02-0.018,0.031-0.027c0.007-0.008,0.015-0.012,0.022-0.018l-0.001-0.002c0.052-0.046,0.101-0.096,0.147-0.146
	l0.003-0.004h0.002l0,0l0.004-0.004l0.02-0.021l0.125-0.101l0.031-0.017c0.081,0.014,0.164,0.022,0.249,0.022
	c0.89,0,1.612-0.723,1.612-1.613c0-0.309-0.089-0.597-0.239-0.841l0.002-0.001c-0.022-0.033-0.218-0.353-0.533-0.758
	c0.343-0.404,0.643-0.929,0.801-1.562v0.004l0.009-0.029l0.046-0.139c0.044-0.125,0.112-0.301,0.198-0.471
	c0.084-0.172,0.186-0.339,0.271-0.441l0.097-0.103l0.011-0.01h0.001l0.003-0.003l-0.001,0.002l-0.002,0.001h-0.001l0.003-0.001
	v-0.002l0.002-0.001h0.001l0.002-0.001c0.528-0.266,0.893-0.809,0.893-1.439C53.469,57.083,52.746,56.364,51.855,56.363
	 M25.635,52.35c0.184,0.012,0.396,0.012,0.638-0.016c0.178-0.016,0.374-0.058,0.577-0.117c0.025,0.07,0.053,0.141,0.081,0.205
	c0.062,0.305,0.163,0.58,0.285,0.834c-0.276-0.105-0.562-0.223-0.858-0.351c-0.334-0.143-0.68-0.303-1.032-0.476
	C25.427,52.411,25.53,52.383,25.635,52.35"/>
<path fill="#0D3876" d="M86.405,69.225c0-0.89-0.721-1.609-1.611-1.609c-0.016,0-0.032,0.001-0.047,0.001h-0.003l-0.001-0.001
	h-0.006l-0.012-0.004l-0.133-0.044c-0.122-0.052-0.291-0.149-0.446-0.261c-0.154-0.113-0.3-0.235-0.396-0.324l-0.107-0.102
	l-0.021-0.021l-0.004-0.004c-0.434-0.477-0.94-0.795-1.429-0.99c0.051-0.312,0.068-0.564,0.081-0.729
	c0.012-0.059,0.019-0.121,0.022-0.185c0.002-0.003,0.002-0.009,0.003-0.01h-0.003c0.002-0.017,0.003-0.032,0.003-0.052
	c0.005-0.011,0.011-0.021,0.015-0.033c0.001-0.002,0.003-0.004,0.004-0.005l-0.001-0.003c0.026-0.064,0.047-0.13,0.064-0.199h0.002
	l0.003-0.014l0,0l0.009-0.021l0.066-0.146l0.019-0.026c0.649-0.208,1.12-0.816,1.12-1.536c0-0.579-0.306-1.084-0.764-1.367v-0.002
	c-0.033-0.021-0.353-0.217-0.816-0.438c0.124-0.511,0.156-1.11,0.016-1.743L82.03,59.35l-0.001-0.01
	c-0.001-0.002-0.001-0.002-0.001-0.002l-0.003-0.02l-0.021-0.147c-0.018-0.128-0.034-0.317-0.035-0.507
	c-0.003-0.193,0.015-0.389,0.044-0.516l0.038-0.137l0.007-0.011l0.001-0.003v-0.002c0.202-0.27,0.323-0.605,0.323-0.967
	c0-0.893-0.721-1.613-1.611-1.613c-0.512,0-0.969,0.241-1.264,0.613l-0.003,0.003l-0.011,0.009l-0.121,0.074
	c-0.117,0.06-0.301,0.125-0.486,0.171c-0.185,0.048-0.371,0.08-0.501,0.097l-0.147,0.016l-0.03,0.002
	c-0.651,0.025-1.225,0.209-1.689,0.461c-0.332-0.391-0.604-0.648-0.633-0.678v0.002c-0.289-0.273-0.678-0.441-1.107-0.441
	c-0.861,0-1.563,0.676-1.607,1.525l-0.023,0.025l-0.124,0.103l-0.031,0.021l0.016-0.01c-0.067,0.037-0.13,0.079-0.19,0.125
	l-0.002-0.001c-0.019,0.013-0.033,0.028-0.051,0.042c-0.005,0.003-0.01,0.007-0.015,0.01c-0.75,0.573-1.23,1.216-1.427,1.891
	c-0.027,0.096-0.048,0.189-0.062,0.281c-0.606,0.037-1.121,0.406-1.362,0.933l-0.001-0.001c-0.003,0.006-0.011,0.022-0.02,0.043
	c-0.001,0-0.001,0.002-0.001,0.003c-0.05,0.112-0.18,0.413-0.313,0.819c-0.517-0.061-1.106-0.018-1.71,0.193
	c-0.008,0.002-0.016,0.005-0.024,0.008v-0.002l-0.006,0.003l-0.008,0.003l-0.019,0.004l-0.144,0.041
	c-0.128,0.033-0.312,0.072-0.501,0.098s-0.384,0.035-0.516,0.021l-0.14-0.021l-0.013-0.006l-0.005-0.001
	c-0.236-0.136-0.51-0.214-0.801-0.214c-0.891,0-1.611,0.721-1.611,1.613c0,0.583,0.312,1.094,0.777,1.375l0,0l0.014,0.014
	l0.088,0.111c0.073,0.111,0.162,0.284,0.23,0.461c0.07,0.18,0.125,0.358,0.158,0.487l0.034,0.143l0.006,0.026l0.001,0.006
	c0.002,0.008,0.004,0.016,0.005,0.023c0.106,0.633,0.357,1.17,0.66,1.593c-0.15,0.163-0.275,0.312-0.373,0.429l-0.023-0.012
	l-0.131-0.069c-0.115-0.065-0.276-0.163-0.432-0.276c-0.153-0.111-0.301-0.238-0.388-0.339l-0.085-0.112l-0.007-0.014L64.6,67.137
	c-0.197-0.666-0.813-1.153-1.545-1.153c-0.89,0-1.611,0.722-1.611,1.611c0,0.146,0.021,0.285,0.057,0.417l0.001,0.007v0.001v0.02
	l-0.013,0.139c-0.021,0.131-0.077,0.316-0.149,0.494c-0.073,0.177-0.158,0.344-0.221,0.461l-0.074,0.127l-0.017,0.027l-0.003,0.006
	c-0.363,0.531-0.555,1.1-0.63,1.618c-0.322,0.022-0.576,0.065-0.737,0.093c-0.06,0.002-0.117,0.01-0.175,0.019h-0.009v0.001
	c-0.756,0.134-1.331,0.791-1.331,1.586c0,0.149,0.023,0.293,0.062,0.432c-0.117,0.055-0.249,0.121-0.393,0.199
	c-0.321-0.387-0.754-0.749-1.306-1.01c-0.031-0.014-0.062-0.029-0.094-0.045v-0.002l0.011,0.004l-0.033-0.016l-0.131-0.069
	c-0.115-0.065-0.276-0.163-0.432-0.276c-0.154-0.111-0.301-0.238-0.388-0.339l-0.085-0.112l-0.007-0.012V71.36h-0.002
	c-0.197-0.666-0.813-1.152-1.545-1.152c-0.89,0-1.611,0.722-1.611,1.611c0,0.146,0.021,0.289,0.058,0.423v0.001v0.006l0.002,0.014
	l-0.014,0.139c-0.021,0.131-0.078,0.318-0.15,0.494c-0.071,0.177-0.157,0.347-0.222,0.461l-0.073,0.127l-0.017,0.027l-0.004,0.006
	c-0.363,0.531-0.555,1.1-0.628,1.619c-0.321,0.021-0.575,0.064-0.735,0.092c-0.062,0.004-0.12,0.01-0.179,0.019H50.22v0.001
	c-0.756,0.135-1.33,0.793-1.33,1.588c0,0.5,0.229,0.948,0.588,1.244l0.006,0.031l0.009,0.159l-0.002,0.038v0.002h0.001
	c-0.009,0.064-0.014,0.133-0.014,0.201v0.008c0.002,0.982,0.236,1.779,0.676,2.354c0.183,0.245,0.389,0.422,0.588,0.557
	c0.209,0.221,0.438,0.4,0.671,0.549c-1.697,0.765-3.362,1.656-4.913,2.602c-3.518,2.177-6.387,4.49-7.755,6.688
	c-0.017,0.021-0.031,0.047-0.048,0.072c-0.008,0.012-0.018,0.025-0.025,0.038l0.002,0.001c-0.138,0.236-0.218,0.514-0.218,0.807
	c0,0.891,0.721,1.611,1.611,1.611c0.126,0,0.249-0.016,0.366-0.044l0.001,0.001l4.995-1.166v-0.001
	c0.464-0.106,0.852-0.417,1.065-0.829c1.828-3.428,4.208-5.652,9.048-7.076c-0.105,0.281-0.186,0.586-0.216,0.916
	c-0.076,0.227-0.13,0.494-0.125,0.798c0.006,0.724,0.309,1.499,0.909,2.276h0.001c0.044,0.057,0.089,0.109,0.139,0.16l0.002,0.001
	l0.021,0.024l0.093,0.133l0.015,0.029c-0.026,0.115-0.041,0.233-0.041,0.354c0,0.891,0.722,1.613,1.612,1.613
	c0.271,0,0.526-0.066,0.75-0.186V90.8c0.003-0.001,0.008-0.005,0.012-0.007s0.007-0.003,0.013-0.008
	c0.085-0.044,0.387-0.211,0.767-0.469c0.382,0.369,0.884,0.703,1.507,0.902H61h-0.002l0.025,0.009l0.139,0.056
	c0.12,0.052,0.29,0.133,0.456,0.229c0.165,0.096,0.325,0.208,0.422,0.299l0.096,0.102l0.009,0.013
	c0.242,0.587,0.817,0.997,1.49,0.997c0.89,0,1.611-0.721,1.611-1.611c0-0.205-0.04-0.402-0.11-0.583l0.001-0.001l-0.003-0.018
	l-0.002-0.142c0.008-0.132,0.044-0.325,0.098-0.507c0.053-0.185,0.12-0.359,0.171-0.482l0.061-0.133l0.014-0.029l0.001-0.001
	l0.004-0.008c0.305-0.569,0.436-1.148,0.455-1.673c0.315-0.056,0.562-0.125,0.719-0.166c0.062-0.012,0.124-0.023,0.183-0.039
	c0.001,0,0.004-0.002,0.005,0l-0.001-0.002c0.407-0.116,0.747-0.391,0.953-0.752c0.276,0.226,0.628,0.359,1.012,0.359
	c0.482,0,0.915-0.214,1.211-0.549v0.002c0.026-0.031,0.272-0.312,0.567-0.734c0.484,0.207,1.07,0.336,1.719,0.301h0.008h0.001h0.025
	l0.148,0.004c0.132,0.006,0.319,0.02,0.508,0.051c0.188,0.027,0.379,0.076,0.501,0.126l0.126,0.062l0.013,0.008l0.003,0.002h0.001
	l0.001,0.001c0.294,0.308,0.707,0.5,1.165,0.5c0.891,0,1.612-0.722,1.612-1.611c0-0.417-0.159-0.794-0.418-1.081v-0.002l0,0
	l-0.003-0.003L75.985,84.2l-0.051-0.133c-0.04-0.127-0.074-0.318-0.09-0.508c-0.017-0.192-0.018-0.38-0.013-0.51l0.008-0.15
	l0.004-0.031v-0.006c0.055-0.433,0.032-0.844-0.04-1.217c0.322-0.176,0.579-0.456,0.721-0.797c0.021-0.051,0.094-0.229,0.183-0.488
	c0.093-0.111,0.168-0.232,0.228-0.365c0.497,0.029,1.053-0.034,1.615-0.256l0.01-0.002l0.004-0.002l0.023-0.008l0.143-0.045
	c0.126-0.034,0.31-0.079,0.499-0.11c0.188-0.03,0.382-0.044,0.515-0.036l0.139,0.02l0.014,0.006
	c0.228,0.121,0.489,0.191,0.767,0.191c0.89,0,1.611-0.721,1.611-1.611c0-0.602-0.329-1.125-0.815-1.399l-0.002-0.003l-0.003-0.002
	h-0.001l-0.005-0.004l-0.004-0.005l-0.09-0.11c-0.079-0.105-0.172-0.279-0.245-0.453c-0.075-0.178-0.135-0.355-0.171-0.482
	l-0.039-0.142l-0.001-0.003c0.059,0.006,0.117,0.013,0.179,0.013c0.89,0,1.611-0.723,1.611-1.611c0-0.08-0.008-0.156-0.02-0.233
	h0.003c-0.001-0.003-0.003-0.008-0.004-0.012c-0.009-0.059-0.021-0.117-0.036-0.174c-0.026-0.16-0.066-0.414-0.146-0.725
	c0.471-0.234,0.949-0.594,1.342-1.109l0.02-0.025l0.101-0.113c0.089-0.096,0.221-0.229,0.367-0.354
	c0.144-0.122,0.304-0.236,0.421-0.297l0.129-0.059l0.019-0.004v-0.002C85.732,70.787,86.405,70.085,86.405,69.225 M62.128,78.28
	c0.177,0.021,0.335,0.025,0.481,0.023c-0.132,0.059-0.264,0.115-0.394,0.172c-0.303,0.131-0.597,0.25-0.879,0.359
	c0.053-0.15,0.099-0.303,0.132-0.467c0.029-0.062,0.057-0.134,0.082-0.206C61.755,78.223,61.951,78.264,62.128,78.28"/>
<path fill="#E5E5E4" d="M59.504,15.909c-0.21,0-0.394,0.11-0.5,0.275l-0.002-0.002c-0.152,0.266-0.638,0.551-1.104,0.705
	c-0.229,0.081-0.448,0.137-0.607,0.172c-0.078,0.017-0.144,0.031-0.188,0.039l-0.047,0.007l-0.01,0.002h-0.008v0.002
	c-0.003,0-0.009,0-0.014,0.002c-0.006,0.001-0.013,0.001-0.02,0.004c-0.939,0.135-1.508,0.611-1.84,1.041
	c-0.439-0.625-1.013-1.087-1.184-1.23l-0.02-0.016c-0.017-0.016-0.028-0.028-0.031-0.031l-0.002,0.004
	c-0.102-0.08-0.229-0.132-0.368-0.132c-0.328,0-0.596,0.267-0.596,0.594c0,0.022,0.003,0.043,0.006,0.064h-0.002
	c0.027,0.225-0.086,0.465-0.262,0.674c-0.085,0.1-0.177,0.186-0.244,0.242l-0.078,0.061l-0.016,0.01l-0.01,0.006l-0.003,0.002
	h-0.002c-0.021,0.015-0.039,0.032-0.059,0.049c-0.623,0.554-0.91,1.066-0.998,1.504c-0.051,0.249-0.03,0.455,0.006,0.604
	c-0.148,1.195,0.496,1.922,0.846,2.22c0.222,0.7,0.8,1.105,1.289,1.34c0.209,0.094,0.4,0.163,0.576,0.217
	c-1.539,2.151-2.917,3.691-5.657,4.895c0.275-0.521,0.271-1.174,0.26-1.506c0.203-0.014,0.426-0.046,0.682-0.104
	c0.525-0.132,1.171-0.416,1.526-1.059c0.403-0.222,1.179-0.807,1.27-2.008c0.011-0.023,0.021-0.052,0.031-0.078
	c-0.326-0.273-0.632-0.633-0.84-1.113c-0.128-0.13-0.269-0.29-0.41-0.488c-0.367-0.505-0.693-1.353-0.602-2.312
	c-0.006-0.043-0.01-0.088-0.014-0.135c-0.002,0.001-0.007,0.003-0.01,0.004v-0.004c-0.002,0.004-0.014,0.011-0.029,0.02
	c-0.011,0.006-0.023,0.01-0.035,0.018c-0.198,0.109-0.847,0.45-1.398,0.973c-0.239-0.487-0.704-1.07-1.6-1.389
	c-0.005-0.002-0.011-0.003-0.018-0.006c-0.006-0.001-0.013-0.005-0.02-0.008l-0.004-0.002L47.14,20.03l-0.043-0.016l-0.176-0.074
	c-0.147-0.066-0.35-0.164-0.561-0.289c-0.425-0.244-0.844-0.619-0.943-0.91h-0.002c-0.086-0.221-0.3-0.379-0.553-0.379
	c-0.327,0-0.596,0.266-0.596,0.594c0,0.076,0.018,0.148,0.043,0.215l-0.002,0.002c0.124,0.281,0.069,0.842-0.08,1.309
	c-0.069,0.232-0.153,0.443-0.219,0.592c-0.032,0.075-0.061,0.133-0.08,0.172l-0.021,0.043L43.904,21.3
	c-0.465,0.854-0.415,1.61-0.262,2.139c-0.782-0.014-1.509,0.185-1.705,0.232c-0.011,0.001-0.023,0.005-0.035,0.008
	c-0.007,0.001-0.015,0.004-0.018,0.004v0.002c-0.251,0.07-0.438,0.297-0.438,0.57c0,0.22,0.122,0.411,0.301,0.514l-0.002,0.004
	c0.198,0.11,0.326,0.341,0.391,0.605c0.031,0.127,0.045,0.254,0.051,0.342l0.002,0.1v0.021v0.004h0.002
	c0,0.009-0.002,0.017-0.002,0.025c0,0.02,0.004,0.04,0.006,0.059h-0.002c0.08,0.83,0.325,1.364,0.627,1.691
	c0.167,0.183,0.341,0.286,0.48,0.346c0.88,0.834,1.855,0.738,2.305,0.629c0.696,0.234,1.363,0.004,1.842-0.254
	c0.158-0.09,0.295-0.178,0.42-0.266c0.02,0.656-0.233,1.179-0.521,1.561c-0.884,0.325-1.893,0.625-3.068,0.906v0.977
	c2.61-0.591,4.63-1.401,6.229-2.406c0.557-0.126,1.535-0.194,2.352,0.539c-0.17,0.111-0.347,0.248-0.541,0.42
	c-0.395,0.373-0.823,0.933-0.822,1.666c-0.243,0.394-0.643,1.286-0.129,2.385c0.012,0.151,0.055,0.352,0.176,0.566
	c0.215,0.392,0.645,0.792,1.406,1.129c0.027,0.013,0.058,0.021,0.086,0.029l-0.002,0.002l0.02,0.008l0.094,0.033
	c0.083,0.033,0.197,0.085,0.309,0.156c0.231,0.145,0.41,0.338,0.451,0.561c0.056,0.271,0.296,0.477,0.584,0.477
	c0.205,0,0.387-0.105,0.494-0.264c0.001-0.001,0.005-0.008,0.006-0.012c0.004-0.005,0.006-0.011,0.01-0.016
	c0.085-0.14,0.528-0.788,0.771-1.564c0.453,0.314,1.152,0.599,2.107,0.428v0.002l0.016-0.004l0.047-0.006
	c0.044-0.006,0.108-0.014,0.189-0.021c0.161-0.014,0.389-0.027,0.631-0.02c0.49,0.006,1.039,0.128,1.268,0.336l0.002-0.002
	c0.103,0.085,0.233,0.139,0.377,0.139c0.329,0,0.596-0.267,0.596-0.596c0-0.184-0.087-0.345-0.219-0.455l0.004-0.002
	c-0.246-0.185-0.47-0.704-0.566-1.184c-0.052-0.237-0.082-0.462-0.098-0.623c-0.009-0.08-0.011-0.145-0.014-0.188l-0.004-0.049
	v-0.01V32.97c-0.009-0.973-0.422-1.606-0.814-1.992c0.718-0.384,1.272-0.941,1.395-1.051c0.005-0.004,0.011-0.008,0.016-0.012
	c0.002-0.002,0.006-0.006,0.008-0.008c0.11-0.107,0.178-0.258,0.178-0.424c0-0.325-0.262-0.59-0.586-0.594v-0.002
	c-0.226,0-0.449-0.14-0.635-0.34c-0.09-0.098-0.163-0.199-0.211-0.273l-0.053-0.086l-0.01-0.02H59.39v-0.002
	c-0.012-0.026-0.027-0.05-0.043-0.072h0.002c-0.376-0.545-0.753-0.874-1.104-1.057c-0.346,0.035-0.668,0.019-0.934-0.035
	c-0.24-0.045-0.443-0.106-0.615-0.17c-0.144,0.004-0.281-0.003-0.414-0.02c-0.581,0.108-0.992,0.409-1.213,0.611
	c-0.721,0.134-1.192,0.658-1.486,1.115c-0.104,0.176-0.192,0.34-0.264,0.494c-0.399-0.296-1.182-0.792-1.934-0.525
	c1.425-1.064,2.475-2.315,3.311-3.727c0.118,0.131,0.255,0.269,0.416,0.41c0.418,0.347,1.026,0.703,1.754,0.611
	c0.42,0.195,1.354,0.483,2.383-0.16c0.148-0.03,0.341-0.097,0.541-0.242c0.361-0.263,0.708-0.736,0.951-1.535h-0.004
	c0.008-0.028,0.016-0.054,0.02-0.082h0.002l0.002-0.002l0.004-0.023l0.021-0.098c0.022-0.084,0.062-0.204,0.117-0.322
	c0.115-0.248,0.288-0.448,0.504-0.518v-0.004c0.235-0.079,0.406-0.298,0.406-0.561c0-0.231-0.134-0.431-0.328-0.529l0.002-0.002
	c-0.002,0-0.01-0.002-0.018-0.006c-0.011-0.005-0.022-0.01-0.035-0.016c-0.186-0.086-0.857-0.425-1.625-0.566
	c0.257-0.487,0.456-1.217,0.17-2.148l-0.002-0.012l-0.014-0.045c-0.011-0.043-0.025-0.107-0.043-0.186
	c-0.033-0.159-0.075-0.379-0.098-0.623c-0.054-0.486,0.004-1.048,0.182-1.299h-0.002c0.061-0.094,0.096-0.202,0.096-0.32
	C60.099,16.177,59.833,15.909,59.504,15.909L59.504,15.909z M14.216,22.836c-0.329,0-0.596,0.265-0.596,0.594
	c0,0.062,0.011,0.121,0.029,0.176l-0.002,0.002c0.104,0.289,0.009,0.844-0.172,1.298c-0.087,0.228-0.186,0.433-0.26,0.576
	l-0.09,0.166l-0.023,0.043l-0.006,0.008c-0.524,0.82-0.527,1.58-0.408,2.117c-0.811-0.07-1.578,0.093-1.74,0.119
	c-0.286,0.042-0.508,0.288-0.508,0.586c0,0.207,0.103,0.386,0.262,0.492c0.189,0.124,0.301,0.364,0.348,0.633
	c0.022,0.13,0.027,0.256,0.027,0.344l-0.004,0.1l-0.002,0.021v0.004h0.002c-0.003,0.022-0.006,0.046-0.006,0.068
	c0,0.006,0.002,0.012,0.002,0.018h-0.002c0.004,0.138,0.014,0.265,0.027,0.389c0.29,0.082,0.555,0.192,0.793,0.32
	c0.331-0.392,0.602-0.652,0.631-0.68l0.002,0.002c0.288-0.274,0.677-0.443,1.107-0.443c0.233,0,0.455,0.05,0.656,0.141v-7.09
	C14.261,22.838,14.239,22.836,14.216,22.836L14.216,22.836z M7.634,30.479c-0.329,0-0.596,0.269-0.596,0.596
	c0,0.138,0.047,0.26,0.125,0.361v0.002c0.198,0.235,0.3,0.791,0.289,1.279c-0.001,0.244-0.021,0.467-0.041,0.629
	c-0.01,0.08-0.022,0.144-0.029,0.188l-0.006,0.049l-0.002,0.006L7.372,33.59v0.004V33.6c-0.204,0.947,0.057,1.655,0.354,2.117
	c-0.861,0.236-1.578,0.723-1.617,0.73v0.002c-0.169,0.105-0.283,0.29-0.283,0.504c0,0.28,0.195,0.512,0.457,0.576v0.002
	c0.121,0.027,0.231,0.097,0.33,0.193c0.288-0.274,0.679-0.441,1.107-0.441c0.365,0,0.698,0.123,0.969,0.326h0.035l0.156-0.031
	l0.037-0.01c0.064-0.024,0.131-0.044,0.201-0.061v-0.002c0.01-0.002,0.02-0.003,0.029-0.006c0.01-0.001,0.019-0.005,0.027-0.006
	c0.931-0.211,1.743-0.165,2.391,0.123c0.25,0.107,0.45,0.247,0.617,0.391c0.076-0.396,0.225-0.815,0.477-1.213
	c0.078-0.225,0.198-0.47,0.389-0.707c0.434-0.555,1.119-0.972,2.029-1.225c0.011-0.004,0.021-0.008,0.031-0.012
	c0.016-0.004,0.031-0.009,0.047-0.014l0.002,0.004c0.067-0.019,0.135-0.032,0.205-0.041v-0.002l0.037-0.008l0.152-0.047l0.031-0.018
	c0.126-0.27,0.326-0.499,0.572-0.662c-0.009-0.082-0.023-0.166-0.051-0.258c-0.125-0.429-0.452-0.914-1.121-1.412h-0.002
	c-0.021-0.017-0.046-0.031-0.068-0.043l0.002-0.002l-0.025-0.014l-0.084-0.055c-0.072-0.05-0.174-0.127-0.266-0.221
	c-0.194-0.192-0.326-0.42-0.318-0.646h-0.002c0-0.005,0.002-0.01,0.002-0.014c0-0.329-0.268-0.594-0.596-0.594
	c-0.158,0-0.3,0.062-0.406,0.164l-0.002-0.002c0,0.001-0.005,0.005-0.006,0.006c-0.008,0.007-0.015,0.018-0.021,0.025
	c-0.128,0.131-0.69,0.658-1.092,1.349c-0.373-0.406-0.992-0.842-1.965-0.885v-0.002h-0.002h-0.01l-0.047-0.004
	c-0.044-0.006-0.109-0.012-0.189-0.024c-0.16-0.021-0.384-0.059-0.619-0.119C8.79,31.203,8.28,30.96,8.104,30.709l-0.002,0.002
	c-0.109-0.142-0.278-0.235-0.469-0.235V30.479z M17.044,34.811c-0.256,0-0.47,0.162-0.555,0.387l-0.002-0.002
	c-0.078,0.214-0.285,0.376-0.537,0.482c-0.12,0.051-0.242,0.087-0.328,0.105l-0.098,0.02l-0.021,0.004v0.002
	c-0.029,0.004-0.059,0.008-0.086,0.016v-0.002c-0.808,0.213-1.296,0.542-1.57,0.893c-0.154,0.194-0.228,0.382-0.264,0.529
	c-0.384,0.564-0.472,1.108-0.443,1.555c0.315,0.359,0.531,0.746,0.646,1.082c0.081,0.229,0.131,0.436,0.162,0.617
	c0.297,0.482,0.412,0.982,0.438,1.436c0.076,0.067,0.151,0.131,0.227,0.184c0.032,0.284,0.121,0.608,0.275,0.992
	c0.216,0.499,0.598,1.088,1.289,1.336c0.25,0.319,0.827,0.879,1.781,0.938c0.043-0.083,0.088-0.166,0.137-0.25
	c0.005-0.009,0.01-0.015,0.016-0.023c0.011-0.019,0.02-0.039,0.031-0.059l0.002,0.002c0.037-0.06,0.077-0.119,0.121-0.174
	l0.002-0.002l0.02-0.027l0.076-0.141l0.012-0.031c-0.056-0.163-0.086-0.336-0.086-0.518c0-0.89,0.722-1.611,1.613-1.611
	c0.211,0,0.412,0.042,0.598,0.115c0.004,0.002,0.011,0.006,0.021,0.01c0.004,0.001,0.009,0.001,0.014,0.004
	c0.104,0.042,0.416,0.176,0.805,0.385c0.149-0.179,0.325-0.353,0.525-0.514c-0.218-0.263-0.551-0.629-0.955-0.938
	c0.444-0.316,0.947-0.873,1.115-1.818c0.001-0.007,0.003-0.015,0.006-0.021V39.77v-0.002l0.002-0.008l0.01-0.047
	c0.01-0.042,0.023-0.106,0.045-0.184c0.041-0.156,0.105-0.375,0.195-0.602c0.171-0.459,0.474-0.935,0.746-1.078v-0.002
	c0.175-0.104,0.293-0.292,0.293-0.51c0-0.329-0.268-0.596-0.596-0.596c-0.11,0-0.212,0.033-0.299,0.086l-0.002-0.004
	c-0.258,0.169-0.821,0.202-1.305,0.131c-0.241-0.033-0.464-0.081-0.621-0.121c-0.078-0.02-0.14-0.036-0.182-0.049l-0.045-0.014
	l-0.012-0.004c-0.918-0.321-1.656-0.151-2.152,0.086c-0.115-0.786-0.437-1.482-0.508-1.654c-0.005-0.011-0.009-0.024-0.014-0.035
	c0-0.001-0.004-0.004-0.004-0.006c-0.094-0.203-0.298-0.346-0.538-0.346L17.044,34.811z M7.718,38.299
	c-0.328,0-0.594,0.267-0.594,0.596c0,0.011,0.002,0.023,0.004,0.035H7.124c0.018,0.037,0.034,0.902,0.336,1.742
	c-0.547,0.024-1.275,0.221-1.93,0.926L5.528,41.6c-0.003,0.001-0.005,0.004-0.006,0.006L5.51,41.618L5.477,41.65l-0.139,0.131
	c-0.12,0.11-0.29,0.256-0.488,0.398c-0.395,0.29-0.907,0.526-1.213,0.498v0.002c-0.009-0.001-0.019-0.002-0.025-0.002
	c-0.33,0-0.596,0.265-0.596,0.594c0,0.319,0.254,0.58,0.57,0.594c0.307-0.001,0.798,0.276,1.166,0.6
	c0.185,0.159,0.343,0.321,0.453,0.439l0.127,0.141l0.029,0.037l0.006,0.006l0.006,0.008c0.594,0.765,1.305,1.023,1.852,1.094
	c-0.328,0.713-0.438,1.461-0.473,1.656c-0.003,0.013-0.006,0.026-0.008,0.037c-0.002,0.007-0.002,0.014-0.002,0.016h0.002
	c-0.006,0.028-0.01,0.056-0.01,0.084c0,0.329,0.267,0.596,0.596,0.596c0.131,0,0.252-0.045,0.352-0.117v0.002
	c0.081-0.062,0.18-0.1,0.287-0.119c0.08-0.138,0.164-0.268,0.256-0.387c-0.339-0.388-0.551-0.694-0.574-0.727
	c-0.181-0.261-0.287-0.579-0.287-0.92c0-0.89,0.721-1.611,1.611-1.611c0.055,0,0.109,0.002,0.162,0.008l0.027-0.018l0.119-0.105
	l0.023-0.025v-0.002l0.004-0.002v-0.002c0.042-0.054,0.088-0.105,0.137-0.154c0.698-0.691,1.431-1.084,2.148-1.18
	c0.302-0.041,0.574-0.021,0.809,0.027c0.266-0.008,0.52,0.017,0.761,0.064c0.062-0.181,0.116-0.383,0.162-0.617
	c0.091-0.536,0.092-1.24-0.354-1.824c-0.042-0.457-0.266-1.404-1.33-1.971c-0.101-0.115-0.257-0.252-0.49-0.354
	c-0.404-0.179-0.982-0.237-1.785-0.053c-0.002,0.001-0.003,0.002-0.006,0.002c-0.003,0.001-0.01,0.002-0.014,0.002
	c-0.027,0.007-0.054,0.015-0.08,0.025l-0.004,0.002l-0.02,0.006L9.15,38.559c-0.085,0.024-0.208,0.051-0.34,0.062
	c-0.272,0.025-0.531-0.021-0.699-0.174L8.109,38.45C8.006,38.357,7.868,38.299,7.718,38.299L7.718,38.299z M25.348,41.047
	c-0.271,0-0.499,0.184-0.568,0.434h-0.002c-0.071,0.299-0.456,0.71-0.855,0.992c-0.198,0.144-0.393,0.262-0.533,0.342l-0.166,0.088
	l-0.043,0.021l-0.006,0.002l-0.008,0.006c-0.886,0.4-1.302,1.03-1.496,1.545c-0.629-0.494-1.345-0.774-1.512-0.85
	c-0.012-0.005-0.024-0.01-0.035-0.016l-0.002-0.002c-0.069-0.027-0.144-0.043-0.221-0.043c-0.329,0-0.596,0.265-0.596,0.594
	c0,0.083,0.018,0.163,0.049,0.234c0.09,0.208,0.05,0.469-0.059,0.719c-0.052,0.122-0.115,0.227-0.164,0.301l-0.059,0.082
	l-0.014,0.018l-0.002,0.004l0.002,0.002c-0.02,0.021-0.035,0.043-0.049,0.066l-0.002-0.002c-0.438,0.71-0.564,1.285-0.521,1.729
	c0.023,0.252,0.102,0.444,0.18,0.576c0.202,1.188,1.028,1.698,1.451,1.881c0.413,0.607,1.082,0.826,1.619,0.912
	c0.293,0.037,0.545,0.049,0.77,0.039c-0.074,0.516-0.101,1.327,0.434,1.826c-2.325-1.489-4.738-3.729-6.504-7.084l0.848,2.012
	c-0.498-0.211-1.069-0.212-1.354-0.207c-0.043-0.191-0.103-0.397-0.188-0.629c-0.203-0.503-0.568-1.105-1.252-1.373
	c-0.275-0.37-0.958-1.062-2.161-0.992c-0.146-0.046-0.349-0.082-0.601-0.047c-0.441,0.058-0.973,0.311-1.566,0.896
	c-0.021,0.02-0.04,0.045-0.057,0.068l-0.002-0.002l-0.014,0.018l-0.066,0.074c-0.062,0.064-0.152,0.151-0.258,0.229
	c-0.221,0.163-0.466,0.257-0.688,0.215v0.002c-0.034-0.006-0.069-0.01-0.104-0.01c-0.329,0-0.594,0.267-0.594,0.594
	c0,0.126,0.037,0.244,0.105,0.34c0.032,0.021,0.498,0.755,1.193,1.316c-0.457,0.307-0.979,0.852-1.17,1.803
	c0,0-0.002,0.002-0.002,0.004v0.002c-0.002,0.002-0.001,0.003-0.002,0.006v0.004l-0.012,0.047c-0.012,0.041-0.028,0.104-0.051,0.184
	c-0.045,0.154-0.116,0.369-0.211,0.594c-0.186,0.452-0.502,0.92-0.777,1.057l0.002,0.002c-0.183,0.102-0.309,0.293-0.309,0.518
	c0,0.328,0.265,0.596,0.594,0.596c0.104,0,0.202-0.029,0.287-0.076v0.002c0.262-0.162,0.828-0.18,1.311-0.094
	c0.239,0.039,0.458,0.094,0.613,0.139c0.077,0.021,0.14,0.042,0.182,0.055l0.045,0.016l0.01,0.002l0.004,0.002
	c0.429,0.164,0.822,0.215,1.17,0.203c0.135-0.611,0.614-1.092,1.225-1.229l0.021-0.023l0.078-0.139l0.016-0.031v-0.002v-0.002
	l0.004-0.006c0.023-0.064,0.05-0.126,0.08-0.186c0.002-0.008,0.006-0.012,0.01-0.02c0.005-0.01,0.01-0.018,0.014-0.025
	c0.443-0.85,1.006-1.439,1.646-1.748c0.273-0.135,0.541-0.199,0.777-0.227c0.688-0.248,1.368-0.248,1.914-0.133
	c-0.1-0.34-0.272-0.641-0.447-0.881c-0.102-0.133-0.199-0.247-0.295-0.352c0.555,0.024,1.006,0.236,1.35,0.489
	c0.698,1.326,1.732,2.456,2.914,3.41c-0.296,0.063-0.567,0.179-0.775,0.281c-0.107-0.196-0.248-0.406-0.43-0.635
	c-0.351-0.416-0.885-0.875-1.617-0.914c-0.378-0.268-1.247-0.717-2.373-0.268c-0.153,0.004-0.353,0.035-0.574,0.145
	c-0.403,0.193-0.828,0.6-1.209,1.342l0.002,0.002c-0.014,0.025-0.025,0.053-0.035,0.08l-0.002-0.002v0.004l-0.008,0.018
	l-0.039,0.092c-0.038,0.081-0.097,0.19-0.174,0.297c-0.158,0.223-0.361,0.391-0.586,0.42v0.002c-0.288,0.043-0.51,0.289-0.51,0.588
	c0,0.192,0.094,0.363,0.238,0.473v0.002c0.001,0.001,0.008,0.006,0.012,0.008c0.01,0.008,0.021,0.014,0.031,0.02
	c0.161,0.113,0.766,0.57,1.502,0.85c-0.34,0.434-0.665,1.117-0.547,2.084h-0.002l0.002,0.012l0.002,0.047
	c0.004,0.043,0.009,0.107,0.012,0.188c0.005,0.164,0.004,0.391-0.016,0.633c-0.034,0.488-0.189,1.029-0.408,1.246l0.002,0.002
	c-0.099,0.105-0.162,0.244-0.162,0.402c0,0.328,0.269,0.596,0.598,0.596c0.171,0,0.324-0.075,0.434-0.191v0.002
	c0.198-0.234,0.729-0.43,1.215-0.498c0.239-0.039,0.466-0.057,0.627-0.062c0.081-0.002,0.146-0.004,0.189-0.002h0.049h0.012h0.002
	v-0.002h0.004c0.004,0,0.008,0.002,0.012,0.002s0.008-0.002,0.012-0.002c0.955,0.037,1.604-0.333,2.008-0.699
	c0.376,0.811,0.974,1.439,0.986,1.479l0.002-0.002c0.108,0.123,0.268,0.203,0.445,0.203c0.314,0,0.569-0.244,0.592-0.553h0.002
	c0.013-0.227,0.165-0.441,0.377-0.615c0.101-0.086,0.205-0.15,0.283-0.193l0.09-0.047l0.018-0.008c0.001,0,0.003-0.002,0.004-0.002
	l0.002-0.002l0.008-0.004c0.022-0.01,0.045-0.023,0.066-0.035v0.002c0.008-0.004,0.012-0.01,0.02-0.014
	c0.001-0.002,0.003-0.002,0.004-0.002c0.023-0.016,0.044-0.03,0.066-0.045l0.025-0.154l0.002-0.035v-0.002v-0.037
	c0-0.061,0.003-0.117,0.01-0.174h-0.002c0.104-0.979,0.421-1.746,0.92-2.271c0.127-0.139,0.263-0.248,0.396-0.34
	c-0.09-0.543-0.352-0.941-0.531-1.16c-0.094-0.729-0.59-1.23-1.029-1.547c-0.117-0.08-0.229-0.148-0.336-0.209
	c0.316-0.125,0.627-0.168,0.916-0.162c2.394,1.689,5.17,2.74,6.947,3.297c-0.203,0.146-0.376,0.314-0.512,0.465
	c-0.139-0.104-0.296-0.207-0.477-0.314c-0.477-0.263-1.14-0.501-1.838-0.275c-0.447-0.114-1.421-0.221-2.311,0.602
	c-0.142,0.059-0.317,0.158-0.486,0.342c-0.307,0.323-0.558,0.854-0.646,1.686h0.002c-0.003,0.021-0.008,0.041-0.008,0.062
	c0,0.008,0.002,0.016,0.002,0.023v0.002v0.02l-0.004,0.102c-0.006,0.087-0.022,0.211-0.055,0.34c-0.067,0.265-0.197,0.492-0.396,0.6
	v0.004c-0.182,0.102-0.305,0.294-0.305,0.516c0,0.271,0.183,0.5,0.43,0.572c0.003,0,0.013,0,0.021,0.002
	c0.013,0.004,0.023,0.009,0.037,0.012c0.201,0.051,0.919,0.254,1.695,0.25c-0.16,0.528-0.217,1.285,0.238,2.145h-0.002l0.006,0.012
	l0.021,0.041c0.018,0.039,0.045,0.098,0.076,0.174c0.063,0.148,0.146,0.359,0.213,0.594c0.144,0.469,0.194,1.031,0.066,1.309
	c-0.027,0.07-0.043,0.144-0.043,0.223c0,0.327,0.265,0.596,0.594,0.596c0.25,0,0.465-0.154,0.553-0.373
	c0.102-0.291,0.527-0.662,0.955-0.9c0.211-0.124,0.414-0.221,0.562-0.281c0.075-0.033,0.136-0.057,0.176-0.072l0.045-0.018
	l0.012-0.006c0.01-0.004,0.02-0.006,0.029-0.01c0.004-0.002,0.005-0.004,0.008-0.004c0.897-0.309,1.37-0.883,1.615-1.367
	c0.549,0.531,1.197,0.879,1.391,0.988c0.013,0.007,0.024,0.014,0.037,0.021c0.013,0.007,0.021,0.013,0.023,0.016v-0.004
	c0.082,0.042,0.176,0.072,0.275,0.072c0.145,0,0.275-0.055,0.379-0.141c-0.464-0.177-0.785-0.34-0.82-0.357
	c-0.521-0.267-0.879-0.809-0.879-1.434c0-0.673,0.412-1.248,0.996-1.49l0.016-0.027l0.055-0.15l0.008-0.035h0.002
	c0.014-0.079,0.031-0.155,0.055-0.229c0.256-0.824,0.644-1.457,1.135-1.881c-0.206-0.219-0.421-0.365-0.578-0.453
	c-0.348-0.646-0.988-0.936-1.514-1.074c-0.236-0.057-0.446-0.092-0.639-0.109c0.224-0.23,0.473-0.393,0.723-0.504
	c0.557,0.152,0.889,0.227,0.889,0.227c3.152,0.569,5.749,1.588,7.816,2.92c-0.352,0.094-0.649,0.229-0.816,0.307
	c-0.117-0.133-0.256-0.271-0.418-0.416c-0.418-0.35-1.023-0.707-1.752-0.617c-0.419-0.197-1.354-0.488-2.385,0.15
	c-0.148,0.029-0.339,0.096-0.539,0.242c-0.362,0.26-0.712,0.733-0.957,1.531h0.002c-0.009,0.027-0.016,0.055-0.02,0.084h-0.002
	v0.002v0.002l-0.004,0.02l-0.023,0.098c-0.022,0.084-0.062,0.203-0.119,0.324c-0.116,0.246-0.288,0.445-0.504,0.514l0.002,0.004
	c-0.237,0.078-0.41,0.299-0.41,0.562c0,0.23,0.134,0.428,0.326,0.527l-0.002,0.002c0.002,0,0.01,0.003,0.016,0.006l0.039,0.016
	c0.187,0.09,0.854,0.428,1.621,0.57c-0.254,0.479-0.452,1.191-0.189,2.1c0.001,0.004,0.003,0.008,0.004,0.014
	c0.002,0.011,0.004,0.021,0.008,0.035l0.002,0.012l0.012,0.047c0.011,0.041,0.026,0.105,0.043,0.186
	c0.033,0.157,0.074,0.38,0.096,0.623c0.053,0.486-0.005,1.047-0.184,1.299c-0.061,0.094-0.096,0.202-0.096,0.32
	c0,0.33,0.267,0.598,0.596,0.598c0.209,0,0.392-0.11,0.498-0.273c0.155-0.266,0.645-0.549,1.109-0.701
	c0.229-0.08,0.45-0.137,0.607-0.172c0.079-0.017,0.143-0.028,0.186-0.035l0.047-0.01h0.014v-0.002
	c0.009-0.002,0.018-0.004,0.027-0.004c0.002-0.002,0.005-0.002,0.008-0.002c0.941-0.132,1.515-0.607,1.848-1.037
	c0.438,0.627,1.009,1.094,1.178,1.236c0.008,0.007,0.016,0.015,0.023,0.021c0.015,0.014,0.026,0.02,0.029,0.025v-0.002
	c0.103,0.082,0.231,0.133,0.371,0.133c0.329,0,0.594-0.266,0.594-0.594c0-0.021-0.004-0.043-0.006-0.062l0.004-0.002
	c-0.027-0.225,0.084-0.463,0.262-0.67c0.085-0.101,0.179-0.186,0.246-0.24l0.08-0.061l0.018-0.014l0.006-0.004
	c0.022-0.015,0.043-0.035,0.064-0.053v0.004c0.626-0.553,0.913-1.066,1.002-1.504c0.051-0.248,0.032-0.453-0.004-0.602
	c0.153-1.195-0.49-1.926-0.84-2.225c-0.219-0.701-0.793-1.107-1.283-1.344c-0.159-0.072-0.306-0.128-0.445-0.176
	c0.292-0.136,0.582-0.199,0.855-0.213c2.277,1.678,3.811,3.762,4.633,6.025l0.768-0.064l0.004-1.565
	c0.115,0.094,0.244,0.177,0.391,0.244c0.254,0.386,0.896,1.112,2.102,1.111c0.143,0.056,0.345,0.101,0.598,0.08
	c0.445-0.034,0.989-0.253,1.615-0.805l-0.002-0.004c0.021-0.019,0.04-0.036,0.059-0.059h0.004l0.002-0.004l0.014-0.014l0.07-0.072
	c0.063-0.06,0.161-0.14,0.271-0.213c0.229-0.148,0.479-0.23,0.699-0.176v-0.002c0.044,0.011,0.088,0.018,0.135,0.018
	c0.328,0,0.596-0.27,0.596-0.596c0-0.114-0.035-0.218-0.09-0.309l0.002-0.002l-0.01-0.01c-0.005-0.01-0.012-0.019-0.018-0.029
	c-0.105-0.156-0.501-0.81-1.09-1.342c0.475-0.28,1.027-0.796,1.271-1.738V60.33l0.004-0.01l0.014-0.047
	c0.014-0.042,0.032-0.102,0.059-0.178c0.054-0.152,0.138-0.363,0.246-0.582c0.21-0.442,0.552-0.894,0.834-1.012
	c0.2-0.097,0.338-0.3,0.338-0.535c0-0.329-0.267-0.598-0.596-0.598c-0.093,0-0.179,0.024-0.256,0.062v-0.002
	c-0.271,0.146-0.835,0.132-1.312,0.02c-0.237-0.053-0.453-0.118-0.605-0.172c-0.077-0.027-0.139-0.05-0.18-0.066l-0.041-0.016
	c-0.001,0-0.003-0.002-0.004-0.002l-0.008-0.004h-0.002l-0.008-0.004c-0.883-0.394-1.631-0.286-2.145-0.092
	c-0.054-0.892-0.38-1.693-0.379-1.734l-0.002,0.002c-0.083-0.231-0.301-0.395-0.559-0.395c-0.236,0-0.438,0.14-0.533,0.34
	l-0.002-0.002c-0.095,0.206-0.316,0.352-0.576,0.436c-0.125,0.041-0.248,0.065-0.334,0.076l-0.1,0.012h-0.023v0.002
	c-0.029,0.001-0.06,0.003-0.088,0.008c-0.004,0.001-0.007,0.002-0.012,0.002c-0.003,0.001-0.004,0.001-0.008,0.002
	c-0.809,0.146-1.318,0.431-1.619,0.754c-0.17,0.181-0.258,0.362-0.307,0.506c-0.764,0.942-0.592,1.905-0.449,2.344
	c-0.179,0.712,0.099,1.358,0.393,1.816c0.21,0.308,0.409,0.542,0.605,0.721c-0.128,0.058-0.273,0.134-0.393,0.252
	c-1-1.188-2.029-2.211-3.172-3.082c-0.007-0.312,0.047-0.651,0.199-0.998c0.116,0.116,0.248,0.235,0.402,0.357
	c0.229,0.175,0.514,0.348,0.838,0.455c-0.003-0.036-0.008-0.071-0.01-0.107c-0.048-0.624,0.12-1.516,0.701-2.283
	c0.096-0.219,0.239-0.456,0.449-0.676c0.481-0.519,1.207-0.879,2.145-1.053c0.01-0.003,0.021-0.005,0.031-0.006
	c0.01-0.003,0.02-0.005,0.029-0.006v0.002c0.058-0.01,0.115-0.019,0.176-0.023h0.021h0.004h0.002h0.002h0.002h0.004l0.004-0.002
	l0.033-0.004l0.156-0.035l0.031-0.012c0.093-0.161,0.216-0.304,0.355-0.424c-0.147-0.036-0.303-0.066-0.463-0.088
	c0.233-0.5,0.4-1.239,0.07-2.154v-0.002l-0.004-0.012l-0.014-0.043c-0.014-0.042-0.031-0.104-0.051-0.182
	c-0.041-0.157-0.092-0.378-0.125-0.619c-0.075-0.485-0.045-1.048,0.121-1.307H44.85c0.051-0.087,0.084-0.189,0.084-0.297
	c0-0.329-0.269-0.596-0.596-0.596c-0.22,0-0.41,0.122-0.514,0.299l-0.002-0.002c-0.142,0.271-0.615,0.579-1.072,0.756
	c-0.227,0.089-0.441,0.155-0.598,0.197c-0.078,0.022-0.143,0.036-0.184,0.045l-0.047,0.012h-0.002l-0.01,0.002
	c-0.008,0.001-0.015,0.005-0.021,0.006c-0.944,0.175-1.497,0.681-1.811,1.127c-0.547-0.706-1.269-1.184-1.291-1.219
	c-0.099-0.071-0.219-0.113-0.35-0.113c-0.327,0-0.596,0.267-0.596,0.596c0,0.03,0.007,0.06,0.012,0.09H37.85
	c0.037,0.224-0.062,0.468-0.229,0.684c-0.08,0.104-0.17,0.193-0.234,0.252l-0.076,0.064l-0.016,0.012l-0.004,0.002l-0.002,0.002
	l-0.004,0.002l0.002,0.004c-0.021,0.017-0.043,0.032-0.062,0.051c-0.002,0.003-0.003,0.003-0.004,0.004h-0.002
	c-0.594,0.579-0.855,1.104-0.922,1.543c-0.04,0.251-0.01,0.454,0.033,0.602c-0.095,1.202,0.583,1.899,0.947,2.182
	c0.252,0.688,0.846,1.067,1.346,1.279c0.251,0.099,0.477,0.165,0.682,0.211c-0.105,0.249-0.219,0.577-0.25,0.928
	c-1.729-1.185-3.726-2.067-6.24-2.715c-0.133-0.2-0.245-0.431-0.316-0.695c0.122,0.069,0.254,0.138,0.404,0.205
	c0.5,0.212,1.186,0.378,1.855,0.082c0.187,0.026,0.458,0.04,0.77-0.01c-0.155-0.411-0.253-0.892-0.227-1.416
	c-0.044-0.233-0.059-0.505-0.01-0.807c0.107-0.706,0.509-1.419,1.197-2.095l0.02-0.018c0.002-0.004,0.005-0.007,0.008-0.011
	c0.046-0.045,0.098-0.085,0.15-0.125l-0.002-0.002l0.012-0.01l0.027-0.025l0.111-0.115l0.018-0.029
	c-0.004-0.041-0.006-0.083-0.006-0.125c0-0.197,0.036-0.383,0.1-0.557c-0.219-0.007-0.453-0.001-0.691,0.025
	c0.104-0.54,0.082-1.298-0.459-2.104h0.002l-0.008-0.012l-0.025-0.041l-0.096-0.162c-0.079-0.143-0.181-0.344-0.271-0.57
	c-0.191-0.45-0.301-1.003-0.203-1.295l-0.002-0.002c0.015-0.051,0.025-0.104,0.025-0.162c0-0.328-0.266-0.596-0.594-0.596
	c-0.272,0-0.499,0.184-0.57,0.434H34.03c-0.071,0.299-0.454,0.71-0.855,0.992c-0.196,0.144-0.39,0.26-0.531,0.34l-0.166,0.092
	l-0.043,0.02l-0.006,0.004l-0.008,0.004c-0.885,0.4-1.3,1.031-1.496,1.545c-0.629-0.494-1.346-0.774-1.512-0.848
	c-0.012-0.006-0.024-0.013-0.035-0.018c-0.001,0-0.004-0.002-0.004-0.002c-0.069-0.026-0.142-0.043-0.219-0.043
	c-0.329,0-0.596,0.267-0.596,0.596c0,0.083,0.018,0.159,0.049,0.23c0.09,0.208,0.052,0.469-0.057,0.719
	c-0.053,0.12-0.117,0.229-0.166,0.303l-0.059,0.082l-0.014,0.02v0.002c-0.018,0.022-0.034,0.044-0.049,0.068l-0.002-0.002
	c-0.438,0.712-0.564,1.284-0.521,1.727c0.022,0.255,0.102,0.444,0.18,0.576c0.202,1.188,1.029,1.701,1.451,1.885
	c0.414,0.606,1.083,0.825,1.619,0.91c0.255,0.032,0.477,0.044,0.68,0.041c0.037,0.216,0.101,0.495,0.215,0.77
	c-0.47-0.104-0.957-0.206-1.463-0.297c0,0-3.012-0.332-6.473-2.27c-0.328-0.366-0.866-1.14-0.725-2.139
	c0.127,0.073,0.267,0.146,0.424,0.217c0.5,0.212,1.184,0.378,1.855,0.08c0.272,0.04,0.727,0.058,1.221-0.127
	c0.037-0.572,0.244-1.188,0.623-1.824c0.005-0.009,0.011-0.016,0.016-0.023c0.011-0.021,0.02-0.038,0.031-0.057h0.002
	c0.037-0.06,0.077-0.118,0.121-0.172v-0.002h0.002l0.02-0.029l0.078-0.141l0.01-0.031c-0.055-0.161-0.086-0.335-0.086-0.516
	c0-0.89,0.722-1.613,1.613-1.613c0.025,0,0.049,0.003,0.074,0.004c0.009-0.039,0.014-0.078,0.014-0.119
	c0-0.292-0.212-0.536-0.49-0.586c-0.04,0.009-0.884-0.177-1.771-0.08c0.104-0.54,0.083-1.297-0.457-2.104l-0.004-0.004l-0.004-0.006
	v-0.002l-0.025-0.041l-0.096-0.164c-0.079-0.141-0.181-0.343-0.271-0.568c-0.191-0.451-0.301-1.005-0.203-1.297h-0.002
	c0.015-0.052,0.025-0.104,0.025-0.162C25.944,41.313,25.677,41.046,25.348,41.047L25.348,41.047z M74.64,50.354
	c-0.022,0-0.046,0.003-0.068,0.006v5.395c0.069-0.01,0.138-0.016,0.207-0.016c0.431,0,0.819,0.169,1.107,0.443l0.002-0.002
	c0.029,0.027,0.3,0.288,0.631,0.68c0.466-0.253,1.039-0.438,1.691-0.461l0.027-0.004l0.148-0.016
	c0.131-0.017,0.317-0.049,0.502-0.096c0.186-0.047,0.369-0.114,0.486-0.174l0.121-0.072l0.01-0.008l0.004-0.004v-0.002
	c-0.003-0.023-0.006-0.047-0.01-0.07c-0.034-0.271,0-0.531,0.145-0.707h-0.002c0.083-0.104,0.135-0.233,0.135-0.373
	c0-0.329-0.267-0.594-0.596-0.594c-0.02,0-0.04,0.002-0.061,0.004v-0.002c-0.002,0-0.012,0.004-0.027,0.006
	c-0.012,0.002-0.025,0.001-0.037,0.004c-0.217,0.028-0.95,0.107-1.662,0.396c-0.046-0.549-0.273-1.271-1.014-1.9l-0.002-0.004
	l-0.01-0.006l-0.033-0.031l-0.135-0.133c-0.113-0.115-0.268-0.281-0.418-0.473c-0.306-0.383-0.562-0.883-0.547-1.191v-0.002
	C75.236,50.62,74.969,50.354,74.64,50.354L74.64,50.354z M80.771,56.43c-0.19,0-0.359,0.093-0.469,0.234v-0.002
	c-0.176,0.25-0.686,0.491-1.162,0.605c-0.235,0.061-0.459,0.096-0.621,0.119c-0.079,0.011-0.145,0.018-0.188,0.021l-0.049,0.004
	h-0.01c-0.972,0.045-1.594,0.479-1.967,0.885c-0.4-0.691-0.963-1.217-1.09-1.348c-0.007-0.008-0.016-0.016-0.023-0.023l-0.006-0.006
	c-0.105-0.101-0.25-0.164-0.408-0.164c-0.328,0-0.594,0.266-0.594,0.596v0.012c0.008,0.226-0.124,0.454-0.318,0.648
	c-0.094,0.091-0.191,0.168-0.266,0.219l-0.084,0.057l-0.02,0.01l-0.018,0.008l0.003,0.004c-0.02,0.012-0.04,0.023-0.057,0.037
	l-0.003-0.002c-0.67,0.498-0.997,0.985-1.121,1.412c-0.027,0.094-0.043,0.176-0.051,0.256c0.247,0.163,0.446,0.396,0.572,0.666
	l0.029,0.014l0.152,0.051l0.037,0.006h0.004c0.07,0.01,0.139,0.025,0.203,0.043V60.79c0.013,0.003,0.024,0.006,0.035,0.01
	c0.017,0.003,0.034,0.008,0.049,0.014c0.909,0.252,1.594,0.669,2.025,1.225c0.19,0.236,0.312,0.482,0.389,0.709
	c0.25,0.396,0.398,0.814,0.475,1.211c0.167-0.145,0.369-0.285,0.619-0.393c0.649-0.287,1.459-0.331,2.391-0.119
	c0.009,0,0.017,0.002,0.025,0.004c0.011,0,0.021,0.002,0.031,0.006v0.002c0.069,0.018,0.137,0.038,0.201,0.062v-0.002l0.035,0.012
	l0.158,0.027l0.033,0.002c0.271-0.205,0.607-0.326,0.971-0.326c0.431,0,0.819,0.167,1.107,0.441c0.098-0.096,0.209-0.167,0.33-0.191
	v-0.002c0.262-0.064,0.455-0.297,0.455-0.576c0-0.216-0.112-0.4-0.281-0.506c-0.04-0.007-0.756-0.494-1.617-0.73
	c0.297-0.463,0.557-1.174,0.354-2.121c0-0.003,0-0.004-0.002-0.004h0.002l-0.004-0.012l-0.008-0.049
	c-0.007-0.043-0.017-0.107-0.027-0.188c-0.02-0.162-0.04-0.385-0.043-0.629c-0.011-0.488,0.094-1.047,0.291-1.279h-0.002
	c0.078-0.101,0.125-0.227,0.125-0.361C81.367,56.696,81.1,56.43,80.771,56.43L80.771,56.43z M71.363,60.762
	c-0.239,0-0.445,0.145-0.539,0.348l-0.002-0.002c0,0,0,0.008-0.002,0.01l-0.012,0.029c-0.068,0.168-0.395,0.865-0.51,1.656
	c-0.496-0.238-1.234-0.408-2.152-0.086l-0.014,0.004l-0.043,0.014c-0.042,0.012-0.104,0.03-0.184,0.051
	c-0.156,0.039-0.378,0.088-0.619,0.119c-0.484,0.072-1.047,0.038-1.305-0.129l-0.002,0.002c-0.088-0.053-0.189-0.086-0.301-0.086
	c-0.327,0-0.594,0.267-0.594,0.596c0,0.219,0.118,0.407,0.293,0.512v0.002c0.271,0.143,0.574,0.619,0.746,1.078
	c0.091,0.226,0.154,0.443,0.195,0.6c0.021,0.077,0.035,0.141,0.045,0.184l0.01,0.047v0.012h0.002v0.002
	c0.002,0.007,0.005,0.013,0.007,0.02c0.167,0.945,0.67,1.502,1.114,1.818c-0.404,0.309-0.738,0.676-0.955,0.938
	c0.199,0.162,0.376,0.334,0.525,0.514c0.391-0.209,0.703-0.341,0.807-0.383c0.004-0.002,0.007-0.005,0.011-0.006
	c0.01-0.004,0.02-0.006,0.023-0.01l0.002,0.002c0.184-0.076,0.384-0.115,0.596-0.115c0.89,0,1.613,0.722,1.613,1.613
	c0,0.18-0.033,0.351-0.088,0.514l0.014,0.031l0.076,0.141l0.012,0.02l0.01,0.01l0.004,0.006c0.042,0.053,0.08,0.109,0.117,0.168
	c0.01,0.018,0.018,0.032,0.029,0.049c0.006,0.012,0.012,0.021,0.02,0.035c0.049,0.084,0.093,0.164,0.137,0.246
	c0.953-0.059,1.529-0.617,1.781-0.936c0.689-0.248,1.072-0.84,1.289-1.338c0.153-0.385,0.241-0.709,0.275-0.992
	c0.073-0.055,0.149-0.117,0.227-0.184c0.024-0.454,0.139-0.953,0.436-1.436c0.032-0.182,0.081-0.387,0.164-0.615
	c0.113-0.336,0.329-0.724,0.645-1.082c0.028-0.447-0.058-0.992-0.441-1.557c-0.037-0.148-0.11-0.336-0.264-0.529
	c-0.275-0.35-0.765-0.68-1.57-0.893v0.002c-0.026-0.006-0.053-0.012-0.08-0.016v-0.002l-0.027-0.004l-0.098-0.018
	c-0.087-0.02-0.209-0.055-0.33-0.105c-0.252-0.106-0.458-0.27-0.535-0.482h-0.002C71.833,60.922,71.619,60.762,71.363,60.762
	L71.363,60.762z M80.687,64.25c-0.149,0-0.285,0.056-0.391,0.148l-0.002-0.002c-0.169,0.153-0.428,0.198-0.699,0.174
	c-0.131-0.01-0.255-0.036-0.34-0.061l-0.096-0.027l-0.02-0.008l-0.006-0.004l-0.002-0.002h-0.002v0.002
	c-0.023-0.009-0.049-0.017-0.074-0.023c-0.004-0.001-0.008-0.003-0.012-0.004h-0.01c-0.801-0.187-1.378-0.124-1.783,0.053
	c-0.232,0.103-0.389,0.236-0.49,0.354c-1.063,0.566-1.287,1.511-1.328,1.969c-0.445,0.584-0.445,1.288-0.355,1.824
	c0.045,0.233,0.101,0.437,0.162,0.617c0.241-0.046,0.494-0.071,0.762-0.064c0.233-0.048,0.508-0.069,0.811-0.025
	c0.718,0.093,1.446,0.487,2.145,1.178c0.046,0.046,0.092,0.097,0.133,0.148l0.008,0.008v0.002h0.002l0.023,0.027l0.119,0.107
	l0.027,0.018c0.054-0.006,0.106-0.01,0.16-0.01c0.892,0,1.613,0.722,1.613,1.613c0,0.343-0.105,0.658-0.287,0.918v0.002
	c-0.023,0.03-0.236,0.339-0.574,0.727c0.09,0.118,0.176,0.249,0.256,0.387c0.107,0.021,0.206,0.058,0.287,0.117
	c0.1,0.073,0.219,0.117,0.352,0.117c0.329,0,0.596-0.269,0.596-0.596c0-0.03-0.006-0.058-0.01-0.086h0.004
	c-0.001-0.001-0.003-0.009-0.004-0.014c-0.003-0.014-0.005-0.024-0.008-0.039c-0.036-0.197-0.145-0.944-0.471-1.654
	c0.546-0.071,1.256-0.331,1.85-1.096h0.002l0.002-0.002c0.001-0.003,0.003-0.005,0.004-0.006l0.002-0.002l0.002-0.004l0.029-0.035
	l0.127-0.143c0.11-0.118,0.269-0.278,0.455-0.436c0.367-0.325,0.856-0.604,1.164-0.604c0.317-0.014,0.57-0.272,0.57-0.592
	c0-0.33-0.267-0.596-0.596-0.596c-0.009,0-0.017,0.002-0.025,0.002v-0.002c-0.306,0.026-0.819-0.208-1.213-0.496
	c-0.197-0.144-0.369-0.29-0.488-0.4l-0.139-0.131l-0.035-0.033l-0.006-0.008h-0.004c-0.002-0.003-0.005-0.005-0.008-0.01v-0.002
	c-0.655-0.705-1.382-0.899-1.93-0.924c0.303-0.84,0.316-1.708,0.334-1.744h-0.002c0.001-0.013,0.004-0.022,0.004-0.033
	C81.283,64.515,81.016,64.25,80.687,64.25L80.687,64.25z M63.058,66.998c-0.328,0-0.596,0.267-0.596,0.594
	c0,0.056,0.011,0.11,0.025,0.162h-0.004c0.098,0.292-0.01,0.847-0.201,1.297c-0.091,0.227-0.193,0.427-0.271,0.57l-0.096,0.162
	l-0.025,0.041v0.002l-0.006,0.008l-0.002,0.004c-0.54,0.808-0.562,1.562-0.457,2.104c-0.889-0.099-1.733,0.086-1.773,0.078v0.002
	c-0.277,0.05-0.49,0.293-0.49,0.584c0,0.042,0.007,0.081,0.016,0.121c0.025-0.001,0.05-0.004,0.074-0.004
	c0.891,0,1.611,0.722,1.611,1.611c0,0.181-0.03,0.354-0.084,0.518l0.012,0.031l0.076,0.139l0.014,0.02v0.002l0.004,0.004
	l0.002,0.003l0.002,0.003l0.002,0.004c0.043,0.054,0.084,0.111,0.119,0.17c0.013,0.018,0.022,0.034,0.033,0.055
	c0.005,0.009,0.01,0.017,0.016,0.025c0.379,0.636,0.585,1.249,0.623,1.823c0.493,0.184,0.948,0.168,1.221,0.129
	c0.672,0.295,1.355,0.13,1.855-0.082c0.156-0.07,0.295-0.145,0.422-0.215c0.105,0.742-0.164,1.361-0.445,1.78
	c-3.305,1.71-6.406,2.65-6.406,2.65c-0.612,0.11-1.24,0.259-1.881,0.438c0.164-0.325,0.242-0.673,0.287-0.934
	c0.203,0.004,0.427-0.007,0.682-0.041c0.536-0.085,1.204-0.304,1.617-0.912c0.423-0.184,1.249-0.694,1.451-1.883
	c0.078-0.13,0.159-0.32,0.182-0.574c0.043-0.443-0.084-1.019-0.521-1.729l-0.002,0.003c-0.014-0.025-0.031-0.047-0.051-0.068
	l0.004-0.003l-0.004-0.002l-0.012-0.02l-0.059-0.08c-0.049-0.073-0.112-0.183-0.164-0.303c-0.108-0.251-0.147-0.513-0.057-0.719
	c0.03-0.071,0.047-0.151,0.047-0.232c0-0.329-0.267-0.596-0.596-0.596c-0.077,0-0.151,0.018-0.219,0.045v-0.002
	c-0.001,0.001-0.004,0.002-0.004,0.002c-0.014,0.007-0.024,0.011-0.037,0.018c-0.168,0.077-0.882,0.357-1.51,0.85
	c-0.194-0.515-0.612-1.148-1.5-1.549H55.98l-0.01-0.006l-0.041-0.02l-0.166-0.09c-0.141-0.079-0.335-0.196-0.531-0.342
	c-0.399-0.28-0.785-0.693-0.855-0.992h-0.004c-0.071-0.25-0.297-0.432-0.568-0.432c-0.328,0-0.596,0.267-0.596,0.594
	c0,0.056,0.012,0.11,0.025,0.162l-0.002,0.002c0.099,0.292-0.012,0.845-0.203,1.294c-0.091,0.227-0.194,0.428-0.273,0.57
	l-0.094,0.164l-0.025,0.043l-0.006,0.008l-0.002,0.003c-0.54,0.807-0.562,1.562-0.457,2.104c-0.889-0.097-1.733,0.086-1.773,0.078
	l0.002,0.003c-0.278,0.049-0.492,0.293-0.492,0.586c0,0.197,0.101,0.375,0.252,0.484c0.187,0.127,0.292,0.369,0.332,0.641
	c0.019,0.129,0.022,0.256,0.02,0.344l-0.006,0.102l-0.004,0.02v0.002v0.002v0.002h0.002c-0.002,0.027-0.008,0.052-0.008,0.08v0.002
	c0.003,0.834,0.198,1.387,0.469,1.742c0.149,0.198,0.312,0.316,0.445,0.391c0.8,0.91,1.781,0.906,2.238,0.84
	c0.672,0.297,1.355,0.13,1.855-0.082c0.149-0.066,0.279-0.136,0.4-0.205c-0.104,0.389-0.294,0.705-0.512,0.957
	c-6.399,2.08-13.502,6.947-15.25,9.965l4.776-0.953l0.588-1.029c2.126-3.674,7.536-6.857,12.971-7.803c0,0,0.247-0.061,0.674-0.184
	c0.205,0.105,0.406,0.248,0.59,0.438c-0.192,0.018-0.401,0.051-0.637,0.107c-0.526,0.139-1.17,0.429-1.518,1.076
	c-0.401,0.228-1.168,0.82-1.246,2.023c-0.062,0.139-0.123,0.338-0.119,0.592c0.004,0.438,0.185,0.984,0.676,1.631l0.002,0.002
	c0.008,0.012,0.015,0.021,0.021,0.029c0.02,0.021,0.038,0.045,0.059,0.066l0.014,0.016l0.066,0.076
	c0.057,0.066,0.133,0.168,0.197,0.281c0.134,0.238,0.198,0.494,0.129,0.711l0.004,0.002c-0.016,0.055-0.029,0.111-0.029,0.172
	c0,0.328,0.267,0.594,0.594,0.594c0.101,0,0.195-0.027,0.277-0.07l0.002,0.002c0.003-0.004,0.01-0.009,0.021-0.014
	c0.012-0.008,0.026-0.014,0.037-0.021c0.195-0.109,0.844-0.457,1.391-0.988c0.245,0.484,0.718,1.059,1.613,1.367
	c0.004,0.001,0.009,0.002,0.012,0.004c0.011,0.004,0.019,0.006,0.029,0.01l-0.002,0.002l0.012,0.004l0.045,0.018
	c0.04,0.016,0.101,0.038,0.174,0.07c0.149,0.062,0.354,0.16,0.564,0.281c0.428,0.24,0.854,0.61,0.955,0.9
	c0.089,0.219,0.303,0.375,0.551,0.375c0.329,0,0.596-0.268,0.596-0.596c0-0.078-0.018-0.152-0.045-0.223h0.002
	c-0.127-0.279-0.077-0.841,0.066-1.309c0.067-0.234,0.148-0.445,0.211-0.594c0.033-0.076,0.06-0.135,0.078-0.176l0.021-0.041
	l0.004-0.01v-0.004c0.455-0.857,0.396-1.614,0.236-2.141c0.775,0.004,1.494-0.199,1.697-0.252c0.014-0.002,0.025-0.008,0.039-0.01
	c0.008-0.001,0.018-0.002,0.02-0.002l-0.002-0.002c0.249-0.071,0.432-0.301,0.432-0.57c0-0.223-0.123-0.414-0.305-0.518
	c-0.199-0.109-0.329-0.338-0.396-0.602c-0.032-0.127-0.047-0.254-0.055-0.342l-0.004-0.1v-0.021v-0.004h-0.002
	c0-0.006,0.004-0.014,0.004-0.02c0-0.021-0.005-0.043-0.008-0.064h0.004c-0.09-0.83-0.344-1.359-0.65-1.684
	c-0.169-0.183-0.342-0.284-0.482-0.342c-0.89-0.825-1.864-0.715-2.312-0.602c-0.698-0.227-1.36,0.011-1.836,0.273
	c-0.183,0.107-0.342,0.211-0.48,0.316c-0.116-0.13-0.257-0.271-0.422-0.402c1.669-0.551,4.409-1.619,6.938-3.359
	c0.267,0.004,0.549,0.049,0.836,0.16c-0.107,0.062-0.216,0.127-0.334,0.209c-0.439,0.318-0.938,0.819-1.031,1.547
	c-0.18,0.221-0.438,0.618-0.529,1.162c0.136,0.092,0.27,0.2,0.396,0.338c0.498,0.526,0.813,1.295,0.918,2.271
	c0.007,0.058,0.01,0.117,0.01,0.176c0,0.009-0.002,0.019-0.002,0.027h0.002v0.004v0.002v0.002v0.037l0.025,0.154
	c0.022,0.016,0.044,0.031,0.068,0.047c0.009,0.005,0.017,0.01,0.023,0.014l0.002-0.002c0.025,0.016,0.051,0.03,0.078,0.043
	l0.02,0.008l0.086,0.047c0.078,0.043,0.185,0.109,0.285,0.193c0.21,0.175,0.365,0.391,0.377,0.615h0.002
	c0.021,0.311,0.276,0.555,0.59,0.555c0.18,0,0.337-0.082,0.445-0.205l0.003,0.002c0.014-0.039,0.611-0.666,0.988-1.477
	c0.403,0.366,1.051,0.735,2.008,0.699c0.002,0,0.008,0.002,0.012,0.002c0.003,0,0.006-0.002,0.01-0.002h0.008h0.004h0.006h0.051
	c0.043,0,0.109,0,0.189,0.004c0.162,0.006,0.386,0.023,0.627,0.061c0.484,0.071,1.014,0.264,1.213,0.5l0.002-0.002
	c0.108,0.116,0.263,0.191,0.436,0.191c0.327,0,0.594-0.27,0.594-0.596c0-0.158-0.062-0.299-0.16-0.404v-0.002
	c-0.219-0.214-0.373-0.758-0.406-1.248c-0.021-0.241-0.021-0.468-0.016-0.629c0.003-0.08,0.007-0.146,0.01-0.188l0.006-0.049v-0.012
	c0.117-0.965-0.21-1.648-0.549-2.084c0.737-0.277,1.344-0.736,1.504-0.848c0.01-0.006,0.019-0.014,0.027-0.021
	c0.005-0.002,0.011-0.006,0.014-0.006v-0.002c0.144-0.109,0.236-0.281,0.236-0.475c0-0.298-0.222-0.543-0.508-0.586v-0.002
	c-0.226-0.029-0.43-0.199-0.588-0.42c-0.076-0.107-0.136-0.22-0.172-0.301l-0.041-0.09l-0.008-0.021l-0.002-0.002v-0.002
	c-0.01-0.027-0.022-0.052-0.035-0.076h0.004c-0.382-0.744-0.807-1.146-1.209-1.34c-0.223-0.107-0.424-0.143-0.574-0.145
	c-1.127-0.449-1.995,0-2.373,0.266c-0.732,0.041-1.27,0.499-1.619,0.914c-0.183,0.23-0.322,0.441-0.43,0.639
	c-0.189-0.096-0.429-0.199-0.689-0.264c1.238-0.95,2.388-2.074,3.283-3.389c0.216-0.162,0.471-0.301,0.77-0.389
	c-0.056,0.066-0.112,0.135-0.17,0.211c-0.175,0.241-0.347,0.54-0.445,0.879c0.544-0.113,1.227-0.116,1.914,0.133
	c0.236,0.028,0.503,0.094,0.775,0.227c0.64,0.307,1.198,0.894,1.643,1.74c0.006,0.012,0.013,0.024,0.02,0.037
	c0.002,0.006,0.007,0.012,0.01,0.016h-0.002c0.032,0.062,0.06,0.127,0.084,0.195h0.002v-0.004l0.014,0.037l0.08,0.139l0.021,0.023
	c0.609,0.137,1.091,0.618,1.225,1.229c0.349,0.014,0.74-0.041,1.172-0.205v0.002l0.01-0.004c0.001,0,0.003-0.002,0.004-0.002
	l0.043-0.014c0.041-0.016,0.102-0.033,0.18-0.057c0.156-0.044,0.376-0.1,0.617-0.137c0.482-0.086,1.045-0.068,1.307,0.092
	l0.002-0.002c0.086,0.046,0.182,0.076,0.285,0.076c0.328,0,0.596-0.267,0.596-0.594c0-0.227-0.125-0.416-0.309-0.518l0.002-0.004
	c-0.275-0.137-0.593-0.604-0.777-1.057c-0.097-0.225-0.166-0.439-0.211-0.594c-0.023-0.079-0.041-0.143-0.051-0.184l-0.01-0.045
	l-0.002-0.008v-0.002L79.9,75.725v-0.004c-0.191-0.951-0.715-1.5-1.172-1.805c0.696-0.561,1.159-1.293,1.193-1.316
	c0.067-0.096,0.107-0.213,0.107-0.338c0-0.329-0.269-0.596-0.596-0.596c-0.036,0-0.071,0.006-0.104,0.012v-0.002
	c-0.223,0.041-0.469-0.053-0.688-0.217c-0.106-0.076-0.198-0.164-0.258-0.227l-0.066-0.076l-0.016-0.018l-0.004-0.004v-0.002
	c-0.017-0.02-0.033-0.041-0.053-0.059c-0.594-0.586-1.124-0.838-1.566-0.896c-0.252-0.034-0.455-0.002-0.602,0.045
	c-1.204-0.07-1.887,0.623-2.16,0.992c-0.684,0.268-1.049,0.866-1.25,1.373c-0.093,0.247-0.156,0.469-0.197,0.67
	c-0.198,0.037-0.473,0.123-0.844,0.41c0.297-0.53,0.554-1.088,0.76-1.674l-1.203,1.834c-1.309,1.74-3.388,3.225-5.496,4.402
	c0.305-0.488,0.275-1.129,0.213-1.561c0.224,0.011,0.479,0,0.771-0.037c0.536-0.084,1.204-0.305,1.617-0.912
	c0.422-0.184,1.248-0.693,1.451-1.881c0.077-0.133,0.159-0.324,0.182-0.576c0.044-0.444-0.083-1.018-0.521-1.729h-0.002
	c-0.016-0.025-0.031-0.045-0.049-0.066h0.002l-0.004-0.006l-0.014-0.018l-0.057-0.08c-0.049-0.074-0.113-0.182-0.166-0.303
	c-0.109-0.249-0.146-0.512-0.057-0.717c0.031-0.072,0.049-0.15,0.049-0.234c0-0.33-0.269-0.594-0.596-0.594
	c-0.079,0-0.151,0.014-0.219,0.043v-0.002c-0.001,0-0.005,0.002-0.006,0.004c-0.012,0.004-0.022,0.008-0.033,0.014
	c-0.166,0.074-0.883,0.357-1.512,0.852c-0.196-0.516-0.612-1.149-1.5-1.549h-0.002l-0.002-0.002l-0.006-0.004l-0.043-0.021
	l-0.168-0.088c-0.142-0.079-0.334-0.197-0.531-0.34c-0.4-0.281-0.784-0.695-0.854-0.994h-0.004c-0.071-0.25-0.298-0.432-0.568-0.432
	L63.058,66.998z"/>
<path fill="#00704A" d="M7.651,47.238c-0.04-0.059-0.076-0.12-0.109-0.184c-0.147,0.502-0.212,0.939-0.212,0.939
	c0.223-0.165,0.47-0.233,0.709-0.248C7.811,47.468,7.669,47.264,7.651,47.238"/>
</svg>
