<?xml version="1.0" encoding="utf-8"?>
<!-- Generator: Adobe Illustrator 16.0.4, SVG Export Plug-In . SVG Version: 6.00 Build 0)  -->
<!DOCTYPE svg PUBLIC "-//W3C//DTD SVG 1.1//EN" "http://www.w3.org/Graphics/SVG/1.1/DTD/svg11.dtd">
<svg version="1.1" id="Layer_1" xmlns="http://www.w3.org/2000/svg" xmlns:xlink="http://www.w3.org/1999/xlink" x="0px" y="0px"
	 width="114.833px" height="106.167px" viewBox="0 0 114.833 106.167" enable-background="new 0 0 114.833 106.167"
	 xml:space="preserve">
<g>
	<path fill="#0D3876" d="M52.11,55.003c0,0-2.972,2.81,0.991,9.447c0,0-0.099-2.06,0.691-4.863c0.495-1.744,1.09-3.459,1.09-4.209
		C54.882,54.63,52.803,55.003,52.11,55.003"/>
	<path fill="#0D3876" d="M52.11,55.003c0,0-2.972,2.81,0.991,9.447c0,0-0.099-2.06,0.691-4.863c0.495-1.744,1.09-3.459,1.09-4.209
		C54.882,54.63,52.803,55.003,52.11,55.003z"/>
	<path fill="#0D3876" d="M69.273,55.003c0,0,2.968,2.81-0.991,9.447c0,0,0.098-2.06-0.691-4.863
		c-0.498-1.744-1.092-3.459-1.092-4.209C66.499,54.63,68.579,55.003,69.273,55.003"/>
	<path fill="#0D3876" d="M69.273,55.003c0,0,2.968,2.81-0.991,9.447c0,0,0.098-2.06-0.691-4.863
		c-0.498-1.744-1.092-3.459-1.092-4.209C66.499,54.63,68.579,55.003,69.273,55.003z"/>
	<path fill="#0D3876" d="M54.089,73.515c0,0-2.969-2.805,0.992-9.445c0,0-0.1,2.061,0.693,4.867
		c0.493,1.743,1.089,3.456,1.089,4.203C56.864,73.889,54.783,73.515,54.089,73.515"/>
	<path fill="#0D3876" d="M54.089,73.515c0,0-2.969-2.805,0.992-9.445c0,0-0.1,2.061,0.693,4.867
		c0.493,1.743,1.089,3.456,1.089,4.203C56.864,73.889,54.783,73.515,54.089,73.515z"/>
	<path fill="#0D3876" d="M67.29,73.515c0,0,2.974-2.805-0.988-9.445c0,0,0.099,2.061-0.693,4.867
		c-0.492,1.743-1.09,3.456-1.09,4.203C64.517,73.889,66.595,73.515,67.29,73.515"/>
	<path fill="#0D3876" d="M67.29,73.515c0,0,2.974-2.805-0.988-9.445c0,0,0.099,2.061-0.693,4.867
		c-0.492,1.743-1.09,3.456-1.09,4.203C64.517,73.889,66.595,73.515,67.29,73.515z"/>
	<path fill="#0D3876" d="M54.651,55.612l1.781,4.861l1.882-3.976l2.132,4.021l2.229-4.208l1.979,4.162l1.936-4.583
		c0,0-4.705-2.246-6.094-2.246C59.106,53.644,55.043,55.19,54.651,55.612"/>
	<path fill="#0D3876" d="M54.651,55.612l1.781,4.861l1.882-3.976l2.132,4.021l2.229-4.208l1.979,4.162l1.936-4.583
		c0,0-4.705-2.246-6.094-2.246C59.106,53.644,55.043,55.19,54.651,55.612z"/>
	<path fill="#0D3876" d="M56.829,72.208l1.287-4.018l2.377,2.805l2.478-2.898l1.487,3.833c0,0-3.172,0.841-4.162,0.841
		C59.306,72.771,56.829,72.208,56.829,72.208"/>
	<path fill="#0D3876" d="M56.829,72.208l1.287-4.018l2.377,2.805l2.478-2.898l1.487,3.833c0,0-3.172,0.841-4.162,0.841
		C59.306,72.771,56.829,72.208,56.829,72.208z"/>
	<path fill="#0D3876" d="M70.67,61.8c-1.096,2.931-1.469,5.14-1.295,6.105c0.246,1.42,0.031,3.295-1.058,4.115
		c-0.743,0.562-1.731,0.129-2.541,0.066c-0.803-0.066-6.101-0.553-9.418,0.307c-1.98,0.518-3.171,0.445-3.592-0.244
		c-0.991-1.626-0.373-2.857-0.436-4.119c-0.123-2.554,0.094-3.398-1.238-5.798c-1.358-2.442-1.629-4.797,1.208-6.704
		c1.617,0.219,2.418,0.438,4.77,0.174c1.486-0.166,3.098-0.514,3.221-1.387h0.24c0.125,0.873,1.838,1.295,3.223,1.371
		c2.754,0.152,2.428,0.341,5.564-0.249C70.19,56.333,72.299,57.462,70.67,61.8 M73.667,51.201c-0.246,0.498-0.838,0.877-1.732,1.248
		c-2.034,0.84-7.686,0.622-8.923-0.375l-0.742-3.741H58.56l-0.743,3.741c-1.239,0.997-5.699,1.277-8.18,0.375
		c-0.909-0.332-1.483-0.75-1.734-1.248l-1.98,0.34c0,0,1.002,1.431,1.237,1.906c0.221,0.434,1.118,0.965,2.31,1.215
		c-0.525,0.668-2.383,3.941-0.666,7.264c0.915,1.765,2.229,3.506,1.918,6.043c-0.366,3.016-0.937,4.631,0.499,6.238
		c1.113,1.248,2.979,1.114,5.576,0.377c3.715-1.064,7.87-0.129,9.045,0.123c1.193,0.252,3.47,0.498,4.521-0.688
		c1.053-1.187,1.129-4.144,1.053-6.11c-0.121-3.275,0.804-4.736,1.487-5.982c1.646-2.993,0.13-6.403-0.696-7.396
		c1.387-0.154,2.041-0.763,2.201-1.083c0.236-0.475,0.975-1.812,0.975-1.812L73.667,51.201z"/>
	<path fill="#0D3876" d="M51.768,64.343c0.177,1.41,1.59,4.059,1.59,4.059c-0.708,2.115,0.882,5.295,0.882,5.295l-1.94,0.178
		l-1.237-4.939L51.768,64.343"/>
	<path fill="#0D3876" d="M69.995,65.402c-0.111,1.232-1.529,3.178-1.529,3.178l-0.109,4.414l1.527,0.703l0.767-5.295L69.995,65.402"
		/>
	<polygon fill="#0D3876" points="55.121,66.106 57.766,69.285 56.706,71.755 	"/>
	<polygon fill="#0D3876" points="66.061,66.46 63.235,68.934 64.454,71.93 	"/>
	<polygon fill="#0D3876" points="53.795,59.587 56.532,61.167 54.8,56.024 	"/>
	<polygon fill="#0D3876" points="56.431,60.473 58.313,56.5 59.708,59.228 	"/>
	<polygon fill="#0D3876" points="60.586,60.994 64.331,59.91 62.674,56.311 	"/>
	<polygon fill="#0D3876" points="64.652,60.473 67.59,59.587 66.584,55.839 	"/>
	<path fill="#0D3876" d="M53.533,61.521c3.706-0.354,5.646,1.941,6.706,2.297c1.057,0.354,2.524-3.886,7.819-2.117l-0.565-2.473
		l-2.838,1.248l-2.09-2.637l-2.175,2.832l-1.739-2.771l-2.219,2.574l-2.368-1.952L53.533,61.521"/>
	<polygon fill="#0D3876" points="48.769,60.285 51.415,60.46 50.849,55.132 	"/>
	<polygon fill="#0D3876" points="70.18,60.396 73.116,59.932 70.315,54.817 	"/>
	<path fill="#0D3876" d="M44.987,33.052c0,0-9.312,7.724,1.189,14.265c0,0-9.002,1.384-11.591-4.163
		c-1.385-2.973,3.126-7.224,3.467-7.429"/>
	<path fill="#0D3876" d="M75.814,33.052c0,0,9.313,7.724-1.187,14.265c0,0,9.004,1.384,11.59-4.163
		c1.39-2.973-3.129-7.224-3.467-7.429"/>
	<path fill="#0D3876" d="M58.592,82.966c0.01,0.068,0.019,0.136,0.025,0.209C58.825,83.115,58.592,82.966,58.592,82.966"/>
	<path fill="#0D3876" d="M34.357,12.317c2.239-0.107,3.479,0.511,4.159,1.143l-4.439,4.192c-4.97-0.133-6.653-2.265-6.653-2.265
		C29.999,15.087,31.584,12.45,34.357,12.317 M46.507,9.143c3.834-1.393,8.354,2.085,8.354,2.085
		c0.297-2.282-0.562-3.008-0.562-3.008c2.938-0.49,5.885,4.229,5.885,4.229l0.124,0.295c0,0,2.819-4.75,5.757-4.26
		c0,0-0.859,0.729-0.562,3.006c0,0,4.521-3.477,8.354-2.083c0,0-2.078,0.925-2.772,2.511c0,0,4.908,0.751,8.291,2.175
		c1.901,1.492,5.277,5.007,7.449,10.181c-0.482-0.083-0.969-0.161-1.408-0.206c-1.106-0.109-0.797,5.19,1.146,9.249
		c1.865,2.883,2.311,6.317,2.1,8.05c-0.617,5.079-4.68,10.625-7.502,14.507c-2.822,3.881-3.879,11.115-4.938,14.469
		s-2.179,8.822-9.394,9.176c-4.494,0.218-8.277,0.82-12.764-0.178c-6.353-1.414-7.942-5.823-9.001-9.174
		c-1.056-3.354-2.117-10.588-4.942-14.469c-2.824-3.884-7.761-8.338-8.292-14.515c-0.272-3.159,0.415-4.094,1.73-7.549
		c1.896-2.771,2.122-9.901,1.393-9.83c-0.392,0.04-0.812,0.102-1.236,0.175c2.333-5.492,6.012-9.085,7.796-10.358
		c3.343-1.288,7.769-1.966,7.769-1.966C48.587,10.07,46.507,9.143,46.507,9.143 M86.008,12.581c2.773,0.132,4.359,2.773,6.935,3.071
		c0,0-1.634,2.075-6.444,2.261l-4.531-4.288C82.667,13.028,83.89,12.479,86.008,12.581 M95.124,30.807c0,0,1.885-0.497,5.646,1.684
		c0,0-2.378-9.312-7.43-12.384c-0.252-0.152,2.178-0.197,5.746-5.646c0,0-3.883-1.645-5.646-2.672
		c-2.872-1.686-5.646-3.172-7.231-3.271c-0.699-0.042-3.696-0.763-5.349,0.89c-0.298,0.297-2.243-0.791-3.038-0.791
		c0,0,0.297-0.528,3.567-1.323c0.291-0.069-5.517-3.495-11.892-1.583c0,0,0.662-1.586,2.774-1.981c0,0-6.591-2.305-11.964,2.031
		c-5.38-4.391-12.215-2.295-12.215-2.295c2.113,0.397,2.771,1.98,2.771,1.98C44.493,3.53,38.69,6.962,38.977,7.034
		c3.271,0.79,3.566,1.317,3.566,1.317c-0.79,0-2.74,1.091-3.035,0.792c-1.652-1.652-4.651-0.934-5.351-0.888
		c-1.585,0.096-4.358,1.583-7.229,3.266c-1.765,1.033-5.649,2.676-5.649,2.676c3.569,5.45,6.001,5.493,5.747,5.646
		c-5.051,3.072-7.43,12.384-7.43,12.384c3.767-2.179,5.646-1.687,5.646-1.687c-9.608,7.431-7.135,25.894-7.034,24.072
		c0.102-1.782,3.71-4.007,4.477-4.228c-0.386,2.753-0.43,6.338,0.475,11.062c2.378,12.417,10.83,18.492,10.83,18.492
		c-1.231-3.771-0.982-7.229-0.559-9.457c0.086,0.158,0.149,0.317,0.163,0.476c0.493,5.405,2.183,10.01,3.27,11.49
		c3.106,4.229,1.466,3.104,7.873,8.059l-0.275-6.539c0.239,0.539,1.198,3.178,1.486,3.727c5.548,10.654,16.806,13.975,16.806,13.975
		c-0.957-6.274,1.15-6.188,3.896-8.42c2.73-2.23,3.795-3.787,4.885-5.43l0.012-0.01l0.029-0.059
		c0.526-0.793,1.062-1.613,1.807-2.539c-0.5,2.971-0.948,4.863-3.094,6.48c-0.35,0.264,15.506-7.656,14.785-20.605
		c-0.066-1.188,1.676,6.145,1.301,9.113c0,0,8.451-6.074,10.832-18.494c0.902-4.722,0.861-8.304,0.474-11.062
		c0.769,0.222,4.377,2.446,4.478,4.231C102.258,56.707,104.732,38.235,95.124,30.807"/>
	<path fill="#0D3876" d="M56.943,28.461c0,0,2.872-2.973,6.933-0.299l-1.289,0.595c0,0-2.178-1.339-4.455,0L56.943,28.461"/>
	<path fill="#0D3876" d="M74.313,46.852c0,0-0.62,1.183,0.374,1.029c5.378-0.84,12.745,1.291,18.08,5.353
		C92.767,53.234,84.187,45.5,74.313,46.852"/>
	<path fill="#0D3876" d="M73.84,46.902c0,0-0.383,0.74-0.033,1.032c0.131,0.114-0.629,0.094-0.629,0.094s-0.195-0.857,0.066-0.992
		C73.511,46.902,73.84,46.902,73.84,46.902"/>
	<path fill="#0D3876" d="M72.431,48.941c0,0-0.649,1.162,0.353,1.036c5.396-0.711,12.711,1.586,17.945,5.774
		C90.73,55.751,82.333,47.817,72.431,48.941"/>
	<path fill="#0D3876" d="M71.983,48.985c0,0-0.379,0.733-0.031,1.03c0.131,0.111-0.625,0.088-0.625,0.088s-0.201-0.854,0.062-0.986
		C71.654,48.985,71.983,48.985,71.983,48.985"/>
	<path fill="#0D3876" d="M70.69,51.126c0,0-0.718,1.127,0.29,1.051c5.431-0.4,12.601,2.318,17.587,6.797
		C88.567,58.974,80.637,50.578,70.69,51.126"/>
	<path fill="#0D3876" d="M70.225,51.164c0,0-0.378,0.733-0.032,1.033c0.132,0.11-0.627,0.09-0.627,0.09s-0.198-0.859,0.065-0.992
		C69.897,51.164,70.225,51.164,70.225,51.164"/>
	<path fill="#0D3876" d="M45.947,46.852c0,0,0.624,1.183-0.372,1.029c-5.377-0.84-12.746,1.291-18.079,5.353
		C27.497,53.234,36.075,45.5,45.947,46.852"/>
	<path fill="#0D3876" d="M46.425,46.902c0,0,0.378,0.74,0.033,1.032c-0.133,0.114,0.627,0.094,0.627,0.094s0.195-0.857-0.067-0.992
		C46.752,46.902,46.425,46.902,46.425,46.902"/>
	<path fill="#0D3876" d="M47.826,48.941c0,0,0.653,1.162-0.345,1.036c-5.397-0.711-12.714,1.586-17.95,5.774
		C29.531,55.751,37.929,47.817,47.826,48.941"/>
	<path fill="#0D3876" d="M48.284,48.985c0,0,0.378,0.733,0.031,1.03c-0.132,0.111,0.626,0.088,0.626,0.088s0.196-0.854-0.067-0.986
		C48.611,48.985,48.284,48.985,48.284,48.985"/>
	<path fill="#0D3876" d="M49.575,51.126c0,0,0.715,1.127-0.289,1.051c-5.43-0.4-12.6,2.318-17.589,6.797
		C31.697,58.974,39.625,50.578,49.575,51.126"/>
	<path fill="#0D3876" d="M50.041,51.164c0,0,0.378,0.733,0.03,1.033c-0.132,0.11,0.629,0.09,0.629,0.09s0.196-0.859-0.068-0.992
		C50.369,51.164,50.041,51.164,50.041,51.164"/>
	<polygon fill="#0D3876" points="33.027,35.198 36.203,30.818 30.504,32.777 	"/>
	<polygon fill="#0D3876" points="88.208,35.842 84.329,31.242 90.026,33.202 	"/>
	<path fill="#0D3876" d="M53.197,25.157l-1.816-3.512c-4.669-1.218-6.47-3.149-7.486-5.789c6.295,3.047,10.916,4.773,10.916,4.773
		l0.418,7.068L53.197,25.157"/>
	<path fill="#0D3876" d="M58.377,7.17h4.24c-0.812,7.312-1.308,13.81-1.308,13.81l-1.628-0.202
		C59.079,13.061,58.377,7.17,58.377,7.17"/>
	<path fill="#0D3876" d="M69.683,44.349c-0.091,0.091-0.007,0.194-0.117,0.291c0.212-0.251-0.122-0.258-0.144-0.536
		c1.016-0.677,0-1.016,0-1.016c-1.859-0.339-3.938,0.905-6.258,1.326c-1.024,0.188-3.558,0.645-5.229,0
		c-2.199-0.845-4.397-1.665-6.258-1.326c0,0-0.548,0.186-0.433,0.551c-0.277,0.141-0.534,0.57-0.244,1.816
		c0.507,2.201,5.917,2.872,7.103,3.723c0,0-0.022-0.168-0.082-0.402c0.974,0.878,1.647,2.127,1.595,4.121
		c0,0-0.137,0.884,0.936,0.453c1.072,0.431,0.938-0.453,0.938-0.453c-0.473-1.875,0.359-3.222,1.637-4.284
		c-0.098,0.321-0.127,0.563-0.127,0.563c1.183-0.849,6.596-1.522,7.102-3.723C70.606,43.257,69.683,44.349,69.683,44.349"/>
	<path fill="#0D3876" d="M54.881,30.921c-0.877,2.017-2.614,12.164-2.614,12.164l-1.566,2.344
		c-3.158-2.344,1.054-12.321,1.054-14.691C51.757,28.372,54.881,30.921,54.881,30.921"/>
	<path fill="#0D3876" d="M67.538,25.157l1.816-3.512c4.672-1.218,6.473-3.149,7.484-5.789c-6.293,3.047-10.912,4.773-10.912,4.773
		l-0.42,7.068L67.538,25.157"/>
	<path fill="#0D3876" d="M66.027,30.921c0.845,2.017,2.538,12.164,2.538,12.164l1.514,2.344c3.043-2.344-1.017-12.321-1.017-14.691
		C69.059,28.372,66.027,30.921,66.027,30.921"/>
	<path fill="#0D3876" d="M48.309,28.033c0,1.378-1.114,2.045-2.489,2.045c-1.377,0-2.492-0.667-2.492-2.045
		c0-1.375,1.115-2.493,2.492-2.493C47.195,25.54,48.309,26.66,48.309,28.033"/>
	<path fill="#0D3876" d="M48.309,28.033c0,1.378-1.114,2.045-2.489,2.045c-1.377,0-2.492-0.667-2.492-2.045
		c0-1.375,1.115-2.493,2.492-2.493C47.195,25.54,48.309,26.66,48.309,28.033z"/>
	<path fill="#0D3876" d="M38.545,25.215c3.821-0.946,3.384-0.973,6.931-1.046c8.629-0.182,7.262,5.538,9.291,6.395l-2.693,2.724
		c-1.159-1.155-0.532-1.781-2.043-3.562c0.338-3.891-3.014-4.196-4.739-3.783c-1.424,1.266-2.929-0.419-1.823,1.323
		C37.165,26.317,38.545,25.215,38.545,25.215"/>
	<path fill="#0D3876" d="M72.545,28.033c0,1.378,1.113,2.045,2.492,2.045c1.377,0,2.493-0.667,2.493-2.045
		c0-1.375-1.116-2.493-2.493-2.493S72.545,26.66,72.545,28.033"/>
	<path fill="#0D3876" d="M72.545,28.033c0,1.378,1.113,2.045,2.492,2.045c1.377,0,2.493-0.667,2.493-2.045
		c0-1.375-1.116-2.493-2.493-2.493S72.545,26.66,72.545,28.033z"/>
	<path fill="#0D3876" d="M82.315,25.215c-3.384-1.26-3.384-0.969-6.936-1.046c-8.252-0.182-7.258,5.538-9.291,6.395l2.697,2.724
		c1.159-1.155,0.528-1.781,2.041-3.562c-0.336-3.891,3.016-4.196,4.74-3.783c1.424,1.266,3.369-0.735,2.262,1.008
		C83.659,26.792,82.315,25.215,82.315,25.215"/>
	<path fill="#0D3876" d="M47.779,27.863c0,0.902-0.854,1.634-1.904,1.634s-1.904-0.731-1.904-1.634c0-0.896,0.854-1.631,1.904-1.631
		C46.926,26.232,47.779,26.967,47.779,27.863"/>
	<path fill="#0D3876" d="M47.213,27.185c0,0.762-0.576,1.383-1.286,1.383c-0.709,0-1.286-0.622-1.286-1.383
		c0-0.765,0.577-1.385,1.286-1.385C46.637,25.799,47.213,26.419,47.213,27.185"/>
	<path fill="#0D3876" d="M77.032,27.863c0,0.902-0.852,1.634-1.904,1.634c-1.049,0-1.902-0.731-1.902-1.634
		c0-0.896,0.854-1.631,1.902-1.631C76.18,26.232,77.032,26.967,77.032,27.863"/>
	<path fill="#0D3876" d="M76.463,27.185c0,0.762-0.575,1.383-1.283,1.383c-0.713,0-1.286-0.622-1.286-1.383
		c0-0.765,0.573-1.385,1.286-1.385C75.888,25.799,76.463,26.419,76.463,27.185"/>
</g>
</svg>
