<?xml version="1.0" encoding="utf-8"?>
<!-- Generator: Adobe Illustrator 16.0.4, SVG Export Plug-In . SVG Version: 6.00 Build 0)  -->
<!DOCTYPE svg PUBLIC "-//W3C//DTD SVG 1.1//EN" "http://www.w3.org/Graphics/SVG/1.1/DTD/svg11.dtd">
<svg version="1.1"
	 id="svg2" xmlns:svg="http://www.w3.org/2000/svg" xmlns:sodipodi="http://sodipodi.sourceforge.net/DTD/sodipodi-0.dtd" xmlns:inkscape="http://www.inkscape.org/namespaces/inkscape" xmlns:rdf="http://www.w3.org/1999/02/22-rdf-syntax-ns#" xmlns:cc="http://creativecommons.org/ns#" xmlns:dc="http://purl.org/dc/elements/1.1/" sodipodi:docname="Cornell Big Red.svg" inkscape:version="0.48.1 "
	 xmlns="http://www.w3.org/2000/svg" xmlns:xlink="http://www.w3.org/1999/xlink" x="0px" y="0px" width="115.732px"
	 height="120.756px" viewBox="0 0 115.732 120.756" enable-background="new 0 0 115.732 120.756" xml:space="preserve">
<sodipodi:namedview  inkscape:cy="60.378036" inkscape:cx="57.86628" inkscape:zoom="6.434459" fit-margin-left="0" fit-margin-top="0" showgrid="false" guidetolerance="10" gridtolerance="10" objecttolerance="10" bordercolor="#666666" pagecolor="#ffffff" borderopacity="1" id="namedview73" inkscape:current-layer="svg2" inkscape:window-maximized="1" inkscape:window-y="-4" inkscape:window-x="-4" fit-margin-bottom="0" fit-margin-right="0" inkscape:window-height="994" inkscape:window-width="1680" inkscape:pageshadow="2" inkscape:pageopacity="0">
	</sodipodi:namedview>
<g id="g3345" transform="matrix(0.09958739,0,0,0.09958739,-21.727712,-2.6572564)">
	<g id="_x23_b32122ff">
		<path id="path5" inkscape:connector-curvature="0" fill="#0D3876" d="M594.089,117.301c143.527,0.069,287.069-0.044,430.592,0.054
			c46.128,43.196,92.158,86.495,138.365,129.613c0.039,47.712,0.029,95.404,0.01,143.111c-13.483,0.039-26.957,0-40.431,0.01
			c-0.196,2.726-0.402,5.447-0.569,8.178c0.804-12.959,0.569-26.403-4.521-38.543c-5.874-14.837-18.367-26.153-32.478-33.066
			c-9.404-5.129-20.162-7.987-30.909-7.154c-13.915,0.838-26.742,7.384-37.94,15.307c-5.256,3.697-9.934,8.286-13.101,13.925
			c-5.766-2.77-10.395-7.502-16.514-9.61c-7.266-3.555-15.249-5.04-23.152-6.374c-5.589-0.902-11.316,0.108-16.886-0.809
			c-4.667-2.814-8.806-6.384-13.199-9.576c0.079-19.097,0.039-38.205,0.02-57.302c-61.543-0.01-123.086,0-184.649,0
			c-7.825,0.044-15.67-0.186-23.495,0.23l-0.358-0.52l0.226,0.579c-14.592-4.634-30.698-5.997-45.358-0.941
			c-15.817,5.075-28.335,17.116-37.499,30.605c-7.144,11.292-13.959,23.172-16.425,36.479c-3.702,16.528-0.157,33.929,7.193,48.957
			c5.153,11.684,12.066,23.123,22.804,30.477c-4.506,6.546-10.169,12.248-14.013,19.24c-13.248,20.813-20.284,45.422-20.77,70.045
			c-0.681,16.459,1.701,32.865,5.403,48.879c3.461-1.422,6.982-2.77,10.522-4.006c0.098,12.601-1.03,25.163-1.216,37.768
			c-1.353,16.906,5.957,32.934,14.062,47.305c8.188,12.768,19.191,23.701,31.934,31.899c0.642-1.245,1.29-2.491,1.956-3.717
			c0.133,71.506,0.01,143.003,0.054,214.529c83.215,0.049,166.415,0,249.63,0.02c0.069-28.242-0.02-56.483,0.049-84.744
			c48.315-0.049,96.63,0.039,144.954-0.03c5.903,14.346,10.571,29.35,12.15,44.844c2.5,20.544-1.833,42.264-13.827,59.347
			c-13.768,19.632-34.831,32.919-56.679,41.921c-0.059-3.432-0.108-6.854-0.187-10.277c-17.622,9.61-36.233,17.573-55.826,22.152
			c-4.472,0.902-8.894,2.893-13.513,2.089c-31.046-5.913-62.328-10.757-93.796-13.67c-27.791-2.304-55.949-3.511-83.568,1.167
			c-14.042,2.707-28.487,7.011-39.303,16.827c-5.599,5.06-9.11,11.915-11.198,19.083c-10.522-0.441-20.338-4.628-29.865-8.708
			c-1.971,3.491-1.456,7.884,1.216,10.895c6.477,7.972,16.832,10.944,26.261,13.915c-3.874,3.57-7.757,7.266-10.395,11.875
			c-3.143,5.168-4.589,11.091-6.085,16.906c-11.625,0.059-23.314-2.246-33.782-7.394c-0.24,0.353-0.726,1.079-0.961,1.432
			c6.31,12.199,18.784,19.544,31.527,23.496c-1.839,6.266-4.261,12.444-4.314,19.073c-9.581-0.274-19.088-2.147-28.708-1.804
			c-0.245,0.52-0.711,1.598-0.946,2.138c-2.466-1.04-5.188-1.167-7.654-0.088c-21.363,0.088-42.72-0.029-64.073,0.079
			c-4.874-0.098-9.591-1.177-13.896-3.334c-4.207-2.952-7.58-6.864-11.257-10.394c-41.828-41.225-83.592-82.528-125.489-123.675
			c-1.873-2.147-5.114-3.932-4.824-7.188c-0.034-17.926-0.02-35.841,0.02-53.767c10.904,0.941,21.603,3.766,32.605,3.628
			c23.657,1.51,49.339-1.657,68.486-16.808c9.076-6.844,15.165-16.7,20.107-26.761c13.483-1.226,27.908-3.226,38.479-12.464
			c-0.078-0.598-0.25-1.746-0.333-2.324c-11.38-0.853-22.789-0.745-34.184-1.393c7.659-7.198,14.42-15.974,16.004-26.673
			c10.782-1.187,22.343-2.716,30.997-9.865c1.667-1.118,2.466-2.952,3.109-4.766c-11.537-1.128-23.162-0.745-34.733-1.324
			c1.873-4.481,4.908-8.394,6.59-12.974c1.559-4.021,2.26-8.296,2.937-12.532c11.571-0.912,23.907-3.275,32.561-11.669
			c0.083-0.735,0.235-2.216,0.314-2.961c-10.905,1.01-22.152,1.559-32.919-0.588c-2.3-3.775-3.604-8.08-5.349-12.14
			c2.349-5.423,3.251-11.258,4.276-17.014c1.368-1.422,3.486-1.785,5.261-2.52c12.076-3.932,23.824-10.806,30.551-21.936
			c-0.377-0.745-1.133-2.236-1.5-2.991c-11.743,7.845-26.344,8.678-39.931,10.591c-2.667-3.609-5.241-7.266-7.835-10.914
			c0.966-4.128,1.142-8.561,2.961-12.434c10.203-5.864,21.515-11.061,28.649-20.872c1.088-1.265,0.397-2.976,0.422-4.432
			c-10.463,5.427-21.892,9.919-33.841,9.894c-1.937-4.074-3.118-8.566-5.933-12.165c-6.099-8.482-16.209-12.949-26.197-14.9
			c-11.458-2.162-23.236-2.309-34.782-0.843c-17.161,1.52-33.973,5.388-50.688,9.414c-0.034-122.042-0.029-244.094,0-366.146
			C501.602,203.139,547.858,160.218,594.089,117.301L594.089,117.301z"/>
	</g>
	<g id="_x23_000000ff">
		<path id="path8" inkscape:connector-curvature="0" fill="#0D3876" d="M577.869,83.583c1.505-1.363,3.692-0.961,5.555-1.133
			c150.382,0.044,300.783,0.01,451.17,0c2.108,0,4.462,0.069,5.952,1.824c44.363,41.769,88.746,83.548,133.108,125.342
			c7.688,7.507,16.082,14.405,23.202,22.431c0.853,11.64,0.088,23.417,0.353,35.116c0,52.021,0,104.048,0,156.084
			c0.392,2.456-1.687,4.761-4.207,4.339c-24.162,0.103-48.344-0.02-72.497,0.044c-6.727,10.002-16.68,17.219-27.565,22.127
			c4.011,8.835,8.649,17.607,9.875,27.384c0.706,6.737,0.667,13.635-1.167,20.206c11.101,6.688,23.25,11.512,34.057,18.744
			c22.888,13.469,44,29.806,63.72,47.599c8.845,8.771,18.259,17.004,26.3,26.57c23.535,25.334,43.451,53.767,61.484,83.215
			c10.698,18.386,20.917,37.136,29.409,56.66c3.344,10.198,8.148,19.936,10.502,30.409c-7.413-0.147-14.072-3.766-21.181-5.374
			c5.168,24.231,9.649,48.619,12.885,73.183c2.226,18.308,4.266,36.792,2.893,55.267c-3.05,40.382-17.269,81.048-45.5,110.77
			c-13.111,14.915-28.438,27.624-44.226,39.587c-19.151,13.778-39.215,26.329-60.072,37.391
			c-33.272,18.082-67.937,33.909-104.229,44.912c-12.042,4.452-25.358,5.188-36.646,11.66c-18.7,8.894-36.92,18.769-56.101,26.584
			c-21.858,9.257-44.765,15.592-67.721,21.446c-21.132,4.609-42.617,8.541-64.328,8.012c-27.29,0.422-55.434-5.776-78.101-21.515
			c-2.991-1.697-5.433-4.795-9.071-4.972c-12.572-1.01-24.177-6.903-34.037-14.484c0.162-0.823,0.485-2.481,0.647-3.314
			c9.331,0.324,18.48,2.324,27.771,3.079c-0.564-1.981-1.28-3.922-3.271-4.775c-8.1-4.609-15.793-10.061-22.206-16.886
			c-1.456-1.736-3.476-2.775-5.717-2.991c-14.263-2.216-27.854-7.815-39.911-15.729c0.078-1.333,0.172-2.647,0.28-3.942
			c9.698,0.167,19.146,2.814,28.835,3.246c-0.613-2.971-0.873-6.07-2.079-8.865c-1.667-1.03-3.765-0.451-5.594-0.628
			c-42.451,0.137-84.892-0.02-127.342,0.088c-1.819-0.069-3.883,0.069-5.173-1.461c-51.129-50.305-102.317-100.572-153.348-150.985
			c-3.422-3.834-8.061-6.747-10.458-11.375c-0.456-27.035-0.024-54.13-0.206-81.156c-31.988-15.925-63.397-37.077-81.553-68.711
			c-11.885-18.681-24.25-37.067-36.101-55.777c-8.752-13.797-10.708-31.017-7.737-46.864c1.182-8.218,4.138-16.013,6.345-23.976
			c-3.795,1.01-7.531,2.716-11.522,2.608c-3.187-0.843-1.584-4.697-1.549-7.041c5.8-31.071,23.814-58.307,44.569-81.518
			c29.771-32.169,64.73-59.376,102.474-81.577c0.24-0.167,0.721-0.51,0.951-0.691l0.794-0.559
			c0.108-83.484-0.02-166.989,0.054-250.478c-0.47-3.486,2.618-5.541,4.81-7.639C476.292,177.957,527.024,130.697,577.869,83.583
			 M590.818,108.819c-47.952,44.466-95.987,88.834-143.949,133.304c0.01,124.018,0,248.041,0.01,372.074
			c2.864-0.623,5.717-1.29,8.6-1.878c16.715-4.025,33.527-7.894,50.693-9.414c11.542-1.466,23.324-1.319,34.778,0.843
			c9.988,1.951,20.098,6.418,26.197,14.9c2.824,3.599,3.996,8.09,5.933,12.165c11.949,0.024,23.378-4.472,33.841-9.894
			c-0.015,1.456,0.667,3.167-0.422,4.432c-7.134,9.811-18.446,15.008-28.639,20.872c-1.829,3.873-2.005,8.306-2.961,12.434
			c2.584,3.648,5.158,7.306,7.825,10.914c13.591-1.912,28.188-2.756,39.931-10.601c0.377,0.755,1.133,2.256,1.51,3.001
			c-6.727,11.13-18.475,18.004-30.551,21.936c-1.785,0.726-3.903,1.089-5.261,2.52c-1.035,5.756-1.927,11.591-4.285,17.014
			c1.746,4.06,3.05,8.355,5.349,12.14c10.767,2.147,22.015,1.598,32.924,0.588c-0.083,0.745-0.225,2.226-0.309,2.961
			c-8.654,8.394-21,10.757-32.571,11.669c-0.677,4.236-1.378,8.512-2.937,12.532c-1.672,4.58-4.717,8.482-6.59,12.974
			c11.571,0.579,23.206,0.196,34.743,1.324c-0.652,1.814-1.451,3.648-3.118,4.766c-8.654,7.149-20.215,8.678-30.987,9.865
			c-1.584,10.698-8.345,19.475-16.004,26.673c11.385,0.647,22.794,0.539,34.184,1.393c0.083,0.578,0.255,1.726,0.333,2.324
			c-10.571,9.237-25.006,11.238-38.479,12.464c-4.952,10.061-11.032,19.916-20.117,26.761
			c-19.146,15.151-44.819,18.318-68.486,16.808c-11.002,0.137-21.701-2.687-32.605-3.628l0.01-1.039
			c-2.785-0.383-5.565-0.775-8.34-1.187c-0.181,20.456-0.02,40.921-0.083,61.376c49.109,48.884,98.365,97.62,147.479,146.484
			c1.064,0.951,2.074,2.354,3.741,2.03c33.184,0.039,66.377,0.039,99.562-0.02c-4.207-2.589-8.414-5.188-12.645-7.727
			c-3.295-2.108-7.428-1.079-11.096-1.167c-20.691,0.069-41.377,0-62.073,0.039c-5.035-0.579-12.057,1.598-14.994-3.766
			c4.305,2.157,9.022,3.236,13.885,3.334c21.353-0.108,42.716,0.01,64.083-0.079c2.466-1.079,5.188-0.951,7.654,0.088
			c0.226-0.539,0.701-1.618,0.946-2.138c9.62-0.343,19.117,1.53,28.708,1.804c0.054-6.629,2.476-12.807,4.314-19.073
			c-12.743-3.952-25.221-11.297-31.536-23.496c0.245-0.353,0.73-1.079,0.966-1.432c10.473,5.148,22.162,7.453,33.787,7.394
			c1.495-5.815,2.932-11.738,6.08-16.906c2.643-4.609,6.516-8.306,10.389-11.875c-9.428-2.971-19.774-5.942-26.251-13.915
			c-2.672-3.01-3.197-7.404-1.216-10.895c9.527,4.079,19.343,8.266,29.855,8.708c2.089-7.168,5.599-14.023,11.198-19.083
			c10.816-9.816,25.271-14.121,39.313-16.827c27.619-4.677,55.768-3.471,83.558-1.167c31.468,2.912,62.749,7.757,93.796,13.67
			c4.619,0.804,9.041-1.187,13.513-2.089c19.593-4.58,38.205-12.542,55.836-22.152c0.069,3.422,0.118,6.845,0.177,10.277
			c21.848-9.002,42.912-22.289,56.679-41.921c11.993-17.082,16.327-38.803,13.827-59.347c-1.579-15.494-6.247-30.497-12.15-44.844
			c-1.402-2.922-2.785-5.844-4.177-8.757c-50.217,0.039-100.444-0.02-150.661,0.039c-0.039,28.379,0,56.797-0.02,85.205
			c-76.792,0-153.583,0-230.38,0c-0.02-67.339,0.034-134.667-0.029-202.006c-3.114-3.295-6.212-6.609-9.419-9.816
			c-0.02,1.853-0.034,3.707,0,5.56c-0.667,1.226-1.304,2.471-1.947,3.717c-12.743-8.198-23.755-19.132-31.938-31.899
			c-8.105-14.371-15.42-30.399-14.057-47.305c0.177-12.606,1.304-25.167,1.216-37.768c-3.55,1.236-7.061,2.584-10.532,4.006
			c-3.692-16.013-6.085-32.419-5.394-48.879c0.48-24.623,7.521-49.232,20.77-70.045c3.844-6.992,9.497-12.694,14.003-19.24
			c-10.738-7.354-17.641-18.793-22.804-30.477c-7.34-15.028-10.885-32.429-7.193-48.957c2.466-13.307,9.281-25.187,16.425-36.479
			c9.174-13.489,21.681-25.535,37.508-30.605c14.66-5.055,30.762-3.692,45.349,0.941l-0.216-0.579l0.348,0.52
			c4.991,1.554,9.424,4.369,13.601,7.438c61.558,0.044,123.116,0,184.688,0.02c0.01,14.626,0.01,29.242,0,43.868
			c3.265,1.927,6.57,3.785,9.836,5.746c4.393,3.197,8.531,6.761,13.199,9.576c5.57,0.917,11.297-0.093,16.886,0.814
			c7.904,1.334,15.886,2.814,23.152,6.369c6.129,2.113,10.748,6.84,16.514,9.61c3.167-5.638,7.845-10.228,13.101-13.925
			c11.198-7.923,24.025-14.464,37.939-15.302c10.748-0.838,21.505,2.025,30.909,7.154c14.111,6.908,26.604,18.229,32.488,33.061
			c5.08,12.145,5.315,25.584,4.511,38.548c16.562,0.03,33.145,0,49.736,0.01c0.059-52.036-0.01-104.072,0.04-156.108
			c-48.001-44.49-96.051-88.951-144.101-133.398C882.099,108.839,736.464,108.746,590.818,108.819 M701.657,286.33
			c-13.434,1.044-25.981,7.394-36.121,16.062c-10.345,9.09-17.533,21.98-18.813,35.792c-0.583,10.483-0.539,21.26,3.197,31.218
			c4.874,15.121,16.724,27.129,30.781,34.111c5.231-3.741,11.076-6.452,16.896-9.149c-2.864,3.682-5.575,7.575-9.316,10.458
			c-0.044,0.078-0.108,0.26-0.152,0.353c-8.796,8.531-15.91,18.607-23.025,28.551c-4.692,7.394-9.394,14.807-12.929,22.833
			c-9.061,18.504-13.16,39.901-8.781,60.239c3.996-3.339,8.065-6.565,12.272-9.63c2.775,10.836,2.398,22.157,1.765,33.233
			c-0.637,17.195-3.231,34.434-0.848,51.61c1.559,12.674,5.531,26.099,15.656,34.611c2.358-5.266,5.33-10.208,8.355-15.106
			c3.971,9.144,7.717,18.597,14.037,26.427c2.864,3.692,6.727,6.389,10.233,9.409c8.345,6.923,15.361,15.288,21.583,24.113
			c3.162-4.776,5.584-9.992,8.384-14.994c12.022,16.769,31.483,25.937,50.703,31.782c10.581,3.383,22.216,4.481,31.522,11.012
			c4.305,2.863,7.521,6.962,10.62,11.022c0.343-0.578,1-1.765,1.324-2.344l-0.235-0.441c4.472-13.778,5.227-28.428,4.884-42.794
			c7.786,11.483,8.149,25.947,9.914,39.274c0.804,6.56,2.442,13.944,8.168,18.033c18.043,10.806,38.871,17.239,59.955,17.523
			c7.57-0.284,15.915-1.098,21.74-6.521c6.776-6.57,12.768-13.974,17.543-22.152c-1.079,5.237-2.393,10.444-3.521,15.69
			c18.877-7.619,32.752-23.652,43.402-40.45c10.454-16.013,16.347-34.606,27.997-49.884c0.941,2.334,1.863,4.677,2.765,7.051
			c5.05-10.998,11.277-21.363,17.739-31.566c5.982-10.002,13.415-19.107,18.455-29.659c3.383-6.938,8.159-13.371,9.522-21.127
			c2.02-7.659,2.089-15.66,0.853-23.461c-0.559-13.596,4.56-26.535,7.443-39.622c1.854-8.772,1.324-18.083-2.04-26.423
			c-4.07-10.419-8.326-20.75-12.483-31.115c-2.785-6.653-4.893-13.694-9.178-19.602c-11.15-18.372-25.545-35.14-43.471-47.177
			c-13.65-9.899-29.742-16.96-46.687-18.141c6.403,9.835,12.111,21.039,11.042,33.159c-4.58-6.31-7.482-13.689-12.405-19.764
			c-4.786-5.879-9.042-12.292-14.925-17.175c-10.59-10.728-23.633-18.808-37.489-24.599c-20.867-8.585-43.706-10.87-66.093-10.502
			c1.098,1.883,2.255,3.741,3.373,5.614c-26.271-0.495-54.664,1.461-76.738,17.264c-1.937-15.018-9.571-29.065-20.99-38.96
			C734.797,290.11,718.018,284.589,701.657,286.33 M765.676,295.734c6.771,4.442,14.028,8.933,18.029,16.268
			c14.739-1.461,29.438-3.378,44.157-5.021c-0.696-1.858-1.383-3.717-2.059-5.575c4.55-0.221,9.09-0.564,13.631-0.873
			c20.877-0.956,41.607,3.118,61.396,9.546c0-4.829,0-9.674,0-14.518C855.78,295.665,810.72,295.332,765.676,295.734
			 M1040.998,345.912c-8.188,3.976-14.66,10.693-19.514,18.298c4.315,2.952,8.639,5.923,13.022,8.777
			c6.354-8.61,14.984-17.607,26.467-17.676c13.13,0.024,23.604,9.458,32.223,18.333c-2.314,0-4.628,0-6.933,0
			c2.56,5.923,3.854,12.709,1.53,18.926c-3.491,10.091-12.611,16.631-21.387,21.917c2.079,5.256,4.423,10.409,6.639,15.621
			c15.258-4.427,27.428-17.749,30.811-33.228c2.442-11.723,0.451-24.486-6.394-34.429c-5.511-7.796-12.944-14.591-22.044-17.808
			C1064.287,340.891,1051.735,341.004,1040.998,345.912 M347.062,570.285c-15.802,15.67-29.968,33.218-40.073,53.13
			c8.438-1.942,16.788-4.285,25.187-6.398c-12.165,17.538-23.657,36.346-27.634,57.625c-2.692,13.64-1.535,28.369,4.869,40.833
			c5.81,7.188,12.312,13.797,18.406,20.75c5.08,5.237,7.541,12.258,11.547,18.249v0.353c8.909,14.66,18.705,29.055,31.654,40.45
			c23.162,21.927,54.345,34.155,85.872,37.048c15.68,1.932,31.762,2.775,47.28-0.765c10.718-2.491,21.603-7.335,28.212-16.504
			c-3.756-1.569-7.502-3.148-11.174-4.893c5.295-2.383,10.723-4.432,16.048-6.727c-0.755-4.746-2.731-9.159-5.584-13.032
			c8.536-2.864,16.94-7.335,21.72-15.298c-4.53-1.883-9.232-3.305-13.905-4.736c5.065-2.285,10.193-4.393,15.347-6.443
			c-0.226-2.559,0.162-5.403-1.397-7.58c-1.564-2.344-3.834-4.07-5.933-5.894c7.943-2.265,14.479-7.874,18.156-15.219
			c-4.477-2.471-9.286-4.236-13.665-6.894c4.702-2.403,9.924-3.766,14.356-6.649c-1.574-7.472-8.678-11.777-14.876-15.18
			c4.702-3.481,9.213-7.59,11.174-13.278c-6.727-2.157-13.606-3.874-20.304-6.139c6.139-2.863,12.488-5.266,18.676-8.051
			c-3.368-7.188-10.988-10.61-18.126-12.846c2.412-4.187,5.565-7.865,8.159-11.924c-5.413-2.559-11.719-2.716-17.445-4.413
			c5.707-3.295,11.713-6.05,17.607-9.021c-1.417-4.035-3.02-8.051-5.776-11.37l-0.387-0.118c-8.384-7.997-20.701-8.825-31.659-9.051
			c-20.289,0.167-40.284,4.378-59.876,9.306c-26.496,6.702-52.37,15.538-78.14,24.55c14.724-11.748,29.708-23.598,46.618-32.061
			c0.549-1.569,0.893-3.221,0.839-4.888c-0.108-22.167-0.054-44.343-0.074-66.525c-0.5,0.245-1.54,0.726-2.04,0.956l0.069,0.343
			c-18.965,12.762-37.048,26.923-53.591,42.715c15.705-24.231,33.346-47.271,52.963-68.501c4.359-3.854,1.834-10.267,2.383-15.322
			C395.809,528.536,369.867,547.682,347.062,570.285 M1104.757,524.314c5.354,5.276,11.385,9.86,16.464,15.445
			c10.777,10.885,20.24,22.961,29.359,35.243c-15.288-12.008-31.909-22.412-49.697-30.291c1.049,0.941,2.128,1.887,3.246,2.809
			c23.613,18.568,42.813,42.073,60.014,66.52c-2-1.5-3.962-3.04-5.874-4.633c-21.24-18.186-45.167-32.924-69.8-46.04
			c-3.579,11.969-8.737,23.437-15.082,34.179c-8.325,12.694-17.043,25.138-25.241,37.92c-11.679,17.553-19.573,37.41-24.486,57.856
			c-2.942-4.374-5.766-8.786-8.698-13.13c-3.628,8.002-7.649,15.847-12.846,22.946c-17.847,25.182-45.147,41.637-73.301,53.022
			c-11.787,3.981-24.28,6.394-36.743,5.55c-17.033-0.941-33.478-7.06-47.874-16.033c-7.521-4.089-13.738-10.032-20.71-14.905
			c-0.059,3.903-0.088,7.815-0.177,11.718c-3.069-5.236-6.335-10.395-10.61-14.729c-12.174-12.719-29.512-18.916-46.628-21.348
			c-13.895-2.177-26.388-9.365-36.915-18.436c-0.789,4.079-1.495,8.168-2.25,12.258c-4.359-1.255-8.095-3.854-11.228-7.07
			c0.025,49.256-0.054,98.502,0.054,147.759c61.386,0.069,122.797,0.088,184.193,0c0.069-5.57,0.069-11.12,0-16.651
			c-17.308-2.157-34.596-7.257-48.893-17.533c18.073,0,37.234,1.471,54.022-6.58c-14.131-5.58-29.281-8.375-43.069-14.915
			c-15.503-6.874-31.095-14.513-43.833-25.927c21.475,8.757,43.961,15.651,67.162,17.553c26.624,2.736,53.924-1.54,78.508-12.101
			c14.179-5.962,27.251-14.209,39.499-23.466c-3.03,8.414-6.501,16.651-9.335,25.123c22.819-5.844,46.628-13.846,62.837-31.899
			c-1.736,9.659-6.384,18.377-10.277,27.251c14.327-5.795,27.898-13.905,38.597-25.172c0.412,0.157,1.265,0.461,1.677,0.618
			c13.366,29.428,25.329,60.053,29.036,92.403c3.413,25.506,0.147,52.737-13.307,75.066c-8.61,14.229-20.936,26.025-35.057,34.743
			c-19.808,12.787-42.666,19.779-65.465,25.015c0.627-2.844,1.265-5.707,1.833-8.551c-15.739,5.099-31.497,10.12-47.216,15.307
			c-1.785,0.539-3.736,1.098-5.482,0.167c-14.013-5.894-29.016-8.953-43.961-11.424c-36.861-5.639-74.281-7.776-111.515-5.795
			c-13.729,1.02-27.898,2.197-40.524,8.139c-5.094,2.354-10.355,6.698-10.806,12.64c6.227,2.991,12.924,4.903,19.24,7.708
			c-7.585,1.932-15.283,3.422-22.716,5.874c1.093,3.589,2.505,7.08,4.226,10.414c-9.08,2.667-17.813,8.463-20.818,17.896
			c6.065,2.687,12.336,4.942,18.396,7.698c-5.241,2.304-10.6,4.354-15.896,6.511c1.245,3.481,3.55,6.364,6.845,8.11
			c-6.59,3.726-13.895,8.228-16.067,16.013c7.051,2.648,14.376,4.589,21.216,7.796c-5.124,2.216-10.37,4.197-15.503,6.452
			c5.825,3.942,11.753,7.718,17.612,11.63c-3.682,4.481-4.942,10.306-3.447,15.906c7.624,1.942,15.337,3.491,23.01,5.237
			c-4.54,2.304-9.09,4.599-13.385,7.296c1.858,1.804,3.638,3.805,5.992,5.011c8.6,4.589,18.362,7.021,28.124,6.717
			c-2.756,4.55-6.35,8.855-7.34,14.258c7.291,0.53,14.562,1.324,21.829,2.04c-4.403,3.599-8.801,7.227-13.032,11.022
			c9.86,3.481,19.72,7.208,30.159,8.541c8.669,2.246,17.68,1.922,26.535,2.765c7.315,0.402,14.611-0.784,21.927-0.804
			c32.762-3.265,64.583-12.846,94.894-25.486c10.355-3.707,19.936-9.149,29.791-13.944c12.826-6.335,25.486-13.003,38.411-19.102
			c11.296-3.52,22.995-5.658,34.204-9.492c21.75-6.178,42.421-15.386,63.25-23.996l0.284-0.324
			c6.208-1.981,12.022-4.972,18.024-7.511c23.535-10.748,46.354-23.172,67.505-38.106c30.595-21.466,57.64-49.119,74.399-82.793
			c12.316-24.751,18.386-52.375,18.661-79.949c0.039-50.394-16.808-99.219-39.401-143.699c8.365,1.863,16.563,4.471,24.957,6.295
			c-12.072-25.006-26.869-48.628-43.422-70.898c-6.08-7.737-11.11-16.254-17.631-23.647c-12.689-15.901-26.388-30.938-40.705-45.393
			C1160.956,558.337,1135.097,537.106,1104.757,524.314L1104.757,524.314z"/>
		<path id="path10" inkscape:connector-curvature="0" fill="#0D3876" d="M674.827,306.859c15.111-7.041,34.214-9.149,48.82,0.26
			c10.125,6.889,19.774,15.763,24.025,27.56c1.912,5.114,2.044,10.625,1.613,15.994c1.142-0.162,3.413-0.495,4.55-0.657
			c-16.209,9.728-30.889,21.72-46.589,32.213c1.794-4.913,4.54-9.365,7.281-13.787c-11.287,4.775-22.03,11.052-30.845,19.642
			c-9.826-5.398-16.131-15.68-17.435-26.702c-1.098-10.35-2.648-21.397,1.849-31.213c3.412-8.242,10.605-14.028,18.136-18.352
			c-3.486-2.319-7.413-3.766-11.405-4.962V306.859L674.827,306.859z"/>
		<path id="path12" inkscape:connector-curvature="0" fill="#0D3876" d="M836.128,419.791c13.866-1.623,28.948,0.167,40.333,8.875
			c12.748,9.591,18.769,25.324,21.583,40.519c-3.54-4.187-7.051-8.404-10.571-12.606c-2.501,5.521-6.747,10.684-12.925,12.037
			c-6.629,1.069-14.268,1.064-19.671-3.496c-6.188-4.604-8.688-12.714-8.276-20.171c0.157-3.898,2.579-7.149,4.462-10.399
			c-7.129-3.099-14.699-4.981-22.28-6.462c5.834-0.951,11.738-1.201,17.612-1.711C842.963,424.174,839.511,422.041,836.128,419.791
			 M858.81,450.817c0.686,4.256,2.795,9.169,7.57,9.973c5.217,0.73,11.306-0.044,14.621-4.638c-1.873-1.809-3.785-3.589-5.658-5.369
			c-1.932,1.525-3.932,4.398-6.717,3.153c-3.609-1.447-3.746-6.32-1.334-8.928c-2.167-1.525-4.354-3.04-6.541-4.511
			C859.271,443.688,857.594,447.238,858.81,450.817z"/>
		<path id="path14" inkscape:connector-curvature="0" fill="#0D3876" d="M1002.391,472.788c5.393-5.129,12.297-8.747,19.7-9.836
			c8.267-1.044,16.857,0.927,24.025,5.178c-2.501,0.402-5.001,0.794-7.502,1.162c2.677,1.378,5.354,2.736,8.012,4.177
			c-0.451,0.02-1.363,0.044-1.804,0.064c-3.138,0.098-6.266,0.177-9.375,0.23c0.265,3.775,1.265,7.6,0.696,11.375
			c-1.618,3.908-4.364,7.693-8.325,9.424c-4.07,1.187-8.316,1.437-12.474,2.138c2.01,7.747,2.207,15.837,3.903,23.652
			c1.834,2.957,4.952,5.07,6.08,8.497c2.147,5.33,0.569,11.159-1.579,16.209c5.256,11.204,7.051,24.53,2.158,36.185
			c-6.247,16.013-20.966,26.026-32.968,37.45c0.627-6.075,3.56-11.532,7.09-16.396c6.59-9.115,13.326-18.573,16.317-29.575
			c1.265-4.32,1.029-8.87-0.147-13.169c-3.089,0.618-6.159,1.368-9.267,1.824c-2.079,0.387-4.844-0.206-5.188-2.647
			c-0.157-5.104,4.207-10.032,1.991-15.102c-2.736-4.167-10.14-3.996-12.581,0.446c-2.255,3.736-3.717,8.026-4.011,12.39
			c-0.255,3.79,2.206,6.874,4.089,9.914c-5.854,1.799-11.532,4.153-17.425,5.786c-1.981,0.917-3.403-0.927-4.736-1.996
			c-4.236-3.903-8.502-7.761-12.787-11.581c5.981-2.216,12.718-4.545,16.023-10.443c2.187-3.374,4.256-8.556,0.785-11.816
			c-2.873-1.795-6.295-3.511-9.748-3.055c-4.069,1.893-6.158,6.315-10.061,8.477c-4.55,2.962-11.022,5.32-15.817,1.554
			c-3.746-2.991-7.806-6.423-9.208-11.164c-0.618-14.15,12.101-26.702,25.957-27.496c10.699-1.118,20.623,3.633,30.144,7.825
			c6.747,2.898,14.091,4.001,21.397,4.221c-1.726-3.927-3.491-8.026-6.717-10.963c-3.344-3.26-7.806-4.878-11.973-6.751
			c4.001-0.652,8.051-1.02,12.111-1.182c-1.236-2.907-2.256-6.006-4.344-8.433c-2.226-2.584-5.697-3.359-8.757-4.457
			C991.575,480.961,997.527,477.559,1002.391,472.788 M1019.149,477.603c-0.068,0.711-0.196,2.133-0.265,2.834
			c-1.461,0.299-2.902,0.598-4.334,0.907c-0.275-0.77-0.794-2.304-1.069-3.074c-1.746,0.73-3.511,1.451-5.237,2.192
			c2.628,2.927,5.717,7.619,10.355,5.942c4.413-1.549,4.658-6.609,5.197-10.537C1022.258,476.431,1020.689,477.014,1019.149,477.603
			 M950.085,515.675c6.933,1.01,14.464,1.044,20.623,4.8c6.442,5.074,14.229,8.6,22.456,9.291
			c7.766,0.534,15.454,1.662,23.201,2.255c-0.667-1.795-1.138-3.927-2.932-4.938c-2.736-1.329-5.834-0.721-8.757-0.917
			c-11.022-0.348-21.289-4.933-30.997-9.762C966.452,512.763,957.332,511.258,950.085,515.675L950.085,515.675z"/>
		<path id="path16" inkscape:connector-curvature="0" fill="#0D3876" d="M922.667,474.73c6.521-4.57,14.14-8.575,22.378-7.889
			c5.746,0.127,10.748,3.295,15.239,6.6c4.628,3.457,9.551,6.536,13.885,10.39c-1.902,0.069-3.913,0.804-5.57-0.392
			c-6.962-3.751-14.336-7.712-22.476-7.438c-7.237,0.495-14.444,1.378-21.682,1.897C924.001,477.103,923.118,475.524,922.667,474.73
			z"/>
		<path id="path18" inkscape:connector-curvature="0" fill="#0D3876" d="M949.35,486.242c8.228-3.157,17.641,1.157,22.623,7.928
			c-4.981,1-9.512-1.697-14.327-2.324c-5.001-0.966-10.061-0.314-15.062,0.157C942.937,488.551,946.624,487.399,949.35,486.242z"/>
		<path id="path20" inkscape:connector-curvature="0" fill="#0D3876" d="M853.171,499.333c14.16-4.305,28.095-9.36,42.402-13.111
			c-0.343,2.824-0.785,5.741-2.314,8.222c-12.032,19.799-35.528,28.443-48.413,47.447c4.982-1.594,9.816-3.623,14.866-5.026
			c-13.189,14.704-23.025,32.463-27.683,51.698c-2.599,9.36-3.187,19.058-4.491,28.639c-5.384-12.184-6.658-25.903-4.011-38.93
			c0.971-5.737,2.765-11.292,4.374-16.891c-3.746,2.03-7.296,4.354-10.738,6.849c0.657-8.075,3.785-15.709,8.286-22.368
			c6.531-9.306,13.356-18.666,22.554-25.54c7.423-5.423,14.788-10.929,21.662-17.009c-3.089-0.554-6.178-1.025-9.198-1.76
			C857.976,500.937,855.564,500.123,853.171,499.333z"/>
		<path id="path22" inkscape:connector-curvature="0" fill="#0D3876" d="M842.306,592.462c5.766-8.492,16.141-11.983,25.82-13.601
			c12.915-1.74,26.114-1.745,38.969,0.412c6.168,0.731,12.287,2.182,18.533,2.045c14.621-0.525,29.252-1.368,43.893-1.785
			c0.784,5.006,3.383,9.556,7.295,12.777c5.305,4.329,9.934,9.375,14.768,14.224c-8.835,13.984-19.906,27.026-24.643,43.152
			c-4.697,15.631-9.326,31.281-13.983,46.913c-2.187,7.717-8.286,14.327-16.053,16.572c-10.395,3.481-21.583,2.883-32.282,1.353
			c-11.454-1.481-22.868-4.589-32.664-10.875c0.981,5.511,5.08,9.394,9.198,12.787c-8.855-2.02-19.308-6.668-21.27-16.533
			c-2.746-15.151-1.951-30.674-2-46c-0.392-17.44-2.903-34.841-7.874-51.58c-5.384,3.442-7.345,9.762-9.983,15.224
			C837.913,609.284,837.374,599.856,842.306,592.462 M897.024,585.495c-1.863,7.747-1.961,15.798-1.02,23.682
			c2.314-0.505,4.913-0.392,7.041-1.54c4.011-4.731,7.09-10.331,11.973-14.273c1.589,2.883,1.638,7.565,5.403,8.565
			c3.197,1.294,6.031-1.466,9.11-2c-0.588,5.271,6.305,6.801,9.551,3.609c1,0.309,1.991,0.632,3.011,0.961
			c-0.137,3.305,2.628,4.124,5.344,4.731c2.099-1.152,4.227-2.3,6.364-3.388c1.226,2.868,3.118,5.477,6.129,6.658
			c2.118-1.456,3.971-3.364,6.442-4.192c-0.373,7.222-2.314,14.283-2.481,21.53c5.178-2.471,7.767-8.061,11.777-11.964
			c3.971-3.952,6.452-11.478,1.785-15.807c-4.923-3.56-9.688-7.301-14.503-10.983c-10.032,2.638-20.514,1.697-30.683,0.672
			C920.422,590.339,908.694,587.98,897.024,585.495 M877.716,655.756c-5.972,6.541-8.1,15.847-7.923,24.515
			c0.432,3.51,0,7.737,3.06,10.228c3.471,3.334,9.169,1.726,11.924-1.765c0.706,6.551,9.551,5.472,13.15,1.961
			c1.216,2.089,2.883,3.854,4.736,5.403c2.452-0.559,4.776-1.53,6.551-3.383c1.069,2.177,1.932,5.256,4.903,5.295
			c2.354,0.971,4.58-0.314,6.58-1.422c0.5,4.305,5.05,4.374,8.149,2.628c0.186,4.05,5.452,6.266,8.364,3.383
			c5.668-6.227,10.091-13.738,12.052-21.995c0.588-2.824,1.834-5.923,0.059-8.59c-5.413,5.393-9.649,11.797-14.66,17.523
			c-0.657,0.922-1.549,1.324-2.658,1.197c-0.667-1.589-1.137-3.207-1.853-4.756c-2.707-0.775-5.521-0.167-8.247,0.03
			c-1.628-3.383-6.168-4.629-9.012-1.961c-3.207,0.255-3.795-4.374-7.021-4.413c-2.432-1.01-4.285,1.03-6.021,2.344
			c-1.49-3.295-4.884-4.795-8.296-5.119c-1.942,1.461-4.177,2.255-6.58,2.187c-1.775-6.815-3.216-13.67-4.246-20.622
			C880.471,657.109,879.393,654.118,877.716,655.756z"/>
	</g>
	<g id="_x23_f9f6f6ff">
		<path id="path25" inkscape:connector-curvature="0" fill="#F9F6F6" d="M590.818,108.819c145.636-0.073,291.281,0.02,436.912-0.044
			c48.05,44.441,96.1,88.902,144.101,133.393c-0.049,52.036,0.02,104.072-0.049,156.108c-16.582-0.01-33.164,0.02-49.727-0.01
			c0.167-2.736,0.373-5.452,0.569-8.178c13.474-0.01,26.947,0.029,40.431-0.01c0.02-47.707,0.029-95.399-0.01-143.111
			c-46.207-43.118-92.237-86.417-138.365-129.613c-143.522-0.098-287.064,0.015-430.592-0.054
			c-46.231,42.917-92.487,85.838-138.61,128.872c-0.025,122.052-0.034,244.099,0,366.141c-2.883,0.588-5.737,1.255-8.6,1.878
			c-0.01-124.028,0-248.051-0.01-372.069C494.831,197.653,542.866,153.285,590.818,108.819z"/>
		<path id="path27" inkscape:connector-curvature="0" fill="#F9F6F6" d="M725.231,265.291c7.825-0.417,15.67-0.186,23.495-0.23
			c61.563,0,123.106-0.01,184.649,0c0.02,19.102,0.059,38.205-0.02,57.307c-3.266-1.966-6.57-3.824-9.836-5.751
			c0-14.626,0-29.242,0-43.868c-61.573-0.02-123.131,0.024-184.698-0.02C734.645,269.659,730.212,266.85,725.231,265.291z"/>
		<path id="path29" inkscape:connector-curvature="0" fill="#F9F6F6" d="M858.81,450.817c-1.216-3.579,0.461-7.129,1.942-10.321
			c2.187,1.471,4.373,2.986,6.541,4.511c-2.412,2.608-2.275,7.482,1.334,8.928c2.785,1.245,4.785-1.628,6.717-3.153
			c1.873,1.785,3.775,3.56,5.648,5.369c-3.314,4.594-9.404,5.369-14.611,4.638C861.604,459.986,859.496,455.073,858.81,450.817z"/>
		<path id="path31" inkscape:connector-curvature="0" fill="#F9F6F6" d="M1019.149,477.603c1.54-0.583,3.109-1.172,4.648-1.74
			c-0.53,3.927-0.785,8.992-5.197,10.537c-4.638,1.677-7.728-3.015-10.355-5.942c1.726-0.736,3.491-1.456,5.237-2.192
			c0.274,0.77,0.794,2.304,1.069,3.074c1.432-0.304,2.873-0.603,4.334-0.902C1018.954,479.736,1019.081,478.309,1019.149,477.603z"
			/>
		<path id="path33" inkscape:connector-curvature="0" fill="#F9F6F6" d="M950.085,515.675c7.247-4.417,16.367-2.912,23.594,0.731
			c9.708,4.829,19.975,9.414,30.997,9.762c2.922,0.196,6.021-0.412,8.757,0.917c1.794,1.01,2.265,3.138,2.932,4.938
			c-7.747-0.593-15.435-1.721-23.201-2.255c-8.228-0.696-16.014-4.217-22.456-9.291
			C964.549,516.715,957.018,516.685,950.085,515.675z"/>
		<path id="path35" inkscape:connector-curvature="0" fill="#F9F6F6" d="M897.024,585.495c11.669,2.486,23.397,4.844,35.253,6.266
			c10.169,1.025,20.651,1.966,30.683-0.672c4.815,3.682,9.581,7.423,14.503,10.978c4.658,4.334,2.187,11.86-1.785,15.812
			c-4.011,3.903-6.6,9.488-11.777,11.964c0.167-7.247,2.108-14.307,2.481-21.53c-2.481,0.829-4.334,2.736-6.442,4.192
			c-3.011-1.182-4.903-3.79-6.129-6.658c-2.138,1.088-4.266,2.236-6.364,3.383c-2.726-0.603-5.481-1.422-5.354-4.727
			c-1.01-0.333-2.01-0.652-3.001-0.961c-3.255,3.192-10.149,1.662-9.561-3.609c-3.08,0.534-5.913,3.295-9.11,2
			c-3.766-1-3.815-5.683-5.403-8.566c-4.883,3.937-7.962,9.536-11.973,14.268c-2.128,1.152-4.727,1.034-7.041,1.54
			C895.063,601.292,895.161,593.241,897.024,585.495z"/>
		<path id="path37" inkscape:connector-curvature="0" fill="#F9F6F6" d="M683.692,652.784c3.197,3.207,6.296,6.521,9.409,9.816
			c0.064,67.339,0.01,134.667,0.029,202.006c76.806,0,153.588,0,230.39,0c0.02-28.408-0.02-56.826,0.02-85.205
			c50.217-0.059,100.444,0,150.661-0.039c1.393,2.912,2.775,5.835,4.177,8.757c-48.324,0.069-96.639-0.02-144.954,0.03
			c-0.068,28.261,0.02,56.503-0.049,84.744c-83.215-0.02-166.415,0.03-249.63-0.02c-0.044-71.526,0.079-143.022-0.054-214.529
			C683.653,656.491,683.663,654.628,683.692,652.784z"/>
		<path id="path39" inkscape:connector-curvature="0" fill="#F9F6F6" d="M877.716,655.756c1.677-1.638,2.756,1.353,3.01,2.667
			c1.03,6.953,2.471,13.807,4.246,20.622c2.403,0.059,4.638-0.736,6.58-2.187c3.412,0.323,6.805,1.824,8.286,5.119
			c1.745-1.314,3.599-3.354,6.021-2.344c3.226,0.039,3.814,4.668,7.021,4.413c2.854-2.667,7.384-1.422,9.012,1.961
			c2.726-0.196,5.55-0.804,8.247-0.03c0.716,1.549,1.187,3.167,1.853,4.756c1.108,0.118,2-0.275,2.658-1.197
			c5.021-5.727,9.247-12.13,14.66-17.523c1.775,2.667,0.529,5.766-0.059,8.59c-1.951,8.257-6.384,15.759-12.052,21.995
			c-2.902,2.883-8.178,0.667-8.364-3.393c-3.089,1.755-7.649,1.677-8.139-2.618c-2.01,1.108-4.236,2.393-6.59,1.422
			c-2.971-0.039-3.834-3.118-4.903-5.295c-1.775,1.854-4.099,2.814-6.551,3.383c-1.853-1.549-3.52-3.314-4.736-5.413
			c-3.599,3.51-12.444,4.599-13.15-1.951c-2.756,3.491-8.453,5.099-11.924,1.765c-3.06-2.501-2.628-6.717-3.06-10.228
			C869.616,671.602,871.744,662.296,877.716,655.756z"/>
		<path id="path41" inkscape:connector-curvature="0" fill="#F9F6F6" d="M430.983,914.206c0.064-20.456-0.098-40.921,0.083-61.376
			c2.775,0.412,5.555,0.804,8.34,1.187l-0.01,1.039c-0.039,17.926-0.044,35.842-0.01,53.767c-0.289,3.256,2.947,5.04,4.82,7.188
			c41.902,41.147,83.656,82.45,125.484,123.675c3.677,3.53,7.055,7.443,11.267,10.394c2.937,5.364,9.958,3.187,14.994,3.766
			c20.696-0.039,41.382,0.03,62.073-0.039c3.667,0.088,7.801-0.941,11.096,1.167c4.231,2.54,8.438,5.138,12.645,7.727
			c-33.184,0.059-66.378,0.059-99.572,0.02c-1.657,0.324-2.677-1.079-3.731-2.03C529.348,1011.826,480.092,963.089,430.983,914.206z
			"/>
	</g>
</g>
</svg>
