<?xml version="1.0" encoding="utf-8"?>
<!-- Generator: Adobe Illustrator 16.0.4, SVG Export Plug-In . SVG Version: 6.00 Build 0)  -->
<!DOCTYPE svg PUBLIC "-//W3C//DTD SVG 1.1//EN" "http://www.w3.org/Graphics/SVG/1.1/DTD/svg11.dtd">
<svg version="1.1" id="Layer_1" xmlns="http://www.w3.org/2000/svg" xmlns:xlink="http://www.w3.org/1999/xlink" x="0px" y="0px"
	 width="80.707px" height="102.901px" viewBox="0 0 80.707 102.901" enable-background="new 0 0 80.707 102.901"
	 xml:space="preserve">
<g>
	<path fill="#0D3876" d="M0,32.34C0,21.56,0,10.78,0,0c21.731,0,43.462,0,65.193,0c1.242,0.938,2.571,1.782,3.709,2.832
		c2.381,2.198,4.653,4.513,6.987,6.761c0.725,0.699,1.404,1.571,2.283,1.962c2.069,0.919,2.547,2.508,2.534,4.55
		c-0.039,6.754-0.013,13.509-0.013,20.264c0,16.501,0.002,33.004-0.005,49.506c0,2.191-0.521,3.809-2.638,5.297
		c-3.047,2.143-5.472,5.156-8.23,7.727c-2.327,2.168-4.649,4.029-8.274,4.002c-19.493-0.146-38.989-0.065-58.484-0.075
		c-1.021-0.001-2.042-0.104-3.063-0.158c0-10.78,0-21.561,0-32.341c3.544-0.111,3.56-0.111,3.562-3.541
		c0.008-10.302,0.008-20.604,0-30.905C3.56,32.451,3.544,32.451,0,32.34z M77.957,51.34c0-11.372-0.018-22.744,0.021-34.115
		c0.005-1.443-0.23-2.654-1.381-3.643c-3.002-2.58-6.003-5.162-8.93-7.825c-4.08-3.712-4.052-3.745-9.548-3.745
		c-17.101,0-34.201,0-51.302,0.001c-0.854,0-1.71,0.041-2.564,0.017c-1.51-0.042-2.137,0.656-2.131,2.173
		c0.031,7.781,0.022,15.562,0.003,23.342c-0.003,1.295,0.328,2.245,1.846,2.108c1.705-0.153,1.924,0.765,1.909,2.189
		c-0.059,5.643-0.024,11.286-0.024,16.929c0,7.354,0.004,14.706-0.006,22.06c-0.001,0.984,0.273,2.268-1.371,2.13
		c-2.324-0.195-2.375,1.252-2.368,2.938C2.144,83.08,2.116,90.263,2.13,97.444c0.006,3.093,0.093,3.191,3.155,3.2
		c7.011,0.022,14.022,0.011,21.033,0.01c11.458,0,22.915-0.002,34.372-0.001c1.896,0.001,3.351-0.417,4.854-1.997
		c2.86-3.005,6.338-5.411,9.411-8.228c1.633-1.496,3.142-2.973,3.089-5.745C77.835,73.573,77.958,62.455,77.957,51.34z
		 M78.834,16.325c-0.042,0.04-0.084,0.081-0.126,0.121c0,23.295,0,46.59,0,69.885c0.042,0,0.084,0,0.126,0
		C78.834,62.995,78.834,39.66,78.834,16.325z"/>
	<path fill-rule="evenodd" clip-rule="evenodd" fill="#0D3876" d="M78.834,16.325c0,23.335,0,46.67,0,70.006
		c-0.042,0-0.084,0-0.126,0c0-23.295,0-46.59,0-69.885C78.75,16.406,78.792,16.365,78.834,16.325z"/>
	<path fill-rule="evenodd" clip-rule="evenodd" fill="#0D3876" d="M72.998,51.415c0.001,10.604-0.028,21.209,0.031,31.813
		c0.009,1.643-0.351,2.762-1.738,3.856c-2.698,2.129-5.176,4.541-7.677,6.908c-0.981,0.929-1.943,1.394-3.369,1.389
		c-16.163-0.062-32.327-0.041-48.49-0.043c-0.599,0-1.198,0.005-1.796-0.014c-2.784-0.089-2.861-0.147-2.875-2.933
		c-0.02-4.02,0.04-8.039-0.022-12.058c-0.025-1.626,0.311-2.678,2.243-2.477c1.688,0.175,1.957-0.92,1.949-2.281
		c-0.021-3.592,0-7.184,0-10.776c0.001-12.229,0.004-24.459-0.003-36.688c-0.002-2.871-0.01-2.935-2.725-3.312
		c-1.133-0.157-1.424-0.735-1.424-1.702C7.1,18.48,7.116,13.863,7.083,9.245C7.074,7.93,7.685,7.383,8.938,7.384
		c0.854,0,1.709-0.053,2.564-0.053c16.25-0.004,32.499,0.011,48.747-0.036c1.293-0.003,2.246,0.311,3.189,1.198
		c2.617,2.459,5.215,4.962,8.045,7.16c1.293,1.003,1.523,2.042,1.522,3.435C72.991,29.863,72.998,40.639,72.998,51.415z
		 M29.86,51.341c0,7.779-0.007,15.559,0.003,23.339c0.004,3.173,0.021,3.185,3.095,3.189c5.984,0.009,11.969,0.002,17.953,0.003
		c3.153,0,4.329-1.169,4.331-4.399c0.009-14.79,0.008-29.58,0.001-44.371c-0.001-2.661-1.646-4.294-4.346-4.301
		c-5.984-0.015-11.968-0.011-17.953-0.002c-3.062,0.005-3.078,0.017-3.082,3.203C29.854,35.781,29.86,43.561,29.86,51.341z"/>
	<path fill-rule="evenodd" clip-rule="evenodd" fill="#0D3876" d="M34.286,51.357c-0.001-6.245-0.017-12.49,0.006-18.734
		c0.01-2.667,0.247-2.902,2.976-2.938c3.165-0.042,6.33-0.027,9.495-0.008c2.916,0.019,3.068,0.145,3.075,3.027
		c0.021,9.581,0.011,19.162,0.01,28.743c0,3.08-0.04,6.16-0.002,9.239c0.02,1.594-0.593,2.345-2.267,2.316
		c-3.592-0.061-7.186-0.037-10.778-0.011c-1.822,0.014-2.565-0.766-2.543-2.645C34.333,64.019,34.287,57.688,34.286,51.357z
		 M47.557,51.334c0-5.561-0.066-11.123,0.038-16.681c0.034-1.822-0.582-2.429-2.351-2.312c-1.874,0.123-3.762,0.063-5.644,0.038
		c-1.4-0.019-1.987,0.604-1.984,2.017c0.024,11.292,0.024,22.583,0,33.876c-0.003,1.412,0.584,2.035,1.984,2.016
		c1.882-0.024,3.771-0.085,5.645,0.039c1.769,0.116,2.384-0.491,2.35-2.312C47.49,62.456,47.557,56.894,47.557,51.334z"/>
</g>
</svg>
