<?xml version="1.0" encoding="utf-8"?>
<!-- Generator: Adobe Illustrator 16.0.4, SVG Export Plug-In . SVG Version: 6.00 Build 0)  -->
<!DOCTYPE svg PUBLIC "-//W3C//DTD SVG 1.1//EN" "http://www.w3.org/Graphics/SVG/1.1/DTD/svg11.dtd">
<svg version="1.1"
	 id="Layer_1" xmlns:rdf="http://www.w3.org/1999/02/22-rdf-syntax-ns#" xmlns:cc="http://creativecommons.org/ns#" xmlns:dc="http://purl.org/dc/elements/1.1/"
	 xmlns="http://www.w3.org/2000/svg" xmlns:xlink="http://www.w3.org/1999/xlink" x="0px" y="0px" width="92.016px"
	 height="112.15px" viewBox="0 0 92.016 112.15" enable-background="new 0 0 92.016 112.15" xml:space="preserve">
<g transform="matrix(1.25 0 0 -1.25 -340.5 984.5)">
	<g transform="translate(.81565 .81565)">
		<path fill="#154281" d="M317.374,746.497c-0.003,0.003-0.003,0.01-0.005,0.015C317.368,746.504,317.369,746.499,317.374,746.497"
			/>
		<g>
			<path fill="#0D3876" d="M344.251,786.449h-71.7l0.007-22.85v-16.218c0-20.725,24.63-42.621,35.845-49.486v-0.011
				c0.003,0,0.006,0.004,0.009,0.004c0.002,0,0.004-0.004,0.006-0.004v0.011c11.218,6.865,35.847,28.762,35.847,49.486
				L344.251,786.449z M323.926,769.574c1.324,0,1.91,0.721,1.91,1.892v6.602c0,0.976-0.759,1.284-1.772,1.284v1.971h4.519
				l5.398-7.502v3.662c0,1.15-0.409,1.853-2.047,1.853v1.987h6.937v-1.971c-1.285,0-1.89-0.075-1.89-1.676
				c0-1.773,0.019-9.971,0.019-9.971h-3.467l-4.795,6.469c0,0-0.02-2.124-0.02-2.708c0-1.268,0.664-1.836,2.068-1.836
				c0-0.854-0.021-1.925-0.021-1.925h-6.838V769.574z M307.308,769.574c1.323,0,1.91,0.721,1.91,1.892v6.602
				c0,0.976-0.76,1.284-1.773,1.284v1.971h4.52l5.398-7.502v3.662c0,1.15-0.409,1.853-2.045,1.853v1.987h6.935v-1.971
				c-1.289,0-1.89-0.075-1.89-1.676c0-1.773,0.019-9.971,0.019-9.971h-3.466l-4.794,6.469c0,0-0.02-2.124-0.02-2.708
				c0-1.268,0.662-1.836,2.066-1.836c0-0.854-0.022-1.925-0.022-1.925h-6.838V769.574z M292.461,769.591
				c0.897,0,2.066,0.392,2.066,1.599l-0.021,6.917c0,1.015-1.44,1.207-1.85,1.207c0,1.034-0.02,1.99-0.02,1.99h11.903v-3.33h-2.765
				c0,0,0.078,1.421-1.578,1.421h-1.791v-3.662h0.953c0.954,0,0.954,0.953,0.954,0.953h1.656v-3.721h-1.656
				c0,0-0.098,0.935-0.993,0.935h-0.914v-4.148h1.829c0.857,0,1.598,0.408,1.619,1.654h2.686v-3.7l-12.078-0.022V769.591z
				 M278.606,769.595c1.227,0,1.931,0.603,1.952,1.596v6.898c0.018,0.974-1.054,1.247-1.794,1.247v1.966h7.6
				c2.982,0,5.084-1.129,5.045-3.838c-0.04-2.55-1.95-4.364-5.476-4.364h-1.459l-0.02-2.122c0-0.876,0.466-1.384,1.946-1.384v-1.889
				h-7.831C278.569,767.706,278.588,769.595,278.606,769.595z M340.683,747.38c0-17.146-20.066-37.034-32.273-45.225
				c-12.212,8.191-32.271,28.08-32.271,45.225v12.846c5.82-0.03,58.721-0.03,64.544,0V747.38z"/>
			<path fill="#0D3876" d="M285.33,775.595c0.914,0,1.814,0.31,1.831,1.597c0.019,1.268-0.778,1.677-1.461,1.677h-1.246l0.02-3.274
				H285.33z"/>
		</g>
		<path fill="#0D3876" d="M310.66,747.906h3.33c0.506,0,1.231-0.156,1.907-0.6l5.009,7.132c-1.88,0.83-4.231,1.036-6.803,1.036
			h-17.448c0,0,0.044-5.223,0-5.182c1.92,0,4.855-0.871,4.855-3.724v-19.526l9.152,12.889L310.66,747.906"/>
		<path fill="#0D3876" d="M317.374,746.507l5.97,7.268c2.471-2.088,3.242-5.307,3.242-8.385c0-7.456-4.414-11.184-13.237-11.184
			h-2.711v-7.616c0-2.585,1.428-4.391,5.14-4.391v-4.984h-19.124c0,0-0.02,4.964,0,4.984c3.111,0,4.852,2.112,4.855,4.984
			l10.009,12.193h1.321c2.496,0,4.911,0.938,4.911,4.839C317.749,744.88,317.637,745.824,317.374,746.507"/>
	</g>
</g>
</svg>
