<?xml version="1.0" encoding="utf-8"?>
<!-- Generator: Adobe Illustrator 16.0.4, SVG Export Plug-In . SVG Version: 6.00 Build 0)  -->
<!DOCTYPE svg PUBLIC "-//W3C//DTD SVG 1.1//EN" "http://www.w3.org/Graphics/SVG/1.1/DTD/svg11.dtd">
<svg version="1.1"
	 id="Layer_1" xmlns:rdf="http://www.w3.org/1999/02/22-rdf-syntax-ns#" xmlns:cc="http://creativecommons.org/ns#" xmlns:dc="http://purl.org/dc/elements/1.1/"
	 xmlns="http://www.w3.org/2000/svg" xmlns:xlink="http://www.w3.org/1999/xlink" x="0px" y="0px" width="89.541px"
	 height="102.59px" viewBox="0 0 89.541 102.59" enable-background="new 0 0 89.541 102.59" xml:space="preserve">
<g transform="matrix(1.25 0 0 -1.25 -75.912 726.37)">
	<g transform="translate(.29845 .29845)">
		<path fill="#0D3876" d="M68.78,578.869c6.719-5.368,15.221-12.65,23.157-21.483v5.984h3.989
			c-5.695,5.706-11.443,10.975-16.883,15.5L68.78,578.869L68.78,578.869z M88.218,578.869c13.545-7.74,28.225-18.777,39.35-34.019
			c0.455,0.903,0.85,1.843,1.178,2.816c-3.156,6.903-9.503,17.256-22.155,29.352c0,0,11.312-5.119,23.287-19.915
			c-0.98,12.911-11.934,21.766-27.305,21.766H88.218L88.218,578.869z M62.342,570.517v-7.15h8.742v-5.544v-10.962
			c12.928-15.819,19.622-31.416,19.622-31.416c-6.548,8.034-13.143,14.966-19.623,20.934v-4.929v-6.794
			c7.789-6.02,17.352-14.17,26.869-24.202h2.722v15.495h-8.739v15.573h0.594c-5.655,7.591-11.932,15.559-18.619,23.561
			c0,0,12.084-10.297,25.218-23.561h3.445c2.08,0,4.077,0.163,5.98,0.477c-2.555,2.8-7.891,8.466-14.938,14.951h-1.68v1.531
			C83.645,555.971,73.258,564.313,62.342,570.517L62.342,570.517z M108.552,549.855c-1.773-1.701-4.563-2.734-8.169-2.884
			c3.369-4.649,6.42-9.609,8.916-14.842c3.918,0.734,7.417,2.113,10.371,4.031c-3.438,4.593-7.19,9.198-11.117,13.697h-0.002
			V549.855z M71.085,520.224v-4.275h-6.122c4.517-5.837,7.882-11.253,10.237-15.495h11.804
			C83.053,506.538,77.993,512.965,71.085,520.224L71.085,520.224z M62.342,510.108v-9.655h9.604
			C68.784,503.904,65.57,507.119,62.342,510.108L62.342,510.108z"/>
	</g>
</g>
</svg>
