<?xml version="1.0" encoding="utf-8"?>
<!-- Generator: Adobe Illustrator 16.0.4, SVG Export Plug-In . SVG Version: 6.00 Build 0)  -->
<!DOCTYPE svg PUBLIC "-//W3C//DTD SVG 1.1//EN" "http://www.w3.org/Graphics/SVG/1.1/DTD/svg11.dtd">
<svg version="1.1"
	 id="Layer_1" xmlns:rdf="http://www.w3.org/1999/02/22-rdf-syntax-ns#" xmlns:cc="http://creativecommons.org/ns#" xmlns:dc="http://purl.org/dc/elements/1.1/"
	 xmlns="http://www.w3.org/2000/svg" xmlns:xlink="http://www.w3.org/1999/xlink" x="0px" y="0px" width="140.76px"
	 height="137.3px" viewBox="0 0 140.76 137.3" enable-background="new 0 0 140.76 137.3" xml:space="preserve">
<g transform="matrix(1.25 0 0 -1.25 -67.5 432.65)">
	<g>
		<g>
			<g transform="matrix(.24743 0 0 -.24414 102.13 322.76)">
				<path fill="#0D3876" d="M8.882,34.778c-0.586,0.038-11.55-0.061-17.325,0.014C-9.685,36.18-7.2,37.35-7.418,39.03
					c-6.288,2.267-9.285-3.362-11.55-7.381c-0.147-1.026-1.792-2.742-2.157-3.693l23.574,0.037l0.145-56.36l-129.167-0.147
					l-0.291,0.659v56.727l37.353,0.146c12.208,17.835,24.05,35.89,35.234,54.238l-4.752,2.634l-33.627-50.584l-40.679-0.037
					l0.11-69.922l1.096-0.512H8.846L8.882,34.778z"/>
			</g>
			<g transform="matrix(.24743 0 0 -.24414 166.61 346.09)">
				<path fill="#0D3876" d="M-61.219,60.485l-0.107,69.81l-40.387,0.074c-15.5,23.392-30.852,46.784-46.86,70.029
					c-2.122-2.046-3.435-5.117-2.122-7.894c14.771-23.099,30.558-45.615,45.837-68.421h35.742l1.099-0.184V67.21l-136.225-0.146
					c0,3.106-0.073,52.448,0,57.018h0.916h25.803v1.534c-5.481,7.456-9.065,15.643-14.18,23.173
					c-2.049-0.438-7.455-1.096-4.749-4.752l7.894-12.573l-1.026-1.096h-20.539l-1.096-1.536l-0.148-68.421h149.127l1.02,0.074
					H-61.219L-61.219,60.485z"/>
			</g>
			<g transform="matrix(.24743 0 0 -.24414 126.18 266.16)">
				<path fill="#0D3876" d="M-17.263-27.585c1.531,3.728-0.95,9.501,2.122,12.134h49.414l0.069,77.303L-90.949,61.89l-69.445-0.038
					v-77.85l47.368,0.032c0.073-3.507,3.948-2.406,6.286-2.627c2.559,2.627-0.439,5.629,0.513,8.915l-47.734-0.106l-0.147,1.718
					v62.058l1.097,1.101H27.475h1.02L28.422-8.577l-51.536-0.112l0.076-16.778C-21.431-26.855-19.309-27.073-17.263-27.585"/>
			</g>
			<g transform="matrix(.24743 0 0 -.24414 97.675 341.7)">
				<path fill="#0D3876" d="M13.726,55.648v43.495c-1.134,0-18.859,0-27.85,0.074c1.462,7.31,8.042,13.888,11.55,21.053
					c-4.021,13.522-16.959,25.584-28.946,33.186c-12.283-18.128-24.196-35.818-36.843-54.239
					c-11.038-0.147-30.885-0.074-33.808-0.074l0.109-42.544l1.61-1.024H12.703L13.726,55.648z"/>
			</g>
			<g transform="matrix(.24743 0 0 -.24414 161.81 327.17)">
				<path fill="#0D3876" d="M-56,39.638c-2.248-0.056-29.791,0-33.191,0.072c-15.2,22.661-30.479,45.25-45.758,67.909
					c-2.924-9.282-19.153,0.366-14.767-13.157c-2.485-3.874-7.016-7.31-11.547-8.406c-2.561-2.632-5.775-6.504-5.775-10.014
					c7.092-11.915,14.398-23.758,21.051-35.819l-32.092-0.037V-2.906l1.026-1.022H-56V39.638z"/>
			</g>
			<g transform="matrix(.24743 0 0 -.24414 104.8 315.35)">
				<path fill="#0D3876" d="M5.98,26.614c4.094-2.339,8.405-4.021,13.159-4.752c13.231-2.923,26.897-0.293,36.843,7.894
					c6.286,3.949,5.188,14.621,14.18,13.67c2.416,0.805,5.042,3.363,5.848,5.776c2.267,4.093-5.191,10.67,3.142,10.013
					c5.264-2.19,10.527,1.026,12.649,5.776c1.973,5.042,2.264,10.67,5.26,15.277c2.267,2.339-0.218,6.578,2.049,8.917
					c5.039-3.07,5.409-8.626,8.478-12.059c5.557,4.31,6.507,10.526,7.313,16.813c1.535,1.973,2.993,0.586,4.749,1.608
					c-0.073,30.334-22.513,57.381-48.394,71.051c-16.883,7.312-40.57,10.749-58.404,3.142c-3.508-0.509-5.63,2.486-8.407,3.658
					c-11.695,5.043-27.266,6.65-38.45-0.512c-14.621-8.627-17.69-25.366-15.789-41.594l2.119-6.285
					c-10.307-17.254-22.369-33.774-32.675-51.026c2.779-9.062,12.573-12.354,19.516-16.885c4.386-1.755,9.063-2.704,13.159-5.264
					c-1.755-1.534-4.313-2.339-5.262-4.75c10.745-8.187,21.49-18.714,26.826-30.995c9.651-4.824,16.886,5.848,25.291,8.918
					C1.154,26.249,3.347,26.907,5.98,26.614"/>
			</g>
			<g transform="matrix(.24743 0 0 -.24414 121.72 264.91)">
				<path fill="#0D3876" d="M-12.417-28.964V-7.95l1.61,0.038h49.414l1.099,0.33v50.618l-1.099,0.077h-167.252
					c-0.071-0.438,0.073-50.33,0-51.61l47.296,0.077c1.097-4.755-0.073-10.528,1.023-15.28c8.7-0.074,16.083-3.363,23.173-7.382
					C-43.483-27.281-26.818-26.11-12.417-28.964"/>
			</g>
		</g>
		<g transform="matrix(.24743 0 0 -.24414 102.5 313.43)">
			<path fill="#FFFFFF" d="M8.479,24.5c6.798,0.584,12.281-5.118,19.445-5.264c10.527-1.317,24.42-3.291,31.069,6.798
				c0.802,3.36-1.023,5.994-3.729,7.382c-1.317,0.584-3.287,0.877-3.656,2.632l1.023,1.094l23.173,2.634
				c3.069,0.805,3,4.531,2.122,6.798l-1.607,1.608l-34.726-1.608c-1.977,1.022-3.505,3.142-5.26,4.75
				c-0.802,4.826,0.805,9.138,4.749,11.549c4.168,0.366,8.115,1.538,12.649,1.099c1.683,4.97-2.34,9.282-6.362,12.059
				c-2.412,1.245-5.188,1.683-7.379,3.73c1.97,1.754,5.627,1.096,7.894,0.51c16.81-3.802,30.116-23.902,48.972-14.766
				c4.023,3.072,3.366,8.773,2.636,13.158c-5.996,17.032-28.948,4.022-40.498,13.16c-16.596,13.45-23.397,33.622-41.595,46.343
				c-8.042,6.362-17.982,9.651-28.946,7.382c-7.603-1.238-13.744-7.747-16.302-14.765c-6.872-16.518,9.21-26.096,13.157-39.474
				c0.292-1.608-0.366-2.704-1.607-3.656c-2.12,0.366-1.901,2.706-2.633,4.168c-4.604,6.942-12.573,10.235-16.812,16.885
				c-8.7-13.523-17.543-26.899-25.804-40.57c-0.805-5.264,5.409-7.165,8.407-9.942c5.628-2.923,11.623-5.043,17.909-6.36
				c-2.63,8.773-2.777,20.979,5.264,26.829c1.901-1.901,0.219-4.971,0-7.31c0.073-12.573,6.433-23.464,17.398-30.557
				c5.702-2.485,11.184-5.555,17.835-5.773l1.097-1.61c-4.166-3.946-8.625-7.163-13.67-8.917
				c-4.237,5.262-7.674,12.28-14.253,15.277c-3.874,0.074-7.823,0.219-10.527-2.632c7.164-6.798,13.67-16.155,20.029-23.683
				C-4.166,14.486,1.389,21.283,8.479,24.5"/>
		</g>
		<g transform="matrix(.24743 0 0 -.24414 115.49 304.29)">
			<path fill="#FFFFFF" d="M-5.64,14.428c-1.102,1.974-2.267,4.531-1.026,6.872c-1.607,0.146-0.584-1.68-1.607-2.12
				C-7.758,17.426-7.907,14.501-5.64,14.428"/>
		</g>
		<g transform="matrix(.24743 0 0 -.24414 122.79 303.93)">
			<path fill="#FFFFFF" d="M-13.578,14.032c-6.362,0.658-12.576,12.208-18.424,3.654c-1.241-2.778,2.049-2.923,3.148-4.238
				C-23.593,13.3-18.623,13.739-13.578,14.032"/>
		</g>
		<g transform="matrix(.24743 0 0 -.24414 125.46 303.76)">
			<path fill="#FFFFFF" d="M-16.481,13.844c-3.435,3.07-7.385,6.87-12.646,6.797C-25.183,17.574-20.649,16.11-16.481,13.844"/>
		</g>
		<g transform="matrix(.24743 0 0 -.24414 128.13 303.25)">
			<path fill="#FFFFFF" d="M-19.381,13.281c-0.445,1.682-1.32,3.654-3.148,4.24h-3.653C-25.308,14.963-22.747,12.114-19.381,13.281"
				/>
		</g>
		<g transform="matrix(.24743 0 0 -.24414 139.54 292.87)">
			<path fill="#FFFFFF" d="M-31.789,1.845c-2.851,0.805-6.65,0.805-9.504,0c3.656-2.339,6.214-6.067,8.481-9.429
				C-30.911-5.611-32.156-1.299-31.789,1.845"/>
		</g>
		<g transform="matrix(.24743 0 0 -.24414 140.26 291.11)">
			<path fill="#FFFFFF" d="M-32.571-0.095c-2.561,24.562-21.493,48.904-45.25,56.869c-10.745,4.026-24.12,1.757-34.211-2.115
				c-3.653,4.458-8.113,9.062-13.157,11.037c13.741-16.739,21.635-35.891,31.578-54.24C-79.207-6.601-53.549,2.172-32.571-0.095"/>
		</g>
		<g transform="matrix(.24743 0 0 -.24414 113.16 307.98)">
			<path fill="#00356B" d="M-3.106,18.494c-5.412,3.654-8.116,10.088-6.801,16.301c1.68,1.39,2.63,3.069,3.656,4.752
				c-2.996,1.243-5.849-1.243-8.408-2.632c-2.193-2.851-5.556-5.848-4.166-9.502c2.267-5.702,7.384-8.554,13.159-9.43
				C-4.864,18.128-3.62,17.544-3.106,18.494"/>
		</g>
	</g>
</g>
</svg>
