<?xml version="1.0" encoding="utf-8"?>
<!-- Generator: Adobe Illustrator 23.0.6, SVG Export Plug-In . SVG Version: 6.00 Build 0)  -->
<svg version="1.1" id="Layer_1" xmlns="http://www.w3.org/2000/svg" xmlns:xlink="http://www.w3.org/1999/xlink" x="0px" y="0px"
	 viewBox="0 0 100 100" style="enable-background:new 0 0 100 100;" xml:space="preserve">
<style type="text/css">
	.st0{fill:#63C083;}
	.st1{fill:#75C275;}
	.st2{fill:#65C086;}
	.st3{fill:none;stroke:#65C086;stroke-miterlimit:10;}
</style>
<g id="_x39_Z5dmS_1_">
	<g>
		<path class="st2" d="M83.29,67.8c0.27,0.16,0.98,0.59,1.71,0.99c1.95,1.09,2.14,3.13,0.21,4.23c-2.47,1.4-3.11,3.4-2.78,6.05
			c0.23,1.81-0.77,2.74-2.62,2.77c-3.28,0.05-3.6,0.45-2.97,3.72c0.41,2.15-1.15,3.69-3.17,2.77c-2.4-1.09-4.15,0.7-6.22,0.94
			c-0.43,0.05-0.7,1.4-1.07,2.14c-0.46,0.91-0.73,2.25-1.46,2.58c-0.7,0.32-1.87-0.46-2.84-0.69c-2.19-0.52-4.37-1.08-6.59-1.45
			c-1.22-0.2-2.49-0.01-3.74-0.04c-1.49-0.04-2.54,0.55-3.87,1.38c-1.96,1.23-4.64,1.49-7.06,1.68c-0.61,0.05-1.36-1.71-2.33-3.03
			c-6.61,0-13.78,0-21.17,0c0-9.25,0-18.35,0-27.55c-2.64-0.54-3.77-1.72-2.84-4.47c0.61-1.78-0.61-2.71-2.98-2.76
			c-2.51-0.04-2.9-1.01-2.77-3.5c0.08-1.51-0.74-3.53-1.86-4.54c-3.13-2.83-3.23-3.19,0.45-5.51c0.32-0.2,0.6-0.49,1.02-0.84
			c-1.17-1.59-1.51-3.1,0.13-4.7c0.43-0.42,0.01-1.63,0.14-2.44c0.15-0.92,0.23-2.04,0.8-2.65c0.98-1.06,2.41-1.69,3.45-2.7
			c0.76-0.74,1.21-1.8,1.76-2.74c0.3-0.52,0.39-1.44,0.8-1.59c2.23-0.82,1.75-2.64,1.75-4.28c0.02-4.98,0.01-9.96,0.01-15.13
			c1.04-0.05,1.87-0.12,2.7-0.12c12.5-0.01,24.99-0.05,37.49,0.06c1.23,0.01,2.71,0.63,3.64,1.45c3.57,3.14,6.91,6.54,10.45,9.72
			c1.18,1.06,1.52,2.16,1.5,3.66C72.9,27.54,72.8,33.87,73,40.19c0.08,2.52-0.6,4.33-2.62,5.74c-0.69,0.48-1.23,1.16-2.06,1.98
			c2.29,1.25,3.52,3.95,6.6,3.41c0.2-0.04,0.5,0.07,0.65,0.22c2.27,2.25,4.56,4.48,6.75,6.8c0.32,0.34,0.1,1.16,0.21,1.74
			c0.22,1.15,0.6,2.28,0.73,3.44C83.39,64.71,83.29,65.92,83.29,67.8z M63.71,48.01c1.75-1.61,3.45-3,4.92-4.6
			c0.66-0.71,1.22-1.84,1.23-2.78c0.11-6.25,0.11-12.5,0-18.74c-0.02-0.95-0.54-2.12-1.21-2.8c-2.85-2.89-5.79-5.7-8.84-8.37
			c-0.89-0.78-2.28-1.39-3.44-1.4c-11.24-0.1-22.49-0.06-33.74-0.06c-0.76,0-1.52,0.07-2.53,0.11c0,9.18-0.07,18.22,0.08,27.25
			c0.02,1.27,1.04,2.57,3.08,2.39c0-8.84,0-17.62,0-26.65c1.1,0,1.94,0,2.77,0c6.72,0,13.43-0.02,20.15,0.01
			c3.66,0.01,7.76-0.91,10.87,0.43c3.37,1.45,5.88,4.99,8.65,7.73c0.63,0.62,1.1,1.71,1.12,2.59c0.1,5.39,0.11,10.78-0.01,16.16
			c-0.02,0.94-0.56,2.08-1.23,2.76c-2.06,2.09-4.3,4.01-6.66,6.16c2.79,2.16,5.43,4.08,7.89,6.21c0.75,0.65,1.29,1.85,1.39,2.85
			c0.21,2.07,0.06,4.17,0.06,6.72c1.72-0.9,2.97-1.64,3.08-3.37c0.09-1.56,0.21-3.15-0.04-4.67c-0.18-1.09-0.71-2.35-1.5-3.08
			C67.96,51.13,65.83,49.66,63.71,48.01z M15.21,56.12c2.79,1.56,0.27,3.99,0.98,5.97c2.09-0.34,4.12-1.97,6.13,0.54
			c1.14-2.52,3.49-4.4,1.03-7.63c2.13,1.11,3.76,1.96,5.38,2.8c-3.63-0.5-4.02,2.24-4.44,3.61c1.17,2.6,2.02,4.47,2.85,6.3
			c3.3-2.43,3.3-2.43,5.93-7.42c-0.56-0.5-1.12-1-2.24-1.99c2.78,0.82,4.88,1.43,6.98,2.05c-3.32-0.63-4.5,1.55-5.62,4.03
			c2.61,1.18,1.47,3.68,1.83,5.81c2.11-0.51,3.88-2.73,6.01-0.86c2.32-2.2,3.14-4.41,0.37-6.9c0.21-0.08,0.43-0.16,0.64-0.25
			c1.39,1.8,2.78,3.59,4.2,5.43c0.26-0.17,0.93-0.78,1.07-0.67c2.22,1.61,3.74-0.2,5.7-0.99c-2.08-2.54,0.93-3.92,1.18-5.58
			c-2.02-0.78-3.88-1.49-5.74-2.21c0.04-0.26,0.08-0.53,0.11-0.79c-1.16,0.7-2.68,1.16-3.39,2.18c-0.67,0.96-0.48,2.51-0.67,3.75
			c-0.66-0.59-1.44-1.29-1.91-1.71c1.42-1.96,1.75-4.76,4.81-4.36c-0.14-2.01-0.26-3.65-0.36-5.1c-2.11,0.52-4.02,0.99-5.93,1.46
			c-3,2.04-2.76,4.57,0.26,6.95c-1.73-0.76-3.45-1.53-5.29-2.34c0.74-0.13,1.33-0.23,1.53-0.26c0.32-1.35,0.26-2.73,0.91-3.44
			c0.96-1.04,0.68-1.86,0.33-2.84c-0.41-1.14-0.86-2.26-1.29-3.4c-1.86,0.85-2.82,3.58-5.46,2.37c-2.13,4.41-1.53,4.7,2.16,7.31
			c-2.75-0.77-5.92-0.67-8.1-4.26c2.96,1.05,3.92-0.1,4.33-2.3c0.15-0.79,0.93-1.46,1.12-1.75c-1.04-1.73-2.07-3.46-2.99-5
			c-1.61,0.86-3.35,1.79-5.1,2.72c-0.59,0.05-0.87,0.67-1.07,1.33c-0.21,0.7-0.34,1.42-0.49,2.1c-0.7-0.35-1.67-0.59-2.33-1.19
			c-3.28-2.97-3.26-3-7.07-0.44c1.69,2.3-0.69,3.83-1.13,5.93c0.69,0.04,1.36,0.07,2.02,0.13c0.59,0.06,1.17,0.17,1.76,0.26
			c0.03-0.14,0.05-0.27,0.08-0.41c-0.64-0.29-1.29-0.59-2.02-0.92c5.22-3.79,7.74-4.03,9.16-0.5
			C18.23,51.66,16.82,53.77,15.21,56.12z M68.18,77.5c2.84-1.94,1.46-4.04,0.65-6.28c-2.79,1.55-3.62-1.59-5.3-2.2
			c-1.02,1.81-2,3.53-3.04,5.37c0.15,0.22,0.73,0.87,1.09,1.63c0.39,0.81,0.57,1.72,0.84,2.58c1.09,0.08,2.03,0.16,3.08,0.24
			c-1.27,1.92-5.43,3.74-7.84,3.59c3.79-1.9,4.01-2.56,2.34-7.07c-2.6,1.12-3.62-1.51-5.23-2.28c-1.05,1.8-2.07,3.53-3.58,6.12
			c0.1,1.79,1.13,4.01,5.28,3.63c-11.27,5.8-13.18,7.13-14.52,10.5c2.02-1.08,3.96-1.52,4.91-2.73c3.28-4.15,7.57-6.17,12.87-7.24
			c-3.41,3.06-3.43,3.25-1.14,7.28c2.51-1.51,3.69,1.27,5.74,1.84c0.62-2.02,0.12-4.64,2.78-5.35c-0.69-2.48-1.23-4.98-4.64-4.67
			c1.53-0.79,3.06-1.58,4.77-2.46c-1.03,2.47-0.41,4.8,1.12,6.4c2.61,0,4.64,0,6.4,0c0.1-1.92,0.2-3.88,0.3-5.85
			C74.46,76.9,71.21,77.95,68.18,77.5z M46.99,85.79c-8.25,0-15.9,0-23.72,0c0-7.63,0-14.95,0-22.21c-1.13-0.41-2.09-0.75-3.02-1.09
			c0,8.8,0,17.51,0,26.45c1,0,1.84,0,2.68,0c5.78,0,11.56-0.16,17.33,0.07C43,89.13,44.69,87.8,46.99,85.79z M55.49,29.05
			c3.79,1.64,4.72,1.22,6.64-2.96c-2.39-1.26-1.36-3.67-1.72-5.61c-2.12,0.26-3.85,2.56-6.25,0.43c-0.67,1.42-1.79,2.72-1.73,3.97
			c0.05,1.33,1.22,2.61,2.07,4.23c-1.32,1.12-2.84,2.41-4.75,4.03c0.07-0.91,0.02-1.12,0.1-1.19c0.29-0.24,0.6-0.44,0.92-0.64
			c2.36-1.42,2.45-1.89,1.05-4.24c-0.38-0.64-0.51-1.42-0.75-2.14c-0.06,0.17-0.11,0.34-0.17,0.51c-1.65-0.86-3.31-1.71-4.68-2.42
			c-0.88,1.81-1.74,3.61-2.99,6.18c0.17,2.41,2.01,3.93,5.79,2.91c-0.05,0.24-0.09,0.48-0.14,0.71c-1.08,0.58-2.15,1.16-3.23,1.73
			c0.09,0.19,0.18,0.37,0.27,0.56c2.41-0.82,4.83-1.63,7.24-2.45c-1.37,3.44-2.22,5.34,2.36,7.67c1.4-2.64,3.86-0.44,5.51-1.14
			c-0.14-2.06-0.27-4.03-0.4-6.01c-1.53-4.12-4.67-1.89-7.54-1.34C53.85,30.96,54.61,30.08,55.49,29.05z M42.6,26.17
			c-0.39,0.02-1.36,0.06-2.31,0.1c0,5.27,0,10.29,0,15.26c3.79,0,7.4,0,11.01,0c0-2.41,0-4.63,0-6.84c-2.66,0-3.37,1.53-3.11,3.88
			c-1.66,0-3.17,0-5.01,0c0-1,0.06-1.91-0.01-2.81c-0.15-2-0.41-4-0.55-6C42.54,28.67,42.6,27.57,42.6,26.17z M42.77,67.23
			c-1.06,1.65-1.94,3.01-2.98,4.63c4.25,0,7.86,0,11.52,0c0-1.53,0-2.89,0-4.29C46.82,69.43,43.95,69.42,42.77,67.23z M71.24,76.52
			c3.68-1.63,5.28,1.55,8.18,2.19c-1.17,0.46-1.85,0.73-2.53,1c0.03,0.14,0.07,0.27,0.1,0.41c1.21-0.1,2.42-0.2,3.72-0.31
			c-0.62-2.19-2.91-3.81-1.17-6.08c-0.78-0.52-1.39-1-2.07-1.37c-2.91-1.56-4.07,1.09-5.72,2.47C71.42,75.11,71.44,75.8,71.24,76.52
			z M8.56,46.23c2.47,0,4.99,0,7.5,0c0.14-3.87-1.48-5.31-5.63-4.31c0.26,2.85-2.78,2.89-3.75,4.13c1.53,1.81,2.9,3.43,4.27,5.05
			c0.1-0.05,0.2-0.11,0.3-0.16C10.41,49.47,9.56,48,8.56,46.23z M80.2,75.55c1.41-1.58,2.85-3.2,4.08-4.58
			c-1.34-1.26-2.76-2.6-4.76-4.48c-3.64-0.17-4.76,0.67-4.43,4.25c2.41,0.17,4.84,0.34,7.78,0.54c-0.93,0.79-1.74,1.2-2.1,1.86
			C80.36,73.89,80.35,74.86,80.2,75.55z M74.01,69.94c-2.51-1.39-4.63-2.57-7.21-4c2.08-0.41,3.46-0.69,4.83-0.96
			c0.08-0.35,0.15-0.69,0.23-1.04c1.02,0.95,2.05,1.9,3.08,2.86c0.34-2.76-2.21-2.76-3.8-3.85c-1.2,2.72-3.76,1.5-5.59,2.14
			c0.69,1.83,1.34,3.53,2.01,5.3c2.13-1.03,2.78,0.52,3,3.4C72.12,72.05,73.17,70.88,74.01,69.94z M23.66,40.99
			c0.02,0.22,0.04,0.44,0.06,0.66c-2.11,1.15-4.21,2.3-6.72,3.67c0.96,0.99,2.04,2.09,3.12,3.2c0.2-0.07,0.4-0.15,0.6-0.22
			c-0.12-2.67,1.22-3.27,2.84-2.67c0.71-1.87,1.36-3.56,1.89-4.97c-2.02-0.55-3.93-1.08-5.84-1.6c-1.25,0.4-3.97,0.42-3.39,3.14
			c1.04-1.01,2.04-1.98,3.26-3.17c0.42,1.03,0.61,1.5,0.73,1.8C21.44,40.89,22.55,40.94,23.66,40.99z M10.77,34.59
			c-0.36,2.03-0.72,4.1-1.09,6.16c0.54-0.36,1.25-0.84,1.79-1.2c-0.07-1.25-0.12-2.34-0.18-3.44c0.16-0.05,0.31-0.1,0.47-0.15
			c1.09,1.36,2.17,2.73,3.14,3.95c1.41-0.88,2.63-1.64,4.05-2.52c-0.84-1.02-1.59-1.94-2.35-2.86c-0.06,0.24-0.13,0.49-0.19,0.73
			C14.45,35.02,12.48,34.79,10.77,34.59z M81.55,65.52c0.28-0.11,0.56-0.23,0.84-0.34c-2.94-1.6-1.61-3.98-1.67-6.19
			c-2.13-0.01-4.11,2.48-6.15,0.03c-0.88,1.11-1.65,2.08-2.41,3.03c1.45,0.92,2.66,1.69,3.97,2.52c1.07-1.31,2.19-2.7,3.32-4.09
			c0.14,0.07,0.29,0.14,0.43,0.2c-0.1,1.11-0.2,2.22-0.32,3.5C80.1,64.56,80.82,65.04,81.55,65.52z M56.07,85.43
			c-2.07,1.15-3.69,2.04-5.31,2.94c0.1,0.15,0.19,0.3,0.29,0.44c1.68,0,3.36,0,5.03,0C56.07,87.83,56.07,86.99,56.07,85.43z
			 M51.33,55.77c-1.35,0-2.45,0-4.01,0c1.4,1.25,2.45,2.18,3.5,3.12c0.17-0.17,0.34-0.33,0.51-0.5
			C51.33,57.57,51.33,56.74,51.33,55.77z M13.43,31.98c0.3,0.81,0.57,1.54,0.99,2.65c0.32-1.06,0.32-1.98,0.73-2.23
			c2.12-1.28,1.4-3.35,1.85-5.09C15.85,28.93,16.28,31.52,13.43,31.98z M79.47,58.2c-0.43-0.58-0.68-1.11-1.09-1.43
			c-0.56-0.44-1.36-0.61-1.86-1.09c-0.72-0.69-1.26-1.56-1.87-2.35c-0.13,0.08-0.26,0.17-0.39,0.25c0.79,1.42,1.59,2.84,2.36,4.22
			C77.35,57.9,78.14,58.01,79.47,58.2z"/>
	</g>
</g>
</svg>
