<?xml version="1.0" encoding="utf-8"?>
<!-- Generator: Adobe Illustrator 23.0.6, SVG Export Plug-In . SVG Version: 6.00 Build 0)  -->
<svg version="1.1" id="Layer_1" xmlns="http://www.w3.org/2000/svg" xmlns:xlink="http://www.w3.org/1999/xlink" x="0px" y="0px"
	 viewBox="0 0 100 100" style="enable-background:new 0 0 100 100;" xml:space="preserve">
<style type="text/css">
	.st0{fill:#63C083;}
	.st1{fill:#75C275;}
	.st2{fill:#65C086;}
	.st3{fill:none;stroke:#65C086;stroke-miterlimit:10;}
	.st4{font-family:'MyriadPro-Regular';}
	.st5{font-size:12px;}
</style>
<text transform="matrix(1 0 0 1 5.9998 94.9025)" class="st4 st5">bucknell</text>
<g id="J0zaoI_1_">
	<g>
		<path class="st0" d="M24.46,38.38c-3.55,0-6.73,0-9.9,0c10.38-5.16,21.17-9.32,32.6-12.84C46.03,25,45.21,24.6,43.96,24
			c10.66-3.75,21.06-6.67,32.29-6.11c-0.09-0.54-0.17-1-0.27-1.54c3.17,0.22,5.93,1.31,8.51,2.91c2.62,1.62,4.42,3.97,5.81,6.79
			c0.82-1.67,0.74-2.22-0.56-4.68c4.57,0.09,7.36,4.91,5.06,8.77c-0.24,0.41-0.45,0.89-0.81,1.16c-2.53,1.85-3.42,4.83-5.02,7.31
			c-0.23,0.36-0.22,0.99-0.1,1.43c0.47,1.63,0.09,3.06-0.55,4.58c-0.85,2.01-1.38,4.15-2.12,6.2c-0.28,0.77-0.56,1.86-1.15,2.13
			c-2.49,1.14-3.76,4.31-7.21,3.9c0.99,2.27-0.09,3.68-1.47,4.92c-3.55,3.18-7.82,4.69-12.47,5.29c-2.84,0.37-5.66,0.35-8.99-0.48
			c0.78-0.51,1.24-0.81,1.64-1.06c-3.32-0.65-6.54-1.3-9.77-1.88c-0.38-0.07-0.91,0.18-1.24,0.44c-3.17,2.52-6.81,3.78-10.82,3.93
			c-7.7,0.29-15.4,0.49-23.1,0.72c-0.25,0.01-0.5-0.05-1.21-0.12c0.97-0.69,1.61-1.17,2.27-1.63c2.59-1.82,5.2-3.61,7.78-5.45
			c0.45-0.32,1.05-0.74,1.15-1.21c0.95-4.21,1.8-8.43,2.74-12.93C16.44,47.91,8.83,49.1,1.2,50.42
			C8.34,45.44,16.2,41.89,24.46,38.38z M43.01,45.98c3.34-1.21,5.23-3.45,5.86-6.61c0.52-2.61,0.78-5.34-1.48-7.38
			c-2.13-1.93-4.6-1.63-7.13-0.79c-3.64,1.21-7.31,2.33-10.97,3.49c-0.51,0.16-1,0.41-1.88,0.77c1.39,0.25,2.35,0.42,3.34,0.6
			c-0.09,0.59-0.13,1.06-0.24,1.51c-1.43,6.3-2.79,12.62-4.36,18.9c-0.67,2.69-0.31,5.82-2.95,7.86c0.21,0.09,0.35,0.19,0.48,0.19
			c4.42-0.2,8.87-0.18,13.25-0.68c5.37-0.62,8.99-4.14,10.03-9.13C47.73,51,46.25,48.25,43.01,45.98z M61.03,27.65
			c-2.24,1.38-3.54,3.19-3.79,5.62c-0.25,2.49,1.37,4.69,3.36,4.62c0.75-0.03,1.49-0.51,2.23-0.79c-0.55-0.55-1.01-1.26-1.66-1.62
			c-1.78-0.99-2.42-2.19-1.77-4.14C59.78,30.16,60.39,29.05,61.03,27.65z M90.93,30.88c2.83-1.58,3.63-4.94,1.74-6.35
			c-0.28,0.94-0.26,2.33-0.94,2.92C90.46,28.53,90.45,29.57,90.93,30.88z M74.92,51.33c1.42,0,2.39-0.19,3.25,0.04
			c2,0.53,2.93,0.53,4.78-0.36c-2.04-0.27-4.19-0.64-6.35-0.8C76.12,50.18,75.59,50.86,74.92,51.33z M69.41,56.58
			c1.8-0.18,3.17-0.32,4.55-0.46c-0.81-0.63-1.7-1.21-2.61-1.22C70.83,54.89,70.29,55.78,69.41,56.58z"/>
		<path class="st0" d="M32.11,61.73c0.61-2.75,1.22-5.5,1.83-8.25c0.22-0.97,0.38-1.97,0.7-2.9c0.23-0.66,0.6-1.66,1.08-1.79
			c1.3-0.32,2.77-0.47,3.76,0.84c0.37,0.49,0.73,1.11,0.77,1.69c0.22,3.36-0.45,6.51-2.76,9.09C36.21,61.85,34.59,62.19,32.11,61.73
			z"/>
		<path class="st0" d="M35.64,46.35c0.63-2.91,1.22-5.61,1.81-8.31c0.15-0.67,0.42-1.32,0.46-1.99c0.1-1.48,0.89-1.98,2.28-1.98
			c1.39,0,2.15,0.67,2.42,1.98c0.55,2.59,0.07,5.04-1.17,7.31C40.29,45.45,38.24,46.11,35.64,46.35z"/>
		<path class="st0" d="M33.37,35.58c-2.06,9.05-4.12,18.1-6.17,27.15c-0.22-0.05-0.43-0.1-0.65-0.15
			c2.06-9.05,4.12-18.09,6.18-27.14C32.94,35.49,33.16,35.54,33.37,35.58z"/>
		<path class="st0" d="M41.64,58.46c0.36-2.38,0.77-5.12,1.15-7.6C44.29,52.4,43.71,56.47,41.64,58.46z"/>
		<path class="st0" d="M44.83,35.35c1.36,2.13,0.95,5.28-0.9,7.41C44.21,40.49,44.53,37.8,44.83,35.35z"/>
	</g>
</g>
</svg>
