<?xml version="1.0" encoding="utf-8"?>
<!-- Generator: Adobe Illustrator 22.1.0, SVG Export Plug-In . SVG Version: 6.00 Build 0)  -->
<svg version="1.1" id="Layer_1" xmlns="http://www.w3.org/2000/svg" xmlns:xlink="http://www.w3.org/1999/xlink" x="0px" y="0px"
	 viewBox="0 0 133.9646606 78.7948227" style="enable-background:new 0 0 133.9646606 78.7948227;" xml:space="preserve">
<style type="text/css">
	.st0{fill:#4153A4;}
	.st1{fill:#121245;}
	.st2{fill:#ABB8DE;}
	.st3{fill:#2C2C81;}
	.st4{clip-path:url(#SVGID_2_);fill:#4853A4;}
	.st5{clip-path:url(#SVGID_2_);}
	.st6{fill:#B8BBD8;}
	.st7{fill:#EDEDF5;}
	.st8{fill:none;stroke:#121245;stroke-miterlimit:10;}
	.st9{fill:none;stroke:#121245;stroke-miterlimit:10;stroke-dasharray:4.1037498,4.1037498;}
	.st10{fill:#3E54A3;}
	.st11{fill:none;stroke:#121245;stroke-miterlimit:10;stroke-dasharray:3.9702759,3.9702759;}
	.st12{fill:#FFFFFF;}
</style>
<g>
	<path class="st2" d="M123.2069778,20.4740238c-0.1751099,0.5022964-0.3490601,1.0050068-0.5255585,1.5068092
		c-0.524025,1.4897652-1.3904572,2.7752876-2.4323196,3.9388676c-0.676445,0.7554779-1.4318237,1.4398575-2.1372833,2.1701469
		c-0.1422424,0.1472549-0.2743378,0.3456612-0.3171082,0.5410633c-0.3175507,1.4506416-1.0914078,2.6686401-1.9496307,3.8377018
		c-0.2624283,0.3574829-0.3033905,0.6355896-0.1332703,1.0623856c0.6894073,1.7295113,0.5789642,3.4289322-0.3888321,5.035347
		c-1.0288315,1.7077332-1.8210831,3.513649-2.3433075,5.4367981c-0.0790634,0.2911453-0.1636124,0.5961456-0.1567993,0.8926926
		c0.0343933,1.4940071-0.6933899,2.7148933-1.4563828,3.8867683c-0.4972382,0.7637367-1.3825455,1.0891113-2.2256546,1.413002
		c-0.2421799,0.0930405-0.484169,0.2947121-0.6305695,0.5112572c-0.9367447,1.3855972-2.2470169,2.2213898-3.8358612,2.6397896
		c-0.3663101,0.0964661-0.5443954,0.2393112-0.5811157,0.629364c-0.1784363,1.8954277-1.2160873,3.3189163-2.5791931,4.5403175
		c-4.1913452,3.7556114-9.2234497,5.6294174-14.7012177,6.3951416c-1.9347534,0.2704544-3.9154282,0.3792953-5.8680115,0.3214569
		c-4.3877792-0.1299744-8.6587906-0.9915848-12.7054138-2.7129402c-0.8930893-0.3799057-1.4117889-0.2269135-2.1334839,0.2385292
		c-2.5761795,1.6614761-5.4464111,2.5910645-8.4584846,3.0173798c-1.866806,0.2642136-3.7615776,0.3613052-5.6477165,0.4515381
		c-3.010952,0.1440353-6.0249062,0.2284775-9.0380898,0.3221359c-2.8179016,0.0875854-5.6365852,0.1496048-8.4546661,0.2318649
		c-2.193325,0.0640106-4.3864441,0.1362991-6.5792789,0.2153778c-1.6576042,0.0597687-3.3145027,0.1390457-4.9720726,0.1998596
		c-0.1445293,0.0053024-0.2917366-0.0624084-0.4376984-0.096199c0.1033554-0.0929642,0.1985302-0.1974945,0.3112431-0.2772293
		c5.0268917-3.5559044,10.0399666-7.1317635,15.0978851-10.6430206c0.8998909-0.6247177,1.3069649-1.363636,1.5325928-2.3995514
		c0.6950531-3.1912308,1.490593-6.3605995,2.2491798-9.5379601c0.1593475-0.6674271,0.1604538-0.6942024-0.5186501-0.6206436
		c-2.6406593,0.2860146-5.2868919,0.5362663-7.9168091,0.9021721c-3.9213905,0.5456009-7.8376961,1.1359634-11.743082,1.7858925
		c-3.3612976,0.5593796-6.7042408,1.2290268-10.0555763,1.8484268c-0.1318607,0.0243645-0.2665606,0.0333748-0.4581289-0.0619812
		c0.7650805-0.5718765,1.518198-1.1606216,2.2972536-1.7127838c3.9674301-2.8119392,8.1142387-5.3369713,12.4181633-7.5942955
		c3.1455212-1.649765,6.3423233-3.2017365,9.5144997-4.8007965c0.1020546-0.0514412,0.1846962-0.1413994,0.2763863-0.2134094
		c-0.1275368-0.0237198-0.2570457-0.0756645-0.3823128-0.0669136c-1.7247734,0.12043-3.4500332,0.2364044-5.1730061,0.3795624
		c-1.7055264,0.1417046-3.408638,0.3125114-5.11273,0.4714203c-0.4068356,0.0379372-0.8133526,0.0792923-1.2677288,0.0524521
		c0.1328487-0.0862579,0.2579842-0.1886406,0.3996677-0.2564354c4.298708-2.056942,8.5384674-4.2515984,12.9140091-6.1298771
		c5.8539543-2.5129108,11.7995415-4.8154793,17.73349-7.137558c2.8249855-1.1054802,5.7145119-2.0458965,8.5727806-3.06674
		c0.1740189-0.062151,0.3301735-0.1743069,0.4946404-0.2631912c-0.1640282-0.0946865-0.3202972-0.2077675-0.4934502-0.2808323
		c-0.6907425-0.2914619-1.3887215-0.5657902-2.0791245-0.8580208c-0.1380424-0.0584278-0.2546349-0.1675434-0.3811188-0.2532806
		c0.1289673-0.0854282,0.2471733-0.2002487,0.3884773-0.2519665c3.1515617-1.1534309,6.2833519-2.3664608,9.4642982-3.4327641
		c5.341095-1.7904148,10.8065567-3.1130438,16.379158-3.9466066c2.1485825-0.3213892,4.3202133-0.503417,6.4867401-0.6843166
		c1.2601395-0.1052155,2.5309906-0.0820785,3.7970047-0.1170816c0.5436096-0.0150323,0.5794678-0.063684,0.3858795-0.5541368
		c-0.1245041-0.3154464-0.2500381-0.6311579-0.3927383-0.9385719C97.100769,6.104176,97.2081985,5.9769878,97.560997,6.0056148
		c0.9948578,0.0807343,1.994545,0.1224046,2.9839554,0.2463303c2.8435059,0.3561554,5.539444,1.2089648,8.0947876,2.5043693
		c0.3499603,0.1774101,0.7229004,0.3357353,1.0237198,0.5789452c0.9239044,0.7469873,2.0483246,0.9651432,3.1408157,1.2903728
		c2.3693466,0.7053347,4.6724396,1.5729876,6.7329559,2.9773674c1.6486511,1.1236649,2.9789886,2.5012407,3.5015182,4.5052099
		c0.0303802,0.1165333,0.1109924,0.2199688,0.1682281,0.3294983
		C123.2069778,19.1164818,123.2069778,19.7952518,123.2069778,20.4740238z M44.5228424,31.6378231
		c-0.0682526,0.1128883-0.0785294,0.1546555-0.1030502,0.1662121c-0.1127548,0.0531445-0.2293587,0.0981693-0.3448105,0.145546
		c-7.4587517,3.0609703-14.7311802,6.5037422-21.6753082,10.6141357c-1.2901173,0.7636452-2.5447826,1.5872841-3.8118649,2.3894691
		c-0.0769882,0.0487404-0.119051,0.1526566-0.1773643,0.2308998c0.0861263,0.0102959,0.1730385,0.0328903,0.2581673,0.0274734
		c0.0877533-0.0055885,0.1729298-0.0432129,0.2606697-0.0586967c3.8832512-0.685173,7.75243-1.4689598,11.6538982-2.0269356
		c4.2367058-0.6059189,8.5034065-1.002224,12.7572021-1.4883804c0.5435982-0.0621262,0.6071205,0.0059395,0.496006,0.5405235
		c-0.9514503,4.5776176-1.8995895,9.1559525-2.8723106,13.7290497c-0.0556717,0.261734-0.2702179,0.5432663-0.4912338,0.7071075
		c-1.0323944,0.7653122-2.092823,1.4928246-3.1436043,2.2333069c-2.7001038,1.9027328-5.4010582,3.8042564-8.0984077,5.7108841
		c-0.119873,0.0847321-0.2075081,0.2150803-0.3101597,0.3241882c0.1518078,0.0229721,0.3042297,0.0689468,0.4553204,0.0649109
		c0.6421051-0.0170822,1.283659-0.0538406,1.9256954-0.0746765c3.3183117-0.1077347,6.6366863-0.2136536,9.9550915-0.3185196
		c3.4612198-0.109375,6.9237938-0.1867752,10.3832664-0.3362503c2.1185722-0.0915451,4.2533379-0.1554184,6.3437271-0.4746819
		c3.5628128-0.5441284,6.7754135-1.9647675,9.4635162-4.4321213c0.2418137-0.2219658,0.4368896-0.2224541,0.7149963-0.1124611
		c2.5639114,1.0140572,5.2416534,1.5056458,7.9808121,1.6878471c0.9965897,0.0662842,1.9970322,0.0740891,2.9954758,0.1142654
		c0.0977402,0.0039253,0.1938782,0.0479622,0.2907562,0.0733833c-0.0666351,0.0741463-0.122612,0.1631889-0.2017822,0.2198257
		c-0.3193741,0.2284889-0.653801,0.4364929-0.9673615,0.6724243c-0.2623291,0.1973877-0.503334,0.4231186-0.7537842,0.6362953
		c0.3143845,0.1048317,0.6216049,0.247673,0.9442825,0.3084984c2.6346893,0.4966965,5.2834091,0.5054245,7.9441833,0.2342033
		c4.6431351-0.4732895,8.9109116-1.9485779,12.6978226-4.7135277c1.1282883-0.8237953,2.1953278-1.7221336,2.9159241-2.9521942
		c0.5746231-0.9808731,0.7428436-1.9742699-0.0080032-2.9484444c-0.192627-0.2499275-0.1090775-0.3205147,0.1437912-0.3788795
		c0.6954575-0.1605453,1.400238-0.2939034,2.0795441-0.50737c0.6220703-0.1954651,1.3126221-0.3624687,1.7975616-0.757431
		c0.6197739-0.5047874,1.055687-1.2324753,1.588707-1.8486366c0.1354065-0.156517,0.3257294-0.3376236,0.5125198-0.3663406
		c1.7228394-0.2649193,3.0284042-1.8243675,2.9813156-3.5767403c-0.0109558-0.4074135-0.0050735-0.8256721,0.0728455-1.2233047
		c0.3583679-1.8290367,1.1348953-3.4981537,2.1077957-5.066391c1.1393967-1.8366203,1.2348938-3.7111282,0.4406586-5.6839561
		c-0.0677414-0.1682739-0.0364227-0.4712105,0.0761108-0.6026764c1.196167-1.39748,1.9996948-2.9869232,2.4577026-4.7645569
		c0.0621262-0.2411518,0.2266846-0.4837074,0.4072571-0.6610088c0.432457-0.4246044,0.9206696-0.7923203,1.354332-1.2158146
		c1.3365479-1.3052177,2.5698624-2.6929607,3.1915512-4.5017471c0.6408539-1.8645096,0.316925-3.555912-1.0000687-5.0349407
		c-1.4720001-1.6531029-3.3860321-2.5838881-5.4348831-3.286727c-0.0327225-0.0112247-0.0805511,0.0215902,0.0174179-0.0078697
		c0.4587631,0.9178162,0.9728088,1.811842,1.3590698,2.758028c0.3624573,0.8879023,0.2163773,1.7930384-0.2692413,2.6254396
		c-0.0763702,0.1308994-0.2086029,0.229208-0.3150177,0.3425846c-0.0823517-0.1291866-0.1869431-0.2493343-0.2436829-0.3889275
		c-0.7074203-1.7401543-1.6955719-3.2996273-2.9914856-4.6604643c-2.1299896-2.2366962-4.7242126-3.7447481-7.6328735-4.6930466
		c-1.402153-0.4571409-2.867897-0.7203703-4.3077087-1.0592256c-0.146019-0.0343657-0.3118591,0.0154538-0.4684906,0.0262046
		c0.0337372,0.147954,0.0432968,0.3071756,0.1059647,0.4416475c0.1581955,0.3395023,0.3395081,0.6682768,0.5130539,1.0005713
		c0.1410294,0.2700558,0.1625519,0.4228439-0.2434006,0.3780975c-2.9773636-0.3281765-5.9563446-0.2274818-8.9265976,0.0679483
		c-4.0193634,0.3997726-7.9797592,1.152133-11.9017944,2.1146011c-4.6160507,1.1327734-9.1495743,2.5335751-13.6148605,4.1584082
		c-0.1412582,0.0513916-0.2662964,0.1473541-0.3988876,0.222538c0.130806,0.0818367,0.2536697,0.1820469,0.3937073,0.2425194
		c0.9013672,0.3892384,1.8076096,0.7672043,2.708847,1.1567478c0.1011887,0.0437374,0.1810455,0.1368141,0.2707901,0.2070045
		c-0.092392,0.0466862-0.1802673,0.1084423-0.2778778,0.1376934c-0.8376236,0.2510128-1.6803207,0.4854698-2.5153656,0.744648
		c-11.2209435,3.4827709-22.1073036,7.819252-32.7265396,12.8362846c-0.3090439,0.1460152-0.6109734,0.3070908-0.9162216,0.4611397
		C36.4349594,31.9061489,40.4442711,31.6178226,44.5228424,31.6378231z"/>
	<path class="st10" d="M44.5228424,31.6378231c-4.0785713-0.0200005-8.087883,0.2683258-12.1266861,0.5296116
		c0.3052483-0.1540489,0.6071777-0.3151245,0.9162216-0.4611397c10.619236-5.0170326,21.5055962-9.3535137,32.7265396-12.8362846
		c0.8350449-0.2591782,1.677742-0.4936352,2.5153656-0.744648c0.0976105-0.0292511,0.1854858-0.0910072,0.2778778-0.1376915
		c-0.0897446-0.0701923-0.1696014-0.163269-0.2707901-0.2070065c-0.9012375-0.3895435-1.8074799-0.7675095-2.708847-1.1567478
		c-0.1400375-0.0604725-0.2629013-0.1606827-0.3937073-0.2425156c0.1325912-0.0751877,0.2576294-0.1711502,0.3988876-0.2225418
		c4.4652863-1.6248331,8.9988098-3.0256348,13.6148605-4.1584082c3.9220352-0.9624681,7.882431-1.7148285,11.9017944-2.1146011
		c2.970253-0.2954302,5.949234-0.3961248,8.9265976-0.0679483c0.4059525,0.0447464,0.3844299-0.1080418,0.2434006-0.3780975
		c-0.1735458-0.3322945-0.3548584-0.6610689-0.5130539-1.0005713c-0.0626678-0.1344719-0.0722275-0.2936935-0.1059647-0.4416475
		c0.1566315-0.0107508,0.3224716-0.0605702,0.4684906-0.0262046c1.4398117,0.3388553,2.9055557,0.6020846,4.3077087,1.0592256
		c2.9086609,0.9482985,5.5028839,2.4563503,7.6328735,4.6930466c1.2959137,1.360837,2.2840652,2.92031,2.9914856,4.6604643
		c0.0567398,0.1395931,0.1613312,0.2597408,0.2436829,0.3889294c0.1064148-0.1133785,0.2386475-0.2116871,0.3150177-0.3425865
		c0.4856186-0.8324013,0.6316986-1.7375374,0.2692413-2.6254396c-0.386261-0.9461861-0.9003067-1.8402119-1.3590698-2.758028
		c-0.0979691,0.02946-0.0501404-0.003355-0.0174179,0.0078697c2.048851,0.7028389,3.962883,1.6336241,5.4348831,3.286727
		c1.3169937,1.4790287,1.6409225,3.1704311,1.0000687,5.0349407c-0.6216888,1.8087864-1.8550034,3.1965294-3.1915512,4.5017471
		c-0.4336624,0.4234943-0.921875,0.7912102-1.354332,1.2158146c-0.1805725,0.1773014-0.3451309,0.419857-0.4072571,0.6610088
		c-0.4580078,1.7776337-1.2615356,3.3670769-2.4577026,4.7645569c-0.1125336,0.1314659-0.1438522,0.4344025-0.0761108,0.6026764
		c0.7942352,1.9728279,0.6987381,3.8473358-0.4406586,5.6839561c-0.9729004,1.5682373-1.7494278,3.2373543-2.1077957,5.066391
		c-0.077919,0.3976326-0.0838013,0.8158913-0.0728455,1.2233047c0.0470886,1.7523727-1.2584763,3.311821-2.9813156,3.5767403
		c-0.1867905,0.028717-0.3771133,0.2098236-0.5125198,0.3663406c-0.53302,0.6161613-0.9689331,1.3438492-1.588707,1.8486366
		c-0.4849396,0.3949623-1.1754913,0.5619659-1.7975616,0.757431c-0.679306,0.2134666-1.3840866,0.3468246-2.0795441,0.50737
		c-0.2528687,0.0583649-0.3364182,0.128952-0.1437912,0.3788795c0.7508469,0.9741745,0.5826263,1.9675713,0.0080032,2.9484444
		c-0.7205963,1.2300606-1.7876358,2.1283989-2.9159241,2.9521942c-3.786911,2.7649498-8.0546875,4.2402382-12.6978226,4.7135277
		c-2.6607742,0.2712212-5.309494,0.2624931-7.9441833-0.2342033c-0.3226776-0.0608253-0.6298981-0.2036667-0.9442825-0.3084984
		c0.2504501-0.2131767,0.4914551-0.4389076,0.7537842-0.6362953c0.3135605-0.2359314,0.6479874-0.4439354,0.9673615-0.6724243
		c0.0791702-0.0566368,0.1351471-0.1456795,0.2017822-0.2198257c-0.0968781-0.0254211-0.1930161-0.069458-0.2907562-0.0733833
		c-0.9984436-0.0401764-1.9988861-0.0479813-2.9954758-0.1142654c-2.7391586-0.1822014-5.4169006-0.67379-7.9808121-1.6878471
		c-0.2781067-0.109993-0.4731827-0.1095047-0.7149963,0.1124611c-2.6881027,2.4673538-5.9007034,3.8879929-9.4635162,4.4321213
		c-2.0903893,0.3192635-4.2251549,0.3831367-6.3437271,0.4746819c-3.4594727,0.1494751-6.9220467,0.2268753-10.3832664,0.3362503
		c-3.3184052,0.104866-6.6367798,0.2107849-9.9550915,0.3185196c-0.6420364,0.0208359-1.2835903,0.0575943-1.9256954,0.0746765
		c-0.1510906,0.0040359-0.3035126-0.0419388-0.4553204-0.0649109c0.1026516-0.109108,0.1902866-0.2394562,0.3101597-0.3241882
		c2.6973495-1.9066277,5.398304-3.8081512,8.0984077-5.7108841c1.0507812-0.7404823,2.1112099-1.4679947,3.1436043-2.2333069
		c0.2210159-0.1638412,0.4355621-0.4453735,0.4912338-0.7071075c0.9727211-4.5730972,1.9208603-9.151432,2.8723106-13.7290497
		c0.1111145-0.534584,0.0475922-0.6026497-0.496006-0.5405235c-4.2537956,0.4861565-8.5204964,0.8824615-12.7572021,1.4883804
		c-3.9014683,0.5579758-7.770647,1.3417625-11.6538982,2.0269356c-0.0877399,0.0154839-0.1729164,0.0531082-0.2606697,0.0586967
		c-0.0851288,0.0054169-0.1720409-0.0171776-0.2581673-0.0274734c0.0583134-0.0782433,0.1003761-0.1821594,0.1773643-0.2308998
		c1.2670822-0.8021851,2.5217476-1.625824,3.8118649-2.3894691c6.944128-4.1103935,14.2165565-7.5531654,21.6753082-10.6141357
		c0.1154518-0.0473766,0.2320557-0.0924015,0.3448105-0.145546C44.444313,31.7924786,44.4545898,31.7507114,44.5228424,31.6378231z
		 M80.8764038,23.0528049c-1.1646881,1.8413105-1.532196,3.7584095-0.6925278,5.9306793
		c0.251976,0.6518879,0.4778137,1.3149738,1.116127,1.7124348c0.0398178,0.1718922,0.0282974,0.4480343,0.1284637,0.4973469
		c0.4007034,0.1972961,0.8019943,0.5672741,1.2972717,0.2014599c0.3342056,0.002306,0.6744919,0.0461788,1.0013657-0.001646
		c0.7026901-0.102808,1.4566498-0.1255665,1.8831787-0.851572c0.0538864-0.221674,0.1286621-0.4406815,0.1573334-0.6655712
		c0.0617905-0.4845753-0.3741608-0.5987663-0.6633606-0.7900505c-0.100029-0.0661659-0.3193207,0.0479565-0.4841309,0.0797215
		c-0.1399612-0.0917072-0.2750702-0.1922531-0.4212875-0.272562c-0.1385498-0.0760937-0.2860565-0.1381378-0.4344101-0.1935863
		c-0.2585678-0.0966434-0.5207977-0.1834831-0.7814941-0.2744312c-0.0309982-0.2022419,0.0067139-0.4795055-0.1108856-0.5871983
		c-0.1383286-0.1266842-0.4113617-0.1062908-0.6259766-0.1496792c-0.12397-0.2593803-0.2641754-0.5127506-0.3635864-0.7812233
		c-0.037529-0.1013489,0.0776291-0.2887764,0.0239639-0.3500309c-0.5239487-0.598032-0.3192596-1.2808094-0.1784897-1.9106712
		c0.1547241-0.6923637,0.4500504-1.3533077,0.6841202-2.0279369c0.1604614-0.0584412,0.3815384-0.0691719,0.4713211-0.1832428
		c0.4977112-0.6324196,0.9728241-1.2835464,1.4298172-1.9461002c0.0658264-0.0954285-0.0082169-0.2873287-0.01754-0.4345818
		c-0.1041107,0.0296497-0.2082138,0.0592976-0.3123169,0.0889473c-0.1772003,0.1113319-0.3544083,0.222662-0.5316086,0.3339977
		c-0.4290924-0.1068401-1.3421402,0.3813477-1.4456329,0.7904968c-0.0276642,0.1093464,0.0244751,0.238884,0.0399857,0.359148
		c-0.0424423,0.0424862-0.0848846,0.0849686-0.127327,0.1274548C81.312294,21.654089,80.7134705,22.3999939,80.8764038,23.0528049z
		 M79.586937,31.4058285c-0.3884735-0.5059738-0.8774261-0.9639683-1.1463242-1.5270462
		c-0.7639847-1.5998249-0.57164-3.2367725,0.0507431-4.837019c0.8613892-2.2148056,2.3854141-3.8988895,4.2898254-5.2731743
		c3.322525-2.3976288,6.9935837-3.1703758,11.0028076-2.3782997c0.1061554,0.0209694,0.1993103,0.1077271,0.2985229,0.1638069
		c-0.0920029,0.0420876-0.1800766,0.1050987-0.2765808,0.1231556c-1.7317886,0.3241901-3.3936157,0.857933-4.9436035,1.700964
		c-1.3835449,0.7525063-2.6614151,1.6586056-3.3115005,3.1540623c-0.2682266,0.6170254-0.4740295,1.3549519-0.4049759,2.0057163
		c0.1531372,1.4431496,1.05616,2.465704,2.291954,3.1773415c0.5548172,0.3194923,1.1543198,0.5606785,1.717308,0.8672085
		c0.1360855,0.074091,0.3258209,0.3321209,0.291153,0.3944149c-0.4304123,0.7733784-0.7688675,1.6597366-1.3847198,2.2541351
		c-1.0154953,0.9800987-2.3476486,1.3615227-3.784584,1.3616104c-1.4520874,0.0000839-2.8839111,0.1850624-4.2494965,0.72192
		c-1.0761719,0.4230728-2.052475,1.0086441-2.8429718,1.8604736c-0.1305771,0.1407127-0.2120819,0.4379463-0.153511,0.6061935
		c0.0427551,0.1228333,0.3488159,0.1687202,0.5453415,0.217041c0.0959854,0.0236015,0.2116547-0.0179825,0.3153534-0.0428429
		c1.244873-0.2985191,2.4373627-0.2847366,3.5177612,0.5331955c0.1801071,0.1363487,0.4223099,0.1885185,0.6296539,0.2919579
		c0.1014099,0.0505981,0.1886444,0.1296234,0.2823029,0.1957779c-0.1049042,0.0577583-0.2045975,0.1517906-0.3154984,0.1676865
		c-1.1613693,0.1664734-2.321991,0.4253883-3.4877853,0.4535522c-1.8060989,0.0436249-3.3574295-0.5506439-4.3354721-2.2237053
		c-0.3422165-0.5853958-0.6985397-0.5427818-0.9996719,0.0591354c-0.0557327,0.1114082-0.09832,0.2296486-0.1432953,0.3461456
		c-0.6042862,1.5653801-1.4660339,2.9650459-2.6676636,4.145916c-0.4981689,0.4895668-0.5154037,0.7228165-0.1365433,1.3025551
		c0.4387131,0.6713257,0.8999023,1.3324318,1.2780075,2.0373116c0.2550278,0.4754143,0.5710526,0.6056366,1.0802994,0.5536842
		c1.5238647-0.1554642,3.0494156-0.3494682,4.5780411-0.3911514c2.6566086-0.0724449,5.321701-0.0970345,7.957695,0.3179245
		c1.3013153,0.2048607,2.5824051,0.5394058,3.8704529,0.8251343c0.1098862,0.0243759,0.2032089,0.1233482,0.3042297,0.1876678
		c-0.0937805,0.0702477-0.1806488,0.153141-0.2824173,0.2087517c-0.8294373,0.4532204-1.6520004,0.9208641-2.498642,1.3396683
		c-0.2711487,0.1341362-0.6298294,0.2389183-0.9117661,0.180397c-2.343689-0.4864464-4.7204285-0.3301048-7.0830917-0.3801727
		c-1.1890717-0.0251961-2.3841782,0.1145744-3.57267,0.2225189c-0.8336411,0.0757179-1.6645203,0.2032166-2.487709,0.3557892
		c-0.1762619,0.0326729-0.3139877,0.2732391-0.4694672,0.4180412c0.1531982,0.1465263,0.2925262,0.3133316,0.4651871,0.4313927
		c0.0920792,0.0629616,0.2424011,0.0378761,0.3653259,0.0589905c2.4251938,0.4165039,4.8646622,0.7655106,7.2707291,1.2728615
		c1.9325027,0.4075089,3.7551575,1.1377831,5.2239914,2.5570869c0.3903503,0.3771896,0.7745209,0.2841301,1.1046753-0.2264977
		c0.7726135-1.1949921,1.7052155-2.2354393,2.9074173-3.005703c0.5900574-0.3780556,1.2212524-0.6918983,1.8338394-1.0348053
		c0.0246811,0.0394325,0.0493622,0.0788574,0.0740509,0.1182861c-0.3349533,0.3536758-0.6468048,0.7332306-1.0090332,1.0563164
		c-1.2379379,1.1041985-2.0368042,2.4779587-2.4486542,4.0628357c-0.1319504,0.5077744-0.3776703,0.8133698-0.8124924,1.0418243
		c-2.6092834,1.3709106-5.3296967,2.4276695-8.255043,2.8856316c-2.0562592,0.3219185-4.0917587,0.2609062-6.0706253-0.4684563
		c-0.2983246-0.1099548-0.6550827-0.2244873-0.7752457,0.1453972c-0.0555878,0.1711121,0.1607361,0.5247536,0.3503571,0.6658707
		c1.1466751,0.8533974,2.4545288,1.3828735,3.8269196,1.7439156c1.5207367,0.4000587,3.0612793,0.5867577,4.6453629,0.6497726
		c1.2681503,0.0504646,2.5109024-0.0587769,3.7645416-0.1094398c0.35569-0.01437,0.7103271-0.0546989,1.0654449-0.0831223
		c0.0090942,0.0458374,0.0181732,0.0916786,0.0272598,0.137516c-0.4401398,0.1775475-0.9001617,0.3196259-1.3108063,0.5498047
		c-0.1681519,0.0942535-0.2295837,0.3789101-0.3395615,0.5769539c0.1703644,0.0873985,0.3515396,0.26651,0.509407,0.2478981
		c1.451004-0.1710701,2.9119263-0.3053513,4.3431549-0.5867004c2.8696136-0.5641022,5.553978-1.6041832,7.8844452-3.4259338
		c0.7317886-0.5720596,1.4256363-1.1882744,1.8485184-2.0450439c0.3856583-0.781353,0.1135712-1.5288277-0.7046127-1.8180542
		c-0.8888321-0.3141975-1.8138275-0.3855858-2.7456284-0.2504768c-1.0932846,0.1585121-2.183548,0.3385124-3.2734833,0.5191116
		c-0.3005295,0.0498009-0.3813248-0.0546608-0.2448883-0.3104362c0.2685623-0.5034866,0.540863-1.0060234,0.8386917-1.492363
		c0.1356659-0.2215462,0.24617-0.4018059-0.0182724-0.5927238c0.5249252-0.8943176,1.2748795-1.5695229,2.0939026-2.1848984
		c0.380722-0.2860718,0.6418381-0.2460556,1.0168533,0.0731125c1.4048462,1.1956329,3.0031281,1.5861168,4.7862167,0.9581795
		c0.1233902-0.0434494,0.226059-0.1457291,0.3383636-0.2206535c-0.1176758-0.0640335-0.2314835-0.1368752-0.3536606-0.1906624
		c-0.7133636-0.3140221-1.4952698-0.5251999-2.1298218-0.9546356c-1.4250107-0.9643898-1.3848419-2.8797684,0.0084381-3.8902321
		c1.2603836-0.9140854,2.8642731-0.9830437,4.2086716-0.1585693c1.0768509,0.6603928,2.2040634,0.8395386,3.437706,0.5229378
		c0.7212067-0.1850967,1.4679031-0.2793045,2.2079544-0.3784256c0.3011322-0.040329,0.4381332-0.1410217,0.4676666-0.4530602
		c0.1411362-1.4912186,0.8076935-2.7535477,1.7220154-3.909935c1.1696472-1.4793129,1.1811142-3.1928902,0.9524078-4.9439659
		c-0.0100632-0.0770569-0.1959915-0.2050323-0.2734146-0.1880569c-0.8391571,0.1840057-1.3258896,0.8036156-1.4560165,1.6877785
		c-0.151825,1.0316086-0.4335709,2.020546-1.1570206,2.8306389c-0.8263779,0.9253426-1.5398026,1.9218941-1.853035,3.1528397
		c-0.0226669,0.089035-0.1083679,0.1620293-0.1647568,0.242485c-0.0462341-0.0910492-0.1116791-0.1772919-0.135788-0.2738647
		c-0.3106766-1.2437134-0.2375565-2.4662628,0.1486816-3.6895409c0.2132874-0.67556,0.3354263-1.3798866,0.4986649-2.0712471
		c0.551178-0.31353,0.33815-0.7745094,0.1836014-1.1766129c-0.1672974-0.4352684-0.0878677-0.6230354,0.3800812-0.7555237
		c1.7536926-0.4965134,3.3555222-1.3108253,4.7780533-2.4550648c1.0203705-0.8207436,1.7874222-1.8341236,2.2376709-3.0769367
		c0.584549-1.6135063,0.6058273-3.2571316,0.3567047-4.9367847c-0.2862854-1.9301224-0.8526993-3.7576313-1.8335266-5.445261
		c-1.7241135-2.9665442-4.2544785-5.0028839-7.3951187-6.3070984c-0.2598572-0.1079168-0.6613998-0.1293011-0.8769608,0.0037584
		c-0.1348038,0.08321-0.0980835,0.542201-0.043335,0.813386c0.1015244,0.5027008,0.0955963,0.5390415-0.4158783,0.4119453
		c-2.8626633-0.7113333-5.7531738-1.1390409-8.7172699-0.9844599c-1.2721634,0.0663424-2.5527649-0.0212469-3.8238525,0.055418
		c-1.1511307,0.0694246-2.2960358,0.2558842-3.4410629,0.4102097c-4.7196198,0.6360836-9.3211975,1.7817926-13.8469009,3.2443819
		c-0.3794022,0.122612-0.9445267,0.0998154-0.9901733,0.6586246c-0.0424728,0.5198479,0.5196533,0.5638218,0.8203812,0.8118992
		c0.1068268,0.0881214,0.2215118,0.1667233,0.3326035,0.2496681c-0.1282959,0.0794945-0.2472,0.1861687-0.3863449,0.2343102
		c-1.4676056,0.5077744-2.9445114,0.9894886-4.4038391,1.5196934c-0.3395233,0.123354-0.8249817,0.3556957-0.8868866,0.6210384
		c-0.1120377,0.4802647,0.4534302,0.5960102,0.8009415,0.7849464c1.4834824,0.80653,2.6349945,1.943121,3.4160385,3.4409084
		c0.8297806,1.5912399,1.2985001,3.2658882,1.1823425,5.0853977c-0.0382996,0.5998363,0.0842133,1.2103844,0.0406418,1.8093033
		c-0.0476379,0.6550903-0.1914368,1.3044777-0.3143234,1.9523659c-0.0836563,0.4410477,0.1013794,0.7038231,0.520813,0.6551819
		c0.7183685-0.0833168,1.4532394-0.171772,2.1336899-0.3998032c1.0093918-0.3382645,1.9772263-0.8004799,2.9630051-1.2093124
		C80.0053864,32.1306229,80.0459595,31.7924004,79.586937,31.4058285z M69.3218384,47.9637871
		c-0.0773468-3.0714569-1.0789413-5.4605446-3.303215-7.2733994c-0.3159409-0.2574883-0.3196335-0.3906517,0.0494308-0.6075325
		c0.6131821-0.3603363,1.2576523-0.7096138,1.772049-1.1889839c3.3564835-3.1278992,4.2968979-7.0440464,3.342659-11.3913345
		c-0.7501068-3.4172554-3.7023926-5.0653877-7.1787796-4.7840443c-0.7681808,0.06217-1.5294075,0.3199329-2.2735023,0.5526505
		c-5.7430305,1.7961197-11.4814262,3.6070709-17.219162,5.4200745c-0.2084084,0.065855-0.395031,0.2006531-0.5918121,0.3033218
		c0.2214508,0.0858059,0.4363747,0.2173996,0.6654053,0.2500477c1.5889244,0.2265167,3.1811066,0.4301147,4.771553,0.6461201
		c0.6750298,0.0916843,0.707962,0.1500034,0.5531578,0.8283806c-0.564064,2.4718113-1.1312256,4.9429264-1.6892471,7.4161053
		c-1.3753815,6.0957565-2.786396,12.1839752-4.0879021,18.2954941c-0.2870178,1.3477478-0.8182297,2.3197823-2.0413246,2.9601021
		c-0.5943298,0.3111382-1.110508,0.7759628-1.6462822,1.1915588c-0.1419678,0.1101265-0.2254791,0.2956085-0.3358307,0.4464836
		c0.1903572,0.0562782,0.3806,0.1129456,0.57127,0.168148c0.0163574,0.0047417,0.0355301,0.0001907,0.0533638-0.0006523
		c1.4596405-0.0691757,2.9186516-0.1598129,4.3790627-0.2023926c1.9795265-0.0577087,3.9605789-0.0630455,5.9401131-0.1205063
		c1.4247322-0.0413628,2.8501549-0.102314,4.2715378-0.2057991c2.4243126-0.1765137,4.755085-0.7160873,6.9391556-1.8344421
		C66.8009262,56.509819,69.0518494,52.7533455,69.3218384,47.9637871z M31.2013912,40.3643837
		c0.0124435,0.0456009,0.0248852,0.0911942,0.0373268,0.136795c0.1380119-0.0112801,0.2779484-0.0116386,0.4137287-0.0355797
		c1.0192947-0.1797409,2.0338974-0.3902016,3.0572281-0.5421944c3.1039391-0.4610252,6.2104416-0.905056,9.317997-1.3410873
		c0.3889084-0.0545616,0.6124077-0.2042694,0.6958466-0.6017647c0.1870003-0.8908958,0.4043427-1.7753639,0.6024475-2.6639977
		c0.1143036-0.5127144,0.0326576-0.5820198-0.4700508-0.4216614c-0.0850372,0.0271263-0.1697464,0.0558319-0.2528839,0.088253
		c-3.5420341,1.3813705-7.0874672,2.754158-10.6233444,4.151123C33.0385017,39.506115,32.1266899,39.9523201,31.2013912,40.3643837z
		 M117.7707138,16.1225204c-0.0076981,0.0871716-0.0207901,0.1245689-0.0123901,0.1562786
		c0.6287842,2.3748798,0.2704926,3.4160576-1.6504974,4.8619633c-0.111908,0.0842266-0.2064819,0.2899342-0.1921844,0.4268913
		c0.0758667,0.7264671,0.1988525,1.4478817,0.2848053,2.1734982c0.036377,0.3071976,0.1169739,0.3299904,0.3392868,0.1283226
		c0.9757919-0.8851433,1.8104553-1.8765793,2.3023987-3.1138592
		C119.5274048,19.0320778,119.0862274,17.1232357,117.7707138,16.1225204z M99.324707,46.808075
		c0.6851044-1.1427231,1.2172165-1.3520317,2.5531998-0.9908257c0.3091278,0.08358,0.6697235,0.1181107,0.9062958,0.3033524
		c0.8513718,0.6666794,1.7025528,0.4907303,2.6280441,0.1920547c0.7927933-0.2558403,1.6333389-0.3633041,2.4519119-0.5403137
		c0.0770035-0.0166473,0.147934-0.0613747,0.2216873-0.0930672c-0.0620499-0.0524292-0.1180191-0.1158791-0.1877594-0.1543121
		c-0.0759659-0.0418587-0.1629181-0.0683098-0.2481842-0.0880508c-1.0031052-0.2322083-1.9741516-0.0752068-2.9436035,0.2124901
		c-0.2081375,0.0617714-0.5033112,0.0594673-0.6814346-0.044796c-0.9972-0.5836525-2.0848312-0.8413162-3.21418-0.8869781
		C99.6092606,44.6690598,98.9519043,45.6347542,99.324707,46.808075z M92.8495178,51.7508011
		c1.8420258-0.2306747,3.5886993-0.4494209,5.3845062-0.6743126c-1.043251-0.4053116-2.1010971-0.7994156-3.1440582-1.2296104
		c-0.4302597-0.1774673-0.6583328,0.0209389-0.8874512,0.325901c-0.1462326,0.1946449-0.1043701,0.2753143,0.1270142,0.3085709
		c0.2986755,0.0429459,0.5952835,0.1002922,0.8927765,0.151432c-0.4495926,0.1792641-0.9212723,0.1496696-1.3129654,0.3124962
		C93.5220947,51.1062584,93.2156448,51.461586,92.8495178,51.7508011z"/>
	<path class="st2" d="M106.7034302,36.3352051c-0.1632385,0.6913605-0.2853775,1.3956871-0.4986649,2.0712471
		c-0.3862381,1.223278-0.4593582,2.4458275-0.1486816,3.6895409c0.0241089,0.0965729,0.0895538,0.1828156,0.135788,0.2738647
		c0.0563889-0.0804558,0.1420898-0.15345,0.1647568-0.242485c0.3132324-1.2309456,1.0266571-2.2274971,1.853035-3.1528397
		c0.7234497-0.8100929,1.0051956-1.7990303,1.1570206-2.8306389c0.130127-0.8841629,0.6168594-1.5037727,1.4560165-1.6877785
		c0.0774231-0.0169754,0.2633514,0.1110001,0.2734146,0.1880569c0.2287064,1.7510757,0.2172394,3.464653-0.9524078,4.9439659
		c-0.9143219,1.1563873-1.5808792,2.4187164-1.7220154,3.909935c-0.0295334,0.3120384-0.1665344,0.4127312-0.4676666,0.4530602
		c-0.7400513,0.0991211-1.4867477,0.1933289-2.2079544,0.3784256c-1.2336426,0.3166008-2.3608551,0.137455-3.437706-0.5229378
		c-1.3443985-0.8244743-2.948288-0.7555161-4.2086716,0.1585693c-1.39328,1.0104637-1.4334488,2.9258423-0.0084381,3.8902321
		c0.634552,0.4294357,1.4164581,0.6406136,2.1298218,0.9546356c0.1221771,0.0537872,0.2359848,0.1266289,0.3536606,0.1906624
		c-0.1123047,0.0749245-0.2149734,0.1772041-0.3383636,0.2206535c-1.7830887,0.6279373-3.3813705,0.2374535-4.7862167-0.9581795
		c-0.3750153-0.3191681-0.6361313-0.3591843-1.0168533-0.0731125c-0.8190231,0.6153755-1.5689774,1.2905807-2.0939026,2.1848984
		c-0.4746399,0.8325577-0.9538956,1.6625595-1.418457,2.5006981c-0.0630493,0.1137543-0.052536,0.2682953-0.076088,0.4039497
		c0.1513901,0.009697,0.3087997,0.0512657,0.4532166,0.0240021c1.103508-0.208271,2.1963882-0.5184021,3.308754-0.6204147
		c0.945961-0.0867538,1.92556-0.0161247,2.8676376,0.1304245c0.7552948,0.1174889,0.9814072,0.8251266,0.5933456,1.4977798
		c-0.1062164,0.1841087-0.2373199,0.3580589-0.379425,0.5165749c-0.9767761,1.0896378-2.1447678,1.9324074-3.426445,2.6244087
		c-2.6365585,1.4235382-5.5062027,2.0494156-8.4393616,2.4503326c-0.4374847,0.0597916-0.8817978,0.0697632-1.4575043,0.1128502
		c1.1898956-0.6046104,2.238205-1.1341515,3.2819214-1.6725922c0.1015549-0.0523987,0.1747131-0.1598625,0.2610474-0.2417641
		c-0.1103592-0.0071449-0.2256622-0.0388908-0.3303528-0.0178413c-2.6699753,0.5370636-5.3524933,0.8241539-8.0819397,0.5559883
		c-1.7006378-0.1670799-3.3532715-0.5140648-4.9341965-1.152317c-0.7069778-0.2854118-1.3692474-0.6815605-2.0518112-1.0274582
		c0.0221634-0.0475616,0.0443268-0.0951195,0.0664978-0.1426811c0.0665054,0.0084229,0.1358185,0.0075531,0.1991348,0.0266151
		c2.1829376,0.6572113,4.3887482,0.6822624,6.6145172,0.2556076c2.9414368-0.563839,5.6907959-1.6335182,8.2683487-3.1467552
		c0.1850967-0.1086578,0.3207092-0.3565407,0.4067688-0.5690765c0.3000336-0.7409782,0.4952469-1.5330582,0.8632812-2.2360992
		c0.8206711-1.5677261,2.0986252-2.7316284,3.5462112-3.7184677c0.2376709-0.1620178,0.4755325-0.3237724,0.7133102-0.4856606
		c-0.0250778-0.0506096-0.050148-0.1012268-0.0752258-0.151844c-0.6673126,0.1748161-1.3534927,0.2980499-1.9984741,0.5339355
		c-2.0858078,0.7628479-3.6668091,2.1697426-4.8848953,3.9978561c-0.2453918,0.3682785-0.3611679,0.4513321-0.7924881,0.1463737
		c-0.9111633-0.6442184-1.8683014-1.2618942-2.8863144-1.708847c-2.4608459-1.080452-5.1103592-1.4262505-7.7492676-1.7803917
		c-0.7320557-0.0982437-1.4632111-0.2032089-2.1947784-0.3050919c0.1373672-0.1402931,0.2704926-0.1944962,0.4076996-0.2083702
		c1.8611832-0.1881905,3.7193069-0.4461632,5.5854416-0.5357628c2.3548584-0.1130524,4.7049637,0.0686417,7.0349884,0.4632835
		c0.2535782,0.0429573,0.5638275,0.0639572,0.7809601-0.0419235c1.2639313-0.6163063,2.508606-1.2721863,3.7570419-1.9199905
		c0.0844727-0.0438271,0.1464844-0.1309204,0.2189484-0.1978912c-0.0816574-0.0612259-0.1546326-0.1464729-0.2464218-0.1796799
		c-0.4864807-0.1759644-0.9658813-0.4068832-1.4693527-0.4942894c-2.0005188-0.3473282-4.0017471-0.7120323-6.0172348-0.9440956
		c-1.3231125-0.1523438-2.6740189-0.1593018-4.0073242-0.1049385c-2.0816803,0.0848885-4.1586456,0.2826691-6.2389145,0.4114647
		c-0.1466217,0.009079-0.3608856-0.1176682-0.4468994-0.2460823c-0.4663773-0.6963463-0.8803253-1.4283981-1.3586426-2.115921
		c-0.2171555-0.3121414-0.2092133-0.511734,0.0405426-0.7865829c1.2103958-1.3319969,2.1994858-2.8082123,2.8415909-4.5004158
		c0.1695023-0.446682,0.3118515-0.2402344,0.4754791,0.0042953c0.8108749,1.2117996,1.9542847,1.8979073,3.3824997,2.1368446
		c2.2055893,0.3690109,4.2888412-0.1539574,6.3456497-0.8663101c0.0890045-0.0308228,0.1569366-0.1224937,0.2346802-0.1858177
		c-0.0900726-0.0421104-0.1771851-0.0928612-0.2706909-0.1249771c-0.822998-0.2826881-1.6980362-0.4662857-2.4565582-0.8694534
		c-0.7528915-0.4001656-1.4964905-0.5485764-2.3119583-0.4818993c-0.3013458,0.0246391-0.5978622,0.1041794-0.898819,0.1396713
		c-0.1286545,0.0151711-0.2630386-0.0182495-0.3948135-0.0295944c0.0748596-0.113533,0.1265488-0.2574539,0.2286224-0.3353195
		c0.4379959-0.3341141,0.865036-0.694931,1.3429642-0.9621353c1.6146317-0.9027328,3.3657303-1.2118034,5.2072067-1.1966209
		c2.5953522,0.0214043,4.6292572-1.4392262,5.4825974-3.8491364c0.2071075-0.584898,0.129097-0.6613045-0.4187775-0.9256573
		c-0.8318787-0.4013939-1.6795349-0.8020325-2.4319916-1.3292866c-1.4684982-1.0289822-1.832695-2.6451435-1.0464935-4.2634468
		c0.507576-1.0447807,1.3400116-1.8070011,2.298317-2.4125137c2.216156-1.4002743,4.6873627-2.069046,7.2574768-2.4303474
		c0.1294022-0.0181885,0.251236-0.0902824,0.3765945-0.1372757c-0.0989914-0.083416-0.1849976-0.2087746-0.2988968-0.2440624
		c-2.3049011-0.7140388-4.6570053-0.9101105-7.0360565-0.5111542c-3.5870895,0.6015434-6.5210724,2.3739262-8.7903061,5.1899509
		c-1.5451965,1.917511-2.5046539,4.0795898-2.0984268,6.6329727c0.1873016,1.1773224,0.6637573,2.2101955,1.7034149,2.8991413
		c0.123558,0.3302536-0.1539383,0.3363018-0.3377228,0.4156055c-0.6696396,0.2889214-1.3298569,0.6034126-2.0126495,0.8570976
		c-0.7328568,0.2722893-1.4831772,0.500515-2.2339401,0.7204285c-0.3300629,0.0966759-0.5607834,0.0283012-0.4764633-0.423233
		c0.2822037-1.5112877,0.3798676-3.0316067,0.2481537-4.5703678c-0.1122055-1.3107948-0.3700333-2.5782013-0.9315109-3.7705231
		c-0.8769989-1.8623543-2.1689453-3.3406563-4.0275497-4.2857132c-0.1190872-0.0605507-0.2099533-0.1766129-0.313942-0.2668514
		c0.1179886-0.0919228,0.2226181-0.2198772,0.356308-0.2694416c0.5350876-0.1983585,1.0784683-0.3745842,1.6201248-0.5549469
		c1.3042297-0.4342842,2.6102448-0.8632832,3.9122086-1.3042336c0.1189194-0.0402756,0.2138901-0.1512337,0.3199768-0.2293758
		c-0.0958023-0.0724525-0.1847305-0.1572456-0.2886505-0.2151527c-0.3896103-0.2171268-0.788559-0.4178848-1.1736755-0.6424751
		c-0.0953979-0.0556355-0.1519394-0.1778736-0.2263489-0.2694969c0.0995789-0.0641975,0.1909637-0.1587658,0.2999268-0.1881828
		c3.2032318-0.8646479,6.3885651-1.8073807,9.6185532-2.5577135c3.0920029-0.7182865,6.2469788-1.0615215,9.4270096-1.2322588
		c2.5967484-0.1394167,5.1694641-0.0490246,7.7262421,0.3513594c1.3160248,0.2060804,2.6020813,0.6028471,3.9025726,0.9096985
		c0.1329193,0.0313625,0.2719269,0.0369749,0.4081116,0.0545321c-0.0100861-0.1345539,0.001152-0.2750893-0.0345535-0.4024572
		c-0.0818405-0.2919044-0.1969528-0.5745621-0.27668-0.8669367c-0.0295563-0.1083593,0.0021133-0.2334108,0.0058594-0.3508492
		c0.1176071,0.0091248,0.2484436-0.012043,0.3505783,0.0325308c0.4903488,0.2139759,0.984375,0.4241972,1.4564209,0.6746979
		c2.8300095,1.5017881,4.9931259,3.646266,6.3382187,6.583951c0.7367249,1.6089878,1.1378479,3.3006191,1.3162079,5.0516644
		c0.2886276,2.8336582-0.5483551,5.2175827-2.8564301,6.9820251c-1.4507446,1.1090508-3.0906525,1.8457375-4.855751,2.2960243
		c-0.3986664,0.1016998-0.5351639,0.2025337-0.3429794,0.6464767
		C106.4968338,35.2797356,106.5707397,35.8201904,106.7034302,36.3352051z M74.9662857,57.2107277
		c1.9371109,0.903965,4.054184,1.043602,6.1360245,1.2943535c0.71772,0.0864449,1.4711685-0.119976,2.2079239-0.1962128
		c0.8814621-0.0912094,1.7649612-0.1680298,2.6429596-0.2856255c0.6715317-0.0899467,1.3333206-0.2535477,2.0051575-0.339859
		c0.1773071-0.0227699,0.3757858,0.1192703,0.564537,0.1856232c-0.0951691,0.1751366-0.1480408,0.4093513-0.2938614,0.5137253
		c-0.360733,0.2581978-0.7666855,0.4525299-1.1483231,0.6827087c-0.096489,0.0581856-0.1699295,0.1545792-0.2539597,0.2334213
		c0.1155167,0.0178795,0.2358017,0.0663185,0.3458557,0.04916c2.9426804-0.4589653,5.7472305-1.3351021,8.2320938-3.0083847
		c0.8426056-0.5674019,1.5641174-1.3400154,2.2559891-2.0965614c0.430069-0.4702682,0.2617874-1.000988-0.3204727-1.1121254
		c-0.7813644-0.1491432-1.6051102-0.2926521-2.3820419-0.1996002c-1.2690048,0.1519852-2.5133667,0.5048103-3.7720947,0.7526817
		c-0.2085724,0.041069-0.5481949,0.0595016-0.630455-0.0541039c-0.1183777-0.163475-0.1367645-0.4900436-0.0561066-0.6897736
		c0.2328949-0.5766716,0.5085983-1.1408157,0.8181686-1.6808357c0.7902908-1.3785706,1.785614-2.5798874,3.1273804-3.4659729
		c0.3580093-0.2364235,0.6462097-0.2045326,1.0190887,0.0483322c0.6429291,0.4360046,1.3198318,0.8552704,2.0398788,1.1324768
		c0.4793549,0.1845398,1.0329819,0.4529533,1.5933914,0.1457024c0.0854874-0.0468674,0.1724167-0.0911026,0.258667-0.1365509
		c-0.0868835-0.0534096-0.1724854-0.1090736-0.2608948-0.1598511c-0.4460831-0.2561951-0.9335556-0.4603424-1.3302002-0.7780266
		c-0.643959-0.5157738-1.0529022-1.1399307-0.969223-2.0692444c0.053154-0.5902138,0.0271149-1.1363678,0.3950958-1.6607018
		c0.8292542-1.1815758,3.6532822-1.9467316,5.0105057-0.9922333c1.151886,0.8100815,2.4117203,1.0970726,3.8064804,0.5764732
		c0.4702148-0.1755066,1.0145187-0.2232857,1.5212173-0.2077408c0.3990173,0.0122528,0.5330505-0.0728188,0.5850449-0.4641342
		c0.1705017-1.2834702,0.6310043-2.4867134,1.4657059-3.4587784c0.8771057-1.021431,1.187706-2.2116356,1.3945541-3.4655647
		c0.0510941-0.3097153,0.0115128-0.6433601-0.0379257-0.9579124c-0.0415497-0.2644424-0.188179-0.3604507-0.5044403-0.2686958
		c-0.5656738,0.1641235-0.6533585,0.5877266-0.71978,1.0625954c-0.1450653,1.0373001-0.3697968,2.0769043-1.0732117,2.8732376
		c-0.9265594,1.0489616-1.6822739,2.1635284-2.0412903,3.5309715c-0.0400162,0.1524277-0.2528992,0.3626938-0.3816299,0.3599625
		c-0.1323471-0.0028267-0.2778397-0.2210999-0.3830261-0.3695717c-0.0680313-0.0960274-0.0750427-0.2357521-0.1076584-0.3563576
		c-0.4137268-1.5296516-0.1627045-3.0003433,0.3476105-4.4646149c0.3258362-0.9349709,0.3366013-1.8859787-0.0855026-2.8164749
		c-0.2727051-0.601181-0.1359634-0.8769455,0.5196381-1.0549583c1.6705322-0.4535713,3.2086792-1.1851883,4.64505-2.1471157
		c1.0572662-0.7080536,1.8049316-1.6697483,2.2978439-2.8204517c0.5248566-1.2252865,0.6649551-2.5073833,0.5541382-3.8472786
		c-0.2202225-2.6628151-1.0462952-5.1031227-2.5831528-7.276865c-1.4530182-2.0551777-3.3879089-3.5524426-5.6809006-4.5849628
		c-0.1016922-0.0457926-0.2296448-0.0332365-0.3453674-0.0478601c0.0037766,0.1015034-0.0039597,0.2051592,0.0144958,0.3039179
		c0.019516,0.1044044,0.0897369,0.2034931,0.0923462,0.306056c0.0059357,0.233777,0.0715179,0.5576859-0.0509491,0.6774588
		c-0.1240158,0.1212749-0.4668503,0.1072598-0.6767426,0.0387869c-2.5607758-0.8353577-5.1848907-1.2533188-7.8772888-1.2620773
		c-0.2275085-0.0007429-0.4772797-0.0170631-0.6779938-0.1098795c-0.5936356-0.2745104-1.162529-0.2797537-1.7530975,0.0020084
		c-0.1696625,0.0809469-0.3788147,0.0967045-0.5718613,0.1079531c-0.7393188,0.0430813-1.4812393,0.0506468-2.218895,0.1113806
		c-1.185318,0.0975847-2.3735428,0.1869469-3.5508423,0.3498907c-4.2904053,0.5938263-8.4876709,1.6059332-12.6204376,2.8920279
		c-0.2822723,0.0878448-0.5457764,0.2360172-0.8180161,0.3561287c0.2330856,0.1721954,0.4839096,0.3254414,0.6940613,0.5221386
		c0.1938171,0.1814098,0.3439865,0.4094639,0.5133896,0.6169739c-0.2009506,0.1548443-0.3791809,0.3750114-0.6064911,0.4540157
		c-1.5689545,0.5453148-3.1493301,1.0576725-4.7221527,1.5920639c-0.153244,0.0520649-0.2801361,0.1816254-0.4192657,0.2752094
		c0.1082382,0.1107655,0.2111359,0.2274227,0.3255997,0.331337c0.7499008,0.6807346,1.6004944,1.2785778,2.2335815,2.0541859
		c1.3407211,1.6425495,1.9525681,3.5660572,2.175766,5.7006741c0.1451263,1.3880043-0.0978546,2.7159367-0.1108246,4.0713444
		c-0.0071182,0.7440262,0.0138855,0.8616257,0.7283096,0.5898895c0.9646912-0.3669319,1.8980103-0.8163223,2.8627625-1.1830769
		c0.4584732-0.1742973,0.4143524-0.3282528,0.1149063-0.6126785c-0.1783676-0.1694202-0.3394699-0.3706055-0.46035-0.58461
		c-0.5271606-0.9332809-0.7502975-1.9171162-0.7498322-3.0135517c0.0005569-1.3281078,0.3058472-2.5377655,0.8817825-3.7029724
		c0.735878-1.4887924,1.7392426-2.7614384,2.9915085-3.8644314c1.9879608-1.7510033,4.2455368-2.942028,6.834938-3.4930248
		c0.8183594-0.1741428,1.6316223-0.3152218,2.4846649-0.0765572c0.3891296,0.1088772,0.8455353-0.0107346,1.2699738-0.0447941
		c0.2297668-0.0184402,0.469986-0.1441612,0.6823273-0.1027508c1.2064133,0.2352619,2.4100647,0.4892216,3.6032715,0.7830486
		c0.1872253,0.0461044,0.3162613,0.3284931,0.4721909,0.5016289c-0.2039948,0.1353683-0.3965454,0.3647728-0.6138,0.3912258
		c-1.7282104,0.2104168-3.4110565,0.6000595-5.0340881,1.2253094c-1.4080353,0.542429-2.7437744,1.2174969-3.8028412,2.3338089
		c-1.7331848,1.8268738-1.4613419,4.0257416,0.6857376,5.3019581c0.7031784,0.4179611,1.4655685,0.7366886,2.2030563,1.0963249
		c0.3198776,0.1559849,0.5224915,0.351511,0.4076385,0.7546291c-0.6222,2.183773-2.3055115,4.1178341-4.7864227,4.4181156
		c-0.8920746,0.107975-1.7944641,0.1277618-2.6902618,0.20858c-1.2407074,0.1119385-2.4260178,0.4170685-3.4948502,1.0865822
		c-0.2308426,0.1445999-0.4533157,0.3025589-0.6796417,0.4543686c0.30896,0.0544395,0.634903,0.199131,0.9234238,0.1448631
		c0.637291-0.1198578,1.1311798,0.1350632,1.6722565,0.3927231c0.6855011,0.3264236,1.4180145,0.555294,2.1343384,0.8149757
		c0.1827545,0.0662422,0.3944168,0.0608139,0.5682449,0.1413307c0.1784592,0.0826721,0.3268661,0.2302475,0.4884262,0.349411
		c-0.1500168,0.1609192-0.2707138,0.3946228-0.4555588,0.4690514c-0.5452423,0.2195511-1.1094284,0.4000549-1.6778717,0.5522537
		c-1.2239685,0.3277054-2.4576187,0.4868507-3.7416916,0.4935493c-1.8085403,0.0094452-3.3289795-0.5039978-4.5372391-1.8501854
		c-0.2418747-0.2694931-0.3582306-0.3165932-0.5053177,0.0418968c-0.590416,1.4389801-1.4764175,2.6844139-2.5274048,3.817791
		c-0.2097015,0.2261429-0.204689,0.4214058-0.0393906,0.6653366c0.3995819,0.5896492,0.7742386,1.1963921,1.1819992,1.7801399
		c0.0902481,0.1291924,0.2790375,0.2763824,0.4170456,0.2712021c0.8502655-0.0319252,1.698761-0.1086006,2.5483017-0.163208
		c0.4382629-0.0281754,0.8774033-0.0434151,1.3162994-0.0607986c0.2474899-0.0098114,0.4968872,0.0036201,0.7425766-0.0214233
		c0.3867416-0.0394287,0.7728043-0.1574707,1.156105-0.1453362c1.2064209,0.038208,2.4109344,0.1329613,3.6171341,0.1833115
		c0.7751617,0.0323524,1.5651169-0.0616684,2.3253098,0.0535736c1.5853119,0.2403297,3.1590958,0.563694,4.7293701,0.8923683
		c0.5020676,0.1050873,0.991333,0.3048286,1.4622955,0.5153389c0.4478302,0.2001724,0.4520645,0.5303955,0.0384598,0.7971306
		c-0.1941299,0.1251945-0.4117508,0.213707-0.6175537,0.3210754c-1.074852,0.5607452-2.1426773,1.135643-3.2289276,1.6733208
		c-0.2506714,0.1240654-0.5740433,0.199379-0.8468933,0.1643066c-1.5497742-0.199192-3.0851669-0.5217094-4.6633224-0.4438133
		c-0.2180405,0.0107613-0.4393997-0.1413803-0.6649933-0.166748c-0.3802948-0.0427742-0.7679977-0.0823708-1.1475525-0.0546188
		c-0.5950851,0.0435066-1.1846237,0.157753-1.7789841,0.2174034c-0.8538818,0.0857124-1.7099762,0.149292-2.5651321,0.2223206
		c1.4907913,0.327179,2.9745331,0.5507088,4.4343491,0.8802032c2.0801086,0.4695168,4.1258621,1.0691872,5.8171844,2.4580269
		c0.4154129,0.341114,0.67453,0.3792763,0.9349213-0.1219788c0.081192-0.1562996,0.2063751-0.2908363,0.3179321-0.4301224
		c1.6368942-2.0438652,3.6992264-3.3912468,6.315979-3.7888489c0.263916-0.0401115,0.5643158,0.159874,0.8477783,0.248436
		c-0.168129,0.2055397-0.3338165,0.4131851-0.5066071,0.6147232c-0.0322876,0.037674-0.0955582,0.0470848-0.1404266,0.0759201
		c-2.2825394,1.4671936-4.0360947,3.3340492-4.6562424,6.0813789c-0.0549927,0.2436028-0.2547913,0.5252228-0.468544,0.6495628
		c-0.7696762,0.4477081-1.5576782,0.8719101-2.3683777,1.2396965
		C82.1818314,56.4710693,78.7204361,57.4863167,74.9662857,57.2107277z"/>
	<path class="st10" d="M79.3705063,31.621748c-1.0396576-0.6889458-1.5161133-1.7218189-1.7034149-2.8991413
		c-0.4062271-2.5533829,0.5532303-4.7154617,2.0984268-6.6329727c2.2692337-2.8160248,5.2032166-4.5884075,8.7903061-5.1899509
		c2.3790512-0.3989563,4.7311554-0.2028847,7.0360565,0.5111542c0.1138992,0.0352879,0.1999054,0.1606464,0.2988968,0.2440624
		c-0.1253586,0.0469933-0.2471924,0.1190872-0.3765945,0.1372757c-2.5701141,0.3613014-5.0413208,1.0300732-7.2574768,2.4303474
		c-0.9583054,0.6055126-1.790741,1.367733-2.298317,2.4125137c-0.7862015,1.6183033-0.4220047,3.2344646,1.0464935,4.2634468
		c0.7524567,0.5272541,1.6001129,0.9278927,2.4319916,1.3292866c0.5478745,0.2643528,0.625885,0.3407593,0.4187775,0.9256573
		c-0.8533401,2.4099102-2.8872452,3.8705406-5.4825974,3.8491364c-1.8414764-0.0151825-3.5925751,0.2938881-5.2072067,1.1966209
		c-0.4779282,0.2672043-0.9049683,0.6280212-1.3429642,0.9621353c-0.1020737,0.0778656-0.1537628,0.2217865-0.2286224,0.3353195
		c0.1317749,0.0113449,0.2661591,0.0447655,0.3948135,0.0295944c0.3009567-0.0354919,0.5974731-0.1150322,0.898819-0.1396713
		c0.8154678-0.0666771,1.5590668,0.0817337,2.3119583,0.4818993c0.758522,0.4031677,1.6335602,0.5867653,2.4565582,0.8694534
		c0.0935059,0.0321159,0.1806183,0.0828667,0.2706909,0.1249771c-0.0777435,0.063324-0.1456757,0.154995-0.2346802,0.1858177
		c-2.0568085,0.7123528-4.1400604,1.235321-6.3456497,0.8663101c-1.428215-0.2389374-2.5716248-0.925045-3.3824997-2.1368446
		c-0.1636276-0.2445297-0.3059769-0.4509773-0.4754791-0.0042953c-0.6421051,1.6922035-1.6311951,3.1684189-2.8415909,4.5004158
		c-0.2497559,0.2748489-0.2576981,0.4744415-0.0405426,0.7865829c0.4783173,0.6875229,0.8922653,1.4195747,1.3586426,2.115921
		c0.0860138,0.1284142,0.3002777,0.2551613,0.4468994,0.2460823c2.0802689-0.1287956,4.1572342-0.3265762,6.2389145-0.4114647
		c1.3333054-0.0543633,2.6842117-0.0474052,4.0073242,0.1049385c2.0154877,0.2320633,4.016716,0.5967674,6.0172348,0.9440956
		c0.5034714,0.0874062,0.982872,0.318325,1.4693527,0.4942894c0.0917892,0.0332069,0.1647644,0.118454,0.2464218,0.1796799
		c-0.072464,0.0669708-0.1344757,0.1540642-0.2189484,0.1978912c-1.248436,0.6478043-2.4931107,1.3036842-3.7570419,1.9199905
		c-0.2171326,0.1058807-0.5273819,0.0848808-0.7809601,0.0419235c-2.3300247-0.3946419-4.68013-0.5763359-7.0349884-0.4632835
		c-1.8661346,0.0895996-3.7242584,0.3475723-5.5854416,0.5357628c-0.137207,0.0138741-0.2703323,0.0680771-0.4076996,0.2083702
		c0.7315674,0.1018829,1.4627228,0.2068481,2.1947784,0.3050919c2.6389084,0.3541412,5.2884216,0.6999397,7.7492676,1.7803917
		c1.018013,0.4469528,1.9751511,1.0646286,2.8863144,1.708847c0.4313202,0.3049583,0.5470963,0.2219048,0.7924881-0.1463737
		c1.2180862-1.8281136,2.7990875-3.2350082,4.8848953-3.9978561c0.6449814-0.2358856,1.3311615-0.3591194,1.9984741-0.5339355
		c0.0250778,0.0506172,0.050148,0.1012344,0.0752258,0.151844c-0.2377777,0.1618881-0.4756393,0.3236427-0.7133102,0.4856606
		c-1.4475861,0.9868393-2.7255402,2.1507416-3.5462112,3.7184677c-0.3680344,0.7030411-0.5632477,1.495121-0.8632812,2.2360992
		c-0.0860596,0.2125359-0.2216721,0.4604187-0.4067688,0.5690765c-2.5775528,1.513237-5.3269119,2.5829163-8.2683487,3.1467552
		c-2.225769,0.4266548-4.4315796,0.4016037-6.6145172-0.2556076c-0.0633163-0.019062-0.1326294-0.0181923-0.1991348-0.0266151
		c-0.022171,0.0475616-0.0443344,0.0951195-0.0664978,0.1426811c0.6825638,0.3458977,1.3448334,0.7420464,2.0518112,1.0274582
		c1.580925,0.6382523,3.2335587,0.9852371,4.9341965,1.152317c2.7294464,0.2681656,5.4119644-0.0189247,8.0819397-0.5559883
		c0.1046906-0.0210495,0.2199936,0.0106964,0.3303528,0.0178413c-0.0863342,0.0819016-0.1594925,0.1893654-0.2610474,0.2417641
		c-1.0437164,0.5384407-2.0920258,1.0679817-3.2819214,1.6725922c0.5757065-0.043087,1.0200195-0.0530586,1.4575043-0.1128502
		c2.9331589-0.4009171,5.802803-1.0267944,8.4393616-2.4503326c1.2816772-0.6920013,2.4496689-1.534771,3.426445-2.6244087
		c0.1421051-0.1585159,0.2732086-0.3324661,0.379425-0.5165749c0.3880615-0.6726532,0.1619492-1.380291-0.5933456-1.4977798
		c-0.9420776-0.1465492-1.9216766-0.2171783-2.8676376-0.1304245c-1.1123657,0.1020126-2.205246,0.4121437-3.308754,0.6204147
		c-0.1444168,0.0272636-0.3018265-0.0143051-0.4532166-0.0240021c0.0235519-0.1356544,0.0130386-0.2901955,0.076088-0.4039497
		c0.4645615-0.8381386,0.9438171-1.6681404,1.418457-2.5006981c0.2644424,0.190918,0.1539383,0.3711777,0.0182724,0.5927238
		c-0.2978287,0.4863396-0.5701294,0.9888763-0.8386917,1.492363c-0.1364365,0.2557755-0.0556412,0.3602371,0.2448883,0.3104362
		c1.0899353-0.1805992,2.1801987-0.3605995,3.2734833-0.5191116c0.9318008-0.1351089,1.8567963-0.0637207,2.7456284,0.2504768
		c0.8181839,0.2892265,1.090271,1.0367012,0.7046127,1.8180542c-0.4228821,0.8567696-1.1167297,1.4729843-1.8485184,2.0450439
		c-2.3304672,1.8217506-5.0148315,2.8618317-7.8844452,3.4259338c-1.4312286,0.2813492-2.8921509,0.4156303-4.3431549,0.5867004
		c-0.1578674,0.0186119-0.3390427-0.1604996-0.509407-0.2478981c0.1099777-0.1980438,0.1714096-0.4827003,0.3395615-0.5769539
		c0.4106445-0.2301788,0.8706665-0.3722572,1.3108063-0.5498047c-0.0090866-0.0458374-0.0181656-0.0916786-0.0272598-0.137516
		c-0.3551178,0.0284233-0.7097549,0.0687523-1.0654449,0.0831223c-1.2536392,0.050663-2.4963913,0.1599045-3.7645416,0.1094398
		c-1.5840836-0.063015-3.1246262-0.2497139-4.6453629-0.6497726c-1.3723907-0.361042-2.6802444-0.8905182-3.8269196-1.7439156
		c-0.189621-0.1411171-0.4059448-0.4947586-0.3503571-0.6658707c0.120163-0.3698845,0.4769211-0.255352,0.7752457-0.1453972
		c1.9788666,0.7293625,4.0143661,0.7903748,6.0706253,0.4684563c2.9253464-0.457962,5.6457596-1.5147209,8.255043-2.8856316
		c0.4348221-0.2284546,0.680542-0.53405,0.8124924-1.0418243c0.41185-1.584877,1.2107162-2.9586372,2.4486542-4.0628357
		c0.3622284-0.3230858,0.6740799-0.7026405,1.0090332-1.0563164c-0.0246887-0.0394287-0.0493698-0.0788536-0.0740509-0.1182861
		c-0.612587,0.342907-1.243782,0.6567497-1.8338394,1.0348053c-1.2022018,0.7702637-2.1348038,1.8107109-2.9074173,3.005703
		c-0.3301544,0.5106277-0.714325,0.6036873-1.1046753,0.2264977c-1.4688339-1.4193039-3.2914886-2.1495781-5.2239914-2.5570869
		c-2.4060669-0.5073509-4.8455353-0.8563576-7.2707291-1.2728615c-0.1229248-0.0211143-0.2732468,0.0039711-0.3653259-0.0589905
		c-0.1726608-0.1180611-0.3119888-0.2848663-0.4651947-0.4314003c0.1554871-0.1447945,0.2932129-0.3853607,0.4694748-0.4180336
		c0.8231888-0.1525726,1.654068-0.2800713,2.487709-0.3557892c1.1884918-0.1079445,2.3835983-0.247715,3.57267-0.2225189
		c2.3626633,0.0500679,4.7394028-0.1062737,7.0830917,0.3801727c0.2819366,0.0585213,0.6406174-0.0462608,0.9117661-0.180397
		c0.8466415-0.4188042,1.6692047-0.8864479,2.498642-1.3396683c0.1017685-0.0556107,0.1886368-0.138504,0.2824173-0.2087517
		c-0.1010208-0.0643196-0.1943436-0.1632919-0.3042297-0.1876678c-1.2880478-0.2857285-2.5691376-0.6202736-3.8704529-0.8251343
		c-2.635994-0.414959-5.3010864-0.3903694-7.957695-0.3179245c-1.5286255,0.0416832-3.0541763,0.2356873-4.5780411,0.3911514
		c-0.5092468,0.0519524-0.8252716-0.07827-1.0802994-0.5536842c-0.3781052-0.7048798-0.8392944-1.3659859-1.2780075-2.0373116
		c-0.3788605-0.5797386-0.3616257-0.8129883,0.1365433-1.3025551c1.2016296-1.1808701,2.0633774-2.5805359,2.6676636-4.145916
		c0.0449753-0.116497,0.0875626-0.2347374,0.1432953-0.3461456c0.3011322-0.6019173,0.6574554-0.6445312,0.9996719-0.0591354
		c0.9780426,1.6730614,2.5293732,2.2673302,4.3354721,2.2237053c1.1657944-0.0281639,2.326416-0.2870789,3.4877853-0.4535522
		c0.1109009-0.0158958,0.2105942-0.1099281,0.3154984-0.1676865c-0.0936584-0.0661545-0.1808929-0.1451797-0.2823029-0.1957779
		c-0.2073441-0.1034393-0.4495468-0.1556091-0.6296539-0.2919579c-1.0803986-0.8179321-2.2728882-0.8317146-3.5177612-0.5331955
		c-0.1036987,0.0248604-0.219368,0.0664444-0.3153534,0.0428429c-0.1965256-0.0483208-0.5025864-0.0942078-0.5453415-0.217041
		c-0.0585709-0.1682472,0.022934-0.4654808,0.153511-0.6061935c0.7904968-0.8518295,1.7667999-1.4374008,2.8429718-1.8604736
		c1.3655853-0.5368576,2.7974091-0.7218361,4.2494965-0.72192c1.4369354-0.0000877,2.7690887-0.3815117,3.784584-1.3616104
		c0.6158524-0.5943985,0.9543076-1.4807568,1.3847198-2.2541351c0.034668-0.062294-0.1550674-0.3203239-0.291153-0.3944149
		c-0.5629883-0.30653-1.1624908-0.5477161-1.717308-0.8672085c-1.2357941-0.7116375-2.1388168-1.7341919-2.291954-3.1773415
		c-0.0690536-0.6507645,0.1367493-1.3886909,0.4049759-2.0057163c0.6500854-1.4954567,1.9279556-2.401556,3.3115005-3.1540623
		c1.5499878-0.8430309,3.2118149-1.3767738,4.9436035-1.700964c0.0965042-0.0180569,0.1845779-0.081068,0.2765808-0.1231556
		c-0.0992126-0.0560799-0.1923676-0.1428375-0.2985229-0.1638069c-4.0092239-0.7920761-7.6802826-0.0193291-11.0028076,2.3782997
		c-1.9044113,1.3742847-3.4284363,3.0583687-4.2898254,5.2731743c-0.6223831,1.6002464-0.8147278,3.2371941-0.0507431,4.837019
		c0.268898,0.5630779,0.7578506,1.0210724,1.1463242,1.5270462C79.5147934,31.4778004,79.4426422,31.5497723,79.3705063,31.621748z"
		/>
	<path class="st2" d="M69.3218384,47.9637871c-0.269989,4.7895584-2.5209122,8.546032-7.0583,10.8694
		c-2.1840706,1.1183548-4.514843,1.6579285-6.9391556,1.8344421c-1.4213829,0.1034851-2.8468056,0.1644363-4.2715378,0.2057991
		c-1.9795341,0.0574608-3.9605865,0.0627975-5.9401131,0.1205063c-1.4604111,0.0425797-2.9194221,0.1332169-4.3790627,0.2023926
		c-0.0178337,0.000843-0.0370064,0.005394-0.0533638,0.0006523c-0.19067-0.0552025-0.3809128-0.1118698-0.57127-0.168148
		c0.1103516-0.1508751,0.1938629-0.3363571,0.3358307-0.4464836c0.5357742-0.415596,1.0519524-0.8804207,1.6462822-1.1915588
		c1.2230949-0.6403198,1.7543068-1.6123543,2.0413246-2.9601021c1.301506-6.1115189,2.7125206-12.1997375,4.0879021-18.2954941
		c0.5580215-2.4731789,1.1251831-4.944294,1.6892471-7.4161053c0.1548042-0.6783772,0.1218719-0.7366962-0.5531578-0.8283806
		c-1.5904465-0.2160053-3.1826286-0.4196033-4.771553-0.6461201c-0.2290306-0.0326481-0.4439545-0.1642418-0.6654053-0.2500477
		c0.1967812-0.1026688,0.3834038-0.2374668,0.5918121-0.3033218c5.7377357-1.8130035,11.4761314-3.6239548,17.219162-5.4200745
		c0.7440948-0.2327175,1.5053215-0.4904804,2.2735023-0.5526505c3.476387-0.2813435,6.4286728,1.3667889,7.1787796,4.7840443
		c0.9542389,4.3472881,0.0138245,8.2634354-3.342659,11.3913345c-0.5143967,0.4793701-1.1588669,0.8286476-1.772049,1.1889839
		c-0.3690643,0.2168808-0.3653717,0.3500443-0.0494308,0.6075325C68.242897,42.5032425,69.2444916,44.8923302,69.3218384,47.9637871
		z M66.0829391,55.3057556c0.5358734-0.8216743,1.0717468-1.6433411,1.6076202-2.4650154
		c0.8531113-1.9227104,1.2932587-3.8848228,1.1195679-6.0360641c-0.1991196-2.4660759-1.4315033-4.2705498-3.1375198-5.8688545
		c-0.5649719-0.5292969-0.5557404-0.7160645,0.1219406-1.1375542c0.9224014-0.5736923,1.8120041-1.1650887,2.5762939-1.976265
		c1.1911545-1.2642136,1.8214035-2.776371,2.3100052-4.3874931c0.4065857-1.3407211,0.3743668-2.7193394,0.3159866-4.0893955
		c-0.0314255-0.7373981-0.1870422-1.4774799-0.3578186-2.1995125c-0.5896606-2.4931011-3.2747269-3.9113255-5.5482559-4.0147514
		c-1.5402489-0.0700645-2.9136887,0.4410706-4.3196754,0.8873978c-2.5165863,0.7988911-5.0233078,1.6288891-7.5406799,2.4252529
		c-2.3809738,0.7532158-4.7705727,1.4791546-7.1553688,2.2203407c-0.136364,0.0423775-0.2636108,0.1140862-0.3950996,0.1721401
		c1.3642616,0.2722874,2.7047691,0.4587364,4.0461807,0.6384029c0.6742706,0.0903111,0.8377914,0.3236103,0.673008,0.9595928
		c-0.1251907,0.4831486-0.2413635,0.9689369-0.3481865,1.4564819c-0.4642143,2.1186047-0.9151993,4.2401371-1.3868332,6.3570766
		c-0.5221596,2.3437157-1.0643311,4.682972-1.5927048,7.0253105c-0.5608253,2.4862022-1.1156845,4.9737587-1.6731453,7.4607201
		c0.0260658,0.286972-0.2846642,0.6157951,0.1065407,0.8573952c-0.2839928,0.4234772-0.2509727,0.9210854-0.3258667,1.3934593
		c-0.4505653,0.3137665-0.5080528,0.5777435-0.2100067,0.9643822c-0.2840004,0.4234695-0.2509766,0.9210815-0.3258667,1.3934593
		c-0.1327515,0.1893806-0.3777924,0.3799896-0.3757401,0.5678902c0.0048294,0.4423141-0.2365723,0.6720467-0.5405922,0.8939896
		c-0.2271729,0.1658516-0.4817123,0.3063087-0.6706657,0.5080795c-0.1212349,0.129467-0.1454849,0.3497505-0.2132111,0.5293198
		c-0.038681,0.0257378-0.0773621,0.0514717-0.1160393,0.0772057c-0.2169876-0.0014954-0.4339752-0.0029945-0.6509628-0.0044861
		c-0.1952667,0.1549416-0.4006081,0.2995453-0.5781212,0.472683c-0.0402832,0.0392876,0.0113373,0.2576675,0.0284615,0.2586555
		c0.6013565,0.0347481,1.2038841,0.0753441,1.8057556,0.0690155c0.8654213-0.0090866,1.730381-0.0568047,2.5957031-0.0823364
		c0.4079742-0.0120468,0.8166733-0.0020142,1.2244492-0.0175095c0.8112793-0.0308304,1.6219406-0.0780449,2.4332619-0.1072617
		c0.4245911-0.0152855,0.8512726,0.0125999,1.2747498-0.0144501c0.423233-0.0270271,0.8423805-0.12397,1.2655563-0.1447678
		c0.8982468-0.0441475,1.8078728,0.2398491,2.6982193-0.1004562c0.0926323-0.0354004,0.2131386,0.0104294,0.3184967-0.0013275
		c0.7039337-0.0785751,1.4088173-0.1521416,2.1090126-0.2566605c0.0981331-0.0146523,0.1723175-0.189724,0.2575912-0.2905426
		c0.5020142-0.1030922,1.0040321-0.206192,1.5060501-0.3092842c0.7241058,0.2154808,1.2998238-0.217247,1.9235344-0.4403267
		c1.3444557-0.4938202,2.507061-1.2967834,3.6439323-2.1434937C65.0826492,56.3060493,65.5827942,55.8058968,66.0829391,55.3057556z
		"/>
	<path class="st10" d="M79.3705063,31.621748c0.0721359-0.0719757,0.1442871-0.1439476,0.2164307-0.2159195
		c0.4590225,0.3865719,0.4184494,0.7247944-0.1124115,0.9449558c-0.9857788,0.4088326-1.9536133,0.871048-2.9630051,1.2093124
		c-0.6804504,0.2280312-1.4153214,0.3164864-2.1336899,0.3998032c-0.4194336,0.0486412-0.6044693-0.2141342-0.520813-0.6551819
		c0.1228867-0.6478882,0.2666855-1.2972755,0.3143234-1.9523659c0.0435715-0.5989189-0.0789413-1.2094669-0.0406418-1.8093033
		c0.1161575-1.8195095-0.352562-3.4941578-1.1823425-5.0853977c-0.781044-1.4977875-1.9325562-2.6343784-3.4160385-3.4409084
		c-0.3475113-0.1889362-0.9129791-0.3046818-0.8009415-0.7849464c0.0619049-0.2653427,0.5473633-0.4976845,0.8868866-0.6210384
		c1.4593277-0.5302048,2.9362335-1.011919,4.4038391-1.5196934c0.1391449-0.0481415,0.258049-0.1548157,0.3863449-0.2343063
		c-0.1110916-0.0829487-0.2257767-0.1615505-0.3326035-0.2496719c-0.3007278-0.2480774-0.862854-0.2920513-0.8203812-0.8118992
		c0.0456467-0.5588093,0.6107712-0.5360126,0.9901733-0.6586246c4.5257034-1.4625893,9.1272812-2.6082983,13.8469009-3.2443819
		c1.1450272-0.1543255,2.2899323-0.340785,3.4410629-0.4102097c1.2710876-0.0766649,2.5516891,0.0109243,3.8238525-0.055418
		c2.9640961-0.1545811,5.8546066,0.2731266,8.7172699,0.9844599c0.5114746,0.1270962,0.5174026,0.0907555,0.4158783-0.4119453
		c-0.0547485-0.2711849-0.0914688-0.730176,0.043335-0.813386c0.2155609-0.1330595,0.6171036-0.1116753,0.8769608-0.0037584
		c3.1406403,1.3042145,5.6710052,3.3405542,7.3951187,6.3070984c0.9808273,1.6876297,1.5472412,3.5151386,1.8335266,5.445261
		c0.2491226,1.6796532,0.2278442,3.3232784-0.3567047,4.9367847c-0.4502487,1.2428131-1.2173004,2.2561932-2.2376709,3.0769367
		c-1.4225311,1.1442394-3.0243607,1.9585514-4.7780533,2.4550648c-0.4679489,0.1324883-0.5473785,0.3202553-0.3800812,0.7555237
		c0.1545486,0.4021034,0.3675766,0.8630829-0.1836014,1.1766129c-0.1326904-0.5150146-0.2065964-1.0554695-0.4152985-1.5375748
		c-0.1921844-0.443943-0.055687-0.5447769,0.3429794-0.6464767c1.7650986-0.4502869,3.4050064-1.1869736,4.855751-2.2960243
		c2.308075-1.7644424,3.1450577-4.1483669,2.8564301-6.9820251c-0.17836-1.7510452-0.579483-3.4426765-1.3162079-5.0516644
		c-1.3450928-2.937685-3.5082092-5.0821629-6.3382187-6.583951c-0.4720459-0.2505007-0.9660721-0.460722-1.4564209-0.6746979
		c-0.1021347-0.0445738-0.2329712-0.023406-0.3505783-0.0325308c-0.003746,0.1174383-0.0354156,0.2424898-0.0058594,0.3508492
		c0.0797272,0.2923746,0.1948395,0.5750322,0.27668,0.8669367c0.0357056,0.127368,0.0244675,0.2679033,0.0345535,0.4024572
		c-0.1361847-0.0175571-0.2751923-0.0231695-0.4081116-0.0545321c-1.3004913-0.3068514-2.5865479-0.703618-3.9025726-0.9096985
		c-2.556778-0.4003839-5.1294937-0.4907761-7.7262421-0.3513594c-3.1800308,0.1707373-6.3350067,0.5139723-9.4270096,1.2322588
		c-3.2299881,0.7503328-6.4153214,1.6930656-9.6185532,2.5577135c-0.108963,0.029417-0.2003479,0.1239853-0.2999268,0.1881828
		c0.0744095,0.0916233,0.1309509,0.2138615,0.2263489,0.2694969c0.3851166,0.2245903,0.7840652,0.4253483,1.1736755,0.6424751
		c0.10392,0.0579071,0.1928482,0.1427002,0.2886505,0.2151527c-0.1060867,0.0781422-0.2010574,0.1891003-0.3199768,0.2293758
		c-1.3019638,0.4409504-2.6079788,0.8699493-3.9122086,1.3042336c-0.5416565,0.1803627-1.0850372,0.3565884-1.6201248,0.5549469
		c-0.1336899,0.0495644-0.2383194,0.1775188-0.356308,0.2694416c0.1039886,0.0902386,0.1948547,0.2063007,0.313942,0.2668514
		c1.8586044,0.9450569,3.1505508,2.4233589,4.0275497,4.2857132c0.5614777,1.1923218,0.8193054,2.4597282,0.9315109,3.7705231
		c0.1317139,1.5387611,0.03405,3.0590801-0.2481537,4.5703678c-0.0843201,0.4515343,0.1464005,0.5199089,0.4764633,0.423233
		c0.7507629-0.2199135,1.5010834-0.4481392,2.2339401-0.7204285c0.6827927-0.253685,1.3430099-0.5681763,2.0126495-0.8570976
		C79.216568,31.9580498,79.4940643,31.9520016,79.3705063,31.621748z"/>
	<path class="st2" d="M31.2013912,40.3643837c0.9252987-0.4120636,1.8371105-0.8582687,2.7782955-1.230114
		c3.5358772-1.396965,7.0813103-2.7697525,10.6233444-4.151123c0.0831375-0.0324211,0.1678467-0.0611267,0.2528839-0.088253
		c0.5027084-0.1603584,0.5843544-0.091053,0.4700508,0.4216614c-0.1981049,0.8886337-0.4154472,1.7731018-0.6024475,2.6639977
		c-0.0834389,0.3974953-0.3069382,0.5472031-0.6958466,0.6017647c-3.1075554,0.4360313-6.2140579,0.8800621-9.317997,1.3410873
		c-1.0233307,0.1519928-2.0379333,0.3624535-3.0572281,0.5421944c-0.1357803,0.023941-0.2757168,0.0242996-0.4137287,0.0355797
		C31.2262764,40.4555779,31.2138348,40.4099846,31.2013912,40.3643837z"/>
	<path class="st10" d="M82.4120789,22.618288c0.4235001-0.6516171,0.8487549-1.3021049,1.2693024-1.9556198
		c0.1082611-0.1682281,0.2017136-0.3459816,0.3019791-0.5193577c0.1041031-0.0296497,0.2082062-0.0592976,0.3123169-0.0889511
		c0.0093231,0.1472569,0.0833664,0.3391571,0.01754,0.4345856c-0.4569931,0.6625538-0.932106,1.3136806-1.4298172,1.9461002
		C82.7936172,22.5491161,82.5725403,22.5598469,82.4120789,22.618288z"/>
	<path class="st10" d="M83.4517517,20.4773083c-0.4685516,0.383215-0.9371033,0.7664318-1.4056473,1.1496468
		c-0.0155106-0.120266-0.0676498-0.2498035-0.0399857-0.3591499C82.1096115,20.8586559,83.0226593,20.3704681,83.4517517,20.4773083
		z"/>
	<path class="st10" d="M85.6102829,30.5415077c0.0918503-0.7622509-0.525238-1.0143204-0.9901581-1.3758984
		c0.1648102-0.0317669,0.3841019-0.1458893,0.4841309-0.0797234c0.2891998,0.1912842,0.7251511,0.3054752,0.6633606,0.7900505
		C85.738945,30.1008263,85.6641693,30.3198338,85.6102829,30.5415077z"/>
	<path class="st10" d="M81.9187775,21.7544079c-0.3474579,0.4328003-0.6949081,0.8655968-1.0423737,1.2983971
		C80.7134705,22.3999939,81.312294,21.654089,81.9187775,21.7544079z"/>
	<path class="st10" d="M81.3000031,30.695919c0.4752426,0.2329369,0.9504852,0.4658718,1.4257355,0.6988087
		c-0.4952774,0.3658123-0.8965683-0.0041656-1.2972717-0.2014618C81.3283005,31.1439533,81.3398209,30.8678112,81.3000031,30.695919
		z"/>
	<path class="st10" d="M82.9829254,28.4250278c-0.2456131-0.2456245-0.4912415-0.491251-0.7368546-0.7368774
		c0.2146149,0.0433884,0.487648,0.022995,0.6259766,0.1496792C82.9896469,27.9455223,82.9519348,28.2227859,82.9829254,28.4250278z"
		/>
	<path class="st2" d="M74.9662857,57.2107277c3.7541504,0.275589,7.2155457-0.7396584,10.5655441-2.2594185
		c0.8106995-0.3677864,1.5987015-0.7919884,2.3683777-1.2396965c0.2137527-0.1243401,0.4135513-0.4059601,0.468544-0.6495628
		c0.6201477-2.7473297,2.373703-4.6141853,4.6562424-6.0813789c0.0448685-0.0288353,0.108139-0.0382462,0.1404266-0.0759201
		c0.1727905-0.2015381,0.3384781-0.4091835,0.5066071-0.6147232c-0.2834625-0.088562-0.5838623-0.2885475-0.8477783-0.248436
		c-2.6167526,0.3976021-4.6790848,1.7449837-6.315979,3.7888489c-0.111557,0.139286-0.2367401,0.2738228-0.3179321,0.4301224
		c-0.2603912,0.501255-0.5195084,0.4630928-0.9349213,0.1219788c-1.6913223-1.3888397-3.7370758-1.9885101-5.8171844-2.4580269
		c-1.459816-0.3294945-2.9435577-0.5530243-4.4343491-0.8802032c0.8551559-0.0730286,1.7112503-0.1366081,2.5651321-0.2223206
		c0.5943604-0.0596504,1.1838989-0.1738968,1.7789841-0.2174034c0.3795547-0.0277519,0.7672577,0.0118446,1.1475525,0.0546188
		c0.2255936,0.0253677,0.4469528,0.1775093,0.6649933,0.166748c1.5781555-0.0778961,3.1135483,0.2446213,4.6633224,0.4438133
		c0.27285,0.0350723,0.5962219-0.0402412,0.8468933-0.1643066c1.0862503-0.5376778,2.1540756-1.1125755,3.2289276-1.6733208
		c0.2058029-0.1073685,0.4234238-0.1958809,0.6175537-0.3210754c0.4136047-0.2667351,0.4093704-0.5969582-0.0384598-0.7971306
		c-0.4709625-0.2105103-0.960228-0.4102516-1.4622955-0.5153389c-1.5702744-0.3286743-3.1440582-0.6520386-4.7293701-0.8923683
		c-0.7601929-0.115242-1.550148-0.0212212-2.3253098-0.0535736c-1.2061996-0.0503502-2.4107132-0.1451035-3.6171341-0.1833115
		c-0.3833008-0.0121346-0.7693634,0.1059074-1.156105,0.1453362c-0.2456894,0.0250435-0.4950867,0.0116119-0.7425766,0.0214233
		c-0.4388962,0.0173836-0.8780365,0.0326233-1.3162994,0.0607986c-0.8495407,0.0546074-1.6980362,0.1312828-2.5483017,0.163208
		c-0.1380081,0.0051804-0.3267975-0.1420097-0.4170456-0.2712021c-0.4077606-0.5837479-0.7824173-1.1904907-1.1819992-1.7801399
		c-0.1652985-0.2439308-0.170311-0.4391937,0.0393906-0.6653366c1.0509872-1.1333771,1.9369888-2.3788109,2.5274048-3.817791
		c0.1470871-0.35849,0.263443-0.3113899,0.5053177-0.0418968c1.2082596,1.3461876,2.7286987,1.8596306,4.5372391,1.8501854
		c1.2840729-0.0066986,2.5177231-0.165844,3.7416916-0.4935493c0.5684433-0.1521988,1.1326294-0.3327026,1.6778717-0.5522537
		c0.184845-0.0744286,0.305542-0.3081322,0.4555588-0.4690514c-0.1615601-0.1191635-0.309967-0.2667389-0.4884262-0.349411
		c-0.1738281-0.0805168-0.3854904-0.0750885-0.5682449-0.1413307c-0.7163239-0.2596817-1.4488373-0.4885521-2.1343384-0.8149757
		c-0.5410767-0.2576599-1.0349655-0.5125809-1.6722565-0.3927231C79.315033,35.1749001,78.98909,35.0302086,78.68013,34.975769
		c0.226326-0.1518097,0.4487991-0.3097687,0.6796417-0.4543686c1.0688324-0.6695137,2.2541428-0.9746437,3.4948502-1.0865822
		c0.8957977-0.0808182,1.7981873-0.100605,2.6902618-0.20858c2.4809113-0.3002815,4.1642227-2.2343426,4.7864227-4.4181156
		c0.1148529-0.4031181-0.0877609-0.5986443-0.4076385-0.7546291c-0.7374878-0.3596363-1.4998779-0.6783638-2.2030563-1.0963249
		c-2.1470795-1.2762165-2.4189224-3.4750843-0.6857376-5.3019581c1.0590668-1.116312,2.3948059-1.7913799,3.8028412-2.3338089
		c1.6230316-0.6252499,3.3058777-1.0148926,5.0340881-1.2253094c0.2172546-0.026453,0.4098053-0.2558575,0.6138-0.3912258
		c-0.1559296-0.1731358-0.2849655-0.4555244-0.4721909-0.5016289c-1.1932068-0.2938271-2.3968582-0.5477867-3.6032715-0.7830486
		c-0.2123413-0.0414104-0.4525604,0.0843105-0.6823273,0.1027508c-0.4244385,0.0340595-0.8808441,0.1536713-1.2699738,0.0447941
		c-0.8530426-0.2386646-1.6663055-0.0975857-2.4846649,0.0765572c-2.5894012,0.5509968-4.8469772,1.7420216-6.834938,3.4930248
		c-1.2522659,1.102993-2.2556305,2.375639-2.9915085,3.8644314c-0.5759354,1.1652069-0.8812256,2.3748646-0.8817825,3.7029724
		c-0.0004654,1.0964355,0.2226715,2.0802708,0.7498322,3.0135517c0.1208801,0.2140045,0.2819824,0.4151897,0.46035,0.58461
		c0.2994461,0.2844257,0.3435669,0.4383812-0.1149063,0.6126785c-0.9647522,0.3667545-1.8980713,0.8161449-2.8627625,1.1830769
		c-0.7144241,0.2717361-0.7354279,0.1541367-0.7283096-0.5898895c0.01297-1.3554077,0.2559509-2.6833401,0.1108246-4.0713444
		c-0.2231979-2.1346169-0.8350449-4.0581245-2.175766-5.7006741c-0.6330872-0.7756081-1.4836807-1.3734512-2.2335815-2.0541859
		c-0.1144638-0.1039143-0.2173615-0.2205715-0.3255997-0.331337c0.1391296-0.0935841,0.2660217-0.2231445,0.4192657-0.2752094
		c1.5728226-0.5343914,3.1531982-1.0467491,4.7221527-1.5920639c0.2273102-0.0790043,0.4055405-0.2991714,0.6064911-0.4540157
		c-0.1694031-0.20751-0.3195724-0.435564-0.5133896-0.6169739c-0.2101517-0.1966972-0.4609756-0.3499432-0.6940613-0.5221367
		c0.2722397-0.1201134,0.5357437-0.2682858,0.8180161-0.3561306c4.1327667-1.2860947,8.3300323-2.2982016,12.6204376-2.8920279
		c1.1772995-0.1629438,2.3655243-0.252306,3.5508423-0.3498907c0.7376556-0.0607338,1.4795761-0.0682993,2.218895-0.1113806
		c0.1930466-0.0112486,0.4021988-0.0270061,0.5718613-0.1079531c0.5905685-0.2817621,1.159462-0.2765188,1.7530975-0.0020084
		c0.2007141,0.0928164,0.4504852,0.1091366,0.6779938,0.1098795c2.6923981,0.0087585,5.3165131,0.4267197,7.8772888,1.2620773
		c0.2098923,0.0684729,0.5527267,0.0824881,0.6767426-0.0387869c0.122467-0.1197729,0.0568848-0.4436817,0.0509491-0.6774588
		c-0.0026093-0.1025629-0.0728302-0.2016516-0.0923462-0.306056c-0.0184555-0.0987587-0.0107193-0.2024145-0.0144958-0.3039141
		c0.1157227,0.0146198,0.2436752,0.0020638,0.3453674,0.0478563c2.2929916,1.0325203,4.2278824,2.5297852,5.6809006,4.5849628
		c1.5368576,2.1737423,2.3629303,4.6140499,2.5831528,7.276865c0.110817,1.3398952-0.0292816,2.6219921-0.5541382,3.8472786
		c-0.4929123,1.1507034-1.2405777,2.1123981-2.2978439,2.8204517c-1.4363708,0.9619274-2.9745178,1.6935444-4.64505,2.1471157
		c-0.6556015,0.1780128-0.7923431,0.4537773-0.5196381,1.0549583c0.4221039,0.9304962,0.4113388,1.8815041,0.0855026,2.8164749
		c-0.5103149,1.4642715-0.7613373,2.9349632-0.3476105,4.4646149c0.0326157,0.1206055,0.0396271,0.2603302,0.1076584,0.3563576
		c0.1051865,0.1484718,0.250679,0.366745,0.3830261,0.3695717c0.1287308,0.0027313,0.3416138-0.2075348,0.3816299-0.3599625
		c0.3590164-1.3674431,1.1147308-2.4820099,2.0412903-3.5309715c0.7034149-0.7963333,0.9281464-1.8359375,1.0732117-2.8732376
		c0.0664215-0.4748688,0.1541061-0.8984718,0.71978-1.0625954c0.3162613-0.0917549,0.4628906,0.0042534,0.5044403,0.2686958
		c0.0494385,0.3145523,0.0890198,0.6481972,0.0379257,0.9579124c-0.2068481,1.2539291-0.5174484,2.4441338-1.3945541,3.4655647
		c-0.8347015,0.972065-1.2952042,2.1753082-1.4657059,3.4587784c-0.0519943,0.3913155-0.1860275,0.476387-0.5850449,0.4641342
		c-0.5066986-0.0155449-1.0510025,0.0322342-1.5212173,0.2077408c-1.3947601,0.5205994-2.6545944,0.2336082-3.8064804-0.5764732
		c-1.3572235-0.9544983-4.1812515-0.1893425-5.0105057,0.9922333c-0.367981,0.524334-0.3419418,1.070488-0.3950958,1.6607018
		c-0.0836792,0.9293137,0.325264,1.5534706,0.969223,2.0692444c0.3966446,0.3176842,0.8841171,0.5218315,1.3302002,0.7780266
		c0.0884094,0.0507774,0.1740112,0.1064415,0.2608948,0.1598511c-0.0862503,0.0454483-0.1731796,0.0896835-0.258667,0.1365509
		c-0.5604095,0.307251-1.1140366,0.0388374-1.5933914-0.1457024c-0.720047-0.2772064-1.3969498-0.6964722-2.0398788-1.1324768
		c-0.372879-0.2528648-0.6610794-0.2847557-1.0190887-0.0483322c-1.3417664,0.8860855-2.3370895,2.0874023-3.1273804,3.4659729
		c-0.3095703,0.54002-0.5852737,1.1041641-0.8181686,1.6808357c-0.080658,0.1997299-0.0622711,0.5262985,0.0561066,0.6897736
		c0.0822601,0.1136055,0.4218826,0.0951729,0.630455,0.0541039c1.258728-0.2478714,2.5030899-0.6006966,3.7720947-0.7526817
		c0.7769318-0.0930519,1.6006775,0.050457,2.3820419,0.1996002c0.5822601,0.1111374,0.7505417,0.6418571,0.3204727,1.1121254
		c-0.6918716,0.756546-1.4133835,1.5291595-2.2559891,2.0965614c-2.4848633,1.6732826-5.2894135,2.5494194-8.2320938,3.0083847
		c-0.110054,0.0171585-0.2303391-0.0312805-0.3458557-0.04916c0.0840302-0.0788422,0.1574707-0.1752357,0.2539597-0.2334213
		c0.3816376-0.2301788,0.78759-0.424511,1.1483231-0.6827087c0.1458206-0.1043739,0.1986923-0.3385887,0.2938614-0.5137253
		c-0.1887512-0.0663528-0.3872299-0.2083931-0.564537-0.1856232c-0.6718369,0.0863113-1.3336258,0.2499123-2.0051575,0.339859
		c-0.8779984,0.1175957-1.7614975,0.194416-2.6429596,0.2856255c-0.7367554,0.0762367-1.4902039,0.2826576-2.2079239,0.1962128
		C79.0204697,58.2543297,76.9033966,58.1146927,74.9662857,57.2107277z M109.1667099,24.1347713
		c-0.2497253,1.0924816-0.4756012,2.0966892-0.7125549,3.0982819c-0.0320969,0.1356926-0.1094513,0.2647343-0.1851578,0.3846722
		c-0.0527496,0.0835762-0.1384888,0.1463375-0.2094803,0.218401c-0.0601883-0.0815811-0.1340942-0.156395-0.1782455-0.2458916
		c-0.2117157-0.4292221-0.3905563-0.877224-0.6347733-1.2865162c-0.0909348-0.1524086-0.3268738-0.2913647-0.499054-0.2942333
		c-0.0997772-0.0016651-0.2398376,0.2667446-0.3011398,0.4356251c-0.6503525,1.7918701-1.295433,3.585762-1.92099,5.386385
		c-0.0746078,0.2147655-0.1188965,0.549593-0.0054703,0.6887417c0.1090698,0.1338081,0.4615631,0.1623344,0.6720123,0.1060219
		c2.2033691-0.5895691,4.1364059-1.6349621,5.5892181-3.4443207c0.8979721-1.118351,1.324707-2.4270744,1.2446671-3.8359165
		c-0.0571976-1.0066223-0.2757568-2.0159626-0.527153-2.9972305c-0.5531464-2.1590233-1.5140305-4.1168957-3.1232376-5.7018452
		c-0.1587143-0.1563168-0.4480286-0.1800137-0.6767349-0.2652645c-0.0392838,0.2598705-0.1491852,0.5331955-0.1027832,0.776741
		c0.0896225,0.4704094,0.3014145,0.9166775,0.40271,1.3858776
		C108.4036713,20.4207935,108.7858429,22.3022423,109.1667099,24.1347713z M95.0559769,38.0698624
		c0.0246506-0.0521393,0.0493011-0.10429,0.0739441-0.1564293c0.1828766,0.1656723,0.429924,0.2975044,0.5380554,0.5025826
		c0.6382828,1.2105141,1.2314224,2.4448929,1.8742599,3.6528854c0.1023026,0.1922455,0.3790512,0.2916527,0.5751572,0.4339867
		c0.1011581-0.2258606,0.2804947-0.4489403,0.2886276-0.6781006c0.0233536-0.6577263-0.0057602-1.3189468-0.0457764-1.9768677
		c-0.0460892-0.7578583-0.0603867-1.5271873-0.2127838-2.2658806c-0.1120453-0.5431023-0.0110474-0.8773155,0.4424057-1.1712494
		c0.3875427-0.2512169,0.7585144-0.5376587,1.0949249-0.8531952c0.1294327-0.1214027,0.1430511-0.3662796,0.2094421-0.5548973
		c-0.1768417-0.0482979-0.3542328-0.1371727-0.5303879-0.1347733c-0.2281036,0.0030975-0.4542618,0.084877-0.68293,0.1225815
		c-1.5088882,0.2487755-2.8103714-0.1474304-3.9229431-1.2124901c-0.7823029-0.7489014-1.2337875-1.6891212-1.6801605-2.6454639
		c-0.1016769-0.2178326-0.3425674-0.5466595-0.4838486-0.5296211c-0.223259,0.026926-0.5016785,0.2613277-0.6086273,0.4802799
		c-0.7041397,1.4415665-1.8638458,2.3545609-3.3044434,2.962677c-0.3611374,0.1524429-0.7360687,0.2756767-1.0855331,0.4505539
		c-0.1415634,0.0708427-0.2319717,0.2439003-0.3456573,0.3704453c0.1236343,0.1057091,0.2313461,0.2522316,0.3744507,0.3080482
		c0.245224,0.0956497,0.5093842,0.1639023,0.7711639,0.1923485c1.2542114,0.1363068,2.3361511,0.5834961,3.1467438,1.6015968
		c0.429863,0.5399132,0.9685822,0.993351,1.6688766,1.0845985C93.8163834,38.1323547,94.4402542,38.0698624,95.0559769,38.0698624z"
		/>
	<path class="st2" d="M67.5851593,52.3081779c0.4466248-1.2638626,0.7831345-2.5460625,0.9028549-3.8931885
		c0.2880859-3.2417831-1.3393173-6.2960091-4.2182846-7.8157158c-0.1338806-0.0706749-0.2461853-0.1822205-0.3685341-0.2747269
		c0.1359749-0.1082878,0.2554436-0.264183,0.4103432-0.3179283c4.1681213-1.4460258,5.9937439-4.603363,6.3510895-8.7812805
		c0.0886688-1.0366611,0.0590591-2.1158047-0.1265869-3.1371784c-0.4626617-2.5455379-2.4775238-4.2495575-5.1111145-4.5047493
		c-1.1373444-0.1102028-2.2150383,0.0426846-3.3105011,0.3983536c-4.6463089,1.5085258-9.3112564,2.9596367-13.9692802,4.4320946
		c-0.2349014,0.0742531-0.4687271,0.1518974-0.7035484,0.3411083c0.6567574,0.0895481,1.3132706,0.1809769,1.9703789,0.2678776
		c0.3537102,0.0467739,0.7083473,0.086647,1.062748,0.1280766c0.6029663,0.0704842,0.6106491,0.0833416,0.4711685,0.6944962
		c-0.741951,3.2509918-1.4839821,6.5019684-2.2240715,9.7533836c-0.9617195,4.2250938-1.9213791,8.4506531-2.883709,12.6756096
		c-0.0273895,0.1202393-0.0750465,0.2358513-0.1132584,0.3536148c-0.1088676,0.0351868-0.2177353,0.0703659-0.3265991,0.1055412
		c0.5574608-2.4869614,1.1123199-4.9745178,1.6731453-7.4607201c0.5283737-2.3423386,1.0705452-4.6815948,1.5927048-7.0253105
		c0.4716339-2.1169395,0.9226189-4.238472,1.3868332-6.3570766c0.106823-0.487545,0.2229958-0.9733334,0.3481865-1.4564819
		c0.1647835-0.6359825,0.0012627-0.8692818-0.673008-0.9595928c-1.3414116-0.1796665-2.6819191-0.3661156-4.0461807-0.6384029
		c0.1314888-0.058054,0.2587357-0.1297626,0.3950996-0.1721401c2.3847961-0.7411861,4.774395-1.4671249,7.1553688-2.2203407
		c2.5173721-0.7963638,5.0240936-1.6263618,7.5406799-2.4252529c1.4059868-0.4463272,2.7794266-0.9574623,4.3196754-0.8873978
		c2.2735291,0.103426,4.9585953,1.5216503,5.5482559,4.0147514c0.1707764,0.7220325,0.3263931,1.4621143,0.3578186,2.1995125
		c0.0583801,1.3700562,0.0905991,2.7486744-0.3159866,4.0893955c-0.4886017,1.6111221-1.1188507,3.1232796-2.3100052,4.3874931
		c-0.7642899,0.8111763-1.6538925,1.4025726-2.5762939,1.976265c-0.677681,0.4214897-0.6869125,0.6082573-0.1219406,1.1375542
		c1.7060165,1.5983047,2.9384003,3.4027786,3.1375198,5.8688545c0.1736908,2.1512413-0.2664566,4.1133537-1.1195679,6.0360641
		C67.655426,52.6632195,67.6202927,52.4856987,67.5851593,52.3081779z"/>
	<path class="st2" d="M43.2412224,60.2681465c0.9239464-0.0131302,1.8481979-0.0157547,2.7717361-0.0428886
		c0.6719894-0.0197525,1.3425941-0.0896492,2.014576-0.1061211c1.7198524-0.04216,3.4414291-0.0360146,5.1598282-0.1082535
		c1.4423561-0.0606232,2.8812103-0.2045364,4.3216171-0.311573c-0.0852737,0.100811-0.1594582,0.2758827-0.2575912,0.290535
		c-0.7001953,0.1045189-1.4050789,0.1780853-2.1090126,0.2566605c-0.1053581,0.0117569-0.2258644-0.0340729-0.3184967,0.0013275
		c-0.8903465,0.3403053-1.7999725,0.0563087-2.6982193,0.1004562c-0.4231758,0.0207977-0.8423233,0.1177406-1.2655563,0.1447678
		c-0.4234772,0.02705-0.8501587-0.0008354-1.2747498,0.0144501c-0.8113213,0.0292168-1.6219826,0.0764313-2.4332619,0.1072617
		c-0.4077759,0.0154953-0.8164749,0.0054626-1.2244492,0.0175095c-0.8653221,0.0255318-1.7302818,0.0732498-2.5957031,0.0823364
		c-0.6018715,0.0063286-1.2043991-0.0342674-1.8057556-0.0690155c-0.0171242-0.000988-0.0687447-0.219368-0.0284615-0.2586555
		c0.1775131-0.1731377,0.3828545-0.3177414,0.5781212-0.472683c-0.0624847,0.5684738,0.0409889,0.6618919,0.5458374,0.5081825
		C42.8250046,60.3605423,43.034523,60.3189735,43.2412224,60.2681465z"/>
	<path class="st2" d="M60.3805923,58.8298187c1.5041466-0.6412506,2.9599762-1.3651161,4.2007294-2.4567413
		c0.0003891,0.1443748,0.0007782,0.2887459,0.0011749,0.4331207c-1.1368713,0.8467102-2.2994766,1.6496735-3.6439323,2.1434937
		C60.7525711,58.9097366,60.5665817,58.8697815,60.3805923,58.8298187z"/>
	<path class="st2" d="M67.5851669,52.3081779c0.0351257,0.1775208,0.0702591,0.3550415,0.1053925,0.5325623
		c-0.5358734,0.8216743-1.0717468,1.6433411-1.6076202,2.4650154c-0.141243,0.0003967-0.2825012,0.0007896-0.4237518,0.0011749
		C66.3011856,54.3073502,66.9431686,53.307766,67.5851669,52.3081779z"/>
	<path class="st2" d="M44.643055,57.3422623c0.0850792,1.3265991-0.828228,1.9340744-1.8002052,2.4992828
		c0.0677223-0.1795731,0.0919724-0.3998566,0.2132072-0.5293236c0.1889534-0.2017708,0.4434929-0.3422279,0.6706657-0.5080795
		c0.3040199-0.2219429,0.5454216-0.4516754,0.5405922-0.8939896C44.2652626,57.7222519,44.5103035,57.5316429,44.643055,57.3422623z
		"/>
	<path class="st2" d="M60.3805923,58.8298187c0.1859894,0.0399628,0.3719788,0.0799179,0.557972,0.119873
		c-0.6237106,0.2230797-1.1994286,0.6558075-1.9235344,0.4403267C59.4702187,59.203289,59.9254074,59.0165558,60.3805923,58.8298187
		z"/>
	<path class="st2" d="M65.6591873,55.3069305c0.1412506-0.0003853,0.2825089-0.0007782,0.4237518-0.0011749
		c-0.500145,0.5001411-1.0002899,1.0002937-1.5004425,1.5004425c-0.0003967-0.1443748-0.0007858-0.2887459-0.0011749-0.4331207
		C64.9406052,56.0176964,65.2998962,55.6623154,65.6591873,55.3069305z"/>
	<path class="st2" d="M43.2412224,60.2681465c-0.2066994,0.050827-0.4162178,0.0923958-0.6195412,0.1542969
		c-0.5048485,0.1537094-0.6083221,0.0602913-0.5458374-0.5081825c0.2169876,0.0014915,0.4339752,0.0029907,0.6509666,0.0044861
		c-0.0611496,0.0933723-0.1222992,0.1867409-0.183445,0.2801056c0.0962906,0.018486,0.1918793,0.0448265,0.2890549,0.0535393
		C42.9680634,60.2645454,43.1048965,60.2635269,43.2412224,60.2681465z"/>
	<path class="st2" d="M45.1789284,54.9844208c-0.0700035,0.3214569-0.1400032,0.6429214-0.2100067,0.9643822
		C44.6708755,55.5621643,44.728363,55.2981873,45.1789284,54.9844208z"/>
	<path class="st2" d="M45.3982544,52.7335663c0.1088638-0.0351753,0.2177315-0.0703545,0.3265953-0.1055412
		c-0.0733528,0.3209839-0.1467056,0.6419563-0.2200546,0.9629364
		C45.1135902,53.3493614,45.4243202,53.0205383,45.3982544,52.7335663z"/>
	<path class="st2" d="M109.1667099,24.1347713c-0.380867-1.8325291-0.7630386-3.7139778-1.1681671-5.5904713
		c-0.1012955-0.4692001-0.3130875-0.9154682-0.40271-1.3858776c-0.046402-0.2435455,0.0634995-0.5168705,0.1027832-0.776741
		c0.2287064,0.0852509,0.5180206,0.1089478,0.6767349,0.2652645c1.6092072,1.5849495,2.5700912,3.5428219,3.1232376,5.7018452
		c0.2513962,0.9812679,0.4699554,1.9906082,0.527153,2.9972305c0.08004,1.4088421-0.3466949,2.7175655-1.2446671,3.8359165
		c-1.4528122,1.8093586-3.385849,2.8547516-5.5892181,3.4443207c-0.2104492,0.0563126-0.5629425,0.0277863-0.6720123-0.1060219
		c-0.1134262-0.1391487-0.0691376-0.4739761,0.0054703-0.6887417c0.6255569-1.8006229,1.2706375-3.5945148,1.92099-5.386385
		c0.0613022-0.1688805,0.2013626-0.4372902,0.3011398-0.4356251c0.1721802,0.0028687,0.4081192,0.1418247,0.499054,0.2942333
		c0.2442169,0.4092922,0.4230576,0.8572941,0.6347733,1.2865162c0.0441513,0.0894966,0.1180573,0.1643105,0.1782455,0.2458916
		c0.0709915-0.0720634,0.1567307-0.1348248,0.2094803-0.218401c0.0757065-0.1199379,0.1530609-0.2489796,0.1851578-0.3846722
		C108.6911087,26.2314606,108.9169846,25.227253,109.1667099,24.1347713z M109.3452225,24.1202888
		c-0.0965576,0.775919-0.1199188,1.5704746-0.3113556,2.3222313c-0.1730728,0.6796532-0.5166397,1.3186569-0.8157654,1.9612732
		c-0.0652008,0.1400528-0.2610245,0.219305-0.3966827,0.326561c-0.0522537-0.1547203-0.0991898-0.3114834-0.157692-0.4638023
		c-0.221077-0.575655-0.4417343-1.1515808-0.67556-1.7220669c-0.0245895-0.059988-0.1351089-0.0847549-0.2057648-0.1258583
		c-0.0271759,0.0620823-0.0650406,0.1217422-0.0797272,0.1866493c-0.0746536,0.3301525-0.1063995,0.6750202-0.2204666,0.9903946
		c-0.4967499,1.3733788-1.0201492,2.7371006-1.5246429,4.1077271c-0.0697708,0.1895485-0.0879669,0.3980808-0.130043,0.5978222
		c0.1888657-0.0197716,0.3871078-0.0091629,0.5651093-0.064106c1.4989777-0.4626789,2.8901672-1.1508369,4.0796814-2.1761074
		c1.3347092-1.1504173,2.22155-2.5578442,2.1587601-4.4046021c-0.1083832-3.1876278-1.0928879-6.0469131-3.220253-8.4671249
		c-0.1181412-0.1344109-0.2896881-0.2218895-0.4363708-0.3312149c0.0151901,0.1836987,0.0276031,0.3676949,0.047348,0.5509033
		c0.0056,0.0519428,0.0339432,0.10116,0.0495377,0.152338C108.7225037,19.6986485,109.2579346,21.8572826,109.3452225,24.1202888z"
		/>
	<path class="st2" d="M95.0559769,38.0698624c-0.6157227,0-1.2395935,0.0624924-1.8450394-0.0163841
		c-0.7002945-0.0912476-1.2390137-0.5446854-1.6688766-1.0845985c-0.8105927-1.0181007-1.8925323-1.4652901-3.1467438-1.6015968
		c-0.2617798-0.0284462-0.5259399-0.0966988-0.7711639-0.1923485c-0.1431046-0.0558167-0.2508163-0.2023392-0.3744507-0.3080482
		c0.1136856-0.126545,0.2040939-0.2996025,0.3456573-0.3704453c0.3494644-0.1748772,0.7243958-0.298111,1.0855331-0.4505539
		c1.4405975-0.6081161,2.6003036-1.5211105,3.3044434-2.962677c0.1069489-0.2189522,0.3853683-0.4533539,0.6086273-0.4802799
		c0.1412811-0.0170383,0.3821716,0.3117886,0.4838486,0.5296211c0.446373,0.9563427,0.8978577,1.8965626,1.6801605,2.6454639
		c1.1125717,1.0650597,2.4140549,1.4612656,3.9229431,1.2124901c0.2286682-0.0377045,0.4548264-0.1194839,0.68293-0.1225815
		c0.1761551-0.0023994,0.3535461,0.0864754,0.5303879,0.1347733c-0.066391,0.1886177-0.0800095,0.4334946-0.2094421,0.5548973
		c-0.3364105,0.3155365-0.7073822,0.6019783-1.0949249,0.8531952c-0.4534531,0.2939339-0.554451,0.6281471-0.4424057,1.1712494
		c0.1523972,0.7386932,0.1666946,1.5080223,0.2127838,2.2658806c0.0400162,0.6579208,0.0691299,1.3191414,0.0457764,1.9768677
		c-0.0081329,0.2291603-0.1874695,0.45224-0.2886276,0.6781006c-0.196106-0.142334-0.4728546-0.2417412-0.5751572-0.4339867
		c-0.6428375-1.2079926-1.2359772-2.4423714-1.8742599-3.6528854c-0.1081314-0.2050781-0.3551788-0.3369102-0.5380554-0.5025826
		C95.105278,37.9655724,95.0806274,38.0177231,95.0559769,38.0698624z M99.4397049,35.3362045
		c-0.0254593-0.0378227-0.0509186-0.0756416-0.0763779-0.1134605c-0.1031036,0.0170746-0.2073059,0.0291901-0.3091278,0.0519524
		c-2.1466446,0.4799461-3.8798981-0.1826439-5.1510086-1.9545135c-0.4521027-0.6302147-0.7540131-1.3678513-1.1296082-2.0536404
		c-0.0561523-0.1025238-0.140564-0.1895771-0.2118988-0.2837868c-0.0811539,0.085556-0.1891708,0.1577244-0.2394485,0.2586613
		c-0.8391113,1.6842575-2.2618103,2.6684837-3.961525,3.3265419c-0.194603,0.0753403-0.3799362,0.1746292-0.5695648,0.2628174
		c0.225769,0.0708427,0.4482498,0.188694,0.6778564,0.2048035c1.3559189,0.095108,2.4887009,0.6398888,3.3394089,1.6938515
		c0.8361969,1.0359764,1.8805084,1.3002167,3.1061096,0.9299774c0.4229202-0.1277657,0.6929321-0.0355453,0.8875504,0.3318405
		c0.640976,1.2099648,1.2750244,2.4235992,1.9171371,3.6329575c0.0698624,0.131588,0.1748657,0.2444992,0.2635803,0.3660774
		c0.0479813-0.1430206,0.1324539-0.284565,0.1383133-0.4292946c0.0579758-1.432148-0.0059738-2.8579445-0.3764725-4.2494202
		c-0.1156921-0.4344749-0.008194-0.7091103,0.3466187-0.9565964C98.5529633,36.0329208,98.9913101,35.6773491,99.4397049,35.3362045
		z"/>
	<path class="st2" d="M46.5605354,58.5462761c-0.6253014,0.1191711-0.4773178-0.2736549-0.4019585-0.6054802
		c1.1141243-4.9058723,2.2302856-9.8112755,3.3462601-14.7167206c1.0525513-4.6266861,2.1140099-9.2513885,3.1449966-13.8828716
		c0.1032028-0.4635963,0.3293762-0.6486092,0.7447739-0.7695599c0.3834457-0.1116524,0.5209198-0.1161804,0.4076576,0.3576508
		c-0.4022713,1.6828842-0.7673225,3.3746452-1.1500587,5.0622253c-1.8110466,7.985363-3.6239662,15.9702911-5.4329491,23.9561234
		C47.1360512,58.3149567,47.0736198,58.6777649,46.5605354,58.5462761z"/>
	<path class="st2" d="M53.7154503,57.7962494c-0.3733826-0.0284233-0.7464294-0.0733757-1.1202354-0.080925
		c-0.4308243-0.0086937-0.4931602-0.211483-0.4039345-0.5881844c0.3247032-1.3708916,0.6282082-2.7467842,0.941349-4.12043
		c0.7055054-3.0948181,1.4197464-6.1876907,2.1088142-9.2861633c0.0921402-0.4143257,0.2715988-0.6397743,0.6912956-0.6592903
		c0.8486176-0.0394478,1.7123451-0.1933556,2.5427513-0.0875168c1.439064,0.1834297,2.3142128,1.1188431,2.6740913,2.505146
		c0.4484444,1.727459,0.1967773,3.4404068-0.2069016,5.136013c-0.4379349,1.8395004-1.0937576,3.5887337-2.3473663,5.0474281
		C57.3159485,57.1509895,55.6764488,57.843708,53.7154503,57.7962494z M57.0802803,56.3775024
		c0.2497711-0.2866745,0.4995422-0.5733376,0.7493134-0.8600006c0.0351677-0.0351562,0.0703354-0.0703011,0.1055031-0.1054535
		c0.133049-0.0822029,0.3153915-0.1330147,0.3910141-0.2517815c0.434948-0.6830864,0.8743324-1.3665619,1.2524452-2.0815125
		c0.2543831-0.4809952,0.4099884-1.0142365,0.609787-1.5241089c0.6718445-1.7838364,0.9411125-3.6305962,0.6544342-5.512188
		c-0.09198-0.6036644-0.4103317-1.2362061-0.7959099-1.7191772c-0.929348-1.1640892-2.6904869-1.1792603-3.8599892-0.8292694
		c-0.2492485,0.0745926-0.4881287,0.4174728-0.5925713,0.6900826c-0.177063,0.4621582-0.2497444,0.965374-0.3548355,1.4538078
		c-0.2473907,1.1497993-0.4880219,2.3010635-0.7313766,3.4517288c-0.4644241,2.0363159-0.9288445,4.0726357-1.3932724,6.1089516
		c-0.1240997,0.425354-0.2732964,0.8453178-0.3661385,1.2773933c-0.124279,0.5784302,0.1050224,0.7895737,0.6932106,0.7311592
		c0.3509712-0.0348434,0.7088623-0.0468216,1.0602455-0.0216713C55.4721184,57.2548943,56.3248596,56.9785194,57.0802803,56.3775024
		z"/>
	<path class="st2" d="M64.1857681,31.232605c-0.1383591,1.495018-0.331398,2.9390106-0.77034,4.3445091
		c-0.925457,2.9633255-2.9550781,4.6167259-6.0105438,5.0424881c-0.3527336,0.0491524-0.7077866,0.082077-1.0620995,0.1193047
		c-0.2678909,0.0281525-0.3887672-0.0360451-0.3163567-0.3563271c0.9350433-4.13554,1.85606-8.2742538,2.7935066-12.4092445
		c0.038105-0.1680775,0.1782112-0.4096165,0.3137474-0.4431095c0.78759-0.1946163,1.5862007-0.4557076,2.3846054-0.4681187
		c1.0628128-0.0165348,1.8356895,0.6206627,2.1526566,1.6269703C63.9293785,29.5095711,64.0204697,30.3827744,64.1857681,31.232605z
		 M63.715374,30.6310081c-0.2774391-0.7306232-0.4598007-1.5319176-0.8636742-2.1991291
		c-0.6048546-0.9992428-1.6377182-0.906435-2.6398201-0.7514515c-0.84869,0.1312599-1.0191193,0.783247-1.1728439,1.4666405
		c-0.4387665,1.9505749-0.8859024,3.8992653-1.3279648,5.8491058c-0.3354912,1.4797935-0.6720886,2.9593582-0.9999962,4.4408455
		c-0.1041183,0.4704132,0.0317078,0.6842194,0.4391251,0.6278381c1.0986519-0.1520424,2.1854553-0.3568344,3.1298027-1.0053101
		c1.5869446-1.0897484,2.504097-2.6265106,2.8719902-4.4757347C63.4068947,33.3025513,63.5261803,31.9943085,63.715374,30.6310081z"
		/>
	<path class="st2" d="M61.0220528,55.649147c0.9492226-1.3276405,1.6161995-2.7763405,1.9749298-4.3592072
		c0.4238853-1.8703461,0.7001228-3.7569122,0.404583-5.6773605c-0.0644951-0.419075-0.223465-0.8232117-0.3300743-1.236515
		c-0.0227013-0.0880013-0.0068321-0.1859665-0.0087318-0.2793388c0.0780678,0.0374947,0.1681442,0.0606918,0.2323837,0.1146507
		c0.8305969,0.6977005,1.2825089,1.6148796,1.4823837,2.6589432C65.3810959,50.0230598,63.7431679,53.8875351,61.0220528,55.649147z
		"/>
	<path class="st2" d="M65.2364197,27.3646832c0.5680542,0.3571358,0.9742661,0.8480358,1.2797318,1.4338284
		c0.5670471,1.0873737,0.5986633,2.2595234,0.526825,3.4420357c-0.1498337,2.4660606-1.2153397,4.4695511-3.0965614,6.0527267
		c-0.0407066,0.034256-0.081356,0.069828-0.1267738,0.0968056c-0.0270805,0.0160789-0.0634232,0.0165672-0.1365013,0.033596
		C65.8674774,34.9671974,66.3859634,31.3023338,65.2364197,27.3646832z"/>
	<path class="st10" d="M109.3452225,24.1202888c-0.0872879-2.2630062-0.6227188-4.4216404-1.2738876-6.5589828
		c-0.0155945-0.051178-0.0439377-0.1003952-0.0495377-0.152338c-0.0197449-0.1832085-0.0321579-0.3672047-0.047348-0.5509033
		c0.1466827,0.1093254,0.3182297,0.196804,0.4363708,0.3312149c2.1273651,2.4202118,3.1118698,5.2794971,3.220253,8.4671249
		c0.0627899,1.8467579-0.8240509,3.2541847-2.1587601,4.4046021c-1.1895142,1.0252705-2.5807037,1.7134285-4.0796814,2.1761074
		c-0.1780014,0.0549431-0.3762436,0.0443344-0.5651093,0.064106c0.0420761-0.1997414,0.0602722-0.4082737,0.130043-0.5978222
		c0.5044937-1.3706264,1.0278931-2.7343483,1.5246429-4.1077271c0.1140671-0.3153744,0.145813-0.6602421,0.2204666-0.9903946
		c0.0146866-0.0649071,0.0525513-0.124567,0.0797272-0.1866493c0.0706558,0.0411034,0.1811752,0.0658703,0.2057648,0.1258583
		c0.2338257,0.5704861,0.454483,1.1464119,0.67556,1.7220669c0.0585022,0.152319,0.1054382,0.309082,0.157692,0.4638023
		c0.1356583-0.1072559,0.3314819-0.1865082,0.3966827-0.326561c0.2991257-0.6426163,0.6426926-1.28162,0.8157654-1.9612732
		C109.2253036,25.6907635,109.2486649,24.8962078,109.3452225,24.1202888z"/>
	<path class="st10" d="M99.4397049,35.3362045c-0.4483948,0.3411446-0.8867416,0.6967163-1.3484573,1.0187683
		c-0.3548126,0.2474861-0.4623108,0.5221214-0.3466187,0.9565964c0.3704987,1.3914757,0.4344482,2.8172722,0.3764725,4.2494202
		c-0.0058594,0.1447296-0.090332,0.286274-0.1383133,0.4292946c-0.0887146-0.1215782-0.193718-0.2344894-0.2635803-0.3660774
		c-0.6421127-1.2093582-1.2761612-2.4229927-1.9171371-3.6329575c-0.1946182-0.3673859-0.4646301-0.4596062-0.8875504-0.3318405
		c-1.2256012,0.3702393-2.2699127,0.105999-3.1061096-0.9299774c-0.850708-1.0539627-1.98349-1.5987434-3.3394089-1.6938515
		c-0.2296066-0.0161095-0.4520874-0.1339607-0.6778564-0.2048035c0.1896286-0.0881882,0.3749619-0.1874771,0.5695648-0.2628174
		c1.6997147-0.6580582,3.1224136-1.6422844,3.961525-3.3265419c0.0502777-0.1009369,0.1582947-0.1731052,0.2394485-0.2586613
		c0.0713348,0.0942097,0.1557465,0.181263,0.2118988,0.2837868c0.3755951,0.6857891,0.6775055,1.4234257,1.1296082,2.0536404
		c1.2711105,1.7718697,3.004364,2.4344597,5.1510086,1.9545135c0.1018219-0.0227623,0.2060242-0.0348778,0.3091278-0.0519524
		C99.3887863,35.2605629,99.4142456,35.2983818,99.4397049,35.3362045z M94.1776428,36.5012894
		c-0.1755676-0.1133804-0.2357788-0.142025-0.2834396-0.1846962c-0.3533554-0.3163605-1.0963974-0.4487-0.567337-1.1898041
		c0.0184631-0.0258522-0.0096512-0.1029205-0.0371704-0.1407471c-0.1880646-0.2585106-0.3757172-0.5180321-0.5818405-0.7617111
		c-0.0240479-0.0284195-0.2247543,0.0221214-0.2348557,0.0629501c-0.1504135,0.6078835-0.2963333,1.2333946,0.1051788,1.7962341
		C92.9375076,36.5872192,93.4818726,36.5710373,94.1776428,36.5012894z"/>
	<path class="st10" d="M57.9351006,55.4120483c-0.0351715,0.0351524-0.0703392,0.0702972-0.1055069,0.1054535
		c-0.1367226,0.077919-0.2847862,0.1411018-0.4083443,0.2361374c-0.8314934,0.6396141-1.760952,1.0376053-2.8048744,1.1618805
		c-0.4293785-0.0000801-0.8587608-0.0001564-1.2881393-0.0002441c-0.0517502-0.2216072-0.1856384-0.460907-0.1423302-0.662056
		c0.3677673-1.7083282,0.7684784-3.4095612,1.1579781-5.1132278c0.5563774-2.4335823,1.1116371-4.8674278,1.6673737-7.3011627
		c0.636219-0.0359459,1.2723846-0.1003723,1.9086647-0.1015205c1.1100845-0.0020103,2.0697823,0.6457863,2.3731461,1.713913
		c0.2049103,0.7215004,0.2238274,1.4958267,0.3259354,2.246521c-0.0371094,0.3357773-0.0589333,0.6740799-0.1138077,1.0069313
		c-0.3646431,2.211731-0.8661804,4.3734283-2.2894325,6.1959381C58.0976219,55.0518951,58.027523,55.2406883,57.9351006,55.4120483z
		"/>
	<path class="st2" d="M60.6190033,47.6977425c-0.102108-0.7506943-0.1210251-1.5250206-0.3259354-2.246521
		c-0.3033638-1.0681267-1.2630615-1.7159233-2.3731461-1.713913c-0.6362801,0.0011482-1.2724457,0.0655746-1.9086647,0.1015205
		c-0.1411972,0.2879219-0.3353271,0.5620308-0.4146042,0.8660965c-0.3798981,1.4571266-0.7287102,2.9223518-1.0885696,4.3847046
		c0.2433662-1.1506653,0.4839973-2.3019295,0.7313881-3.4517288c0.1050911-0.4884338,0.1777725-0.9916496,0.3548355-1.4538078
		c0.1044426-0.2726097,0.3433228-0.61549,0.5925713-0.6900826c1.1695023-0.3499908,2.9306412-0.3348198,3.8599892,0.8292694
		c0.3855782,0.4829712,0.7039299,1.1155128,0.7959099,1.7191772c0.2866783,1.8815918,0.0174103,3.7283516-0.6544342,5.512188
		c0.1972046-1.0036774,0.4159927-2.0039177,0.5771027-3.0133476C60.8079987,48.2746964,60.672657,47.9796982,60.6190033,47.6977425z
		"/>
	<path class="st2" d="M54.508091,49.0896301c0.3598518-1.4623528,0.7086639-2.927578,1.088562-4.3847046
		c0.079277-0.3040657,0.273407-0.5781746,0.4146042-0.8660965c-0.5557365,2.4337349-1.1109962,4.8675804-1.6673737,7.3011627
		c-0.3894997,1.7036667-0.7902107,3.4048996-1.1579781,5.1132278c-0.0433083,0.201149,0.09058,0.4404488,0.1423302,0.662056
		c-0.3978767,0.2481155-0.5132103,0.026207-0.4703827-0.3201141c0.0579948-0.4689484,0.1688118-0.9313622,0.2569695-1.3965797
		C53.5792503,53.1622658,54.0436707,51.125946,54.508091,49.0896301z"/>
	<path class="st2" d="M60.6190033,47.6977425c0.0536537,0.2819557,0.1889954,0.5769539,0.1464424,0.8435555
		c-0.1611099,1.0094299-0.3798981,2.0096703-0.5771027,3.0133476c-0.1997986,0.5098724-0.3554039,1.0431137-0.609787,1.5241089
		c-0.3781128,0.7149506-0.8174973,1.3984261-1.2524452,2.0815125c-0.0756226,0.1187668-0.2579651,0.1695786-0.3910103,0.2517815
		c0.0924225-0.17136,0.1625214-0.3601532,0.2806625-0.5114365c1.4232521-1.8225098,1.9247894-3.9842072,2.2894325-6.1959381
		C60.56007,48.3718224,60.5818939,48.0335197,60.6190033,47.6977425z"/>
	<path class="st2" d="M53.1148224,55.1985817c-0.0881577,0.4652176-0.1989746,0.9276314-0.2569695,1.3965797
		c-0.0428276,0.3463211,0.072506,0.5682297,0.4703827,0.3201141c0.4293785,0.0000877,0.8587608,0.000164,1.2881393,0.0002441
		c0.2074738,0.0450287,0.4395905,0.1730461,0.6179695,0.120079c0.6253128-0.1856842,1.2321091-0.4337273,1.8459358-0.6580963
		c-0.7554207,0.601017-1.6081619,0.8773918-2.5781403,0.8079605c-0.3513832-0.0251503-0.7092743-0.0131721-1.0602455,0.0216713
		c-0.5881882,0.0584145-0.8174896-0.152729-0.6932106-0.7311592C52.841526,56.0438995,52.9907227,55.6239357,53.1148224,55.1985817z
		"/>
	<path class="st2" d="M57.0802803,56.3775024c-0.6138268,0.224369-1.220623,0.4724121-1.8459358,0.6580963
		c-0.1783791,0.0529671-0.4104958-0.0750504-0.6179695-0.120079c1.0439224-0.1242752,1.973381-0.5222664,2.8048744-1.1618805
		c0.123558-0.0950356,0.2716217-0.1582184,0.4083443-0.2361374C57.5798225,55.8041649,57.3300514,56.0908279,57.0802803,56.3775024z
		"/>
	<path class="st2" d="M63.715374,30.6310081c-0.1891937,1.3633003-0.3084793,2.6715431-0.5633812,3.9528046
		c-0.3678932,1.8492241-1.2850456,3.3859863-2.8719902,4.4757347c-0.9443474,0.6484756-2.0311508,0.8532677-3.1298027,1.0053101
		c-0.4074173,0.0563812-0.5432434-0.1574249-0.4391251-0.6278381c0.3279076-1.4814873,0.664505-2.9610519,0.9999962-4.4408455
		c0.4420624-1.9498405,0.8891983-3.898531,1.3279648-5.8491058c0.1537247-0.6833935,0.3241539-1.3353806,1.1728439-1.4666405
		c1.0021019-0.1549835,2.0349655-0.2477913,2.6398201,0.7514515C63.2555733,29.0990906,63.4379349,29.9003849,63.715374,30.6310081z
		 M63.341053,31.0482712c-0.1162567-0.5087681-0.224144-1.3473778-0.5071068-2.1220379
		c-0.319912-0.8758163-1.1135864-1.184288-2.2266884-1.0405655c-0.9235268,0.1192436-1.0431976,0.2687511-1.2916946,1.3931084
		c-0.3963699,1.7934799-0.8166237,3.5816784-1.2246933,5.3725834c-0.3486366,1.5300446-0.6902618,3.0617027-1.0442162,4.5905113
		c-0.0871964,0.3766289,0.0160179,0.5613365,0.4203758,0.4978905c2.0578537-0.322876,3.67453-1.2786217,4.6554222-3.1886902
		C62.9589195,34.922226,63.1627731,33.1593552,63.341053,31.0482712z"/>
	<path class="st10" d="M63.341053,31.0482712c-0.1782799,2.111084-0.3821335,3.8739548-1.2186012,5.5028
		c-0.9808922,1.9100685-2.5975685,2.8658142-4.6554222,3.1886902c-0.4043579,0.063446-0.5075722-0.1212616-0.4203758-0.4978905
		c0.3539543-1.5288086,0.6955795-3.0604668,1.0442162-4.5905113c0.4080696-1.790905,0.8283234-3.5791035,1.2246933-5.3725834
		c0.248497-1.1243572,0.3681679-1.2738647,1.2916946-1.3931084c1.113102-0.1437225,1.9067764,0.1647491,2.2266884,1.0405655
		C63.116909,29.7008934,63.2247963,30.5395031,63.341053,31.0482712z"/>
</g>
</svg>
