<?xml version="1.0" encoding="UTF-8"?>
<svg width="78px" height="75px" viewBox="0 0 78 75" version="1.1" xmlns="http://www.w3.org/2000/svg" xmlns:xlink="http://www.w3.org/1999/xlink">
    <!-- Generator: Sketch 56.3 (81716) - https://sketch.com -->
    <title>Artboard</title>
    <desc>Created with Sketch.</desc>
    <g id="Artboard" stroke="none" stroke-width="1" fill="none" fill-rule="evenodd">
        <g id="bucknell" transform="translate(0.000000, 16.000000)" fill="#63C083" fill-rule="nonzero">
            <g id="J0zaoI_1_">
                <g id="Group">
                    <path d="M19.2618947,18.3444375 C16.3471579,18.3444375 13.7362105,18.3444375 11.1334737,18.3444375 C19.656,14.1148889 28.5151579,10.7050203 37.8997895,7.81974684 C36.972,7.37711966 36.2987368,7.04924767 35.2724211,6.55743969 C44.0248421,3.48363984 52.5637895,1.09017435 61.7842105,1.54919513 C61.7103158,1.10656795 61.6446316,0.729515166 61.5625263,0.286887987 C64.1652632,0.467217578 66.4313684,1.36066874 68.5496842,2.67215668 C70.7008421,4.00003821 72.1787368,5.92628612 73.32,8.23778362 C73.9932632,6.86891808 73.9275789,6.4180941 72.8602105,4.40168139 C76.6124211,4.47545259 78.9031579,8.42631001 77.0147368,11.5902747 C76.8176842,11.9263434 76.6452632,12.3197898 76.3496842,12.5411034 C74.2724211,14.0575113 73.5416842,16.5001576 72.228,18.5329639 C72.0391579,18.8280487 72.0473684,19.3444471 72.1458947,19.7051063 C72.5317895,21.0411846 72.2197895,22.213327 71.6943158,23.4592405 C70.9964211,25.1067972 70.5612632,26.8609123 69.9536842,28.5412563 C69.7237895,29.1724098 69.4938947,30.065861 69.0094737,30.2871746 C66.9650526,31.2216097 65.9223158,33.8199952 63.0896842,33.4839264 C63.9025263,35.3446 63.0157895,36.5003487 61.8827368,37.5167519 C58.968,40.1233341 55.4621053,41.3610509 51.6442105,41.8528588 C49.3124211,42.1561404 46.9970526,42.1397468 44.2629474,41.4594125 C44.9033684,41.0413757 45.2810526,40.7954717 45.6094737,40.5905517 C42.8835789,40.0577597 40.2397895,39.5249678 37.5877895,39.0495534 C37.2757895,38.9921758 36.8406316,39.1970958 36.5696842,39.4102126 C33.9669474,41.4758061 30.9783158,42.5086028 27.6858947,42.6315548 C21.3637895,42.869262 15.0416842,43.033198 8.71957895,43.2217244 C8.51431579,43.2299212 8.30905263,43.1807404 7.72610526,43.1233628 C8.52252632,42.5577836 9.048,42.1643372 9.58989474,41.7872845 C11.7164211,40.2954669 13.8593684,38.8282398 15.9776842,37.3200287 C16.3471579,37.0577311 16.8397895,36.7134655 16.9218947,36.3282159 C17.7018947,32.8773633 18.3997895,29.4183138 19.1715789,25.729754 C12.6770526,26.1559876 6.42884211,27.1314067 0.164210526,28.2133843 C6.02652632,24.1313781 12.48,21.2215142 19.2618947,18.3444375 Z M34.4924211,24.5740053 C37.2347368,23.5821925 38.7865263,21.7461094 39.3037895,19.1559207 C39.7307368,17.016556 39.9442105,14.7788297 38.0886316,13.1066826 C36.3397895,11.5247003 34.3117895,11.7706043 32.2345263,12.4591354 C29.2458947,13.4509482 26.2326316,14.3689897 23.2275789,15.3198185 C22.8088421,15.4509673 22.4065263,15.6558873 21.684,15.9509721 C22.8252632,16.155892 23.6134737,16.2952376 24.4263158,16.44278 C24.3524211,16.9263912 24.3195789,17.3116408 24.2292632,17.6804968 C23.0551579,22.8444805 21.9385263,28.0248579 20.6494737,33.1724481 C20.0993684,35.3773872 20.3949474,37.9429854 18.2273684,39.6151326 C18.3997895,39.6889037 18.5147368,39.7708717 18.6214737,39.7708717 C22.2505263,39.6069358 25.9042105,39.6233294 29.5004211,39.2134894 C33.9094737,38.7052878 36.8816842,35.8200143 37.7355789,31.7298113 C38.3677895,28.6887987 37.1526316,26.4346788 34.4924211,24.5740053 Z M49.2877895,9.54927155 C47.4486316,10.6804299 46.3812632,12.1640506 46.176,14.1558729 C45.9707368,16.196876 47.3008421,18.000172 48.9347368,17.9427944 C49.5505263,17.918204 50.1581053,17.5247576 50.7656842,17.2952472 C50.3141053,16.8444232 49.9364211,16.2624504 49.4027368,15.9673657 C47.9412632,15.1558825 47.4157895,14.1722665 47.9494737,12.5738906 C48.2614737,11.6066683 48.7623158,10.6968235 49.2877895,9.54927155 Z M73.8372632,12.1968378 C76.1608421,10.9017435 76.8176842,8.14761882 75.2658947,6.99187007 C75.036,7.76236924 75.0524211,8.90172439 74.4941053,9.38533556 C73.4513684,10.2705899 73.4431579,11.1230571 73.8372632,12.1968378 Z M60.6922105,28.959293 C61.8581053,28.959293 62.6545263,28.8035539 63.3606316,28.9920802 C65.0027368,29.4265106 65.7663158,29.4265106 67.2852632,28.6969955 C65.6103158,28.4756819 63.8450526,28.1724003 62.0715789,28.0412515 C61.6774737,28.0166611 61.2423158,28.5740435 60.6922105,28.959293 Z M56.1682105,33.2626128 C57.6461053,33.1150705 58.7709474,33.0003153 59.904,32.8855601 C59.2389474,32.3691617 58.5082105,31.8937473 57.7610526,31.8855505 C57.3341053,31.8773537 56.8907368,32.6068689 56.1682105,33.2626128 Z" id="Shape"></path>
                    <path d="M25.5429474,37.4839647 C26.0437895,35.2298448 26.5446316,32.9757249 27.0454737,30.721605 C27.2261053,29.9265154 27.3574737,29.1068354 27.6202105,28.3445331 C27.8090526,27.8035443 28.1128421,26.9838643 28.5069474,26.8773059 C29.5743158,26.6150084 30.7812632,26.4920564 31.5941053,27.5658371 C31.8978947,27.9674803 32.1934737,28.4756819 32.2263158,28.9510963 C32.4069474,31.7052209 31.8568421,34.2872128 29.9602105,36.4019871 C28.9092632,37.5823262 27.5791579,37.8610174 25.5429474,37.4839647 Z" id="Path"></path>
                    <path d="M28.4412632,24.8772868 C28.9585263,22.4920182 29.4429474,20.2788823 29.9273684,18.0657464 C30.0505263,17.5165608 30.2722105,16.9837688 30.3050526,16.4345832 C30.3871579,15.2214569 31.0357895,14.8116169 32.1770526,14.8116169 C33.3183158,14.8116169 33.9423158,15.3608025 34.164,16.4345832 C34.6155789,18.5575543 34.2214737,20.5657702 33.2033684,22.4264438 C32.2591579,24.1395749 30.576,24.6805636 28.4412632,24.8772868 Z" id="Path"></path>
                    <path d="M26.5774737,16.0493337 C24.8861053,23.4674373 23.1947368,30.885541 21.5115789,38.3036446 C21.3309474,38.2626606 21.1585263,38.2216766 20.9778947,38.1806926 C22.6692632,30.762589 24.3606316,23.3526821 26.052,15.9345785 C26.2244211,15.9755625 26.4050526,16.0165465 26.5774737,16.0493337 Z" id="Path"></path>
                    <path d="M33.3675789,34.8036112 C33.6631579,32.8527729 33.9997895,30.6068498 34.3117895,28.5740435 C35.5433684,29.8363506 35.0671579,33.1724481 33.3675789,34.8036112 Z" id="Path"></path>
                    <path d="M35.9867368,15.8608073 C37.1033684,17.6067256 36.7667368,20.1887175 35.2477895,21.9346358 C35.4776842,20.0739623 35.7404211,17.8690232 35.9867368,15.8608073 Z" id="Path"></path>
                </g>
            </g>
        </g>
    </g>
</svg>