<?xml version="1.0" encoding="utf-8"?>
<!-- Generator: Adobe Illustrator 23.0.6, SVG Export Plug-In . SVG Version: 6.00 Build 0)  -->
<svg version="1.1" id="Layer_1" xmlns="http://www.w3.org/2000/svg" xmlns:xlink="http://www.w3.org/1999/xlink" x="0px" y="0px"
	 viewBox="0 0 100 100" style="enable-background:new 0 0 100 100;" xml:space="preserve">
<style type="text/css">
	.st0{fill:#63C083;}
	.st1{fill:#75C275;}
	.st2{fill:#65C086;}
	.st3{fill:none;stroke:#65C086;stroke-miterlimit:10;}
</style>
<g>
	<path class="st0" d="M43.28,52.79c0,0-2.77,2.61,0.92,8.8c0,0-0.09-1.91,0.64-4.53c0.46-1.63,1.02-3.22,1.02-3.92
		S43.92,52.79,43.28,52.79z"/>
	<path class="st0" d="M59.27,52.79c0,0,2.77,2.61-0.92,8.8c0,0,0.09-1.91-0.65-4.53c-0.46-1.63-1.01-3.22-1.01-3.92
		S58.62,52.79,59.27,52.79"/>
	<path class="st0" d="M45.12,70.03c0,0-2.77-2.61,0.92-8.8c0,0-0.09,1.93,0.65,4.53c0.46,1.63,1.01,3.23,1.01,3.92
		S45.77,70.03,45.12,70.03"/>
	<path class="st0" d="M57.7,70.03c0,0,2.77-2.61-0.92-8.8c0,0,0.09,1.93-0.65,4.53c-0.46,1.63-1.01,3.23-1.01,3.92
		S57.05,70.03,57.7,70.03z"/>
	<path class="st0" d="M45.64,53.35l1.66,4.53l1.76-3.71l1.99,3.75L53.12,54l1.84,3.88l1.81-4.27c0,0-4.39-2.1-5.68-2.1
		C49.8,51.51,46.01,52.96,45.64,53.35z"/>
	<path class="st0" d="M47.67,68.82l1.2-3.75l2.22,2.62l2.31-2.7l1.39,3.56c0,0-2.96,0.78-3.88,0.78
		C49.98,69.34,47.67,68.82,47.67,68.82z"/>
	<path class="st0" d="M60.57,59.11c-1.02,2.74-1.37,4.8-1.21,5.69c0.23,1.32,0.03,3.08-0.98,3.84c-0.7,0.52-1.61,0.11-2.37,0.06
		c-0.74-0.06-5.68-0.52-8.77,0.29c-1.84,0.48-2.95,0.41-3.35-0.23c-0.93-1.51-0.35-2.66-0.41-3.84c-0.11-2.37,0.09-3.16-1.16-5.4
		c-1.26-2.28-1.52-4.47,1.13-6.24c1.5,0.2,2.25,0.41,4.44,0.16c1.39-0.16,2.89-0.48,3-1.29h0.22c0.11,0.82,1.71,1.2,3,1.27
		c2.57,0.14,2.26,0.32,5.19-0.23C60.13,54.02,62.09,55.08,60.57,59.11 M63.36,49.24c-0.23,0.46-0.78,0.82-1.61,1.16
		c-1.89,0.78-7.16,0.58-8.32-0.36l-0.69-3.48h-3.45l-0.69,3.48c-1.16,0.94-5.31,1.19-7.62,0.36c-0.85-0.32-1.39-0.7-1.62-1.16
		l-1.84,0.32c0,0,0.94,1.33,1.16,1.77c0.2,0.41,1.04,0.9,2.15,1.13c-0.49,0.62-2.22,3.68-0.62,6.77c0.86,1.64,2.08,3.27,1.79,5.63
		c-0.34,2.8-0.87,4.31,0.46,5.81c1.04,1.17,2.78,1.04,5.2,0.36c3.46-0.99,7.33-0.12,8.43,0.11c1.11,0.23,3.23,0.47,4.21-0.64
		c0.98-1.1,1.05-3.86,0.98-5.69c-0.11-3.05,0.75-4.41,1.39-5.57c1.53-2.79,0.12-5.97-0.65-6.9c1.29-0.14,1.9-0.71,2.05-1.01
		c0.22-0.44,0.91-1.69,0.91-1.69L63.36,49.24z"/>
	<path class="st0" d="M42.96,61.49c0.16,1.31,1.48,3.78,1.48,3.78c-0.66,1.98,0.82,4.94,0.82,4.94l-1.81,0.16l-1.15-4.6L42.96,61.49
		"/>
	<path class="st0" d="M59.94,62.47c-0.1,1.15-1.43,2.96-1.43,2.96l-0.1,4.1l1.43,0.66l0.71-4.94L59.94,62.47"/>
	<path class="st0" d="M36.64,32.33c0,0-8.68,7.2,1.11,13.29c0,0-8.39,1.29-10.8-3.88c-1.29-2.77,2.91-6.73,3.23-6.92"/>
	<path class="st0" d="M65.37,32.33c0,0,8.68,7.2-1.11,13.29c0,0,8.39,1.29,10.8-3.88c1.29-2.77-2.92-6.73-3.23-6.92"/>
	<path class="st0" d="M50.85,76.12c0.01,0.08,0.02,0.16,0.03,0.24C51.13,76.29,50.85,76.12,50.85,76.12"/>
	<path class="st0" d="M26.73,13c2.09-0.1,3.24,0.48,3.88,1.07l-4.13,3.9c-4.63-0.12-6.2-2.11-6.2-2.11
		C22.67,15.58,24.15,13.13,26.73,13 M38.05,10.05c3.57-1.3,7.79,1.94,7.79,1.94c0.28-2.12-0.52-2.8-0.52-2.8
		c2.74-0.46,5.48,3.94,5.48,3.94l0.12,0.28c0,0,2.63-4.43,5.36-3.97c0,0-0.8,0.68-0.52,2.8c0,0,4.21-3.24,7.79-1.93
		c0,0-1.94,0.86-2.58,2.33c0,0,4.57,0.7,7.73,2.04c1.77,1.39,4.91,4.67,6.94,9.48c-0.45-0.08-0.9-0.15-1.31-0.19
		c-1.03-0.1-0.74,4.84,1.07,8.62c1.74,2.69,2.15,5.89,1.96,7.51c-0.58,4.74-4.36,9.9-6.99,13.52c-2.63,3.62-3.61,10.36-4.6,13.48
		c-0.99,3.13-2.03,8.22-8.75,8.55c-4.19,0.2-7.72,0.76-11.9-0.16c-5.92-1.31-7.4-5.42-8.39-8.54c-0.98-3.13-1.97-9.87-4.6-13.49
		c-2.63-3.62-7.23-7.77-7.73-13.53c-0.25-2.94,0.38-3.81,1.61-7.03c1.77-2.59,1.98-9.23,1.3-9.17c-0.37,0.04-0.75,0.09-1.15,0.16
		c2.17-5.11,5.6-8.46,7.27-9.66c3.11-1.19,7.24-1.82,7.24-1.82C39.99,10.91,38.05,10.05,38.05,10.05 M74.87,13.25
		c2.58,0.12,4.06,2.59,6.46,2.86c0,0-1.52,1.94-6,2.11l-4.22-3.99C71.75,13.67,72.89,13.16,74.87,13.25 M83.36,30.24
		c0,0,1.75-0.47,5.26,1.57c0,0-2.22-8.68-6.92-11.54c-0.23-0.14,2.03-0.18,5.35-5.27c0,0-3.62-1.53-5.26-2.49
		c-2.67-1.58-5.26-2.96-6.74-3.06c-0.65-0.03-3.44-0.7-4.99,0.84c-0.28,0.27-2.09-0.74-2.83-0.74c0,0,0.28-0.49,3.33-1.23
		c0.27-0.06-5.14-3.25-11.08-1.47c0,0,0.62-1.49,2.59-1.85c0,0-6.14-2.15-11.15,1.89C45.9,2.8,39.54,4.75,39.54,4.75
		c1.97,0.37,2.58,1.84,2.58,1.84c-5.94-1.78-11.35,1.42-11.08,1.49c3.05,0.73,3.33,1.22,3.33,1.22c-0.73,0-2.55,1.02-2.83,0.74
		c-1.54-1.55-4.33-0.88-4.98-0.84c-1.48,0.09-4.06,1.48-6.74,3.05c-1.64,0.97-5.26,2.5-5.26,2.5c3.33,5.08,5.59,5.12,5.35,5.27
		c-4.71,2.86-6.92,11.54-6.92,11.54c3.51-2.04,5.26-1.58,5.26-1.58c-8.95,6.93-6.65,24.14-6.55,22.44c0.1-1.66,3.46-3.74,4.17-3.94
		c-0.36,2.57-0.4,5.91,0.44,10.31c2.22,11.57,10.09,17.23,10.09,17.23c-1.15-3.51-0.92-6.73-0.52-8.81c0.08,0.14,0.14,0.3,0.15,0.44
		c0.46,5.04,2.04,9.33,3.05,10.71c2.89,3.93,1.36,2.89,7.33,7.51l-0.26-6.1c0.22,0.51,1.12,2.96,1.39,3.47
		c5.17,9.93,15.66,13.03,15.66,13.03c-0.89-5.85,1.07-5.76,3.63-7.84c2.55-2.09,3.54-3.53,4.55-5.06l0.01-0.01l0.03-0.05
		c0.49-0.74,0.99-1.51,1.69-2.37c-0.46,2.77-0.89,4.53-2.88,6.04c-0.33,0.24,14.45-7.13,13.78-19.2c-0.06-1.11,1.56,5.72,1.22,8.49
		c0,0,7.87-5.66,10.09-17.23c0.85-4.4,0.8-7.74,0.44-10.31c0.72,0.2,4.08,2.28,4.17,3.94C90.01,54.37,92.32,37.15,83.36,30.24"/>
	<path class="st0" d="M47.78,28.05c0,0,2.67-2.77,6.46-0.28l-1.2,0.55c0,0-2.03-1.24-4.15,0L47.78,28.05"/>
	<path class="st0" d="M63.96,45.19c0,0-0.58,1.1,0.35,0.96c5.01-0.78,11.88,1.2,16.85,4.99C81.16,51.14,73.17,43.93,63.96,45.19"/>
	<path class="st0" d="M63.53,45.23c0,0-0.36,0.69-0.03,0.97c0.12,0.1-0.59,0.08-0.59,0.08s-0.18-0.79,0.06-0.92
		C63.22,45.23,63.53,45.23,63.53,45.23"/>
	<path class="st0" d="M62.21,47.13c0,0-0.61,1.08,0.33,0.97c5.03-0.66,11.85,1.48,16.72,5.38C79.26,53.48,71.44,46.09,62.21,47.13"
		/>
	<path class="st0" d="M61.8,47.18c0,0-0.35,0.68-0.03,0.96c0.12,0.1-0.58,0.08-0.58,0.08S61,47.42,61.25,47.3
		C61.49,47.18,61.8,47.18,61.8,47.18"/>
	<path class="st0" d="M60.59,49.17c0,0-0.67,1.05,0.26,0.98c5.06-0.38,11.74,2.16,16.39,6.34C77.25,56.48,69.86,48.65,60.59,49.17"
		/>
	<path class="st0" d="M60.16,49.2c0,0-0.35,0.68-0.03,0.97c0.12,0.1-0.58,0.08-0.58,0.08s-0.19-0.8,0.06-0.93
		C59.85,49.2,60.16,49.2,60.16,49.2"/>
	<path class="st0" d="M37.53,45.19c0,0,0.58,1.1-0.35,0.96c-5.01-0.78-11.88,1.2-16.85,4.99C20.34,51.14,28.33,43.93,37.53,45.19"/>
	<path class="st0" d="M37.98,45.23c0,0,0.36,0.69,0.03,0.97c-0.12,0.1,0.59,0.08,0.59,0.08s0.18-0.79-0.06-0.92
		C38.28,45.23,37.98,45.23,37.98,45.23"/>
	<path class="st0" d="M39.29,47.13c0,0,0.61,1.08-0.33,0.97c-5.03-0.66-11.85,1.48-16.72,5.38C22.24,53.48,30.06,46.09,39.29,47.13"
		/>
	<path class="st0" d="M39.71,47.18c0,0,0.35,0.68,0.03,0.96c-0.12,0.1,0.59,0.08,0.59,0.08s0.18-0.79-0.07-0.92
		C40.01,47.18,39.71,47.18,39.71,47.18"/>
	<path class="st0" d="M40.92,49.17c0,0,0.66,1.05-0.27,0.98c-5.06-0.38-11.74,2.16-16.39,6.34C24.25,56.48,31.64,48.65,40.92,49.17"
		/>
	<path class="st0" d="M41.35,49.2c0,0,0.35,0.68,0.03,0.97c-0.12,0.1,0.59,0.08,0.59,0.08s0.18-0.8-0.07-0.93
		C41.65,49.2,41.35,49.2,41.35,49.2"/>
	<polygon class="st0" points="25.5,34.32 28.45,30.25 23.14,32.07 	"/>
	<polygon class="st0" points="76.92,34.92 73.3,30.63 78.61,32.47 	"/>
	<path class="st0" d="M44.29,24.97l-1.69-3.28c-4.35-1.13-6.03-2.93-6.98-5.39c5.87,2.84,10.18,4.45,10.18,4.45l0.39,6.58
		L44.29,24.97"/>
	<path class="st0" d="M49.11,8.21h3.95c-0.75,6.81-1.22,12.87-1.22,12.87l-1.52-0.19C49.77,13.7,49.11,8.21,49.11,8.21"/>
	<path class="st0" d="M59.65,42.86c-0.08,0.08-0.01,0.17-0.11,0.26c0.2-0.23-0.11-0.23-0.14-0.5c0.95-0.63,0-0.95,0-0.95
		c-1.73-0.32-3.67,0.85-5.83,1.24c-0.95,0.17-3.32,0.6-4.87,0c-2.05-0.79-4.09-1.56-5.83-1.24c0,0-0.51,0.17-0.4,0.52
		c-0.26,0.13-0.5,0.53-0.23,1.69c0.47,2.05,5.52,2.68,6.62,3.46c0,0-0.02-0.15-0.08-0.37c0.91,0.82,1.54,1.98,1.49,3.84
		c0,0-0.13,0.82,0.87,0.42c1,0.41,0.88-0.42,0.88-0.42c-0.44-1.75,0.33-3,1.52-3.99c-0.09,0.3-0.12,0.52-0.12,0.52
		c1.1-0.78,6.15-1.42,6.62-3.46C60.51,41.84,59.65,42.86,59.65,42.86"/>
	<path class="st0" d="M45.86,30.34c-0.82,1.88-2.44,11.34-2.44,11.34l-1.46,2.19c-2.94-2.19,0.98-11.49,0.98-13.7
		C42.95,27.97,45.86,30.34,45.86,30.34"/>
	<path class="st0" d="M57.65,24.97l1.7-3.28c4.35-1.13,6.03-2.93,6.98-5.39c-5.87,2.84-10.17,4.45-10.17,4.45l-0.39,6.58
		L57.65,24.97"/>
	<path class="st0" d="M56.24,30.34c0.78,1.88,2.37,11.34,2.37,11.34l1.41,2.19c2.84-2.19-0.95-11.49-0.95-13.7
		C59.07,27.97,56.24,30.34,56.24,30.34"/>
	<path class="st0" d="M39.73,27.65c0,1.28-1.04,1.9-2.32,1.9c-1.28,0-2.33-0.62-2.33-1.9c0-1.28,1.04-2.32,2.33-2.32
		C38.7,25.33,39.73,26.37,39.73,27.65"/>
	<path class="st0" d="M30.63,25.02c3.56-0.88,3.15-0.91,6.46-0.98c8.04-0.16,6.76,5.16,8.66,5.96l-2.51,2.55
		c-1.08-1.08-0.49-1.66-1.9-3.32c0.32-3.63-2.81-3.91-4.42-3.52c-1.33,1.17-2.73-0.4-1.7,1.23C29.35,26.05,30.63,25.02,30.63,25.02"
		/>
	<path class="st0" d="M62.32,27.65c0,1.28,1.04,1.9,2.32,1.9c1.28,0,2.32-0.62,2.32-1.9c0-1.28-1.04-2.32-2.32-2.32
		C63.36,25.33,62.32,26.37,62.32,27.65"/>
	<path class="st0" d="M62.32,27.65c0,1.28,1.04,1.9,2.32,1.9c1.28,0,2.32-0.62,2.32-1.9c0-1.28-1.04-2.32-2.32-2.32
		C63.36,25.33,62.32,26.37,62.32,27.65z"/>
	<path class="st0" d="M71.42,25.02c-3.15-1.17-3.15-0.91-6.46-0.98c-7.69-0.16-6.76,5.16-8.65,5.96l2.51,2.55
		c1.08-1.08,0.49-1.66,1.9-3.32c-0.31-3.63,2.81-3.91,4.42-3.52c1.32,1.17,3.14-0.69,2.11,0.94C72.67,26.49,71.42,25.02,71.42,25.02
		"/>
	<path class="st0" d="M65.97,26.86c0,0.71-0.53,1.29-1.2,1.29c-0.67,0-1.2-0.58-1.2-1.29c0-0.71,0.53-1.28,1.2-1.28
		C65.44,25.57,65.97,26.14,65.97,26.86"/>
</g>
</svg>
