<?xml version="1.0" encoding="utf-8"?>
<!-- Generator: Adobe Illustrator 23.0.6, SVG Export Plug-In . SVG Version: 6.00 Build 0)  -->
<svg version="1.1" id="Layer_1" xmlns="http://www.w3.org/2000/svg" xmlns:xlink="http://www.w3.org/1999/xlink" x="0px" y="0px"
	 viewBox="0 0 100 100" style="enable-background:new 0 0 100 100;" xml:space="preserve">
<style type="text/css">
	.st0{fill:#63C083;}
	.st1{fill:#75C275;}
	.st2{fill:#65C086;}
	.st3{fill:none;stroke:#65C086;stroke-miterlimit:10;}
</style>
<g>
	<g id="_x23_755330ff-4_1_" transform="translate(1.9816949,3.4195152)">
		<path id="path44-46_1_" class="st0" d="M12.59,13.02c-0.01-0.38-0.01-0.79,0.03-1.17c0.05,2.11,0,4.23,0.02,6.34
			c0,4.18-0.01,8.36,0,12.55c-0.02,0.87,0.04,1.74-0.03,2.6c-0.02,0.02-0.07,0.05-0.08,0.06c0.03-0.21,0.05-0.4,0.06-0.61
			C12.58,26.2,12.59,19.61,12.59,13.02z"/>
		<path id="path46-0_1_" class="st0" d="M65.27,21.65c0.9-0.42,1.97-0.43,2.91-0.11c0.77,0.28,1.4,0.85,1.87,1.52
			c0.58,0.84,0.75,1.92,0.54,2.92c-0.29,1.31-1.32,2.43-2.61,2.82c-0.19-0.45-0.39-0.88-0.57-1.33c0.74-0.45,1.52-1,1.81-1.85
			c0.2-0.53,0.09-1.11-0.13-1.61c0.2,0,0.39,0,0.59,0c-0.73-0.75-1.62-1.55-2.73-1.55c-0.98,0-1.71,0.76-2.24,1.5
			c-0.37-0.25-0.74-0.5-1.11-0.75C64.02,22.56,64.57,21.99,65.27,21.65L65.27,21.65z"/>
		<path id="path48-66_1_" class="st0" d="M53.44,23.54c1,0.1,1.9,0.65,2.6,1.36c0.57,0.5,0.96,1.15,1.35,1.78
			c0.43,0.7,0.74,1.46,1.13,2.16c0.19,0.32,0.44,0.7,0.85,0.73c0.87,0.1,1.67-0.47,2.2-1.11c0.43-0.49,0.75-1.07,1.1-1.62
			c-0.02,0.97-0.34,1.9-0.78,2.74c0.71-0.48,1.44-1.1,2.35-1.07c0.55,0.04,0.83,0.57,0.95,1.05c-0.32-0.18-0.69-0.39-1.06-0.21
			c-1.1,0.46-1.66,1.59-2.49,2.38c-0.49,0.45-1.07,1.01-1.8,0.85c0.06-0.12,0.13-0.26,0.19-0.37c-1.45-0.04-2.77-0.84-3.74-1.88
			c-0.88-0.84-1.48-1.92-2.14-2.93c-0.66-0.82-1.28-1.7-2.13-2.35c-0.83-0.5-1.84-0.47-2.77-0.46c-0.57-0.01-1.13,0.1-1.69,0.16
			c0.36-0.33,0.85-0.47,1.31-0.61c0.98-0.26,2.01-0.42,3.02-0.24c1.16,0.22,2.19,0.95,2.9,1.88c0.59,0.83,1.22,1.64,1.87,2.43
			c-0.26-0.91-0.75-1.75-1.22-2.58C54.94,24.8,54.29,24.03,53.44,23.54L53.44,23.54z"/>
		<path id="path50-1_1_" class="st0" d="M41.58,25.71c1.16-0.43,2.42-0.47,3.64-0.4c-0.25,0.59-0.5,1.18-0.65,1.81
			c0.65-0.29,1.37-0.41,2.09-0.43c-0.34,0.44-0.76,0.81-1.07,1.27c-0.51,0.77-0.85,1.67-0.83,2.6c0.03,0.81,0.32,1.59,0.72,2.3
			c0.28,0.5,0.68,0.93,0.97,1.41c-0.46-0.21-0.87-0.51-1.25-0.84c-0.84-0.7-1.63-1.63-1.69-2.77c-0.07-0.8,0.38-1.51,0.76-2.17
			c-0.48,0.07-0.92,0.28-1.36,0.5c-0.04-0.68,0.17-1.32,0.4-1.93c-1.13,0.13-2.42,0.35-3.13,1.35c0.47,0,0.95,0.02,1.42,0.08
			c-0.8,1.3-1.56,2.64-2.02,4.1c-0.59,1.68-0.8,3.48-0.84,5.26c0.05,1.59,0.16,3.19,0.61,4.72c0.42,1.57,1.12,3.04,1.96,4.43
			c0.17-0.54,0.29-1.09,0.51-1.61c0.28,0.48,0.45,1.01,0.76,1.46c0.33,0.48,0.65,0.97,1.08,1.36c0.73,0.72,1.73,1.1,2.41,1.88
			c0.59,0.63,0.79,1.5,1.19,2.23l0.02,0.04c-0.03,0.05-0.08,0.15-0.11,0.2c-0.26-0.34-0.54-0.7-0.9-0.94
			c-0.79-0.55-1.77-0.64-2.67-0.94c-1.63-0.49-3.28-1.27-4.3-2.69c-0.23,0.43-0.44,0.86-0.71,1.27c-0.52-0.75-1.12-1.46-1.83-2.04
			c-0.3-0.26-0.63-0.49-0.87-0.8c-0.54-0.67-0.85-1.47-1.19-2.24c-0.25,0.42-0.51,0.83-0.71,1.29c-0.86-0.73-1.19-1.86-1.33-2.94
			c-0.2-1.45,0.02-2.92,0.07-4.37c0.05-0.94,0.08-1.89-0.15-2.82c-0.35,0.26-0.7,0.53-1.03,0.82c-0.37-1.73-0.03-3.54,0.74-5.11
			c0.3-0.68,0.7-1.31,1.09-1.93c0.6-0.84,1.21-1.69,1.95-2.42c-0.25,0.65-0.67,1.24-0.93,1.89c-0.71,1.62-0.96,3.44-0.63,5.17
			c0.54-0.28,1.05-0.62,1.6-0.88c-0.32,1.57-0.58,3.19-0.4,4.8c0.16,2.08,0.99,4.09,2.32,5.69c0.24,0.29,0.53,0.53,0.85,0.73
			c-0.23-0.7-0.56-1.36-0.78-2.07c-0.4-1.19-0.6-2.45-0.75-3.7c-0.07-0.89-0.18-1.8-0.09-2.69c0.08-1.34,0.29-2.67,0.7-3.95
			c0.19-0.6,0.45-1.18,0.65-1.79c-0.33,0.08-0.66,0.18-0.99,0.27C37.84,28.17,39.46,26.43,41.58,25.71L41.58,25.71z"/>
		<path id="path52-84_1_" class="st0" d="M65.74,32.46c0.05,0,0.14,0,0.18,0c-0.05,0.04-0.15,0.13-0.2,0.18
			c0.35,0.4,0.71,0.85,0.75,1.4c0.15,1.26-0.99,2.45-2.24,2.43c0.62-0.73,1.18-1.56,1.34-2.52c0.07-0.49,0.02-0.99,0.02-1.48
			C65.62,32.47,65.7,32.47,65.74,32.46z"/>
		<path id="path54-9_1_" class="st0" d="M49.96,34.84c0.25,0.06,0.52,0.1,0.78,0.16c-0.58,0.51-1.21,0.98-1.84,1.43
			c-0.78,0.58-1.36,1.38-1.91,2.17c-0.38,0.56-0.65,1.21-0.7,1.89c0.29-0.21,0.59-0.4,0.91-0.58c-0.14,0.48-0.29,0.95-0.37,1.43
			c-0.23,1.1-0.11,2.27,0.34,3.3c0.03,0.71,0.06,1.42,0.12,2.14c-0.93-1.16-1.64-2.58-1.68-4.08c-0.05-0.63,0.08-1.26,0.22-1.87
			c-0.36,0.12-0.7,0.31-1.03,0.49c-0.14-1.57,0.46-3.2,1.56-4.32c0.54-0.5,1.15-0.9,1.8-1.25c-0.19-0.09-0.38-0.19-0.58-0.29
			C48.37,35.23,49.18,35.11,49.96,34.84z"/>
		<path id="path58-37_1_" class="st0" d="M12.69,39.09c0.05-0.02,0.13-0.06,0.18-0.08c0,1.88,0,3.76,0,5.64
			c0.01,0.14-0.03,0.28-0.07,0.42c-0.02-0.34-0.02-0.69-0.03-1.03c-0.62,0.31-1.18,0.71-1.78,1.08c0.29-0.56,0.76-1,1.24-1.38
			c0.19-0.17,0.42-0.32,0.54-0.55c0.04-0.23,0.02-0.47,0.02-0.7c-0.47,0.31-0.87,0.71-1.3,1.07c-0.91,0.75-1.7,1.63-2.62,2.37
			c0.11-0.26,0.22-0.51,0.35-0.76c0.78-1.43,1.67-2.83,2.68-4.14c0.26-0.34,0.6-0.63,0.83-1.01c0.17-0.28,0.04-0.61-0.01-0.9
			L12.69,39.09L12.69,39.09z"/>
		<path id="path60-88_1_" class="st0" d="M18.79,45.27c1.04-0.15,2.12-0.18,3.16,0.01c0.45,0.07,0.85,0.28,1.28,0.39l0.03,0.01
			c0.23,0.28,0.37,0.62,0.49,0.97c-0.49,0.25-1,0.48-1.49,0.76c0.49,0.15,1.02,0.16,1.48,0.37c-0.22,0.34-0.49,0.65-0.69,1.01
			c0.6,0.2,1.25,0.48,1.53,1.09c-0.52,0.24-1.06,0.45-1.58,0.69c0.57,0.19,1.15,0.33,1.73,0.52c-0.17,0.48-0.55,0.83-0.95,1.12
			c0.53,0.29,1.13,0.65,1.26,1.29c-0.37,0.25-0.82,0.36-1.22,0.56c0.37,0.23,0.78,0.37,1.16,0.59c-0.31,0.61-0.87,1.09-1.54,1.28
			c0.18,0.17,0.37,0.3,0.5,0.51c0.13,0.19,0.1,0.43,0.11,0.63c-0.44,0.18-0.87,0.35-1.3,0.55c0.39,0.13,0.79,0.24,1.18,0.41
			c-0.41,0.68-1.12,1.05-1.84,1.29c0.24,0.33,0.41,0.71,0.47,1.11c-0.45,0.19-0.91,0.36-1.36,0.57c0.31,0.15,0.63,0.28,0.95,0.42
			c-0.56,0.77-1.48,1.18-2.39,1.39c-1.32,0.3-2.68,0.23-4.01,0.06c-2.68-0.24-5.32-1.28-7.28-3.14c-1.1-0.97-1.92-2.18-2.68-3.43
			v-0.03c0.04-0.7-0.36-1.33-0.42-2.03c0.51,0.6,0.93,1.29,1.49,1.85c0.75,0.74,1.61,1.38,2.6,1.78c0.71,0.3,1.48,0.42,2.24,0.54
			c-0.67,0.2-1.36,0.3-2.02,0.52c0.89,0.58,1.87,1.04,2.87,1.4c1.55,0.58,3.24,0.89,4.91,0.72c0.63-0.05,1.21-0.33,1.78-0.58
			c0.34-0.14,0.59-0.47,0.59-0.84c-0.01-0.5-0.23-0.95-0.45-1.38c0.75-0.32,1.67-0.7,1.91-1.57c0.17-0.59-0.13-1.16-0.55-1.56
			c0.5-0.28,1.08-0.49,1.41-0.99c0.39-0.55,0.27-1.36-0.19-1.85c-0.27-0.29-0.65-0.43-1-0.58c0.37-0.31,0.81-0.61,0.98-1.08
			c0.12-0.42,0-0.86-0.22-1.22c-0.33-0.47-0.9-0.67-1.38-0.94c0.29-0.28,0.61-0.56,0.74-0.97c0.18-0.54-0.07-1.17-0.53-1.51
			C20.05,45.57,19.4,45.43,18.79,45.27L18.79,45.27z"/>
		<path id="path62-29_1_" class="st0" d="M82.91,56.03c0.99,1.49,1.63,3.16,2.18,4.83c0.15,0.91-0.06,1.85-0.11,2.76
			c-0.28,2.37-0.96,4.7-2.05,6.84c-0.28,0.48-0.5,1.02-0.87,1.44c0.12-0.47,0.34-0.88,0.51-1.33c0.82-2.29,1.26-4.72,1.23-7.15
			c0.04-2.29-0.28-4.57-0.8-6.81C82.96,56.43,82.93,56.22,82.91,56.03L82.91,56.03z"/>
		<path id="path64-1_1_" class="st0" d="M79.79,67.27c0.04,0.18,0.09,0.35,0.13,0.53c0.32,2.2,0.38,4.45-0.01,6.64
			c-0.11,0.42-0.43,0.74-0.65,1.09c-0.76,1.15-1.57,2.26-2.32,3.43c-0.34,0.55-0.87,0.94-1.35,1.37c-0.77,0.63-1.58,1.22-2.44,1.74
			c-0.34,0.22-0.74,0.35-1,0.68l-0.03,0.03c-1.77,0.73-3.52,1.51-5.36,2.03c-0.95,0.33-1.94,0.51-2.9,0.81
			c-1.1,0.52-2.17,1.08-3.26,1.62c-0.83,0.41-1.65,0.86-2.52,1.17c-2.57,1.08-5.27,1.89-8.05,2.16c-0.62,0.01-1.24,0.1-1.86,0.07
			c-0.75-0.07-1.51-0.04-2.24-0.24c-0.88-0.11-1.72-0.43-2.56-0.73c0.36-0.32,0.73-0.62,1.1-0.93c-0.61-0.06-1.23-0.14-1.85-0.18
			c0.08-0.46,0.39-0.82,0.62-1.21c-0.83,0.02-1.65-0.19-2.38-0.57c-0.2-0.1-0.35-0.27-0.5-0.43c0.36-0.23,0.75-0.43,1.13-0.61
			c-0.65-0.16-1.3-0.28-1.95-0.45c-0.12-0.48-0.02-0.97,0.3-1.35c-0.5-0.33-1-0.65-1.49-0.99c0.43-0.19,0.88-0.35,1.31-0.54
			c-0.58-0.28-1.21-0.44-1.8-0.67c0.18-0.65,0.81-1.04,1.36-1.36c-0.28-0.15-0.47-0.38-0.58-0.69c0.45-0.18,0.9-0.35,1.35-0.55
			c-0.51-0.23-1.04-0.43-1.56-0.65c0.25-0.8,0.99-1.29,1.77-1.52c-0.15-0.28-0.26-0.57-0.36-0.88c0.63-0.2,1.28-0.33,1.92-0.49
			c-0.53-0.24-1.1-0.4-1.63-0.65c0.04-0.51,0.48-0.87,0.91-1.07c1.07-0.51,2.26-0.61,3.43-0.7c0.07,0.08,0.14,0.18,0.21,0.27
			c-0.6,0.2-1.26,0.51-1.47,1.15c-0.21,0.56,0.14,1.1,0.39,1.57c-0.53,0.18-1.12,0.29-1.53,0.7c-0.36,0.35-0.41,0.91-0.29,1.39
			c0.08,0.36,0.38,0.6,0.64,0.85c-0.32,0.22-0.65,0.41-0.95,0.65c-0.38,0.34-0.49,0.98-0.18,1.41c0.38,0.52,1.02,0.75,1.59,1.01
			c-0.33,0.48-0.52,1.11-0.28,1.67c0.23,0.44,0.68,0.71,1.1,0.95c0.59,0.34,1.28,0.39,1.95,0.5c-0.2,0.32-0.46,0.65-0.4,1.06
			c0,0.46,0.29,0.86,0.68,1.08c0.68,0.38,1.48,0.56,2.25,0.47c2.35-0.19,4.72-0.49,6.99-1.16c2.94-0.83,5.83-2.26,7.82-4.64
			c0.65-0.71,1.12-1.56,1.62-2.37c-0.04,1.28-0.25,2.54-0.29,3.81c1.42-0.44,2.76-1.17,3.83-2.22c0.49-0.49,0.82-1.12,1.23-1.67
			c0.47-0.64,0.85-1.34,1.35-1.95c-0.16,0.69-0.41,1.35-0.57,2.04c0.59-0.24,1.16-0.54,1.63-0.98c0.6-0.53,0.99-1.25,1.38-1.93
			c0.55-1.04,1.13-2.07,1.68-3.11c0.32-0.56,0.59-1.16,0.97-1.69c0.23,1.1-0.02,2.23-0.38,3.27c-0.21,0.63-0.58,1.21-0.81,1.83
			c0.7-0.69,1.28-1.46,1.86-2.25c1.17-1.66,2.14-3.49,2.73-5.44C79.45,68.73,79.57,67.99,79.79,67.27L79.79,67.27z"/>
	</g>
	<g id="_x23_755330ff-8_1_" transform="translate(3.1130721,-3.3687083)">
		<path id="path44-6_1_" class="st0" d="M11.57,19.15c-0.01-0.39-0.01-0.79,0.03-1.18c0.05,2.12,0.01,4.23,0.02,6.34
			c0,4.19-0.01,8.38,0,12.56c-0.03,0.86,0.04,1.74-0.03,2.6c-0.02,0.01-0.06,0.04-0.08,0.06c0.03-0.21,0.05-0.42,0.06-0.61
			C11.57,32.33,11.57,25.74,11.57,19.15z"/>
		<path id="path46-5_1_" class="st0" d="M64.24,27.78c0.91-0.42,1.98-0.43,2.92-0.1c0.77,0.27,1.41,0.84,1.87,1.51
			c0.58,0.84,0.75,1.92,0.54,2.92c-0.29,1.31-1.32,2.44-2.61,2.82c-0.18-0.44-0.38-0.88-0.56-1.32c0.74-0.46,1.51-1.01,1.81-1.86
			c0.2-0.53,0.09-1.1-0.13-1.61c0.19,0,0.39,0,0.59,0c-0.73-0.75-1.62-1.55-2.73-1.55c-0.97,0-1.7,0.77-2.24,1.5
			c-0.37-0.24-0.74-0.49-1.1-0.75C63,28.68,63.55,28.12,64.24,27.78L64.24,27.78z"/>
		<path id="path48-0_1_" class="st0" d="M52.42,29.67c1,0.1,1.9,0.67,2.59,1.37c0.57,0.49,0.96,1.14,1.36,1.78
			c0.43,0.7,0.73,1.44,1.13,2.16c0.19,0.31,0.44,0.69,0.85,0.73c0.88,0.09,1.67-0.47,2.2-1.12c0.44-0.49,0.75-1.06,1.1-1.61
			c-0.02,0.97-0.34,1.89-0.78,2.73c0.71-0.47,1.44-1.1,2.35-1.07c0.55,0.04,0.83,0.58,0.95,1.05c-0.32-0.18-0.69-0.38-1.05-0.21
			c-1.1,0.47-1.66,1.6-2.49,2.38c-0.49,0.45-1.07,1.02-1.8,0.85c0.06-0.12,0.13-0.25,0.19-0.37c-1.45-0.03-2.77-0.84-3.74-1.88
			c-0.88-0.84-1.48-1.91-2.14-2.92c-0.65-0.83-1.28-1.71-2.13-2.36c-0.83-0.49-1.84-0.46-2.77-0.45c-0.57-0.02-1.13,0.09-1.69,0.15
			c0.36-0.33,0.85-0.46,1.31-0.61c0.98-0.26,2.02-0.42,3.02-0.24c1.17,0.22,2.19,0.95,2.9,1.88c0.59,0.84,1.22,1.65,1.87,2.43
			c-0.26-0.91-0.75-1.75-1.22-2.57C53.92,30.92,53.27,30.17,52.42,29.67L52.42,29.67z"/>
		<path id="path50-9_1_" class="st0" d="M40.56,31.84c1.16-0.44,2.42-0.48,3.64-0.41c-0.25,0.58-0.49,1.17-0.65,1.81
			c0.66-0.29,1.37-0.42,2.09-0.44c-0.34,0.45-0.76,0.81-1.06,1.28c-0.52,0.76-0.85,1.66-0.83,2.59c0.04,0.81,0.32,1.6,0.73,2.31
			c0.28,0.5,0.67,0.92,0.96,1.41c-0.46-0.21-0.86-0.52-1.25-0.84c-0.85-0.71-1.63-1.64-1.69-2.77c-0.08-0.81,0.38-1.51,0.76-2.18
			c-0.48,0.08-0.93,0.28-1.37,0.5c-0.04-0.67,0.17-1.31,0.4-1.93c-1.13,0.13-2.42,0.36-3.13,1.35c0.48,0.01,0.95,0.02,1.42,0.08
			c-0.81,1.3-1.56,2.65-2.02,4.11c-0.59,1.68-0.79,3.47-0.84,5.26c0.05,1.58,0.16,3.18,0.61,4.71c0.42,1.57,1.12,3.04,1.96,4.44
			c0.17-0.54,0.29-1.09,0.51-1.61c0.28,0.47,0.45,1.01,0.76,1.45c0.32,0.48,0.65,0.96,1.08,1.35c0.73,0.72,1.72,1.1,2.4,1.88
			c0.59,0.64,0.79,1.5,1.19,2.24l0.02,0.03c-0.03,0.05-0.08,0.16-0.11,0.2c-0.26-0.34-0.54-0.69-0.9-0.92
			c-0.79-0.56-1.78-0.65-2.68-0.94c-1.63-0.5-3.28-1.28-4.3-2.7c-0.24,0.43-0.44,0.87-0.71,1.28c-0.53-0.75-1.12-1.45-1.83-2.05
			c-0.3-0.25-0.62-0.48-0.87-0.8c-0.54-0.67-0.85-1.47-1.19-2.23c-0.25,0.42-0.51,0.83-0.71,1.28c-0.86-0.72-1.19-1.86-1.33-2.93
			c-0.2-1.47,0.02-2.92,0.07-4.37c0.05-0.95,0.09-1.9-0.15-2.82c-0.36,0.26-0.71,0.53-1.04,0.81c-0.37-1.73-0.02-3.53,0.75-5.1
			c0.3-0.69,0.7-1.31,1.1-1.93c0.6-0.84,1.21-1.7,1.95-2.42c-0.25,0.65-0.67,1.24-0.92,1.88c-0.71,1.62-0.96,3.44-0.63,5.19
			c0.54-0.29,1.04-0.62,1.59-0.89c-0.32,1.58-0.57,3.19-0.4,4.8c0.17,2.08,0.99,4.09,2.32,5.69c0.24,0.29,0.54,0.53,0.85,0.74
			c-0.23-0.7-0.56-1.36-0.77-2.08c-0.41-1.19-0.6-2.44-0.75-3.7c-0.08-0.89-0.19-1.79-0.1-2.69c0.08-1.33,0.3-2.66,0.7-3.94
			c0.18-0.61,0.44-1.19,0.65-1.8c-0.33,0.09-0.67,0.18-1,0.27C36.82,34.29,38.44,32.56,40.56,31.84L40.56,31.84z"/>
		<path id="path52-00_1_" class="st0" d="M64.72,38.59c0.04,0,0.14-0.01,0.18-0.01c-0.05,0.04-0.15,0.13-0.2,0.18
			c0.35,0.4,0.71,0.85,0.75,1.41c0.15,1.26-0.99,2.45-2.25,2.43c0.63-0.73,1.19-1.57,1.34-2.54c0.07-0.49,0.02-0.99,0.02-1.48
			C64.6,38.59,64.68,38.59,64.72,38.59z"/>
		<path id="path54-6_1_" class="st0" d="M48.94,40.97c0.25,0.06,0.52,0.1,0.78,0.15c-0.58,0.52-1.21,0.99-1.84,1.44
			c-0.78,0.58-1.36,1.37-1.91,2.16c-0.38,0.57-0.65,1.22-0.71,1.9c0.29-0.22,0.59-0.42,0.91-0.58c-0.14,0.47-0.29,0.95-0.37,1.43
			c-0.22,1.1-0.11,2.27,0.34,3.29c0.03,0.72,0.06,1.43,0.12,2.14c-0.93-1.15-1.63-2.57-1.68-4.07c-0.06-0.63,0.08-1.27,0.22-1.88
			c-0.36,0.14-0.7,0.31-1.03,0.49c-0.14-1.57,0.46-3.19,1.56-4.31c0.54-0.51,1.15-0.91,1.8-1.26c-0.19-0.09-0.38-0.19-0.58-0.28
			C47.35,41.37,48.16,41.23,48.94,40.97z"/>
		<path id="path58-3_1_" class="st0" d="M11.66,45.21c0.05-0.02,0.13-0.06,0.18-0.07c0,1.88-0.01,3.75,0,5.63
			c0.01,0.15-0.02,0.28-0.07,0.42c-0.02-0.34-0.02-0.68-0.03-1.02c-0.62,0.3-1.19,0.71-1.77,1.07c0.29-0.56,0.75-0.99,1.24-1.38
			c0.19-0.17,0.42-0.31,0.53-0.54c0.04-0.24,0.02-0.47,0.02-0.71c-0.47,0.31-0.87,0.71-1.3,1.07c-0.91,0.75-1.7,1.64-2.62,2.38
			c0.11-0.26,0.22-0.52,0.35-0.76c0.78-1.44,1.67-2.84,2.68-4.14c0.26-0.34,0.6-0.64,0.83-1.01c0.17-0.28,0.04-0.62-0.01-0.91
			L11.66,45.21L11.66,45.21z"/>
		<path id="path60-8_1_" class="st0" d="M17.77,51.4c1.04-0.16,2.11-0.18,3.16,0c0.44,0.08,0.85,0.29,1.28,0.39l0.04,0.01
			c0.23,0.28,0.36,0.62,0.48,0.97c-0.5,0.25-1,0.49-1.49,0.76c0.48,0.15,1.02,0.17,1.48,0.38c-0.22,0.34-0.49,0.65-0.69,1.01
			c0.6,0.19,1.25,0.48,1.53,1.09c-0.52,0.23-1.06,0.44-1.58,0.68c0.57,0.2,1.15,0.34,1.72,0.52c-0.16,0.49-0.55,0.83-0.95,1.13
			c0.53,0.28,1.13,0.64,1.26,1.28c-0.37,0.25-0.82,0.36-1.22,0.57c0.37,0.22,0.78,0.37,1.16,0.58c-0.31,0.62-0.87,1.09-1.54,1.29
			c0.18,0.16,0.37,0.3,0.5,0.5c0.13,0.19,0.1,0.43,0.12,0.64c-0.44,0.18-0.87,0.35-1.3,0.55c0.4,0.11,0.79,0.24,1.18,0.39
			c-0.41,0.68-1.12,1.06-1.84,1.3c0.24,0.33,0.41,0.7,0.47,1.1c-0.45,0.2-0.91,0.37-1.36,0.57c0.31,0.15,0.63,0.28,0.95,0.42
			c-0.56,0.78-1.48,1.18-2.39,1.4c-1.31,0.3-2.68,0.23-4.01,0.06c-2.67-0.25-5.31-1.28-7.28-3.14c-1.1-0.97-1.93-2.19-2.68-3.43
			v-0.03c0.04-0.71-0.37-1.33-0.42-2.03c0.51,0.6,0.93,1.28,1.49,1.84c0.75,0.74,1.61,1.39,2.6,1.79c0.71,0.3,1.48,0.42,2.23,0.54
			c-0.67,0.19-1.36,0.3-2.02,0.51c0.9,0.58,1.88,1.04,2.88,1.41c1.56,0.58,3.24,0.89,4.9,0.72c0.63-0.06,1.21-0.33,1.78-0.58
			c0.34-0.14,0.59-0.48,0.59-0.84c0-0.5-0.23-0.96-0.45-1.38c0.75-0.33,1.67-0.71,1.91-1.58c0.17-0.58-0.13-1.16-0.55-1.56
			c0.5-0.27,1.08-0.49,1.41-0.98c0.39-0.56,0.27-1.37-0.19-1.85c-0.27-0.29-0.65-0.44-1-0.58c0.37-0.31,0.81-0.61,0.98-1.09
			c0.13-0.41-0.01-0.86-0.22-1.22c-0.33-0.46-0.9-0.65-1.38-0.92c0.29-0.29,0.62-0.57,0.74-0.97c0.18-0.55-0.07-1.18-0.52-1.52
			C19.04,51.71,18.39,51.55,17.77,51.4L17.77,51.4z"/>
		<path id="path62-9_1_" class="st0" d="M81.89,62.16c0.99,1.48,1.62,3.15,2.17,4.83c0.15,0.91-0.05,1.84-0.1,2.75
			c-0.29,2.38-0.96,4.71-2.06,6.84c-0.28,0.49-0.5,1.02-0.87,1.44c0.12-0.46,0.34-0.88,0.52-1.33c0.81-2.29,1.26-4.71,1.23-7.14
			c0.04-2.3-0.28-4.58-0.8-6.81C81.94,62.55,81.91,62.36,81.89,62.16L81.89,62.16z"/>
		<path id="path64-3_1_" class="st0" d="M78.76,73.39c0.05,0.18,0.09,0.35,0.12,0.54c0.32,2.19,0.39,4.45,0,6.64
			c-0.11,0.42-0.43,0.73-0.65,1.08c-0.76,1.15-1.57,2.28-2.32,3.43c-0.35,0.56-0.88,0.95-1.35,1.37c-0.77,0.64-1.59,1.23-2.45,1.74
			c-0.34,0.22-0.74,0.36-1,0.69l-0.03,0.02c-1.77,0.73-3.52,1.51-5.36,2.04c-0.95,0.32-1.94,0.51-2.9,0.8
			c-1.09,0.52-2.17,1.08-3.25,1.62c-0.84,0.41-1.65,0.87-2.53,1.18c-2.57,1.07-5.26,1.88-8.04,2.16c-0.62,0-1.24,0.1-1.86,0.06
			c-0.75-0.07-1.52-0.04-2.25-0.23c-0.88-0.11-1.72-0.44-2.56-0.73c0.36-0.32,0.73-0.62,1.1-0.94c-0.61-0.06-1.23-0.12-1.84-0.18
			c0.08-0.45,0.38-0.82,0.62-1.21c-0.83,0.03-1.65-0.18-2.38-0.57c-0.2-0.09-0.35-0.27-0.51-0.42c0.37-0.23,0.75-0.43,1.14-0.62
			c-0.65-0.15-1.3-0.28-1.95-0.45c-0.12-0.48-0.02-0.97,0.29-1.35c-0.5-0.32-1-0.64-1.5-0.98c0.44-0.2,0.88-0.36,1.31-0.55
			c-0.58-0.27-1.19-0.44-1.8-0.65c0.19-0.67,0.81-1.05,1.36-1.36c-0.28-0.15-0.47-0.39-0.58-0.69c0.45-0.19,0.9-0.36,1.35-0.55
			c-0.52-0.24-1.05-0.43-1.56-0.65c0.25-0.8,0.99-1.29,1.77-1.52c-0.15-0.28-0.27-0.58-0.36-0.88c0.63-0.21,1.28-0.33,1.92-0.5
			c-0.53-0.24-1.1-0.39-1.63-0.65c0.04-0.5,0.48-0.87,0.91-1.07c1.07-0.5,2.27-0.6,3.43-0.69c0.07,0.08,0.14,0.17,0.21,0.26
			c-0.6,0.2-1.26,0.51-1.47,1.16c-0.22,0.55,0.13,1.09,0.39,1.56c-0.53,0.18-1.12,0.29-1.53,0.71c-0.36,0.35-0.41,0.91-0.29,1.38
			c0.08,0.36,0.39,0.61,0.64,0.85c-0.32,0.22-0.66,0.41-0.95,0.67c-0.38,0.34-0.49,0.98-0.18,1.4c0.38,0.53,1.02,0.76,1.59,1.02
			c-0.33,0.48-0.52,1.1-0.28,1.66c0.23,0.44,0.68,0.71,1.1,0.95c0.59,0.34,1.29,0.41,1.95,0.51c-0.2,0.32-0.46,0.65-0.4,1.06
			c0.01,0.45,0.29,0.86,0.69,1.07c0.67,0.38,1.47,0.56,2.24,0.48c2.35-0.2,4.72-0.5,6.99-1.16c2.94-0.84,5.82-2.28,7.82-4.65
			c0.64-0.72,1.11-1.56,1.62-2.37c-0.05,1.27-0.25,2.54-0.29,3.8c1.42-0.44,2.76-1.16,3.83-2.21c0.49-0.5,0.82-1.12,1.23-1.68
			c0.46-0.64,0.85-1.33,1.36-1.95c-0.16,0.7-0.41,1.35-0.58,2.05c0.59-0.24,1.16-0.55,1.63-0.99c0.6-0.53,0.99-1.24,1.38-1.92
			c0.55-1.05,1.13-2.07,1.68-3.11c0.32-0.57,0.59-1.17,0.98-1.7c0.22,1.1-0.03,2.23-0.38,3.28c-0.21,0.62-0.57,1.19-0.81,1.82
			c0.69-0.69,1.28-1.46,1.86-2.24c1.17-1.67,2.13-3.5,2.73-5.46C78.43,74.86,78.55,74.12,78.76,73.39L78.76,73.39z"/>
	</g>
	<g id="_x23_755330ff-31_1_" transform="translate(-1.4124113,-4.5000813)">
		<path id="path44-9_1_" class="st0" d="M15.65,20.17c-0.01-0.39-0.01-0.78,0.04-1.17c0.04,2.11,0.01,4.22,0.02,6.34
			c0,4.18,0,8.36,0,12.55c-0.02,0.86,0.04,1.74-0.03,2.6c-0.02,0.02-0.06,0.04-0.08,0.06c0.03-0.21,0.05-0.41,0.06-0.61
			C15.65,33.34,15.65,26.76,15.65,20.17z"/>
		<path id="path46-8_1_" class="st0" d="M68.33,28.79c0.91-0.4,1.97-0.42,2.92-0.1c0.77,0.28,1.4,0.85,1.87,1.51
			c0.58,0.85,0.75,1.93,0.54,2.92c-0.29,1.32-1.32,2.44-2.61,2.82c-0.18-0.44-0.38-0.87-0.56-1.32c0.75-0.45,1.52-1.01,1.81-1.86
			c0.2-0.53,0.09-1.1-0.13-1.6c0.2,0,0.39,0,0.59,0c-0.73-0.76-1.62-1.56-2.73-1.56c-0.98,0.01-1.71,0.77-2.24,1.5
			c-0.37-0.24-0.74-0.49-1.1-0.74C67.08,29.71,67.64,29.14,68.33,28.79L68.33,28.79z"/>
		<path id="path48-6_1_" class="st0" d="M56.51,30.69c1,0.1,1.9,0.65,2.6,1.36c0.57,0.5,0.95,1.15,1.35,1.78
			c0.43,0.7,0.73,1.45,1.13,2.16c0.19,0.32,0.43,0.7,0.84,0.73c0.88,0.1,1.67-0.47,2.2-1.12c0.44-0.49,0.75-1.06,1.1-1.61
			c-0.02,0.97-0.34,1.89-0.78,2.74c0.72-0.48,1.44-1.11,2.36-1.08c0.54,0.05,0.83,0.58,0.95,1.06c-0.32-0.19-0.7-0.39-1.06-0.21
			c-1.1,0.47-1.66,1.59-2.49,2.38c-0.49,0.45-1.06,1.01-1.79,0.84c0.06-0.12,0.12-0.25,0.19-0.37c-1.45-0.03-2.77-0.83-3.74-1.87
			c-0.88-0.84-1.48-1.92-2.14-2.93c-0.65-0.83-1.28-1.7-2.12-2.35c-0.84-0.5-1.84-0.47-2.78-0.46c-0.57-0.01-1.13,0.09-1.69,0.16
			c0.36-0.34,0.85-0.47,1.31-0.61c0.98-0.27,2.01-0.42,3.02-0.24c1.17,0.21,2.2,0.93,2.9,1.88c0.59,0.83,1.21,1.64,1.87,2.43
			c-0.26-0.91-0.75-1.76-1.23-2.58C58.01,31.94,57.35,31.18,56.51,30.69L56.51,30.69z"/>
		<path id="path50-5_1_" class="st0" d="M44.64,32.86c1.16-0.43,2.42-0.47,3.65-0.41c-0.25,0.59-0.5,1.18-0.65,1.81
			c0.65-0.29,1.37-0.41,2.08-0.43c-0.34,0.44-0.75,0.81-1.06,1.27c-0.51,0.76-0.85,1.66-0.83,2.59c0.03,0.82,0.32,1.6,0.72,2.31
			c0.28,0.5,0.67,0.92,0.97,1.41c-0.46-0.21-0.87-0.52-1.25-0.84c-0.84-0.7-1.63-1.63-1.69-2.77c-0.08-0.8,0.38-1.51,0.76-2.17
			c-0.48,0.07-0.93,0.27-1.36,0.5c-0.04-0.68,0.17-1.32,0.39-1.93c-1.13,0.12-2.42,0.35-3.13,1.35c0.47,0,0.95,0.02,1.42,0.08
			c-0.81,1.3-1.56,2.64-2.02,4.1c-0.59,1.68-0.8,3.48-0.84,5.26c0.05,1.59,0.16,3.19,0.62,4.72c0.42,1.56,1.12,3.04,1.95,4.43
			c0.17-0.54,0.29-1.09,0.51-1.61c0.28,0.48,0.45,1.01,0.76,1.45c0.32,0.48,0.65,0.97,1.08,1.35c0.73,0.73,1.73,1.1,2.41,1.89
			c0.58,0.63,0.79,1.5,1.19,2.23l0.02,0.04c-0.03,0.04-0.08,0.15-0.11,0.2c-0.26-0.34-0.54-0.7-0.9-0.94
			c-0.79-0.56-1.78-0.64-2.67-0.94c-1.63-0.5-3.28-1.27-4.3-2.69c-0.23,0.43-0.44,0.86-0.71,1.27c-0.52-0.75-1.12-1.45-1.82-2.05
			c-0.3-0.25-0.63-0.48-0.87-0.79c-0.54-0.67-0.85-1.47-1.19-2.24c-0.26,0.42-0.51,0.83-0.71,1.28c-0.86-0.72-1.19-1.85-1.33-2.93
			c-0.2-1.45,0.02-2.92,0.07-4.37c0.05-0.93,0.08-1.9-0.15-2.82c-0.36,0.26-0.7,0.53-1.04,0.82c-0.36-1.72-0.02-3.54,0.75-5.11
			c0.3-0.68,0.7-1.31,1.1-1.93c0.6-0.84,1.21-1.69,1.95-2.42c-0.26,0.65-0.67,1.24-0.93,1.89c-0.71,1.61-0.96,3.44-0.63,5.17
			c0.54-0.29,1.04-0.62,1.59-0.89c-0.32,1.58-0.57,3.2-0.4,4.81c0.17,2.08,0.99,4.09,2.33,5.69c0.24,0.29,0.54,0.53,0.85,0.73
			c-0.24-0.7-0.56-1.36-0.78-2.07c-0.41-1.19-0.6-2.45-0.75-3.7c-0.07-0.89-0.18-1.8-0.09-2.69c0.08-1.34,0.3-2.67,0.7-3.95
			c0.18-0.61,0.45-1.19,0.65-1.79c-0.33,0.08-0.67,0.18-1,0.26C40.91,35.31,42.53,33.57,44.64,32.86L44.64,32.86z"/>
		<path id="path52-0_1_" class="st0" d="M68.8,39.61c0.05,0,0.14,0,0.18,0c-0.05,0.04-0.15,0.13-0.2,0.18
			c0.35,0.41,0.71,0.85,0.75,1.4c0.15,1.26-0.98,2.45-2.24,2.43c0.62-0.73,1.18-1.57,1.34-2.52c0.07-0.5,0.02-0.99,0.02-1.48
			C68.69,39.61,68.76,39.61,68.8,39.61z"/>
		<path id="path54-2_1_" class="st0" d="M53.03,41.99c0.25,0.06,0.52,0.1,0.78,0.16c-0.59,0.51-1.21,0.98-1.83,1.43
			c-0.78,0.58-1.36,1.38-1.91,2.17c-0.38,0.56-0.65,1.21-0.71,1.89c0.3-0.21,0.59-0.41,0.91-0.58c-0.14,0.48-0.29,0.95-0.37,1.43
			c-0.22,1.1-0.11,2.27,0.34,3.29c0.03,0.72,0.06,1.43,0.12,2.15c-0.93-1.16-1.63-2.58-1.68-4.08c-0.06-0.63,0.08-1.26,0.22-1.87
			c-0.36,0.13-0.7,0.3-1.03,0.49c-0.14-1.58,0.46-3.19,1.56-4.32c0.54-0.5,1.15-0.9,1.8-1.25c-0.2-0.09-0.39-0.19-0.58-0.29
			C51.43,42.38,52.25,42.26,53.03,41.99z"/>
		<path id="path58-6_1_" class="st0" d="M15.75,46.24c0.04-0.02,0.13-0.06,0.17-0.08c0,1.88,0,3.76,0,5.64
			c0.01,0.14-0.02,0.28-0.07,0.42c-0.02-0.34-0.03-0.69-0.04-1.03c-0.62,0.31-1.18,0.71-1.77,1.08c0.29-0.56,0.76-1,1.24-1.38
			c0.19-0.18,0.42-0.32,0.53-0.55c0.05-0.23,0.02-0.47,0.02-0.7c-0.47,0.31-0.87,0.71-1.3,1.06c-0.92,0.75-1.7,1.64-2.63,2.38
			c0.11-0.26,0.22-0.51,0.36-0.76c0.78-1.44,1.67-2.84,2.68-4.13c0.26-0.35,0.6-0.64,0.83-1.02c0.17-0.28,0.04-0.61-0.01-0.9
			L15.75,46.24L15.75,46.24z"/>
		<path id="path60-0_1_" class="st0" d="M21.85,52.42c1.05-0.16,2.12-0.18,3.16,0.01c0.45,0.07,0.85,0.28,1.28,0.39l0.04,0.01
			c0.23,0.28,0.37,0.61,0.49,0.96c-0.5,0.26-1.01,0.49-1.49,0.77c0.48,0.15,1.02,0.16,1.48,0.37c-0.22,0.34-0.48,0.65-0.69,1.01
			c0.6,0.19,1.25,0.48,1.54,1.09c-0.53,0.24-1.07,0.44-1.58,0.69c0.57,0.19,1.15,0.33,1.72,0.52c-0.17,0.48-0.55,0.83-0.95,1.12
			c0.53,0.29,1.13,0.65,1.26,1.29c-0.37,0.24-0.82,0.35-1.22,0.56c0.37,0.23,0.78,0.37,1.16,0.58c-0.32,0.62-0.87,1.1-1.54,1.29
			c0.18,0.16,0.37,0.31,0.5,0.5c0.13,0.19,0.1,0.44,0.12,0.64c-0.44,0.18-0.87,0.35-1.3,0.55c0.4,0.12,0.8,0.24,1.18,0.41
			c-0.41,0.67-1.12,1.05-1.84,1.29c0.24,0.33,0.41,0.71,0.47,1.11c-0.45,0.19-0.91,0.36-1.36,0.56c0.31,0.16,0.63,0.29,0.95,0.43
			c-0.56,0.77-1.48,1.18-2.38,1.39c-1.32,0.3-2.68,0.23-4.01,0.06c-2.67-0.24-5.31-1.28-7.28-3.14c-1.1-0.97-1.93-2.18-2.68-3.43
			v-0.03c0.03-0.71-0.37-1.33-0.42-2.03c0.51,0.6,0.93,1.28,1.49,1.84c0.75,0.75,1.61,1.39,2.6,1.79c0.71,0.3,1.48,0.42,2.23,0.54
			c-0.67,0.2-1.36,0.3-2.02,0.52c0.89,0.58,1.87,1.03,2.87,1.4c1.56,0.58,3.25,0.89,4.91,0.72c0.63-0.05,1.21-0.33,1.78-0.58
			c0.34-0.14,0.59-0.47,0.59-0.84c0-0.5-0.23-0.95-0.46-1.38c0.75-0.32,1.68-0.7,1.91-1.57c0.18-0.59-0.13-1.16-0.55-1.56
			c0.5-0.28,1.08-0.49,1.41-0.99c0.4-0.56,0.27-1.37-0.2-1.85c-0.26-0.28-0.64-0.43-1-0.58c0.37-0.31,0.81-0.61,0.99-1.08
			c0.12-0.42-0.01-0.86-0.22-1.22c-0.33-0.47-0.89-0.67-1.38-0.94c0.29-0.28,0.62-0.56,0.74-0.97c0.18-0.55-0.07-1.17-0.52-1.52
			C23.12,52.72,22.47,52.57,21.85,52.42z"/>
		<path id="path62-2_1_" class="st0" d="M85.98,63.18c0.98,1.48,1.62,3.16,2.17,4.83c0.15,0.91-0.06,1.84-0.11,2.75
			c-0.28,2.38-0.96,4.72-2.05,6.84c-0.29,0.49-0.5,1.02-0.87,1.45c0.12-0.47,0.33-0.89,0.51-1.33c0.81-2.29,1.26-4.72,1.23-7.15
			c0.04-2.29-0.28-4.57-0.8-6.81C86.02,63.57,86,63.37,85.98,63.18L85.98,63.18z"/>
		<path id="path64-4_1_" class="st0" d="M82.85,74.42c0.05,0.17,0.09,0.35,0.13,0.53c0.32,2.2,0.38,4.45-0.01,6.64
			c-0.11,0.42-0.43,0.73-0.65,1.09c-0.76,1.15-1.57,2.27-2.32,3.43c-0.34,0.55-0.88,0.93-1.35,1.36c-0.77,0.64-1.59,1.23-2.45,1.74
			c-0.34,0.23-0.74,0.36-1,0.69l-0.03,0.03c-1.76,0.73-3.52,1.51-5.36,2.03c-0.95,0.33-1.94,0.51-2.89,0.81
			c-1.1,0.51-2.17,1.08-3.26,1.61c-0.84,0.42-1.65,0.87-2.52,1.18c-2.57,1.07-5.27,1.89-8.04,2.16c-0.62,0-1.24,0.1-1.86,0.07
			c-0.75-0.07-1.52-0.05-2.25-0.24c-0.88-0.11-1.72-0.43-2.56-0.72c0.36-0.33,0.73-0.63,1.11-0.95c-0.62-0.05-1.24-0.13-1.85-0.17
			c0.08-0.46,0.39-0.82,0.62-1.21c-0.82,0.02-1.65-0.19-2.38-0.57c-0.2-0.1-0.35-0.27-0.5-0.43c0.36-0.23,0.75-0.43,1.13-0.62
			c-0.65-0.15-1.3-0.27-1.95-0.44c-0.12-0.48-0.02-0.97,0.29-1.35c-0.49-0.33-1-0.65-1.49-0.99c0.44-0.19,0.88-0.36,1.31-0.54
			c-0.58-0.28-1.2-0.45-1.8-0.67c0.18-0.67,0.8-1.04,1.36-1.36c-0.28-0.15-0.48-0.39-0.58-0.69c0.45-0.19,0.9-0.35,1.35-0.55
			c-0.52-0.24-1.05-0.43-1.56-0.65c0.26-0.8,1-1.29,1.77-1.52c-0.15-0.28-0.27-0.57-0.36-0.88c0.63-0.21,1.28-0.33,1.92-0.5
			c-0.53-0.24-1.1-0.4-1.63-0.64c0.04-0.51,0.48-0.87,0.91-1.08c1.07-0.5,2.27-0.6,3.43-0.69c0.07,0.08,0.14,0.18,0.21,0.26
			c-0.6,0.2-1.26,0.51-1.46,1.16c-0.22,0.55,0.14,1.09,0.39,1.57c-0.54,0.18-1.13,0.28-1.54,0.7c-0.36,0.36-0.41,0.91-0.29,1.39
			c0.09,0.35,0.39,0.6,0.64,0.85c-0.32,0.22-0.66,0.39-0.95,0.65c-0.39,0.35-0.5,0.98-0.19,1.41c0.38,0.52,1.02,0.75,1.59,1.01
			c-0.33,0.48-0.53,1.11-0.29,1.67c0.23,0.44,0.68,0.71,1.1,0.95c0.59,0.34,1.29,0.39,1.95,0.5c-0.19,0.32-0.46,0.65-0.4,1.06
			c0,0.46,0.29,0.86,0.69,1.08c0.68,0.38,1.47,0.56,2.24,0.47c2.36-0.19,4.72-0.49,6.99-1.16c2.94-0.83,5.82-2.27,7.82-4.64
			c0.65-0.72,1.12-1.56,1.62-2.37c-0.05,1.28-0.25,2.54-0.29,3.81c1.42-0.44,2.77-1.17,3.83-2.22c0.49-0.5,0.82-1.12,1.23-1.68
			c0.47-0.63,0.86-1.33,1.36-1.94c-0.16,0.69-0.41,1.35-0.58,2.04c0.59-0.24,1.16-0.55,1.64-0.98c0.6-0.54,0.99-1.25,1.38-1.93
			c0.55-1.04,1.12-2.07,1.67-3.11c0.32-0.57,0.59-1.17,0.98-1.69c0.22,1.1-0.03,2.22-0.38,3.27c-0.21,0.63-0.57,1.21-0.81,1.82
			c0.69-0.68,1.28-1.46,1.85-2.24c1.17-1.66,2.13-3.5,2.73-5.46C82.52,75.88,82.63,75.14,82.85,74.42L82.85,74.42z"/>
	</g>
	<g id="_x23_755330ff-3_1_" transform="translate(-2.5437862,3.4195151)">
		<path id="path44-4_1_" class="st0" d="M16.67,13.02c-0.01-0.38-0.01-0.79,0.03-1.17c0.05,2.11,0.01,4.23,0.02,6.34
			c0,4.18-0.01,8.36,0,12.55c-0.03,0.87,0.04,1.74-0.03,2.6c-0.02,0.02-0.06,0.05-0.08,0.06c0.03-0.21,0.05-0.4,0.06-0.61
			C16.67,26.2,16.68,19.61,16.67,13.02z"/>
		<path id="path46-1_1_" class="st0" d="M69.35,21.65c0.91-0.42,1.97-0.43,2.92-0.11c0.77,0.28,1.4,0.85,1.87,1.52
			c0.58,0.84,0.75,1.92,0.54,2.92c-0.29,1.31-1.31,2.43-2.61,2.82c-0.19-0.45-0.39-0.88-0.56-1.33c0.74-0.45,1.51-1,1.81-1.85
			c0.2-0.53,0.09-1.11-0.13-1.61c0.2,0,0.39,0,0.59,0c-0.73-0.75-1.62-1.55-2.73-1.55c-0.97,0-1.7,0.76-2.24,1.5
			c-0.37-0.25-0.74-0.5-1.1-0.75C68.11,22.56,68.65,21.99,69.35,21.65L69.35,21.65z"/>
		<path id="path48-1_1_" class="st0" d="M57.53,23.54c1,0.1,1.9,0.65,2.59,1.36c0.57,0.5,0.96,1.15,1.36,1.78
			c0.42,0.7,0.73,1.46,1.13,2.16c0.19,0.32,0.44,0.7,0.85,0.73c0.88,0.1,1.67-0.47,2.2-1.11c0.44-0.49,0.75-1.07,1.1-1.62
			c-0.03,0.97-0.34,1.9-0.79,2.74c0.72-0.48,1.44-1.1,2.35-1.07c0.55,0.04,0.83,0.57,0.95,1.05c-0.32-0.18-0.69-0.39-1.05-0.21
			c-1.1,0.46-1.66,1.59-2.49,2.38c-0.49,0.45-1.07,1.01-1.8,0.85c0.06-0.12,0.13-0.26,0.19-0.37c-1.45-0.04-2.77-0.84-3.74-1.88
			c-0.88-0.84-1.48-1.92-2.14-2.93c-0.65-0.82-1.28-1.7-2.13-2.35c-0.83-0.5-1.84-0.47-2.77-0.46c-0.57-0.01-1.13,0.1-1.69,0.16
			c0.36-0.33,0.85-0.47,1.31-0.61c0.98-0.26,2.02-0.42,3.02-0.24c1.17,0.22,2.19,0.95,2.9,1.88c0.59,0.83,1.22,1.64,1.87,2.43
			c-0.26-0.91-0.75-1.75-1.22-2.58C59.03,24.8,58.38,24.03,57.53,23.54L57.53,23.54z"/>
		<path id="path50-3_1_" class="st0" d="M45.66,25.71c1.16-0.43,2.42-0.47,3.64-0.4c-0.25,0.59-0.49,1.18-0.65,1.81
			c0.66-0.29,1.37-0.41,2.09-0.43c-0.34,0.44-0.76,0.81-1.06,1.27c-0.52,0.77-0.85,1.67-0.83,2.6c0.04,0.81,0.32,1.59,0.73,2.3
			c0.28,0.5,0.67,0.93,0.96,1.41c-0.46-0.21-0.86-0.51-1.25-0.84c-0.85-0.7-1.63-1.63-1.69-2.77c-0.07-0.8,0.38-1.51,0.76-2.17
			c-0.48,0.07-0.92,0.28-1.36,0.5c-0.03-0.68,0.17-1.32,0.4-1.93c-1.13,0.13-2.42,0.35-3.13,1.35c0.48,0,0.95,0.02,1.42,0.08
			c-0.81,1.3-1.56,2.64-2.02,4.1c-0.59,1.68-0.8,3.48-0.84,5.26c0.05,1.59,0.16,3.19,0.61,4.72c0.42,1.57,1.12,3.04,1.96,4.43
			c0.17-0.54,0.29-1.09,0.51-1.61c0.28,0.48,0.45,1.01,0.76,1.46c0.32,0.48,0.65,0.97,1.07,1.36c0.73,0.72,1.73,1.1,2.41,1.88
			c0.59,0.63,0.79,1.5,1.19,2.23l0.02,0.04c-0.03,0.05-0.08,0.15-0.11,0.2c-0.26-0.34-0.54-0.7-0.9-0.94
			c-0.78-0.55-1.77-0.64-2.67-0.94c-1.63-0.49-3.28-1.27-4.3-2.69c-0.23,0.43-0.44,0.86-0.71,1.27c-0.52-0.75-1.12-1.46-1.83-2.04
			c-0.3-0.26-0.62-0.49-0.86-0.8c-0.54-0.67-0.86-1.47-1.19-2.24c-0.25,0.42-0.51,0.83-0.71,1.29c-0.86-0.73-1.2-1.86-1.33-2.94
			c-0.2-1.45,0.02-2.92,0.07-4.37c0.06-0.94,0.09-1.89-0.15-2.82c-0.36,0.26-0.71,0.53-1.04,0.82c-0.37-1.73-0.02-3.54,0.75-5.11
			c0.3-0.68,0.7-1.31,1.1-1.93c0.6-0.84,1.21-1.69,1.95-2.42c-0.25,0.65-0.67,1.24-0.92,1.89c-0.71,1.62-0.96,3.44-0.63,5.17
			c0.54-0.28,1.04-0.62,1.59-0.88c-0.32,1.57-0.57,3.19-0.4,4.8c0.17,2.08,0.99,4.09,2.32,5.69c0.24,0.29,0.54,0.53,0.86,0.73
			c-0.24-0.7-0.57-1.36-0.78-2.07c-0.4-1.19-0.59-2.45-0.74-3.7c-0.08-0.89-0.19-1.8-0.1-2.69c0.08-1.34,0.3-2.67,0.7-3.95
			c0.18-0.6,0.44-1.18,0.65-1.79c-0.33,0.08-0.67,0.18-1,0.27C41.93,28.17,43.55,26.43,45.66,25.71L45.66,25.71z"/>
		<path id="path52-8_1_" class="st0" d="M69.82,32.46c0.05,0,0.14,0,0.18,0c-0.05,0.04-0.15,0.13-0.19,0.18
			c0.34,0.4,0.71,0.85,0.75,1.4c0.15,1.26-0.99,2.45-2.24,2.43c0.62-0.73,1.18-1.56,1.34-2.52c0.07-0.49,0.03-0.99,0.02-1.48
			C69.71,32.47,69.79,32.47,69.82,32.46z"/>
		<path id="path54-7_1_" class="st0" d="M54.05,34.84c0.25,0.06,0.51,0.1,0.78,0.16c-0.58,0.51-1.21,0.98-1.84,1.43
			c-0.78,0.58-1.36,1.38-1.91,2.17c-0.38,0.56-0.64,1.21-0.7,1.89c0.29-0.21,0.59-0.4,0.91-0.58c-0.14,0.48-0.29,0.95-0.37,1.43
			c-0.22,1.1-0.11,2.27,0.34,3.3c0.03,0.71,0.06,1.42,0.12,2.14c-0.93-1.16-1.64-2.58-1.68-4.08c-0.06-0.63,0.08-1.26,0.22-1.87
			c-0.36,0.12-0.7,0.31-1.03,0.49c-0.14-1.57,0.46-3.2,1.56-4.32c0.54-0.5,1.15-0.9,1.8-1.25c-0.19-0.09-0.38-0.19-0.58-0.29
			C52.45,35.23,53.27,35.11,54.05,34.84z"/>
		<path id="path58-2_1_" class="st0" d="M16.78,39.09c0.04-0.02,0.13-0.06,0.17-0.08c0,1.88,0,3.76,0.01,5.64
			c0.01,0.14-0.02,0.28-0.07,0.42c-0.02-0.34-0.02-0.69-0.03-1.03c-0.62,0.31-1.18,0.71-1.77,1.08c0.29-0.56,0.75-1,1.24-1.38
			c0.19-0.17,0.42-0.32,0.53-0.55c0.04-0.23,0.02-0.47,0.02-0.7c-0.47,0.31-0.87,0.71-1.3,1.07c-0.91,0.75-1.7,1.63-2.62,2.37
			c0.1-0.26,0.21-0.51,0.35-0.76c0.78-1.43,1.67-2.83,2.68-4.14c0.26-0.34,0.6-0.63,0.83-1.01c0.17-0.28,0.04-0.61-0.02-0.9
			L16.78,39.09L16.78,39.09z"/>
		<path id="path60-7_1_" class="st0" d="M22.88,45.27c1.04-0.15,2.11-0.18,3.16,0.01c0.44,0.07,0.85,0.28,1.28,0.39l0.04,0.01
			c0.23,0.28,0.36,0.62,0.48,0.97c-0.49,0.25-1,0.48-1.49,0.76c0.48,0.15,1.02,0.16,1.48,0.37c-0.22,0.34-0.49,0.65-0.69,1.01
			c0.61,0.2,1.25,0.48,1.53,1.09c-0.52,0.24-1.06,0.45-1.58,0.69c0.57,0.19,1.15,0.33,1.72,0.52c-0.17,0.48-0.55,0.83-0.95,1.12
			c0.53,0.29,1.13,0.65,1.26,1.29c-0.37,0.25-0.82,0.36-1.22,0.56c0.37,0.23,0.78,0.37,1.16,0.59c-0.32,0.61-0.87,1.09-1.54,1.28
			c0.18,0.17,0.37,0.3,0.5,0.51c0.13,0.19,0.1,0.43,0.12,0.63c-0.44,0.18-0.87,0.35-1.3,0.55c0.4,0.13,0.79,0.24,1.18,0.41
			c-0.41,0.68-1.12,1.05-1.84,1.29c0.24,0.33,0.41,0.71,0.47,1.11c-0.45,0.19-0.91,0.36-1.36,0.57c0.31,0.15,0.63,0.28,0.95,0.42
			c-0.56,0.77-1.48,1.18-2.39,1.39c-1.31,0.3-2.68,0.23-4.01,0.06c-2.67-0.24-5.31-1.28-7.28-3.14c-1.1-0.97-1.93-2.18-2.68-3.43
			v-0.03c0.04-0.7-0.37-1.33-0.42-2.03c0.51,0.6,0.92,1.29,1.49,1.85c0.75,0.74,1.61,1.38,2.6,1.78c0.71,0.3,1.48,0.42,2.23,0.54
			c-0.67,0.2-1.36,0.3-2.02,0.52c0.9,0.58,1.88,1.04,2.88,1.4c1.56,0.58,3.25,0.89,4.9,0.72c0.63-0.05,1.21-0.33,1.78-0.58
			c0.34-0.14,0.59-0.47,0.59-0.84c0-0.5-0.23-0.95-0.45-1.38c0.75-0.32,1.67-0.7,1.91-1.57c0.17-0.59-0.13-1.16-0.55-1.56
			c0.5-0.28,1.08-0.49,1.41-0.99c0.39-0.55,0.27-1.36-0.19-1.85c-0.27-0.29-0.65-0.43-1-0.58c0.37-0.31,0.81-0.61,0.98-1.08
			c0.12-0.42,0-0.86-0.22-1.22c-0.33-0.47-0.9-0.67-1.38-0.94c0.29-0.28,0.62-0.56,0.74-0.97c0.18-0.54-0.07-1.17-0.52-1.51
			C24.14,45.57,23.49,45.43,22.88,45.27L22.88,45.27z"/>
		<path id="path62-7_1_" class="st0" d="M87,56.03c0.99,1.49,1.63,3.16,2.17,4.83c0.16,0.91-0.05,1.85-0.1,2.76
			c-0.28,2.37-0.96,4.7-2.06,6.84c-0.28,0.48-0.5,1.02-0.87,1.44c0.13-0.47,0.34-0.88,0.52-1.33c0.82-2.29,1.26-4.72,1.23-7.15
			c0.04-2.29-0.27-4.57-0.8-6.81C87.04,56.43,87.02,56.22,87,56.03L87,56.03z"/>
		<path id="path64-9_1_" class="st0" d="M83.87,67.27c0.05,0.18,0.09,0.35,0.13,0.53c0.32,2.2,0.39,4.45,0,6.64
			c-0.11,0.42-0.43,0.74-0.65,1.09c-0.76,1.15-1.57,2.26-2.32,3.43c-0.34,0.55-0.88,0.94-1.35,1.37c-0.77,0.63-1.59,1.22-2.45,1.74
			c-0.34,0.22-0.74,0.35-1,0.68l-0.03,0.03c-1.77,0.73-3.52,1.51-5.36,2.03c-0.95,0.33-1.94,0.51-2.9,0.81
			c-1.09,0.52-2.17,1.08-3.26,1.62c-0.83,0.41-1.65,0.86-2.52,1.17c-2.57,1.08-5.27,1.89-8.04,2.16c-0.62,0.01-1.24,0.1-1.86,0.07
			c-0.75-0.07-1.52-0.04-2.25-0.24c-0.88-0.11-1.72-0.43-2.56-0.73c0.36-0.32,0.73-0.62,1.1-0.93c-0.61-0.06-1.23-0.14-1.84-0.18
			c0.08-0.46,0.38-0.82,0.62-1.21c-0.83,0.02-1.65-0.19-2.38-0.57c-0.2-0.1-0.35-0.27-0.5-0.43c0.36-0.23,0.75-0.43,1.13-0.61
			c-0.65-0.16-1.3-0.28-1.95-0.45c-0.12-0.48-0.02-0.97,0.29-1.35c-0.5-0.33-1-0.65-1.49-0.99c0.43-0.19,0.88-0.35,1.31-0.54
			c-0.58-0.28-1.2-0.44-1.8-0.67c0.19-0.65,0.81-1.04,1.37-1.36c-0.28-0.15-0.48-0.38-0.58-0.69c0.45-0.18,0.9-0.35,1.35-0.55
			c-0.52-0.23-1.05-0.43-1.56-0.65c0.25-0.8,1-1.29,1.77-1.52c-0.15-0.28-0.27-0.57-0.36-0.88c0.63-0.2,1.28-0.33,1.92-0.49
			c-0.54-0.24-1.1-0.4-1.63-0.65c0.04-0.51,0.48-0.87,0.91-1.07c1.07-0.51,2.27-0.61,3.43-0.7c0.07,0.08,0.13,0.18,0.21,0.27
			c-0.6,0.2-1.26,0.51-1.46,1.15c-0.22,0.56,0.13,1.1,0.39,1.57c-0.53,0.18-1.12,0.29-1.53,0.7c-0.36,0.35-0.41,0.91-0.29,1.39
			c0.09,0.36,0.38,0.6,0.64,0.85c-0.32,0.22-0.65,0.41-0.95,0.65c-0.38,0.34-0.49,0.98-0.18,1.41c0.38,0.52,1.02,0.75,1.59,1.01
			c-0.33,0.48-0.52,1.11-0.28,1.67c0.23,0.44,0.68,0.71,1.1,0.95c0.59,0.34,1.29,0.39,1.95,0.5c-0.2,0.32-0.46,0.65-0.4,1.06
			c0,0.46,0.29,0.86,0.69,1.08c0.67,0.38,1.47,0.56,2.24,0.47c2.36-0.19,4.72-0.49,6.99-1.16c2.94-0.83,5.82-2.26,7.82-4.64
			c0.64-0.71,1.11-1.56,1.62-2.37c-0.05,1.28-0.25,2.54-0.29,3.81c1.42-0.44,2.76-1.17,3.83-2.22c0.49-0.49,0.82-1.12,1.23-1.67
			c0.46-0.64,0.85-1.34,1.36-1.95c-0.16,0.69-0.41,1.35-0.58,2.04c0.59-0.24,1.16-0.54,1.63-0.98c0.6-0.53,0.99-1.25,1.38-1.93
			c0.55-1.04,1.13-2.07,1.68-3.11c0.33-0.56,0.59-1.16,0.98-1.69c0.22,1.1-0.03,2.23-0.38,3.27c-0.21,0.63-0.58,1.21-0.81,1.83
			c0.7-0.69,1.28-1.46,1.86-2.25c1.17-1.66,2.14-3.49,2.73-5.44C83.54,68.73,83.66,67.99,83.87,67.27L83.87,67.27z"/>
	</g>
	<g id="_x23_000000ff_1_">
		<path id="path8_1_" class="st0" d="M27.8,2.5c0.13-0.11,0.32-0.08,0.47-0.09c12.74,0,25.49,0,38.24,0c0.18,0,0.38,0,0.5,0.16
			c3.76,3.53,7.52,7.08,11.28,10.62c0.65,0.63,1.36,1.23,1.96,1.9c0.07,0.99,0,1.98,0.03,2.98c0,4.41,0,8.81,0,13.23
			c0.03,0.2-0.14,0.39-0.36,0.36c-2.05,0.01-4.09,0-6.15,0c-0.57,0.85-1.41,1.47-2.33,1.88c0.34,0.75,0.73,1.5,0.84,2.32
			c0.06,0.57,0.06,1.16-0.1,1.71c0.94,0.56,1.97,0.98,2.89,1.59c1.94,1.14,3.73,2.53,5.4,4.03c0.75,0.75,1.55,1.44,2.23,2.25
			c2,2.14,3.68,4.56,5.21,7.06c0.91,1.56,1.77,3.15,2.49,4.8c0.28,0.86,0.69,1.68,0.89,2.58c-0.63-0.01-1.19-0.32-1.8-0.46
			c0.44,2.06,0.82,4.13,1.1,6.2c0.19,1.55,0.36,3.12,0.24,4.69c-0.26,3.42-1.47,6.87-3.86,9.38c-1.11,1.27-2.41,2.35-3.75,3.36
			c-1.62,1.17-3.33,2.23-5.09,3.17c-2.82,1.54-5.76,2.88-8.83,3.81c-1.02,0.37-2.15,0.44-3.11,0.99c-1.58,0.75-3.13,1.59-4.75,2.25
			c-1.85,0.78-3.79,1.32-5.74,1.81c-1.79,0.39-3.62,0.73-5.45,0.69c-2.31,0.03-4.7-0.49-6.62-1.83c-0.25-0.15-0.46-0.41-0.77-0.42
			c-1.07-0.08-2.05-0.58-2.88-1.23c0.02-0.07,0.04-0.22,0.06-0.28c0.79,0.02,1.57,0.19,2.35,0.26c-0.05-0.17-0.11-0.33-0.28-0.41
			c-0.68-0.39-1.33-0.85-1.88-1.43c-0.13-0.15-0.3-0.24-0.49-0.25c-1.21-0.19-2.36-0.67-3.38-1.34c0-0.11,0.02-0.22,0.02-0.33
			c0.82,0.02,1.63,0.24,2.45,0.27c-0.05-0.25-0.07-0.51-0.18-0.75c-0.14-0.08-0.32-0.03-0.47-0.05c-3.59,0.01-7.2,0-10.8,0.01
			c-0.15,0-0.33,0.01-0.44-0.12c-4.33-4.26-8.67-8.52-13-12.79c-0.29-0.33-0.68-0.58-0.88-0.97c-0.04-2.3,0-4.59-0.02-6.88
			c-2.71-1.35-5.37-3.15-6.91-5.83c-1.01-1.58-2.06-3.14-3.06-4.73c-0.74-1.16-0.9-2.63-0.66-3.97c0.1-0.7,0.35-1.36,0.54-2.04
			c-0.32,0.09-0.64,0.24-0.98,0.23c-0.27-0.07-0.14-0.41-0.13-0.6c0.49-2.63,2.02-4.94,3.78-6.91c2.52-2.72,5.49-5.03,8.69-6.91
			c0.02-0.01,0.06-0.04,0.08-0.06l0.07-0.04c0.01-7.08,0-14.15,0-21.24c-0.04-0.29,0.22-0.47,0.41-0.64
			C19.19,10.5,23.49,6.49,27.8,2.5 M28.89,4.64c-4.06,3.77-8.13,7.52-12.2,11.29c0,10.52,0,21.02,0,31.54
			c0.24-0.05,0.49-0.11,0.73-0.16c1.41-0.34,2.84-0.68,4.29-0.8c0.98-0.13,1.98-0.11,2.95,0.07c0.85,0.17,1.7,0.54,2.22,1.26
			c0.24,0.31,0.34,0.7,0.5,1.04c1.01,0,1.98-0.38,2.87-0.84c0,0.12,0.06,0.27-0.04,0.37c-0.6,0.83-1.56,1.28-2.43,1.77
			c-0.16,0.33-0.17,0.71-0.25,1.06c0.22,0.31,0.44,0.61,0.67,0.93c1.15-0.17,2.39-0.24,3.39-0.9c0.03,0.06,0.1,0.2,0.13,0.26
			c-0.57,0.95-1.57,1.53-2.59,1.86c-0.15,0.06-0.33,0.09-0.45,0.21c-0.09,0.49-0.16,0.99-0.36,1.44c0.15,0.34,0.26,0.71,0.46,1.03
			c0.91,0.19,1.87,0.14,2.79,0.05c-0.01,0.06-0.02,0.19-0.03,0.25c-0.74,0.71-1.78,0.91-2.76,0.99c-0.06,0.36-0.11,0.73-0.24,1.07
			c-0.15,0.38-0.4,0.72-0.56,1.09c0.98,0.05,1.96,0.02,2.94,0.11c-0.05,0.16-0.12,0.31-0.26,0.41c-0.73,0.6-1.71,0.74-2.63,0.83
			c-0.14,0.91-0.71,1.65-1.36,2.27c0.97,0.05,1.93,0.04,2.9,0.11c0.01,0.05,0.02,0.15,0.03,0.2c-0.89,0.79-2.12,0.96-3.26,1.06
			c-0.43,0.85-0.94,1.69-1.7,2.27c-1.63,1.29-3.8,1.56-5.81,1.42c-0.93,0.02-1.84-0.23-2.76-0.3V67.8
			c-0.23-0.03-0.47-0.06-0.71-0.09c-0.02,1.72,0,3.46-0.01,5.2c4.16,4.15,8.33,8.28,12.5,12.42c0.09,0.08,0.18,0.2,0.32,0.18
			c2.81,0,5.63,0,8.44,0c-0.36-0.23-0.71-0.45-1.07-0.65c-0.28-0.19-0.63-0.09-0.94-0.1c-1.76,0-3.51,0-5.26,0
			c-0.43-0.05-1.02,0.13-1.27-0.31c0.37,0.18,0.77,0.27,1.18,0.28c1.81-0.01,3.62,0,5.43-0.01c0.21-0.09,0.44-0.08,0.65,0.01
			c0.02-0.05,0.06-0.14,0.08-0.18c0.81-0.04,1.62,0.12,2.43,0.15c0-0.56,0.21-1.08,0.36-1.61c-1.08-0.34-2.13-0.97-2.67-2
			c0.02-0.03,0.06-0.09,0.08-0.12c0.88,0.44,1.88,0.63,2.86,0.62c0.12-0.49,0.25-0.99,0.51-1.43c0.22-0.38,0.56-0.7,0.88-1
			c-0.8-0.25-1.68-0.51-2.22-1.18c-0.23-0.25-0.28-0.62-0.11-0.93c0.81,0.35,1.64,0.71,2.54,0.74c0.18-0.6,0.47-1.18,0.95-1.61
			c0.91-0.83,2.14-1.21,3.33-1.42c2.34-0.41,4.73-0.3,7.08-0.1c2.67,0.25,5.31,0.67,7.95,1.15c0.4,0.07,0.77-0.09,1.15-0.17
			c1.66-0.39,3.24-1.07,4.73-1.88c0.01,0.29,0.01,0.57,0.02,0.87c1.85-0.77,3.64-1.89,4.81-3.55c1.01-1.44,1.38-3.29,1.17-5.04
			c-0.13-1.31-0.53-2.58-1.03-3.79c-0.11-0.25-0.23-0.5-0.35-0.74c-4.26,0-8.51-0.01-12.77,0c-0.01,2.4,0,4.81,0,7.22
			c-6.51,0-13.01,0-19.53,0c0-5.71,0-11.42,0-17.12c-0.26-0.28-0.53-0.56-0.8-0.83c0,0.16,0,0.31,0,0.47
			c-0.06,0.1-0.11,0.22-0.17,0.32c-1.08-0.7-2.01-1.63-2.71-2.71c-0.69-1.22-1.3-2.57-1.19-4c0.02-1.07,0.11-2.14,0.1-3.2
			c-0.3,0.1-0.6,0.21-0.89,0.33c-0.31-1.36-0.51-2.74-0.46-4.15c0.04-2.09,0.64-4.17,1.76-5.93c0.33-0.59,0.8-1.08,1.19-1.63
			c-0.91-0.62-1.5-1.59-1.94-2.58c-0.62-1.28-0.92-2.75-0.61-4.16c0.21-1.12,0.79-2.13,1.39-3.09c0.78-1.14,1.84-2.17,3.18-2.6
			c1.24-0.43,2.61-0.31,3.84,0.08l-0.02-0.05l0.03,0.04c0.43,0.13,0.8,0.37,1.15,0.63c5.22,0,10.43,0,15.65,0c0,1.24,0,2.48,0,3.72
			c0.28,0.17,0.56,0.32,0.84,0.49c0.37,0.27,0.72,0.57,1.12,0.81c0.47,0.07,0.96-0.01,1.43,0.06c0.67,0.11,1.35,0.25,1.96,0.54
			c0.52,0.18,0.91,0.58,1.4,0.82c0.27-0.48,0.67-0.87,1.11-1.18c0.95-0.67,2.04-1.23,3.22-1.3c0.91-0.06,1.82,0.18,2.62,0.61
			c1.19,0.58,2.25,1.55,2.75,2.8c0.43,1.03,0.45,2.17,0.38,3.27c1.41,0,2.82,0,4.22,0c0.01-4.42,0-8.82,0.01-13.24
			C74.07,12.18,70,8.41,65.93,4.63C53.58,4.64,41.24,4.63,28.89,4.64 M38.29,19.69c-1.14,0.08-2.2,0.62-3.06,1.36
			c-0.87,0.77-1.49,1.86-1.59,3.03c-0.05,0.88-0.04,1.8,0.27,2.64c0.42,1.29,1.42,2.31,2.61,2.9c0.44-0.32,0.94-0.55,1.43-0.78
			c-0.24,0.31-0.47,0.64-0.78,0.88c-0.01,0.01-0.01,0.02-0.02,0.03c-0.75,0.73-1.35,1.58-1.95,2.42c-0.4,0.62-0.8,1.26-1.1,1.93
			c-0.76,1.57-1.11,3.39-0.74,5.11c0.34-0.29,0.69-0.56,1.04-0.82c0.23,0.92,0.2,1.88,0.15,2.82c-0.06,1.45-0.27,2.92-0.07,4.37
			c0.13,1.08,0.46,2.21,1.32,2.94c0.2-0.45,0.45-0.87,0.71-1.29c0.34,0.78,0.65,1.58,1.19,2.24c0.24,0.31,0.57,0.54,0.87,0.8
			c0.71,0.58,1.3,1.29,1.83,2.04c0.27-0.41,0.47-0.84,0.71-1.27c1.02,1.42,2.67,2.2,4.3,2.69c0.9,0.29,1.88,0.38,2.67,0.94
			c0.36,0.25,0.64,0.59,0.9,0.94c0.03-0.05,0.08-0.15,0.11-0.2l-0.02-0.04c0.38-1.16,0.44-2.41,0.42-3.63
			c0.66,0.98,0.69,2.2,0.84,3.33c0.07,0.56,0.21,1.18,0.69,1.54c1.53,0.91,3.29,1.45,5.08,1.49c0.64-0.03,1.35-0.1,1.84-0.56
			c0.58-0.55,1.09-1.18,1.49-1.87c-0.09,0.44-0.2,0.88-0.3,1.33c1.6-0.64,2.78-2.01,3.68-3.43c0.88-1.36,1.38-2.93,2.37-4.23
			c0.08,0.2,0.16,0.39,0.23,0.59c0.43-0.93,0.96-1.81,1.51-2.67c0.5-0.85,1.13-1.62,1.56-2.51c0.29-0.59,0.7-1.13,0.81-1.79
			c0.17-0.65,0.18-1.33,0.07-2c-0.05-1.15,0.38-2.24,0.63-3.36c0.16-0.75,0.11-1.54-0.17-2.24c-0.35-0.87-0.7-1.76-1.06-2.63
			c-0.23-0.57-0.41-1.16-0.77-1.66c-0.95-1.56-2.17-2.98-3.69-4c-1.15-0.84-2.52-1.43-3.95-1.54c0.54,0.83,1.02,1.79,0.94,2.81
			c-0.38-0.53-0.63-1.15-1.05-1.67c-0.4-0.5-0.77-1.04-1.27-1.45c-0.89-0.9-2.01-1.59-3.18-2.09c-1.77-0.72-3.7-0.91-5.6-0.88
			c0.09,0.16,0.19,0.31,0.29,0.48c-2.22-0.04-4.63,0.12-6.5,1.45c-0.17-1.27-0.82-2.46-1.78-3.29C41.1,20,39.68,19.54,38.29,19.69
			 M43.72,20.48c0.57,0.38,1.19,0.76,1.53,1.38c1.25-0.12,2.49-0.28,3.74-0.43c-0.06-0.16-0.11-0.31-0.17-0.47
			c0.38-0.02,0.77-0.05,1.15-0.08c1.77-0.07,3.53,0.27,5.21,0.81c0-0.4,0-0.82,0-1.23C51.35,20.48,47.54,20.45,43.72,20.48
			 M67.05,24.74c-0.69,0.33-1.24,0.9-1.65,1.55c0.37,0.25,0.73,0.5,1.11,0.75c0.54-0.74,1.27-1.5,2.24-1.5
			c1.11,0,2.01,0.79,2.73,1.55c-0.2,0-0.39,0-0.59,0c0.22,0.5,0.32,1.08,0.13,1.61c-0.3,0.85-1.07,1.4-1.81,1.85
			c0.18,0.45,0.37,0.88,0.56,1.33c1.29-0.38,2.33-1.51,2.61-2.82c0.21-1,0.04-2.08-0.54-2.92c-0.47-0.67-1.1-1.25-1.87-1.52
			C69.02,24.31,67.96,24.32,67.05,24.74 M8.24,43.76c-1.34,1.33-2.54,2.82-3.4,4.5c0.72-0.17,1.42-0.36,2.14-0.54
			C5.94,49.2,4.97,50.8,4.63,52.6c-0.23,1.16-0.13,2.41,0.42,3.46c0.49,0.61,1.04,1.17,1.56,1.77c0.43,0.44,0.64,1.03,0.98,1.54
			v0.03c0.76,1.25,1.58,2.46,2.68,3.43c1.96,1.86,4.61,2.9,7.28,3.14c1.33,0.17,2.69,0.24,4.01-0.06c0.91-0.21,1.83-0.62,2.39-1.39
			c-0.32-0.14-0.64-0.27-0.95-0.42c0.45-0.21,0.91-0.38,1.37-0.57c-0.07-0.41-0.23-0.78-0.47-1.1c0.72-0.25,1.43-0.62,1.84-1.3
			c-0.38-0.17-0.78-0.28-1.18-0.41c0.43-0.2,0.86-0.37,1.3-0.55c-0.02-0.21,0.02-0.46-0.11-0.63c-0.14-0.21-0.33-0.34-0.5-0.5
			c0.67-0.2,1.23-0.67,1.54-1.29c-0.38-0.22-0.78-0.36-1.16-0.59c0.39-0.2,0.84-0.32,1.22-0.56c-0.13-0.63-0.73-1-1.26-1.29
			c0.4-0.29,0.78-0.64,0.95-1.12c-0.57-0.19-1.15-0.33-1.72-0.52c0.52-0.25,1.05-0.45,1.58-0.69c-0.28-0.6-0.93-0.89-1.53-1.09
			c0.2-0.35,0.47-0.67,0.69-1.01c-0.46-0.22-0.99-0.23-1.48-0.37c0.48-0.28,0.99-0.51,1.49-0.76c-0.12-0.34-0.25-0.69-0.49-0.97
			l-0.03-0.01c-0.71-0.68-1.76-0.75-2.69-0.77c-1.72,0.01-3.41,0.37-5.08,0.79c-2.24,0.56-4.44,1.32-6.62,2.08
			c1.25-1,2.51-2,3.95-2.71c0.05-0.14,0.07-0.28,0.07-0.42c-0.01-1.88-0.01-3.76-0.01-5.64c-0.04,0.02-0.13,0.06-0.17,0.08
			l0.01,0.03c-1.61,1.08-3.14,2.28-4.55,3.62c1.34-2.06,2.83-4.01,4.49-5.81c0.36-0.32,0.15-0.86,0.2-1.3
			C12.37,40.22,10.17,41.84,8.24,43.76 M72.45,39.86c0.46,0.45,0.97,0.83,1.4,1.31c0.91,0.92,1.72,1.94,2.49,2.98
			c-1.29-1.01-2.7-1.89-4.21-2.57c0.08,0.08,0.18,0.17,0.27,0.24c2.01,1.58,3.63,3.57,5.09,5.64c-0.17-0.12-0.33-0.26-0.49-0.39
			c-1.8-1.54-3.83-2.79-5.92-3.9c-0.31,1.01-0.74,1.98-1.28,2.89c-0.71,1.08-1.44,2.13-2.14,3.22c-0.99,1.49-1.66,3.17-2.07,4.89
			c-0.25-0.36-0.49-0.74-0.74-1.11c-0.3,0.69-0.64,1.35-1.09,1.95c-1.51,2.13-3.83,3.52-6.21,4.49c-1,0.34-2.06,0.54-3.11,0.47
			c-1.44-0.07-2.84-0.59-4.06-1.35c-0.64-0.35-1.16-0.85-1.76-1.27c-0.01,0.33-0.01,0.67-0.02,1c-0.26-0.45-0.54-0.88-0.9-1.26
			c-1.03-1.07-2.5-1.6-3.95-1.81c-1.18-0.19-2.23-0.79-3.13-1.56c-0.07,0.34-0.13,0.7-0.19,1.04c-0.37-0.1-0.68-0.32-0.95-0.6
			c0.01,4.18,0,8.35,0.01,12.53c5.2,0,10.41,0,15.61,0c0.01-0.48,0.01-0.95,0-1.41c-1.47-0.19-2.93-0.61-4.15-1.49
			c1.53,0,3.15,0.12,4.58-0.56c-1.19-0.47-2.48-0.71-3.65-1.27c-1.31-0.58-2.63-1.23-3.72-2.19c1.82,0.74,3.73,1.32,5.69,1.49
			c2.25,0.23,4.57-0.13,6.65-1.03c1.21-0.5,2.31-1.21,3.35-1.98c-0.26,0.72-0.55,1.41-0.79,2.13c1.94-0.5,3.95-1.17,5.33-2.7
			c-0.15,0.81-0.55,1.56-0.87,2.31c1.22-0.49,2.36-1.17,3.27-2.13c0.04,0.01,0.11,0.03,0.15,0.05c1.13,2.49,2.15,5.09,2.46,7.82
			c0.29,2.16,0.01,4.48-1.13,6.37c-0.73,1.21-1.78,2.2-2.97,2.94c-1.68,1.08-3.62,1.67-5.55,2.12c0.05-0.24,0.11-0.49,0.15-0.73
			c-1.33,0.44-2.67,0.86-4,1.3c-0.16,0.05-0.32,0.09-0.47,0.02c-1.19-0.51-2.46-0.77-3.73-0.98c-3.13-0.48-6.3-0.65-9.46-0.49
			c-1.16,0.08-2.36,0.19-3.43,0.69c-0.43,0.21-0.88,0.57-0.91,1.08c0.53,0.25,1.09,0.42,1.63,0.64c-0.64,0.17-1.29,0.29-1.92,0.5
			c0.09,0.31,0.21,0.6,0.36,0.88c-0.77,0.23-1.51,0.73-1.77,1.52c0.51,0.23,1.04,0.43,1.56,0.65c-0.45,0.2-0.9,0.37-1.35,0.55
			c0.1,0.3,0.3,0.54,0.58,0.69c-0.56,0.32-1.18,0.7-1.36,1.36c0.6,0.23,1.22,0.38,1.8,0.67c-0.43,0.19-0.88,0.35-1.31,0.54
			c0.5,0.33,1,0.65,1.5,0.99c-0.31,0.38-0.42,0.87-0.3,1.35c0.65,0.17,1.3,0.29,1.95,0.45c-0.38,0.19-0.76,0.38-1.13,0.61
			c0.16,0.16,0.31,0.32,0.51,0.43c0.73,0.38,1.56,0.59,2.39,0.57c-0.23,0.38-0.54,0.75-0.62,1.21c0.62,0.04,1.24,0.11,1.85,0.18
			c-0.37,0.3-0.74,0.61-1.1,0.94c0.83,0.29,1.67,0.6,2.56,0.72c0.73,0.19,1.5,0.17,2.25,0.24c0.62,0.03,1.24-0.07,1.86-0.07
			c2.78-0.28,5.48-1.08,8.04-2.16c0.88-0.31,1.69-0.77,2.52-1.17c1.09-0.54,2.16-1.1,3.26-1.62c0.96-0.3,1.95-0.48,2.9-0.81
			c1.84-0.52,3.6-1.3,5.36-2.03l0.03-0.03c0.53-0.17,1.01-0.42,1.52-0.63c2-0.91,3.93-1.96,5.73-3.23c2.59-1.82,4.88-4.17,6.3-7.02
			c1.05-2.09,1.56-4.44,1.58-6.76c0.01-4.28-1.42-8.42-3.34-12.19c0.71,0.17,1.4,0.38,2.11,0.54c-1.02-2.12-2.28-4.13-3.68-6.02
			c-0.51-0.65-0.94-1.37-1.5-2.01c-1.08-1.34-2.23-2.62-3.45-3.84C77.22,42.74,75.03,40.94,72.45,39.86L72.45,39.86z"/>
		<path id="path10_1_" class="st0" d="M36.02,21.43c1.28-0.59,2.9-0.77,4.14,0.02c0.85,0.58,1.67,1.34,2.04,2.34
			c0.16,0.44,0.17,0.9,0.14,1.36c0.09-0.02,0.29-0.04,0.38-0.06c-1.37,0.83-2.62,1.84-3.95,2.73c0.15-0.42,0.38-0.79,0.61-1.17
			c-0.95,0.42-1.87,0.95-2.61,1.67c-0.84-0.46-1.37-1.33-1.48-2.27c-0.09-0.88-0.22-1.82,0.16-2.65c0.29-0.7,0.9-1.18,1.54-1.55
			C36.69,21.65,36.35,21.53,36.02,21.43z"/>
		<path id="path12_1_" class="st0" d="M49.69,31.01c1.17-0.15,2.46,0.01,3.42,0.75c1.08,0.81,1.59,2.14,1.83,3.43
			c-0.3-0.35-0.6-0.71-0.89-1.07c-0.21,0.47-0.57,0.91-1.1,1.03c-0.56,0.08-1.21,0.08-1.67-0.3c-0.52-0.38-0.74-1.08-0.7-1.7
			c0.02-0.33,0.22-0.61,0.38-0.88c-0.6-0.26-1.25-0.43-1.89-0.55c0.5-0.08,1-0.1,1.5-0.15C50.27,31.37,49.98,31.19,49.69,31.01
			 M51.61,33.63c0.06,0.35,0.24,0.77,0.64,0.84c0.44,0.06,0.96,0,1.24-0.39c-0.16-0.16-0.32-0.3-0.48-0.46
			c-0.17,0.14-0.33,0.37-0.57,0.27c-0.31-0.12-0.32-0.54-0.12-0.76c-0.18-0.12-0.36-0.26-0.55-0.38
			C51.64,33.02,51.5,33.32,51.61,33.63z"/>
		<path id="path14_1_" class="st0" d="M63.78,35.49c0.46-0.44,1.04-0.75,1.67-0.84c0.7-0.08,1.43,0.08,2.04,0.45
			c-0.21,0.03-0.43,0.06-0.64,0.09c0.23,0.12,0.46,0.23,0.68,0.35c-0.04,0-0.11,0-0.15,0.01c-0.26,0-0.53,0.01-0.79,0.01
			c0.02,0.33,0.1,0.65,0.06,0.98c-0.14,0.32-0.37,0.64-0.71,0.79c-0.34,0.1-0.7,0.12-1.05,0.19c0.17,0.65,0.19,1.34,0.33,2.01
			c0.16,0.25,0.42,0.43,0.51,0.72c0.18,0.45,0.05,0.95-0.14,1.37c0.45,0.96,0.6,2.08,0.18,3.07c-0.53,1.36-1.78,2.21-2.8,3.18
			c0.05-0.52,0.3-0.98,0.6-1.39c0.56-0.77,1.13-1.57,1.38-2.5c0.11-0.37,0.09-0.75-0.01-1.12c-0.26,0.05-0.52,0.12-0.79,0.16
			c-0.17,0.03-0.41-0.01-0.44-0.22c-0.02-0.44,0.36-0.85,0.17-1.28c-0.23-0.35-0.86-0.34-1.07,0.03c-0.19,0.32-0.31,0.69-0.34,1.05
			c-0.02,0.32,0.19,0.58,0.35,0.84c-0.5,0.16-0.98,0.35-1.48,0.49c-0.17,0.08-0.29-0.07-0.4-0.17c-0.36-0.33-0.72-0.65-1.09-0.99
			c0.51-0.19,1.08-0.38,1.36-0.88c0.18-0.28,0.36-0.72,0.06-1c-0.24-0.16-0.53-0.3-0.82-0.26c-0.35,0.17-0.52,0.54-0.86,0.72
			c-0.38,0.25-0.93,0.46-1.34,0.14c-0.32-0.26-0.67-0.55-0.78-0.95c-0.05-1.19,1.03-2.27,2.2-2.33c0.9-0.1,1.75,0.3,2.56,0.65
			c0.57,0.25,1.19,0.34,1.81,0.36c-0.15-0.33-0.3-0.69-0.57-0.94c-0.28-0.27-0.66-0.42-1.01-0.57c0.34-0.05,0.68-0.08,1.02-0.09
			c-0.1-0.25-0.19-0.51-0.37-0.72c-0.19-0.22-0.48-0.29-0.74-0.37C62.86,36.18,63.37,35.9,63.78,35.49 M65.2,35.9
			c-0.01,0.06-0.02,0.18-0.03,0.24c-0.12,0.03-0.24,0.05-0.36,0.08c-0.02-0.07-0.07-0.2-0.09-0.27c-0.15,0.06-0.3,0.13-0.45,0.19
			c0.22,0.25,0.48,0.65,0.88,0.51c0.37-0.14,0.39-0.56,0.44-0.89C65.46,35.8,65.33,35.85,65.2,35.9 M59.34,39.13
			c0.59,0.08,1.23,0.08,1.75,0.41c0.55,0.43,1.21,0.73,1.9,0.78c0.66,0.05,1.31,0.15,1.96,0.2c-0.05-0.16-0.09-0.33-0.25-0.42
			c-0.23-0.11-0.49-0.06-0.74-0.08c-0.94-0.03-1.81-0.42-2.63-0.82C60.73,38.88,59.96,38.76,59.34,39.13z"/>
		<path id="path16_1_" class="st0" d="M57.02,35.66c0.56-0.39,1.2-0.74,1.9-0.68c0.49,0.01,0.91,0.28,1.29,0.56
			c0.39,0.29,0.81,0.55,1.17,0.88c-0.16,0-0.33,0.06-0.47-0.04c-0.59-0.31-1.22-0.64-1.91-0.62c-0.61,0.04-1.22,0.11-1.83,0.16
			C57.14,35.86,57.06,35.72,57.02,35.66L57.02,35.66z"/>
		<path id="path18_1_" class="st0" d="M59.28,36.63c0.7-0.26,1.5,0.1,1.92,0.68c-0.42,0.08-0.8-0.15-1.21-0.2
			c-0.43-0.08-0.86-0.02-1.28,0.01C58.74,36.82,59.05,36.73,59.28,36.63z"/>
		<path id="path20_1_" class="st0" d="M51.13,37.74c1.2-0.36,2.38-0.79,3.59-1.11c-0.03,0.24-0.07,0.49-0.2,0.7
			c-1.02,1.68-3.01,2.41-4.1,4.03c0.42-0.15,0.83-0.31,1.26-0.44c-1.12,1.25-1.95,2.75-2.35,4.38c-0.22,0.79-0.27,1.62-0.37,2.43
			c-0.46-1.04-0.57-2.2-0.35-3.3c0.09-0.49,0.24-0.96,0.37-1.43c-0.32,0.18-0.62,0.37-0.91,0.58c0.06-0.69,0.33-1.33,0.71-1.89
			c0.56-0.79,1.13-1.59,1.91-2.17c0.63-0.46,1.26-0.93,1.84-1.43c-0.26-0.05-0.52-0.09-0.78-0.16
			C51.54,37.87,51.33,37.81,51.13,37.74z"/>
		<path id="path22_1_" class="st0" d="M50.21,45.64c0.49-0.72,1.37-1.02,2.19-1.15c1.09-0.15,2.21-0.15,3.3,0.03
			c0.53,0.06,1.04,0.19,1.57,0.18c1.24-0.04,2.48-0.11,3.72-0.15c0.07,0.42,0.29,0.8,0.62,1.07c0.45,0.37,0.85,0.8,1.25,1.22
			c-0.75,1.18-1.68,2.29-2.08,3.66c-0.4,1.32-0.79,2.65-1.19,3.97c-0.18,0.65-0.7,1.22-1.36,1.4c-0.88,0.3-1.83,0.25-2.73,0.11
			c-0.97-0.12-1.94-0.38-2.77-0.91c0.08,0.47,0.43,0.79,0.78,1.08c-0.75-0.18-1.64-0.56-1.8-1.4c-0.23-1.28-0.17-2.6-0.17-3.9
			c-0.04-1.48-0.24-2.95-0.67-4.37c-0.46,0.29-0.62,0.83-0.85,1.3C49.84,47.06,49.79,46.26,50.21,45.64 M54.85,45.04
			c-0.16,0.65-0.17,1.34-0.09,2.01c0.2-0.04,0.42-0.03,0.6-0.13c0.34-0.4,0.6-0.88,1.01-1.22c0.14,0.25,0.14,0.64,0.46,0.73
			c0.27,0.11,0.51-0.12,0.77-0.17c-0.05,0.45,0.53,0.57,0.81,0.3c0.08,0.03,0.17,0.05,0.25,0.08c-0.01,0.28,0.22,0.35,0.45,0.4
			c0.18-0.09,0.36-0.19,0.54-0.28c0.1,0.24,0.26,0.47,0.52,0.56c0.18-0.12,0.34-0.28,0.55-0.35c-0.03,0.61-0.2,1.21-0.21,1.83
			c0.44-0.21,0.66-0.69,1-1.02c0.34-0.33,0.55-0.97,0.15-1.34c-0.42-0.3-0.82-0.61-1.23-0.92c-0.85,0.22-1.74,0.15-2.6,0.05
			C56.83,45.46,55.84,45.25,54.85,45.04 M53.21,51c-0.51,0.55-0.69,1.34-0.67,2.08c0.03,0.3,0,0.65,0.25,0.86
			c0.3,0.29,0.78,0.16,1.01-0.15c0.06,0.56,0.81,0.47,1.11,0.17c0.1,0.18,0.25,0.33,0.4,0.46c0.21-0.04,0.41-0.12,0.56-0.28
			c0.09,0.18,0.16,0.45,0.42,0.45c0.2,0.08,0.38-0.03,0.56-0.13c0.04,0.36,0.43,0.37,0.69,0.23c0.02,0.34,0.47,0.53,0.71,0.28
			c0.48-0.53,0.86-1.16,1.02-1.86c0.05-0.24,0.16-0.5,0.01-0.73c-0.46,0.46-0.82,1-1.24,1.49c-0.06,0.07-0.13,0.1-0.23,0.09
			c-0.05-0.14-0.09-0.27-0.16-0.39c-0.23-0.07-0.47-0.02-0.7,0c-0.14-0.29-0.53-0.39-0.76-0.17c-0.28,0.02-0.32-0.37-0.6-0.37
			c-0.21-0.08-0.36,0.08-0.51,0.2c-0.12-0.28-0.41-0.4-0.7-0.44c-0.16,0.12-0.35,0.2-0.56,0.19c-0.15-0.57-0.27-1.15-0.36-1.75
			C53.45,51.11,53.35,50.86,53.21,51z"/>
	</g>
</g>
</svg>
