<?xml version="1.0" encoding="utf-8"?>
<!-- Generator: Adobe Illustrator 22.1.0, SVG Export Plug-In . SVG Version: 6.00 Build 0)  -->
<svg version="1.1" id="Layer_1" xmlns="http://www.w3.org/2000/svg" xmlns:xlink="http://www.w3.org/1999/xlink" x="0px" y="0px"
	 viewBox="0 0 133.9646606 78.7948227" style="enable-background:new 0 0 133.9646606 78.7948227;" xml:space="preserve">
<style type="text/css">
	.st0{fill:#4153A4;}
	.st1{fill:#121245;}
	.st2{fill:#ABB8DE;}
	.st3{fill:#2C2C81;}
	.st4{clip-path:url(#SVGID_2_);fill:#4853A4;}
	.st5{clip-path:url(#SVGID_2_);}
	.st6{fill:#B8BBD8;}
	.st7{fill:#EDEDF5;}
	.st8{fill:none;stroke:#121245;stroke-miterlimit:10;}
	.st9{fill:none;stroke:#121245;stroke-miterlimit:10;stroke-dasharray:4.1037498,4.1037498;}
	.st10{fill:#3E54A3;}
	.st11{fill:none;stroke:#121245;stroke-miterlimit:10;stroke-dasharray:3.9702759,3.9702759;}
	.st12{fill:#FFFFFF;}
</style>
<g>
	<path class="st10" d="M61.9470711,70.4401627c0.4807625,0,0.9615211,0,1.4146767,0
		c-0.9600067-1.4607239-2.8314095-1.4454803-4.1505089-2.350174c0.0263901-0.087265,0.0527802-0.1745377,0.0791664-0.2618103
		c0.3216171,0.0288467,0.6435013,0.0817261,0.9647522,0.0781326c0.2164688-0.0024185,0.4320374-0.0845871,0.6480103-0.1310883
		c-0.2251282-0.1053314-0.4489746-0.2987366-0.6755867-0.3020248c-1.7511749-0.0254593-3.5028839-0.0140762-5.254425-0.0142288
		c-0.6821823-0.000061-1.3670731,0.0350342-2.0452995-0.0168762c-0.3019104-0.0231094-0.6637154-0.1468887-0.8736572-0.3523636
		c-2.2250633-2.1776657-4.4218102-4.3842239-6.6333542-6.5757637c-0.9421577-0.9336395-1.9165039-1.8354187-2.8394585-2.7873268
		c-0.1999893-0.2062645-0.3359451-0.5638275-0.3410263-0.8545151c-0.0228271-1.3050957,0.0111237-2.6112175,0.0269966-3.9169464
		c0.0049782-0.4097557-0.1652527-0.6707458-0.5464897-0.8680458c-2.0168953-1.0438118-3.7290154-2.4153633-4.8418961-4.4603119
		c-0.4655075-0.8553848-1.0200424-1.6685677-1.5944366-2.4569855c-0.8672028-1.1903229-1.0702438-2.4754486-0.7101898-3.8766708
		c0.0681305-0.2651367,0.1418495-0.5288391,0.2206383-0.8216248c-0.0880699-0.0270042-0.1525192-0.0642776-0.2166138-0.0636749
		c-0.5639458,0.0052643-0.6048775-0.0559158-0.4772491-0.5916786c0.6225624-2.6134224,2.2248421-4.6019821,4.1942863-6.2864151
		c1.4634094-1.2516403,3.0959816-2.3041782,4.6250648-3.4819355c0.2023735-0.1558781,0.332222-0.526516,0.3362083-0.8000164
		c0.0284805-1.9539394,0.0157318-3.9084854,0.0158386-5.8628387c0.0001526-2.839344,0.0064812-5.6787167-0.0065842-8.5180016
		c-0.0020142-0.4381714,0.1270447-0.74086,0.4614029-1.0497732c2.028923-1.8745012,4.0265465-3.7828331,6.040699-5.6733942
		c0.9665489-0.9072409,1.9280167-1.8217678,2.9340477-2.6836677c0.2316093-0.1984291,0.6365814-0.2712402,0.9620781-0.2720122
		c6.4530182-0.0153146,12.9060822-0.0115027,19.3591385-0.0115638c2.4337158-0.0000224,4.8684692,0.0399823,7.3006058-0.0219197
		c0.8411789-0.0214081,1.4220123,0.278348,1.9882278,0.830667c1.1601639,1.1316838,2.360199,2.2223821,3.5366974,3.3374562
		c1.6310043,1.5458307,3.2505875,3.103735,4.8868713,4.6439219c0.322319,0.3033972,0.4445419,0.6374588,0.4431076,1.0749521
		c-0.011528,3.5214853-0.0052872,7.0430269-0.0075531,10.5645514c-0.0004883,0.7498856-0.0615005,0.8060379-0.8321075,0.8079796
		c-1.1062317,0.0027847-2.2131195-0.0188313-3.3182297,0.0166149c-0.2613602,0.008379-0.5421677,0.1651344-0.769165,0.3195763
		c-0.3781738,0.2572937-0.696907,0.6054573-1.0844116,0.8444328c-0.3278427,0.2021885-0.3047333,0.3717384-0.2123032,0.711134
		c0.1901169,0.6981277,0.2540588,1.4296799,0.4104233,2.1385403c0.0435486,0.1974373,0.1888123,0.4243622,0.3556061,0.5345802
		c1.5031281,0.9933395,3.0863342,1.8778381,4.5198135,2.9612846c2.0556412,1.5536842,3.755928,3.4853821,5.1347733,5.6609688
		c1.0818787,1.7070198,2.0497055,3.4873657,3.0368652,5.252655c0.2582474,0.4618378,0.4116745,0.9847908,0.5879288,1.4885368
		c0.0561905,0.1605797,0.0306015,0.3497696,0.0424194,0.5258675c-0.1730576,0.0028648-0.3480148,0.0227356-0.5186615,0.0038528
		c-0.1729965-0.019146-0.3417587-0.0765877-0.6036682-0.1390228c0.096405,0.5260162,0.1908646,0.9517212,0.2504654,1.3822517
		c0.2520981,1.8211861,0.66642,3.6405869,0.7004776,5.4666214c0.0567017,3.0401573-0.8471222,5.7991257-3.0302734,8.0574684
		c-2.5623627,2.6506157-5.7045517,4.41679-9.0139923,5.8895073c-1.7067337,0.7595062-3.5464783,1.2151184-5.3038483,1.8680038
		c-0.8428802,0.3131332-1.6361008,0.761261-2.4482269,1.155632c-3.3757172,1.6391983-6.8927536,2.6963959-10.6906815,2.5374451
		c-1.1527939-0.0482483-2.2418213-0.384758-3.2801285-0.9027252c-0.7035217-0.3509521-1.4439354-0.6272049-2.1561203-0.9618301
		c-0.373764-0.1756134-0.7223015-0.4049072-1.0822296-0.6099625C61.893013,70.5571213,61.9200439,70.498642,61.9470711,70.4401627z
		 M86.5210724,65.8134918c0.0900192-0.0185928,0.1863251-0.0224915,0.269165-0.0578995
		c3.0070496-1.2852554,5.8163147-2.8717232,7.985611-5.3904152c1.5584869-1.8095169,2.4919815-3.9146881,2.6931763-6.2979126
		c0.1933441-2.2903481-0.1759186-4.5205116-0.9821701-6.6703491c-0.4131165-1.1015549-0.8791428-2.1832657-1.3212585-3.273941
		c0.3671265,0.0287628,0.7342453,0.0575256,1.1013641,0.0862885c-0.1155624-0.3505211-0.1761856-0.7324142-0.3555374-1.046505
		c-1.2281265-2.1506729-2.6840744-4.1437111-4.3434753-5.9783134c-1.4999619-1.6583214-3.1332016-3.1740799-5.1079025-4.2720871
		c-0.1712875-0.0952415-0.3551941-0.167778-0.6519623-0.306263c0.8676758,0.9882393,1.6261826,1.85215,2.384697,2.7160606
		c-0.0176697,0.0161438-0.0353317,0.0322876-0.0529938,0.0484276c-0.7655563-0.4722061-1.531105-0.9444122-2.2966614-1.4166183
		c-0.0100327,0.0206985-0.02005,0.0413971-0.0300751,0.0620956c1.0512161,1.1784821,2.1024246,2.3569565,3.1536407,3.5354385
		c-0.0316162,0.0260735-0.0632401,0.0521469-0.0948563,0.0782204c-1.4301224-0.932724-2.8602371-1.8654556-4.212883-2.7476578
		c-0.7179413,1.2075691-1.3685837,2.2709846-1.9878845,3.352356c-0.6118011,1.0683022-1.2088776,2.1459351-1.7766342,3.2380753
		c-0.1953278,0.375721-0.282814,0.8074989-0.4401779,1.2748756c-0.1383896-0.1466408-0.2103729-0.2282333-0.2881775-0.3038368
		c-0.0752335-0.0731277-0.1564636-0.1400948-0.2403793-0.2144775c-0.0631485,0.0569038-0.1180115,0.0848312-0.1397781,0.1290474
		c-0.8760147,1.77985-2.2984238,2.9742203-4.0404129,3.8577957c-1.6854095,0.8548698-3.3995895,1.2290039-5.1954193,0.4189301
		c-0.7974472-0.3597107-1.548233-0.8228531-2.3340683-1.246521c-0.0363617,0.0962181-0.0836105,0.2212715-0.139389,0.3688812
		c-1.1465607-1.4221191-1.6896744-1.7119522-3.4631424-2.110218c-0.6144829-0.137989-1.187191-0.4662743-1.7745171-0.7180557
		c-0.160099-0.068634-0.303978-0.1750984-0.4592514-0.2665253c-0.1192436,0.2059288-0.208744,0.3604851-0.3118668,0.5385742
		c-0.1845131-0.0722885-0.3456421-0.1354179-0.5483246-0.2148247c0,2.8773918-0.000267,5.7124176,0.0003128,8.547451
		c0.0000839,0.3892479,0.2643929,0.4302025,0.5662766,0.4301186c3.3732719-0.000927,6.7465706-0.0065994,10.1197853,0.0071259
		c0.5078812,0.0020599,0.6356888-0.2239799,0.6059418-0.6776733c-0.0228195-0.348053-0.2376251-0.4034042-0.5120392-0.4531441
		c-0.7891922-0.1430397-1.5558777-0.3505249-2.263298-0.8840408c1.0039444-0.1281281,1.9284363-0.2461166,2.8529205-0.3641014
		c0.0052109-0.0762825,0.0104294-0.1525612,0.0156479-0.2288399c-1.7027893-0.5471115-3.4161224-1.0728188-4.8159027-2.2786484
		c3.8796539,1.468811,7.5757065,1.3284111,11.1059036-1.2779884c-0.1913605,0.5619736-0.3333359,0.9789429-0.5045547,1.4817543
		c1.4774628-0.3185425,2.7122345-0.8460579,3.8053131-1.7440414c-0.1669083,0.4487686-0.3338013,0.8975449-0.5235443,1.4077034
		c0.9848175-0.2903366,1.6524124-0.8996887,2.3311691-1.4917336c0.1369553,0.3009872,0.2767029,0.6007309,0.410408,0.9031525
		c0.9313812,2.1064949,1.6117325,4.2691078,1.4812469,6.6139069c-0.1016541,1.8267822-0.8450317,3.3264542-2.2634354,4.4910736
		c-1.2841568,1.0544052-2.7921371,1.6190262-4.3814392,1.9928551c-0.1509018,0.0354919-0.3520279-0.14254-0.5298462-0.221447
		c-0.286377-0.0330696-0.6098251,0.044651-0.9143677,0.1687584c-1.1240311,0.458046-2.1894913,0.586216-3.4391098,0.2201195
		c-2.6879654-0.7874832-5.4874878-0.7725143-8.2727356-0.67519c-0.8721466,0.1911774-1.7494431,0.362793-2.6120148,0.5902672
		c-0.1697159,0.044754-0.3500175,0.2891273-0.3934975,0.4726906c-0.0220757,0.093174,0.2390862,0.2703896,0.3918343,0.3829765
		c0.1361656,0.1003609,0.2993622,0.1640358,0.5696182,0.3067245c-0.3254471,0.0876045-0.5135574,0.1526718-0.7071228,0.1871529
		c-0.3400688,0.0605812-0.6352768,0.1232719-0.4425812,0.5946846c0.0301094,0.0736771-0.0918808,0.2480469-0.185379,0.325016
		c-0.1540794,0.1268349-0.3573112,0.1934547-0.513382,0.3184662c-0.4938965,0.395607-0.467247,0.6139755,0.0832024,0.8897629
		c0.1254959,0.0628777,0.2410927,0.1455116,0.4268074,0.259182c-0.2916565,0.1592979-0.5210266,0.2845764-0.7686539,0.4198303
		c0.0708847,0.1762238,0.1303444,0.3240471,0.1851845,0.4603767c-0.1731644,0.1759262-0.3292198,0.3310699-0.481472,0.4898605
		c-0.3645287,0.380188-0.334095,0.5078964,0.1520882,0.6865158c0.2126617,0.0781326,0.4209099,0.1682663,0.7338943,0.2943344
		c-0.3239479,0.1730881-0.5354271,0.2860794-0.7980804,0.4264145c0.1474571,0.1068192,0.2292213,0.1801071,0.322979,0.231514
		c0.3812866,0.2090836,0.6690712,0.424118,0.4553528,0.9559097c-0.0468025,0.1164627,0.2333221,0.4410858,0.429512,0.5584564
		c0.2301598,0.1376801,0.5330772,0.1537094,0.8970184,0.2459793c-0.2753868,0.2095566-0.4529037,0.3446426-0.7800217,0.5935669
		c0.7674866,0.2674179,1.3924179,0.4851608,2.0341415,0.7087555c-0.0911713,0.2229996-0.1771469,0.4333038-0.2783813,0.6809158
		c0.4126434,0.0843277,0.7632217,0.1559753,1.1629562,0.2376633c-0.187767,0.216774-0.3339081,0.385498-0.5162201,0.5959702
		c0.1018143,0.0653534,0.1453171,0.101326,0.1949921,0.1235428c0.1172714,0.0524445,0.2360229,0.102356,0.3567352,0.1462479
		c1.4046783,0.5108261,2.8713531,0.5303802,4.3165894,0.3766937c2.4581833-0.2614288,4.7978363-1.0100632,6.9855347-2.1559448
		c1.7715073-0.9278793,3.6074982-1.6392136,5.5299988-2.1877365C84.3054199,66.8382339,85.3982391,66.273262,86.5210724,65.8134918z
		 M59.6424713,40.4693794c-0.1345711,0.1045799-0.2691383,0.2091599-0.453392,0.3523483
		c-1.518074-1.1725655-2.6314316-2.6010857-2.6411972-4.6703453c-0.00354-0.7507858-0.0005722-1.501606-0.0005722-2.3766518
		c-0.6938324,0.3644218-0.7006416-0.138031-0.7330475-0.489418c-0.0805397-0.873436-0.1480789-1.7521629-0.1441574-2.6284218
		c0.0077438-1.732687,0.5839767-3.28582,1.6576996-4.6400833c0.3327713-0.4197254,0.2966766-0.6933765-0.0760651-1.0745106
		c-0.7520103-0.7689381-1.1839256-1.7409592-1.3481293-2.787941c-0.200428-1.2779503,0.1217613-2.4483681,0.8233948-3.565855
		c1.3944778-2.220993,3.1357422-2.88941,5.5819588-2.0235138c0.4725761,0.347229,1.0125618,0.3429413,1.5686874,0.3408737
		c3.2739983-0.012167,6.5480614-0.0065231,9.8221016-0.0068741c0.1762085-0.0000191,0.3524246-0.0000019,0.5698013-0.0000019
		c0,0.755537,0.0329132,1.435894-0.0114441,2.1111794c-0.0301437,0.4589958,0.1268539,0.7354927,0.5403442,0.8916492
		c0.5422516,0.4374504,1.1232834,0.7083912,1.8589401,0.6884003c0.4239807-0.0115204,0.9283829,0.078537,1.2661133,0.3117828
		c0.855423,0.5907726,1.4102554,0.3745995,2.221405-0.2354546c2.4767227-1.8627186,5.7753067-0.5584602,6.3377457,2.3970203
		c0.0652542,0.3429012,0.1057129,0.6905155,0.1576614,1.035944c-0.0365448,0.1642971-0.0730972,0.3285942-0.1113968,0.5007439
		c1.057724,0,2.0428085,0,3.04496,0c0.0115204-0.130125,0.0262756-0.2194443,0.0263443-0.3087711
		c0.0020599-2.9670067,0.0093994-5.9340553-0.0100555-8.9009275c-0.0014343-0.2189655-0.1454086-0.4922523-0.3106155-0.6466618
		c-2.7589798-2.5786686-5.5285034-5.1461172-8.3103104-7.7001362C80.80336,6.8914576,80.514267,6.8033843,80.2823563,6.8030939
		c-8.679863-0.0108795-17.3597488-0.0108681-26.0395927,0.0067801c-0.2757111,0.0005598-0.6133308,0.1335001-0.8170815,0.3196568
		c-2.6655312,2.4353809-5.3029633,4.9015589-7.9728622,7.3320827c-0.4226646,0.3847694-0.5728912,0.7701235-0.5714951,1.3312263
		c0.0178452,7.1686926,0.0119438,14.3374434,0.0121689,21.5061798c0.0000038,0.128994-0.0426903,0.2835693,0.0136261,0.3800392
		c0.0606613,0.1039124,0.2145844,0.1533852,0.3278236,0.2266045c1.6323051-0.5051384,3.2986259-0.7572403,5.0088196-0.6426125
		c0.8752251,0.05867,1.7277832,0.2712173,2.1495934,1.1182823c0.2913704,0.5851059,0.6640663,0.6042366,1.163681,0.4422035
		c0.3900909-0.1265068,0.7740097-0.2720375,1.1606712-0.4091187c0.0267677,0.0385017,0.0535316,0.0770073,0.0802994,0.115509
		c-0.0927696,0.1208344-0.1648483,0.2690468-0.2820168,0.357605c-0.4240227,0.3204956-0.9128113,0.5725784-1.2780075,0.947155
		c-0.2184029,0.2240028-0.3807297,0.6465759-0.3372917,0.9464302c0.0574303,0.3964195,0.3969231,0.6471291,0.8777199,0.5168686
		c0.5299568-0.1435738,1.0641823-0.2717819,1.5984917-0.3985176c0.0922546-0.0218811,0.1941566-0.0030975,0.3051491-0.0030975
		c-0.1792564,0.5409508-0.6736374,0.9769936-1.3577805,1.2268829c-0.6331215,0.2312508-1.0100098,0.8239479-0.9089661,1.4294434
		c0.1001396,0.6000748,0.3942299,0.7893181,1.2503738,0.7842712c0.3289642-0.0019417,0.6577835-0.0283737,1.1356735-0.0505676
		c-0.5233078,0.5438576-1.0322952,0.714756-1.5833244,0.8150558c-0.1703835,0.0310135-0.4205933,0.0778313-0.477951,0.194355
		c-0.2132645,0.4332619-0.3614616,0.8985558-0.5530052,1.4014969c0.6728058,0.0468445,1.2981644,0.0903893,2.044487,0.1423531
		c-0.4679527,0.5767059-0.999424,0.6873703-1.5331726,0.8160172c-0.2133675,0.0514221-0.4785767,0.1436577-0.5912094,0.3065147
		c-0.2768364,0.4002914-0.4788017,0.8523636-0.763752,1.3818512c0.6014366,0.0528641,1.1876411,0.104393,1.7738495,0.1559219
		c0.0115013,0.0657997,0.0230026,0.1315956,0.0345039,0.1973953c-0.2857246,0.1337242-0.5591164,0.3299408-0.8595352,0.3892403
		c-0.8411446,0.1660385-1.6528854,0.3363724-1.9773369,1.2858238c-0.0217323,0.0636024-0.0968246,0.1091003-0.1474648,0.1626778
		c-0.982708,1.0398865-2.2324448,1.5010414-3.6204033,1.5227776c-1.0258713,0.0160637-2.0541611-0.1225891-3.0813751-0.1923103
		c-0.1599922-0.0609207-0.3199844-0.1218452-0.5517578-0.2101021c0,1.1717224-0.0226097,2.2558136,0.015686,3.3377457
		c0.0097351,0.2749748,0.1450996,0.6107559,0.3376656,0.8042107c2.8309326,2.8439827,5.6772308,5.6727562,8.5366135,8.4881516
		c0.1834564,0.1806335,0.5024109,0.3102417,0.7606735,0.3142853c1.7115402,0.026825,3.4237213,0.0135651,5.1356926,0.0107727
		c0.1372871-0.0002289,0.2745438-0.019928,0.5653763-0.0424881c-0.3704071-0.2194672-0.6128883-0.3631439-0.8553658-0.5068207
		c0.3956413-0.0436096,0.7906036-0.1118088,1.187149-0.1228027c0.3021965-0.0083923,0.6328812,0.1554337,0.7152252-0.3397751
		c0.0685425-0.4122009,0.2716179-0.7969055-0.3696861-0.9796867c-0.6131668-0.1747551-1.0497322-0.6170654-1.3500748-1.2227974
		c0.5826225,0.1108475,1.0958328,0.2331505,1.6162262,0.2932587c0.1679192,0.0194016,0.4340553-0.0733032,0.5185623-0.2034721
		c0.2957001-0.455513,0.531723-0.9497566,0.8169098-1.4784088c-0.2328033-0.1074371-0.4923553-0.1980743-0.7198448-0.3400879
		c-0.2459831-0.153553-0.4848709-0.333847-0.6810532-0.5450287c-0.0920601-0.0990906-0.0766449-0.2980042-0.1099281-0.4516907
		c0.1472092-0.0128632,0.3020058-0.061039,0.4400826-0.0313759c0.3049965,0.0654984,0.5999031,0.1764641,0.9020615,0.2571487
		c0.3055496,0.0815964,0.5313759,0.0023613,0.6681824-0.3149071c0.2687645-0.6233292,0.7333641-1.0974655,1.3689117-1.2891617
		c0.9264526-0.2794266,1.8752441-0.5888634,2.8298035-0.6511192c2.6569366-0.1732941,5.3101273,0.0483513,7.9036484,0.6300774
		c1.779274,0.3990898,3.3850784,0.101963,4.9663544-0.6721001c0.3251572-0.1591644,0.6561584-0.3063698,1.0431366-0.4863815
		c0.0786209,0.6383781,0.4041519,0.4511566,0.7211304,0.2781601c0.2424088-0.1322975,0.4777603-0.2777023,0.7215729-0.4072456
		c2.295929-1.2199402,3.5018768-3.8370667,2.8894272-6.0673714c-0.2189178-0.7971916-0.4716263-1.5851135-0.7089157-2.3772659
		c-0.1291733-0.3494873-0.3860855-0.412323-0.7391357-0.4099884c-2.3596802,0.0156097-4.7195206,0.004467-7.0792923,0.0098724
		c-0.5307922,0.0012169-1.2821426-0.1690178-1.5338898,0.1051674c-0.2857513,0.3112183-0.1461258,1.032711-0.1528702,1.5763168
		c-0.0145645,1.174633-0.0044785,2.3495712-0.0044785,3.5555649c-4.7515869,0-9.4413452,0-14.1949539,0
		c0-0.2426376,0-0.4588547,0-0.6750755c-0.0000076-3.6687317-0.0075188-7.3374901,0.0090446-11.0061493
		C60.0857353,41.2113838,60.0332298,40.7909241,59.6424713,40.4693794z M77.4056015,23.7672386
		c-0.0726166,0.0259228-0.1452332,0.0518436-0.2178497,0.0777664c-0.115387-0.1839161-0.2101593-0.3854618-0.3497391-0.548687
		c-0.5948486-0.6956062-1.1266327-1.4716606-1.8217545-2.0495758c-1.5452652-1.2847118-3.4339905-1.6070328-5.3863373-1.6399899
		c-0.0839615-0.0014172-0.2305679,0.0277023-0.2434082,0.072546c-0.1096115,0.3826656-0.4171524,0.30159-0.6788406,0.2999401
		c-1.327919-0.008379-2.6071243,0.1798496-3.7682571,0.8833065c-0.0526505,0.0319004-0.136734,0.0119267-0.2299042,0.0175457
		c-0.055069-0.1736717-0.1060715-0.3286972-0.15345-0.4848213c-0.4826126-1.590271-1.8067284-2.5860825-3.5453072-2.6655254
		c-1.4138603-0.0646038-3.0031776,0.9567032-3.5600471,2.2877083c-0.5908775,1.4122887-0.1988297,3.2542152,0.9123497,4.2864571
		c0.6874504,0.6386127,0.7830544,0.6540966,1.61092,0.2678757c0.055439-0.0258636,0.116806-0.0390129,0.1754189-0.0580769
		c-0.1722336,0.341959-0.4043274,0.5972576-0.6322823,0.8561993c-1.0946808,1.2434978-2.0209503,2.5899429-2.424099,4.2237282
		c-0.1739273,0.7048416-0.235611,1.4306698-0.0313072,2.1678581c0.2677269-0.1150188,0.4734116-0.2033863,0.7590179-0.326086
		c0,1.1224003,0.0472183,2.1473026-0.0130196,3.1658497c-0.0626945,1.060009-0.0567055,2.1012764,0.3215981,3.1031189
		c0.1160812,0.3074112,0.3347702,0.5760803,0.5496178,0.9344482c0.2566833-0.3089867,0.425312-0.5119705,0.6936188-0.8349457
		c0.4007797,1.662075,1.8711319,2.3430824,2.7335167,3.5929871c0.2040749-0.2933769,0.3643188-0.5237389,0.5512047-0.7924042
		c0.7399712,0.8638077,1.6262245,1.3839455,2.604557,1.7346764c1.0576706,0.3791771,2.2664642,0.3946838,3.054657,1.4012222
		c0.0526962-0.0187302,0.1053925-0.0374641,0.1580887-0.0561943c0.110405-0.7957611,0.2208176-1.5915222,0.3312302-2.3872871
		c0.055809-0.007225,0.1116333-0.0144577,0.16745-0.0216866c0.1334076,0.7454872,0.2994843,1.4870415,0.3899841,2.2377014
		c0.0734406,0.6090927,0.3399811,1.0611153,0.8872833,1.2988892c0.58815,0.2555237,1.1951675,0.4775696,1.810173,0.6593552
		c1.4648819,0.4329948,2.7820129,0.3403893,3.6491928-1.152317c0.017189-0.0295906,0.0845871-0.0300102,0.149437-0.0506973
		c0,0.183445,0,0.338028,0,0.5500221c0.8830414-0.3875275,1.5503464-0.9763565,2.0339813-1.7132072
		c0.6849136-1.0435143,1.2591095-2.159153,1.9078293-3.2274437c0.1160431-0.1910858,0.3638229-0.3021736,0.5507812-0.4501953
		c0.6062012-0.8498154,1.1637955-1.7604637,1.7442932-2.6562691c0.7347412-1.1338463,1.2726974-2.2988358,1.1316833-3.7214355
		c-0.0557327-0.5622368,0.1593552-1.1588898,0.2921219-1.7303486c0.1734009-0.7463856,0.2918625-1.4830265-0.0110016-2.2229061
		c-0.3489227-0.8523865-0.6471634-1.7299767-1.0565491-2.5522461c-0.9044037-1.8165646-2.2471619-3.2299786-4.1059494-4.0913334
		c-0.4775009-0.2212696-1.0170746-0.3085957-1.5750046-0.4711094
		C77.0123291,22.6598148,77.2089615,23.2135258,77.4056015,23.7672386z M50.8636246,41.1070862
		c0.1169701-0.2296906,0.2199097-0.4318275,0.3359261-0.6596527c-0.3246384-0.1023598-0.5763741-0.181736-0.9126244-0.2877579
		c0.16996-0.1210938,0.2597198-0.1752968,0.3380356-0.2427826c0.1940117-0.1671638,0.5671425-0.3903084,0.5370903-0.501297
		c-0.0731354-0.270153-0.3092194-0.516613-0.5289116-0.7192345c-0.1385078-0.1277428-0.3629761-0.2143669-0.553772-0.2241516
		c-0.7497978-0.0384483-1.5353508-0.1877861-2.2462425-0.0260849c-2.1866226,0.4973717-4.3450813,1.1186142-6.5140228,1.6934624
		c-0.1781654,0.0472183-0.3528442,0.1075897-0.5291443,0.16185c-0.020359-0.0465164-0.0407219-0.0930328-0.0610886-0.1395493
		c0.7260437-0.4954262,1.440464-1.0092735,2.1833916-1.4779282c0.3335419-0.2103996,0.4876175-0.4394302,0.4773178-0.8436356
		c-0.0262833-1.0315552-0.0083122-2.0641937-0.0146332-3.0963516c-0.0010338-0.1689072-0.035553-0.3376083-0.0735893-0.6747856
		c-1.0815392,0.8347321-2.0403748,1.5747604-2.9992142,2.3147926c0.0530243-0.2210999,0.1543388-0.39254,0.2765808-0.5474663
		c0.84375-1.0693398,1.7040596-2.1259613,2.5286522-3.2098007c0.1722145-0.2263565,0.217701-0.5491333,0.3215904-0.8274765
		c-0.0660782-0.0345516-0.1321526-0.0691032-0.1982269-0.1036587c-2.655941,1.826582-5.2559433,3.7108135-6.9185257,6.7606373
		c0.5286255-0.0979271,0.9233856-0.1710587,1.3737755-0.2544899c-0.4187088,0.7811012-0.8512383,1.4503784-1.1510048,2.1746101
		c-0.7173767,1.7331772-0.8294334,3.3980522,0.7423897,4.8045387c0.2810326,0.2514725,0.4915123,0.5983047,0.682457,0.9310112
		c0.7387924,1.2873077,1.5775833,2.4941444,2.7585258,3.4173241c2.1736946,1.6992607,4.6824303,2.1381187,7.3527031,1.8563614
		c0.745121-0.0786285,1.4619141-0.3265495,1.9886169-0.9872856c-0.1921768-0.1319351-0.3335075-0.2289619-0.5443306-0.3736992
		c0.2533073-0.1145096,0.4674606-0.1601715,0.603569-0.2885666c0.1147728-0.1082764,0.2387199-0.3658752,0.1857529-0.4651337
		c-0.2192154-0.4107475,0.0043335-0.5390282,0.3149719-0.7076454c0.2612534-0.1418037,0.4767494-0.3679123,0.7436905-0.5816803
		c-0.2772102-0.1905823-0.4204559-0.2890663-0.5768661-0.3965988c0.753231-0.4949265,0.753231-0.4949265,0.4788742-1.2074165
		c0.3208389-0.2588539,0.636734-0.5137138,1.0122681-0.8166962c-0.413166-0.2709999-0.6183662-0.4055901-0.8707352-0.571125
		c0.2921562-0.1596718,0.5262299-0.2875977,0.8577728-0.468792c-0.3097916-0.3297615-0.5732803-0.6102333-0.8328171-0.8864975
		c0.1710472-0.2409554,0.3346977-0.4714966,0.5324326-0.7500458c-0.4069824-0.1563873-0.7368813-0.2831573-1.1515656-0.4425125
		c0.3910751-0.2012482,0.6917801-0.3559952,1.1225548-0.5776749C51.5243073,41.573864,51.2088585,41.3509941,50.8636246,41.1070862z
		 M80.4269714,22.4940128c0.5899429,0.5892582,0.6092911,0.5900059,1.1548309,0.0665359
		c0.8554153-0.8208046,2.1683578-0.7029076,2.8377914,0.2562675c0.0407562,0.058403,0.0973282,0.1270294,0.096344,0.1901131
		c-0.0148773,0.94837-0.0484772,1.8886375-1.0584412,2.4039688c-0.4518127,0.2305298-0.2103195,0.5588188-0.082283,0.8485165
		c0.157692,0.3567772,0.4070587,0.2048664,0.6438446,0.0876255c0.9815521-0.4859982,1.5279312-1.5735931,1.3912811-2.7730885
		c-0.1241379-1.0896206-1.0311661-2.1023769-2.0765381-2.3185768
		C82.1201096,21.0043602,81.0508499,21.4514236,80.4269714,22.4940128z M72.8647995,18.3684444
		c-2.7513504,0-5.4395447,0-8.1699295,0c0.2858658,0.2457676,0.5622559,0.4183064,0.7471619,0.6606407
		c0.185051,0.2425175,0.3546906,0.3336105,0.6468201,0.2433357c0.1548462-0.0478497,0.3285751-0.0320435,0.4928741-0.0523224
		c0.4931793-0.0608845,0.9927673-0.09445,1.4758987-0.2016106c0.2389679-0.0530052,0.4540329-0.3647232,0.668335-0.3527088
		c1.1130753,0.0624046,2.2232285,0.1839371,3.3324814,0.3027363c0.2613525,0.0279942,0.5153275,0.1249695,0.8063583,0.1987438
		C72.8647995,18.860218,72.8647995,18.6284122,72.8647995,18.3684444z"/>
	<path class="st10" d="M86.6403198,24.0995064c-0.0519485-0.3454285-0.0924072-0.6930428-0.1576614-1.035944
		c-0.562439-2.9554806-3.8610229-4.2597389-6.3377457-2.3970203c-0.8111496,0.610054-1.3659821,0.8262272-2.221405,0.2354546
		c-0.3377304-0.2332458-0.8421326-0.3233032-1.2661133-0.3117828c-0.7356567,0.0199909-1.3166885-0.2509499-1.8589401-0.6884003
		c0-1.1418266,0-2.2836514,0-3.4405975c-0.0746002-0.0109692-0.164566-0.035675-0.2545471-0.03578
		c-3.9608536-0.0045986-7.9216995-0.0083179-11.8825417-0.0034466c-0.117527,0.000145-0.2349358,0.0932388-0.3524017,0.1429977
		c-2.4462166-0.8658962-4.1874809-0.1974792-5.5819588,2.0235138c-0.7016335,1.117487-1.0238228,2.2879047-0.8233948,3.565855
		c0.1642036,1.0469818,0.5961189,2.0190029,1.3481293,2.787941c0.3727417,0.381134,0.4088364,0.6547852,0.0760651,1.0745106
		c-1.0737228,1.3542633-1.6499557,2.9073963-1.6576996,4.6400833c-0.0039215,0.8762589,0.0636177,1.7549858,0.1441574,2.6284218
		c0.0324059,0.351387,0.0392151,0.8538399,0.7330475,0.489418c0,0.8750458-0.0029678,1.6258659,0.0005722,2.3766518
		c0.0097656,2.0692596,1.1231232,3.4977798,2.6411972,4.6703453c0.1842537-0.1431885,0.318821-0.2477684,0.453392-0.3523483
		c-0.0505447,0.1806831-0.1448746,0.3612785-0.1452141,0.5420532c-0.0077133,4.1098518,0.0008087,8.2197456-0.013092,12.3295708
		c-0.0015068,0.4448509,0.1083298,0.605732,0.5810509,0.6040154c4.7364197-0.0172577,9.4729156-0.012188,14.2093887-0.0156937
		c0.1952591-0.0001411,0.3904953-0.022789,0.6318741-0.0378304c0-1.7501602,0-3.4404259,0-5.2068214
		c0.2649307,0,0.4801178,0.0000343,0.6953201-0.0000038c2.5248871-0.0004158,5.0497971,0.0024223,7.574646-0.0074959
		c0.2010803-0.0007858,0.4018021-0.0898438,0.602684-0.1378822c0.2372894,0.7921524,0.4899979,1.5800743,0.7089157,2.3772659
		c0.6124496,2.2303047-0.5934982,4.8474312-2.8894272,6.0673714c-0.2438126,0.1295433-0.4791641,0.2749481-0.7215729,0.4072456
		c-0.3169785,0.1729965-0.6425095,0.360218-0.7211304-0.2781601c-0.3869781,0.1800117-0.7179794,0.3272171-1.0431366,0.4863815
		c-1.5812759,0.7740631-3.1870804,1.0711899-4.9663544,0.6721001c-2.5935211-0.5817261-5.2467117-0.8033714-7.9036484-0.6300774
		c-0.9545593,0.0622559-1.9033508,0.3716927-2.8298035,0.6511192c-0.6355476,0.1916962-1.1001472,0.6658325-1.3689117,1.2891617
		c-0.1368065,0.3172684-0.3626328,0.3965034-0.6681824,0.3149071c-0.3021584-0.0806847-0.597065-0.1916504-0.9020615-0.2571487
		c-0.1380768-0.0296631-0.2928734,0.0185127-0.4400826,0.0313759c0.0332832,0.1536865,0.017868,0.3526001,0.1099281,0.4516907
		c0.1961823,0.2111816,0.43507,0.3914757,0.6810532,0.5450287c0.2274895,0.1420135,0.4870415,0.2326508,0.7198448,0.3400879
		c-0.2851868,0.5286522-0.5212097,1.0228958-0.8169098,1.4784088c-0.084507,0.1301689-0.3506432,0.2228737-0.5185623,0.2034721
		c-0.5203934-0.0601082-1.0336037-0.1824112-1.6162262-0.2932587c0.3003426,0.605732,0.736908,1.0480423,1.3500748,1.2227974
		c0.641304,0.1827812,0.4382286,0.5674858,0.3696861,0.9796867c-0.0823441,0.4952087-0.4130287,0.3313828-0.7152252,0.3397751
		c-0.3965454,0.010994-0.7915077,0.0791931-1.187149,0.1228027c-1.526371,0.003746-3.0528793,0.0189209-4.5789642-0.0001602
		c-0.2500648-0.0031281-0.5674133-0.0861893-0.7369919-0.2517929c-2.8151169-2.7488823-5.6129494-5.5154915-8.4075508-8.2852974
		c-0.1198044-0.1187363-0.2415733-0.3057976-0.2431259-0.4622154c-0.0105515-1.0652542,0.0109177-2.130825,0.022049-3.1962891
		c1.0272141,0.0697212,2.0555038,0.208374,3.0813751,0.1923103c1.3879585-0.0217361,2.6376953-0.4828911,3.6204033-1.5227776
		c0.0506401-0.0535774,0.1257324-0.0990753,0.1474648-0.1626778c0.3244514-0.9494514,1.1361923-1.1197853,1.9773369-1.2858238
		c0.3004189-0.0592995,0.5738106-0.2555161,0.8595352-0.3892403c-0.0115013-0.0657997-0.0230026-0.1315956-0.0345039-0.1973953
		c-0.5862083-0.0515289-1.1724129-0.1030579-1.7738495-0.1559219c0.2849503-0.5294876,0.4869156-0.9815598,0.763752-1.3818512
		c0.1126328-0.1628571,0.3778419-0.2550926,0.5912094-0.3065147c0.5337486-0.1286469,1.0652199-0.2393112,1.5331726-0.8160172
		c-0.7463226-0.0519638-1.3716812-0.0955086-2.044487-0.1423531c0.1915436-0.5029411,0.3397408-0.968235,0.5530052-1.4014969
		c0.0573578-0.1165237,0.3075676-0.1633415,0.477951-0.194355c0.5510292-0.1002998,1.0600166-0.2711983,1.5833244-0.8150558
		c-0.47789,0.0221939-0.8067093,0.0486259-1.1356735,0.0505676c-0.856144,0.0050468-1.1502342-0.1841965-1.2503738-0.7842712
		c-0.1010437-0.6054955,0.2758446-1.1981926,0.9089661-1.4294434c0.6841431-0.2498894,1.178524-0.6859322,1.3577805-1.2268829
		c-0.1109924,0-0.2128944-0.0187836-0.3051491,0.0030975c-0.5343094,0.1267357-1.0685349,0.2549438-1.5984917,0.3985176
		c-0.4807968,0.1302605-0.8202896-0.1204491-0.8777199-0.5168686c-0.043438-0.2998543,0.1188889-0.7224274,0.3372917-0.9464302
		c0.3651962-0.3745766,0.8539848-0.6266594,1.2780075-0.947155c0.1171684-0.0885582,0.1892471-0.2367706,0.2820168-0.357605
		c-0.0267677-0.0385017-0.0535316-0.0770073-0.0802994-0.115509c-0.3866615,0.1370811-0.7705803,0.2826118-1.1606712,0.4091187
		c-0.4996147,0.1620331-0.8723106,0.1429024-1.163681-0.4422035c-0.4218102-0.847065-1.2743683-1.0596123-2.1495934-1.1182823
		c-1.7101936-0.1146278-3.3765144,0.1374741-5.0088196,0.6426125c0.0576935-0.2380791,0.1655235-0.4761047,0.1657944-0.7142487
		c0.0082016-7.1163788,0.0025787-14.2327766,0.0167694-21.3491325c0.0005569-0.2808075,0.0902557-0.6500902,0.2794952-0.8285065
		c2.6415939-2.4904852,5.3039169-4.9590931,7.976696-7.4161615c0.1799927-0.1654615,0.4840851-0.2768068,0.73069-0.2772136
		c8.5359573-0.0140734,17.0719452-0.0152221,25.6078873,0.0030427c0.2922821,0.0006247,0.6504974,0.1477594,0.8660278,0.3474412
		c2.6228714,2.4300313,5.2299728,4.877212,7.8215103,7.3406358c0.196106,0.1864166,0.3408203,0.5291901,0.3434906,0.8009148
		c0.0254059,2.5808201,0.0154648,5.1619911,0.0133743,7.7430611c-0.0001297,0.1748352-0.0189896,0.349659-0.0302811,0.5440121
		C88.1854324,24.0995064,87.4128723,24.0995064,86.6403198,24.0995064z"/>
	<path class="st2" d="M95.165596,44.1229744c-0.6896744-0.8820343-1.336792-1.8022614-2.082962-2.6335907
		c-0.5610809-0.6251373-1.2492828-1.1361923-1.9605942-1.6270828c1.3292084,1.368,2.1113358,3.0180817,2.6730957,4.8139725
		c-1.5444641-1.6952858-3.2117157-3.2002144-5.5128632-3.8864326c2.4885025,1.8190575,3.671608,4.2443542,3.5009842,7.3196373
		c-0.5630493-0.8014069-1.126091-1.6028137-1.6891403-2.4042244c-0.0785751,0.0190315-0.1571503,0.0380669-0.235733,0.0570984
		c1.3820572,3.2730942,0.9105911,6.1903954-1.5695496,8.7272835c0.3250198-1.4581566,0.6101379-2.9031715,0.4726105-4.4212036
		c-0.1400528-1.5458412-0.6751099-2.9003792-1.4445648-4.1321602c0,0.7537117,0.0241318,1.5269623-0.0067978,2.2980003
		c-0.0308075,0.7678757-0.2128601,1.50383-0.6127472,2.1879997c-0.0958099-0.9068527-0.0961761-1.7942963-0.3045731-2.6298485
		c-0.2014313-0.8076515-0.5542297-1.5964546-0.9571838-2.3294067c-0.3739395-0.6801529-0.6234283-0.6417542-1.1320572-0.0030251
		c-0.6788177,0.5921326-1.3464127,1.2014847-2.3312302,1.4918213c0.189743-0.5101585,0.356636-0.9589348,0.5235443-1.4077034
		c-1.0930786,0.8979836-2.3278503,1.425499-3.8053131,1.7440414c0.1712189-0.5028114,0.3131943-0.9197807,0.5045547-1.4817543
		c-3.5301971,2.6063995-7.2262497,2.7467995-11.1059036,1.2779884c1.3997803,1.2058296,3.1131134,1.7315369,4.8159027,2.2786484
		c-0.0052185,0.0762787-0.010437,0.1525574-0.0156479,0.2288399c-0.9244843,0.1179848-1.8489761,0.2359734-2.8529205,0.3641014
		c0.7074203,0.5335159,1.4741058,0.7410011,2.263298,0.8840408c0.2744141,0.0497398,0.4892197,0.1050911,0.5120392,0.4531441
		c0.029747,0.4536934-0.0980606,0.6797333-0.6059418,0.6776733c-3.3732147-0.0137253-6.7465134-0.0080528-10.1197853-0.0071259
		c-0.3018837,0.0000839-0.5661926-0.0408707-0.5662766-0.4301186c-0.0005798-2.8350334-0.0003128-5.6700592-0.0003128-8.547451
		c0.2026825,0.0794067,0.3638115,0.1425362,0.5483246,0.2148247c0.1031227-0.1780891,0.1926231-0.3326454,0.3118668-0.5385742
		c0.1552734,0.0914268,0.2991524,0.1978912,0.4592514,0.2665253c0.587326,0.2517815,1.1600342,0.5800667,1.7745171,0.7180557
		c1.773468,0.3982658,2.3165817,0.6880989,3.4631424,2.110218c0.0557785-0.1476097,0.1030273-0.2726631,0.139389-0.3688812
		c0.7858353,0.4236679,1.5366211,0.8868103,2.3340683,1.246521c1.7958298,0.8100739,3.5100098,0.4359398,5.1954193-0.4189301
		c1.7419891-0.8835754,3.1643982-2.0779457,4.0404129-3.8577957c0.0217667-0.0442162,0.0766296-0.0721436,0.1397781-0.1290474
		c0.0839157,0.0743828,0.1651459,0.1413498,0.2403793,0.2144775c0.0778046,0.0756035,0.1497879,0.157196,0.2881775,0.3038368
		c0.1573639-0.4673767,0.2448502-0.8991547,0.4401779-1.2748756c0.5677567-1.0921402,1.1648331-2.1697731,1.7766342-3.2380753
		c0.6193008-1.0813713,1.2699432-2.1447868,1.9878845-3.352356c1.3526459,0.8822021,2.7827606,1.8149338,4.212883,2.7476578
		c0.0316162-0.0260735,0.0632401-0.0521469,0.0948563-0.0782204c-1.0512161-1.1784821-2.1024246-2.3569565-3.1536407-3.5354385
		c0.010025-0.0206985,0.0200424-0.0413971,0.0300751-0.0620956c0.7655563,0.4722061,1.531105,0.9444122,2.2966614,1.4166183
		c0.017662-0.01614,0.0353241-0.0322838,0.0529938-0.0484276c-0.7585144-0.8639107-1.5170212-1.7278214-2.384697-2.7160606
		c0.2967682,0.138485,0.4806747,0.2110214,0.6519623,0.306263c1.9747009,1.0980072,3.6079407,2.6137657,5.1079025,4.2720871
		c1.6594009,1.8346024,3.1153488,3.8276405,4.3434753,5.9783134c0.1793518,0.3140907,0.239975,0.6959839,0.3555374,1.046505
		C95.8998413,44.1805,95.5327225,44.1517372,95.165596,44.1229744z"/>
	<path class="st2" d="M66.3941803,58.9533081c-0.1118317,0.1405563-0.1951141,0.3348999-0.3405685,0.4120941
		c-0.547821,0.290741-0.6219711,0.7356796-0.4730988,1.267952c0.0693817,0.248024,0.1047974,0.4347191-0.1914291,0.5929604
		c-1.1135941,0.5948677-1.1967697,0.8826981-0.6213531,2.02742c-0.1516876,0.131691-0.3251953,0.2599449-0.4718323,0.4138031
		c-0.4595108,0.4821205-0.443119,1.0150719,0.1214371,1.3465462c0.5135956,0.3015594,0.7776642,0.5612259,0.5853043,1.2353287
		c-0.1592636,0.5581131,0.3720398,0.8825073,0.8231125,1.0992813c0.3920517,0.1884079,0.8264847,0.2886276,1.236763,0.4259949
		c-0.113945,1.2750549,0.57547,1.9896545,1.8540497,1.8844604c1.8350067-0.1509857,3.6578217-0.3794403,5.4318695-0.9160995
		c2.6369171-0.7976761,4.8862076-2.1299515,6.4040985-4.5099869c0.0454025-0.0711975,0.1139603-0.1276245,0.2799072-0.3095245
		c-0.056633,0.7058182-0.1231232,1.2638092-0.140274,1.8233185c-0.0177078,0.5775146,0.1227493,0.6767578,0.6545105,0.4428482
		c1.1469574-0.504509,2.156662-1.1769943,2.7956924-2.3136635c0.2555618-0.4545593,0.5988007-0.8598213,1.0105133-1.2334938
		c-0.0426331,0.2676201-0.0852661,0.5352478-0.1450119,0.9102745c0.8713226-0.2763939,1.3805237-0.8085709,1.7567749-1.4657135
		c0.6495132-1.1344452,1.2614594-2.2903709,1.8934937-3.4348869c0.0735397-0.1331635,0.1743927-0.251236,0.3286362-0.3508377
		c0.1959457,1.0355949-0.1621246,1.966835-0.4732056,2.9211617c1.6668243-1.8066025,2.7690201-3.8983803,3.4432907-6.2853394
		c0.076767,0.4924545,0.2157364,0.9847031,0.217308,1.4773941c0.0032196,1.0111198,0.0310287,2.0397835-0.1431732,3.0273933
		c-0.1089478,0.6177292-0.5493927,1.1843109-0.8761063,1.7537613c-0.219223,0.3820839-0.5284958,0.7124977-0.7477646,1.0945587
		c-0.840065,1.4637794-2.1344681,2.4101791-3.5726318,3.2018738c-0.176506,0.097168-0.3424149,0.2135696-0.5133286,0.3211823
		c-1.1229248,0.4598923-2.215744,1.0248642-3.375351,1.3557281c-1.9225006,0.5485229-3.7584915,1.2598572-5.5299988,2.1877365
		c-2.1876984,1.1458817-4.5273514,1.894516-6.9855347,2.1559448c-1.4452362,0.1536865-2.911911,0.1341324-4.3165894-0.3766937
		c-0.1207123-0.0438919-0.2394638-0.0938034-0.3567352-0.1462479c-0.049675-0.0222168-0.0931778-0.0581894-0.1949921-0.1235428
		c0.182312-0.2104721,0.3284531-0.3791962,0.5162201-0.5959702c-0.3997345-0.0816879-0.7503128-0.1533356-1.1629562-0.2376633
		c0.1012344-0.247612,0.1872101-0.4579163,0.2783813-0.6809158c-0.6417236-0.2235947-1.266655-0.4413376-2.0341415-0.7087555
		c0.3271179-0.2489243,0.5046349-0.3840103,0.7800217-0.5935669c-0.3639412-0.0922699-0.6668587-0.1082993-0.8970184-0.2459793
		c-0.1961899-0.1173706-0.4763145-0.4419937-0.429512-0.5584564c0.2137184-0.5317917-0.0740662-0.7468262-0.4553528-0.9559097
		c-0.0937576-0.0514069-0.1755219-0.1246948-0.322979-0.231514c0.2626534-0.1403351,0.4741325-0.2533264,0.7980804-0.4264145
		c-0.3129845-0.1260681-0.5212326-0.2162018-0.7338943-0.2943344c-0.4861832-0.1786194-0.5166168-0.3063278-0.1520882-0.6865158
		c0.1522522-0.1587906,0.3083076-0.3139343,0.481472-0.4898605c-0.0548401-0.1363297-0.1142998-0.284153-0.1851845-0.4603767
		c0.2476273-0.1352539,0.4769974-0.2605324,0.7686539-0.4198303c-0.1857147-0.1136703-0.3013115-0.1963043-0.4268074-0.259182
		c-0.5504494-0.2757874-0.5770988-0.4941559-0.0832024-0.8897629c0.1560707-0.1250114,0.3593025-0.1916313,0.513382-0.3184662
		c0.0934982-0.0769691,0.2154884-0.251339,0.185379-0.325016c-0.1926956-0.4714127,0.1025124-0.5341034,0.4425812-0.5946846
		c0.1935654-0.034481,0.3816757-0.0995483,0.7071228-0.1871529c-0.270256-0.1426888-0.4334526-0.2063637-0.5696182-0.3067245
		c-0.1527481-0.112587-0.4139099-0.2898026-0.3918343-0.3829765c0.0434799-0.1835632,0.2237816-0.4279366,0.3934975-0.4726906
		C64.6447372,59.3161011,65.5220337,59.1444855,66.3941803,58.9533081z"/>
	<path class="st2" d="M80.4269714,22.4940128c0.6238785-1.0425892,1.6931381-1.4896526,2.9068298-1.2386379
		c1.045372,0.2161999,1.9524002,1.2289562,2.0765381,2.3185768c0.1366501,1.1994953-0.409729,2.2870903-1.3912811,2.7730885
		c-0.2367859,0.1172409-0.4861526,0.2691517-0.6438446-0.0876255c-0.1280365-0.2896976-0.3695297-0.6179867,0.082283-0.8485165
		c1.009964-0.5153313,1.0435638-1.4555988,1.0584412-2.4039688c0.0009842-0.0630836-0.0555878-0.1317101-0.096344-0.1901131
		c-0.6694336-0.9591751-1.9823761-1.0770721-2.8377914-0.2562675C81.0362625,23.0840187,81.0169144,23.083271,80.4269714,22.4940128
		z"/>
	<path class="st10" d="M71.1505814,43.5896797c0.1387329,0.2405128,0.2170715,0.3763199,0.29599,0.5131187
		c-0.6947021-0.0359268-1.1179886-0.4821472-1.1634293-1.2949295c-0.038002-0.6797485,0.0216217-1.3664398-0.0393829-2.0430756
		c-0.0905991-1.0046501-0.2458572-2.003643-0.3837128-3.0036545c-0.0185623-0.1346855-0.0958786-0.2612686-0.1868973-0.4980431
		c-0.2018127,0.2718735-0.3440323,0.4634705-0.4974213,0.6701126c-0.2504578-0.6756744-0.141861-1.3130798,0.4108658-1.6286545
		c0.4958572-0.2831116,1.0768051-0.5062485,1.6393127-0.5615425c0.7416458-0.0729065,1.5016327,0.0612717,2.2543182,0.0749435
		c0.9712753,0.0176506,1.9434357,0.0184059,2.9145966-0.0025024c0.4211884-0.0090599,0.7091751,0.0740509,0.9424896,0.4861946
		c0.1908035,0.3370399,0.5519867,0.5796242,0.845253,0.8560028c0.2156601,0.2032547,0.3069687,0.4133568,0.0920944,0.669693
		c-1.1898499,1.419487-1.5693665,3.1810913-2.0668411,4.8929749c-0.2998199,1.0317001-0.8319321,1.5258942-1.9071503,1.4751282
		c-0.9238129-0.0436096-1.8380508-0.2944183-2.7556076-0.4587288
		C71.4470825,43.7191734,71.3552551,43.6673431,71.1505814,43.5896797z M71.5719528,40.499733
		c-0.5084381,0.4680214-0.7593613,1.4274063-0.5273514,1.9531517c0.0535431,0.1213264,0.1816101,0.2760201,0.2938309,0.2929153
		c0.3524857,0.0530853,0.7143402,0.0401344,1.0714569,0.0673599c0.3450623,0.0263176,0.7016907,0.0250397,1.0299377,0.1180801
		c0.4785233,0.1356239,0.9333572,0.3531151,1.4054871,0.5146675c0.0814438,0.0278664,0.2323074-0.0168381,0.2938843-0.0820541
		c0.45755-0.4845276,0.7432098-1.0463676,0.6692581-1.7709541c-0.3013229,0.35849-0.6026459,0.7169838-0.7869263,0.9362335
		c-1.1007767-0.2604713-2.087738-0.4940109-3.1605301-0.74786C71.7831345,41.4360504,71.6810913,40.9836159,71.5719528,40.499733z
		 M73.76091,36.7159576c0.1005325,0.5514717,0.4947052,0.4105377,0.8716125,0.4641876
		c0.4737091,0.0674248,0.8709335,0.519413,1.4245987,0.3246269c0.0432281-0.0152054,0.1151352,0.0712776,0.1796188,0.0925865
		c0.2026367,0.0669594,0.4080887,0.1253586,0.6613464,0.2018394c-0.0302505,0.2780342-0.0703354,0.6464691-0.1104355,1.014904
		c0.3733368-0.2525902,0.6510544-0.5416451,0.8682404-0.8706627c0.1949005-0.2952461,0.1437531-0.5864372-0.1631851-0.8211441
		c-0.4400024-0.3364487-0.843811-0.6415024-1.4845047-0.5175781c-0.4722061,0.0913239-0.9899292-0.0127907-1.481926-0.0737648
		c-0.6148682-0.0762062-1.2241592-0.1974678-1.9038162-0.310585c0,0.4888916,0,0.9189072,0,1.3489227
		c0.0395126,0.0409355,0.0790176,0.0818748,0.1185226,0.1228104C73.0599976,37.3867798,73.3790131,37.0814629,73.76091,36.7159576z"
		/>
	<path class="st10" d="M79.3104553,31.731638c-0.2864456-0.2835369-0.5728912-0.5670738-0.8683624-0.8595448
		c0.1025085-0.0514545,0.2415466-0.1212502,0.4791031-0.2405033c-0.2155838-0.249279-0.3963547-0.4582882-0.6053619-0.6999626
		c0.758461-0.6885147,1.4662018-1.499712,2.6736374-1.2875233c0.2183685,0.0383759,0.4192963,0.1760292,0.628273,0.2678471
		c-0.1010971,0.1524773-0.205307,0.3030186-0.3017197,0.4584064c-0.037323,0.0601616-0.0836182,0.1325817-0.0805283,0.1972485
		c0.0325775,0.6811371-0.3251648,1.007206-0.9617844,1.1252575c-0.0950165,0.0176201-0.2420273,0.2235622-0.2227631,0.3110657
		c0.1088257,0.4942837,0.2718353,0.976326,0.3944168,1.4680138c0.0727539,0.2917824,0.1179199,0.592205,0.1512222,0.8914452
		c0.0233154,0.209549-0.0458832,0.439785,0.0146637,0.633091c0.3676071,1.1736908,0.0990829,2.168499-0.7531204,3.0425758
		c-0.3699799,0.3794708-0.6872559,0.8103333-1.0284805,1.2178459c-0.0874405-0.0672913-0.174881-0.1345863-0.2623215-0.2018738
		c0.1278229-0.257618,0.2419434-0.5232086,0.3863907-0.7711334c0.2776413-0.4765549,0.5921097-0.9326134,0.8512497-1.4185371
		c0.1169891-0.2193756,0.1626511-0.4866638,0.1960449-0.7381363c0.0379715-0.2858772-0.0158844-0.5202255-0.4141922-0.4507027
		c-0.334549,0.0583954-0.486084-0.1089287-0.4300385-0.4484406c0.0472412-0.2861404,0.1847076-0.635334-0.2495117-0.7126503
		c-0.4408722-0.078495-0.5732727,0.2882385-0.6269913,0.6168098c-0.0423279,0.2589226,0.0254288,0.5358467,0.0456085,0.8236465
		c-0.9865036,0.659481-1.2656403,0.4770432-1.8679962-0.4175339c0.244812-0.1852379,0.5258026-0.3392715,0.7253036-0.5652466
		c0.2007065-0.2273254,0.4068832-0.5295715,0.0677795-0.8202896c-0.2920609-0.2503929-0.5476532-0.1696014-0.8232574,0.0833702
		c-0.6027451,0.5532608-0.9961929,0.5962982-1.4572983,0.2171288c-0.3714905-0.3054771-0.4786453-0.6755371-0.2977066-1.1329918
		c0.4136887-1.0458584,1.5509491-1.4138298,2.7528839-0.919138c0.5634155,0.2318954,1.1554565,0.3942356,1.7345276,0.5880947
		C79.2102356,31.9033966,79.2603455,31.8175182,79.3104553,31.731638z M79.9159546,32.753891
		c-0.9137726-0.3044853-1.8259125-0.614048-2.7425842-0.9095707c-0.2067032-0.0666409-0.4278412-0.099947-0.6449127-0.1186848
		c-0.129364-0.0111694-0.2637711,0.0359287-0.5055695,0.0741768c0.4849701,0.1661053,0.9052277,0.2171097,1.2095566,0.4321632
		C78.0581894,32.8154755,78.9857483,32.7862473,79.9159546,32.753891z M80.5301056,29.5161419
		c-0.3980789,0.0812168-0.6640778,0.1354904-0.9300842,0.1897583c0.1392288,0.1890373,0.3564453,0.3626461,0.5350037,0.3292999
		C80.2791214,30.0082932,80.3765793,29.731657,80.5301056,29.5161419z"/>
	<path class="st2" d="M73.3703384,22.9797955c0.7176285,0.1186523,1.2954865,0.4825897,1.6876831,1.0382748
		c0.5069275,0.7182426,0.9605026,1.4820461,1.3623047,2.2646103c0.523056,1.0186787,1.2268753,1.1878796,2.0413055,0.3881531
		c0.3771286-0.3703136,0.7016678-0.7941933,1.174263-1.1816959c-0.1115417,0.4705486-0.2230835,0.9410954-0.3104019,1.3094006
		c0.4946976-0.1127853,1.002594-0.2704945,1.5210876-0.3224068c0.1653061-0.0165462,0.3587341,0.2478199,0.5324707,0.4578438
		c-1.0840073-0.0297775-1.5591965,0.7663631-2.1343689,1.4113979c-1.0604553,1.1892643-1.0447006,1.1555233-2.4868393,0.5804977
		c-1.3457947-0.5366096-2.1882095-1.5575523-2.9533157-2.7158279c-0.474205-0.7179012-1.0119171-1.4099579-1.6126404-2.0240803
		c-0.7400055-0.7565041-1.7431107-0.6790142-2.7075806-0.6272793c-0.1458893,0.0078239-0.2909164,0.0316868-0.4368057,0.0394135
		c-0.0230103,0.0012188-0.0484848-0.0440865-0.141243-0.1347923c1.1507797-0.4569111,2.2578506-0.6660099,3.4359436-0.2677822
		c1.196991,0.4046173,1.7270432,1.5211868,2.5403061,2.3503113C74.6284409,24.539381,74.0395432,23.7504387,73.3703384,22.9797955z"
		/>
	<path class="st10" d="M61.0265121,23.4704456c0.0605545-0.1495495,0.121109-0.2991009,0.1816673-0.4486504
		c-0.0253067-0.0382271-0.0506058-0.0764523-0.0759087-0.1146774c-0.4035912,0.246254-0.8575821,0.438097-1.1975861,0.753006
		c-0.3941689,0.365078-0.6372261,0.2798958-0.9590721-0.0604477c-0.8991051-0.9507694-0.8780212-2.9287567,0.0612679-3.8359451
		c0.1320229-0.1275043,0.2684975-0.2503967,0.4365501-0.4067154c-0.1224403-0.1308823-0.2361145-0.2523975-0.3513985-0.3756351
		c1.1499138-0.6768589,2.7395668-0.3476753,3.7017288,0.7386227c0.4722748,0.5332108,0.7401199,1.1392155,0.7438965,1.8500462
		c0.0006256,0.1177197-0.0655403,0.2813015-0.1563187,0.3468342c-0.7597275,0.5484161-1.5324211,1.0788612-2.3012085,1.6147232
		C61.0822563,23.5112209,61.0543823,23.4908333,61.0265121,23.4704456z"/>
	<path class="st10" d="M69.7266083,33.324585c0.1407623-0.0157394,0.2815247-0.0314789,0.4161453-0.0465279
		c0.0146255,0.0420685,0.030098,0.0658073,0.0244141,0.0731392c-1.0301666,1.3286095-1.6590424,2.8226776-1.7516022,4.6685219
		c-0.4636002-0.7606621-0.4744415-1.1344109-0.1799927-3.0505409c-0.1565933,0.0110855-0.3023605,0.0214043-0.5155106,0.0364914
		c0.391655-1.7713127,1.7168732-2.7631302,3.1023407-3.7858982c-0.2766418-0.1320705-0.461792-0.2204685-0.7922516-0.3782349
		c0.8874664-0.2846432,1.6404648-0.5261536,2.3934555-0.767664c0.0519409,0.0466824,0.1038895,0.0933609,0.155838,0.1400433
		c-0.1756668,0.2904415-0.3000717,0.6346073-0.5370712,0.860775c-0.5972977,0.5699959-1.2398987,1.0933781-1.8763428,1.6209698
		c-0.193924,0.1607552-0.426918,0.2743874-0.6420212,0.4096031C69.5915375,33.1783714,69.6590729,33.2514801,69.7266083,33.324585z"
		/>
	<path class="st10" d="M72.6079712,28.989296c-0.1921768-0.2997055-0.3077545-0.4799519-0.4153137-0.6476898
		c-1.0080872,0.7709064-1.533287,0.8679714-2.1249313,0.4401569c-0.5243301-0.3791428-0.6604385-1.0442982-0.3473969-1.9084949
		c-0.3348694-0.1138458-0.6693726-0.2275658-1.1090775-0.3770523c0.2633209-0.0553551,0.4390717-0.0923042,0.6524582-0.1371632
		c-0.0541153-0.1215496-0.1006012-0.2259693-0.2277985-0.5116787c0.7253876,0.1475906,1.3517151,0.1916618,1.9115295,0.4079399
		C71.8473053,26.6029701,72.5535202,27.7799168,72.6079712,28.989296z M70.5490189,27.2770882
		c-0.3763504,0.4652328-0.310524,0.8527679,0.0174026,1.1058044c0.3409882,0.2631111,0.718399,0.167263,1.1598969-0.2657948
		c-0.2745895-0.0445919-0.4434128-0.1212082-0.5821304-0.0843906c-0.2975388,0.0789661-0.3973923-0.0234413-0.4326935-0.3042469
		C70.6920319,27.5736446,70.6053772,27.4272709,70.5490189,27.2770882z"/>
	<path class="st10" d="M77.2106552,29.8850861c-0.4833832-0.1322975-0.9410782-0.3088417-1.4139709-0.3725529
		c-0.4715118-0.0635262-0.9582672-0.0139294-1.5258865-0.0139294
		C75.2141571,28.3954601,76.3345184,28.8728886,77.2106552,29.8850861z"/>
	<path class="st10" d="M75.4956055,30.3200607c0.7369843-0.4922886,1.2461853-0.4068413,1.6667862,0.2388935
		C76.6126862,30.4801693,76.1098862,30.4081039,75.4956055,30.3200607z"/>
</g>
</svg>
