<?xml version="1.0" encoding="utf-8"?>
<!-- Generator: Adobe Illustrator 23.0.6, SVG Export Plug-In . SVG Version: 6.00 Build 0)  -->
<svg version="1.1" id="Layer_1" xmlns="http://www.w3.org/2000/svg" xmlns:xlink="http://www.w3.org/1999/xlink" x="0px" y="0px"
	 viewBox="0 0 100 100" style="enable-background:new 0 0 100 100;" xml:space="preserve">
<style type="text/css">
	.st0{fill:#63C083;}
	.st1{fill:#75C275;}
	.st2{fill:#65C086;}
	.st3{fill:none;stroke:#65C086;stroke-miterlimit:10;}
</style>
<g id="_x37_kiqAI_1_">
	<g>
		<path class="st1" d="M15.12,93.29c0-9.08,0-18.1,0-27.16c1.14,0,2.27,0,3.43,0c0-11.06,0-22.09,0-33.15c-1.12,0-2.26,0-3.42,0
			c-0.01-0.13-0.01-0.23-0.01-0.33c0-8.84,0-17.69-0.01-26.53c0-0.27,0.08-0.33,0.34-0.33c18.26,0.01,36.52,0,54.78,0.01
			c0.16,0,0.36,0.08,0.48,0.19c4.24,3.79,8.48,7.59,12.72,11.38c0.32,0.29,0.46,0.57,0.46,1.01c-0.01,20.85-0.01,41.71,0,62.56
			c0,0.28-0.08,0.46-0.29,0.64c-4.3,3.85-8.59,7.7-12.88,11.55c-0.17,0.15-0.35,0.18-0.55,0.18c-15.66,0-31.33,0-46.99,0
			c-2.55,0-5.09,0-7.64,0C15.4,93.29,15.28,93.29,15.12,93.29z M16.87,91.55c0.16,0,0.3,0,0.45,0c17.37,0,34.74,0,52.12,0
			c0.07,0,0.14,0.01,0.2,0c0.12-0.03,0.27-0.06,0.36-0.14c1.25-1.11,2.49-2.22,3.73-3.33c2.72-2.44,5.44-4.89,8.16-7.32
			c0.19-0.17,0.25-0.33,0.25-0.57c0-20.44,0-40.88,0-61.32c0-0.25-0.08-0.4-0.26-0.57c-2.17-1.94-4.34-3.88-6.51-5.83
			c-1.76-1.58-3.52-3.15-5.27-4.73c-0.15-0.14-0.3-0.23-0.53-0.23C52.1,7.52,34.64,7.52,17.18,7.52c-0.1,0-0.2,0.01-0.31,0.02
			c0,7.91,0,15.79,0,23.7c1.15,0,2.28,0,3.4,0c0,12.22,0,24.41,0,36.63c-1.15,0-2.27,0-3.41,0C16.87,75.77,16.87,83.64,16.87,91.55z
			"/>
		<path class="st1" d="M25.08,26.46c-1.14,0-2.28,0-3.43,0c0-4.72,0-9.42,0-14.15c0.1,0,0.2,0,0.3,0c15.26,0,30.52,0,45.78-0.01
			c0.3,0,0.45,0.17,0.63,0.33c2.92,2.62,5.84,5.24,8.77,7.86c0.17,0.15,0.23,0.3,0.23,0.52c0,19.02,0,38.04,0,57.06
			c0,0.22-0.06,0.37-0.22,0.52c-2.73,2.44-5.44,4.88-8.17,7.32c-0.26,0.23-0.51,0.48-0.78,0.69c-0.12,0.1-0.3,0.17-0.45,0.17
			c-15.26,0.01-30.52,0.01-45.78,0.01c-0.1,0-0.19,0-0.31,0c0-4.71,0-9.4,0-14.14c1.13,0,2.27,0,3.43,0
			C25.08,57.23,25.08,41.86,25.08,26.46z M40.2,26.44c0,15.42,0,30.79,0,46.17c0.09,0.01,0.17,0.01,0.24,0.01
			c6.59,0,13.17,0,19.76-0.01c0.12,0,0.26-0.06,0.36-0.13c0.49-0.42,0.97-0.86,1.46-1.27c0.18-0.14,0.24-0.29,0.23-0.51
			c-0.01-4.07,0-8.14,0-12.21c0-10.02,0-20.04,0-30.06c0-0.22-0.06-0.37-0.23-0.52c-0.49-0.42-0.96-0.87-1.45-1.28
			c-0.13-0.1-0.32-0.18-0.48-0.18c-6.52-0.01-13.04-0.01-19.56-0.01C40.44,26.44,40.33,26.44,40.2,26.44z"/>
		<path class="st1" d="M57.45,67.84c-4.17,0-8.32,0-12.48,0c0-12.2,0-24.38,0-36.59c4.15,0,8.3,0,12.48,0
			C57.45,43.44,57.45,55.63,57.45,67.84z M55.72,66.1c0-11.05,0-22.09,0-33.12c-3.02,0-6.01,0-9.01,0c0,11.05,0,22.08,0,33.12
			C49.72,66.1,52.71,66.1,55.72,66.1z"/>
	</g>
</g>
</svg>
