<?xml version="1.0" encoding="utf-8"?>
<!-- Generator: Adobe Illustrator 22.1.0, SVG Export Plug-In . SVG Version: 6.00 Build 0)  -->
<svg version="1.1" id="Layer_1" xmlns="http://www.w3.org/2000/svg" xmlns:xlink="http://www.w3.org/1999/xlink" x="0px" y="0px"
	 viewBox="0 0 100 100" style="enable-background:new 0 0 100 100;" xml:space="preserve">
<style type="text/css">
	.st0{fill:#65C086;}
	.st1{fill:none;stroke:#65C086;stroke-miterlimit:10;}
	.st2{enable-background:new    ;}
</style>
<g id="_x37_kiqAI_1_">
	<g>
		<path class="st0" d="M15.6,93.8c0-9.1,0-18.1,0-27.2c1.1,0,2.3,0,3.4,0c0-11.1,0-22.1,0-33.2c-1.1,0-2.3,0-3.4,0
			c0-0.1,0-0.2,0-0.3c0-8.8,0-17.7,0-26.5c0-0.3,0.1-0.3,0.3-0.3c18.3,0,36.5,0,54.8,0c0.2,0,0.4,0.1,0.5,0.2
			c4.2,3.8,8.5,7.6,12.7,11.4c0.3,0.3,0.5,0.6,0.5,1c0,20.8,0,41.7,0,62.6c0,0.3-0.1,0.5-0.3,0.6c-4.3,3.8-8.6,7.7-12.9,11.5
			c-0.2,0.1-0.4,0.2-0.5,0.2c-15.7,0-31.3,0-47,0c-2.5,0-5.1,0-7.6,0C15.9,93.8,15.8,93.8,15.6,93.8z M17.4,92.1c0.2,0,0.3,0,0.5,0
			c17.4,0,34.7,0,52.1,0c0.1,0,0.1,0,0.2,0s0.3-0.1,0.4-0.1c1.2-1.1,2.5-2.2,3.7-3.3c2.7-2.4,5.4-4.9,8.2-7.3
			c0.2-0.2,0.2-0.3,0.2-0.6c0-20.4,0-40.9,0-61.3c0-0.2-0.1-0.4-0.3-0.6c-2.2-1.9-4.3-3.9-6.5-5.8c-1.8-1.6-3.5-3.2-5.3-4.7
			c-0.1-0.1-0.3-0.2-0.5-0.2c-17.5,0-34.9,0-52.4,0c-0.1,0-0.2,0-0.3,0c0,7.9,0,15.8,0,23.7c1.1,0,2.3,0,3.4,0c0,12.2,0,24.4,0,36.6
			c-1.1,0-2.3,0-3.4,0C17.4,76.2,17.4,84.2,17.4,92.1z"/>
		<path class="st0" d="M25.6,27c-1.1,0-2.3,0-3.4,0c0-4.7,0-9.4,0-14.2c0.1,0,0.2,0,0.3,0c15.3,0,30.5,0,45.8,0
			c0.3,0,0.5,0.2,0.6,0.3c2.9,2.6,5.8,5.2,8.8,7.9c0.2,0.2,0.2,0.3,0.2,0.5c0,19,0,38,0,57.1c0,0.2-0.1,0.4-0.2,0.5
			c-2.7,2.4-5.4,4.9-8.2,7.3c-0.3,0.2-0.5,0.5-0.8,0.7c-0.1,0.1-0.3,0.2-0.5,0.2c-15.3,0-30.5,0-45.8,0c-0.1,0-0.2,0-0.3,0
			c0-4.7,0-9.4,0-14.1c1.1,0,2.3,0,3.4,0C25.6,57.8,25.6,42.4,25.6,27z M40.7,27c0,15.4,0,30.8,0,46.2c0.1,0,0.2,0,0.2,0
			c6.6,0,13.2,0,19.8,0c0.1,0,0.3-0.1,0.4-0.1c0.5-0.4,1-0.9,1.5-1.3c0.2-0.1,0.2-0.3,0.2-0.5c0-4.1,0-8.1,0-12.2c0-10,0-20,0-30.1
			c0-0.2-0.1-0.4-0.2-0.5c-0.5-0.4-1-0.9-1.5-1.3C61,27.1,60.8,27,60.6,27c-6.5,0-13,0-19.6,0C40.9,27,40.8,27,40.7,27z"/>
		<path class="st0" d="M58,68.3c-4.2,0-8.3,0-12.5,0c0-12.2,0-24.4,0-36.6c4.1,0,8.3,0,12.5,0C58,44,58,56.2,58,68.3z M56.2,66.6
			c0-11.1,0-22.1,0-33.1c-3,0-6,0-9,0c0,11.1,0,22.1,0,33.1C50.2,66.6,53.2,66.6,56.2,66.6z"/>
	</g>
</g>
</svg>
