<?xml version="1.0" encoding="utf-8"?>
<!-- Generator: Adobe Illustrator 23.0.6, SVG Export Plug-In . SVG Version: 6.00 Build 0)  -->
<svg version="1.1" id="Layer_1" xmlns="http://www.w3.org/2000/svg" xmlns:xlink="http://www.w3.org/1999/xlink" x="0px" y="0px"
	 viewBox="0 0 100 100" style="enable-background:new 0 0 100 100;" xml:space="preserve">
<style type="text/css">
	.st0{fill:#63C083;}
	.st1{fill:#75C275;}
	.st2{fill:#65C086;}
	.st3{fill:none;stroke:#65C086;stroke-miterlimit:10;}
	.st4{font-family:'MyriadPro-Regular';}
	.st5{font-size:12.444px;}
</style>
<g id="seLCHS_1_">
	<g>
		<path class="st2" d="M63.2,14.01c2.5,0.76,5.13,1.23,7.47,2.33c8.96,4.21,14.88,14.26,14.26,24.14c-0.13,2.05-0.98,4.06-1.5,6.08
			c-0.1,0.4-0.26,0.78-0.33,1.18c-0.31,1.83,0.21,3.03,2.04,3.99c3.15,1.65,5.95,3.85,7.38,7.3c0.46,1.1,0.73,2.28,1.09,3.42
			c0,0.63,0,1.27,0,1.9c-0.66,1.93-1.42,4.03-3.73,4.21c-1.97,0.16-4-0.39-6.11-0.63c-0.68,2.39-2.71,3.48-5.1,4.11
			c-2.92,0.77-5.86,0.78-8.76,0.03c-3.21-0.83-6.36-1.87-9.56-2.75c-0.54-0.15-1.22-0.12-1.76,0.06c-2.54,0.83-5.03,1.82-7.6,2.58
			c-1.9,0.56-3.88,0.85-5.83,1.26c-1.16,0-2.32,0-3.48,0c-0.94-0.44-2.06-0.69-2.79-1.36c-1-0.93-2.08-1.06-3.31-1.11
			c-2.52-0.1-5.06-0.14-7.56-0.44c-2.78-0.33-5.38-1.31-6.96-3.82c-0.59-0.93-1.16-1.21-2.21-1.29c-4.56-0.33-8.19-2.38-10.73-6.23
			c0-0.32,0-0.63,0-0.95c0.76-1.56,1.69-2.67,3.76-2.36c0.82,0.12,1.76-0.56,2.66-0.85c1.32-0.43,0.75-1.54,0.89-2.4
			c0.48-3,2.42-4.83,5.01-6.05c1.71-0.81,3.5-1.47,5.27-2.12c0.94-0.35,1.49-0.81,1.39-1.93c-0.05-0.6,0.1-1.27,0.33-1.84
			c0.65-1.58,1.63-2.9,1.47-4.91c-0.13-1.72,1.84-2.86,3.4-3.36c2.22-0.71,3.17-1.93,3.51-4.22c0.3-2.07,1.75-3.51,3.87-4.2
			c0.5-0.16,0.99-0.73,1.25-1.23c1.38-2.63,3.21-4.83,5.86-6.23c2.32-1.23,3.59-0.93,4.89,0.71c3-1.04,5.84-2.02,8.68-3.01
			C61.3,14.01,62.25,14.01,63.2,14.01z M50.29,21.24c0.12-0.98,0.22-1.96,0.37-2.93c0.21-1.35-0.5-2.07-1.78-1.69
			c-0.64,0.19-1.27,0.52-1.83,0.89c-2.66,1.77-4.27,4.3-5.06,6.88c-1.06,0.3-1.98,0.34-2.61,0.79c-2.21,1.56-2.21,4-2.14,6.16
			c-1.6,0.65-3.12,1.12-4.49,1.87c-2.26,1.23-2.39,1.84-1.31,4.04c-1.81,1.77-3.13,3.73-2.13,6.57c-1.07,0.46-2.09,0.87-3.08,1.33
			c-2.28,1.07-4.7,1.93-6.77,3.31c-2.19,1.46-2.54,3.54-1.44,6.09c-2.09,0.72-4.16,1.41-6.22,2.14c-0.5,0.18-1.31,0.39-1.36,0.69
			c-0.09,0.5,0.16,1.26,0.55,1.61c2.3,2.08,4.79,3.8,8.07,3.88c1.04,0.03,2.07,0.19,2.65,0.24c0.78,1.17,1.16,2.35,1.95,2.8
			c1.66,0.94,3.48,1.86,5.33,2.14c2.79,0.43,5.67,0.28,8.51,0.46c0.62,0.04,1.39,0.24,1.79,0.66c1.2,1.26,2.65,1.78,4.28,1.66
			c5.17-0.39,10.24-1.22,14.89-3.77c0.56-0.3,1.4-0.37,2.03-0.2c1.88,0.5,3.68,1.33,5.58,1.74c3.17,0.69,6.37,1.37,9.6,1.63
			c2.19,0.18,4.43-0.49,6.09-2.14c0.41-0.41,0.67-1.26,0.55-1.8c-0.1-0.43-0.88-0.73-1.4-1.01c-0.45-0.24-0.96-0.38-1.44-0.56
			c0.04-0.13,0.07-0.25,0.11-0.38c0.61,0.06,1.24,0.04,1.83,0.19c2.13,0.57,4.26,1.18,6.38,1.8c2.67,0.78,4.28-0.35,4.28-3.1
			c0-4.24-2.28-7.24-5.54-9.6c-1.65-1.2-3.42-2.24-4.79-3.13c0-1.48-0.02-2.66,0.01-3.85c0.01-0.34,0.06-0.75,0.24-1.01
			c1.43-1.99,1.73-4.33,1.75-6.63c0.07-7.49-2.85-13.77-8.42-18.7c-3.77-3.34-8.21-5.42-13.36-5.32
			C57.13,15.08,53.24,17.14,50.29,21.24z"/>
		<path class="st2" d="M73.09,45.16c1.42,0.68,2.69,1.29,4.4,2.11c-0.19,0.65-0.23,1.96-0.9,2.64c-0.5,0.5-1.91,0.43-2.78,0.17
			c-2.96-0.89-4.79-3.31-6.84-5.43c-2.42-2.5-4.77-5.09-7.41-7.34c-3.16-2.7-6.78-4.24-11.09-2.85c-3.59,1.16-5.42,4.2-4.51,7.86
			c0.42,1.71,1.11,3.35,1.71,5.14c-0.7-0.25-1.26-0.53-1.85-0.66c-0.81-0.18-1.75-0.76-2.27,0.49c-0.03,0.08-0.16,0.12-0.26,0.16
			c-1.21,0.49-2.88,0.63-3.55,1.53c-1.47,1.96-3.69,1.58-5.48,2.43c-0.19,0.09-0.44,0.13-0.56,0.28c-0.49,0.62-0.95,1.28-1.42,1.92
			c0.67,0.42,1.29,1.01,2.02,1.23c0.72,0.21,1.55,0.05,2.38,0.05c-0.84,2.35-0.77,2.41,1.66,2.33c0.48-0.02,1.11,0.1,1.45,0.41
			c5.12,4.64,11.28,6.6,18.02,7.1c0.09,0.01,0.18,0.06,0.43,0.15c-2.2,1.59-4.6,2.44-7.15,2.78c-2.03,0.27-4.07,0.41-6.12,0.49
			c-1.64,0.07-2.71-0.72-2.94-2.49c-1.77,0-3.5,0.06-5.23-0.01c-2.35-0.1-4.7-0.23-7.03-0.53c-0.66-0.09-1.58-0.72-1.75-1.29
			c-0.15-0.51,0.54-1.3,0.94-1.91c0.3-0.47,0.73-0.85,1.34-1.54c-4.72-0.53-9.33,0.44-13.56-1.74c5.2-1.26,8.96-4.96,13.63-7.5
			c-3.08-1.46-5.85-0.63-8.74,0.5c0.66-1.6,1.92-2.21,3.23-2.7c2.37-0.89,4.76-1.7,7.13-2.57c1.93-0.71,3.56-1.73,4.46-3.74
			c0.4-0.89,1.22-1.57,1.78-2.4c0.37-0.55,0.6-1.2,0.7-1.94c-2.43,0.7-3.5,2.66-4.59,4.67c-1.17-0.61-0.89-1.54-0.58-2.34
			c0.71-1.79,2.04-3.03,3.78-3.85c0.57-0.27,1.07-0.66,1.6-1c-0.04-0.16-0.08-0.31-0.12-0.47c-0.95-0.07-1.91-0.15-2.86-0.22
			c-0.05-0.14-0.1-0.27-0.16-0.41c2.06-0.63,4.13-1.26,6.17-1.89c-0.19-1.46-0.39-2.96-0.64-4.81c1.41,0.95,2.32,1.71,3.36,2.24
			c1.31,0.67,1.75,0.33,1.62-1.1c-0.3-3.36,0.88-6.18,2.8-8.42c0.51,2.07,0.99,4.31,1.64,6.5c0.17,0.59,0.86,1.02,1.32,1.52
			c0.32-0.55,0.79-1.05,0.94-1.64c0.81-3.1,2.15-5.82,4.9-7.67c3.47-2.34,7.23-2.32,10.9-0.87c7.54,2.97,11.73,8.8,13.2,16.62
			c0.39,2.1,0.38,4.31,0.27,6.45c-0.05,1.01-0.58,2.12-1.22,2.94c-0.9,1.17-2.26,1.18-3.31,0.13c-1.53-1.53-2.94-3.17-4.4-4.76
			c-1.88-2.06-4.07-3.66-6.75-4.53c-0.28-0.09-0.58-0.1-1.07-0.19c1.62,1.86,3.15,3.52,4.55,5.28c0.91,1.15,1.65,2.44,2.43,3.68
			C71.34,45.14,72.56,45.53,73.09,45.16z"/>
		<path class="st2" d="M77.28,50.97c0.38-0.98,0.77-1.96,1.15-2.94c0.22-0.56,0.43-1.13,0.65-1.69c0.26,0.06,0.51,0.12,0.77,0.18
			c-0.19,1.37-0.37,2.74-0.56,4.09c2.43,1.61,5.03,3.21,7.49,5.01c2.45,1.79,3.93,4.24,4,7.37c0.05,2.17-0.73,2.76-2.79,2.25
			c-3.15-0.78-6.3-1.57-9.46-2.31c-0.69-0.16-1.43-0.13-2.23-0.03c1.49,1.44,2.26,3.73,5.27,3.76c-0.68,0.61-1.04,1.1-1.53,1.34
			c-2.63,1.33-5.41,1.81-8.28,0.96c-5.71-1.69-11.38-3.48-17.08-5.18c-2.42-0.72-4.92-1.16-7.3-1.96c-3.08-1.05-5.78-2.75-7.86-5.35
			c-0.34-0.43-1.15-0.58-1.76-0.66c-0.52-0.07-1.08,0.15-1.74,0.26c0.49-0.77,0.87-1.38,1.26-1.99c-0.8-0.06-1.6-0.13-2.4-0.18
			c-1.13-0.07-2.26-0.12-3.42-0.46c2.6-2.12,5.92-1.55,8.97-2.53c-0.38-0.44-0.7-0.81-0.95-1.09c0.79-0.3,1.62-0.61,2.44-0.92
			c-0.02-0.1-0.04-0.2-0.06-0.3c0.9,0.23,1.81,0.45,2.86,0.72c-0.03-0.45-0.05-0.75-0.08-1.15c1.28,0.43,2.46,0.81,3.97,1.32
			c-0.51-1.28-0.96-2.26-1.29-3.29c-0.45-1.39-0.95-2.79-1.18-4.23c-0.51-3.08,0.91-5.1,4.96-5.75c2.4-0.38,4.42,0.72,6.33,1.99
			c4.25,2.85,8.24,5.97,11.53,9.98c2.09,2.55,5.02,3.61,8.39,2.75c-1.48,0.3-2.95,0.61-4.62,0.95c0.29,2.27-0.68,4.05-3.87,4.59
			c1.52,0.69,2.49,1.13,3.46,1.57c-5.62-1.71-11.15-3.6-16.75-5.21c-3.57-1.03-7.26-1.24-10.93-0.19c-2.06,0.59-2.78,2.15-1.41,3.81
			c1.11,1.35,2.56,2.48,4.05,3.42c1.94,1.23,4.31,1.6,6.38,2.44c6.58,2.66,13.31,4.65,20.26,5.94c1.18,0.22,2.44,0.03,3.67,0.03
			c0.01-0.14,0.02-0.29,0.03-0.43c-4.63-0.71-9.07-2.03-13.05-4.5c-1.76-1.09-3.41-2.46-4.77-4.01c-0.76-0.86-1.26-1-2.21-0.74
			c-0.73,0.2-1.51,0.24-2.26,0.36c-0.02-0.2-0.04-0.4-0.05-0.61c3.14-0.98,6.36-0.89,9.62-0.47c-1.29,0.14-2.58,0.28-3.88,0.42
			c-0.04,0.16-0.08,0.32-0.12,0.49c0.49,0.29,0.95,0.73,1.48,0.85c2.4,0.55,4.8,1.17,7.24,1.48c4.23,0.54,8.5,0.78,12.73,1.31
			c2.16,0.27,4.27,0.93,6.39,1.41C90.36,58.97,82.27,52.77,77.28,50.97z M68.87,48.54c-2.65-2.47-4.98-4.67-7.34-6.83
			c-1.6-1.46-3.15-0.99-3.78,1.12c-0.78,2.6-0.07,4.96,1.21,7.24c1.96,3.51,5.46,4.59,8.92,5.69c1.1,0.35,2.66-0.8,2.85-1.86
			c-2.29-0.08-3.11-0.63-3.61-2.46C66.78,50.13,66.9,49.01,68.87,48.54z M64.41,61.33c-0.06,0.14-0.12,0.28-0.18,0.42
			c2.84,1.32,5.69,2.64,8.53,3.96c0.16-0.22,0.31-0.44,0.47-0.66c-1-0.91-1.85-2.21-3.02-2.64C68.39,61.74,66.35,61.66,64.41,61.33z
			"/>
		<path class="st2" d="M74.43,53.88c1.91-1.47,3.05-0.39,4.22,0.56C77.35,54.27,76.06,54.1,74.43,53.88z"/>
	</g>
</g>
<text transform="matrix(1 0 0 1 4.1738 94.902)" class="st4 st5">delaware</text>
</svg>
