<?xml version="1.0" encoding="UTF-8"?>
<svg width="78px" height="78px" viewBox="0 0 78 78" version="1.1" xmlns="http://www.w3.org/2000/svg" xmlns:xlink="http://www.w3.org/1999/xlink">
    <!-- Generator: Sketch 56.3 (81716) - https://sketch.com -->
    <title>Artboard</title>
    <desc>Created with Sketch.</desc>
    <g id="Artboard" stroke="none" stroke-width="1" fill="none" fill-rule="evenodd">
        <g id="deleware" transform="translate(0.000000, 12.000000)" fill="#65C086" fill-rule="nonzero">
            <path d="M50.0651163,0.00906976744 C52.3325581,0.698372093 54.717907,1.12465116 56.8402326,2.12232558 C64.9667442,5.94069767 70.3360465,15.055814 69.7737209,24.0167442 C69.655814,25.8760465 68.8848837,27.6990698 68.4132558,29.5311628 C68.3225581,29.8939535 68.1774419,30.2386047 68.1139535,30.6013953 C67.8327907,32.2611628 68.3044186,33.3495349 69.964186,34.2202326 C72.8211628,35.7167442 75.3606977,37.712093 76.6576744,40.8411628 C77.0748837,41.8388372 77.3197674,42.9090698 77.6462791,43.9430233 C77.6462791,44.5144186 77.6462791,45.0948837 77.6462791,45.6662791 C77.0476744,47.4167442 76.3583721,49.3213953 74.2632558,49.4846512 C72.4765116,49.6297674 70.6353488,49.1309302 68.7216279,48.9132558 C68.1048837,51.0809302 66.2637209,52.0695349 64.0960465,52.6409302 C61.4476744,53.3393023 58.7811628,53.3483721 56.1509302,52.6681395 C53.2395349,51.9153488 50.3825581,50.972093 47.4802326,50.1739535 C46.9904651,50.037907 46.3737209,50.0651163 45.8839535,50.2283721 C43.5802326,50.9811628 41.3218605,51.8790698 38.9909302,52.5683721 C37.2676744,53.0762791 35.4718605,53.3393023 33.7032558,53.7111628 C32.6511628,53.7111628 31.5990698,53.7111628 30.5469767,53.7111628 C29.6944186,53.312093 28.6786047,53.0853488 28.0165116,52.4776744 C27.1095349,51.634186 26.13,51.5162791 25.0144186,51.4709302 C22.7288372,51.3802326 20.4251163,51.3439535 18.1576744,51.0718605 C15.6362791,50.7725581 13.2781395,49.8837209 11.8451163,47.6072093 C11.31,46.7637209 10.7930233,46.5097674 9.84069767,46.4372093 C5.70488372,46.137907 2.41255814,44.2786047 0.108837209,40.7867442 C0.108837209,40.4965116 0.108837209,40.2153488 0.108837209,39.9251163 C0.798139535,38.5102326 1.64162791,37.5034884 3.51906977,37.7846512 C4.2627907,37.8934884 5.11534884,37.2767442 5.93162791,37.0137209 C7.12883721,36.6237209 6.61186047,35.6169767 6.73883721,34.8369767 C7.17418605,32.1160465 8.93372093,30.4562791 11.2827907,29.3497674 C12.8337209,28.6151163 14.4572093,28.0165116 16.0625581,27.4269767 C16.9151163,27.1095349 17.4139535,26.6923256 17.3232558,25.6765116 C17.277907,25.1323256 17.4139535,24.5246512 17.6225581,24.0076744 C18.212093,22.5746512 19.1009302,21.3774419 18.955814,19.5544186 C18.837907,17.9944186 20.6246512,16.9604651 22.0395349,16.5069767 C24.0530233,15.8630233 24.9146512,14.7565116 25.2230233,12.6795349 C25.4951163,10.802093 26.8102326,9.49604651 28.7330233,8.87023256 C29.1865116,8.72511628 29.6309302,8.20813953 29.8667442,7.75465116 C31.1183721,5.36930233 32.7781395,3.37395349 35.1816279,2.10418605 C37.285814,0.988604651 38.4376744,1.26069767 39.6167442,2.74813953 C42.3376744,1.80488372 44.9134884,0.916046512 47.4893023,0.0181395349 C48.3418605,0.00906976744 49.2034884,0.00906976744 50.0651163,0.00906976744 Z M38.3560465,6.56651163 C38.4648837,5.67767442 38.5555814,4.78883721 38.6916279,3.90906977 C38.882093,2.68465116 38.2381395,2.03162791 37.0772093,2.37627907 C36.4967442,2.54860465 35.9253488,2.84790698 35.4174419,3.18348837 C33.0048837,4.78883721 31.5446512,7.08348837 30.8281395,9.42348837 C29.8667442,9.6955814 29.0323256,9.73186047 28.4609302,10.14 C26.4565116,11.5548837 26.4565116,13.767907 26.52,15.7269767 C25.0688372,16.3165116 23.6902326,16.7427907 22.4476744,17.4230233 C20.397907,18.5386047 20.28,19.0918605 21.2595349,21.0872093 C19.617907,22.6925581 18.4206977,24.4702326 19.3276744,27.0460465 C18.3572093,27.4632558 17.432093,27.8351163 16.534186,28.2523256 C14.4662791,29.2227907 12.2713953,30.0027907 10.3939535,31.2544186 C8.40767442,32.5786047 8.09023256,34.4651163 9.08790698,36.777907 C7.19232558,37.4309302 5.31488372,38.0567442 3.44651163,38.7188372 C2.99302326,38.882093 2.25837209,39.0725581 2.21302326,39.3446512 C2.13139535,39.7981395 2.35813953,40.4874419 2.71186047,40.8048837 C4.79790698,42.6913953 7.05627907,44.2513953 10.0311628,44.3239535 C10.9744186,44.3511628 11.9086047,44.4962791 12.4346512,44.5416279 C13.142093,45.6027907 13.4867442,46.6730233 14.2032558,47.0811628 C15.7088372,47.9337209 17.3595349,48.7681395 19.0374419,49.022093 C21.567907,49.412093 24.18,49.2760465 26.755814,49.4393023 C27.3181395,49.4755814 28.0165116,49.6569767 28.3793023,50.037907 C29.4676744,51.1806977 30.7827907,51.6523256 32.2611628,51.5434884 C36.9502326,51.1897674 41.5486047,50.4369767 45.7660465,48.124186 C46.2739535,47.852093 47.035814,47.7886047 47.6072093,47.9427907 C49.3123256,48.3962791 50.9448837,49.1490698 52.6681395,49.5209302 C55.5432558,50.1467442 58.4455814,50.7634884 61.3751163,50.9993023 C63.3613953,51.1625581 65.3930233,50.5548837 66.8986047,49.0583721 C67.2704651,48.6865116 67.5062791,47.9155814 67.3974419,47.425814 C67.3067442,47.035814 66.5993023,46.7637209 66.1276744,46.5097674 C65.7195349,46.292093 65.2569767,46.1651163 64.8216279,46.0018605 C64.857907,45.8839535 64.8851163,45.7751163 64.9213953,45.6572093 C65.4746512,45.7116279 66.0460465,45.6934884 66.5811628,45.8295349 C68.5130233,46.3465116 70.4448837,46.8997674 72.3676744,47.462093 C74.7893023,48.1695349 76.2495349,47.1446512 76.2495349,44.6504651 C76.2495349,40.8048837 74.1816279,38.0839535 71.2248837,35.9434884 C69.7283721,34.8551163 68.1230233,33.9118605 66.8804651,33.1046512 C66.8804651,31.7623256 66.8623256,30.692093 66.8895349,29.6127907 C66.8986047,29.3044186 66.9439535,28.9325581 67.1072093,28.6967442 C68.404186,26.8918605 68.6762791,24.7695349 68.6944186,22.6834884 C68.757907,15.8902326 66.1095349,10.1944186 61.0576744,5.72302326 C57.6383721,2.69372093 53.6113953,0.807209302 48.9404651,0.897906977 C44.5597674,0.979534884 41.0316279,2.84790698 38.3560465,6.56651163 Z" id="Shape"></path>
            <path d="M59.0351163,28.2613953 C60.3230233,28.8781395 61.4748837,29.4313953 63.025814,30.1751163 C62.8534884,30.7646512 62.8172093,31.9527907 62.2095349,32.5695349 C61.7560465,33.0230233 60.4772093,32.9595349 59.6881395,32.7237209 C57.0034884,31.9165116 55.3437209,29.7216279 53.4844186,27.7988372 C51.2895349,25.5313953 49.1581395,23.1823256 46.7637209,21.1416279 C43.8976744,18.6927907 40.6144186,17.2960465 36.7053488,18.5567442 C33.4493023,19.6088372 31.7895349,22.3660465 32.6148837,25.6855814 C32.995814,27.2365116 33.6216279,28.7239535 34.165814,30.3474419 C33.5309302,30.1206977 33.0230233,29.8667442 32.487907,29.7488372 C31.7532558,29.5855814 30.9006977,29.0595349 30.4290698,30.1932558 C30.4018605,30.265814 30.2839535,30.302093 30.1932558,30.3383721 C29.095814,30.7827907 27.5811628,30.9097674 26.9734884,31.7260465 C25.6402326,33.5037209 23.6267442,33.1590698 22.0032558,33.93 C21.8309302,34.0116279 21.604186,34.047907 21.4953488,34.1839535 C21.0509302,34.7462791 20.6337209,35.3448837 20.2074419,35.9253488 C20.8151163,36.3062791 21.3774419,36.8413953 22.0395349,37.0409302 C22.6925581,37.2313953 23.4453488,37.0862791 24.1981395,37.0862791 C23.4362791,39.2176744 23.4997674,39.272093 25.7037209,39.1995349 C26.1390698,39.1813953 26.7104651,39.2902326 27.0188372,39.5713953 C31.6625581,43.7797674 37.2495349,45.5574419 43.3625581,46.0109302 C43.444186,46.02 43.525814,46.0653488 43.7525581,46.1469767 C41.7572093,47.5890698 39.5804651,48.36 37.2676744,48.6683721 C35.4265116,48.9132558 33.5762791,49.0402326 31.7169767,49.1127907 C30.2295349,49.1762791 29.2590698,48.4597674 29.0504651,46.8544186 C27.4451163,46.8544186 25.8760465,46.9088372 24.3069767,46.8453488 C22.1755814,46.7546512 20.044186,46.6367442 17.9309302,46.3646512 C17.3323256,46.2830233 16.497907,45.7116279 16.3437209,45.1946512 C16.2076744,44.732093 16.8334884,44.0155814 17.1962791,43.4623256 C17.4683721,43.0360465 17.8583721,42.6913953 18.4116279,42.0655814 C14.1306977,41.5848837 9.94953488,42.4646512 6.11302326,40.4874419 C10.8293023,39.3446512 14.2395349,35.9888372 18.4751163,33.6851163 C15.6816279,32.3609302 13.1693023,33.1137209 10.5481395,34.1386047 C11.1467442,32.6874419 12.2895349,32.134186 13.4776744,31.6897674 C15.6272093,30.8825581 17.7948837,30.147907 19.9444186,29.3588372 C21.6948837,28.7148837 23.1732558,27.7897674 23.9895349,25.9667442 C24.3523256,25.1595349 25.0960465,24.5427907 25.6039535,23.79 C25.9395349,23.2911628 26.1481395,22.7016279 26.2388372,22.0304651 C24.0348837,22.6653488 23.0644186,24.4430233 22.075814,26.2660465 C21.0146512,25.7127907 21.2686047,24.8693023 21.5497674,24.1437209 C22.1937209,22.5202326 23.4,21.3955814 24.9781395,20.6518605 C25.4951163,20.4069767 25.9486047,20.0532558 26.4293023,19.7448837 C26.3930233,19.5997674 26.3567442,19.4637209 26.3204651,19.3186047 C25.4588372,19.2551163 24.5881395,19.1825581 23.7265116,19.1190698 C23.6811628,18.992093 23.635814,18.874186 23.5813953,18.7472093 C25.4497674,18.175814 27.3272093,17.6044186 29.1774419,17.0330233 C29.0051163,15.7088372 28.8237209,14.3483721 28.5969767,12.6704651 C29.875814,13.532093 30.7011628,14.2213953 31.6444186,14.702093 C32.8325581,15.3097674 33.2316279,15.0013953 33.1137209,13.7044186 C32.8416279,10.6569767 33.9118605,8.09930233 35.6532558,6.06767442 C36.115814,7.94511628 36.5511628,9.97674419 37.1406977,11.9630233 C37.2948837,12.4981395 37.9206977,12.8881395 38.337907,13.3416279 C38.6281395,12.8427907 39.0544186,12.3893023 39.1904651,11.854186 C39.9251163,9.04255814 41.1404651,6.5755814 43.6346512,4.89767442 C46.7818605,2.77534884 50.192093,2.79348837 53.5206977,4.10860465 C60.3593023,6.80232558 64.1595349,12.09 65.4927907,19.1825581 C65.8465116,21.0872093 65.8374419,23.0916279 65.7376744,25.0325581 C65.6923256,25.9486047 65.2116279,26.9553488 64.6311628,27.6990698 C63.8148837,28.7602326 62.5813953,28.7693023 61.6290698,27.8169767 C60.2413953,26.4293023 58.9625581,24.9418605 57.6383721,23.4997674 C55.9332558,21.6313953 53.9469767,20.1802326 51.5162791,19.3911628 C51.2623256,19.3095349 50.9902326,19.3004651 50.545814,19.2188372 C52.0151163,20.905814 53.4027907,22.4113953 54.6725581,24.0076744 C55.497907,25.0506977 56.1690698,26.2206977 56.8765116,27.3453488 C57.447907,28.2432558 58.5544186,28.5969767 59.0351163,28.2613953 Z" id="Path"></path>
            <path d="M62.8353488,33.5309302 C63.18,32.642093 63.5337209,31.7532558 63.8783721,30.8644186 C64.077907,30.3565116 64.2683721,29.8395349 64.467907,29.3316279 C64.7037209,29.3860465 64.9304651,29.4404651 65.1662791,29.4948837 C64.9939535,30.7374419 64.8306977,31.98 64.6583721,33.2044186 C66.8623256,34.6646512 69.2204651,36.115814 71.4516279,37.7483721 C73.6737209,39.3718605 75.0160465,41.5939535 75.0795349,44.4327907 C75.1248837,46.4009302 74.4174419,46.9360465 72.5490698,46.4734884 C69.692093,45.7660465 66.8351163,45.0495349 63.9690698,44.3783721 C63.3432558,44.2332558 62.672093,44.2604651 61.9465116,44.3511628 C63.297907,45.6572093 63.9962791,47.734186 66.7262791,47.7613953 C66.1095349,48.3146512 65.7830233,48.7590698 65.3386047,48.9767442 C62.9532558,50.1830233 60.4318605,50.6183721 57.8288372,49.8474419 C52.65,48.3146512 47.5074419,46.6911628 42.3376744,45.1493023 C40.1427907,44.4962791 37.8753488,44.0972093 35.7167442,43.3716279 C32.9232558,42.4193023 30.4744186,40.8774419 28.587907,38.5193023 C28.2795349,38.1293023 27.5448837,37.9932558 26.9916279,37.9206977 C26.52,37.8572093 26.012093,38.0567442 25.4134884,38.1565116 C25.857907,37.4581395 26.2025581,36.9048837 26.5562791,36.3516279 C25.8306977,36.2972093 25.1051163,36.2337209 24.3795349,36.1883721 C23.3546512,36.1248837 22.3297674,36.0795349 21.2776744,35.7711628 C23.635814,33.8483721 26.6469767,34.3653488 29.4132558,33.4765116 C29.0686047,33.0774419 28.7783721,32.7418605 28.5516279,32.487907 C29.2681395,32.215814 30.0209302,31.9346512 30.7646512,31.6534884 C30.7465116,31.5627907 30.7283721,31.472093 30.7102326,31.3813953 C31.5265116,31.59 32.3518605,31.7895349 33.304186,32.0344186 C33.2769767,31.6262791 33.2588372,31.354186 33.2316279,30.9913953 C34.3925581,31.3813953 35.4627907,31.7260465 36.8323256,32.1886047 C36.3697674,31.0276744 35.9616279,30.1388372 35.6623256,29.2046512 C35.254186,27.9439535 34.8006977,26.674186 34.592093,25.3681395 C34.1295349,22.5746512 35.4174419,20.7425581 39.0906977,20.1530233 C41.2674419,19.8083721 43.0995349,20.8060465 44.8318605,21.957907 C48.6865116,24.5427907 52.3053488,27.3725581 55.2893023,31.0095349 C57.1848837,33.3223256 59.8423256,34.2837209 62.8988372,33.5037209 C61.5565116,33.775814 60.2232558,34.0569767 58.7086047,34.3653488 C58.9716279,36.424186 58.0918605,38.0386047 55.1986047,38.5283721 C56.5772093,39.154186 57.4569767,39.5532558 58.3367442,39.9523256 C53.2395349,38.4013953 48.2239535,36.6872093 43.1448837,35.2269767 C39.9069767,34.2927907 36.5602326,34.1023256 33.2316279,35.0546512 C31.3632558,35.5897674 30.7102326,37.0046512 31.9527907,38.5102326 C32.9595349,39.7346512 34.2746512,40.7595349 35.6260465,41.612093 C37.3855814,42.7276744 39.5351163,43.0632558 41.4125581,43.8251163 C47.3804651,46.2376744 53.4844186,48.0425581 59.787907,49.2125581 C60.8581395,49.412093 62.0009302,49.2397674 63.1165116,49.2397674 C63.1255814,49.1127907 63.1346512,48.9767442 63.1437209,48.8497674 C58.9444186,48.205814 54.9174419,47.0086047 51.3076744,44.7683721 C49.7113953,43.7797674 48.2148837,42.5372093 46.9813953,41.1313953 C46.292093,40.3513953 45.8386047,40.2244186 44.9769767,40.4602326 C44.3148837,40.6416279 43.6074419,40.677907 42.9272093,40.7867442 C42.9090698,40.6053488 42.8909302,40.4239535 42.8818605,40.2334884 C45.7297674,39.3446512 48.6502326,39.4262791 51.6069767,39.8072093 C50.4369767,39.934186 49.2669767,40.0611628 48.087907,40.1881395 C48.0516279,40.3332558 48.0153488,40.4783721 47.9790698,40.6325581 C48.4234884,40.8955814 48.8406977,41.2946512 49.3213953,41.4034884 C51.4981395,41.9023256 53.6748837,42.4646512 55.887907,42.745814 C59.7244186,43.2355814 63.5972093,43.4532558 67.4337209,43.9339535 C69.3927907,44.1788372 71.3065116,44.7774419 73.2293023,45.2127907 C74.6986047,40.7867442 67.3611628,35.1634884 62.8353488,33.5309302 Z M55.2076744,31.3269767 C52.804186,29.0867442 50.6909302,27.0913953 48.5504651,25.1323256 C47.0993023,23.8081395 45.6934884,24.2344186 45.122093,26.1481395 C44.4146512,28.5062791 45.0586047,30.6467442 46.2195349,32.7146512 C47.9972093,35.8981395 51.1716279,36.8776744 54.3097674,37.8753488 C55.3074419,38.1927907 56.7223256,37.1497674 56.8946512,36.1883721 C54.8176744,36.115814 54.0739535,35.6169767 53.6204651,33.9572093 C53.312093,32.7690698 53.4209302,31.7532558 55.2076744,31.3269767 Z M51.1625581,42.9272093 C51.1081395,43.054186 51.0537209,43.1811628 50.9993023,43.3081395 C53.5751163,44.5053488 56.16,45.7025581 58.735814,46.8997674 C58.8809302,46.7002326 59.0169767,46.5006977 59.162093,46.3011628 C58.2551163,45.475814 57.484186,44.2967442 56.4230233,43.9067442 C54.7723256,43.2990698 52.922093,43.2265116 51.1625581,42.9272093 Z" id="Shape"></path>
            <path d="M60.2504651,36.1702326 C61.9827907,34.8369767 63.0167442,35.8165116 64.077907,36.6781395 C62.8988372,36.5239535 61.7288372,36.3697674 60.2504651,36.1702326 Z" id="Path"></path>
        </g>
    </g>
</svg>