<?xml version="1.0" encoding="utf-8"?>
<!-- Generator: Adobe Illustrator 23.0.6, SVG Export Plug-In . SVG Version: 6.00 Build 0)  -->
<svg version="1.1" id="Layer_1" xmlns="http://www.w3.org/2000/svg" xmlns:xlink="http://www.w3.org/1999/xlink" x="0px" y="0px"
	 viewBox="0 0 100 100" style="enable-background:new 0 0 100 100;" xml:space="preserve">
<style type="text/css">
	.st0{fill:#63C083;}
	.st1{fill:#75C275;}
	.st2{fill:#65C086;}
	.st3{fill:none;stroke:#65C086;stroke-miterlimit:10;}
</style>
<g>
	<g>
		<g>
			<path class="st1" d="M30.46,14.7v7.58H33v36.27h-2.54v7.58h13.16v-7.58h-2.56V44.39h17.88v14.16h-2.55v7.58h13.15v-7.58h-2.55
				V22.28h2.55V14.7H56.39v7.58h2.55v14.15H41.06V22.28h2.56V14.7H30.46z"/>
		</g>
	</g>
	<g>
		<g>
			<path class="st1" d="M71.56,68.12H54.38V56.56h2.54V46.39H43.08v10.17h2.55v11.57h-17.2V56.56h2.55V24.27h-2.55V12.71h17.2v11.56
				h-2.55v10.17h13.84V24.27h-2.54V12.71h17.17v11.56h-2.55v32.28h2.55V68.12z M54.77,67.72h16.38V56.95h-2.54V23.88h2.54V13.11
				H54.77v10.77h2.55v10.96H42.68V23.88h2.55V13.11H28.84v10.77h2.56v33.08h-2.56v10.77h16.38V56.95h-2.55V45.99h14.65v10.96h-2.55
				V67.72z"/>
		</g>
	</g>
	<g>
		<g>
			<g>
				<path class="st1" d="M10.73,4.6v0.45v29.38c0,38.21,25.59,53.68,39.04,61.36L50,95.92l0.21-0.13
					c13.46-7.68,39.06-23.15,39.06-61.36V5.05V4.6h-0.46H50H11.18H10.73z M11.64,5.5H50h38.36v28.93
					c0,37.63-24.88,52.74-38.36,60.45c-13.47-7.71-38.37-22.82-38.37-60.45V5.5z"/>
			</g>
		</g>
	</g>
</g>
</svg>
