<?xml version="1.0" encoding="utf-8"?>
<!-- Generator: Adobe Illustrator 22.1.0, SVG Export Plug-In . SVG Version: 6.00 Build 0)  -->
<svg version="1.1" id="Layer_1" xmlns="http://www.w3.org/2000/svg" xmlns:xlink="http://www.w3.org/1999/xlink" x="0px" y="0px"
	 viewBox="0 0 100 100" style="enable-background:new 0 0 100 100;" xml:space="preserve">
<style type="text/css">
	.st0{fill:#65C086;}
	.st1{fill:none;stroke:#65C086;stroke-miterlimit:10;}
	.st2{enable-background:new    ;}
</style>
<g>
	<g>
		<g>
			<path class="st0" d="M30.5,14.4V22H33v36.3h-2.5v7.6h13.2v-7.6h-2.6V44.1H59v14.2h-2.5v7.6h13.1v-7.6h-2.5V22h2.5v-7.6H56.5V22
				H59v14.2H41.1V22h2.6v-7.6C43.6,14.4,30.5,14.4,30.5,14.4z"/>
		</g>
	</g>
	<g>
		<g>
			<path class="st0" d="M71.6,67.8H54.4V56.2h2.5V46.1H43.1v10.2h2.5v11.6H28.4V56.2h2.5V24h-2.5V12.4h17.2V24h-2.5v10.2h13.8V24
				h-2.5V12.4h17.2V24h-2.5v32.3h2.5V67.8z M54.8,67.5h16.4V56.8h-2.5V23.7h2.5V12.8H54.8v10.8h2.5v11H42.7v-11h2.5V12.8H28.8v10.8
				h2.6v33.1h-2.6v10.8h16.4V56.8h-2.5v-11h14.6v11h-2.5V67.5z"/>
		</g>
	</g>
	<g>
		<g>
			<g>
				<path class="st0" d="M10.7,4.3v0.4v29.4c0,38.2,25.6,53.7,39,61.4l0.2,0.1l0.2-0.1c13.5-7.7,39.1-23.2,39.1-61.4V4.8V4.4h-0.5
					H50H11.2L10.7,4.3L10.7,4.3z M11.6,5.2H50h38.4v28.9c0,37.6-24.9,52.7-38.4,60.5c-13.5-7.7-38.4-22.8-38.4-60.5V5.2L11.6,5.2z"
					/>
			</g>
		</g>
	</g>
</g>
</svg>
