<?xml version="1.0" encoding="UTF-8"?>
<svg width="78px" height="78px" viewBox="0 0 78 78" version="1.1" xmlns="http://www.w3.org/2000/svg" xmlns:xlink="http://www.w3.org/1999/xlink">
    <!-- Generator: Sketch 56.3 (81716) - https://sketch.com -->
    <title>Artboard</title>
    <desc>Created with Sketch.</desc>
    <g id="Artboard" stroke="none" stroke-width="1" fill="none" fill-rule="evenodd">
        <g id="lafayette" transform="translate(0.000000, 7.000000)" fill="#65C086" fill-rule="nonzero">
            <path d="M68.193125,27.93375 C68.185,28.608125 68.176875,29.2825 68.16875,29.965 C68.16875,29.965 68.16875,30.086875 68.16875,30.086875 C67.81125,30.996875 67.445625,31.906875 67.088125,32.816875 L67.120625,32.768125 C66.048125,33.499375 66.105,34.068125 67.071875,35.026875 C68.534375,36.473125 69.745,38.1875 70.6875,40.105 C69.070625,38.3175 67.445625,36.53 65.788125,34.701875 C63.7975,35.888125 61.88,37.025625 60.019375,38.130625 C59.466875,37.45625 59.03625,36.928125 58.5975,36.391875 C58.4675,36.473125 58.3375,36.554375 58.2075,36.6275 C58.51625,37.854375 58.695,39.13 59.15,40.291875 C60.97,44.93125 59.88125,48.3275 55.575,50.8625 C54.543125,51.471875 53.3975,51.878125 51.991875,52.52 C52.13,51.8375 52.21125,51.406875 52.316875,50.886875 C50.805625,51.130625 49.343125,51.374375 47.539375,51.666875 C47.98625,51.016875 48.24625,50.643125 48.5225,50.245 C47.035625,49.749375 45.556875,49.261875 43.485,48.57125 C42.00625,53.82 40.519375,59.125625 39.008125,64.488125 C26.089375,64.488125 13.26,64.488125 0.0975,64.488125 C0.4875,62.90375 0.82875,61.40875 1.226875,59.93 C2.039375,56.866875 2.933125,53.82 3.680625,50.740625 C3.9975,49.424375 4.37125,48.49 6.0125,48.66875 C6.41875,48.709375 7.190625,48.18125 7.304375,47.775 C8.978125,41.74625 10.5625,35.693125 12.211875,29.49375 C11.301875,29.38 10.57875,29.29875 9.50625,29.16875 C10.90375,23.928125 12.285,18.744375 13.66625,13.5525 C14.82,13.495625 15.786875,13.446875 16.9,13.39 C17.30625,11.2125 16.469375,8.653125 18.44375,7.109375 C20.3125,8.125 21.929375,9.24625 23.70875,9.920625 C26.479375,10.976875 29.046875,10.90375 32.0125,9.4575 C35.79875,7.605 40.129375,6.881875 44.695625,5.54125 C44.549375,4.53375 44.305625,2.884375 43.98875,0.723125 C45.248125,0.999375 46.5725,0.934375 47.385,1.54375 C50.0175,3.51 52.66625,5.533125 54.90875,7.91375 C56.753125,9.871875 59.085,10.595 61.384375,11.090625 C63.951875,11.643125 65.27625,12.26875 65.95875,14.828125 C65.999375,14.974375 66.0725,15.12875 66.048125,15.266875 C65.3575,19.654375 66.69,23.684375 68.193125,27.69 C68.185,27.77125 68.193125,27.8525 68.193125,27.93375 Z M60.97,19.345625 C59.81625,18.5575 58.670625,17.769375 57.338125,16.8675 C57.321875,16.550625 57.2975,15.884375 57.265,15.22625 C58.4025,15.998125 59.531875,16.77 61.14875,17.866875 C60.701875,16.835 60.49875,16.371875 60.311875,15.949375 C61.44125,15.949375 62.391875,15.949375 63.35875,15.949375 C63.13125,16.323125 62.90375,16.68875 62.538125,17.281875 C64.748125,16.436875 65.04875,16.10375 64.325625,14.625 C63.91125,13.78 63.81375,11.44 61.70125,13.325 C61.481875,13.52 60.4825,13.105625 60.515,14.145625 C59.905625,14.04 59.304375,13.92625 58.54875,13.788125 C58.90625,13.14625 59.15,12.7075 59.466875,12.146875 C58.800625,11.81375 58.183125,11.505 57.549375,11.188125 C57.695625,11.968125 57.93125,12.5775 57.874375,13.1625 C57.8175,13.869375 57.50875,14.56 57.31375,15.25875 C56.980625,16.185 56.6475,17.11125 56.346875,17.931875 C57.54125,18.41125 58.58125,18.500625 58.833125,18.988125 C59.52375,20.320625 60.23875,19.589375 61.0025,19.28875 C61.498125,20.385625 62.001875,21.4825 62.521875,22.62 C61.920625,22.62 61.165,22.62 60.4175,22.62 C59.466875,20.060625 55.9,18.646875 53.7225,19.914375 C52.89375,20.39375 51.975625,20.71875 50.44,21.40125 C52.01625,21.133125 53.12125,21.23875 53.860625,20.7675 C55.306875,19.849375 56.4525,19.9225 57.70375,21.0275 C57.1025,21.92125 56.56625,22.709375 56.119375,23.3675 C54.266875,22.88 52.52,22.425 51.163125,22.0675 C51.04125,23.0425 50.7,23.830625 50.96,24.16375 C51.504375,24.886875 52.365625,25.3825 53.05625,25.935 C51.98375,26.073125 50.951875,26.203125 49.928125,26.333125 C49.93625,26.528125 49.944375,26.723125 49.9525,26.918125 C50.7975,27.454375 51.6425,27.990625 52.950625,28.81125 C51.618125,28.673125 50.8625,28.6 50.106875,28.51875 C50.0175,28.721875 49.928125,28.925 49.83875,29.13625 C50.675625,29.631875 51.5125,30.1275 52.8125,30.899375 C50.561875,30.753125 48.79875,30.639375 47.01125,30.525625 C46.58875,31.915 47.17375,32.524375 48.530625,32.51625 C50.48875,32.51625 52.479375,32.703125 54.396875,32.410625 C56.46875,32.085625 58.459375,31.2975 60.701875,30.655625 C59.158125,28.591875 57.841875,27.15375 56.9725,25.48 C56.704375,24.96 57.451875,23.595 58.085625,23.01 C58.589375,22.546875 59.645625,22.693125 60.46625,22.563125 C61.855625,22.945 63.236875,23.326875 64.62625,23.70875 C64.764375,23.4325 64.910625,23.15625 65.04875,22.88 C63.691875,21.701875 62.335,20.52375 60.97,19.345625 Z M35.189375,31.6875 C35.530625,29.98125 37.204375,30.07875 38.3175,29.469375 C39.47125,28.835625 40.7875,28.51875 42.03875,28.06375 C41.925,27.70625 41.81125,27.34875 41.689375,26.983125 C40.438125,27.1375 39.186875,27.340625 37.9275,27.421875 C37.236875,27.4625 36.53,27.291875 35.823125,27.210625 C35.855625,27.04 35.89625,26.869375 35.92875,26.706875 C37.740625,26.365625 39.5525,26.024375 41.559375,25.650625 C41.559375,25.374375 41.559375,24.68375 41.559375,23.408125 C40.275625,23.80625 39.268125,24.123125 38.065625,24.496875 C37.756875,24.05 37.269375,23.335 36.781875,22.63625 C37.691875,22.63625 38.6425,22.63625 39.65,22.63625 C39.820625,21.734375 39.975,20.91375 40.129375,20.093125 C39.983125,20.03625 39.836875,19.979375 39.690625,19.914375 C39.089375,20.564375 38.49625,21.214375 38.016875,21.7425 C37.22875,21.311875 36.61125,20.9625 35.985625,20.62125 C35.7175,22.010625 35.449375,23.391875 35.221875,24.57 C34.645,25.69125 34.10875,26.723125 33.58875,27.73875 C34.30375,27.990625 34.701875,28.12875 35.40875,28.3725 C33.93,29.315 32.76,30.0625 31.54125,30.8425 C31.386875,30.363125 31.240625,29.891875 31.094375,29.420625 C30.85875,29.436875 30.623125,29.445 30.395625,29.46125 C30.346875,30.4525 30.298125,31.44375 30.216875,32.898125 C27.649375,34.181875 29.575,36.4 30.5175,38.8375 C29.5425,38.1875 28.97375,37.7975 28.396875,37.415625 C28.22625,37.610625 28.055625,37.805625 27.885,38.000625 C28.413125,38.471875 28.86,39.121875 29.4775,39.381875 C31.18375,40.096875 33.215,40.3 34.62875,41.35625 C36.3675,42.648125 37.984375,43.56625 40.73875,43.17625 C40.161875,42.518125 39.86125,41.9575 39.39,41.656875 C37.765,40.616875 36.09125,39.674375 34.43375,38.69125 C34.571875,38.406875 34.71,38.1225 34.848125,37.838125 C36.863125,38.585625 38.878125,39.325 41.071875,40.1375 C40.616875,39.251875 40.389375,38.04125 39.845,37.886875 C38.23625,37.415625 38.861875,36.505625 39.08125,35.60375 C40.28375,36.213125 41.48625,36.814375 42.664375,37.415625 C42.485625,37.765 42.2175,38.285 41.9575,38.805 C42.469375,38.845625 42.973125,38.88625 43.485,38.926875 C43.314375,39.0325 43.135625,39.14625 42.965,39.251875 C43.485,40.08875 43.996875,40.925625 44.6875,42.030625 C43.55,44.915 43.81,45.38625 48.0025,47.084375 C47.75875,47.46625 47.523125,47.848125 47.311875,48.189375 C48.57125,49.14 50.115,48.1 51.43125,49.489375 C52.056875,50.155625 54.608125,49.505625 55.98125,48.823125 C57.525,48.05125 58.54875,46.49125 58.4675,44.21625 C57.72,44.695625 57.273125,45.175 56.753125,45.2725 C55.62375,45.491875 54.42125,45.37 53.324375,45.654375 C50.42375,46.401875 48.839375,43.671875 46.434375,43.14375 C46.223125,43.095 46.13375,42.371875 46.044375,41.9575 C45.768125,40.616875 45.654375,39.235625 45.22375,37.951875 C44.7525,36.53 44.013125,35.205625 43.281875,33.605 C42.030625,34.2225 40.57625,34.945625 39.13,35.66875 C37.8625,36.245625 36.595,36.814375 35.3275,37.39125 C35.23,37.2125 35.140625,37.041875 35.043125,36.863125 C35.888125,36.391875 36.749375,35.945 37.578125,35.44125 C38.845625,34.669375 40.08875,33.865 41.34,33.076875 C41.8925,32.7275 42.42875,32.37 42.973125,32.0125 C42.7375,31.663125 42.51,31.305625 42.274375,30.95625 C39.56875,32.378125 36.863125,33.8 34.1575,35.21375 C34.230625,35.368125 34.30375,35.530625 34.376875,35.685 C34.69375,34.5475 35.01875,33.41 35.335625,32.280625 C37.16375,31.809375 39,31.34625 40.828125,30.875 C40.763125,30.63125 40.69,30.395625 40.625,30.151875 C38.813125,30.655625 37.00125,31.175625 35.189375,31.6875 Z M37.9275,62.855 C39.430625,57.256875 40.876875,51.894375 42.371875,46.304375 C38.17125,46.304375 34.246875,46.255625 30.330625,46.36125 C29.8025,46.3775 29.030625,47.019375 28.81125,47.555625 C27.5925,50.505 26.576875,50.984375 23.31875,49.733125 C25.065625,43.20875 26.820625,36.668125 28.559375,30.119375 C28.925,28.754375 29.241875,27.454375 31.1675,27.779375 C31.47625,27.828125 32.11,27.3 32.215625,26.92625 C33.3125,23.02625 34.33625,19.11 35.44125,14.96625 C28.770625,14.96625 22.351875,14.95 15.94125,15.006875 C15.494375,15.006875 14.763125,15.47 14.649375,15.86 C13.528125,19.751875 12.5125,23.668125 11.448125,27.6575 C12.3825,27.77125 13.105625,27.8525 13.89375,27.95 C13.89375,28.42125 13.975,28.803125 13.885625,29.13625 C12.146875,35.70125 10.424375,42.26625 8.571875,48.790625 C8.393125,49.41625 7.36125,49.79 6.735625,50.285625 C6.175,50.7325 5.28125,51.081875 5.110625,51.650625 C4.005625,55.315 3.055,59.03625 2.023125,62.855 C14.080625,62.855 25.926875,62.855 37.9275,62.855 Z M30.33875,11.561875 C31.1675,13.9425 34.19,9.83125 34.344375,13.82875 C36.22125,12.699375 37.78125,11.74875 39.34125,10.80625 C39.463125,11.00125 39.585,11.204375 39.706875,11.399375 C38.95125,12.033125 38.195625,12.65875 37.31,13.398125 C37.935625,13.6175 38.3825,13.771875 39.34125,14.105 C36.38375,15.09625 36.4975,16.9975 36.863125,19.329375 C38.488125,18.370625 39.9425,17.509375 41.770625,16.42875 C40.730625,16.128125 40.226875,15.981875 39.690625,15.8275 C40.356875,14.54375 43.85875,13.26 44.663125,14.015625 C44.500625,14.340625 44.321875,14.70625 44.175625,14.99875 C46.94625,16.51 49.700625,18.013125 52.479375,19.524375 C52.7475,17.43625 54.3075,15.348125 55.420625,15.55125 C55.696875,12.748125 53.99875,11.18 50.13125,10.603125 C50.7,11.383125 51.30125,12.20375 51.894375,13.0325 C51.75625,13.203125 51.618125,13.365625 51.48,13.53625 C48.44125,10.180625 44.321875,10.74125 40.389375,10.64375 C41.071875,8.04375 42.705,9.465625 43.801875,9.27875 C45.150625,9.05125 46.5725,9.254375 47.961875,9.2625 C49.148125,9.270625 50.32625,9.2625 51.5125,9.2625 C51.504375,8.98625 51.49625,8.71 51.488125,8.425625 C44.061875,6.695 37.058125,7.93 30.33875,11.561875 Z M66.340625,26.195 C64.926875,27.600625 63.610625,28.81125 62.4325,30.14375 C62.15625,30.4525 62.229375,31.208125 62.35125,31.70375 C62.595,32.695 62.993125,33.645625 63.31,34.571875 C66.161875,32.58125 67.299375,29.68875 66.340625,26.195 Z M51.4475,7.3125 C51.59375,7.085 51.74,6.8575 51.88625,6.621875 C50.074375,5.1675 48.254375,3.72125 46.4425,2.266875 C46.174375,3.583125 46.2475,4.55 46.499375,5.46 C46.605,5.85 47.084375,6.1425 47.393125,6.48375 C47.636875,6.134375 47.880625,5.776875 48.010625,5.581875 C49.164375,6.166875 50.301875,6.735625 51.4475,7.3125 Z M49.51375,20.141875 C48.660625,19.64625 47.7425,19.175 46.889375,18.60625 C46.288125,18.2 45.784375,17.655625 45.231875,17.17625 C44.99625,17.95625 44.451875,18.80125 44.59,19.508125 C44.85,20.791875 45.654375,21.6775 47.2225,20.97875 C48.091875,20.58875 49.01,20.320625 49.51375,20.141875 Z M18.33,9.425 C18.533125,10.570625 18.776875,11.968125 19.020625,13.365625 C19.199375,13.34125 19.378125,13.316875 19.556875,13.2925 C19.64625,12.926875 19.74375,12.553125 19.825,12.23625 C20.71875,12.683125 21.515,13.089375 22.319375,13.4875 C22.368125,13.40625 22.416875,13.316875 22.465625,13.235625 C21.100625,11.984375 19.74375,10.725 18.33,9.425 Z M55.8025,33.15 C55.826875,33.36125 55.843125,33.564375 55.8675,33.775625 C57.955625,33.629375 60.04375,33.483125 62.538125,33.3125 C59.94625,30.688125 57.906875,33.190625 55.8025,33.15 Z" id="Shape"></path>
            <path d="M68.193125,27.93375 C68.193125,27.8525 68.185,27.77125 68.176875,27.681875 C71.410625,26.50375 74.611875,27.194375 77.813125,27.93375 C74.60375,27.93375 71.4025,27.93375 68.193125,27.93375 Z" id="Path"></path>
            <path d="M67.088125,32.816875 C67.5675,32.751875 68.160625,32.475625 68.51,32.654375 C70.85,33.889375 73.14125,35.21375 75.22125,36.90375 C72.52375,35.5225 69.82625,34.133125 67.12875,32.76 C67.120625,32.768125 67.088125,32.816875 67.088125,32.816875 Z" id="Path"></path>
            <path d="M68.16875,30.07875 C68.16875,30.07875 68.16875,29.956875 68.16875,29.956875 C71.11,30.541875 74.043125,31.135 76.984375,31.72 C76.9275,31.955625 76.87875,32.19125 76.821875,32.426875 C73.9375,31.655 71.053125,30.866875 68.16875,30.07875 Z" id="Path"></path>
            <path d="M4.346875,61.1975 C5.191875,58.02875 5.9475,55.193125 6.784375,52.065 C9.8475,52.92625 10.0425,50.65125 10.586875,48.57125 C12.43125,41.48625 14.34875,34.4175 16.23375,27.34875 C16.323125,27.0075 16.38,26.65 16.485625,26.1625 C15.559375,26.056875 14.77125,25.959375 13.8125,25.845625 C14.551875,23.1075 15.19375,20.483125 16.014375,17.915625 C16.176875,17.42 17.01375,16.810625 17.541875,16.8025 C22.595625,16.72125 27.6575,16.75375 33.076875,16.75375 C32.32125,19.703125 31.655,22.44125 30.883125,25.146875 C30.7775,25.5125 30.086875,26.01625 29.745625,25.959375 C27.779375,25.634375 27.568125,26.95875 27.2025,28.34 C25.276875,35.63625 23.294375,42.91625 21.33625,50.204375 C21.20625,50.7 21.125,51.211875 20.9625,52.024375 C23.57875,52.024375 26.04875,52.121875 28.494375,51.943125 C28.99,51.910625 29.713125,50.919375 29.826875,50.2775 C30.14375,48.498125 31.013125,47.97 32.77625,48.1 C35.08375,48.270625 37.415625,48.140625 40.015625,48.140625 C38.9025,52.34125 37.903125,56.2575 36.77375,60.149375 C36.64375,60.604375 35.823125,61.14875 35.3275,61.156875 C25.1225,61.21375 14.925625,61.1975 4.346875,61.1975 Z M29.98125,18.63875 C30.005625,18.47625 30.03,18.31375 30.0625,18.15125 C28.559375,18.15125 27.05625,18.15125 25.545,18.15125 C24.106875,18.15125 22.66875,18.11875 21.23875,18.159375 C19.87375,18.2 18.516875,18.305625 17.16,18.386875 C17.184375,18.468125 17.20875,18.5575 17.233125,18.63875 C21.4825,18.63875 25.731875,18.63875 29.98125,18.63875 Z" id="Shape"></path>
        </g>
    </g>
</svg>