<?xml version="1.0" encoding="utf-8"?>
<!-- Generator: Adobe Illustrator 23.0.6, SVG Export Plug-In . SVG Version: 6.00 Build 0)  -->
<svg version="1.1" id="Layer_1" xmlns="http://www.w3.org/2000/svg" xmlns:xlink="http://www.w3.org/1999/xlink" x="0px" y="0px"
	 viewBox="0 0 100 100" style="enable-background:new 0 0 100 100;" xml:space="preserve">
<style type="text/css">
	.st0{fill:#63C083;}
	.st1{fill:#75C275;}
	.st2{fill:#65C086;}
	.st3{fill:none;stroke:#65C086;stroke-miterlimit:10;}
	.st4{font-family:'MyriadPro-Regular';}
	.st5{font-size:12.444px;}
</style>
<text transform="matrix(1 0 0 1 6.1186 97.9018)" class="st4 st5">lafayette</text>
<g id="_x36_ZIs42_1_">
	<g>
		<path class="st2" d="M89.93,36.38c-0.01,0.83-0.02,1.66-0.03,2.5c0,0,0,0.15,0,0.15c-0.44,1.12-0.89,2.24-1.33,3.36l0.04-0.06
			c-1.32,0.9-1.25,1.6-0.06,2.78c1.8,1.78,3.29,3.89,4.45,6.25c-1.99-2.2-3.99-4.4-6.03-6.65c-2.45,1.46-4.81,2.86-7.1,4.22
			c-0.68-0.83-1.21-1.48-1.75-2.14c-0.16,0.1-0.32,0.2-0.48,0.29c0.38,1.51,0.6,3.08,1.16,4.51c2.24,5.71,0.9,9.89-4.4,13.01
			c-1.27,0.75-2.68,1.25-4.41,2.04c0.17-0.84,0.27-1.37,0.4-2.01c-1.86,0.3-3.66,0.6-5.88,0.96c0.55-0.8,0.87-1.26,1.21-1.75
			c-1.83-0.61-3.65-1.21-6.2-2.06c-1.82,6.46-3.65,12.99-5.51,19.59c-15.9,0-31.69,0-47.89,0c0.48-1.95,0.9-3.79,1.39-5.61
			c1-3.77,2.1-7.52,3.02-11.31c0.39-1.62,0.85-2.77,2.87-2.55c0.5,0.05,1.45-0.6,1.59-1.1c2.06-7.42,4.01-14.87,6.04-22.5
			c-1.12-0.14-2.01-0.24-3.33-0.4c1.72-6.45,3.42-12.83,5.12-19.22c1.42-0.07,2.61-0.13,3.98-0.2c0.5-2.68-0.53-5.83,1.9-7.73
			c2.3,1.25,4.29,2.63,6.48,3.46c3.41,1.3,6.57,1.21,10.22-0.57c4.66-2.28,9.99-3.17,15.61-4.82c-0.18-1.24-0.48-3.27-0.87-5.93
			c1.55,0.34,3.18,0.26,4.18,1.01c3.24,2.42,6.5,4.91,9.26,7.84c2.27,2.41,5.14,3.3,7.97,3.91c3.16,0.68,4.79,1.45,5.63,4.6
			c0.05,0.18,0.14,0.37,0.11,0.54c-0.85,5.4,0.79,10.36,2.64,15.29C89.92,36.18,89.93,36.28,89.93,36.38z M81.04,25.81
			c-1.42-0.97-2.83-1.94-4.47-3.05c-0.02-0.39-0.05-1.21-0.09-2.02c1.4,0.95,2.79,1.9,4.78,3.25c-0.55-1.27-0.8-1.84-1.03-2.36
			c1.39,0,2.56,0,3.75,0c-0.28,0.46-0.56,0.91-1.01,1.64c2.72-1.04,3.09-1.45,2.2-3.27c-0.51-1.04-0.63-3.92-3.23-1.6
			c-0.27,0.24-1.5-0.27-1.46,1.01c-0.75-0.13-1.49-0.27-2.42-0.44c0.44-0.79,0.74-1.33,1.13-2.02c-0.82-0.41-1.58-0.79-2.36-1.18
			c0.18,0.96,0.47,1.71,0.4,2.43c-0.07,0.87-0.45,1.72-0.69,2.58c-0.41,1.14-0.82,2.28-1.19,3.29c1.47,0.59,2.75,0.7,3.06,1.3
			c0.85,1.64,1.73,0.74,2.67,0.37c0.61,1.35,1.23,2.7,1.87,4.1c-0.74,0-1.67,0-2.59,0c-1.17-3.15-5.56-4.89-8.24-3.33
			c-1.02,0.59-2.15,0.99-4.04,1.83c1.94-0.33,3.3-0.2,4.21-0.78c1.78-1.13,3.19-1.04,4.73,0.32c-0.74,1.1-1.4,2.07-1.95,2.88
			c-2.28-0.6-4.43-1.16-6.1-1.6c-0.15,1.2-0.57,2.17-0.25,2.58c0.67,0.89,1.73,1.5,2.58,2.18c-1.32,0.17-2.59,0.33-3.85,0.49
			c0.01,0.24,0.02,0.48,0.03,0.72c1.04,0.66,2.08,1.32,3.69,2.33c-1.64-0.17-2.57-0.26-3.5-0.36c-0.11,0.25-0.22,0.5-0.33,0.76
			c1.03,0.61,2.06,1.22,3.66,2.17c-2.77-0.18-4.94-0.32-7.14-0.46c-0.52,1.71,0.2,2.46,1.87,2.45c2.41,0,4.86,0.23,7.22-0.13
			c2.55-0.4,5-1.37,7.76-2.16c-1.9-2.54-3.52-4.31-4.59-6.37c-0.33-0.64,0.59-2.32,1.37-3.04c0.62-0.57,1.92-0.39,2.93-0.55
			c1.71,0.47,3.41,0.94,5.12,1.41c0.17-0.34,0.35-0.68,0.52-1.02C84.39,28.71,82.72,27.26,81.04,25.81z M49.31,41
			c0.42-2.1,2.48-1.98,3.85-2.73c1.42-0.78,3.04-1.17,4.58-1.73c-0.14-0.44-0.28-0.88-0.43-1.33c-1.54,0.19-3.08,0.44-4.63,0.54
			c-0.85,0.05-1.72-0.16-2.59-0.26c0.04-0.21,0.09-0.42,0.13-0.62c2.23-0.42,4.46-0.84,6.93-1.3c0-0.34,0-1.19,0-2.76
			c-1.58,0.49-2.82,0.88-4.3,1.34c-0.38-0.55-0.98-1.43-1.58-2.29c1.12,0,2.29,0,3.53,0c0.21-1.11,0.4-2.12,0.59-3.13
			c-0.18-0.07-0.36-0.14-0.54-0.22c-0.74,0.8-1.47,1.6-2.06,2.25c-0.97-0.53-1.73-0.96-2.5-1.38c-0.33,1.71-0.66,3.41-0.94,4.86
			c-0.71,1.38-1.37,2.65-2.01,3.9c0.88,0.31,1.37,0.48,2.24,0.78c-1.82,1.16-3.26,2.08-4.76,3.04c-0.19-0.59-0.37-1.17-0.55-1.75
			c-0.29,0.02-0.58,0.03-0.86,0.05c-0.06,1.22-0.12,2.44-0.22,4.23c-3.16,1.58-0.79,4.31,0.37,7.31c-1.2-0.8-1.9-1.28-2.61-1.75
			c-0.21,0.24-0.42,0.48-0.63,0.72c0.65,0.58,1.2,1.38,1.96,1.7c2.1,0.88,4.6,1.13,6.34,2.43c2.14,1.59,4.13,2.72,7.52,2.24
			c-0.71-0.81-1.08-1.5-1.66-1.87c-2-1.28-4.06-2.44-6.1-3.65c0.17-0.35,0.34-0.7,0.51-1.05c2.48,0.92,4.96,1.83,7.66,2.83
			c-0.56-1.09-0.84-2.58-1.51-2.77c-1.98-0.58-1.21-1.7-0.94-2.81c1.48,0.75,2.96,1.49,4.41,2.23c-0.22,0.43-0.55,1.07-0.87,1.71
			c0.63,0.05,1.25,0.1,1.88,0.15c-0.21,0.13-0.43,0.27-0.64,0.4c0.64,1.03,1.27,2.06,2.12,3.42c-1.4,3.55-1.08,4.13,4.08,6.22
			c-0.3,0.47-0.59,0.94-0.85,1.36c1.55,1.17,3.45-0.11,5.07,1.6c0.77,0.82,3.91,0.02,5.6-0.82c1.9-0.95,3.16-2.87,3.06-5.67
			c-0.92,0.59-1.47,1.18-2.11,1.3c-1.39,0.27-2.87,0.12-4.22,0.47c-3.57,0.92-5.52-2.44-8.48-3.09c-0.26-0.06-0.37-0.95-0.48-1.46
			c-0.34-1.65-0.48-3.35-1.01-4.93c-0.58-1.75-1.49-3.38-2.39-5.35c-1.54,0.76-3.33,1.65-5.11,2.54c-1.56,0.71-3.12,1.41-4.68,2.12
			c-0.12-0.22-0.23-0.43-0.35-0.65c1.04-0.58,2.1-1.13,3.12-1.75c1.56-0.95,3.09-1.94,4.63-2.91c0.68-0.43,1.34-0.87,2.01-1.31
			c-0.29-0.43-0.57-0.87-0.86-1.3c-3.33,1.75-6.66,3.5-9.99,5.24c0.09,0.19,0.18,0.39,0.27,0.58c0.39-1.4,0.79-2.8,1.18-4.19
			c2.25-0.58,4.51-1.15,6.76-1.73c-0.08-0.3-0.17-0.59-0.25-0.89C53.77,39.73,51.54,40.37,49.31,41z M52.68,79.36
			c1.85-6.89,3.63-13.49,5.47-20.37c-5.17,0-10-0.06-14.82,0.07c-0.65,0.02-1.6,0.81-1.87,1.47c-1.5,3.63-2.75,4.22-6.76,2.68
			c2.15-8.03,4.31-16.08,6.45-24.14c0.45-1.68,0.84-3.28,3.21-2.88c0.38,0.06,1.16-0.59,1.29-1.05c1.35-4.8,2.61-9.62,3.97-14.72
			c-8.21,0-16.11-0.02-24,0.05c-0.55,0-1.45,0.57-1.59,1.05c-1.38,4.79-2.63,9.61-3.94,14.52c1.15,0.14,2.04,0.24,3.01,0.36
			c0,0.58,0.1,1.05-0.01,1.46c-2.14,8.08-4.26,16.16-6.54,24.19c-0.22,0.77-1.49,1.23-2.26,1.84c-0.69,0.55-1.79,0.98-2,1.68
			c-1.36,4.51-2.53,9.09-3.8,13.79C23.33,79.36,37.91,79.36,52.68,79.36z M43.34,16.23c1.02,2.93,4.74-2.13,4.93,2.79
			c2.31-1.39,4.23-2.56,6.15-3.72c0.15,0.24,0.3,0.49,0.45,0.73c-0.93,0.78-1.86,1.55-2.95,2.46c0.77,0.27,1.32,0.46,2.5,0.87
			c-3.64,1.22-3.5,3.56-3.05,6.43c2-1.18,3.79-2.24,6.04-3.57c-1.28-0.37-1.9-0.55-2.56-0.74c0.82-1.58,5.13-3.16,6.12-2.23
			c-0.2,0.4-0.42,0.85-0.6,1.21c3.41,1.86,6.8,3.71,10.22,5.57c0.33-2.57,2.25-5.14,3.62-4.89c0.34-3.45-1.75-5.38-6.51-6.09
			c0.7,0.96,1.44,1.97,2.17,2.99c-0.17,0.21-0.34,0.41-0.51,0.62c-3.74-4.13-8.81-3.44-13.65-3.56c0.84-3.2,2.85-1.45,4.2-1.68
			c1.66-0.28,3.41-0.03,5.12-0.02c1.46,0.01,2.91,0,4.37,0c-0.01-0.34-0.02-0.68-0.03-1.03C60.23,10.24,51.61,11.76,43.34,16.23z
			 M87.65,34.24c-1.74,1.73-3.36,3.22-4.81,4.86c-0.34,0.38-0.25,1.31-0.1,1.92c0.3,1.22,0.79,2.39,1.18,3.53
			C87.43,42.1,88.83,38.54,87.65,34.24z M69.32,11c0.18-0.28,0.36-0.56,0.54-0.85c-2.23-1.79-4.47-3.57-6.7-5.36
			c-0.33,1.62-0.24,2.81,0.07,3.93c0.13,0.48,0.72,0.84,1.1,1.26c0.3-0.43,0.6-0.87,0.76-1.11C66.51,9.59,67.91,10.29,69.32,11z
			 M66.94,26.79c-1.05-0.61-2.18-1.19-3.23-1.89c-0.74-0.5-1.36-1.17-2.04-1.76c-0.29,0.96-0.96,2-0.79,2.87
			c0.32,1.58,1.31,2.67,3.24,1.81C65.19,27.34,66.32,27.01,66.94,26.79z M28.56,13.6c0.25,1.41,0.55,3.13,0.85,4.85
			c0.22-0.03,0.44-0.06,0.66-0.09c0.11-0.45,0.23-0.91,0.33-1.3c1.1,0.55,2.08,1.05,3.07,1.54c0.06-0.1,0.12-0.21,0.18-0.31
			C31.97,16.75,30.3,15.2,28.56,13.6z M74.68,42.8c0.03,0.26,0.05,0.51,0.08,0.77c2.57-0.18,5.14-0.36,8.21-0.57
			C79.78,39.77,77.27,42.85,74.68,42.8z"/>
		<path class="st2" d="M89.93,36.38c0-0.1-0.01-0.2-0.02-0.31c3.98-1.45,7.92-0.6,11.86,0.31C97.82,36.38,93.88,36.38,89.93,36.38z"
			/>
		<path class="st2" d="M88.57,42.39c0.59-0.08,1.32-0.42,1.75-0.2c2.88,1.52,5.7,3.15,8.26,5.23c-3.32-1.7-6.64-3.41-9.96-5.1
			C88.61,42.33,88.57,42.39,88.57,42.39z"/>
		<path class="st2" d="M89.9,39.02c0,0,0-0.15,0-0.15c3.62,0.72,7.23,1.45,10.85,2.17c-0.07,0.29-0.13,0.58-0.2,0.87
			C97,40.96,93.45,39.99,89.9,39.02z"/>
		<path class="st2" d="M11.35,77.32c1.04-3.9,1.97-7.39,3-11.24c3.77,1.06,4.01-1.74,4.68-4.3c2.27-8.72,4.63-17.42,6.95-26.12
			c0.11-0.42,0.18-0.86,0.31-1.46c-1.14-0.13-2.11-0.25-3.29-0.39c0.91-3.37,1.7-6.6,2.71-9.76c0.2-0.61,1.23-1.36,1.88-1.37
			c6.22-0.1,12.45-0.06,19.12-0.06c-0.93,3.63-1.75,7-2.7,10.33c-0.13,0.45-0.98,1.07-1.4,1c-2.42-0.4-2.68,1.23-3.13,2.93
			c-2.37,8.98-4.81,17.94-7.22,26.91c-0.16,0.61-0.26,1.24-0.46,2.24c3.22,0,6.26,0.12,9.27-0.1c0.61-0.04,1.5-1.26,1.64-2.05
			c0.39-2.19,1.46-2.84,3.63-2.68c2.84,0.21,5.71,0.05,8.91,0.05c-1.37,5.17-2.6,9.99-3.99,14.78c-0.16,0.56-1.17,1.23-1.78,1.24
			C36.92,77.34,24.37,77.32,11.35,77.32z M42.9,24.94c0.03-0.2,0.06-0.4,0.1-0.6c-1.85,0-3.7,0-5.56,0c-1.77,0-3.54-0.04-5.3,0.01
			c-1.68,0.05-3.35,0.18-5.02,0.28c0.03,0.1,0.06,0.21,0.09,0.31C32.44,24.94,37.67,24.94,42.9,24.94z"/>
	</g>
</g>
</svg>
