<?xml version="1.0" encoding="utf-8"?>
<!-- Generator: Adobe Illustrator 23.0.6, SVG Export Plug-In . SVG Version: 6.00 Build 0)  -->
<svg version="1.1" id="Layer_1" xmlns="http://www.w3.org/2000/svg" xmlns:xlink="http://www.w3.org/1999/xlink" x="0px" y="0px"
	 viewBox="0 0 100 100" style="enable-background:new 0 0 100 100;" xml:space="preserve">
<style type="text/css">
	.st0{fill:#63C083;}
	.st1{fill:#75C275;}
	.st2{fill:#65C086;}
	.st3{fill:none;stroke:#65C086;stroke-miterlimit:10;}
</style>
<g id="FJCqtR_1_">
	<g>
		<path class="st0" d="M86.85,67.11c-4.12-1.64-7.7-3.46-11.49-4.5c-11.44-3.13-21.01,0.41-28.97,8.88
			c-0.39,0.42-0.66,1.02-0.81,1.58c-0.56,2.01-1.06,4.04-1.57,6.07c-0.03,0.12,0.04,0.26,0.07,0.39
			c10.1,0.88,16.35,0.46,19.94-12.56c4.09,0,8.19,0,12.63,0c-2.82,8.91-5.6,17.69-8.4,26.54c-20.72,0-41.4,0-62.27,0
			c1.19-4.62,2.35-9.11,3.54-13.74c1.02,0,1.96,0,2.89,0c3.71-0.01,5.34-1.27,6.31-4.99c2.19-8.42,4.36-16.85,6.54-25.28
			c0.52-2.02,1.04-4.05,1.6-6.06c0.29-1.04,0.07-1.69-0.88-2.37c-5.65-4.01-11.82-6.74-18.64-8.03c-0.38-0.07-0.76-0.2-1.61-0.43
			c7.05-3.05,13.9-5.22,21.44-6.53c-1.18-0.83-2.04-1.42-3.26-2.28c1.96-0.21,3.52-0.38,5.08-0.53c3.41-0.34,3.73-0.69,3.91-4.54
			c-2.41,0-4.82,0-7.56,0c0.99-3.91,2.06-7.5,2.77-11.17c0.45-2.29,1.42-2.91,3.76-2.88C44.88,4.82,57.87,4.75,71.1,4.75
			c-1.12,4.4-2.18,8.69-3.35,12.94c-0.12,0.43-0.94,0.89-1.47,0.93c-1.55,0.13-3.11,0.08-4.67,0.04c-1.59-0.04-2.36,0.69-2.4,2.25
			c3.82,0.69,7.62,1.24,11.35,2.07c5.1,1.14,9.95,2.98,14.4,5.76c0.87,0.55,1.45,1.04,1.04,2.25c-0.49,1.45,0.28,2.52,1.58,3.11
			c1.04,0.47,2.15,0.78,3.24,1.14c4.65,1.56,6.37,5.02,4.78,9.71c-1.32,3.9-4.25,6.51-7.32,9c-0.72,0.58-1.48,1.12-2.4,1.8
			c-0.06-0.47-0.1-0.71-0.12-0.95c-0.47-6.57-3.88-9.51-10.43-8.76c-2.27,0.26-4.48,1.02-6.73,1.83
			c6.78,3.05,13.34,6.15,16.65,13.24C86.1,62.91,86.31,65.02,86.85,67.11z M11.22,89.45c1.12,0,1.86,0,2.6,0
			c15.09,0,30.19,0.01,45.28-0.01c2.02,0,4.61,0.66,5.92-0.33c1.39-1.06,1.63-3.69,2.27-5.67c1.3-4.02,2.53-8.06,3.8-12.11
			c-3.65-0.77-3.91-0.63-5.42,2.25c-2.56,4.89-6.2,8.82-11.78,9.72c-4.89,0.78-9.93,0.58-15.21,0.82c0.24-1.2,0.35-1.91,0.53-2.61
			c1.11-4.32,2.29-8.62,3.32-12.96c0.25-1.05,0.23-2.28-0.07-3.31c-1.88-6.36-4.91-12.14-9.23-17.21c-0.77-0.9-1.63-1.72-2.66-2.79
			c-0.31,1.03-0.54,1.72-0.72,2.42c-2.43,9.35-5.01,18.66-7.23,28.06c-1.16,4.89-3.95,7.48-8.8,8.16c-0.53,0.07-1.26,0.57-1.43,1.03
			C11.91,86.29,11.65,87.76,11.22,89.45z M36.6,22.62c3.98,0,7.77,0,11.71,0c-0.76-0.58-1.36-1.04-1.97-1.5
			c2.46-0.48,4.81-0.42,7.16-0.52c0.59-0.03,1.51-0.43,1.69-0.89c1.45-3.71,4.2-5.25,8.05-5.3c0.49-0.01,1.24-0.54,1.41-1
			c0.5-1.36,0.78-2.81,1.23-4.54c-1,0-1.72,0-2.45,0c-8.85,0-17.7,0-26.56,0c-5.08,0-5.08,0-6.11,4.98
			c-0.02,0.11,0.08,0.24,0.13,0.36C38.07,14.99,37.57,16.93,36.6,22.62z M51.51,51.8c0.01-0.26,0.02-0.51,0.04-0.77
			c8.3-4.02,16.77-7.42,26.22-7.47c4.55-0.03,8.87,0.34,10.03,6.25c2.4-2.03,3.61-4.29,4.16-6.94c0.66-3.17-0.67-5.07-3.89-4.75
			c-3.18,0.32-6.29,1.35-9.45,2.02c-1.44,0.3-2.9,0.48-4.35,0.71c0.18-0.94,0.44-1.44,0.84-1.75c2.2-1.73,4.44-3.42,6.71-5.17
			c-2.02-0.4-3.94,0.08-5.56,1.36c-1.85,1.46-3.57,3.1-5.27,4.74c-2.05,1.98-4.33,3.51-6.96,4.41c0.75-1.32,1.72-2.53,2.1-3.9
			c0.18-0.64-0.61-2.13-1.21-2.29c-1.32-0.36-2.79-0.11-4.28-0.11c1.13,0.85,2.18,1.65,3.22,2.43c-1.8,3.09-4.88,4.04-7.41,2.19
			c-0.96-0.71-1.85-1.88-2.18-3.02c-0.67-2.3,0.33-4.29,2.21-5.79c-1.9-1.23-2.98-0.52-3.66,1.1c-0.36,0.86-0.71,1.77-0.8,2.69
			c-0.43,4.54,2.32,7.47,7.83,8.18c-4.29,1.52-8.6,2.42-12.04,5.61c0.76,0.34,1.25,0.57,1.75,0.77c6.17,2.48,12.61,3.92,19.13,5.18
			c4.44,0.86,8.72,2.5,13.39,3.88c-1.92-1.1-3.54-2.45-5.4-3.02c-4.96-1.52-10.01-2.73-15.04-4.02
			C58.27,53.43,54.89,52.63,51.51,51.8z"/>
	</g>
</g>
</svg>
