<?xml version="1.0" encoding="utf-8"?>
<!-- Generator: Adobe Illustrator 22.1.0, SVG Export Plug-In . SVG Version: 6.00 Build 0)  -->
<svg version="1.1" id="Layer_1" xmlns="http://www.w3.org/2000/svg" xmlns:xlink="http://www.w3.org/1999/xlink" x="0px" y="0px"
	 viewBox="0 0 133.9646606 78.7948227" style="enable-background:new 0 0 133.9646606 78.7948227;" xml:space="preserve">
<style type="text/css">
	.st0{fill:#4153A4;}
	.st1{fill:#121245;}
	.st2{fill:#ABB8DE;}
	.st3{fill:#2C2C81;}
	.st4{clip-path:url(#SVGID_2_);fill:#4853A4;}
	.st5{clip-path:url(#SVGID_2_);}
	.st6{fill:#B8BBD8;}
	.st7{fill:#EDEDF5;}
	.st8{fill:none;stroke:#121245;stroke-miterlimit:10;}
	.st9{fill:none;stroke:#121245;stroke-miterlimit:10;stroke-dasharray:4.1037498,4.1037498;}
	.st10{fill:#3E54A3;}
	.st11{fill:none;stroke:#121245;stroke-miterlimit:10;stroke-dasharray:3.9702759,3.9702759;}
	.st12{fill:#FFFFFF;}
</style>
<g>
	<path class="st2" d="M75.3786697,51.9764366c-0.0845413,0.1480751-0.1854706,0.3268738-0.2882767,0.5045891
		c-0.9785614,1.6916428-2.1823196,3.2137871-3.495369,4.654686c-1.7840195,1.9577332-3.797226,3.6725655-5.7576752,5.4433327
		c-1.4215775,1.2840309-2.8456612,2.5652962-4.2693481,3.8469887c-2.0688782,1.8625565-4.1383705,3.7244339-6.2080116,5.5861435
		c-0.0273552,0.0246048-0.0600052,0.0433121-0.1280479,0.091713c-1.0822449-1.2016144-2.1630249-2.4015961-3.27174-3.6326065
		c0.4603386-0.4005051,0.897171-0.772049,1.3239479-1.1547928c0.2945251-0.2641449,0.5911331-0.5290833,0.8584213-0.8197708
		c0.456028-0.4959335,0.5189285-0.9423141,0.166584-1.5216446c-0.2730713-0.4489822-0.5886726-0.8804626-0.9373589-1.2736244
		c-1.5339775-1.7296944-3.0863571-3.4430771-4.6329575-5.1615753c-2.1841774-2.4269409-4.3681755-4.8540382-6.554081-7.2794228
		c-1.5730934-1.7454338-3.1438675-3.4930229-4.7286186-5.2278214c-0.2972069-0.3253479-0.6356735-0.6217194-0.9902267-0.8839684
		c-0.5755959-0.4257545-1.0494156-0.4240761-1.6019478,0.0246964c-0.5556717,0.4513321-1.0722389,0.9509125-1.6040382,1.4314613
		c-0.1732445,0.1565514-0.3405075,0.3197212-0.5365067,0.5043602c-1.1018887-1.2227745-2.1791897-2.4182587-3.3552933-3.7233849
		c0.1022243-0.0447655,0.2082462-0.0638618,0.2765064-0.1250648c1.9953136-1.7891617,3.9844761-3.5851784,5.9795856-5.3745728
		c3.0769157-2.759655,6.1313667-5.5451736,9.2455177-8.2622166c2.1433029-1.8699913,4.4934731-3.4517307,7.1821976-4.4536362
		c0.8104286-0.3019905,1.660965-0.4964924,2.4936523-0.73843c0.1060791-0.0308228,0.2153435-0.0506687,0.3534737-0.0826168
		c-0.0497665-0.0663986-0.0759354-0.1140862-0.1135559-0.1496677c-1.628212-1.5400085-2.0395088-3.4478912-1.5604858-5.5537319
		c0.6639099-2.9186068,2.4374161-5.0411997,4.9788475-6.5444994c1.4065247-0.8319845,2.932209-1.3199501,4.5813217-1.2435989
		c0.6601295,0.0305634,1.3162231,0.209631,1.9664459,0.3554602c0.1926041,0.0431957,0.3268051,0.0478783,0.4914932-0.0679245
		c2.1463318-1.5092258,4.2972183-3.0119772,6.447197-4.5160108c0.3019333-0.2112164,0.6265869-0.355505,1.0058441-0.2903333
		c0.7448654,0.1280007,1.1426773,0.8658543,0.7882996,1.5453806c-0.1839371,0.3527002-0.4676895,0.65905-0.7337875,0.9622555
		c-1.55616,1.7731829-3.1224213,3.5374994-4.6764984,5.3124895c-0.0836029,0.0954857-0.151825,0.2793055-0.1190948,0.3900566
		c0.2892075,0.9785728,0.338623,1.9660158,0.1713791,2.9685183c-0.0089493,0.0536499-0.0128632,0.1081409-0.0259705,0.2214069
		c0.2419205-0.2170143,0.439888-0.3996639,0.6431808-0.5761719c1.472374-1.2783604,3.145134-2.1384592,5.0877151-2.4356632
		c1.0832901-0.1657391,2.1470871-0.0919189,3.1801987,0.2801762c0.2225952,0.0801668,0.3821793,0.0516748,0.5710526-0.0812855
		c2.1069565-1.4832039,4.2153778-2.9644375,6.3354645-4.4287386c0.2453384-0.1694517,0.5549164-0.2835112,0.8500137-0.3342476
		c0.4136887-0.071126,0.7577591,0.1155434,0.980011,0.4817963c0.2329559,0.3838634,0.2355118,0.797554-0.0132675,1.1520548
		c-0.3074265,0.4380865-0.6720428,0.8375607-1.0267868,1.2406616c-1.4588242,1.6577158-2.9247818,3.3091583-4.3808899,4.9692478
		c-0.0675888,0.077055-0.1162262,0.2303238-0.0885773,0.3225937c0.6499329,2.168848,0.125206,4.1362801-1.0085297,6.0030785
		c-0.0391617,0.0644779-0.0804138,0.127718-0.1183014,0.1929226c-0.0087891,0.0151138-0.0077972,0.0359116-0.0191803,0.0949192
		c0.0918427-0.0421429,0.1636963-0.071167,0.2319641-0.1070271c1.2207718-0.6412754,2.5152435-1.0309658,3.8959961-1.0775356
		c0.86483-0.0291729,1.7151794,0.1002674,2.5174103,0.4454918c0.1973572,0.0849323,0.336319,0.0725021,0.5138397-0.0546989
		c2.0637817-1.4787712,4.1347809-2.9474735,6.201828-4.4217052c0.3218231-0.2295246,0.6576767-0.4261665,1.0673141-0.3799839
		c0.8378143,0.0944557,1.2378387,0.9670677,0.7769699,1.7113609c-0.1624756,0.2623882-0.379158,0.4929848-0.5831223,0.7276287
		c-1.5787354,1.8161526-3.1583939,3.6315079-4.7443161,5.4413738c-0.1578979,0.1801949-0.2021942,0.3403282-0.1471939,0.5826778
		c0.4201279,1.8513241,0.0176086,3.5767746-0.8544998,5.217207c-0.6964645,1.3100281-1.6487808,2.4097939-2.8084488,3.3322067
		c-0.059021,0.0469398-0.1165009,0.0960045-0.1719818,0.1470337c-0.0106277,0.0097733-0.0085297,0.0333862-0.0199356,0.0853996
		c0.1067963,0,0.205925,0.0032082,0.3047943-0.0004997c0.9087372-0.034111,1.7834778,0.1148148,2.632019,0.4483795
		c0.1180191,0.0463905,0.3202438,0.0052452,0.4296112-0.0718269c1.9750671-1.3918228,3.9417801-2.7954979,5.9105301-4.1962891
		c0.161499-0.1149025,0.3220749-0.2313957,0.4876785-0.3401413c0.5837479-0.3833275,1.1991882-0.3438587,1.5950394,0.09869
		c0.385643,0.4311409,0.350029,1.0680542-0.101593,1.5967255c-0.5026016,0.5883522-1.0139008,1.1692772-1.5214081,1.7534485
		c-1.2378159,1.4247856-2.4773331,2.8481026-3.7088165,4.2783394c-0.0675888,0.0784988-0.1156616,0.2257385-0.0930634,0.3223076
		c0.4827042,2.0621567,0.0300522,3.9669151-1.0475006,5.7246246c-1.5459442,2.5217552-3.7069244,4.2903786-6.6207886,4.9973602
		c-0.7304306,0.177227-1.5159225,0.1285896-2.2763596,0.1800613c-0.1409378,0.0095444-0.2839661,0.0116463-0.4245148-0.0004578
		c-0.5313034-0.0457573-0.9407043,0.0632362-1.3576813,0.496151c-0.6824722,0.7085571-1.6307831,0.8257523-2.5824661,0.711319
		C76.1964493,52.2202377,75.8097687,52.0828438,75.3786697,51.9764366z M55.3192215,70.4903183
		c0.0635986-0.0479965,0.1102142-0.0780182,0.1509094-0.114624c1.690731-1.5207672,3.3810043-3.0420532,5.0711899-4.5634384
		c1.7813988-1.6034851,3.5608292-3.209156,5.3444672-4.8101425c1.7558517-1.5760269,3.5228882-3.1400223,5.1022415-4.8998032
		c1.474472-1.6429214,2.7947083-3.3937263,3.7486267-5.3970222c1.1794434-2.4769325,1.6755371-5.0739822,1.314621-7.8087692
		c-0.2759705-2.0911484-0.9873199-4.0402031-1.9873428-5.8891907c-1.1115875-2.0552711-2.5189056-3.8955803-4.1112442-5.5958843
		c-1.9417953-2.0734615-4.1498489-3.7894764-6.7784958-4.9169693c-2.2781982-0.9771767-4.6514702-1.4004765-7.126976-1.1419849
		c-1.8112183,0.1891212-3.5163765,0.744297-5.1422234,1.5558262c-2.5402336,1.267931-4.7314034,3.0212364-6.8275414,4.9063778
		c-1.9715385,1.7730904-3.9391937,3.550499-5.9101677,5.3242149c-2.3216324,2.0892715-4.6451225,4.1764832-6.9667053,6.2658119
		c-0.0461578,0.0415382-0.0788326,0.0980644-0.1271801,0.1595268c0.5121441,0.5722961,1.0235119,1.1265106,1.5127697,1.6995964
		c0.1761322,0.2063103,0.2759209,0.1697159,0.470192,0.0154266c0.5892868-0.4680176,1.1781998-0.9454842,1.8155022-1.3416557
		c0.7071686-0.439621,1.4507179-0.3791924,2.1169548,0.1302109c0.3880615,0.296711,0.768116,0.6167145,1.0963783,0.9767456
		c2.1424599,2.3497734,4.271759,4.7115784,6.4015503,7.0728874c3.1536903,3.4965134,6.3092308,6.9913902,9.4510269,10.4985771
		c0.5081024,0.5671959,0.9808388,1.1726189,1.4131851,1.7994995c0.5515175,0.7996597,0.5063438,1.6320953-0.1052933,2.3818588
		c-0.4456406,0.5462799-0.9554749,1.0406418-1.4450607,1.5501099c-0.0681953,0.0709686-0.1843719,0.0958405-0.28368,0.1446686
		C54.1771622,69.2241592,54.743824,69.8524017,55.3192215,70.4903183z M84.4673538,11.5782013
		c-0.0122452-0.0134182-0.0244904-0.0268364-0.0367355-0.0402546c-0.0836868,0.0541954-0.1691437,0.1058626-0.2508011,0.1629581
		c-2.1950684,1.534709-4.3903885,3.0690556-6.5828476,4.6074772c-0.1288147,0.0903912-0.2274475,0.1190243-0.3796158,0.0369682
		c-0.9748077-0.5256662-2.0273438-0.6381655-3.104332-0.5020475c-3.7784958,0.4775572-7.2968292,3.9855795-7.5973511,7.6240225
		c-0.1202927,1.456316,0.2521286,2.7606716,1.4048843,3.7395515c1.1900177,1.0105305,2.6133728,1.2313156,4.0784149,0.9330139
		c3.385704-0.6893673,5.704834-2.7100754,6.9583664-5.9148045c0.5314178-1.3585835,0.581192-2.7576504-0.038147-4.1316376
		c-0.0344162-0.0763569,0.0175552-0.2331715,0.0818481-0.3064327c1.5679016-1.786562,3.1432114-3.5666285,4.7164459-5.3485174
		C83.9692535,12.1533337,84.2174835,11.8650446,84.4673538,11.5782013z M95.165741,33.2828522
		c-0.0128784-0.0178757-0.0257492-0.0357552-0.0386276-0.0536308c-0.7350693,0.5224609-1.4704361,1.0445061-2.2051468,1.5674667
		c-1.5059891,1.0719337-3.0118256,2.1440849-4.5170441,3.2171059c-0.1166916,0.0831871-0.2121964,0.1613464-0.3766327,0.0638313
		c-1.305069-0.7739639-2.7029037-0.8189964-4.131012-0.4661598c-2.0963593,0.517952-3.7710342,1.7023315-5.0812073,3.3887596
		c-1.1663666,1.5013199-1.8856125,3.1791725-1.6772995,5.136673c0.1436844,1.3501778,0.782692,2.411274,1.9701385,3.097683
		c1.1510773,0.6653786,2.4082031,0.7811356,3.6727905,0.4891472c3.3070068-0.7635841,5.5754318-2.7720642,6.7934341-5.9270477
		c0.4913559-1.2727623,0.5450134-2.5931053,0.031395-3.8995056c-0.0315628-0.0802689,0.0266953-0.2324486,0.0923767-0.3088837
		c1.069664-1.2448845,2.1471329-2.4830589,3.2231522-3.7224846C93.6697083,35.004612,94.4178314,34.1438255,95.165741,33.2828522z
		 M72.0452423,7.9119844c-0.021637-0.0267611-0.0432663-0.0535221-0.0649033-0.0802832
		C71.8599472,7.9121819,71.7380142,7.990448,71.6194,8.0734711c-2.0939484,1.465704-4.1874924,2.9319925-6.2811203,4.3981476
		c-0.1241531,0.0869474-0.2298584,0.1626158-0.4064178,0.0693808c-1.1537895-0.6092834-2.3799438-0.683794-3.6316872-0.4190245
		c-2.2597313,0.4779806-4.0415649,1.7202368-5.4354706,3.5259323c-1.0580025,1.3705559-1.7145081,2.9106464-1.6567726,4.6778107
		c0.0450211,1.3780651,0.5846367,2.5334492,1.7481041,3.3241272c1.222187,0.8305817,2.5955887,0.9645252,3.9911728,0.6390514
		c3.1608505-0.7371616,5.3700142-2.6537075,6.6263008-5.629303c0.6021729-1.4262772,0.7080002-2.9032946,0.0544281-4.3721027
		c-0.0386276-0.0868177,0.0323868-0.266716,0.1087875-0.3538446c1.3496246-1.5391846,2.7084732-3.070281,4.0642548-4.6040764
		C71.2173843,8.8584976,71.6305847,8.3845921,72.0452423,7.9119844z M92.9429855,20.5978451
		c-0.0187759-0.022625-0.0375443-0.0452461-0.0563202-0.0678692c-0.0686264,0.0398083-0.1406708,0.0747643-0.205307,0.1202412
		c-0.3317642,0.2334137-0.6616135,0.4695454-0.9921494,0.7047024c-1.7988052,1.2797413-3.5964432,2.5611076-5.39991,3.83424
		c-0.0873642,0.061676-0.2603378,0.1094627-0.3353958,0.0652218c-1.2731171-0.7504425-2.6363068-0.8145046-4.0268021-0.4946213
		c-2.2379379,0.5148373-3.9989777,1.7777786-5.3515015,3.6062489c-1.0906754,1.474472-1.7462692,3.1062737-1.5313873,4.9869537
		c0.1362915,1.1927681,0.6720963,2.1718521,1.6672134,2.8679504c1.1723633,0.8200951,2.4991837,0.9767799,3.8472824,0.6974945
		c3.2279434-0.6687393,5.4780045-2.5923958,6.7859879-5.5931053c0.5976715-1.3711872,0.725029-2.8034973,0.1621017-4.2433872
		c-0.0308762-0.07897,0.0036163-0.2239265,0.0618515-0.2913895c1.3996811-1.621212,2.8069458-3.2358742,4.2124023-4.8521042
		C92.1690826,21.4921894,92.5557098,21.0447369,92.9429855,20.5978451z M69.5512772,29.3434258
		c1.5810623,1.4593544,2.9672623,3.0760956,4.2081833,4.8276634c-0.2070999-2.1527405,0.2376633-4.1282997,1.4114609-5.9451313
		C73.4011993,29.1631851,71.5735092,29.679285,69.5512772,29.3434258z M77.04245,41.4647751
		c0.7331619-1.2162781,1.7287598-2.2496262,2.9032211-3.1981583c-1.6470261-0.0537529-3.179657-0.2529068-4.444931-1.1722603
		C76.008194,38.5328712,76.5233002,39.993103,77.04245,41.4647751z M66.0076752,26.6560669
		c-0.7327652-1.3332405-0.7913361-2.7664547-0.5196533-4.2566032c-1.0314941,1.001112-2.1812592,1.8183346-3.4454193,2.414175
		C63.3656654,25.4284191,64.6828537,26.040472,66.0076752,26.6560669z M78.0436935,50.2406311
		c0.021225,0.0002403,0.04245,0.0004807,0.0636749,0.0007172c0,0.1854172-0.0111008,0.3717918,0.0048904,0.5558128
		c0.0074921,0.0862808,0.0672073,0.1680183,0.1032639,0.2518158c0.0409698-0.0787392,0.1117554-0.1554489,0.1172714-0.2365952
		c0.0159378-0.2345276,0.0187302-0.4719658-0.0012436-0.7058754c-0.007431-0.0870323-0.0922852-0.1674576-0.1418304-0.2508965
		c-0.0882721,0.0621643-0.2142944,0.1052551-0.2572861,0.1903076c-0.1026306,0.2030678-0.1661072,0.42593-0.2453995,0.6408005
		c-0.1361694-0.2016678-0.2166214-0.3994446-0.2748337-0.6035576c-0.069664-0.2442322-0.211731-0.2777061-0.4434738-0.1784668
		c0,0.3220215-0.0060501,0.6412468,0.0051498,0.9598618c0.0022202,0.0630264,0.0707397,0.1237221,0.1086884,0.1854935
		c0.0377731-0.0621605,0.1042099-0.12257,0.1081161-0.1867867c0.0134888-0.222065,0.0051956-0.4454536,0.0051956-0.668335
		c0.1268005,0.1972237,0.1935577,0.4089127,0.2814865,0.611412c0.0398865,0.0918541,0.1217499,0.1654854,0.1845779,0.2473869
		c0.0610123-0.085289,0.1386337-0.1633568,0.179512-0.2574005C77.9198837,50.6158829,77.9774628,50.4263763,78.0436935,50.2406311z
		 M76.1242523,50.072094c0,0.2673225-0.0073776,0.5296211,0.0052948,0.7909431
		c0.0030899,0.0637589,0.0719376,0.1243324,0.1105576,0.186367c0.037262-0.063015,0.1036301-0.1246605,0.1066818-0.1892929
		c0.0123138-0.2610435,0.0051041-0.5230026,0.0051041-0.7766609c0.1530762-0.0397339,0.2675705-0.0694504,0.4207535-0.109211
		c-0.2712021-0.1779366-0.8437958-0.1615334-1.0060349,0.0222397C75.8793411,50.0203133,75.973877,50.0402985,76.1242523,50.072094z
		"/>
	<path class="st10" d="M55.3192215,70.4903183c-0.5753975-0.6379166-1.1420593-1.2661591-1.8022957-1.9981461
		c0.099308-0.0488281,0.2154846-0.0737,0.28368-0.1446686c0.4895859-0.5094681,0.9994202-1.00383,1.4450607-1.5501099
		c0.6116371-0.7497635,0.6568108-1.5821991,0.1052933-2.3818588c-0.4323463-0.6268806-0.9050827-1.2323036-1.4131851-1.7994995
		c-3.1417961-3.5071869-6.2973366-7.0020638-9.4510269-10.4985771c-2.1297913-2.3613091-4.2590904-4.723114-6.4015503-7.0728874
		c-0.3282623-0.3600311-0.7083168-0.6800346-1.0963783-0.9767456c-0.6662369-0.5094032-1.4097862-0.5698318-2.1169548-0.1302109
		c-0.6373024,0.3961716-1.2262154,0.8736382-1.8155022,1.3416557c-0.1942711,0.1542892-0.2940598,0.1908836-0.470192-0.0154266
		c-0.4892578-0.5730858-1.0006256-1.1273003-1.5127697-1.6995964c0.0483475-0.0614624,0.0810223-0.1179886,0.1271801-0.1595268
		c2.3215828-2.0893288,4.6450729-4.1765404,6.9667053-6.2658119c1.970974-1.773716,3.9386292-3.5511246,5.9101677-5.3242149
		c2.096138-1.8851414,4.2873077-3.6384468,6.8275414-4.9063778c1.6258469-0.8115292,3.3310051-1.3667049,5.1422234-1.5558262
		c2.4755058-0.2584915,4.8487778,0.1648083,7.126976,1.1419849c2.6286469,1.1274929,4.8367004,2.8435078,6.7784958,4.9169693
		c1.5923386,1.700304,2.9996567,3.5406132,4.1112442,5.5958843c1.0000229,1.8489876,1.7113724,3.7980423,1.9873428,5.8891907
		c0.3609161,2.734787-0.1351776,5.3318367-1.314621,7.8087692c-0.9539185,2.0032959-2.2741547,3.7541008-3.7486267,5.3970222
		c-1.5793533,1.7597809-3.3463898,3.3237762-5.1022415,4.8998032c-1.783638,1.6009865-3.5630684,3.2066574-5.3444672,4.8101425
		c-1.6901855,1.5213852-3.3804588,3.0426712-5.0711899,4.5634384
		C55.4294357,70.4123001,55.3828201,70.4423218,55.3192215,70.4903183z M51.9813652,31.3893318
		c-1.1254349-0.0170536-2.18853,0.2422943-3.2047806,0.7090034c-1.0747261,0.4935684-2.0078163,1.1923294-2.8693962,1.9937325
		c-0.711071,0.6614113-1.4393272,1.3052979-2.1303062,1.9870148c-0.4410477,0.4351273-0.497467,0.9808693-0.1651993,1.5033531
		c0.3071785,0.4830284,0.6478653,0.9521332,1.0261993,1.3811607c1.2418404,1.4082298,2.5077362,2.7952347,3.7639656,4.1907768
		c2.1463318,2.3843498,4.2922745,4.7690468,6.4385071,7.1534843c1.824295,2.0267754,3.6406403,4.0608063,5.4775352,6.076107
		c0.6533813,0.7168427,1.3219185,1.4275551,2.0474739,2.0687141c0.6949348,0.61409,1.2715874,0.5984993,1.9729691-0.0180168
		c0.9624252-0.8459549,1.9409561-1.6878738,2.8012085-2.6329041c2.033844-2.2342873,2.7215652-4.8771515,2.1524353-7.8453674
		c-0.3829269-1.9971275-1.2563629-3.7844162-2.3504181-5.4756393c-1.1939011-1.8455849-2.6148376-3.5087433-4.1380539-5.0855713
		c-1.6974831-1.7572365-3.5165291-3.3684349-5.6800728-4.5436325
		C55.5197639,31.9804649,53.8260002,31.4157314,51.9813652,31.3893318z"/>
	<path class="st10" d="M84.4673538,11.5782013c-0.2498703,0.2868433-0.4981003,0.5751324-0.7498703,0.8602972
		c-1.5732346,1.781889-3.1485443,3.5619555-4.7164459,5.3485174c-0.0642929,0.0732613-0.1162643,0.2300758-0.0818481,0.3064327
		c0.619339,1.3739872,0.5695648,2.7730541,0.038147,4.1316376c-1.2535324,3.2047291-3.5726624,5.2254372-6.9583664,5.9148045
		c-1.4650421,0.2983017-2.8883972,0.0775166-4.0784149-0.9330139c-1.1527557-0.9788799-1.525177-2.2832355-1.4048843-3.7395515
		c0.3005219-3.638443,3.8188553-7.1464653,7.5973511-7.6240225c1.0769882-0.1361179,2.1295242-0.0236187,3.104332,0.5020475
		c0.1521683,0.082056,0.2508011,0.0534229,0.3796158-0.0369682c2.1924591-1.5384216,4.3877792-3.0727682,6.5828476-4.6074772
		c0.0816574-0.0570955,0.1671143-0.1087627,0.2508011-0.1629581C84.4428635,11.5513649,84.4551086,11.5647831,84.4673538,11.5782013
		z"/>
	<path class="st10" d="M95.165741,33.2828522c-0.7479095,0.8609734-1.4960327,1.7217598-2.2436829,2.5829544
		c-1.0760193,1.2394257-2.1534882,2.4776001-3.2231522,3.7224846c-0.0656815,0.0764351-0.1239395,0.2286148-0.0923767,0.3088837
		c0.5136185,1.3064003,0.4599609,2.6267433-0.031395,3.8995056c-1.2180023,3.1549835-3.4864273,5.1634636-6.7934341,5.9270477
		c-1.2645874,0.2919884-2.5217133,0.1762314-3.6727905-0.4891472c-1.1874466-0.686409-1.8264542-1.7475052-1.9701385-3.097683
		c-0.208313-1.9575005,0.5109329-3.6353531,1.6772995-5.136673c1.310173-1.6864281,2.984848-2.8708076,5.0812073-3.3887596
		c1.4281082-0.3528366,2.825943-0.3078041,4.131012,0.4661598c0.1644363,0.0975151,0.2599411,0.0193558,0.3766327-0.0638313
		c1.5052185-1.0730209,3.011055-2.1451721,4.5170441-3.2171059c0.7347107-0.5229607,1.4700775-1.0450058,2.2051468-1.5674667
		C95.1399918,33.247097,95.1528625,33.2649765,95.165741,33.2828522z"/>
	<path class="st10" d="M72.0452423,7.9119844c-0.4146576,0.4726076-0.827858,0.9465132-1.2442627,1.4175854
		c-1.3557816,1.5337954-2.7146301,3.0648918-4.0642548,4.6040764c-0.0764008,0.0871286-0.1474152,0.2670269-0.1087875,0.3538446
		c0.6535721,1.4688082,0.5477448,2.9458256-0.0544281,4.3721027c-1.2562866,2.9755955-3.4654503,4.8921413-6.6263008,5.629303
		c-1.3955841,0.3254738-2.7689857,0.1915302-3.9911728-0.6390514c-1.1634674-0.790678-1.703083-1.9460621-1.7481041-3.3241272
		c-0.0577354-1.7671642,0.5987701-3.3072548,1.6567726-4.6778107c1.3939056-1.8056955,3.1757393-3.0479517,5.4354706-3.5259323
		c1.2517433-0.2647696,2.4778976-0.190259,3.6316872,0.4190245c0.1765594,0.093235,0.2822647,0.0175667,0.4064178-0.0693808
		c2.0936279-1.4661551,4.1871719-2.9324436,6.2811203-4.3981476c0.1186142-0.0830231,0.2405472-0.1612892,0.360939-0.2417698
		C72.001976,7.8584623,72.0236053,7.8852234,72.0452423,7.9119844z"/>
	<path class="st10" d="M92.9429855,20.5978451c-0.3872757,0.4468918-0.7739029,0.8943443-1.1619339,1.3405762
		c-1.4054565,1.61623-2.8127213,3.2308922-4.2124023,4.8521042c-0.0582352,0.0674629-0.0927277,0.2124195-0.0618515,0.2913895
		c0.5629272,1.4398899,0.4355698,2.8722-0.1621017,4.2433872c-1.3079834,3.0007095-3.5580444,4.924366-6.7859879,5.5931053
		c-1.3480988,0.2792854-2.6749191,0.1226006-3.8472824-0.6974945c-0.9951172-0.6960983-1.5309219-1.6751823-1.6672134-2.8679504
		c-0.2148819-1.8806801,0.440712-3.5124817,1.5313873-4.9869537c1.3525238-1.8284702,3.1135635-3.0914116,5.3515015-3.6062489
		c1.3904953-0.3198833,2.753685-0.2558212,4.0268021,0.4946213c0.075058,0.044241,0.2480316-0.0035458,0.3353958-0.0652218
		c1.8034668-1.2731323,3.6011047-2.5544987,5.39991-3.83424c0.3305359-0.235157,0.6603851-0.4712887,0.9921494-0.7047024
		c0.0646362-0.0454769,0.1366806-0.0804329,0.205307-0.1202412C92.9054413,20.552599,92.9242096,20.5752201,92.9429855,20.5978451z"
		/>
	<path class="st10" d="M78.0436935,50.2406311c-0.0662308,0.1857452-0.1238098,0.3752518-0.20224,0.5556946
		c-0.0408783,0.0940437-0.1184998,0.1721115-0.179512,0.2574005c-0.0628281-0.0819016-0.1446915-0.1555328-0.1845779-0.2473869
		c-0.0879288-0.2024994-0.154686-0.4141884-0.2814865-0.611412c0,0.2228813,0.0082932,0.44627-0.0051956,0.668335
		c-0.0039062,0.0642166-0.070343,0.1246262-0.1081161,0.1867867c-0.0379486-0.0617714-0.1064682-0.122467-0.1086884-0.1854935
		c-0.0112-0.318615-0.0051498-0.6378403-0.0051498-0.9598618c0.2317429-0.0992393,0.3738098-0.0657654,0.4434738,0.1784668
		c0.0582123,0.204113,0.1386642,0.4018898,0.2748337,0.6035576c0.0792923-0.2148705,0.1427689-0.4377327,0.2453995-0.6408005
		c0.0429916-0.0850525,0.169014-0.1281433,0.2572861-0.1903076c0.0495453,0.0834389,0.1343994,0.1638641,0.1418304,0.2508965
		c0.0199738,0.2339096,0.0171814,0.4713478,0.0012436,0.7058754c-0.0055161,0.0811462-0.0763016,0.157856-0.1172714,0.2365952
		c-0.0360565-0.0837975-0.0957718-0.165535-0.1032639-0.2518158c-0.0159912-0.184021-0.0048904-0.3703957-0.0048904-0.5558128
		C78.0861435,50.2411118,78.0649185,50.2408714,78.0436935,50.2406311z"/>
	<path class="st10" d="M76.1242523,50.072094c-0.1503754-0.0317955-0.2449112-0.0517807-0.3576431-0.0756149
		c0.1622391-0.183773,0.7348328-0.2001762,1.0060349-0.0222397c-0.153183,0.0397606-0.2676773,0.0694771-0.4207535,0.109211
		c0,0.2536583,0.0072098,0.5156174-0.0051041,0.7766609c-0.0030518,0.0646324-0.0694199,0.1262779-0.1066818,0.1892929
		c-0.03862-0.0620346-0.1074677-0.1226082-0.1105576-0.186367C76.1168747,50.6017151,76.1242523,50.3394165,76.1242523,50.072094z"
		/>
	<path class="st2" d="M51.9813652,31.3893318c1.844635,0.0263996,3.5383987,0.5911331,5.142067,1.4622154
		c2.1635437,1.1751976,3.9825897,2.786396,5.6800728,4.5436325c1.5232162,1.576828,2.9441528,3.2399864,4.1380539,5.0855713
		c1.0940552,1.6912231,1.9674911,3.4785118,2.3504181,5.4756393c0.5691299,2.9682159-0.1185913,5.6110802-2.1524353,7.8453674
		c-0.8602524,0.9450302-1.8387833,1.7869492-2.8012085,2.6329041c-0.7013817,0.6165161-1.2780342,0.6321068-1.9729691,0.0180168
		c-0.7255554-0.6411591-1.3940926-1.3518715-2.0474739-2.0687141c-1.836895-2.0153008-3.6532402-4.0493317-5.4775352-6.076107
		c-2.1462326-2.3844376-4.2921753-4.7691345-6.4385071-7.1534843c-1.2562294-1.3955421-2.5221252-2.782547-3.7639656-4.1907768
		c-0.378334-0.4290276-0.7190208-0.8981323-1.0261993-1.3811607c-0.3322678-0.5224838-0.2758484-1.0682259,0.1651993-1.5033531
		c0.690979-0.6817169,1.4192352-1.3256035,2.1303062-1.9870148c0.8615799-0.801403,1.7946701-1.500164,2.8693962-1.9937325
		C49.7928352,31.6316261,50.8559303,31.3722782,51.9813652,31.3893318z M68.3360291,49.5702705
		c-0.0427017-0.383934-0.0694656-0.7704353-0.1307831-1.151371c-0.3090668-1.9200592-1.1278381-3.63554-2.1807556-5.2420654
		c-1.839592-2.8068199-4.0851822-5.2584915-6.6557465-7.4087334c-1.4722939-1.2315598-3.0828857-2.23769-4.9314842-2.8261719
		c-2.0907516-0.6655655-4.0968056-0.5520706-5.9869232,0.6279716c-1.4117889,0.8814163-2.5511398,2.0901642-3.7707329,3.2007751
		c-0.0630074,0.0573769-0.0720787,0.2610855-0.020462,0.3417778c0.1975403,0.3088074,0.4095306,0.6135597,0.6531067,0.8868713
		c1.3876038,1.5570183,2.7854538,3.1049156,4.180603,4.6552048c2.342083,2.6025162,4.6850281,5.2042542,7.0270882,7.8067856
		c1.6286812,1.8098221,3.2511711,3.6252518,4.8878593,5.4277954c0.5003738,0.5510864,1.0238686,1.0834198,1.565094,1.5943413
		c0.3285637,0.3101692,0.4033051,0.2982864,0.7417107-0.0069046c0.7916374-0.713932,1.6075096-1.4065857,2.3451195-2.1736794
		C67.5901871,53.711235,68.4153824,51.8180084,68.3360291,49.5702705z"/>
</g>
</svg>
