<?xml version="1.0" encoding="utf-8"?>
<!-- Generator: Adobe Illustrator 23.0.6, SVG Export Plug-In . SVG Version: 6.00 Build 0)  -->
<svg version="1.1" id="Layer_1" xmlns="http://www.w3.org/2000/svg" xmlns:xlink="http://www.w3.org/1999/xlink" x="0px" y="0px"
	 viewBox="0 0 100 100" style="enable-background:new 0 0 100 100;" xml:space="preserve">
<style type="text/css">
	.st0{fill:#63C083;}
	.st1{fill:#75C275;}
	.st2{fill:#65C086;}
	.st3{fill:none;stroke:#65C086;stroke-miterlimit:10;}
</style>
<g>
	<path class="st3" d="M87.25,5.11h-72.6l0.01,23.14v16.42c0,20.98,24.48,43.73,36.3,50.1v0.01c0.01,0,0.01,0,0.01,0h0.01v-0.01
		c11.54-6.18,36.29-29.12,36.29-50.1L87.25,5.11"/>
	<g>
		<path class="st2" d="M56.54,20.96c-1.42,0-2.09-0.57-2.09-1.85c0-0.6,0.02-2.74,0.02-2.74l4.86,6.55h3.51c0,0-0.02-8.3-0.02-10.1
			c0-1.62,0.61-1.7,1.92-1.7v-2H57.7v2.01c1.66,0,2.07,0.71,2.07,1.87v3.71L54.3,9.12h-4.58v2c1.03,0,1.79,0.31,1.79,1.3v6.69
			c0,1.19-0.59,1.92-1.93,1.92v1.89h6.92C56.51,22.91,56.54,21.83,56.54,20.96z"/>
		<path class="st2" d="M73.36,20.96c-1.42,0-2.09-0.57-2.09-1.85c0-0.6,0.02-2.74,0.02-2.74l4.86,6.55h3.51c0,0-0.02-8.3-0.02-10.1
			c0-1.62,0.61-1.7,1.92-1.7v-2h-7.03v2.01c1.66,0,2.07,0.71,2.07,1.87v3.71l-5.46-7.59h-4.57v2c1.02,0,1.79,0.31,1.79,1.3v6.69
			c0,1.19-0.59,1.92-1.93,1.92v1.89h6.92C73.34,22.91,73.36,21.83,73.36,20.96z"/>
		<path class="st2" d="M46.79,19.16h-2.72c-0.02,1.26-0.77,1.68-1.64,1.68h-1.85v-4.2h0.92c0.91,0,1,0.95,1,0.95h1.68v-3.77H42.5
			c0,0,0,0.96-0.96,0.96h-0.97v-3.71h1.81c1.68,0,1.6,1.44,1.6,1.44h2.8V9.14H34.73c0,0,0.02,0.97,0.02,2.02
			c0.41,0,1.87,0.19,1.87,1.21l0.02,7c0,1.22-1.19,1.62-2.09,1.62v1.93l12.23-0.02V19.16z"/>
		<path class="st2" d="M28.42,21c-1.5,0-1.97-0.52-1.97-1.4l0.02-2.15h1.48c3.57,0,5.5-1.85,5.54-4.42
			c0.04-2.75-2.09-3.89-5.11-3.89h-7.7v1.99c0.75,0,1.84,0.27,1.82,1.26v6.98C22.48,20.39,21.77,21,20.52,21
			c-0.02,0-0.04,1.91-0.04,1.91h7.93V21z M27.71,11.61c0.69,0,1.5,0.41,1.48,1.7c-0.02,1.3-0.93,1.61-1.85,1.61h-0.86l-0.02-3.31
			H27.71z"/>
		<path class="st2" d="M18.03,30.49v13.01c0,17.36,20.32,37.5,32.68,45.79c12.36-8.29,32.68-28.43,32.68-45.79V30.49
			C77.48,30.52,23.92,30.52,18.03,30.49z M55.7,56.84h-2.74v7.7c0,2.62,1.44,4.45,5.21,4.45v5.05H38.8c0,0-0.02-5.03,0-5.05
			c3.15,0,4.91-2.14,4.91-5.05V44.32c0-2.9-2.97-3.78-4.91-3.78c0.04,0.04,0-5.24,0-5.24h17.66c2.61,0,4.98,0.2,6.89,1.05
			l-5.08,7.22c-0.68-0.45-1.42-0.61-1.93-0.61h-3.38v8.07L44.5,62.98l9.35-11.38h1.34c2.53,0,4.97-0.95,4.97-4.9
			c0-0.68-0.11-1.63-0.38-2.32l6.04-7.36c2.51,2.12,3.29,5.37,3.29,8.49C69.11,53.05,64.64,56.84,55.7,56.84z"/>
		<polygon class="st2" points="44.5,62.98 43.72,63.94 43.72,64.09 		"/>
	</g>
</g>
</svg>
