<?xml version="1.0" encoding="utf-8"?>
<!-- Generator: Adobe Illustrator 23.0.6, SVG Export Plug-In . SVG Version: 6.00 Build 0)  -->
<svg version="1.1" id="Layer_1" xmlns="http://www.w3.org/2000/svg" xmlns:xlink="http://www.w3.org/1999/xlink" x="0px" y="0px"
	 viewBox="0 0 100 100" style="enable-background:new 0 0 100 100;" xml:space="preserve">
<style type="text/css">
	.st0{fill:#63C083;}
	.st1{fill:#75C275;}
	.st2{fill:#65C086;}
	.st3{fill:none;stroke:#65C086;stroke-miterlimit:10;}
</style>
<g transform="translate(.29845 .29845)">
	<g>
		<path class="st0" d="M14.36,92.1V72.98h9.1v-46.4h-9.1V7.45h43.59c8.56,0,16.27,2.6,21.73,7.31c5.46,4.72,8.47,11.41,8.47,18.85
			c0,7.43-3.01,14.12-8.47,18.84c-5.44,4.71-13.16,7.3-21.73,7.3h-9.4v13.23h9.1V92.1H14.36z M54.28,89.11V75.98h-9.1V56.76h12.77
			c15.8,0,26.83-9.52,26.83-23.16c0-13.64-11.03-23.17-26.83-23.17H17.73v13.15h9.11v52.39h-9.11v13.14H54.28z M45.17,43.68V23.59
			h9.53c8.17,0,13.45,3.95,13.45,10.05c0,6.1-5.28,10.04-13.45,10.04H45.17z M54.7,40.7c6.31,0,10.08-2.64,10.08-7.05
			c0-4.42-3.77-7.06-10.08-7.06h-6.15V40.7H54.7z"/>
		<path class="st0" d="M57.95,7.45c8.56,0,16.27,2.6,21.72,7.31c5.46,4.72,8.47,11.41,8.47,18.84c0,7.42-3,14.11-8.47,18.84
			c-5.45,4.71-13.17,7.3-21.72,7.3h-9.4v13.25h9.1V92.1H14.36V72.99h9.1V26.57h-9.1V7.45h4.11H57.95 M17.72,23.6h9.11v52.37h-9.11
			v13.15h36.56V75.97h-9.1v-19.2h12.77c15.8,0,26.83-9.52,26.83-23.17c0-13.64-11.03-23.17-26.83-23.17H18.47h-0.75V23.6 M54.7,23.6
			c8.17,0,13.44,3.94,13.44,10.05c0,6.1-5.28,10.04-13.44,10.04h-9.52V23.6h1.68H54.7 M48.54,40.7h6.16
			c6.31,0,10.08-2.64,10.08-7.06c0-4.43-3.77-7.07-10.08-7.07h-6.16V40.7 M57.95,7.44H18.47h-4.11h-0.01v0.01v19.12v0.01h0.01h9.09
			v46.39h-9.09h-0.01v0.01V92.1v0.01h0.01h43.28h0.01V92.1V72.99v-0.01h-0.01h-9.09V59.75h9.39c8.57,0,16.29-2.59,21.73-7.3
			c5.46-4.72,8.47-11.42,8.47-18.85c0-7.43-3.01-14.13-8.47-18.85C74.22,10.04,66.51,7.44,57.95,7.44L57.95,7.44z M17.73,10.44h0.74
			h39.47c15.79,0,26.82,9.52,26.82,23.16c0,13.63-11.03,23.15-26.82,23.15H45.18h-0.01v0.01v19.2v0.01h0.01h9.09v13.13H17.73V75.98
			h9.1h0.01v-0.01V23.6v-0.01h-0.01h-9.1V10.44L17.73,10.44z M54.7,23.58h-7.84h-1.68h-0.01v0.01v20.08v0.01h0.01h9.52
			c8.17,0,13.46-3.94,13.46-10.05C68.16,27.53,62.87,23.58,54.7,23.58L54.7,23.58z M48.55,26.59h6.15c6.31,0,10.07,2.64,10.07,7.06
			c0,4.41-3.76,7.05-10.07,7.05h-6.15V26.59L48.55,26.59z"/>
	</g>
	<path class="st0" d="M22.74,8.94c7,5.59,15.86,13.18,24.12,22.38v-6.23h4.16C45.09,19.14,39.1,13.66,33.44,8.94H22.74L22.74,8.94z
		 M42.99,8.94C57.1,17,72.39,28.5,83.98,44.38c0.47-0.94,0.88-1.92,1.23-2.94c-3.29-7.19-9.9-17.97-23.08-30.57
		c0,0,11.78,5.33,24.26,20.75C85.37,18.17,73.95,8.94,57.95,8.94H42.99L42.99,8.94z M16.04,17.64v7.45h9.1v5.77v11.42
		C38.61,58.76,45.59,75,45.59,75c-6.82-8.36-13.69-15.59-20.44-21.8v5.13v7.07c8.11,6.27,18.07,14.76,27.98,25.21h2.84V74.48h-9.1
		V58.25h0.62c-5.88-7.9-12.43-16.2-19.39-24.53c0,0,12.58,10.72,26.27,24.53h3.59c2.17,0,4.24-0.17,6.23-0.49
		c-2.66-2.92-8.22-8.82-15.57-15.58h-1.75v-1.59C38.23,32.79,27.41,24.1,16.04,17.64L16.04,17.64z M64.17,39.16
		c-1.85,1.77-4.75,2.85-8.51,3c3.51,4.85,6.69,10.01,9.29,15.46c4.08-0.76,7.73-2.2,10.8-4.19C72.17,48.64,68.26,43.85,64.17,39.16
		L64.17,39.16z M25.15,70.03v4.45h-6.38c4.7,6.08,8.21,11.72,10.66,16.14h12.29C37.62,84.28,32.34,77.59,25.15,70.03L25.15,70.03z
		 M16.04,80.56v10.06h10C22.75,87.02,19.4,83.67,16.04,80.56L16.04,80.56z"/>
</g>
</svg>
