<?xml version="1.0" encoding="utf-8"?>
<!-- Generator: Adobe Illustrator 23.0.6, SVG Export Plug-In . SVG Version: 6.00 Build 0)  -->
<svg version="1.1" id="Layer_1" xmlns="http://www.w3.org/2000/svg" xmlns:xlink="http://www.w3.org/1999/xlink" x="0px" y="0px"
	 viewBox="0 0 100 100" style="enable-background:new 0 0 100 100;" xml:space="preserve">
<style type="text/css">
	.st0{fill:#63C083;}
	.st1{fill:#75C275;}
	.st2{fill:#65C086;}
	.st3{fill:none;stroke:#65C086;stroke-miterlimit:10;}
	.st4{font-family:'MyriadPro-Regular';}
	.st5{font-size:12px;}
</style>
<g id="pnMdO9_1_">
	<g>
		<path class="st2" d="M44.79,33.06c0.33-0.97,0.73-1.92,0.98-2.91c0.24-0.95,0.74-1.24,1.72-1.23c4.77,0.05,9.55,0.02,14.32,0.02
			c10.76,0,21.53,0,32.29,0c0.52,0,1.05,0,1.77,0c-1.15,3.34-2.23,6.47-3.3,9.61c-2.01,5.86-4.04,11.72-6.02,17.59
			c-0.31,0.92-0.81,1.5-1.67,1.95c-2.6,1.34-5.01,3.29-7.75,4.01c-2.7,0.7-5.72,0.13-8.6,0.23c-1.29,0.04-2.33-0.28-3.31-1.13
			c-1.15-1-2.41-1.87-3.71-2.86c-0.4,1.14-0.73,2.21-1.18,3.23c-0.14,0.32-0.6,0.71-0.92,0.71c-8.1,0.02-16.21-0.01-24.31-0.03
			c-0.04,0-0.08-0.03-0.26-0.11c0.37-1.16,0.74-2.33,1.18-3.7c-2.05,1.17-3.92,2.28-5.84,3.3c-0.6,0.32-1.34,0.54-2.01,0.55
			c-3.29,0.06-6.58,0.06-9.86-0.01c-0.64-0.01-1.39-0.31-1.89-0.72c-1.35-1.12-2.63-2.33-3.85-3.59c-0.31-0.32-0.47-1.03-0.35-1.46
			c0.6-2.02,1.35-4,2-6.01c0.23-0.73,0.62-0.96,1.37-0.94c2.01,0.05,4.02,0.02,6.38,0.02c-1.71-1.46-3.12-2.75-4.63-3.92
			c-0.75-0.58-0.81-1.1-0.5-1.93c1.04-2.87,1.96-5.78,3.03-8.64c0.24-0.65,0.77-1.31,1.35-1.69c2.16-1.39,4.37-2.67,6.6-3.95
			c0.48-0.28,1.08-0.46,1.63-0.47c3.29-0.04,6.58-0.05,9.86,0.01c0.55,0.01,1.23,0.31,1.62,0.7c1.17,1.18,2.23,2.47,3.34,3.71
			C44.44,33.28,44.62,33.17,44.79,33.06z M53.17,42.42c1.38-4.02,2.72-7.96,4.11-12.01c-3.06,0-5.98,0.04-8.9-0.02
			c-0.91-0.02-1.3,0.25-1.6,1.13c-2.84,8.37-5.74,16.73-8.62,25.09c-0.48,1.38-0.95,2.76-1.47,4.29c3.15,0,6.08-0.04,9,0.02
			c0.89,0.02,1.22-0.3,1.49-1.12c1.1-3.37,2.28-6.71,3.44-10.07c0.57-1.66,0.67-1.7,2.67-1.29c-1.41,4.11-2.81,8.22-4.24,12.4
			c3.44,0,6.76,0,10.1,0c3.48-10.11,6.95-20.2,10.47-30.43c-3.27,0-6.33-0.03-9.38,0.04c-0.35,0.01-0.87,0.53-1.01,0.92
			c-1.17,3.21-2.35,6.41-3.34,9.67C55.45,42.51,54.71,42.87,53.17,42.42z M73.03,55.08c2.83-8.23,5.63-16.38,8.48-24.67
			c-3.41,0-6.56-0.02-9.7,0.03c-0.31,0.01-0.8,0.39-0.91,0.71c-2.87,8.22-5.72,16.45-8.51,24.69c-0.12,0.36,0.11,1.05,0.42,1.33
			c1,0.9,2.16,1.62,3.17,2.51c1.07,0.94,2.26,1.12,3.66,1.27c5.19,0.55,9.87-0.62,14.06-3.69c0.63-0.46,1.3-1.12,1.56-1.83
			c1.94-5.41,3.77-10.85,5.64-16.28c0.99-2.87,1.98-5.74,3.02-8.74c-3.25,0-6.31-0.04-9.36,0.05c-0.38,0.01-0.94,0.59-1.09,1.01
			c-2.58,7.37-5.17,14.74-7.62,22.15C75.34,55.14,74.62,55.54,73.03,55.08z M31.95,40.16c3.14,0,6.15,0.02,9.16-0.04
			c0.3-0.01,0.73-0.45,0.86-0.79c0.51-1.29,0.98-2.61,1.35-3.94c0.11-0.38,0-0.98-0.26-1.26c-1.06-1.16-2.21-2.25-3.36-3.32
			c-0.23-0.22-0.62-0.38-0.94-0.39c-5.73-0.15-11.56-0.72-16.29,3.63c-0.13,0.12-0.33,0.17-0.45,0.29c-0.29,0.32-0.67,0.63-0.8,1.02
			c-0.95,2.66-1.88,5.33-2.73,8.02c-0.12,0.37,0.1,1.02,0.39,1.3c1.14,1.08,2.34,2.11,3.6,3.06c0.5,0.37,1.18,0.61,1.8,0.69
			c1.49,0.18,2.99,0.23,4.64,0.35c-0.62,1.81-1.17,3.42-1.73,5.02c-0.57,1.65-0.74,1.73-2.58,1.19c0.4-1.26,0.8-2.51,1.24-3.93
			c-3.39,0-6.57-0.02-9.76,0.03c-0.28,0-0.69,0.4-0.81,0.7c-0.6,1.59-1.12,3.21-1.69,4.86c1.36,1.28,2.68,2.57,4.06,3.78
			c0.33,0.29,0.88,0.43,1.33,0.44c2.29,0.04,4.6-0.09,6.88,0.05c2.29,0.15,4.19-0.64,6.23-1.58c3.46-1.59,5.54-3.97,6.28-7.68
			c0.31-1.57,1.59-3.28,1.21-4.56c-0.41-1.36-2.22-2.35-3.52-3.37c-0.63-0.49-1.45-0.87-2.24-1c-1.57-0.25-3.18-0.28-4.89-0.42
			c0.58-1.68,1.09-3.16,1.6-4.64c0.63-1.81,0.63-1.81,2.67-1.48C32.8,37.48,32.4,38.74,31.95,40.16z M36.42,41.76
			c1.51,1.3,2.78,2.4,4.17,3.59c0.42-1.28,0.78-2.39,1.17-3.59C39.93,41.76,38.34,41.76,36.42,41.76z"/>
		<path class="st2" d="M55.86,32c-0.44,0.18-0.87,0.49-1.32,0.51c-1.93,0.06-3.87,0.02-5.95,0.02c-0.66,1.87-1.33,3.75-1.99,5.64
			c-2.35,6.82-4.69,13.65-7.05,20.48c-0.2,0.57-0.19,1.46-1.42,1.06c0.27-0.79,0.54-1.58,0.8-2.36c2.83-8.23,5.67-16.45,8.46-24.69
			c0.3-0.89,0.68-1.3,1.69-1.26c2.19,0.09,4.39,0.03,6.59,0.03C55.74,31.62,55.8,31.81,55.86,32z"/>
		<path class="st2" d="M52.16,44.21c0.43-0.2,0.85-0.55,1.29-0.57c2.57-0.15,2.57-0.12,3.41-2.57c0.98-2.84,1.99-5.67,2.92-8.53
			c0.29-0.89,0.72-1.16,1.64-1.13c2.2,0.07,4.4,0.02,6.6,0.02c0.07,0.15,0.13,0.29,0.2,0.44c-0.42,0.22-0.84,0.61-1.28,0.63
			c-1.66,0.07-3.33,0.07-4.99,0.01c-0.83-0.03-1.16,0.27-1.42,1.04c-1.08,3.28-2.3,6.51-3.34,9.8c-0.35,1.12-0.89,1.49-2,1.38
			c-0.93-0.09-1.88-0.02-2.82-0.02C52.3,44.55,52.23,44.38,52.16,44.21z"/>
		<path class="st2" d="M55.47,48.27c-1.25,3.64-2.49,7.29-3.78,10.92c-0.11,0.31-0.56,0.51-0.85,0.76c-0.12-0.1-0.23-0.2-0.35-0.3
			c0.99-2.87,1.98-5.75,2.97-8.62c0.26-0.76,0.48-1.55,0.81-2.28c0.15-0.34,0.55-0.56,0.84-0.83
			C55.22,48.03,55.35,48.15,55.47,48.27z"/>
		<path class="st2" d="M72.14,57.34c0.35-0.88,0.35-0.88,3.8-1.14c2.26-6.55,4.52-13.12,6.79-19.69c0.48-1.4,0.92-2.82,1.46-4.19
			c0.14-0.36,0.62-0.83,0.96-0.84c2.38-0.07,4.76-0.04,7.19-0.04c0.1,0.96-0.39,1.11-1.11,1.1c-1.67-0.02-3.33,0.04-5-0.02
			c-0.83-0.03-1.16,0.28-1.42,1.05C82.27,41,79.66,48.4,77.18,55.85c-0.42,1.25-1.01,1.62-2.21,1.5
			C74.09,57.27,73.19,57.34,72.14,57.34z"/>
		<path class="st2" d="M80.12,31.86c-0.41,0.22-0.81,0.62-1.23,0.64c-1.71,0.07-3.42,0.09-5.12,0.01c-0.97-0.04-1.4,0.28-1.72,1.21
			c-2.48,7.34-5.03,14.67-7.55,21.99c-0.09,0.25-0.18,0.49-0.28,0.76c-1.17-0.22-0.72-0.92-0.52-1.5c2.15-6.27,4.3-12.55,6.48-18.81
			c0.54-1.56,0.74-3.65,1.85-4.47c1.06-0.78,3.11-0.23,4.72-0.25c1.07-0.01,2.14,0,3.22,0C80.01,31.57,80.06,31.72,80.12,31.86z"/>
		<path class="st2" d="M19.83,44.07c-0.06-0.4-0.27-0.85-0.16-1.2c0.77-2.39,1.6-4.77,2.45-7.13c0.12-0.34,0.47-0.62,0.74-0.89
			c0.16-0.15,0.4-0.22,0.56-0.36c4.3-3.9,9.59-3.08,14.7-3.02c0.41,0,0.82,0.46,1.23,0.71c-0.05,0.12-0.1,0.24-0.14,0.35
			c-2.68,0-5.37,0.05-8.05-0.02c-1.36-0.04-2.46,0.42-3.68,0.97c-3.34,1.51-5.5,3.8-6.13,7.49c-0.18,1.04-0.7,2.03-1.06,3.04
			C20.15,44.03,19.99,44.05,19.83,44.07z"/>
		<path class="st2" d="M23.59,56.81c0.42-0.18,0.84-0.49,1.27-0.51c2.53-0.12,2.53-0.09,3.34-2.46c0.51-1.48,1.01-2.97,1.57-4.43
			c0.14-0.37,0.51-0.65,0.78-0.98c0.14,0.1,0.29,0.19,0.43,0.29c-0.23,0.75-0.44,1.5-0.69,2.24c-0.62,1.83-1.2,3.66-1.92,5.45
			c-0.16,0.41-0.77,0.83-1.21,0.88c-1.1,0.13-2.23,0.04-3.35,0.04C23.74,57.16,23.66,56.98,23.59,56.81z"/>
		<path class="st2" d="M16.94,53.14c-0.45,1.22-0.86,2.35-1.27,3.47c-0.18-0.04-0.3-0.03-0.34-0.09c-0.95-1.31,0.36-2.29,0.55-3.44
			c0.06-0.38,0.64-0.96,0.99-0.97c2.46-0.09,4.92-0.05,7.41-0.05c0.22,1.08-0.43,1.08-1.07,1.08
			C21.15,53.14,19.09,53.14,16.94,53.14z"/>
		<path class="st2" d="M35.09,44.88c-2.29-0.16-4.59-0.33-7.23-0.52c0.43-0.48,0.7-0.98,0.86-0.95
			C30.84,43.89,33.27,42.94,35.09,44.88z"/>
		<path class="st2" d="M33.16,39.06c0.89-1.11,0.42-2.75,2.04-3.35C35.21,37.74,34.51,39.03,33.16,39.06z"/>
	</g>
</g>
<text transform="matrix(1 0 0 1 10.3923 89.7973)" class="st4 st5">sacred heart</text>
</svg>
