<?xml version="1.0" encoding="utf-8"?>
<!-- Generator: Adobe Illustrator 22.1.0, SVG Export Plug-In . SVG Version: 6.00 Build 0)  -->
<svg version="1.1" id="Layer_1" xmlns="http://www.w3.org/2000/svg" xmlns:xlink="http://www.w3.org/1999/xlink" x="0px" y="0px"
	 viewBox="0 0 133.9646606 78.7948227" style="enable-background:new 0 0 133.9646606 78.7948227;" xml:space="preserve">
<style type="text/css">
	.st0{fill:#4153A4;}
	.st1{fill:#121245;}
	.st2{fill:#ABB8DE;}
	.st3{fill:#2C2C81;}
	.st4{clip-path:url(#SVGID_2_);fill:#4853A4;}
	.st5{clip-path:url(#SVGID_2_);}
	.st6{fill:#B8BBD8;}
	.st7{fill:#EDEDF5;}
	.st8{fill:none;stroke:#121245;stroke-miterlimit:10;}
	.st9{fill:none;stroke:#121245;stroke-miterlimit:10;stroke-dasharray:4.1037498,4.1037498;}
	.st10{fill:#3E54A3;}
	.st11{fill:none;stroke:#121245;stroke-miterlimit:10;stroke-dasharray:3.9702759,3.9702759;}
	.st12{fill:#FFFFFF;}
</style>
<g>
	<path class="st10" d="M56.5613708,21.827076c0.3590088-1.0417557,0.7229576-2.0315189,1.0357437-3.0371952
		c0.1303368-0.4190655,0.3253899-0.5569592,0.7723808-0.556469c12.2563438,0.0134106,24.5126991,0.0107193,36.769062,0.0107155
		c7.3630219-0.0000019,14.7260361,0.0000019,22.0890579,0.0000038c0.2115555,0,0.4231033,0,0.7108917,0
		c-0.0592117,0.2228909-0.0907516,0.3806553-0.1426392,0.5314102c-3.9239655,11.3996639-7.8480988,22.7992649-11.7855072,34.1942902
		c-0.0754089,0.2182426-0.2716446,0.4493561-0.4740753,0.5609818c-3.6238022,1.9982681-7.255188,3.9828339-10.8931732,5.9551735
		c-0.2557678,0.1386604-0.5753784,0.2237549-0.8656921,0.2248154c-3.9575806,0.0144997-7.9152451,0.0161896-11.8727722-0.0033684
		c-0.2923203-0.001442-0.6303482-0.126812-0.8677521-0.3020821c-1.2458801-0.9198303-2.4659424-1.8746033-3.6957397-2.8162384
		c-0.1177521-0.0901566-0.2407913-0.1733971-0.4137192-0.2973671c-0.3428497,0.9872704-0.6952591,1.9151917-0.981041,2.8631935
		c-0.1346512,0.4466515-0.3405609,0.5775909-0.8048706,0.576931c-10.3388748-0.0147171-20.6777916-0.0112724-31.0166931-0.0112724
		c-0.1661453,0-0.332283,0-0.6008415,0c0.3530807-1.0386925,0.683445-2.0105629,1.054615-3.1024818
		c-0.2608719,0.1377869-0.4173584,0.214798-0.5685005,0.3011589c-1.5039635,0.8592987-3.0024109,1.7284546-4.5151329,2.5720291
		c-0.2408676,0.1343231-0.5445518,0.2190361-0.8195,0.2198219c-4.6171913,0.0132065-9.2344475,0.014698-13.8516006-0.0038452
		c-0.2725391-0.0010948-0.6074638-0.1250267-0.8067169-0.3079491c-2.101553-1.9293785-4.1773567-3.8867683-6.2729969-5.8226509
		c-0.2307434-0.2131538-0.263073-0.3847961-0.163559-0.6712761c1.2013569-3.4584808,2.3944702-6.9198532,3.5745087-10.3856583
		c0.1162453-0.3414192,0.261097-0.4772301,0.6430683-0.4704552c1.4838009,0.0263214,2.9683437,0.0107193,4.5841007,0.0107193
		c-0.8551559-0.7269936-1.6189079-1.3767929-2.3832817-2.0258675c-0.3273449-0.2779617-0.6465092-0.5667992-0.9872971-0.8272667
		c-0.2345638-0.1792793-0.2573318-0.3539619-0.1618919-0.6293831c1.5548172-4.4869499,3.0946846-8.9790802,4.6534805-13.4646378
		c0.071928-0.2069798,0.2550983-0.42099,0.4446678-0.5346241c3.4316864-2.057066,6.8707218-4.1019192,10.315218-6.1374817
		c0.1987-0.117424,0.4572678-0.1878567,0.6881943-0.1884136c4.5098228-0.0108547,9.0196915-0.0121441,13.5294838,0.0038338
		c0.2285652,0.0008106,0.5090981,0.1189518,0.6761551,0.2768974c1.0252724,0.9693527,2.024498,1.9662418,3.0333748,2.9529648
		C56.2978516,21.5911446,56.4116478,21.6897945,56.5613708,21.827076z M57.0541954,24.8868732
		c-0.167717-0.158617-0.2798347-0.261385-0.3883743-0.3677998c-1.5116234-1.4820156-3.0169945-2.9705105-4.5422974-4.438303
		c-0.1649551-0.1587353-0.4443398-0.2799969-0.6711922-0.280899c-4.1728134-0.016571-8.3457222-0.0150509-12.5185738-0.0042782
		c-0.2305717,0.0005932-0.4892426,0.0667229-0.6870117,0.1834049c-3.0088921,1.7752228-6.0123215,3.5597763-9.0068741,5.3590469
		c-0.1994991,0.1198673-0.3864288,0.3514194-0.4630909,0.571476c-1.3638859,3.9150543-2.70467,7.8381557-4.0683765,11.7532749
		c-0.1204834,0.3459015-0.0729008,0.5350304,0.2090473,0.7701416c1.9082375,1.5912552,3.7999249,3.2023582,5.6958752,4.8083344
		c0.1092358,0.0925293,0.2089272,0.196331,0.3918915,0.3694954c-0.2610703,0-0.4091587,0.0000038-0.5572472,0.0000038
		c-2.5466843,0.0000038-5.0934029,0.0062866-7.6400127-0.0074997c-0.3389072-0.0018311-0.5109577,0.0756416-0.6281567,0.4224701
		c-0.9109058,2.6957207-1.8422947,5.3845482-2.7776165,8.0719337c-0.0967884,0.2780952-0.0786343,0.4564438,0.1566982,0.6728783
		c1.8404465,1.6926689,3.658638,3.4095688,5.5032101,5.0976677c0.1893368,0.173275,0.5062866,0.2913818,0.7646084,0.2924461
		c4.2955399,0.0177116,8.5911865,0.016655,12.8867569,0.0031509c0.2740059-0.0008583,0.5775986-0.0845604,0.8167114-0.2195587
		c2.3741684-1.340435,4.737545-2.6999893,7.104393-4.0534096c0.1364975-0.0780525,0.2766075-0.1497993,0.5236702-0.2830887
		c-0.541996,1.5872879-1.04142,3.0499077-1.5512772,4.5430717c0.1683197,0.0106354,0.2592278,0.0214081,0.350132,0.0214157
		c9.4656906,0.0008469,18.9313774-0.0006409,28.3970604,0.00774c0.3076019,0.0002708,0.418808-0.1197052,0.5080872-0.3906746
		c0.378273-1.1478882,0.7785721-2.2885361,1.173584-3.4308777c0.0915604-0.264801,0.1939468-0.5258598,0.3018341-0.8169174
		c0.1733322,0.1248093,0.2989807,0.2103043,0.419342,0.302681c1.7395554,1.3351288,3.483223,2.6649971,5.2127914,4.0129585
		c0.2966766,0.2312241,0.5898361,0.3243217,0.9635849,0.3231201c3.6205444-0.0116348,7.2411728-0.001564,10.8616943-0.0168076
		c0.3049698-0.0012894,0.641716-0.081356,0.9090729-0.2258835c3.1390228-1.6969604,6.2643967-3.4191666,9.4031219-5.1166954
		c0.3781509-0.2045174,0.5894852-0.4646034,0.7283325-0.8690605c3.4178925-9.9565468,6.8481445-19.9088554,10.275322-29.8622189
		c0.2575302-0.747921,0.5085144-1.4980965,0.7810745-2.3018856c-0.2470093,0-0.4283752,0-0.6097641,0
		c-18.6245499-0.0000019-37.2490997,0.0020218-55.873642-0.0117531c-0.462265-0.0003433-0.6630173,0.127533-0.8048439,0.5679131
		C58.1215744,21.8410378,57.5919342,23.3228989,57.0541954,24.8868732z"/>
	<path class="st10" d="M66.9207535,42.0751915c-0.8046112,0-1.5092392-0.0195694-2.2108231,0.0178909
		c-0.1274796,0.0068054-0.3002625,0.2266769-0.3546677,0.382267c-0.9138374,2.6135063-1.8125381,5.2323074-2.7138901,7.8501816
		c-0.6772079,1.9668617-1.3541908,3.9338036-2.0289001,5.9015274c-0.0702744,0.2049484-0.1141434,0.3771782-0.4138412,0.376194
		c-3.7582474-0.0123329-7.5165482-0.0091553-11.2748375-0.0110664c-0.0449638-0.0000229-0.0899239-0.0146942-0.1965065-0.0332603
		c4.0405731-11.7352448,8.0767975-23.4578629,12.1092567-35.169548c3.9303741,0,7.8218346,0,11.7679253,0
		c-1.611557,4.6837177-3.2115173,9.3337288-4.8363419,14.0560226c0.7962723,0,1.5264816,0.016243,2.2543716-0.0174026
		c0.1100082-0.005085,0.2549896-0.2265778,0.3067245-0.3748589c0.9171906-2.628849,1.8231964-5.2616005,2.7300034-7.8940697
		c0.6178055-1.7935009,1.234993-3.587225,1.8473511-5.3825932c0.0827255-0.2425461,0.1514587-0.4166088,0.4859085-0.4153023
		c3.7122269,0.0145226,7.4245377,0.0090981,11.1368179,0.0099487c0.0753479,0.0000172,0.1506958,0.0106773,0.279335,0.020401
		c-0.1946869,0.5714321-0.3794022,1.1184692-0.5673065,1.6644135c-3.7882156,11.0066929-7.5791092,22.0124645-11.355957,33.023056
		c-0.1359406,0.3963127-0.3005829,0.531601-0.7322464,0.529026c-3.558754-0.0212822-7.1176987-0.0120316-10.6765823-0.0120316
		c-0.166153,0-0.3323021,0-0.552948,0C63.5892944,51.7557907,65.2395325,46.9605026,66.9207535,42.0751915z M69.8408966,22.6989899
		c-0.2001343-0.0121651-0.3481293-0.0289211-0.4961319-0.0290051c-2.7299042-0.0015507-5.4598351,0.0053215-8.1896629-0.0090237
		c-0.3513069-0.0018444-0.5063324,0.1137829-0.6194267,0.4430828c-3.6309738,10.5726528-7.2715874,21.1419964-10.9096603,31.7122135
		c-0.047493,0.1379776-0.0808144,0.2808342-0.1219368,0.4255981c1.018116,0.1647835,1.0407257,0.1528053,1.3052139-0.6147461
		c3.4878998-10.1220551,6.9783287-20.2432404,10.4552841-30.369051c0.1265602-0.3685703,0.2934837-0.4837379,0.6774445-0.4807796
		c2.3616829,0.018198,4.7235985,0.0128326,7.0853691,0.0013466c0.1725769-0.0008392,0.4279861-0.0619926,0.4996109-0.1818886
		C69.6773376,23.3450642,69.7309494,23.0356102,69.8408966,22.6989899z M84.0621185,22.6687965
		c-0.2577286,0-0.4249496,0-0.5921707,0c-2.6680145,0-5.3361435,0.0121365-8.0039368-0.0117302
		c-0.4542542-0.0040627-0.6244736,0.1558037-0.7642975,0.5665359c-1.4880066,4.3709564-3.0014191,8.7332573-4.4933548,13.10289
		c-0.1086044,0.3181-0.2580032,0.4154167-0.5831223,0.4093857c-1.0576324-0.0196114-2.1159363-0.012989-3.1737976-0.0007019
		c-0.1499481,0.0017433-0.3821106,0.0485802-0.4325256,0.1476593c-0.1458588,0.2866821-0.2184296,0.6106529-0.3353577,0.9675522
		c1.605484,0,3.1375885-0.0134125,4.669136,0.0098343c0.3633881,0.0055122,0.4982986-0.133297,0.6070251-0.4511757
		c1.4945679-4.3695412,3.007431-8.7328358,4.4932861-13.1053162c0.1384735-0.4075031,0.3155518-0.5322819,0.7410355-0.5281982
		c2.3611221,0.0226574,4.7226181,0.004179,7.0838699,0.018671c0.3173828,0.0019474,0.4829559-0.0923347,0.5548401-0.3960342
		C83.8843689,23.180088,83.966217,22.969162,84.0621185,22.6687965z M69.4027252,41.8728714
		c-0.9426346-0.2189255-1.0492859-0.1629829-1.3355789,0.6666069c-1.401535,4.0611801-2.8034439,8.1222305-4.2028809,12.1841354
		c-0.0573235,0.1663818-0.0911331,0.3408623-0.1367378,0.5147667c0.999073,0.1739883,1.0367622,0.1518822,1.3325233-0.708107
		c1.3376465-3.8894234,2.6763382-7.7784882,4.0137558-11.6679878
		C69.1864624,42.5346527,69.2925644,42.2047653,69.4027252,41.8728714z"/>
	<path class="st10" d="M113.7767868,21.3702221c-0.4378204,1.2777195-0.8516693,2.4908848-1.2690964,3.7028141
		c-2.9937744,8.6917305-5.9910812,17.3822517-8.9735031,26.0778694c-0.1355591,0.395256-0.3495026,0.63237-0.7092667,0.8267479
		c-2.6816635,1.4488602-5.3502655,2.9218903-8.0327072,4.3692894c-0.2680359,0.1446266-0.6006699,0.2371025-0.9038925,0.2385902
		c-3.3747482,0.0165825-6.7496185,0.0151253-10.124382,0.000412c-0.2365417-0.00103-0.514473-0.0898781-0.7021866-0.231781
		c-1.9323578-1.4608231-3.8463593-2.9459-5.7764053-4.4098206c-0.2498322-0.1894951-0.2965546-0.3452606-0.1936035-0.6436539
		c3.3980408-9.8483238,6.7860565-19.7001095,10.1744461-29.5517616c0.0771484-0.2243023,0.1445541-0.3889599,0.4603577-0.3877831
		c3.8349762,0.0142956,7.6700287,0.0093746,11.5050507,0.0105515c0.0719528,0.000021,0.1439056,0.0134792,0.2638016,0.0254574
		c-3.2748032,9.5112-6.538414,18.9898891-9.8296509,28.5488148c0.8371887,0,1.5974045,0.0160294,2.3552856-0.0187035
		c0.1038437-0.0047607,0.234169-0.2489815,0.2881165-0.4045677c1.2027512-3.4690018,2.3961945-6.9412384,3.5920334-10.4126358
		c1.9880447-5.7710304,3.9803467-11.5406017,5.9551392-17.3161602c0.1155701-0.3380108,0.2596436-0.4334126,0.6066895-0.4320965
		c3.6048737,0.0136738,7.2098236,0.0084171,10.8147507,0.0084171
		C113.4151306,21.3702221,113.5524979,21.3702221,113.7767868,21.3702221z M111.9418182,22.6882515
		c-0.1400299-0.0065727-0.2765579-0.0185184-0.4130936-0.0185738c-2.7300873-0.0010986-5.460228,0.007597-8.1902008-0.0105381
		c-0.3792725-0.0025196-0.5286789,0.1314106-0.6456223,0.4724407c-2.6639328,7.7687931-5.3383331,15.5340004-8.0115128,23.2996254
		c-0.552063,1.6037369-1.1070938,3.2064514-1.6658554,4.8244171c-1.2478409,0-2.4741058-0.0052948-3.7001877,0.0071297
		c-0.1431427,0.0014496-0.3619232,0.0616264-0.4132462,0.1621666c-0.1416016,0.2773895-0.2129822,0.5906219-0.3334198,0.9538612
		c0.2443314,0,0.4099579,0,0.575592,0c1.3190308,0.0000038,2.6387405-0.0241699,3.956749,0.0125237
		c0.4911804,0.0136795,0.711647-0.1328773,0.8740616-0.607048c3.1423416-9.1741791,6.3055038-18.3412247,9.4530487-27.513628
		c0.1223221-0.3564777,0.2707214-0.4987431,0.6688919-0.4947701c2.2083893,0.0220261,4.4171143,0.0105515,6.6257248,0.0105457
		c1.0088196-0.0000019,1.0089035,0.0000172,1.2533417-0.997961
		C111.9789658,22.7766857,111.9674835,22.7614079,111.9418182,22.6882515z M79.4126282,51.5540466
		c0.0667648-0.1711349,0.1328278-0.3243141,0.1869888-0.4815941c3.0719986-8.9208221,6.1461411-17.8409195,9.2039261-26.7666149
		c0.1383438-0.4038086,0.3108978-0.5346336,0.7393341-0.5306454c2.468483,0.0229797,4.9373016,0.0142212,7.4059677,0.0040436
		c0.1601105-0.0006599,0.4034042-0.0573883,0.4631424-0.1669903c0.1468811-0.2695198,0.2092285-0.5851135,0.3254623-0.9434662
		c-0.2586823,0-0.4403992,0-0.6221161,0c-2.7447052,0-5.4895172,0.0122871-8.2340088-0.011694
		c-0.4757462-0.004158-0.6811295,0.1296024-0.8395462,0.5925808c-3.0639725,8.9546642-6.148674,17.9022312-9.2295151,26.8511219
		c-0.312912,0.9089127-0.3141479,0.9085655,0.5019608,1.4365692C79.3260193,51.5449867,79.3440857,51.5429192,79.4126282,51.5540466
		z"/>
	<path class="st10" d="M35.4584122,45.2188187c-0.5418892,1.5808525-1.0659332,3.1096497-1.6211014,4.7292404
		c0.801693,0,1.5442543,0.007515,2.2861595-0.0110359c0.078537-0.0019646,0.1899872-0.1441078,0.2243462-0.2427483
		c0.7951126-2.2825089,1.5819893-4.5678864,2.3678284-6.8536186c0.0185661-0.0539932,0.0077286-0.1180992,0.0120201-0.2067528
		c-0.8352242-0.0664177-1.6564407-0.1402969-2.4789352-0.1950722c-1.1623306-0.077404-2.327774-0.1173477-3.4870758-0.2250824
		c-0.3229637-0.030014-0.6838799-0.176075-0.9338741-0.3822746c-1.7033482-1.4049606-3.3779469-2.8447151-5.0723419-4.2606583
		c-0.2451763-0.2048836-0.3108025-0.3739319-0.1992664-0.6935539c1.1842899-3.3937607,2.3454208-6.7956047,3.5294895-10.1894455
		c0.0722713-0.2071457,0.2489109-0.4245205,0.4368687-0.5376205c2.5591927-1.5399704,5.1268806-3.0658989,7.7002411-4.5821018
		c0.1980095-0.1166668,0.4542427-0.1890202,0.6836853-0.1897049c3.8346367-0.0114422,7.669323-0.0115204,11.5039482,0.001152
		c0.2046509,0.0006771,0.4626617,0.0806618,0.6050034,0.2179203c1.5346375,1.479805,3.0481567,2.9814777,4.5760956,4.4682941
		c0.1870613,0.1820259,0.242569,0.3334522,0.1508751,0.5933266c-0.6768341,1.9182014-1.3399925,3.8412743-1.9958839,5.7667522
		c-0.0786133,0.2307816-0.1632118,0.3557358-0.4373131,0.3550835c-3.6045647-0.0085449-7.2091522-0.005825-10.8137398-0.0073662
		c-0.074955-0.0000343-0.1499062-0.0172348-0.2921257-0.0346756c0.5342369-1.5635529,1.0599823-3.1022606,1.6132545-4.7215328
		c-0.8035126,0-1.5471191-0.0075474-2.2900658,0.0111485c-0.0781937,0.0019684-0.188736,0.145916-0.2232895,0.2452126
		c-0.7690048,2.2100296-1.5297356,4.4229393-2.2896881,6.6361084c-0.0186958,0.054451-0.0106659,0.1180763-0.0183792,0.2212868
		c0.4807281,0.0417061,0.9465256,0.0875092,1.4131737,0.1216354c1.7274055,0.1263199,3.4556007,0.2424812,5.1819687,0.3814583
		c0.1947823,0.0156822,0.4151649,0.110836,0.5640297,0.2386246c1.7106056,1.4683418,3.4057503,2.9546852,5.1162491,4.4231453
		c0.2406654,0.2066078,0.3038826,0.3764153,0.1945534,0.6906929c-1.1959496,3.4380112-2.3695068,6.883812-3.567749,10.3210144
		c-0.0763893,0.2191277-0.2695618,0.4487038-0.4709854,0.5653496c-2.6377869,1.5275269-5.2851524,3.038578-7.9367104,4.5421257
		c-0.1884232,0.1068459-0.4283333,0.1728477-0.644516,0.1733856c-4.0340462,0.0101242-8.0681324,0.01091-12.1021557-0.0027847
		c-0.2029896-0.0006866-0.4513435-0.0999298-0.6011353-0.2375641c-1.5811214-1.4527702-3.14147-2.9281387-4.7217445-4.3818474
		c-0.2305679-0.212101-0.2628021-0.3894386-0.1630325-0.6729965c0.6701431-1.9046135,1.3277416-3.8136711,1.9792919-5.7247391
		c0.0818233-0.239994,0.1578426-0.3875961,0.463068-0.386692c3.834631,0.0113716,7.6693077,0.0076904,11.503973,0.0088615
		C35.263134,45.1907883,35.3228416,45.2034569,35.4584122,45.2188187z M28.8270397,37.2744522
		c0.0720634-0.1911201,0.1274338-0.3276825,0.1754284-0.4667854c0.9478264-2.7470474,1.9004898-5.4924583,2.8347397-8.2441196
		c0.1166725-0.3436413,0.3024902-0.567091,0.6116676-0.7488022c2.1521912-1.2648907,4.2924995-2.5500259,6.4468231-3.8112392
		c0.2233658-0.1307678,0.513298-0.2071152,0.7727203-0.2080841c3.573494-0.0133362,7.1470566-0.0090122,10.7206039-0.0090199
		c0.1725655,0,0.3451271,0,0.641716,0c-0.3641777-0.3630562-0.6030235-0.6434116-0.8863831-0.8674717
		c-0.1644325-0.130022-0.4001274-0.2387314-0.6042252-0.2395496c-3.5581474-0.0142555-7.1163788-0.0128632-10.6745644-0.0036068
		c-0.2033043,0.0005283-0.4319572,0.0542469-0.605648,0.1565151c-2.2440071,1.3212395-4.4816704,2.6532955-6.7148647,3.9927406
		c-0.1453629,0.0871887-0.2979603,0.2371826-0.3516636,0.3912582c-1.0519886,3.0181313-2.091856,6.0405025-3.1227055,9.0659237
		c-0.0398674,0.1170044-0.0129566,0.3166389,0.0653801,0.4021912C28.3282814,36.8943405,28.568779,37.06007,28.8270397,37.2744522z
		 M32.7402344,52.3787689c1.6078606,0,3.1238518-0.0135689,4.6392822,0.0096054
		c0.3757477,0.0057449,0.5246239-0.1199913,0.6429825-0.4688339c1.0166588-2.9964371,2.055645-5.9852905,3.0861855-8.9770241
		c0.0521355-0.1513481,0.087925-0.3083305,0.1328964-0.4683037c-1.0348167-0.1665993-1.0336761-0.1662064-1.3386917,0.7176208
		c-0.8825951,2.5574265-1.7706947,5.1129723-2.643074,7.6738815c-0.0970726,0.2849655-0.2082977,0.4074326-0.5357323,0.3996353
		c-1.0876579-0.0259132-2.1764069-0.0163651-3.2644768-0.0014572c-0.1383705,0.0018959-0.3454437,0.0804138-0.3989639,0.1854553
		C32.9250908,51.7153893,32.8587837,52.0167198,32.7402344,52.3787689z M33.7012711,46.5247116
		c-0.1063271-0.0230179-0.1632233-0.0460739-0.2201424-0.0461197c-2.9910965-0.0022736-5.982214-0.0062904-8.9732285,0.009449
		c-0.1282558,0.0006714-0.3263168,0.1602898-0.3723488,0.2887039c-0.469656,1.3101997-0.9187279,2.6278801-1.3591938,3.9482613
		c-0.0401115,0.1202469-0.0312939,0.3175888,0.0426731,0.4033241c0.1949177,0.2259254,0.4382477,0.4100838,0.7015915,0.6460838
		c0.4402142-1.2737122,0.8778896-2.4809875,1.2677116-3.7035179c0.1190014-0.3732071,0.2853565-0.4818764,0.6685791-0.4790802
		c2.4847851,0.0181465,4.9697819,0.0121613,7.4546661,0.0026283c0.1610336-0.000618,0.40662-0.0498314,0.4658928-0.1574173
		C33.5277443,47.1642609,33.5943756,46.8454094,33.7012711,46.5247116z M37.8982544,37.4737511
		c2.7932434,0.2088242,5.5475578,0.4147415,8.3018684,0.6206589c-0.2315216-0.3369713-0.5273781-0.5696945-0.791626-0.8340187
		c-0.2524185-0.2524872-0.5270691-0.3617172-0.890625-0.3838043c-1.7883606-0.1086349-3.5747032-0.2502556-5.3619728-0.3772316
		C38.0842552,36.4232216,38.2583961,36.1866226,37.8982544,37.4737511z M43.929409,31.4875641
		c0.3541641,0,0.6402931,0.0119267,0.9243202-0.0073013c0.0846939-0.0057335,0.2117844-0.0815468,0.237751-0.1543789
		c0.4142647-1.1619282,0.8152618-2.3285847,1.2473602-3.5751686c-0.3598518,0-0.6461983-0.0165367-0.928627,0.0094566
		c-0.092144,0.008482-0.2219887,0.1107407-0.253437,0.1990204C44.7474365,29.108263,44.3527145,30.2625427,43.929409,31.4875641z"/>
	<path class="st10" d="M52.2869339,38.73452c-1.6939201-1.4713631-3.3183556-2.8823738-5.0202103-4.3606262
		c2.2213402,0,4.3285294,0,6.5155487,0C53.2881851,35.8147202,52.8019524,37.2326469,52.2869339,38.73452z"/>
</g>
</svg>
