<?xml version="1.0" encoding="UTF-8"?>
<svg width="78px" height="78px" viewBox="0 0 78 78" version="1.1" xmlns="http://www.w3.org/2000/svg" xmlns:xlink="http://www.w3.org/1999/xlink">
    <!-- Generator: Sketch 56.3 (81716) - https://sketch.com -->
    <title>Artboard</title>
    <desc>Created with Sketch.</desc>
    <g id="Artboard" stroke="none" stroke-width="1" fill="none" fill-rule="evenodd">
        <g id="shu" transform="translate(0.000000, 23.000000)" fill="#65C086" fill-rule="nonzero">
            <path d="M30.4478571,4.69857143 C30.7542857,3.79785714 31.1257143,2.91571429 31.3578571,1.99642857 C31.5807143,1.11428571 32.045,0.845 32.955,0.853835577 C37.3842857,0.900714286 41.8228571,0.872857143 46.2521429,0.872857143 C56.2435714,0.872857143 66.2442857,0.872857143 76.2357143,0.872857143 C76.7185714,0.872857143 77.2107143,0.872857143 77.8792857,0.872857143 C76.8114286,3.97428571 75.8085714,6.88071429 74.815,9.79642857 C72.9485714,15.2378571 71.0635714,20.6792857 69.225,26.13 C68.9371429,26.9842857 68.4728571,27.5228571 67.6742857,27.9407143 C65.26,29.185 63.0221429,30.9957143 60.4778571,31.6642857 C57.9707143,32.3142857 55.1664286,31.785 52.4921429,31.8778571 C51.2942857,31.915 50.3285714,31.6178571 49.4185714,30.8285714 C48.3507143,29.9 47.1807143,29.0921429 45.9735714,28.1728571 C45.6021429,29.2314286 45.2957143,30.225 44.8778571,31.1721429 C44.7478571,31.4692857 44.3207143,31.8314286 44.0235714,31.8314286 C36.5021429,31.85 28.9714286,31.8221429 21.45,31.8035714 C21.4128571,31.8035714 21.3757143,31.7757143 21.2085714,31.7014286 C21.5521429,30.6242857 21.8957143,29.5378571 22.3042857,28.2657143 C20.4007143,29.3521429 18.6642857,30.3828571 16.8814286,31.33 C16.3242857,31.6271429 15.6371429,31.8314286 15.015,31.8407143 C11.96,31.8964286 8.905,31.8964286 5.85928571,31.8314286 C5.265,31.8221429 4.56857143,31.5435714 4.10428571,31.1628571 C2.85071429,30.1228571 1.66214286,28.9992857 0.529285714,27.8292857 C0.241428571,27.5321429 0.0928571429,26.8728571 0.204285714,26.4735714 C0.761428571,24.5978571 1.45785714,22.7592857 2.06142857,20.8928571 C2.275,20.215 2.63714286,20.0014286 3.33357143,20.02 C5.2,20.0664286 7.06642857,20.0385714 9.25785714,20.0385714 C7.67,18.6828571 6.36071429,17.485 4.95857143,16.3985714 C4.26214286,15.86 4.20642857,15.3771429 4.49428571,14.6064286 C5.46,11.9414286 6.31428571,9.23928571 7.30785714,6.58357143 C7.53071429,5.98 8.02285714,5.36714286 8.56142857,5.01428571 C10.5671429,3.72357143 12.6192857,2.535 14.69,1.34642857 C15.1357143,1.08642857 15.6928571,0.919285714 16.2035714,0.91 C19.2585714,0.872857143 22.3135714,0.863571429 25.3592857,0.919285714 C25.87,0.928571429 26.5014286,1.20714286 26.8635714,1.56928571 C27.95,2.665 28.9342857,3.86285714 29.965,5.01428571 C30.1228571,4.90285714 30.29,4.80071429 30.4478571,4.69857143 Z M38.2292857,13.39 C39.5107143,9.65714286 40.755,5.99857143 42.0457143,2.23785714 C39.2042857,2.23785714 36.4928571,2.275 33.7814286,2.21928571 C32.9364286,2.20071429 32.5742857,2.45142857 32.2957143,3.26857143 C29.6585714,11.0407143 26.9657143,18.8035714 24.2914286,26.5664286 C23.8457143,27.8478571 23.4092857,29.1292857 22.9264286,30.55 C25.8514286,30.55 28.5721429,30.5128571 31.2835714,30.5685714 C32.11,30.5871429 32.4164286,30.29 32.6671429,29.5285714 C33.6885714,26.3992857 34.7842857,23.2978571 35.8614286,20.1778571 C36.3907143,18.6364286 36.4835714,18.5992857 38.3407143,18.98 C37.0314286,22.7964286 35.7314286,26.6128571 34.4035714,30.4942857 C37.5978571,30.4942857 40.6807143,30.4942857 43.7821429,30.4942857 C47.0135714,21.1064286 50.2357143,11.7371429 53.5042857,2.23785714 C50.4678571,2.23785714 47.6264286,2.21 44.7942857,2.275 C44.4692857,2.28428571 43.9864286,2.76714286 43.8564286,3.12928571 C42.77,6.11 41.6742857,9.08142857 40.755,12.1085714 C40.3464286,13.4735714 39.6592857,13.8078571 38.2292857,13.39 Z M56.6707143,25.1457143 C59.2985714,17.5035714 61.8985714,9.93571429 64.545,2.23785714 C61.3785714,2.23785714 58.4535714,2.21928571 55.5378571,2.26571429 C55.25,2.275 54.795,2.62785714 54.6928571,2.925 C52.0278571,10.5578571 49.3814286,18.2 46.7907143,25.8514286 C46.6792857,26.1857143 46.8928571,26.8264286 47.1807143,27.0864286 C48.1092857,27.9221429 49.1864286,28.5907143 50.1242857,29.4171429 C51.1178571,30.29 52.2228571,30.4571429 53.5228571,30.5964286 C58.3421429,31.1071429 62.6878571,30.0207143 66.5785714,27.17 C67.1635714,26.7428571 67.7857143,26.13 68.0271429,25.4707143 C69.8285714,20.4471429 71.5278571,15.3957143 73.2642857,10.3535714 C74.1835714,7.68857143 75.1028571,5.02357143 76.0685714,2.23785714 C73.0507143,2.23785714 70.2092857,2.20071429 67.3771429,2.28428571 C67.0242857,2.29357143 66.5042857,2.83214286 66.365,3.22214286 C63.9692857,10.0657143 61.5642857,16.9092857 59.2892857,23.79 C58.8157143,25.2014286 58.1471429,25.5728571 56.6707143,25.1457143 Z M18.525,11.2914286 C21.4407143,11.2914286 24.2357143,11.31 27.0307143,11.2542857 C27.3092857,11.245 27.7085714,10.8364286 27.8292857,10.5207143 C28.3028571,9.32285714 28.7392857,8.09714286 29.0828571,6.86214286 C29.185,6.50928571 29.0828571,5.95214286 28.8414286,5.69214286 C27.8571429,4.615 26.7892857,3.60285714 25.7214286,2.60928571 C25.5078571,2.405 25.1457143,2.25642857 24.8485714,2.24714286 C19.5278571,2.10785714 14.1142857,1.57857143 9.72214286,5.61785714 C9.60142857,5.72928571 9.41571429,5.77571429 9.30428571,5.88714286 C9.035,6.18428571 8.68214286,6.47214286 8.56142857,6.83428571 C7.67928571,9.30428571 6.81571429,11.7835714 6.02642857,14.2814286 C5.915,14.625 6.11928571,15.2285714 6.38857143,15.4885714 C7.44714286,16.4914286 8.56142857,17.4478571 9.73142857,18.33 C10.1957143,18.6735714 10.8271429,18.8964286 11.4028571,18.9707143 C12.7864286,19.1378571 14.1792857,19.1842857 15.7114286,19.2957143 C15.1357143,20.9764286 14.625,22.4714286 14.105,23.9571429 C13.5757143,25.4892857 13.4178571,25.5635714 11.7092857,25.0621429 C12.0807143,23.8921429 12.4521429,22.7314286 12.8607143,21.4128571 C9.71285714,21.4128571 6.76,21.3942857 3.79785714,21.4407143 C3.53785714,21.4407143 3.15714286,21.8121429 3.04571429,22.0907143 C2.48857143,23.5671429 2.00571429,25.0714286 1.47642857,26.6035714 C2.73928571,27.7921429 3.965,28.99 5.24642857,30.1135714 C5.55285714,30.3828571 6.06357143,30.5128571 6.48142857,30.5221429 C8.60785714,30.5592857 10.7528571,30.4385714 12.87,30.5685714 C14.9964286,30.7078571 16.7607143,29.9742857 18.655,29.1014286 C21.8678571,27.625 23.7992857,25.415 24.4864286,21.97 C24.7742857,20.5121429 25.9628571,18.9242857 25.61,17.7357143 C25.2292857,16.4728571 23.5485714,15.5535714 22.3414286,14.6064286 C21.7564286,14.1514286 20.995,13.7985714 20.2614286,13.6778571 C18.8035714,13.4457143 17.3085714,13.4178571 15.7207143,13.2878571 C16.2592857,11.7278571 16.7328571,10.3535714 17.2064286,8.97928571 C17.7914286,7.29857143 17.7914286,7.29857143 19.6857143,7.605 C19.3142857,8.80285714 18.9428571,9.97285714 18.525,11.2914286 Z M22.6757143,12.7771429 C24.0778571,13.9842857 25.2571429,15.0057143 26.5478571,16.1107143 C26.9378571,14.9221429 27.2721429,13.8914286 27.6342857,12.7771429 C25.935,12.7771429 24.4585714,12.7771429 22.6757143,12.7771429 Z" id="Shape"></path>
            <path d="M40.7271429,3.71428571 C40.3185714,3.88142857 39.9192857,4.16928571 39.5014286,4.18785714 C37.7092857,4.24357143 35.9078571,4.20642857 33.9764286,4.20642857 C33.3635714,5.94285714 32.7414286,7.68857143 32.1285714,9.44357143 C29.9464286,15.7764286 27.7735714,22.1185714 25.5821429,28.4607143 C25.3964286,28.99 25.4057143,29.8164286 24.2635714,29.445 C24.5142857,28.7114286 24.765,27.9778571 25.0064286,27.2535714 C27.6342857,19.6114286 30.2714286,11.9785714 32.8621429,4.32714286 C33.1407143,3.50071429 33.4935714,3.12 34.4314286,3.15714286 C36.465,3.24071429 38.5078571,3.185 40.5507143,3.185 C40.6157143,3.36142857 40.6714286,3.53785714 40.7271429,3.71428571 Z" id="Path"></path>
            <path d="M37.2914286,15.0521429 C37.6907143,14.8664286 38.0807143,14.5414286 38.4892857,14.5228571 C40.8757143,14.3835714 40.8757143,14.4114286 41.6557143,12.1364286 C42.5657143,9.49928571 43.5035714,6.87142857 44.3671429,4.21571429 C44.6364286,3.38928571 45.0357143,3.13857143 45.89,3.16642857 C47.9328571,3.23142857 49.9757143,3.185 52.0185714,3.185 C52.0835714,3.32428571 52.1392857,3.45428571 52.2042857,3.59357143 C51.8142857,3.79785714 51.4242857,4.16 51.0157143,4.17857143 C49.4742857,4.24357143 47.9235714,4.24357143 46.3821429,4.18785714 C45.6114286,4.16 45.305,4.43857143 45.0635714,5.15357143 C44.0607143,8.19928571 42.9278571,11.1985714 41.9621429,14.2535714 C41.6371429,15.2935714 41.1357143,15.6371429 40.105,15.535 C39.2414286,15.4514286 38.3592857,15.5164286 37.4864286,15.5164286 C37.4214286,15.3678571 37.3564286,15.21 37.2914286,15.0521429 Z" id="Path"></path>
            <path d="M40.365,18.8221429 C39.2042857,22.2021429 38.0528571,25.5914286 36.855,28.9621429 C36.7528571,29.25 36.335,29.4357143 36.0657143,29.6678571 C35.9542857,29.575 35.8521429,29.4821429 35.7407143,29.3892857 C36.66,26.7242857 37.5792857,24.05 38.4985714,21.385 C38.74,20.6792857 38.9442857,19.9457143 39.2507143,19.2678571 C39.39,18.9521429 39.7614286,18.7478571 40.0307143,18.4971429 C40.1328571,18.5992857 40.2535714,18.7107143 40.365,18.8221429 Z" id="Path"></path>
            <path d="M55.8442857,27.2442857 C56.1692857,26.4271429 56.1692857,26.4271429 59.3728571,26.1857143 C61.4714286,20.1035714 63.57,14.0028571 65.6778571,7.90214286 C66.1235714,6.60214286 66.5321429,5.28357143 67.0335714,4.01142857 C67.1635714,3.67714286 67.6092857,3.24071429 67.925,3.23142857 C70.135,3.16642857 72.345,3.19428571 74.6014286,3.19428571 C74.6942857,4.08571429 74.2392857,4.225 73.5707143,4.21571429 C72.02,4.19714286 70.4785714,4.25285714 68.9278571,4.19714286 C68.1571429,4.16928571 67.8507143,4.45714286 67.6092857,5.17214286 C65.2507143,12.0714286 62.8271429,18.9428571 60.5242857,25.8607143 C60.1342857,27.0214286 59.5864286,27.365 58.4721429,27.2535714 C57.655,27.1792857 56.8192857,27.2442857 55.8442857,27.2442857 Z" id="Path"></path>
            <path d="M63.2542857,3.58428571 C62.8735714,3.78857143 62.5021429,4.16 62.1121429,4.17857143 C60.5242857,4.24357143 58.9364286,4.26214286 57.3578571,4.18785714 C56.4571429,4.15071429 56.0578571,4.44785714 55.7607143,5.31142857 C53.4578571,12.1271429 51.09,18.9335714 48.75,25.7307143 C48.6664286,25.9628571 48.5828571,26.1857143 48.49,26.4364286 C47.4035714,26.2321429 47.8214286,25.5821429 48.0071429,25.0435714 C50.0035714,19.2214286 52,13.39 54.0242857,7.57714286 C54.5257143,6.12857143 54.7114286,4.18785714 55.7421429,3.42642857 C56.7264286,2.70214286 58.63,3.21285714 60.125,3.19428571 C61.1185714,3.185 62.1121429,3.19428571 63.115,3.19428571 C63.1521429,3.315 63.1985714,3.45428571 63.2542857,3.58428571 Z" id="Path"></path>
            <path d="M7.27071429,14.9221429 C7.215,14.5507143 7.02,14.1328571 7.12214286,13.8078571 C7.83714286,11.5885714 8.60785714,9.37857143 9.39714286,7.18714286 C9.50857143,6.87142857 9.83357143,6.61142857 10.0842857,6.36071429 C10.2328571,6.22142857 10.4557143,6.15642857 10.6042857,6.02642857 C14.5971429,2.405 19.5092857,3.16642857 24.2542857,3.22214286 C24.635,3.22214286 25.0157143,3.64928571 25.3964286,3.88142857 C25.35,3.99285714 25.3035714,4.10428571 25.2664286,4.20642857 C22.7778571,4.20642857 20.28,4.25285714 17.7914286,4.18785714 C16.5285714,4.15071429 15.5071429,4.57785714 14.3742857,5.08857143 C11.2728571,6.49071429 9.26714286,8.61714286 8.68214286,12.0435714 C8.515,13.0092857 8.03214286,13.9285714 7.69785714,14.8664286 C7.56785714,14.885 7.41928571,14.9035714 7.27071429,14.9221429 Z" id="Path"></path>
            <path d="M10.7621429,26.7521429 C11.1521429,26.585 11.5421429,26.2971429 11.9414286,26.2785714 C14.2907143,26.1671429 14.2907143,26.195 15.0428571,23.9942857 C15.5164286,22.62 15.9807143,21.2364286 16.5007143,19.8807143 C16.6307143,19.5371429 16.9742857,19.2771429 17.225,18.9707143 C17.355,19.0635714 17.4942857,19.1471429 17.6242857,19.24 C17.4107143,19.9364286 17.2157143,20.6328571 16.9835714,21.32 C16.4078571,23.0192857 15.8692857,24.7185714 15.2007143,26.3807143 C15.0521429,26.7614286 14.4857143,27.1514286 14.0771429,27.1978571 C13.0557143,27.3185714 12.0064286,27.235 10.9664286,27.235 C10.9014286,27.0771429 10.8271429,26.91 10.7621429,26.7521429 Z" id="Path"></path>
            <path d="M4.58714286,23.3442857 C4.16928571,24.4771429 3.78857143,25.5264286 3.40785714,26.5664286 C3.24071429,26.5292857 3.12928571,26.5385714 3.09214286,26.4828571 C2.21,25.2664286 3.42642857,24.3564286 3.60285714,23.2885714 C3.65857143,22.9357143 4.19714286,22.3971429 4.52214286,22.3878571 C6.80642857,22.3042857 9.09071429,22.3414286 11.4028571,22.3414286 C11.6071429,23.3442857 11.0035714,23.3442857 10.4092857,23.3442857 C8.49642857,23.3442857 6.58357143,23.3442857 4.58714286,23.3442857 Z" id="Path"></path>
            <path d="M21.4407143,15.6742857 C19.3142857,15.5257143 17.1785714,15.3678571 14.7271429,15.1914286 C15.1264286,14.7457143 15.3771429,14.2814286 15.5257143,14.3092857 C17.4942857,14.755 19.7507143,13.8728571 21.4407143,15.6742857 Z" id="Path"></path>
            <path d="M19.6485714,10.27 C20.475,9.23928571 20.0385714,7.71642857 21.5428571,7.15928571 C21.5521429,9.04428571 20.9021429,10.2421429 19.6485714,10.27 Z" id="Path"></path>
        </g>
    </g>
</svg>