<?xml version="1.0" encoding="utf-8"?>
<!-- Generator: Adobe Illustrator 23.0.6, SVG Export Plug-In . SVG Version: 6.00 Build 0)  -->
<svg version="1.1" id="Layer_1" xmlns="http://www.w3.org/2000/svg" xmlns:xlink="http://www.w3.org/1999/xlink" x="0px" y="0px"
	 viewBox="0 0 100 100" style="enable-background:new 0 0 100 100;" xml:space="preserve">
<style type="text/css">
	.st0{fill:#63C083;}
	.st1{fill:#75C275;}
	.st2{fill:#65C086;}
	.st3{fill:none;stroke:#65C086;stroke-miterlimit:10;}
</style>
<g id="nV1XtI_1_">
	<g>
		<path class="st2" d="M56.75,66.66c-0.08,0.01-0.11,0.01-0.14,0.01c-3.27,0.57-6.52,0.39-9.73-0.41c-0.29-0.07-0.52-0.05-0.78,0.1
			c-1.48,0.82-3.03,1.42-4.74,1.48c-0.2,0.01-0.26,0.1-0.27,0.27c-0.02,0.34-0.05,0.68-0.07,1.02c-0.02,0.6-0.04,1.19-0.05,1.79
			c0,0.31-0.12,0.41-0.44,0.4c-3.37-0.02-6.74-0.01-10.11-0.02c-0.13,0-0.26,0-0.39,0c0,3.93,0,7.81,0,11.68
			c12.93,0,25.83,0,38.72,0c0.01-0.04,0.02-0.05,0.02-0.06c0-3.74,0.01-7.49,0-11.23c0-0.08-0.12-0.2-0.21-0.24
			c-0.1-0.04-0.23-0.02-0.35-0.02c-3.68,0-7.36,0-11.04,0c-0.31,0-0.43-0.07-0.42-0.41c0.02-1,0.01-2.01,0.01-3.01
			C56.75,67.58,56.75,67.14,56.75,66.66z M84.04,14.35c-0.15,0-0.27,0-0.4,0c-9.04,0-18.09,0-27.13,0c-0.5,0-0.58,0.08-0.58,0.57
			c0,3,0,5.99,0,8.99c0,0.45,0,0.45,0.45,0.45c2.18,0,4.35,0,6.53,0.01c0.12,0,0.24,0,0.42,0c-0.1,0.18-0.16,0.29-0.22,0.4
			c-1.5,2.51-2.99,5.02-4.49,7.52c-0.12,0.2-0.15,0.38-0.09,0.6c0.22,0.75,0.72,1.32,1.25,1.86c0.04,0.04,0.11,0.06,0.17,0.08
			c0.76,0.23,1.4,0.66,1.97,1.21c0.36,0.35,0.6,0.67,0.42,1.25c-0.21,0.7,0.11,1.08,0.83,1.23c0.24,0.05,0.49,0.07,0.73,0.09
			c0.79,0.08,1.58,0.16,1.97,1.06c0.1-0.14,0.18-0.25,0.25-0.35c3.37-4.93,6.73-9.86,10.09-14.79c0.13-0.19,0.26-0.27,0.49-0.27
			c2.3,0,4.61-0.01,6.91-0.01c0.14,0,0.27,0,0.42,0C84.04,20.93,84.04,17.67,84.04,14.35z M40.39,14.35c-0.19,0-0.33,0-0.46,0
			c-8.5,0-17,0-25.5,0c-0.1,0-0.2-0.02-0.29,0.01c-0.23,0.07-0.42,0.15-0.42,0.46c0,3.04-0.02,6.08-0.03,9.12
			c0,0.09,0.01,0.18,0.02,0.28c0.09,0.01,0.16,0.02,0.22,0.02c2.4,0.01,4.8,0.02,7.2,0.01c0.27,0,0.42,0.09,0.57,0.31
			c2.66,3.88,5.33,7.75,7.99,11.62c0.09,0.13,0.18,0.26,0.28,0.39c0.06-0.04,0.11-0.06,0.16-0.09c1.41-0.9,2.7-1.94,3.85-3.16
			c1.1-1.18,2.03-2.47,2.56-4.01c0.05-0.15,0.04-0.37-0.04-0.5c-0.31-0.53-0.66-1.05-0.98-1.57c-0.41-0.66-0.82-1.32-1.2-2
			c-0.16-0.29-0.24-0.62-0.37-0.99c0.19,0,0.31,0,0.42,0c1.89,0,3.78-0.02,5.66-0.01c0.3,0,0.37-0.09,0.37-0.38
			c-0.01-3.05-0.01-6.1-0.01-9.15C40.39,14.61,40.39,14.51,40.39,14.35z M85.77,12.88c0,0.19,0,0.33,0,0.48c0,3.99,0,7.98,0,11.97
			c0,0.5,0,0.5-0.5,0.5c-2.56,0-5.12,0-7.68,0c-0.19,0-0.33,0.02-0.46,0.21c-3.41,5.04-6.84,10.07-10.25,15.11
			c-0.47,0.69-0.34,1.43,0.33,2c0.07-0.1,0.15-0.21,0.22-0.31c3.45-5.09,6.9-10.18,10.35-15.28c0.15-0.22,0.3-0.31,0.57-0.31
			c2.84,0,5.67-0.01,8.51-0.02c0.13,0,0.27,0,0.43,0c0-5.31,0-10.58,0-15.85c-11.52,0-23.02,0-34.54,0
			c-0.01,0.11-0.02,0.19-0.02,0.27c0.01,5.01,0.03,10.03,0.04,15.04c0,0.39,0.18,0.56,0.56,0.56c1.39,0,2.77,0,4.16,0
			c0.23,0,0.39,0.05,0.48,0.28c-0.03,0.06-0.06,0.11-0.1,0.17c-0.58,0.91-1.16,1.81-1.73,2.73c-0.23,0.36-0.16,0.59,0.22,0.77
			c0.12,0.05,0.24,0.09,0.36,0.12c0.51,0.14,0.52,0.14,0.8-0.3c0.09-0.13,0.17-0.27,0.26-0.4c0.89-1.44,1.77-2.89,2.65-4.34
			c0.07-0.11,0.06-0.27,0.1-0.46c-2.09,0-4.12,0-6.16,0c0-4.33,0-8.63,0-12.94C64.83,12.88,75.27,12.88,85.77,12.88z M43.4,27.23
			c0-5.32,0-10.58,0-15.88c-0.14,0-0.27,0-0.39,0c-4.7,0-9.41,0-14.11,0c-5.9,0-11.8,0-17.69,0c-0.47,0-0.51,0.04-0.51,0.5
			c-0.01,5.02-0.01,10.05-0.02,15.07c0,0.13,0,0.27,0,0.42c0.17,0,0.28,0,0.4,0c2.84,0,5.67,0.01,8.51,0c0.32,0,0.51,0.09,0.7,0.36
			c2.26,3.38,4.53,6.74,6.8,10.11c0.23,0.34,0.46,0.69,0.7,1.04c0.32-0.17,0.62-0.34,0.91-0.5c0.05-0.02,0.09-0.06,0.14-0.1
			c-0.05-0.08-0.08-0.16-0.13-0.23c-2.61-3.96-5.22-7.92-7.82-11.89c-0.11-0.17-0.24-0.2-0.42-0.2c-2.51,0-5.01-0.01-7.52-0.02
			c-0.26,0-0.53,0-0.8,0c-0.01-0.14-0.02-0.22-0.02-0.31c0-4.13,0-8.26,0-12.38c0-0.28,0.08-0.4,0.38-0.39c1,0.02,2,0.01,3.01,0.01
			c8.68,0.01,17.36,0.01,26.05,0.02c0.13,0,0.27,0,0.39,0c0,4.31,0,8.56,0,12.84c-1.81,0-3.58,0-5.39,0
			c0.18,0.31,0.32,0.6,0.49,0.86c0.31,0.46,0.6,0.94,0.98,1.33c0.45,0.47,1.09,0.54,1.62,0.27c0-0.04,0.01-0.09-0.01-0.12
			c-0.07-0.13-0.14-0.26-0.21-0.39c-0.15-0.29-0.08-0.42,0.24-0.42c0.75-0.01,1.49,0,2.24,0C42.4,27.23,42.89,27.23,43.4,27.23z"/>
		<path class="st2" d="M26.85,85.96c-0.01-0.13-0.02-0.25-0.02-0.38c0-5.57,0-11.13,0-16.7c0-0.14,0-0.27,0-0.43
			c3.65,0,7.26,0,10.86,0c0.21-0.53,0.3-0.59,0.86-0.6c0.07,0,0.15,0,0.22,0c0.52,0,0.67,0.17,0.62,0.7
			c-0.02,0.21-0.08,0.42-0.11,0.63c-0.03,0.2-0.03,0.4-0.05,0.64c-3.63,0-7.27,0-10.94,0c-0.02,0.2-0.04,0.36-0.04,0.53
			c0,4.58,0,9.15,0,13.73c0,0.37,0.15,0.52,0.51,0.53c0.34,0,0.68,0,1.02,0c13.35,0,26.7,0,40.06,0c0.6,0,0.52,0.05,0.52-0.51
			c-0.01-4.51-0.02-9.02-0.03-13.53c0-0.14,0-0.28,0-0.46c-3.95,0-7.88,0-11.84,0c-0.01-0.13-0.03-0.22-0.03-0.31
			c0-1.09,0.01-2.18,0-3.26c0-0.22,0.07-0.35,0.26-0.42c0.34-0.12,0.68-0.22,1.08-0.35c0.04,0.3,0.09,0.53,0.1,0.77
			c0.01,0.34-0.01,0.68,0,1.02c0.01,0.2,0.04,0.41,0.1,0.59c0.09,0.27,0.26,0.42,0.59,0.41c3.53-0.01,7.06-0.01,10.59-0.01
			c0.14,0,0.27,0,0.45,0c0.01,0.15,0.02,0.29,0.02,0.42c0.01,5.52,0.02,11.05,0.03,16.57c0,0.14,0.02,0.28,0.02,0.41
			C56.76,85.96,41.8,85.96,26.85,85.96z"/>
		<path class="st2" d="M56.75,66.66c0,0.47,0,0.92,0,1.37c0,1,0.02,2.01-0.01,3.01c-0.01,0.34,0.11,0.41,0.42,0.41
			c3.68-0.01,7.36-0.01,11.04,0c0.12,0,0.25-0.03,0.35,0.02c0.09,0.04,0.21,0.16,0.21,0.24c0.01,3.74,0,7.49,0,11.23
			c0,0.01-0.01,0.02-0.02,0.06c-12.89,0-25.79,0-38.72,0c0-3.87,0-7.74,0-11.68c0.12,0,0.25,0,0.39,0c3.37,0,6.74,0,10.11,0.02
			c0.33,0,0.44-0.1,0.44-0.4c0.01-0.6,0.03-1.19,0.05-1.79c0.01-0.34,0.04-0.68,0.07-1.02c0.01-0.17,0.07-0.27,0.27-0.27
			c1.71-0.06,3.27-0.66,4.74-1.48c0.26-0.15,0.49-0.17,0.78-0.1c3.22,0.8,6.46,0.99,9.73,0.41C56.63,66.67,56.66,66.67,56.75,66.66z
			"/>
		<path class="st2" d="M32.93,38.06c-0.39-0.29-0.71-0.49-0.98-0.74c-0.32-0.28-0.3-0.34,0.03-0.6c1.9-1.47,3.64-3.1,4.95-5.13
			c0.31-0.47,0.54-0.99,0.83-1.47c0.07-0.13,0.2-0.26,0.33-0.31c0.69-0.28,1.39-0.25,2.05,0.08c0.62,0.31,1.19,0.71,1.79,1.05
			c0.69,0.4,1.38,0.81,2.09,1.16c0.54,0.27,1.08,0.25,1.68-0.02c3.38-1.49,6.75-1.63,10.06,0.23c1,0.56,1.82,1.29,2.27,2.39
			c0.14,0.33,0.36,0.63,0.58,0.91c0.24,0.32,0.59,0.51,1,0.5c0.74-0.03,1.18,0.4,1.57,0.93c0.29,0.4,0.38,0.85,0.22,1.33
			c-0.08,0.24-0.15,0.49-0.21,0.74c-0.08,0.35,0.07,0.56,0.43,0.59c0.2,0.02,0.42,0.03,0.6-0.03c1.33-0.44,2.5,0.49,2.82,1.46
			c0.26,0.78,0.45,1.58,0.71,2.35c0.13,0.38,0.38,0.71,0.52,1.09c0.11,0.31,0.15,0.65,0.18,0.98c0.03,0.33-0.02,0.66,0.29,1
			c0.25-0.25,0.53-0.46,0.72-0.74c0.27-0.38,0.46-0.81,0.69-1.22c0.15-0.27,0.31-0.53,0.48-0.81c0.7,0.52,1.11,1.17,1.33,1.94
			c0.15,0.51,0.24,1.04,0.32,1.56c0.07,0.43,0.2,0.56,0.64,0.59c0.52,0.04,0.51,0.03,0.49,0.56c-0.15,3.63-1.56,6.77-3.77,9.59
			c-1.93,2.47-4.3,4.44-7.06,5.91c-1.41,0.75-2.96,1.14-4.51,1.46c-1.78,0.36-3.59,0.5-5.41,0.34c-1.21-0.11-2.39-0.34-3.51-0.79
			c-0.48-0.19-0.91-0.16-1.3,0.13c-1.11,0.8-2.39,1.15-3.71,1.39c-1.74,0.31-3.47,0.29-5.12-0.42c-2.55-1.09-4.01-3.05-4.53-5.74
			c-0.26-1.33-0.27-2.67-0.1-4.01c0.05-0.44,0.23-0.86,0.39-1.28c0.1-0.26,0.06-0.45-0.09-0.68c-1.79-2.71-3.57-5.43-5.35-8.15
			c-0.62-0.95-1.22-1.93-1.84-2.88c-0.12-0.19-0.12-0.34-0.04-0.53c0.38-0.89,1.04-1.54,1.84-2.03c1.32-0.82,2.64-1.65,4.16-2.07
			C31.94,38.54,32.39,38.29,32.93,38.06z M50.98,46.09c0.36-0.17,0.71-0.37,1.08-0.5c0.71-0.26,1.26-0.71,1.71-1.29
			c0.33-0.43,0.5-0.91,0.42-1.46c-0.02-0.16-0.07-0.26-0.27-0.27c-0.59-0.03-1.19-0.07-1.78-0.13c-0.62-0.06-1.26-0.1-1.6-0.74
			c-0.18-0.33-0.35-0.69-0.42-1.05c-0.06-0.31-0.09-0.72,0.07-0.96c0.25-0.38,0.66-0.66,1.01-0.97c0.06-0.06,0.18-0.08,0.27-0.07
			c0.93,0.03,1.85,0.07,2.78,0.12c1.62,0.07,3.24,0.16,4.86,0.22c0.13,0.01,0.29-0.06,0.39-0.15c0.4-0.34,0.4-0.8,0.27-1.26
			c-0.09-0.3-0.3-0.48-0.62-0.52c-0.7-0.08-1.4-0.17-2.09-0.25c-1.01-0.11-2.01-0.21-3.02-0.34c-0.12-0.02-0.28-0.14-0.33-0.25
			c-0.03-0.07,0.09-0.25,0.19-0.32c0.14-0.1,0.32-0.16,0.49-0.23c0.37-0.15,0.66-0.39,0.85-0.74c0.27-0.5,0.23-0.9-0.13-1.32
			c-0.77-0.91-1.8-1.34-2.95-1.4c-1.03-0.05-2.06,0.02-3.09,0.06c-1.23,0.05-2.39,0.35-3.49,0.91c-0.17,0.09-0.36,0.14-0.53,0.21
			c-0.77,0.29-1.49,0.26-2.17-0.25c-0.51-0.38-1.05-0.73-1.58-1.08c-0.6-0.4-1.24-0.75-1.95-0.93c-0.25-0.06-0.43-0.02-0.6,0.2
			c-0.73,0.93-1.47,1.85-2.24,2.76c-0.69,0.81-1.4,1.6-2.12,2.41c0.28,0.32,0.67,0.47,1.1,0.54c0.81,0.13,1.6,0.11,2.23-0.53
			c0.37-0.38,0.75-0.76,1.08-1.17c0.45-0.55,0.85-1.14,1.28-1.71c1.22,0.43,2.21,1.15,3.11,2c-0.1,0.23-0.23,0.35-0.5,0.38
			c-1.43,0.14-2.72,0.7-3.94,1.4c-1.17,0.66-2.1,1.64-2.78,2.82c-0.85,1.49-1.37,3.06-0.97,4.82c0.06,0.28,0.1,0.59-0.15,0.85
			c-0.6-0.42-0.99-0.99-1.24-1.67c-0.38-1.05-0.39-2.13-0.22-3.22c0.06-0.39,0.16-0.78,0.24-1.19c-0.15,0.03-0.25,0.05-0.36,0.07
			c-1.77,0.42-3.47,1.03-4.92,2.18c-0.2,0.16-0.4,0.33-0.55,0.52c-0.32,0.4-0.33,0.81-0.06,1.23c1.23,1.93,2.47,3.86,3.71,5.79
			c0.67,1.05,1.36,2.08,2.07,3.16c0.68-1.02,1.68-1.67,2.56-2.43c0.28-0.24,0.55-0.5,0.81-0.77c0.31-0.32,0.59-0.67,0.69-1.13
			c0.02-0.1,0.07-0.2,0.14-0.28c0.15-0.19,0.31-0.2,0.47-0.01c0.21,0.25,0.24,0.53,0.12,0.81c-0.24,0.52-0.46,1.06-0.75,1.55
			c-0.5,0.82-1.05,1.6-1.57,2.41c-1.03,1.59-1.4,3.25-0.58,5.05c0.68,1.49,1.7,2.65,3.32,3.09c1.65,0.45,3.3,0.34,4.88-0.33
			c1.82-0.77,3.34-1.98,4.64-3.44c1.12-1.27,2.14-2.63,3.16-3.98c1.15-1.5,2.3-3,3.76-4.22c0.49-0.41,1.04-0.71,1.67-0.82
			c0.54-0.09,1.1-0.16,1.65-0.18c0.88-0.03,1.77,0.02,2.65-0.02c0.55-0.03,1.11-0.1,1.63-0.25c2.02-0.58,2.41-2.83,1.84-4.27
			c-0.14-0.36-0.41-0.6-0.78-0.76c-1.44-0.61-2.89-0.57-4.27,0.09c-1.26,0.6-2.47,1.34-3.68,2.04c-1.04,0.59-2.09,1.15-3.27,1.39
			C52.03,46.42,51.5,46.51,50.98,46.09z M69.39,48.86c-0.74,0-1.44,0.01-2.14,0c-2-0.03-4.01-0.09-6.01-0.08
			c-1.27,0.01-2.52,0.27-3.67,0.84c-1.14,0.56-2.08,1.34-2.66,2.52c-0.61,1.25-1.28,2.48-1.92,3.71c-1.4,2.71-2.88,5.37-4.83,7.74
			c-0.02,0.03-0.03,0.06-0.07,0.16c1.29-0.56,2.15-1.52,3-2.49c0.1,0.04,0.19,0.07,0.28,0.1c1.35,0.48,2.74,0.77,4.18,0.85
			c1.77,0.1,3.42-0.34,4.99-1.11c3.67-1.82,6.24-4.67,7.85-8.41C68.92,51.46,69.26,50.17,69.39,48.86z M57.23,40.05
			c0.01,0.01-0.02-0.02-0.04-0.02c-1.02-0.04-2.04-0.11-3.06-0.09c-0.3,0.01-0.6,0.28-0.86,0.48c-0.08,0.06-0.09,0.28-0.05,0.41
			c0.19,0.57,0.9,0.92,1.48,0.74c0.23-0.07,0.46-0.18,0.66-0.31C55.99,40.86,56.61,40.45,57.23,40.05z M68.91,47.6
			c-0.1-0.71,0.19-1.45-0.2-2.12c-0.65,0.73-1.28,1.44-1.9,2.15C67.47,47.81,68.17,47.8,68.91,47.6z M61.12,40.54
			c-0.64-0.25-1.44,0.26-1.51,0.94C60.59,41.58,60.94,41.37,61.12,40.54z M59.15,40.29c-0.92,0.42-1.89,0.76-2.68,1.42
			C57.61,41.69,58.39,41.01,59.15,40.29z M52.54,39.81c-0.39,0.11-0.67,0.64-0.62,1.05c0.03,0.26,0.18,0.47,0.34,0.48
			C52.07,40.8,52.27,40.33,52.54,39.81z"/>
		<path class="st2" d="M84.04,14.35c0,3.32,0,6.58,0,9.88c-0.15,0-0.28,0-0.42,0c-2.3,0.01-4.61,0.01-6.91,0.01
			c-0.23,0-0.36,0.08-0.49,0.27c-3.36,4.93-6.73,9.86-10.09,14.79c-0.07,0.1-0.15,0.21-0.25,0.35c-0.39-0.9-1.17-0.98-1.97-1.06
			c-0.24-0.02-0.49-0.04-0.73-0.09c-0.73-0.14-1.04-0.53-0.83-1.23c0.17-0.58-0.07-0.9-0.42-1.25c-0.57-0.55-1.21-0.98-1.97-1.21
			c-0.06-0.02-0.13-0.03-0.17-0.08c-0.53-0.54-1.03-1.11-1.25-1.86c-0.07-0.22-0.03-0.4,0.09-0.6c1.5-2.5,3-5.01,4.49-7.52
			c0.06-0.11,0.12-0.22,0.22-0.4c-0.18,0-0.3,0-0.42,0c-2.18,0-4.35,0-6.53-0.01c-0.45,0-0.45,0-0.45-0.45c0-3,0-5.99,0-8.99
			c0-0.49,0.08-0.57,0.58-0.57c9.04,0,18.09,0,27.13,0C83.76,14.35,83.89,14.35,84.04,14.35z"/>
		<path class="st2" d="M40.39,14.35c0,0.15,0,0.26,0,0.36c0,3.05,0,6.1,0.01,9.15c0,0.29-0.07,0.38-0.37,0.38
			c-1.89-0.01-3.77,0-5.66,0.01c-0.11,0-0.23,0-0.42,0c0.13,0.37,0.21,0.7,0.37,0.99c0.38,0.68,0.79,1.34,1.2,2
			c0.32,0.53,0.67,1.04,0.98,1.57c0.08,0.13,0.09,0.35,0.04,0.5c-0.52,1.54-1.45,2.84-2.56,4.01c-1.14,1.22-2.44,2.25-3.85,3.16
			c-0.04,0.03-0.09,0.05-0.16,0.09c-0.1-0.14-0.19-0.26-0.28-0.39c-2.67-3.87-5.33-7.74-7.99-11.62c-0.15-0.22-0.3-0.31-0.57-0.31
			c-2.4,0.01-4.8,0-7.2-0.01c-0.06,0-0.13-0.01-0.22-0.02c-0.01-0.09-0.02-0.18-0.02-0.28c0.01-3.04,0.03-6.08,0.03-9.12
			c0-0.32,0.19-0.4,0.42-0.46c0.09-0.03,0.19-0.01,0.29-0.01c8.5,0,17,0,25.5,0C40.06,14.35,40.2,14.35,40.39,14.35z"/>
		<path class="st2" d="M85.77,12.88c-10.5,0-20.94,0-31.4,0c0,4.31,0,8.6,0,12.94c2.04,0,4.07,0,6.16,0
			c-0.04,0.19-0.03,0.34-0.1,0.46c-0.88,1.45-1.76,2.89-2.65,4.34c-0.08,0.14-0.17,0.27-0.26,0.4c-0.29,0.44-0.29,0.44-0.8,0.3
			c-0.12-0.03-0.25-0.07-0.36-0.12c-0.38-0.18-0.45-0.41-0.22-0.77c0.57-0.91,1.16-1.82,1.73-2.73c0.03-0.05,0.06-0.11,0.1-0.17
			c-0.08-0.23-0.25-0.29-0.48-0.28c-1.39,0.01-2.77,0-4.16,0c-0.38,0-0.55-0.17-0.56-0.56c-0.02-5.01-0.03-10.03-0.04-15.04
			c0-0.08,0.01-0.17,0.02-0.27c11.51,0,23.02,0,34.54,0c0,5.27,0,10.53,0,15.85c-0.16,0-0.3,0-0.43,0
			c-2.84,0.01-5.67,0.02-8.51,0.02c-0.27,0-0.42,0.09-0.57,0.31c-3.45,5.1-6.9,10.19-10.35,15.28c-0.07,0.1-0.15,0.21-0.22,0.31
			c-0.67-0.56-0.8-1.31-0.33-2c3.42-5.04,6.84-10.07,10.25-15.11c0.12-0.18,0.27-0.21,0.46-0.21c2.56,0,5.12,0,7.68,0
			c0.5,0,0.5,0,0.5-0.5c0-3.99,0-7.98,0-11.97C85.77,13.21,85.77,13.06,85.77,12.88z"/>
		<path class="st2" d="M43.4,27.23c-0.51,0-1,0-1.49,0c-0.75,0-1.49,0-2.24,0c-0.33,0-0.4,0.13-0.24,0.42
			c0.07,0.13,0.15,0.26,0.21,0.39c0.02,0.03,0.01,0.08,0.01,0.12c-0.53,0.27-1.18,0.2-1.62-0.27c-0.38-0.4-0.67-0.88-0.98-1.33
			c-0.18-0.26-0.31-0.54-0.49-0.86c1.81,0,3.58,0,5.39,0c0-4.28,0-8.53,0-12.84c-0.12,0-0.26,0-0.39,0
			c-8.68-0.01-17.36-0.01-26.05-0.02c-1,0-2.01,0.01-3.01-0.01c-0.31-0.01-0.38,0.11-0.38,0.39c0.01,4.13,0,8.26,0,12.38
			c0,0.08,0.01,0.17,0.02,0.31c0.27,0,0.54,0,0.8,0c2.51,0.01,5.01,0.01,7.52,0.02c0.18,0,0.31,0.03,0.42,0.2
			c2.6,3.96,5.21,7.92,7.82,11.89c0.05,0.07,0.08,0.15,0.13,0.23c-0.05,0.04-0.09,0.07-0.14,0.1c-0.3,0.16-0.6,0.33-0.91,0.5
			c-0.24-0.35-0.47-0.7-0.7-1.04c-2.27-3.37-4.54-6.73-6.8-10.11c-0.18-0.28-0.38-0.36-0.7-0.36c-2.84,0.01-5.67,0-8.51,0
			c-0.12,0-0.23,0-0.4,0c0-0.15,0-0.28,0-0.42c0-5.02,0.01-10.05,0.02-15.07c0-0.46,0.04-0.5,0.51-0.5c5.9,0,11.8,0,17.69,0
			c4.7,0,9.41,0,14.11,0c0.13,0,0.25,0,0.39,0C43.4,16.65,43.4,21.91,43.4,27.23z"/>
		<path class="st2" d="M50.91,37.19c-0.4,0.46-0.77,0.8-1.05,1.21c-0.51,0.72-0.65,1.54-0.54,2.4c0.02,0.12,0.11,0.25,0.18,0.35
			c0.22,0.3,0.46,0.6,0.69,0.9c-0.02,0.03-0.04,0.07-0.06,0.1c-0.23-0.02-0.47,0.01-0.68-0.05c-0.97-0.32-1.65-0.98-2.09-1.89
			c-0.15-0.31-0.13-0.64,0.02-0.96c0.52-1.15,1.48-1.72,2.66-1.97C50.3,37.22,50.58,37.22,50.91,37.19z"/>
	</g>
</g>
</svg>
