<?xml version="1.0" encoding="utf-8"?>
<!-- Generator: Adobe Illustrator 16.0.4, SVG Export Plug-In . SVG Version: 6.00 Build 0)  -->
<!DOCTYPE svg PUBLIC "-//W3C//DTD SVG 1.1//EN" "http://www.w3.org/Graphics/SVG/1.1/DTD/svg11.dtd">
<svg version="1.1" id="Layer_1" xmlns="http://www.w3.org/2000/svg" xmlns:xlink="http://www.w3.org/1999/xlink" x="0px" y="0px"
	 width="631px" height="86.4px" viewBox="0 0 631 86.4" style="enable-background:new 0 0 631 86.4;" xml:space="preserve">
<style type="text/css">
<![CDATA[
	.st0{fill:#FFFFFF;}
	.st1{opacity:0.87;fill:#231F20;stroke:#231F20;stroke-miterlimit:10;enable-background:new    ;}
]]>
</style>
<rect x="4.6" y="15.9" class="st1" width="619.9" height="54.6"/>
<g>
	<path class="st0" d="M32.6,36.8h1.5V47h-1.5v-4.5h-5.7V47h-1.5V36.8h1.5v4.4h5.7V36.8z"/>
	<path class="st0" d="M41.4,36.6c1.6,0,2.9,0.5,3.9,1.5s1.6,2.3,1.6,3.8s-0.5,2.8-1.6,3.7s-2.4,1.5-4,1.5c-1.5,0-2.8-0.5-3.9-1.5
		c-1-1-1.5-2.2-1.5-3.7c0-1.5,0.5-2.8,1.6-3.8S39.8,36.6,41.4,36.6z M41.4,38c-1.2,0-2.1,0.4-2.9,1.1s-1.1,1.7-1.1,2.8
		c0,1.1,0.4,2,1.1,2.8s1.7,1.1,2.8,1.1c1.1,0,2.1-0.4,2.9-1.1c0.8-0.7,1.1-1.7,1.1-2.8c0-1.1-0.4-2-1.1-2.7
		C43.5,38.4,42.6,38,41.4,38z"/>
	<path class="st0" d="M56.8,36.8h1.4V47h-1.5v-8l-3.1,4h-0.3l-3.2-4v8h-1.5V36.8h1.4l3.4,4.2L56.8,36.8z"/>
	<path class="st0" d="M60.4,36.8h5.8v1.3h-4.3v3.1h4.2v1.3h-4.2v3.2h4.5V47h-5.9V36.8z"/>
	<path class="st0" d="M114.2,44.6v1.6c-1.1,0.6-2.3,0.9-3.7,0.9c-1.1,0-2.1-0.2-2.9-0.7c-0.8-0.5-1.4-1.1-1.9-1.9
		c-0.5-0.8-0.7-1.7-0.7-2.6c0-1.5,0.5-2.7,1.6-3.8c1.1-1,2.4-1.5,3.9-1.5c1.1,0,2.3,0.3,3.6,0.8V39c-1.2-0.7-2.4-1-3.5-1
		c-1.2,0-2.1,0.4-2.9,1.1c-0.8,0.7-1.2,1.7-1.2,2.8c0,1.1,0.4,2,1.1,2.8s1.7,1.1,2.9,1.1C111.9,45.8,113.1,45.4,114.2,44.6z"/>
	<path class="st0" d="M116.1,36.8h1.5v8.9h4.6V47h-6.1V36.8z"/>
	<path class="st0" d="M126.7,36.7h1l4.6,10.3h-1.5l-1.4-3h-4.4l-1.3,3h-1.5L126.7,36.7z M128.8,42.7l-1.7-3.7l-1.5,3.7H128.8z"/>
	<path class="st0" d="M135.9,42.7l-1.1-0.7c-0.7-0.4-1.2-0.8-1.5-1.3c-0.3-0.4-0.4-0.9-0.4-1.4c0-0.8,0.3-1.5,0.8-2
		c0.6-0.5,1.3-0.8,2.2-0.8c0.9,0,1.6,0.2,2.4,0.7V39c-0.7-0.7-1.5-1.1-2.4-1.1c-0.5,0-0.9,0.1-1.2,0.3c-0.3,0.2-0.5,0.5-0.5,0.9
		c0,0.3,0.1,0.6,0.3,0.9s0.6,0.5,1.1,0.8l1.1,0.7c1.2,0.7,1.9,1.7,1.9,2.8c0,0.8-0.3,1.5-0.8,2c-0.5,0.5-1.3,0.8-2.1,0.8
		c-1,0-1.9-0.3-2.8-0.9v-1.9c0.8,1,1.7,1.5,2.7,1.5c0.5,0,0.8-0.1,1.1-0.4c0.3-0.3,0.5-0.6,0.5-1C137.3,43.9,136.8,43.3,135.9,42.7z
		"/>
	<path class="st0" d="M142.8,42.7l-1.1-0.7c-0.7-0.4-1.2-0.8-1.5-1.3c-0.3-0.4-0.4-0.9-0.4-1.4c0-0.8,0.3-1.5,0.8-2
		c0.6-0.5,1.3-0.8,2.2-0.8c0.9,0,1.6,0.2,2.4,0.7V39c-0.7-0.7-1.5-1.1-2.4-1.1c-0.5,0-0.9,0.1-1.2,0.3c-0.3,0.2-0.5,0.5-0.5,0.9
		c0,0.3,0.1,0.6,0.3,0.9s0.6,0.5,1.1,0.8l1.1,0.7c1.2,0.7,1.9,1.7,1.9,2.8c0,0.8-0.3,1.5-0.8,2c-0.5,0.5-1.3,0.8-2.1,0.8
		c-1,0-1.9-0.3-2.8-0.9v-1.9c0.8,1,1.7,1.5,2.7,1.5c0.5,0,0.8-0.1,1.1-0.4c0.3-0.3,0.5-0.6,0.5-1C144.2,43.9,143.7,43.3,142.8,42.7z
		"/>
	<path class="st0" d="M147.1,36.8h5.8v1.3h-4.3v3.1h4.2v1.3h-4.2v3.2h4.5V47h-5.9V36.8z"/>
	<path class="st0" d="M157.2,42.7l-1.1-0.7c-0.7-0.4-1.2-0.8-1.5-1.3c-0.3-0.4-0.4-0.9-0.4-1.4c0-0.8,0.3-1.5,0.8-2
		c0.6-0.5,1.3-0.8,2.2-0.8c0.9,0,1.6,0.2,2.4,0.7V39c-0.7-0.7-1.5-1.1-2.4-1.1c-0.5,0-0.9,0.1-1.2,0.3c-0.3,0.2-0.5,0.5-0.5,0.9
		c0,0.3,0.1,0.6,0.3,0.9s0.6,0.5,1.1,0.8l1.1,0.7c1.2,0.7,1.9,1.7,1.9,2.8c0,0.8-0.3,1.5-0.8,2c-0.5,0.5-1.3,0.8-2.1,0.8
		c-1,0-1.9-0.3-2.8-0.9v-1.9c0.8,1,1.7,1.5,2.7,1.5c0.5,0,0.8-0.1,1.1-0.4c0.3-0.3,0.5-0.6,0.5-1C158.5,43.9,158.1,43.3,157.2,42.7z
		"/>
	<path class="st0" d="M199,47V36.8h3.4c1.4,0,2.5,0.2,3.3,0.6c0.8,0.4,1.5,1,1.9,1.8s0.7,1.7,0.7,2.7c0,0.7-0.1,1.3-0.4,2
		c-0.3,0.6-0.6,1.2-1.1,1.6c-0.5,0.5-1.1,0.9-1.7,1.1c-0.4,0.2-0.7,0.3-1.1,0.3c-0.3,0.1-0.9,0.1-1.8,0.1H199z M202.3,38.1h-1.8v7.6
		h1.9c0.7,0,1.3,0,1.7-0.2c0.4-0.1,0.7-0.2,1-0.4c0.3-0.2,0.5-0.3,0.7-0.6c0.7-0.7,1.1-1.7,1.1-2.8c0-1.1-0.4-2-1.1-2.7
		c-0.3-0.3-0.6-0.5-0.9-0.6c-0.4-0.2-0.7-0.3-1-0.3S203,38.1,202.3,38.1z"/>
	<path class="st0" d="M215.3,36.6c1.6,0,2.9,0.5,3.9,1.5s1.6,2.3,1.6,3.8s-0.5,2.8-1.6,3.7s-2.4,1.5-4,1.5c-1.5,0-2.8-0.5-3.9-1.5
		c-1-1-1.5-2.2-1.5-3.7c0-1.5,0.5-2.8,1.6-3.8S213.7,36.6,215.3,36.6z M215.4,38c-1.2,0-2.1,0.4-2.9,1.1s-1.1,1.7-1.1,2.8
		c0,1.1,0.4,2,1.1,2.8s1.7,1.1,2.8,1.1c1.1,0,2.1-0.4,2.9-1.1c0.8-0.7,1.1-1.7,1.1-2.8c0-1.1-0.4-2-1.1-2.7
		C217.4,38.4,216.5,38,215.4,38z"/>
	<path class="st0" d="M222.7,47V36.8h2.6c1,0,1.9,0.3,2.5,0.8c0.6,0.5,0.9,1.2,0.9,2.1c0,0.6-0.1,1.1-0.4,1.5
		c-0.3,0.4-0.7,0.8-1.3,1c0.3,0.2,0.6,0.5,1,0.9s0.8,1,1.3,1.9c0.4,0.6,0.6,1,0.9,1.3l0.5,0.7h-1.7l-0.4-0.7c0,0,0-0.1-0.1-0.1
		l-0.3-0.4l-0.5-0.7l-0.5-0.8c-0.3-0.4-0.6-0.8-0.8-1c-0.3-0.2-0.5-0.4-0.7-0.5c-0.2-0.1-0.5-0.2-1-0.2h-0.4V47H222.7z M224.6,38
		h-0.4v3.2h0.6c0.7,0,1.3-0.1,1.5-0.2c0.3-0.1,0.5-0.3,0.6-0.6c0.2-0.3,0.2-0.5,0.2-0.9c0-0.3-0.1-0.6-0.3-0.9
		c-0.2-0.3-0.4-0.4-0.7-0.6C225.8,38.1,225.3,38,224.6,38z"/>
	<path class="st0" d="M239.8,36.8h1.4V47h-1.5v-8l-3.1,4h-0.3l-3.2-4v8h-1.5V36.8h1.4l3.4,4.2L239.8,36.8z"/>
	<path class="st0" d="M245.9,42.7l-1.1-0.7c-0.7-0.4-1.2-0.8-1.5-1.3c-0.3-0.4-0.4-0.9-0.4-1.4c0-0.8,0.3-1.5,0.8-2
		c0.6-0.5,1.3-0.8,2.2-0.8c0.9,0,1.6,0.2,2.4,0.7V39c-0.7-0.7-1.5-1.1-2.4-1.1c-0.5,0-0.9,0.1-1.2,0.3c-0.3,0.2-0.5,0.5-0.5,0.9
		c0,0.3,0.1,0.6,0.3,0.9s0.6,0.5,1.1,0.8l1.1,0.7c1.2,0.7,1.9,1.7,1.9,2.8c0,0.8-0.3,1.5-0.8,2c-0.5,0.5-1.3,0.8-2.1,0.8
		c-1,0-1.9-0.3-2.8-0.9v-1.9c0.8,1,1.7,1.5,2.7,1.5c0.5,0,0.8-0.1,1.1-0.4c0.3-0.3,0.5-0.6,0.5-1C247.3,43.9,246.8,43.3,245.9,42.7z
		"/>
	<path class="st0" d="M287.8,36.8h5.5v1.3h-4v2.9h4v1.3h-4V47h-1.5V36.8z"/>
	<path class="st0" d="M299.8,36.6c1.6,0,2.9,0.5,3.9,1.5s1.6,2.3,1.6,3.8s-0.5,2.8-1.6,3.7s-2.4,1.5-4,1.5c-1.5,0-2.8-0.5-3.9-1.5
		c-1-1-1.5-2.2-1.5-3.7c0-1.5,0.5-2.8,1.6-3.8S298.3,36.6,299.8,36.6z M299.9,38c-1.2,0-2.1,0.4-2.9,1.1s-1.1,1.7-1.1,2.8
		c0,1.1,0.4,2,1.1,2.8s1.7,1.1,2.8,1.1c1.1,0,2.1-0.4,2.9-1.1c0.8-0.7,1.1-1.7,1.1-2.8c0-1.1-0.4-2-1.1-2.7
		C301.9,38.4,301,38,299.9,38z"/>
	<path class="st0" d="M312.2,36.6c1.6,0,2.9,0.5,3.9,1.5s1.6,2.3,1.6,3.8s-0.5,2.8-1.6,3.7s-2.4,1.5-4,1.5c-1.5,0-2.8-0.5-3.9-1.5
		c-1-1-1.5-2.2-1.5-3.7c0-1.5,0.5-2.8,1.6-3.8S310.6,36.6,312.2,36.6z M312.2,38c-1.2,0-2.1,0.4-2.9,1.1s-1.1,1.7-1.1,2.8
		c0,1.1,0.4,2,1.1,2.8s1.7,1.1,2.8,1.1c1.1,0,2.1-0.4,2.9-1.1c0.8-0.7,1.1-1.7,1.1-2.8c0-1.1-0.4-2-1.1-2.7
		C314.3,38.4,313.4,38,312.2,38z"/>
	<path class="st0" d="M319.5,47V36.8h3.4c1.4,0,2.5,0.2,3.3,0.6c0.8,0.4,1.5,1,1.9,1.8s0.7,1.7,0.7,2.7c0,0.7-0.1,1.3-0.4,2
		c-0.3,0.6-0.6,1.2-1.1,1.6c-0.5,0.5-1.1,0.9-1.7,1.1c-0.4,0.2-0.7,0.3-1.1,0.3c-0.3,0.1-0.9,0.1-1.8,0.1H319.5z M322.8,38.1H321
		v7.6h1.9c0.7,0,1.3,0,1.7-0.2c0.4-0.1,0.7-0.2,1-0.4c0.3-0.2,0.5-0.3,0.7-0.6c0.7-0.7,1.1-1.7,1.1-2.8c0-1.1-0.4-2-1.1-2.7
		c-0.3-0.3-0.6-0.5-0.9-0.6c-0.4-0.2-0.7-0.3-1-0.3S323.5,38.1,322.8,38.1z"/>
	<path class="st0" d="M368.2,47V36.7h3.2c1,0,1.8,0.3,2.3,0.8c0.6,0.5,0.9,1.2,0.9,2.1c0,0.6-0.1,1.1-0.4,1.6
		c-0.3,0.5-0.7,0.8-1.2,1c-0.5,0.2-1.3,0.3-2.2,0.3h-1.1V47H368.2z M371.2,38.1h-1.5v3.2h1.6c0.6,0,1.1-0.1,1.4-0.4
		c0.3-0.3,0.5-0.7,0.5-1.2C373.1,38.6,372.5,38.1,371.2,38.1z"/>
	<path class="st0" d="M383.1,36.8h1.5V47h-1.5v-4.5h-5.7V47h-1.5V36.8h1.5v4.4h5.7V36.8z"/>
	<path class="st0" d="M386.9,36.8h1.5V47h-1.5V36.8z"/>
	<path class="st0" d="M390.6,36.8h1.5v8.9h4.6V47h-6.1V36.8z"/>
	<path class="st0" d="M398,36.8h1.5v8.9h4.6V47H398V36.8z"/>
	<path class="st0" d="M409.8,36.8h1.8l-3.8,4.8V47h-1.5v-5.4l-3.8-4.8h1.8l2.7,3.5L409.8,36.8z"/>
	<path class="st0" d="M450.2,36.8h5.5v1.3h-4v2.9h4v1.3h-4V47h-1.5V36.8z"/>
	<path class="st0" d="M464.4,36.8h1.5v5.8c0,0.8-0.1,1.4-0.2,1.8c-0.1,0.4-0.3,0.7-0.4,1c-0.2,0.3-0.4,0.5-0.6,0.7
		c-0.8,0.7-1.9,1-3.2,1c-1.3,0-2.4-0.3-3.2-1c-0.2-0.2-0.5-0.5-0.6-0.7c-0.2-0.3-0.3-0.6-0.4-1c-0.1-0.4-0.2-1-0.2-1.8v-5.8h1.5v5.8
		c0,1,0.1,1.6,0.3,2c0.2,0.4,0.6,0.7,1,0.9s1,0.3,1.6,0.3c0.9,0,1.6-0.2,2.1-0.7c0.3-0.2,0.5-0.5,0.6-0.9s0.2-0.9,0.2-1.7V36.8z"/>
	<path class="st0" d="M476,36.8h1.4V47h-1.3l-6.8-7.9V47h-1.4V36.8h1.2l6.9,7.9V36.8z"/>
	<path class="st0" d="M527.1,47h-3.3l-0.8-1.8c-0.3-0.7-0.6-1.1-0.8-1.4c-0.2-0.3-0.5-0.5-0.7-0.6c-0.2-0.1-0.5-0.1-0.9-0.1h-0.3v4
		h-3.1V36.8h5.2c0.8,0,1.5,0.2,2.1,0.5s0.9,0.8,1.2,1.2c0.2,0.5,0.4,1,0.4,1.4c0,0.5-0.1,0.9-0.3,1.3c-0.2,0.4-0.4,0.6-0.6,0.8
		c-0.2,0.2-0.5,0.3-0.7,0.5c0.3,0.2,0.6,0.4,0.8,0.7c0.2,0.3,0.5,0.8,0.9,1.6L527.1,47z M522.9,40.1c0-0.5-0.2-0.8-0.5-1
		c-0.3-0.2-0.8-0.3-1.5-0.3h-0.6v2.4h0.7c0.7,0,1.3-0.1,1.5-0.2C522.8,40.8,522.9,40.5,522.9,40.1z"/>
	<path class="st0" d="M536.1,47h-7.7V36.8h7.5v2h-4.5v1.9h4.3v2h-4.3v2.2h4.6V47z"/>
	<path class="st0" d="M545.3,44c0,0.6-0.2,1.2-0.5,1.6c-0.3,0.5-0.8,0.8-1.4,1.1c-0.6,0.2-1.2,0.4-2,0.4c-0.2,0-0.5,0-0.8,0
		c-0.3,0-0.7-0.1-1.2-0.2c-0.5-0.1-1-0.3-1.6-0.5v-2.5c0.5,0.3,1,0.6,1.5,0.8c0.5,0.2,1,0.3,1.6,0.3c0.5,0,0.9-0.1,1-0.3
		c0.2-0.2,0.2-0.3,0.2-0.5c0-0.3-0.1-0.5-0.4-0.7c-0.3-0.2-0.6-0.4-1.1-0.6c-0.6-0.2-1-0.5-1.5-0.8c-0.4-0.3-0.8-0.6-1-1
		c-0.3-0.4-0.4-0.9-0.4-1.5c0-0.5,0.1-1,0.4-1.5c0.3-0.4,0.7-0.8,1.2-1.1s1.2-0.4,2-0.4c0.6,0,1.1,0.1,1.6,0.2
		c0.5,0.1,0.9,0.2,1.2,0.4s0.5,0.2,0.6,0.3v2.4c-0.4-0.3-0.9-0.6-1.4-0.8c-0.5-0.2-1.1-0.4-1.6-0.4c-0.4,0-0.7,0.1-0.8,0.2
		c-0.2,0.1-0.3,0.3-0.3,0.5c0,0.2,0.1,0.4,0.3,0.5c0.2,0.1,0.5,0.3,0.9,0.5c0.8,0.4,1.4,0.7,1.9,1s0.8,0.6,1.1,1
		C545.1,43,545.3,43.5,545.3,44z"/>
	<path class="st0" d="M558.2,41.9c0,0.9-0.2,1.8-0.7,2.6c-0.4,0.8-1.1,1.4-2,1.9c-0.9,0.5-1.9,0.7-3.2,0.7c-1.3,0-2.3-0.2-3.2-0.7
		s-1.5-1.1-1.9-1.9c-0.4-0.8-0.6-1.6-0.6-2.6c0-0.9,0.2-1.8,0.6-2.6c0.4-0.8,1.1-1.4,1.9-1.9c0.9-0.5,1.9-0.7,3.2-0.7
		c0.9,0,1.8,0.1,2.5,0.4c0.7,0.3,1.3,0.7,1.8,1.1c0.5,0.5,0.8,1,1.1,1.7C558.1,40.5,558.2,41.2,558.2,41.9z M555.1,41.9
		c0-0.4-0.1-0.7-0.2-1c-0.1-0.3-0.3-0.6-0.5-0.8c-0.2-0.2-0.5-0.4-0.8-0.5c-0.3-0.1-0.7-0.2-1.1-0.2c-0.8,0-1.5,0.2-1.9,0.7
		s-0.7,1.1-0.7,1.9s0.2,1.4,0.7,1.9c0.5,0.5,1.1,0.7,1.9,0.7c0.6,0,1-0.1,1.4-0.3s0.7-0.5,0.9-0.9C555,42.9,555.1,42.4,555.1,41.9z"
		/>
	<path class="st0" d="M570.7,42.4c0,0.9-0.2,1.6-0.5,2.2c-0.3,0.6-0.8,1.1-1.3,1.5c-0.5,0.4-1.1,0.6-1.7,0.8
		c-0.6,0.2-1.2,0.2-1.8,0.2c-0.9,0-1.7-0.1-2.5-0.4c-0.8-0.3-1.5-0.8-2-1.5s-0.8-1.6-0.8-2.7v-5.6h3.1v4.8c0,0.7,0.1,1.2,0.3,1.7
		c0.2,0.4,0.5,0.8,0.8,1c0.3,0.2,0.8,0.3,1.2,0.3c0.4,0,0.8-0.1,1.2-0.3c0.3-0.2,0.6-0.5,0.8-1c0.2-0.4,0.3-1,0.3-1.7v-4.8h3.1V42.4
		z"/>
	<path class="st0" d="M582.9,47h-3.3l-0.8-1.8c-0.3-0.7-0.6-1.1-0.8-1.4c-0.2-0.3-0.5-0.5-0.7-0.6c-0.2-0.1-0.5-0.1-0.9-0.1h-0.3v4
		h-3.1V36.8h5.2c0.8,0,1.5,0.2,2.1,0.5s0.9,0.8,1.2,1.2c0.2,0.5,0.4,1,0.4,1.4c0,0.5-0.1,0.9-0.3,1.3c-0.2,0.4-0.4,0.6-0.6,0.8
		c-0.2,0.2-0.5,0.3-0.7,0.5c0.3,0.2,0.6,0.4,0.8,0.7c0.2,0.3,0.5,0.8,0.9,1.6L582.9,47z M578.8,40.1c0-0.5-0.2-0.8-0.5-1
		c-0.3-0.2-0.8-0.3-1.5-0.3h-0.6v2.4h0.7c0.7,0,1.3-0.1,1.5-0.2C578.6,40.8,578.8,40.5,578.8,40.1z"/>
	<path class="st0" d="M593.4,46.2c-0.4,0.2-0.8,0.4-1.3,0.5c-0.4,0.1-0.9,0.2-1.3,0.3c-0.4,0.1-0.9,0.1-1.4,0.1
		c-0.9,0-1.7-0.1-2.4-0.4c-0.7-0.2-1.3-0.6-1.8-1.1c-0.5-0.5-0.9-1-1.2-1.7c-0.3-0.6-0.4-1.3-0.4-2.1c0-0.9,0.2-1.6,0.5-2.3
		c0.3-0.7,0.7-1.2,1.3-1.6c0.5-0.4,1.2-0.8,1.9-1c0.7-0.2,1.4-0.3,2.2-0.3c1.2,0,2.5,0.3,3.9,0.8v2.7c-0.5-0.3-1-0.6-1.5-0.8
		c-0.5-0.2-1.1-0.3-1.7-0.3c-0.6,0-1.1,0.1-1.7,0.4c-0.5,0.2-0.9,0.6-1.2,1s-0.5,0.9-0.5,1.5c0,0.5,0.1,1,0.4,1.4
		c0.3,0.4,0.7,0.8,1.1,1c0.5,0.3,1,0.4,1.6,0.4c0.5,0,1-0.1,1.4-0.2c0.4-0.1,0.8-0.3,1.1-0.4c0.3-0.1,0.6-0.3,0.9-0.5V46.2z"/>
	<path class="st0" d="M603.1,47h-7.7V36.8h7.5v2h-4.5v1.9h4.3v2h-4.3v2.2h4.6V47z"/>
	<path class="st0" d="M612.3,44c0,0.6-0.2,1.2-0.5,1.6c-0.3,0.5-0.8,0.8-1.4,1.1c-0.6,0.2-1.2,0.4-2,0.4c-0.2,0-0.5,0-0.8,0
		c-0.3,0-0.7-0.1-1.2-0.2c-0.5-0.1-1-0.3-1.6-0.5v-2.5c0.5,0.3,1,0.6,1.5,0.8c0.5,0.2,1,0.3,1.6,0.3c0.5,0,0.9-0.1,1-0.3
		c0.2-0.2,0.2-0.3,0.2-0.5c0-0.3-0.1-0.5-0.4-0.7c-0.3-0.2-0.6-0.4-1.1-0.6c-0.6-0.2-1-0.5-1.5-0.8c-0.4-0.3-0.8-0.6-1-1
		c-0.3-0.4-0.4-0.9-0.4-1.5c0-0.5,0.1-1,0.4-1.5c0.3-0.4,0.7-0.8,1.2-1.1s1.2-0.4,2-0.4c0.6,0,1.1,0.1,1.6,0.2
		c0.5,0.1,0.9,0.2,1.2,0.4s0.5,0.2,0.6,0.3v2.4c-0.4-0.3-0.9-0.6-1.4-0.8c-0.5-0.2-1.1-0.4-1.6-0.4c-0.4,0-0.7,0.1-0.8,0.2
		c-0.2,0.1-0.3,0.3-0.3,0.5c0,0.2,0.1,0.4,0.3,0.5c0.2,0.1,0.5,0.3,0.9,0.5c0.8,0.4,1.4,0.7,1.9,1s0.8,0.6,1.1,1
		C612.1,43,612.3,43.5,612.3,44z"/>
</g>
</svg>
