<?xml version="1.0" encoding="utf-8"?>
<!-- Generator: Adobe Illustrator 16.0.4, SVG Export Plug-In . SVG Version: 6.00 Build 0)  -->
<!DOCTYPE svg PUBLIC "-//W3C//DTD SVG 1.1//EN" "http://www.w3.org/Graphics/SVG/1.1/DTD/svg11.dtd">
<svg version="1.1" id="Layer_1" xmlns="http://www.w3.org/2000/svg" xmlns:xlink="http://www.w3.org/1999/xlink" x="0px" y="0px"
	 width="432px" height="400.381px" viewBox="0 0 432 400.381" enable-background="new 0 0 432 400.381" xml:space="preserve">
<rect fill="#29BBED" width="432" height="400.381"/>
<g opacity="0.5">
	<g>
		<defs>
			<rect id="SVGID_1_" x="69.634" y="30.32" width="292.731" height="339.74"/>
		</defs>
		<clipPath id="SVGID_2_">
			<use xlink:href="#SVGID_1_"  overflow="visible"/>
		</clipPath>
		<path clip-path="url(#SVGID_2_)" fill="none" stroke="#FFFFFF" stroke-miterlimit="10" d="M82.509,43.085v99.372
			c0,131.5,84.313,184.552,133.5,212.783c49.145-28.231,133.463-81.283,133.463-212.783V43.085H216.009H82.509z"/>
		<path clip-path="url(#SVGID_2_)" fill="none" stroke="#FFFFFF" stroke-miterlimit="10" d="M216.014,356.091l-0.369-0.2
			c-29.25-16.784-59.818-36.641-85.422-67.864c-32.156-39.244-48.454-88.235-48.454-145.577V42.355H350.23v100.094
			c0,57.342-16.355,106.333-48.477,145.577c-25.543,31.224-56.148,51.08-85.399,67.864L216.014,356.091z M83.23,43.813v98.636
			c0,56.997,16.214,105.688,48.12,144.687c25.34,30.909,55.654,50.596,84.664,67.26c28.976-16.664,59.294-36.351,84.615-67.26
			c31.934-38.998,48.125-87.689,48.125-144.687V43.813H83.23z"/>
		<polygon clip-path="url(#SVGID_2_)" fill="#FFFFFF" points="145.124,70.885 145.124,98.385 154.335,98.385 154.335,229.941 
			145.124,229.941 145.124,257.418 192.837,257.418 192.837,229.941 183.569,229.941 183.569,178.576 248.418,178.576 
			248.418,229.941 239.162,229.941 239.162,257.418 286.854,257.418 286.854,229.941 277.619,229.941 277.619,98.385 
			286.854,98.385 286.854,70.885 239.162,70.885 239.162,98.385 248.418,98.385 248.418,149.702 183.569,149.702 183.569,98.385 
			192.837,98.385 192.837,70.885 		"/>
		<path clip-path="url(#SVGID_2_)" fill="#FFFFFF" d="M294.182,264.663h-62.291v-41.97h9.217v-36.879h-50.215v36.879h9.252v41.97
			h-62.366v-41.97h9.233V105.607h-9.233V63.67h62.366v41.938h-9.252v36.888h50.215v-36.888h-9.217V63.67h62.291v41.938h-9.232
			v117.086h9.232V264.663z M233.303,263.197h59.434v-39.059h-9.219V104.172h9.219V65.12h-59.434v39.052h9.26v39.751h-53.121v-39.751
			h9.233V65.12h-59.426v39.052h9.276v119.967h-9.276v39.059h59.426v-39.059h-9.233v-39.76h53.121v39.76h-9.26V263.197z"/>
		<path clip-path="url(#SVGID_2_)" fill="none" stroke="#FFFFFF" stroke-width="0.25" stroke-miterlimit="10" d="M294.182,264.663
			h-62.291v-41.97h9.217v-36.879h-50.215v36.879h9.252v41.97h-62.366v-41.97h9.233V105.607h-9.233V63.67h62.366v41.938h-9.252
			v36.888h50.215v-36.888h-9.217V63.67h62.291v41.938h-9.232v117.086h9.232V264.663z M233.303,263.197h59.434v-39.059h-9.219
			V104.172h9.219V65.12h-59.434v39.052h9.26v39.751h-53.121v-39.751h9.233V65.12h-59.426v39.052h9.276v119.967h-9.276v39.059h59.426
			v-39.059h-9.233v-39.76h53.121v39.76h-9.26V263.197z"/>
		<polygon clip-path="url(#SVGID_2_)" fill="#FFFFFF" points="245.752,250.901 280.285,250.901 280.285,236.426 271.076,236.426 
			271.076,91.885 280.285,91.885 280.285,77.4 245.752,77.4 245.752,91.885 255.004,91.885 255.004,156.195 176.973,156.195 
			176.973,91.885 186.249,91.885 186.249,77.4 151.698,77.4 151.698,91.885 160.901,91.885 160.901,236.426 151.698,236.426 
			151.698,250.901 186.249,250.901 186.249,236.426 176.973,236.426 176.973,172.091 255.004,172.091 255.004,236.426 
			245.752,236.426 		"/>
		<path clip-path="url(#SVGID_2_)" fill="#FFFFFF" d="M73.563,34.25v1.635v106.572c0,138.577,92.83,194.685,141.613,222.53
			l0.833,0.49l0.779-0.49c48.799-27.846,141.643-83.953,141.643-222.53V35.885V34.25h-1.656H216.009H75.199H73.563z M76.856,37.52
			h139.153h139.108v104.938c0,136.452-90.242,191.277-139.108,219.229c-48.86-27.952-139.153-82.777-139.153-219.229V37.52z"/>
		<path clip-path="url(#SVGID_2_)" fill="none" stroke="#FFFFFF" stroke-miterlimit="10" d="M73.563,34.25v1.635v106.572
			c0,138.577,92.83,194.685,141.613,222.53l0.833,0.49l0.779-0.49c48.799-27.846,141.643-83.953,141.643-222.53V35.885V34.25h-1.656
			H216.009H75.199H73.563z M76.856,37.52h139.153h139.108v104.938c0,136.452-90.242,191.277-139.108,219.229
			c-48.86-27.952-139.153-82.777-139.153-219.229V37.52z"/>
	</g>
</g>
</svg>
