<?xml version="1.0" encoding="utf-8"?>
<!-- Generator: Adobe Illustrator 16.0.4, SVG Export Plug-In . SVG Version: 6.00 Build 0)  -->
<!DOCTYPE svg PUBLIC "-//W3C//DTD SVG 1.1//EN" "http://www.w3.org/Graphics/SVG/1.1/DTD/svg11.dtd">
<svg version="1.1" id="Layer_1" xmlns="http://www.w3.org/2000/svg" xmlns:xlink="http://www.w3.org/1999/xlink" x="0px" y="0px"
	 width="432px" height="400.381px" viewBox="0 0 432 400.381" enable-background="new 0 0 432 400.381" xml:space="preserve">
<rect fill="#EF3D39" width="432" height="400.381"/>
<g opacity="0.5">
	<g>
		<defs>
			<rect id="SVGID_1_" x="30.675" y="67.072" width="370.65" height="266.236"/>
		</defs>
		<clipPath id="SVGID_2_">
			<use xlink:href="#SVGID_1_"  overflow="visible"/>
		</clipPath>
		<path clip-path="url(#SVGID_2_)" fill="#FFFFFF" d="M223.394,333.302c0.786,0,1.434,0.015,2.069,0
			c7.998-0.146,15.996-0.008,23.979-0.505c15.637-0.984,31.297-1.894,46.889-3.647c12.334-1.381,24.631-3.663,36.875-6.091
			c13.527-2.675,26.838-6.629,39.632-12.696c7.415-3.517,14.533-7.685,20.516-14.167c4.935-5.346,7.908-11.751,7.908-20.011
			c-0.015-69.024,0.03-138.038,0.06-207.059v-2.054h-91.515v2.757c-0.008,36.486-0.008,72.975-0.045,109.461
			c-0.016,24.447,0.127,48.895-0.218,73.349c-0.183,13.562-4.878,25.031-13.538,33.965c-7.83,8.084-17.145,12.588-27.006,15.652
			c-14.365,4.481-29.045,5.73-43.821,5.861c-0.576,0.008-1.142,0.008-1.785,0.008V333.302z M76.239,67.117H32.788
			c-2.106,0-2.113,0.007-2.113,2.604c0.007,12.484,0.029,24.971,0.037,37.458c0.026,56.473,0.071,112.947,0.049,169.42
			c0,5.697,1.347,10.74,4.388,15.009c1.916,2.671,4.063,5.215,6.405,7.362c7.426,6.786,16,10.916,24.787,14.402
			c18.125,7.172,36.867,11.003,55.736,13.868c9.723,1.485,19.498,2.511,29.266,3.494c7.362,0.741,14.751,1.272,22.128,1.56
			c11.062,0.438,22.139,0.562,33.205,0.876c1.309,0.03,1.661-0.482,1.653-1.994c-0.06-6.917-0.075-13.849-0.008-20.77
			c0.016-1.698-0.404-2.223-1.829-2.204c-10.591,0.15-21.125-0.744-31.589-2.738c-9.839-1.866-19.423-4.788-28.379-10.172
			c-9.225-5.54-16.695-13.254-21.046-24.779c-2.911-7.714-3.641-15.873-3.647-24.201c-0.022-58.732-0.038-117.473-0.053-176.206
			c0-2.989-0.008-2.989-2.421-2.989H76.239z"/>
		<path clip-path="url(#SVGID_2_)" fill="#FFFFFF" d="M223.394,333.302v-25.173c0.637,0,1.209,0,1.785-0.012
			c14.78-0.127,29.456-1.376,43.821-5.858c9.861-3.063,19.18-7.571,27.01-15.651c8.656-8.934,13.352-20.403,13.538-33.965
			c0.345-24.454,0.198-48.901,0.214-73.36c0.037-36.474,0.037-72.967,0.045-109.449v-2.761h91.519v2.054
			c-0.033,69.014-0.078,138.038-0.063,207.059c0,8.26-2.974,14.665-7.904,20.015c-5.986,6.479-13.102,10.65-20.52,14.167
			c-12.794,6.067-26.101,10.011-39.632,12.692c-12.244,2.421-24.541,4.714-36.875,6.091c-15.592,1.754-31.252,2.667-46.889,3.647
			c-7.983,0.497-15.989,0.352-23.979,0.505C224.827,333.316,224.183,333.302,223.394,333.302"/>
		<path clip-path="url(#SVGID_2_)" fill="#FFFFFF" d="M76.239,67.117h43.118c2.413,0,2.421,0,2.421,2.989
			c0.015,58.733,0.03,117.474,0.053,176.206c0.007,8.328,0.736,16.487,3.647,24.201c4.351,11.525,11.821,19.239,21.046,24.779
			c8.956,5.384,18.54,8.306,28.379,10.172c10.464,1.994,20.998,2.889,31.589,2.738c1.425-0.019,1.845,0.506,1.829,2.204
			c-0.067,6.921-0.052,13.853,0.008,20.77c0.008,1.512-0.345,2.024-1.653,1.994c-11.066-0.314-22.144-0.438-33.205-0.876
			c-7.377-0.287-14.766-0.818-22.128-1.56c-9.768-0.983-19.543-2.009-29.266-3.494c-18.869-2.865-37.611-6.696-55.736-13.868
			c-8.787-3.486-17.361-7.616-24.787-14.402c-2.342-2.147-4.489-4.691-6.405-7.362c-3.041-4.269-4.388-9.312-4.388-15.009
			c0.022-56.474-0.022-112.947-0.049-169.42c-0.008-12.487-0.03-24.975-0.037-37.458c0-2.596,0.007-2.604,2.113-2.604H76.239z"/>
	</g>
</g>
</svg>
