<?xml version="1.0" encoding="utf-8"?>
<!-- Generator: Adobe Illustrator 16.0.4, SVG Export Plug-In . SVG Version: 6.00 Build 0)  -->
<!DOCTYPE svg PUBLIC "-//W3C//DTD SVG 1.1//EN" "http://www.w3.org/Graphics/SVG/1.1/DTD/svg11.dtd">
<svg version="1.1" id="Layer_1" xmlns="http://www.w3.org/2000/svg" xmlns:xlink="http://www.w3.org/1999/xlink" x="0px" y="0px"
	 width="432px" height="400.381px" viewBox="0 0 432 400.381" enable-background="new 0 0 432 400.381" xml:space="preserve">
<rect fill="#EF3D39" width="432" height="400.381"/>
<g opacity="0.5">
	<g>
		<defs>
			<rect id="SVGID_1_" x="42.838" y="56.554" width="346.324" height="287.273"/>
		</defs>
		<clipPath id="SVGID_2_">
			<use xlink:href="#SVGID_1_"  overflow="visible"/>
		</clipPath>
		<path clip-path="url(#SVGID_2_)" fill="#FFFFFF" d="M204.638,143.111c7.817,7.236,14.997,13.894,22.163,20.537
			c-0.311,0.557-0.629,1.128-0.945,1.698c-24.127-13.314-49.316-22.025-77.667-19.438c7.167,9.281,13.843,17.941,20.913,27.115
			c-19.952,4.207-38.552,7.511-56.815,12.158c-18.083,4.598-35.812,10.555-54.212,16.07c4.041,4.93,4.055,4.98,9.289,3.188
			c30.43-10.424,61.358-18.846,93.335-22.915c6.256-0.803,12.564-1.149,20.334-1.836c-6.513-9.514-12.354-18.051-19.178-28.005
			c8.32,1.366,15.669,1.916,22.598,3.896c10.052,2.898,19.897,6.607,29.663,10.381c8.045,3.115,9.911,3.491,19.897,0.665
			c-3.777-5.588-7.381-10.923-11.371-16.844c14.396,1.995,27.73,5.343,39.76,13.128c3.094,2.017,6.965,3.448,10.623,3.853
			c20.754,2.271,40.391,7.757,57.996,19.294c3.93,2.581,7.602,5.675,10.924,8.993c3.316,3.311,5.967,7.235,0.965,11.935
			c6.025,2.74,11.59,4.872,16.756,7.713c7.543,4.171,15.137,8.386,22.098,13.432c7.402,5.363,7.877,9.752,3.301,17.493
			c-2.889,4.895-5.396,10.243-9.217,14.307c-3.803,4.04-8.957,6.867-13.703,9.939c-1.641,1.048-3.848,1.243-5.609,1.771
			c-0.197,0.73-0.523,1.287-0.367,1.468c4.16,5.386,5.467,10.901,0.693,16.59c-6.854,8.184-13.924,16.359-26.15,14.335
			c-4.576-0.773-9.018-2.783-13.305-4.713c-14.602-6.563-29.689-9.427-45.693-7.207c-7.898,1.092-15.051,3.498-21.666,8.132
			c-16.59,11.603-30.018,26.104-40.868,43.583c-1.843-1.54-3.438-2.798-4.94-4.149c-52.312-46.518-104.602-93.05-156.971-139.495
			c-2.993-2.66-4.457-5.248-4.428-9.412c0.228-29.659,0.268-59.305,0.112-88.957c-0.025-4.287,1.265-6.492,5.194-8.379
			c40.727-19.568,83.775-30.311,128.593-34.785c55.417-5.516,109.778-0.194,162.92,16.193c15.469,4.764,30.281,11.652,45.439,17.457
			c3.221,1.229,4.111,3.225,4.061,6.571c-0.453,31.084-0.721,62.168-1.135,93.267c-0.023,1.698-0.326,4.033-1.436,4.995
			c-5.715,5.031-11.66,9.816-17.723,14.421c-0.945,0.716-3.035,0.463-4.379,0.015c-2.318-0.795-4.422-2.205-6.695-3.138
			c-4.225-1.734-6.979-3.621-8.355-9.058c-1.273-4.987-5.975-9.78-10.32-13.199c-17.793-13.995-38.713-20.343-60.801-23.762
			c-5.486-0.846-11.074-2.718-15.955-5.356c-13.863-7.467-28.691-11.14-44.168-12.773
			C213.905,143.827,209.604,143.531,204.638,143.111 M352.967,281.009c-13.879,2.371-26.205-2.277-37.98-8.089
			c-10.248-5.061-20.936-7.149-32.1-7.916c-7.262-0.478-14.516-1.069-23.295-1.728c3.523-5.031,6.271-8.935,9.061-12.911
			c-1.998-0.693-4.246-1.475-7.055-2.45c1.143-1.381,1.836-2.328,2.639-3.159c20.23-21.224,49.764-13.395,62.852-0.245
			c7.719,7.749,16.076,8.92,25.9,7.488c5.855-0.867,11.762-1.388,17.664-1.857c5.461-0.441,10.279-1.678,12.834-8.024
			c-3.021,1.432-5.309,2.762-7.75,3.629c-8.779,3.102-15.115,2.241-18.848-3.867c-2.855-4.663-6.861-6.767-11.375-8.726
			c-3.111-1.352-6.166-2.805-9.254-4.222c0.102-0.397,0.207-0.795,0.312-1.207c13.123,0.788,26.254,1.562,39.385,2.356
			c0.178-0.47,0.361-0.925,0.551-1.395c-14.133-8.09-28.258-16.171-43.254-24.767c1.857-0.332,2.768-0.411,3.629-0.672
			c1.109-0.34,2.189-0.817,4.543-1.713c-27.004-19.475-54.732-32.097-88.037-26.378c10.551,4.445,22.244,6.188,32.238,13.654
			c-11.969,1.28-22.949,2.451-33.926,3.629c0.061,0.68,0.127,1.367,0.184,2.068c2.188,0.173,4.371,0.34,6.547,0.534
			c11.422,1.07,22.441,3.354,31.586,10.923c7.246,5.993,9.387,5.863,15.646-1.821c10.248,5.443,20.566,10.915,30.889,16.409
			c-8.576-1.149-16.77-2.992-25.033-4.424c-1.943-0.333-4.781,0.029-6.098,1.258c-5.479,5.11-11.299,9.102-18.809,10.843
			c-5.146,1.186-10.381,3.022-14.889,5.711c-6.418,3.846-12.205,8.732-18.83,13.598c5.01-12.535,14.035-20.754,25.139-27.115
			c-1.457-1.749-2.783-3.044-3.746-4.568c-1.094-1.728-1.709-3.752-2.83-5.466c-0.85-1.279-1.965-2.746-3.314-3.317
			c-22.221-9.412-42.809-3.412-62.956,6.404c8.577-0.484,17.1-2.14,25.633-2.204c8.588-0.072,17.18,1.416,25.768,2.219
			c-0.064,0.6-0.133,1.207-0.199,1.8c-44.454,6.926-58.539,10.865-66.859,19.092h39.498c-15.151,6.867-29.518,13.388-43.885,19.915
			l0.729,2.075h70.976c-3.029,5.06-5.346,8.92-8.652,14.45h30.732c0.059,0.549,0.121,1.099,0.178,1.641
			c-27.365,8.046-53.32,19.005-75.614,37.438c-0.491-0.593-0.986-1.192-1.481-1.786c12.325-14.125,24.658-28.242,37.343-42.772
			c-29.962-4.062-59.424,0.115-89.413,2.154c8.609-5.964,17.226-11.928,25.843-17.906c-0.206-0.549-0.408-1.084-0.607-1.634
			c-16.72,3.73-33.444,7.453-51.794,11.545c28.301,24.614,54.957,47.812,81.418,70.835c0.697-0.26,0.939-0.274,1.045-0.397
			c1.16-1.432,2.31-2.884,3.455-4.33c11.838-15.058,25.866-27.606,42.604-37.026c13.471-7.597,27.609-10.604,42.74-5.884
			c10.793,3.354,21.545,6.867,32.279,10.402C340.471,297.592,346.533,294.896,352.967,281.009 M135.411,224.782
			c-12.458,4.786-23.833,9.159-36.173,13.901c6.882,5.885,13.055,11.161,18.719,16.005c19.698-10.468,38.833-20.624,58.513-31.077
			c-6.26-3.217-12.737-6.542-21.184-10.872c26.996-10.236,52.601-19.937,76.545-29.009c-39.202,3.521-78.389,14.023-116.926,32.175
			C122.42,219.159,128.41,221.754,135.411,224.782 M199.318,65.134c-1.143,8.668-2.23,16.952-3.318,25.236
			c-0.354,0.028-0.712,0.072-1.073,0.108c-1.222-8.147-2.451-16.309-3.737-24.824c-5.899,0.478-11.173,0.918-16.634,1.366v72.455
			c2.945-0.246,5.566-0.701,8.165-0.622c4.634,0.174,6.101-1.879,5.758-6.354c-0.361-4.851-0.08-9.745-0.08-14.624
			c0.34-0.036,0.68-0.072,1.02-0.108c0.839,6.557,1.681,13.099,2.57,20.074c2.367-0.145,4.33-0.261,6.604-0.397
			c1.004-7.359,1.97-14.378,2.931-21.405c0.438,0.029,0.875,0.065,1.309,0.109v20.898h13.001V65.134H199.318z M115.463,78.876
			c3.213,22.974,6.408,45.896,9.6,68.761c11.288-0.563,11.251-0.563,12.086-10.445c0.268-3.181,0.817-6.354,1.236-9.514
			c0.261,0.044,0.521,0.094,0.781,0.145c0.636,5.473,1.265,10.944,1.887,16.366c10.836-0.571,10.829-0.571,12.249-10.728
			c0.994-7.128,2.067-14.24,2.993-21.376c1.836-14.197,3.596-28.401,5.447-43.025c-3.079,0.311-5.461,0.665-7.868,0.773
			c-4.825,0.224-7.396,2.082-7.232,7.503c0.126,4.208-0.89,8.458-1.399,12.701c-0.354-0.021-0.719-0.036-1.074-0.05
			c-0.687-5.812-1.377-11.632-2.042-17.284c-5.877-0.673-7.768,1.749-7.742,6.939c0.022,4.655-0.896,9.311-1.395,13.973
			c-0.257-0.028-0.51-0.043-0.759-0.064c-0.911-6.159-1.814-12.318-2.747-18.658c-4.59,1.07-8.389,1.945-12.177,2.863
			C116.934,77.843,116.616,78.16,115.463,78.876 M63.437,97.078c-12.553,4.887-12.553,4.887-12.553,17.097
			c0,18.094-0.015,36.173,0.014,54.259c0,1.916,0.224,3.839,0.373,6.318c3.151-1.396,5.483-2.783,8.009-3.478
			c4.782-1.308,6.459-4.069,5.95-9.014c-0.474-4.598-0.105-9.274-0.105-13.916c0.379-0.058,0.755-0.108,1.135-0.173
			c1.673,5.775,3.343,11.565,5.144,17.79c1.894-0.73,3.333-1.533,4.865-1.844c6.011-1.229,8.039-4.532,7.652-10.821
			c-0.629-10.243-0.17-20.552-0.17-30.823V88.766c-2.418,0.81-4.084,1.575-5.833,1.937c-6.719,1.374-9.622,5.082-8.483,12.13
			c0.586,3.586,0.105,7.323,0.105,11.003c-0.466,0.007-0.933,0.007-1.392,0.015C66.614,108.392,65.082,102.948,63.437,97.078
			 M343.926,114.124c0-2.971-0.006-5.356,0-7.749c0.029-21.225-1.018-22.598-21.252-27.903c-9.34-2.437-12.658-0.022-12.73,9.636
			c-0.098,13.995,0.098,27.976-0.057,41.978c-0.141,13.135,11.197,22.872,23.84,24.108c1.037,0.094,2.295-0.629,3.234-1.287
			c5.953-4.156,9.951-20.248,6.604-26.631c-0.414-0.788-1.412-1.518-2.295-1.8c-3.65-1.164-7.365-2.154-12.1-3.521v16.301
			c-1.928-0.629-3.68-0.933-3.68-1.25c-0.143-13.475-0.119-26.942-0.119-40.417c0.621-0.195,1.242-0.383,1.863-0.57
			c0.645,2.14,2.09,4.395,1.787,6.397c-0.994,6.657,1.68,9.932,8.156,10.764C339.16,112.425,341.072,113.271,343.926,114.124
			 M286.529,70.224c-5.699-0.737-10.645-1.366-15.498-1.988c-1.105,4.547-1.992,8.19-3.064,12.593
			c-1.809-5.212-2.098-10.901-5.014-13.113c-3.109-2.356-8.711-1.417-14.027-2.01c3.094,10.721,6.137,20.089,8.389,29.646
			c0.926,3.939,0.947,8.465,0,12.383c-2.43,10.077-5.621,19.959-8.672,30.47c5.561,0.535,10.197,0.969,15.143,1.453
			c1.234-4.641,2.359-8.87,3.49-13.113c1.229,11.877,7.1,17.458,19.615,15.463c-3.094-11.545-6.246-22.814-9.035-34.156
			c-0.645-2.617-0.594-5.689,0.105-8.284C280.49,90.066,283.436,80.684,286.529,70.224 M245.455,80.799V65.344h-25.123v71.825
			h25.211v-14.204c-3.547-0.521-6.734-0.998-9.764-1.432v-14.24c3.008-0.181,5.412-0.318,8.082-0.484V92.314
			c-2.848-0.455-5.432-0.867-8.303-1.33V80.799H245.455z M113.175,78.848c-8.483,2.725-16.084,5.031-23.526,7.771
			c-1.11,0.397-1.999,2.862-2.057,4.409c-0.228,6.384-0.098,12.767-0.098,19.143v49.337c5.118-1.598,9.582-3.015,14.045-4.41
			c13.012-4.077,13.012-4.077,11.458-18.614c-3.369,0.759-6.694,1.497-10.645,2.386c0-2.414,0.112-4.438-0.022-6.463
			c-0.333-4.937-0.499-9.57,6.3-10.294c0.961-0.108,2.324-2.197,2.418-3.455c0.318-3.976,0.119-7.987,0.119-12.231
			c-3.354,0.644-5.833,1.128-8.292,1.591c-1.576-6.998-0.842-11.928,7.211-12.803c1.146-0.13,2.797-2.342,2.946-3.729
			C113.442,87.674,113.175,83.807,113.175,78.848 M291.225,71.467v72.137c4.729,1.004,9.383,1.995,14.672,3.115V87.247
			C305.896,73.613,305.896,73.613,291.225,71.467 M348.148,121.187c0,7.402-0.23,14.812,0.107,22.199
			c0.127,2.899,1.252,5.863,2.379,8.617c3.25,7.894,9.26,12.506,17.434,15.072c6.986,2.176,13.582-1.908,13.619-9.369
			c0.061-12.13,0.014-24.26,0.014-36.396c0.008-20.061-1.814-22.699-20.541-29.862c-0.57-0.217-1.139-0.448-1.725-0.658
			c-7.453-2.639-11.088-0.289-11.252,7.568C348.029,105.963,348.148,113.567,348.148,121.187 M216.439,174.918
			c-12.947-9.304-26.11-13.8-41.743-16.026c5.545,7.8,10.215,14.509,15.087,21.065c0.644,0.867,2.473,1.575,3.491,1.322
			C200.561,179.443,207.775,177.34,216.439,174.918 M76.525,218.501c10.637-4.243,20.66-8.256,30.683-12.26
			c-0.051-0.254-0.101-0.507-0.163-0.76c-12.842,1.591-25.684,3.195-39.788,4.945C71.092,213.773,73.847,216.173,76.525,218.501
			 M361.406,265.669c0.459,0.571,0.91,1.156,1.359,1.728c4.199-3.933,8.396-7.864,13.748-12.867
			c-4.799-0.521-7.225-0.68-9.617-1.069c-8.631-1.41-9.969-0.123-8.74,8.963c3.16-2.429,6.182-4.749,9.207-7.062
			c0.289,0.354,0.584,0.701,0.881,1.056C365.963,259.495,363.684,262.582,361.406,265.669 M341.723,258.722
			c-0.268-0.614-0.531-1.235-0.799-1.851c-3.051-0.954-6.109-1.915-9.113-2.854c-1.361,4.46-2.674,8.732-3.982,13.004
			c0.383,0.34,0.77,0.68,1.16,1.02C333.232,264.932,337.471,261.83,341.723,258.722 M320.928,244.958
			c0.17-0.65,0.332-1.294,0.496-1.951c-3.9-1.858-7.801-3.723-12.879-6.152c0.416,4.808,0.666,7.721,0.955,11.053
			C313.836,246.787,317.383,245.876,320.928,244.958 M313.674,266.804c-0.072,0.557-0.154,1.121-0.234,1.67
			c2.129,0.658,5.305,2.509,6.201,1.728c2.715-2.356,4.545-5.725,6.713-8.688c-0.51-0.376-1.012-0.76-1.525-1.135
			C321.113,262.518,317.391,264.664,313.674,266.804 M291.24,259.973c5.395,1.764,9.26,3.029,14.338,4.685
			c-1.695-4.013-2.783-6.578-4.027-9.514C298.316,256.662,295.605,257.927,291.24,259.973 M258.898,165.268
			c-5.932-2.573-10.852-4.706-15.773-6.839C246.631,163.721,250.443,168.304,258.898,165.268 M280.912,206.327
			c-0.465,0.673-0.932,1.353-1.398,2.039l8.451,8.783c0.357-0.354,0.719-0.709,1.08-1.062c-0.391-2.653-0.777-5.321-1.217-8.357
			C285.508,207.26,283.215,206.783,280.912,206.327 M338.82,278.695c0.191-3.391,0.346-5.979,0.533-9.26
			c-3.791,2.443-6.609,4.272-9.992,6.462C332.498,276.823,335.141,277.611,338.82,278.695 M351.072,278.319
			c-0.209-2.739-0.357-4.757-0.564-7.554c-3.791,2.603-6.707,4.611-10.998,7.554H351.072z M289.545,241.38
			c3.129-1.734,5.971-3.304,8.807-4.872c-0.154-0.296-0.303-0.6-0.459-0.896h-11.504
			C287.672,237.939,288.514,239.493,289.545,241.38"/>
		<path clip-path="url(#SVGID_2_)" fill="#FFFFFF" d="M204.796,135.037V90.984c-0.918-0.087-1.836-0.166-2.754-0.238
			c-1.851,14.696-3.708,29.393-5.559,44.096c-0.601,0.029-1.193,0.051-1.793,0.072c-1.872-14.436-3.752-28.865-5.624-43.308
			c-0.846,0.058-1.688,0.108-2.526,0.166v44.103c-3.419,0.326-5.758,0.55-8.823,0.839c-0.184-2.559-0.459-4.713-0.466-6.867
			c-0.036-16.879-0.015-33.766-0.015-50.646c0-10.807,0.416-11.161,12.029-9.882c1.539,10.757,3.094,21.636,4.655,32.516
			l2.599,0.188c4.182-10.705,2.775-22.655,5.758-34.055h11.06v66.693C210.909,134.776,208.548,134.878,204.796,135.037"/>
		<path clip-path="url(#SVGID_2_)" fill="#FFFFFF" d="M138.14,112.809c-0.521,1.698-1.312,3.376-1.511,5.118
			c-0.799,6.961-1.673,13.908-2.013,20.898c-0.209,4.424-1.786,6.52-6.958,5.877c-2.945-21.159-5.924-42.463-8.963-64.315
			c2.924-0.693,5.595-1.33,8.747-2.067c1.46,11.197,2.837,21.752,4.222,32.313c0.925,0,1.851-0.022,2.776-0.036
			c1.081-11.56,2.169-23.133,3.257-34.699c0.741-0.036,1.478-0.079,2.219-0.122c1.178,10.741,2.353,21.491,3.531,32.24l1.851,0.123
			c0.524-1.771,1.305-3.521,1.532-5.343c0.976-7.547,1.814-15.115,2.649-22.677c0.824-7.496,0.799-7.503,9.282-7.286
			c-1.598,12.846-3.159,25.633-4.796,38.429c-1.041,8.161-2.404,16.286-3.228,24.477c-0.452,4.438-2.114,6.397-7.008,5.176
			c-0.994-9.238-1.992-18.513-2.989-27.788C139.871,113.018,139.003,112.917,138.14,112.809"/>
		<path clip-path="url(#SVGID_2_)" fill="#FFFFFF" d="M54.278,170.198c-0.054-21.354-0.282-42.325,0.102-63.281
			c0.047-2.256,3.585-4.46,6.751-8.14c3.185,11.356,5.797,20.682,8.411,29.992h1.768c0.423-1.938,1.178-3.867,1.215-5.819
			c0.133-6.788,0.423-13.611-0.12-20.363c-0.502-6.354,2.183-9.029,8.816-9.397c0.025,9.498,0.047,18.889,0.061,28.286
			c0.029,10.496-0.238,21,0.199,31.481c0.224,5.472-1.301,8.653-7.728,9.108c-2.704-9.412-5.461-19.026-8.215-28.641
			c-0.719,0.102-1.432,0.188-2.14,0.274c-0.217,1.851-0.6,3.701-0.614,5.552c-0.068,7.005-0.416,14.031,0.112,20.979
			C63.354,166.315,61.308,169.591,54.278,170.198"/>
		<path clip-path="url(#SVGID_2_)" fill="#FFFFFF" d="M322.422,92.474c0,14.356-0.312,28.713,0.338,43.012
			c0.096,2.146,4.721,4.077,7.248,6.115c0.578-0.455,1.146-0.896,1.717-1.352c0.252-4.98,0.502-9.962,0.748-14.921
			c6.633-0.036,10.016,2.487,8.859,9.275c-0.709,4.105-0.08,9.028-2.17,12.188c-3.893,5.892-14.861,5.132-19.645-0.564
			c-4.398-5.248-7.463-10.647-7.004-18.252c0.803-13.106,0.156-26.292,0.254-39.434c0.057-7.583,2.338-9.361,9.43-7.294
			c18.957,5.522,19.918,3.318,18.906,27.368c-0.021,0.376-0.281,0.752-0.535,1.41c-5.453-0.13-9.027-1.432-8.568-8.4
			C332.553,93.341,331.836,93.059,322.422,92.474"/>
		<path clip-path="url(#SVGID_2_)" fill="#FFFFFF" d="M269.357,88.83c1.385-5.696,2.775-11.371,4.295-17.595
			c3.18,0.521,6.082,1.005,9.523,1.576c-2.396,7.887-4.359,15.216-6.867,22.337c-1.928,5.479-2,10.575-0.225,16.149
			c2.916,9.151,5.154,18.52,7.789,28.214c-6.188,0.535-10.297-0.369-11.125-7.338c-0.57-4.691-2.371-9.252-3.621-13.864
			c-0.764-0.021-1.525-0.044-2.289-0.065c-0.996,3.737-2.092,7.453-2.967,11.22c-1.908,8.248-1.865,8.255-11.223,6.101
			c2.627-9.231,5.592-18.361,7.73-27.693c0.908-3.954,0.865-8.473-0.047-12.441c-1.998-8.682-4.832-17.183-7.365-25.9
			c7.047-1.366,10.459,0.723,11.129,7.358c0.396,4.07,1.738,8.054,2.664,12.08C267.627,88.924,268.49,88.874,269.357,88.83"/>
		<path clip-path="url(#SVGID_2_)" fill="#FFFFFF" d="M223.346,67.845c4.41,0,8.061-0.101,11.701,0.021
			c9.061,0.275,9.115,0.376,7.434,10.164h-8.193c-3.857,10.988-1.998,15.535,7.105,17.284v8.212
			c-8.516,2.233-8.516,2.233-8.516,11.486v9.217c3.764,0.579,6.766,1.049,10.164,1.562v9.102c-5.652,0-11.332,0.115-16.988-0.123
			c-0.939-0.043-2.592-1.691-2.598-2.609C223.307,110.856,223.346,89.539,223.346,67.845"/>
		<path clip-path="url(#SVGID_2_)" fill="#FFFFFF" d="M110.07,82.787c1.688,6.614,1.081,10.821-6.025,12.072
			c-1.673,0.289-3.658,3.354-4.044,5.407c-0.658,3.557-0.177,7.315-0.177,11.573c3.17-0.644,5.693-1.164,8.454-1.728
			c0.828,5.371,2.089,10.511-5.624,11.71c-1.081,0.181-2.599,2.19-2.66,3.427c-0.296,5.494-0.123,11.01-0.123,17.038
			c3.824-0.759,6.965-1.381,10.073-2.002c2.154,8.725,1.999,9.043-5.899,11.609c-4.258,1.366-8.53,2.688-13.601,4.294v-23.378
			c0-13.164,0.105-26.327-0.072-39.477c-0.043-3.238,1.023-4.851,4.092-5.711C99.574,86.213,104.591,84.493,110.07,82.787"/>
		<path clip-path="url(#SVGID_2_)" fill="#FFFFFF" d="M303.336,143.018c-9.609-0.514-9.625-0.514-9.631-8.414
			c-0.008-17.451,0-34.916,0-52.366V75.58c9.252-0.21,9.631,0.13,9.631,8.486c0,17.458,0,34.915,0,52.365V143.018z"/>
		<path clip-path="url(#SVGID_2_)" fill="#FFFFFF" d="M350.982,122.523c0-7.604-0.102-15.217,0.031-22.813
			c0.123-6.846,2.473-8.328,8.943-5.849c3.441,1.323,6.854,2.754,10.236,4.236c5.826,2.581,8.977,7.092,9.025,13.467
			c0.086,15.008,0.115,30.007-0.012,45.015c-0.051,6.397-5.852,10.112-11.678,7.792c-12.713-5.038-16.555-10.756-16.555-24.577
			C350.975,134.039,350.975,128.278,350.982,122.523 M360.424,105.254c0,13.641-0.016,26.762,0.006,39.903
			c0.016,6.723,1.316,7.908,9.232,8.219c0-12.744-0.402-25.481,0.162-38.183C370.121,108.515,367.58,105.746,360.424,105.254"/>
		<path clip-path="url(#SVGID_2_)" fill="#FFFFFF" d="M365.307,150.391c-0.799-1.105-2.295-2.219-2.311-3.332
			c-0.162-12.86-0.105-25.706-0.105-38.552l1.52-0.542c0.791,1.12,2.24,2.227,2.258,3.361c0.164,12.831,0.102,25.67,0.102,38.515
			C366.281,150.022,365.793,150.218,365.307,150.391"/>
	</g>
</g>
</svg>
