<?xml version="1.0" encoding="utf-8"?>
<!-- Generator: Adobe Illustrator 16.0.4, SVG Export Plug-In . SVG Version: 6.00 Build 0)  -->
<!DOCTYPE svg PUBLIC "-//W3C//DTD SVG 1.1//EN" "http://www.w3.org/Graphics/SVG/1.1/DTD/svg11.dtd">
<svg version="1.1" id="Layer_1" xmlns="http://www.w3.org/2000/svg" xmlns:xlink="http://www.w3.org/1999/xlink" x="0px" y="0px"
	 width="432px" height="400.381px" viewBox="0 0 432 400.381" enable-background="new 0 0 432 400.381" xml:space="preserve">
<rect fill="#EF3D39" width="432" height="400.381"/>
<g opacity="0.5">
	<g>
		<defs>
			<rect id="SVGID_1_" x="72.913" y="36.023" width="286.175" height="328.334"/>
		</defs>
		<clipPath id="SVGID_2_">
			<use xlink:href="#SVGID_1_"  overflow="visible"/>
		</clipPath>
		<path clip-path="url(#SVGID_2_)" fill="#FFFFFF" d="M72.942,364.328v-74.15h35.282V110.239H72.942V36.045h169.027
			c33.191,0,63.113,10.065,84.26,28.34c21.176,18.318,32.838,44.265,32.838,73.09c0,28.811-11.662,54.749-32.838,73.067
			c-21.109,18.26-51.031,28.317-84.26,28.317h-36.438v51.318h35.303v74.15H72.942z M227.752,352.739v-50.95h-35.305v-74.504h49.522
			c61.25,0,104.035-36.938,104.035-89.811c0-52.887-42.785-89.833-104.035-89.833H85.996v51.002h35.334v203.146H85.996v50.95
			H227.752z M192.447,176.57V98.644h36.94c31.682,0,52.156,15.3,52.156,38.985c0,23.664-20.475,38.941-52.156,38.941H192.447z
			 M229.387,164.975c24.465,0,39.066-10.213,39.066-27.346c0-17.147-14.602-27.39-39.066-27.39h-23.856v54.735H229.387z"/>
		<path clip-path="url(#SVGID_2_)" fill="#223C74" d="M241.969,36.067c33.184,0,63.113,10.072,84.244,28.347
			c21.176,18.318,32.824,44.25,32.824,73.053c0,28.796-11.648,54.728-32.824,73.054c-21.131,18.289-51.061,28.316-84.244,28.316
			h-36.46V290.2h35.304v74.105H72.964V290.2h35.282V110.218H72.964v-74.15h15.94H241.969 M85.981,98.673h35.327v203.094H85.981
			v50.994h141.792v-50.994h-35.305v-74.459h49.5c61.266,0,104.059-36.932,104.059-89.841c0-52.894-42.793-89.854-104.059-89.854
			H88.905h-2.923V98.673 M229.387,98.673c31.674,0,52.135,15.271,52.135,38.964c0,23.642-20.461,38.904-52.135,38.904h-36.918
			V98.673h6.516H229.387 M205.508,165.004h23.878c24.465,0,39.096-10.257,39.096-27.367c0-17.163-14.631-27.419-39.096-27.419
			h-23.878V165.004 M241.969,36.023H88.905h-15.94H72.92v0.044v74.15v0.052h0.044h35.238v179.886H72.964H72.92v0.045v74.105v0.044
			h0.044h167.848h0.045v-0.044V290.2v-0.045h-0.045h-35.26v-51.267h36.417c33.236,0,63.164-10.064,84.273-28.332
			c21.176-18.318,32.846-44.265,32.846-73.09s-11.67-54.778-32.846-73.097C305.09,46.088,275.16,36.023,241.969,36.023
			 M86.018,47.656h2.887h153.064c61.244,0,104.006,36.939,104.006,89.811c0,52.872-42.762,89.796-104.006,89.796h-49.5h-0.044v0.045
			v74.459v0.044h0.044h35.254v50.906H86.018v-50.906h35.29h0.044v-0.044V98.673v-0.052h-0.044h-35.29V47.656z M229.387,98.621
			h-30.402h-6.516h-0.044v0.052v77.868v0.059h0.044h36.918c31.695,0,52.18-15.3,52.18-38.963
			C281.566,113.936,261.082,98.621,229.387,98.621 M205.552,110.27h23.834c24.451,0,39.043,10.219,39.043,27.367
			c0,17.104-14.592,27.322-39.043,27.322h-23.834V110.27z"/>
		<path clip-path="url(#SVGID_2_)" fill="#FFFFFF" d="M105.463,41.84c27.154,21.676,61.494,51.098,93.521,86.777v-24.172h16.124
			c-23.001-23.061-46.208-44.316-68.179-62.605H105.463z M183.979,41.84c54.712,31.27,113.983,75.844,158.933,137.426
			c1.834-3.659,3.424-7.474,4.764-11.391c-12.744-27.883-38.396-69.688-89.486-118.555c0,0,45.693,20.682,94.059,80.452
			c-3.947-52.157-48.203-87.933-110.279-87.933H183.979z M79.48,75.583v28.885h35.305v22.39v44.272
			c52.209,63.894,79.252,126.89,79.252,126.89c-26.447-32.434-53.1-60.434-79.252-84.547v19.901v27.434
			c31.439,24.334,70.086,57.245,108.512,97.777h11v-62.612h-35.312v-62.915h2.4c-22.817-30.622-48.197-62.834-75.188-95.134
			c0,0,48.793,41.577,101.848,95.134h13.924c8.408,0,16.449-0.648,24.156-1.899c-10.328-11.316-31.902-34.193-60.367-60.396h-6.773
			v-6.192C165.506,134.338,123.561,100.639,79.48,75.583 M266.125,159.032c-7.17,6.87-18.443,11.044-33.006,11.648
			c13.605,18.782,25.932,38.816,36.012,59.939c15.822-2.952,29.965-8.519,41.879-16.249
			C297.145,195.787,281.963,177.211,266.125,159.032 M114.785,278.714v17.259H90.068c18.237,23.582,31.822,45.442,41.327,62.612
			h47.681C163.128,333.986,142.689,308.04,114.785,278.714 M79.48,319.585v39h38.78C105.5,344.633,92.498,331.638,79.48,319.585"/>
	</g>
</g>
</svg>
