<?xml version="1.0" encoding="utf-8"?>
<!-- Generator: Adobe Illustrator 16.0.4, SVG Export Plug-In . SVG Version: 6.00 Build 0)  -->
<!DOCTYPE svg PUBLIC "-//W3C//DTD SVG 1.1//EN" "http://www.w3.org/Graphics/SVG/1.1/DTD/svg11.dtd">
<svg version="1.1" id="Layer_1" xmlns="http://www.w3.org/2000/svg" xmlns:xlink="http://www.w3.org/1999/xlink" x="0px" y="0px"
	 width="432px" height="400.381px" viewBox="0 0 432 400.381" enable-background="new 0 0 432 400.381" xml:space="preserve">
<rect fill="#29BBED" width="432" height="400.381"/>
<g opacity="0.5">
	<g>
		<defs>
			<rect id="SVGID_1_" x="4.947" y="77.106" width="424.684" height="261.149"/>
		</defs>
		<clipPath id="SVGID_2_">
			<use xlink:href="#SVGID_1_"  overflow="visible"/>
		</clipPath>
		<path clip-path="url(#SVGID_2_)" fill-rule="evenodd" clip-rule="evenodd" fill="#FFFFFF" d="M66.617,119.795
			c4.205-3.416,8.667-6.465,13.197-9.401c16.992-11.02,35.311-18.957,54.972-23.74c7.733-1.885,15.574-3.116,23.474-4.038
			c12.021-1.376,24.083-2.069,36.145-2.502c9.176-0.342,18.352-0.521,27.536-0.617c9.31-0.104,18.627-0.221,27.944-0.546
			c5.355-0.18,10.686-0.963,16.05-1.297c8.767-0.53,17.567-0.659,26.359-0.455c7.058,0.146,14.106,0.4,21.13,1.297
			c15.758,2.002,31.465,4.342,46.547,9.647c9.268,3.27,17.942,7.637,25.292,14.339c8.225,7.482,13.18,16.742,15.349,27.59
			c0.734,3.666,1.143,7.357,1.276,11.078c0.017,0.755,0.384,1.035,0.909,1.36c6.456,3.991,12.354,8.646,17.125,14.581
			c5.306,6.578,8.742,13.985,9.526,22.456c0.76,8.434-0.95,16.438-4.763,23.97c-6.331,12.462-16.041,21.534-28.37,27.924
			c-4.237,2.202-8.65,3.871-13.264,5.063c-0.283,0.079-0.567,0.204-0.926,0.033c2.494-1.952,4.004-4.483,4.562-7.591
			c0.059-0.375,0.067-0.78,0.067-1.155c-0.009-0.597-0.192-0.843-0.859-0.521c-6.248,3.078-12.938,4.496-19.753,5.451
			c-0.868,0.121-0.885,0.571-0.885,1.239c0.017,6.748-0.017,13.521,0.033,20.278c0.009,1.085-0.309,1.377-1.367,1.401
			c-3.087,0.05-3.078,0.084-3.087,3.116c-0.008,11.099,0.192,22.209-0.075,33.296c-0.309,12.141-3.962,23.114-12.846,31.865
			c-6.398,6.285-14.231,9.947-22.856,12.058c-9.393,2.281-18.895,2.69-28.479,1.881c-7.899-0.667-15.541-2.314-22.698-5.793
			c-12.971-6.244-20.729-16.537-23.599-30.598c-0.867-4.167-1.168-8.388-1.143-12.65c0.017-10.522,0.009-21.054-0.025-31.577
			c0-0.472,0.343-1.172-0.325-1.359c-0.867-0.255-1.835-0.28-2.678,0.087c-0.35,0.134-0.142,0.701-0.142,1.076
			c-0.008,7.729,0,15.44-0.008,23.157c-0.018,7.62,0.2,15.257-0.15,22.872c-0.709,15.666-9.051,27.428-24.7,32.366
			c-5.73,1.827-11.636,2.478-17.618,2.728c-10.152,0.426-20.112-0.659-29.821-3.716c-0.592-0.188-1.051-0.112-1.51,0.342
			c-0.751,0.751-1.66,1.397-2.369,2.219c-0.851,0.955-1.552,0.805-2.544,0.196c-5.305-3.236-10.694-6.365-16.016-9.602
			c-0.784-0.483-1.276-0.425-2.019,0.104c-6.498,4.68-13.864,7.278-21.646,8.805c-9.751,1.897-19.595,2.027-29.48,1.376
			c-9.609-0.625-19.011-2.364-28.161-5.372c-0.801-0.25-1.26-0.05-1.66,0.505c-0.801,1.143-1.702,1.297-3.086,0.922
			c-6.381-1.677-12.796-3.22-19.211-4.751c-1.185-0.279-1.226-0.658-0.792-1.697c5.372-12.662,10.661-25.346,16-38.038
			c0.309-0.726,0.275-1.214-0.351-1.802c-1.368-1.318-2.552-2.836-3.479-4.496c-0.476-0.851-0.842-0.801-1.585-0.367
			c-2.794,1.556-5.456,3.324-8.325,5.313c0.417-1.117,0.701-2.015,1.076-2.869c1.577-3.596,3.187-7.174,4.805-10.736
			c0.283-0.625,0.375-1.222,0.3-1.889c-1.185-9.53,0.942-18.21,6.857-25.83c4.504-5.772,10.385-9.73,17.1-12.471
			c1.035-0.426,1.827-1.019,2.561-1.873c3.804-4.371,7.891-8.496,12.371-12.204c0.267-0.213,0.492-0.479,0.91-0.905
			c-13.781-1.651-27.286-0.625-40.741,1.298c-13.413,1.905-26.668,4.621-39.431,9.626c1.109-1.339,2.186-2.707,3.345-4.004
			c8.583-9.723,18.693-17.614,29.588-24.525c14.356-9.113,29.655-16.254,45.487-22.301c11.069-4.221,22.339-7.879,33.842-10.782
			c1.234-0.3,2.461-0.613,3.67-1.009c-4.571-0.497-9.118-0.53-13.689-0.351c-8.358,0.351-16.633,1.41-24.825,3.095
			c-11.336,2.323-22.373,5.672-33.15,9.839c-18.185,7.011-35.486,15.761-51.793,26.456c-0.192,0.108-0.367,0.358-0.776,0.254
			c0.784-2.11,1.835-4.058,2.895-6.023c6.94-12.888,15.649-24.47,25.851-34.943c22.706-23.302,50.066-38.372,81.557-46.134
			c2.928-0.726,5.756-1.814,8.659-2.898c-1.135-0.142-2.261-0.321-3.378-0.426c-6.957-0.588-13.922-0.692-20.904-0.342
			c-10.594,0.546-21.113,1.727-31.548,3.666c-0.425,0.083-0.868,0.117-1.285,0.18C66.742,119.933,66.675,119.858,66.617,119.795
			 M138.172,202.023c-0.258,0.083-0.425,0.246-0.509,0.517c-0.726,0.959-1.827,1.606-2.077,2.874
			c-0.033,0.008-0.075,0.025-0.108,0.033c-0.008,0.017,0,0.05-0.008,0.092c0.033-0.042,0.083-0.075,0.125-0.125
			c1.376-0.513,2.553-1.343,3.646-2.315h0.017c1.877-0.83,3.595-1.906,5.213-3.12c0.275-0.113,0.584-0.188,0.843-0.334
			c9.668-5.535,19.845-9.943,30.347-13.605c5.889-2.069,11.878-3.775,17.935-5.247c3.587-0.872,7.19-1.631,10.836-2.244
			c1.651-0.275,3.387-0.283,4.972-1.001c0.984,0.059,1.952,0.113,3.062-0.455h-29.013c-5.255,0-10.494-0.017-15.741-0.017
			c-0.342,0-0.667,0.017-1.001,0.163c-2.236,1.06-4.388,2.248-6.44,3.608c-3.787,2.519-7.257,5.456-10.552,8.559
			c-2.978,2.799-5.914,5.672-8.425,8.942C140.065,199.425,138.981,200.593,138.172,202.023 M150.151,174.467L150.151,174.467
			c1.518-0.079,2.919-0.692,4.354-1.068c1.86-0.463,3.771-0.717,5.539-1.514h0.008c0.392-0.008,0.792,0.042,1.16-0.033
			c3.403-0.947,6.865-1.547,10.302-2.194c4.73-0.905,9.468-1.606,14.214-2.273c1.068-0.146,2.353,0.35,3.253-0.684
			c0.225,0.008,0.45,0.025,0.675,0.025c0.384,0.333,0.826,0.196,1.251,0.163c2.828-0.238,5.656-0.701,8.475-0.684
			c6.932,0,13.897-0.417,20.83,0.446c2.944,0.359,5.914,0.613,8.792,1.239c5.438,1.185,10.853,2.586,16.308,3.808
			c1.544,0.359,3.07,1.001,4.73,0.759c0.142-0.008,0.292-0.025,0.434-0.034c0.316,0.863,1.06,0.375,1.626,0.488
			c0.117,0.212,0.343,0.221,0.543,0.263c2.844,0.455,5.672,0.847,8.542,1.105c4.062,0.367,8.074,0.313,12.078-0.479
			c3.546-0.692,6.332-2.844,9.352-4.571c0.434-0.263,0.476-0.571,0.133-0.938c-0.676-0.726-1.209-1.564-2.035-2.135l-0.008-0.017
			c-0.067-0.267-0.234-0.438-0.501-0.513v-0.017c-0.175-0.701-0.676-1.181-1.101-1.718c-2.528-3.245-4.422-6.807-5.348-10.824
			c-0.184-0.834-0.525-1.264-1.251-1.597c-1.794-0.826-3.537-1.802-5.306-2.699c-6.239-3.149-12.537-6.181-18.943-8.976
			c-1.969-0.855-3.879-1.864-6.015-2.307c-1.418-0.709-2.887-1.222-4.438-1.514c0.342-0.4,0.801-0.238,1.201-0.238
			c2.669-0.017,5.347,0,8.008-0.017c0.509-0.009,1.026,0.154,1.484-0.246c0.251,0,0.518,0.017,0.776-0.013
			c0.283-0.042,0.684,0.146,0.809-0.205c0.067-0.263-0.041-0.588-0.292-0.809c-0.191-0.179-0.392-0.35-0.542-0.555
			c-1.093-1.359-2.102-2.77-2.736-4.817c4.255,2.928,8.884,3.32,13.422,3.704c4.446,0.379,8.959,0.617,13.455,0.642
			c3.212,0.025,6.448,0.3,9.585,1.222c0.267,0.092,0.676,0.496,0.893,0.017c0.2-0.392-0.292-0.563-0.492-0.822
			c-4.037-4.55-8.75-8.162-14.522-10.469c0.3-0.163,0.517-0.292,0.75-0.388c2.895-1.076,5.906-1.631,8.951-1.811
			c4.847-0.263,9.668,0.063,14.397,1.327c7.324,1.981,13.98,5.372,20.028,9.943c3.278,2.473,6.623,4.826,10.269,6.711
			c6.924,3.607,14.256,6.056,21.922,7.474c3.996,0.742,8.009,1.197,12.062,1.301c2.144,0.058,4.296-0.021,6.456-0.226
			c3.421-0.304,6.773-0.75,10.002-1.868c4.38-1.531,8.259-3.633,9.484-8.771c0.826-3.479,1.31-6.911,0.292-10.406
			c-1.526-5.264-5.172-8.754-9.751-11.412c-5.322-3.082-11.262-4.4-17.184-5.81c-5.139-1.23-10.252-2.552-15.366-3.887
			c-4.88-1.264-9.701-2.69-14.598-3.85c-6.182-1.472-12.379-2.853-18.669-3.804c-3.979-0.571-7.949-1.093-11.945-1.143
			c-3.745-0.042-7.482-0.05-11.22,0.455c-4.237,0.596-8.441,1.405-12.32,3.195c-6.131,2.832-12.555,3.825-19.22,3.85
			c-4.188,0.033-8.35-0.113-12.504-0.53c-2.444-0.229-4.88-0.425-7.332-0.659c-2.728-0.271-5.464-0.58-8.2-0.913
			c-2.244-0.246-4.529-0.4-6.757-0.726c-1.935-0.296-3.912-0.58-5.839-0.75c-4.371-0.392-8.75-0.83-13.113-1.18
			c-4.922-0.4-9.852-0.588-14.748-0.588c-3.779-0.008-7.583,0.059-11.361,0.446c-2.728,0.296-5.489,0.417-8.184,0.801
			c-6.223,0.905-12.337,2.365-18.235,4.622c-1.351,0.529-2.794,0.905-4.246,1.956c13.338,1.769,25.501,5.876,36.996,12.846
			c-1.526,0.479-2.753,0.154-3.946,0.309c-5.03,0.596-10.068,1.134-15.09,1.835c-4.438,0.609-8.842,1.31-13.238,2.102
			c-4.78,0.855-9.535,1.785-14.273,2.853c-4.07,0.897-8.091,2.023-12.12,3.065c-5.464,1.41-10.844,3.095-16.183,4.897
			c-6.665,2.227-13.205,4.775-19.628,7.62c-6.115,2.715-12.087,5.722-17.876,9.088c-6.64,3.87-13.004,8.149-18.952,13.05
			c-2.411,2.006-4.888,3.962-6.94,6.39c-2.469,1.673-4.188,4.117-6.181,6.269c-0.492,0.555-1.226,0.984-1.343,1.839L33.784,179
			c0.042-0.033,0.083-0.075,0.117-0.1c2.636-1.823,5.28-3.608,7.899-5.435c1.577-1.118,3.428-1.835,4.872-3.145
			c1.994-0.868,3.887-1.918,5.714-3.09c2.686-1.01,5.264-2.315,7.792-3.675l0.008,0.008c0.417,0.071,0.75-0.158,1.101-0.304
			c5.147-2.215,10.41-4.171,15.757-5.869c7.708-2.452,15.532-4.45,23.465-6.064c5.63-1.147,11.303-2.127,17.009-2.878
			c4.421-0.601,8.842-1.251,13.313-1.539c0.351-0.025,0.567-0.154,0.659-0.488c0.142,0,0.3,0,0.442,0.008
			c0.467,0.367,1.018,0.242,1.519,0.196c2.302-0.221,4.638-0.334,6.94-0.572c1.602-0.154,3.195-0.104,4.771-0.196
			c0.534-0.025,1.068,0.042,1.393-0.488c0.159,0.008,0.317,0.008,0.467,0.025c0.451,0.35,0.993,0.225,1.501,0.196
			c2.019-0.058,4.046-0.263,6.081-0.221c7.382,0.087,14.757-0.238,22.147,0.188c3.312,0.188,6.648,0.188,9.968,0.342
			c1.36,0.05,2.719,0.4,4.087,0.4c1.977,0,3.946,0.48,5.923,0.259h0.534c1.593,0.513,3.253,0.638,4.93,0.4
			c0.15-0.008,0.292-0.008,0.442-0.025c0.184,0.621,0.734,0.471,1.176,0.496c0.559,0.042,1.109,0.042,1.668,0.1
			c2.878,0.317,5.731,0.855,8.634,0.951h-0.008c0.008,0.434-0.317,0.434-0.617,0.513c-5.18,1.535-10.377,3.074-15.541,4.655
			c-2.085,0.638-4.229,1.093-6.189,2.09v-0.017c-1.827,0.171-3.462,0.968-5.155,1.564c-1.927,0.676-3.979,1.026-5.764,2.085
			c-2.895,0.613-5.589,1.768-8.325,2.811c-8.333,3.187-16.667,6.423-24.508,10.728c-1.777,0.963-3.454,2.11-5.18,3.161
			c-0.192,0.1-0.409,0.205-0.359,0.467c0.059,0.292,0.326,0.267,0.518,0.188c1.668-0.68,3.52-0.81,5.097-1.723h0.017
			C148.833,175.046,149.517,174.842,150.151,174.467 M316.567,147.661c-0.225-0.425-0.65-0.563-1.042-0.726
			c-3.671-1.539-7.249-3.245-10.419-5.681c-0.601-0.472-0.935-0.3-1.168,0.325c-0.426,1.134-0.843,2.256-1.193,3.416
			c-1.093,3.658-1.368,7.374-0.517,11.103c1.168,5.206,4.521,8.663,9.042,11.207c5.063,2.874,10.419,3.375,16.008,2.198
			c4.154-0.872,7.383-3.299,9.977-6.536c1.418-1.777,2.527-3.808,3.295-5.989c0.233-0.63,0.275-1.03-0.525-1.264
			c-2.027-0.588-4.013-1.322-6.048-1.894c-0.909-0.25-1.743-0.855-2.828-0.659c0.609,1.656,0.743,3.287,0.393,4.921
			c-1.026,4.859-5.806,8.2-10.928,7.028c-3.67-0.847-6.74-4.646-6.656-7.395c2.252,0.767,4.287,0.4,5.889-1.402
			C322.54,153.292,320.964,148.449,316.567,147.661 M122.031,215.032c-0.159,0.05-0.35,0.075-0.484,0.15
			c-4.93,2.957-9.776,5.998-14.264,9.609c-1.593,1.26-3.028,2.711-4.43,4.171c-0.217,0.238-0.417,0.597-0.417,0.914
			c-0.008,0.325,0.392,0.267,0.634,0.237c3.587-0.092,7.157,0.283,10.727,0.513c3.662,0.242,7.266,0.734,10.895,1.214
			c2.961,0.393,5.931,0.947,8.9,1.394c0.667,0.1,1.41,0.083,2.061-0.097c3.954-1.005,7.891-2.072,11.829-3.124
			c5.597-1.521,11.194-3.057,16.817-4.546c8.75-2.331,17.509-4.638,26.276-6.961c5.072-1.331,10.144-2.657,15.215-4.013
			c0.967-0.258,1.943-0.555,2.936-0.813c-0.934-0.246-1.818-0.417-2.719-0.417c-12.58-0.025-25.167-0.025-37.763-0.025
			c-0.492,0-1.042-0.154-1.485,0.221h-1.476c-0.551-0.35-1.102-0.35-1.652,0h-0.434c-1.335-0.521-2.728-0.221-4.071-0.204
			c-1.619,0.008-3.27-0.301-4.847,0.204c-0.484,0-0.984,0-1.46-0.017c-0.3-0.734-0.959-0.455-1.459-0.455
			c-8-0.034-15.983,0.042-23.982-0.083C125.201,212.88,123.624,213.86,122.031,215.032 M359.219,236.667
			c-0.275-0.53-0.768-0.305-1.151-0.305c-14.164-0.029-28.32-0.013-42.492-0.038c-0.984,0-1.352,0.242-1.335,1.293
			c0.066,3.688,0.009,7.362,0.042,11.045c0,0.408-0.184,0.88,0.241,1.201c0.984,0.592,2.103,0.188,3.162,0.463
			c0.784,0.221,1.051,0.4,1.043,1.222c-0.025,13.418,0,26.849-0.075,40.282c-0.009,1.881-0.734,3.691-2.119,5.126
			c-2.127,2.24-4.922,2.716-7.749,3.137c-3.195,0.483-6.382,0.263-9.543-0.301c-2.819-0.496-5.389-1.58-6.865-4.296
			c-0.993-1.835-1.243-3.845-1.269-5.885c-0.024-12.129,0-24.254,0-36.374c0-3.023,0-3.058,3.087-3.065
			c0.959-0.017,1.326-0.367,1.326-1.297c-0.025-4.075-0.033-8.142-0.05-12.208c-0.233-0.505-0.668-0.317-1.018-0.317
			c-14.265-0.017-28.495,0-42.76-0.025c-0.909,0-1.193,0.292-1.185,1.189c0.042,3.766,0.017,7.532,0.017,11.303
			c0,0.358-0.108,0.784,0.267,1.076c1.01,0.525,2.119,0.287,3.17,0.425c1.151,0.154,1.26,0.605,1.26,1.556
			c-0.017,12.938,0.017,25.905-0.042,38.856c0,3.954,0.459,7.824,1.401,11.624c2.437,9.756,7.825,17.351,16.5,22.543
			c8.267,4.947,17.359,6.854,26.869,7.166c0.233,0.275,0.542,0.259,0.843,0.259h8.708c0.301-0.009,0.617,0.024,0.826-0.268
			c0.968,0,1.936,0.113,2.853-0.024c4.479-0.613,8.942-1.214,13.288-2.536c6.173-1.914,11.829-4.718,16.567-9.176
			c8.1-7.6,11.52-17.297,11.712-28.111c0.258-13.46,0.066-26.948,0.033-40.412c0-0.913,0.1-1.468,1.242-1.451
			c0.751,0.009,1.511-0.292,2.286-0.213c0.775,0.067,0.959-0.3,0.951-1.001C359.228,244.979,359.228,240.809,359.219,236.667
			 M113.489,332.07c2.82,0.226,5.614-0.195,8.383-0.579c4.371-0.597,8.692-1.556,12.905-2.991
			c6.999-2.423,13.155-6.03,17.776-11.924c6.031-7.712,7.666-16.5,5.781-25.897c-1.427-7.186-5.631-12.608-11.912-16.324
			c-1.185-0.701-1.293-1.272-0.692-2.444c4.655-9.205,9.234-18.447,13.889-27.674c0.5-1.001,0.375-1.351-0.709-1.701
			c-2.778-0.931-5.547-1.915-8.225-3.049c-1.785-0.751-3.187-0.726-4.288,1.018c-0.192,0.279-0.5,0.496-0.717,0.751
			c-0.476,0.555-0.993,0.65-1.727,0.471c-5.43-1.326-10.802-2.819-16.299-3.896c-7.065-1.418-14.214-2.061-21.372-2.461
			c-3.721-0.204-7.458,0.092-11.12,0.547c-5.989,0.717-11.845,2.118-17.342,4.784c-5.222,2.535-9.818,5.91-13.255,10.677
			c-2.853,3.938-4.521,8.371-5.164,13.188c-0.4,3.074-0.217,6.106,0.434,9.113c1.101,5.135,3.837,9.185,7.983,12.333
			c0.534,0.422,0.876,0.872,0.542,1.669c-2.878,6.831-5.748,13.668-8.609,20.508c-2.16,5.168-4.288,10.344-6.49,15.494
			c-0.384,0.905-0.05,1.164,0.667,1.335c3.253,0.801,6.506,1.526,9.743,2.424c1.151,0.316,1.96,0.087,2.594-0.818
			c0.701-1.025,1.577-1.092,2.669-0.7c5.897,2.073,11.903,3.716,18.084,4.68c4.988,0.788,9.968,1.468,15.015,1.46
			c0.059,0.054,0.133,0.154,0.208,0.154c3.679,0.196,7.366,0.196,11.053,0C113.364,332.217,113.414,332.133,113.489,332.07
			 M390,207.542c-0.492-0.258-0.801,0.179-1.177,0.321c-8.7,4-17.768,6.494-27.41,6.381c-9.686-0.1-18.235-3.187-25.226-10.098
			c-0.492-0.484-1.001-0.58-1.618-0.555c-4.446,0.3-8.901,0.576-13.355,0.855c-12.654,0.83-25.317,1.668-37.979,2.494
			c-1.86,0.113-3.729,0.213-5.589,0.317c2.603-0.963,5.229-1.743,7.874-2.511c18.235-5.322,36.462-10.636,54.672-15.991
			c1.009-0.3,1.352-0.05,1.769,0.864c2.336,4.93,5.964,8.583,10.961,10.777c6.147,2.77,12.504,2.402,18.936,1.034
			c2.428-0.504,4.254-1.418,4.988-3.929c0.125-0.4,0.384-0.768,0.593-1.151c3.011-5.876,6.039-11.783,9.05-17.659
			c0.268-0.492,0.426-1.047,1.227-0.768c6.674,2.248,12.046,6.048,15.023,12.65c2.419,5.347,2.27,10.898,1.109,16.537
			c-0.167,0.805-0.384,1.598-0.584,2.386c-0.191,0.768-0.4,1.552-0.667,2.586c0.3-0.271,0.375-0.317,0.426-0.392
			c4.412-6.928,7.69-14.318,8.416-22.61c0.484-5.493-0.584-10.669-3.795-15.299c-1.452-2.077-3.22-3.829-5.23-5.38
			c-0.358-0.275-0.81-0.463-0.242-1.076c2.553-2.786,5.939-3.708,9.368-2.486c0.05,0.05,0.1,0.092,0.142,0.142
			c0-0.042,0.009-0.075,0.009-0.117h-0.176c0.217-0.446-0.033-0.821-0.191-1.205c-1.894-4.972-5.005-8.942-9.502-11.841
			c-5.472-3.507-11.544-4.413-17.9-4.158c-0.242,0.017-0.509,0.067-0.727,0.188c-8.433,4.254-16.708,8.763-24.291,14.436
			c-2.994,2.223-5.98,4.521-7.907,7.791c-0.96,1.606-2.194,2.861-3.57,4.025c-7.642,6.398-16.258,11.145-25.417,14.94
			c-18.026,7.491-36.954,10.703-56.349,11.387c-1.576,0.05-2.744,0.45-3.662,1.656c-0.242,0.317-0.534,0.588-0.784,0.88
			c-3.161,3.979-2.419,7.303,2.127,9.522c3.438,1.685,7.133,2.307,10.878,2.803c1.401,0.18,2.853,0.692,4.237,0.196
			c5.313-1.793,10.795-2.315,16.35-2.365c10.536-0.104,20.838,1.639,30.974,4.417c7.607,2.09,15.148,4.412,23.123,4.9
			c9.351,0.547,18.41-0.58,27.01-4.329c5.506-2.411,10.402-5.697,14.064-10.594c-0.017-0.042,0.217-0.1-0.017-0.142
			C389.975,207.438,389.983,207.487,390,207.542 M203.997,274.226c0,7.374,0.008,14.743-0.017,22.105
			c0,1.08-0.092,2.173-0.325,3.224c-0.25,1.143-0.959,1.818-2.294,1.844c-3.062,0.05-6.14,0.096-9.143-0.58
			c-2.728-0.601-5.489-1.13-7.983-2.52c-0.701-0.404-0.868-0.812-0.709-1.563c0.284-1.214,0.484-2.444,0.692-3.683
			c0.133-0.801-0.092-1.298-1.018-1.614c-3.396-1.181-6.791-2.356-10.227-3.433c-0.676-0.196-1.035-0.43-1.36,0.384
			c-1.259,3.161-2.552,6.311-3.837,9.472c-2.136,5.234-4.271,10.473-6.407,15.69c-1.318,3.203-2.578,6.407-3.904,9.585
			c-0.317,0.78-0.175,1.23,0.601,1.664c2.319,1.326,4.588,2.753,6.89,4.121c0.918,0.555,1.835,1.418,2.82,1.501
			c1.151,0.104,1.676-1.322,2.561-1.98c0.067-0.051,0.15-0.097,0.2-0.154c0.526-0.605,1.093-0.668,1.844-0.409
			c2.636,0.913,5.339,1.647,8.058,2.323c4.888,1.222,9.885,1.931,14.915,2.094c5.264,0.188,10.536,0.05,15.782-0.701
			c5.431-0.755,10.61-2.173,15.374-4.921c6.006-3.495,9.901-8.646,11.929-15.232c1.276-4.083,1.71-8.316,1.71-12.616v-46.681
			c0-0.392,0-0.775,0.008-1.168c0.009-0.283,0.126-0.505,0.442-0.521c0.984-0.037,1.802-0.788,2.853-0.584
			c0.826,0.209,1.127-0.204,1.127-1.055c-0.051-3.787-0.051-7.537-0.009-11.328c0.009-0.922-0.317-1.164-1.218-1.164
			c-14.206,0.025-28.42,0.025-42.626,0c-0.918,0-1.185,0.292-1.185,1.189c0.042,3.374,0.025,6.765,0.017,10.139
			c-0.008,2.24-0.008,2.24,2.161,2.52c0.342,0.025,0.684,0.246,1.018,0.204c1.193-0.125,1.285,0.53,1.285,1.497
			C203.979,259.318,203.997,266.784,203.997,274.226"/>
		<path clip-path="url(#SVGID_2_)" fill-rule="evenodd" clip-rule="evenodd" fill="#FFFFFF" d="M377.254,238.239
			c-0.184,0.521-0.343,1.042-0.567,1.53c-0.2,0.438-0.067,1.164-0.776,1.188c-0.733,0.042-0.625-0.7-0.809-1.121
			c-0.226-0.556-0.426-1.093-0.718-1.877c-0.325,0.88-0.15,1.556-0.217,2.21c-0.025,0.359,0.158,0.839-0.483,0.83
			c-0.576-0.024-0.4-0.471-0.4-0.784c-0.034-1.122-0.034-2.231-0.009-3.374c0.009-0.301-0.158-0.771,0.426-0.729
			c0.441,0.046,0.951-0.196,1.176,0.504c0.242,0.839,0.584,1.652,0.993,2.795c0.408-1.076,0.784-1.844,0.976-2.657
			c0.175-0.759,0.65-0.642,1.168-0.658c0.792-0.009,0.459,0.592,0.483,0.942c0.017,1.126,0,2.243,0,3.391
			c0,0.279,0.017,0.604-0.45,0.58c-0.375-0.009-0.542-0.196-0.542-0.555v-2.186C377.42,238.269,377.346,238.239,377.254,238.239"/>
		<path clip-path="url(#SVGID_2_)" fill-rule="evenodd" clip-rule="evenodd" fill="#FFFFFF" d="M370.472,236.112
			c0.476,0,0.935-0.017,1.418,0c0.267,0,0.609-0.101,0.634,0.396c0.009,0.434-0.258,0.521-0.584,0.476
			c-0.967-0.171-1.025,0.376-0.984,1.122c0.042,0.672,0.018,1.381,0,2.081c-0.008,0.343,0.15,0.789-0.492,0.813
			c-0.65,0.009-0.533-0.4-0.542-0.788c-0.008-0.63-0.017-1.28,0-1.927c0.025-0.755,0.092-1.531-1.067-1.302
			c-0.301,0.055-0.467-0.066-0.492-0.417c-0.042-0.454,0.226-0.471,0.559-0.471C369.429,236.112,369.946,236.112,370.472,236.112"/>
		<path clip-path="url(#SVGID_2_)" fill-rule="evenodd" clip-rule="evenodd" fill="#FFFFFF" d="M66.8,120.004
			c-0.167,0.021-0.45,0.079-0.467,0.046c-0.075-0.242,0.159-0.205,0.284-0.25C66.667,119.854,66.742,119.929,66.8,120.004"/>
		<path clip-path="url(#SVGID_2_)" fill-rule="evenodd" clip-rule="evenodd" fill="#29BBED" d="M197.632,146.772h-0.534
			c0-0.563-0.342-0.672-0.842-0.697c-2.21-0.129-4.421-0.046-6.648-0.421c-3.503-0.555-7.107-0.35-10.644-0.475
			c-10.068-0.38-20.162-0.129-30.264-0.146c-0.5,0-1.068-0.063-1.31,0.571c-0.15-0.008-0.3-0.008-0.459-0.025
			c-0.417,0-0.851-0.008-1.276-0.034c-4.188-0.225-8.325,0.914-12.512,0.538c-0.417-0.038-0.784,0.042-0.834,0.563
			c-0.142-0.017-0.309-0.017-0.442-0.017c-1.268-0.008-2.645-0.358-3.746,0.067c-2.094,0.822-4.279,0.325-6.415,0.796
			c-1.96,0.434-4.096,0.697-6.198,0.809c-1.101,0.05-2.411,0.05-3.478,0.497c-1.485,0.642-3.07,0.496-4.588,0.817
			c-1.259,0.275-2.561,0.584-3.879,0.78c-0.834,0.121-1.785,0.129-2.577,0.409c-1.501,0.538-2.978,0.993-4.58,1.009
			c-0.301,0-0.618,0.008-0.876,0.146c-2.036,1.059-4.354,1.255-6.523,1.785c-2.277,0.571-4.58,1.167-6.832,1.827
			c-2.544,0.784-5.139,1.468-7.658,2.398c-2.319,0.863-4.638,1.693-6.965,2.557c-1.56,0.588-3.053,1.401-4.713,1.777
			c-0.859,0.188-1.918,0.384-2.277,1.476l-0.017-0.017c-0.517-0.058-1.034,0.034-1.518,0.238c-1.86,0.755-3.503,2.052-5.531,2.478
			c-0.35,0.071-0.75,0.446-0.742,0.959c-1.818,1.185-3.72,2.235-5.714,3.09c-1.376-0.025-2.336,0.905-3.387,1.573
			c-1.794,1.126-3.537,2.323-5.414,3.57c0-1.001,0.684-1.393,1.126-1.922c0.776-0.947,1.927-1.547,2.428-2.749
			c2.052-2.419,4.529-4.392,6.949-6.39c5.939-4.896,12.304-9.176,18.952-13.055c5.781-3.366,11.753-6.377,17.868-9.097
			c6.431-2.836,12.963-5.38,19.628-7.607c5.347-1.806,10.719-3.487,16.174-4.905c4.046-1.035,8.066-2.161,12.137-3.058
			c4.73-1.067,9.493-1.998,14.265-2.861c4.404-0.789,8.8-1.489,13.238-2.094c5.021-0.701,10.06-1.239,15.09-1.835
			c1.201-0.154,2.428,0.171,3.954-0.317c-11.503-6.97-23.666-11.069-37.004-12.838c1.452-1.051,2.886-1.426,4.246-1.956
			c5.906-2.248,12.012-3.716,18.235-4.622c2.694-0.392,5.456-0.513,8.183-0.796c3.787-0.392,7.583-0.467,11.353-0.451
			c4.914,0,9.835,0.18,14.757,0.58c4.371,0.35,8.733,0.792,13.113,1.18c1.936,0.171,3.904,0.467,5.848,0.759
			c2.219,0.325,4.504,0.479,6.748,0.734c2.736,0.325,5.464,0.622,8.208,0.897c2.444,0.246,4.889,0.425,7.324,0.667
			c4.154,0.409,8.316,0.563,12.504,0.53c6.665-0.025,13.088-1.018,19.22-3.846c3.879-1.793,8.083-2.603,12.312-3.195
			c3.753-0.521,7.474-0.504,11.228-0.467c3.996,0.05,7.967,0.58,11.945,1.159c6.29,0.93,12.487,2.323,18.669,3.792
			c4.896,1.164,9.718,2.59,14.598,3.854c5.113,1.326,10.228,2.657,15.374,3.879c5.914,1.418,11.854,2.74,17.167,5.818
			c4.588,2.657,8.233,6.147,9.76,11.411c1.018,3.491,0.534,6.919-0.292,10.411c-1.226,5.126-5.104,7.236-9.493,8.763
			c-3.22,1.114-6.573,1.573-9.984,1.881c-2.161,0.196-4.321,0.275-6.457,0.212c-4.062-0.1-8.074-0.546-12.062-1.289
			c-7.675-1.426-14.999-3.871-21.922-7.474c-3.662-1.898-6.999-4.238-10.277-6.715c-6.048-4.575-12.688-7.97-20.028-9.943
			c-4.729-1.272-9.543-1.597-14.397-1.339c-3.045,0.18-6.057,0.743-8.942,1.819c-0.233,0.096-0.451,0.229-0.76,0.375
			c5.772,2.323,10.486,5.931,14.523,10.489c0.2,0.246,0.692,0.43,0.492,0.813c-0.226,0.476-0.617,0.075-0.893-0.017
			c-3.137-0.926-6.373-1.197-9.585-1.222c-4.496-0.025-9.009-0.267-13.455-0.642c-4.538-0.384-9.167-0.776-13.422-3.708
			c0.634,2.052,1.644,3.454,2.736,4.826c0.15,0.196,0.351,0.379,0.542,0.546c0.25,0.225,0.367,0.55,0.292,0.822
			c-0.125,0.35-0.525,0.154-0.801,0.196c-0.25,0.025-0.534,0.008-0.775,0.008h-11.662c0.342,0.555,0.659,0.497,0.959,0.505
			c1.561,0.292,3.037,0.796,4.438,1.514c0.008,0.304,0.125,0.434,0.408,0.563c1.811,0.817,3.654,1.535,5.506,2.244
			c2.353,0.897,4.538,2.198,6.891,3.187c3.152,1.301,6.139,2.999,9.268,4.417c2.443,1.101,4.821,2.382,7.157,3.675
			c0.767,0.409,1.734,0.801,1.918,1.776c0.551,2.953,1.752,5.618,3.403,8.096c0.984,1.506,1.677,3.274,3.412,4.163l0.008,0.008
			c-0.024,0.367,0.15,0.53,0.501,0.521l0.009,0.008c0.033,0.288-0.025,0.742,0.133,0.851c1.644,1.206,1.01,1.798-0.358,2.836
			c-3.22,2.444-6.898,3.7-10.77,4.017c-3.103,0.238-6.272,0.204-9.484-0.275c-2.652-0.392-5.38-1.042-8.142-0.663
			c-0.292-0.968-1.067-0.359-1.618-0.488c-0.142,0.009-0.3,0.025-0.442,0.034c-0.884-1.001-2.193-0.801-3.319-1.068
			c-1.269-0.284-2.578-0.479-3.846-0.709c-2.569-0.471-5.097-1.16-7.558-1.973c-1.285-0.417-2.645-0.505-3.929-0.872
			c-1.135-0.317-2.336-0.65-3.596-0.742c-1.234-0.075-2.594-0.171-3.737-0.546c-2.151-0.726-4.429-0.734-6.539-0.789
			c-8.959-0.196-17.943-0.509-26.877,0.388c-0.442,0.042-0.901-0.038-0.984,0.571c-0.217,0-0.45-0.008-0.684-0.025
			c-1.635-0.179-3.236,0.375-4.813,0.4c-2.036,0.025-3.938,0.914-5.964,0.634c-0.092-0.012-0.184,0.017-0.267,0.042
			c-2.235,0.817-4.646,0.896-6.949,1.393c-2.077,0.442-4.196,0.867-6.314,1.247c-0.759,0.15-1.593,0.221-2.327,0.475
			c-0.776,0.259-1.769,0.104-2.277,1.001h-0.008c-3.112-0.375-5.781,1.401-8.742,1.776c-0.292,0.025-1.118,0.067-1.16,0.801
			c-0.676,0.242-1.602-0.538-2.052,0.538h-0.017c-0.5,0.025-1.026,0.054-1.535,0.088c-0.2,0.017-0.359-0.034-0.417-0.229
			c-0.067-0.2,0.066-0.275,0.242-0.367c1.276-0.692,2.536-1.456,3.846-2.11c3.17-1.564,6.348-3.12,9.568-4.58
			c2.102-0.968,4.271-1.793,6.423-2.615c2.586-0.98,5.122-2.119,7.774-2.911c1.81-0.538,3.52-1.435,5.355-1.906
			c0.567-0.129,1.302-0.221,1.502-1.001c0.709-0.066,1.384,0.071,2.135-0.238c1.785-0.726,3.679-1.159,5.489-1.852
			c1.126-0.438,2.344-0.726,3.295-1.556v0.017c1.035,0.25,1.927-0.309,2.853-0.521c1.426-0.359,2.903-0.613,4.229-1.188
			c2.486-1.076,5.097-1.698,7.683-2.407c2.586-0.717,5.088-1.744,7.758-2.161c0.35-0.05,0.525-0.358,0.517-0.65
			c-0.008-0.48-0.417-0.296-0.692-0.326h0.008c-0.008-0.375-0.217-0.529-0.584-0.538c-0.968-0.042-1.977-0.417-2.853-0.417
			c-2.703,0-5.33-1.001-8.041-0.596c-0.15,0.008-0.292,0.008-0.442,0.025c-0.058-0.267-0.142-0.555-0.459-0.546
			C200.618,146.655,199.108,146.38,197.632,146.772"/>
		<path clip-path="url(#SVGID_2_)" fill-rule="evenodd" clip-rule="evenodd" fill="#29BBED" d="M411.538,164.84
			c-3.429-1.226-6.815-0.296-9.376,2.486c-0.56,0.609-0.101,0.805,0.259,1.076c2.002,1.556,3.77,3.308,5.222,5.385
			c3.211,4.629,4.279,9.797,3.787,15.298c-0.726,8.292-3.987,15.683-8.408,22.602c-0.051,0.075-0.134,0.125-0.426,0.392
			c0.267-1.035,0.476-1.819,0.659-2.582c0.208-0.784,0.425-1.577,0.601-2.39c1.151-5.631,1.301-11.182-1.118-16.529
			c-2.978-6.611-8.35-10.402-15.023-12.658c-0.801-0.275-0.959,0.275-1.227,0.775c-3.011,5.877-6.039,11.779-9.05,17.651
			c-0.209,0.383-0.468,0.75-0.593,1.151c-0.726,2.52-2.561,3.433-4.988,3.929c-6.423,1.368-12.788,1.735-18.936-1.026
			c-4.997-2.202-8.625-5.852-10.961-10.786c-0.417-0.905-0.751-1.155-1.769-0.855c-18.202,5.355-36.437,10.669-54.672,15.991
			c-2.645,0.767-5.271,1.543-7.874,2.511c1.86-0.104,3.729-0.213,5.589-0.317c12.662-0.83,25.316-1.673,37.979-2.494
			c4.446-0.284,8.909-0.563,13.347-0.855c0.626-0.033,1.135,0.071,1.627,0.555c6.99,6.911,15.54,9.989,25.226,10.089
			c9.643,0.121,18.701-2.373,27.41-6.373c0.376-0.146,0.685-0.58,1.177-0.325l-0.017-0.025c-3.671,4.888-8.567,8.183-14.073,10.586
			c-8.608,3.758-17.659,4.884-27.01,4.329c-7.975-0.479-15.508-2.803-23.123-4.893c-10.136-2.778-20.438-4.521-30.974-4.425
			c-5.547,0.05-11.036,0.58-16.35,2.373c-1.385,0.488-2.836-0.017-4.237-0.204c-3.745-0.488-7.44-1.118-10.878-2.794
			c-4.546-2.228-5.297-5.543-2.127-9.522c0.25-0.292,0.542-0.572,0.784-0.889c0.926-1.197,2.077-1.597,3.662-1.651
			c19.395-0.68,38.322-3.892,56.356-11.387c9.151-3.791,17.776-8.542,25.409-14.94c1.368-1.168,2.61-2.415,3.57-4.029
			c1.927-3.274,4.904-5.56,7.907-7.792c7.592-5.664,15.85-10.172,24.291-14.427c0.218-0.121,0.476-0.179,0.734-0.196
			c6.349-0.25,12.421,0.651,17.885,4.167c4.505,2.89,7.616,6.861,9.518,11.833c0.15,0.384,0.4,0.759,0.184,1.214L411.538,164.84z"/>
		<path clip-path="url(#SVGID_2_)" fill-rule="evenodd" clip-rule="evenodd" fill="#29BBED" d="M102.044,332.07
			c-5.055,0.009-10.035-0.68-15.023-1.468c-6.189-0.964-12.187-2.606-18.076-4.68c-1.101-0.392-1.977-0.325-2.678,0.7
			c-0.634,0.905-1.452,1.135-2.594,0.826c-3.229-0.905-6.49-1.631-9.743-2.432c-0.717-0.171-1.051-0.421-0.659-1.335
			c2.202-5.143,4.33-10.326,6.481-15.494c2.861-6.84,5.723-13.677,8.601-20.508c0.333-0.784-0.008-1.247-0.534-1.664
			c-4.146-3.153-6.882-7.203-7.991-12.338c-0.642-3.007-0.817-6.039-0.425-9.113c0.65-4.817,2.311-9.251,5.164-13.188
			c3.428-4.767,8.024-8.142,13.263-10.677c5.48-2.666,11.345-4.067,17.334-4.784c3.67-0.455,7.399-0.751,11.12-0.547
			c7.166,0.4,14.314,1.043,21.38,2.461c5.48,1.076,10.861,2.569,16.291,3.896c0.734,0.18,1.243,0.084,1.727-0.471
			c0.217-0.255,0.534-0.472,0.717-0.751c1.101-1.743,2.502-1.769,4.288-1.018c2.678,1.134,5.456,2.118,8.225,3.049
			c1.084,0.351,1.209,0.7,0.709,1.701c-4.655,9.227-9.234,18.469-13.889,27.674c-0.592,1.172-0.5,1.743,0.692,2.444
			c6.273,3.716,10.494,9.139,11.912,16.324c1.885,9.397,0.25,18.186-5.781,25.897c-4.622,5.901-10.778,9.501-17.768,11.924
			c-4.212,1.443-8.534,2.395-12.913,2.991c-2.769,0.384-5.555,0.805-8.383,0.588C109.677,332.07,105.865,332.07,102.044,332.07
			 M103.053,307.634c-2.786,0.008-5.514-0.513-8.216-1.06c-5.915-1.181-11.662-2.878-16.909-5.952
			c-2.453-1.455-4.363-3.24-3.47-6.485c0.259-0.98-0.434-1.197-1.051-1.435c-0.884-0.325-0.734,0.579-0.876,0.913
			c-3.662,8.63-7.274,17.28-10.944,25.918c-0.384,0.922-0.117,1.168,0.726,1.368c0.759,0.149,1.226-0.055,1.693-0.601
			c1.043-1.223,2.311-1.535,3.854-1.034c3.078,1.018,6.148,2.019,9.268,2.906c14.264,4.029,28.787,4.972,43.477,3.32
			c6.515-0.742,12.838-2.365,18.627-5.618c7.858-4.417,12.854-10.84,13.597-20.049c0.743-9.021-2.486-16.188-10.527-20.809
			c-5.789-3.35-12.212-4.713-18.736-5.706c-7.757-1.159-15.599-1.451-23.382-2.34c-3.22-0.375-6.448-0.792-9.468-2.094
			c-1.785-0.775-3.295-1.894-3.395-4.037c-0.092-2.002,1.101-3.383,2.728-4.4c3.036-1.856,6.39-2.557,9.893-2.744
			c4.096-0.009,8.2-0.009,12.296-0.009c3.169-0.017,6.281,0.521,9.401,1.051c4.78,0.806,9.501,1.811,13.922,3.904
			c1.777,0.847,3.52,1.769,3.22,4.296c-0.1,0.942,1.018,0.896,1.602,1.214c0.643,0.325,0.601-0.45,0.776-0.742
			c1.427-2.778,2.811-5.568,4.204-8.362c1.969-3.93,3.921-7.875,5.923-11.812c0.35-0.676,0.259-0.926-0.442-1.163
			c-0.692-0.238-1.167-0.196-1.693,0.384c-1.276,1.48-2.936,1.897-4.813,1.556c-0.901-0.163-1.777-0.359-2.653-0.605
			c-11.812-3.194-23.682-5.743-36.002-5.876c-7.416-0.097-14.69,0.596-21.688,3.22c-7.049,2.64-13.088,6.644-16.425,13.676
			c-2.761,5.806-3.312,11.846-0.284,17.747c2.369,4.604,6.548,7.148,11.153,9.063c6.615,2.744,13.63,3.829,20.679,4.654
			c6.915,0.813,13.864,1.385,20.788,2.145c2.844,0.316,5.655,0.821,8.267,2.052c2.168,1.034,2.794,2.419,2.344,4.75
			c-0.55,2.815-2.286,4.705-4.746,5.978c-3.837,1.989-8,2.648-12.279,2.819H103.053z M123.407,298.979
			c-1.301-0.547-2.444-0.571-3.579-0.768c-4.363-0.801-8.792-1.06-13.188-1.477c-3.628-0.334-7.274-0.676-10.911-1.139
			c-4.455-0.547-8.893-1.46-13.238-2.636c-1.001-0.259-1.36-0.08-1.693,0.876c-0.325,0.934-0.159,1.438,0.701,1.813
			c0.676,0.297,1.293,0.701,1.952,1.006c7.191,3.315,14.79,4.75,22.623,5.222c3.896,0.246,7.774-0.209,11.611-0.78
			C119.604,300.818,121.572,300.348,123.407,298.979 M96.947,264.29c2.027,0.317,3.695,0.53,5.347,0.747
			c4.571,0.612,9.167,0.717,13.73,1.264c2.603,0.309,5.213,0.504,7.791,0.963c2.619,0.488,5.239,0.914,7.858,1.344
			c0.242,0.05,0.617,0.358,0.768-0.121c0.142-0.4-0.108-0.651-0.459-0.784c-1.018-0.396-1.994-0.863-3.028-1.122
			c-5.723-1.51-11.52-2.561-17.443-2.97c-3.028-0.242-6.047-0.154-9.059-0.171C100.709,263.439,98.982,263.765,96.947,264.29"/>
		<path clip-path="url(#SVGID_2_)" fill-rule="evenodd" clip-rule="evenodd" fill="#29BBED" d="M299.959,332.066
			c-9.518-0.316-18.61-2.228-26.885-7.174c-8.659-5.185-14.048-12.788-16.483-22.535c-0.959-3.808-1.41-7.679-1.41-11.633
			c0.059-12.941,0.025-25.909,0.042-38.855c0-0.942-0.1-1.401-1.26-1.547c-1.051-0.146-2.16,0.1-3.17-0.43
			c0.017-4.021,0.042-8.037,0-12.059c-0.008-0.896,0.242-1.222,1.168-1.222c14.507,0.042,28.996,0.042,43.511,0.05
			c0.008,4.075,0.017,8.134,0.041,12.217c0,0.922-0.366,1.272-1.317,1.289c-3.078,0.008-3.078,0.05-3.078,3.073
			c0,12.121-0.025,24.241,0,36.366c0.017,2.048,0.275,4.054,1.26,5.894c1.477,2.706,4.054,3.791,6.873,4.296
			c3.153,0.555,6.34,0.784,9.535,0.296c2.827-0.417,5.613-0.896,7.741-3.132c1.384-1.436,2.11-3.245,2.118-5.135
			c0.084-13.426,0.05-26.856,0.084-40.282c0.008-0.813-0.251-1.001-1.043-1.214c-1.06-0.275-2.178,0.121-3.153-0.463
			c0-3.841,0.05-7.687-0.025-11.549c-0.024-1.256,0.376-1.706,1.61-1.706c14.373,0.042,28.729,0.042,43.093,0.05
			c0.009,4.15,0.009,8.321,0.042,12.463c0.009,0.7-0.158,1.076-0.935,1.001c-0.783-0.071-1.551,0.229-2.302,0.221
			c-1.135-0.017-1.227,0.53-1.227,1.452c0.033,13.463,0.209,26.952-0.033,40.411c-0.2,10.814-3.62,20.508-11.712,28.111
			c-4.746,4.459-10.402,7.262-16.583,9.168c-4.338,1.33-8.801,1.927-13.271,2.535c-0.935,0.146-1.894,0.025-2.854,0.025
			C306.866,332.05,303.421,332.066,299.959,332.066 M347.265,301.869l-0.017,0.009c0.15-0.059,0.417-0.101,0.435-0.188
			c0.392-1.844,1.234-3.587,1.176-5.543c-0.017-0.793,0.175-1.568,0.351-2.356c0.233-1.026,0.742-2.34-0.351-3.333
			c0-0.171,0-0.351,0.008-0.513c0.843-0.229,0.484-0.931,0.484-1.414c0.025-13.551,0.025-27.098,0.025-40.67
			c0-1.981,0.475-2.503,2.419-2.657c1.852-0.154,2.186-0.726,1.477-2.553c-0.117-0.087-0.217-0.171-0.317-0.267
			c-0.2-0.408-0.584-0.279-0.918-0.279c-10.252-0.021-20.495-0.021-30.747-0.021c-0.434,0-0.859-0.034-1.143,0.429
			c-0.301,0.451-0.543,0.822-0.259,1.402c0.434,0.88,1.101,0.988,1.936,0.759h-0.009c0.017,0.221,0.066,0.408,0.342,0.496
			c2.103,0.659,2.253,0.855,2.253,3.041V290.7c0,1.005-0.2,1.964-0.343,2.928c-0.191,1.272-0.909,2.428-0.709,3.774
			c-0.509,0.576-0.509,1.401-0.959,2.053c-1.644,2.348-3.762,4.066-6.415,5.071c-6.105,2.273-12.354,2.344-18.644,1.018
			c-7.449-1.572-11.277-5.969-12.137-13.53c0.233-0.237,0.2-0.555,0.2-0.854c-0.009-15.016-0.017-30.03-0.033-45.05
			c0.601-1.401,1.968-1.238,3.128-1.598c0.342-0.1,1.001,0.163,0.984-0.479c-0.017-0.571,0.441-1.33-0.468-1.655
			c-0.35-0.48-0.876-0.271-1.326-0.271c-9.76-0.021-19.545-0.021-29.312,0c-0.45,0-0.968-0.209-1.318,0.271
			c-0.601,1.589-0.434,1.905,1.06,2.248c1.102,0.246,2.36,0.221,2.836,1.572c-0.008,15.073-0.008,30.176-0.008,45.254
			c0,0.375-0.117,0.783,0.25,1.084c0.101,0.726,0.192,1.451,0.267,2.186c0.459,4.604,1.552,9.021,3.671,13.146
			c4.004,7.866,10.603,12.592,18.777,15.357c5.747,1.931,11.678,2.728,17.726,2.948c7.425,0.275,14.799-0.204,21.98-2.193
			c6.515-1.794,12.321-4.801,16.942-9.835c2.794-3.058,4.638-6.636,6.156-10.419c0.3,0.092,0.592,0.171,0.575-0.325
			C347.273,302.87,347.273,302.374,347.265,301.869"/>
		<path clip-path="url(#SVGID_2_)" fill-rule="evenodd" clip-rule="evenodd" fill="#29BBED" d="M165.283,213.456h1.476
			c0.509,0.008,1.035,0.037,1.543,0.037c12.162,0,24.316,0,36.47,0.017c0.659,0,1.552-0.226,1.018,0.98
			c-5.081,1.36-10.135,2.69-15.215,4.017c-8.759,2.323-17.526,4.63-26.276,6.961c-5.614,1.485-11.228,3.032-16.817,4.542
			c-3.938,1.06-7.875,2.127-11.837,3.137c-0.643,0.171-1.385,0.188-2.052,0.088c-2.978-0.438-5.931-1.001-8.9-1.394
			c-3.637-0.472-7.241-0.976-10.886-1.214c-3.57-0.229-7.14-0.604-10.735-0.513c-0.242,0.025-0.634,0.083-0.626-0.237
			c0-0.31,0.192-0.676,0.4-0.914c1.41-1.455,2.836-2.907,4.438-4.171c4.479-3.611,9.343-6.652,14.264-9.609
			c0.134-0.075,0.325-0.1,0.492-0.146c0.375,0.008,0.717,0,1.076-0.254c1.602-1.051,3.328-1.352,5.264-1.343
			c8.15,0.096,16.3,0.017,24.441,0c0.484,0.017,0.968,0.017,1.46,0.017h8.917h0.442H165.283z"/>
		<path clip-path="url(#SVGID_2_)" fill-rule="evenodd" clip-rule="evenodd" fill="#29BBED" d="M209.402,177.545
			c-1.585,0.717-3.329,0.726-4.972,1.001c-3.654,0.617-7.257,1.376-10.836,2.248c-6.056,1.477-12.054,3.174-17.935,5.243
			c-10.511,3.674-20.679,8.075-30.347,13.609c-0.259,0.142-0.559,0.221-0.843,0.33c-1.493,0.046-2.444,1.222-3.67,1.823
			c-0.609,0.279-1.443,0.384-1.543,1.297h-0.017c-0.242,0.017-0.576-0.083-0.726,0.042c-1.051,0.888-0.91,0.113-0.843-0.588
			c0.351,0,0.525-0.171,0.5-0.529c1.318-0.976,2.761-1.873,3.111-3.667c2.511-3.27,5.456-6.139,8.442-8.942
			c3.287-3.107,6.757-6.039,10.544-8.559c2.044-1.359,4.196-2.552,6.44-3.604c0.333-0.154,0.659-0.171,1.001-0.171
			c5.239,0,10.494,0.017,15.741,0.017c0.442,0.409,0.984,0.238,1.485,0.238c7.691,0.017,15.391,0,23.09,0.025
			C208.484,177.357,208.977,177.178,209.402,177.545"/>
		<path clip-path="url(#SVGID_2_)" fill-rule="evenodd" clip-rule="evenodd" fill="#29BBED" d="M313.957,157.717
			c-0.075,2.744,2.986,6.552,6.665,7.391c5.113,1.18,9.885-2.169,10.919-7.024c0.351-1.631,0.217-3.262-0.393-4.917
			c1.085-0.204,1.919,0.409,2.828,0.655c2.035,0.567,4.013,1.301,6.048,1.898c0.801,0.229,0.759,0.634,0.534,1.264
			c-0.776,2.177-1.886,4.204-3.304,5.981c-2.594,3.245-5.822,5.664-9.977,6.544c-5.58,1.176-10.944,0.671-16.008-2.198
			c-4.513-2.553-7.874-6.002-9.042-11.207c-0.852-3.733-0.576-7.458,0.517-11.103c0.351-1.164,0.768-2.29,1.193-3.424
			c0.225-0.617,0.567-0.788,1.168-0.325c3.17,2.436,6.748,4.15,10.419,5.681c0.383,0.171,0.825,0.296,1.042,0.726
			c-0.559,0.05-1.126,0.05-1.668,0.18c-2.136,0.442-3.712,2.094-4.004,4.058C310.495,154.513,311.463,156.319,313.957,157.717"/>
		<path clip-path="url(#SVGID_2_)" fill-rule="evenodd" clip-rule="evenodd" fill="#FFFFFF" d="M313.957,157.717
			c-2.494-1.397-3.462-3.204-3.062-5.823c0.292-1.964,1.868-3.616,4.004-4.058c0.542-0.129,1.109-0.129,1.668-0.18
			c4.396,0.792,5.973,5.631,3.271,8.663C318.244,158.121,316.209,158.488,313.957,157.717"/>
		<path clip-path="url(#SVGID_2_)" fill-rule="evenodd" clip-rule="evenodd" fill="#131832" d="M280.715,166.133
			c-0.342,0.021-0.534-0.15-0.517-0.509C280.473,165.7,280.64,165.879,280.715,166.133"/>
		<path clip-path="url(#SVGID_2_)" fill-rule="evenodd" clip-rule="evenodd" fill="#131832" d="M138.172,202.02
			c0.025,0.358-0.158,0.529-0.509,0.529C137.747,202.27,137.914,202.107,138.172,202.02"/>
		<path clip-path="url(#SVGID_2_)" fill-rule="evenodd" clip-rule="evenodd" fill="#131832" d="M390.008,207.542
			c-0.017-0.058-0.024-0.108-0.042-0.179c0.218,0.046-0.008,0.104,0.018,0.154L390.008,207.542z"/>
		<path clip-path="url(#SVGID_2_)" fill-rule="evenodd" clip-rule="evenodd" fill="#131832" d="M135.594,205.415
			c-0.033,0.054-0.092,0.087-0.133,0.129c0.008-0.042,0-0.075,0.017-0.092c0.042-0.008,0.083-0.029,0.108-0.038H135.594z"/>
		<path clip-path="url(#SVGID_2_)" fill-rule="evenodd" clip-rule="evenodd" fill="#131832" d="M33.901,178.896
			c-0.034,0.029-0.083,0.071-0.117,0.104l0.117-0.113V178.896z"/>
		<path clip-path="url(#SVGID_2_)" fill-rule="evenodd" clip-rule="evenodd" fill="#131832" d="M411.513,164.865h0.176
			c0,0.046,0,0.08,0,0.121c-0.051-0.05-0.101-0.092-0.15-0.146L411.513,164.865z"/>
		<path clip-path="url(#SVGID_2_)" fill-rule="evenodd" clip-rule="evenodd" fill="#FFFFFF" d="M99.942,257.691
			c-3.495,0.192-6.857,0.897-9.893,2.745c-1.627,1.018-2.82,2.406-2.728,4.408c0.1,2.144,1.61,3.262,3.404,4.037
			c3.011,1.302,6.239,1.719,9.459,2.094c7.783,0.881,15.625,1.173,23.374,2.332c6.532,0.992,12.955,2.365,18.744,5.706
			c8.041,4.621,11.27,11.786,10.527,20.816c-0.742,9.209-5.739,15.632-13.605,20.041c-5.772,3.253-12.112,4.884-18.619,5.626
			c-14.69,1.652-29.213,0.709-43.477-3.319c-3.111-0.897-6.189-1.898-9.268-2.916c-1.543-0.5-2.811-0.179-3.854,1.034
			c-0.467,0.556-0.942,0.751-1.693,0.601c-0.842-0.2-1.101-0.438-0.726-1.367c3.67-8.63,7.282-17.28,10.944-25.918
			c0.133-0.334-0.008-1.23,0.867-0.905c0.634,0.229,1.327,0.446,1.051,1.435c-0.884,3.249,1.026,5.022,3.487,6.478
			c5.239,3.082,10.986,4.78,16.9,5.96c2.703,0.538,5.43,1.068,8.216,1.06c3.479,0.43,6.957,0.384,10.444,0
			c4.271-0.18,8.434-0.838,12.271-2.819c2.46-1.28,4.188-3.157,4.746-5.985c0.459-2.336-0.184-3.708-2.344-4.742
			c-2.611-1.238-5.422-1.735-8.258-2.052c-6.932-0.76-13.873-1.339-20.796-2.145c-7.049-0.825-14.056-1.91-20.679-4.654
			c-4.604-1.923-8.784-4.467-11.153-9.071c-3.028-5.894-2.478-11.933,0.284-17.751c3.328-7.02,9.368-11.036,16.425-13.673
			c6.999-2.614,14.272-3.307,21.697-3.22c12.312,0.134,24.191,2.69,35.994,5.886c0.876,0.237,1.752,0.441,2.653,0.596
			c1.877,0.343,3.537-0.075,4.813-1.547c0.526-0.588,1.01-0.63,1.693-0.384c0.701,0.229,0.792,0.479,0.442,1.155
			c-2.002,3.938-3.946,7.883-5.923,11.812c-1.393,2.795-2.777,5.594-4.204,8.371c-0.175,0.292-0.142,1.067-0.776,0.742
			c-0.583-0.316-1.702-0.279-1.593-1.222c0.292-2.527-1.451-3.441-3.228-4.296c-4.421-2.094-9.151-3.091-13.922-3.904
			c-3.12-0.521-6.24-1.067-9.401-1.051C108.142,257.208,104.038,257.154,99.942,257.691 M142.894,284.986
			c-0.05-0.042-0.108-0.071-0.167-0.097c0.033,0.034,0.075,0.079,0.125,0.13c-0.05,0.316,0.117,0.579,0.242,0.854
			c3.086,6.365,2.803,12.676-0.684,18.724c-3.153,5.492-8.358,8.483-14.156,10.548c-6.665,2.356-13.622,3.057-20.629,3.383
			c-3.762,0.162-7.541-0.075-11.286-0.288c-3.211-0.204-6.448-0.584-9.643-1.076c-5.605-0.855-11.086-2.223-16.433-4.1
			c-1.06-0.38-1.168,0.304-1.435,0.922c-0.333,0.775,0.184,0.979,0.768,1.159c1.852,0.592,3.704,1.181,5.539,1.785
			c8.467,2.777,17.184,4.296,26.06,4.667c5.981,0.263,12.003,0.351,18.01-0.413c6.707-0.863,13.196-2.331,19.036-5.901
			c8.267-5.039,11.395-12.7,9.768-21.868C147.398,290.016,145.754,287.088,142.894,284.986 M83.642,268.54
			c-0.517-1.664-1.009-3.132-0.767-4.729c0.517-3.625,2.669-6.039,5.739-7.695c5.389-2.924,11.37-3.24,17.276-3.24
			c5.38,0,10.777,0.562,16.108,1.442c5.931,0.984,11.845,2.061,17.125,5.23c0.525,0.325,0.859,0.271,1.118-0.283
			c1.026-2.007,2.044-4.021,3.036-6.048c0.192-0.417,0.275-0.784-0.367-0.988c-3.595-1.156-3.721-1.114-5.255,2.298
			c-0.025,0.042-0.033,0.092-0.05,0.125c-0.892,1.948-0.892,1.948-2.752,0.976c-4.763-2.452-9.902-3.604-15.115-4.45
			c-4.271-0.676-8.55-1.101-12.879-1.385c-5.731-0.367-11.42-0.263-16.976,1.206c-3.462,0.921-6.724,2.364-8.851,5.501
			C78.304,260.495,79.205,266.233,83.642,268.54 M72.79,275.852c0.459,0.951,0.484,0.926,0.993,1.377
			c3.095,2.794,6.865,4.32,10.803,5.409c5.372,1.485,10.861,2.331,16.4,2.937c4.337,0.463,8.667,0.838,13.013,1.289
			c3.637,0.375,7.299,0.691,10.87,1.547c2.027,0.479,3.987,1.102,6.223,2.127c-1.785-2.803-4.212-3.929-6.857-4.742
			c-4.279-1.28-8.7-1.697-13.13-2.152c-6.123-0.63-12.279-1.084-18.376-2.015c-5.381-0.812-10.744-1.727-15.816-3.845
			C75.551,277.203,74.225,276.527,72.79,275.852"/>
		<path clip-path="url(#SVGID_2_)" fill-rule="evenodd" clip-rule="evenodd" fill="#FFFFFF" d="M123.407,298.975
			c-1.835,1.368-3.795,1.848-5.723,2.119c-3.837,0.575-7.708,1.026-11.603,0.788c-7.833-0.479-15.44-1.914-22.631-5.222
			c-0.659-0.312-1.276-0.709-1.943-1.014c-0.868-0.375-1.026-0.871-0.701-1.81c0.333-0.96,0.692-1.131,1.685-0.872
			c4.354,1.176,8.784,2.081,13.247,2.628c3.628,0.463,7.266,0.805,10.902,1.139c4.405,0.417,8.817,0.675,13.188,1.476
			C120.963,298.412,122.114,298.437,123.407,298.975"/>
		<path clip-path="url(#SVGID_2_)" fill-rule="evenodd" clip-rule="evenodd" fill="#FFFFFF" d="M96.947,264.29
			c2.035-0.525,3.762-0.851,5.505-0.851c3.012,0.017,6.031-0.071,9.059,0.171c5.923,0.409,11.72,1.46,17.443,2.97
			c1.034,0.259,2.01,0.726,3.028,1.122c0.351,0.133,0.601,0.384,0.459,0.784c-0.15,0.479-0.526,0.171-0.768,0.121
			c-2.619-0.43-5.239-0.855-7.858-1.344c-2.578-0.459-5.188-0.654-7.791-0.963c-4.563-0.547-9.159-0.651-13.73-1.264
			C100.643,264.82,98.974,264.607,96.947,264.29"/>
		<path clip-path="url(#SVGID_2_)" fill-rule="evenodd" clip-rule="evenodd" fill="#131832" d="M99.942,257.691
			c4.087-0.537,8.2-0.483,12.288-0.008C108.142,257.684,104.029,257.684,99.942,257.691"/>
		<path clip-path="url(#SVGID_2_)" fill-rule="evenodd" clip-rule="evenodd" fill="#FFFFFF" d="M289.015,242.381
			c0.909,0.325,0.459,1.084,0.476,1.647c0.017,0.643-0.65,0.384-0.992,0.488c-1.151,0.358-2.527,0.188-3.137,1.589
			c-0.483,0.45-0.25,1.067-0.25,1.598c-0.017,14.085-0.017,28.178-0.009,42.255c0,0.692,0.059,1.376,0.108,2.052
			c0.843,7.565,4.68,11.966,12.138,13.53c6.281,1.33,12.529,1.264,18.627-1.018c2.669-1.001,4.788-2.716,6.414-5.076
			c0.459-0.646,0.459-1.468,0.968-2.048c1.285-2.402,1.544-5.014,1.544-7.637c0.05-13.931,0.024-27.857,0.024-41.788
			c0-2.34-0.759-3.141-3.111-3.303h0.017c-0.935-0.138-1.585-0.464-1.317-1.636c0.25-1.109,1.109-0.555,1.659-0.555
			c6.808-0.041,13.598-0.017,20.396-0.017c3.454-0.008,6.916-0.05,10.377-0.075c0.109,0.092,0.218,0.171,0.326,0.263
			c0.283,1.436-0.451,1.84-1.777,2.044c-2.261,0.309-2.669,0.914-2.669,3.153c0,10.648-0.009,21.309,0,31.97
			c0,3.366,0.024,6.748,0.05,10.122c-0.009,0.172-0.017,0.343-0.017,0.521c-0.242,3.846-0.634,7.671-1.61,11.42l0.009-0.008
			c-0.259,0.579-0.542,1.172-0.542,1.843c-1.526,3.796-3.37,7.374-6.165,10.424c-4.621,5.038-10.419,8.045-16.925,9.839
			c-7.19,1.989-14.557,2.469-21.989,2.189c-6.048-0.217-11.986-1.018-17.734-2.94c-8.175-2.773-14.756-7.491-18.777-15.357
			c-2.11-4.133-3.211-8.542-3.662-13.146c-0.066-0.733-0.166-1.46-0.274-2.186c0.024-0.087,0.05-0.162,0.05-0.258
			c0-14.949-0.009-29.897-0.025-44.846c0-0.425,0.101-0.88-0.259-1.238c-0.483-1.348-1.727-1.322-2.827-1.581
			c-1.502-0.342-1.669-0.654-1.06-2.235c0.075,0.033,0.15,0.059,0.242,0.059c10.443,0.017,20.887,0.024,31.339,0.024
			C288.765,242.464,288.882,242.414,289.015,242.381 M273.174,311.533c-0.041-0.05-0.083-0.092-0.125-0.142
			c0,0.025,0,0.075,0.009,0.092C273.091,311.509,273.133,311.517,273.174,311.533c0.075,0.071,0.167,0.154,0.251,0.233
			c0.033-0.062,0.066-0.112,0.091-0.162C273.399,311.579,273.282,311.55,273.174,311.533 M283.818,302.199
			c0.041,0.033,0.083,0.059,0.133,0.092c-0.041-0.042-0.058-0.092-0.1-0.142c-0.534-1.122-1.109-2.231-1.602-3.375
			c-1.41-3.29-1.71-6.79-1.735-10.285c-0.059-10.619-0.024-21.226-0.024-31.845c0-2.803,0.008-5.639,0-8.467
			c0-0.358,0.149-0.904-0.251-1.051c-0.817-0.296-1.734-0.254-2.553-0.05c-0.642,0.154-0.358,0.896-0.358,1.359
			c-0.008,12.779,0.017,25.563-0.024,38.343c-0.018,3.357,0.592,6.553,1.968,9.568C280.307,298.637,281.624,300.772,283.818,302.199
			 M274.116,312.063c-0.074,0.104-0.149,0.195-0.208,0.292c1.576,1.734,3.512,2.998,5.539,4.149
			c6.423,3.587,13.463,4.843,20.688,5.126c8.041,0.325,16.074,0.154,23.874-2.314c4.463-1.427,8.583-3.521,11.979-6.782
			c5.464-5.288,7.966-11.991,8.1-19.373c0.275-14.298,0.108-28.608,0.125-42.89c0-0.792,0-1.572-0.008-2.348
			c-0.009-0.301,0.066-0.726-0.251-0.813c-0.834-0.229-1.76-0.279-2.561-0.008c-0.659,0.204-0.342,0.983-0.358,1.497
			c-0.15,13.855,0.309,27.715-0.251,41.57c-0.133,3.357-0.834,6.611-2.043,9.723c-2.437,6.318-6.757,10.978-12.821,14.019
			c-6.615,3.295-13.747,4.175-20.988,4.575c-4.829,0.267-9.692-0.025-14.48-0.751c-4.33-0.646-8.567-1.647-12.488-3.653
			C276.669,313.406,275.385,312.738,274.116,312.063"/>
		<path clip-path="url(#SVGID_2_)" fill-rule="evenodd" clip-rule="evenodd" fill="#29BBED" d="M204.772,274.242
			c0-7.491-0.025-14.999,0.025-22.489c0-1.085-0.692-2.257-1.227-2.086c-0.984,0.309-1.602-0.417-2.411-0.292
			c-0.884,0.146-1.093-0.305-1.076-1.143c0.025-3.357,0.042-6.748-0.017-10.123c-0.008-0.996,0.309-1.247,1.268-1.247
			c6.281,0.051,12.554,0.025,18.844,0.025c7.407,0,14.814,0.025,22.222-0.025c1.06,0,1.427,0.268,1.394,1.368
			c-0.059,3.245-0.059,6.498,0,9.756c0.033,1.03-0.217,1.56-1.335,1.389c-0.217-0.024-0.442,0-0.643,0
			c-1.685,0.079-2.193,0.601-2.193,2.207c0,15.469,0.108,30.964-0.117,46.417c-0.033,3.007-0.075,6.098-0.5,9.088
			c-0.334,2.282-1.076,4.567-2.128,6.749c-0.775,1.589-1.426,3.245-2.46,4.704c-0.143,0.196-0.226,0.446-0.393,0.643
			c-1.301,1.468-2.419,3.203-3.971,4.321c-1.359,0.963-2.628,2.193-4.221,2.777c-0.667,0.222-1.034,0.726-1.585,1.039
			c-2.169,1.276-4.722,1.53-7.007,2.523c-1.035,0.458-2.569,0.458-3.821,0.75c-7.19,1.59-14.481,0.922-21.705,0.847
			c-2.461,0-5.072-0.217-7.441-1.326c-0.208-0.1-0.5-0.125-0.75-0.1c-1.952,0.1-3.762-0.626-5.531-1.214
			c-1.109-0.358-2.26-0.358-3.336-0.805c-0.676-0.246-1.552-0.417-2.119-0.751c-0.984-0.571-1.476-0.263-2.102,0.384
			c-0.434,0.488-1.018,0.847-1.393,1.343c-0.575,0.775-1.459,0.701-1.977,0.375c-1.251-0.796-2.719-1.229-3.82-2.202
			c-0.984-0.821-2.127-1.238-3.211-1.814c-1.452-0.775-1.927-2.193-1.318-3.67c1.359-3.249,2.603-6.527,3.929-9.772
			c0.684-1.677,1.426-3.341,2.261-4.946c0.5-0.993,0.776-2.052,1.151-3.074c0.692-1.872,1.527-3.666,2.269-5.493
			c1.126-2.77,2.152-5.56,3.27-8.329c0.492-1.238,1.602-1.46,2.986-0.938c2.302,0.863,4.646,1.698,7.032,2.373
			c1.685,0.48,2.377,1.573,1.61,3.17c-0.5,1.052-0.259,2.11-0.242,3.162c0.008,0.492,0.484,0.751,0.935,0.972
			c2.811,1.289,5.714,2.136,8.784,2.715c1.935,0.359,3.879,0.079,5.739,0.472c1.693,0.358,3.145-0.104,4.68-0.547
			c0.567-0.154,0.859-0.529,0.909-0.972c0.15-1.26,0.742-2.427,0.742-3.716C204.764,289.231,204.772,281.725,204.772,274.242
			 M207.233,305.248c-0.35-0.18-0.342,0.104-0.375,0.316c-1.334,1.239-3.036,1.606-4.755,1.819
			c-4.304,0.584-8.55-0.117-12.754-0.955c-3.395-0.701-6.723-1.656-9.568-3.759c-2.01-1.477-3.062-3.398-2.411-5.964
			c0.275-1.047-0.484-1.03-1.084-1.306c-0.834-0.375-0.942,0.171-1.151,0.701c-3.345,8.191-6.69,16.392-10.035,24.6
			c-0.15,0.396-0.709,1.001,0.15,1.247c0.834,0.25,1.418,1.776,2.536,0.575c1.435-1.514,3.003-1.668,4.946-0.976
			c4.638,1.639,9.385,2.957,14.265,3.758c6.923,1.146,13.889,1.188,20.837,0.488c7.116-0.701,13.931-2.315,19.469-7.287
			c0.476,0.146,0.784-0.146,1.102-0.454c0.65-0.588,1.067-1.298,1.543-2.015c1.201-1.869,2.303-3.75,3.028-5.894
			c0.309-0.947,0.592-1.981,0.742-2.878c0.184-1.093,1.218-2.402-0.025-3.545c-0.1-0.222,0.059-0.359,0.184-0.497
			c0.909-0.254,0.525-0.996,0.525-1.518c0.018-18.019,0.034-36.032-0.008-54.055c0-1.051,0.351-1.743,1.159-2.256
			c0.518-0.351,1.093-0.121,1.66-0.188c1.109-0.13,1.994-1.002,1.868-1.923c-0.125-1.16-1.009-1.201-1.91-1.201
			c-10.01,0.017-20.012,0-30.03,0.017c-0.434,0-0.959-0.226-1.31,0.287c-0.476,0.626-0.159,1.344-0.217,2.02
			c0.476,0.767,0.476,0.767,1.651,0.801c1.443,0.05,2.186,0.788,2.186,2.239c0,17.167,0.008,34.355-0.017,51.531
			c0,1.264-0.592,2.427-0.876,3.641c-0.225,0.98-1.593,1.348-1.218,2.553C207.308,305.215,207.274,305.223,207.233,305.248"/>
		<path clip-path="url(#SVGID_2_)" fill-rule="evenodd" clip-rule="evenodd" fill="#29BBED" d="M142.894,284.986
			c2.861,2.102,4.504,5.034,5.113,8.425c1.626,9.172-1.501,16.833-9.768,21.876c-5.848,3.57-12.329,5.038-19.036,5.894
			c-6.006,0.768-12.029,0.676-18.01,0.417c-8.876-0.367-17.593-1.894-26.06-4.671c-1.835-0.601-3.687-1.189-5.539-1.785
			c-0.584-0.172-1.101-0.384-0.768-1.155c0.267-0.622,0.375-1.298,1.435-0.922c5.347,1.881,10.828,3.244,16.433,4.1
			c3.195,0.488,6.432,0.872,9.643,1.076c3.746,0.213,7.524,0.446,11.286,0.292c7.007-0.325,13.964-1.026,20.629-3.391
			c5.797-2.061,11.002-5.06,14.156-10.54c3.487-6.048,3.771-12.362,0.684-18.728c-0.125-0.279-0.292-0.538-0.242-0.851
			L142.894,284.986z"/>
		<path clip-path="url(#SVGID_2_)" fill-rule="evenodd" clip-rule="evenodd" fill="#29BBED" d="M83.642,268.536
			c-4.446-2.307-5.33-8.037-2.619-12.033c2.127-3.136,5.397-4.579,8.851-5.51c5.572-1.468,11.261-1.563,16.992-1.196
			c4.321,0.283,8.6,0.709,12.871,1.385c5.222,0.838,10.344,1.989,15.115,4.441c1.869,0.98,1.869,0.98,2.744-0.976
			c0.017-0.033,0.025-0.084,0.059-0.125c1.543-3.404,1.66-3.454,5.247-2.29c0.65,0.196,0.575,0.562,0.367,0.979
			c-0.984,2.027-2.002,4.051-3.02,6.048c-0.267,0.555-0.601,0.609-1.126,0.284c-5.272-3.17-11.195-4.246-17.125-5.23
			c-5.331-0.876-10.736-1.443-16.116-1.443c-5.898,0-11.871,0.317-17.268,3.249c-3.07,1.647-5.222,4.062-5.739,7.688
			C82.641,265.412,83.117,266.88,83.642,268.536"/>
		<path clip-path="url(#SVGID_2_)" fill-rule="evenodd" clip-rule="evenodd" fill="#29BBED" d="M72.79,275.852
			c1.435,0.676,2.761,1.352,4.121,1.932c5.072,2.118,10.435,3.032,15.816,3.845c6.098,0.931,12.254,1.385,18.376,2.015
			c4.43,0.455,8.851,0.872,13.13,2.152c2.645,0.813,5.072,1.939,6.857,4.742c-2.235-1.025-4.196-1.647-6.223-2.127
			c-3.57-0.855-7.232-1.172-10.87-1.547c-4.346-0.451-8.675-0.826-13.013-1.289c-5.539-0.605-11.028-1.451-16.4-2.937
			c-3.938-1.089-7.708-2.615-10.803-5.409C73.273,276.777,73.249,276.803,72.79,275.852"/>
		<path clip-path="url(#SVGID_2_)" fill-rule="evenodd" clip-rule="evenodd" fill="#131832" d="M142.852,285.02
			c-0.042-0.051-0.092-0.101-0.125-0.134c0.067,0.025,0.117,0.059,0.167,0.101L142.852,285.02z"/>
		<path clip-path="url(#SVGID_2_)" fill-rule="evenodd" clip-rule="evenodd" fill="#29BBED" d="M274.116,312.063
			c1.269,0.675,2.553,1.343,3.846,2.019c3.921,2.006,8.158,3.007,12.488,3.653c4.788,0.726,9.651,1.018,14.48,0.751
			c7.241-0.4,14.373-1.28,20.988-4.575c6.064-3.041,10.385-7.7,12.821-14.019c1.209-3.111,1.91-6.365,2.043-9.723
			c0.56-13.855,0.101-27.715,0.251-41.57c0.017-0.514-0.301-1.293,0.358-1.497c0.801-0.271,1.727-0.222,2.561,0.008
			c0.317,0.088,0.242,0.513,0.251,0.813c0.008,0.775,0.008,1.556,0.008,2.348c-0.017,14.281,0.15,28.592-0.125,42.89
			c-0.134,7.382-2.636,14.085-8.1,19.373c-3.396,3.262-7.516,5.355-11.979,6.782c-7.8,2.469-15.833,2.64-23.874,2.314
			c-7.225-0.283-14.265-1.539-20.688-5.126c-2.027-1.151-3.963-2.415-5.539-4.149C273.967,312.259,274.042,312.167,274.116,312.063"
			/>
		<path clip-path="url(#SVGID_2_)" fill-rule="evenodd" clip-rule="evenodd" fill="#29BBED" d="M283.818,302.195
			c-2.194-1.427-3.512-3.562-4.547-5.848c-1.367-3.016-1.993-6.211-1.977-9.568c0.05-12.779,0.025-25.567,0.033-38.347
			c0-0.459-0.283-1.201,0.358-1.355c0.818-0.204,1.728-0.242,2.553,0.059c0.4,0.138,0.242,0.692,0.242,1.051
			c0.009,2.819,0,5.655,0,8.454c0,10.619-0.033,21.229,0.033,31.857c0.025,3.491,0.317,6.986,1.727,10.281
			c0.501,1.139,1.068,2.248,1.61,3.365L283.818,302.195z"/>
		<path clip-path="url(#SVGID_2_)" fill-rule="evenodd" clip-rule="evenodd" fill="#131832" d="M273.174,311.529
			c0.117,0.025,0.217,0.054,0.342,0.079c-0.024,0.05-0.058,0.101-0.1,0.154C273.341,311.691,273.258,311.608,273.174,311.529"/>
		<path clip-path="url(#SVGID_2_)" fill-rule="evenodd" clip-rule="evenodd" fill="#131832" d="M273.174,311.529
			c-0.041-0.017-0.083-0.025-0.125-0.05c-0.008-0.017-0.008-0.067-0.008-0.092C273.091,311.438,273.133,311.479,273.174,311.529"/>
		<path clip-path="url(#SVGID_2_)" fill-rule="evenodd" clip-rule="evenodd" fill="#131832" d="M283.852,302.145
			c0.042,0.055,0.066,0.104,0.108,0.154c-0.05-0.041-0.101-0.066-0.142-0.1L283.852,302.145z"/>
		<path clip-path="url(#SVGID_2_)" fill-rule="evenodd" clip-rule="evenodd" fill="#FFFFFF" d="M205.615,244.408
			c0.066-0.681-0.25-1.397,0.208-2.023c0.617,0.025,1.218,0.075,1.818,0.075h29.505c1.143,0,1.602,0.551,1.201,1.572
			c-0.301,0.764-1.135,0.472-1.686,0.601c-2.16,0.513-2.761,1.102-2.761,3.065c-0.017,18.511-0.025,37.013-0.025,55.522
			c-0.116,0.146-0.292,0.271-0.184,0.505c-0.517,5.618-2.344,10.694-6.39,14.777c-5.538,4.972-12.345,6.594-19.461,7.295
			c-6.965,0.7-13.914,0.654-20.854-0.496c-4.872-0.806-9.626-2.119-14.265-3.75c-1.927-0.692-3.512-0.546-4.946,0.972
			c-1.118,1.205-1.693-0.325-2.536-0.571c-0.842-0.255-0.3-0.854-0.133-1.256c3.328-8.208,6.682-16.407,10.027-24.6
			c0.208-0.521,0.325-1.075,1.143-0.7c0.617,0.271,1.368,0.263,1.084,1.313c-0.651,2.557,0.4,4.483,2.419,5.965
			c2.845,2.102,6.165,3.049,9.576,3.749c4.205,0.847,8.442,1.548,12.755,0.964c1.71-0.222,3.403-0.588,4.746-1.818
			c0.208,0,0.292-0.171,0.375-0.317c0.033-0.024,0.067-0.033,0.108-0.075c1.435-1.605,2.261-3.433,2.502-5.589
			c0.167-1.535,0.226-3.107,0.226-4.663c0.017-15.282,0.008-30.58,0.008-45.879c0-0.646-0.034-1.297-0.025-1.948
			c0.008-1.226-0.684-1.927-1.802-2.202C207.383,244.675,206.491,244.57,205.615,244.408 M229.48,274.843
			c0-8.83,0-17.672-0.017-26.531c0-0.426,0.258-1.109-0.334-1.214c-0.901-0.149-1.894-0.237-2.711,0.029
			c-0.685,0.222-0.317,1.151-0.317,1.748c-0.008,16.137,0,32.24-0.017,48.356c0,3.437-0.459,6.836-1.894,9.985
			c-2.41,5.313-6.882,8.05-12.304,9.484c-3.854,1.014-7.791,1.401-11.779,1.664c-5.33,0.367-10.602,0.042-15.866-0.805
			c-3.762-0.597-7.424-1.561-11.044-2.749c-1.201-0.392-0.984,0.65-1.285,1.118c-0.425,0.625,0.1,0.771,0.584,0.93
			c6.506,2.053,12.997,4.163,19.87,4.613c7.941,0.505,15.833,0.513,23.565-1.673c5.222-1.484,9.384-4.392,11.67-9.505
			c1.46-3.249,1.835-6.732,1.86-10.244C229.505,291.655,229.48,283.242,229.48,274.843"/>
		<path clip-path="url(#SVGID_2_)" fill-rule="evenodd" clip-rule="evenodd" fill="#131832" d="M207.233,305.248
			c-0.092,0.154-0.175,0.316-0.375,0.316C206.891,305.353,206.883,305.068,207.233,305.248"/>
		<path clip-path="url(#SVGID_2_)" fill-rule="evenodd" clip-rule="evenodd" fill="#29BBED" d="M229.48,274.843
			c0,8.399,0.024,16.812-0.017,25.208c-0.025,3.512-0.4,6.995-1.86,10.244c-2.286,5.113-6.448,8.021-11.67,9.505
			c-7.732,2.186-15.624,2.178-23.565,1.673c-6.874-0.45-13.364-2.561-19.87-4.613c-0.484-0.158-1.009-0.305-0.584-0.93
			c0.3-0.468,0.083-1.51,1.285-1.118c3.62,1.188,7.282,2.152,11.044,2.749c5.264,0.847,10.536,1.172,15.866,0.805
			c3.988-0.263,7.925-0.65,11.779-1.664c5.422-1.435,9.894-4.171,12.304-9.484c1.435-3.149,1.894-6.549,1.894-9.985
			c0.017-16.116,0.009-32.22,0.017-48.356c0-0.597-0.367-1.526,0.317-1.748c0.817-0.267,1.81-0.179,2.711-0.029
			c0.592,0.104,0.334,0.788,0.334,1.214C229.48,257.171,229.48,266.013,229.48,274.843"/>
	</g>
</g>
</svg>
