<?xml version="1.0" encoding="utf-8"?>
<!-- Generator: Adobe Illustrator 16.0.4, SVG Export Plug-In . SVG Version: 6.00 Build 0)  -->
<!DOCTYPE svg PUBLIC "-//W3C//DTD SVG 1.1//EN" "http://www.w3.org/Graphics/SVG/1.1/DTD/svg11.dtd">
<svg version="1.1" id="Layer_1" xmlns="http://www.w3.org/2000/svg" xmlns:xlink="http://www.w3.org/1999/xlink" x="0px" y="0px"
	 width="432px" height="400.381px" viewBox="0 0 432 400.381" enable-background="new 0 0 432 400.381" xml:space="preserve">
<rect fill="#29BBED" width="432" height="400.381"/>
<g opacity="0.5">
	<g>
		<defs>
			<rect id="SVGID_1_" x="42.429" y="46.081" width="347.143" height="308.22"/>
		</defs>
		<clipPath id="SVGID_2_">
			<use xlink:href="#SVGID_1_"  overflow="visible"/>
		</clipPath>
		<path clip-path="url(#SVGID_2_)" fill="#29BBED" d="M385.38,46.081L238.255,46.14v33.276l4.831,1.745
			c2.384,0.857,4.043,2.957,4.822,4.642c0.304,0.68,0.437,1.449,0.447,2.358c0,1.338-0.336,2.934-1.009,4.745
			c0,0,0.303-0.229,0.362-0.259c-0.976,1.907-2.262,5.3-4.623,11.531c0,0-21.86,58.103-27.042,71.859
			c-6.201-16.453-31.35-83.108-31.35-83.108c-0.673-1.804-1.017-3.415-1.017-4.753c0-0.909,0.151-1.678,0.447-2.328
			c0.772-1.7,2.446-3.814,4.801-4.649l4.826-1.767l-0.015-33.276L42.425,46.221l0.015,32.914l4.062,2.025
			c0.31,0.177,9.106,5.026,14.298,20.259c3.755,11.043,59.331,158.375,76.264,203.286c0-0.016,0.414,1.107,0.414,1.107
			c4.664,12.344,3.3,12.98,0.599,14.266c-0.015,0.016-4.184,2.01-4.184,2.01l0.022,32.221l164.384-0.082V322.17l-3.987-2.047
			c-1.197-0.621-2.369-1.227-2.369-3.756c0-1.994,0.735-5.203,2.761-10.605l2.498-6.639
			c45.923-122.016,71.52-190.438,74.032-197.814c5.185-15.255,14.28-20.252,14.372-20.296c0.008,0,3.929-1.988,3.929-1.988
			l0.037-4.501V46.081H385.38z"/>
		<polygon clip-path="url(#SVGID_2_)" fill="#FFFFFF" points="318.215,60.42 215.886,317.869 115.485,60.42 101.634,60.42 
			209.851,339.857 221.385,339.592 332.155,60.42 		"/>
		<path clip-path="url(#SVGID_2_)" fill="#FFFFFF" d="M370.265,68.018c-5.358,4.612-12.564,12.935-17.266,26.786
			c-2.45,7.17-30.674,82.562-75.514,201.696l-0.817,2.174l-0.846,2.201c-2.931,7.629-6.253,16.275-1.704,24.658
			c1.212,2.246,2.86,4.139,4.882,5.705v3.061l-124.762,0.045l-0.007-3.061c2.025-1.566,3.677-3.459,4.882-5.705
			c4.539-8.391,1.216-17.031-1.726-24.643l-0.835-2.232l-0.787-2.055C110.813,177.492,82.523,102.078,80.069,94.916
			c-4.716-13.859-11.926-22.182-17.292-26.801l-0.015-2.203l111.684-0.044l-0.007,2.018c-4.109,3.104-6.479,6.667-7.805,9.549
			c-2.103,4.583-3.807,12.181,0.037,22.352l38.21,101.306l10.928,31.074l12.451-31.074l38.146-101.336
			c3.821-10.185,2.137-17.761,0.015-22.336c-1.338-2.897-3.699-6.467-7.816-9.579V65.83l111.669-0.044L370.265,68.018z
			 M382.239,53.457l-136.663,0.044l0.008,20.814c7.62,3.341,12.429,11.028,8.589,21.206
			c-15.038,40.017-38.129,101.328-38.129,101.328s-23.131-61.296-38.209-101.298c-3.844-10.178,0-18.086,8.592-21.206l-0.015-20.829
			l-136.67,0.066l0.008,21.073c0,0,11.571,5.617,17.968,24.45c4.125,12.093,71.94,191.777,76.611,204.164
			c3.844,10.193,6.586,18.85-3.119,23.461l0.007,20.281l149.764-0.059l-0.007-20.26c-8.94-4.574-6.963-13.275-3.134-23.467
			c4.671-12.402,72.343-192.131,76.459-204.231c6.394-18.84,17.939-24.458,17.939-24.458V53.457z"/>
	</g>
</g>
</svg>
