<?xml version="1.0" encoding="utf-8"?>
<!-- Generator: Adobe Illustrator 16.0.4, SVG Export Plug-In . SVG Version: 6.00 Build 0)  -->
<!DOCTYPE svg PUBLIC "-//W3C//DTD SVG 1.1//EN" "http://www.w3.org/Graphics/SVG/1.1/DTD/svg11.dtd">
<svg version="1.1" id="Layer_1" xmlns="http://www.w3.org/2000/svg" xmlns:xlink="http://www.w3.org/1999/xlink" x="0px" y="0px"
	 width="432px" height="400.381px" viewBox="0 0 432 400.381" enable-background="new 0 0 432 400.381" xml:space="preserve">
<rect fill="#29BBED" width="432" height="400.381"/>
<g opacity="0.5">
	<g>
		<defs>
			<rect id="SVGID_1_" x="60.54" y="48.565" width="310.92" height="303.251"/>
		</defs>
		<clipPath id="SVGID_2_">
			<use xlink:href="#SVGID_1_"  overflow="visible"/>
		</clipPath>
		<path clip-path="url(#SVGID_2_)" fill="#FFFFFF" d="M193.42,113.047c-0.547,0.028-10.782-0.057-16.167,0.021
			c-1.17,1.269,1.156,2.354,0.944,3.898c-5.868,2.072-8.691-3.088-10.792-6.795c-0.151-0.973-1.66-2.544-2.026-3.404l22.038,0.028
			l0.141-51.963L66.827,54.676l-0.267,0.621v52.294l34.919,0.148c11.405,16.458,22.468,33.094,32.928,50.019l-4.455,2.438
			l-31.419-46.669l-37.993-0.028l0.084-64.475l1.04-0.458h131.728L193.42,113.047z"/>
		<path clip-path="url(#SVGID_2_)" fill="#FFFFFF" d="M371.46,48.628l-0.116,64.383l-37.749,0.056
			c-14.479,21.576-28.829,43.145-43.79,64.573c-1.975-1.889-3.2-4.723-1.975-7.267c13.788-21.301,28.548-42.06,42.832-63.101h33.429
			l0.994-0.155V54.824l-127.308-0.127c0,2.862-0.061,48.341,0,52.577h0.87h24.118v1.417c-5.139,6.858-8.483,14.429-13.259,21.372
			c-1.906-0.401-6.982-1.008-4.434-4.384l7.376-11.588l-0.959-1.022h-19.2l-1.033-1.402l-0.105-63.101h139.333L371.46,48.628z"/>
		<path clip-path="url(#SVGID_2_)" fill="#FFFFFF" d="M259.819,269.311c1.438,3.439-0.889,8.775,1.987,11.201h46.187l0.058,71.27
			l-117.081,0.035l-64.891-0.035v-71.785l44.266,0.043c0.053-3.242,3.676-2.242,5.86-2.445c2.397,2.445-0.408,5.193,0.48,8.225
			l-44.601-0.113l-0.117,1.615v57.201l1.005,1.035h168.645h0.962l-0.061-58.73l-48.156-0.078l0.073-15.471
			C255.945,269.994,257.915,269.783,259.819,269.311"/>
		<path clip-path="url(#SVGID_2_)" fill="#FFFFFF" d="M181.102,60.745v40.122c-1.033,0-17.608,0-26,0.057
			c1.371,6.738,7.496,12.822,10.802,19.405c-3.768,12.498-15.864,23.599-27.042,30.612c-11.486-16.719-22.609-33.022-34.468-50.017
			c-10.306-0.141-28.84-0.057-31.593-0.057l0.116-39.248l1.509-0.923h105.742L181.102,60.745z"/>
		<path clip-path="url(#SVGID_2_)" fill="#FFFFFF" d="M358.194,100.874c-2.1-0.049-27.824,0-31.018,0.05
			c-14.211,20.914-28.487,41.743-42.771,62.635c-2.735-8.557-17.887,0.324-13.787-12.138c-2.323-3.56-6.553-6.746-10.799-7.754
			c-2.397-2.41-5.383-5.984-5.383-9.241c6.612-10.982,13.446-21.894,19.667-33.016l-29.99-0.035V61.626l0.96-0.923h113.121V100.874z
			"/>
		<path clip-path="url(#SVGID_2_)" fill="#FFFFFF" d="M200.811,133.502c3.816-2.143,7.853-3.708,12.289-4.363
			c12.367-2.714,25.14-0.296,34.43,7.267c5.889,3.644,4.836,13.484,13.266,12.603c2.238,0.753,4.709,3.094,5.452,5.329
			c2.129,3.778-4.859,9.839,2.936,9.212c4.917-2.002,9.826,0.951,11.796,5.35c1.861,4.632,2.144,9.861,4.921,14.077
			c2.132,2.149-0.194,6.09,1.935,8.232c4.691-2.819,5.061-7.966,7.92-11.13c5.187,3.968,6.107,9.692,6.826,15.528
			c1.452,1.798,2.787,0.5,4.441,1.474c-0.043,27.962-21.048,52.894-45.229,65.496c-15.757,6.754-37.908,9.926-54.567,2.904
			c-3.271-0.471-5.263,2.307-7.881,3.371c-10.915,4.652-25.449,6.131-35.924-0.467c-13.643-7.951-16.508-23.4-14.746-38.352
			l1.977-5.795c-9.615-15.922-20.91-31.162-30.539-47.071c2.611-8.332,11.743-11.37,18.245-15.557
			c4.085-1.622,8.462-2.495,12.293-4.835c-1.639-1.417-4.021-2.171-4.924-4.406c10.041-7.563,20.104-17.248,25.069-28.568
			c9.037-4.441,15.772,5.364,23.638,8.219C196.281,133.164,198.325,133.791,200.811,133.502"/>
		<path clip-path="url(#SVGID_2_)" fill="#FFFFFF" d="M247.525,272.744v19.404l1.494,0.027h46.173l1.026,0.318v46.656l-1.026,0.076
			H138.891c-0.071-0.402,0.07-46.395,0-47.572l44.195,0.043c1.033-4.369-0.056-9.699,0.959-14.084
			c8.12-0.07,15.027-3.107,21.653-6.795C218.461,274.33,234.053,275.408,247.525,272.744"/>
		<path clip-path="url(#SVGID_2_)" fill="#E7E7E7" d="M194.438,138.796c6.372,0.536,11.489-4.729,18.157-4.821
			c9.84-1.241,22.838-3.045,29.069,6.238c0.744,3.115-0.962,5.533-3.496,6.823c-1.228,0.536-3.073,0.775-3.412,2.417l0.944,1.016
			l21.683,2.431c2.857,0.762,2.787,4.173,1.955,6.274l-1.493,1.479l-32.453-1.479c-1.847,0.931-3.281,2.896-4.92,4.362
			c-0.758,4.455,0.75,8.459,4.444,10.673c3.891,0.31,7.567,1.409,11.824,1.001c1.564,4.574-2.182,8.55-5.963,11.129
			c-2.239,1.143-4.836,1.53-6.895,3.434c1.864,1.614,5.287,0.994,7.377,0.473c15.715-3.511,28.167-22.063,45.771-13.619
			c3.753,2.848,3.147,8.085,2.453,12.124c-5.593,15.697-27.039,3.722-37.82,12.152c-15.504,12.392-21.88,31-38.87,42.728
			c-7.528,5.838-16.819,8.896-27.068,6.775c-7.102-1.143-12.839-7.119-15.236-13.598c-6.418-15.225,8.625-24.064,12.293-36.399
			c0.296-1.474-0.342-2.496-1.495-3.37c-1.969,0.338-1.776,2.503-2.484,3.863c-4.286,6.372-11.729,9.424-15.69,15.57
			c-8.106-12.49-16.392-24.818-24.1-37.415c-0.751-4.849,5.043-6.611,7.874-9.191c5.219-2.679,10.841-4.645,16.723-5.844
			c-2.453,8.086-2.625,19.336,4.917,24.728c1.77-1.748,0.201-4.575,0-6.746c0.042-11.588,5.991-21.618,16.24-28.159
			c5.346-2.298,10.464-5.132,16.681-5.343l1.015-1.466c-3.901-3.644-8.053-6.604-12.757-8.24
			c-3.979,4.871-7.176,11.356-13.34,14.104c-3.623,0.056-7.299,0.183-9.822-2.431c6.683-6.288,12.776-14.895,18.693-21.838
			C182.607,129.583,187.827,135.821,194.438,138.796"/>
		<path clip-path="url(#SVGID_2_)" fill="#FFFFFF" d="M230.316,164.044c-1.033,1.812-2.115,4.181-0.962,6.33
			c-1.494,0.141-0.547-1.544-1.494-1.959C228.328,166.814,228.201,164.115,230.316,164.044"/>
		<path clip-path="url(#SVGID_2_)" fill="#FFFFFF" d="M250.461,165.039c-5.935,0.606-11.729,11.264-17.229,3.369
			c-1.128-2.56,1.92-2.686,2.946-3.905C241.098,164.355,245.739,164.77,250.461,165.039"/>
		<path clip-path="url(#SVGID_2_)" fill="#FFFFFF" d="M257.846,165.504c-3.211,2.833-6.904,6.336-11.813,6.272
			C249.711,168.95,253.957,167.577,257.846,165.504"/>
		<path clip-path="url(#SVGID_2_)" fill="#FFFFFF" d="M265.204,166.906c-0.423,1.545-1.227,3.37-2.929,3.912h-3.415
			C259.692,168.451,262.05,165.835,265.204,166.906"/>
		<path clip-path="url(#SVGID_2_)" fill="#FFFFFF" d="M296.697,195.574c-2.66,0.748-6.198,0.748-8.87,0
			c3.43-2.171,5.812-5.59,7.927-8.698C297.529,188.708,296.388,192.684,296.697,195.574"/>
		<path clip-path="url(#SVGID_2_)" fill="#E7E7E7" d="M298.703,200.444c-2.396,22.64-20.074,45.091-42.278,52.421
			c-10.037,3.701-22.538,1.615-31.974-1.953c-3.415,4.119-7.573,8.354-12.292,10.166c12.839-15.424,20.216-33.08,29.521-49.991
			C255.128,194.425,279.09,202.517,298.703,200.444"/>
		<path clip-path="url(#SVGID_2_)" fill="#E7E7E7" d="M223.874,153.859c-5.047,3.363-7.574,9.283-6.361,15.015
			c1.597,1.283,2.47,2.819,3.429,4.405c-2.795,1.148-5.47-1.156-7.867-2.425c-2.029-2.65-5.204-5.413-3.876-8.79
			c2.101-5.259,6.908-7.888,12.293-8.684C222.234,153.507,223.394,152.979,223.874,153.859"/>
	</g>
</g>
</svg>
