<?xml version="1.0" encoding="utf-8"?>
<!-- Generator: Adobe Illustrator 21.0.0, SVG Export Plug-In . SVG Version: 6.00 Build 0)  -->
<svg version="1.1" id="Layer_1" xmlns="http://www.w3.org/2000/svg" xmlns:xlink="http://www.w3.org/1999/xlink" x="0px" y="0px"
	 viewBox="0 0 723.2 135.2" style="enable-background:new 0 0 723.2 135.2;" xml:space="preserve">
<style type="text/css">
	.st0{fill:#45AAA9;}
	.st1{fill:#FADE53;}
</style>
<g>
	<g>
		<path class="st0" d="M103.5,55.4c0-6.1,0.6-12.4,1.8-18.7c1.2-6.3,3.3-12.1,6.3-17.2c3-5.2,7.2-9.4,12.4-12.6
			c5.2-3.3,11.9-4.9,20-4.9c8.1,0,14.8,1.6,20,4.9c5.2,3.3,9.4,7.5,12.4,12.6c3,5.2,5.1,10.9,6.3,17.2c1.2,6.3,1.8,12.6,1.8,18.7
			s-0.6,12.4-1.8,18.7c-1.2,6.3-3.3,12.1-6.3,17.2c-3,5.2-7.2,9.4-12.4,12.6c-5.2,3.3-11.9,4.9-20,4.9c-8.1,0-14.8-1.6-20-4.9
			c-5.2-3.3-9.4-7.5-12.4-12.6c-3-5.2-5.1-10.9-6.3-17.2C104.1,67.7,103.5,61.5,103.5,55.4 M126.6,55.4c0,2.7,0.1,6,0.4,9.8
			c0.3,3.8,0.9,7.4,2.1,11c1.1,3.5,2.8,6.5,5.2,8.9c2.3,2.4,5.6,3.7,9.8,3.7c4.1,0,7.3-1.2,9.7-3.7c2.4-2.4,4.1-5.4,5.2-8.9
			c1.1-3.5,1.8-7.2,2.1-11c0.3-3.8,0.4-7.1,0.4-9.8c0-2.7-0.1-6-0.4-9.8c-0.3-3.8-0.9-7.4-2.1-11c-1.1-3.5-2.9-6.5-5.2-8.9
			c-2.4-2.4-5.6-3.7-9.7-3.7c-4.2,0-7.5,1.2-9.8,3.7c-2.3,2.4-4,5.4-5.2,8.9c-1.1,3.5-1.8,7.2-2.1,11
			C126.7,49.4,126.6,52.6,126.6,55.4"/>
	</g>
	<g>
		<g>
			<polygon class="st0" points="210.2,29.6 202.9,36.2 193.7,20.6 210.8,4.9 230.8,4.9 230.8,108.9 210.2,108.9 			"/>
		</g>
	</g>
	<g>
		<g>
			<path class="st0" d="M250.8,33.4c0-4.6,0.9-8.7,2.6-12.2c1.8-3.5,4.2-6.3,7.3-8.7c3.1-2.3,6.7-4.1,10.8-5.2
				c4.1-1.1,8.5-1.7,13.2-1.7c4.7,0,9.1,0.6,13.2,1.7c4.1,1.1,7.7,2.9,10.7,5.2c3.1,2.3,5.5,5.2,7.3,8.7c1.8,3.5,2.7,7.5,2.7,12.2
				c0,5.5-1.5,10.2-4.5,14.1c-3,3.9-7.2,6.6-12.7,8.2V56c6.1,1.6,10.8,4.5,14,8.7c3.2,4.2,4.9,9.5,4.9,15.7c0,4.8-1,9.1-2.9,12.8
				c-2,3.7-4.6,6.8-7.9,9.2c-3.3,2.4-7.1,4.2-11.4,5.5c-4.3,1.2-8.8,1.8-13.5,1.8c-4.7,0-9.2-0.6-13.5-1.8s-8.1-3.1-11.4-5.5
				c-3.3-2.4-5.9-5.5-7.9-9.2c-2-3.7-2.9-8-2.9-12.8c0-6.3,1.6-11.5,4.9-15.7c3.2-4.2,7.9-7.1,14-8.7v-0.3
				c-5.4-1.6-9.7-4.4-12.7-8.2C252.3,43.6,250.8,38.9,250.8,33.4 M270.6,77.5c0,3.5,1.3,6.5,3.9,9c2.6,2.5,6,3.7,10.3,3.7
				s7.7-1.2,10.3-3.7c2.6-2.5,3.9-5.4,3.9-9c0-3.6-1.3-6.6-3.9-9.1c-2.6-2.5-6-3.7-10.3-3.7s-7.7,1.2-10.3,3.7
				C271.9,70.9,270.6,73.9,270.6,77.5 M272.3,36.4c0,3.1,1.1,5.8,3.4,8c2.3,2.2,5.3,3.3,9,3.3s6.7-1.1,9-3.3c2.3-2.2,3.4-4.8,3.4-8
				c0-3-1.1-5.6-3.4-7.8c-2.3-2.2-5.3-3.3-9-3.3s-6.7,1.1-9,3.3C273.4,30.8,272.3,33.4,272.3,36.4"/>
		</g>
	</g>
	<g>
		<path class="st0" d="M5,106.8l48.8-48.1c2.7-2.4,5.5-5,8.2-8c2.7-3,4.1-6.5,4.1-10.5c0-4.5-1.7-8-5.1-10.6
			c-3.4-2.6-7.4-3.8-11.9-3.8c-5.5,0-9.8,1.6-12.8,4.9c-3.1,3.2-4.8,7.2-5.2,12L1.8,40.6c0.4-6.9,1.9-12.8,4.5-17.9
			c2.6-5,6.1-9.3,10.4-12.6S26,4.2,31.8,2.5C37.6,0.8,43.9,0,50.7,0C57,0,62.8,0.8,68.3,2.5c5.5,1.7,10.2,4.2,14.3,7.5
			c4,3.3,7.2,7.5,9.5,12.4c2.3,5,3.4,10.8,3.4,17.4c0,4.2-0.5,8.1-1.4,11.5c-0.9,3.4-2.2,6.5-3.8,9.4c-1.6,2.8-3.6,5.4-5.8,7.8
			c-2.2,2.4-4.6,4.7-7.2,6.9l-35.3,33.1l681.1,1.5v25.2H0L5,106.8z"/>
	</g>
	<g>
		<path class="st1" d="M356.6,60.3l-11.7-18.2h8.6L360,54l7-11.9h8.2l-11.7,18.2v13.5h-6.9L356.6,60.3L356.6,60.3z"/>
		<path class="st1" d="M377.7,42.1h21.2v6.5h-14.3v5.9h13.5v6.5h-13.5v6.5h15.1v6.5h-22L377.7,42.1L377.7,42.1z"/>
		<path class="st1" d="M415.5,42.1h5.7l13.6,31.7H427l-2.7-6.7h-12.1l-2.6,6.7H402L415.5,42.1z M418.2,51.3l-3.8,9.9h7.6L418.2,51.3
			z"/>
		<path class="st1" d="M437.9,42.1H450c1.6,0,3.1,0.2,4.5,0.5c1.4,0.3,2.7,0.8,3.7,1.6c1.1,0.7,1.9,1.7,2.6,3
			c0.6,1.2,0.9,2.8,0.9,4.6c0,2.2-0.6,4.1-1.7,5.7s-2.8,2.6-5,3l7.9,13.4h-8.2l-6.5-12.7h-3.4v12.7h-6.9L437.9,42.1L437.9,42.1z
			 M444.8,55.2h4.1c0.6,0,1.3,0,2-0.1c0.7,0,1.3-0.2,1.9-0.4c0.6-0.2,1-0.6,1.4-1.1c0.4-0.5,0.6-1.2,0.6-2c0-0.8-0.2-1.4-0.5-1.9
			c-0.3-0.5-0.7-0.8-1.2-1.1c-0.5-0.3-1.1-0.4-1.7-0.5c-0.6-0.1-1.3-0.1-1.9-0.1h-4.5L444.8,55.2L444.8,55.2z"/>
		<path class="st1" d="M479.4,42.1h6.9v31.7h-6.9V42.1z"/>
		<path class="st1" d="M492.6,42.1h9.3l13.3,22.1h0.1V42.1h6.9v31.7h-9l-13.6-22.6h-0.1v22.6h-6.9L492.6,42.1L492.6,42.1z"/>
		<path class="st1" d="M541.5,42.1h12.1c1.6,0,3.1,0.2,4.5,0.5s2.7,0.8,3.7,1.6c1.1,0.7,1.9,1.7,2.6,3c0.6,1.2,0.9,2.8,0.9,4.6
			c0,2.2-0.6,4.1-1.7,5.7c-1.1,1.6-2.8,2.6-5,3l7.9,13.4h-8.2l-6.5-12.7h-3.4v12.7h-6.9L541.5,42.1L541.5,42.1z M548.4,55.2h4.1
			c0.6,0,1.3,0,2-0.1s1.3-0.2,1.9-0.4c0.6-0.2,1-0.6,1.4-1.1c0.4-0.5,0.6-1.2,0.6-2c0-0.8-0.2-1.4-0.5-1.9c-0.3-0.5-0.7-0.8-1.2-1.1
			c-0.5-0.3-1.1-0.4-1.7-0.5c-0.6-0.1-1.3-0.1-1.9-0.1h-4.5L548.4,55.2L548.4,55.2z"/>
		<path class="st1" d="M570.4,42.1h21.2v6.5h-14.3v5.9h13.5v6.5h-13.5v6.5h15.1v6.5h-22L570.4,42.1L570.4,42.1z"/>
		<path class="st1" d="M594.8,42.1h7.8l7.7,20.8h0.1l7.8-20.8h7.4l-12.9,31.7h-5.5L594.8,42.1z"/>
		<path class="st1" d="M628.8,42.1h6.9v31.7h-6.9V42.1z"/>
		<path class="st1" d="M642.2,42.1h21.2v6.5h-14.3v5.9h13.5v6.5h-13.5v6.5h15.1v6.5h-22V42.1z"/>
		<path class="st1" d="M666.5,42.1h7.5l5,20.4h0.1l6.5-20.4h6.4l6.5,20.9h0.1l5.2-20.9h7l-9.1,31.7h-6.1l-6.9-22h-0.1l-6.9,22h-5.9
			L666.5,42.1z"/>
	</g>
</g>
</svg>
