<?xml version="1.0" encoding="utf-8"?>
<!-- Generator: Adobe Illustrator 16.0.4, SVG Export Plug-In . SVG Version: 6.00 Build 0)  -->
<!DOCTYPE svg PUBLIC "-//W3C//DTD SVG 1.1//EN" "http://www.w3.org/Graphics/SVG/1.1/DTD/svg11.dtd">
<svg version="1.1" id="Layer_1" xmlns="http://www.w3.org/2000/svg" xmlns:xlink="http://www.w3.org/1999/xlink" x="0px" y="0px"
	 width="1280px" height="284.128px" viewBox="0 0 1280 284.128" enable-background="new 0 0 1280 284.128" xml:space="preserve">
<polygon fill="#8FD7F2" points="1281,0 1,0 1,284.128 1281,284.128 1128,142.083 "/>
<g enable-background="new    ">
	<path d="M341.679,169.109l14.112,16.464c-5.88,4.998-11.664,8.576-17.346,10.73c-5.685,2.154-12.153,3.234-19.404,3.234
		c-14.994,0-26.952-4.947-35.868-14.847c-8.82-9.702-13.23-21.657-13.23-35.868c0-7.938,1.518-15.436,4.557-22.491
		c3.036-7.056,7.299-12.937,12.789-17.64c8.622-7.351,19.452-11.025,32.487-11.025c8.232,0,15.973,1.617,23.226,4.851
		c4.311,2.059,8.967,5.392,13.965,9.996l-15.288,16.023c-6.762-5.88-13.77-8.82-21.021-8.82c-7.841,0-14.236,2.623-19.184,7.864
		c-4.95,5.244-7.423,12.08-7.423,20.507c0,8.625,2.621,15.681,7.865,21.168c5.241,5.489,11.98,8.232,20.212,8.232
		C330.162,177.488,336.681,174.695,341.679,169.109z"/>
	<path d="M424.584,183.514h-34.692l-4.263,14.112h-25.431l32.34-98.049h30.282l32.193,98.049h-26.166L424.584,183.514z
		 M418.704,164.257l-11.466-36.603l-11.466,36.603H418.704z"/>
	<path d="M488.086,141.766v55.86h-23.814V99.578h23.814l35.721,55.125V99.578h23.814v98.049h-23.814L488.086,141.766z"/>
	<path d="M566.288,197.626V99.578h28.665c8.428,0,15.458,0.834,21.095,2.499c5.634,1.667,10.706,4.41,15.215,8.231
		c10.679,9.018,16.023,21.462,16.023,37.338c0,7.743-1.373,14.994-4.117,21.757c-2.744,6.762-6.566,12.398-11.465,16.904
		c-8.33,7.548-19.698,11.319-34.104,11.319H566.288z M590.102,118.687v59.389h3.675c8.722,0,15.803-2.743,21.241-8.232
		c5.439-5.487,8.159-12.642,8.159-21.462c0-4.312-0.809-8.549-2.426-12.716c-1.617-4.164-3.799-7.472-6.542-9.922
		c-5.195-4.704-11.711-7.057-19.551-7.057H590.102z"/>
	<path d="M685.357,99.578v98.049h-23.814V99.578H685.357z"/>
	<path d="M704.023,197.626V99.578h28.666c8.428,0,15.457,0.834,21.094,2.499c5.635,1.667,10.707,4.41,15.215,8.231
		c10.68,9.018,16.023,21.462,16.023,37.338c0,7.743-1.373,14.994-4.117,21.757c-2.744,6.762-6.566,12.398-11.465,16.904
		c-8.33,7.548-19.699,11.319-34.104,11.319H704.023z M727.838,118.687v59.389h3.676c8.721,0,15.803-2.743,21.24-8.232
		c5.439-5.487,8.16-12.642,8.16-21.462c0-4.312-0.809-8.549-2.426-12.716c-1.617-4.164-3.799-7.472-6.543-9.922
		c-5.195-4.704-11.711-7.057-19.551-7.057H727.838z"/>
	<path d="M852.348,183.514h-34.691l-4.264,14.112h-25.432l32.34-98.049h30.283l32.193,98.049h-26.166L852.348,183.514z
		 M846.467,164.257l-11.465-36.603l-11.467,36.603H846.467z"/>
	<path d="M923.936,118.834v78.792h-23.814v-78.792h-22.637V99.578h68.943v19.257H923.936z"/>
	<path d="M977.59,118.834v19.992h32.34v19.257h-32.34v20.286h32.34v19.257h-56.154V99.578h56.154v19.257H977.59z"/>
	<path d="M1023.158,167.932h23.373c-0.098,0.394-0.146,0.933-0.146,1.617c0,2.451,1.15,4.558,3.455,6.321
		c2.301,1.764,5.021,2.646,8.158,2.646c2.842,0,5.242-0.758,7.203-2.278c1.959-1.518,2.939-3.355,2.939-5.513
		c0-2.253-0.932-4.091-2.793-5.512c-1.863-1.42-5.637-3.161-11.318-5.219c-10.684-3.822-18.326-8.158-22.932-13.01
		c-4.607-4.851-6.91-11.048-6.91-18.596c0-9.21,3.111-16.634,9.334-22.271c6.223-5.634,14.43-8.452,24.623-8.452
		c6.564,0,12.471,1.323,17.715,3.969c5.24,2.646,9.283,6.372,12.127,11.172c2.447,4.02,4.164,9.262,5.145,15.729h-24.256
		c-0.686-6.564-4.312-9.85-10.877-9.85c-2.939,0-5.293,0.713-7.057,2.132c-1.764,1.422-2.645,3.308-2.645,5.659
		c0,2.94,1.518,5.292,4.557,7.057c1.566,1.079,5.291,2.696,11.172,4.851c9.996,3.822,16.953,7.497,20.873,11.025
		c5.488,4.998,8.232,11.564,8.232,19.698c0,9.113-3.234,16.464-9.701,22.05c-6.469,5.586-14.947,8.379-25.432,8.379
		c-10.684,0-19.16-2.842-25.432-8.526C1026.295,185.329,1023.158,177.634,1023.158,167.932z"/>
</g>
<g>
	<rect x="133.737" y="99.262" fill="#A6A8AB" width="0.701" height="12.67"/>
	
		<rect x="27.82" y="129.771" fill="#FFFFFF" stroke="#F1F1F2" stroke-width="0.9448" stroke-miterlimit="10" width="212.02" height="53.403"/>
	<rect x="24.821" y="128.274" fill="#E6E7E8" width="217.5" height="4.222"/>
	<rect x="92.207" y="113.19" fill="#F1F1F2" width="81.847" height="12.08"/>
	<g>
		<path fill="#E6E7E8" d="M92.602,124.093l41.474-16.014l39.601,16.022c0.889,0.36,0.45,1.169-0.634,1.169H93.216
			C92.119,125.27,91.689,124.446,92.602,124.093"/>
		<rect x="92.042" y="125.27" fill="#F1F1F2" width="81.847" height="9.002"/>
		<path fill="#F1F1F2" d="M99.762,181.214h-4.496c-1.046,0-1.901-0.855-1.901-1.899V134.33c0-1.045,0.855-1.9,1.901-1.9h4.496
			c1.045,0,1.901,0.855,1.901,1.9v44.985C101.663,180.362,100.808,181.214,99.762,181.214"/>
		<path fill="#E6E7E8" d="M101.899,134.539h-8.801c-0.581,0-1.056-0.475-1.056-1.055c0-0.581,0.475-1.055,1.056-1.055h8.801
			c0.58,0,1.055,0.475,1.055,1.055C102.955,134.064,102.478,134.539,101.899,134.539"/>
		<path fill="#E6E7E8" d="M101.899,181.268h-8.801c-0.581,0-1.056-0.475-1.056-1.055s0.475-1.054,1.056-1.054h8.801
			c0.58,0,1.055,0.474,1.055,1.054C102.955,180.791,102.478,181.268,101.899,181.268"/>
		<path fill="#F1F1F2" d="M170.698,181.191H166.2c-1.046,0-1.9-0.856-1.9-1.9v-44.985c0-1.045,0.856-1.901,1.9-1.901h4.498
			c1.046,0,1.9,0.855,1.9,1.901v44.985C172.598,180.337,171.743,181.191,170.698,181.191"/>
		<path fill="#E6E7E8" d="M172.833,134.514h-8.802c-0.581,0-1.055-0.475-1.055-1.055c0-0.581,0.475-1.055,1.055-1.055h8.802
			c0.58,0,1.054,0.475,1.054,1.055C173.888,134.039,173.414,134.514,172.833,134.514"/>
		<path fill="#E6E7E8" d="M172.833,181.242h-8.802c-0.581,0-1.055-0.475-1.055-1.054c0-0.58,0.475-1.055,1.055-1.055h8.802
			c0.58,0,1.054,0.475,1.054,1.055C173.888,180.766,173.414,181.242,172.833,181.242"/>
		<path fill="#F1F1F2" d="M147.053,181.191h-4.499c-1.045,0-1.899-0.856-1.899-1.9v-44.985c0-1.045,0.855-1.901,1.899-1.901h4.499
			c1.045,0,1.899,0.855,1.899,1.901v44.985C148.954,180.337,148.098,181.191,147.053,181.191"/>
		<path fill="#E6E7E8" d="M149.189,134.514h-8.803c-0.58,0-1.054-0.475-1.054-1.055c0-0.581,0.474-1.055,1.054-1.055h8.803
			c0.58,0,1.055,0.475,1.055,1.055S149.769,134.514,149.189,134.514"/>
		<path fill="#E6E7E8" d="M149.189,181.242h-8.803c-0.58,0-1.054-0.475-1.054-1.054c0-0.58,0.474-1.055,1.054-1.055h8.803
			c0.58,0,1.055,0.475,1.055,1.055C150.244,180.766,149.769,181.242,149.189,181.242"/>
		<path fill="#F1F1F2" d="M123.408,181.191h-4.498c-1.046,0-1.9-0.856-1.9-1.9v-44.985c0-1.045,0.855-1.901,1.9-1.901h4.498
			c1.045,0,1.9,0.855,1.9,1.901v44.985C125.308,180.337,124.453,181.191,123.408,181.191"/>
		<path fill="#E6E7E8" d="M125.544,134.514h-8.802c-0.58,0-1.055-0.475-1.055-1.055c0-0.581,0.475-1.055,1.055-1.055h8.802
			c0.58,0,1.055,0.475,1.055,1.055C126.598,134.039,126.125,134.514,125.544,134.514"/>
		<path fill="#E6E7E8" d="M125.544,181.242h-8.802c-0.58,0-1.055-0.475-1.055-1.054c0-0.58,0.475-1.055,1.055-1.055h8.802
			c0.58,0,1.055,0.475,1.055,1.055C126.598,180.766,126.125,181.242,125.544,181.242"/>
		<rect x="33.159" y="137.51" fill="#BAD0DB" width="7.159" height="13.971"/>
		<rect x="48.759" y="137.51" fill="#BAD0DB" width="7.159" height="13.971"/>
		<rect x="64.362" y="137.51" fill="#BAD0DB" width="7.159" height="13.971"/>
		<rect x="79.965" y="137.51" fill="#BAD0DB" width="7.159" height="13.971"/>
		<rect x="33.159" y="161.51" fill="#BAD0DB" width="7.159" height="13.97"/>
		<rect x="48.759" y="161.51" fill="#BAD0DB" width="7.159" height="13.97"/>
		<rect x="64.362" y="161.51" fill="#BAD0DB" width="7.159" height="13.97"/>
		<rect x="79.965" y="161.51" fill="#BAD0DB" width="7.159" height="13.97"/>
		<rect x="178.854" y="137.51" fill="#BAD0DB" width="7.158" height="13.971"/>
		<rect x="194.458" y="137.51" fill="#BAD0DB" width="7.157" height="13.971"/>
		<rect x="210.059" y="137.51" fill="#BAD0DB" width="7.157" height="13.971"/>
		<rect x="225.662" y="137.51" fill="#BAD0DB" width="7.158" height="13.971"/>
		<rect x="178.854" y="161.51" fill="#BAD0DB" width="7.158" height="13.97"/>
		<rect x="194.458" y="161.51" fill="#BAD0DB" width="7.157" height="13.97"/>
		<rect x="210.059" y="161.51" fill="#BAD0DB" width="7.157" height="13.97"/>
		<rect x="225.662" y="161.51" fill="#BAD0DB" width="7.158" height="13.97"/>
		<rect x="105.741" y="137.51" fill="#BAD0DB" width="7.159" height="13.971"/>
		<rect x="129.387" y="137.51" fill="#BAD0DB" width="7.159" height="13.971"/>
		<rect x="153.031" y="137.51" fill="#BAD0DB" width="7.158" height="13.971"/>
		<rect x="105.741" y="161.51" fill="#BAD0DB" width="7.159" height="13.97"/>
		<rect x="129.387" y="161.51" fill="#BAD0DB" width="7.159" height="13.97"/>
		<rect x="153.031" y="161.51" fill="#BAD0DB" width="7.158" height="13.97"/>
		<path fill="#E6E7E8" d="M42.922,160.388H30.553c0-2.284,2.768-4.137,6.185-4.137C40.152,156.251,42.922,158.104,42.922,160.388"/>
		<path fill="#E6E7E8" d="M74.126,160.388H61.757c0-2.284,2.769-4.137,6.185-4.137C71.356,156.251,74.126,158.104,74.126,160.388"/>
		<path fill="#E6E7E8" d="M204.221,160.388h-12.369c0-2.284,2.768-4.137,6.186-4.137
			C201.45,156.251,204.221,158.104,204.221,160.388"/>
		<path fill="#E6E7E8" d="M235.425,160.388h-12.369c0-2.284,2.767-4.137,6.185-4.137
			C232.655,156.251,235.425,158.104,235.425,160.388"/>
		<rect x="24.215" y="181.191" fill="#F1F1F2" width="217.5" height="3.962"/>
		<path fill="#AE1122" d="M142.5,103.779c-2.687-0.994-5.374,0.994-8.062,0v-0.347c2.689,0.994,5.376-0.995,8.062,0V103.779z"/>
		<path fill="#AE1122" d="M142.5,99.609c-2.687-0.994-5.374,0.995-8.062,0v-0.347c2.689,0.994,5.376-0.994,8.062,0V99.609z"/>
		<path fill="#FFFFFF" d="M142.5,99.958c-2.687-0.995-5.374,0.994-8.062,0V99.61c2.689,0.994,5.376-0.994,8.062,0V99.958z"/>
		<path fill="#AE1122" d="M142.5,100.304c-2.687-0.993-5.374,0.995-8.062,0v-0.347c2.689,0.994,5.376-0.994,8.062,0V100.304z"/>
		<path fill="#FFFFFF" d="M142.5,100.652c-2.687-0.995-5.374,0.994-8.062,0v-0.348c2.689,0.994,5.376-0.993,8.062,0V100.652z"/>
		<path fill="#AE1122" d="M142.5,101c-2.687-0.994-5.374,0.994-8.062,0v-0.347c2.689,0.994,5.376-0.995,8.062,0V101z"/>
		<path fill="#FFFFFF" d="M142.5,101.347c-2.687-0.994-5.374,0.994-8.062,0V101c2.689,0.994,5.376-0.994,8.062,0V101.347z"/>
		<path fill="#AE1122" d="M142.5,101.694c-2.687-0.994-5.374,0.994-8.062,0v-0.347c2.689,0.994,5.376-0.994,8.062,0V101.694z"/>
		<path fill="#FFFFFF" d="M142.5,102.042c-2.687-0.995-5.374,0.993-8.062,0v-0.348c2.689,0.994,5.376-0.994,8.062,0V102.042z"/>
		<path fill="#AE1122" d="M142.5,102.389c-2.687-0.993-5.374,0.994-8.062,0v-0.347c2.689,0.993,5.376-0.995,8.062,0V102.389z"/>
		<path fill="#FFFFFF" d="M142.5,102.737c-2.687-0.994-5.374,0.994-8.062,0v-0.348c2.689,0.994,5.376-0.993,8.062,0V102.737z"/>
		<path fill="#AE1122" d="M142.5,103.084c-2.687-0.994-5.374,0.994-8.062,0v-0.347c2.689,0.994,5.376-0.995,8.062,0V103.084z"/>
		<path fill="#FFFFFF" d="M142.5,103.432c-2.687-0.994-5.374,0.994-8.062,0v-0.348c2.689,0.994,5.376-0.993,8.062,0V103.432z"/>
		<path fill="#1A315C" d="M138.511,101.687c-1.357,0.25-2.716,0.511-4.073,0.008v-2.432c1.357,0.502,2.716,0.243,4.073-0.008
			V101.687z"/>
		<path fill="#FFFFFF" d="M134.646,99.428c0.007,0.021,0.013,0.044,0.02,0.066c0.021,0.007,0.042,0.013,0.063,0.019
			c-0.016,0.007-0.035,0.016-0.051,0.022c0.007,0.022,0.014,0.045,0.02,0.067c-0.017-0.018-0.033-0.036-0.051-0.054
			c-0.016,0.007-0.035,0.014-0.051,0.021c0.008-0.018,0.014-0.036,0.02-0.054c-0.017-0.018-0.035-0.036-0.051-0.055
			c0.021,0.008,0.043,0.015,0.064,0.021C134.633,99.464,134.639,99.445,134.646,99.428"/>
		<path fill="#FFFFFF" d="M137.601,99.509c0.008,0.02,0.014,0.039,0.02,0.058c0.021-0.004,0.043-0.007,0.064-0.01
			c-0.017,0.015-0.034,0.03-0.051,0.046c0.007,0.019,0.013,0.038,0.02,0.057c-0.017-0.009-0.034-0.019-0.052-0.029
			c-0.016,0.015-0.034,0.03-0.051,0.045c0.007-0.021,0.014-0.042,0.019-0.064c-0.016-0.01-0.034-0.02-0.051-0.03
			c0.021-0.003,0.044-0.007,0.064-0.01C137.588,99.552,137.595,99.531,137.601,99.509"/>
		<path fill="#FFFFFF" d="M136.863,99.606c0.006,0.02,0.013,0.04,0.019,0.059c0.021-0.002,0.042-0.004,0.063-0.006
			c-0.017,0.015-0.034,0.029-0.05,0.042c0.006,0.02,0.014,0.039,0.019,0.059c-0.018-0.011-0.035-0.021-0.051-0.033
			c-0.017,0.015-0.035,0.028-0.053,0.042c0.009-0.021,0.015-0.042,0.021-0.062c-0.017-0.012-0.035-0.022-0.051-0.033
			c0.021-0.001,0.042-0.004,0.063-0.005C136.85,99.648,136.855,99.627,136.863,99.606"/>
		<path fill="#FFFFFF" d="M136.125,99.643c0.006,0.021,0.013,0.041,0.019,0.061c0.021,0,0.042,0,0.063,0
			c-0.016,0.013-0.035,0.025-0.051,0.038c0.006,0.02,0.014,0.04,0.019,0.06c-0.017-0.013-0.034-0.024-0.05-0.037
			c-0.017,0.013-0.035,0.024-0.052,0.036c0.007-0.02,0.014-0.04,0.02-0.061c-0.017-0.012-0.035-0.025-0.051-0.038
			c0.021,0,0.042,0,0.063,0C136.111,99.684,136.116,99.664,136.125,99.643"/>
		<path fill="#FFFFFF" d="M135.385,99.593c0.007,0.021,0.013,0.042,0.019,0.063c0.021,0.003,0.043,0.006,0.063,0.008
			c-0.017,0.011-0.034,0.021-0.05,0.031c0.006,0.021,0.013,0.042,0.019,0.062c-0.017-0.015-0.035-0.029-0.05-0.044
			c-0.017,0.01-0.035,0.02-0.051,0.03c0.006-0.019,0.014-0.038,0.02-0.058c-0.017-0.016-0.035-0.031-0.052-0.046
			c0.021,0.003,0.043,0.006,0.064,0.01C135.372,99.632,135.379,99.612,135.385,99.593"/>
		<path fill="#FFFFFF" d="M138.341,99.38c0.007,0.019,0.014,0.038,0.019,0.057c0.021-0.004,0.043-0.008,0.063-0.012
			c-0.016,0.016-0.035,0.032-0.051,0.047c0.006,0.019,0.014,0.038,0.019,0.057c-0.017-0.009-0.035-0.019-0.051-0.028l-0.051,0.047
			c0.006-0.022,0.014-0.042,0.019-0.064c-0.016-0.009-0.034-0.019-0.051-0.028c0.021-0.004,0.043-0.008,0.063-0.012
			C138.327,99.423,138.333,99.401,138.341,99.38"/>
		<path fill="#FFFFFF" d="M134.995,99.774c0.006,0.021,0.012,0.043,0.019,0.065c0.02,0.005,0.043,0.008,0.063,0.013
			c-0.017,0.009-0.035,0.018-0.052,0.026c0.007,0.021,0.014,0.043,0.019,0.065c-0.016-0.016-0.033-0.032-0.049-0.049
			c-0.017,0.009-0.035,0.017-0.052,0.026c0.007-0.019,0.015-0.038,0.019-0.056c-0.016-0.016-0.033-0.033-0.049-0.049
			c0.021,0.004,0.042,0.01,0.063,0.015C134.981,99.812,134.986,99.794,134.995,99.774"/>
		<path fill="#FFFFFF" d="M135.741,99.883c0.006,0.021,0.013,0.041,0.019,0.061c0.021,0.002,0.043,0.003,0.063,0.004
			c-0.017,0.012-0.035,0.023-0.052,0.035c0.008,0.02,0.015,0.041,0.02,0.062c-0.017-0.014-0.034-0.027-0.05-0.041
			c-0.017,0.011-0.035,0.022-0.052,0.033c0.007-0.019,0.015-0.04,0.019-0.059c-0.017-0.014-0.034-0.028-0.05-0.042
			c0.021,0.001,0.042,0.004,0.063,0.005C135.727,99.922,135.735,99.903,135.741,99.883"/>
		<path fill="#FFFFFF" d="M136.488,99.887c0.006,0.021,0.013,0.04,0.02,0.06c0.021-0.001,0.042-0.002,0.063-0.004
			c-0.016,0.013-0.036,0.027-0.051,0.04c0.007,0.02,0.013,0.04,0.02,0.059c-0.017-0.011-0.035-0.022-0.051-0.034
			c-0.017,0.013-0.035,0.027-0.052,0.04c0.008-0.021,0.015-0.041,0.019-0.062c-0.016-0.012-0.033-0.023-0.05-0.036
			c0.021,0,0.043,0,0.064-0.002C136.474,99.929,136.48,99.909,136.488,99.887"/>
		<path fill="#FFFFFF" d="M137.234,99.816c0.007,0.02,0.014,0.039,0.02,0.059c0.02-0.002,0.042-0.006,0.063-0.009
			c-0.017,0.016-0.035,0.03-0.051,0.044c0.007,0.019,0.014,0.039,0.02,0.058c-0.018-0.01-0.035-0.021-0.052-0.03
			c-0.016,0.016-0.034,0.029-0.051,0.044c0.008-0.021,0.014-0.042,0.019-0.063c-0.016-0.01-0.034-0.02-0.051-0.031
			c0.021-0.003,0.042-0.005,0.063-0.008C137.223,99.858,137.227,99.837,137.234,99.816"/>
		<path fill="#FFFFFF" d="M137.981,99.698c0.007,0.019,0.014,0.038,0.02,0.057c0.02-0.003,0.042-0.007,0.063-0.011
			c-0.016,0.016-0.035,0.031-0.051,0.046c0.007,0.019,0.014,0.038,0.019,0.057c-0.017-0.01-0.035-0.019-0.051-0.029
			c-0.016,0.016-0.034,0.031-0.051,0.047c0.008-0.021,0.014-0.043,0.02-0.064c-0.016-0.009-0.034-0.019-0.051-0.028
			c0.021-0.004,0.043-0.007,0.063-0.011C137.968,99.741,137.974,99.719,137.981,99.698"/>
		<path fill="#FFFFFF" d="M134.64,99.947c0.007,0.022,0.014,0.044,0.019,0.066c0.021,0.007,0.043,0.013,0.063,0.02
			c-0.016,0.008-0.034,0.015-0.051,0.022c0.007,0.022,0.015,0.045,0.019,0.066c-0.016-0.018-0.034-0.036-0.051-0.053
			c-0.017,0.007-0.034,0.014-0.05,0.021c0.006-0.018,0.013-0.035,0.019-0.054c-0.017-0.019-0.035-0.036-0.051-0.055
			c0.02,0.007,0.043,0.015,0.064,0.021C134.627,99.983,134.633,99.965,134.64,99.947"/>
		<path fill="#FFFFFF" d="M137.596,100.031c0.007,0.02,0.013,0.038,0.019,0.058c0.021-0.003,0.043-0.007,0.063-0.01
			c-0.016,0.016-0.033,0.031-0.05,0.046c0.007,0.019,0.015,0.038,0.019,0.058c-0.016-0.01-0.033-0.02-0.05-0.03
			c-0.017,0.016-0.034,0.03-0.05,0.046c0.006-0.021,0.013-0.043,0.019-0.063c-0.017-0.01-0.034-0.02-0.05-0.03
			c0.02-0.003,0.042-0.007,0.063-0.01C137.583,100.074,137.589,100.053,137.596,100.031"/>
		<path fill="#FFFFFF" d="M136.857,100.128c0.006,0.02,0.014,0.04,0.02,0.059c0.021-0.002,0.042-0.005,0.063-0.007
			c-0.017,0.015-0.035,0.028-0.051,0.042c0.006,0.02,0.014,0.039,0.02,0.059c-0.017-0.011-0.035-0.021-0.051-0.032
			c-0.018,0.015-0.035,0.029-0.051,0.042l0.019-0.062c-0.016-0.011-0.035-0.022-0.051-0.033c0.02-0.001,0.042-0.003,0.064-0.006
			C136.844,100.169,136.851,100.149,136.857,100.128"/>
		<path fill="#FFFFFF" d="M136.118,100.165c0.008,0.02,0.014,0.04,0.02,0.061c0.021,0,0.043,0,0.063,0
			c-0.016,0.012-0.034,0.024-0.051,0.038c0.008,0.02,0.014,0.041,0.019,0.061c-0.016-0.013-0.034-0.025-0.051-0.038
			c-0.016,0.012-0.034,0.025-0.051,0.038c0.008-0.021,0.015-0.041,0.019-0.061c-0.016-0.013-0.034-0.025-0.051-0.038
			c0.021,0,0.043,0,0.063,0C136.105,100.205,136.112,100.185,136.118,100.165"/>
		<path fill="#FFFFFF" d="M135.379,100.113c0.008,0.021,0.015,0.043,0.021,0.064c0.02,0.003,0.043,0.005,0.063,0.008
			c-0.017,0.011-0.035,0.021-0.05,0.031c0.006,0.021,0.013,0.043,0.019,0.064c-0.017-0.015-0.034-0.03-0.052-0.044
			c-0.016,0.01-0.034,0.02-0.05,0.03c0.007-0.02,0.015-0.038,0.019-0.058c-0.016-0.014-0.033-0.03-0.051-0.045
			c0.021,0.003,0.043,0.006,0.064,0.01C135.367,100.152,135.373,100.133,135.379,100.113"/>
		<path fill="#FFFFFF" d="M138.334,99.902c0.008,0.019,0.014,0.038,0.02,0.057c0.021-0.004,0.043-0.008,0.063-0.012
			c-0.016,0.016-0.033,0.031-0.051,0.047c0.007,0.019,0.013,0.038,0.019,0.057c-0.016-0.01-0.033-0.018-0.052-0.028
			c-0.016,0.017-0.034,0.032-0.049,0.047c0.006-0.022,0.012-0.042,0.019-0.064c-0.018-0.01-0.035-0.019-0.052-0.028
			c0.021-0.004,0.042-0.007,0.063-0.012C138.322,99.945,138.328,99.924,138.334,99.902"/>
		<path fill="#FFFFFF" d="M134.988,100.31c0.008,0.022,0.014,0.043,0.02,0.065c0.021,0.004,0.043,0.009,0.063,0.014
			c-0.016,0.009-0.034,0.018-0.051,0.026c0.008,0.021,0.014,0.044,0.02,0.065c-0.016-0.016-0.034-0.032-0.051-0.049
			c-0.016,0.009-0.033,0.017-0.05,0.026c0.007-0.019,0.014-0.037,0.019-0.056c-0.016-0.016-0.035-0.033-0.05-0.05
			c0.02,0.006,0.043,0.011,0.063,0.016C134.976,100.347,134.981,100.33,134.988,100.31"/>
		<path fill="#FFFFFF" d="M135.735,100.419c0.008,0.021,0.015,0.042,0.02,0.062c0.021,0.001,0.042,0.003,0.063,0.004
			c-0.016,0.012-0.033,0.023-0.051,0.034c0.007,0.02,0.013,0.041,0.02,0.062c-0.017-0.013-0.035-0.027-0.052-0.041
			c-0.016,0.012-0.033,0.022-0.05,0.033c0.007-0.019,0.013-0.04,0.02-0.059c-0.017-0.014-0.035-0.028-0.052-0.042
			c0.021,0.001,0.043,0.003,0.064,0.005C135.723,100.459,135.729,100.439,135.735,100.419"/>
		<path fill="#FFFFFF" d="M136.482,100.425c0.007,0.02,0.014,0.04,0.019,0.06c0.021-0.002,0.043-0.003,0.063-0.004
			c-0.016,0.013-0.033,0.027-0.05,0.041c0.006,0.02,0.014,0.04,0.019,0.06c-0.016-0.013-0.035-0.023-0.051-0.035
			c-0.017,0.013-0.034,0.026-0.051,0.04c0.007-0.021,0.014-0.041,0.02-0.062c-0.017-0.012-0.035-0.023-0.051-0.035
			c0.021,0,0.042-0.002,0.063-0.002C136.469,100.465,136.476,100.445,136.482,100.425"/>
		<path fill="#FFFFFF" d="M137.229,100.354c0.008,0.02,0.014,0.039,0.019,0.058c0.021-0.002,0.043-0.005,0.064-0.009
			c-0.017,0.017-0.034,0.03-0.051,0.045c0.007,0.019,0.014,0.039,0.02,0.057c-0.017-0.01-0.035-0.02-0.051-0.03
			c-0.016,0.016-0.033,0.03-0.051,0.044c0.008-0.021,0.014-0.042,0.02-0.063c-0.016-0.01-0.035-0.021-0.051-0.031
			c0.021-0.003,0.043-0.005,0.064-0.008C137.216,100.396,137.223,100.375,137.229,100.354"/>
		<path fill="#FFFFFF" d="M137.976,100.236c0.006,0.019,0.013,0.038,0.019,0.057c0.021-0.003,0.042-0.008,0.063-0.012
			c-0.016,0.016-0.033,0.031-0.05,0.047c0.007,0.019,0.013,0.037,0.019,0.057c-0.016-0.009-0.033-0.019-0.05-0.028
			c-0.017,0.015-0.034,0.032-0.051,0.047c0.007-0.021,0.015-0.043,0.02-0.064c-0.017-0.009-0.036-0.019-0.051-0.028
			c0.021-0.004,0.043-0.007,0.063-0.011C137.963,100.279,137.969,100.258,137.976,100.236"/>
		<path fill="#FFFFFF" d="M134.64,100.468c0.007,0.022,0.014,0.044,0.019,0.067c0.021,0.007,0.043,0.013,0.063,0.02
			c-0.016,0.007-0.034,0.015-0.051,0.022c0.007,0.023,0.015,0.044,0.019,0.066c-0.016-0.017-0.034-0.036-0.051-0.053
			c-0.017,0.007-0.034,0.014-0.05,0.021c0.006-0.018,0.013-0.036,0.019-0.054c-0.017-0.018-0.035-0.036-0.051-0.055
			c0.02,0.007,0.043,0.017,0.064,0.021C134.627,100.505,134.633,100.487,134.64,100.468"/>
		<path fill="#FFFFFF" d="M137.596,100.553c0.007,0.02,0.013,0.038,0.019,0.058c0.021-0.003,0.043-0.006,0.063-0.01
			c-0.016,0.015-0.033,0.03-0.05,0.046c0.007,0.019,0.015,0.038,0.019,0.057c-0.016-0.01-0.033-0.02-0.05-0.029
			c-0.017,0.016-0.034,0.03-0.05,0.046c0.006-0.021,0.013-0.043,0.019-0.064c-0.017-0.01-0.034-0.02-0.05-0.029
			c0.02-0.003,0.042-0.007,0.063-0.01C137.583,100.595,137.589,100.574,137.596,100.553"/>
		<path fill="#FFFFFF" d="M136.857,100.649c0.006,0.021,0.014,0.039,0.02,0.059c0.021-0.002,0.042-0.004,0.063-0.006
			c-0.017,0.015-0.035,0.029-0.051,0.043c0.006,0.019,0.014,0.039,0.02,0.058c-0.017-0.011-0.035-0.021-0.051-0.032
			c-0.018,0.015-0.035,0.029-0.051,0.042l0.019-0.062c-0.016-0.012-0.035-0.022-0.051-0.033c0.02-0.001,0.042-0.003,0.064-0.005
			C136.844,100.691,136.851,100.67,136.857,100.649"/>
		<path fill="#FFFFFF" d="M136.118,100.686c0.008,0.02,0.014,0.04,0.02,0.061c0.021,0,0.043,0,0.063,0
			c-0.016,0.013-0.034,0.025-0.051,0.038c0.008,0.021,0.014,0.041,0.019,0.061c-0.016-0.013-0.034-0.025-0.051-0.037
			c-0.016,0.012-0.034,0.024-0.051,0.037c0.008-0.021,0.015-0.041,0.019-0.061c-0.016-0.012-0.034-0.025-0.051-0.038
			c0.021,0,0.043,0,0.063,0C136.105,100.726,136.112,100.706,136.118,100.686"/>
		<path fill="#FFFFFF" d="M135.379,100.634c0.008,0.021,0.015,0.042,0.021,0.063c0.02,0.003,0.043,0.005,0.063,0.009
			c-0.017,0.011-0.035,0.021-0.05,0.031c0.006,0.021,0.013,0.043,0.019,0.063c-0.017-0.015-0.034-0.03-0.052-0.044
			c-0.016,0.01-0.034,0.021-0.05,0.03c0.007-0.019,0.015-0.038,0.019-0.057c-0.016-0.016-0.033-0.031-0.051-0.046
			c0.021,0.003,0.043,0.006,0.064,0.009C135.367,100.673,135.373,100.654,135.379,100.634"/>
		<path fill="#FFFFFF" d="M138.334,100.423c0.008,0.019,0.014,0.038,0.02,0.057c0.021-0.003,0.043-0.007,0.063-0.012
			c-0.016,0.017-0.033,0.032-0.051,0.047c0.007,0.019,0.013,0.038,0.019,0.058c-0.016-0.01-0.033-0.019-0.052-0.028
			c-0.016,0.016-0.034,0.032-0.049,0.047c0.006-0.021,0.012-0.043,0.019-0.064c-0.018-0.009-0.035-0.019-0.052-0.028
			c0.021-0.004,0.042-0.008,0.063-0.011C138.322,100.466,138.328,100.444,138.334,100.423"/>
		<path fill="#FFFFFF" d="M134.988,100.848c0.008,0.021,0.014,0.043,0.02,0.065c0.021,0.005,0.043,0.01,0.063,0.014
			c-0.016,0.009-0.034,0.018-0.051,0.026c0.008,0.022,0.014,0.044,0.02,0.065c-0.016-0.016-0.034-0.033-0.051-0.048
			c-0.016,0.008-0.033,0.016-0.05,0.025c0.007-0.019,0.014-0.037,0.019-0.056c-0.016-0.016-0.035-0.033-0.05-0.05
			c0.02,0.005,0.043,0.011,0.063,0.016C134.976,100.884,134.981,100.866,134.988,100.848"/>
		<path fill="#FFFFFF" d="M135.735,100.956c0.008,0.021,0.015,0.042,0.02,0.062c0.021,0.002,0.042,0.003,0.063,0.004
			c-0.016,0.012-0.033,0.023-0.051,0.035c0.007,0.02,0.013,0.041,0.02,0.062c-0.017-0.014-0.035-0.027-0.052-0.042
			c-0.016,0.012-0.033,0.023-0.05,0.033c0.007-0.019,0.013-0.039,0.02-0.059c-0.017-0.013-0.035-0.027-0.052-0.042
			c0.021,0.001,0.043,0.003,0.064,0.005C135.723,100.996,135.729,100.976,135.735,100.956"/>
		<path fill="#FFFFFF" d="M136.482,100.961c0.007,0.02,0.014,0.04,0.019,0.06c0.021-0.001,0.043-0.002,0.063-0.004
			c-0.016,0.013-0.033,0.026-0.05,0.041c0.006,0.02,0.014,0.039,0.019,0.059c-0.016-0.012-0.035-0.023-0.051-0.035
			c-0.017,0.014-0.034,0.027-0.051,0.041c0.007-0.021,0.014-0.042,0.02-0.062c-0.017-0.012-0.035-0.023-0.051-0.035
			c0.021,0,0.042-0.001,0.063-0.002C136.469,101.003,136.476,100.981,136.482,100.961"/>
		<path fill="#FFFFFF" d="M137.229,100.891c0.008,0.019,0.014,0.038,0.019,0.057c0.021-0.003,0.043-0.005,0.064-0.008
			c-0.017,0.016-0.034,0.03-0.051,0.044c0.007,0.02,0.014,0.039,0.02,0.058c-0.017-0.01-0.035-0.02-0.051-0.031
			c-0.016,0.015-0.033,0.029-0.051,0.044c0.008-0.021,0.014-0.042,0.02-0.062c-0.016-0.01-0.035-0.021-0.051-0.031
			c0.021-0.003,0.043-0.005,0.064-0.009C137.216,100.933,137.223,100.912,137.229,100.891"/>
		<path fill="#FFFFFF" d="M137.976,100.773c0.006,0.019,0.013,0.038,0.019,0.057c0.021-0.003,0.042-0.007,0.063-0.011
			c-0.016,0.016-0.033,0.031-0.05,0.047c0.007,0.019,0.013,0.037,0.019,0.058c-0.016-0.01-0.033-0.019-0.05-0.029
			c-0.017,0.016-0.034,0.032-0.051,0.046c0.007-0.022,0.015-0.042,0.02-0.064c-0.017-0.009-0.036-0.019-0.051-0.029
			c0.021-0.003,0.043-0.007,0.063-0.011C137.963,100.816,137.969,100.794,137.976,100.773"/>
		<path fill="#FFFFFF" d="M134.64,100.99c0.007,0.021,0.014,0.044,0.019,0.066c0.021,0.006,0.043,0.013,0.063,0.02
			c-0.016,0.007-0.034,0.015-0.051,0.021c0.007,0.022,0.015,0.044,0.019,0.067c-0.016-0.018-0.034-0.036-0.051-0.054
			c-0.017,0.008-0.034,0.015-0.05,0.021c0.006-0.018,0.013-0.036,0.019-0.054c-0.017-0.018-0.035-0.036-0.051-0.055
			c0.02,0.007,0.043,0.015,0.064,0.021C134.627,101.025,134.633,101.008,134.64,100.99"/>
		<path fill="#FFFFFF" d="M137.596,101.073c0.007,0.019,0.013,0.038,0.019,0.058c0.021-0.003,0.043-0.007,0.063-0.01
			c-0.016,0.015-0.033,0.031-0.05,0.046c0.007,0.019,0.015,0.038,0.019,0.057c-0.016-0.01-0.033-0.02-0.05-0.03
			c-0.017,0.016-0.034,0.03-0.05,0.046c0.006-0.021,0.013-0.042,0.019-0.063c-0.017-0.01-0.034-0.02-0.05-0.03
			c0.02-0.003,0.042-0.006,0.063-0.01C137.583,101.116,137.589,101.095,137.596,101.073"/>
		<path fill="#FFFFFF" d="M136.857,101.17c0.006,0.02,0.014,0.039,0.02,0.059c0.021-0.002,0.042-0.005,0.063-0.007
			c-0.017,0.015-0.035,0.029-0.051,0.042c0.006,0.02,0.014,0.039,0.02,0.058c-0.017-0.011-0.035-0.021-0.051-0.033
			c-0.018,0.015-0.035,0.029-0.051,0.043c0.006-0.021,0.013-0.041,0.019-0.062c-0.016-0.011-0.035-0.022-0.051-0.033
			c0.02-0.002,0.042-0.003,0.064-0.005C136.844,101.212,136.851,101.191,136.857,101.17"/>
		<path fill="#FFFFFF" d="M136.118,101.207c0.008,0.021,0.014,0.041,0.02,0.061c0.021,0,0.043,0,0.063,0
			c-0.016,0.013-0.034,0.025-0.051,0.037c0.008,0.021,0.014,0.041,0.019,0.061c-0.016-0.013-0.034-0.025-0.051-0.037
			c-0.016,0.012-0.034,0.024-0.051,0.037c0.008-0.021,0.015-0.041,0.019-0.061c-0.016-0.012-0.034-0.025-0.051-0.038
			c0.021,0,0.043,0,0.063,0C136.105,101.248,136.112,101.227,136.118,101.207"/>
		<path fill="#FFFFFF" d="M135.379,101.155c0.008,0.021,0.015,0.043,0.021,0.064c0.02,0.002,0.043,0.005,0.063,0.008
			c-0.017,0.011-0.035,0.021-0.05,0.031c0.006,0.021,0.013,0.042,0.019,0.063c-0.017-0.015-0.034-0.029-0.052-0.044
			c-0.016,0.01-0.034,0.02-0.05,0.03c0.007-0.019,0.015-0.038,0.019-0.057c-0.016-0.015-0.033-0.03-0.051-0.046
			c0.021,0.003,0.043,0.006,0.064,0.01C135.367,101.194,135.373,101.175,135.379,101.155"/>
		<path fill="#FFFFFF" d="M138.334,100.944c0.008,0.019,0.014,0.038,0.02,0.058c0.021-0.004,0.043-0.008,0.063-0.012
			c-0.016,0.016-0.033,0.032-0.051,0.047c0.007,0.019,0.013,0.038,0.019,0.057c-0.016-0.009-0.033-0.018-0.052-0.028
			c-0.016,0.016-0.034,0.032-0.049,0.047c0.006-0.021,0.012-0.042,0.019-0.064c-0.018-0.009-0.035-0.018-0.052-0.027
			c0.021-0.004,0.042-0.008,0.063-0.012C138.322,100.988,138.328,100.965,138.334,100.944"/>
		<path fill="#FFFFFF" d="M134.988,101.384c0.008,0.021,0.014,0.043,0.02,0.065c0.021,0.005,0.043,0.009,0.063,0.013
			c-0.016,0.01-0.034,0.018-0.051,0.027c0.008,0.021,0.014,0.043,0.02,0.064c-0.016-0.017-0.034-0.033-0.051-0.049
			c-0.016,0.008-0.033,0.017-0.05,0.025c0.007-0.019,0.014-0.037,0.019-0.056c-0.016-0.017-0.035-0.033-0.05-0.05
			c0.02,0.005,0.043,0.011,0.063,0.016C134.976,101.421,134.981,101.403,134.988,101.384"/>
		<path fill="#FFFFFF" d="M135.735,101.494c0.008,0.021,0.015,0.042,0.02,0.062c0.021,0.001,0.042,0.003,0.063,0.004
			c-0.016,0.012-0.033,0.023-0.051,0.035c0.007,0.021,0.013,0.042,0.02,0.062c-0.017-0.014-0.035-0.027-0.052-0.041
			c-0.016,0.011-0.033,0.022-0.05,0.033c0.007-0.02,0.013-0.04,0.02-0.06c-0.017-0.013-0.035-0.028-0.052-0.041
			c0.021,0.001,0.043,0.003,0.064,0.005C135.723,101.533,135.729,101.513,135.735,101.494"/>
		<path fill="#FFFFFF" d="M136.482,101.498c0.007,0.021,0.014,0.04,0.019,0.06c0.021-0.001,0.043-0.002,0.063-0.004
			c-0.016,0.014-0.033,0.027-0.05,0.04c0.006,0.021,0.014,0.04,0.019,0.06c-0.016-0.012-0.035-0.024-0.051-0.035
			c-0.017,0.014-0.034,0.026-0.051,0.04c0.007-0.021,0.014-0.041,0.02-0.062c-0.017-0.011-0.035-0.023-0.051-0.035
			c0.021,0,0.042-0.001,0.063-0.002C136.469,101.54,136.476,101.519,136.482,101.498"/>
		<path fill="#FFFFFF" d="M137.229,101.428c0.008,0.019,0.014,0.039,0.019,0.058c0.021-0.003,0.043-0.005,0.064-0.009
			c-0.017,0.016-0.034,0.03-0.051,0.044c0.007,0.02,0.014,0.039,0.02,0.059c-0.017-0.01-0.035-0.021-0.051-0.031
			c-0.016,0.015-0.033,0.029-0.051,0.044c0.008-0.021,0.014-0.042,0.02-0.063c-0.016-0.01-0.035-0.02-0.051-0.031
			c0.021-0.003,0.043-0.005,0.064-0.008C137.216,101.469,137.223,101.449,137.229,101.428"/>
		<path fill="#FFFFFF" d="M137.976,101.31c0.006,0.019,0.013,0.038,0.019,0.056c0.021-0.003,0.042-0.007,0.063-0.011
			c-0.016,0.015-0.033,0.031-0.05,0.047c0.007,0.019,0.013,0.037,0.019,0.057c-0.016-0.009-0.033-0.019-0.05-0.029
			c-0.017,0.016-0.034,0.032-0.051,0.046c0.007-0.021,0.015-0.042,0.02-0.064c-0.017-0.01-0.036-0.019-0.051-0.029
			c0.021-0.004,0.043-0.008,0.063-0.011C137.963,101.353,137.969,101.332,137.976,101.31"/>
		<path fill="#FFFFFF" d="M134.64,101.511c0.007,0.022,0.014,0.044,0.019,0.066c0.021,0.007,0.043,0.013,0.063,0.02
			c-0.016,0.008-0.034,0.015-0.051,0.022c0.007,0.022,0.015,0.044,0.019,0.066c-0.016-0.018-0.034-0.036-0.051-0.054
			c-0.017,0.007-0.034,0.014-0.05,0.021c0.006-0.018,0.013-0.036,0.019-0.055c-0.017-0.018-0.035-0.036-0.051-0.054
			c0.02,0.007,0.043,0.015,0.064,0.021C134.627,101.547,134.633,101.528,134.64,101.511"/>
		<path fill="#FFFFFF" d="M137.596,101.594c0.007,0.02,0.013,0.038,0.019,0.058c0.021-0.003,0.043-0.007,0.063-0.01
			c-0.016,0.016-0.033,0.031-0.05,0.046c0.007,0.019,0.015,0.038,0.019,0.058c-0.016-0.01-0.033-0.02-0.05-0.029
			c-0.017,0.016-0.034,0.031-0.05,0.046c0.006-0.021,0.013-0.042,0.019-0.063c-0.017-0.01-0.034-0.021-0.05-0.03
			c0.02-0.003,0.042-0.007,0.063-0.01C137.583,101.638,137.589,101.616,137.596,101.594"/>
		<path fill="#FFFFFF" d="M136.857,101.691c0.006,0.019,0.014,0.039,0.02,0.059c0.021-0.002,0.042-0.004,0.063-0.007
			c-0.017,0.015-0.035,0.029-0.051,0.043c0.006,0.02,0.014,0.039,0.02,0.058c-0.017-0.011-0.035-0.022-0.051-0.032
			c-0.018,0.014-0.035,0.029-0.051,0.042c0.006-0.021,0.013-0.041,0.019-0.062c-0.016-0.01-0.035-0.022-0.051-0.033
			c0.02,0,0.042-0.003,0.064-0.005C136.844,101.733,136.851,101.712,136.857,101.691"/>
		<path fill="#FFFFFF" d="M136.118,101.728c0.008,0.021,0.014,0.041,0.02,0.061c0.021,0,0.043,0,0.063,0
			c-0.016,0.013-0.034,0.026-0.051,0.038c0.008,0.021,0.014,0.041,0.019,0.061c-0.016-0.012-0.034-0.025-0.051-0.037
			c-0.016,0.012-0.034,0.025-0.051,0.037c0.008-0.02,0.015-0.04,0.019-0.061c-0.016-0.012-0.034-0.025-0.051-0.038
			c0.021,0,0.043,0,0.063,0C136.105,101.768,136.112,101.748,136.118,101.728"/>
		<path fill="#FFFFFF" d="M135.379,101.676c0.008,0.021,0.015,0.043,0.021,0.064c0.02,0.003,0.043,0.005,0.063,0.008
			c-0.017,0.011-0.035,0.021-0.05,0.031c0.006,0.021,0.013,0.042,0.019,0.064c-0.017-0.015-0.034-0.03-0.052-0.044
			c-0.016,0.01-0.034,0.02-0.05,0.03c0.007-0.019,0.015-0.038,0.019-0.058c-0.016-0.015-0.033-0.03-0.051-0.046
			c0.021,0.003,0.043,0.007,0.064,0.01C135.367,101.715,135.373,101.696,135.379,101.676"/>
		<path fill="#FFFFFF" d="M138.334,101.465c0.008,0.019,0.014,0.039,0.02,0.057c0.021-0.004,0.043-0.008,0.063-0.012
			c-0.016,0.015-0.033,0.031-0.051,0.046c0.007,0.019,0.013,0.038,0.019,0.057c-0.016-0.009-0.033-0.018-0.052-0.028
			c-0.016,0.016-0.034,0.032-0.049,0.047c0.006-0.021,0.012-0.042,0.019-0.064c-0.018-0.009-0.035-0.019-0.052-0.028
			c0.021-0.004,0.042-0.008,0.063-0.012C138.322,101.509,138.328,101.487,138.334,101.465"/>
		<polygon fill="#E6E7E8" points="46.154,160.388 52.34,156.251 58.525,160.388 		"/>
		<polygon fill="#E6E7E8" points="77.359,160.388 83.543,156.251 89.728,160.388 		"/>
		<polygon fill="#E6E7E8" points="176.25,160.388 182.434,156.251 188.619,160.388 		"/>
		<polygon fill="#E6E7E8" points="207.454,160.388 213.638,156.251 219.823,160.388 		"/>
		<polygon fill="#F1F1F2" points="134.088,109.742 168.433,123.706 97.514,123.706 		"/>
	</g>
</g>
</svg>
