<?xml version="1.0" encoding="utf-8"?>
<!-- Generator: Adobe Illustrator 16.0.4, SVG Export Plug-In . SVG Version: 6.00 Build 0)  -->
<!DOCTYPE svg PUBLIC "-//W3C//DTD SVG 1.1//EN" "http://www.w3.org/Graphics/SVG/1.1/DTD/svg11.dtd">
<svg version="1.1" id="Layer_1" xmlns="http://www.w3.org/2000/svg" xmlns:xlink="http://www.w3.org/1999/xlink" x="0px" y="0px"
	 width="1280px" height="284.128px" viewBox="-473.415 0 1280 284.128" enable-background="new -473.415 0 1280 284.128"
	 xml:space="preserve">
<polygon fill="#3EBEB1" points="806.585,0 -473.415,0 -473.415,284.128 806.585,284.128 653.585,142.084 "/>
<text transform="matrix(1 0 0 1 -179.4702 197.6274)" font-family="'NeuzeitGro-Bla'" font-size="147">CANDIDATES</text>
<rect x="-324.542" y="86.872" fill="#A6A8AB" width="0.904" height="16.338"/>
<rect x="-461.121" y="126.212" fill="#FFFFFF" stroke="#F1F1F2" stroke-width="0.9448" stroke-miterlimit="10" width="273.396" height="68.861"/>
<rect x="-464.988" y="124.282" fill="#E6E7E8" width="280.463" height="5.444"/>
<rect x="-378.095" y="104.831" fill="#F1F1F2" width="105.54" height="15.577"/>
<g>
	<path fill="#E6E7E8" d="M-377.585,118.891l53.48-20.65l51.065,20.66c1.146,0.464,0.58,1.507-0.818,1.507h-102.935
		C-378.208,120.408-378.762,119.346-377.585,118.891"/>
	<rect x="-378.308" y="120.408" fill="#F1F1F2" width="105.54" height="11.608"/>
	<path fill="#F1F1F2" d="M-368.353,192.549h-5.798c-1.348,0-2.451-1.102-2.451-2.45v-58.008c0-1.348,1.103-2.451,2.451-2.451h5.798
		c1.348,0,2.451,1.103,2.451,2.451v58.008C-365.901,191.448-367.004,192.549-368.353,192.549"/>
	<path fill="#E6E7E8" d="M-365.596,132.36h-11.35c-0.749,0-1.361-0.612-1.361-1.36c0-0.749,0.612-1.36,1.361-1.36h11.35
		c0.748,0,1.36,0.612,1.36,1.36C-364.236,131.749-364.85,132.36-365.596,132.36"/>
	<path fill="#E6E7E8" d="M-365.596,192.616h-11.35c-0.749,0-1.361-0.611-1.361-1.359s0.612-1.36,1.361-1.36h11.35
		c0.748,0,1.36,0.612,1.36,1.36C-364.236,192.002-364.85,192.616-365.596,192.616"/>
	<path fill="#F1F1F2" d="M-276.882,192.518h-5.799c-1.349,0-2.451-1.104-2.451-2.451v-58.008c0-1.348,1.104-2.451,2.451-2.451h5.799
		c1.349,0,2.451,1.103,2.451,2.451v58.008C-274.432,191.417-275.534,192.518-276.882,192.518"/>
	<path fill="#E6E7E8" d="M-274.128,132.328h-11.35c-0.749,0-1.361-0.612-1.361-1.36c0-0.749,0.612-1.36,1.361-1.36h11.35
		c0.748,0,1.359,0.612,1.359,1.36C-272.768,131.716-273.38,132.328-274.128,132.328"/>
	<path fill="#E6E7E8" d="M-274.128,192.583h-11.35c-0.749,0-1.361-0.612-1.361-1.359c0-0.748,0.612-1.359,1.361-1.359h11.35
		c0.748,0,1.359,0.611,1.359,1.359C-272.768,191.97-273.38,192.583-274.128,192.583"/>
	<path fill="#F1F1F2" d="M-307.372,192.518h-5.801c-1.348,0-2.449-1.104-2.449-2.451v-58.008c0-1.348,1.103-2.451,2.449-2.451h5.801
		c1.348,0,2.449,1.103,2.449,2.451v58.008C-304.921,191.417-306.024,192.518-307.372,192.518"/>
	<path fill="#E6E7E8" d="M-304.617,132.328h-11.351c-0.748,0-1.359-0.612-1.359-1.36c0-0.749,0.611-1.36,1.359-1.36h11.351
		c0.748,0,1.36,0.612,1.36,1.36C-303.257,131.716-303.869,132.328-304.617,132.328"/>
	<path fill="#E6E7E8" d="M-304.617,192.583h-11.351c-0.748,0-1.359-0.612-1.359-1.359c0-0.748,0.611-1.359,1.359-1.359h11.351
		c0.748,0,1.36,0.611,1.36,1.359C-303.257,191.97-303.869,192.583-304.617,192.583"/>
	<path fill="#F1F1F2" d="M-337.862,192.518h-5.799c-1.349,0-2.451-1.104-2.451-2.451v-58.008c0-1.348,1.103-2.451,2.451-2.451h5.799
		c1.348,0,2.451,1.103,2.451,2.451v58.008C-335.412,191.417-336.514,192.518-337.862,192.518"/>
	<path fill="#E6E7E8" d="M-335.107,132.328h-11.35c-0.748,0-1.36-0.612-1.36-1.36c0-0.749,0.612-1.36,1.36-1.36h11.35
		c0.748,0,1.36,0.612,1.36,1.36C-333.748,131.716-334.358,132.328-335.107,132.328"/>
	<path fill="#E6E7E8" d="M-335.107,192.583h-11.35c-0.748,0-1.36-0.612-1.36-1.359c0-0.748,0.612-1.359,1.36-1.359h11.35
		c0.748,0,1.36,0.611,1.36,1.359C-333.748,191.97-334.358,192.583-335.107,192.583"/>
	<rect x="-454.237" y="136.192" fill="#BAD0DB" width="9.231" height="18.014"/>
	<rect x="-434.12" y="136.192" fill="#BAD0DB" width="9.231" height="18.014"/>
	<rect x="-414" y="136.192" fill="#BAD0DB" width="9.231" height="18.014"/>
	<rect x="-393.88" y="136.192" fill="#BAD0DB" width="9.231" height="18.014"/>
	<rect x="-454.237" y="167.139" fill="#BAD0DB" width="9.231" height="18.014"/>
	<rect x="-434.12" y="167.139" fill="#BAD0DB" width="9.231" height="18.014"/>
	<rect x="-414" y="167.139" fill="#BAD0DB" width="9.231" height="18.014"/>
	<rect x="-393.88" y="167.139" fill="#BAD0DB" width="9.231" height="18.014"/>
	<rect x="-266.364" y="136.192" fill="#BAD0DB" width="9.23" height="18.014"/>
	<rect x="-246.244" y="136.192" fill="#BAD0DB" width="9.229" height="18.014"/>
	<rect x="-226.126" y="136.192" fill="#BAD0DB" width="9.229" height="18.014"/>
	<rect x="-206.007" y="136.192" fill="#BAD0DB" width="9.23" height="18.014"/>
	<rect x="-266.364" y="167.139" fill="#BAD0DB" width="9.23" height="18.014"/>
	<rect x="-246.244" y="167.139" fill="#BAD0DB" width="9.229" height="18.014"/>
	<rect x="-226.126" y="167.139" fill="#BAD0DB" width="9.229" height="18.014"/>
	<rect x="-206.007" y="167.139" fill="#BAD0DB" width="9.23" height="18.014"/>
	<rect x="-360.643" y="136.192" fill="#BAD0DB" width="9.231" height="18.014"/>
	<rect x="-330.152" y="136.192" fill="#BAD0DB" width="9.231" height="18.014"/>
	<rect x="-299.663" y="136.192" fill="#BAD0DB" width="9.23" height="18.014"/>
	<rect x="-360.643" y="167.139" fill="#BAD0DB" width="9.231" height="18.014"/>
	<rect x="-330.152" y="167.139" fill="#BAD0DB" width="9.231" height="18.014"/>
	<rect x="-299.663" y="167.139" fill="#BAD0DB" width="9.23" height="18.014"/>
	<path fill="#E6E7E8" d="M-441.647,165.693h-15.949c0-2.946,3.569-5.334,7.975-5.334
		C-445.218,160.359-441.647,162.747-441.647,165.693"/>
	<path fill="#E6E7E8" d="M-401.409,165.693h-15.95c0-2.946,3.57-5.334,7.975-5.334
		C-404.981,160.359-401.409,162.747-401.409,165.693"/>
	<path fill="#E6E7E8" d="M-233.654,165.693h-15.95c0-2.946,3.57-5.334,7.977-5.334
		C-237.227,160.359-233.654,162.747-233.654,165.693"/>
	<path fill="#E6E7E8" d="M-193.417,165.693h-15.949c0-2.946,3.568-5.334,7.975-5.334
		C-196.988,160.359-193.417,162.747-193.417,165.693"/>
	<rect x="-465.769" y="192.517" fill="#F1F1F2" width="280.463" height="5.11"/>
	<path fill="#AE1122" d="M-313.243,92.696c-3.465-1.282-6.93,1.282-10.396,0v-0.448c3.467,1.282,6.932-1.282,10.396,0V92.696z"/>
	<path fill="#AE1122" d="M-313.243,87.319c-3.465-1.282-6.93,1.282-10.396,0v-0.448c3.467,1.282,6.932-1.281,10.396,0V87.319z"/>
	<path fill="#FFFFFF" d="M-313.243,87.768c-3.465-1.282-6.93,1.282-10.396,0V87.32c3.467,1.282,6.932-1.282,10.396,0V87.768z"/>
	<path fill="#AE1122" d="M-313.243,88.215c-3.465-1.281-6.93,1.282-10.396,0v-0.448c3.467,1.282,6.932-1.281,10.396,0V88.215z"/>
	<path fill="#FFFFFF" d="M-313.243,88.664c-3.465-1.282-6.93,1.282-10.396,0v-0.448c3.467,1.282,6.932-1.281,10.396,0V88.664z"/>
	<path fill="#AE1122" d="M-313.243,89.112c-3.465-1.282-6.93,1.281-10.396,0v-0.448c3.467,1.282,6.932-1.282,10.396,0V89.112z"/>
	<path fill="#FFFFFF" d="M-313.243,89.56c-3.465-1.281-6.93,1.282-10.396,0v-0.448c3.467,1.281,6.932-1.282,10.396,0V89.56z"/>
	<path fill="#AE1122" d="M-313.243,90.008c-3.465-1.282-6.93,1.282-10.396,0V89.56c3.467,1.282,6.932-1.281,10.396,0V90.008z"/>
	<path fill="#FFFFFF" d="M-313.243,90.456c-3.465-1.282-6.93,1.281-10.396,0v-0.448c3.467,1.282,6.932-1.282,10.396,0V90.456z"/>
	<path fill="#AE1122" d="M-313.243,90.904c-3.465-1.281-6.93,1.281-10.396,0v-0.448c3.467,1.281,6.932-1.282,10.396,0V90.904z"/>
	<path fill="#FFFFFF" d="M-313.243,91.352c-3.465-1.281-6.93,1.282-10.396,0v-0.448c3.467,1.282,6.932-1.281,10.396,0V91.352z"/>
	<path fill="#AE1122" d="M-313.243,91.8c-3.465-1.282-6.93,1.282-10.396,0v-0.448c3.467,1.282,6.932-1.282,10.396,0V91.8z"/>
	<path fill="#FFFFFF" d="M-313.243,92.248c-3.465-1.281-6.93,1.282-10.396,0V91.8c3.467,1.282,6.932-1.281,10.396,0V92.248z"/>
	<path fill="#1A315C" d="M-318.386,89.998c-1.75,0.323-3.502,0.658-5.252,0.01v-3.136c1.75,0.647,3.502,0.313,5.252-0.01V89.998z"/>
	<path fill="#FFFFFF" d="M-323.37,87.085c0.009,0.028,0.017,0.057,0.025,0.085c0.027,0.009,0.055,0.017,0.082,0.025
		c-0.021,0.009-0.045,0.02-0.066,0.028c0.009,0.029,0.018,0.058,0.025,0.086c-0.022-0.023-0.043-0.046-0.066-0.069
		c-0.021,0.009-0.045,0.018-0.066,0.027c0.01-0.023,0.018-0.046,0.025-0.07c-0.022-0.023-0.045-0.046-0.066-0.07
		c0.027,0.01,0.055,0.019,0.082,0.027C-323.386,87.132-323.38,87.108-323.37,87.085"/>
	<path fill="#FFFFFF" d="M-319.56,87.19c0.01,0.025,0.018,0.049,0.026,0.074c0.026-0.005,0.055-0.009,0.082-0.013
		c-0.022,0.019-0.044,0.039-0.066,0.059c0.009,0.024,0.017,0.049,0.025,0.074c-0.022-0.012-0.044-0.025-0.067-0.038
		c-0.021,0.02-0.044,0.039-0.066,0.059c0.01-0.027,0.018-0.055,0.025-0.083c-0.021-0.013-0.044-0.025-0.066-0.038
		c0.027-0.004,0.056-0.009,0.082-0.013C-319.576,87.245-319.567,87.218-319.56,87.19"/>
	<path fill="#FFFFFF" d="M-320.511,87.315c0.008,0.026,0.017,0.051,0.024,0.076c0.026-0.003,0.055-0.005,0.082-0.008
		c-0.022,0.019-0.044,0.037-0.065,0.055c0.008,0.025,0.018,0.05,0.024,0.075c-0.022-0.014-0.044-0.027-0.065-0.042
		c-0.022,0.019-0.045,0.037-0.068,0.055c0.011-0.027,0.019-0.054,0.027-0.08c-0.022-0.015-0.045-0.029-0.066-0.042
		c0.027-0.002,0.055-0.005,0.082-0.007C-320.528,87.369-320.521,87.342-320.511,87.315"/>
	<path fill="#FFFFFF" d="M-321.464,87.363c0.008,0.026,0.017,0.052,0.025,0.078c0.027,0,0.055,0,0.082,0
		c-0.021,0.016-0.045,0.032-0.066,0.048c0.008,0.026,0.018,0.052,0.024,0.078c-0.021-0.016-0.044-0.032-0.065-0.048
		c-0.022,0.016-0.045,0.032-0.066,0.047c0.009-0.026,0.018-0.052,0.025-0.078c-0.022-0.016-0.045-0.033-0.066-0.049
		c0.027,0,0.055,0,0.082,0C-321.481,87.416-321.474,87.389-321.464,87.363"/>
	<path fill="#FFFFFF" d="M-322.417,87.298c0.009,0.027,0.017,0.055,0.024,0.081c0.027,0.004,0.056,0.008,0.082,0.011
		c-0.022,0.014-0.044,0.027-0.065,0.04c0.008,0.027,0.017,0.055,0.024,0.081c-0.022-0.019-0.045-0.038-0.065-0.057
		c-0.022,0.013-0.045,0.026-0.066,0.039c0.008-0.024,0.018-0.049,0.025-0.074c-0.022-0.02-0.045-0.04-0.067-0.059
		c0.026,0.004,0.056,0.008,0.083,0.013C-322.434,87.348-322.425,87.323-322.417,87.298"/>
	<path fill="#FFFFFF" d="M-318.606,87.024c0.01,0.024,0.018,0.049,0.025,0.073c0.027-0.005,0.055-0.01,0.082-0.015
		c-0.021,0.02-0.045,0.041-0.066,0.061c0.008,0.024,0.018,0.049,0.025,0.074c-0.022-0.012-0.045-0.024-0.066-0.036l-0.066,0.061
		c0.008-0.028,0.018-0.055,0.025-0.083c-0.021-0.012-0.044-0.024-0.066-0.036c0.027-0.005,0.056-0.01,0.082-0.015
		C-318.624,87.079-318.615,87.051-318.606,87.024"/>
	<path fill="#FFFFFF" d="M-322.921,87.532c0.008,0.028,0.016,0.056,0.024,0.084c0.026,0.006,0.056,0.011,0.082,0.017
		c-0.022,0.012-0.045,0.023-0.067,0.034c0.01,0.028,0.019,0.056,0.025,0.084c-0.021-0.021-0.043-0.042-0.064-0.063
		c-0.022,0.011-0.045,0.022-0.067,0.033c0.009-0.024,0.019-0.048,0.024-0.072c-0.021-0.021-0.043-0.043-0.064-0.064
		c0.027,0.006,0.055,0.013,0.082,0.019C-322.938,87.581-322.931,87.557-322.921,87.532"/>
	<path fill="#FFFFFF" d="M-321.958,87.672c0.008,0.026,0.017,0.053,0.024,0.079c0.027,0.002,0.056,0.004,0.082,0.005
		c-0.022,0.015-0.045,0.03-0.067,0.045c0.011,0.026,0.019,0.053,0.026,0.08c-0.022-0.018-0.044-0.035-0.065-0.053
		c-0.022,0.015-0.045,0.029-0.067,0.043c0.01-0.025,0.019-0.051,0.024-0.076c-0.021-0.018-0.043-0.036-0.064-0.054
		c0.027,0.002,0.055,0.005,0.082,0.007C-321.976,87.723-321.966,87.698-321.958,87.672"/>
	<path fill="#FFFFFF" d="M-320.995,87.678c0.008,0.026,0.017,0.051,0.025,0.077c0.026-0.002,0.055-0.003,0.082-0.005
		c-0.021,0.017-0.046,0.035-0.066,0.052c0.009,0.025,0.017,0.051,0.025,0.076c-0.022-0.015-0.045-0.029-0.066-0.044
		c-0.022,0.017-0.045,0.035-0.067,0.052c0.011-0.027,0.019-0.053,0.024-0.08c-0.021-0.015-0.043-0.03-0.064-0.046
		c0.027,0,0.055-0.001,0.082-0.003C-321.013,87.731-321.005,87.705-320.995,87.678"/>
	<path fill="#FFFFFF" d="M-320.032,87.586c0.009,0.025,0.017,0.05,0.025,0.075c0.026-0.003,0.055-0.007,0.082-0.011
		c-0.021,0.02-0.045,0.039-0.066,0.057c0.009,0.025,0.018,0.05,0.025,0.075c-0.022-0.013-0.045-0.026-0.066-0.039
		c-0.021,0.02-0.044,0.038-0.066,0.057c0.01-0.027,0.018-0.054,0.025-0.082c-0.021-0.013-0.044-0.026-0.066-0.04
		c0.027-0.004,0.055-0.007,0.082-0.011C-320.048,87.64-320.042,87.613-320.032,87.586"/>
	<path fill="#FFFFFF" d="M-319.069,87.434c0.009,0.024,0.018,0.049,0.025,0.073c0.026-0.004,0.055-0.009,0.082-0.014
		c-0.021,0.02-0.045,0.04-0.066,0.06c0.009,0.024,0.018,0.049,0.025,0.074c-0.022-0.013-0.045-0.024-0.066-0.037
		c-0.021,0.02-0.044,0.04-0.066,0.06c0.01-0.028,0.018-0.055,0.025-0.083c-0.021-0.012-0.044-0.024-0.066-0.036
		c0.027-0.005,0.055-0.009,0.082-0.014C-319.087,87.489-319.079,87.461-319.069,87.434"/>
	<path fill="#FFFFFF" d="M-323.378,87.755c0.01,0.029,0.018,0.057,0.025,0.086c0.027,0.009,0.055,0.017,0.082,0.025
		c-0.021,0.01-0.044,0.02-0.066,0.028c0.01,0.029,0.019,0.058,0.025,0.086c-0.021-0.023-0.044-0.046-0.066-0.069
		c-0.021,0.009-0.043,0.018-0.065,0.027c0.009-0.023,0.017-0.046,0.024-0.07c-0.021-0.023-0.045-0.046-0.065-0.07
		c0.026,0.009,0.056,0.019,0.082,0.027C-323.394,87.801-323.386,87.778-323.378,87.755"/>
	<path fill="#FFFFFF" d="M-319.566,87.863c0.009,0.025,0.017,0.049,0.024,0.074c0.027-0.004,0.056-0.009,0.082-0.013
		c-0.021,0.02-0.043,0.04-0.065,0.059c0.009,0.024,0.019,0.049,0.024,0.074c-0.021-0.013-0.043-0.025-0.065-0.038
		c-0.022,0.02-0.044,0.039-0.065,0.059c0.008-0.027,0.017-0.055,0.024-0.082c-0.022-0.013-0.044-0.025-0.065-0.038
		c0.026-0.005,0.055-0.009,0.082-0.013C-319.583,87.918-319.575,87.891-319.566,87.863"/>
	<path fill="#FFFFFF" d="M-320.519,87.988c0.008,0.026,0.018,0.051,0.025,0.076c0.027-0.003,0.055-0.006,0.082-0.009
		c-0.022,0.019-0.045,0.037-0.066,0.055c0.008,0.025,0.018,0.05,0.025,0.076c-0.022-0.014-0.045-0.027-0.066-0.042
		c-0.023,0.019-0.045,0.037-0.066,0.055l0.025-0.08c-0.021-0.014-0.045-0.028-0.066-0.043c0.026-0.001,0.055-0.004,0.082-0.007
		C-320.536,88.041-320.527,88.015-320.519,87.988"/>
	<path fill="#FFFFFF" d="M-321.472,88.035c0.01,0.026,0.018,0.052,0.025,0.078c0.027,0,0.055,0,0.082,0
		c-0.021,0.016-0.044,0.032-0.066,0.049c0.01,0.026,0.018,0.052,0.025,0.078c-0.021-0.016-0.044-0.032-0.066-0.048
		c-0.021,0.016-0.044,0.032-0.066,0.048c0.01-0.026,0.019-0.052,0.025-0.078c-0.021-0.017-0.044-0.033-0.066-0.049
		c0.027,0,0.056,0,0.082,0C-321.488,88.087-321.48,88.061-321.472,88.035"/>
	<path fill="#FFFFFF" d="M-322.425,87.969c0.01,0.027,0.019,0.055,0.026,0.082c0.026,0.004,0.056,0.007,0.082,0.01
		c-0.022,0.014-0.045,0.027-0.065,0.04c0.008,0.027,0.017,0.055,0.024,0.082c-0.022-0.019-0.044-0.038-0.067-0.057
		c-0.021,0.013-0.043,0.026-0.065,0.039c0.009-0.025,0.019-0.049,0.024-0.074c-0.021-0.019-0.043-0.039-0.065-0.059
		c0.026,0.004,0.055,0.008,0.082,0.013C-322.441,88.019-322.433,87.994-322.425,87.969"/>
	<path fill="#FFFFFF" d="M-318.614,87.697c0.01,0.024,0.018,0.049,0.025,0.074c0.027-0.005,0.056-0.01,0.082-0.015
		c-0.021,0.02-0.043,0.04-0.065,0.06c0.009,0.024,0.017,0.049,0.024,0.073c-0.021-0.012-0.043-0.023-0.066-0.036
		c-0.021,0.021-0.044,0.041-0.064,0.061c0.008-0.028,0.016-0.055,0.024-0.083c-0.022-0.012-0.045-0.024-0.067-0.036
		c0.027-0.005,0.055-0.01,0.082-0.015C-318.63,87.752-318.622,87.725-318.614,87.697"/>
	<path fill="#FFFFFF" d="M-322.929,88.223c0.01,0.028,0.018,0.056,0.025,0.084c0.027,0.006,0.055,0.012,0.082,0.018
		c-0.021,0.012-0.044,0.023-0.066,0.034c0.01,0.028,0.018,0.057,0.025,0.084c-0.021-0.021-0.044-0.042-0.066-0.063
		c-0.021,0.011-0.043,0.022-0.065,0.033c0.009-0.024,0.018-0.048,0.024-0.072c-0.021-0.021-0.045-0.043-0.065-0.065
		c0.026,0.007,0.055,0.014,0.081,0.02C-322.945,88.271-322.938,88.248-322.929,88.223"/>
	<path fill="#FFFFFF" d="M-321.966,88.364c0.01,0.027,0.019,0.054,0.025,0.08c0.027,0.002,0.055,0.004,0.082,0.005
		c-0.021,0.015-0.043,0.03-0.066,0.044c0.01,0.026,0.018,0.053,0.026,0.08c-0.022-0.017-0.045-0.035-0.067-0.053
		c-0.021,0.015-0.043,0.029-0.065,0.043c0.009-0.025,0.017-0.051,0.026-0.076c-0.022-0.018-0.045-0.036-0.067-0.054
		c0.026,0.002,0.055,0.004,0.082,0.007C-321.982,88.415-321.974,88.389-321.966,88.364"/>
	<path fill="#FFFFFF" d="M-321.003,88.371c0.01,0.025,0.018,0.051,0.024,0.077c0.027-0.002,0.056-0.003,0.082-0.005
		c-0.021,0.017-0.043,0.035-0.065,0.052c0.008,0.025,0.018,0.051,0.025,0.077c-0.021-0.016-0.045-0.03-0.066-0.045
		c-0.022,0.017-0.043,0.034-0.066,0.051c0.009-0.027,0.018-0.053,0.025-0.08c-0.021-0.015-0.045-0.03-0.066-0.045
		c0.027,0,0.055-0.002,0.082-0.003C-321.019,88.423-321.011,88.397-321.003,88.371"/>
	<path fill="#FFFFFF" d="M-320.04,88.279c0.01,0.025,0.018,0.05,0.024,0.075c0.028-0.003,0.056-0.007,0.083-0.011
		c-0.021,0.021-0.044,0.039-0.066,0.058c0.009,0.025,0.018,0.05,0.025,0.074c-0.021-0.013-0.045-0.026-0.066-0.039
		c-0.021,0.02-0.043,0.038-0.066,0.057c0.01-0.027,0.018-0.054,0.025-0.082c-0.021-0.013-0.045-0.027-0.066-0.04
		c0.027-0.004,0.055-0.007,0.083-0.011C-320.056,88.333-320.048,88.307-320.04,88.279"/>
	<path fill="#FFFFFF" d="M-319.076,88.127c0.008,0.024,0.017,0.049,0.024,0.074c0.027-0.004,0.055-0.01,0.082-0.015
		c-0.021,0.02-0.043,0.04-0.065,0.061c0.009,0.024,0.017,0.048,0.024,0.073c-0.021-0.012-0.043-0.024-0.065-0.037
		c-0.022,0.02-0.044,0.041-0.066,0.061c0.009-0.028,0.019-0.056,0.025-0.083c-0.022-0.012-0.046-0.024-0.066-0.037
		c0.027-0.005,0.056-0.009,0.082-0.014C-319.093,88.183-319.085,88.155-319.076,88.127"/>
	<path fill="#FFFFFF" d="M-323.378,88.427c0.01,0.029,0.018,0.057,0.025,0.086c0.027,0.009,0.055,0.017,0.082,0.025
		c-0.021,0.01-0.044,0.02-0.066,0.029c0.01,0.029,0.019,0.057,0.025,0.085c-0.021-0.022-0.044-0.046-0.066-0.069
		c-0.021,0.009-0.043,0.018-0.065,0.027c0.009-0.023,0.017-0.046,0.024-0.069c-0.021-0.023-0.045-0.047-0.065-0.071
		c0.026,0.009,0.056,0.019,0.082,0.027C-323.394,88.474-323.386,88.451-323.378,88.427"/>
	<path fill="#FFFFFF" d="M-319.566,88.536c0.009,0.025,0.017,0.049,0.024,0.074c0.027-0.004,0.056-0.008,0.082-0.013
		c-0.021,0.019-0.043,0.039-0.065,0.059c0.009,0.024,0.019,0.049,0.024,0.074c-0.021-0.013-0.043-0.026-0.065-0.038
		c-0.022,0.02-0.044,0.039-0.065,0.059c0.008-0.027,0.017-0.055,0.024-0.082c-0.022-0.013-0.044-0.026-0.065-0.038
		c0.026-0.004,0.055-0.009,0.082-0.013C-319.583,88.59-319.575,88.563-319.566,88.536"/>
	<path fill="#FFFFFF" d="M-320.519,88.66c0.008,0.026,0.018,0.05,0.025,0.076c0.027-0.003,0.055-0.005,0.082-0.008
		c-0.022,0.019-0.045,0.037-0.066,0.055c0.008,0.025,0.018,0.05,0.025,0.075c-0.022-0.014-0.045-0.027-0.066-0.042
		c-0.023,0.019-0.045,0.037-0.066,0.055l0.025-0.08c-0.021-0.015-0.045-0.029-0.066-0.043c0.026-0.001,0.055-0.004,0.082-0.007
		C-320.536,88.714-320.527,88.687-320.519,88.66"/>
	<path fill="#FFFFFF" d="M-321.472,88.707c0.01,0.026,0.018,0.052,0.025,0.079c0.027,0,0.055,0,0.082-0.001
		c-0.021,0.017-0.044,0.033-0.066,0.049c0.01,0.026,0.018,0.052,0.025,0.078c-0.021-0.016-0.044-0.032-0.066-0.048
		c-0.021,0.016-0.044,0.032-0.066,0.048c0.01-0.026,0.019-0.052,0.025-0.078c-0.021-0.016-0.044-0.033-0.066-0.049
		c0.027,0,0.056,0,0.082,0C-321.488,88.759-321.48,88.733-321.472,88.707"/>
	<path fill="#FFFFFF" d="M-322.425,88.641c0.01,0.028,0.019,0.055,0.026,0.082c0.026,0.004,0.056,0.007,0.082,0.011
		c-0.022,0.014-0.045,0.027-0.065,0.04c0.008,0.027,0.017,0.055,0.024,0.081c-0.022-0.019-0.044-0.038-0.067-0.057
		c-0.021,0.013-0.043,0.026-0.065,0.039c0.009-0.025,0.019-0.049,0.024-0.074c-0.021-0.02-0.043-0.04-0.065-0.059
		c0.026,0.004,0.055,0.008,0.082,0.012C-322.441,88.691-322.433,88.666-322.425,88.641"/>
	<path fill="#FFFFFF" d="M-318.614,88.369c0.01,0.024,0.018,0.049,0.025,0.074c0.027-0.005,0.056-0.01,0.082-0.015
		c-0.021,0.02-0.043,0.041-0.065,0.06c0.009,0.024,0.017,0.049,0.024,0.074c-0.021-0.012-0.043-0.024-0.066-0.036
		c-0.021,0.021-0.044,0.041-0.064,0.061c0.008-0.028,0.016-0.056,0.024-0.083c-0.022-0.012-0.045-0.024-0.067-0.036
		c0.027-0.005,0.055-0.01,0.082-0.015C-318.63,88.424-318.622,88.396-318.614,88.369"/>
	<path fill="#FFFFFF" d="M-322.929,88.916c0.01,0.028,0.018,0.056,0.025,0.084c0.027,0.006,0.055,0.012,0.082,0.018
		c-0.021,0.012-0.044,0.023-0.066,0.034c0.01,0.028,0.018,0.056,0.025,0.084c-0.021-0.021-0.044-0.042-0.066-0.062
		c-0.021,0.011-0.043,0.021-0.065,0.033c0.009-0.024,0.018-0.048,0.024-0.072c-0.021-0.021-0.045-0.042-0.065-0.064
		c0.026,0.007,0.055,0.014,0.081,0.02C-322.945,88.963-322.938,88.94-322.929,88.916"/>
	<path fill="#FFFFFF" d="M-321.966,89.056c0.01,0.027,0.019,0.054,0.025,0.08c0.027,0.002,0.055,0.004,0.082,0.005
		c-0.021,0.015-0.043,0.03-0.066,0.045c0.01,0.026,0.018,0.053,0.026,0.08c-0.022-0.018-0.045-0.035-0.067-0.053
		c-0.021,0.015-0.043,0.029-0.065,0.043c0.009-0.025,0.017-0.051,0.026-0.077c-0.022-0.017-0.045-0.035-0.067-0.053
		c0.026,0.002,0.055,0.004,0.082,0.007C-321.982,89.107-321.974,89.082-321.966,89.056"/>
	<path fill="#FFFFFF" d="M-321.003,89.063c0.01,0.025,0.018,0.051,0.024,0.077c0.027-0.002,0.056-0.003,0.082-0.005
		c-0.021,0.017-0.043,0.034-0.065,0.052c0.008,0.025,0.018,0.05,0.025,0.076c-0.021-0.015-0.045-0.03-0.066-0.045
		c-0.022,0.018-0.043,0.035-0.066,0.052c0.009-0.027,0.018-0.053,0.025-0.08c-0.021-0.015-0.045-0.03-0.066-0.045
		c0.027,0,0.055-0.002,0.082-0.003C-321.019,89.116-321.011,89.089-321.003,89.063"/>
	<path fill="#FFFFFF" d="M-320.04,88.972c0.01,0.024,0.018,0.049,0.024,0.074c0.028-0.004,0.056-0.007,0.083-0.011
		c-0.021,0.02-0.044,0.039-0.066,0.057c0.009,0.025,0.018,0.05,0.025,0.075c-0.021-0.013-0.045-0.026-0.066-0.04
		c-0.021,0.019-0.043,0.038-0.066,0.057c0.01-0.027,0.018-0.054,0.025-0.081c-0.021-0.013-0.045-0.027-0.066-0.04
		c0.027-0.004,0.055-0.007,0.083-0.011C-320.056,89.026-320.048,88.999-320.04,88.972"/>
	<path fill="#FFFFFF" d="M-319.076,88.82c0.008,0.024,0.017,0.049,0.024,0.073c0.027-0.004,0.055-0.009,0.082-0.014
		c-0.021,0.02-0.043,0.04-0.065,0.061c0.009,0.024,0.017,0.048,0.024,0.074c-0.021-0.013-0.043-0.024-0.065-0.037
		c-0.022,0.02-0.044,0.041-0.066,0.06c0.009-0.028,0.019-0.055,0.025-0.083c-0.022-0.012-0.046-0.024-0.066-0.037
		c0.027-0.005,0.056-0.009,0.082-0.014C-319.093,88.875-319.085,88.847-319.076,88.82"/>
	<path fill="#FFFFFF" d="M-323.378,89.099c0.01,0.028,0.018,0.057,0.025,0.086c0.027,0.008,0.055,0.017,0.082,0.025
		c-0.021,0.01-0.044,0.019-0.066,0.028c0.01,0.029,0.019,0.057,0.025,0.086c-0.021-0.023-0.044-0.046-0.066-0.069
		c-0.021,0.01-0.043,0.019-0.065,0.027c0.009-0.023,0.017-0.046,0.024-0.069c-0.021-0.023-0.045-0.047-0.065-0.071
		c0.026,0.01,0.056,0.019,0.082,0.028C-323.394,89.145-323.386,89.123-323.378,89.099"/>
	<path fill="#FFFFFF" d="M-319.566,89.207c0.009,0.025,0.017,0.049,0.024,0.074c0.027-0.004,0.056-0.009,0.082-0.013
		c-0.021,0.019-0.043,0.04-0.065,0.059c0.009,0.024,0.019,0.049,0.024,0.074c-0.021-0.013-0.043-0.025-0.065-0.038
		c-0.022,0.02-0.044,0.039-0.065,0.059c0.008-0.027,0.017-0.055,0.024-0.082c-0.022-0.013-0.044-0.026-0.065-0.038
		c0.026-0.004,0.055-0.008,0.082-0.013C-319.583,89.262-319.575,89.235-319.566,89.207"/>
	<path fill="#FFFFFF" d="M-320.519,89.332c0.008,0.026,0.018,0.051,0.025,0.076c0.027-0.003,0.055-0.006,0.082-0.009
		c-0.022,0.019-0.045,0.037-0.066,0.055c0.008,0.025,0.018,0.05,0.025,0.075c-0.022-0.014-0.045-0.027-0.066-0.042
		c-0.023,0.019-0.045,0.037-0.066,0.055c0.009-0.027,0.017-0.053,0.025-0.08c-0.021-0.014-0.045-0.029-0.066-0.043
		c0.026-0.002,0.055-0.004,0.082-0.007C-320.536,89.386-320.527,89.359-320.519,89.332"/>
	<path fill="#FFFFFF" d="M-321.472,89.379c0.01,0.026,0.018,0.052,0.025,0.078c0.027,0,0.055,0,0.082,0
		c-0.021,0.016-0.044,0.032-0.066,0.048c0.01,0.026,0.018,0.052,0.025,0.078c-0.021-0.016-0.044-0.032-0.066-0.048
		c-0.021,0.016-0.044,0.032-0.066,0.047c0.01-0.026,0.019-0.052,0.025-0.078c-0.021-0.016-0.044-0.033-0.066-0.049
		c0.027,0,0.056,0,0.082,0C-321.488,89.432-321.48,89.405-321.472,89.379"/>
	<path fill="#FFFFFF" d="M-322.425,89.313c0.01,0.027,0.019,0.055,0.026,0.082c0.026,0.003,0.056,0.007,0.082,0.01
		c-0.022,0.014-0.045,0.027-0.065,0.04c0.008,0.027,0.017,0.055,0.024,0.082c-0.022-0.019-0.044-0.038-0.067-0.057
		c-0.021,0.013-0.043,0.026-0.065,0.039c0.009-0.025,0.019-0.049,0.024-0.074c-0.021-0.019-0.043-0.039-0.065-0.059
		c0.026,0.004,0.055,0.008,0.082,0.013C-322.441,89.363-322.433,89.338-322.425,89.313"/>
	<path fill="#FFFFFF" d="M-318.614,89.041c0.01,0.024,0.018,0.049,0.025,0.074c0.027-0.005,0.056-0.01,0.082-0.015
		c-0.021,0.02-0.043,0.041-0.065,0.061c0.009,0.024,0.017,0.049,0.024,0.073c-0.021-0.012-0.043-0.023-0.066-0.036
		c-0.021,0.021-0.044,0.041-0.064,0.061c0.008-0.028,0.016-0.055,0.024-0.083c-0.022-0.012-0.045-0.023-0.067-0.036
		c0.027-0.005,0.055-0.01,0.082-0.015C-318.63,89.097-318.622,89.068-318.614,89.041"/>
	<path fill="#FFFFFF" d="M-322.929,89.608c0.01,0.028,0.018,0.056,0.025,0.084c0.027,0.006,0.055,0.012,0.082,0.017
		c-0.021,0.012-0.044,0.023-0.066,0.035c0.01,0.028,0.018,0.056,0.025,0.083c-0.021-0.021-0.044-0.042-0.066-0.063
		c-0.021,0.011-0.043,0.022-0.065,0.033c0.009-0.024,0.018-0.048,0.024-0.072c-0.021-0.021-0.045-0.043-0.065-0.064
		c0.026,0.007,0.055,0.014,0.081,0.02C-322.945,89.656-322.938,89.632-322.929,89.608"/>
	<path fill="#FFFFFF" d="M-321.966,89.749c0.01,0.027,0.019,0.054,0.025,0.08c0.027,0.002,0.055,0.004,0.082,0.005
		c-0.021,0.015-0.043,0.03-0.066,0.045c0.01,0.026,0.018,0.053,0.026,0.08c-0.022-0.018-0.045-0.035-0.067-0.053
		c-0.021,0.015-0.043,0.029-0.065,0.043c0.009-0.025,0.017-0.051,0.026-0.077c-0.022-0.017-0.045-0.036-0.067-0.053
		c0.026,0.002,0.055,0.004,0.082,0.007C-321.982,89.8-321.974,89.774-321.966,89.749"/>
	<path fill="#FFFFFF" d="M-321.003,89.755c0.01,0.026,0.018,0.051,0.024,0.077c0.027-0.001,0.056-0.003,0.082-0.005
		c-0.021,0.018-0.043,0.035-0.065,0.052c0.008,0.026,0.018,0.051,0.025,0.077c-0.021-0.015-0.045-0.03-0.066-0.045
		c-0.022,0.018-0.043,0.034-0.066,0.052c0.009-0.027,0.018-0.053,0.025-0.08c-0.021-0.015-0.045-0.03-0.066-0.045
		c0.027,0,0.055-0.002,0.082-0.003C-321.019,89.808-321.011,89.782-321.003,89.755"/>
	<path fill="#FFFFFF" d="M-320.04,89.664c0.01,0.025,0.018,0.05,0.024,0.075c0.028-0.004,0.056-0.007,0.083-0.011
		c-0.021,0.02-0.044,0.039-0.066,0.057c0.009,0.025,0.018,0.05,0.025,0.076c-0.021-0.014-0.045-0.027-0.066-0.04
		c-0.021,0.019-0.043,0.038-0.066,0.057c0.01-0.027,0.018-0.054,0.025-0.082c-0.021-0.013-0.045-0.026-0.066-0.04
		c0.027-0.004,0.055-0.007,0.083-0.011C-320.056,89.718-320.048,89.691-320.04,89.664"/>
	<path fill="#FFFFFF" d="M-319.076,89.512c0.008,0.024,0.017,0.049,0.024,0.073c0.027-0.004,0.055-0.009,0.082-0.014
		c-0.021,0.02-0.043,0.04-0.065,0.061c0.009,0.024,0.017,0.048,0.024,0.073c-0.021-0.012-0.043-0.024-0.065-0.037
		c-0.022,0.02-0.044,0.041-0.066,0.06c0.009-0.028,0.019-0.055,0.025-0.083c-0.022-0.013-0.046-0.024-0.066-0.037
		c0.027-0.005,0.056-0.01,0.082-0.014C-319.093,89.568-319.085,89.54-319.076,89.512"/>
	<path fill="#FFFFFF" d="M-323.378,89.771c0.01,0.029,0.018,0.057,0.025,0.086c0.027,0.009,0.055,0.017,0.082,0.025
		c-0.021,0.01-0.044,0.02-0.066,0.028c0.01,0.029,0.019,0.058,0.025,0.086c-0.021-0.023-0.044-0.046-0.066-0.069
		c-0.021,0.009-0.043,0.018-0.065,0.027c0.009-0.023,0.017-0.046,0.024-0.07c-0.021-0.023-0.045-0.046-0.065-0.07
		c0.026,0.009,0.056,0.019,0.082,0.027C-323.394,89.818-323.386,89.794-323.378,89.771"/>
	<path fill="#FFFFFF" d="M-319.566,89.879c0.009,0.025,0.017,0.049,0.024,0.074c0.027-0.004,0.056-0.009,0.082-0.013
		c-0.021,0.02-0.043,0.04-0.065,0.06c0.009,0.024,0.019,0.049,0.024,0.074c-0.021-0.013-0.043-0.025-0.065-0.038
		c-0.022,0.02-0.044,0.04-0.065,0.06c0.008-0.027,0.017-0.055,0.024-0.082c-0.022-0.013-0.044-0.026-0.065-0.038
		c0.026-0.005,0.055-0.009,0.082-0.013C-319.583,89.935-319.575,89.907-319.566,89.879"/>
	<path fill="#FFFFFF" d="M-320.519,90.004c0.008,0.025,0.018,0.05,0.025,0.076c0.027-0.003,0.055-0.005,0.082-0.009
		c-0.022,0.019-0.045,0.037-0.066,0.056c0.008,0.025,0.018,0.05,0.025,0.075c-0.022-0.014-0.045-0.028-0.066-0.042
		c-0.023,0.019-0.045,0.037-0.066,0.055c0.009-0.027,0.017-0.053,0.025-0.08c-0.021-0.014-0.045-0.029-0.066-0.043
		c0.026-0.001,0.055-0.004,0.082-0.007C-320.536,90.058-320.527,90.031-320.519,90.004"/>
	<path fill="#FFFFFF" d="M-321.472,90.051c0.01,0.026,0.018,0.052,0.025,0.078c0.027,0,0.055,0,0.082,0
		c-0.021,0.016-0.044,0.033-0.066,0.049c0.01,0.026,0.018,0.052,0.025,0.078c-0.021-0.016-0.044-0.032-0.066-0.048
		c-0.021,0.016-0.044,0.032-0.066,0.048c0.01-0.026,0.019-0.052,0.025-0.078c-0.021-0.016-0.044-0.033-0.066-0.049
		c0.027,0,0.056,0,0.082,0C-321.488,90.103-321.48,90.077-321.472,90.051"/>
	<path fill="#FFFFFF" d="M-322.425,89.985c0.01,0.027,0.019,0.055,0.026,0.082c0.026,0.004,0.056,0.007,0.082,0.01
		c-0.022,0.014-0.045,0.027-0.065,0.04c0.008,0.027,0.017,0.055,0.024,0.082c-0.022-0.019-0.044-0.038-0.067-0.057
		c-0.021,0.013-0.043,0.026-0.065,0.039c0.009-0.025,0.019-0.049,0.024-0.074c-0.021-0.019-0.043-0.039-0.065-0.059
		c0.026,0.004,0.055,0.008,0.082,0.013C-322.441,90.035-322.433,90.01-322.425,89.985"/>
	<path fill="#FFFFFF" d="M-318.614,89.713c0.01,0.024,0.018,0.049,0.025,0.073c0.027-0.005,0.056-0.01,0.082-0.015
		c-0.021,0.02-0.043,0.04-0.065,0.06c0.009,0.024,0.017,0.049,0.024,0.073c-0.021-0.012-0.043-0.023-0.066-0.036
		c-0.021,0.021-0.044,0.041-0.064,0.061c0.008-0.028,0.016-0.055,0.024-0.083c-0.022-0.012-0.045-0.024-0.067-0.036
		c0.027-0.005,0.055-0.01,0.082-0.015C-318.63,89.769-318.622,89.741-318.614,89.713"/>
	<polygon fill="#E6E7E8" points="-437.479,165.693 -429.503,160.359 -421.527,165.693 	"/>
	<polygon fill="#E6E7E8" points="-397.24,165.693 -389.266,160.359 -381.291,165.693 	"/>
	<polygon fill="#E6E7E8" points="-269.722,165.693 -261.749,160.359 -253.773,165.693 	"/>
	<polygon fill="#E6E7E8" points="-229.485,165.693 -221.511,160.359 -213.535,165.693 	"/>
	<polygon fill="#F1F1F2" points="-324.09,100.386 -279.802,118.391 -371.252,118.391 	"/>
</g>
</svg>
