<?xml version="1.0" encoding="utf-8"?>
<!-- Generator: Adobe Illustrator 16.0.4, SVG Export Plug-In . SVG Version: 6.00 Build 0)  -->
<!DOCTYPE svg PUBLIC "-//W3C//DTD SVG 1.1//EN" "http://www.w3.org/Graphics/SVG/1.1/DTD/svg11.dtd">
<svg version="1.1" id="Layer_1" xmlns="http://www.w3.org/2000/svg" xmlns:xlink="http://www.w3.org/1999/xlink" x="0px" y="0px"
	 width="1055px" height="284.128px" viewBox="0 0 1055 284.128" enable-background="new 0 0 1055 284.128" xml:space="preserve">
<polygon fill="#8FD7F2" points="1055,0 0,0 0,284.128 1055,284.128 902,142.084 "/>
<g>
	<path fill="#BAD0DB" d="M236.131,140.297v0.696c0,2.208-0.069,4.391-0.217,6.555v0.009c-1.269,18.989-7.988,36.468-18.617,50.92
		c-17.679,24.032-46.165,39.64-78.288,39.64c-4.699,0-9.327-0.332-13.848-0.982c-0.411-0.055-0.813-0.114-1.224-0.186h-0.007
		c-46.482-7.24-82.043-47.451-82.043-95.956c0-32.657,16.116-61.545,40.833-79.156c0.023-0.015,0.046-0.038,0.069-0.045
		c6.395-4.552,13.368-8.345,20.785-11.254c10.976-4.304,22.927-6.666,35.436-6.666c14.398,0,28.052,3.135,40.337,8.755h0.007
		C212.661,67.852,235.852,101.346,236.131,140.297"/>
	<path fill="#FFFFFF" d="M150.543,174.914c-0.667,1.324-1.88,2.047-3.019,3.234c-0.744,0.791-1.231,1.781-2.005,2.54
		c-0.386,0.381-0.711,0.69-0.99,1.004c-0.016,0.056-0.047,0.103-0.085,0.134c0.008,0.039,0.008,0.069,0,0.106
		c-0.279,1.063-0.706,1.952-0.721,3.075c-0.007,0.16-0.007,0.334-0.007,0.496c0.107,0.75,0.115,1.517-0.194,2.166
		c0.014,0.021,0.031,0.033,0.039,0.062c0.124,0.856-0.155,1.579-0.829,2.06l-0.48,0.834c0,0.012,0.01,0.012,0.01,0.012
		c0.185,1.271-0.806,2.625-1.89,3.506c-0.077,0.598-0.34,1.123-0.805,1.559c-0.015,0.016-0.023,0.036-0.046,0.053
		c-0.024,0.02-0.046,0.031-0.07,0.047c-0.016,0.018-0.024,0.021-0.04,0.041c-0.015,0.006-0.03,0.016-0.045,0.021
		c-0.101,0.078-0.209,0.156-0.317,0.218c-0.225,0.256-0.488,0.467-0.812,0.592c-0.565,0.207-1.223,0.264-1.88,0.275
		c-0.232,0.021-0.465,0.036-0.689,0.049c-0.255,0.061-0.519,0.102-0.797,0.061h-0.015c-0.069,0.021-0.146,0.044-0.216,0.078
		c-2.167,0.779-4.156,1.85-6.038,3.141c-0.116,0.355-0.371,0.604-0.673,0.729c0.101,1.09,0.326,2.396-0.077,3.373
		c-0.233,0.562-0.697,0.929-1.216,1.23c0,0.01,0.008,0.018,0.008,0.021c0.007,0.373-0.054,0.812-0.434,0.982
		c-0.232,0.104-0.542,0.104-0.859,0.078c-0.116,0.055-0.232,0.104-0.356,0.146c-0.17,0.047-0.34,0.086-0.511,0.125
		c-0.101,0.262-0.193,0.524-0.34,0.771c-0.271,0.468-0.683,0.858-1.054,1.258c0.109,0.562,0.21,1.138-0.255,1.587
		c-0.163,0.152-0.364,0.275-0.58,0.385c-0.357,0.49-0.891,0.869-1.502,1.021c-1.215,0.562-2.919-0.126-4.374-0.61
		c-0.24-0.041-0.479-0.078-0.719-0.102c-0.178-0.01-0.356,0-0.519,0.057c0.077,0.457,0.271,0.739,0.697,1.059
		c0.03-0.021,0.078-0.037,0.124-0.037c0.852,0,1.177,0.689,1.278,1.408c0.024,0.045,0.054,0.094,0.07,0.141
		c0.101,0.07,0.201,0.139,0.294,0.227c0.046-0.012,0.085,0,0.115,0.017c0.333-0.013,0.589,0.178,0.627,0.569
		c0.047,0.638-0.782,1.465-1.308,1.715c-1.13,0.539-2.84,0.447-4.048,0.384c-0.294-0.015-0.666,0-1.014-0.038
		c-0.155,0.543-0.007,1.227,0.178,1.711c0.085,0.219-0.155,0.363-0.333,0.335l-1.069-0.183c-0.007,0-0.007,0.01-0.015,0.01
		c-0.077,0.023-0.163,0-0.232-0.046c-0.333-0.062-0.666-0.116-1.007-0.171c-0.07-0.014-0.116-0.047-0.146-0.094
		c-0.115-0.045-0.232-0.094-0.333-0.154c0.031,0.357-0.085,0.75,0.046,1.084c0.171,0.466,0.698,0.645,0.929,1.007
		c0.364,0.582,0.155,1.423,0.147,2.091c0,0.155-0.124,0.266-0.271,0.271c-0.502,0.037-0.998,0.348-1.254,0.795
		c0.882,0.791,1.99,1.207,3.135,1.597c0.24,0.076,0.271,0.457,0,0.521c-0.874,0.223-0.805,0.485-0.914,1.125
		c-0.061,0.09-0.139,0.17-0.231,0.229c0.016,0.447,0.03,0.896,0.046,1.35c0.062,0.18,0.232,0.362,0.426,0.551
		c0.14,0.092,0.295,0.186,0.465,0.264c0.1,0.037,0.131,0.113,0.131,0.193c0.093,0.045,0.147,0.1,0.271,0.254
		c0.094,0.045,0.194,0.096,0.294,0.141c0.333,0.131,0.682,0.219,1.006,0.359c0.449,0.203,0.828,0.502,1.308,0.631
		c0.287,0.084,0.24,0.574-0.07,0.535c-0.859-0.108-1.912-0.086-2.717-0.451c-0.17-0.076-0.34-0.246-0.512-0.314
		c-0.278-0.102-0.402-0.031-0.642-0.096c-0.264-0.066-0.581-0.35-0.836-0.34c-0.124,0-0.209-0.07-0.24-0.162
		c-0.325-0.021-0.596-0.125-0.828-0.311c-0.124-0.027-0.24-0.078-0.363-0.125c-0.07,0.02-0.147,0-0.217-0.07
		c-0.039-0.027-0.085-0.051-0.124-0.084c-0.108-0.021-0.217-0.062-0.326-0.125c-1.277-0.719-2.337-1.508-3.198-2.473
		c-0.34-0.111-0.656-0.268-0.943-0.496c-0.186-0.147-0.309-0.354-0.479-0.498c-0.147-0.133-0.411-0.195-0.534-0.352
		c-0.07-0.084-0.109-0.177-0.132-0.271c-0.016-0.008-0.031-0.017-0.055-0.03c-0.023-0.019-0.039-0.03-0.054-0.056
		c-0.125-0.062-0.194-0.211-0.117-0.354c0.094-0.188,0.148-0.227,0.318-0.355c0.04-0.029,0.078-0.037,0.124-0.037
		c0.022-0.172-0.039-0.379-0.062-0.572c-0.006-0.041-0.006-0.078,0-0.111c-0.479-0.186-0.936-0.379-1.214-0.385
		c-0.131-0.008-0.287-0.123-0.271-0.271c0.03-0.326,0.077-0.666,0.317-0.904c0.101-0.1,0.302-0.145,0.379-0.264
		c0.086-0.115,0.093-0.396,0.101-0.604c-0.202-0.648-0.426-1.293-0.721-1.906c-0.487-0.439-0.975-0.843-1.409-1.292
		c-0.202-0.14-0.402-0.278-0.604-0.416c-0.069-0.047-0.108-0.116-0.116-0.187c-0.156-0.164-0.232-0.332-0.318-0.586
		c-0.271-0.84-0.448-1.551-1.014-2.254c-0.023-0.025-0.031-0.058-0.039-0.08c-0.241-0.199-0.441-0.535-0.402-0.836
		c0.333-2.623-0.101-5.117-1.077-7.545c-0.704-1.754-0.897-3.283-0.464-5.088c-0.031-0.193-0.071-0.391-0.101-0.578
		c-0.093-0.149-0.155-0.344-0.155-0.568v-0.393c-0.163-1.018-0.31-2.027-0.442-3.051c-0.417-3.338-0.858-6.703-2.863-9.383
		c-1.501-0.791-2.802-1.816-4.11-2.986c-1.37-1.218-3.437-2.271-4.35-3.771c-0.41-0.688-0.558-1.641-1.006-2.377
		c-0.286-0.463-0.626-0.896-0.914-1.368c-0.719-1.177-1.308-2.423-1.904-3.663c-1.154-2.398-2.276-4.732-4.126-6.693
		c-0.178-0.187-0.271-0.394-0.302-0.604c-0.17-0.176-0.279-0.418-0.279-0.711c0.017-0.639-0.464-1.04-0.216-1.742
		c0.256-0.76,1.115-0.96,1.448-1.635c0.039-0.069,0.085-0.139,0.124-0.194c-0.016-0.099-0.031-0.185-0.039-0.263
		c-0.055-0.418-0.155-0.818-0.263-1.223c-0.015-0.047-0.015-0.096-0.024-0.141c-0.246-0.143-0.426-0.38-0.541-0.667
		c-0.411-1.004,0.116-2.149,0.828-2.899c-0.015-0.02-0.023-0.022-0.039-0.031c-0.766-0.596-0.1-1.881,0.767-1.858
		c0.078,0,0.147,0,0.201-0.015c0.102-0.076,0.202-0.153,0.303-0.227c0.092-0.178,0.116-0.435,0.271-0.683
		c-0.016,0.028,0.387-0.53,0.387-0.479c0.356-0.709,0.287-0.785,1.022-1.236c0.426-0.256,0.704-0.773,1.153-1.129
		c-0.139-1.36-0.131-2.748-0.054-4.143c-0.178-0.379-0.317-0.783-0.402-1.209c-0.131-0.682-0.124-1.367-0.34-2.043
		c-0.178-0.567-0.441-1.115-0.642-1.673c-0.635-0.294-1.772-0.843-2.369-0.797c0.008,0.217-0.093,0.45-0.356,0.55
		c-0.016,0.008-0.024,0.008-0.039,0.008c0.031,0.418,0.294,0.782,0.031,1.378c-0.202,0.448-0.875,0.277-0.999-0.131
		c-0.124-0.411-0.348-0.759-0.619-1.084c-0.72-0.101-1.41-0.418-1.982-0.906c-0.496-0.434-0.897-0.975-1.145-1.586
		c-0.187-0.458-0.202-1.054-0.704-1.324c-0.109-0.07-0.704-0.062-0.836-0.094c-0.387-0.085-0.534-0.634-0.24-0.906
		c0.581-0.534,0.132-1.703-0.07-2.307c-0.023-0.062-0.023-0.115-0.023-0.171c-0.186-0.17-0.326-0.386-0.417-0.634
		c-0.233-0.248-0.372-0.566-0.418-0.907c-0.325-0.371-0.449-0.866-0.364-1.37c-0.525-0.194-1.045-0.411-1.501-0.712
		c-0.086-0.031-0.17-0.054-0.248-0.085c-1.161-0.457-2.059-1.254-2.693-2.308c-0.859-1.432-0.767-3.32-2.709-3.615
		c-1.464-0.224-2.246-0.055-3.291-1.247c-0.851-0.975-1.688-2.616-2.314-3.762c-0.588-1.091-0.921-2.299-0.853-3.453
		c-0.054-0.449-0.038-0.928,0.07-1.463c0.388-1.904,0.627-3.444,0.72-5.379c0.023-0.604,0.1-1.185,0.209-1.757
		c-0.023-0.054-0.047-0.115-0.047-0.178c-0.178-2.051,0.65-4.056,0.682-6.146c0.023-1.324,0.316-2.245,1.129-3.26
		c0.14-0.882,0.202-1.733,0.264-2.623c-0.054,0-0.109-0.009-0.155-0.024c-0.023-0.015-0.039-0.03-0.061-0.038
		c-0.016,0.023-0.04,0.046-0.062,0.062c0.047,0.107,0.031,0.239-0.108,0.317c-0.666,0.348-0.852,1.161-1.099,1.827
		c0.016,0.047,0.016,0.093-0.008,0.146c-0.31,0.743-0.519,1.486-0.604,2.292c-0.039,0.35,0.023,0.721-0.155,1.038
		c-0.162,0.279-0.433,0.341-0.635,0.566c0.031,0.046,0.054,0.092,0.062,0.146c0.038,0.541,0.038,1.054-0.016,1.595
		c-0.023,0.279-0.488,0.396-0.534,0.07c-0.017-0.109-0.025-0.186-0.04-0.248c-0.092-0.04-0.163-0.124-0.154-0.24
		c0.076-1.13-0.418-1.122,0.34-1.866c0.558-0.541,0.535-0.82,0.642-1.54c0.101-0.673,0.303-1.308,0.558-1.936
		c0-0.015-0.008-0.022-0.008-0.038c-0.07-0.79,0.202-1.432,0.697-2.005c0-0.046,0-0.093,0.023-0.132
		c0.124-0.247,0.271-0.417,0.448-0.495c-0.054-0.449,0.38-0.829,0.597-1.277c0.015-0.264,0.046-0.52,0.085-0.79
		c0.016-0.109,0.101-0.171,0.194-0.186c0.696-1.826,0.704-3.84,1.579-5.62c0.897-1.819,2.229-3.483,3.398-5.147
		c1.756-2.516,3.653-4.97,6.053-6.858c0.193-0.302,0.411-0.588,0.697-0.867c0.587-0.774,1.417-1.447,2.066-2.098
		c1.1-1.114,2.368-2.051,3.376-3.258c1.532-1.835,3.205-3.229,5.085-4.489c0.38-0.341,0.768-0.658,1.154-0.976
		c0.441-0.364,0.898-0.712,1.354-1.061c0.023-0.015,0.046-0.038,0.07-0.045c6.394-4.552,13.368-8.345,20.783-11.255v0.008
		c0.008,0.07,0.023,0.131,0.031,0.194c0.04-0.031,0.077-0.054,0.109-0.078c0.063-0.062,0.131-0.085,0.201-0.077
		c0,0,0-0.008,0.008-0.008c0.046-0.016,0.1-0.031,0.155-0.047c0.085-0.023,0.2,0,0.263,0.07c0.434,0.52-0.101,1.192-0.147,1.812
		c-0.008,0.125-0.077,0.216-0.202,0.255c0,0.008-0.248,0.055-0.271,0.07c-0.217-0.04-0.418,0-0.612,0.101
		c0.008,0.023,0.008,0.031,0.008,0.055c0.015,0.186,0.007,0.379,0,0.572c0.533,0.597,1.137,0.597,1.818-0.007
		c0.093-0.179,0.387-0.179,0.471,0c0.132,0.263,0.264,0.526,0.388,0.79c0.077,0.146,0.016,0.294-0.101,0.363
		c0.898-0.178,1.935-0.387,2.725-0.224c0.264,0.055,0.464,0.046,0.619,0.216c1.061-0.434,2.485-1.176,1.726-2.036
		c-0.154-0.178-0.054-0.457,0.194-0.464c0.774-0.031,1.81-0.194,2.577,0.016c0.008-0.016,0.008-0.031,0.015-0.047
		c-0.046-0.139-0.116-0.263-0.201-0.34c-0.155-0.147-0.411-0.116-0.604-0.116c-0.287,0.015-0.348-0.356-0.14-0.503
		c0.085-0.062,0.17-0.085,0.264-0.093c0.023-0.078,0.078-0.14,0.179-0.163c0.224-0.054,0.433-0.186,0.665-0.24
		c0.194-0.039,0.396-0.062,0.597-0.085c0.046-0.015,0.101-0.023,0.163-0.015h0.008c0.024,0.008,0.039,0,0.07,0.008
		c0.31,0.092,0.226,0.511-0.07,0.534c-0.015,0-0.023,0-0.03,0.008c-0.008,0-0.008,0-0.008,0.007
		c-0.039,0.031-0.078,0.062-0.124,0.086c-0.086,0.046-0.194,0.078-0.294,0.093c-0.107,0.023-0.224,0.038-0.34,0.055
		c0.016,0.015,0.039,0.022,0.053,0.039c0.194,0.193,0.342,0.503,0.403,0.805c0.016-0.015,0.024-0.031,0.039-0.039
		c0.503-0.348,0.937-0.666,1.409-1.038c0.179-0.146,0.666-0.287,0.758-0.511c0.047-0.109,0.131-0.201,0.264-0.201
		c0.89,0.031,1.579-0.038,2.338,0.434c0.163,0.101,0.326,0.248,0.479,0.357c0.008,0,0.024,0,0.031,0.007
		c0.1,0.024,0.193,0.069,0.271,0.124c0.046,0.007,0.085,0.007,0.124,0c0.155-0.031,0.364,0.07,0.348,0.263
		c-0.016,0.108-0.023,0.209-0.031,0.317c0.085,0.248,0.101,0.526,0.008,0.767c0.016,0.116,0.031,0.232,0.054,0.356
		c0.449-0.542,1.038-1.533,1.626-1.292c0.209,0.085,0.186,0.271,0.279,0.434c-0.024,0.279,0.054,0.534,0.239,0.751
		c0.085,0.294,0.278,0.503,0.565,0.619c0.216,0.225,0.434,0.402,0.635,0.651c0.077,0.093,0.124,0.232,0.046,0.333
		c-0.356,0.487-1.054,0.386-0.959,1.076c0.093,0.696,1.951,1.424,2.492,1.509c0.179,0.03,0.241,0.264,0.163,0.402
		c-0.488,0.883-1.665,0.689-2.167,1.518c-0.093,0.14-0.31,0.186-0.427,0.055c-0.177-0.193-0.301-0.395-0.386-0.612
		c-0.124-0.069-0.201-0.201-0.248-0.324c-0.046-0.125-0.077-0.249-0.108-0.372c-0.303,0.147-0.604,0.302-0.906,0.457
		c0.17,0.209,0.286,0.441,0.348,0.681c0.209,0.325,0.387,0.665,0.464,1.036c0.023,0.094,0.008,0.203-0.07,0.271
		c-0.193,0.171-0.797,0.596-0.773,0.813c0.023,0.209-0.248,0.332-0.412,0.24c-0.44-0.271-0.626-0.604-1.152-0.727
		c-0.449-0.101-0.573,0.023-0.798,0.101c0.271,0.178,0.534,0.348,0.775,0.588c0.225,0.233-0.055,0.565-0.325,0.426
		c-0.959-0.473-1.997-0.844-2.609-1.75c-0.201-0.311-0.216-0.921-0.557-1.107c-0.294-0.163-0.952-0.108-1.455-0.115
		c-0.031,0.055-0.077,0.101-0.155,0.131c-0.062,0.024-0.131,0.055-0.193,0.077c-0.086,0.031-0.21,0-0.264-0.069
		c-0.069-0.07-0.132-0.148-0.193-0.217c-0.225-0.255,0.124-0.619,0.356-0.403c0.062-0.045,0.139-0.078,0.225-0.062
		c0.681,0.092,1.339,0.124,2.012,0.101c0.046-0.055,0.093-0.101,0.155-0.125c0.572-0.248,1.161-0.496,1.695-0.829
		c1.03-0.657,1.153-0.905,1.061-2.105c-0.015-0.146-0.039-0.262-0.055-0.363c-0.264-0.187-0.271-0.55-0.093-0.783
		c-0.062-0.077-0.116-0.155-0.178-0.231c-0.023-0.04-0.031-0.071-0.047-0.109c-0.131,0.015-0.263,0.015-0.401-0.008
		c-0.333-0.054-0.752,0.07-1.084,0.101c-0.41,0.04-0.82,0.04-1.239,0.031c-0.046,0.031-0.093,0.062-0.139,0.093
		c-0.17,0.093-0.356,0.146-0.549,0.146c-0.101-0.03-0.164-0.03-0.186-0.007c0.108,0.116,0.201,0.255,0.286,0.433
		c0.077,0.155,0.015,0.35-0.163,0.396c-0.882,0.248-0.705,1.107-1.417,1.462c-0.65,0.325-1.61,0.108-2.292,0.085
		c-0.194-0.008-1.765-0.178-1.811-0.077c-0.179,0.364,0.293,0.526,0.502,0.805c0.41,0.557,0.542,1.192,0.511,1.88
		c-0.008,0.186-0.231,0.364-0.41,0.232c-0.812-0.597-1.579,0.046-2.384,0.332c-0.125,0.047-0.302-0.053-0.333-0.193
		c-0.038-0.193-0.078-0.395-0.116-0.596c-0.023-0.131,0.039-0.31,0.194-0.333c0.349-0.055,0.619-0.179,0.806-0.356
		c-0.179,0.031-0.372,0.008-0.55-0.077c-0.921,0.263-1.99,0.434-2.872,0.24c-0.147,0.077-0.302,0.147-0.472,0.177
		c-0.611,0.813-1.649,0.991-2.894,1.347c-0.348,0.317-0.798,0.496-1.278,0.72c-0.99,0.465-1.927,1.169-2.817,1.967
		c0.069,0.434-0.047,0.905-0.465,1.315c-0.286,0.279-0.542,0.566-0.782,0.859c0.457,0.093,0.82,0.295,1.13,0.557
		c0.441,0.163,0.704,0.488,0.821,0.868c0.581,0.712,1.145,1.463,2.152,1.718c0.378,0.101,0.55,0.634,0.24,0.906
		c-0.124,0.108-0.224,0.224-0.325,0.34c-0.04,0.07-0.085,0.131-0.14,0.185c-0.673,0.945-0.828,2.176-1.214,3.299
		c0.115,0.147,0.24,0.302,0.363,0.449c2.569-0.264,2.369-2.416,4.095-3.739c0.496-0.379,0.874-0.44,1.471-0.519
		c0.155-0.022,0.294-0.046,0.426-0.07c0.735-0.371,1.47-0.912,2.136-1.555c0.178-0.836-0.101-1.819,0.247-2.624
		c0.318-0.704,1.185-0.968,1.865-1.3c0.094-0.341,0.124-0.682,0.109-1.061c-0.007-0.232,0.215-0.31,0.379-0.24
		c0.186-0.287,0.457-0.55,0.89-0.758c0.046-0.031,0.101-0.039,0.155-0.062c0.426-0.503,0.99-0.442,1.827-0.318
		c0.48,0.07,0.953,0.077,1.324,0.457c0.186,0.202,0.688,1.154,0.225,1.154c0.457,0.022,0.79,0.355,0.812,0.812
		c0.023,0.619-0.256,1.068-0.38,1.618c0,0.178,0.009,0.364,0.009,0.542c0.208,0.062,0.356,0.193,0.441,0.363
		c0.248,0.07,0.472,0.031,0.852-0.07c0.178-0.046,0.356-0.108,0.542-0.14c0.836-0.131,1.455-0.378,1.68-1.285l0.008,0.008
		c0.015-0.046,0.024-0.093,0.046-0.14c0.271-0.573,1.139-0.146,0.992,0.426c-0.015,0.078-0.046,0.155-0.07,0.24
		c-0.1,0.542,0.565,1.672,0.619,2.199c0.054,0.511-0.015,0.843-0.425,1.192c-0.092,0.077-0.178,0.146-0.271,0.209
		c0.356,0.24,0.626,0.511,0.929,0.844c0.479,0.527,0.975,0.783,1.687,0.938c0.34,0.078,0.511,0.512,0.325,0.798
		c-0.008,0.015-0.125,0.147-0.225,0.254c0.31,0.04,0.921,0.457,1.007,0.511c0.496,0.294,1.146,0.635,1.038,1.324
		c-0.085,0.55-0.426,0.797-0.828,0.843c-0.085,0.155-0.24,0.271-0.465,0.286c-0.642,0.046-1.253,0.179-1.866,0.325
		c-1.038,0.697-2.283,1.425-3.359,1.432c-0.906,0-1.873-0.472-2.787-0.534c-1.099-0.07-2.221-0.008-3.321,0.007
		c-0.263,0.139-0.518,0.301-0.758,0.479c-0.348,0.271-0.619,0.581-1.099,0.581c-0.146,0-0.256-0.061-0.34-0.131
		c-0.922,0.542-1.835,1.083-2.749,1.641c1.966,0.829,5.334-2.679,6.625-0.379c0.209,0.379-0.062,0.783-0.472,0.821
		c-0.526,0.04-1.053,0.085-1.58,0.124c-0.185,0.016-0.897,0.131-1.447,0.325c0.007,0,0.015,0.008,0.023,0.008
		c0.542-0.031,0.998,0.015,1.556,0.17c0.302,0.085,0.542,0.519,0.326,0.804c-0.147,0.188-0.31,0.372-0.488,0.558
		c0.163,0.062,0.302,0.194,0.341,0.364c0.015,0.07,0.024,0.14,0.024,0.202c0.851,0.069,1.687,0.333,2.26,0.936
		c0.217-0.03,0.395,0.085,0.511,0.248c0.24-0.287,0.55-0.395,0.867-0.635c0.48-0.372,0.666-0.952,1.162-1.315
		c0.17-0.131,0.395,0.054,0.403,0.232c0.023,0.441,0.054,0.875,0.084,1.309c0.016,0.154-0.131,0.271-0.271,0.278
		c-0.38,0.008-0.768,0.016-1.146,0.031c-0.333,0.333-0.588,0.773-1.161,0.812c-0.007,0-0.023-0.007-0.03-0.007
		c-0.023,0.023-0.04,0.039-0.07,0.054c-0.657,0.395-1.347,0.758-2.105,0.905c-0.108,0.024-0.325,0.024-0.588,0.024
		c-0.418,0.216-0.836,0.425-1.308,0.611c-0.434,0.17-0.65,0.255-1.044-0.016c-0.194-0.124-0.333-0.371-0.248-0.611
		c0.178-0.511,0.572-0.79,1.076-0.938c0.279-0.078,0.572-0.062,0.867-0.071c0.217-0.124,0.387-0.224,0.426-0.24
		c0.293-0.123,0.581-0.224,0.875-0.31c-0.093-0.039-0.186-0.078-0.278-0.109c-0.527-0.108-1.061-0.139-1.308-0.101
		c-0.147,0.016-0.264-0.015-0.372-0.069c-0.464,0.333-1.486,0.356-2.037,0.472c-0.085,0.023-0.17,0.023-0.247,0.008
		c-0.008,0.062-0.023,0.124-0.055,0.178c-0.316,0.48-0.859,0.72-1.37,0.619c-0.177,0.085-0.356,0.171-0.542,0.232
		c-0.417,0.147-0.836,0.185-1.254,0.108c-0.023,0.024-0.038,0.055-0.07,0.077c-0.046,0.04-0.085,0.071-0.13,0.109
		c-1.13,0.828-1.239,2.353-2.353,3.027c-0.612,0.363-1.579,0.301-2.26,0.511c-0.729,0.216-1.355,0.511-1.873,0.952
		c-0.21,0.473-0.667,0.875-1.022,1.254c-0.085,0.093-0.185,0.14-0.279,0.155c-0.101,0.101-0.239,0.163-0.371,0.163
		c-0.046,0.101-0.115,0.209-0.256,0.411c-0.139,0.193-0.34,0.271-0.542,0.24c-0.054,0.208-0.108,0.426-0.155,0.634
		c-0.008,0.697-1.077,0.697-1.092,0c-0.007-0.054-0.023-0.116-0.038-0.17c-0.209,0.077-0.418,0.155-0.627,0.239
		c-0.542,0.859-1.014,1.858-0.906,2.523c0.364,0.077,0.557,0.628,0.263,0.921c-2.276,2.252-4.861,3.987-7.841,5.271
		c-0.132,0.055-0.256,0.055-0.364,0.024c-0.503,0.967-1.153,1.865-1.804,2.748c-0.271,2.794,0.326,5.806-1.045,8.415
		c-0.232,0.441-0.843,0.287-0.991-0.132c-0.488-1.385-0.573-2.693-0.619-4.157c-0.04-1.23,0.332-3.847-1.471-3.42
		c-0.233,0.054-0.488-0.031-0.612-0.249c-0.125-0.216-0.488-0.983-0.666-1.044c-0.101-0.04-0.177-0.093-0.231-0.163
		c-0.673,0.008-1.347,0.023-2.013,0.008c-0.666-0.008-1.346-0.155-2.02-0.294c-0.031,0.023-0.054,0.053-0.093,0.07
		c0.109,0.155,0.2,0.31,0.248,0.472c0.139,0.201,0.271,0.417,0.395,0.658c0.232,0.464-0.256,1.037-0.743,0.742
		c-0.146-0.038-0.287-0.07-0.426-0.101c-0.464,0.023-0.735-0.626-0.387-0.929c-0.023-0.061-0.055-0.123-0.078-0.185
		c-0.101-0.109-0.209-0.217-0.317-0.31c-0.139-0.031-0.278-0.062-0.41-0.108c-0.132,0.116-0.317,0.17-0.496,0.131
		c-1.021-0.209-2.012,0.131-2.988,0.434c-0.055,0.131-0.155,0.255-0.326,0.325c-1.346,0.549-2.353,1.47-3.173,2.555
		c0,0.023,0.007,0.031,0.007,0.054c-0.125,2.013-1.494,3.167-2.314,4.922c-0.31,0.674-0.52,1.386-0.697,2.106
		c-0.254,1.827-0.364,3.692,0.093,5.48c0.526,2.059,1.308,2.183,3.119,2.957c0.558,0.231,0.719,0.131,1.223,0.51
		c0.031,0.023,0.054,0.047,0.077,0.07c0.155-0.264,0.318-0.534,0.465-0.805c0.326-0.597,0.518-1.216,0.836-1.805
		c0.464-0.851,0.759-1.826,1.773-2.004c0.03-0.031,0.062-0.055,0.107-0.078c0.263-0.124,0.534-0.155,0.789-0.108
		c0.489-0.117,1.045-0.109,1.68,0.062c0.178,0.047,0.333,0.193,0.379,0.379c0.163,0.65-0.084,0.704-0.41,1.224
		c-0.643,1.06-0.876,2.236-1.549,3.29c-0.689,1.082-1.804,2.36-2.137,3.661c-0.13,0.519-0.093,0.944,0.015,1.338
		c0.055,0.031,0.101,0.063,0.156,0.086c0.07,0.023,0.131,0.062,0.185,0.109c0.04-0.008,0.062-0.023,0.101-0.023
		c1.625,0.023,3.94-0.411,5.109,1.006c1.06,1.285,0.449,2.793-0.356,4.017c0.139,0.155,0.209,0.379,0.092,0.619
		c-1.138,2.346-0.758,4.993,1.054,6.866c0.294,0.312,0.581,0.564,0.851,0.821c0.03-0.077,0.078-0.155,0.14-0.24
		c0.31-0.418,1.781-0.874,2.252-0.874c1.665,0.007,2.964,1.563,3.816,3.219c0.015-0.574,0.232-1.114,0.889-1.649
		c0.365-0.301,0.96-0.55,1.224-0.951c0.301-0.458,0.069-0.658,0.209-1.062c0.209-0.611,0.449-0.875,1.053-1.122
		c0.581-0.232,1.417-0.441,2.136-0.371c0.449-0.317,0.898-0.643,1.346-0.96c0.202-0.147,0.396-0.302,0.604-0.418
		c0.031-0.023,0.062-0.031,0.093-0.046c0.116-0.132,0.24-0.248,0.387-0.301c0.03-0.047,0.084-0.094,0.162-0.101
		c0.356-0.054,0.744,0.062,0.758,0.496c0.023,0.418-0.34,0.527-0.642,0.658c-0.844,0.371-0.356,1.378-0.635,2.114
		c-0.101,0.279-0.255,0.518-0.449,0.719c0.023,0.534,0.007,1.083,0.101,1.562c0.046,0.233,0.101,0.465,0.147,0.697
		c0.619-0.146,1.13-0.356,1.347-0.828c-0.054-0.813-0.232-1.595-0.557-2.362c-0.054-0.123,0.053-0.316,0.193-0.333
		c0.062-0.007,0.125-0.038,0.185-0.046c0.071-0.116,0.209-0.155,0.326-0.131c0.031-0.015,0.062-0.023,0.1-0.023
		c0.024-0.008,0.047-0.016,0.079-0.016c0.03-0.008,0.076-0.023,0.107-0.039c0.426-0.185,0.805-0.449,1.184-0.736
		c-0.101-0.262-0.131-0.533-0.101-0.843c0.04-0.348,0.581-0.348,0.542,0c-0.023,0.217,0.007,0.435,0.069,0.635
		c0.194-0.078,0.418-0.023,0.558,0.115c0.054,0.025,0.108,0.056,0.162,0.101c0.418,0.349,0.883,0.527,1.145,1.029
		c0.194,0.364,0.271,0.805,0.45,1.177c0.023-0.008,0.039-0.015,0.062-0.023c1.185-0.364,2.33,0.031,3.422,0.456
		c0.541,0.21,1.138,0.349,1.741,0.496c0.573-0.464,1.185-0.712,1.951-0.812c0.317-0.039,0.875-0.194,1.308-0.155
		c0.07-0.031,0.155-0.039,0.248,0.015c0.589,0.364,0.991,1.022,1.355,1.649c0.325,0.092,0.658,0.271,0.859,0.386
		c0.798,0.449,1.045,0.976,1.092,1.658c0.146,0.152,0.31,0.293,0.479,0.418c0.055-0.062,0.14-0.096,0.248-0.049
		c0.634,0.248,1.27,0.428,1.641,1.031c0.41,0.664,0.698,1.438,0.937,2.197c0.48-0.03,0.952,0.093,1.262,0.472
		c0.318,0.39,0.526,0.897,0.743,1.354c2.298,0.006,4.969-0.365,6.982,0.926c0.991,0.637,1.92,1.457,2.802,2.244
		c0.797,0.705,1.215,1.342,1.099,2.434c-0.008,0.029-0.015,0.047-0.023,0.068c0.17,0.188,0.287,0.365,0.372,0.627
		c0.084,0.248,0.007,0.984,0.155,1.154c0.301,0.35,1.23,0.1,1.455,0.721c0.186,0.494-0.403,1.047-0.697,1.375
		c-0.147,0.174-0.325,0.306-0.487,0.449c-0.473,0.401-0.921,1.139-0.782,1.819c0,0.007,0.016,0.031,0.024,0.048
		c0.178-0.101,0.363-0.191,0.565-0.265c0.672-0.218,1.393-0.203,2.089-0.146c0.078,0.01,0.156,0.031,0.233,0.055
		c0.039-0.039,0.101-0.068,0.178-0.061c0.394,0.021,0.921-0.056,1.13,0.385c0.117,0.238,0,0.504-0.139,0.75
		c-0.008,0.125-0.039,0.254-0.093,0.389c-0.101,0.209-0.271,0.355-0.226,0.611c0.016,0.102,0.071,0.17,0.132,0.229
		c0.07,0.023,0.132,0.047,0.201,0.068c0.171-0.291,0.31-0.61,0.581-0.834c0.743-0.604,1.494-0.467,2.368-0.276
		c0.628,0.132,1.27,0.324,1.866,0.604c0.434,0.066,0.868,0.191,1.247,0.371c0.023-0.016,0.054-0.029,0.093-0.029
		c0.519,0.008,0.829,0.332,0.991,0.812c0.194,0.598,0.293,1.247,0.403,1.883c0.627-0.267,0.968-0.836,1.765-0.942
		c0.581-0.069,0.914,0.056,1.433,0.231c0.734,0.237,1.586,0.396,2.322,0.656c0.008,0,0.015-0.01,0.023-0.01
		c0.681,0.02,1.332-0.252,2.021-0.133c0.727,0.143,1.37,0.621,1.958,1.047c0.131,0.094,0.264,0.201,0.395,0.301
		c0.465,0.301,0.937,0.674,1.464,1.129c0.347,0.307,0.681,0.592,1.005,0.859c0.365-0.014,0.729,0,1.069,0.07
		c0.063,0.008,0.108,0.031,0.163,0.045h0.023c0.015-0.006,0.03-0.014,0.055-0.014c0.168-0.011,0.325-0.011,0.479,0
		c0.472,0.008,0.929,0.088,1.33,0.426c0.898,0.604,1.286,1.78,1.425,3.158C151.471,172.708,151.208,173.944,150.543,174.914"/>
	<path fill="#FFFFFF" d="M125.28,78.082l-0.258,0.107c-0.01-0.034-0.018-0.066-0.034-0.1c-0.17-0.356-0.694-0.337,0.101-0.44
		c0.339-0.044,0.352-0.58,0-0.544c-0.662,0.067-1.617,0.184-2.171-0.222c-0.295-0.216-0.276-0.468-0.493-0.705
		c0.042-0.193,0.129-0.375,0.246-0.51c0.146-0.168,0.37-0.259,0.522-0.414c0.162-0.165,0.212-0.221,0.297-0.439
		c0.081-0.208-0.153-0.371-0.334-0.333c-0.505,0.103-0.899,0.617-1.247,0.964c-0.584,0.581-1.135,1.196-1.66,1.831
		c-0.071,0.085-0.076,0.18-0.049,0.264c-0.235,0.167-0.473,0.33-0.672,0.522c-0.032,0.03-0.053,0.063-0.075,0.097
		c-0.321,0.172-0.643,0.346-0.963,0.519c-0.244,0.132-0.125,0.501,0.136,0.506c1.64,0.031,3.279,0.062,4.92,0.093
		c0.493,0.01,1.219,0.14,1.334-0.444c0.182-0.075,0.363-0.15,0.545-0.226C125.744,78.474,125.604,77.949,125.28,78.082"/>
	<path fill="#FFFFFF" d="M125.432,79.81c0.042-0.181-0.094-0.404-0.324-0.337c-0.142,0.041-0.225,0.128-0.28,0.262
		c-0.014,0.029-0.024,0.059-0.031,0.09c-0.003,0.005,0,0.002-0.001,0.007c-0.044,0.01-0.089,0.019-0.129,0.044
		c-0.313,0.207-0.189,0.611,0.069,0.794c0.186,0.131,0.298,0.085,0.491-0.001c0.164-0.074,0.403-0.132,0.52-0.278
		C125.985,80.092,125.696,79.919,125.432,79.81"/>
	<path fill="#FFFFFF" d="M116.039,76.875L116.039,76.875L116.039,76.875c-0.021-0.155-0.103-0.275-0.241-0.356
		c-0.017-0.014-0.028-0.031-0.047-0.043c-0.07-0.045-0.562-0.222-0.539-0.259c0.174-0.27-0.203-0.515-0.413-0.333
		c-0.191-0.053-0.392-0.028-0.584,0.009c-0.343,0.065-0.197,0.588,0.145,0.524c0.127-0.024,0.259-0.057,0.335,0.046
		c0.085,0.111,0.08,0.24,0.192,0.342c0.045,0.042,0.494,0.21,0.596,0.169c0.01,0.014,0.027,0.026,0.032,0.044
		c0.072,0.298,0.537,0.234,0.534-0.072C116.048,76.921,116.042,76.899,116.039,76.875"/>
	<path fill="#FFFFFF" d="M54.791,103.845c0-0.35-0.543-0.35-0.543,0c0,0.177,0,0.354,0,0.53c-0.059,0.022-0.111,0.055-0.142,0.105
		c-0.253,0.414-0.621,0.899-0.371,1.374c0.007,0.015,0.024,0.022,0.035,0.035c-0.266,0.936-0.24,1.894-0.167,2.889
		c0.025,0.347,0.569,0.349,0.542,0c-0.072-0.992-0.128-1.984,0.195-2.928c0.079-0.09,0.121-0.225,0.152-0.388
		c0-0.001-0.001-0.003-0.001-0.006c0.145,0.005,0.3-0.089,0.3-0.262C54.791,104.744,54.791,104.295,54.791,103.845"/>
	<path fill="#FFFFFF" d="M111.627,48.677c-0.955,0.351-1.935,0.6-2.944,0.733c-0.298,0.038-0.377,0.425-0.072,0.533
		c0.263,0.149,0.341,0.32,0.232,0.513c-0.008,0.109-0.07,0.155-0.185,0.14c-0.02,0.012-0.042,0.02-0.063,0.028
		c-0.073-0.022-0.147-0.037-0.23-0.037h-0.441c-0.328,0-0.645,0.222-0.764,0.526c-0.712,0.158-1.28,0.684-2.018,0.842
		c-0.3,0.064-0.232,0.542,0.072,0.534c0.211-0.005,2.034-0.055,1.941,0.343c-0.048,0.209,0.195,0.458,0.399,0.308
		c0.531-0.395,1.237-0.468,1.736-0.912c0.229-0.204,0.382-0.446,0.478-0.712c0.206-0.115,0.407-0.136,0.627-0.232
		c0.089-0.038,0.199-0.104,0.252-0.19c0.304,0.011,0.674-0.141,0.91-0.188c0.342-0.072,0.198-0.596-0.144-0.524
		c-0.067,0.014-0.567,0.162-0.621,0.129c-0.213-0.126,0.073-0.488,0.165-0.633c0.109-0.174,0.158-0.235,0.114-0.441
		c0.26-0.089,0.511-0.164,0.699-0.237C112.093,49.077,111.957,48.555,111.627,48.677"/>
	<path fill="#FFFFFF" d="M102.098,132.746c-0.124-0.102-0.256-0.178-0.394-0.242c-0.033-0.057-0.068-0.113-0.107-0.164
		c-0.131-0.169-0.308-0.312-0.524-0.346c-0.001-0.218-0.271-0.408-0.451-0.203c-0.123,0.14-0.148,0.293-0.115,0.439
		c-0.103,0.152-0.133,0.353-0.048,0.544c0.048,0.114,0.199,0.147,0.306,0.125c0.096-0.019,0.194-0.023,0.29-0.018
		c0.232,0.177,0.484,0.339,0.71,0.508c0.249,0.148,0.447-0.113,0.374-0.328C102.207,132.967,102.217,132.842,102.098,132.746"/>
	<path fill="#FFFFFF" d="M106.808,138.016c-0.076-0.015-0.158-0.002-0.232,0.063c-0.327,0.295-0.254,0.825,0.114,1.047
		c0.18,0.108,0.405-0.032,0.41-0.234c0.004-0.207,0.007-0.414,0.013-0.62C107.116,138.079,106.956,137.997,106.808,138.016"/>
	<path fill="#FFFFFF" d="M108.536,135.145v0.612c0,0.351,0.544,0.351,0.544,0v-0.612
		C109.079,134.796,108.536,134.795,108.536,135.145"/>
	<path fill="#FFFFFF" d="M106.017,139.025c-0.524,0.084-0.837,0.618-0.77,1.113c-0.302,0.079-0.159,0.564,0.173,0.513
		c0.083-0.012,0.167-0.026,0.249-0.038c0.176-0.026,0.245-0.263,0.162-0.399c-0.167-0.276,0.026-0.615,0.33-0.665
		C106.506,139.495,106.359,138.97,106.017,139.025"/>
	<path fill="#FFFFFF" d="M101.313,136.879c-0.097-0.089-0.208-0.142-0.322-0.161c0-0.072,0.002-0.143,0.002-0.214
		c0.005-0.35-0.539-0.35-0.543,0c-0.002,0.173-0.004,0.347-0.007,0.521c-0.001,0.164,0.144,0.273,0.292,0.264
		c0.105,0.014,0.209,0.03,0.313,0.045C101.29,137.368,101.537,137.083,101.313,136.879"/>
	<path fill="#FFFFFF" d="M101.955,137.832c-0.19-0.114-0.368-0.02-0.538,0.085c-0.239-0.119-0.527,0.212-0.306,0.437
		c0.16,0.166,0.351,0.313,0.594,0.3c0.201-0.012,0.401-0.146,0.449-0.349C102.194,138.127,102.112,137.925,101.955,137.832"/>
	<path fill="#FFFFFF" d="M99.286,138.035c-0.027-0.017-0.054-0.029-0.083-0.041c-0.05-0.15-0.21-0.263-0.381-0.153
		c-0.064,0.041-0.108,0.095-0.159,0.146c-0.021,0.014-0.036,0.029-0.05,0.045c-0.103,0.115-0.187,0.242-0.23,0.403
		c-0.065,0.244,0.191,0.405,0.398,0.307c0.169-0.08,0.337-0.158,0.505-0.237C99.481,138.415,99.444,138.137,99.286,138.035"/>
	<path fill="#FFFFFF" d="M83.857,124.267c-0.152-0.178-0.368-0.185-0.584-0.204c-0.085-0.006-0.165-0.029-0.239-0.057
		c0.001-0.085-0.029-0.171-0.115-0.232c-0.122-0.085-0.251-0.143-0.392-0.184c-0.094-0.105-0.26-0.149-0.393-0.024
		c-0.31,0.295-0.183,0.764,0.111,1.022c0.326,0.285,0.77,0.35,1.188,0.355c0.197,0.002,0.404,0.021,0.501-0.185
		C84.011,124.594,83.973,124.402,83.857,124.267"/>
	<path fill="#FFFFFF" d="M95.641,124.551c-0.095-0.333-0.387-0.38-0.618-0.571c-0.477-0.392-0.836-0.881-1.304-1.251
		c-0.337-0.267-0.752-0.351-1.19-0.373c-0.117-0.031-0.238-0.053-0.363-0.069c-0.807-0.099-1.534-0.089-2.302-0.414
		c-0.094-0.038-0.17-0.018-0.227,0.029c-0.149-0.009-0.304,0.083-0.287,0.258c0.056,0.615-0.003,1.392,0.214,1.97
		c0.012,0.032,0.03,0.056,0.046,0.084c-0.417-0.01-0.89,0.015-1.273,0.035c-0.067-0.099-0.168-0.192-0.323-0.273
		c-0.147-0.078-0.286-0.019-0.365,0.107c-0.088-0.101-0.206-0.184-0.377-0.26c-0.317-0.141-0.593,0.328-0.274,0.47
		c0.115,0.138,0.23,0.275,0.345,0.414c0.002,0.007,0.009,0.011,0.012,0.018c0.005,0.034,0.014,0.068,0.031,0.094
		c0.317,0.508,0.865,0.286,1.01-0.088c0.361,0.114,0.607,0.098,1.125,0.188c0.114-0.011,0.222-0.042,0.326-0.093
		c0.51,0.103,0.83,0.37,0.963,0.802c0.089,0.199,0.369,0.156,0.47,0c0.475-0.733,1.747-0.597,2.503-0.542
		c-0.3-0.021,1.222,0.332,1.321,0.309C95.522,125.293,95.769,125.011,95.641,124.551"/>
	<path fill="#FFFFFF" d="M100.233,125.709c-0.33-0.262-0.739-0.348-1.142-0.456c-0.199-0.053-0.398-0.098-0.598-0.142
		c-0.279-0.188-0.642-0.126-0.974-0.187c-0.181-0.03-0.305,0.103-0.333,0.243c-0.125,0.125-0.172,0.271-0.102,0.467
		c0.103,0.28,0.332,0.311,0.587,0.353c0.408,0.069,0.338,0.144,0.613,0.317c0.129,0.081,0.252,0.13,0.407,0.14
		c0.458,0.025,0.976-0.179,1.419-0.279C100.299,126.122,100.392,125.837,100.233,125.709"/>
	<path fill="#FFFFFF" d="M87.078,120.324c-0.247-0.249-0.412-0.605-0.609-0.815c-0.093-0.099-0.069-0.17-0.22-0.284
		c-0.276-0.207-0.792-0.176-1.12-0.324c-0.789-0.356-1.385-1.154-2.044-1.707c-0.915-0.768-1.989-1.605-3.085-2.091
		c-0.838-0.372-1.664-0.306-2.481-0.069c-0.761,0.007-1.481,0.316-2.024,0.867c-0.057,0.058-0.079,0.125-0.076,0.188
		c-0.019,0.013-0.039,0.026-0.059,0.04c-0.088,0.061-0.172,0.193-0.125,0.307c0.017,0.04,0.033,0.079,0.05,0.118
		c0.065,0.156,0.224,0.201,0.355,0.169c0.118,0.128,0.328,0.153,0.429-0.027c0.126-0.09,0.252-0.181,0.377-0.272
		c0.086-0.011,0.15-0.057,0.198-0.114c0.186,0.144,0.433,0.028,0.445-0.191c0.375-0.127,0.744-0.192,1.106-0.193
		c0.213,0.093,0.434,0.214,0.64,0.338c0,0.001,0,0.002,0,0.005c0.03,0.048,0.017,0.077-0.041,0.088
		c-0.207,0.102-0.158,0.448,0.065,0.497c0.284,0.062,0.544,0.025,0.783-0.103c0.009,0.005,0.021,0.012,0.03,0.015
		c0.267,0.124,0.422,0.022,0.644,0.23c0.271,0.252,0,0.158,0.253,0.453c0.45,0.526,0.887,0.523,1.57,0.385
		c0.014-0.002,0.024-0.009,0.037-0.014c0.112,0.085,0.224,0.171,0.328,0.266c0.138,0.54,0.254,1.205,0.442,1.479
		c0.244,0.354,0.585,0.577,0.959,0.744c-0.316,0.11-0.628,0.235-0.938,0.387c-0.197,0.096-0.166,0.464,0.065,0.497
		c1.404,0.194,2.796,0.262,4.211,0.188c0.194-0.009,0.288-0.165,0.263-0.343C87.442,120.567,87.427,120.678,87.078,120.324"/>
	<path fill="#FFFFFF" d="M89.716,119.583c-0.072-0.086-0.143-0.172-0.216-0.258c-0.223-0.269-0.606,0.118-0.383,0.384
		c0,0,0,0.001,0.001,0.002c0.04,0.242,0.227,0.366,0.477,0.326C89.818,120,89.832,119.72,89.716,119.583"/>
	<path fill="#FFFFFF" d="M84.542,112.225c-0.169-0.179-0.454-0.035-0.463,0.192c-0.007,0.134-0.013,0.269-0.02,0.402
		c-0.002,0.054-0.004,0.109-0.007,0.164c-0.075,0.042-0.136,0.11-0.149,0.214c-0.042,0.31,0.365,0.452,0.567,0.245
		c0.037-0.037,0.06-0.078,0.076-0.121c0.084-0.019,0.162-0.071,0.2-0.172C84.869,112.819,84.78,112.477,84.542,112.225"/>
	<path fill="#FFFFFF" d="M84.777,113.902h-0.272c-0.35,0-0.351,0.542,0,0.542h0.272C85.128,114.445,85.128,113.902,84.777,113.902"
		/>
	<path fill="#FFFFFF" d="M77.168,116.982c-0.35,0-0.351,0.544,0,0.544C77.518,117.526,77.519,116.982,77.168,116.982"/>
	<path fill="#FFFFFF" d="M104.601,127.583c-0.06-0.003-0.084-0.035-0.073-0.093c0.003-0.35-0.54-0.35-0.544,0
		c-0.002,0.3,0.181,0.543,0.473,0.617C104.794,128.195,104.939,127.67,104.601,127.583"/>
	<path fill="#FFFFFF" d="M106.135,129.017c-0.145-0.037-0.31-0.008-0.416,0.104c-0.042,0.043-0.077,0.109-0.097,0.166
		c-0.007,0.031-0.01,0.063-0.016,0.095c-0.003,0.002-0.002,0-0.007,0.002c-0.042,0.013-0.079,0.032-0.113,0.058
		c-0.053,0.039-0.097,0.085-0.128,0.145c-0.076,0.144-0.058,0.307-0.028,0.459c0.046,0.242,0.317,0.239,0.452,0.097
		c0.025-0.022,0.043-0.045,0.058-0.074c0.031-0.019,0.061-0.047,0.084-0.084c-0.041,0.062,0.062,0.035,0.131,0.034
		c0.078-0.002,0.158-0.004,0.234-0.029c0.13-0.041,0.234-0.129,0.285-0.255C106.686,129.451,106.414,129.087,106.135,129.017"/>
	<path fill="#FFFFFF" d="M106.379,130.954c-0.083-0.221-0.451-0.277-0.51,0.007c-0.038,0.181-0.025,0.363,0.135,0.48
		c0.156,0.114,0.342,0.085,0.475-0.047C106.636,131.236,106.537,131.023,106.379,130.954"/>
	<path fill="#FFFFFF" d="M106.974,132.622c-0.105-0.322-0.456-0.586-0.792-0.497c-0.338,0.09-0.194,0.614,0.144,0.524
		c0.004-0.003,0.008,0.001,0.012,0c-0.004,0.001-0.01,0.004-0.013,0.007c-0.106,0.081-0.148,0.211-0.109,0.339
		c0.062,0.193,0.265,0.222,0.402,0.15c0.025,0.001,0.051,0.007,0.077,0c0.062-0.012,0.128-0.046,0.176-0.087
		C106.99,132.951,107.022,132.769,106.974,132.622"/>
	<path fill="#FFFFFF" d="M106.872,133.794c-0.07-0.129-0.249-0.17-0.372-0.098c-0.137,0.08-0.256,0.101-0.41,0.089
		c-0.349-0.027-0.346,0.518,0,0.544c0.144,0.011,0.281-0.013,0.414-0.052c0.153,0.089,0.413,0.017,0.432-0.22
		C106.943,133.952,106.921,133.885,106.872,133.794"/>
	<path fill="#FFFFFF" d="M105.886,135.044v0.067c0,0.35,0.543,0.35,0.543,0v-0.067C106.429,134.694,105.886,134.694,105.886,135.044
		"/>
	<path fill="#FFFFFF" d="M105.411,137.084c0.011-0.136,0.023-0.272,0.035-0.409c0.028-0.349-0.516-0.348-0.545,0
		c-0.002,0.044-0.007,0.089-0.011,0.135c-0.057,0.016-0.11,0.045-0.152,0.104c-0.16,0.226-0.07,0.417,0.1,0.535
		c-0.005,0.053-0.009,0.108-0.013,0.161c-0.019,0.226,0.317,0.372,0.463,0.192c0.11-0.135,0.184-0.262,0.226-0.434
		C105.539,137.264,105.492,137.15,105.411,137.084"/>
	<path fill="#FFFFFF" d="M165.828,173.5c-0.066-0.103-0.158-0.168-0.27-0.213c-0.067-0.027-0.136-0.039-0.205-0.062
		c-0.006,0-0.013-0.007-0.021-0.007c0.198-0.088,0.238-0.432-0.032-0.51c-0.166-0.045-0.312-0.008-0.433,0.104
		c-0.207,0.02-0.385,0.096-0.552,0.229c-0.159,0.127-0.093,0.309,0.043,0.395c-0.012,0.043-0.014,0.091,0.001,0.141
		c0.077,0.234,0.309,0.338,0.538,0.256c0.119,0.069,0.202,0.187,0.348,0.283c0.188,0.135,0.446,0.122,0.588-0.07
		C165.954,173.884,165.934,173.662,165.828,173.5"/>
	<path fill="#FFFFFF" d="M161.925,171.56c-0.003,0.02-0.017,0.105-0.066,0.084c-0.315-0.145-0.593,0.324-0.275,0.469
		c0.35,0.16,0.792,0.002,0.866-0.404C162.511,171.365,161.986,171.216,161.925,171.56"/>
	<path fill="#FFFFFF" d="M155.464,171.792c-0.274-0.164-0.561-0.207-0.875-0.151c-0.343,0.063-0.198,0.587,0.145,0.526
		c0.167-0.031,0.312,0.008,0.457,0.096C155.49,172.445,155.763,171.976,155.464,171.792"/>
	<path fill="#FFFFFF" d="M120.868,228.94c-0.518-0.153-1.051-0.215-1.59-0.178c-0.348,0.021-0.35,0.563,0,0.54
		c0.231-0.016,0.459-0.01,0.685,0.016c0,0.045,0.005,0.092,0.02,0.146c0.035,0.119,0.142,0.195,0.263,0.199
		c0.287,0.012,0.526-0.082,0.741-0.271C121.149,229.257,121.051,228.996,120.868,228.94"/>
	<path fill="#FFFFFF" d="M144.077,231.412c-0.096,0.047-0.179,0.047-0.227,0.148c0.149-0.312-0.321-0.592-0.47-0.273
		c-0.111,0.234-0.061,0.488,0.158,0.646c0.256,0.182,0.557,0.074,0.812-0.053C144.664,231.724,144.39,231.255,144.077,231.412"/>
	<path fill="#FFFFFF" d="M126.4,237.046c-0.193-0.014-0.356-0.039-0.52-0.053c-0.278-0.011-0.51,0.045-0.719,0.139
		c-0.411-0.055-0.813-0.115-1.224-0.184c0.17-0.089,0.186-0.183,0.402-0.3c0.209-0.112,0.411-0.168,0.612-0.209
		c0.488-0.146,1.029-0.028,1.517,0.067C126.771,236.574,126.702,237.08,126.4,237.046"/>
	<path fill="#FFFFFF" d="M118.744,49.041c-0.061-0.396-0.569-0.317-0.857-0.322c-0.116-0.001-0.189,0.06-0.229,0.138
		c-0.007,0.002-0.017,0.005-0.024,0.006c-0.299,0.071-0.234,0.537,0.073,0.534c0.018,0,0.066,0.008,0.122,0.023
		c0.002,0.181,0.158,0.345,0.285,0.496c0.105,0.122,0.359,0.099,0.427-0.056c0.066-0.153,0.066-0.296,0.028-0.428
		c0.011-0.009,0.025-0.018,0.033-0.024C118.703,49.318,118.765,49.177,118.744,49.041"/>
	<path fill="#FFFFFF" d="M122.694,49.909c-0.466-0.008-0.932-0.013-1.397-0.026c-0.304-0.007-0.602-0.054-0.903-0.087
		c0.056-0.03,0.11-0.064,0.161-0.103c0.167-0.122,0.451-0.284,0.451-0.517c0-0.21-0.194-0.319-0.385-0.305
		c-0.104,0.007-0.195,0.048-0.276,0.111c-0.06,0.047-0.178,0.263-0.239,0.268c-0.096,0.008-0.163,0.057-0.204,0.12
		c-0.002,0-0.006,0-0.008,0c-0.102-0.008-0.17,0.035-0.213,0.099c-0.215,0.108-0.161,0.428,0.042,0.496
		c-0.043,0.158,0.05,0.339,0.251,0.343c0.444,0.012,0.877,0.109,1.323,0.121c0.466,0.012,0.932,0.017,1.397,0.025
		C123.044,50.46,123.044,49.916,122.694,49.909"/>
	<path fill="#FFFFFF" d="M118.119,55.497c-0.297-0.025-0.591-0.025-0.887-0.001c-0.13,0.011-0.211,0.095-0.244,0.194
		c-0.083,0.043-0.163,0.092-0.25,0.13c-0.25,0.113-0.12,0.517,0.137,0.506c0.325-0.012,0.622,0.366,0.898-0.003
		c0.108-0.144,0.04-0.181,0.219-0.205c0.165-0.019,0.263-0.079,0.361-0.213C118.485,55.724,118.302,55.513,118.119,55.497"/>
	<path fill="#FFFFFF" d="M149.845,53.47c-0.096-0.029-0.175-0.053-0.248-0.076c-0.094-0.077-0.213-0.131-0.342-0.176
		c-0.099-0.095-0.168-0.234-0.239-0.488c-0.117-0.417-0.082-0.482-0.086-0.831c-0.006-0.296-0.121-0.513-0.314-0.73
		c-0.12-0.136-0.281-0.234-0.401-0.371c-0.144-0.165-0.162-0.344-0.286-0.494c-0.2-0.243-0.502-0.193-0.698-0.423
		c-0.038-0.042-0.078-0.063-0.119-0.076c-0.26-0.216-0.527-0.418-0.776-0.607c-0.142-0.255-0.299-0.501-0.477-0.737
		c-0.031-0.042-0.07-0.068-0.112-0.085c-0.125-0.203-0.279-0.344-0.458-0.441c0.136-0.018,0.276-0.027,0.413-0.051
		c0.264-0.047,0.546-0.211,0.438-0.533c-0.124-0.363-0.54-0.289-0.831-0.265c-0.638,0.054-1.277,0.058-1.916,0.028
		c-0.024-0.001-0.04,0.01-0.061,0.014c-1.187-0.969-3.291-0.524-4.597-0.317c-0.548,0.086-1.056,0.174-1.609,0.241
		c-0.719,0.088-1.29,0.272-2.022,0.073c-0.553-0.151-1.106-0.3-1.658-0.45c-0.38-0.282-0.733-0.562-1.33-0.484
		c-0.065,0.009-0.115,0.04-0.155,0.077c-1.043-0.19-2.22-0.027-3.184,0.127c-0.256,0.042-0.458,0.101-0.715,0.181
		c-0.679,0.21-0.475,0.215-1.648,0.448c-0.799,0.159-1.618,0.425-2.417,0.683c-0.289,0.094-0.241,0.527,0.072,0.535
		c0.579,0.545,0.384,0.739-0.584,0.582c-0.33,0.018-0.659,0.015-0.988-0.007c-0.35-0.014-0.35,0.529,0,0.543
		c0.549,0.021,1.679,0.191,2.199-0.215c0.022,0.001,0.043,0.01,0.069,0.006c0.338-0.057,0.624-0.229,0.914-0.39
		c0.054-0.009,0.108-0.018,0.16-0.029c0.203-0.028,0.407-0.068,0.576-0.151c0.227-0.071,0.454-0.152,0.692-0.248
		c1.213-0.49,2.256-0.738,3.579-0.784c0.632-0.022,1.202,0.03,1.729,0.146c-0.031,0.091-0.049,0.191-0.043,0.309
		c-0.295-0.046-0.573,0.005-0.836,0.15c-0.148,0.051-0.261,0.142-0.354,0.246c-0.02-0.005-0.036-0.013-0.059-0.013
		c-0.356-0.004-0.702-0.004-1.042,0.117c-0.324,0.115-0.603,0.327-0.954,0.371c-0.153,0.02-0.26,0.108-0.271,0.272l-0.431,0.321
		c-0.339,0.038-0.359,0.54,0,0.542c0.544,0.005,1.541-0.101,2.412-0.018c0.079,0.035,0.156,0.073,0.233,0.112
		c0.039,0.083,0.111,0.152,0.225,0.165c0.036,0.004,0.069,0.014,0.103,0.022c0.195,0.131,0.366,0.287,0.484,0.493
		c0.286,0.495,0.405,1.068,0.476,1.635c-0.131,0.33-0.481,0.639-0.812,0.685c-0.35,0.069-0.192,0.57,0.145,0.523
		c0.295,0.096,0.591,0.192,0.887,0.288c-0.029,0.099-0.068,0.195-0.114,0.287c-0.009-0.004-0.014-0.012-0.023-0.015
		c-0.27-0.089-0.486-0.021-0.718,0.128c-0.153,0.1-0.259,0.211-0.435,0.277c-0.131,0.049-0.244,0.065-0.368,0.139
		c-0.157,0.094-0.197,0.386,0,0.469c0.103,0.044,0.168,0.069,0.28,0.058c0.089-0.009,0.461-0.233,0.501-0.066
		c0.039,0.162,0.178,0.205,0.309,0.174c0.101,0.206,0.457,0.243,0.508-0.027c0.02-0.1,0.027-0.191,0.028-0.281
		c0.019-0.026,0.046-0.049,0.076-0.073c0.032,0.114,0.065,0.229,0.099,0.346c0.077,0.269,0.108,0.535,0.1,0.803
		c-0.376,0.028-0.796,0.004-1.089,0.14c-0.438,0.204-0.913,0.563-1.056,1.05c-0.165,0.56,0.056,0.948,0.417,1.172
		c-0.011,0.077-0.015,0.158-0.001,0.248c0.048,0.315,0.265,0.571,0.329,0.87c0.093,0.427-0.006,0.764,0.206,1.166
		c0.2,0.383,0.536,0.719,0.808,1.045c0.097,0.115,0.193,0.229,0.29,0.339c0.222,0.659,0.673,1.058,1.442,1.386
		c0.335,0.141,0.46,0.027,0.798,0.009c0.316-0.232,0.66-0.203,1.033,0.087c0.037,0.075,0.073,0.15,0.11,0.227
		c0.232,0.218,0.414,0.543,0.65,0.775c0.104,0.103,0.279,0.104,0.384,0c0.17-0.17,0.243-0.271,0.34-0.498
		c0.183-0.43,0.36-0.835,0.575-1.25c0.25-0.478,0.202-0.753-0.039-1.23c0.14-0.187,0.37-0.251,0.727-0.417
		c0.468-0.216,0.652-0.415,0.835-0.913c0.233-0.638,0.414-1.256,0.672-1.867c1.125-0.042,2.208-0.307,3.19-0.897
		c0.485-0.291,0.869-0.668,1.313-1.013c0.875-0.683,1.652-0.83,2.688-0.833c0.071,0.004,0.145,0.004,0.221,0h0.001
		c0.07-0.006,0.142-0.015,0.217-0.029c0.031-0.007,0.052-0.023,0.08-0.031c0.164-0.021,0.316-0.058,0.465-0.127
		c0.213-0.097,0.399-0.276,0.646-0.288c0.254-0.01,0.333-0.28,0.192-0.463c-0.245-0.317-0.599-0.415-0.983-0.344
		c-0.089-0.125-0.207-0.23-0.356-0.288c0.014-0.03,0.03-0.062,0.043-0.092c0.049-0.042,0.076-0.105,0.086-0.183
		c0.054-0.116,0.105-0.232,0.157-0.349c0.021,0.01,0.04,0.021,0.068,0.026c0.076,0.014,0.368,0.049,0.62,0.113
		c0.119,0.071,0.243,0.13,0.375,0.178c0.014,0.023,0.028,0.044,0.025,0.069c-0.028,0.2,0.183,0.469,0.397,0.307
		c0.193-0.144,0.239-0.205,0.332-0.428C150.093,53.666,149.971,53.509,149.845,53.47"/>
	<path fill="#FFFFFF" d="M153.18,58.226c-0.015-0.019-0.029-0.035-0.042-0.053c-0.007-0.031-0.015-0.062-0.032-0.092
		c-0.103-0.195-0.369-0.235-0.561-0.301c-0.185-0.04-0.304,0.084-0.327,0.222c-0.305,0.044-0.295,0.535,0.041,0.535
		c0.138,0.001,0.324,0.022,0.493,0.006C152.959,58.752,153.36,58.502,153.18,58.226"/>
	<path fill="#FFFFFF" d="M158.594,58.597c-0.197-0.451-0.876-0.616-1.273-0.81c-0.561-0.274-0.965-0.255-1.55-0.024
		c-0.467,0.184-0.907,0.303-1.385,0.439c-0.135,0.039-0.236,0.01-0.344,0.122c0,0,0,0.001-0.001,0.001
		c-0.137-0.03-0.292,0.026-0.316,0.186c-0.039,0.036-0.074,0.073-0.111,0.109c-0.317,0.051-0.216,0.492,0.068,0.521
		c-0.028,0.162,0.053,0.347,0.249,0.334c0.04-0.003,0.229,0.377,0.272,0.413c0.163,0.126,0.389,0.125,0.585,0.157
		c0.637,0.102,1.461,0.366,2.11,0.243c0.308-0.059,0.586-0.266,0.897-0.339c0.196-0.047,0.431-0.028,0.602-0.16
		C158.699,59.55,158.738,58.927,158.594,58.597"/>
	<path fill="#FFFFFF" d="M236.131,140.444c-0.008,1.928-0.1,3.847-0.302,5.75c0.032,0.449,0.062,0.897,0.085,1.354v0.009
		c-1.269,18.989-7.988,36.466-18.617,50.918c-0.254,0.226-0.51,0.42-0.782,0.582c-1.679,2.06-3.591,4.062-6.092,4.954
		c-0.255,0.084-0.394-0.211-0.31-0.403c0.403-0.952,0.945-1.733,1.681-2.469c0.007-0.011,0.015-0.011,0.023-0.015
		c0.254-0.828,0.434-1.66,0.642-2.5c0.256-1.008,0.937-1.668,0.829-2.769c-0.101-0.157-0.147-0.354-0.108-0.58
		c0.24-1.339,0.976-2.452,1.315-3.771c0.255-0.98,0.48-1.879,0.836-2.81c0.867-2.263-0.232-4.813,0.435-7.263
		c0.696-2.562,1.711-5.502,2.957-7.854c0.347-0.646,0.766-1.199,1.277-1.603c-0.017-0.755-0.024-1.503-0.017-2.263
		c0.024-2.021,0.581-4.319,0.102-6.311c-0.009-0.007-0.009-0.018-0.016-0.027c-0.564-1.535-0.688-3.162-1.392-4.646
		c-0.558-1.165-1.579-2.285-1.874-3.54c-0.363-1.57,0.906-2.326,0.806-3.984c0-0.115,0.015-0.213,0.046-0.305
		c0-0.225-0.008-0.455-0.024-0.693c-0.016-0.123,0-0.232,0.04-0.326c-0.108-0.682-0.015-1.418,0.131-2.143
		c-0.015-0.039-0.023-0.078-0.031-0.125c-0.155-1.154-0.573-2.082-1.268-2.941c-0.132,0.062-0.256,0.125-0.388,0.185
		c-0.077,0.08-0.163,0.142-0.263,0.194c-0.085,0.046-0.178,0.072-0.263,0.087c-0.574,0.299-1.154,0.586-1.811,0.711
		c-0.333,0.062-0.759-0.033-0.914-0.373c-0.278-0.586-0.387-1.19-0.487-1.796c-0.194-0.146-0.395-0.285-0.636-0.4
		c-1.819-0.892-3.344,0.201-4.753,1.236c-1.756,1.311-2.731,1.798-4.89,1.837c-1.89,0.039-3.012,0.503-4.621,1.308
		c-0.698,0.352-1.247,0.754-2.075,0.668c-1.518-0.146-2.601-1.479-3.762-2.556c-0.318-0.226-0.62-0.472-0.906-0.729
		c-0.479-0.332-0.998-0.569-1.586-0.625c-0.333-0.028-0.712-0.226-0.782-0.596c-0.077-0.107-0.163-0.217-0.24-0.318
		c-0.519-0.039-0.936-0.491-0.783-1.037c0.542-1.896-2.979-4.822-4.141-6.077c-0.023-0.015-0.031-0.038-0.055-0.055
		c-0.264-0.054-0.526-0.116-0.782-0.193c-0.618-0.178-1.215-0.387-1.308-1.129c-0.209-1.811,2.183-0.085-0.666-3.057
		c-0.465-0.48-0.155-1.432,0.573-1.385c-0.379-0.023,0.387-2.934,0.395-2.965c0.348-1.842,0.092-1.68-0.449-3.08
		c-0.093-0.255-0.341-0.472-0.418-0.743c-0.125-0.479,0.208-1.246-0.024-1.68c-0.124-0.217-0.131-0.473-0.053-0.697
		c-0.086-0.085-0.171-0.179-0.255-0.271c-0.217-0.163-0.404-0.356-0.551-0.573c-0.061-0.07-0.124-0.131-0.185-0.194
		c-0.386-0.302-0.412-0.773-0.232-1.13c-0.008-0.186-0.008-0.378,0.015-0.588c0.07-0.728,0.193-1.44,0.465-2.122
		c0.642-1.648,0.921-1.803,1.315-3.816c0.217-1.138,1.496-2.934,1.541-3.809c0.047-0.867,1.038-1.037,1.524-0.411
		c0.217-0.333,0.458-0.634,0.705-0.93c0.101-0.13,0.216-0.255,0.386-0.426c0.812-1.478,0.511-2.957,0.156-4.69
		c-0.202-0.983-0.202-2.028,0.363-2.903c0.349-0.534,0.828-0.952,1.37-1.239c0.109-0.201,0.208-0.402,0.294-0.612
		c0.232-0.612,0.163-1.277,0.108-1.92c-0.045-0.634,0.828-0.681,1.038-0.177c0.046-0.008,0.093-0.024,0.147-0.016
		c1.022,0.092,2.02,0.109,3.035,0.131c0.04-0.031,0.086-0.055,0.125-0.086c1.137-1.169,2.229-2.353,3.685-3.096
		c0.372-0.194,0.565-0.426,0.904-0.558c0.48-0.187,1.077-0.17,1.587-0.348c0.773-0.271,1.354-0.504,2.144-0.295
		c0.651-0.247,1.169-0.673,1.811-0.634c0.023-0.016,0.055-0.031,0.094-0.04c0.225-0.038,0.396-0.023,0.542,0.047
		c0.17-0.139,0.464-0.078,0.426,0.178c-0.008,0.07-0.008,0.124-0.016,0.178c0.186,0.263,0.247,0.626,0.465,0.859
		c0.263,0.302,0.65,0.442,0.905,0.758c0.341,0.426,0.333,0.868,0.356,1.394c0.031,0.549,0.125,1.037,0.31,1.47
		c0,0,0.008,0,0.008,0.008c0.014-0.008,0.03-0.008,0.045-0.008c0.86,0.023,1.58,0.565,2.438,0.674
		c0.836,0.108,1.494,0.101,2.284,0.479c0.702,0.333,1.207,0.836,1.804,1.316c0.014,0.015,0.038,0.023,0.053,0.039
		c1.045,0.479,2.044,0.883,3.166,1.115c0.054-0.433,0.031-0.913-0.014-1.37c-0.255-0.256-0.503-0.541-0.681-0.867
		c-0.101-0.178-0.209-0.859-0.216-0.859c-0.271-0.178-0.403-0.627-0.117-0.859c0.271-0.217,0.527-0.403,0.837-0.565
		c0.356-0.193,0.689,0.055,0.783,0.356c0.324,0.046,0.572,0.193,0.843,0.379c0.232,0.038,0.449,0.139,0.635,0.287
		c0.023,0,0.046,0,0.07,0.007c0.697,0.232,1.409,0.333,2.137,0.217c0.301-0.046,0.58-0.155,0.867-0.232
		c-0.015-0.046-0.032-0.092-0.039-0.146c-0.155-0.681,0.889-0.968,1.043-0.287c0.008,0.108,0.046,0.209,0.101,0.302
		c0.062-0.093,0.132-0.186,0.217-0.279c0.023-0.264,0.023-0.534,0.007-0.805c-0.626-2.33-2.02-4.637-3.189-6.588
		c-0.488-0.619-0.998-1.208-1.556-1.764c-0.192,0.255-0.394,0.503-0.425,0.844c-0.015,0.216-0.293,0.386-0.464,0.193
		c-0.085-0.101-0.139-0.155-0.178-0.209l-0.619,0.426c0.031,0.107,0.047,0.2,0.053,0.208c0.039,0.271-0.24,0.456-0.457,0.271
		c-0.247-0.216-0.495-0.433-0.751-0.65c-0.866,0.394-1.185-1.44-1.942-1.486c-0.125-0.008-0.225-0.078-0.264-0.201
		c-0.279-0.891-0.727-0.597-1.076-1.106c-0.434-0.651-0.727-1.324-1.223-1.943c-0.038,0.04-0.1,0.062-0.169,0.055
		c-0.279-0.031-0.558-0.063-0.836-0.093c-0.14,0.449-0.187,1.068-0.503,1.439c0.278,0.24,0.488,0.596,0.828,0.666
		c0.203,0.047,0.249,0.31,0.117,0.457c0.155-0.162,0.51,0.597,0.541,0.643c0.279,0.44,0.713,0.254,1.076,0.534
		c0.217,0.17,0.147,0.487-0.14,0.511h-0.061c0.115,0.124,0.208,0.271,0.278,0.449c0.217,0.534,0.519,0.843,0.975,1.192
		c0.086,0.07,0.102,0.24,0.041,0.333c-0.125,0.186-0.326,0.278-0.551,0.209c-0.232-0.078-0.317-0.294-0.402-0.496
		c-0.046-0.101-0.094-0.201-0.156-0.294c-0.031-0.031-0.061-0.062-0.084-0.093c-0.016-0.015-0.023-0.031-0.032-0.046
		c-0.008-0.008-0.008-0.016-0.015-0.023c-0.13-0.108-0.309-0.101-0.449-0.193c-0.216-0.131-0.162-0.287-0.185-0.473
		c-0.078-0.101-0.078-0.224-0.032-0.318c-0.177-0.023-0.255-0.177-0.24-0.325c-0.318-0.092-0.588-0.279-0.975-0.557
		c-0.333-0.248-0.566-0.619-0.891-0.89c-0.247-0.209-0.463-0.434-0.666-0.681c-0.441-0.14-0.882-0.503-0.984-0.976
		c-0.278-0.248-0.518-0.526-0.681-0.736c-0.117-0.147-0.263-0.332-0.333-0.518c-1.393-1.199-3.127-1.37-4.784-2.229
		c-0.309-0.163-0.511-0.371-0.782-0.581c-0.612-0.472-1.169-0.619-1.827-0.929c-0.489-0.232-0.713-0.479-0.82-0.952
		c-0.093,0.062-0.186,0.132-0.28,0.201c0,0.039-0.013,0.085-0.046,0.124c-0.007,0.015-0.014,0.03-0.022,0.039
		c0,0.077,0.009,0.155,0.016,0.224c0.053,0.226,0.108,0.457,0.193,0.689c0.278,0.704,0.851,1.145,1.455,1.572
		c0.503,0.356,1.007,0.681,1.494,1.037c0.294,0.186,0.565,0.402,0.812,0.673c0.255,0.108,0.496,0.209,0.722,0.294
		c0.757,0.294,1.523,0.558,2.212,0.999c0.325,0.216,0.588,0.449,0.967,0.597c0.412,0.155,0.744,0.131,1.146,0.286
		c0.24,0.093,0.271,0.442,0,0.527c-0.426,0.124-0.534,0.317-0.479,0.557c0.457,0.526,0.836,1.129,1.106,1.75
		c0.015,0.038,0.04,0.078,0.054,0.115c0.008,0.023,0.016,0.047,0.031,0.07c0.108,0.286-0.38,0.487-0.503,0.208
		c-0.302-0.689-0.828-1.192-1.138-1.811c-0.062-0.069-0.125-0.14-0.193-0.201c-0.488-0.472-1.124-0.642-1.649-1.006
		c-0.155-0.109-0.286-0.271-0.425-0.395c-0.379-0.124-0.758-0.255-1.138-0.379c-0.255-0.031-0.511-0.047-0.774-0.125
		c-0.883-0.263-1.626-0.929-2.345-1.47c-1.006-0.75-1.99-1.485-3.151-1.989c-0.17,0.371-0.34,0.75-0.519,1.122
		c-0.14,0.294-0.279,0.859-0.565,1.068c-0.356,0.263-0.991-0.046-1.347-0.015c-0.271,0.015-0.821,0.07-1.199,0.24
		c-0.008,0.023-0.024,0.062-0.024,0.092c0.295,0.75,1.262,1.772,0.774,2.524c-0.317,0.471-0.735,0.34-0.968,1.029
		c-0.255,0.751-0.046,1.912,0.31,2.562c0.488,0.883,0.743,0.766,0.534,1.633c-0.2,0.859-0.557,1.316-1.084,1.804
		c0.148,0.17,0.187,0.372,0.032,0.597c-0.596,0.835-2.105-0.024-2.857,1.068c-0.039,0.061-0.092,0.093-0.162,0.115
		c-0.015,0.07-0.039,0.147-0.085,0.232c-0.085,0.162-0.302,0.162-0.426,0.055c-0.371-0.318-0.736-0.953-1.13-1.231
		c-0.302-0.1-0.627-0.193-0.928-0.271c-0.55-0.008-1.107,0.178-1.61,0.341c-0.132,0.038-0.31-0.047-0.332-0.193
		c-0.132-0.674-0.381-1.913-1.332-1.905c-0.294,0.007-0.34-0.356-0.14-0.503c0.418-0.301-0.324-2.654-0.457-3.05
		c-0.201-0.612-0.905-2.6-1.648-2.793c-0.232-0.062-0.263-0.379-0.063-0.496c0.094-0.062,0.194-0.124,0.288-0.178
		c0.069-0.256,0.247-0.464,0.542-0.526c0.131-0.023,0.24-0.023,0.349-0.015c0.023-0.017,0.045-0.031,0.07-0.04
		c0.007-0.007,0.014-0.007,0.022-0.016c0.046-0.03,0.101-0.062,0.163-0.07c1.13-0.077,2.237,0.231,3.367,0.217
		c0.789-0.054,1.479-0.379,2.253-0.402c-0.186-1.672-0.967-3.22-2.137-4.459c-1.075-0.89-2.593-1.502-3.754-1.657
		c-0.045,0-0.078-0.015-0.117-0.038c-0.255,0.116-0.488-0.225-0.294-0.441l-0.255-0.046c-0.356-0.03-0.348-0.496,0-0.542
		c0.124-0.016,0.232-0.008,0.34,0.016c0.658,0.031,1.27-0.063,1.89-0.279c-0.07-0.055-0.132-0.109-0.202-0.162
		c-0.039-0.024-0.084-0.047-0.125-0.079c-0.248-0.185-0.101-0.549,0.209-0.496c0.271,0.046,0.449,0.125,0.596,0.264
		c0.852,0.07,0.658-2.06,0.581-2.152c-0.108-0.124-0.116-0.349,0.055-0.434c0.294-0.146,0.556-0.248,0.867-0.309
		c0-0.604,0.147-1.672-0.372-2.036c-0.17-0.116-0.185-0.356,0-0.473c0.023-0.015,0.046-0.031,0.07-0.046
		c-0.07-0.015-0.147-0.039-0.202-0.085c-0.162-0.139-0.062-0.395,0.117-0.457c0.38-0.124,0.751-0.216,1.137-0.293
		c-0.015-0.03-0.022-0.07-0.022-0.109c-0.093-0.271-0.185-0.549-0.278-0.82c-0.225-0.264,0.155-0.651,0.379-0.38
		c0.1,0.116,0.177,0.225,0.24,0.341c0.046,0.007,0.092,0.031,0.131,0.069c0.031,0.023,0.055,0.047,0.069,0.07
		c0.38-0.078,0.891,0.022,1.038-0.326c0.071-0.177,0.256-0.24,0.403-0.146c0.186-0.116,0.496,0.054,0.417,0.301
		c0.07-0.208,0.233-0.131,0.371-0.225c0.296-0.015,0.498-0.162,0.604-0.434c0.162-0.208,0.318-0.425,0.465-0.65
		c0.132-0.209,0.465-0.131,0.503,0.077c0.023,0.015,0.054,0.023,0.085,0.046c0.471-0.155,0.727-0.394,0.767-0.704
		c-0.179-0.255-0.364-0.511-0.581-0.75c-0.108-0.132-0.318-0.411-0.558-0.658c-0.308-0.147-0.604-0.301-0.874-0.511
		c-0.039-0.008-0.077-0.008-0.124-0.015c-0.155-0.031-0.208-0.163-0.194-0.294c-0.014-0.024-0.045-0.04-0.061-0.07
		c-0.023-0.031-0.039-0.062-0.054-0.093c-0.14-0.062-0.255-0.186-0.333-0.372c-0.039-0.085,0.008-0.209,0.071-0.271
		c0.332-0.317,0.665-0.125,0.927,0.17c-0.046-0.131-0.052-0.255-0.039-0.371c-0.077-0.225-0.216-0.418-0.442-0.573l-0.271-0.24
		c-0.201-0.054-0.402-0.101-0.573-0.132c-0.402,0.457-1.255,0.48-1.378-0.271c-0.101-0.635,0.093-1.201,0.688-1.518
		c0-0.007,0.008-0.007,0.008-0.007c-0.023-0.031-0.046-0.055-0.063-0.085c-0.325-0.52-0.928-0.45-1.5-0.318
		c-0.009,0.015-0.016,0.03-0.024,0.046c-0.473,0.558-1.2,0.558-1.812,0.225c-0.448-0.248-0.867-0.581-1.269-0.937
		c-0.62-0.41-1.223-0.891-1.765-1.377c-0.767-0.689-1.952-2.57-3.05-2.616c-0.046-0.008-0.085-0.015-0.132-0.023
		c-0.092,0.139-0.239,0.248-0.457,0.294c-0.2-0.007-0.34,0.084-0.417,0.271c-0.015,0.023-0.031,0.039-0.046,0.054
		c1.107,0.743,2.415,1.819,2.935,3.088c0.55,0.395,1.091,0.766,1.563,1.106c0.317,0.233,0.635,0.458,0.944,0.682
		c0.031-0.008,0.07-0.016,0.109-0.016c0.541,0.054,1.014,0.193,1.431,0.565c0.442,0.411,0.55,0.944,0.812,1.44
		c0.062,0.069,0.11,0.146,0.14,0.231c0.48,0.705,1.455,1.045,1.896,1.758c0.294,0.479,0.046,0.967,0.264,1.494
		c0.07,0.178-0.109,0.332-0.264,0.34c-0.58,0.047-0.843,0.627-1.385,0.743c-0.022,0.008-0.046,0.008-0.071,0.008
		c-0.185,0.101-0.394,0.132-0.65,0.046c-0.116-0.038-0.216-0.124-0.309-0.208c-0.093-0.04-0.178-0.078-0.264-0.117
		c-0.62-0.294-1.192-0.667-1.556-1.191c-0.031-0.024-0.07-0.047-0.1-0.07c-0.131-0.093-0.155-0.216-0.109-0.325
		c-0.062-0.155-0.116-0.325-0.146-0.511c-0.032-0.208,0.179-0.456,0.402-0.309c0.766,0.518,1.532,0.937,1.896,1.818
		c0.008,0.016,0.008,0.023,0.008,0.04c0.101,0.077,0.209,0.13,0.34,0.155c0.046,0.007,0.085,0.007,0.116,0.015
		c0.062,0,0.124-0.008,0.186-0.015c0-0.031,0.022-0.078,0.116-0.131c0.379-0.248,0.51-0.526,0.488-0.797
		c-0.418-0.62-0.922-1.13-1.533-1.58c-0.147,0.015-0.31-0.023-0.472-0.139c-0.565-0.379-1.208-0.859-1.896-1.007
		c-0.403-0.085-0.828,0.024-1.23,0.086c-0.07,0.596-0.674,0.89-1.216,0.635c-0.642-0.31-2.12-1.092-3.119-2.005
		c-0.775-0.487-1.471-1.076-1.534-1.671c-0.039-0.403,0.264-0.535,0.38-0.852c0.256-0.689-0.185-0.689-0.48-1.083
		c-0.053-0.078-0.038-0.194,0-0.278c0.171-0.333-0.293-0.954-0.757-1.479c-0.078-0.085-0.164-0.17-0.241-0.256
		c-0.201-0.224-0.387-0.411-0.487-0.534c-0.782-0.937-1.572-1.795-2.655-2.369c-0.203-0.108-0.163-0.449,0.062-0.496
		c0.131-0.031,0.271-0.062,0.402-0.092c-0.054-0.24,0.031-0.449,0.271-0.674c0.179-0.162,0.411-0.03,0.457,0.14
		c0.022-0.14,0.148-0.279,0.334-0.248c1.718,0.302,3.483,0.511,5.169,0.929c0.906,0.224,1.727,0.743,2.517,1.285
		c0.023-0.07,0.053-0.14,0.093-0.201c0-0.039-0.008-0.077-0.008-0.117c0.008-0.557,0.48-0.828,0.921-0.782h0.008
		c33.308,15.226,56.498,48.719,56.777,87.67v0.149l0,0V140.444L236.131,140.444z"/>
	<path fill="#FFFFFF" d="M174.517,71.372c-0.077-0.581-0.832-0.796-1.033-1.308c-0.195-0.5-0.006-0.95-0.551-1.268
		c-0.258-0.151-0.749-0.274-1.056-0.143c-0.076,0.006-0.155,0.011-0.232,0.017c-0.175,0.012-0.312,0.164-0.262,0.344
		c0.011,0.116,0.005,0.22-0.011,0.316c-0.012,0.036-0.022,0.07-0.034,0.106c-0.075,0.251-0.251,0.424-0.546,0.503
		c-0.271,0.094-0.251,0.563,0.073,0.534c1.028-0.094,0.57,1.123,0.755,1.737c0.117,0.387,0.408,0.392,0.796,0.396
		c0.233,0.001,0.471-0.014,0.692-0.094c0.293-0.106,0.483-0.342,0.765-0.458C174.227,71.909,174.582,71.86,174.517,71.372"/>
	<path fill="#FFFFFF" d="M181.569,72.313c-0.637-0.233-0.095-1.066-0.39-1.525c-0.386-0.604-2.035,0.043-2.111-0.604
		c-0.016-0.128-0.076-0.217-0.199-0.261c-0.952-0.339-1.644-1.272-2.538-1.755c-0.779-0.421-1.624-0.707-2.462-0.986
		c-0.063-0.274-0.168-0.536-0.319-0.812c-0.023-0.042-0.058-0.066-0.094-0.088c0.252-0.167,0.348-0.398,0.022-0.768
		c-0.531-0.603-1.23-0.159-1.655,0.388c0.027-0.208,0.072-0.42,0.006-0.561c-0.111-0.238-0.437-0.278-0.443-0.496
		c-0.012-0.349-0.556-0.351-0.545,0c0.005,0.139,0.01,0.28,0.014,0.418c0.004,0.151,0.122,0.269,0.272,0.272
		c0.088,0.002-0.054,0.47-0.032,0.584c0.085,0.437,0.093,0.4,0.45,0.684c0.002,0.003,0.007,0.003,0.01,0.006
		c-0.054,0.234,0.3,0.441,0.459,0.236c0.017-0.024,0.052-0.063,0.087-0.108c0.017,0.003,0.035,0.004,0.053,0.005
		c0.054,0.075,0.141,0.129,0.229,0.133c0.164,0.005,0.294-0.01,0.412-0.041c0.058,0.435,0.338,0.804,0.68,1.183
		c0.115,0.125,0.285,0.091,0.385-0.017c0.385,0.251,0.85,0.485,1.266,0.668c0.098,0.044,0.208,0.054,0.312,0.074
		c0.417,0.315,0.823,0.648,1.133,0.956c-0.043,0.254-0.196,0.4-0.464,0.438c-0.053,0-0.102-0.007-0.157,0c0,0.002,0,0.005,0,0.008
		c-0.025,0-0.045,0.003-0.074,0.001c-0.291,0.067-0.235,0.57,0.073,0.534c0.187,0.273,0.374,0.548,0.561,0.821
		c-0.115,0.19,0.078,0.484,0.307,0.399c0.645-0.239,1.238-0.162,1.791,0.117c0,0.002,0.001,0.004,0.001,0.005
		c0.041,0.071,0.096,0.112,0.154,0.127c-0.207,0.376-0.44,0.72-0.722,1.039c-0.134,0.114-0.26,0.242-0.378,0.39
		c-0.213,0.267,0.125,0.629,0.384,0.384c0.833-1.044,2.295-1.073,3.52-1.326C181.853,72.778,181.8,72.398,181.569,72.313"/>
	<path fill="#FFFFFF" d="M206.133,89.698c-0.063-0.213-0.159-0.408-0.324-0.563c-0.08-0.076-0.212-0.123-0.284-0.199
		c-0.147-0.157-0.144-0.354-0.113-0.549c0.052-0.342-0.471-0.489-0.523-0.144c-0.017,0.106-0.031,0.214-0.038,0.322
		c-0.135-0.071-0.283-0.118-0.436-0.135c-0.342-0.037-0.82-0.032-1.032,0.272c-0.054,0.077-0.046,0.196,0,0.274
		c0.181,0.298,0.616,0.309,0.923,0.409c0.495,0.16,0.969,0.372,1.426,0.622C205.936,90.115,206.201,89.932,206.133,89.698"/>
	<path fill="#FFFFFF" d="M199.455,87.114c-0.3-0.381-0.384-0.803-0.582-1.229c-0.042-0.085-0.089-0.162-0.145-0.233
		c0.081-0.154,0.064-0.33-0.05-0.471c-0.23-0.284-0.559-0.159-0.866-0.157c-0.297,0.002-0.382,0.474-0.072,0.533
		c0.034,0.008,0.069,0.015,0.102,0.02c-0.007,0.061,0.004,0.118,0.039,0.165c-0.043,0.22,0.159,0.395,0.293,0.575
		c0.341,0.454,0.362,1.436,1.159,1.251C199.553,87.517,199.572,87.263,199.455,87.114"/>
	<path fill="#FFFFFF" d="M196.759,82.877c0.081-0.305-0.411-0.429-0.528-0.115c-0.073,0.193-0.024,0.384,0.099,0.544
		c0.133,0.175,0.401,0.257,0.318,0.517c-0.073,0.342,0.419,0.479,0.525,0.145c0.033-0.104,0.045-0.213,0.039-0.321
		C197.219,83.302,197.108,82.987,196.759,82.877"/>
	<path fill="#FFFFFF" d="M193.739,87.516c-0.157-0.04-0.344,0.042-0.339,0.25c0.001,0.065,0.002,0.131,0.005,0.195
		c0.005,0.224,0.299,0.374,0.463,0.193c0.059-0.066,0.119-0.13,0.178-0.195C194.253,87.726,193.969,87.396,193.739,87.516"/>
	<path fill="#FFFFFF" d="M217.85,88.945c-0.003-0.023-0.003-0.047-0.009-0.071c-0.074-0.343-0.598-0.198-0.525,0.143
		c0.013,0.054,0.006,0.097-0.005,0.139c-0.047,0.062-0.086,0.134-0.104,0.221c-0.068,0.314,0.315,0.452,0.497,0.209
		c0.027-0.038,0.046-0.075,0.066-0.114C218.082,89.456,218.107,89.019,217.85,88.945"/>
	<path fill="#FFFFFF" d="M214.19,90.076h-1.041c-0.35,0-0.35,0.542,0,0.542h1.041C214.54,90.618,214.54,90.076,214.19,90.076"/>
</g>
<g enable-background="new    ">
	<path d="M339.075,92.509v98.049h-23.814V92.509H339.075z"/>
	<path d="M352.45,160.864h23.373c-0.099,0.394-0.147,0.933-0.147,1.617c0,2.451,1.151,4.558,3.455,6.321
		c2.302,1.764,5.021,2.646,8.159,2.646c2.841,0,5.241-0.758,7.203-2.278c1.959-1.518,2.94-3.355,2.94-5.513
		c0-2.253-0.933-4.091-2.793-5.512c-1.863-1.42-5.637-3.161-11.319-5.219c-10.683-3.822-18.327-8.158-22.932-13.01
		c-4.608-4.851-6.909-11.048-6.909-18.596c0-9.21,3.11-16.634,9.334-22.271c6.222-5.634,14.429-8.452,24.623-8.452
		c6.564,0,12.47,1.323,17.713,3.969c5.242,2.646,9.284,6.372,12.127,11.172c2.449,4.02,4.165,9.262,5.145,15.729h-24.255
		c-0.687-6.564-4.313-9.85-10.878-9.85c-2.94,0-5.292,0.713-7.056,2.132c-1.764,1.422-2.646,3.308-2.646,5.659
		c0,2.94,1.518,5.292,4.557,7.057c1.566,1.079,5.292,2.696,11.172,4.851c9.996,3.822,16.953,7.497,20.874,11.025
		c5.487,4.998,8.232,11.564,8.232,19.698c0,9.113-3.234,16.464-9.702,22.05c-6.468,5.586-14.945,8.379-25.431,8.379
		c-10.683,0-19.161-2.842-25.431-8.526C355.585,178.26,352.45,170.566,352.45,160.864z"/>
	<path d="M433.74,160.864h23.373c-0.099,0.394-0.147,0.933-0.147,1.617c0,2.451,1.151,4.558,3.455,6.321
		c2.302,1.764,5.021,2.646,8.159,2.646c2.841,0,5.241-0.758,7.203-2.278c1.959-1.518,2.94-3.355,2.94-5.513
		c0-2.253-0.933-4.091-2.793-5.512c-1.863-1.42-5.637-3.161-11.319-5.219c-10.683-3.822-18.327-8.158-22.932-13.01
		c-4.608-4.851-6.909-11.048-6.909-18.596c0-9.21,3.11-16.634,9.334-22.271c6.222-5.634,14.429-8.452,24.623-8.452
		c6.564,0,12.47,1.323,17.713,3.969c5.242,2.646,9.284,6.372,12.127,11.172c2.449,4.02,4.165,9.262,5.145,15.729h-24.255
		c-0.687-6.564-4.313-9.85-10.878-9.85c-2.94,0-5.292,0.713-7.056,2.132c-1.764,1.422-2.646,3.308-2.646,5.659
		c0,2.94,1.518,5.292,4.557,7.057c1.566,1.079,5.292,2.696,11.172,4.851c9.996,3.822,16.953,7.497,20.874,11.025
		c5.487,4.998,8.232,11.564,8.232,19.698c0,9.113-3.234,16.464-9.702,22.05c-6.468,5.586-14.945,8.379-25.431,8.379
		c-10.683,0-19.161-2.842-25.431-8.526C436.875,178.26,433.74,170.566,433.74,160.864z"/>
	<path d="M540.168,92.509v57.036c0,6.959,1.125,12.054,3.381,15.288c2.742,3.726,6.762,5.586,12.054,5.586
		c2.742,0,5.292-0.588,7.644-1.765c2.353-1.176,4.066-2.742,5.146-4.704c1.665-3.036,2.499-7.839,2.499-14.405V92.509h23.814v56.007
		c0,14.406-3.381,25.284-10.144,32.634c-6.96,7.548-16.563,11.319-28.812,11.319c-12.84,0-22.933-4.065-30.283-12.201
		c-6.077-6.762-9.114-17.346-9.114-31.752V92.509H540.168z"/>
	<path d="M631.307,111.766v19.992h32.34v19.257h-32.34v20.286h32.34v19.257h-56.153V92.509h56.153v19.257H631.307z"/>
	<path d="M676.877,160.864h23.373c-0.099,0.394-0.146,0.933-0.146,1.617c0,2.451,1.15,4.558,3.454,6.321
		c2.302,1.764,5.021,2.646,8.158,2.646c2.842,0,5.242-0.758,7.203-2.278c1.96-1.518,2.94-3.355,2.94-5.513
		c0-2.253-0.933-4.091-2.793-5.512c-1.863-1.42-5.637-3.161-11.319-5.219c-10.683-3.822-18.326-8.158-22.932-13.01
		c-4.607-4.851-6.909-11.048-6.909-18.596c0-9.21,3.11-16.634,9.334-22.271c6.223-5.634,14.43-8.452,24.623-8.452
		c6.564,0,12.47,1.323,17.714,3.969c5.241,2.646,9.283,6.372,12.127,11.172c2.448,4.02,4.164,9.262,5.146,15.729h-24.256
		c-0.687-6.564-4.313-9.85-10.878-9.85c-2.939,0-5.292,0.713-7.056,2.132c-1.764,1.422-2.646,3.308-2.646,5.659
		c0,2.94,1.518,5.292,4.557,7.057c1.566,1.079,5.292,2.696,11.172,4.851c9.996,3.822,16.953,7.497,20.874,11.025
		c5.487,4.998,8.232,11.564,8.232,19.698c0,9.113-3.234,16.464-9.702,22.05s-14.946,8.379-25.432,8.379
		c-10.683,0-19.16-2.842-25.431-8.526C680.013,178.26,676.877,170.566,676.877,160.864z"/>
</g>
</svg>
