<?xml version="1.0" encoding="utf-8"?>
<!-- Generator: Adobe Illustrator 16.0.4, SVG Export Plug-In . SVG Version: 6.00 Build 0)  -->
<!DOCTYPE svg PUBLIC "-//W3C//DTD SVG 1.1//EN" "http://www.w3.org/Graphics/SVG/1.1/DTD/svg11.dtd">
<svg version="1.1" id="Layer_1" xmlns="http://www.w3.org/2000/svg" xmlns:xlink="http://www.w3.org/1999/xlink" x="0px" y="0px"
	 width="1239px" height="284.128px" viewBox="0 0 1239 284.128" enable-background="new 0 0 1239 284.128" xml:space="preserve">
<polygon fill="#8FD7F2" points="1239,-1.89 0,-1.89 0,282.239 1239,282.239 1086,140.194 "/>
<text transform="matrix(1 0 0 1 316.9448 188.6685)" font-family="'NeuzeitGro-Bla'" font-size="147">LOGISTICS</text>
<g>
	<rect x="60.976" y="46.944" fill="#FFFFFF" stroke="#000000" stroke-miterlimit="10" width="165.828" height="183.625"/>
	<path fill="#BACFDB" d="M74.606,67.108h135.053H74.606z"/>
	<rect x="74.606" y="65.583" fill="#BACFDB" width="135.052" height="3.053"/>
	<path fill="#BACFDB" d="M105.444,113.124H77.391V85.069h28.053V113.124z M80.443,110.069h21.947V88.123H80.443V110.069z"/>
	<path fill="#BACFDB" d="M74.606,139.813h135.053H74.606z"/>
	<rect x="74.606" y="138.285" fill="#BACFDB" width="135.052" height="3.054"/>
	<path fill="#BACFDB" d="M108.125,188.51H80.073v-28.053h28.052V188.51z M83.126,185.458h21.946V163.51H83.126V185.458z"/>
	<path fill="#BACFDB" d="M75.584,212.516h135.053H75.584z"/>
	<rect x="75.586" y="210.989" fill="#BACFDB" width="135.053" height="3.054"/>
	<g>
		<path fill="#AE1F25" d="M83.484,99.481c2.739,3.523,6.746,11.781,11.45,6.204c2.994-3.552,5.238-8.155,7.741-12.075
			c2.881-4.512,5.762-9.023,8.643-13.535c1.591-2.491-2.371-4.791-3.954-2.311c-3.602,5.64-7.202,11.279-10.803,16.918
			c-0.72,1.128-1.44,2.256-2.161,3.383c-0.21,0.33-1.96,3.954-2.285,4.169c-0.009,1.298-0.401,1.107-1.177-0.57
			c-0.352-0.452-0.703-0.904-1.055-1.355c-1.054-1.356-2.107-2.711-3.161-4.066C84.915,93.92,81.696,97.18,83.484,99.481"/>
		<path fill="#AE1F25" d="M84.96,175.067c2.777,4,6.905,12.904,12.446,7.162c3.148-3.265,5.161-8.695,7.3-12.662
			c2.715-5.037,5.337-10.125,7.961-15.209c1.35-2.615-2.601-4.936-3.955-2.312c-2.953,5.722-5.902,11.442-8.982,17.099
			c-1.242,2.276-2.414,5.604-4.19,7.488c-1.665,1.77-1.53,2.42-3.85,0.123c-1.051-1.041-1.949-2.809-2.776-4
			C87.246,170.35,83.275,172.637,84.96,175.067"/>
		<line fill="none" x1="126.222" y1="167.497" x2="209.66" y2="167.497"/>
		<rect x="126.222" y="165.972" fill="#BACFDB" width="83.437" height="3.052"/>
		<line fill="none" x1="126.222" y1="184.104" x2="209.66" y2="184.104"/>
		<rect x="126.221" y="182.577" fill="#BACFDB" width="83.437" height="3.054"/>
		<line fill="none" x1="126.221" y1="90.793" x2="209.66" y2="90.793"/>
		<rect x="126.221" y="89.267" fill="#BACFDB" width="83.437" height="3.053"/>
		<line fill="none" x1="126.221" y1="107.398" x2="209.66" y2="107.398"/>
		<rect x="126.221" y="105.873" fill="#BACFDB" width="83.437" height="3.053"/>
	</g>
</g>
</svg>
