<?xml version="1.0" encoding="utf-8"?>
<!-- Generator: Adobe Illustrator 16.0.4, SVG Export Plug-In . SVG Version: 6.00 Build 0)  -->
<!DOCTYPE svg PUBLIC "-//W3C//DTD SVG 1.1//EN" "http://www.w3.org/Graphics/SVG/1.1/DTD/svg11.dtd">
<svg version="1.1" id="Layer_1" xmlns="http://www.w3.org/2000/svg" xmlns:xlink="http://www.w3.org/1999/xlink" x="0px" y="0px"
	 width="1239px" height="284.128px" viewBox="-432.415 0 1239 284.128" enable-background="new -432.415 0 1239 284.128"
	 xml:space="preserve">
<polygon fill="#3EBEB1" points="806.585,0 -432.415,0 -432.415,284.128 806.585,284.128 653.585,142.084 "/>
<text transform="matrix(1 0 0 1 -115.4702 190.5581)" font-family="'NeuzeitGro-Bla'" font-size="147">LOGISTICS</text>
<g>
	<rect x="-371.439" y="48.834" fill="#FFFFFF" stroke="#000000" stroke-miterlimit="10" width="165.828" height="183.625"/>
	<path fill="#BACFDB" d="M-357.809,68.998h135.053H-357.809z"/>
	<rect x="-357.809" y="67.472" fill="#BACFDB" width="135.052" height="3.053"/>
	<path fill="#BACFDB" d="M-326.971,115.013h-28.053V86.959h28.053V115.013z M-351.972,111.959h21.947V90.012h-21.947V111.959z"/>
	<path fill="#BACFDB" d="M-357.809,141.703h135.053H-357.809z"/>
	<rect x="-357.809" y="140.175" fill="#BACFDB" width="135.052" height="3.054"/>
	<path fill="#BACFDB" d="M-324.29,190.4h-28.052v-28.053h28.052V190.4z M-349.289,187.347h21.946V165.4h-21.946V187.347z"/>
	<path fill="#BACFDB" d="M-356.831,214.406h135.053H-356.831z"/>
	<rect x="-356.829" y="212.879" fill="#BACFDB" width="135.053" height="3.053"/>
	<g>
		<path fill="#AE1F25" d="M-348.931,101.371c2.739,3.523,6.746,11.781,11.45,6.204c2.994-3.552,5.238-8.155,7.741-12.075
			c2.881-4.512,5.762-9.023,8.643-13.535c1.591-2.491-2.371-4.791-3.954-2.311c-3.602,5.64-7.202,11.279-10.803,16.918
			c-0.72,1.128-1.44,2.256-2.161,3.383c-0.21,0.33-1.96,3.954-2.285,4.169c-0.009,1.298-0.401,1.107-1.177-0.57
			c-0.352-0.452-0.703-0.904-1.055-1.355c-1.054-1.356-2.107-2.711-3.161-4.066C-347.5,95.81-350.719,99.07-348.931,101.371"/>
		<path fill="#AE1F25" d="M-347.455,176.957c2.777,4,6.905,12.904,12.446,7.161c3.148-3.264,5.161-8.694,7.3-12.662
			c2.715-5.037,5.337-10.125,7.961-15.209c1.35-2.615-2.601-4.935-3.955-2.312c-2.953,5.721-5.902,11.444-8.982,17.098
			c-1.242,2.277-2.414,5.604-4.19,7.489c-1.665,1.769-1.53,2.42-3.85,0.123c-1.051-1.041-1.949-2.808-2.776-4
			C-345.169,172.24-349.14,174.527-347.455,176.957"/>
		<line fill="none" x1="-306.193" y1="169.387" x2="-222.755" y2="169.387"/>
		<rect x="-306.193" y="167.862" fill="#BACFDB" width="83.437" height="3.052"/>
		<line fill="none" x1="-306.193" y1="185.994" x2="-222.755" y2="185.994"/>
		<rect x="-306.194" y="184.467" fill="#BACFDB" width="83.437" height="3.053"/>
		<line fill="none" x1="-306.194" y1="92.683" x2="-222.755" y2="92.683"/>
		<rect x="-306.194" y="91.156" fill="#BACFDB" width="83.437" height="3.053"/>
		<line fill="none" x1="-306.194" y1="109.288" x2="-222.755" y2="109.288"/>
		<rect x="-306.194" y="107.762" fill="#BACFDB" width="83.437" height="3.053"/>
	</g>
</g>
</svg>
