<?xml version="1.0" encoding="utf-8"?>
<!-- Generator: Adobe Illustrator 16.0.4, SVG Export Plug-In . SVG Version: 6.00 Build 0)  -->
<!DOCTYPE svg PUBLIC "-//W3C//DTD SVG 1.1//EN" "http://www.w3.org/Graphics/SVG/1.1/DTD/svg11.dtd">
<svg version="1.1" id="Layer_1" xmlns="http://www.w3.org/2000/svg" xmlns:xlink="http://www.w3.org/1999/xlink" x="0px" y="0px"
	 width="1239px" height="284.128px" viewBox="0 0 1239 284.128" enable-background="new 0 0 1239 284.128" xml:space="preserve">
<polygon fill="#8FD7F2" points="1239,-1.89 0,-1.89 0,282.24 1239,282.24 1086,140.194 "/>
<g enable-background="new    ">
	<path d="M350.02,169.412h31.899v19.257h-55.713V90.62h23.814V169.412z"/>
	<path d="M439.248,88.708c14.502,0,26.582,4.876,36.235,14.626c9.652,9.753,14.479,21.929,14.479,36.53
		c0,14.016-4.998,25.971-14.994,35.868c-9.996,9.899-22.101,14.847-36.309,14.847c-14.604,0-27-4.899-37.191-14.7
		c-10.194-9.799-15.288-21.756-15.288-35.868c0-14.7,5.487-27.243,16.464-37.632C412.347,93.265,424.548,88.708,439.248,88.708z
		 M438.366,110.758c-8.037,0-14.7,2.745-19.992,8.232c-5.292,5.489-7.938,12.398-7.938,20.727c0,8.037,2.669,14.848,8.012,20.434
		c5.34,5.586,11.93,8.379,19.771,8.379c7.644,0,14.16-2.768,19.551-8.306c5.389-5.535,8.085-12.225,8.085-20.065
		c0-8.428-2.623-15.436-7.864-21.021C452.747,113.551,446.206,110.758,438.366,110.758z"/>
	<path d="M553.171,132.808h50.127c0.097,1.275,0.147,2.991,0.147,5.146c0,15.779-5.391,28.716-16.17,38.808
		c-10.29,9.213-22.296,13.818-36.015,13.818c-14.604,0-26.804-4.852-36.603-14.553c-9.801-9.702-14.7-21.757-14.7-36.162
		c0-14.503,4.874-26.655,14.626-36.456c9.75-9.799,21.878-14.7,36.382-14.7c8.232,0,15.924,1.69,23.079,5.071
		c7.152,3.381,13.23,8.158,18.228,14.333l-18.081,13.965c-6.078-7.546-13.574-11.319-22.491-11.319
		c-7.842,0-14.406,2.793-19.698,8.379s-7.938,12.546-7.938,20.874c0,8.136,2.768,14.994,8.306,20.58
		c5.535,5.586,12.323,8.379,20.359,8.379c5.683,0,10.706-1.518,15.067-4.557c4.359-3.036,7.52-7.152,9.481-12.348h-24.108V132.808z"
		/>
	<path d="M640.047,90.62v98.049h-23.813V90.62H640.047z"/>
	<path d="M653.422,158.974h23.373c-0.098,0.394-0.146,0.933-0.146,1.617c0,2.451,1.15,4.558,3.455,6.321
		c2.301,1.764,5.021,2.646,8.158,2.646c2.842,0,5.242-0.758,7.203-2.278c1.959-1.518,2.939-3.355,2.939-5.513
		c0-2.253-0.932-4.091-2.793-5.512c-1.863-1.42-5.637-3.161-11.318-5.219c-10.684-3.822-18.326-8.158-22.932-13.01
		c-4.607-4.851-6.91-11.048-6.91-18.596c0-9.21,3.111-16.634,9.334-22.271c6.223-5.634,14.43-8.452,24.623-8.452
		c6.564,0,12.471,1.323,17.715,3.969c5.24,2.646,9.283,6.372,12.127,11.172c2.447,4.02,4.164,9.262,5.145,15.729h-24.256
		c-0.686-6.564-4.312-9.85-10.877-9.85c-2.939,0-5.293,0.713-7.057,2.132c-1.764,1.422-2.645,3.308-2.645,5.659
		c0,2.94,1.518,5.292,4.557,7.057c1.566,1.079,5.291,2.696,11.172,4.851c9.996,3.822,16.953,7.497,20.873,11.025
		c5.488,4.998,8.232,11.564,8.232,19.698c0,9.113-3.234,16.464-9.701,22.05c-6.469,5.586-14.947,8.379-25.432,8.379
		c-10.684,0-19.16-2.842-25.432-8.526C656.559,176.371,653.422,168.676,653.422,158.974z"/>
	<path d="M775.873,109.876v78.792h-23.814v-78.792H729.42V90.62h68.943v19.257H775.873z"/>
	<path d="M831.73,90.62v98.049h-23.814V90.62H831.73z"/>
	<path d="M917.871,160.151l14.111,16.464c-5.879,4.998-11.662,8.576-17.346,10.73s-12.152,3.234-19.404,3.234
		c-14.994,0-26.951-4.947-35.867-14.847c-8.82-9.702-13.23-21.657-13.23-35.868c0-7.938,1.52-15.436,4.557-22.491
		s7.301-12.937,12.789-17.64c8.623-7.351,19.453-11.025,32.488-11.025c8.232,0,15.973,1.617,23.225,4.851
		c4.312,2.059,8.969,5.392,13.967,9.996l-15.289,16.023c-6.762-5.88-13.77-8.82-21.021-8.82c-7.842,0-14.236,2.623-19.184,7.864
		c-4.949,5.244-7.422,12.08-7.422,20.507c0,8.625,2.619,15.681,7.863,21.168c5.242,5.489,11.98,8.232,20.213,8.232
		C906.355,168.53,912.873,165.737,917.871,160.151z"/>
	<path d="M938.744,158.974h23.373c-0.1,0.394-0.146,0.933-0.146,1.617c0,2.451,1.15,4.558,3.453,6.321s5.021,2.646,8.158,2.646
		c2.842,0,5.242-0.758,7.203-2.278c1.961-1.518,2.941-3.355,2.941-5.513c0-2.253-0.934-4.091-2.793-5.512
		c-1.863-1.42-5.637-3.161-11.32-5.219c-10.682-3.822-18.326-8.158-22.932-13.01c-4.607-4.851-6.908-11.048-6.908-18.596
		c0-9.21,3.109-16.634,9.334-22.271c6.223-5.634,14.43-8.452,24.623-8.452c6.564,0,12.469,1.323,17.713,3.969
		c5.242,2.646,9.283,6.372,12.127,11.172c2.449,4.02,4.164,9.262,5.146,15.729h-24.256c-0.688-6.564-4.314-9.85-10.879-9.85
		c-2.939,0-5.291,0.713-7.055,2.132c-1.764,1.422-2.646,3.308-2.646,5.659c0,2.94,1.518,5.292,4.557,7.057
		c1.566,1.079,5.293,2.696,11.172,4.851c9.996,3.822,16.953,7.497,20.875,11.025c5.486,4.998,8.232,11.564,8.232,19.698
		c0,9.113-3.234,16.464-9.703,22.05c-6.467,5.586-14.945,8.379-25.432,8.379c-10.682,0-19.16-2.842-25.43-8.526
		C941.879,176.371,938.744,168.676,938.744,158.974z"/>
</g>
<g>
	<rect x="60.976" y="46.944" fill="#FFFFFF" stroke="#000000" stroke-miterlimit="10" width="165.828" height="183.625"/>
	<path fill="#BACFDB" d="M74.606,67.108h135.053H74.606z"/>
	<rect x="74.606" y="65.583" fill="#BACFDB" width="135.052" height="3.053"/>
	<path fill="#BACFDB" d="M105.444,113.124H77.391V85.069h28.053V113.124z M80.443,110.069h21.947V88.123H80.443V110.069z"/>
	<path fill="#BACFDB" d="M74.606,139.813h135.053H74.606z"/>
	<rect x="74.606" y="138.285" fill="#BACFDB" width="135.052" height="3.054"/>
	<path fill="#BACFDB" d="M108.125,188.509H80.073v-28.053h28.052V188.509z M83.126,185.458h21.946v-21.949H83.126V185.458z"/>
	<path fill="#BACFDB" d="M75.584,212.516h135.053H75.584z"/>
	<rect x="75.586" y="210.99" fill="#BACFDB" width="135.053" height="3.053"/>
	<g>
		<path fill="#AE1F25" d="M83.484,99.481c2.739,3.523,6.746,11.781,11.45,6.204c2.994-3.552,5.238-8.155,7.741-12.075
			c2.881-4.512,5.762-9.023,8.643-13.535c1.591-2.491-2.371-4.791-3.954-2.311c-3.602,5.64-7.202,11.279-10.803,16.918
			c-0.72,1.128-1.44,2.256-2.161,3.383c-0.21,0.33-1.96,3.954-2.285,4.169c-0.009,1.298-0.401,1.107-1.177-0.57
			c-0.352-0.452-0.703-0.904-1.055-1.355c-1.054-1.356-2.107-2.711-3.161-4.066C84.915,93.92,81.696,97.18,83.484,99.481"/>
		<path fill="#AE1F25" d="M84.96,175.067c2.777,4,6.905,12.904,12.446,7.162c3.148-3.265,5.161-8.694,7.3-12.662
			c2.715-5.036,5.337-10.125,7.961-15.209c1.35-2.614-2.601-4.937-3.955-2.312c-2.953,5.722-5.902,11.441-8.982,17.099
			c-1.242,2.276-2.414,5.604-4.19,7.487c-1.665,1.771-1.53,2.42-3.85,0.123c-1.051-1.041-1.949-2.809-2.776-4
			C87.246,170.35,83.275,172.636,84.96,175.067"/>
		<line fill="none" x1="126.222" y1="167.498" x2="209.66" y2="167.498"/>
		<rect x="126.222" y="165.972" fill="#BACFDB" width="83.437" height="3.052"/>
		<line fill="none" x1="126.222" y1="184.104" x2="209.66" y2="184.104"/>
		<rect x="126.221" y="182.578" fill="#BACFDB" width="83.437" height="3.053"/>
		<line fill="none" x1="126.221" y1="90.793" x2="209.66" y2="90.793"/>
		<rect x="126.221" y="89.267" fill="#BACFDB" width="83.437" height="3.053"/>
		<line fill="none" x1="126.221" y1="107.398" x2="209.66" y2="107.398"/>
		<rect x="126.221" y="105.873" fill="#BACFDB" width="83.437" height="3.053"/>
	</g>
</g>
</svg>
