<?xml version="1.0" encoding="utf-8"?>
<!-- Generator: Adobe Illustrator 16.0.4, SVG Export Plug-In . SVG Version: 6.00 Build 0)  -->
<!DOCTYPE svg PUBLIC "-//W3C//DTD SVG 1.1//EN" "http://www.w3.org/Graphics/SVG/1.1/DTD/svg11.dtd">
<svg version="1.1" id="Layer_1" xmlns="http://www.w3.org/2000/svg" xmlns:xlink="http://www.w3.org/1999/xlink" x="0px" y="0px"
	 width="1280px" height="284.128px" viewBox="-473.415 0 1280 284.128" enable-background="new -473.415 0 1280 284.128"
	 xml:space="preserve">
<polygon fill="#3EBEB1" points="806.585,0 -473.415,0 -473.415,284.128 806.585,284.128 653.585,142.084 "/>
<text transform="matrix(1 0 0 1 -126.4707 117.3882)"><tspan x="0" y="0" font-family="'NeuzeitGro-Bla'" font-size="107.1489">ROAD TO</tspan><tspan x="0" y="128.579" font-family="'NeuzeitGro-Bla'" font-size="107.1489">THE ELECTION</tspan></text>
<g>
	<path fill="#EE3F37" d="M-324.982,181.442c3.989,0.223,8.066,0.335,12.211,0.335c1.062,0,2.115-0.006,3.17-0.028
		C-312.686,181.711-318.125,181.627-324.982,181.442"/>
	<path fill="#F1F1F2" d="M-412.182,172.868c17.098,5.878,61.852,7.896,87.2,8.576c6.858,0.183,12.297,0.268,15.382,0.305
		c0.924-0.009,1.848-0.021,2.764-0.046c45.814-1.222,82.022-16.442,82.022-35.056c0-19.405-39.375-35.132-87.958-35.132
		c-11.479,0-22.444,0.878-32.498,2.476c0,0-0.001,0-0.022,0.007c-10.073,1.596-19.23,3.917-27.064,6.804
		c-8.447,1.628-16.781,2.59-21.5,1.406c-12.219-3.055-15.105-20.621-33.427-20.621C-445.11,101.586-436.624,164.466-412.182,172.868
		"/>
	<path fill="#EE3F37" d="M-309.601,181.749c1.808,0.023,2.81,0.03,2.81,0.03l-0.044-0.076
		C-307.752,181.726-308.674,181.74-309.601,181.749"/>
	<path fill="#F1F1F2" stroke="#FFFFFF" stroke-width="2" stroke-miterlimit="10" d="M-245.186,124.197v44.969
		c12.719-6.086,20.373-13.923,20.373-22.483C-224.814,138.121-232.467,130.285-245.186,124.197"/>
	<path fill="#AE1122" d="M-224.774,148.485c0,0,28.776-72.383,13.643-73.816C-226.256,73.235-224.774,148.485-224.774,148.485"/>
	<path fill="#AE1122" d="M-224.85,148.485c0,0-28.777,72.385-13.645,73.817C-223.368,223.735-224.85,148.485-224.85,148.485"/>
	<path fill="#AE1122" d="M-309.738,152.25c-7.106-8.317-18.162-9.902-48.5-5.372c-29.222,4.364-21.021,63.757-3.819,63.775
		C-343.186,210.677-294.371,170.24-309.738,152.25"/>
	<path fill="#BAD0DB" d="M-261.859,129.977c0,0-8.316-12.589-26.943-12.589c-18.626,0-22.445,17.565-15.447,21.129
		C-298.199,141.6-251.766,146.507-261.859,129.977"/>
	<path fill="#BAD0DB" d="M-336.985,129.527c0,3.562,2.665,6.451,5.95,6.451h9.926c3.287,0,5.955-2.89,5.955-6.451
		s-2.667-6.449-5.955-6.449h-9.926C-334.321,123.078-336.985,125.964-336.985,129.527"/>
	<path fill="#BAD0DB" d="M-364.832,129.527c0,3.562,2.664,6.451,5.95,6.451h9.925c3.288,0,5.954-2.89,5.954-6.451
		s-2.666-6.449-5.954-6.449h-9.925C-362.168,123.078-364.832,125.964-364.832,129.527"/>
</g>
</svg>
