<?xml version="1.0" encoding="utf-8"?>
<!-- Generator: Adobe Illustrator 16.0.4, SVG Export Plug-In . SVG Version: 6.00 Build 0)  -->
<!DOCTYPE svg PUBLIC "-//W3C//DTD SVG 1.1//EN" "http://www.w3.org/Graphics/SVG/1.1/DTD/svg11.dtd">
<svg version="1.1" id="Layer_1" xmlns="http://www.w3.org/2000/svg" xmlns:xlink="http://www.w3.org/1999/xlink" x="0px" y="0px"
	 width="1280px" height="284.128px" viewBox="0 0 1280 284.128" enable-background="new 0 0 1280 284.128" xml:space="preserve">
<polygon fill="#8FD7F2" points="1280,-0.396 0,-0.396 0,283.732 1280,283.732 1127,141.688 "/>
<g enable-background="new    ">
	<path d="M371.053,89.347v27.645h-17.358V45.523h23.144c9.357,0,16.357,1.787,21.001,5.357c5.144,4.002,7.715,10.037,7.715,18.108
		c0,10.859-4.607,18.108-13.822,21.751l15.751,26.252h-20.787L371.053,89.347z M371.053,79.597h5.572
		c3.571,0,6.357-0.857,8.358-2.572c1.999-1.714,3-4.142,3-7.286c0-3-0.948-5.411-2.839-7.232c-1.894-1.821-4.376-2.732-7.447-2.732
		h-6.644V79.597z"/>
	<path d="M452.485,44.13c10.571,0,19.375,3.555,26.412,10.661c7.035,7.109,10.554,15.983,10.554,26.627
		c0,10.216-3.643,18.93-10.929,26.145c-7.286,7.216-16.109,10.821-26.466,10.821c-10.645,0-19.68-3.57-27.108-10.715
		c-7.43-7.142-11.144-15.857-11.144-26.144c0-10.716,4-19.858,12-27.431C432.877,47.452,441.771,44.13,452.485,44.13z
		 M451.843,60.203c-5.858,0-10.715,2.001-14.572,6c-3.857,4.002-5.786,9.038-5.786,15.108c0,5.858,1.945,10.822,5.839,14.894
		c3.893,4.072,8.696,6.107,14.412,6.107c5.572,0,10.321-2.018,14.251-6.054c3.928-4.035,5.893-8.91,5.893-14.626
		c0-6.143-1.912-11.25-5.732-15.322C462.325,62.239,457.557,60.203,451.843,60.203z"/>
	<path d="M538.097,106.706H512.81l-3.107,10.286h-18.537l23.573-71.469h22.073l23.465,71.469h-19.072L538.097,106.706z
		 M533.812,92.668l-8.358-26.68l-8.357,26.68H533.812z"/>
	<path d="M567.026,116.992V45.523h20.894c6.143,0,11.267,0.608,15.376,1.822c4.106,1.215,7.803,3.214,11.09,6
		c7.785,6.573,11.679,15.644,11.679,27.216c0,5.644-1.001,10.93-3,15.858c-2,4.929-4.786,9.037-8.357,12.322
		c-6.072,5.501-14.358,8.25-24.858,8.25H567.026z M584.384,59.453v43.288h2.679c6.357,0,11.519-1.999,15.483-6
		c3.965-4,5.947-9.215,5.947-15.644c0-3.143-0.589-6.231-1.768-9.269c-1.179-3.035-2.77-5.446-4.768-7.232
		c-3.787-3.429-8.537-5.144-14.251-5.144H584.384z"/>
	<path d="M695.711,59.56v57.432h-17.358V59.56h-16.501V45.523h50.253V59.56H695.711z"/>
	<path d="M752.714,44.13c10.57,0,19.375,3.555,26.412,10.661c7.035,7.109,10.554,15.983,10.554,26.627
		c0,10.216-3.643,18.93-10.929,26.145c-7.286,7.216-16.109,10.821-26.466,10.821c-10.645,0-19.681-3.57-27.109-10.715
		c-7.43-7.142-11.144-15.857-11.144-26.144c0-10.716,4-19.858,12.001-27.431C733.105,47.452,741.999,44.13,752.714,44.13z
		 M752.07,60.203c-5.857,0-10.715,2.001-14.572,6c-3.857,4.002-5.786,9.038-5.786,15.108c0,5.858,1.945,10.822,5.84,14.894
		c3.893,4.072,8.696,6.107,14.412,6.107c5.571,0,10.321-2.018,14.25-6.054c3.928-4.035,5.894-8.91,5.894-14.626
		c0-6.143-1.912-11.25-5.732-15.322C762.553,62.239,757.784,60.203,752.07,60.203z"/>
</g>
<g enable-background="new    ">
	<path d="M380.803,188.138v57.432h-17.358v-57.432h-16.501v-14.037h50.253v14.037H380.803z"/>
	<path d="M421.519,217.39v28.18h-17.358v-71.469h17.358v29.252h23.466v-29.252h17.358v71.469h-17.358v-28.18H421.519z"/>
	<path d="M490.094,188.138v14.572h23.573v14.036h-23.573v14.787h23.573v14.036h-40.931v-71.469h40.931v14.037H490.094z"/>
	<path d="M571.419,188.138v14.572h23.573v14.036h-23.573v14.787h23.573v14.036h-40.931v-71.469h40.931v14.037H571.419z"/>
	<path d="M623.814,231.534h23.252v14.036h-40.61v-71.469h17.358V231.534z"/>
	<path d="M670.102,188.138v14.572h23.573v14.036h-23.573v14.787h23.573v14.036h-40.931v-71.469h40.931v14.037H670.102z"/>
	<path d="M755.498,224.783l10.286,12.001c-4.286,3.643-8.501,6.251-12.644,7.822c-4.144,1.57-8.858,2.356-14.144,2.356
		c-10.929,0-19.645-3.605-26.145-10.821c-6.429-7.072-9.644-15.786-9.644-26.145c0-5.786,1.107-11.251,3.322-16.394
		c2.213-5.144,5.32-9.43,9.322-12.858c6.284-5.357,14.179-8.036,23.68-8.036c6,0,11.643,1.179,16.93,3.536
		c3.142,1.5,6.536,3.93,10.179,7.286l-11.144,11.679c-4.929-4.285-10.037-6.429-15.322-6.429c-5.716,0-10.377,1.912-13.982,5.732
		c-3.608,3.822-5.411,8.805-5.411,14.947c0,6.287,1.91,11.43,5.732,15.43c3.82,4.001,8.732,6,14.732,6
		C747.104,230.89,751.855,228.855,755.498,224.783z"/>
	<path d="M804.357,188.138v57.432h-17.358v-57.432h-16.501v-14.037h50.253v14.037H804.357z"/>
	<path d="M845.072,174.101v71.469h-17.358v-71.469H845.072z"/>
	<path d="M894.253,172.708c10.57,0,19.375,3.555,26.412,10.661c7.035,7.109,10.554,15.983,10.554,26.627
		c0,10.216-3.643,18.93-10.929,26.145c-7.286,7.216-16.109,10.821-26.466,10.821c-10.645,0-19.681-3.57-27.109-10.715
		c-7.43-7.142-11.144-15.857-11.144-26.144c0-10.716,4-19.858,12.001-27.431C874.645,176.03,883.538,172.708,894.253,172.708z
		 M893.609,188.781c-5.857,0-10.715,2.001-14.572,6c-3.857,4.002-5.786,9.038-5.786,15.108c0,5.858,1.945,10.822,5.84,14.894
		c3.893,4.072,8.696,6.107,14.412,6.107c5.571,0,10.321-2.018,14.25-6.054c3.928-4.035,5.894-8.91,5.894-14.626
		c0-6.143-1.912-11.25-5.732-15.322C904.092,190.817,899.323,188.781,893.609,188.781z"/>
	<path d="M958.969,204.853v40.717H941.61v-71.469h17.358l26.037,40.182v-40.182h17.358v71.469h-17.358L958.969,204.853z"/>
</g>
<g>
	<path fill="#EE3F37" d="M148.433,181.044c3.989,0.225,8.066,0.336,12.211,0.336c1.062,0,2.115-0.006,3.17-0.027
		C160.729,181.314,155.29,181.23,148.433,181.044"/>
	<path fill="#F1F1F2" d="M61.233,172.472c17.098,5.877,61.852,7.896,87.2,8.574c6.858,0.184,12.297,0.27,15.382,0.307
		c0.924-0.01,1.848-0.021,2.764-0.047c45.814-1.223,82.022-16.439,82.022-35.057c0-19.405-39.375-35.131-87.958-35.131
		c-11.479,0-22.444,0.878-32.498,2.476c0,0-0.001,0-0.022,0.007c-10.073,1.596-19.23,3.917-27.064,6.804
		c-8.447,1.628-16.781,2.59-21.5,1.406c-12.219-3.055-15.105-20.621-33.427-20.621C28.305,101.189,36.791,164.07,61.233,172.472"/>
	<path fill="#EE3F37" d="M163.814,181.353c1.808,0.021,2.81,0.029,2.81,0.029l-0.044-0.076
		C165.663,181.33,164.741,181.343,163.814,181.353"/>
	<path fill="#F1F1F2" stroke="#FFFFFF" stroke-width="2" stroke-miterlimit="10" d="M228.229,123.801v44.968
		c12.719-6.086,20.373-13.922,20.373-22.482C248.601,137.725,240.948,129.889,228.229,123.801"/>
	<path fill="#AE1122" d="M248.641,148.087c0,0,28.776-72.382,13.643-73.815C247.159,72.838,248.641,148.087,248.641,148.087"/>
	<path fill="#AE1122" d="M248.565,148.087c0,0-28.777,72.387-13.645,73.818C250.047,223.337,248.565,148.087,248.565,148.087"/>
	<path fill="#AE1122" d="M163.677,151.853c-7.106-8.314-18.162-9.9-48.5-5.371c-29.222,4.363-21.021,63.756-3.819,63.773
		C130.229,210.281,179.044,169.843,163.677,151.853"/>
	<path fill="#BAD0DB" d="M211.556,129.581c0,0-8.316-12.589-26.943-12.589c-18.626,0-22.445,17.565-15.447,21.129
		C175.216,141.204,221.649,146.111,211.556,129.581"/>
	<path fill="#BAD0DB" d="M136.43,129.13c0,3.562,2.665,6.451,5.95,6.451h9.926c3.287,0,5.955-2.89,5.955-6.451
		s-2.667-6.449-5.955-6.449h-9.926C139.094,122.682,136.43,125.567,136.43,129.13"/>
	<path fill="#BAD0DB" d="M108.583,129.13c0,3.562,2.664,6.451,5.95,6.451h9.925c3.288,0,5.954-2.89,5.954-6.451
		s-2.666-6.449-5.954-6.449h-9.925C111.247,122.682,108.583,125.567,108.583,129.13"/>
</g>
</svg>
