<?xml version="1.0" encoding="utf-8"?>
<!-- Generator: Adobe Illustrator 16.0.4, SVG Export Plug-In . SVG Version: 6.00 Build 0)  -->
<!DOCTYPE svg PUBLIC "-//W3C//DTD SVG 1.1//EN" "http://www.w3.org/Graphics/SVG/1.1/DTD/svg11.dtd">
<svg version="1.1" id="Layer_1" xmlns="http://www.w3.org/2000/svg" xmlns:xlink="http://www.w3.org/1999/xlink" x="0px" y="0px"
	 width="1280px" height="284.128px" viewBox="0 0 1280 284.128" enable-background="new 0 0 1280 284.128" xml:space="preserve">
<polygon fill="#8FD7F2" points="1280,-0.396 0,-0.396 0,283.732 1280,283.732 1127,141.688 "/>
<text transform="matrix(1 0 0 1 346.9443 116.9917)" font-family="'NeuzeitGro-Bla'" font-size="107.1489">ROAD TO</text>
<text transform="matrix(1 0 0 1 346.9443 245.5698)" font-family="'NeuzeitGro-Bla'" font-size="107.1489">THE ELECTION</text>
<g>
	<path fill="#EE3F37" d="M148.433,181.045c3.989,0.224,8.066,0.335,12.211,0.335c1.062,0,2.115-0.006,3.17-0.027
		C160.729,181.314,155.29,181.23,148.433,181.045"/>
	<path fill="#F1F1F2" d="M61.233,172.472c17.098,5.877,61.852,7.896,87.2,8.575c6.858,0.183,12.297,0.269,15.382,0.306
		c0.924-0.01,1.848-0.021,2.764-0.047c45.814-1.222,82.022-16.44,82.022-35.056c0-19.405-39.375-35.132-87.958-35.132
		c-11.479,0-22.444,0.878-32.498,2.476c0,0-0.001,0-0.022,0.007c-10.073,1.596-19.23,3.917-27.064,6.804
		c-8.447,1.628-16.781,2.59-21.5,1.406c-12.219-3.055-15.105-20.621-33.427-20.621C28.305,101.189,36.791,164.07,61.233,172.472"/>
	<path fill="#EE3F37" d="M163.814,181.353c1.808,0.022,2.81,0.029,2.81,0.029l-0.044-0.076
		C165.663,181.33,164.741,181.343,163.814,181.353"/>
	<path fill="#F1F1F2" stroke="#FFFFFF" stroke-width="2" stroke-miterlimit="10" d="M228.229,123.801v44.968
		c12.719-6.086,20.373-13.922,20.373-22.482C248.601,137.725,240.948,129.889,228.229,123.801"/>
	<path fill="#AE1122" d="M248.641,148.088c0,0,28.776-72.383,13.643-73.816C247.159,72.838,248.641,148.088,248.641,148.088"/>
	<path fill="#AE1122" d="M248.565,148.088c0,0-28.777,72.386-13.645,73.817C250.047,223.338,248.565,148.088,248.565,148.088"/>
	<path fill="#AE1122" d="M163.677,151.853c-7.106-8.315-18.162-9.9-48.5-5.371c-29.222,4.363-21.021,63.756-3.819,63.774
		C130.229,210.281,179.044,169.843,163.677,151.853"/>
	<path fill="#BAD0DB" d="M211.556,129.581c0,0-8.316-12.589-26.943-12.589c-18.626,0-22.445,17.565-15.447,21.129
		C175.216,141.204,221.649,146.111,211.556,129.581"/>
	<path fill="#BAD0DB" d="M136.43,129.13c0,3.562,2.665,6.451,5.95,6.451h9.926c3.287,0,5.955-2.89,5.955-6.451
		s-2.667-6.449-5.955-6.449h-9.926C139.094,122.682,136.43,125.567,136.43,129.13"/>
	<path fill="#BAD0DB" d="M108.583,129.13c0,3.562,2.664,6.451,5.95,6.451h9.925c3.288,0,5.954-2.89,5.954-6.451
		s-2.666-6.449-5.954-6.449h-9.925C111.247,122.682,108.583,125.567,108.583,129.13"/>
</g>
</svg>
