<?xml version="1.0" encoding="utf-8"?>
<!-- Generator: Adobe Illustrator 16.0.4, SVG Export Plug-In . SVG Version: 6.00 Build 0)  -->
<!DOCTYPE svg PUBLIC "-//W3C//DTD SVG 1.1//EN" "http://www.w3.org/Graphics/SVG/1.1/DTD/svg11.dtd">
<svg version="1.1" id="Layer_1" xmlns="http://www.w3.org/2000/svg" xmlns:xlink="http://www.w3.org/1999/xlink" x="0px" y="0px"
	 width="1055px" height="284.128px" viewBox="0 0 1055 284.128" enable-background="new 0 0 1055 284.128" xml:space="preserve">
<polygon fill="#8FD7F2" points="1055,-0.001 0,-0.001 0,284.127 1055,284.127 902,142.083 "/>
<g>
	<g>
		<path fill="#FFFFFF" d="M234.585,142.063c0,52.514-42.57,95.084-95.085,95.084s-95.085-42.568-95.085-95.084
			c0-52.515,42.571-95.085,95.085-95.085S234.585,89.549,234.585,142.063"/>
		<path fill="#BACFDB" d="M228.275,176.204c-13.719,35.649-48.297,60.944-88.777,60.944c-40.481,0-75.053-25.295-88.771-60.944
			H228.275z"/>
		<path fill="#AE1F25" d="M50.727,107.923c13.719-35.649,48.297-60.945,88.777-60.945s75.052,25.296,88.771,60.945H50.727z"/>
	</g>
	<text transform="matrix(1 0 0 1 64.1855 164.395)" fill="#6E6F72" font-family="'NeuzeitGro-Bla'" font-size="67.3412">V</text>
	<text transform="matrix(1 0 0 1 101.5596 164.395)" fill="#6E6F72" font-family="'NeuzeitGro-Bla'" font-size="67.3412">O</text>
	<text transform="matrix(1 0 0 1 152.8721 164.395)" fill="#6E6F72" font-family="'NeuzeitGro-Bla'" font-size="67.3412">T</text>
	<text transform="matrix(1 0 0 1 185.5332 164.395)" fill="#6E6F72" font-family="'NeuzeitGro-Bla'" font-size="67.3412">E</text>
	<g>
		<polygon fill="#FFFFFF" points="81.59,80.518 84.189,88.519 92.602,88.519 85.797,93.464 88.396,101.465 81.59,96.521 
			74.783,101.465 77.383,93.464 70.577,88.519 78.99,88.519 		"/>
		<polygon fill="#FFFFFF" points="110.94,80.518 113.54,88.519 121.953,88.519 115.146,93.464 117.746,101.465 110.94,96.521 
			104.134,101.465 106.733,93.464 99.928,88.519 108.34,88.519 		"/>
		<polygon fill="#FFFFFF" points="140.291,80.518 142.891,88.519 151.303,88.519 144.496,93.464 147.097,101.465 140.291,96.521 
			133.484,101.465 136.084,93.464 129.277,88.519 137.689,88.519 		"/>
		<polygon fill="#FFFFFF" points="169.641,80.518 172.24,88.519 180.653,88.519 173.848,93.464 176.446,101.465 169.641,96.521 
			162.835,101.465 165.434,93.464 158.627,88.519 167.041,88.519 		"/>
		<polygon fill="#FFFFFF" points="198.99,80.518 201.591,88.519 210.003,88.519 203.196,93.464 205.797,101.465 198.99,96.521 
			192.185,101.465 194.783,93.464 187.977,88.519 196.391,88.519 		"/>
		<polygon fill="#FFFFFF" points="80.801,180.083 83.4,188.084 91.812,188.084 85.007,193.03 87.605,201.032 80.801,196.086 
			73.994,201.032 76.594,193.03 69.787,188.084 78.2,188.084 		"/>
		<polygon fill="#FFFFFF" points="110.15,180.083 112.75,188.084 121.163,188.084 114.357,193.03 116.955,201.032 110.15,196.086 
			103.345,201.032 105.943,193.03 99.137,188.084 107.551,188.084 		"/>
		<polygon fill="#FFFFFF" points="139.5,180.083 142.1,188.084 150.514,188.084 143.707,193.03 146.306,201.032 139.5,196.086 
			132.695,201.032 135.293,193.03 128.487,188.084 136.9,188.084 		"/>
		<polygon fill="#FFFFFF" points="168.85,180.083 171.451,188.084 179.863,188.084 173.058,193.03 175.657,201.032 168.85,196.086 
			162.044,201.032 164.644,193.03 157.838,188.084 166.25,188.084 		"/>
		<polygon fill="#FFFFFF" points="198.2,180.083 200.801,188.084 209.213,188.084 202.407,193.03 205.007,201.032 198.2,196.086 
			191.394,201.032 193.994,193.03 187.187,188.084 195.602,188.084 		"/>
	</g>
</g>
<text transform="matrix(1 0 0 1 306 190.5571)" font-family="'NeuzeitGro-Bla'" font-size="147">VOTERS</text>
</svg>
