<?xml version="1.0" encoding="utf-8"?>
<!-- Generator: Adobe Illustrator 16.0.4, SVG Export Plug-In . SVG Version: 6.00 Build 0)  -->
<!DOCTYPE svg PUBLIC "-//W3C//DTD SVG 1.1//EN" "http://www.w3.org/Graphics/SVG/1.1/DTD/svg11.dtd">
<svg version="1.1" id="Layer_1" xmlns="http://www.w3.org/2000/svg" xmlns:xlink="http://www.w3.org/1999/xlink" x="0px" y="0px"
	 width="1055px" height="284.128px" viewBox="0 0 1055 284.128" enable-background="new 0 0 1055 284.128" xml:space="preserve">
<polygon fill="#8FD7F2" points="1055,-0.001 0,-0.001 0,284.126 1055,284.126 902,142.083 "/>
<g>
	<g>
		<path fill="#FFFFFF" d="M234.585,142.063c0,52.515-42.57,95.084-95.085,95.084s-95.085-42.567-95.085-95.084
			c0-52.515,42.571-95.085,95.085-95.085S234.585,89.549,234.585,142.063"/>
		<path fill="#BACFDB" d="M228.275,176.205c-13.719,35.648-48.297,60.943-88.777,60.943c-40.481,0-75.053-25.295-88.771-60.943
			H228.275z"/>
		<path fill="#AE1F25" d="M50.727,107.923c13.719-35.649,48.297-60.945,88.777-60.945s75.052,25.296,88.771,60.945H50.727z"/>
	</g>
	<text transform="matrix(1 0 0 1 64.1855 164.394)" fill="#6E6F72" font-family="'NeuzeitGro-Bla'" font-size="67.3412">V</text>
	<text transform="matrix(1 0 0 1 101.5596 164.394)" fill="#6E6F72" font-family="'NeuzeitGro-Bla'" font-size="67.3412">O</text>
	<text transform="matrix(1 0 0 1 152.8721 164.394)" fill="#6E6F72" font-family="'NeuzeitGro-Bla'" font-size="67.3412">T</text>
	<text transform="matrix(1 0 0 1 185.5332 164.394)" fill="#6E6F72" font-family="'NeuzeitGro-Bla'" font-size="67.3412">E</text>
	<g>
		<polygon fill="#FFFFFF" points="81.59,80.518 84.189,88.519 92.602,88.519 85.797,93.464 88.396,101.465 81.59,96.521 
			74.783,101.465 77.383,93.464 70.577,88.519 78.99,88.519 		"/>
		<polygon fill="#FFFFFF" points="110.94,80.518 113.54,88.519 121.953,88.519 115.146,93.464 117.746,101.465 110.94,96.521 
			104.134,101.465 106.733,93.464 99.928,88.519 108.34,88.519 		"/>
		<polygon fill="#FFFFFF" points="140.291,80.518 142.891,88.519 151.303,88.519 144.496,93.464 147.097,101.465 140.291,96.521 
			133.484,101.465 136.084,93.464 129.277,88.519 137.689,88.519 		"/>
		<polygon fill="#FFFFFF" points="169.641,80.518 172.24,88.519 180.653,88.519 173.848,93.464 176.446,101.465 169.641,96.521 
			162.835,101.465 165.434,93.464 158.627,88.519 167.041,88.519 		"/>
		<polygon fill="#FFFFFF" points="198.99,80.518 201.591,88.519 210.003,88.519 203.196,93.464 205.797,101.465 198.99,96.521 
			192.185,101.465 194.783,93.464 187.977,88.519 196.391,88.519 		"/>
		<polygon fill="#FFFFFF" points="80.801,180.083 83.4,188.083 91.812,188.083 85.007,193.031 87.605,201.033 80.801,196.085 
			73.994,201.033 76.594,193.031 69.787,188.083 78.2,188.083 		"/>
		<polygon fill="#FFFFFF" points="110.15,180.083 112.75,188.083 121.163,188.083 114.357,193.031 116.955,201.033 110.15,196.085 
			103.345,201.033 105.943,193.031 99.137,188.083 107.551,188.083 		"/>
		<polygon fill="#FFFFFF" points="139.5,180.083 142.1,188.083 150.514,188.083 143.707,193.031 146.306,201.033 139.5,196.085 
			132.695,201.033 135.293,193.031 128.487,188.083 136.9,188.083 		"/>
		<polygon fill="#FFFFFF" points="168.85,180.083 171.451,188.083 179.863,188.083 173.058,193.031 175.657,201.033 168.85,196.085 
			162.044,201.033 164.644,193.031 157.838,188.083 166.25,188.083 		"/>
		<polygon fill="#FFFFFF" points="198.2,180.083 200.801,188.083 209.213,188.083 202.407,193.031 205.007,201.033 198.2,196.085 
			191.394,201.033 193.994,193.031 187.187,188.083 195.602,188.083 		"/>
	</g>
</g>
<g enable-background="new    ">
	<path d="M347.16,152.336l17.787-59.829h24.549l-29.547,98.049h-25.872L306,92.507h24.549L347.16,152.336z"/>
	<path d="M445.503,90.596c14.502,0,26.582,4.876,36.235,14.626c9.652,9.753,14.479,21.929,14.479,36.53
		c0,14.016-4.998,25.971-14.994,35.868c-9.996,9.899-22.101,14.847-36.309,14.847c-14.604,0-27-4.899-37.191-14.7
		c-10.194-9.799-15.288-21.756-15.288-35.868c0-14.7,5.487-27.243,16.464-37.632C418.602,95.153,430.803,90.596,445.503,90.596z
		 M444.621,112.646c-8.037,0-14.7,2.745-19.992,8.232c-5.292,5.489-7.938,12.398-7.938,20.727c0,8.037,2.669,14.848,8.012,20.434
		c5.34,5.586,11.93,8.379,19.771,8.379c7.644,0,14.16-2.768,19.551-8.306c5.389-5.535,8.085-12.225,8.085-20.065
		c0-8.428-2.623-15.436-7.864-21.021C459.002,115.439,452.46,112.646,444.621,112.646z"/>
	<path d="M545.758,111.764v78.792h-23.814v-78.792h-22.638V92.507h68.943v19.257H545.758z"/>
	<path d="M599.411,111.764v19.992h32.34v19.257h-32.34v20.286h32.34v19.257h-56.153V92.507h56.153v19.257H599.411z"/>
	<path d="M671.294,152.63v37.926h-23.814V92.507h31.752c12.838,0,22.44,2.45,28.812,7.35c7.056,5.49,10.584,13.77,10.584,24.843
		c0,14.898-6.321,24.844-18.963,29.842l21.608,36.015h-28.518L671.294,152.63z M671.294,139.253h7.644
		c4.899,0,8.722-1.176,11.466-3.528c2.743-2.352,4.116-5.683,4.116-9.996c0-4.116-1.3-7.424-3.896-9.922
		c-2.598-2.499-6.004-3.749-10.216-3.749h-9.114V139.253z"/>
	<path d="M730.681,160.862h23.373c-0.099,0.394-0.146,0.933-0.146,1.617c0,2.451,1.15,4.558,3.454,6.321
		c2.302,1.764,5.021,2.646,8.158,2.646c2.842,0,5.242-0.758,7.203-2.278c1.96-1.518,2.94-3.355,2.94-5.513
		c0-2.253-0.933-4.091-2.793-5.512c-1.863-1.42-5.637-3.161-11.319-5.219c-10.683-3.822-18.326-8.158-22.932-13.01
		c-4.607-4.851-6.909-11.048-6.909-18.596c0-9.21,3.11-16.634,9.334-22.271c6.223-5.634,14.43-8.452,24.623-8.452
		c6.564,0,12.47,1.323,17.714,3.969c5.241,2.646,9.283,6.372,12.127,11.172c2.448,4.02,4.164,9.262,5.146,15.729h-24.256
		c-0.687-6.564-4.313-9.85-10.878-9.85c-2.939,0-5.292,0.713-7.056,2.132c-1.764,1.422-2.646,3.308-2.646,5.659
		c0,2.94,1.518,5.292,4.557,7.057c1.566,1.079,5.292,2.696,11.172,4.851c9.996,3.822,16.953,7.497,20.874,11.025
		c5.487,4.998,8.232,11.564,8.232,19.698c0,9.113-3.234,16.464-9.702,22.05s-14.946,8.379-25.432,8.379
		c-10.683,0-19.16-2.842-25.431-8.526C733.816,178.258,730.681,170.564,730.681,160.862z"/>
</g>
</svg>
