<?xml version="1.0" encoding="utf-8"?>
<!-- Generator: Adobe Illustrator 16.0.4, SVG Export Plug-In . SVG Version: 6.00 Build 0)  -->
<!DOCTYPE svg PUBLIC "-//W3C//DTD SVG 1.1//EN" "http://www.w3.org/Graphics/SVG/1.1/DTD/svg11.dtd">
<svg version="1.1" id="Layer_1" xmlns="http://www.w3.org/2000/svg" xmlns:xlink="http://www.w3.org/1999/xlink" x="0px" y="0px"
	 width="1055px" height="284.128px" viewBox="-248.415 0 1055 284.128" enable-background="new -248.415 0 1055 284.128"
	 xml:space="preserve">
<polygon fill="#3EBEB1" points="806.585,0 -248.415,0 -248.415,284.128 806.585,284.128 653.585,142.084 "/>
<g>
	<g>
		<path fill="#FFFFFF" d="M-13.83,142.064c0,52.514-42.57,95.084-95.085,95.084S-204,194.579-204,142.064
			s42.571-95.085,95.085-95.085S-13.83,89.55-13.83,142.064"/>
		<path fill="#BACFDB" d="M-20.14,176.205c-13.719,35.649-48.297,60.944-88.777,60.944c-40.481,0-75.053-25.295-88.771-60.944
			H-20.14z"/>
		<path fill="#AE1F25" d="M-197.688,107.924c13.719-35.649,48.297-60.945,88.777-60.945s75.052,25.296,88.771,60.945H-197.688z"/>
	</g>
	<text transform="matrix(1 0 0 1 -184.2295 164.396)" fill="#6E6F72" font-family="'NeuzeitGro-Bla'" font-size="67.3412">V</text>
	<text transform="matrix(1 0 0 1 -146.8555 164.396)" fill="#6E6F72" font-family="'NeuzeitGro-Bla'" font-size="67.3412">O</text>
	<text transform="matrix(1 0 0 1 -95.543 164.396)" fill="#6E6F72" font-family="'NeuzeitGro-Bla'" font-size="67.3412">T</text>
	<text transform="matrix(1 0 0 1 -62.8818 164.396)" fill="#6E6F72" font-family="'NeuzeitGro-Bla'" font-size="67.3412">E</text>
	<g>
		<polygon fill="#FFFFFF" points="-166.825,80.519 -164.226,88.52 -155.813,88.52 -162.618,93.465 -160.019,101.466 
			-166.825,96.522 -173.632,101.466 -171.032,93.465 -177.838,88.52 -169.425,88.52 		"/>
		<polygon fill="#FFFFFF" points="-137.475,80.519 -134.875,88.52 -126.462,88.52 -133.269,93.465 -130.669,101.466 
			-137.475,96.522 -144.281,101.466 -141.682,93.465 -148.487,88.52 -140.075,88.52 		"/>
		<polygon fill="#FFFFFF" points="-108.124,80.519 -105.524,88.52 -97.112,88.52 -103.919,93.465 -101.318,101.466 -108.124,96.522 
			-114.931,101.466 -112.331,93.465 -119.138,88.52 -110.726,88.52 		"/>
		<polygon fill="#FFFFFF" points="-78.774,80.519 -76.175,88.52 -67.762,88.52 -74.567,93.465 -71.969,101.466 -78.774,96.522 
			-85.58,101.466 -82.981,93.465 -89.788,88.52 -81.374,88.52 		"/>
		<polygon fill="#FFFFFF" points="-49.425,80.519 -46.824,88.52 -38.412,88.52 -45.219,93.465 -42.618,101.466 -49.425,96.522 
			-56.23,101.466 -53.632,93.465 -60.438,88.52 -52.024,88.52 		"/>
		<polygon fill="#FFFFFF" points="-167.614,180.084 -165.015,188.085 -156.603,188.085 -163.408,193.031 -160.81,201.033 
			-167.614,196.087 -174.421,201.033 -171.821,193.031 -178.628,188.085 -170.215,188.085 		"/>
		<polygon fill="#FFFFFF" points="-138.265,180.084 -135.665,188.085 -127.252,188.085 -134.058,193.031 -131.46,201.033 
			-138.265,196.087 -145.07,201.033 -142.472,193.031 -149.278,188.085 -140.864,188.085 		"/>
		<polygon fill="#FFFFFF" points="-108.915,180.084 -106.315,188.085 -97.901,188.085 -104.708,193.031 -102.109,201.033 
			-108.915,196.087 -115.72,201.033 -113.122,193.031 -119.928,188.085 -111.515,188.085 		"/>
		<polygon fill="#FFFFFF" points="-79.565,180.084 -76.964,188.085 -68.552,188.085 -75.357,193.031 -72.758,201.033 
			-79.565,196.087 -86.371,201.033 -83.771,193.031 -90.577,188.085 -82.165,188.085 		"/>
		<polygon fill="#FFFFFF" points="-50.215,180.084 -47.614,188.085 -39.202,188.085 -46.008,193.031 -43.408,201.033 
			-50.215,196.087 -57.021,201.033 -54.421,193.031 -61.228,188.085 -52.813,188.085 		"/>
	</g>
</g>
<text transform="matrix(1 0 0 1 57.585 190.5581)" font-family="'NeuzeitGro-Bla'" font-size="147">VOTERS</text>
</svg>
