<!-- Generator: Adobe Illustrator 18.0.0, SVG Export Plug-In  -->
<svg version="1.1"
	 xmlns="http://www.w3.org/2000/svg" xmlns:xlink="http://www.w3.org/1999/xlink" xmlns:a="http://ns.adobe.com/AdobeSVGViewerExtensions/3.0/"
	 x="0px" y="0px" width="237.6px" height="46.7px" viewBox="0 0 237.6 46.7" enable-background="new 0 0 237.6 46.7"
	 xml:space="preserve">
<defs>
</defs>
<g>
	<g opacity="0.74">
		<rect x="0" y="0" width="237.6" height="46.7"/>
	</g>
	<g opacity="0.9">
		<path fill="#FFFFFF" d="M33.1,30.3h-2.2v-4.3h-4.5v4.3h-2.2V20.1h2.2v4.4h4.5v-4.4h2.2V30.3z"/>
		<path fill="#FFFFFF" d="M45.6,26.1c0,1.3-0.4,2.3-1.3,3.1c-0.9,0.8-2,1.2-3.4,1.2c-1.4,0-2.5-0.4-3.3-1.2s-1.3-1.9-1.3-3.1v-1.8
			c0-1.3,0.4-2.3,1.3-3.1s2-1.2,3.3-1.2c1.4,0,2.5,0.4,3.4,1.2c0.9,0.8,1.3,1.9,1.3,3.1V26.1z M43.4,24.3c0-0.8-0.2-1.5-0.6-2
			c-0.4-0.5-1-0.8-1.8-0.8c-0.8,0-1.3,0.3-1.8,0.8s-0.6,1.2-0.6,2v1.9c0,0.8,0.2,1.5,0.6,2c0.4,0.5,1,0.8,1.8,0.8
			c0.8,0,1.4-0.3,1.8-0.8c0.4-0.5,0.6-1.2,0.6-2V24.3z"/>
		<path fill="#FFFFFF" d="M51.8,20.1l2.8,7.5h0l2.8-7.5h2.9v10.2h-2.2v-3l0.2-4.5l0,0l-3,7.6h-1.5l-3-7.5l0,0l0.2,4.5v3h-2.2V20.1
			H51.8z"/>
		<path fill="#FFFFFF" d="M70.9,25.8h-4.6v2.9h5.4v1.6h-7.6V20.1h7.6v1.6h-5.4v2.6h4.6V25.8z"/>
	</g>
</g>
</svg>
