<?xml version="1.0" encoding="utf-8"?>
<!-- Generator: Adobe Illustrator 16.0.4, SVG Export Plug-In . SVG Version: 6.00 Build 0)  -->
<!DOCTYPE svg PUBLIC "-//W3C//DTD SVG 1.1//EN" "http://www.w3.org/Graphics/SVG/1.1/DTD/svg11.dtd">
<svg version="1.1" id="Layer_1" xmlns="http://www.w3.org/2000/svg" xmlns:xlink="http://www.w3.org/1999/xlink" x="0px" y="0px"
	 width="631px" height="86.4px" viewBox="0 0 631 86.4" style="enable-background:new 0 0 631 86.4;" xml:space="preserve">
<style type="text/css">
<![CDATA[
	.st0{fill:#FFFFFF;}
	.st1{opacity:0.87;fill:#231F20;stroke:#231F20;stroke-miterlimit:10;enable-background:new    ;}
]]>
</style>
<rect x="4.6" y="15.9" class="st1" width="619.9" height="54.6"/>
<g>
	<path class="st0" d="M32.6,36.8h1.5V47h-1.5v-4.5h-5.7V47h-1.5V36.8h1.5v4.4h5.7V36.8z"/>
	<path class="st0" d="M41.4,36.6c1.6,0,2.9,0.5,3.9,1.5s1.6,2.3,1.6,3.8s-0.5,2.8-1.6,3.7s-2.4,1.5-4,1.5c-1.5,0-2.8-0.5-3.9-1.5
		c-1-1-1.5-2.2-1.5-3.7c0-1.5,0.5-2.8,1.6-3.8S39.8,36.6,41.4,36.6z M41.4,38c-1.2,0-2.1,0.4-2.9,1.1s-1.1,1.7-1.1,2.8
		c0,1.1,0.4,2,1.1,2.8s1.7,1.1,2.8,1.1c1.1,0,2.1-0.4,2.9-1.1c0.8-0.7,1.1-1.7,1.1-2.8c0-1.1-0.4-2-1.1-2.7
		C43.5,38.4,42.6,38,41.4,38z"/>
	<path class="st0" d="M56.8,36.8h1.4V47h-1.5v-8l-3.1,4h-0.3l-3.2-4v8h-1.5V36.8h1.4l3.4,4.2L56.8,36.8z"/>
	<path class="st0" d="M60.4,36.8h5.8v1.3h-4.3v3.1h4.2v1.3h-4.2v3.2h4.5V47h-5.9V36.8z"/>
	<path class="st0" d="M114.7,46.2c-0.4,0.2-0.8,0.4-1.3,0.5c-0.4,0.1-0.9,0.2-1.3,0.3c-0.4,0.1-0.9,0.1-1.4,0.1
		c-0.9,0-1.7-0.1-2.4-0.4c-0.7-0.2-1.3-0.6-1.8-1.1c-0.5-0.5-0.9-1-1.2-1.7c-0.3-0.6-0.4-1.3-0.4-2.1c0-0.9,0.2-1.6,0.5-2.3
		c0.3-0.7,0.7-1.2,1.3-1.6c0.5-0.4,1.2-0.8,1.9-1c0.7-0.2,1.4-0.3,2.2-0.3c1.2,0,2.5,0.3,3.9,0.8v2.7c-0.5-0.3-1-0.6-1.5-0.8
		c-0.5-0.2-1.1-0.3-1.7-0.3c-0.6,0-1.1,0.1-1.7,0.4c-0.5,0.2-0.9,0.6-1.2,1S108,41.4,108,42c0,0.5,0.1,1,0.4,1.4
		c0.3,0.4,0.7,0.8,1.1,1c0.5,0.3,1,0.4,1.6,0.4c0.5,0,1-0.1,1.4-0.2c0.4-0.1,0.8-0.3,1.1-0.4c0.3-0.1,0.6-0.3,0.9-0.5V46.2z"/>
	<path class="st0" d="M124.4,47h-7.7V36.8h3.1v7.7h4.7V47z"/>
	<path class="st0" d="M137.2,47H134l-0.8-2.1h-4.4l-0.8,2.1h-3.1l4.5-10.2h3.4L137.2,47z M132.5,43.2l-1.5-3.7l-1.5,3.7H132.5z"/>
	<path class="st0" d="M145.6,44c0,0.6-0.2,1.2-0.5,1.6c-0.3,0.5-0.8,0.8-1.4,1.1c-0.6,0.2-1.2,0.4-2,0.4c-0.2,0-0.5,0-0.8,0
		c-0.3,0-0.7-0.1-1.2-0.2c-0.5-0.1-1-0.3-1.6-0.5v-2.5c0.5,0.3,1,0.6,1.5,0.8c0.5,0.2,1,0.3,1.6,0.3c0.5,0,0.9-0.1,1-0.3
		c0.2-0.2,0.2-0.3,0.2-0.5c0-0.3-0.1-0.5-0.4-0.7c-0.3-0.2-0.6-0.4-1.1-0.6c-0.6-0.2-1-0.5-1.5-0.8c-0.4-0.3-0.8-0.6-1-1
		c-0.3-0.4-0.4-0.9-0.4-1.5c0-0.5,0.1-1,0.4-1.5c0.3-0.4,0.7-0.8,1.2-1.1s1.2-0.4,2-0.4c0.6,0,1.1,0.1,1.6,0.2
		c0.5,0.1,0.9,0.2,1.2,0.4s0.5,0.2,0.6,0.3v2.4c-0.4-0.3-0.9-0.6-1.4-0.8c-0.5-0.2-1.1-0.4-1.6-0.4c-0.4,0-0.7,0.1-0.8,0.2
		c-0.2,0.1-0.3,0.3-0.3,0.5c0,0.2,0.1,0.4,0.3,0.5c0.2,0.1,0.5,0.3,0.9,0.5c0.8,0.4,1.4,0.7,1.9,1s0.8,0.6,1.1,1
		C145.5,43,145.6,43.5,145.6,44z"/>
	<path class="st0" d="M154.8,44c0,0.6-0.2,1.2-0.5,1.6c-0.3,0.5-0.8,0.8-1.4,1.1c-0.6,0.2-1.2,0.4-2,0.4c-0.2,0-0.5,0-0.8,0
		c-0.3,0-0.7-0.1-1.2-0.2c-0.5-0.1-1-0.3-1.6-0.5v-2.5c0.5,0.3,1,0.6,1.5,0.8c0.5,0.2,1,0.3,1.6,0.3c0.5,0,0.9-0.1,1-0.3
		c0.2-0.2,0.2-0.3,0.2-0.5c0-0.3-0.1-0.5-0.4-0.7c-0.3-0.2-0.6-0.4-1.1-0.6c-0.6-0.2-1-0.5-1.5-0.8c-0.4-0.3-0.8-0.6-1-1
		c-0.3-0.4-0.4-0.9-0.4-1.5c0-0.5,0.1-1,0.4-1.5c0.3-0.4,0.7-0.8,1.2-1.1s1.2-0.4,2-0.4c0.6,0,1.1,0.1,1.6,0.2
		c0.5,0.1,0.9,0.2,1.2,0.4s0.5,0.2,0.6,0.3v2.4c-0.4-0.3-0.9-0.6-1.4-0.8c-0.5-0.2-1.1-0.4-1.6-0.4c-0.4,0-0.7,0.1-0.8,0.2
		c-0.2,0.1-0.3,0.3-0.3,0.5c0,0.2,0.1,0.4,0.3,0.5c0.2,0.1,0.5,0.3,0.9,0.5c0.8,0.4,1.4,0.7,1.9,1s0.8,0.6,1.1,1
		C154.6,43,154.8,43.5,154.8,44z"/>
	<path class="st0" d="M164.5,47h-7.7V36.8h7.5v2h-4.5v1.9h4.3v2h-4.3v2.2h4.6V47z"/>
	<path class="st0" d="M173.7,44c0,0.6-0.2,1.2-0.5,1.6c-0.3,0.5-0.8,0.8-1.4,1.1c-0.6,0.2-1.2,0.4-2,0.4c-0.2,0-0.5,0-0.8,0
		c-0.3,0-0.7-0.1-1.2-0.2c-0.5-0.1-1-0.3-1.6-0.5v-2.5c0.5,0.3,1,0.6,1.5,0.8c0.5,0.2,1,0.3,1.6,0.3c0.5,0,0.9-0.1,1-0.3
		c0.2-0.2,0.2-0.3,0.2-0.5c0-0.3-0.1-0.5-0.4-0.7c-0.3-0.2-0.6-0.4-1.1-0.6c-0.6-0.2-1-0.5-1.5-0.8c-0.4-0.3-0.8-0.6-1-1
		c-0.3-0.4-0.4-0.9-0.4-1.5c0-0.5,0.1-1,0.4-1.5c0.3-0.4,0.7-0.8,1.2-1.1s1.2-0.4,2-0.4c0.6,0,1.1,0.1,1.6,0.2
		c0.5,0.1,0.9,0.2,1.2,0.4s0.5,0.2,0.6,0.3v2.4c-0.4-0.3-0.9-0.6-1.4-0.8c-0.5-0.2-1.1-0.4-1.6-0.4c-0.4,0-0.7,0.1-0.8,0.2
		c-0.2,0.1-0.3,0.3-0.3,0.5c0,0.2,0.1,0.4,0.3,0.5c0.2,0.1,0.5,0.3,0.9,0.5c0.8,0.4,1.4,0.7,1.9,1s0.8,0.6,1.1,1
		C173.5,43,173.7,43.5,173.7,44z"/>
	<path class="st0" d="M213.1,47V36.8h3.4c1.4,0,2.5,0.2,3.3,0.6c0.8,0.4,1.5,1,1.9,1.8s0.7,1.7,0.7,2.7c0,0.7-0.1,1.3-0.4,2
		c-0.3,0.6-0.6,1.2-1.1,1.6c-0.5,0.5-1.1,0.9-1.7,1.1c-0.4,0.2-0.7,0.3-1.1,0.3c-0.3,0.1-0.9,0.1-1.8,0.1H213.1z M216.4,38.1h-1.8
		v7.6h1.9c0.7,0,1.3,0,1.7-0.2c0.4-0.1,0.7-0.2,1-0.4c0.3-0.2,0.5-0.3,0.7-0.6c0.7-0.7,1.1-1.7,1.1-2.8c0-1.1-0.4-2-1.1-2.7
		c-0.3-0.3-0.6-0.5-0.9-0.6c-0.4-0.2-0.7-0.3-1-0.3S217.1,38.1,216.4,38.1z"/>
	<path class="st0" d="M229.4,36.6c1.6,0,2.9,0.5,3.9,1.5s1.6,2.3,1.6,3.8s-0.5,2.8-1.6,3.7s-2.4,1.5-4,1.5c-1.5,0-2.8-0.5-3.9-1.5
		c-1-1-1.5-2.2-1.5-3.7c0-1.5,0.5-2.8,1.6-3.8S227.8,36.6,229.4,36.6z M229.4,38c-1.2,0-2.1,0.4-2.9,1.1s-1.1,1.7-1.1,2.8
		c0,1.1,0.4,2,1.1,2.8s1.7,1.1,2.8,1.1c1.1,0,2.1-0.4,2.9-1.1c0.8-0.7,1.1-1.7,1.1-2.8c0-1.1-0.4-2-1.1-2.7
		C231.5,38.4,230.5,38,229.4,38z"/>
	<path class="st0" d="M236.7,47V36.8h2.6c1,0,1.9,0.3,2.5,0.8c0.6,0.5,0.9,1.2,0.9,2.1c0,0.6-0.1,1.1-0.4,1.5
		c-0.3,0.4-0.7,0.8-1.3,1c0.3,0.2,0.6,0.5,1,0.9s0.8,1,1.3,1.9c0.4,0.6,0.6,1,0.9,1.3l0.5,0.7h-1.7l-0.4-0.7c0,0,0-0.1-0.1-0.1
		l-0.3-0.4l-0.5-0.7l-0.5-0.8c-0.3-0.4-0.6-0.8-0.8-1c-0.3-0.2-0.5-0.4-0.7-0.5c-0.2-0.1-0.5-0.2-1-0.2h-0.4V47H236.7z M238.6,38
		h-0.4v3.2h0.6c0.7,0,1.3-0.1,1.5-0.2c0.3-0.1,0.5-0.3,0.6-0.6c0.2-0.3,0.2-0.5,0.2-0.9c0-0.3-0.1-0.6-0.3-0.9
		c-0.2-0.3-0.4-0.4-0.7-0.6C239.9,38.1,239.4,38,238.6,38z"/>
	<path class="st0" d="M253.9,36.8h1.4V47h-1.5v-8l-3.1,4h-0.3l-3.2-4v8h-1.5V36.8h1.4l3.4,4.2L253.9,36.8z"/>
	<path class="st0" d="M260,42.7l-1.1-0.7c-0.7-0.4-1.2-0.8-1.5-1.3c-0.3-0.4-0.4-0.9-0.4-1.4c0-0.8,0.3-1.5,0.8-2
		c0.6-0.5,1.3-0.8,2.2-0.8c0.9,0,1.6,0.2,2.4,0.7V39c-0.7-0.7-1.5-1.1-2.4-1.1c-0.5,0-0.9,0.1-1.2,0.3c-0.3,0.2-0.5,0.5-0.5,0.9
		c0,0.3,0.1,0.6,0.3,0.9s0.6,0.5,1.1,0.8l1.1,0.7c1.2,0.7,1.9,1.7,1.9,2.8c0,0.8-0.3,1.5-0.8,2c-0.5,0.5-1.3,0.8-2.1,0.8
		c-1,0-1.9-0.3-2.8-0.9v-1.9c0.8,1,1.7,1.5,2.7,1.5c0.5,0,0.8-0.1,1.1-0.4c0.3-0.3,0.5-0.6,0.5-1C261.3,43.9,260.9,43.3,260,42.7z"
		/>
	<path class="st0" d="M301.9,36.8h5.5v1.3h-4v2.9h4v1.3h-4V47h-1.5V36.8z"/>
	<path class="st0" d="M313.9,36.6c1.6,0,2.9,0.5,3.9,1.5s1.6,2.3,1.6,3.8s-0.5,2.8-1.6,3.7s-2.4,1.5-4,1.5c-1.5,0-2.8-0.5-3.9-1.5
		c-1-1-1.5-2.2-1.5-3.7c0-1.5,0.5-2.8,1.6-3.8S312.3,36.6,313.9,36.6z M314,38c-1.2,0-2.1,0.4-2.9,1.1s-1.1,1.7-1.1,2.8
		c0,1.1,0.4,2,1.1,2.8s1.7,1.1,2.8,1.1c1.1,0,2.1-0.4,2.9-1.1c0.8-0.7,1.1-1.7,1.1-2.8c0-1.1-0.4-2-1.1-2.7
		C316,38.4,315.1,38,314,38z"/>
	<path class="st0" d="M326.3,36.6c1.6,0,2.9,0.5,3.9,1.5s1.6,2.3,1.6,3.8s-0.5,2.8-1.6,3.7s-2.4,1.5-4,1.5c-1.5,0-2.8-0.5-3.9-1.5
		c-1-1-1.5-2.2-1.5-3.7c0-1.5,0.5-2.8,1.6-3.8S324.7,36.6,326.3,36.6z M326.3,38c-1.2,0-2.1,0.4-2.9,1.1s-1.1,1.7-1.1,2.8
		c0,1.1,0.4,2,1.1,2.8s1.7,1.1,2.8,1.1c1.1,0,2.1-0.4,2.9-1.1c0.8-0.7,1.1-1.7,1.1-2.8c0-1.1-0.4-2-1.1-2.7
		C328.4,38.4,327.4,38,326.3,38z"/>
	<path class="st0" d="M333.6,47V36.8h3.4c1.4,0,2.5,0.2,3.3,0.6c0.8,0.4,1.5,1,1.9,1.8s0.7,1.7,0.7,2.7c0,0.7-0.1,1.3-0.4,2
		c-0.3,0.6-0.6,1.2-1.1,1.6c-0.5,0.5-1.1,0.9-1.7,1.1c-0.4,0.2-0.7,0.3-1.1,0.3c-0.3,0.1-0.9,0.1-1.8,0.1H333.6z M336.9,38.1h-1.8
		v7.6h1.9c0.7,0,1.3,0,1.7-0.2c0.4-0.1,0.7-0.2,1-0.4c0.3-0.2,0.5-0.3,0.7-0.6c0.7-0.7,1.1-1.7,1.1-2.8c0-1.1-0.4-2-1.1-2.7
		c-0.3-0.3-0.6-0.5-0.9-0.6c-0.4-0.2-0.7-0.3-1-0.3S337.6,38.1,336.9,38.1z"/>
	<path class="st0" d="M382.3,47V36.7h3.2c1,0,1.8,0.3,2.3,0.8c0.6,0.5,0.9,1.2,0.9,2.1c0,0.6-0.1,1.1-0.4,1.6
		c-0.3,0.5-0.7,0.8-1.2,1c-0.5,0.2-1.3,0.3-2.2,0.3h-1.1V47H382.3z M385.2,38.1h-1.5v3.2h1.6c0.6,0,1.1-0.1,1.4-0.4
		c0.3-0.3,0.5-0.7,0.5-1.2C387.2,38.6,386.5,38.1,385.2,38.1z"/>
	<path class="st0" d="M397.2,36.8h1.5V47h-1.5v-4.5h-5.7V47H390V36.8h1.5v4.4h5.7V36.8z"/>
	<path class="st0" d="M400.9,36.8h1.5V47h-1.5V36.8z"/>
	<path class="st0" d="M404.7,36.8h1.5v8.9h4.6V47h-6.1V36.8z"/>
	<path class="st0" d="M412,36.8h1.5v8.9h4.6V47H412V36.8z"/>
	<path class="st0" d="M423.9,36.8h1.8l-3.8,4.8V47h-1.5v-5.4l-3.8-4.8h1.8l2.7,3.5L423.9,36.8z"/>
	<path class="st0" d="M464.3,36.8h5.5v1.3h-4v2.9h4v1.3h-4V47h-1.5V36.8z"/>
	<path class="st0" d="M478.5,36.8h1.5v5.8c0,0.8-0.1,1.4-0.2,1.8c-0.1,0.4-0.3,0.7-0.4,1c-0.2,0.3-0.4,0.5-0.6,0.7
		c-0.8,0.7-1.9,1-3.2,1c-1.3,0-2.4-0.3-3.2-1c-0.2-0.2-0.5-0.5-0.6-0.7c-0.2-0.3-0.3-0.6-0.4-1c-0.1-0.4-0.2-1-0.2-1.8v-5.8h1.5v5.8
		c0,1,0.1,1.6,0.3,2c0.2,0.4,0.6,0.7,1,0.9s1,0.3,1.6,0.3c0.9,0,1.6-0.2,2.1-0.7c0.3-0.2,0.5-0.5,0.6-0.9s0.2-0.9,0.2-1.7V36.8z"/>
	<path class="st0" d="M490.1,36.8h1.4V47h-1.3l-6.8-7.9V47H482V36.8h1.2l6.9,7.9V36.8z"/>
	<path class="st0" d="M531.2,47V36.8h2.6c1,0,1.9,0.3,2.5,0.8c0.6,0.5,0.9,1.2,0.9,2.1c0,0.6-0.1,1.1-0.4,1.5
		c-0.3,0.4-0.7,0.8-1.3,1c0.3,0.2,0.6,0.5,1,0.9s0.8,1,1.3,1.9c0.4,0.6,0.6,1,0.9,1.3l0.5,0.7h-1.7l-0.4-0.7c0,0,0-0.1-0.1-0.1
		l-0.3-0.4l-0.5-0.7l-0.5-0.8c-0.3-0.4-0.6-0.8-0.8-1c-0.3-0.2-0.5-0.4-0.7-0.5c-0.2-0.1-0.5-0.2-1-0.2h-0.4V47H531.2z M533.1,38
		h-0.4v3.2h0.6c0.7,0,1.3-0.1,1.5-0.2c0.3-0.1,0.5-0.3,0.6-0.6c0.2-0.3,0.2-0.5,0.2-0.9c0-0.3-0.1-0.6-0.3-0.9
		c-0.2-0.3-0.4-0.4-0.7-0.6C534.4,38.1,533.8,38,533.1,38z"/>
	<path class="st0" d="M540.2,36.8h5.8v1.3h-4.3v3.1h4.2v1.3h-4.2v3.2h4.5V47h-5.9V36.8z"/>
	<path class="st0" d="M550.3,42.7l-1.1-0.7c-0.7-0.4-1.2-0.8-1.5-1.3c-0.3-0.4-0.4-0.9-0.4-1.4c0-0.8,0.3-1.5,0.8-2
		c0.6-0.5,1.3-0.8,2.2-0.8c0.9,0,1.6,0.2,2.4,0.7V39c-0.7-0.7-1.5-1.1-2.4-1.1c-0.5,0-0.9,0.1-1.2,0.3c-0.3,0.2-0.5,0.5-0.5,0.9
		c0,0.3,0.1,0.6,0.3,0.9s0.6,0.5,1.1,0.8l1.1,0.7c1.2,0.7,1.9,1.7,1.9,2.8c0,0.8-0.3,1.5-0.8,2c-0.5,0.5-1.3,0.8-2.1,0.8
		c-1,0-1.9-0.3-2.8-0.9v-1.9c0.8,1,1.7,1.5,2.7,1.5c0.5,0,0.8-0.1,1.1-0.4c0.3-0.3,0.5-0.6,0.5-1C551.6,43.9,551.2,43.3,550.3,42.7z
		"/>
	<path class="st0" d="M559.6,36.6c1.6,0,2.9,0.5,3.9,1.5s1.6,2.3,1.6,3.8s-0.5,2.8-1.6,3.7s-2.4,1.5-4,1.5c-1.5,0-2.8-0.5-3.9-1.5
		c-1-1-1.5-2.2-1.5-3.7c0-1.5,0.5-2.8,1.6-3.8S558,36.6,559.6,36.6z M559.7,38c-1.2,0-2.1,0.4-2.9,1.1s-1.1,1.7-1.1,2.8
		c0,1.1,0.4,2,1.1,2.8s1.7,1.1,2.8,1.1c1.1,0,2.1-0.4,2.9-1.1c0.8-0.7,1.1-1.7,1.1-2.8c0-1.1-0.4-2-1.1-2.7
		C561.7,38.4,560.8,38,559.7,38z"/>
	<path class="st0" d="M574.1,36.8h1.5v5.8c0,0.8-0.1,1.4-0.2,1.8c-0.1,0.4-0.3,0.7-0.4,1c-0.2,0.3-0.4,0.5-0.6,0.7
		c-0.8,0.7-1.9,1-3.2,1c-1.3,0-2.4-0.3-3.2-1c-0.2-0.2-0.5-0.5-0.6-0.7c-0.2-0.3-0.3-0.6-0.4-1c-0.1-0.4-0.2-1-0.2-1.8v-5.8h1.5v5.8
		c0,1,0.1,1.6,0.3,2c0.2,0.4,0.6,0.7,1,0.9s1,0.3,1.6,0.3c0.9,0,1.6-0.2,2.1-0.7c0.3-0.2,0.5-0.5,0.6-0.9s0.2-0.9,0.2-1.7V36.8z"/>
	<path class="st0" d="M577.6,47V36.8h2.6c1,0,1.9,0.3,2.5,0.8c0.6,0.5,0.9,1.2,0.9,2.1c0,0.6-0.1,1.1-0.4,1.5
		c-0.3,0.4-0.7,0.8-1.3,1c0.3,0.2,0.6,0.5,1,0.9s0.8,1,1.3,1.9c0.4,0.6,0.6,1,0.9,1.3l0.5,0.7h-1.7l-0.4-0.7c0,0,0-0.1-0.1-0.1
		l-0.3-0.4l-0.5-0.7l-0.5-0.8c-0.3-0.4-0.6-0.8-0.8-1c-0.3-0.2-0.5-0.4-0.7-0.5c-0.2-0.1-0.5-0.2-1-0.2h-0.4V47H577.6z M579.5,38
		h-0.4v3.2h0.6c0.7,0,1.3-0.1,1.5-0.2c0.3-0.1,0.5-0.3,0.6-0.6c0.2-0.3,0.2-0.5,0.2-0.9c0-0.3-0.1-0.6-0.3-0.9
		c-0.2-0.3-0.4-0.4-0.7-0.6C580.8,38.1,580.2,38,579.5,38z"/>
	<path class="st0" d="M595.4,44.6v1.6c-1.1,0.6-2.3,0.9-3.7,0.9c-1.1,0-2.1-0.2-2.9-0.7c-0.8-0.5-1.4-1.1-1.9-1.9
		c-0.5-0.8-0.7-1.7-0.7-2.6c0-1.5,0.5-2.7,1.6-3.8c1.1-1,2.4-1.5,3.9-1.5c1.1,0,2.3,0.3,3.6,0.8V39c-1.2-0.7-2.4-1-3.5-1
		c-1.2,0-2.1,0.4-2.9,1.1c-0.8,0.7-1.2,1.7-1.2,2.8c0,1.1,0.4,2,1.1,2.8s1.7,1.1,2.9,1.1C593.1,45.8,594.3,45.4,595.4,44.6z"/>
	<path class="st0" d="M597.3,36.8h5.8v1.3h-4.3v3.1h4.2v1.3h-4.2v3.2h4.5V47h-5.9V36.8z"/>
	<path class="st0" d="M607.3,42.7l-1.1-0.7c-0.7-0.4-1.2-0.8-1.5-1.3c-0.3-0.4-0.4-0.9-0.4-1.4c0-0.8,0.3-1.5,0.8-2
		c0.6-0.5,1.3-0.8,2.2-0.8c0.9,0,1.6,0.2,2.4,0.7V39c-0.7-0.7-1.5-1.1-2.4-1.1c-0.5,0-0.9,0.1-1.2,0.3c-0.3,0.2-0.5,0.5-0.5,0.9
		c0,0.3,0.1,0.6,0.3,0.9s0.6,0.5,1.1,0.8l1.1,0.7c1.2,0.7,1.9,1.7,1.9,2.8c0,0.8-0.3,1.5-0.8,2c-0.5,0.5-1.3,0.8-2.1,0.8
		c-1,0-1.9-0.3-2.8-0.9v-1.9c0.8,1,1.7,1.5,2.7,1.5c0.5,0,0.8-0.1,1.1-0.4c0.3-0.3,0.5-0.6,0.5-1C608.6,43.9,608.2,43.3,607.3,42.7z
		"/>
</g>
</svg>
