<?xml version="1.0" encoding="utf-8"?>
<!-- Generator: Adobe Illustrator 16.0.4, SVG Export Plug-In . SVG Version: 6.00 Build 0)  -->
<!DOCTYPE svg PUBLIC "-//W3C//DTD SVG 1.1//EN" "http://www.w3.org/Graphics/SVG/1.1/DTD/svg11.dtd">
<svg version="1.1" id="Layer_1" xmlns="http://www.w3.org/2000/svg" xmlns:xlink="http://www.w3.org/1999/xlink" x="0px" y="0px"
	 width="384px" height="172.15px" viewBox="0 0 384 172.15" enable-background="new 0 0 384 172.15" xml:space="preserve">
<g>
	<polygon fill="#EFE0A3" points="77.085,72.083 78.032,71.383 75.431,73.295 	"/>
	<polygon fill="#EFE0A3" points="186.231,138.53 187.397,137.608 188.052,135.301 189.421,132.868 188.563,130.497 188.257,129.258 
		188.659,127.6 187.88,126.905 186.579,126.155 186.237,125.131 184.528,123.149 180.556,120.817 178.228,120.264 174.05,120.264 
		172.683,119.936 172.134,119.043 170.698,118.424 169.737,118.555 167.069,120.475 164.192,121.161 158.376,124.106 
		156.665,125.743 155.021,125.95 151.938,125.811 148.651,123.553 146.466,122.53 145.913,123.01 147.011,123.692 147.011,124.661 
		145.503,124.922 143.931,124.106 143.45,123.346 143.825,122.973 144.479,122.77 143.96,122.176 143.208,122.249 142.042,121.868 
		141.013,120.774 140.63,119.723 138.962,119.651 138.075,120.26 138.142,121.907 136.978,123.204 136.706,124.708 137.8,125.057 
		138.962,126.702 137.46,127.86 137.046,129.364 137.103,130.366 137.718,131.288 139.06,131.149 140.669,131.418 142.419,131.108 
		143.31,130.463 144.134,131.348 144.028,132.043 145.097,132.348 148.556,132.829 149.007,135.262 150.2,137.706 151.712,138.598 
		153.288,138.53 153.874,137.395 153.22,136.674 153.841,135.676 155.11,135.883 155.69,136.674 155.351,137.706 155.829,139.629 
		155.487,141.01 156.101,142.069 158.776,142.479 159.911,140.7 161.214,139.352 162.925,139.629 163.89,139.323 164.024,137.395 
		162.552,136.088 160.972,134.956 160.251,133.411 160.563,132.348 162.142,131.524 165.122,130.875 167.8,128.43 167.698,127.536 
		167.144,127.098 167.353,125.272 170.196,123.76 172.495,123.553 173.696,124.206 175.413,125.885 176.681,126.129 
		178.327,128.333 178.979,130.084 179.972,130.875 180.556,130.391 181.79,128.956 182.815,128.918 183.267,130.223 182.476,131.04 
		181.515,131.174 179.937,133.545 179.183,134.274 179.972,136.745 182.103,139.702 184.067,141.465 185.308,138.598 	"/>
	<polygon fill="#EFE0A3" points="137.046,129.364 137.46,127.86 138.962,126.702 137.8,125.057 136.706,124.708 136.978,123.204 
		138.142,121.907 138.075,120.26 138.962,119.651 140.63,119.723 140.462,119.258 139.093,118.268 137.583,117.819 136.552,116.551 
		135.97,115.004 134.05,113.073 132.884,111.219 132.612,109.157 131.958,107.481 131.062,107.68 130.784,108.563 128.804,108.563 
		129.228,107.877 128.214,107.877 127.259,108.417 125.274,106.639 125.274,105.881 124.038,105.477 123.013,104.034 
		120.413,104.176 118.7,104.45 113.563,102.942 110.347,103.422 110.347,103.969 109.692,104.243 109.909,104.385 109.358,106.512 
		108.743,107.063 109.294,107.54 110.728,107.881 111.14,109.797 109.497,110.752 108.608,112.948 109.017,114.792 111.552,116.977 
		114.081,117.051 115.589,118.016 116.481,119.586 117.366,119.586 118.466,117.672 117.983,116.022 115.454,114.18 
		114.837,113.153 115.657,112.465 117.3,113.764 119.081,114.657 119.216,116.231 121.065,117.528 121.683,119.448 123.872,120.682 
		125.517,122.19 126.747,122.942 128.804,125.334 129.146,126.231 127.909,127.807 127.909,129.098 128.729,130.399 
		130.993,131.233 132.501,132.186 133.249,131.768 133.456,130.194 132.565,129.026 130.921,128.209 130.921,127.874 
		131.61,127.389 132.636,128.143 134.28,130.122 134.21,131.844 134.86,132.223 135.37,132.522 136.04,133.284 137.241,133.344 
		137.554,132.417 137.446,131.315 137.718,131.288 137.103,130.366 	"/>
	<path fill="#EFE0A3" d="M110.347,103.422l3.217-0.48l5.137,1.508l1.713-0.273l2.6-0.143l1.025,1.443l1.236,0.404v0.758l1.984,1.777
		l0.955-0.539h1.014l0.117-0.197l0.893-0.557l-0.271-1.432l-1.029-1.238l-0.479-1.979l1.164-2.262l0.615-1.508l0.066-1.982
		l-0.545,1.094l-0.273,0.889l-0.955,0.549v-1.369l0.477-1.508l0.887-2.055l-0.271-1.23l0.068-1.291l1.094-2.814l0.826,0.207
		l-0.346,0.754c0,0-0.068,1.158-0.068,1.504c0,0.35,0,1.986,0,1.986l0.525,0.059l0.75-1.271l0.447-3.672l-0.035-4.398l0.346-0.932
		l-0.723-1.096l-0.619-0.273l0.035-0.959l0.654-0.686l0.582,0.066l0.342,0.584l0.582-2.373l1.545-1.955l0.721-1.275l0.172-0.959
		l-0.926-0.656l-0.105-0.818l0.566-1.227l-0.273-1.578l0.141-2.525l0.547-1.023l0.576-0.615l-1.096,0.197l-1.34,0.141l-0.375-0.76
		h-1.061l-0.826,0.447l-0.379,1.268l-1.268,0.586l-1.666,1.182l-1.574,0.145l-0.408,1.152l-1.236-0.336l-1.711,0.273l-0.342-0.816
		l-1.301-1.027l-0.752,0.059l-0.416,1.721l-1.777,0.064l-1.504,2.328l-0.139,1.023l-0.893,0.484l-1.91,1.846l-1.988,0.752
		l-0.547,1.023l-1.301-0.467l-0.961,0.26l-1.094-1.023l-2.26-0.406l-3.146,1.709l-2.945,0.342l0.205,1.783v1.369l-0.273,2.463
		l-0.686,1.359l-2.328,0.211l-1.604,0.277l-0.066,1.033l-0.754,0.143l-1.711-0.609l-0.342,0.609l3.42,4.174l1.646,1.094v1.166
		l2.734,2.465l2.398,3.283l4.381,4.797l1.164,0.143l0.676,0.463l0.654-0.273V103.422z"/>
	<polygon fill="#EFE0A3" points="75.634,81.504 76.431,81.459 75.63,81.504 	"/>
	<polygon fill="#EFE0A3" points="100.077,84.995 100.763,83.635 101.036,81.172 101.036,79.803 100.831,78.02 103.776,77.678 
		106.923,75.969 109.183,76.375 110.276,77.399 111.237,77.139 112.538,77.606 113.085,76.583 115.073,75.831 116.983,73.985 
		117.876,73.5 118.015,72.477 119.519,70.149 121.296,70.084 121.712,68.364 122.464,68.305 123.765,69.333 124.106,70.149 
		125.817,69.875 127.054,70.211 127.462,69.059 129.036,68.915 130.702,67.733 131.97,67.147 132.349,65.879 133.175,65.432 
		134.235,65.432 134.61,66.192 135.95,66.051 137.046,65.854 137.63,65.231 137.083,64.276 134.892,62.493 132.837,61.602 
		132.702,61.948 133.526,63.516 131.472,63.446 129.007,63.18 128.046,62.422 126.269,62.211 124.694,62.211 125.104,61.465 
		126.335,61.118 126.202,60.233 127.021,60.026 128.53,60.372 131.062,61.118 131.401,60.852 129.69,59.479 127.366,58.178 
		125.722,58.04 124.146,58.389 123.116,57.905 122.708,59.067 121.478,58.178 117.3,57.774 113.265,57.567 111.067,55.711 
		109.087,54.75 108.675,55.917 109.423,56.473 107.923,57.086 106.966,57.774 105.388,57.223 102.241,58.04 98.2,57.702 
		92.587,57.84 90.12,59.206 88.966,58.252 88.646,59.059 87.413,59.952 86.798,61.598 84.126,63.159 82.688,63.096 80.224,65.627 
		78.718,67.211 79.198,68.844 78.032,71.383 77.085,72.083 77.813,71.547 79.394,71.891 79.702,72.377 80.765,72.747 81.655,73.784 
		83.476,73.5 85.396,73.918 86.562,75.424 86.868,76.532 88.036,77.319 88.415,76.461 88.823,75.387 90.435,75.223 91.364,75.536 
		92.636,75.981 92.636,77.526 92.222,79.307 92.425,80.032 91.944,81.471 92.179,82.348 92.247,82.276 93.272,82.827 93.751,83.51 
		94.567,83.438 94.983,82.827 95.735,83.233 95.735,84.399 96.149,85.422 96.146,85.483 97.749,85.206 	"/>
	<polygon fill="#EFE0A3" points="92.425,80.032 92.222,79.307 92.636,77.526 92.636,75.981 91.364,75.536 90.435,75.223 
		88.823,75.387 88.415,76.461 88.036,77.319 86.868,76.532 86.562,75.424 85.396,73.918 83.476,73.5 81.655,73.784 80.765,72.747 
		79.702,72.377 79.394,71.891 77.813,71.547 77.085,72.083 75.431,73.295 75.431,73.602 75.431,74.325 73.786,74.811 71.46,75.352 
		69.679,77.264 69.612,78.229 68.931,79.307 69.792,79.616 71.638,79.616 73.146,81.045 75.337,81.522 75.63,81.504 76.431,81.459 
		79.647,82.895 82.661,84.538 83.071,83.721 81.702,82.958 82.386,82.549 84.099,82.616 85.534,84.538 86.562,85.422 90.876,85.493 
		92.104,83.788 91.63,82.895 92.179,82.348 92.179,82.348 91.944,81.471 	"/>
	<polygon fill="#EFE0A3" points="86.042,32.627 85.646,33.385 85.269,34.809 84.071,36.446 83.968,36.852 83.245,37.024 
		82.888,37.52 82.456,37.229 82.368,36.497 81.001,36.428 79.976,37.129 79.839,38.502 79.827,38.502 79.862,38.543 79.597,56.196 
		80.97,56.258 81.521,56.565 82.542,56.497 82.526,56.473 83.278,54.891 85.06,53.045 86.083,53.934 88.753,50.237 89.714,47.643 
		89.78,44.489 88.753,43.458 89.165,40.653 90.19,38.948 90.466,34.29 90.737,33.264 90.53,32.237 89.302,32.237 88.345,33.124 
		87.88,32.26 87.19,32.215 	"/>
	<polygon fill="#EFE0A3" points="69.679,77.264 71.46,75.352 73.786,74.811 75.431,74.325 75.431,73.602 75.431,73.295 
		78.032,71.383 79.198,68.844 78.718,67.211 80.224,65.627 82.688,63.096 84.126,63.159 86.798,61.598 87.413,59.952 88.646,59.059 
		88.966,58.252 88.206,57.635 86.495,57.428 86.017,58.594 84.511,57.567 83.138,57.567 82.542,56.497 81.521,56.565 80.97,56.258 
		79.597,56.196 79.862,38.543 79.827,38.502 63.343,38.249 62.962,43.243 58.985,43.584 60.392,44.75 60.903,45.719 62.415,47.604 
		63.927,48.604 64.985,48.604 65.708,49.875 65.915,51.243 66.565,51.971 68.181,52.067 69.206,52.651 69.241,53.895 68.284,54.991 
		56.14,55.057 50.446,64.055 50.63,65.588 50.78,66.069 50.63,67.038 51.022,67.792 51.28,68.028 51.19,68.856 50.337,69.522 
		49.96,70.553 49.642,70.819 51.171,72.692 52.333,74.608 53.772,74.747 55.071,76.323 60.065,78.243 63.015,78.305 65.272,78.036 
		68.931,79.307 69.612,78.229 	"/>
</g>
<g>
	<path fill="#878787" d="M205.854,22.508c2.524,0,4.349,0.85,6.049,2.324c0.225,0.2,0.225,0.5,0.024,0.7l-1.1,1.125
		c-0.175,0.225-0.399,0.225-0.625,0c-1.174-1.025-2.773-1.675-4.324-1.675c-3.573,0-6.273,3-6.273,6.499s2.725,6.474,6.299,6.474
		c1.824,0,3.1-0.725,4.299-1.65c0.226-0.175,0.45-0.15,0.6-0.025l1.15,1.125c0.2,0.175,0.15,0.5-0.025,0.675
		c-1.699,1.649-3.849,2.424-6.073,2.424c-4.999,0-9.022-3.974-9.022-8.973C196.832,26.532,200.855,22.508,205.854,22.508z"/>
	<path fill="#878787" d="M218.656,30.006c2.6,0,4.599,1.95,4.599,4.624c0,0.175-0.024,0.5-0.05,0.675
		c-0.025,0.25-0.225,0.425-0.45,0.425h-6.798c0.074,1.35,1.249,2.674,2.874,2.674c0.899,0,1.724-0.4,2.224-0.725
		c0.301-0.175,0.476-0.275,0.676-0.025l0.699,0.95c0.176,0.2,0.25,0.4-0.05,0.649c-0.725,0.625-2.024,1.25-3.699,1.25
		c-3.024,0-5.023-2.375-5.023-5.249C213.657,32.431,215.656,30.006,218.656,30.006z M220.93,34.155
		c-0.074-1.2-1.074-2.224-2.299-2.224c-1.35,0-2.399,0.975-2.549,2.224H220.93z"/>
	<path fill="#878787" d="M225.656,30.731c0-0.25,0.226-0.475,0.476-0.475h0.725c0.2,0,0.351,0.125,0.399,0.3l0.301,0.85
		c0.175-0.2,1.5-1.4,3.499-1.4c3.05,0,4.174,2.149,4.174,4.749v5.023c0,0.25-0.226,0.475-0.476,0.475h-1.424
		c-0.275,0-0.475-0.225-0.475-0.475v-5.124c0-1.6-0.775-2.475-2.074-2.475c-1.575,0-2.65,1.15-2.775,1.5v6.098
		c0,0.325-0.149,0.475-0.574,0.475h-1.3c-0.25,0-0.476-0.225-0.476-0.475V30.731z"/>
	<path fill="#878787" d="M238.932,32.331h-1.05c-0.274,0-0.475-0.225-0.475-0.475v-1.125c0-0.275,0.2-0.475,0.475-0.475h1.05v-2.774
		c0-0.25,0.225-0.475,0.475-0.475l1.425-0.025c0.25,0,0.45,0.225,0.45,0.475v2.799h2.549c0.275,0,0.475,0.2,0.475,0.475v1.125
		c0,0.25-0.199,0.475-0.475,0.475h-2.549v4.949c0,0.85,0.324,1,0.8,1c0.524,0,1.225-0.3,1.524-0.45c0.325-0.15,0.475,0,0.574,0.225
		l0.451,1.1c0.125,0.275,0.024,0.475-0.226,0.6c-0.25,0.15-1.725,0.75-2.925,0.75c-1.975,0-2.549-1.2-2.549-2.974V32.331z"/>
	<path fill="#878787" d="M246.932,30.731c0-0.25,0.225-0.475,0.475-0.475h0.725c0.176,0,0.375,0.15,0.426,0.35l0.274,0.85
		c0.175-0.25,1.101-1.45,2.925-1.45c0.949,0,2.1,0.25,1.824,0.925l-0.6,1.225c-0.125,0.275-0.375,0.325-0.6,0.225
		c-0.15-0.075-0.525-0.175-0.85-0.175c-1.45,0-2.15,1.05-2.25,1.225v6.348c0,0.425-0.275,0.475-0.675,0.475h-1.2
		c-0.25,0-0.475-0.225-0.475-0.475V30.731z"/>
	<path fill="#878787" d="M258.605,33.931c1.051,0,1.975,0.3,1.975,0.3c0.025-1.575-0.275-2.2-1.549-2.2c-1.15,0-2.275,0.3-2.8,0.45
		c-0.3,0.075-0.476-0.125-0.55-0.4l-0.2-0.925c-0.075-0.325,0.101-0.5,0.325-0.575c0.175-0.075,1.6-0.575,3.449-0.575
		c3.199,0,3.499,1.95,3.499,4.449v5.324c0,0.25-0.226,0.475-0.476,0.475h-0.699c-0.225,0-0.324-0.1-0.425-0.35l-0.25-0.675
		c-0.55,0.525-1.524,1.275-3.074,1.275c-1.874,0-3.224-1.275-3.224-3.349C254.607,35.33,256.057,33.931,258.605,33.931z
		 M258.307,38.729c0.999,0,1.949-0.75,2.248-1.25v-1.6c-0.149-0.1-0.85-0.4-1.749-0.4c-1.2,0-2.024,0.625-2.024,1.65
		C256.781,38.029,257.381,38.729,258.307,38.729z"/>
	<path fill="#878787" d="M265.906,23.233c0-0.25,0.225-0.475,0.475-0.475h1.425c0.25,0,0.476,0.225,0.476,0.475v16.546
		c0,0.25-0.226,0.475-0.476,0.475h-1.425c-0.25,0-0.475-0.225-0.475-0.475V23.233z"/>
	<path fill="#878787" d="M275.481,39.604l7.673-16.821c0.074-0.15,0.301-0.275,0.426-0.275h0.25c0.125,0,0.35,0.125,0.424,0.275
		l7.623,16.821c0.15,0.325-0.049,0.65-0.424,0.65h-1.576c-0.299,0-0.475-0.15-0.574-0.375l-1.549-3.424h-8.174
		c-0.5,1.149-1.024,2.274-1.524,3.424c-0.075,0.175-0.274,0.375-0.575,0.375h-1.574C275.531,40.254,275.331,39.929,275.481,39.604z
		 M286.803,34.305l-3.074-6.848h-0.125l-3.049,6.848H286.803z"/>
	<path fill="#878787" d="M293.506,30.731c0-0.25,0.225-0.475,0.475-0.475h0.699c0.225,0,0.35,0.125,0.426,0.3l0.273,0.85
		c0.225-0.225,1.375-1.4,3.299-1.4c1.451,0,2.5,0.575,3.225,1.6c0.275-0.275,1.725-1.6,3.625-1.6c3.049,0,4.123,2.149,4.123,4.749
		v5.023c0,0.25-0.199,0.475-0.475,0.475h-1.398c-0.275,0-0.477-0.225-0.477-0.475v-5.124c0-1.575-0.725-2.475-2.074-2.475
		c-1.523,0-2.398,1.075-2.574,1.225c0.051,0.225,0.076,0.7,0.076,1.2v5.173c0,0.25-0.227,0.475-0.477,0.475h-1.324
		c-0.275,0-0.475-0.225-0.475-0.475v-5.124c0-1.6-0.725-2.475-2.125-2.475c-1.498,0-2.35,1.175-2.475,1.5v6.098
		c0,0.25-0.225,0.475-0.475,0.475h-1.398c-0.25,0-0.475-0.225-0.475-0.475V30.731z"/>
	<path fill="#878787" d="M317.053,30.006c2.6,0,4.6,1.95,4.6,4.624c0,0.175-0.025,0.5-0.051,0.675
		c-0.023,0.25-0.225,0.425-0.449,0.425h-6.799c0.076,1.35,1.25,2.674,2.875,2.674c0.9,0,1.725-0.4,2.225-0.725
		c0.299-0.175,0.475-0.275,0.674-0.025l0.701,0.95c0.174,0.2,0.25,0.4-0.051,0.649c-0.725,0.625-2.025,1.25-3.699,1.25
		c-3.023,0-5.023-2.375-5.023-5.249C312.055,32.431,314.055,30.006,317.053,30.006z M319.328,34.155
		c-0.076-1.2-1.074-2.224-2.299-2.224c-1.352,0-2.4,0.975-2.551,2.224H319.328z"/>
	<path fill="#878787" d="M324.055,30.731c0-0.25,0.225-0.475,0.475-0.475h0.725c0.174,0,0.375,0.15,0.424,0.35l0.275,0.85
		c0.176-0.25,1.1-1.45,2.924-1.45c0.951,0,2.1,0.25,1.826,0.925l-0.602,1.225c-0.125,0.275-0.375,0.325-0.6,0.225
		c-0.15-0.075-0.523-0.175-0.85-0.175c-1.449,0-2.148,1.05-2.25,1.225v6.348c0,0.425-0.273,0.475-0.674,0.475h-1.199
		c-0.25,0-0.475-0.225-0.475-0.475V30.731z"/>
	<path fill="#878787" d="M332.18,24.733c0-0.825,0.625-1.475,1.424-1.475c0.824,0,1.475,0.65,1.475,1.475
		c0,0.8-0.65,1.449-1.475,1.449C332.805,26.182,332.18,25.533,332.18,24.733z M332.455,30.731c0-0.25,0.225-0.475,0.475-0.475h1.424
		c0.25,0,0.475,0.225,0.475,0.475v9.047c0,0.25-0.225,0.475-0.475,0.475h-1.424c-0.25,0-0.475-0.225-0.475-0.475V30.731z"/>
	<path fill="#878787" d="M342.578,30.006c1.525,0,2.699,0.625,3.625,1.774c0.174,0.225,0.125,0.525-0.102,0.7l-0.824,0.75
		c-0.301,0.275-0.475,0.075-0.674-0.1c-0.451-0.5-1.176-0.95-2-0.95c-1.625,0-2.9,1.375-2.9,3.074c0,1.725,1.25,3.1,2.875,3.1
		c1.275,0,1.799-0.65,2.324-1.15c0.225-0.225,0.449-0.225,0.676-0.05l0.674,0.55c0.25,0.2,0.35,0.45,0.176,0.7
		c-0.801,1.275-2.15,2.1-3.875,2.1c-2.799,0-5.223-2.225-5.223-5.224C337.33,32.331,339.805,30.006,342.578,30.006z"/>
	<path fill="#878787" d="M352.203,33.931c1.049,0,1.975,0.3,1.975,0.3c0.025-1.575-0.275-2.2-1.551-2.2
		c-1.148,0-2.273,0.3-2.799,0.45c-0.299,0.075-0.475-0.125-0.549-0.4l-0.201-0.925c-0.074-0.325,0.102-0.5,0.326-0.575
		c0.174-0.075,1.6-0.575,3.449-0.575c3.199,0,3.498,1.95,3.498,4.449v5.324c0,0.25-0.225,0.475-0.475,0.475h-0.699
		c-0.225,0-0.326-0.1-0.426-0.35l-0.25-0.675c-0.549,0.525-1.523,1.275-3.074,1.275c-1.875,0-3.225-1.275-3.225-3.349
		C348.203,35.33,349.654,33.931,352.203,33.931z M351.902,38.729c1,0,1.951-0.75,2.25-1.25v-1.6c-0.15-0.1-0.85-0.4-1.75-0.4
		c-1.199,0-2.023,0.625-2.023,1.65C350.379,38.029,350.979,38.729,351.902,38.729z"/>
	<path fill="#B7B7B7" d="M197.691,50.927h-1.739c-0.11,0-0.19-0.09-0.19-0.19v-0.29c0-0.1,0.08-0.19,0.19-0.19h4.237
		c0.11,0,0.189,0.09,0.189,0.19v0.29c0,0.1-0.079,0.19-0.189,0.19h-1.738v6.137c0,0.1-0.09,0.19-0.19,0.19h-0.38
		c-0.1,0-0.189-0.09-0.189-0.19V50.927z"/>
	<path fill="#B7B7B7" d="M202.171,53.156c1.109,0,1.989,0.959,1.989,2.089c0,1.149-0.88,2.109-1.989,2.109s-1.989-0.959-1.989-2.109
		C200.182,54.116,201.062,53.156,202.171,53.156z M202.171,56.704c0.729,0,1.3-0.649,1.3-1.459c0-0.79-0.57-1.429-1.3-1.429
		s-1.3,0.64-1.3,1.429C200.871,56.055,201.441,56.704,202.171,56.704z"/>
	<path fill="#B7B7B7" d="M205.551,53.856h-0.509c-0.11,0-0.19-0.09-0.19-0.19v-0.22c0-0.11,0.08-0.19,0.19-0.19h0.509v-1.109
		c0-0.1,0.091-0.189,0.19-0.189l0.319-0.02c0.101,0,0.181,0.09,0.181,0.19v1.129h1.159c0.109,0,0.189,0.08,0.189,0.19v0.22
		c0,0.1-0.08,0.19-0.189,0.19h-1.159v2.338c0,0.4,0.101,0.48,0.329,0.48c0.25,0,0.6-0.15,0.73-0.22c0.15-0.08,0.189-0.02,0.24,0.06
		l0.149,0.25c0.069,0.12,0.04,0.18-0.069,0.25c-0.141,0.09-0.68,0.34-1.15,0.34c-0.799,0-0.92-0.48-0.92-1.1V53.856z"/>
	<path fill="#B7B7B7" d="M210.021,54.715c0.43,0,0.85,0.13,0.85,0.13c0.01-0.74-0.08-1.08-0.65-1.08c-0.55,0-1.02,0.15-1.199,0.22
		c-0.1,0.04-0.16-0.01-0.189-0.1l-0.08-0.25c-0.041-0.12,0.02-0.18,0.109-0.22c0.061-0.03,0.64-0.26,1.389-0.26
		c1.02,0,1.27,0.52,1.27,1.689v2.219c0,0.1-0.09,0.19-0.189,0.19h-0.189c-0.11,0-0.141-0.06-0.17-0.15l-0.08-0.27
		c-0.21,0.21-0.62,0.52-1.24,0.52c-0.699,0-1.229-0.51-1.229-1.31C208.422,55.285,208.991,54.715,210.021,54.715z M209.762,56.754
		c0.499,0,0.929-0.31,1.099-0.56v-0.79c-0.12-0.07-0.399-0.16-0.839-0.16c-0.561,0-0.96,0.28-0.96,0.799
		C209.062,56.444,209.331,56.754,209.762,56.754z"/>
	<path fill="#B7B7B7" d="M212.922,50.448c0-0.1,0.09-0.19,0.189-0.19h0.311c0.1,0,0.189,0.09,0.189,0.19v6.616
		c0,0.1-0.09,0.19-0.189,0.19h-0.311c-0.1,0-0.189-0.09-0.189-0.19V50.448z"/>
	<path fill="#B7B7B7" d="M220.67,50.158c1.009,0,1.738,0.35,2.418,0.93c0.08,0.08,0.09,0.2,0.01,0.28
		c-0.09,0.09-0.199,0.19-0.279,0.28c-0.09,0.1-0.15,0.09-0.26-0.01c-0.51-0.45-1.229-0.78-1.898-0.78
		c-1.58,0-2.779,1.319-2.779,2.869c0,1.539,1.199,2.888,2.779,2.888c1.099,0,1.799-0.42,1.799-0.42v-1.399h-1.15
		c-0.109,0-0.189-0.08-0.189-0.18v-0.37c0-0.11,0.08-0.19,0.189-0.19h1.729c0.101,0,0.181,0.09,0.181,0.19v2.289
		c0,0.05-0.041,0.13-0.08,0.16c0,0-1.02,0.66-2.469,0.66c-2,0-3.608-1.589-3.608-3.588C217.062,51.767,218.67,50.158,220.67,50.158z
		"/>
	<path fill="#B7B7B7" d="M224.48,53.446c0-0.1,0.09-0.19,0.19-0.19h0.19c0.08,0,0.149,0.05,0.17,0.14l0.08,0.29
		c0,0,0.369-0.53,1.199-0.53c0.299,0,0.799,0.05,0.699,0.33l-0.12,0.34c-0.05,0.13-0.14,0.13-0.239,0.09
		c-0.09-0.04-0.24-0.08-0.391-0.08c-0.76,0-1.089,0.56-1.089,0.56v2.668c0,0.1-0.091,0.19-0.19,0.19h-0.31
		c-0.101,0-0.19-0.09-0.19-0.19V53.446z"/>
	<path fill="#B7B7B7" d="M229.131,54.715c0.43,0,0.85,0.13,0.85,0.13c0.01-0.74-0.08-1.08-0.65-1.08c-0.55,0-1.02,0.15-1.199,0.22
		c-0.1,0.04-0.16-0.01-0.189-0.1l-0.08-0.25c-0.041-0.12,0.02-0.18,0.109-0.22c0.061-0.03,0.64-0.26,1.389-0.26
		c1.02,0,1.27,0.52,1.27,1.689v2.219c0,0.1-0.09,0.19-0.189,0.19h-0.189c-0.11,0-0.141-0.06-0.17-0.15l-0.08-0.27
		c-0.21,0.21-0.62,0.52-1.24,0.52c-0.699,0-1.229-0.51-1.229-1.31C227.531,55.285,228.101,54.715,229.131,54.715z M228.871,56.754
		c0.499,0,0.929-0.31,1.099-0.56v-0.79c-0.12-0.07-0.399-0.16-0.839-0.16c-0.561,0-0.96,0.28-0.96,0.799
		C228.171,56.444,228.44,56.754,228.871,56.754z"/>
	<path fill="#B7B7B7" d="M232.021,53.446c0-0.1,0.09-0.19,0.189-0.19h0.189c0.09,0,0.141,0.04,0.16,0.12l0.09,0.31
		c0,0,0.57-0.53,1.399-0.53c1.159,0,1.55,0.759,1.55,1.799v2.109c0,0.1-0.09,0.19-0.19,0.19h-0.319c-0.1,0-0.19-0.09-0.19-0.19
		v-2.109c0-0.759-0.34-1.129-0.899-1.129c-0.75,0-1.289,0.57-1.289,0.57v2.668c0,0.1-0.09,0.19-0.189,0.19h-0.311
		c-0.1,0-0.189-0.09-0.189-0.19V53.446z"/>
	<path fill="#B7B7B7" d="M237.23,53.856h-0.51c-0.109,0-0.189-0.09-0.189-0.19v-0.22c0-0.11,0.08-0.19,0.189-0.19h0.51v-1.109
		c0-0.1,0.09-0.189,0.189-0.189l0.32-0.02c0.1,0,0.18,0.09,0.18,0.19v1.129h1.16c0.109,0,0.189,0.08,0.189,0.19v0.22
		c0,0.1-0.08,0.19-0.189,0.19h-1.16v2.338c0,0.4,0.1,0.48,0.33,0.48c0.25,0,0.6-0.15,0.73-0.22c0.149-0.08,0.189-0.02,0.239,0.06
		l0.149,0.25c0.07,0.12,0.041,0.18-0.07,0.25c-0.139,0.09-0.679,0.34-1.148,0.34c-0.8,0-0.92-0.48-0.92-1.1V53.856z"/>
	<path fill="#B7B7B7" d="M240.391,53.726c0-0.32,0.26-0.57,0.57-0.57c0.319,0,0.569,0.25,0.569,0.57c0,0.31-0.25,0.569-0.569,0.569
		C240.65,54.295,240.391,54.036,240.391,53.726z M240.961,56.214c0.319,0,0.569,0.25,0.569,0.57c0,0.31-0.25,0.57-0.569,0.57
		c-0.311,0-0.57-0.26-0.57-0.57C240.391,56.464,240.65,56.214,240.961,56.214z"/>
	<path fill="#878787" d="M244.91,56.245l0.291-0.42c0.079-0.11,0.199-0.16,0.309-0.07c0.051,0.05,0.65,0.549,1.33,0.68
		c0-0.76,0.01-1.5,0.01-2.259c-1-0.39-1.869-0.88-1.939-1.989c-0.01-0.12,0-0.24,0.011-0.36c0.069-0.709,0.649-1.529,1.929-1.659
		v-0.32c0-0.11,0.09-0.19,0.189-0.19h0.101c0.1,0,0.19,0.08,0.19,0.19v0.33c0.879,0.07,1.528,0.51,1.618,0.57
		c0.08,0.05,0.149,0.19,0.06,0.34c-0.18,0.26-0.359,0.64-0.6,0.479c-0.06-0.03-0.569-0.37-1.078-0.49
		c0,0.73-0.011,1.469-0.011,2.199c1.04,0.44,2.019,0.99,2.019,2.189c0,1.04-0.829,1.789-2.028,1.879v1.04
		c0,0.12-0.101,0.18-0.21,0.18s-0.26-0.03-0.26-0.18v-1.04c-1.06-0.08-1.729-0.64-1.879-0.779
		C244.881,56.484,244.801,56.415,244.91,56.245z M246.84,51.057c-0.68,0.07-0.959,0.53-0.959,0.87c0,0.51,0.34,0.85,0.959,1.149
		V51.057z M248.289,55.555c0-0.479-0.33-0.83-0.97-1.159v2.079C247.869,56.404,248.289,56.024,248.289,55.555z"/>
	<path fill="#878787" d="M249.84,55.575v-0.6l3.699-4.567c0.029-0.03,0.109-0.06,0.149-0.06h0.37c0.1,0,0.189,0.08,0.189,0.19v4.417
		h0.81c0.11,0,0.19,0.08,0.19,0.18v0.419c0,0.1-0.08,0.19-0.19,0.19h-0.81l0.01,1.319c0,0.1-0.09,0.19-0.189,0.19h-0.59
		c-0.1,0-0.189-0.09-0.189-0.19v-1.299h-3.259C249.92,55.765,249.84,55.675,249.84,55.575z M253.328,54.935v-2.938l-2.408,2.938
		H253.328z"/>
	<path fill="#878787" d="M257.369,53.766v-0.03c-0.43-0.22-1.029-0.77-1.029-1.549c0-1.099,0.92-1.829,2.119-1.829
		c1.229,0,2.139,0.729,2.139,1.829c0,0.77-0.6,1.319-1.029,1.54v0.04c0.459,0.21,1.209,0.81,1.209,1.669
		c0,1.089-0.879,1.919-2.328,1.919c-1.4,0-2.289-0.83-2.289-1.919C256.16,54.565,257,53.936,257.369,53.766z M258.459,56.544
		c0.709,0,1.279-0.42,1.279-1.089c0-0.53-0.46-1.08-1.27-1.2c-0.81,0.12-1.27,0.67-1.27,1.2
		C257.199,56.115,257.799,56.544,258.459,56.544z M259.588,52.227c0-0.609-0.489-1.049-1.148-1.049c-0.6,0-1.09,0.44-1.09,1.049
		c0,0.54,0.34,0.95,1.119,1.069C259.238,53.186,259.588,52.756,259.588,52.227z"/>
	<path fill="#878787" d="M262.51,55.965c0.369,0,0.829,0.25,0.829,1.109c0,1.029-0.64,1.739-0.989,1.999
		c-0.09,0.08-0.17,0.08-0.24,0l-0.149-0.15c-0.06-0.06-0.05-0.17,0.05-0.25c0.109-0.1,0.709-0.58,0.709-1.359
		c-0.02,0-0.119,0.04-0.25,0.04c-0.369,0-0.689-0.31-0.689-0.69C261.779,56.285,262.1,55.965,262.51,55.965z"/>
	<path fill="#878787" d="M264.479,56.954l2.698-5.617h-2.958c-0.101,0-0.19-0.09-0.19-0.189v-0.5c0-0.1,0.09-0.19,0.19-0.19h4.088
		c0.101,0,0.19,0.09,0.19,0.19v0.07l-2.939,6.267c-0.09,0.2-0.14,0.27-0.389,0.27h-0.461c-0.129,0-0.229-0.09-0.229-0.19V56.954z"/>
	<path fill="#878787" d="M272.238,50.238c0.119-0.04,0.209,0.01,0.249,0.12l0.17,0.41c0.05,0.12,0.011,0.23-0.18,0.29
		c-0.46,0.15-2.049,0.979-2.379,2.209c0.08-0.05,0.659-0.37,1.329-0.37c1.06,0,2.09,0.79,2.09,2.168c0,1.259-1.02,2.289-2.229,2.289
		c-1.599,0-2.358-1.259-2.358-2.799C268.93,51.767,271.318,50.587,272.238,50.238z M272.598,55.075c0-0.75-0.59-1.359-1.33-1.359
		c-0.789,0-1.309,0.58-1.369,0.76c-0.08,0.839,0.291,1.979,1.38,1.979C272.018,56.454,272.598,55.825,272.598,55.075z"/>
	<path fill="#878787" d="M277.647,50.238c0.12-0.04,0.21,0.01,0.249,0.12l0.17,0.41c0.051,0.12,0.011,0.23-0.18,0.29
		c-0.459,0.15-2.049,0.979-2.379,2.209c0.08-0.05,0.66-0.37,1.33-0.37c1.059,0,2.089,0.79,2.089,2.168
		c0,1.259-1.02,2.289-2.229,2.289c-1.599,0-2.357-1.259-2.357-2.799C274.34,51.767,276.729,50.587,277.647,50.238z M278.008,55.075
		c0-0.75-0.59-1.359-1.33-1.359c-0.789,0-1.309,0.58-1.369,0.76c-0.08,0.839,0.29,1.979,1.379,1.979
		C277.428,56.454,278.008,55.825,278.008,55.075z"/>
	<path fill="#B7B7B7" d="M196.701,62.448c0-0.1,0.08-0.19,0.19-0.19h2.589c1.199,0,2.178,0.939,2.178,2.129
		c0,0.919-0.609,1.689-1.479,2.039l1.369,2.539c0.07,0.13,0,0.29-0.17,0.29h-0.51c-0.09,0-0.14-0.05-0.16-0.09l-1.329-2.648h-1.909
		v2.548c0,0.1-0.09,0.19-0.189,0.19h-0.39c-0.11,0-0.19-0.09-0.19-0.19V62.448z M199.43,65.856c0.77,0,1.439-0.64,1.439-1.459
		c0-0.759-0.67-1.409-1.439-1.409h-1.938v2.869H199.43z"/>
	<path fill="#B7B7B7" d="M204.371,65.156c1.049,0,1.809,0.779,1.809,1.829c0,0.07-0.01,0.2-0.02,0.27c-0.01,0.1-0.09,0.17-0.18,0.17
		h-2.879c0.04,0.67,0.63,1.299,1.34,1.299c0.42,0,0.759-0.16,0.988-0.3c0.141-0.08,0.201-0.13,0.28-0.02
		c0.06,0.08,0.11,0.15,0.17,0.23c0.07,0.09,0.11,0.15-0.04,0.26c-0.24,0.19-0.779,0.46-1.469,0.46c-1.209,0-1.959-0.95-1.959-2.099
		C202.412,66.125,203.162,65.156,204.371,65.156z M205.49,66.865c-0.029-0.58-0.51-1.1-1.119-1.1c-0.67,0-1.189,0.48-1.26,1.1
		H205.49z"/>
	<path fill="#B7B7B7" d="M207.031,68.694c0.041-0.06,0.11-0.2,0.141-0.25c0.05-0.08,0.16-0.1,0.27-0.03c0,0,0.43,0.35,0.939,0.35
		c0.41,0,0.65-0.21,0.65-0.479c0-0.35-0.301-0.51-0.88-0.8c-0.53-0.26-1.14-0.61-1.14-1.289c0-0.42,0.34-1.04,1.27-1.04
		c0.52,0,0.92,0.18,1.109,0.31c0.09,0.06,0.119,0.2,0.06,0.31l-0.079,0.16c-0.061,0.11-0.201,0.14-0.291,0.09
		c0,0-0.43-0.24-0.799-0.24c-0.449,0-0.57,0.23-0.57,0.4c0,0.33,0.33,0.48,0.74,0.68c0.689,0.33,1.309,0.64,1.309,1.359
		c0,0.58-0.559,1.129-1.379,1.129c-0.67,0-1.079-0.28-1.299-0.45C207.031,68.864,207.002,68.764,207.031,68.694z"/>
	<path fill="#B7B7B7" d="M211.092,65.856h-0.51c-0.11,0-0.189-0.09-0.189-0.19v-0.22c0-0.11,0.079-0.19,0.189-0.19h0.51v-1.109
		c0-0.1,0.09-0.189,0.189-0.189l0.32-0.02c0.1,0,0.18,0.09,0.18,0.19v1.129h1.159c0.11,0,0.19,0.08,0.19,0.19v0.22
		c0,0.1-0.08,0.19-0.19,0.19h-1.159v2.338c0,0.4,0.1,0.48,0.33,0.48c0.25,0,0.6-0.15,0.729-0.22c0.15-0.08,0.19-0.02,0.24,0.06
		l0.15,0.25c0.07,0.12,0.04,0.18-0.07,0.25c-0.14,0.09-0.68,0.34-1.148,0.34c-0.801,0-0.92-0.48-0.92-1.1V65.856z"/>
	<path fill="#B7B7B7" d="M214.252,65.446c0-0.1,0.09-0.19,0.189-0.19h0.189c0.08,0,0.15,0.05,0.17,0.14l0.08,0.29
		c0,0,0.37-0.53,1.199-0.53c0.301,0,0.801,0.05,0.7,0.33l-0.12,0.34c-0.05,0.13-0.14,0.13-0.24,0.09
		c-0.09-0.04-0.239-0.08-0.389-0.08c-0.76,0-1.09,0.56-1.09,0.56v2.668c0,0.1-0.09,0.19-0.189,0.19h-0.311
		c-0.1,0-0.189-0.09-0.189-0.19V65.446z"/>
	<path fill="#B7B7B7" d="M217.451,62.938c0-0.27,0.211-0.48,0.471-0.48c0.27,0,0.479,0.21,0.479,0.48c0,0.26-0.209,0.47-0.479,0.47
		C217.662,63.407,217.451,63.197,217.451,62.938z M217.592,65.446c0-0.1,0.09-0.19,0.189-0.19h0.311c0.1,0,0.189,0.09,0.189,0.19
		v3.618c0,0.1-0.09,0.19-0.189,0.19h-0.311c-0.1,0-0.189-0.09-0.189-0.19V65.446z"/>
	<path fill="#B7B7B7" d="M221.461,65.156c0.6,0,1.068,0.24,1.429,0.7c0.069,0.09,0.05,0.209-0.04,0.28l-0.189,0.16
		c-0.15,0.14-0.2,0.04-0.291-0.04c-0.199-0.229-0.529-0.419-0.919-0.419c-0.749,0-1.329,0.62-1.329,1.419
		c0,0.8,0.57,1.439,1.319,1.439c0.6,0,0.829-0.3,1.06-0.52c0.119-0.12,0.189-0.1,0.3-0.02l0.11,0.08c0.1,0.07,0.129,0.18,0.069,0.28
		c-0.3,0.48-0.85,0.84-1.529,0.84c-1.109,0-2.049-0.89-2.049-2.089C219.401,66.085,220.371,65.156,221.461,65.156z"/>
	<path fill="#B7B7B7" d="M224.371,65.856h-0.51c-0.109,0-0.189-0.09-0.189-0.19v-0.22c0-0.11,0.08-0.19,0.189-0.19h0.51v-1.109
		c0-0.1,0.09-0.189,0.189-0.189l0.32-0.02c0.1,0,0.18,0.09,0.18,0.19v1.129h1.16c0.109,0,0.189,0.08,0.189,0.19v0.22
		c0,0.1-0.08,0.19-0.189,0.19h-1.16v2.338c0,0.4,0.1,0.48,0.33,0.48c0.25,0,0.6-0.15,0.73-0.22c0.149-0.08,0.189-0.02,0.239,0.06
		l0.149,0.25c0.07,0.12,0.041,0.18-0.07,0.25c-0.139,0.09-0.679,0.34-1.148,0.34c-0.8,0-0.92-0.48-0.92-1.1V65.856z"/>
	<path fill="#B7B7B7" d="M229.201,65.156c1.049,0,1.809,0.779,1.809,1.829c0,0.07-0.01,0.2-0.021,0.27
		c-0.01,0.1-0.09,0.17-0.18,0.17h-2.878c0.039,0.67,0.629,1.299,1.339,1.299c0.42,0,0.759-0.16,0.989-0.3
		c0.141-0.08,0.2-0.13,0.279-0.02c0.061,0.08,0.111,0.15,0.17,0.23c0.07,0.09,0.111,0.15-0.039,0.26
		c-0.24,0.19-0.779,0.46-1.469,0.46c-1.21,0-1.959-0.95-1.959-2.099C227.242,66.125,227.991,65.156,229.201,65.156z M230.32,66.865
		c-0.03-0.58-0.51-1.1-1.119-1.1c-0.67,0-1.189,0.48-1.26,1.1H230.32z"/>
	<path fill="#B7B7B7" d="M233.73,65.156c0.66,0,1.069,0.26,1.069,0.26v-2.968c0-0.1,0.09-0.19,0.19-0.19h0.309
		c0.101,0,0.19,0.09,0.19,0.19v6.616c0,0.1-0.09,0.19-0.19,0.19h-0.209c-0.09,0-0.15-0.07-0.17-0.16l-0.061-0.27
		c0,0-0.479,0.53-1.229,0.53c-1.02,0-1.819-0.959-1.819-2.109C231.812,66.076,232.531,65.156,233.73,65.156z M233.7,68.724
		c0.72,0,1.089-0.66,1.089-0.66v-1.999c0,0-0.419-0.24-0.969-0.24c-0.869,0-1.309,0.63-1.309,1.429
		C232.512,68.035,232.971,68.724,233.7,68.724z"/>
	<path fill="#B7B7B7" d="M239.451,62.448c0-0.1,0.08-0.19,0.189-0.19h2.209c1.229,0,2.238,1,2.238,2.208
		c0,1.24-1.01,2.249-2.229,2.249h-1.649v2.349c0,0.1-0.09,0.19-0.189,0.19h-0.38c-0.109,0-0.189-0.09-0.189-0.19V62.448z
		 M241.799,65.976c0.82,0,1.52-0.669,1.52-1.529c0-0.81-0.699-1.429-1.52-1.429h-1.589v2.958H241.799z"/>
	<path fill="#B7B7B7" d="M246.38,65.156c1.05,0,1.809,0.779,1.809,1.829c0,0.07-0.01,0.2-0.021,0.27c-0.01,0.1-0.09,0.17-0.18,0.17
		h-2.878c0.04,0.67,0.63,1.299,1.339,1.299c0.42,0,0.76-0.16,0.99-0.3c0.14-0.08,0.199-0.13,0.279-0.02
		c0.061,0.08,0.11,0.15,0.17,0.23c0.07,0.09,0.109,0.15-0.04,0.26c-0.239,0.19-0.779,0.46-1.469,0.46
		c-1.21,0-1.959-0.95-1.959-2.099C244.421,66.125,245.17,65.156,246.38,65.156z M247.499,66.865c-0.03-0.58-0.51-1.1-1.119-1.1
		c-0.67,0-1.189,0.48-1.259,1.1H247.499z"/>
	<path fill="#B7B7B7" d="M249.28,65.446c0-0.1,0.091-0.19,0.19-0.19h0.189c0.09,0,0.141,0.04,0.16,0.12l0.09,0.31
		c0,0,0.57-0.53,1.398-0.53c1.16,0,1.55,0.759,1.55,1.799v2.109c0,0.1-0.09,0.19-0.19,0.19h-0.319c-0.101,0-0.19-0.09-0.19-0.19
		v-2.109c0-0.759-0.34-1.129-0.898-1.129c-0.75,0-1.289,0.57-1.289,0.57v2.668c0,0.1-0.091,0.19-0.19,0.19h-0.31
		c-0.1,0-0.19-0.09-0.19-0.19V65.446z"/>
	<path fill="#B7B7B7" d="M254.23,65.446c0-0.1,0.09-0.19,0.189-0.19h0.189c0.09,0,0.141,0.04,0.16,0.12l0.09,0.31
		c0,0,0.57-0.53,1.399-0.53c1.159,0,1.55,0.759,1.55,1.799v2.109c0,0.1-0.09,0.19-0.19,0.19h-0.319c-0.1,0-0.19-0.09-0.19-0.19
		v-2.109c0-0.759-0.34-1.129-0.899-1.129c-0.75,0-1.289,0.57-1.289,0.57v2.668c0,0.1-0.09,0.19-0.189,0.19h-0.311
		c-0.1,0-0.189-0.09-0.189-0.19V65.446z"/>
	<path fill="#B7B7B7" d="M264.809,62.158c1.009,0,1.738,0.35,2.418,0.93c0.08,0.08,0.09,0.2,0.01,0.28
		c-0.09,0.09-0.199,0.19-0.279,0.28c-0.09,0.1-0.15,0.09-0.26-0.01c-0.51-0.45-1.229-0.78-1.898-0.78
		c-1.58,0-2.779,1.319-2.779,2.869c0,1.539,1.199,2.888,2.779,2.888c1.099,0,1.799-0.42,1.799-0.42v-1.399h-1.15
		c-0.109,0-0.189-0.08-0.189-0.18v-0.37c0-0.11,0.08-0.19,0.189-0.19h1.729c0.101,0,0.181,0.09,0.181,0.19v2.289
		c0,0.05-0.041,0.13-0.08,0.16c0,0-1.02,0.66-2.469,0.66c-2,0-3.608-1.589-3.608-3.588C261.2,63.767,262.809,62.158,264.809,62.158z
		"/>
	<path fill="#B7B7B7" d="M268.62,65.446c0-0.1,0.091-0.19,0.19-0.19H269c0.08,0,0.15,0.05,0.17,0.14l0.08,0.29
		c0,0,0.369-0.53,1.199-0.53c0.3,0,0.8,0.05,0.699,0.33l-0.119,0.34c-0.051,0.13-0.141,0.13-0.24,0.09
		c-0.09-0.04-0.24-0.08-0.39-0.08c-0.76,0-1.089,0.56-1.089,0.56v2.668c0,0.1-0.091,0.19-0.19,0.19h-0.31
		c-0.1,0-0.19-0.09-0.19-0.19V65.446z"/>
	<path fill="#B7B7B7" d="M273.27,66.715c0.43,0,0.85,0.13,0.85,0.13c0.01-0.74-0.08-1.08-0.65-1.08c-0.549,0-1.02,0.15-1.199,0.22
		c-0.1,0.04-0.16-0.01-0.189-0.1l-0.08-0.25c-0.04-0.12,0.02-0.18,0.109-0.22c0.061-0.03,0.641-0.26,1.39-0.26
		c1.02,0,1.27,0.52,1.27,1.689v2.219c0,0.1-0.09,0.19-0.19,0.19h-0.189c-0.109,0-0.14-0.06-0.17-0.15l-0.08-0.27
		c-0.209,0.21-0.619,0.52-1.239,0.52c-0.699,0-1.229-0.51-1.229-1.31C271.67,67.285,272.24,66.715,273.27,66.715z M273.01,68.754
		c0.5,0,0.93-0.31,1.1-0.56v-0.79c-0.121-0.07-0.4-0.16-0.84-0.16c-0.561,0-0.959,0.28-0.959,0.799
		C272.311,68.444,272.58,68.754,273.01,68.754z"/>
	<path fill="#B7B7B7" d="M276.16,65.446c0-0.1,0.09-0.19,0.189-0.19h0.19c0.09,0,0.14,0.04,0.16,0.12l0.09,0.31
		c0,0,0.569-0.53,1.399-0.53c1.159,0,1.549,0.759,1.549,1.799v2.109c0,0.1-0.09,0.19-0.189,0.19h-0.32c-0.1,0-0.189-0.09-0.189-0.19
		v-2.109c0-0.759-0.34-1.129-0.9-1.129c-0.749,0-1.289,0.57-1.289,0.57v2.668c0,0.1-0.09,0.19-0.189,0.19h-0.311
		c-0.1,0-0.189-0.09-0.189-0.19V65.446z"/>
	<path fill="#B7B7B7" d="M281.369,65.856h-0.51c-0.109,0-0.189-0.09-0.189-0.19v-0.22c0-0.11,0.08-0.19,0.189-0.19h0.51v-1.109
		c0-0.1,0.09-0.189,0.189-0.189l0.32-0.02c0.1,0,0.18,0.09,0.18,0.19v1.129h1.16c0.109,0,0.189,0.08,0.189,0.19v0.22
		c0,0.1-0.08,0.19-0.189,0.19h-1.16v2.338c0,0.4,0.1,0.48,0.33,0.48c0.25,0,0.6-0.15,0.73-0.22c0.148-0.08,0.189-0.02,0.238,0.06
		l0.15,0.25c0.07,0.12,0.041,0.18-0.07,0.25c-0.139,0.09-0.68,0.34-1.148,0.34c-0.799,0-0.92-0.48-0.92-1.1V65.856z"/>
	<path fill="#B7B7B7" d="M284.529,65.726c0-0.32,0.26-0.57,0.57-0.57c0.318,0,0.568,0.25,0.568,0.57c0,0.31-0.25,0.569-0.568,0.569
		C284.789,66.295,284.529,66.036,284.529,65.726z M285.1,68.214c0.318,0,0.568,0.25,0.568,0.57c0,0.31-0.25,0.57-0.568,0.57
		c-0.311,0-0.57-0.26-0.57-0.57C284.529,68.464,284.789,68.214,285.1,68.214z"/>
	<path fill="#878787" d="M289.119,68.205c0.16-0.19,0.289-0.46,0.5-0.28c0.059,0.06,0.648,0.629,1.418,0.739v-2.599
		c-1.059-0.419-1.748-0.869-1.879-1.769c-0.02-0.11-0.02-0.23-0.02-0.36c0-0.64,0.529-1.659,1.898-1.769v-0.32
		c0-0.11,0.09-0.19,0.191-0.19h0.068c0.102,0,0.18,0.08,0.18,0.19v0.32c0.871,0.07,1.5,0.5,1.5,0.5c0.061,0.03,0.18,0.15,0.061,0.34
		c-0.17,0.26-0.23,0.42-0.471,0.28c-0.059-0.03-0.559-0.36-1.09-0.439l-0.01,2.588c1.211,0.52,1.98,1.029,1.98,2.119
		c0,0.99-0.92,1.719-1.98,1.789v1.04c0,0.12-0.109,0.18-0.219,0.18c-0.1,0-0.211-0.06-0.211-0.18v-1.04
		c-1.049-0.09-1.738-0.689-1.857-0.799C289.1,68.474,288.998,68.395,289.119,68.205z M291.037,62.837
		c-0.85,0.09-1.158,0.7-1.158,1.089c0,0.62,0.43,1,1.158,1.329V62.837z M292.646,67.585c0-0.56-0.398-0.939-1.18-1.319v2.409
		C292.137,68.614,292.646,68.135,292.646,67.585z"/>
	<path fill="#878787" d="M295.279,63.697l-0.721,0.56c-0.08,0.06-0.16,0.07-0.229-0.01l-0.191-0.21
		c-0.068-0.08-0.029-0.17,0.021-0.22l1.398-1.359h0.27c0.1,0,0.18,0.09,0.18,0.19v6.417c0,0.1-0.08,0.19-0.18,0.19h-0.359
		c-0.109,0-0.189-0.09-0.189-0.19V63.697z"/>
	<path fill="#878787" d="M298.508,68.794c0.451-0.15,2.219-1.139,2.568-2.488c0,0-0.658,0.45-1.518,0.45
		c-1.131,0-2.15-0.84-2.15-2.169c0-1.259,1.01-2.289,2.209-2.289c1.619,0,2.33,1.259,2.33,2.848c0,2.659-2.279,3.878-3.289,4.278
		c-0.1,0.04-0.18-0.01-0.219-0.1l-0.111-0.24C298.279,68.964,298.318,68.854,298.508,68.794z M301.207,65.456
		c0.17-1-0.221-2.499-1.59-2.499c-0.838,0-1.498,0.729-1.498,1.589c0,0.87,0.67,1.559,1.508,1.559
		C300.557,66.105,301.207,65.456,301.207,65.456z"/>
	<path fill="#878787" d="M303.598,68.214c0.32,0,0.66,0.18,0.66,0.899c0,0.83-0.52,1.549-0.84,1.849c-0.1,0.09-0.18,0.08-0.24,0.02
		l-0.139-0.14c-0.051-0.05-0.041-0.15,0.061-0.24c0.1-0.09,0.619-0.53,0.619-1.259c-0.041,0.01-0.08,0.01-0.121,0.01
		c-0.309,0-0.568-0.26-0.568-0.57C303.029,68.464,303.289,68.214,303.598,68.214z"/>
	<path fill="#878787" d="M305.328,65.856c0-2.189,0.881-3.498,2.43-3.498s2.428,1.309,2.428,3.498c0,2.188-0.879,3.498-2.428,3.498
		S305.328,68.044,305.328,65.856z M309.477,65.856c0-1.809-0.619-2.849-1.719-2.849s-1.719,1.04-1.719,2.849
		c0,1.829,0.619,2.848,1.719,2.848S309.477,67.685,309.477,65.856z"/>
	<path fill="#878787" d="M311.568,68.185c0.08-0.07,0.15-0.15,0.23-0.22c0.09-0.08,0.17-0.1,0.25,0.01
		c0.1,0.14,0.58,0.74,1.479,0.74c0.961,0,1.57-0.85,1.57-1.639c0-0.78-0.5-1.439-1.57-1.439h-1.518c-0.201,0-0.311-0.19-0.311-0.35
		v-2.639c0-0.1,0.08-0.19,0.189-0.19h3.02c0.109,0,0.189,0.09,0.189,0.19v0.29c0,0.1-0.08,0.19-0.189,0.19h-2.539v1.839h1.158
		c1.51,0,2.309,0.79,2.309,2.099c0,1.25-0.969,2.289-2.318,2.289c-1.109,0-1.678-0.53-1.928-0.83
		C311.459,68.375,311.449,68.304,311.568,68.185z"/>
	<path fill="#878787" d="M318.078,65.756v-0.03c-0.449-0.21-1.029-0.77-1.029-1.54c0-1.099,0.869-1.829,2.059-1.829
		c1.209,0,2.08,0.729,2.08,1.829c0,0.77-0.58,1.33-1.029,1.54v0.03c0.469,0.2,1.209,0.81,1.209,1.669c0,1.089-0.85,1.929-2.27,1.929
		c-1.379,0-2.229-0.84-2.229-1.929C316.869,66.565,317.609,65.956,318.078,65.756z M319.098,68.754c0.859,0,1.52-0.47,1.52-1.259
		c0-0.62-0.549-1.25-1.5-1.35c-0.959,0.1-1.498,0.729-1.498,1.35C317.619,68.265,318.309,68.754,319.098,68.754z M320.447,64.217
		c0-0.75-0.58-1.259-1.369-1.259c-0.721,0-1.289,0.51-1.289,1.259c0,0.62,0.398,1.099,1.328,1.189
		C320.037,65.316,320.447,64.836,320.447,64.217z"/>
	<path fill="#B7B7B7" d="M196.611,74.448c0-0.1,0.09-0.19,0.189-0.19h0.381c0.109,0,0.189,0.09,0.189,0.19v4.167
		c0,1.14,0.709,2.029,1.879,2.029c1.18,0,1.898-0.869,1.898-2.009v-4.188c0-0.1,0.08-0.19,0.19-0.19h0.38
		c0.1,0,0.189,0.09,0.189,0.19v4.228c0,1.519-1.079,2.679-2.658,2.679c-1.568,0-2.639-1.16-2.639-2.679V74.448z"/>
	<path fill="#B7B7B7" d="M203.342,77.446c0-0.1,0.09-0.19,0.189-0.19h0.189c0.09,0,0.141,0.04,0.16,0.12l0.09,0.31
		c0,0,0.57-0.53,1.399-0.53c1.159,0,1.55,0.759,1.55,1.799v2.109c0,0.1-0.09,0.19-0.19,0.19h-0.319c-0.1,0-0.19-0.09-0.19-0.19
		v-2.109c0-0.759-0.34-1.129-0.899-1.129c-0.75,0-1.289,0.57-1.289,0.57v2.668c0,0.1-0.09,0.19-0.189,0.19h-0.311
		c-0.1,0-0.189-0.09-0.189-0.19V77.446z"/>
	<path fill="#B7B7B7" d="M208.291,77.446c0-0.1,0.09-0.19,0.189-0.19h0.19c0.08,0,0.149,0.05,0.17,0.14l0.08,0.29
		c0,0,0.37-0.53,1.199-0.53c0.3,0,0.8,0.05,0.7,0.33l-0.121,0.34c-0.049,0.13-0.139,0.13-0.239,0.09
		c-0.09-0.04-0.239-0.08-0.39-0.08c-0.76,0-1.09,0.56-1.09,0.56v2.668c0,0.1-0.09,0.19-0.189,0.19h-0.311
		c-0.1,0-0.189-0.09-0.189-0.19V77.446z"/>
	<path fill="#B7B7B7" d="M213.271,77.156c1.05,0,1.809,0.779,1.809,1.829c0,0.07-0.01,0.2-0.021,0.27c-0.01,0.1-0.09,0.17-0.18,0.17
		h-2.878c0.04,0.67,0.63,1.299,1.339,1.299c0.42,0,0.76-0.16,0.99-0.3c0.14-0.08,0.199-0.13,0.279-0.02
		c0.061,0.08,0.11,0.15,0.17,0.23c0.07,0.09,0.109,0.15-0.04,0.26c-0.239,0.19-0.779,0.46-1.469,0.46
		c-1.21,0-1.959-0.95-1.959-2.099C211.312,78.125,212.061,77.156,213.271,77.156z M214.39,78.865c-0.03-0.58-0.51-1.1-1.119-1.1
		c-0.67,0-1.189,0.48-1.259,1.1H214.39z"/>
	<path fill="#B7B7B7" d="M215.932,80.694c0.039-0.06,0.109-0.2,0.14-0.25c0.05-0.08,0.159-0.1,0.27-0.03c0,0,0.43,0.35,0.939,0.35
		c0.41,0,0.649-0.21,0.649-0.479c0-0.35-0.299-0.51-0.879-0.8c-0.529-0.26-1.14-0.61-1.14-1.289c0-0.42,0.34-1.04,1.27-1.04
		c0.52,0,0.919,0.18,1.109,0.31c0.09,0.06,0.12,0.2,0.06,0.31l-0.08,0.16c-0.06,0.11-0.199,0.14-0.289,0.09c0,0-0.43-0.24-0.8-0.24
		c-0.45,0-0.569,0.23-0.569,0.4c0,0.33,0.329,0.48,0.739,0.68c0.689,0.33,1.31,0.64,1.31,1.359c0,0.58-0.561,1.129-1.38,1.129
		c-0.669,0-1.079-0.28-1.3-0.45C215.932,80.864,215.901,80.764,215.932,80.694z"/>
	<path fill="#B7B7B7" d="M219.99,77.856h-0.509c-0.11,0-0.19-0.09-0.19-0.19v-0.22c0-0.11,0.08-0.19,0.19-0.19h0.509v-1.109
		c0-0.1,0.091-0.189,0.19-0.189l0.319-0.02c0.101,0,0.181,0.09,0.181,0.19v1.129h1.159c0.109,0,0.189,0.08,0.189,0.19v0.22
		c0,0.1-0.08,0.19-0.189,0.19h-1.159v2.338c0,0.4,0.101,0.48,0.329,0.48c0.25,0,0.6-0.15,0.73-0.22c0.15-0.08,0.189-0.02,0.24,0.06
		l0.149,0.25c0.069,0.12,0.04,0.18-0.069,0.25c-0.141,0.09-0.68,0.34-1.15,0.34c-0.799,0-0.92-0.48-0.92-1.1V77.856z"/>
	<path fill="#B7B7B7" d="M223.15,77.446c0-0.1,0.09-0.19,0.19-0.19h0.19c0.08,0,0.149,0.05,0.17,0.14l0.08,0.29
		c0,0,0.369-0.53,1.199-0.53c0.299,0,0.799,0.05,0.699,0.33l-0.12,0.34c-0.05,0.13-0.14,0.13-0.239,0.09
		c-0.09-0.04-0.24-0.08-0.391-0.08c-0.76,0-1.089,0.56-1.089,0.56v2.668c0,0.1-0.091,0.19-0.19,0.19h-0.31
		c-0.101,0-0.19-0.09-0.19-0.19V77.446z"/>
	<path fill="#B7B7B7" d="M226.352,74.938c0-0.27,0.209-0.48,0.469-0.48c0.27,0,0.48,0.21,0.48,0.48c0,0.26-0.211,0.47-0.48,0.47
		C226.561,75.407,226.352,75.197,226.352,74.938z M226.49,77.446c0-0.1,0.09-0.19,0.19-0.19h0.31c0.1,0,0.19,0.09,0.19,0.19v3.618
		c0,0.1-0.091,0.19-0.19,0.19h-0.31c-0.101,0-0.19-0.09-0.19-0.19V77.446z"/>
	<path fill="#B7B7B7" d="M230.359,77.156c0.6,0,1.07,0.24,1.43,0.7c0.07,0.09,0.05,0.209-0.04,0.28l-0.19,0.16
		c-0.149,0.14-0.199,0.04-0.289-0.04c-0.2-0.229-0.529-0.419-0.92-0.419c-0.75,0-1.329,0.62-1.329,1.419
		c0,0.8,0.569,1.439,1.319,1.439c0.6,0,0.83-0.3,1.06-0.52c0.12-0.12,0.189-0.1,0.3-0.02l0.109,0.08c0.1,0.07,0.131,0.18,0.07,0.28
		c-0.3,0.48-0.85,0.84-1.529,0.84c-1.109,0-2.049-0.89-2.049-2.089C228.301,78.085,229.271,77.156,230.359,77.156z"/>
	<path fill="#B7B7B7" d="M233.271,77.856h-0.509c-0.111,0-0.19-0.09-0.19-0.19v-0.22c0-0.11,0.079-0.19,0.19-0.19h0.509v-1.109
		c0-0.1,0.091-0.189,0.19-0.189l0.319-0.02c0.101,0,0.181,0.09,0.181,0.19v1.129h1.158c0.11,0,0.19,0.08,0.19,0.19v0.22
		c0,0.1-0.08,0.19-0.19,0.19h-1.158v2.338c0,0.4,0.1,0.48,0.329,0.48c0.25,0,0.6-0.15,0.729-0.22c0.15-0.08,0.189-0.02,0.24,0.06
		l0.15,0.25c0.069,0.12,0.039,0.18-0.07,0.25c-0.141,0.09-0.68,0.34-1.149,0.34c-0.8,0-0.92-0.48-0.92-1.1V77.856z"/>
	<path fill="#B7B7B7" d="M238.1,77.156c1.05,0,1.809,0.779,1.809,1.829c0,0.07-0.01,0.2-0.02,0.27c-0.01,0.1-0.09,0.17-0.18,0.17
		h-2.879c0.041,0.67,0.631,1.299,1.34,1.299c0.42,0,0.76-0.16,0.989-0.3c0.14-0.08,0.2-0.13,0.28-0.02
		c0.06,0.08,0.109,0.15,0.17,0.23c0.07,0.09,0.109,0.15-0.041,0.26c-0.239,0.19-0.779,0.46-1.469,0.46
		c-1.209,0-1.959-0.95-1.959-2.099C236.141,78.125,236.891,77.156,238.1,77.156z M239.219,78.865c-0.029-0.58-0.51-1.1-1.119-1.1
		c-0.67,0-1.189,0.48-1.26,1.1H239.219z"/>
	<path fill="#B7B7B7" d="M242.63,77.156c0.659,0,1.069,0.26,1.069,0.26v-2.968c0-0.1,0.09-0.19,0.189-0.19h0.311
		c0.1,0,0.189,0.09,0.189,0.19v6.616c0,0.1-0.09,0.19-0.189,0.19h-0.211c-0.09,0-0.149-0.07-0.17-0.16l-0.059-0.27
		c0,0-0.48,0.53-1.23,0.53c-1.02,0-1.818-0.959-1.818-2.109C240.711,78.076,241.43,77.156,242.63,77.156z M242.6,80.724
		c0.72,0,1.09-0.66,1.09-0.66v-1.999c0,0-0.42-0.24-0.97-0.24c-0.87,0-1.31,0.63-1.31,1.429
		C241.41,80.035,241.87,80.724,242.6,80.724z"/>
	<path fill="#B7B7B7" d="M248.35,74.448c0-0.1,0.08-0.19,0.19-0.19h2.208c1.23,0,2.239,1,2.239,2.208
		c0,1.24-1.009,2.249-2.229,2.249h-1.649v2.349c0,0.1-0.09,0.19-0.189,0.19h-0.38c-0.11,0-0.19-0.09-0.19-0.19V74.448z
		 M250.699,77.976c0.818,0,1.519-0.669,1.519-1.529c0-0.81-0.7-1.429-1.519-1.429h-1.59v2.958H250.699z"/>
	<path fill="#B7B7B7" d="M255.279,77.156c1.049,0,1.809,0.779,1.809,1.829c0,0.07-0.01,0.2-0.02,0.27c-0.01,0.1-0.09,0.17-0.18,0.17
		h-2.879c0.04,0.67,0.63,1.299,1.34,1.299c0.42,0,0.759-0.16,0.988-0.3c0.141-0.08,0.201-0.13,0.28-0.02
		c0.06,0.08,0.11,0.15,0.17,0.23c0.07,0.09,0.11,0.15-0.04,0.26c-0.24,0.19-0.779,0.46-1.469,0.46c-1.209,0-1.959-0.95-1.959-2.099
		C253.32,78.125,254.07,77.156,255.279,77.156z M256.398,78.865c-0.029-0.58-0.51-1.1-1.119-1.1c-0.67,0-1.189,0.48-1.26,1.1
		H256.398z"/>
	<path fill="#B7B7B7" d="M258.18,77.446c0-0.1,0.09-0.19,0.189-0.19h0.19c0.09,0,0.14,0.04,0.16,0.12l0.09,0.31
		c0,0,0.569-0.53,1.399-0.53c1.159,0,1.549,0.759,1.549,1.799v2.109c0,0.1-0.09,0.19-0.189,0.19h-0.32c-0.1,0-0.189-0.09-0.189-0.19
		v-2.109c0-0.759-0.34-1.129-0.9-1.129c-0.749,0-1.289,0.57-1.289,0.57v2.668c0,0.1-0.09,0.19-0.189,0.19h-0.311
		c-0.1,0-0.189-0.09-0.189-0.19V77.446z"/>
	<path fill="#B7B7B7" d="M263.13,77.446c0-0.1,0.091-0.19,0.19-0.19h0.189c0.09,0,0.141,0.04,0.16,0.12l0.09,0.31
		c0,0,0.57-0.53,1.398-0.53c1.16,0,1.55,0.759,1.55,1.799v2.109c0,0.1-0.09,0.19-0.19,0.19h-0.319c-0.101,0-0.19-0.09-0.19-0.19
		v-2.109c0-0.759-0.34-1.129-0.898-1.129c-0.75,0-1.289,0.57-1.289,0.57v2.668c0,0.1-0.091,0.19-0.19,0.19h-0.31
		c-0.1,0-0.19-0.09-0.19-0.19V77.446z"/>
	<path fill="#B7B7B7" d="M273.708,74.158c1.009,0,1.739,0.35,2.419,0.93c0.08,0.08,0.09,0.2,0.01,0.28
		c-0.09,0.09-0.199,0.19-0.279,0.28c-0.09,0.1-0.15,0.09-0.26-0.01c-0.51-0.45-1.23-0.78-1.899-0.78
		c-1.579,0-2.778,1.319-2.778,2.869c0,1.539,1.199,2.888,2.778,2.888c1.099,0,1.799-0.42,1.799-0.42v-1.399h-1.149
		c-0.109,0-0.189-0.08-0.189-0.18v-0.37c0-0.11,0.08-0.19,0.189-0.19h1.729c0.101,0,0.181,0.09,0.181,0.19v2.289
		c0,0.05-0.04,0.13-0.08,0.16c0,0-1.02,0.66-2.469,0.66c-1.999,0-3.608-1.589-3.608-3.588
		C270.1,75.767,271.709,74.158,273.708,74.158z"/>
	<path fill="#B7B7B7" d="M277.52,77.446c0-0.1,0.09-0.19,0.19-0.19h0.19c0.08,0,0.149,0.05,0.17,0.14l0.08,0.29
		c0,0,0.369-0.53,1.199-0.53c0.299,0,0.799,0.05,0.699,0.33l-0.12,0.34c-0.05,0.13-0.14,0.13-0.239,0.09
		c-0.09-0.04-0.24-0.08-0.391-0.08c-0.76,0-1.089,0.56-1.089,0.56v2.668c0,0.1-0.091,0.19-0.19,0.19h-0.31
		c-0.101,0-0.19-0.09-0.19-0.19V77.446z"/>
	<path fill="#B7B7B7" d="M282.17,78.715c0.43,0,0.85,0.13,0.85,0.13c0.01-0.74-0.08-1.08-0.65-1.08c-0.549,0-1.02,0.15-1.199,0.22
		c-0.1,0.04-0.16-0.01-0.189-0.1l-0.08-0.25c-0.039-0.12,0.02-0.18,0.109-0.22c0.061-0.03,0.641-0.26,1.391-0.26
		c1.02,0,1.268,0.52,1.268,1.689v2.219c0,0.1-0.09,0.19-0.189,0.19h-0.189c-0.109,0-0.141-0.06-0.17-0.15l-0.08-0.27
		c-0.209,0.21-0.619,0.52-1.238,0.52c-0.701,0-1.23-0.51-1.23-1.31C280.57,79.285,281.141,78.715,282.17,78.715z M281.91,80.754
		c0.5,0,0.93-0.31,1.1-0.56v-0.79c-0.121-0.07-0.4-0.16-0.84-0.16c-0.561,0-0.959,0.28-0.959,0.799
		C281.211,80.444,281.48,80.754,281.91,80.754z"/>
	<path fill="#B7B7B7" d="M285.061,77.446c0-0.1,0.09-0.19,0.189-0.19h0.191c0.09,0,0.139,0.04,0.158,0.12l0.09,0.31
		c0,0,0.57-0.53,1.4-0.53c1.158,0,1.549,0.759,1.549,1.799v2.109c0,0.1-0.09,0.19-0.189,0.19h-0.32c-0.1,0-0.189-0.09-0.189-0.19
		v-2.109c0-0.759-0.34-1.129-0.9-1.129c-0.75,0-1.289,0.57-1.289,0.57v2.668c0,0.1-0.09,0.19-0.189,0.19h-0.311
		c-0.1,0-0.189-0.09-0.189-0.19V77.446z"/>
	<path fill="#B7B7B7" d="M290.271,77.856h-0.51c-0.111,0-0.191-0.09-0.191-0.19v-0.22c0-0.11,0.08-0.19,0.191-0.19h0.51v-1.109
		c0-0.1,0.09-0.189,0.189-0.189l0.32-0.02c0.1,0,0.18,0.09,0.18,0.19v1.129h1.158c0.111,0,0.191,0.08,0.191,0.19v0.22
		c0,0.1-0.08,0.19-0.191,0.19h-1.158v2.338c0,0.4,0.1,0.48,0.33,0.48c0.248,0,0.6-0.15,0.729-0.22c0.15-0.08,0.189-0.02,0.24,0.06
		l0.15,0.25c0.07,0.12,0.039,0.18-0.07,0.25c-0.141,0.09-0.68,0.34-1.15,0.34c-0.799,0-0.918-0.48-0.918-1.1V77.856z"/>
	<path fill="#B7B7B7" d="M293.432,77.726c0-0.32,0.26-0.57,0.568-0.57c0.32,0,0.57,0.25,0.57,0.57c0,0.31-0.25,0.569-0.57,0.569
		C293.691,78.295,293.432,78.036,293.432,77.726z M294,80.214c0.32,0,0.57,0.25,0.57,0.57c0,0.31-0.25,0.57-0.57,0.57
		c-0.309,0-0.568-0.26-0.568-0.57C293.432,80.464,293.691,80.214,294,80.214z"/>
	<path fill="#878787" d="M298.02,80.205c0.16-0.19,0.291-0.46,0.5-0.28c0.061,0.06,0.65,0.629,1.42,0.739v-2.599
		c-1.061-0.419-1.75-0.869-1.879-1.769c-0.02-0.11-0.02-0.23-0.02-0.36c0-0.64,0.529-1.659,1.898-1.769v-0.32
		c0-0.11,0.09-0.19,0.189-0.19h0.07c0.1,0,0.18,0.08,0.18,0.19v0.32c0.869,0.07,1.5,0.5,1.5,0.5c0.059,0.03,0.18,0.15,0.059,0.34
		c-0.17,0.26-0.229,0.42-0.469,0.28c-0.061-0.03-0.561-0.36-1.09-0.439l-0.01,2.588c1.209,0.52,1.979,1.029,1.979,2.119
		c0,0.99-0.92,1.719-1.979,1.789v1.04c0,0.12-0.109,0.18-0.221,0.18c-0.1,0-0.209-0.06-0.209-0.18v-1.04
		c-1.049-0.09-1.74-0.689-1.859-0.799C298,80.474,297.9,80.395,298.02,80.205z M299.939,74.837c-0.85,0.09-1.16,0.7-1.16,1.089
		c0,0.62,0.43,1,1.16,1.329V74.837z M301.549,79.585c0-0.56-0.4-0.939-1.18-1.319v2.409
		C301.039,80.614,301.549,80.135,301.549,79.585z"/>
	<path fill="#878787" d="M303.16,80.764c0.82-0.879,1.629-1.769,2.449-2.648c0.68-0.74,1.01-1.339,1.01-1.809
		c0-0.57-0.371-1.27-1.4-1.27c-0.619,0-1.109,0.42-1.418,0.75c-0.08,0.08-0.191,0.08-0.27,0l-0.201-0.19
		c-0.061-0.07-0.08-0.18-0.01-0.26c0,0,0.709-0.979,1.898-0.979c1.43,0,2.16,0.909,2.16,1.929c0,0.879-0.561,1.529-1.25,2.269
		c-0.641,0.68-1.279,1.37-1.92,2.049h2.939c0.1,0,0.189,0.09,0.189,0.189v0.27c0,0.1-0.09,0.19-0.189,0.19h-3.799
		c-0.109,0-0.189-0.09-0.189-0.19V80.764z"/>
	<path fill="#878787" d="M309.391,80.794c0.449-0.15,2.219-1.139,2.568-2.488c0,0-0.66,0.45-1.52,0.45
		c-1.129,0-2.148-0.84-2.148-2.169c0-1.259,1.01-2.289,2.209-2.289c1.619,0,2.328,1.259,2.328,2.848
		c0,2.659-2.279,3.878-3.287,4.278c-0.102,0.04-0.18-0.01-0.221-0.1l-0.109-0.24C309.16,80.964,309.201,80.854,309.391,80.794z
		 M312.088,77.456c0.17-1-0.219-2.499-1.588-2.499c-0.84,0-1.5,0.729-1.5,1.589c0,0.87,0.67,1.559,1.51,1.559
		C311.439,78.105,312.088,77.456,312.088,77.456z"/>
	<path fill="#878787" d="M314.48,80.214c0.32,0,0.66,0.18,0.66,0.899c0,0.83-0.52,1.549-0.84,1.849c-0.1,0.09-0.18,0.08-0.24,0.02
		l-0.141-0.14c-0.049-0.05-0.039-0.15,0.061-0.24c0.1-0.09,0.619-0.53,0.619-1.259c-0.039,0.01-0.08,0.01-0.119,0.01
		c-0.311,0-0.57-0.26-0.57-0.57C313.91,80.464,314.17,80.214,314.48,80.214z"/>
	<path fill="#878787" d="M316.5,80.954l2.789-5.827h-3.27c-0.1,0-0.189-0.09-0.189-0.19v-0.29c0-0.1,0.09-0.19,0.189-0.19h4.018
		c0.102,0,0.191,0.09,0.191,0.19v0.07l-2.92,6.277c-0.039,0.09-0.139,0.26-0.328,0.26h-0.291c-0.1,0-0.189-0.09-0.189-0.19V80.954z"
		/>
	<path fill="#878787" d="M321.01,77.856c0-2.189,0.881-3.498,2.43-3.498s2.428,1.309,2.428,3.498c0,2.188-0.879,3.498-2.428,3.498
		S321.01,80.044,321.01,77.856z M325.158,77.856c0-1.809-0.619-2.849-1.719-2.849s-1.719,1.04-1.719,2.849
		c0,1.829,0.619,2.848,1.719,2.848S325.158,79.685,325.158,77.856z"/>
	<path fill="#878787" d="M328.43,77.756v-0.03c-0.449-0.21-1.029-0.77-1.029-1.54c0-1.099,0.869-1.829,2.059-1.829
		c1.209,0,2.08,0.729,2.08,1.829c0,0.77-0.58,1.33-1.029,1.54v0.03c0.469,0.2,1.209,0.81,1.209,1.669c0,1.089-0.85,1.929-2.27,1.929
		c-1.379,0-2.229-0.84-2.229-1.929C327.221,78.565,327.961,77.956,328.43,77.756z M329.449,80.754c0.859,0,1.52-0.47,1.52-1.259
		c0-0.62-0.549-1.25-1.5-1.35c-0.959,0.1-1.498,0.729-1.498,1.35C327.971,80.265,328.66,80.754,329.449,80.754z M330.799,76.217
		c0-0.75-0.58-1.259-1.369-1.259c-0.721,0-1.289,0.51-1.289,1.259c0,0.62,0.398,1.099,1.328,1.189
		C330.389,77.316,330.799,76.836,330.799,76.217z"/>
	<path fill="#B7B7B7" d="M196.701,86.448c0-0.1,0.08-0.19,0.19-0.19h2.208c1.23,0,2.239,1,2.239,2.208
		c0,1.24-1.009,2.249-2.229,2.249h-1.649v2.349c0,0.1-0.09,0.19-0.189,0.19h-0.38c-0.11,0-0.19-0.09-0.19-0.19V86.448z
		 M199.051,89.976c0.818,0,1.519-0.669,1.519-1.529c0-0.81-0.7-1.429-1.519-1.429h-1.59v2.958H199.051z"/>
	<path fill="#B7B7B7" d="M203.631,89.156c1.05,0,1.809,0.779,1.809,1.829c0,0.07-0.01,0.2-0.02,0.27c-0.01,0.1-0.09,0.17-0.18,0.17
		h-2.879c0.041,0.67,0.631,1.299,1.34,1.299c0.42,0,0.76-0.16,0.989-0.3c0.14-0.08,0.2-0.13,0.28-0.02
		c0.06,0.08,0.109,0.15,0.17,0.23c0.07,0.09,0.109,0.15-0.041,0.26c-0.239,0.19-0.779,0.46-1.469,0.46
		c-1.209,0-1.959-0.95-1.959-2.099C201.672,90.125,202.422,89.156,203.631,89.156z M204.75,90.865c-0.029-0.58-0.51-1.1-1.119-1.1
		c-0.67,0-1.189,0.48-1.26,1.1H204.75z"/>
	<path fill="#B7B7B7" d="M206.531,89.446c0-0.1,0.09-0.19,0.19-0.19h0.19c0.09,0,0.14,0.04,0.16,0.12l0.09,0.31
		c0,0,0.569-0.53,1.398-0.53c1.16,0,1.549,0.759,1.549,1.799v2.109c0,0.1-0.09,0.19-0.189,0.19h-0.32c-0.1,0-0.189-0.09-0.189-0.19
		v-2.109c0-0.759-0.34-1.129-0.899-1.129c-0.749,0-1.289,0.57-1.289,0.57v2.668c0,0.1-0.091,0.19-0.19,0.19h-0.31
		c-0.101,0-0.19-0.09-0.19-0.19V89.446z"/>
	<path fill="#B7B7B7" d="M211.481,89.446c0-0.1,0.091-0.19,0.19-0.19h0.189c0.09,0,0.141,0.04,0.16,0.12l0.09,0.31
		c0,0,0.57-0.53,1.398-0.53c1.16,0,1.55,0.759,1.55,1.799v2.109c0,0.1-0.09,0.19-0.19,0.19h-0.319c-0.101,0-0.19-0.09-0.19-0.19
		v-2.109c0-0.759-0.34-1.129-0.898-1.129c-0.75,0-1.289,0.57-1.289,0.57v2.668c0,0.1-0.091,0.19-0.19,0.19h-0.31
		c-0.1,0-0.19-0.09-0.19-0.19V89.446z"/>
	<path fill="#B7B7B7" d="M222.06,86.158c1.009,0,1.739,0.35,2.419,0.93c0.08,0.08,0.09,0.2,0.01,0.28
		c-0.09,0.09-0.199,0.19-0.279,0.28c-0.09,0.1-0.15,0.09-0.26-0.01c-0.51-0.45-1.23-0.78-1.899-0.78
		c-1.579,0-2.778,1.319-2.778,2.869c0,1.539,1.199,2.888,2.778,2.888c1.099,0,1.799-0.42,1.799-0.42v-1.399h-1.149
		c-0.109,0-0.189-0.08-0.189-0.18v-0.37c0-0.11,0.08-0.19,0.189-0.19h1.729c0.101,0,0.181,0.09,0.181,0.19v2.289
		c0,0.05-0.04,0.13-0.08,0.16c0,0-1.02,0.66-2.469,0.66c-1.999,0-3.608-1.589-3.608-3.588
		C218.451,87.767,220.061,86.158,222.06,86.158z"/>
	<path fill="#B7B7B7" d="M225.871,89.446c0-0.1,0.09-0.19,0.189-0.19h0.19c0.08,0,0.149,0.05,0.17,0.14l0.08,0.29
		c0,0,0.37-0.53,1.199-0.53c0.3,0,0.8,0.05,0.7,0.33l-0.121,0.34c-0.049,0.13-0.139,0.13-0.239,0.09
		c-0.09-0.04-0.239-0.08-0.39-0.08c-0.76,0-1.09,0.56-1.09,0.56v2.668c0,0.1-0.09,0.19-0.189,0.19h-0.311
		c-0.1,0-0.189-0.09-0.189-0.19V89.446z"/>
	<path fill="#B7B7B7" d="M230.521,90.715c0.43,0,0.85,0.13,0.85,0.13c0.01-0.74-0.08-1.08-0.649-1.08c-0.551,0-1.02,0.15-1.199,0.22
		c-0.101,0.04-0.16-0.01-0.19-0.1l-0.08-0.25c-0.04-0.12,0.021-0.18,0.11-0.22c0.06-0.03,0.639-0.26,1.389-0.26
		c1.02,0,1.27,0.52,1.27,1.689v2.219c0,0.1-0.09,0.19-0.189,0.19h-0.19c-0.11,0-0.14-0.06-0.17-0.15l-0.08-0.27
		c-0.21,0.21-0.62,0.52-1.239,0.52c-0.699,0-1.229-0.51-1.229-1.31C228.922,91.285,229.49,90.715,230.521,90.715z M230.26,92.754
		c0.5,0,0.93-0.31,1.1-0.56v-0.79c-0.119-0.07-0.399-0.16-0.839-0.16c-0.56,0-0.96,0.28-0.96,0.799
		C229.561,92.444,229.83,92.754,230.26,92.754z"/>
	<path fill="#B7B7B7" d="M233.411,89.446c0-0.1,0.091-0.19,0.19-0.19h0.189c0.09,0,0.141,0.04,0.16,0.12l0.09,0.31
		c0,0,0.57-0.53,1.398-0.53c1.16,0,1.55,0.759,1.55,1.799v2.109c0,0.1-0.09,0.19-0.19,0.19h-0.319c-0.101,0-0.19-0.09-0.19-0.19
		v-2.109c0-0.759-0.34-1.129-0.898-1.129c-0.75,0-1.289,0.57-1.289,0.57v2.668c0,0.1-0.091,0.19-0.19,0.19h-0.31
		c-0.1,0-0.19-0.09-0.19-0.19V89.446z"/>
	<path fill="#B7B7B7" d="M238.621,89.856h-0.51c-0.11,0-0.189-0.09-0.189-0.19v-0.22c0-0.11,0.079-0.19,0.189-0.19h0.51v-1.109
		c0-0.1,0.09-0.189,0.189-0.189l0.32-0.02c0.1,0,0.18,0.09,0.18,0.19v1.129h1.159c0.11,0,0.19,0.08,0.19,0.19v0.22
		c0,0.1-0.08,0.19-0.19,0.19h-1.159v2.338c0,0.4,0.1,0.48,0.33,0.48c0.25,0,0.6-0.15,0.729-0.22c0.15-0.08,0.19-0.02,0.24,0.06
		l0.15,0.25c0.07,0.12,0.04,0.18-0.07,0.25c-0.14,0.09-0.68,0.34-1.148,0.34c-0.801,0-0.92-0.48-0.92-1.1V89.856z"/>
	<path fill="#B7B7B7" d="M241.781,89.726c0-0.32,0.26-0.57,0.569-0.57c0.319,0,0.569,0.25,0.569,0.57c0,0.31-0.25,0.569-0.569,0.569
		C242.041,90.295,241.781,90.036,241.781,89.726z M242.351,92.214c0.319,0,0.569,0.25,0.569,0.57c0,0.31-0.25,0.57-0.569,0.57
		c-0.31,0-0.569-0.26-0.569-0.57C241.781,92.464,242.041,92.214,242.351,92.214z"/>
	<path fill="#878787" d="M246.371,92.205c0.16-0.19,0.289-0.46,0.5-0.28c0.06,0.06,0.648,0.629,1.418,0.739v-2.599
		c-1.059-0.419-1.748-0.869-1.879-1.769c-0.02-0.11-0.02-0.23-0.02-0.36c0-0.64,0.529-1.659,1.898-1.769v-0.32
		c0-0.11,0.091-0.19,0.19-0.19h0.07c0.1,0,0.18,0.08,0.18,0.19v0.32c0.87,0.07,1.499,0.5,1.499,0.5c0.061,0.03,0.18,0.15,0.061,0.34
		c-0.17,0.26-0.23,0.42-0.471,0.28c-0.06-0.03-0.559-0.36-1.089-0.439l-0.01,2.588c1.209,0.52,1.979,1.029,1.979,2.119
		c0,0.99-0.919,1.719-1.979,1.789v1.04c0,0.12-0.11,0.18-0.22,0.18c-0.1,0-0.211-0.06-0.211-0.18v-1.04
		c-1.049-0.09-1.738-0.689-1.858-0.799C246.351,92.474,246.251,92.395,246.371,92.205z M248.289,86.837
		c-0.849,0.09-1.158,0.7-1.158,1.089c0,0.62,0.43,1,1.158,1.329V86.837z M249.898,91.585c0-0.56-0.399-0.939-1.179-1.319v2.409
		C249.389,92.614,249.898,92.135,249.898,91.585z"/>
	<path fill="#878787" d="M251.25,91.525v-0.37l3.789-4.748c0.029-0.03,0.06-0.06,0.149-0.06h0.2c0.1,0,0.189,0.08,0.189,0.19
		l0.01,4.567h0.811c0.109,0,0.189,0.08,0.189,0.18v0.22c0,0.1-0.08,0.19-0.189,0.19h-0.811v1.369c0,0.1-0.09,0.19-0.189,0.19h-0.34
		c-0.1,0-0.189-0.09-0.189-0.19v-1.349h-3.429C251.33,91.715,251.25,91.625,251.25,91.525z M254.908,91.095v-3.478l-2.818,3.478
		H254.908z"/>
	<path fill="#878787" d="M258.779,89.756v-0.03c-0.449-0.21-1.029-0.77-1.029-1.54c0-1.099,0.869-1.829,2.059-1.829
		c1.21,0,2.08,0.729,2.08,1.829c0,0.77-0.58,1.33-1.03,1.54v0.03c0.47,0.2,1.21,0.81,1.21,1.669c0,1.089-0.85,1.929-2.27,1.929
		c-1.379,0-2.229-0.84-2.229-1.929C257.57,90.565,258.311,89.956,258.779,89.756z M259.799,92.754c0.859,0,1.52-0.47,1.52-1.259
		c0-0.62-0.55-1.25-1.499-1.35c-0.96,0.1-1.499,0.729-1.499,1.35C258.32,92.265,259.01,92.754,259.799,92.754z M261.148,88.217
		c0-0.75-0.58-1.259-1.369-1.259c-0.72,0-1.289,0.51-1.289,1.259c0,0.62,0.399,1.099,1.329,1.189
		C260.738,89.316,261.148,88.836,261.148,88.217z"/>
	<path fill="#878787" d="M263.801,92.214c0.318,0,0.658,0.18,0.658,0.899c0,0.83-0.52,1.549-0.839,1.849
		c-0.101,0.09-0.18,0.08-0.239,0.02l-0.141-0.14c-0.05-0.05-0.04-0.15,0.061-0.24c0.1-0.09,0.619-0.53,0.619-1.259
		c-0.04,0.01-0.08,0.01-0.119,0.01c-0.311,0-0.57-0.26-0.57-0.57C263.23,92.464,263.49,92.214,263.801,92.214z"/>
	<path fill="#878787" d="M265.82,92.954l2.788-5.827h-3.269c-0.1,0-0.189-0.09-0.189-0.19v-0.29c0-0.1,0.09-0.19,0.189-0.19h4.019
		c0.1,0,0.19,0.09,0.19,0.19v0.07l-2.919,6.277c-0.04,0.09-0.14,0.26-0.33,0.26h-0.29c-0.1,0-0.189-0.09-0.189-0.19V92.954z"/>
	<path fill="#878787" d="M273.359,86.228c0.1-0.04,0.18,0.01,0.219,0.1l0.111,0.24c0.049,0.12,0.01,0.23-0.181,0.29
		c-0.45,0.15-2.219,1.139-2.568,2.489c0,0,0.659-0.45,1.519-0.45c1.13,0,2.149,0.839,2.149,2.168c0,1.259-1.01,2.289-2.209,2.289
		c-1.619,0-2.329-1.259-2.329-2.849C270.07,87.847,272.35,86.627,273.359,86.228z M273.898,91.105c0-0.87-0.67-1.559-1.509-1.559
		c-0.93,0-1.579,0.65-1.579,0.65c-0.17,0.999,0.22,2.499,1.589,2.499C273.238,92.694,273.898,91.965,273.898,91.105z"/>
	<path fill="#878787" d="M278.789,86.228c0.1-0.04,0.18,0.01,0.22,0.1l0.11,0.24c0.05,0.12,0.01,0.23-0.18,0.29
		c-0.45,0.15-2.219,1.139-2.568,2.489c0,0,0.659-0.45,1.519-0.45c1.13,0,2.149,0.839,2.149,2.168c0,1.259-1.01,2.289-2.209,2.289
		c-1.619,0-2.329-1.259-2.329-2.849C275.501,87.847,277.779,86.627,278.789,86.228z M279.328,91.105c0-0.87-0.669-1.559-1.508-1.559
		c-0.93,0-1.58,0.65-1.58,0.65c-0.17,0.999,0.221,2.499,1.59,2.499C278.669,92.694,279.328,91.965,279.328,91.105z"/>
	<path fill="#B7B7B7" d="M199.779,98.158c2,0,3.599,1.609,3.599,3.608c0,1.999-1.599,3.588-3.599,3.588
		c-1.998,0-3.588-1.589-3.588-3.588C196.191,99.767,197.781,98.158,199.779,98.158z M199.779,104.654
		c1.59,0,2.898-1.299,2.898-2.889c0-1.589-1.309-2.908-2.898-2.908c-1.588,0-2.888,1.319-2.888,2.908
		C196.892,103.355,198.191,104.654,199.779,104.654z"/>
	<path fill="#B7B7B7" d="M204.441,101.446c0-0.1,0.09-0.19,0.19-0.19h0.319c0.101,0,0.19,0.09,0.19,0.19v2.109
		c0,0.76,0.34,1.129,0.899,1.129c0.76,0,1.189-0.569,1.189-0.569c0-0.22,0-0.45,0-2.669c0-0.1,0.09-0.19,0.189-0.19h0.311
		c0.1,0,0.189,0.09,0.189,0.19v3.618c0,0.1-0.09,0.19-0.189,0.19h-0.19c-0.11,0-0.149-0.07-0.18-0.17l-0.069-0.26
		c0,0-0.471,0.53-1.3,0.53c-1.159,0-1.55-0.75-1.55-1.809V101.446z"/>
	<path fill="#B7B7B7" d="M209.602,101.856h-0.51c-0.11,0-0.189-0.09-0.189-0.19v-0.22c0-0.11,0.079-0.19,0.189-0.19h0.51v-1.109
		c0-0.1,0.09-0.189,0.189-0.189l0.32-0.02c0.1,0,0.18,0.09,0.18,0.19v1.129h1.159c0.11,0,0.19,0.08,0.19,0.19v0.22
		c0,0.1-0.08,0.19-0.19,0.19h-1.159v2.338c0,0.4,0.1,0.48,0.33,0.48c0.25,0,0.6-0.15,0.729-0.22c0.15-0.08,0.19-0.02,0.24,0.06
		l0.15,0.25c0.07,0.12,0.04,0.18-0.07,0.25c-0.14,0.09-0.68,0.34-1.148,0.34c-0.801,0-0.92-0.48-0.92-1.1V101.856z"/>
	<path fill="#B7B7B7" d="M212.521,104.694c0.04-0.06,0.109-0.2,0.141-0.25c0.049-0.08,0.159-0.1,0.27-0.03c0,0,0.43,0.35,0.939,0.35
		c0.41,0,0.649-0.21,0.649-0.479c0-0.35-0.3-0.51-0.88-0.8c-0.529-0.26-1.139-0.61-1.139-1.289c0-0.42,0.34-1.04,1.27-1.04
		c0.52,0,0.919,0.18,1.109,0.31c0.09,0.06,0.119,0.2,0.059,0.31l-0.079,0.16c-0.06,0.11-0.2,0.14-0.29,0.09
		c0,0-0.43-0.24-0.799-0.24c-0.45,0-0.57,0.23-0.57,0.4c0,0.33,0.33,0.48,0.74,0.68c0.689,0.33,1.309,0.64,1.309,1.359
		c0,0.58-0.56,1.129-1.379,1.129c-0.67,0-1.08-0.28-1.3-0.45C212.521,104.864,212.492,104.764,212.521,104.694z"/>
	<path fill="#B7B7B7" d="M216.182,98.938c0-0.27,0.21-0.48,0.47-0.48c0.27,0,0.479,0.21,0.479,0.48c0,0.26-0.21,0.47-0.479,0.47
		C216.392,99.407,216.182,99.197,216.182,98.938z M216.321,101.446c0-0.1,0.091-0.19,0.19-0.19h0.31c0.1,0,0.19,0.09,0.19,0.19
		v3.618c0,0.1-0.091,0.19-0.19,0.19h-0.31c-0.1,0-0.19-0.09-0.19-0.19V101.446z"/>
	<path fill="#B7B7B7" d="M220.061,101.156c0.66,0,1.069,0.26,1.069,0.26v-2.968c0-0.1,0.09-0.19,0.19-0.19h0.309
		c0.101,0,0.19,0.09,0.19,0.19v6.616c0,0.1-0.09,0.19-0.19,0.19h-0.209c-0.09,0-0.15-0.07-0.17-0.16l-0.061-0.27
		c0,0-0.479,0.53-1.229,0.53c-1.02,0-1.819-0.959-1.819-2.109C218.142,102.076,218.861,101.156,220.061,101.156z M220.03,104.724
		c0.72,0,1.089-0.66,1.089-0.66v-1.999c0,0-0.419-0.24-0.969-0.24c-0.869,0-1.309,0.63-1.309,1.429
		C218.842,104.035,219.301,104.724,220.03,104.724z"/>
	<path fill="#B7B7B7" d="M224.92,101.156c1.05,0,1.809,0.779,1.809,1.829c0,0.07-0.01,0.2-0.02,0.27c-0.01,0.1-0.09,0.17-0.18,0.17
		h-2.879c0.041,0.67,0.631,1.299,1.34,1.299c0.42,0,0.76-0.16,0.989-0.3c0.14-0.08,0.2-0.13,0.28-0.02
		c0.06,0.08,0.109,0.15,0.17,0.23c0.07,0.09,0.109,0.15-0.041,0.26c-0.239,0.19-0.779,0.46-1.469,0.46
		c-1.209,0-1.959-0.95-1.959-2.099C222.961,102.125,223.711,101.156,224.92,101.156z M226.039,102.865
		c-0.029-0.58-0.51-1.1-1.119-1.1c-0.67,0-1.189,0.48-1.26,1.1H226.039z"/>
	<path fill="#B7B7B7" d="M233.449,98.158c1.009,0,1.738,0.35,2.418,0.93c0.08,0.08,0.09,0.2,0.01,0.28
		c-0.09,0.09-0.199,0.19-0.279,0.28c-0.09,0.1-0.15,0.09-0.26-0.01c-0.51-0.45-1.229-0.78-1.898-0.78
		c-1.58,0-2.779,1.319-2.779,2.869c0,1.539,1.199,2.888,2.779,2.888c1.099,0,1.799-0.42,1.799-0.42v-1.399h-1.15
		c-0.109,0-0.189-0.08-0.189-0.18v-0.37c0-0.11,0.08-0.19,0.189-0.19h1.729c0.101,0,0.181,0.09,0.181,0.19v2.289
		c0,0.05-0.041,0.13-0.08,0.16c0,0-1.02,0.66-2.469,0.66c-2,0-3.608-1.589-3.608-3.588
		C229.841,99.767,231.449,98.158,233.449,98.158z"/>
	<path fill="#B7B7B7" d="M237.26,101.446c0-0.1,0.09-0.19,0.19-0.19h0.19c0.08,0,0.149,0.05,0.17,0.14l0.08,0.29
		c0,0,0.369-0.53,1.199-0.53c0.299,0,0.799,0.05,0.699,0.33l-0.12,0.34c-0.05,0.13-0.14,0.13-0.239,0.09
		c-0.09-0.04-0.24-0.08-0.391-0.08c-0.76,0-1.089,0.56-1.089,0.56v2.668c0,0.1-0.091,0.19-0.19,0.19h-0.31
		c-0.101,0-0.19-0.09-0.19-0.19V101.446z"/>
	<path fill="#B7B7B7" d="M241.91,102.715c0.43,0,0.85,0.13,0.85,0.13c0.01-0.74-0.08-1.08-0.65-1.08c-0.55,0-1.02,0.15-1.199,0.22
		c-0.1,0.04-0.16-0.01-0.189-0.1l-0.08-0.25c-0.041-0.12,0.02-0.18,0.109-0.22c0.061-0.03,0.64-0.26,1.389-0.26
		c1.02,0,1.27,0.52,1.27,1.689v2.219c0,0.1-0.09,0.19-0.189,0.19h-0.189c-0.11,0-0.141-0.06-0.17-0.15l-0.08-0.27
		c-0.21,0.21-0.62,0.52-1.24,0.52c-0.699,0-1.229-0.51-1.229-1.31C240.311,103.285,240.88,102.715,241.91,102.715z M241.65,104.754
		c0.499,0,0.929-0.31,1.099-0.56v-0.79c-0.12-0.07-0.399-0.16-0.839-0.16c-0.561,0-0.96,0.28-0.96,0.799
		C240.95,104.444,241.22,104.754,241.65,104.754z"/>
	<path fill="#B7B7B7" d="M244.801,101.446c0-0.1,0.09-0.19,0.189-0.19h0.189c0.09,0,0.141,0.04,0.16,0.12l0.09,0.31
		c0,0,0.57-0.53,1.399-0.53c1.159,0,1.55,0.759,1.55,1.799v2.109c0,0.1-0.09,0.19-0.19,0.19h-0.319c-0.1,0-0.19-0.09-0.19-0.19
		v-2.109c0-0.759-0.34-1.129-0.899-1.129c-0.75,0-1.289,0.57-1.289,0.57v2.668c0,0.1-0.09,0.19-0.189,0.19h-0.311
		c-0.1,0-0.189-0.09-0.189-0.19V101.446z"/>
	<path fill="#B7B7B7" d="M250.01,101.856h-0.51c-0.109,0-0.189-0.09-0.189-0.19v-0.22c0-0.11,0.08-0.19,0.189-0.19h0.51v-1.109
		c0-0.1,0.09-0.189,0.189-0.189l0.32-0.02c0.1,0,0.18,0.09,0.18,0.19v1.129h1.16c0.109,0,0.189,0.08,0.189,0.19v0.22
		c0,0.1-0.08,0.19-0.189,0.19h-1.16v2.338c0,0.4,0.1,0.48,0.33,0.48c0.25,0,0.6-0.15,0.73-0.22c0.149-0.08,0.189-0.02,0.239,0.06
		l0.149,0.25c0.07,0.12,0.041,0.18-0.07,0.25c-0.139,0.09-0.679,0.34-1.148,0.34c-0.8,0-0.92-0.48-0.92-1.1V101.856z"/>
	<path fill="#B7B7B7" d="M253.17,101.726c0-0.32,0.26-0.57,0.57-0.57c0.319,0,0.569,0.25,0.569,0.57c0,0.31-0.25,0.569-0.569,0.569
		C253.43,102.295,253.17,102.036,253.17,101.726z M253.74,104.214c0.319,0,0.569,0.25,0.569,0.57c0,0.31-0.25,0.57-0.569,0.57
		c-0.311,0-0.57-0.26-0.57-0.57C253.17,104.464,253.43,104.214,253.74,104.214z"/>
	<path fill="#878787" d="M258.07,102.875v-0.189c0-0.11,0.08-0.19,0.189-0.19h2.089c0.11,0,0.19,0.08,0.19,0.19v0.189
		c0,0.1-0.08,0.18-0.19,0.18h-2.089C258.15,103.055,258.07,102.975,258.07,102.875z"/>
	<path fill="#878787" d="M262.199,102.875v-0.189c0-0.11,0.08-0.19,0.19-0.19h2.089c0.109,0,0.189,0.08,0.189,0.19v0.189
		c0,0.1-0.08,0.18-0.189,0.18h-2.089C262.279,103.055,262.199,102.975,262.199,102.875z"/>
	<path fill="#B7B7B7" d="M196.052,110.498c-0.04-0.14,0.04-0.24,0.181-0.24h0.419c0.08,0,0.16,0.07,0.181,0.14l1.389,5.177h0.04
		l1.669-5.307c0.02-0.06,0.08-0.11,0.17-0.11h0.18c0.08,0,0.15,0.05,0.17,0.11l1.699,5.307h0.04l1.359-5.177
		c0.021-0.07,0.101-0.14,0.18-0.14h0.42c0.14,0,0.22,0.1,0.18,0.24l-1.889,6.716c-0.021,0.08-0.101,0.14-0.181,0.14h-0.159
		c-0.069,0-0.14-0.05-0.17-0.11l-1.729-5.407h-0.049l-1.699,5.407c-0.031,0.06-0.101,0.11-0.17,0.11h-0.16
		c-0.08,0-0.16-0.06-0.18-0.14L196.052,110.498z"/>
	<path fill="#B7B7B7" d="M206.591,113.156c1.109,0,1.989,0.959,1.989,2.089c0,1.149-0.88,2.109-1.989,2.109
		s-1.989-0.959-1.989-2.109C204.602,114.116,205.481,113.156,206.591,113.156z M206.591,116.704c0.729,0,1.3-0.649,1.3-1.459
		c0-0.79-0.57-1.429-1.3-1.429s-1.3,0.64-1.3,1.429C205.291,116.055,205.861,116.704,206.591,116.704z"/>
	<path fill="#B7B7B7" d="M209.711,113.446c0-0.1,0.09-0.19,0.19-0.19h0.19c0.08,0,0.149,0.05,0.17,0.14l0.08,0.29
		c0,0,0.369-0.53,1.199-0.53c0.299,0,0.799,0.05,0.699,0.33l-0.12,0.34c-0.05,0.13-0.14,0.13-0.239,0.09
		c-0.09-0.04-0.24-0.08-0.391-0.08c-0.76,0-1.089,0.56-1.089,0.56v2.668c0,0.1-0.091,0.19-0.19,0.19h-0.31
		c-0.101,0-0.19-0.09-0.19-0.19V113.446z"/>
	<path fill="#B7B7B7" d="M213.062,110.448c0-0.1,0.09-0.19,0.19-0.19h0.309c0.101,0,0.19,0.09,0.19,0.19v4.328l1.699-1.399
		c0.08-0.07,0.159-0.12,0.239-0.12h0.54c0.17,0,0.16,0.19,0.091,0.25l-1.9,1.519l2.209,1.979c0.08,0.07,0.07,0.25-0.1,0.25h-0.549
		c-0.091,0-0.16-0.05-0.201-0.08l-2.028-1.929v1.819c0,0.1-0.09,0.19-0.19,0.19h-0.309c-0.101,0-0.19-0.09-0.19-0.19V110.448z"/>
	<path fill="#B7B7B7" d="M217.531,113.726c0-0.32,0.26-0.57,0.57-0.57c0.319,0,0.569,0.25,0.569,0.57c0,0.31-0.25,0.569-0.569,0.569
		C217.791,114.295,217.531,114.036,217.531,113.726z M218.102,116.214c0.319,0,0.569,0.25,0.569,0.57c0,0.31-0.25,0.57-0.569,0.57
		c-0.311,0-0.57-0.26-0.57-0.57C217.531,116.464,217.791,116.214,218.102,116.214z"/>
	<path fill="#878787" d="M222.121,116.205c0.16-0.19,0.29-0.46,0.5-0.28c0.061,0.06,0.649,0.629,1.419,0.739v-2.599
		c-1.06-0.419-1.749-0.869-1.879-1.769c-0.021-0.11-0.021-0.23-0.021-0.36c0-0.64,0.53-1.659,1.899-1.769v-0.32
		c0-0.11,0.091-0.19,0.19-0.19h0.07c0.1,0,0.18,0.08,0.18,0.19v0.32c0.869,0.07,1.498,0.5,1.498,0.5
		c0.061,0.03,0.181,0.15,0.061,0.34c-0.17,0.26-0.23,0.42-0.47,0.28c-0.06-0.03-0.56-0.36-1.089-0.439l-0.01,2.588
		c1.209,0.52,1.979,1.029,1.979,2.119c0,0.99-0.92,1.719-1.979,1.789v1.04c0,0.12-0.111,0.18-0.221,0.18c-0.1,0-0.21-0.06-0.21-0.18
		v-1.04c-1.05-0.09-1.739-0.689-1.858-0.799C222.102,116.474,222.002,116.395,222.121,116.205z M224.04,110.837
		c-0.849,0.09-1.159,0.7-1.159,1.089c0,0.62,0.43,1,1.159,1.329V110.837z M225.649,115.585c0-0.56-0.399-0.939-1.179-1.319v2.409
		C225.14,116.614,225.649,116.135,225.649,115.585z"/>
	<path fill="#878787" d="M227.32,116.225l0.271-0.23c0.11-0.08,0.19-0.06,0.271,0.05c0.09,0.11,0.629,0.69,1.488,0.69
		c0.76,0,1.439-0.46,1.439-1.25c0-0.68-0.529-1.309-1.77-1.309h-0.559c-0.11,0-0.19-0.06-0.19-0.22v-0.24
		c0-0.16,0.05-0.22,0.21-0.22h0.55c1.069,0,1.589-0.55,1.589-1.209c0-0.79-0.6-1.269-1.309-1.269c-0.68,0-1.09,0.399-1.311,0.649
		c-0.059,0.07-0.159,0.11-0.26,0.02l-0.239-0.19c-0.08-0.07-0.069-0.19,0-0.26c0,0,0.72-0.879,1.81-0.879
		c1.209,0,2.059,0.709,2.059,1.829c0,0.77-0.58,1.37-1.029,1.579v0.03c0.469,0.2,1.199,0.759,1.199,1.619
		c0,1.089-0.84,1.939-2.219,1.939c-1.229,0-1.789-0.64-2.01-0.89C227.251,116.395,227.241,116.285,227.32,116.225z"/>
	<path fill="#878787" d="M233.281,116.214c0.318,0,0.658,0.18,0.658,0.899c0,0.83-0.52,1.549-0.839,1.849
		c-0.101,0.09-0.18,0.08-0.239,0.02l-0.141-0.14c-0.05-0.05-0.04-0.15,0.061-0.24c0.1-0.09,0.619-0.53,0.619-1.259
		c-0.04,0.01-0.08,0.01-0.119,0.01c-0.311,0-0.57-0.26-0.57-0.57C232.711,116.464,232.971,116.214,233.281,116.214z"/>
	<path fill="#878787" d="M234.971,116.225l0.27-0.23c0.11-0.08,0.19-0.06,0.271,0.05c0.09,0.11,0.63,0.69,1.489,0.69
		c0.76,0,1.439-0.46,1.439-1.25c0-0.68-0.53-1.309-1.77-1.309h-0.56c-0.11,0-0.19-0.06-0.19-0.22v-0.24
		c0-0.16,0.051-0.22,0.211-0.22h0.549c1.07,0,1.59-0.55,1.59-1.209c0-0.79-0.6-1.269-1.31-1.269c-0.68,0-1.089,0.399-1.31,0.649
		c-0.06,0.07-0.16,0.11-0.26,0.02l-0.24-0.19c-0.08-0.07-0.069-0.19,0-0.26c0,0,0.721-0.879,1.81-0.879
		c1.21,0,2.059,0.709,2.059,1.829c0,0.77-0.579,1.37-1.029,1.579v0.03c0.47,0.2,1.199,0.759,1.199,1.619
		c0,1.089-0.839,1.939-2.219,1.939c-1.229,0-1.789-0.64-2.009-0.89C234.9,116.395,234.891,116.285,234.971,116.225z"/>
	<path fill="#878787" d="M240.461,116.185c0.08-0.07,0.15-0.15,0.229-0.22c0.09-0.08,0.17-0.1,0.25,0.01
		c0.101,0.14,0.579,0.74,1.479,0.74c0.959,0,1.568-0.85,1.568-1.639c0-0.78-0.5-1.439-1.568-1.439h-1.52
		c-0.199,0-0.31-0.19-0.31-0.35v-2.639c0-0.1,0.079-0.19,0.189-0.19h3.019c0.109,0,0.189,0.09,0.189,0.19v0.29
		c0,0.1-0.08,0.19-0.189,0.19h-2.539v1.839h1.16c1.509,0,2.309,0.79,2.309,2.099c0,1.25-0.97,2.289-2.318,2.289
		c-1.109,0-1.68-0.53-1.93-0.83C240.351,116.375,240.341,116.304,240.461,116.185z"/>
	<path fill="#878787" d="M245.871,113.856c0-2.189,0.879-3.498,2.428-3.498c1.55,0,2.43,1.309,2.43,3.498
		c0,2.188-0.88,3.498-2.43,3.498C246.75,117.354,245.871,116.044,245.871,113.856z M250.019,113.856c0-1.809-0.62-2.849-1.72-2.849
		c-1.099,0-1.719,1.04-1.719,2.849c0,1.829,0.62,2.848,1.719,2.848C249.398,116.704,250.019,115.685,250.019,113.856z"/>
	<path fill="#B7B7B7" d="M198.295,124.625h-2.262c-0.143,0-0.247-0.117-0.247-0.247V124c0-0.13,0.104-0.247,0.247-0.247h5.512
		c0.144,0,0.248,0.117,0.248,0.247v0.377c0,0.13-0.104,0.247-0.248,0.247h-2.262v7.982c0,0.13-0.117,0.247-0.247,0.247h-0.493
		c-0.131,0-0.248-0.117-0.248-0.247V124.625z"/>
	<path fill="#B7B7B7" d="M204.119,127.524c1.443,0,2.588,1.248,2.588,2.717c0,1.495-1.145,2.743-2.588,2.743
		s-2.587-1.248-2.587-2.743C201.532,128.772,202.676,127.524,204.119,127.524z M204.119,132.139c0.949,0,1.69-0.845,1.69-1.898
		c0-1.027-0.741-1.859-1.69-1.859s-1.689,0.832-1.689,1.859C202.43,131.294,203.17,132.139,204.119,132.139z"/>
	<path fill="#B7B7B7" d="M208.514,128.434h-0.663c-0.144,0-0.247-0.117-0.247-0.247v-0.286c0-0.143,0.104-0.247,0.247-0.247h0.663
		v-1.443c0-0.13,0.117-0.247,0.246-0.247l0.416-0.026c0.131,0,0.234,0.117,0.234,0.247v1.469h1.508c0.144,0,0.248,0.104,0.248,0.247
		v0.286c0,0.13-0.104,0.247-0.248,0.247h-1.508v3.042c0,0.52,0.131,0.624,0.43,0.624c0.324,0,0.779-0.195,0.949-0.286
		c0.194-0.104,0.246-0.026,0.312,0.078l0.194,0.325c0.092,0.156,0.053,0.234-0.09,0.325c-0.183,0.117-0.885,0.442-1.496,0.442
		c-1.039,0-1.195-0.624-1.195-1.43V128.434z"/>
	<path fill="#B7B7B7" d="M214.324,129.552c0.559,0,1.105,0.169,1.105,0.169c0.013-0.962-0.104-1.404-0.846-1.404
		c-0.715,0-1.326,0.195-1.56,0.286c-0.13,0.052-0.208-0.013-0.247-0.13l-0.104-0.325c-0.053-0.156,0.025-0.234,0.143-0.286
		c0.078-0.039,0.832-0.338,1.807-0.338c1.326,0,1.651,0.676,1.651,2.197v2.886c0,0.13-0.117,0.247-0.247,0.247h-0.247
		c-0.144,0-0.183-0.078-0.221-0.195l-0.104-0.351c-0.273,0.273-0.806,0.676-1.611,0.676c-0.91,0-1.6-0.663-1.6-1.703
		C212.244,130.293,212.985,129.552,214.324,129.552z M213.986,132.204c0.65,0,1.209-0.403,1.43-0.728v-1.027
		c-0.156-0.091-0.52-0.208-1.092-0.208c-0.729,0-1.248,0.364-1.248,1.04C213.076,131.801,213.428,132.204,213.986,132.204z"/>
	<path fill="#B7B7B7" d="M218.094,124c0-0.13,0.117-0.247,0.248-0.247h0.402c0.131,0,0.247,0.117,0.247,0.247v8.606
		c0,0.13-0.116,0.247-0.247,0.247h-0.402c-0.131,0-0.248-0.117-0.248-0.247V124z"/>
	<path fill="#B7B7B7" d="M220.85,128.265c0-0.416,0.339-0.741,0.742-0.741c0.416,0,0.74,0.325,0.74,0.741
		c0,0.403-0.324,0.741-0.74,0.741C221.188,129.006,220.85,128.668,220.85,128.265z M221.592,131.502c0.416,0,0.74,0.325,0.74,0.741
		c0,0.403-0.324,0.741-0.74,0.741c-0.403,0-0.742-0.338-0.742-0.741C220.85,131.827,221.188,131.502,221.592,131.502z"/>
	<path fill="#878787" d="M226.816,131.489c0.209-0.247,0.378-0.598,0.65-0.364c0.078,0.078,0.846,0.819,1.846,0.962v-3.38
		c-1.377-0.546-2.274-1.131-2.443-2.301c-0.025-0.143-0.025-0.299-0.025-0.468c0-0.832,0.688-2.158,2.469-2.301v-0.416
		c0-0.143,0.117-0.247,0.248-0.247h0.091c0.13,0,0.233,0.104,0.233,0.247v0.416c1.131,0.091,1.951,0.65,1.951,0.65
		c0.078,0.039,0.233,0.195,0.078,0.442c-0.222,0.338-0.3,0.546-0.611,0.364c-0.078-0.039-0.729-0.468-1.418-0.572l-0.013,3.367
		c1.573,0.676,2.574,1.339,2.574,2.756c0,1.287-1.196,2.236-2.574,2.327v1.352c0,0.156-0.144,0.234-0.286,0.234
		c-0.13,0-0.273-0.078-0.273-0.234v-1.352c-1.364-0.117-2.262-0.897-2.418-1.04C226.791,131.84,226.661,131.736,226.816,131.489z
		 M229.312,124.508c-1.104,0.117-1.508,0.91-1.508,1.417c0,0.806,0.56,1.3,1.508,1.729V124.508z M231.406,130.683
		c0-0.728-0.52-1.222-1.534-1.716v3.133C230.743,132.022,231.406,131.398,231.406,130.683z"/>
	<path fill="#878787" d="M233.799,131.463c0.104-0.091,0.194-0.195,0.299-0.286c0.117-0.104,0.221-0.13,0.324,0.013
		c0.131,0.182,0.754,0.962,1.924,0.962c1.248,0,2.041-1.105,2.041-2.132c0-1.014-0.649-1.872-2.041-1.872h-1.976
		c-0.26,0-0.403-0.247-0.403-0.455v-3.432c0-0.13,0.104-0.247,0.248-0.247h3.926c0.143,0,0.246,0.117,0.246,0.247v0.377
		c0,0.13-0.104,0.247-0.246,0.247h-3.303v2.392h1.508c1.963,0,3.004,1.027,3.004,2.73c0,1.625-1.262,2.977-3.016,2.977
		c-1.443,0-2.186-0.689-2.51-1.079C233.655,131.71,233.643,131.619,233.799,131.463z"/>
	<path fill="#878787" d="M240.428,132.217c1.066-1.144,2.119-2.301,3.186-3.445c0.884-0.962,1.312-1.742,1.312-2.353
		c0-0.741-0.48-1.651-1.82-1.651c-0.806,0-1.442,0.546-1.846,0.975c-0.104,0.104-0.247,0.104-0.352,0l-0.26-0.247
		c-0.078-0.091-0.104-0.234-0.013-0.338c0,0,0.923-1.274,2.47-1.274c1.859,0,2.809,1.183,2.809,2.509
		c0,1.144-0.729,1.989-1.625,2.951c-0.832,0.884-1.664,1.781-2.496,2.665h3.822c0.13,0,0.246,0.117,0.246,0.247v0.351
		c0,0.13-0.116,0.247-0.246,0.247h-4.94c-0.144,0-0.247-0.117-0.247-0.247V132.217z"/>
	<path fill="#878787" d="M248.085,131.502c0.416,0,0.858,0.234,0.858,1.17c0,1.079-0.676,2.015-1.092,2.405
		c-0.131,0.117-0.234,0.104-0.312,0.026l-0.182-0.182c-0.065-0.065-0.053-0.195,0.078-0.312c0.129-0.117,0.805-0.689,0.805-1.638
		c-0.051,0.013-0.104,0.013-0.155,0.013c-0.403,0-0.741-0.338-0.741-0.741C247.344,131.827,247.682,131.502,248.085,131.502z"/>
	<path fill="#878787" d="M251.27,125.626l-0.936,0.728c-0.104,0.078-0.209,0.091-0.299-0.013l-0.248-0.273
		c-0.09-0.104-0.039-0.221,0.026-0.286l1.82-1.768h0.351c0.131,0,0.234,0.117,0.234,0.247v8.346c0,0.13-0.104,0.247-0.234,0.247
		h-0.468c-0.144,0-0.247-0.117-0.247-0.247V125.626z"/>
	<path fill="#878787" d="M255.508,125.626l-0.937,0.728c-0.104,0.078-0.208,0.091-0.299-0.013l-0.247-0.273
		c-0.092-0.104-0.039-0.221,0.025-0.286l1.82-1.768h0.352c0.13,0,0.234,0.117,0.234,0.247v8.346c0,0.13-0.104,0.247-0.234,0.247
		h-0.469c-0.143,0-0.246-0.117-0.246-0.247V125.626z"/>
	<path fill="#878787" d="M262.774,123.715c0.13-0.052,0.233,0.013,0.286,0.13l0.143,0.312c0.064,0.156,0.014,0.299-0.234,0.377
		c-0.584,0.195-2.886,1.482-3.34,3.237c0,0,0.857-0.585,1.975-0.585c1.47,0,2.796,1.092,2.796,2.821
		c0,1.638-1.313,2.977-2.873,2.977c-2.106,0-3.029-1.638-3.029-3.705C258.497,125.821,261.461,124.235,262.774,123.715z
		 M263.477,130.059c0-1.131-0.871-2.028-1.963-2.028c-1.209,0-2.055,0.845-2.055,0.845c-0.221,1.3,0.286,3.25,2.067,3.25
		C262.618,132.126,263.477,131.177,263.477,130.059z"/>
	<path fill="#B7B7B7" d="M196.701,137.938c0-0.1,0.09-0.18,0.19-0.18h0.249l4.508,5.617c0.01,0,0.01,0,0.021,0v-5.327
		c0-0.1,0.08-0.19,0.19-0.19h0.35c0.1,0,0.189,0.09,0.189,0.19v6.726c0,0.1-0.09,0.18-0.189,0.18h-0.18l-4.588-5.727h-0.01v5.437
		c0,0.1-0.08,0.19-0.19,0.19h-0.35c-0.101,0-0.19-0.09-0.19-0.19V137.938z"/>
	<path fill="#B7B7B7" d="M203.932,141.046c0-0.1,0.09-0.189,0.189-0.189h0.32c0.1,0,0.189,0.09,0.189,0.189v2.109
		c0,0.76,0.34,1.129,0.9,1.129c0.76,0,1.189-0.569,1.189-0.569c0-0.22,0-0.45,0-2.669c0-0.1,0.09-0.189,0.189-0.189h0.31
		c0.101,0,0.19,0.09,0.19,0.189v3.618c0,0.1-0.09,0.19-0.19,0.19h-0.19c-0.109,0-0.149-0.07-0.18-0.17l-0.069-0.26
		c0,0-0.47,0.53-1.3,0.53c-1.159,0-1.549-0.75-1.549-1.809V141.046z"/>
	<path fill="#B7B7B7" d="M208.832,141.046c0-0.1,0.09-0.189,0.189-0.189h0.189c0.09,0,0.141,0.04,0.16,0.12l0.09,0.31
		c0,0,0.471-0.53,1.3-0.53c0.589,0,1.02,0.23,1.279,0.649c0.05-0.04,0.689-0.649,1.489-0.649c1.159,0,1.549,0.759,1.549,1.799v2.109
		c0,0.1-0.09,0.19-0.189,0.19h-0.32c-0.1,0-0.189-0.09-0.189-0.19v-2.109c0-0.75-0.32-1.129-0.9-1.129
		c-0.648,0-1.078,0.43-1.219,0.56c0.029,0.17,0.05,0.36,0.05,0.57v2.109c0,0.1-0.09,0.19-0.19,0.19h-0.318
		c-0.101,0-0.19-0.09-0.19-0.19v-2.109c0-0.759-0.34-1.129-0.95-1.129c-0.709,0-1.139,0.57-1.139,0.57v2.668
		c0,0.1-0.09,0.19-0.189,0.19h-0.311c-0.1,0-0.189-0.09-0.189-0.19V141.046z"/>
	<path fill="#B7B7B7" d="M216.462,138.048c0-0.1,0.09-0.19,0.19-0.19h0.309c0.101,0,0.19,0.09,0.19,0.19v2.968
		c0,0,0.409-0.26,1.069-0.26c1.199,0,1.919,0.919,1.919,2.089c0,1.149-0.8,2.109-1.819,2.109c-0.749,0-1.229-0.53-1.229-0.53
		l-0.061,0.27c-0.02,0.09-0.08,0.16-0.17,0.16h-0.209c-0.101,0-0.19-0.09-0.19-0.19V138.048z M218.251,144.324
		c0.729,0,1.188-0.689,1.188-1.469c0-0.799-0.439-1.429-1.309-1.429c-0.55,0-0.969,0.24-0.969,0.24v1.999
		C217.162,143.665,217.531,144.324,218.251,144.324z"/>
	<path fill="#B7B7B7" d="M222.941,140.756c1.049,0,1.809,0.779,1.809,1.829c0,0.07-0.01,0.2-0.021,0.27
		c-0.01,0.1-0.09,0.17-0.18,0.17h-2.878c0.039,0.67,0.629,1.299,1.339,1.299c0.42,0,0.759-0.16,0.989-0.3
		c0.141-0.08,0.2-0.13,0.279-0.02c0.061,0.08,0.111,0.15,0.17,0.23c0.07,0.09,0.111,0.15-0.039,0.26
		c-0.24,0.19-0.779,0.46-1.469,0.46c-1.21,0-1.959-0.95-1.959-2.099C220.982,141.726,221.731,140.756,222.941,140.756z
		 M224.061,142.465c-0.03-0.58-0.51-1.1-1.119-1.1c-0.67,0-1.189,0.48-1.26,1.1H224.061z"/>
	<path fill="#B7B7B7" d="M225.842,141.046c0-0.1,0.09-0.189,0.189-0.189h0.189c0.08,0,0.15,0.05,0.17,0.14l0.08,0.29
		c0,0,0.37-0.53,1.199-0.53c0.301,0,0.801,0.05,0.7,0.33l-0.12,0.34c-0.05,0.13-0.14,0.13-0.24,0.09
		c-0.09-0.04-0.239-0.08-0.389-0.08c-0.76,0-1.09,0.56-1.09,0.56v2.668c0,0.1-0.09,0.19-0.189,0.19h-0.311
		c-0.1,0-0.189-0.09-0.189-0.19V141.046z"/>
	<path fill="#B7B7B7" d="M233.1,140.756c1.109,0,1.989,0.959,1.989,2.089c0,1.149-0.88,2.109-1.989,2.109s-1.988-0.959-1.988-2.109
		C231.111,141.716,231.99,140.756,233.1,140.756z M233.1,144.304c0.73,0,1.3-0.649,1.3-1.459c0-0.79-0.569-1.429-1.3-1.429
		c-0.729,0-1.299,0.64-1.299,1.429C231.801,143.655,232.371,144.304,233.1,144.304z"/>
	<path fill="#B7B7B7" d="M236.541,141.456h-0.609c-0.11,0-0.19-0.09-0.19-0.19v-0.22c0-0.11,0.08-0.189,0.19-0.189h0.609v-1.399
		c0-1.159,0.67-1.699,1.529-1.699c0.549,0,0.919,0.24,1.1,0.41c0.069,0.06,0.079,0.16,0.039,0.23l-0.16,0.26
		c-0.06,0.1-0.16,0.09-0.26,0.01c-0.129-0.1-0.43-0.29-0.729-0.29c-0.461,0-0.83,0.31-0.83,1.08v1.399h1.159
		c0.11,0,0.19,0.08,0.19,0.189v0.22c0,0.1-0.08,0.19-0.19,0.19h-1.159v3.208c0,0.1-0.09,0.19-0.189,0.19h-0.311
		c-0.1,0-0.189-0.09-0.189-0.19V141.456z"/>
	<path fill="#B7B7B7" d="M241.4,144.294c0.04-0.06,0.109-0.2,0.141-0.25c0.049-0.08,0.159-0.1,0.27-0.03c0,0,0.43,0.35,0.939,0.35
		c0.41,0,0.649-0.21,0.649-0.479c0-0.35-0.3-0.51-0.88-0.8c-0.529-0.26-1.139-0.61-1.139-1.289c0-0.42,0.34-1.04,1.27-1.04
		c0.52,0,0.919,0.18,1.109,0.31c0.09,0.06,0.119,0.2,0.059,0.31l-0.079,0.16c-0.06,0.11-0.2,0.14-0.29,0.09
		c0,0-0.43-0.24-0.799-0.24c-0.45,0-0.57,0.23-0.57,0.4c0,0.33,0.33,0.48,0.74,0.68c0.689,0.33,1.309,0.64,1.309,1.359
		c0,0.58-0.56,1.129-1.379,1.129c-0.67,0-1.08-0.28-1.3-0.45C241.4,144.464,241.371,144.364,241.4,144.294z"/>
	<path fill="#B7B7B7" d="M245.46,141.456h-0.509c-0.111,0-0.19-0.09-0.19-0.19v-0.22c0-0.11,0.079-0.189,0.19-0.189h0.509v-1.11
		c0-0.1,0.091-0.189,0.19-0.189l0.319-0.02c0.101,0,0.181,0.09,0.181,0.19v1.129h1.158c0.11,0,0.19,0.08,0.19,0.189v0.22
		c0,0.1-0.08,0.19-0.19,0.19h-1.158v2.338c0,0.4,0.1,0.48,0.329,0.48c0.25,0,0.6-0.15,0.729-0.22c0.15-0.08,0.189-0.02,0.24,0.06
		l0.15,0.25c0.069,0.12,0.039,0.18-0.07,0.25c-0.141,0.09-0.68,0.34-1.149,0.34c-0.8,0-0.92-0.48-0.92-1.1V141.456z"/>
	<path fill="#B7B7B7" d="M248.57,141.046c0-0.1,0.09-0.189,0.189-0.189h0.32c0.1,0,0.189,0.09,0.189,0.189v2.109
		c0,0.76,0.34,1.129,0.9,1.129c0.76,0,1.189-0.569,1.189-0.569c0-0.22,0-0.45,0-2.669c0-0.1,0.09-0.189,0.189-0.189h0.31
		c0.101,0,0.19,0.09,0.19,0.189v3.618c0,0.1-0.09,0.19-0.19,0.19h-0.19c-0.109,0-0.149-0.07-0.18-0.17l-0.069-0.26
		c0,0-0.47,0.53-1.3,0.53c-1.159,0-1.549-0.75-1.549-1.809V141.046z"/>
	<path fill="#B7B7B7" d="M255.1,140.756c0.66,0,1.069,0.26,1.069,0.26v-2.968c0-0.1,0.09-0.19,0.19-0.19h0.309
		c0.101,0,0.19,0.09,0.19,0.19v6.616c0,0.1-0.09,0.19-0.19,0.19h-0.209c-0.09,0-0.15-0.07-0.17-0.16l-0.061-0.27
		c0,0-0.479,0.53-1.229,0.53c-1.02,0-1.819-0.959-1.819-2.109C253.181,141.676,253.9,140.756,255.1,140.756z M255.069,144.324
		c0.72,0,1.089-0.66,1.089-0.66v-1.999c0,0-0.419-0.24-0.969-0.24c-0.869,0-1.309,0.63-1.309,1.429
		C253.881,143.635,254.34,144.324,255.069,144.324z"/>
	<path fill="#B7B7B7" d="M259.959,140.756c1.05,0,1.809,0.779,1.809,1.829c0,0.07-0.01,0.2-0.02,0.27c-0.01,0.1-0.09,0.17-0.18,0.17
		h-2.879c0.041,0.67,0.631,1.299,1.34,1.299c0.42,0,0.76-0.16,0.989-0.3c0.14-0.08,0.2-0.13,0.28-0.02
		c0.06,0.08,0.109,0.15,0.17,0.23c0.07,0.09,0.109,0.15-0.041,0.26c-0.239,0.19-0.779,0.46-1.469,0.46
		c-1.209,0-1.959-0.95-1.959-2.099C258,141.726,258.75,140.756,259.959,140.756z M261.078,142.465c-0.029-0.58-0.51-1.1-1.119-1.1
		c-0.67,0-1.189,0.48-1.26,1.1H261.078z"/>
	<path fill="#B7B7B7" d="M262.859,141.046c0-0.1,0.09-0.189,0.19-0.189h0.19c0.09,0,0.14,0.04,0.16,0.12l0.09,0.31
		c0,0,0.569-0.53,1.398-0.53c1.16,0,1.549,0.759,1.549,1.799v2.109c0,0.1-0.09,0.19-0.189,0.19h-0.32c-0.1,0-0.189-0.09-0.189-0.19
		v-2.109c0-0.759-0.34-1.129-0.899-1.129c-0.749,0-1.289,0.57-1.289,0.57v2.668c0,0.1-0.091,0.19-0.19,0.19h-0.31
		c-0.101,0-0.19-0.09-0.19-0.19V141.046z"/>
	<path fill="#B7B7B7" d="M268.07,141.456h-0.51c-0.11,0-0.189-0.09-0.189-0.19v-0.22c0-0.11,0.079-0.189,0.189-0.189h0.51v-1.11
		c0-0.1,0.09-0.189,0.189-0.189l0.32-0.02c0.1,0,0.18,0.09,0.18,0.19v1.129h1.159c0.11,0,0.19,0.08,0.19,0.189v0.22
		c0,0.1-0.08,0.19-0.19,0.19h-1.159v2.338c0,0.4,0.1,0.48,0.33,0.48c0.25,0,0.6-0.15,0.729-0.22c0.15-0.08,0.19-0.02,0.24,0.06
		l0.15,0.25c0.07,0.12,0.04,0.18-0.07,0.25c-0.14,0.09-0.68,0.34-1.148,0.34c-0.801,0-0.92-0.48-0.92-1.1V141.456z"/>
	<path fill="#B7B7B7" d="M270.99,144.294c0.04-0.06,0.109-0.2,0.141-0.25c0.049-0.08,0.159-0.1,0.27-0.03c0,0,0.43,0.35,0.939,0.35
		c0.41,0,0.649-0.21,0.649-0.479c0-0.35-0.3-0.51-0.88-0.8c-0.529-0.26-1.139-0.61-1.139-1.289c0-0.42,0.34-1.04,1.27-1.04
		c0.52,0,0.919,0.18,1.109,0.31c0.09,0.06,0.119,0.2,0.059,0.31l-0.079,0.16c-0.06,0.11-0.2,0.14-0.29,0.09
		c0,0-0.43-0.24-0.799-0.24c-0.45,0-0.57,0.23-0.57,0.4c0,0.33,0.33,0.48,0.74,0.68c0.689,0.33,1.309,0.64,1.309,1.359
		c0,0.58-0.56,1.129-1.379,1.129c-0.67,0-1.08-0.28-1.3-0.45C270.99,144.464,270.961,144.364,270.99,144.294z"/>
	<path fill="#B7B7B7" d="M277.01,141.046c0-0.1,0.09-0.189,0.189-0.189h0.19c0.08,0,0.149,0.05,0.17,0.14l0.08,0.29
		c0,0,0.37-0.53,1.199-0.53c0.3,0,0.8,0.05,0.7,0.33l-0.121,0.34c-0.049,0.13-0.139,0.13-0.239,0.09
		c-0.09-0.04-0.239-0.08-0.39-0.08c-0.76,0-1.09,0.56-1.09,0.56v2.668c0,0.1-0.09,0.19-0.189,0.19h-0.311
		c-0.1,0-0.189-0.09-0.189-0.19V141.046z"/>
	<path fill="#B7B7B7" d="M281.988,140.756c1.051,0,1.811,0.779,1.811,1.829c0,0.07-0.012,0.2-0.021,0.27
		c-0.01,0.1-0.09,0.17-0.18,0.17h-2.877c0.039,0.67,0.629,1.299,1.338,1.299c0.42,0,0.76-0.16,0.99-0.3
		c0.139-0.08,0.199-0.13,0.279-0.02c0.061,0.08,0.109,0.15,0.17,0.23c0.07,0.09,0.109,0.15-0.039,0.26
		c-0.24,0.19-0.781,0.46-1.471,0.46c-1.209,0-1.958-0.95-1.958-2.099C280.03,141.726,280.779,140.756,281.988,140.756z
		 M283.109,142.465c-0.031-0.58-0.51-1.1-1.121-1.1c-0.668,0-1.189,0.48-1.258,1.1H283.109z"/>
	<path fill="#B7B7B7" d="M286.648,140.756c0.6,0,1.07,0.24,1.43,0.7c0.07,0.09,0.051,0.209-0.041,0.28l-0.189,0.16
		c-0.15,0.14-0.199,0.04-0.289-0.04c-0.199-0.229-0.529-0.419-0.92-0.419c-0.75,0-1.33,0.62-1.33,1.419c0,0.8,0.57,1.439,1.32,1.439
		c0.6,0,0.83-0.3,1.059-0.52c0.121-0.12,0.191-0.1,0.301-0.02l0.109,0.08c0.1,0.07,0.131,0.18,0.07,0.28
		c-0.301,0.48-0.85,0.84-1.529,0.84c-1.109,0-2.049-0.89-2.049-2.089C284.59,141.686,285.559,140.756,286.648,140.756z"/>
	<path fill="#B7B7B7" d="M289.16,138.538c0-0.27,0.209-0.48,0.469-0.48c0.271,0,0.48,0.21,0.48,0.48c0,0.26-0.209,0.47-0.48,0.47
		C289.369,139.007,289.16,138.797,289.16,138.538z M289.301,141.046c0-0.1,0.09-0.189,0.189-0.189h0.309
		c0.102,0,0.191,0.09,0.191,0.189v3.618c0,0.1-0.09,0.19-0.191,0.19h-0.309c-0.1,0-0.189-0.09-0.189-0.19V141.046z"/>
	<path fill="#B7B7B7" d="M293.08,140.756c1.049,0,1.809,0.779,1.809,1.829c0,0.07-0.01,0.2-0.02,0.27
		c-0.012,0.1-0.09,0.17-0.18,0.17h-2.879c0.039,0.67,0.629,1.299,1.338,1.299c0.42,0,0.76-0.16,0.99-0.3
		c0.141-0.08,0.199-0.13,0.279-0.02c0.061,0.08,0.111,0.15,0.17,0.23c0.07,0.09,0.111,0.15-0.039,0.26
		c-0.24,0.19-0.779,0.46-1.469,0.46c-1.211,0-1.959-0.95-1.959-2.099C291.121,141.726,291.869,140.756,293.08,140.756z
		 M294.199,142.465c-0.031-0.58-0.51-1.1-1.119-1.1c-0.67,0-1.189,0.48-1.26,1.1H294.199z"/>
	<path fill="#B7B7B7" d="M295.432,141.086c-0.061-0.13,0-0.229,0.148-0.229h0.311c0.09,0,0.15,0.05,0.18,0.11l1.24,2.858h0.01
		l1.318-2.858c0.031-0.06,0.09-0.11,0.17-0.11h0.26c0.15,0,0.211,0.1,0.15,0.229l-1.709,3.768c-0.02,0.05-0.08,0.1-0.17,0.1h-0.051
		c-0.09,0-0.148-0.05-0.17-0.1L295.432,141.086z"/>
	<path fill="#B7B7B7" d="M299.951,138.538c0-0.27,0.209-0.48,0.469-0.48c0.271,0,0.48,0.21,0.48,0.48c0,0.26-0.209,0.47-0.48,0.47
		C300.16,139.007,299.951,138.797,299.951,138.538z M300.092,141.046c0-0.1,0.09-0.189,0.189-0.189h0.309
		c0.102,0,0.191,0.09,0.191,0.189v3.618c0,0.1-0.09,0.19-0.191,0.19h-0.309c-0.1,0-0.189-0.09-0.189-0.19V141.046z"/>
	<path fill="#B7B7B7" d="M302.201,141.046c0-0.1,0.09-0.189,0.189-0.189h0.191c0.09,0,0.139,0.04,0.158,0.12l0.09,0.31
		c0,0,0.57-0.53,1.4-0.53c1.158,0,1.549,0.759,1.549,1.799v2.109c0,0.1-0.09,0.19-0.189,0.19h-0.32c-0.1,0-0.189-0.09-0.189-0.19
		v-2.109c0-0.759-0.34-1.129-0.9-1.129c-0.75,0-1.289,0.57-1.289,0.57v2.668c0,0.1-0.09,0.19-0.189,0.19h-0.311
		c-0.1,0-0.189-0.09-0.189-0.19V141.046z"/>
	<path fill="#B7B7B7" d="M307.422,143.515c0,0-0.32-0.41-0.32-1c0-0.929,0.65-1.759,1.689-1.759h1.689
		c0.109,0,0.189,0.08,0.189,0.19v0.17c0,0.07-0.041,0.16-0.109,0.17l-0.541,0.11c0,0,0.449,0.33,0.449,1.119
		c0,0.91-0.648,1.699-1.678,1.699c-0.641,0-0.949-0.25-0.949-0.25s-0.441,0.2-0.441,0.6c0,0.25,0.182,0.49,0.551,0.49h1.439
		c0.84,0,1.498,0.41,1.498,1.279c0,0.83-0.859,1.619-2.068,1.619c-1.34,0-1.918-0.719-1.918-1.379c0-0.6,0.479-0.87,0.578-0.93
		v-0.03c-0.26-0.07-0.729-0.33-0.729-0.95C306.752,143.904,307.422,143.515,307.422,143.515z M308.811,147.303
		c0.66,0,1.34-0.37,1.34-0.95c0-0.13-0.061-0.649-0.76-0.649c-0.371,0-0.74,0-1.109,0c0,0-0.67,0.18-0.67,0.77
		C307.611,146.953,308.131,147.303,308.811,147.303z M309.801,142.495c0-0.66-0.4-1.119-1-1.119c-0.609,0-1.049,0.459-1.049,1.119
		s0.439,1.12,1.049,1.12C309.4,143.615,309.801,143.155,309.801,142.495z"/>
	<path fill="#B7B7B7" d="M315.27,142.315c0.43,0,0.85,0.13,0.85,0.13c0.01-0.74-0.08-1.08-0.648-1.08c-0.551,0-1.02,0.15-1.199,0.22
		c-0.1,0.04-0.16-0.01-0.191-0.1l-0.078-0.25c-0.041-0.12,0.02-0.18,0.109-0.22c0.061-0.03,0.639-0.26,1.389-0.26
		c1.02,0,1.27,0.52,1.27,1.689v2.219c0,0.1-0.09,0.19-0.189,0.19h-0.189c-0.111,0-0.141-0.06-0.17-0.15l-0.08-0.27
		c-0.211,0.21-0.621,0.52-1.24,0.52c-0.699,0-1.229-0.51-1.229-1.31C313.672,142.885,314.24,142.315,315.27,142.315z
		 M315.01,144.354c0.5,0,0.93-0.31,1.1-0.56v-0.79c-0.119-0.07-0.398-0.16-0.84-0.16c-0.559,0-0.959,0.28-0.959,0.799
		C314.311,144.044,314.58,144.354,315.01,144.354z"/>
	<path fill="#B7B7B7" d="M318.021,138.538c0-0.27,0.209-0.48,0.469-0.48c0.271,0,0.48,0.21,0.48,0.48c0,0.26-0.209,0.47-0.48,0.47
		C318.23,139.007,318.021,138.797,318.021,138.538z M318.162,141.046c0-0.1,0.09-0.189,0.189-0.189h0.309
		c0.102,0,0.191,0.09,0.191,0.189v3.618c0,0.1-0.09,0.19-0.191,0.19h-0.309c-0.1,0-0.189-0.09-0.189-0.19V141.046z"/>
	<path fill="#B7B7B7" d="M321.9,140.756c0.66,0,1.07,0.26,1.07,0.26v-2.968c0-0.1,0.09-0.19,0.189-0.19h0.311
		c0.1,0,0.189,0.09,0.189,0.19v6.616c0,0.1-0.09,0.19-0.189,0.19h-0.211c-0.09,0-0.15-0.07-0.17-0.16l-0.061-0.27
		c0,0-0.479,0.53-1.229,0.53c-1.02,0-1.818-0.959-1.818-2.109C319.982,141.676,320.701,140.756,321.9,140.756z M321.871,144.324
		c0.719,0,1.09-0.66,1.09-0.66v-1.999c0,0-0.42-0.24-0.971-0.24c-0.869,0-1.309,0.63-1.309,1.429
		C320.682,143.635,321.141,144.324,321.871,144.324z"/>
	<path fill="#B7B7B7" d="M325.092,141.326c0-0.32,0.26-0.57,0.57-0.57c0.318,0,0.568,0.25,0.568,0.57c0,0.31-0.25,0.569-0.568,0.569
		C325.352,141.896,325.092,141.636,325.092,141.326z M325.662,143.814c0.318,0,0.568,0.25,0.568,0.57c0,0.31-0.25,0.57-0.568,0.57
		c-0.311,0-0.57-0.26-0.57-0.57C325.092,144.064,325.352,143.814,325.662,143.814z"/>
	<path fill="#878787" d="M332.98,137.828c0.1-0.04,0.18,0.01,0.219,0.1l0.109,0.24c0.051,0.12,0.01,0.23-0.18,0.29
		c-0.449,0.15-2.219,1.139-2.568,2.489c0,0,0.66-0.45,1.52-0.45c1.129,0,2.148,0.839,2.148,2.168c0,1.259-1.01,2.289-2.209,2.289
		c-1.619,0-2.328-1.259-2.328-2.849C329.691,139.447,331.971,138.228,332.98,137.828z M333.52,142.705c0-0.87-0.67-1.559-1.51-1.559
		c-0.93,0-1.578,0.65-1.578,0.65c-0.17,0.999,0.219,2.499,1.588,2.499C332.859,144.294,333.52,143.565,333.52,142.705z"/>
</g>
</svg>
