<?xml version="1.0" encoding="utf-8"?>
<!-- Generator: Adobe Illustrator 16.0.4, SVG Export Plug-In . SVG Version: 6.00 Build 0)  -->
<!DOCTYPE svg PUBLIC "-//W3C//DTD SVG 1.1//EN" "http://www.w3.org/Graphics/SVG/1.1/DTD/svg11.dtd">
<svg version="1.1" id="Layer_1" xmlns="http://www.w3.org/2000/svg" xmlns:xlink="http://www.w3.org/1999/xlink" x="0px" y="0px"
	 width="384px" height="172.15px" viewBox="0 0 384 172.15" enable-background="new 0 0 384 172.15" xml:space="preserve">
<g>
	<polygon fill="#EFE0A3" points="176.836,83.161 178.749,82.903 178.095,82.25 	"/>
	<polygon fill="#EFE0A3" points="194.792,82.34 193.923,83.471 194.964,84.426 195.268,83.338 	"/>
	<polygon fill="#EFE0A3" points="189.966,86.034 188.92,84.34 188.054,84.948 188.707,85.862 	"/>
	<polygon fill="#EFE0A3" points="193.835,86.858 194.402,87.51 195.748,87.038 193.923,85.862 	"/>
	<polygon fill="#EFE0A3" points="186.054,80.422 186.226,80.995 187.662,81.989 187.707,80.684 188.621,79.637 187.054,79.682 	"/>
	<polygon fill="#EFE0A3" points="175.449,81.213 173.769,80.758 172.767,81.739 174.994,81.606 	"/>
	<polygon fill="#EFE0A3" points="162.926,82.081 165.794,82.209 166.58,82.473 168.664,81.948 169.449,82.34 171.446,81.424 
		173.009,79.729 171.88,79.385 171.577,78.645 170.839,78.293 168.359,78.645 163.968,78.256 163.49,79.12 162.445,79.637 
		162.576,80.471 162.405,81.075 	"/>
	<polygon fill="#EFE0A3" points="155.227,80.606 154.55,79.887 154.158,80.081 154.618,80.932 155.447,81.278 156.208,80.737 	"/>
	<polygon fill="#EFE0A3" points="157.056,77.641 156.533,76.78 154.095,75.383 153.185,75.383 151.708,74.903 150.708,74.948 
		149.098,74.165 147.406,73.167 146.232,73.167 147.055,72.86 148.755,73.342 151.361,73.596 152.404,73.208 151.623,72.602 
		150.927,72.733 148.97,72.34 148.013,70.473 146.927,70.473 146.403,70.688 145.623,70.124 140.579,69.036 140.011,69.379 
		138.88,69.081 136.883,69.424 136.251,70.571 136.425,71.18 135.816,72.315 136.294,73.272 135.905,74.573 134.947,75.051 
		134.771,75.528 135.337,76.788 135.292,77.788 135.207,78.528 133.773,80.049 133.875,80.721 134.536,80.772 135.187,82.124 
		134.797,83.12 135.882,83.555 136.188,84.165 136.968,84.561 137.707,82.772 139.189,80.815 139.011,80.213 139.536,79.336 
		140.232,79.993 141.054,80.081 141.795,78.602 142.665,79.12 142.75,80.295 143.451,80.735 145.055,80.295 146.666,78.817 
		148.404,78.512 150.275,78.774 151.447,78.336 152.315,79.034 153.708,79.12 155.404,79.557 155.751,78.602 156.49,78.602 	"/>
	<polygon fill="#EFE0A3" points="106.711,80.254 105.581,78.381 100.973,78.125 98.713,78.602 97.366,78.465 96.366,78.686 
		95.67,79.682 96.799,80.551 97.581,80.295 98.324,80.645 99.016,82.209 99.842,82.86 101.235,82.817 102.193,83.555 103.624,83.6 
		103.668,82.34 104.711,82.34 105.19,82.903 105.8,82.731 106.279,81.727 107.105,82.167 109.103,82.167 109.234,81.602 
		108.233,80.551 	"/>
	<polygon fill="#EFE0A3" points="129.406,76.647 129.144,75.733 127.97,74.858 126.931,75.383 127.71,76.036 	"/>
	<path fill="#EFE0A3" d="M135.207,78.528l0.086-0.74l0.045-1l-0.566-1.26l0.176-0.477l0.958-0.479l0.39-1.301l-0.479-0.957
		l0.609-1.135l-0.174-0.609l-0.019,0.033l-1.088-0.264l-1.043,0.219l-1.046-1.045l-2.564-0.309l-0.738,0.439l-1.043-0.35h-2.262
		l-0.348,0.65c0.046,0,1.219,0.701,1.219,0.701l3.218,1.084l-0.351,0.609l0.434,0.957l-0.434,1.52l0.567,1.045l1.128,0.303
		l1.305,1.178l-0.305,0.736l-2.476-0.084l-0.479,0.342l-1.042-0.301l-1.437,0.133l-1.26-0.527l-1.479,0.615l-0.086-0.615
		l-0.523-0.211l-1.866,0.477l-1.001-0.961l-1.262,0.648l-0.481,0.742l0.438,1l1.434,0.18l1.479,1.691l0.65,0.217l0.133-1.043
		l0.647-0.521h2.659l1.127,0.611l3.306,0.08l0.609-0.391l0.997,0.484l0.904,0.076l-0.102-0.672L135.207,78.528z"/>
	<polygon fill="#EFE0A3" points="132.365,68.516 130.273,67.293 129.19,67.903 130.102,68.555 	"/>
	<polygon fill="#EFE0A3" points="112.405,70.125 115.503,69.409 115.918,68.735 116.667,68.862 117.537,68.165 119.58,68.424 
		121.104,68.036 121.753,66.819 121.234,66.25 120.146,66.124 119.408,64.467 116.752,63.385 113.625,63.385 112.798,63.079 
		113.448,62.467 113.886,60.989 113.149,60.731 112.145,61.124 111.014,61.038 108.842,59.43 108.233,59.995 107.279,59.124 
		105.668,57.907 104.711,58.903 104.236,58.338 104.496,57.602 103.842,57.299 103.453,58.034 102.714,57.256 100.41,56.733 
		98.885,55.295 97.5,54.518 95.975,53.338 92.627,53.17 91.408,52.6 90.975,51.295 89.582,49.778 88.497,50.036 87.932,49.338 
		83.456,48.686 81.974,49.252 80.108,48.866 79.016,47.561 76.236,47.079 73.802,47.168 72.583,48.167 69.281,48.34 66.759,48.95 
		65.844,49.778 63.282,50.514 62.411,51.559 61.326,52.167 61.151,53.557 61.849,54.477 61.544,55.038 60.544,54.477 58.41,55.733 
		57.543,55.469 57.496,56.252 58.629,56.817 59.843,55.426 60.279,55.688 60.325,56.641 61.806,55.776 62.844,55.688 64.063,53.817 
		65.63,54.125 66.237,53.604 67.02,54.213 68.238,53.993 70.021,51.815 71.064,51.602 71.799,50.774 73.452,51.038 74.625,50.997 
		77.279,51.295 77.973,51.948 77.279,52.52 75.931,52.387 75.019,53.038 75.931,53.776 79.499,54.344 80.236,54.079 81.322,54.079 
		82.279,54.905 83.974,55.124 84.801,55.083 85.248,54.424 86.034,55.01 86.119,55.668 88.082,57.083 89.633,57.342 90.285,56.973 
		91.312,57.842 92.446,57.67 93.341,58.083 95.018,57.516 95.738,57.778 96.718,61.372 98.73,63.747 99.708,63.768 100.147,63.375 
		101.498,64.186 103.633,64.208 103.945,64.813 104.922,65.163 104.768,66.334 103.247,66.706 101.235,68.516 101.19,69.604 
		103.287,69.973 104.704,69.235 105.752,69.668 108.699,68.993 110.332,69.192 	"/>
	<polygon fill="#EFE0A3" points="122.189,52.819 122.058,53.473 122.667,53.514 125.275,51.993 125.363,50.6 125.144,50.036 
		123.972,50.387 124.058,51.383 122.841,52.731 	"/>
	<polygon fill="#EFE0A3" points="129.101,58.817 129.753,59.213 129.753,58.118 	"/>
	<polygon fill="#EFE0A3" points="117.929,48.602 118.667,49.518 119.408,49.602 118.363,47.694 118.015,46.215 116.972,44.295 
		116.798,45.038 117.58,46.561 116.929,46.991 	"/>
	<polygon fill="#EFE0A3" points="116.638,38.786 115.437,37.917 115.245,38.657 116.156,39.704 116.397,41.358 115.897,41.918 
		116.418,42.6 117.835,42.487 117.903,41.774 116.966,40.069 	"/>
	<polygon fill="#EFE0A3" points="112.451,44.737 113.411,44.737 112.667,43.733 	"/>
	<polygon fill="#EFE0A3" points="128.449,52.993 128.97,53.604 130.102,53.514 131.23,54.034 131.316,53.557 129.492,52.52 	"/>
	<polygon fill="#EFE0A3" points="121.32,42.475 121.929,43.034 122.449,42.036 122.058,41.258 	"/>
	<polygon fill="#EFE0A3" points="121.667,49.038 121.582,49.778 122.32,50.643 123.229,50.819 123.101,49.817 	"/>
	<polygon fill="#EFE0A3" points="126.714,60.293 125.275,61.208 124.973,62.987 128.102,62.647 129.101,61.299 129.101,59.864 
		128.666,60.125 127.925,60.989 	"/>
	<polygon fill="#EFE0A3" points="110.594,32.75 110.463,33.629 111.902,34.17 112.798,35.436 112.383,36.342 111.665,36.715 
		112.188,37.325 112.865,37.131 113.346,35.26 112.271,33.708 	"/>
	<polygon fill="#EFE0A3" points="103.527,39.899 102.458,40.219 102.832,40.813 	"/>
	<polygon fill="#EFE0A3" points="102.174,40.659 101.628,41.116 102.284,41.42 	"/>
	<polygon fill="#EFE0A3" points="102.042,35.125 101.216,34.776 100.756,36.409 99.821,38.067 100.65,38.85 101.65,38.323 
		101.912,39.397 103.354,38.436 102.305,36.543 	"/>
	<polygon fill="#EFE0A3" points="102.719,44.409 103.722,44.209 104.265,43.139 103.945,42.356 104.093,41.53 103.613,41.028 
		102.065,41.875 102.11,42.92 	"/>
	<polygon fill="#EFE0A3" points="104.49,35.02 105.276,35.413 106.907,35.45 107.41,34.54 106.014,34.213 	"/>
	<polygon fill="#EFE0A3" points="108.928,25.258 108.057,24.688 107.843,23.518 106.014,22.258 104.321,22.297 106.147,22.907 
		106.365,24.124 107.715,25.866 106.928,26.606 107.279,27.735 106.843,29.733 107.843,28.694 107.754,27.647 108.928,26.909 	"/>
	<polygon fill="#EFE0A3" points="101.019,22.999 99.324,24.036 98.583,23.518 97.061,23.518 98.583,25.213 99.799,25.426 
		102.062,23.821 103.233,24.083 104.191,24.211 102.885,22.999 	"/>
	<polygon fill="#EFE0A3" points="153.708,117.292 154.228,118.292 155.056,118.424 155.751,119.334 156.013,118.336 
		154.879,117.206 	"/>
	<polygon fill="#EFE0A3" points="143.97,115.465 144.75,116.557 145.927,116.508 144.884,115.551 	"/>
	<path fill="#EFE0A3" d="M179.919,125.905l1.225,0.328l0.957-1.176l-0.523-0.805l-1.786,1.348l-0.589-0.783l-1.245,0.914
		c0.021-0.021,0.63,0.461,0.63,0.461L179.919,125.905z"/>
	<polygon fill="#EFE0A3" points="149.708,116.77 149.361,117.377 149.927,118.549 151.272,118.856 151.878,118.206 150.841,118.069 
			"/>
	<polygon fill="#EFE0A3" points="191.835,89.946 192.705,89.776 192.273,88.77 	"/>
	<polygon fill="#EFE0A3" points="194.835,91.336 194.445,92.557 195.966,94.862 196.75,92.598 195.617,91.293 	"/>
	<polygon fill="#EFE0A3" points="198.486,94.081 197.488,94.772 198.355,95.161 	"/>
	<polygon fill="#EFE0A3" points="196.708,91.209 197.4,92.471 198.791,92.598 197.921,90.073 	"/>
	<path fill="#EFE0A3" d="M196.921,99.377l1.128-0.262l-0.04-1.689l-0.912-0.957c-0.055,0.094-0.654,1.043-0.654,1.043
		L196.921,99.377z"/>
	<path fill="#EFE0A3" d="M197.097,96.469L197.097,96.469C197.103,96.458,197.103,96.456,197.097,96.469z"/>
	<polygon fill="#EFE0A3" points="198.964,104.469 199.921,104.944 200.007,103.86 199.4,101.684 196.921,101.036 196.921,101.991 
		198.443,103.553 198.181,104.381 	"/>
	<polygon fill="#EFE0A3" points="199.446,106.163 198.009,108.077 198.226,109.249 199.226,109.727 199.836,108.077 	"/>
	<polygon fill="#EFE0A3" points="207.058,111.946 207.822,113.014 209.33,112.967 209.287,111.836 208.193,110.79 	"/>
	<line fill="#EFE0A3" x1="196.708" y1="115.811" x2="196.71" y2="115.815"/>
	<polygon fill="#EFE0A3" points="197.746,110.422 197.354,113.555 198.269,111.768 	"/>
	<polygon fill="#EFE0A3" points="194.488,118.069 194.055,119.506 195.488,119.551 196.226,118.553 195.748,117.815 	"/>
	<path fill="#EFE0A3" d="M197.312,116.944l-0.602-1.129c-0.003,0.102-0.309,1.129-0.309,1.129H197.312z"/>
	<polygon fill="#EFE0A3" points="199.205,126.081 197.001,127.038 195.91,126.579 194.557,126.971 194.189,127.69 195.343,128.694 
		195.429,129.807 194.255,130.829 193.012,131.303 194.383,131.854 197.351,131.374 198.595,130.323 198.55,129.002 
		197.916,127.932 199.291,126.542 	"/>
	<polygon fill="#EFE0A3" points="201.058,124.54 199.815,125.1 200.841,125.54 	"/>
</g>
<g>
	<path fill="#878787" d="M222.947,22.508c2.524,0,4.349,0.85,6.049,2.324c0.225,0.2,0.225,0.5,0.025,0.7l-1.1,1.125
		c-0.175,0.225-0.4,0.225-0.625,0c-1.175-1.025-2.774-1.675-4.324-1.675c-3.574,0-6.273,3-6.273,6.499s2.725,6.474,6.299,6.474
		c1.824,0,3.099-0.725,4.299-1.65c0.225-0.175,0.45-0.15,0.6-0.025l1.15,1.125c0.2,0.175,0.15,0.5-0.025,0.675
		c-1.7,1.649-3.849,2.424-6.074,2.424c-4.999,0-9.022-3.974-9.022-8.973C213.925,26.532,217.949,22.508,222.947,22.508z"/>
	<path fill="#878787" d="M234.874,33.93c1.05,0,1.975,0.3,1.975,0.3c0.025-1.575-0.275-2.2-1.55-2.2c-1.15,0-2.274,0.3-2.799,0.45
		c-0.3,0.075-0.475-0.125-0.55-0.4l-0.2-0.925c-0.075-0.325,0.1-0.5,0.325-0.575c0.175-0.075,1.6-0.575,3.449-0.575
		c3.199,0,3.499,1.95,3.499,4.449v5.323c0,0.25-0.225,0.475-0.475,0.475h-0.7c-0.225,0-0.325-0.1-0.425-0.35l-0.25-0.675
		c-0.55,0.525-1.524,1.275-3.074,1.275c-1.875,0-3.224-1.275-3.224-3.349C230.875,35.33,232.325,33.93,234.874,33.93z
		 M234.574,38.729c1,0,1.95-0.75,2.25-1.25v-1.6c-0.15-0.1-0.85-0.4-1.75-0.4c-1.2,0-2.024,0.625-2.024,1.65
		C233.049,38.029,233.649,38.729,234.574,38.729z"/>
	<path fill="#878787" d="M242.174,30.731c0-0.25,0.225-0.475,0.475-0.475h0.725c0.175,0,0.375,0.15,0.425,0.35l0.275,0.85
		c0.175-0.25,1.1-1.45,2.924-1.45c0.95,0,2.1,0.25,1.825,0.925l-0.6,1.225c-0.125,0.275-0.375,0.325-0.6,0.225
		c-0.15-0.075-0.525-0.175-0.85-0.175c-1.45,0-2.149,1.049-2.25,1.225v6.348c0,0.425-0.275,0.475-0.675,0.475h-1.2
		c-0.25,0-0.475-0.225-0.475-0.475V30.731z"/>
	<path fill="#878787" d="M250.299,24.732c0-0.825,0.625-1.475,1.425-1.475c0.825,0,1.475,0.649,1.475,1.475
		c0,0.8-0.65,1.449-1.475,1.449C250.924,26.182,250.299,25.532,250.299,24.732z M250.574,30.731c0-0.25,0.225-0.475,0.475-0.475
		h1.424c0.25,0,0.475,0.225,0.475,0.475v9.047c0,0.25-0.225,0.475-0.475,0.475h-1.424c-0.25,0-0.475-0.225-0.475-0.475V30.731z"/>
	<path fill="#878787" d="M256.199,23.232c0-0.25,0.225-0.475,0.475-0.475h1.45c0.25,0,0.475,0.225,0.475,0.475v7.323
		c0.225-0.075,1.125-0.55,2.399-0.55c2.774,0,4.924,2.325,4.924,5.249c0,2.874-2.024,5.249-4.674,5.249
		c-1.975,0-3.174-1.4-3.174-1.4l-0.2,0.725c-0.075,0.25-0.225,0.425-0.45,0.425h-0.75c-0.25,0-0.475-0.225-0.475-0.475V23.232z
		 M260.948,38.354c1.6,0,2.649-1.425,2.649-3.099c0-1.7-1.175-3.075-2.85-3.075c-1.299,0-2.174,0.575-2.174,0.575v4.099
		C258.699,37.129,259.423,38.354,260.948,38.354z"/>
	<path fill="#878787" d="M268.449,23.232c0-0.25,0.225-0.475,0.475-0.475h1.45c0.25,0,0.475,0.225,0.475,0.475v7.323
		c0.225-0.075,1.125-0.55,2.399-0.55c2.774,0,4.924,2.325,4.924,5.249c0,2.874-2.024,5.249-4.674,5.249
		c-1.975,0-3.174-1.4-3.174-1.4l-0.2,0.725c-0.075,0.25-0.225,0.425-0.45,0.425h-0.75c-0.25,0-0.475-0.225-0.475-0.475V23.232z
		 M273.198,38.354c1.6,0,2.649-1.425,2.649-3.099c0-1.7-1.175-3.075-2.85-3.075c-1.299,0-2.174,0.575-2.174,0.575v4.099
		C270.948,37.129,271.673,38.354,273.198,38.354z"/>
	<path fill="#878787" d="M284.973,30.006c2.6,0,4.599,1.95,4.599,4.624c0,0.175-0.025,0.5-0.05,0.675
		c-0.025,0.25-0.225,0.425-0.45,0.425h-6.798c0.075,1.35,1.25,2.674,2.875,2.674c0.899,0,1.725-0.4,2.224-0.725
		c0.3-0.175,0.475-0.275,0.675-0.025l0.7,0.95c0.175,0.2,0.25,0.4-0.05,0.65c-0.725,0.625-2.024,1.25-3.699,1.25
		c-3.024,0-5.023-2.375-5.023-5.249C279.974,32.43,281.974,30.006,284.973,30.006z M287.247,34.155
		c-0.075-1.2-1.075-2.224-2.299-2.224c-1.35,0-2.399,0.975-2.549,2.224H287.247z"/>
	<path fill="#878787" d="M295.248,33.93c1.05,0,1.975,0.3,1.975,0.3c0.025-1.575-0.275-2.2-1.55-2.2c-1.15,0-2.274,0.3-2.799,0.45
		c-0.3,0.075-0.475-0.125-0.55-0.4l-0.2-0.925c-0.075-0.325,0.1-0.5,0.325-0.575c0.175-0.075,1.6-0.575,3.449-0.575
		c3.199,0,3.499,1.95,3.499,4.449v5.323c0,0.25-0.225,0.475-0.475,0.475h-0.7c-0.225,0-0.325-0.1-0.425-0.35l-0.25-0.675
		c-0.55,0.525-1.524,1.275-3.074,1.275c-1.875,0-3.224-1.275-3.224-3.349C291.249,35.33,292.699,33.93,295.248,33.93z
		 M294.948,38.729c1,0,1.95-0.75,2.25-1.25v-1.6c-0.15-0.1-0.85-0.4-1.75-0.4c-1.2,0-2.024,0.625-2.024,1.65
		C293.423,38.029,294.023,38.729,294.948,38.729z"/>
	<path fill="#878787" d="M302.548,30.731c0-0.25,0.225-0.475,0.475-0.475h0.725c0.2,0,0.35,0.125,0.4,0.3l0.3,0.85
		c0.175-0.2,1.499-1.4,3.499-1.4c3.049,0,4.174,2.149,4.174,4.749v5.023c0,0.25-0.225,0.475-0.475,0.475h-1.425
		c-0.275,0-0.475-0.225-0.475-0.475v-5.124c0-1.6-0.775-2.475-2.075-2.475c-1.574,0-2.649,1.15-2.774,1.5v6.098
		c0,0.325-0.149,0.475-0.574,0.475h-1.3c-0.25,0-0.475-0.225-0.475-0.475V30.731z"/>
	<path fill="#B7B7B7" d="M214.784,50.927h-1.739c-0.11,0-0.19-0.09-0.19-0.19v-0.29c0-0.1,0.08-0.19,0.19-0.19h4.237
		c0.11,0,0.19,0.09,0.19,0.19v0.29c0,0.1-0.08,0.19-0.19,0.19h-1.739v6.137c0,0.1-0.09,0.19-0.19,0.19h-0.38
		c-0.1,0-0.19-0.09-0.19-0.19V50.927z"/>
	<path fill="#B7B7B7" d="M219.264,53.156c1.109,0,1.989,0.959,1.989,2.089c0,1.149-0.879,2.109-1.989,2.109
		s-1.989-0.959-1.989-2.109C217.275,54.115,218.154,53.156,219.264,53.156z M219.264,56.704c0.729,0,1.299-0.649,1.299-1.459
		c0-0.79-0.57-1.429-1.299-1.429s-1.299,0.64-1.299,1.429C217.964,56.054,218.534,56.704,219.264,56.704z"/>
	<path fill="#B7B7B7" d="M222.644,53.855h-0.509c-0.11,0-0.19-0.09-0.19-0.19v-0.22c0-0.11,0.08-0.189,0.19-0.189h0.509v-1.11
		c0-0.1,0.09-0.189,0.19-0.189l0.32-0.02c0.1,0,0.18,0.09,0.18,0.19v1.129h1.159c0.11,0,0.19,0.08,0.19,0.189v0.22
		c0,0.1-0.08,0.19-0.19,0.19h-1.159v2.338c0,0.4,0.1,0.48,0.33,0.48c0.25,0,0.6-0.15,0.729-0.22c0.15-0.08,0.19-0.02,0.24,0.06
		l0.15,0.25c0.07,0.12,0.04,0.18-0.07,0.25c-0.14,0.09-0.68,0.34-1.149,0.34c-0.8,0-0.92-0.48-0.92-1.1V53.855z"/>
	<path fill="#B7B7B7" d="M227.114,54.715c0.43,0,0.85,0.13,0.85,0.13c0.01-0.74-0.08-1.08-0.65-1.08c-0.55,0-1.02,0.15-1.199,0.22
		c-0.1,0.04-0.16-0.01-0.19-0.1l-0.08-0.25c-0.04-0.12,0.02-0.18,0.11-0.22c0.06-0.03,0.64-0.26,1.389-0.26
		c1.02,0,1.27,0.52,1.27,1.689v2.219c0,0.1-0.09,0.19-0.19,0.19h-0.19c-0.11,0-0.14-0.06-0.17-0.15l-0.08-0.27
		c-0.209,0.21-0.62,0.52-1.239,0.52c-0.699,0-1.229-0.51-1.229-1.31C225.515,55.285,226.084,54.715,227.114,54.715z M226.854,56.754
		c0.5,0,0.929-0.31,1.099-0.56v-0.79c-0.12-0.07-0.4-0.16-0.839-0.16c-0.56,0-0.959,0.28-0.959,0.799
		C226.154,56.444,226.424,56.754,226.854,56.754z"/>
	<path fill="#B7B7B7" d="M230.015,50.447c0-0.1,0.09-0.19,0.19-0.19h0.31c0.1,0,0.19,0.09,0.19,0.19v6.616
		c0,0.1-0.09,0.19-0.19,0.19h-0.31c-0.1,0-0.19-0.09-0.19-0.19V50.447z"/>
	<path fill="#B7B7B7" d="M237.762,50.157c1.009,0,1.739,0.35,2.419,0.93c0.08,0.08,0.09,0.2,0.01,0.28
		c-0.09,0.09-0.2,0.19-0.28,0.28c-0.09,0.1-0.15,0.09-0.26-0.01c-0.51-0.45-1.229-0.78-1.899-0.78c-1.579,0-2.779,1.319-2.779,2.869
		c0,1.539,1.2,2.888,2.779,2.888c1.099,0,1.799-0.42,1.799-0.42v-1.399h-1.149c-0.11,0-0.19-0.08-0.19-0.18v-0.37
		c0-0.11,0.08-0.19,0.19-0.19h1.729c0.1,0,0.18,0.09,0.18,0.19v2.289c0,0.05-0.04,0.13-0.08,0.16c0,0-1.02,0.66-2.469,0.66
		c-1.999,0-3.608-1.589-3.608-3.588C234.154,51.767,235.763,50.157,237.762,50.157z"/>
	<path fill="#B7B7B7" d="M241.574,53.445c0-0.1,0.09-0.189,0.19-0.189h0.19c0.08,0,0.15,0.05,0.17,0.14l0.08,0.29
		c0,0,0.37-0.53,1.199-0.53c0.3,0,0.8,0.05,0.7,0.33l-0.12,0.34c-0.05,0.13-0.14,0.13-0.24,0.09c-0.09-0.04-0.24-0.08-0.39-0.08
		c-0.76,0-1.089,0.56-1.089,0.56v2.668c0,0.1-0.09,0.19-0.19,0.19h-0.31c-0.1,0-0.19-0.09-0.19-0.19V53.445z"/>
	<path fill="#B7B7B7" d="M246.223,54.715c0.43,0,0.85,0.13,0.85,0.13c0.01-0.74-0.08-1.08-0.65-1.08c-0.55,0-1.02,0.15-1.199,0.22
		c-0.1,0.04-0.16-0.01-0.19-0.1l-0.08-0.25c-0.04-0.12,0.02-0.18,0.11-0.22c0.06-0.03,0.64-0.26,1.389-0.26
		c1.02,0,1.27,0.52,1.27,1.689v2.219c0,0.1-0.09,0.19-0.19,0.19h-0.19c-0.11,0-0.14-0.06-0.17-0.15l-0.08-0.27
		c-0.209,0.21-0.62,0.52-1.239,0.52c-0.699,0-1.229-0.51-1.229-1.31C244.624,55.285,245.193,54.715,246.223,54.715z M245.963,56.754
		c0.5,0,0.929-0.31,1.099-0.56v-0.79c-0.12-0.07-0.4-0.16-0.839-0.16c-0.56,0-0.959,0.28-0.959,0.799
		C245.264,56.444,245.533,56.754,245.963,56.754z"/>
	<path fill="#B7B7B7" d="M249.114,53.445c0-0.1,0.09-0.189,0.19-0.189h0.19c0.09,0,0.14,0.04,0.16,0.12l0.09,0.31
		c0,0,0.57-0.53,1.399-0.53c1.16,0,1.549,0.759,1.549,1.799v2.109c0,0.1-0.09,0.19-0.19,0.19h-0.32c-0.1,0-0.19-0.09-0.19-0.19
		v-2.109c0-0.759-0.34-1.129-0.899-1.129c-0.75,0-1.289,0.57-1.289,0.57v2.668c0,0.1-0.09,0.19-0.19,0.19h-0.31
		c-0.1,0-0.19-0.09-0.19-0.19V53.445z"/>
	<path fill="#B7B7B7" d="M254.323,53.855h-0.509c-0.11,0-0.19-0.09-0.19-0.19v-0.22c0-0.11,0.08-0.189,0.19-0.189h0.509v-1.11
		c0-0.1,0.09-0.189,0.19-0.189l0.32-0.02c0.1,0,0.18,0.09,0.18,0.19v1.129h1.159c0.11,0,0.19,0.08,0.19,0.189v0.22
		c0,0.1-0.08,0.19-0.19,0.19h-1.159v2.338c0,0.4,0.1,0.48,0.33,0.48c0.25,0,0.6-0.15,0.73-0.22c0.15-0.08,0.189-0.02,0.24,0.06
		l0.15,0.25c0.07,0.12,0.04,0.18-0.07,0.25c-0.14,0.09-0.679,0.34-1.149,0.34c-0.8,0-0.92-0.48-0.92-1.1V53.855z"/>
	<path fill="#B7B7B7" d="M257.483,53.726c0-0.32,0.26-0.57,0.57-0.57c0.32,0,0.57,0.25,0.57,0.57c0,0.31-0.25,0.569-0.57,0.569
		C257.743,54.295,257.483,54.035,257.483,53.726z M258.053,56.214c0.32,0,0.57,0.25,0.57,0.57c0,0.31-0.25,0.57-0.57,0.57
		c-0.31,0-0.57-0.26-0.57-0.57C257.483,56.464,257.743,56.214,258.053,56.214z"/>
	<path fill="#878787" d="M262.003,56.244l0.29-0.42c0.08-0.11,0.2-0.16,0.31-0.07c0.05,0.05,0.65,0.549,1.33,0.68
		c0-0.76,0.01-1.5,0.01-2.259c-1-0.39-1.869-0.88-1.939-1.989c-0.01-0.12,0-0.24,0.01-0.36c0.07-0.709,0.649-1.529,1.929-1.659
		v-0.32c0-0.11,0.09-0.19,0.19-0.19h0.1c0.1,0,0.19,0.08,0.19,0.19v0.33c0.879,0.07,1.529,0.51,1.619,0.57
		c0.08,0.05,0.15,0.19,0.06,0.34c-0.18,0.26-0.36,0.64-0.6,0.479c-0.06-0.03-0.57-0.37-1.079-0.49c0,0.73-0.01,1.469-0.01,2.199
		c1.04,0.44,2.019,0.99,2.019,2.189c0,1.04-0.83,1.789-2.029,1.879v1.04c0,0.12-0.1,0.18-0.21,0.18s-0.26-0.03-0.26-0.18v-1.04
		c-1.06-0.08-1.729-0.64-1.879-0.779C261.974,56.484,261.894,56.414,262.003,56.244z M263.933,51.057
		c-0.68,0.07-0.959,0.53-0.959,0.87c0,0.51,0.34,0.85,0.959,1.149V51.057z M265.382,55.554c0-0.479-0.33-0.83-0.97-1.159v2.079
		C264.962,56.404,265.382,56.024,265.382,55.554z"/>
	<path fill="#878787" d="M267.373,56.184c0.13-0.11,0.24-0.24,0.37-0.35c0.08-0.07,0.16-0.09,0.24,0
		c0.07,0.09,0.629,0.65,1.389,0.65c0.819,0,1.359-0.7,1.359-1.409c0-0.7-0.46-1.279-1.39-1.279h-1.529c-0.2,0-0.31-0.19-0.31-0.35
		v-2.798c0-0.1,0.08-0.19,0.19-0.19h3.088c0.11,0,0.19,0.09,0.19,0.19v0.49c0,0.1-0.08,0.19-0.19,0.19h-2.379v1.579h1.01
		c1.469,0,2.299,0.85,2.299,2.159c0,1.25-1,2.289-2.369,2.289c-1.089,0-1.699-0.53-1.949-0.83
		C267.263,56.374,267.253,56.304,267.373,56.184z"/>
	<path fill="#878787" d="M272.503,56.224l0.39-0.36c0.1-0.08,0.19-0.07,0.27,0.02c0.06,0.08,0.62,0.62,1.359,0.62
		c0.649,0,1.249-0.41,1.249-1.08c0-0.6-0.509-1.169-1.579-1.169h-0.56c-0.11,0-0.19-0.07-0.19-0.209v-0.43
		c0-0.15,0.06-0.209,0.2-0.209h0.56c0.939,0,1.409-0.48,1.409-1.07c0-0.669-0.55-1.089-1.139-1.089c-0.6,0-0.96,0.34-1.16,0.56
		c-0.06,0.08-0.17,0.1-0.26,0.02l-0.37-0.33c-0.08-0.07-0.07-0.19,0-0.26c0,0,0.759-0.879,1.849-0.879
		c1.16,0,2.089,0.709,2.089,1.829c0,0.77-0.58,1.359-1.029,1.569v0.03c0.47,0.2,1.209,0.8,1.209,1.659
		c0,1.089-0.88,1.909-2.259,1.909c-1.239,0-1.829-0.63-2.049-0.89C272.433,56.394,272.433,56.284,272.503,56.224z"/>
	<path fill="#878787" d="M278.542,55.964c0.37,0,0.83,0.25,0.83,1.109c0,1.029-0.64,1.739-0.989,1.999c-0.09,0.08-0.17,0.08-0.24,0
		l-0.15-0.15c-0.06-0.06-0.05-0.17,0.05-0.25c0.11-0.1,0.709-0.58,0.709-1.359c-0.02,0-0.12,0.04-0.25,0.04
		c-0.37,0-0.689-0.31-0.689-0.69C277.813,56.284,278.133,55.964,278.542,55.964z"/>
	<path fill="#878787" d="M279.914,55.574v-0.6l3.698-4.567c0.03-0.03,0.11-0.06,0.15-0.06h0.37c0.1,0,0.19,0.08,0.19,0.19v4.417
		h0.81c0.11,0,0.19,0.08,0.19,0.18v0.419c0,0.1-0.08,0.19-0.19,0.19h-0.81l0.01,1.319c0,0.1-0.09,0.19-0.19,0.19h-0.59
		c-0.1,0-0.19-0.09-0.19-0.19v-1.299h-3.258C279.993,55.764,279.914,55.674,279.914,55.574z M283.401,54.935v-2.938l-2.409,2.938
		H283.401z"/>
	<path fill="#878787" d="M285.843,55.574v-0.6l3.698-4.567c0.03-0.03,0.11-0.06,0.15-0.06h0.37c0.1,0,0.19,0.08,0.19,0.19v4.417
		h0.81c0.11,0,0.19,0.08,0.19,0.18v0.419c0,0.1-0.08,0.19-0.19,0.19h-0.81l0.01,1.319c0,0.1-0.09,0.19-0.19,0.19h-0.59
		c-0.1,0-0.19-0.09-0.19-0.19v-1.299h-3.258C285.923,55.764,285.843,55.674,285.843,55.574z M289.331,54.935v-2.938l-2.409,2.938
		H289.331z"/>
	<path fill="#878787" d="M291.943,56.804c0.74-0.839,1.779-2.109,2.519-2.988c0.5-0.56,0.76-1.06,0.76-1.459
		c0-0.51-0.35-1.089-1.229-1.089c-0.55,0-1,0.38-1.27,0.67c-0.08,0.08-0.189,0.08-0.27,0l-0.34-0.34c-0.06-0.06-0.08-0.18-0.01-0.26
		c0,0,0.75-0.979,1.939-0.979c1.429,0,2.189,0.909,2.189,1.958c0,0.77-0.42,1.299-0.959,1.949c-0.53,0.64-1.229,1.459-1.819,2.129
		H296c0.1,0,0.19,0.09,0.19,0.19v0.479c0,0.1-0.09,0.19-0.19,0.19h-3.868c-0.11,0-0.19-0.09-0.19-0.19V56.804z"/>
	<path fill="#B7B7B7" d="M213.794,62.447c0-0.1,0.08-0.19,0.19-0.19h2.588c1.199,0,2.179,0.939,2.179,2.129
		c0,0.919-0.609,1.689-1.479,2.039l1.369,2.539c0.07,0.13,0,0.29-0.17,0.29h-0.51c-0.09,0-0.14-0.05-0.16-0.09l-1.33-2.648h-1.909
		v2.548c0,0.1-0.09,0.19-0.19,0.19h-0.39c-0.11,0-0.19-0.09-0.19-0.19V62.447z M216.523,65.855c0.77,0,1.439-0.64,1.439-1.459
		c0-0.759-0.669-1.409-1.439-1.409h-1.939v2.869H216.523z"/>
	<path fill="#B7B7B7" d="M221.464,65.156c1.049,0,1.809,0.779,1.809,1.829c0,0.07-0.01,0.2-0.02,0.27c-0.01,0.1-0.09,0.17-0.18,0.17
		h-2.878c0.04,0.67,0.63,1.299,1.339,1.299c0.42,0,0.759-0.16,0.989-0.3c0.14-0.08,0.2-0.13,0.28-0.02
		c0.06,0.08,0.11,0.15,0.17,0.23c0.07,0.09,0.11,0.15-0.04,0.26c-0.24,0.19-0.779,0.46-1.469,0.46c-1.209,0-1.959-0.95-1.959-2.099
		C219.505,66.125,220.254,65.156,221.464,65.156z M222.583,66.865c-0.03-0.58-0.51-1.1-1.119-1.1c-0.67,0-1.189,0.48-1.259,1.1
		H222.583z"/>
	<path fill="#B7B7B7" d="M224.125,68.694c0.04-0.06,0.11-0.2,0.14-0.25c0.05-0.08,0.16-0.1,0.27-0.03c0,0,0.43,0.35,0.939,0.35
		c0.41,0,0.65-0.21,0.65-0.479c0-0.35-0.3-0.51-0.879-0.8c-0.53-0.26-1.14-0.61-1.14-1.289c0-0.42,0.34-1.04,1.27-1.04
		c0.52,0,0.919,0.18,1.109,0.31c0.09,0.06,0.12,0.2,0.06,0.31l-0.08,0.16c-0.06,0.11-0.2,0.14-0.29,0.09c0,0-0.43-0.24-0.799-0.24
		c-0.45,0-0.57,0.23-0.57,0.4c0,0.33,0.33,0.48,0.74,0.68c0.689,0.33,1.309,0.64,1.309,1.359c0,0.58-0.56,1.129-1.379,1.129
		c-0.669,0-1.079-0.28-1.299-0.45C224.125,68.864,224.095,68.764,224.125,68.694z"/>
	<path fill="#B7B7B7" d="M228.184,65.855h-0.509c-0.11,0-0.19-0.09-0.19-0.19v-0.22c0-0.11,0.08-0.189,0.19-0.189h0.509v-1.11
		c0-0.1,0.09-0.189,0.19-0.189l0.32-0.02c0.1,0,0.18,0.09,0.18,0.19v1.129h1.159c0.11,0,0.19,0.08,0.19,0.189v0.22
		c0,0.1-0.08,0.19-0.19,0.19h-1.159v2.338c0,0.4,0.1,0.48,0.33,0.48c0.25,0,0.6-0.15,0.729-0.22c0.15-0.08,0.19-0.02,0.24,0.06
		l0.15,0.25c0.07,0.12,0.04,0.18-0.07,0.25c-0.14,0.09-0.68,0.34-1.149,0.34c-0.8,0-0.92-0.48-0.92-1.1V65.855z"/>
	<path fill="#B7B7B7" d="M231.344,65.445c0-0.1,0.09-0.189,0.19-0.189h0.19c0.08,0,0.15,0.05,0.17,0.14l0.08,0.29
		c0,0,0.37-0.53,1.199-0.53c0.3,0,0.8,0.05,0.7,0.33l-0.12,0.34c-0.05,0.13-0.14,0.13-0.24,0.09c-0.09-0.04-0.24-0.08-0.39-0.08
		c-0.76,0-1.089,0.56-1.089,0.56v2.668c0,0.1-0.09,0.19-0.19,0.19h-0.31c-0.1,0-0.19-0.09-0.19-0.19V65.445z"/>
	<path fill="#B7B7B7" d="M234.544,62.937c0-0.27,0.21-0.48,0.47-0.48c0.27,0,0.479,0.21,0.479,0.48c0,0.26-0.21,0.47-0.479,0.47
		C234.754,63.407,234.544,63.197,234.544,62.937z M234.684,65.445c0-0.1,0.09-0.189,0.19-0.189h0.31c0.1,0,0.19,0.09,0.19,0.189
		v3.618c0,0.1-0.09,0.19-0.19,0.19h-0.31c-0.1,0-0.19-0.09-0.19-0.19V65.445z"/>
	<path fill="#B7B7B7" d="M238.553,65.156c0.6,0,1.069,0.24,1.429,0.7c0.07,0.09,0.05,0.209-0.04,0.28l-0.19,0.16
		c-0.15,0.14-0.2,0.04-0.29-0.04c-0.2-0.229-0.529-0.419-0.919-0.419c-0.75,0-1.329,0.62-1.329,1.419c0,0.8,0.57,1.439,1.319,1.439
		c0.6,0,0.83-0.3,1.06-0.52c0.12-0.12,0.189-0.1,0.3-0.02l0.11,0.08c0.1,0.07,0.13,0.18,0.07,0.28c-0.3,0.48-0.85,0.84-1.529,0.84
		c-1.109,0-2.049-0.89-2.049-2.089C236.494,66.085,237.464,65.156,238.553,65.156z"/>
	<path fill="#B7B7B7" d="M241.464,65.855h-0.509c-0.11,0-0.19-0.09-0.19-0.19v-0.22c0-0.11,0.08-0.189,0.19-0.189h0.509v-1.11
		c0-0.1,0.09-0.189,0.19-0.189l0.32-0.02c0.1,0,0.18,0.09,0.18,0.19v1.129h1.159c0.11,0,0.19,0.08,0.19,0.189v0.22
		c0,0.1-0.08,0.19-0.19,0.19h-1.159v2.338c0,0.4,0.1,0.48,0.33,0.48c0.25,0,0.6-0.15,0.73-0.22c0.15-0.08,0.189-0.02,0.24,0.06
		l0.15,0.25c0.07,0.12,0.04,0.18-0.07,0.25c-0.14,0.09-0.679,0.34-1.149,0.34c-0.8,0-0.92-0.48-0.92-1.1V65.855z"/>
	<path fill="#B7B7B7" d="M246.293,65.156c1.049,0,1.809,0.779,1.809,1.829c0,0.07-0.01,0.2-0.02,0.27c-0.01,0.1-0.09,0.17-0.18,0.17
		h-2.878c0.04,0.67,0.63,1.299,1.339,1.299c0.42,0,0.759-0.16,0.989-0.3c0.14-0.08,0.2-0.13,0.28-0.02
		c0.06,0.08,0.11,0.15,0.17,0.23c0.07,0.09,0.11,0.15-0.04,0.26c-0.24,0.19-0.779,0.46-1.469,0.46c-1.209,0-1.959-0.95-1.959-2.099
		C244.334,66.125,245.084,65.156,246.293,65.156z M247.413,66.865c-0.03-0.58-0.51-1.1-1.119-1.1c-0.67,0-1.189,0.48-1.26,1.1
		H247.413z"/>
	<path fill="#B7B7B7" d="M250.823,65.156c0.66,0,1.069,0.26,1.069,0.26v-2.968c0-0.1,0.09-0.19,0.19-0.19h0.31
		c0.1,0,0.19,0.09,0.19,0.19v6.616c0,0.1-0.09,0.19-0.19,0.19h-0.21c-0.09,0-0.15-0.07-0.17-0.16l-0.06-0.27
		c0,0-0.48,0.53-1.229,0.53c-1.02,0-1.819-0.959-1.819-2.109C248.904,66.075,249.624,65.156,250.823,65.156z M250.793,68.724
		c0.72,0,1.089-0.66,1.089-0.66v-1.999c0,0-0.419-0.24-0.969-0.24c-0.87,0-1.309,0.63-1.309,1.429
		C249.604,68.034,250.063,68.724,250.793,68.724z"/>
	<path fill="#B7B7B7" d="M256.543,62.447c0-0.1,0.08-0.19,0.19-0.19h2.208c1.229,0,2.239,1,2.239,2.208
		c0,1.24-1.009,2.249-2.229,2.249h-1.649v2.349c0,0.1-0.09,0.19-0.189,0.19h-0.38c-0.11,0-0.19-0.09-0.19-0.19V62.447z
		 M258.892,65.975c0.819,0,1.519-0.669,1.519-1.529c0-0.81-0.7-1.43-1.519-1.43h-1.589v2.958H258.892z"/>
	<path fill="#B7B7B7" d="M263.473,65.156c1.049,0,1.809,0.779,1.809,1.829c0,0.07-0.01,0.2-0.02,0.27c-0.01,0.1-0.09,0.17-0.18,0.17
		h-2.878c0.04,0.67,0.63,1.299,1.339,1.299c0.42,0,0.759-0.16,0.989-0.3c0.14-0.08,0.2-0.13,0.28-0.02
		c0.06,0.08,0.11,0.15,0.17,0.23c0.07,0.09,0.11,0.15-0.04,0.26c-0.24,0.19-0.779,0.46-1.469,0.46c-1.209,0-1.959-0.95-1.959-2.099
		C261.514,66.125,262.263,65.156,263.473,65.156z M264.592,66.865c-0.03-0.58-0.51-1.1-1.119-1.1c-0.67,0-1.189,0.48-1.259,1.1
		H264.592z"/>
	<path fill="#B7B7B7" d="M266.373,65.445c0-0.1,0.09-0.189,0.19-0.189h0.19c0.09,0,0.14,0.04,0.16,0.12l0.09,0.31
		c0,0,0.57-0.53,1.399-0.53c1.16,0,1.549,0.759,1.549,1.799v2.109c0,0.1-0.09,0.19-0.19,0.19h-0.32c-0.1,0-0.19-0.09-0.19-0.19
		v-2.109c0-0.759-0.34-1.129-0.899-1.129c-0.75,0-1.289,0.57-1.289,0.57v2.668c0,0.1-0.09,0.19-0.19,0.19h-0.31
		c-0.1,0-0.19-0.09-0.19-0.19V65.445z"/>
	<path fill="#B7B7B7" d="M271.323,65.445c0-0.1,0.09-0.189,0.19-0.189h0.19c0.09,0,0.14,0.04,0.16,0.12l0.09,0.31
		c0,0,0.57-0.53,1.399-0.53c1.16,0,1.549,0.759,1.549,1.799v2.109c0,0.1-0.09,0.19-0.19,0.19h-0.32c-0.1,0-0.19-0.09-0.19-0.19
		v-2.109c0-0.759-0.34-1.129-0.899-1.129c-0.75,0-1.289,0.57-1.289,0.57v2.668c0,0.1-0.09,0.19-0.19,0.19h-0.31
		c-0.1,0-0.19-0.09-0.19-0.19V65.445z"/>
	<path fill="#B7B7B7" d="M281.901,62.157c1.009,0,1.739,0.35,2.419,0.93c0.08,0.08,0.09,0.2,0.01,0.28
		c-0.09,0.09-0.2,0.19-0.28,0.28c-0.09,0.1-0.15,0.09-0.26-0.01c-0.51-0.45-1.229-0.78-1.899-0.78c-1.579,0-2.779,1.319-2.779,2.869
		c0,1.539,1.2,2.888,2.779,2.888c1.099,0,1.799-0.42,1.799-0.42v-1.399h-1.149c-0.11,0-0.19-0.08-0.19-0.18v-0.37
		c0-0.11,0.08-0.19,0.19-0.19h1.729c0.1,0,0.18,0.09,0.18,0.19v2.289c0,0.05-0.04,0.13-0.08,0.16c0,0-1.02,0.66-2.469,0.66
		c-1.999,0-3.608-1.589-3.608-3.588C278.293,63.767,279.902,62.157,281.901,62.157z"/>
	<path fill="#B7B7B7" d="M285.713,65.445c0-0.1,0.09-0.189,0.19-0.189h0.19c0.08,0,0.15,0.05,0.17,0.14l0.08,0.29
		c0,0,0.37-0.53,1.199-0.53c0.3,0,0.8,0.05,0.7,0.33l-0.12,0.34c-0.05,0.13-0.14,0.13-0.24,0.09c-0.09-0.04-0.24-0.08-0.39-0.08
		c-0.76,0-1.089,0.56-1.089,0.56v2.668c0,0.1-0.09,0.19-0.19,0.19h-0.31c-0.1,0-0.19-0.09-0.19-0.19V65.445z"/>
	<path fill="#B7B7B7" d="M290.362,66.715c0.43,0,0.85,0.13,0.85,0.13c0.01-0.74-0.08-1.08-0.65-1.08c-0.55,0-1.02,0.15-1.199,0.22
		c-0.1,0.04-0.16-0.01-0.19-0.1l-0.08-0.25c-0.04-0.12,0.02-0.18,0.11-0.22c0.06-0.03,0.64-0.26,1.389-0.26
		c1.02,0,1.27,0.52,1.27,1.689v2.219c0,0.1-0.09,0.19-0.19,0.19h-0.19c-0.11,0-0.14-0.06-0.17-0.15l-0.08-0.27
		c-0.209,0.21-0.62,0.52-1.239,0.52c-0.699,0-1.229-0.51-1.229-1.31C288.763,67.285,289.333,66.715,290.362,66.715z M290.102,68.754
		c0.5,0,0.93-0.31,1.1-0.56v-0.79c-0.12-0.07-0.4-0.16-0.839-0.16c-0.56,0-0.959,0.28-0.959,0.799
		C289.403,68.444,289.672,68.754,290.102,68.754z"/>
	<path fill="#B7B7B7" d="M293.253,65.445c0-0.1,0.09-0.189,0.19-0.189h0.19c0.09,0,0.14,0.04,0.16,0.12l0.09,0.31
		c0,0,0.57-0.53,1.399-0.53c1.16,0,1.549,0.759,1.549,1.799v2.109c0,0.1-0.09,0.19-0.19,0.19h-0.32c-0.1,0-0.19-0.09-0.19-0.19
		v-2.109c0-0.759-0.34-1.129-0.899-1.129c-0.75,0-1.289,0.57-1.289,0.57v2.668c0,0.1-0.09,0.19-0.19,0.19h-0.31
		c-0.1,0-0.19-0.09-0.19-0.19V65.445z"/>
	<path fill="#B7B7B7" d="M298.462,65.855h-0.51c-0.11,0-0.19-0.09-0.19-0.19v-0.22c0-0.11,0.08-0.189,0.19-0.189h0.51v-1.11
		c0-0.1,0.09-0.189,0.189-0.189l0.32-0.02c0.1,0,0.18,0.09,0.18,0.19v1.129h1.159c0.11,0,0.19,0.08,0.19,0.189v0.22
		c0,0.1-0.08,0.19-0.19,0.19h-1.159v2.338c0,0.4,0.1,0.48,0.33,0.48c0.25,0,0.6-0.15,0.729-0.22c0.149-0.08,0.189-0.02,0.239,0.06
		l0.15,0.25c0.07,0.12,0.04,0.18-0.07,0.25c-0.14,0.09-0.68,0.34-1.149,0.34c-0.799,0-0.919-0.48-0.919-1.1V65.855z"/>
	<path fill="#B7B7B7" d="M301.623,65.726c0-0.32,0.26-0.57,0.569-0.57c0.319,0,0.569,0.25,0.569,0.57c0,0.31-0.25,0.569-0.569,0.569
		C301.882,66.295,301.623,66.035,301.623,65.726z M302.192,68.214c0.319,0,0.569,0.25,0.569,0.57c0,0.31-0.25,0.57-0.569,0.57
		c-0.31,0-0.569-0.26-0.569-0.57C301.623,68.464,301.882,68.214,302.192,68.214z"/>
	<path fill="#878787" d="M306.211,68.204c0.16-0.19,0.29-0.46,0.5-0.28c0.06,0.06,0.649,0.629,1.419,0.739v-2.599
		c-1.06-0.419-1.749-0.869-1.879-1.769c-0.02-0.11-0.02-0.229-0.02-0.359c0-0.64,0.529-1.659,1.898-1.769v-0.32
		c0-0.11,0.09-0.19,0.19-0.19h0.069c0.101,0,0.18,0.08,0.18,0.19v0.32c0.87,0.07,1.5,0.5,1.5,0.5c0.06,0.03,0.18,0.15,0.06,0.34
		c-0.17,0.26-0.229,0.42-0.47,0.28c-0.06-0.03-0.56-0.36-1.09-0.439l-0.01,2.588c1.21,0.52,1.979,1.029,1.979,2.119
		c0,0.99-0.92,1.719-1.979,1.789v1.04c0,0.12-0.109,0.18-0.22,0.18c-0.1,0-0.21-0.06-0.21-0.18v-1.04
		c-1.049-0.09-1.739-0.689-1.858-0.799C306.192,68.474,306.091,68.394,306.211,68.204z M308.13,62.837
		c-0.85,0.09-1.159,0.7-1.159,1.089c0,0.62,0.43,1,1.159,1.33V62.837z M309.74,67.584c0-0.56-0.399-0.939-1.18-1.319v2.409
		C309.23,68.614,309.74,68.134,309.74,67.584z"/>
	<path fill="#878787" d="M311.582,68.184c0.08-0.07,0.15-0.15,0.23-0.22c0.09-0.08,0.17-0.1,0.249,0.01
		c0.101,0.14,0.58,0.74,1.479,0.74c0.96,0,1.569-0.85,1.569-1.639c0-0.78-0.5-1.439-1.569-1.439h-1.519
		c-0.2,0-0.311-0.19-0.311-0.35v-2.639c0-0.1,0.08-0.19,0.19-0.19h3.019c0.109,0,0.189,0.09,0.189,0.19v0.29
		c0,0.1-0.08,0.19-0.189,0.19h-2.539v1.839h1.159c1.51,0,2.309,0.79,2.309,2.099c0,1.25-0.969,2.289-2.318,2.289
		c-1.109,0-1.679-0.53-1.929-0.83C311.472,68.374,311.461,68.304,311.582,68.184z"/>
	<path fill="#878787" d="M317.381,68.214c0.32,0,0.66,0.18,0.66,0.899c0,0.83-0.52,1.549-0.84,1.849c-0.1,0.09-0.18,0.08-0.24,0.02
		l-0.14-0.14c-0.05-0.05-0.04-0.15,0.061-0.24c0.1-0.09,0.619-0.53,0.619-1.259c-0.04,0.01-0.08,0.01-0.12,0.01
		c-0.31,0-0.569-0.26-0.569-0.57C316.812,68.464,317.072,68.214,317.381,68.214z"/>
	<path fill="#878787" d="M319.182,68.184c0.08-0.07,0.15-0.15,0.23-0.22c0.09-0.08,0.17-0.1,0.249,0.01
		c0.101,0.14,0.58,0.74,1.479,0.74c0.96,0,1.569-0.85,1.569-1.639c0-0.78-0.5-1.439-1.569-1.439h-1.519
		c-0.2,0-0.311-0.19-0.311-0.35v-2.639c0-0.1,0.08-0.19,0.19-0.19h3.019c0.109,0,0.189,0.09,0.189,0.19v0.29
		c0,0.1-0.08,0.19-0.189,0.19h-2.539v1.839h1.159c1.51,0,2.309,0.79,2.309,2.099c0,1.25-0.969,2.289-2.318,2.289
		c-1.109,0-1.679-0.53-1.929-0.83C319.073,68.374,319.062,68.304,319.182,68.184z"/>
	<path fill="#878787" d="M325.282,63.696l-0.72,0.56c-0.08,0.06-0.16,0.07-0.229-0.01l-0.19-0.21c-0.069-0.08-0.029-0.17,0.021-0.22
		l1.398-1.359h0.271c0.1,0,0.18,0.09,0.18,0.19v6.417c0,0.1-0.08,0.19-0.18,0.19h-0.36c-0.109,0-0.189-0.09-0.189-0.19V63.696z"/>
	<path fill="#878787" d="M327.532,68.224l0.271-0.23c0.109-0.08,0.189-0.06,0.27,0.05c0.09,0.11,0.63,0.69,1.489,0.69
		c0.76,0,1.439-0.46,1.439-1.25c0-0.68-0.53-1.309-1.77-1.309h-0.56c-0.11,0-0.189-0.06-0.189-0.22v-0.24
		c0-0.16,0.05-0.22,0.209-0.22h0.55c1.069,0,1.59-0.55,1.59-1.209c0-0.79-0.6-1.27-1.31-1.27c-0.68,0-1.09,0.4-1.31,0.65
		c-0.06,0.07-0.16,0.11-0.26,0.02l-0.24-0.19c-0.079-0.07-0.069-0.19,0-0.26c0,0,0.72-0.879,1.81-0.879
		c1.209,0,2.059,0.709,2.059,1.829c0,0.77-0.579,1.37-1.029,1.579v0.03c0.47,0.2,1.199,0.759,1.199,1.619
		c0,1.089-0.84,1.939-2.219,1.939c-1.229,0-1.789-0.64-2.009-0.89C327.462,68.394,327.452,68.284,327.532,68.224z"/>
	<path fill="#B7B7B7" d="M213.705,74.447c0-0.1,0.09-0.19,0.189-0.19h0.38c0.11,0,0.19,0.09,0.19,0.19v4.167
		c0,1.14,0.709,2.029,1.879,2.029c1.18,0,1.899-0.869,1.899-2.009v-4.188c0-0.1,0.08-0.19,0.19-0.19h0.38c0.1,0,0.19,0.09,0.19,0.19
		v4.228c0,1.519-1.08,2.679-2.659,2.679c-1.569,0-2.638-1.16-2.638-2.679V74.447z"/>
	<path fill="#B7B7B7" d="M220.434,77.445c0-0.1,0.09-0.189,0.19-0.189h0.19c0.09,0,0.14,0.04,0.16,0.12l0.09,0.31
		c0,0,0.57-0.53,1.399-0.53c1.16,0,1.549,0.759,1.549,1.799v2.109c0,0.1-0.09,0.19-0.19,0.19h-0.32c-0.1,0-0.19-0.09-0.19-0.19
		v-2.109c0-0.759-0.34-1.129-0.899-1.129c-0.75,0-1.289,0.57-1.289,0.57v2.668c0,0.1-0.09,0.19-0.19,0.19h-0.31
		c-0.1,0-0.19-0.09-0.19-0.19V77.445z"/>
	<path fill="#B7B7B7" d="M225.384,77.445c0-0.1,0.09-0.189,0.19-0.189h0.19c0.08,0,0.15,0.05,0.17,0.14l0.08,0.29
		c0,0,0.37-0.53,1.199-0.53c0.3,0,0.8,0.05,0.7,0.33l-0.12,0.34c-0.05,0.13-0.14,0.13-0.24,0.09c-0.09-0.04-0.24-0.08-0.39-0.08
		c-0.76,0-1.089,0.56-1.089,0.56v2.668c0,0.1-0.09,0.19-0.19,0.19h-0.31c-0.1,0-0.19-0.09-0.19-0.19V77.445z"/>
	<path fill="#B7B7B7" d="M230.363,77.156c1.049,0,1.809,0.779,1.809,1.829c0,0.07-0.01,0.2-0.02,0.27c-0.01,0.1-0.09,0.17-0.18,0.17
		h-2.878c0.04,0.67,0.63,1.299,1.339,1.299c0.42,0,0.759-0.16,0.989-0.3c0.14-0.08,0.2-0.13,0.28-0.02
		c0.06,0.08,0.11,0.15,0.17,0.23c0.07,0.09,0.11,0.15-0.04,0.26c-0.24,0.19-0.779,0.46-1.469,0.46c-1.209,0-1.959-0.95-1.959-2.099
		C228.404,78.125,229.154,77.156,230.363,77.156z M231.482,78.865c-0.03-0.58-0.51-1.1-1.119-1.1c-0.67,0-1.189,0.48-1.259,1.1
		H231.482z"/>
	<path fill="#B7B7B7" d="M233.024,80.694c0.04-0.06,0.11-0.2,0.14-0.25c0.05-0.08,0.16-0.1,0.27-0.03c0,0,0.43,0.35,0.939,0.35
		c0.41,0,0.65-0.21,0.65-0.479c0-0.35-0.3-0.51-0.879-0.8c-0.53-0.26-1.14-0.61-1.14-1.289c0-0.42,0.34-1.04,1.27-1.04
		c0.52,0,0.919,0.18,1.109,0.31c0.09,0.06,0.12,0.2,0.06,0.31l-0.08,0.16c-0.06,0.11-0.2,0.14-0.29,0.09c0,0-0.43-0.24-0.799-0.24
		c-0.45,0-0.57,0.23-0.57,0.4c0,0.33,0.33,0.48,0.74,0.68c0.689,0.33,1.309,0.64,1.309,1.359c0,0.58-0.56,1.129-1.379,1.129
		c-0.669,0-1.079-0.28-1.299-0.45C233.024,80.864,232.994,80.764,233.024,80.694z"/>
	<path fill="#B7B7B7" d="M237.083,77.855h-0.509c-0.11,0-0.19-0.09-0.19-0.19v-0.22c0-0.11,0.08-0.189,0.19-0.189h0.509v-1.11
		c0-0.1,0.09-0.189,0.19-0.189l0.32-0.02c0.1,0,0.18,0.09,0.18,0.19v1.129h1.159c0.11,0,0.19,0.08,0.19,0.189v0.22
		c0,0.1-0.08,0.19-0.19,0.19h-1.159v2.338c0,0.4,0.1,0.48,0.33,0.48c0.25,0,0.6-0.15,0.729-0.22c0.15-0.08,0.19-0.02,0.24,0.06
		l0.15,0.25c0.07,0.12,0.04,0.18-0.07,0.25c-0.14,0.09-0.68,0.34-1.149,0.34c-0.8,0-0.92-0.48-0.92-1.1V77.855z"/>
	<path fill="#B7B7B7" d="M240.244,77.445c0-0.1,0.09-0.189,0.19-0.189h0.19c0.08,0,0.15,0.05,0.17,0.14l0.08,0.29
		c0,0,0.37-0.53,1.199-0.53c0.3,0,0.8,0.05,0.7,0.33l-0.12,0.34c-0.05,0.13-0.14,0.13-0.24,0.09c-0.09-0.04-0.24-0.08-0.39-0.08
		c-0.76,0-1.089,0.56-1.089,0.56v2.668c0,0.1-0.09,0.19-0.19,0.19h-0.31c-0.1,0-0.19-0.09-0.19-0.19V77.445z"/>
	<path fill="#B7B7B7" d="M243.444,74.937c0-0.27,0.21-0.48,0.47-0.48c0.27,0,0.479,0.21,0.479,0.48c0,0.26-0.21,0.47-0.479,0.47
		C243.654,75.407,243.444,75.197,243.444,74.937z M243.583,77.445c0-0.1,0.09-0.189,0.19-0.189h0.31c0.1,0,0.19,0.09,0.19,0.189
		v3.618c0,0.1-0.09,0.19-0.19,0.19h-0.31c-0.1,0-0.19-0.09-0.19-0.19V77.445z"/>
	<path fill="#B7B7B7" d="M247.453,77.156c0.6,0,1.069,0.24,1.429,0.7c0.07,0.09,0.05,0.209-0.04,0.28l-0.19,0.16
		c-0.15,0.14-0.2,0.04-0.29-0.04c-0.2-0.229-0.529-0.419-0.919-0.419c-0.75,0-1.329,0.62-1.329,1.419c0,0.8,0.57,1.439,1.319,1.439
		c0.6,0,0.83-0.3,1.06-0.52c0.12-0.12,0.189-0.1,0.3-0.02l0.11,0.08c0.1,0.07,0.13,0.18,0.07,0.28c-0.3,0.48-0.85,0.84-1.529,0.84
		c-1.109,0-2.049-0.89-2.049-2.089C245.394,78.085,246.363,77.156,247.453,77.156z"/>
	<path fill="#B7B7B7" d="M250.363,77.855h-0.509c-0.11,0-0.19-0.09-0.19-0.19v-0.22c0-0.11,0.08-0.189,0.19-0.189h0.509v-1.11
		c0-0.1,0.09-0.189,0.19-0.189l0.32-0.02c0.1,0,0.18,0.09,0.18,0.19v1.129h1.159c0.11,0,0.19,0.08,0.19,0.189v0.22
		c0,0.1-0.08,0.19-0.19,0.19h-1.159v2.338c0,0.4,0.1,0.48,0.33,0.48c0.25,0,0.6-0.15,0.73-0.22c0.15-0.08,0.189-0.02,0.24,0.06
		l0.15,0.25c0.07,0.12,0.04,0.18-0.07,0.25c-0.14,0.09-0.679,0.34-1.149,0.34c-0.8,0-0.92-0.48-0.92-1.1V77.855z"/>
	<path fill="#B7B7B7" d="M255.193,77.156c1.049,0,1.809,0.779,1.809,1.829c0,0.07-0.01,0.2-0.02,0.27c-0.01,0.1-0.09,0.17-0.18,0.17
		h-2.878c0.04,0.67,0.63,1.299,1.339,1.299c0.42,0,0.759-0.16,0.989-0.3c0.14-0.08,0.2-0.13,0.28-0.02
		c0.06,0.08,0.11,0.15,0.17,0.23c0.07,0.09,0.11,0.15-0.04,0.26c-0.24,0.19-0.779,0.46-1.469,0.46c-1.209,0-1.959-0.95-1.959-2.099
		C253.234,78.125,253.983,77.156,255.193,77.156z M256.312,78.865c-0.03-0.58-0.51-1.1-1.119-1.1c-0.67,0-1.189,0.48-1.26,1.1
		H256.312z"/>
	<path fill="#B7B7B7" d="M259.723,77.156c0.66,0,1.069,0.26,1.069,0.26v-2.968c0-0.1,0.09-0.19,0.19-0.19h0.31
		c0.1,0,0.19,0.09,0.19,0.19v6.616c0,0.1-0.09,0.19-0.19,0.19h-0.21c-0.09,0-0.15-0.07-0.17-0.16l-0.06-0.27
		c0,0-0.48,0.53-1.229,0.53c-1.02,0-1.819-0.959-1.819-2.109C257.804,78.075,258.523,77.156,259.723,77.156z M259.692,80.724
		c0.72,0,1.089-0.66,1.089-0.66v-1.999c0,0-0.419-0.24-0.969-0.24c-0.87,0-1.309,0.63-1.309,1.429
		C258.503,80.034,258.963,80.724,259.692,80.724z"/>
	<path fill="#B7B7B7" d="M265.443,74.447c0-0.1,0.08-0.19,0.19-0.19h2.208c1.229,0,2.239,1,2.239,2.208
		c0,1.24-1.009,2.249-2.229,2.249h-1.649v2.349c0,0.1-0.09,0.19-0.189,0.19h-0.38c-0.11,0-0.19-0.09-0.19-0.19V74.447z
		 M267.792,77.975c0.819,0,1.519-0.669,1.519-1.529c0-0.81-0.7-1.43-1.519-1.43h-1.589v2.958H267.792z"/>
	<path fill="#B7B7B7" d="M272.372,77.156c1.049,0,1.809,0.779,1.809,1.829c0,0.07-0.01,0.2-0.02,0.27c-0.01,0.1-0.09,0.17-0.18,0.17
		h-2.878c0.04,0.67,0.63,1.299,1.339,1.299c0.42,0,0.759-0.16,0.989-0.3c0.14-0.08,0.2-0.13,0.28-0.02
		c0.06,0.08,0.11,0.15,0.17,0.23c0.07,0.09,0.11,0.15-0.04,0.26c-0.24,0.19-0.779,0.46-1.469,0.46c-1.209,0-1.959-0.95-1.959-2.099
		C270.413,78.125,271.163,77.156,272.372,77.156z M273.491,78.865c-0.03-0.58-0.51-1.1-1.119-1.1c-0.67,0-1.189,0.48-1.259,1.1
		H273.491z"/>
	<path fill="#B7B7B7" d="M275.272,77.445c0-0.1,0.09-0.189,0.19-0.189h0.19c0.09,0,0.14,0.04,0.16,0.12l0.09,0.31
		c0,0,0.57-0.53,1.399-0.53c1.16,0,1.549,0.759,1.549,1.799v2.109c0,0.1-0.09,0.19-0.19,0.19h-0.32c-0.1,0-0.19-0.09-0.19-0.19
		v-2.109c0-0.759-0.34-1.129-0.899-1.129c-0.75,0-1.289,0.57-1.289,0.57v2.668c0,0.1-0.09,0.19-0.19,0.19h-0.31
		c-0.1,0-0.19-0.09-0.19-0.19V77.445z"/>
	<path fill="#B7B7B7" d="M280.223,77.445c0-0.1,0.09-0.189,0.19-0.189h0.19c0.09,0,0.14,0.04,0.16,0.12l0.09,0.31
		c0,0,0.57-0.53,1.399-0.53c1.16,0,1.549,0.759,1.549,1.799v2.109c0,0.1-0.09,0.19-0.19,0.19h-0.32c-0.1,0-0.19-0.09-0.19-0.19
		v-2.109c0-0.759-0.34-1.129-0.899-1.129c-0.75,0-1.289,0.57-1.289,0.57v2.668c0,0.1-0.09,0.19-0.19,0.19h-0.31
		c-0.1,0-0.19-0.09-0.19-0.19V77.445z"/>
	<path fill="#B7B7B7" d="M290.801,74.157c1.009,0,1.739,0.35,2.419,0.93c0.08,0.08,0.09,0.2,0.01,0.28
		c-0.09,0.09-0.2,0.19-0.28,0.28c-0.09,0.1-0.15,0.09-0.26-0.01c-0.51-0.45-1.229-0.78-1.899-0.78c-1.579,0-2.779,1.319-2.779,2.869
		c0,1.539,1.2,2.888,2.779,2.888c1.099,0,1.799-0.42,1.799-0.42v-1.399h-1.149c-0.11,0-0.19-0.08-0.19-0.18v-0.37
		c0-0.11,0.08-0.19,0.19-0.19h1.729c0.1,0,0.18,0.09,0.18,0.19v2.289c0,0.05-0.04,0.13-0.08,0.16c0,0-1.02,0.66-2.469,0.66
		c-1.999,0-3.608-1.589-3.608-3.588C287.193,75.767,288.802,74.157,290.801,74.157z"/>
	<path fill="#B7B7B7" d="M294.613,77.445c0-0.1,0.09-0.189,0.19-0.189h0.19c0.08,0,0.15,0.05,0.17,0.14l0.08,0.29
		c0,0,0.37-0.53,1.199-0.53c0.3,0,0.8,0.05,0.7,0.33l-0.12,0.34c-0.05,0.13-0.14,0.13-0.24,0.09c-0.09-0.04-0.24-0.08-0.39-0.08
		c-0.76,0-1.089,0.56-1.089,0.56v2.668c0,0.1-0.09,0.19-0.19,0.19h-0.31c-0.1,0-0.19-0.09-0.19-0.19V77.445z"/>
	<path fill="#B7B7B7" d="M299.262,78.715c0.43,0,0.85,0.13,0.85,0.13c0.011-0.74-0.08-1.08-0.649-1.08c-0.55,0-1.02,0.15-1.199,0.22
		c-0.1,0.04-0.16-0.01-0.19-0.1l-0.079-0.25c-0.04-0.12,0.02-0.18,0.109-0.22c0.061-0.03,0.64-0.26,1.39-0.26
		c1.02,0,1.269,0.52,1.269,1.689v2.219c0,0.1-0.09,0.19-0.189,0.19h-0.189c-0.11,0-0.141-0.06-0.17-0.15l-0.08-0.27
		c-0.21,0.21-0.62,0.52-1.239,0.52c-0.7,0-1.229-0.51-1.229-1.31C297.664,79.285,298.233,78.715,299.262,78.715z M299.002,80.754
		c0.5,0,0.93-0.31,1.1-0.56v-0.79c-0.12-0.07-0.399-0.16-0.84-0.16c-0.56,0-0.959,0.28-0.959,0.799
		C298.303,80.444,298.573,80.754,299.002,80.754z"/>
	<path fill="#B7B7B7" d="M302.154,77.445c0-0.1,0.09-0.189,0.189-0.189h0.19c0.09,0,0.14,0.04,0.159,0.12l0.09,0.31
		c0,0,0.57-0.53,1.399-0.53c1.159,0,1.55,0.759,1.55,1.799v2.109c0,0.1-0.091,0.19-0.19,0.19h-0.319c-0.101,0-0.19-0.09-0.19-0.19
		v-2.109c0-0.759-0.34-1.129-0.899-1.129c-0.75,0-1.289,0.57-1.289,0.57v2.668c0,0.1-0.09,0.19-0.19,0.19h-0.31
		c-0.1,0-0.189-0.09-0.189-0.19V77.445z"/>
	<path fill="#B7B7B7" d="M307.364,77.855h-0.51c-0.11,0-0.19-0.09-0.19-0.19v-0.22c0-0.11,0.08-0.189,0.19-0.189h0.51v-1.11
		c0-0.1,0.09-0.189,0.189-0.189l0.32-0.02c0.1,0,0.18,0.09,0.18,0.19v1.129h1.159c0.11,0,0.19,0.08,0.19,0.189v0.22
		c0,0.1-0.08,0.19-0.19,0.19h-1.159v2.338c0,0.4,0.1,0.48,0.33,0.48c0.249,0,0.6-0.15,0.729-0.22c0.149-0.08,0.189-0.02,0.239,0.06
		l0.15,0.25c0.07,0.12,0.04,0.18-0.07,0.25c-0.14,0.09-0.68,0.34-1.149,0.34c-0.799,0-0.919-0.48-0.919-1.1V77.855z"/>
	<path fill="#B7B7B7" d="M310.524,77.726c0-0.32,0.26-0.57,0.569-0.57c0.32,0,0.569,0.25,0.569,0.57c0,0.31-0.249,0.569-0.569,0.569
		C310.784,78.295,310.524,78.035,310.524,77.726z M311.093,80.214c0.32,0,0.569,0.25,0.569,0.57c0,0.31-0.249,0.57-0.569,0.57
		c-0.31,0-0.569-0.26-0.569-0.57C310.524,80.464,310.784,80.214,311.093,80.214z"/>
	<path fill="#878787" d="M315.113,80.204c0.16-0.19,0.29-0.46,0.5-0.28c0.06,0.06,0.649,0.629,1.419,0.739v-2.599
		c-1.06-0.419-1.749-0.869-1.879-1.769c-0.02-0.11-0.02-0.229-0.02-0.359c0-0.64,0.529-1.659,1.898-1.769v-0.32
		c0-0.11,0.09-0.19,0.19-0.19h0.069c0.101,0,0.181,0.08,0.181,0.19v0.32c0.869,0.07,1.499,0.5,1.499,0.5
		c0.06,0.03,0.18,0.15,0.06,0.34c-0.17,0.26-0.229,0.42-0.47,0.28c-0.06-0.03-0.56-0.36-1.089-0.439l-0.011,2.588
		c1.21,0.52,1.979,1.029,1.979,2.119c0,0.99-0.92,1.719-1.979,1.789v1.04c0,0.12-0.109,0.18-0.22,0.18c-0.1,0-0.21-0.06-0.21-0.18
		v-1.04c-1.049-0.09-1.739-0.689-1.858-0.799C315.093,80.474,314.993,80.394,315.113,80.204z M317.032,74.837
		c-0.85,0.09-1.159,0.7-1.159,1.089c0,0.62,0.43,1,1.159,1.33V74.837z M318.641,79.584c0-0.56-0.399-0.939-1.18-1.319v2.409
		C318.131,80.614,318.641,80.134,318.641,79.584z"/>
	<path fill="#878787" d="M319.994,79.524v-0.37l3.788-4.748c0.029-0.03,0.06-0.06,0.149-0.06h0.2c0.1,0,0.189,0.08,0.189,0.19
		l0.01,4.567h0.81c0.11,0,0.19,0.08,0.19,0.18v0.22c0,0.1-0.08,0.19-0.19,0.19h-0.81v1.369c0,0.1-0.09,0.19-0.189,0.19h-0.34
		c-0.1,0-0.189-0.09-0.189-0.19v-1.349h-3.429C320.074,79.714,319.994,79.625,319.994,79.524z M323.652,79.095v-3.478l-2.819,3.478
		H323.652z"/>
	<path fill="#878787" d="M326.573,80.954l2.789-5.827h-3.269c-0.1,0-0.189-0.09-0.189-0.19v-0.29c0-0.1,0.09-0.19,0.189-0.19h4.018
		c0.101,0,0.19,0.09,0.19,0.19v0.07l-2.919,6.277c-0.04,0.09-0.14,0.26-0.329,0.26h-0.29c-0.101,0-0.19-0.09-0.19-0.19V80.954z"/>
	<path fill="#878787" d="M331.523,80.214c0.32,0,0.66,0.18,0.66,0.899c0,0.83-0.52,1.549-0.84,1.849c-0.1,0.09-0.18,0.08-0.24,0.02
		l-0.14-0.14c-0.05-0.05-0.04-0.15,0.061-0.24c0.1-0.09,0.619-0.53,0.619-1.259c-0.04,0.01-0.08,0.01-0.12,0.01
		c-0.31,0-0.569-0.26-0.569-0.57C330.954,80.464,331.213,80.214,331.523,80.214z"/>
	<path fill="#878787" d="M333.324,80.184c0.08-0.07,0.15-0.15,0.23-0.22c0.09-0.08,0.17-0.1,0.249,0.01
		c0.101,0.14,0.58,0.74,1.479,0.74c0.96,0,1.569-0.85,1.569-1.639c0-0.78-0.5-1.439-1.569-1.439h-1.519
		c-0.2,0-0.311-0.19-0.311-0.35v-2.639c0-0.1,0.08-0.19,0.19-0.19h3.019c0.109,0,0.189,0.09,0.189,0.19v0.29
		c0,0.1-0.08,0.19-0.189,0.19h-2.539v1.839h1.159c1.51,0,2.309,0.79,2.309,2.099c0,1.25-0.969,2.289-2.318,2.289
		c-1.109,0-1.679-0.53-1.929-0.83C333.214,80.374,333.204,80.304,333.324,80.184z"/>
	<path fill="#878787" d="M338.484,80.224l0.271-0.23c0.109-0.08,0.189-0.06,0.27,0.05c0.09,0.11,0.63,0.69,1.489,0.69
		c0.76,0,1.439-0.46,1.439-1.25c0-0.68-0.53-1.309-1.77-1.309h-0.56c-0.11,0-0.189-0.06-0.189-0.22v-0.24
		c0-0.16,0.05-0.22,0.209-0.22h0.55c1.069,0,1.59-0.55,1.59-1.209c0-0.79-0.6-1.27-1.31-1.27c-0.68,0-1.09,0.4-1.31,0.65
		c-0.06,0.07-0.16,0.11-0.26,0.02l-0.24-0.19c-0.079-0.07-0.069-0.19,0-0.26c0,0,0.72-0.879,1.81-0.879
		c1.209,0,2.059,0.709,2.059,1.829c0,0.77-0.579,1.37-1.029,1.579v0.03c0.47,0.2,1.199,0.759,1.199,1.619
		c0,1.089-0.84,1.939-2.219,1.939c-1.229,0-1.789-0.64-2.009-0.89C338.415,80.394,338.404,80.284,338.484,80.224z"/>
	<path fill="#878787" d="M344.234,80.954l2.789-5.827h-3.269c-0.1,0-0.189-0.09-0.189-0.19v-0.29c0-0.1,0.09-0.19,0.189-0.19h4.018
		c0.101,0,0.19,0.09,0.19,0.19v0.07l-2.919,6.277c-0.04,0.09-0.14,0.26-0.329,0.26h-0.29c-0.101,0-0.19-0.09-0.19-0.19V80.954z"/>
	<path fill="#B7B7B7" d="M213.794,86.447c0-0.1,0.08-0.19,0.19-0.19h2.208c1.229,0,2.239,1,2.239,2.208
		c0,1.24-1.009,2.249-2.229,2.249h-1.649v2.349c0,0.1-0.09,0.19-0.189,0.19h-0.38c-0.11,0-0.19-0.09-0.19-0.19V86.447z
		 M216.143,89.975c0.819,0,1.519-0.669,1.519-1.529c0-0.81-0.7-1.43-1.519-1.43h-1.589v2.958H216.143z"/>
	<path fill="#B7B7B7" d="M220.724,89.156c1.049,0,1.809,0.779,1.809,1.829c0,0.07-0.01,0.2-0.02,0.27c-0.01,0.1-0.09,0.17-0.18,0.17
		h-2.878c0.04,0.67,0.63,1.299,1.339,1.299c0.42,0,0.759-0.16,0.989-0.3c0.14-0.08,0.2-0.13,0.28-0.02
		c0.06,0.08,0.11,0.15,0.17,0.23c0.07,0.09,0.11,0.15-0.04,0.26c-0.24,0.19-0.779,0.46-1.469,0.46c-1.209,0-1.959-0.95-1.959-2.099
		C218.765,90.125,219.515,89.156,220.724,89.156z M221.843,90.865c-0.03-0.58-0.51-1.1-1.119-1.1c-0.67,0-1.189,0.48-1.26,1.1
		H221.843z"/>
	<path fill="#B7B7B7" d="M223.625,89.445c0-0.1,0.09-0.189,0.19-0.189h0.19c0.09,0,0.14,0.04,0.16,0.12l0.09,0.31
		c0,0,0.57-0.53,1.399-0.53c1.16,0,1.549,0.759,1.549,1.799v2.109c0,0.1-0.09,0.19-0.19,0.19h-0.32c-0.1,0-0.19-0.09-0.19-0.19
		v-2.109c0-0.759-0.34-1.129-0.899-1.129c-0.75,0-1.289,0.57-1.289,0.57v2.668c0,0.1-0.09,0.19-0.19,0.19h-0.31
		c-0.1,0-0.19-0.09-0.19-0.19V89.445z"/>
	<path fill="#B7B7B7" d="M228.574,89.445c0-0.1,0.09-0.189,0.19-0.189h0.19c0.09,0,0.14,0.04,0.16,0.12l0.09,0.31
		c0,0,0.57-0.53,1.399-0.53c1.16,0,1.549,0.759,1.549,1.799v2.109c0,0.1-0.09,0.19-0.19,0.19h-0.32c-0.1,0-0.19-0.09-0.19-0.19
		v-2.109c0-0.759-0.34-1.129-0.899-1.129c-0.75,0-1.289,0.57-1.289,0.57v2.668c0,0.1-0.09,0.19-0.19,0.19h-0.31
		c-0.1,0-0.19-0.09-0.19-0.19V89.445z"/>
	<path fill="#B7B7B7" d="M239.152,86.157c1.009,0,1.739,0.35,2.419,0.93c0.08,0.08,0.09,0.2,0.01,0.28
		c-0.09,0.09-0.2,0.19-0.28,0.28c-0.09,0.1-0.15,0.09-0.26-0.01c-0.51-0.45-1.229-0.78-1.899-0.78c-1.579,0-2.779,1.319-2.779,2.869
		c0,1.539,1.2,2.888,2.779,2.888c1.099,0,1.799-0.42,1.799-0.42v-1.399h-1.149c-0.11,0-0.19-0.08-0.19-0.18v-0.37
		c0-0.11,0.08-0.19,0.19-0.19h1.729c0.1,0,0.18,0.09,0.18,0.19v2.289c0,0.05-0.04,0.13-0.08,0.16c0,0-1.02,0.66-2.469,0.66
		c-1.999,0-3.608-1.589-3.608-3.588C235.544,87.767,237.153,86.157,239.152,86.157z"/>
	<path fill="#B7B7B7" d="M242.964,89.445c0-0.1,0.09-0.189,0.19-0.189h0.19c0.08,0,0.15,0.05,0.17,0.14l0.08,0.29
		c0,0,0.37-0.53,1.199-0.53c0.3,0,0.8,0.05,0.7,0.33l-0.12,0.34c-0.05,0.13-0.14,0.13-0.24,0.09c-0.09-0.04-0.24-0.08-0.39-0.08
		c-0.76,0-1.089,0.56-1.089,0.56v2.668c0,0.1-0.09,0.19-0.19,0.19h-0.31c-0.1,0-0.19-0.09-0.19-0.19V89.445z"/>
	<path fill="#B7B7B7" d="M247.613,90.715c0.43,0,0.85,0.13,0.85,0.13c0.01-0.74-0.08-1.08-0.65-1.08c-0.55,0-1.02,0.15-1.199,0.22
		c-0.1,0.04-0.16-0.01-0.19-0.1l-0.08-0.25c-0.04-0.12,0.02-0.18,0.11-0.22c0.06-0.03,0.64-0.26,1.389-0.26
		c1.02,0,1.27,0.52,1.27,1.689v2.219c0,0.1-0.09,0.19-0.19,0.19h-0.19c-0.11,0-0.14-0.06-0.17-0.15l-0.08-0.27
		c-0.209,0.21-0.62,0.52-1.239,0.52c-0.699,0-1.229-0.51-1.229-1.31C246.014,91.285,246.583,90.715,247.613,90.715z M247.353,92.754
		c0.5,0,0.93-0.31,1.1-0.56v-0.79c-0.12-0.07-0.4-0.16-0.839-0.16c-0.56,0-0.959,0.28-0.959,0.799
		C246.654,92.444,246.923,92.754,247.353,92.754z"/>
	<path fill="#B7B7B7" d="M250.504,89.445c0-0.1,0.09-0.189,0.19-0.189h0.19c0.09,0,0.14,0.04,0.16,0.12l0.09,0.31
		c0,0,0.57-0.53,1.399-0.53c1.16,0,1.549,0.759,1.549,1.799v2.109c0,0.1-0.09,0.19-0.19,0.19h-0.32c-0.1,0-0.19-0.09-0.19-0.19
		v-2.109c0-0.759-0.34-1.129-0.899-1.129c-0.75,0-1.289,0.57-1.289,0.57v2.668c0,0.1-0.09,0.19-0.19,0.19h-0.31
		c-0.1,0-0.19-0.09-0.19-0.19V89.445z"/>
	<path fill="#B7B7B7" d="M255.713,89.855h-0.509c-0.11,0-0.19-0.09-0.19-0.19v-0.22c0-0.11,0.08-0.189,0.19-0.189h0.509v-1.11
		c0-0.1,0.09-0.189,0.19-0.189l0.32-0.02c0.1,0,0.18,0.09,0.18,0.19v1.129h1.159c0.11,0,0.19,0.08,0.19,0.189v0.22
		c0,0.1-0.08,0.19-0.19,0.19h-1.159v2.338c0,0.4,0.1,0.48,0.33,0.48c0.25,0,0.6-0.15,0.729-0.22c0.15-0.08,0.19-0.02,0.24,0.06
		l0.15,0.25c0.07,0.12,0.04,0.18-0.07,0.25c-0.14,0.09-0.68,0.34-1.149,0.34c-0.8,0-0.92-0.48-0.92-1.1V89.855z"/>
	<path fill="#B7B7B7" d="M258.874,89.726c0-0.32,0.26-0.57,0.57-0.57c0.32,0,0.57,0.25,0.57,0.57c0,0.31-0.25,0.569-0.57,0.569
		C259.133,90.295,258.874,90.035,258.874,89.726z M259.443,92.214c0.32,0,0.57,0.25,0.57,0.57c0,0.31-0.25,0.57-0.57,0.57
		c-0.31,0-0.57-0.26-0.57-0.57C258.874,92.464,259.133,92.214,259.443,92.214z"/>
	<path fill="#878787" d="M263.463,92.204c0.16-0.19,0.29-0.46,0.5-0.28c0.06,0.06,0.649,0.629,1.419,0.739v-2.599
		c-1.059-0.419-1.749-0.869-1.879-1.769c-0.02-0.11-0.02-0.229-0.02-0.359c0-0.64,0.53-1.659,1.899-1.769v-0.32
		c0-0.11,0.09-0.19,0.19-0.19h0.07c0.1,0,0.18,0.08,0.18,0.19v0.32c0.87,0.07,1.499,0.5,1.499,0.5c0.06,0.03,0.18,0.15,0.06,0.34
		c-0.17,0.26-0.23,0.42-0.47,0.28c-0.06-0.03-0.56-0.36-1.089-0.439l-0.01,2.588c1.209,0.52,1.979,1.029,1.979,2.119
		c0,0.99-0.919,1.719-1.979,1.789v1.04c0,0.12-0.11,0.18-0.22,0.18c-0.1,0-0.21-0.06-0.21-0.18v-1.04
		c-1.049-0.09-1.739-0.689-1.859-0.799C263.443,92.474,263.344,92.394,263.463,92.204z M265.382,86.837
		c-0.849,0.09-1.159,0.7-1.159,1.089c0,0.62,0.43,1,1.159,1.33V86.837z M266.992,91.584c0-0.56-0.4-0.939-1.179-1.319v2.409
		C266.482,92.614,266.992,92.134,266.992,91.584z"/>
	<path fill="#878787" d="M268.833,92.184c0.08-0.07,0.15-0.15,0.23-0.22c0.09-0.08,0.17-0.1,0.25,0.01
		c0.1,0.14,0.58,0.74,1.479,0.74c0.959,0,1.569-0.85,1.569-1.639c0-0.78-0.5-1.439-1.569-1.439h-1.519c-0.2,0-0.31-0.19-0.31-0.35
		v-2.639c0-0.1,0.08-0.19,0.189-0.19h3.019c0.11,0,0.19,0.09,0.19,0.19v0.29c0,0.1-0.08,0.19-0.19,0.19h-2.539v1.839h1.159
		c1.509,0,2.309,0.79,2.309,2.099c0,1.25-0.97,2.289-2.319,2.289c-1.109,0-1.679-0.53-1.929-0.83
		C268.723,92.374,268.713,92.304,268.833,92.184z"/>
	<path fill="#878787" d="M273.994,92.224l0.27-0.23c0.11-0.08,0.19-0.06,0.27,0.05c0.09,0.11,0.629,0.69,1.489,0.69
		c0.759,0,1.439-0.46,1.439-1.25c0-0.68-0.53-1.309-1.769-1.309h-0.56c-0.11,0-0.19-0.06-0.19-0.22v-0.24
		c0-0.16,0.05-0.22,0.21-0.22h0.55c1.069,0,1.589-0.55,1.589-1.209c0-0.79-0.6-1.27-1.309-1.27c-0.68,0-1.089,0.4-1.31,0.65
		c-0.06,0.07-0.16,0.11-0.26,0.02l-0.24-0.19c-0.08-0.07-0.07-0.19,0-0.26c0,0,0.72-0.879,1.809-0.879
		c1.209,0,2.059,0.709,2.059,1.829c0,0.77-0.58,1.37-1.029,1.579v0.03c0.47,0.2,1.199,0.759,1.199,1.619
		c0,1.089-0.839,1.939-2.219,1.939c-1.229,0-1.789-0.64-2.009-0.89C273.923,92.394,273.914,92.284,273.994,92.224z"/>
	<path fill="#878787" d="M279.953,92.214c0.32,0,0.66,0.18,0.66,0.899c0,0.83-0.52,1.549-0.839,1.849c-0.1,0.09-0.18,0.08-0.24,0.02
		l-0.14-0.14c-0.05-0.05-0.04-0.15,0.06-0.24s0.62-0.53,0.62-1.259c-0.04,0.01-0.08,0.01-0.12,0.01c-0.31,0-0.569-0.26-0.569-0.57
		C279.383,92.464,279.643,92.214,279.953,92.214z"/>
	<path fill="#878787" d="M281.683,89.855c0-2.189,0.879-3.498,2.429-3.498s2.429,1.309,2.429,3.498c0,2.188-0.879,3.498-2.429,3.498
		S281.683,92.044,281.683,89.855z M285.831,89.855c0-1.809-0.62-2.849-1.719-2.849c-1.099,0-1.719,1.04-1.719,2.849
		c0,1.829,0.62,2.848,1.719,2.848C285.211,92.704,285.831,91.684,285.831,89.855z"/>
	<path fill="#878787" d="M287.923,92.184c0.08-0.07,0.15-0.15,0.23-0.22c0.09-0.08,0.17-0.1,0.25,0.01
		c0.1,0.14,0.58,0.74,1.479,0.74c0.959,0,1.569-0.85,1.569-1.639c0-0.78-0.5-1.439-1.569-1.439h-1.519c-0.2,0-0.31-0.19-0.31-0.35
		v-2.639c0-0.1,0.08-0.19,0.189-0.19h3.019c0.11,0,0.19,0.09,0.19,0.19v0.29c0,0.1-0.08,0.19-0.19,0.19h-2.539v1.839h1.159
		c1.509,0,2.309,0.79,2.309,2.099c0,1.25-0.97,2.289-2.319,2.289c-1.109,0-1.679-0.53-1.929-0.83
		C287.813,92.374,287.803,92.304,287.923,92.184z"/>
	<path fill="#878787" d="M293.333,89.855c0-2.189,0.879-3.498,2.429-3.498s2.429,1.309,2.429,3.498c0,2.188-0.88,3.498-2.429,3.498
		S293.333,92.044,293.333,89.855z M297.481,89.855c0-1.809-0.62-2.849-1.719-2.849c-1.099,0-1.719,1.04-1.719,2.849
		c0,1.829,0.62,2.848,1.719,2.848C296.861,92.704,297.481,91.684,297.481,89.855z"/>
	<path fill="#B7B7B7" d="M216.873,98.157c1.999,0,3.598,1.609,3.598,3.608c0,1.999-1.599,3.588-3.598,3.588
		s-3.588-1.589-3.588-3.588C213.285,99.767,214.874,98.157,216.873,98.157z M216.873,104.654c1.589,0,2.898-1.299,2.898-2.889
		c0-1.589-1.309-2.908-2.898-2.908c-1.589,0-2.888,1.319-2.888,2.908C213.984,103.354,215.284,104.654,216.873,104.654z"/>
	<path fill="#B7B7B7" d="M221.535,101.445c0-0.1,0.09-0.189,0.19-0.189h0.32c0.1,0,0.19,0.09,0.19,0.189v2.109
		c0,0.76,0.34,1.129,0.899,1.129c0.76,0,1.189-0.569,1.189-0.569c0-0.22,0-0.45,0-2.669c0-0.1,0.09-0.189,0.19-0.189h0.31
		c0.1,0,0.19,0.09,0.19,0.189v3.618c0,0.1-0.09,0.19-0.19,0.19h-0.19c-0.11,0-0.15-0.07-0.18-0.17l-0.07-0.26
		c0,0-0.47,0.53-1.299,0.53c-1.16,0-1.549-0.75-1.549-1.809V101.445z"/>
	<path fill="#B7B7B7" d="M226.694,101.855h-0.509c-0.11,0-0.19-0.09-0.19-0.19v-0.22c0-0.11,0.08-0.189,0.19-0.189h0.509v-1.11
		c0-0.1,0.09-0.189,0.19-0.189l0.32-0.02c0.1,0,0.18,0.09,0.18,0.19v1.129h1.159c0.11,0,0.19,0.08,0.19,0.189v0.22
		c0,0.1-0.08,0.19-0.19,0.19h-1.159v2.338c0,0.4,0.1,0.48,0.33,0.48c0.25,0,0.6-0.15,0.729-0.22c0.15-0.08,0.19-0.02,0.24,0.06
		l0.15,0.25c0.07,0.12,0.04,0.18-0.07,0.25c-0.14,0.09-0.68,0.34-1.149,0.34c-0.8,0-0.92-0.48-0.92-1.1V101.855z"/>
	<path fill="#B7B7B7" d="M229.614,104.694c0.04-0.06,0.11-0.2,0.14-0.25c0.05-0.08,0.16-0.1,0.27-0.03c0,0,0.43,0.35,0.939,0.35
		c0.41,0,0.65-0.21,0.65-0.479c0-0.35-0.3-0.51-0.879-0.8c-0.53-0.26-1.14-0.61-1.14-1.289c0-0.42,0.34-1.04,1.27-1.04
		c0.52,0,0.919,0.18,1.109,0.31c0.09,0.06,0.12,0.2,0.06,0.31l-0.08,0.16c-0.06,0.11-0.2,0.14-0.29,0.09c0,0-0.43-0.24-0.799-0.24
		c-0.45,0-0.57,0.23-0.57,0.4c0,0.33,0.33,0.48,0.74,0.68c0.689,0.33,1.309,0.64,1.309,1.359c0,0.58-0.56,1.129-1.379,1.129
		c-0.669,0-1.079-0.28-1.299-0.45C229.614,104.864,229.584,104.764,229.614,104.694z"/>
	<path fill="#B7B7B7" d="M233.274,98.937c0-0.27,0.21-0.48,0.47-0.48c0.27,0,0.479,0.21,0.479,0.48c0,0.26-0.21,0.47-0.479,0.47
		C233.484,99.407,233.274,99.197,233.274,98.937z M233.414,101.445c0-0.1,0.09-0.189,0.19-0.189h0.31c0.1,0,0.19,0.09,0.19,0.189
		v3.618c0,0.1-0.09,0.19-0.19,0.19h-0.31c-0.1,0-0.19-0.09-0.19-0.19V101.445z"/>
	<path fill="#B7B7B7" d="M237.153,101.156c0.66,0,1.069,0.26,1.069,0.26v-2.968c0-0.1,0.09-0.19,0.19-0.19h0.31
		c0.1,0,0.19,0.09,0.19,0.19v6.616c0,0.1-0.09,0.19-0.19,0.19h-0.21c-0.09,0-0.15-0.07-0.17-0.16l-0.06-0.27
		c0,0-0.48,0.53-1.229,0.53c-1.02,0-1.819-0.959-1.819-2.109C235.234,102.075,235.954,101.156,237.153,101.156z M237.123,104.724
		c0.72,0,1.089-0.66,1.089-0.66v-1.999c0,0-0.419-0.24-0.969-0.24c-0.87,0-1.309,0.63-1.309,1.429
		C235.934,104.034,236.394,104.724,237.123,104.724z"/>
	<path fill="#B7B7B7" d="M242.013,101.156c1.049,0,1.809,0.779,1.809,1.829c0,0.07-0.01,0.2-0.02,0.27
		c-0.01,0.1-0.09,0.17-0.18,0.17h-2.878c0.04,0.67,0.63,1.299,1.339,1.299c0.42,0,0.759-0.16,0.989-0.3
		c0.14-0.08,0.2-0.13,0.28-0.02c0.06,0.08,0.11,0.15,0.17,0.23c0.07,0.09,0.11,0.15-0.04,0.26c-0.24,0.19-0.779,0.46-1.469,0.46
		c-1.209,0-1.959-0.95-1.959-2.099C240.054,102.125,240.804,101.156,242.013,101.156z M243.132,102.865
		c-0.03-0.58-0.51-1.1-1.119-1.1c-0.67,0-1.189,0.48-1.26,1.1H243.132z"/>
	<path fill="#B7B7B7" d="M250.542,98.157c1.009,0,1.739,0.35,2.419,0.93c0.08,0.08,0.09,0.2,0.01,0.28
		c-0.09,0.09-0.2,0.19-0.28,0.28c-0.09,0.1-0.15,0.09-0.26-0.01c-0.51-0.45-1.229-0.78-1.899-0.78c-1.579,0-2.779,1.319-2.779,2.869
		c0,1.539,1.2,2.888,2.779,2.888c1.099,0,1.799-0.42,1.799-0.42v-1.399h-1.149c-0.11,0-0.19-0.08-0.19-0.18v-0.37
		c0-0.11,0.08-0.19,0.19-0.19h1.729c0.1,0,0.18,0.09,0.18,0.19v2.289c0,0.05-0.04,0.13-0.08,0.16c0,0-1.02,0.66-2.469,0.66
		c-1.999,0-3.608-1.589-3.608-3.588C246.934,99.767,248.542,98.157,250.542,98.157z"/>
	<path fill="#B7B7B7" d="M254.353,101.445c0-0.1,0.09-0.189,0.19-0.189h0.19c0.08,0,0.15,0.05,0.17,0.14l0.08,0.29
		c0,0,0.37-0.53,1.199-0.53c0.3,0,0.8,0.05,0.7,0.33l-0.12,0.34c-0.05,0.13-0.14,0.13-0.24,0.09c-0.09-0.04-0.24-0.08-0.39-0.08
		c-0.76,0-1.089,0.56-1.089,0.56v2.668c0,0.1-0.09,0.19-0.19,0.19h-0.31c-0.1,0-0.19-0.09-0.19-0.19V101.445z"/>
	<path fill="#B7B7B7" d="M259.002,102.715c0.43,0,0.85,0.13,0.85,0.13c0.01-0.74-0.08-1.08-0.65-1.08c-0.55,0-1.02,0.15-1.199,0.22
		c-0.1,0.04-0.16-0.01-0.19-0.1l-0.08-0.25c-0.04-0.12,0.02-0.18,0.11-0.22c0.06-0.03,0.64-0.26,1.389-0.26
		c1.02,0,1.27,0.52,1.27,1.689v2.219c0,0.1-0.09,0.19-0.19,0.19h-0.19c-0.11,0-0.14-0.06-0.17-0.15l-0.08-0.27
		c-0.209,0.21-0.62,0.52-1.239,0.52c-0.699,0-1.229-0.51-1.229-1.31C257.403,103.285,257.973,102.715,259.002,102.715z
		 M258.743,104.754c0.5,0,0.929-0.31,1.099-0.56v-0.79c-0.12-0.07-0.4-0.16-0.839-0.16c-0.56,0-0.959,0.28-0.959,0.799
		C258.043,104.444,258.312,104.754,258.743,104.754z"/>
	<path fill="#B7B7B7" d="M261.893,101.445c0-0.1,0.09-0.189,0.19-0.189h0.19c0.09,0,0.14,0.04,0.16,0.12l0.09,0.31
		c0,0,0.57-0.53,1.399-0.53c1.16,0,1.549,0.759,1.549,1.799v2.109c0,0.1-0.09,0.19-0.19,0.19h-0.32c-0.1,0-0.19-0.09-0.19-0.19
		v-2.109c0-0.759-0.34-1.129-0.899-1.129c-0.75,0-1.289,0.57-1.289,0.57v2.668c0,0.1-0.09,0.19-0.19,0.19h-0.31
		c-0.1,0-0.19-0.09-0.19-0.19V101.445z"/>
	<path fill="#B7B7B7" d="M267.103,101.855h-0.509c-0.11,0-0.19-0.09-0.19-0.19v-0.22c0-0.11,0.08-0.189,0.19-0.189h0.509v-1.11
		c0-0.1,0.09-0.189,0.19-0.189l0.32-0.02c0.1,0,0.18,0.09,0.18,0.19v1.129h1.159c0.11,0,0.19,0.08,0.19,0.189v0.22
		c0,0.1-0.08,0.19-0.19,0.19h-1.159v2.338c0,0.4,0.1,0.48,0.33,0.48c0.25,0,0.6-0.15,0.73-0.22c0.15-0.08,0.189-0.02,0.24,0.06
		l0.15,0.25c0.07,0.12,0.04,0.18-0.07,0.25c-0.14,0.09-0.679,0.34-1.149,0.34c-0.8,0-0.92-0.48-0.92-1.1V101.855z"/>
	<path fill="#B7B7B7" d="M270.263,101.726c0-0.32,0.26-0.57,0.57-0.57c0.32,0,0.57,0.25,0.57,0.57c0,0.31-0.25,0.569-0.57,0.569
		C270.522,102.295,270.263,102.035,270.263,101.726z M270.833,104.214c0.32,0,0.57,0.25,0.57,0.57c0,0.31-0.25,0.57-0.57,0.57
		c-0.31,0-0.57-0.26-0.57-0.57C270.263,104.464,270.522,104.214,270.833,104.214z"/>
	<path fill="#878787" d="M274.853,104.204c0.16-0.19,0.29-0.46,0.5-0.28c0.06,0.06,0.649,0.629,1.419,0.739v-2.599
		c-1.059-0.419-1.749-0.869-1.879-1.769c-0.02-0.11-0.02-0.229-0.02-0.359c0-0.64,0.53-1.659,1.899-1.769v-0.32
		c0-0.11,0.09-0.19,0.19-0.19h0.07c0.1,0,0.18,0.08,0.18,0.19v0.32c0.87,0.07,1.499,0.5,1.499,0.5c0.06,0.03,0.18,0.15,0.06,0.34
		c-0.17,0.26-0.23,0.42-0.47,0.28c-0.06-0.03-0.56-0.36-1.089-0.439l-0.01,2.588c1.209,0.52,1.979,1.029,1.979,2.119
		c0,0.99-0.919,1.719-1.979,1.789v1.04c0,0.12-0.11,0.18-0.22,0.18c-0.1,0-0.21-0.06-0.21-0.18v-1.04
		c-1.049-0.09-1.739-0.689-1.859-0.799C274.833,104.474,274.733,104.394,274.853,104.204z M276.771,98.837
		c-0.849,0.09-1.159,0.7-1.159,1.089c0,0.62,0.43,1,1.159,1.33V98.837z M278.381,103.584c0-0.56-0.4-0.939-1.179-1.319v2.409
		C277.871,104.614,278.381,104.134,278.381,103.584z"/>
	<path fill="#878787" d="M280.052,104.224l0.27-0.23c0.11-0.08,0.19-0.06,0.27,0.05c0.09,0.11,0.629,0.69,1.489,0.69
		c0.759,0,1.439-0.46,1.439-1.25c0-0.68-0.53-1.309-1.769-1.309h-0.56c-0.11,0-0.19-0.06-0.19-0.22v-0.24
		c0-0.16,0.05-0.22,0.21-0.22h0.55c1.069,0,1.589-0.55,1.589-1.209c0-0.79-0.6-1.27-1.309-1.27c-0.68,0-1.089,0.4-1.31,0.65
		c-0.06,0.07-0.16,0.11-0.26,0.02l-0.24-0.19c-0.08-0.07-0.07-0.19,0-0.26c0,0,0.72-0.879,1.809-0.879
		c1.209,0,2.059,0.709,2.059,1.829c0,0.77-0.58,1.37-1.029,1.579v0.03c0.47,0.2,1.199,0.759,1.199,1.619
		c0,1.089-0.839,1.939-2.219,1.939c-1.229,0-1.789-0.64-2.009-0.89C279.982,104.394,279.973,104.284,280.052,104.224z"/>
	<path fill="#878787" d="M286.352,104.793c0.45-0.15,2.219-1.139,2.569-2.488c0,0-0.66,0.45-1.519,0.45
		c-1.129,0-2.149-0.84-2.149-2.169c0-1.259,1.009-2.289,2.208-2.289c1.619,0,2.329,1.259,2.329,2.848
		c0,2.659-2.279,3.878-3.289,4.278c-0.1,0.04-0.18-0.01-0.22-0.1l-0.11-0.24C286.122,104.963,286.162,104.854,286.352,104.793z
		 M289.05,101.456c0.17-1-0.22-2.499-1.589-2.499c-0.839,0-1.499,0.729-1.499,1.589c0,0.87,0.67,1.559,1.509,1.559
		C288.401,102.105,289.05,101.456,289.05,101.456z"/>
	<path fill="#878787" d="M290.743,104.764c0.819-0.879,1.629-1.769,2.449-2.648c0.679-0.74,1.009-1.339,1.009-1.809
		c0-0.57-0.37-1.27-1.399-1.27c-0.62,0-1.109,0.42-1.419,0.75c-0.08,0.08-0.19,0.08-0.27,0l-0.2-0.19
		c-0.06-0.07-0.08-0.18-0.01-0.26c0,0,0.709-0.979,1.899-0.979c1.429,0,2.159,0.909,2.159,1.929c0,0.879-0.56,1.529-1.25,2.269
		c-0.64,0.68-1.279,1.37-1.919,2.049h2.938c0.1,0,0.19,0.09,0.19,0.189v0.27c0,0.1-0.09,0.19-0.19,0.19h-3.798
		c-0.11,0-0.19-0.09-0.19-0.19V104.764z"/>
	<path fill="#B7B7B7" d="M213.145,110.497c-0.04-0.14,0.04-0.24,0.18-0.24h0.419c0.08,0,0.16,0.07,0.18,0.14l1.389,5.177h0.04
		l1.669-5.307c0.02-0.06,0.08-0.11,0.17-0.11h0.18c0.08,0,0.15,0.05,0.17,0.11l1.699,5.307h0.04l1.359-5.177
		c0.02-0.07,0.1-0.14,0.18-0.14h0.42c0.14,0,0.22,0.1,0.18,0.24l-1.889,6.716c-0.02,0.08-0.1,0.14-0.18,0.14h-0.16
		c-0.07,0-0.14-0.05-0.17-0.11l-1.729-5.407h-0.05l-1.699,5.407c-0.03,0.06-0.1,0.11-0.17,0.11h-0.16c-0.08,0-0.16-0.06-0.18-0.14
		L213.145,110.497z"/>
	<path fill="#B7B7B7" d="M223.684,113.156c1.109,0,1.989,0.959,1.989,2.089c0,1.149-0.879,2.109-1.989,2.109
		s-1.989-0.959-1.989-2.109C221.695,114.115,222.574,113.156,223.684,113.156z M223.684,116.704c0.729,0,1.299-0.649,1.299-1.459
		c0-0.79-0.57-1.429-1.299-1.429s-1.299,0.64-1.299,1.429C222.384,116.054,222.954,116.704,223.684,116.704z"/>
	<path fill="#B7B7B7" d="M226.804,113.445c0-0.1,0.09-0.189,0.19-0.189h0.19c0.08,0,0.15,0.05,0.17,0.14l0.08,0.29
		c0,0,0.37-0.53,1.199-0.53c0.3,0,0.8,0.05,0.7,0.33l-0.12,0.34c-0.05,0.13-0.14,0.13-0.24,0.09c-0.09-0.04-0.24-0.08-0.39-0.08
		c-0.76,0-1.089,0.56-1.089,0.56v2.668c0,0.1-0.09,0.19-0.19,0.19h-0.31c-0.1,0-0.19-0.09-0.19-0.19V113.445z"/>
	<path fill="#B7B7B7" d="M230.154,110.447c0-0.1,0.09-0.19,0.19-0.19h0.31c0.1,0,0.19,0.09,0.19,0.19v4.328l1.699-1.399
		c0.08-0.07,0.16-0.12,0.24-0.12h0.54c0.17,0,0.16,0.189,0.09,0.25l-1.899,1.519l2.209,1.979c0.08,0.07,0.07,0.25-0.1,0.25h-0.549
		c-0.09,0-0.16-0.05-0.2-0.08l-2.029-1.929v1.819c0,0.1-0.09,0.19-0.19,0.19h-0.31c-0.1,0-0.19-0.09-0.19-0.19V110.447z"/>
	<path fill="#B7B7B7" d="M234.624,113.726c0-0.32,0.26-0.57,0.57-0.57c0.32,0,0.57,0.25,0.57,0.57c0,0.31-0.25,0.569-0.57,0.569
		C234.884,114.295,234.624,114.035,234.624,113.726z M235.194,116.214c0.32,0,0.57,0.25,0.57,0.57c0,0.31-0.25,0.57-0.57,0.57
		c-0.31,0-0.57-0.26-0.57-0.57C234.624,116.464,234.884,116.214,235.194,116.214z"/>
	<path fill="#878787" d="M239.214,116.204c0.16-0.19,0.29-0.46,0.5-0.28c0.06,0.06,0.649,0.629,1.419,0.739v-2.599
		c-1.059-0.419-1.749-0.869-1.879-1.769c-0.02-0.11-0.02-0.229-0.02-0.359c0-0.64,0.53-1.659,1.899-1.769v-0.32
		c0-0.11,0.09-0.19,0.19-0.19h0.07c0.1,0,0.18,0.08,0.18,0.19v0.32c0.87,0.07,1.499,0.5,1.499,0.5c0.06,0.03,0.18,0.15,0.06,0.34
		c-0.17,0.26-0.23,0.42-0.47,0.28c-0.06-0.03-0.56-0.36-1.089-0.439l-0.01,2.588c1.209,0.52,1.979,1.029,1.979,2.119
		c0,0.99-0.919,1.719-1.979,1.789v1.04c0,0.12-0.11,0.18-0.22,0.18c-0.1,0-0.21-0.06-0.21-0.18v-1.04
		c-1.049-0.09-1.739-0.689-1.859-0.799C239.194,116.474,239.094,116.394,239.214,116.204z M241.133,110.837
		c-0.849,0.09-1.159,0.7-1.159,1.089c0,0.62,0.43,1,1.159,1.33V110.837z M242.742,115.584c0-0.56-0.4-0.939-1.179-1.319v2.409
		C242.232,116.614,242.742,116.134,242.742,115.584z"/>
	<path fill="#878787" d="M244.414,116.224l0.27-0.23c0.11-0.08,0.19-0.06,0.27,0.05c0.09,0.11,0.629,0.69,1.489,0.69
		c0.759,0,1.439-0.46,1.439-1.25c0-0.68-0.53-1.309-1.769-1.309h-0.56c-0.11,0-0.19-0.06-0.19-0.22v-0.24
		c0-0.16,0.05-0.22,0.21-0.22h0.55c1.069,0,1.589-0.55,1.589-1.209c0-0.79-0.6-1.27-1.309-1.27c-0.68,0-1.089,0.4-1.31,0.65
		c-0.06,0.07-0.16,0.11-0.26,0.02l-0.24-0.19c-0.08-0.07-0.07-0.19,0-0.26c0,0,0.72-0.879,1.809-0.879
		c1.209,0,2.059,0.709,2.059,1.829c0,0.77-0.58,1.37-1.029,1.579v0.03c0.47,0.2,1.199,0.759,1.199,1.619
		c0,1.089-0.839,1.939-2.219,1.939c-1.229,0-1.789-0.64-2.009-0.89C244.344,116.394,244.334,116.284,244.414,116.224z"/>
	<path fill="#878787" d="M250.374,116.214c0.319,0,0.659,0.18,0.659,0.899c0,0.83-0.52,1.549-0.839,1.849
		c-0.1,0.09-0.18,0.08-0.24,0.02l-0.14-0.14c-0.05-0.05-0.04-0.15,0.06-0.24s0.62-0.53,0.62-1.259c-0.04,0.01-0.08,0.01-0.12,0.01
		c-0.31,0-0.57-0.26-0.57-0.57C249.804,116.464,250.063,116.214,250.374,116.214z"/>
	<path fill="#878787" d="M252.823,111.696l-0.72,0.56c-0.08,0.06-0.16,0.07-0.23-0.01l-0.19-0.21c-0.07-0.08-0.03-0.17,0.02-0.22
		l1.399-1.359h0.27c0.1,0,0.18,0.09,0.18,0.19v6.417c0,0.1-0.08,0.19-0.18,0.19h-0.36c-0.11,0-0.19-0.09-0.19-0.19V111.696z"/>
	<path fill="#878787" d="M256.053,116.793c0.45-0.15,2.219-1.139,2.569-2.488c0,0-0.66,0.45-1.519,0.45
		c-1.129,0-2.149-0.84-2.149-2.169c0-1.259,1.009-2.289,2.208-2.289c1.619,0,2.329,1.259,2.329,2.848
		c0,2.659-2.279,3.878-3.289,4.278c-0.1,0.04-0.18-0.01-0.22-0.1l-0.11-0.24C255.823,116.963,255.863,116.854,256.053,116.793z
		 M258.751,113.456c0.17-1-0.22-2.499-1.589-2.499c-0.839,0-1.499,0.729-1.499,1.589c0,0.87,0.67,1.559,1.509,1.559
		C258.102,114.105,258.751,113.456,258.751,113.456z"/>
	<path fill="#878787" d="M260.673,116.184c0.08-0.07,0.15-0.15,0.23-0.22c0.09-0.08,0.17-0.1,0.25,0.01
		c0.1,0.14,0.58,0.74,1.479,0.74c0.959,0,1.569-0.85,1.569-1.639c0-0.78-0.5-1.439-1.569-1.439h-1.519c-0.2,0-0.31-0.19-0.31-0.35
		v-2.639c0-0.1,0.08-0.19,0.189-0.19h3.019c0.11,0,0.19,0.09,0.19,0.19v0.29c0,0.1-0.08,0.19-0.19,0.19h-2.539v1.839h1.159
		c1.509,0,2.309,0.79,2.309,2.099c0,1.25-0.97,2.289-2.319,2.289c-1.109,0-1.679-0.53-1.929-0.83
		C260.563,116.374,260.554,116.304,260.673,116.184z"/>
	<path fill="#B7B7B7" d="M215.388,124.624h-2.262c-0.143,0-0.247-0.117-0.247-0.247V124c0-0.13,0.104-0.247,0.247-0.247h5.512
		c0.143,0,0.247,0.117,0.247,0.247v0.377c0,0.13-0.104,0.247-0.247,0.247h-2.262v7.982c0,0.13-0.117,0.247-0.247,0.247h-0.494
		c-0.13,0-0.247-0.117-0.247-0.247V124.624z"/>
	<path fill="#B7B7B7" d="M221.212,127.523c1.443,0,2.587,1.248,2.587,2.717c0,1.495-1.144,2.743-2.587,2.743
		c-1.443,0-2.587-1.248-2.587-2.743C218.625,128.771,219.769,127.523,221.212,127.523z M221.212,132.139
		c0.949,0,1.69-0.845,1.69-1.898c0-1.027-0.741-1.859-1.69-1.859c-0.949,0-1.69,0.832-1.69,1.859
		C219.522,131.293,220.263,132.139,221.212,132.139z"/>
	<path fill="#B7B7B7" d="M225.606,128.434h-0.663c-0.143,0-0.247-0.117-0.247-0.247V127.9c0-0.143,0.104-0.247,0.247-0.247h0.663
		v-1.443c0-0.13,0.117-0.247,0.247-0.247l0.416-0.026c0.13,0,0.234,0.117,0.234,0.247v1.469h1.508c0.143,0,0.247,0.104,0.247,0.247
		v0.286c0,0.13-0.104,0.247-0.247,0.247h-1.508v3.042c0,0.52,0.13,0.624,0.429,0.624c0.325,0,0.78-0.195,0.949-0.286
		c0.195-0.104,0.247-0.026,0.312,0.078l0.195,0.325c0.091,0.156,0.052,0.234-0.091,0.325c-0.182,0.117-0.884,0.442-1.495,0.442
		c-1.04,0-1.196-0.624-1.196-1.43V128.434z"/>
	<path fill="#B7B7B7" d="M231.417,129.551c0.559,0,1.105,0.169,1.105,0.169c0.013-0.962-0.104-1.404-0.845-1.404
		c-0.715,0-1.326,0.195-1.56,0.286c-0.13,0.052-0.208-0.013-0.247-0.13l-0.104-0.325c-0.052-0.156,0.026-0.234,0.143-0.286
		c0.078-0.039,0.832-0.338,1.807-0.338c1.326,0,1.651,0.676,1.651,2.197v2.886c0,0.13-0.117,0.247-0.247,0.247h-0.247
		c-0.143,0-0.182-0.078-0.221-0.195l-0.104-0.351c-0.273,0.273-0.806,0.676-1.612,0.676c-0.91,0-1.599-0.663-1.599-1.703
		C229.337,130.292,230.078,129.551,231.417,129.551z M231.079,132.204c0.65,0,1.209-0.403,1.43-0.728v-1.027
		c-0.156-0.091-0.52-0.208-1.092-0.208c-0.728,0-1.248,0.364-1.248,1.04C230.169,131.8,230.52,132.204,231.079,132.204z"/>
	<path fill="#B7B7B7" d="M235.187,124c0-0.13,0.117-0.247,0.247-0.247h0.403c0.13,0,0.247,0.117,0.247,0.247v8.606
		c0,0.13-0.117,0.247-0.247,0.247h-0.403c-0.13,0-0.247-0.117-0.247-0.247V124z"/>
	<path fill="#B7B7B7" d="M237.943,128.264c0-0.416,0.338-0.741,0.741-0.741c0.416,0,0.741,0.325,0.741,0.741
		c0,0.403-0.325,0.741-0.741,0.741C238.281,129.005,237.943,128.667,237.943,128.264z M238.684,131.501
		c0.416,0,0.741,0.325,0.741,0.741c0,0.403-0.325,0.741-0.741,0.741c-0.403,0-0.741-0.338-0.741-0.741
		C237.943,131.827,238.281,131.501,238.684,131.501z"/>
	<path fill="#878787" d="M243.91,131.488c0.208-0.247,0.377-0.598,0.65-0.364c0.078,0.078,0.845,0.819,1.846,0.962v-3.38
		c-1.378-0.546-2.275-1.131-2.444-2.301c-0.026-0.143-0.026-0.299-0.026-0.468c0-0.832,0.689-2.158,2.47-2.301v-0.416
		c0-0.143,0.117-0.247,0.247-0.247h0.091c0.13,0,0.234,0.104,0.234,0.247v0.416c1.131,0.091,1.95,0.65,1.95,0.65
		c0.078,0.039,0.234,0.195,0.078,0.442c-0.221,0.338-0.299,0.546-0.611,0.364c-0.078-0.039-0.728-0.468-1.417-0.572l-0.013,3.367
		c1.573,0.676,2.574,1.339,2.574,2.756c0,1.287-1.196,2.236-2.574,2.327v1.352c0,0.156-0.143,0.234-0.286,0.234
		c-0.13,0-0.273-0.078-0.273-0.234v-1.352c-1.365-0.117-2.262-0.897-2.418-1.04C243.884,131.839,243.754,131.735,243.91,131.488z
		 M246.406,124.507c-1.105,0.117-1.508,0.91-1.508,1.417c0,0.806,0.559,1.3,1.508,1.729V124.507z M248.499,130.683
		c0-0.728-0.52-1.222-1.534-1.716v3.133C247.836,132.021,248.499,131.397,248.499,130.683z"/>
	<path fill="#878787" d="M250.891,131.462c0.104-0.091,0.195-0.195,0.299-0.286c0.117-0.104,0.221-0.13,0.325,0.013
		c0.13,0.182,0.754,0.962,1.924,0.962c1.248,0,2.041-1.105,2.041-2.132c0-1.014-0.65-1.872-2.041-1.872h-1.976
		c-0.26,0-0.403-0.247-0.403-0.455v-3.432c0-0.13,0.104-0.247,0.247-0.247h3.926c0.143,0,0.247,0.117,0.247,0.247v0.377
		c0,0.13-0.104,0.247-0.247,0.247h-3.302v2.392h1.508c1.963,0,3.003,1.027,3.003,2.73c0,1.625-1.261,2.977-3.016,2.977
		c-1.443,0-2.185-0.689-2.509-1.079C250.748,131.709,250.735,131.619,250.891,131.462z"/>
	<path fill="#878787" d="M261.941,123.714c0.13-0.052,0.234,0.013,0.286,0.13l0.143,0.312c0.065,0.156,0.013,0.299-0.234,0.377
		c-0.585,0.195-2.886,1.482-3.341,3.237c0,0,0.858-0.585,1.977-0.585c1.469,0,2.795,1.092,2.795,2.821
		c0,1.638-1.313,2.977-2.873,2.977c-2.106,0-3.029-1.638-3.029-3.705C257.664,125.82,260.628,124.234,261.941,123.714z
		 M262.643,130.059c0-1.131-0.871-2.028-1.963-2.028c-1.209,0-2.054,0.845-2.054,0.845c-0.221,1.3,0.286,3.25,2.067,3.25
		C261.785,132.125,262.643,131.176,262.643,130.059z"/>
	<path fill="#878787" d="M265.49,131.501c0.416,0,0.858,0.234,0.858,1.17c0,1.079-0.676,2.015-1.092,2.405
		c-0.13,0.117-0.234,0.104-0.312,0.026l-0.182-0.182c-0.065-0.065-0.052-0.195,0.078-0.312c0.13-0.117,0.806-0.689,0.806-1.638
		c-0.052,0.013-0.104,0.013-0.156,0.013c-0.403,0-0.741-0.338-0.741-0.741C264.749,131.827,265.087,131.501,265.49,131.501z"/>
	<path fill="#878787" d="M271.886,123.714c0.13-0.052,0.234,0.013,0.286,0.13l0.143,0.312c0.065,0.156,0.013,0.299-0.234,0.377
		c-0.585,0.195-2.886,1.482-3.341,3.237c0,0,0.858-0.585,1.976-0.585c1.469,0,2.795,1.092,2.795,2.821
		c0,1.638-1.313,2.977-2.873,2.977c-2.106,0-3.029-1.638-3.029-3.705C267.608,125.82,270.573,124.234,271.886,123.714z
		 M272.587,130.059c0-1.131-0.871-2.028-1.963-2.028c-1.209,0-2.054,0.845-2.054,0.845c-0.221,1.3,0.286,3.25,2.067,3.25
		C271.729,132.125,272.587,131.176,272.587,130.059z"/>
	<path fill="#878787" d="M274.603,131.515l0.351-0.299c0.143-0.104,0.247-0.078,0.351,0.065c0.117,0.143,0.819,0.897,1.937,0.897
		c0.988,0,1.872-0.598,1.872-1.625c0-0.884-0.689-1.703-2.301-1.703h-0.728c-0.143,0-0.247-0.078-0.247-0.286v-0.312
		c0-0.208,0.065-0.286,0.273-0.286h0.715c1.391,0,2.067-0.715,2.067-1.573c0-1.027-0.78-1.651-1.703-1.651
		c-0.884,0-1.417,0.52-1.703,0.845c-0.078,0.091-0.208,0.143-0.338,0.026l-0.312-0.247c-0.104-0.091-0.091-0.247,0-0.338
		c0,0,0.936-1.144,2.353-1.144c1.573,0,2.678,0.923,2.678,2.379c0,1.001-0.754,1.781-1.339,2.054v0.039
		c0.611,0.26,1.56,0.988,1.56,2.106c0,1.417-1.092,2.522-2.886,2.522c-1.599,0-2.327-0.832-2.613-1.157
		C274.512,131.735,274.499,131.592,274.603,131.515z"/>
	<path fill="#878787" d="M282.078,132.463l3.627-7.579h-4.251c-0.13,0-0.247-0.117-0.247-0.247v-0.377
		c0-0.13,0.117-0.247,0.247-0.247h5.226c0.13,0,0.247,0.117,0.247,0.247v0.091l-3.796,8.165c-0.052,0.117-0.182,0.338-0.429,0.338
		h-0.377c-0.13,0-0.247-0.117-0.247-0.247V132.463z"/>
	<path fill="#B7B7B7" d="M213.794,137.938c0-0.1,0.09-0.18,0.19-0.18h0.25l4.508,5.617c0.01,0,0.01,0,0.02,0v-5.327
		c0-0.1,0.08-0.19,0.19-0.19h0.35c0.1,0,0.19,0.09,0.19,0.19v6.726c0,0.1-0.09,0.18-0.19,0.18h-0.18l-4.588-5.727h-0.01v5.437
		c0,0.1-0.08,0.19-0.19,0.19h-0.35c-0.1,0-0.19-0.09-0.19-0.19V137.938z"/>
	<path fill="#B7B7B7" d="M221.024,141.045c0-0.1,0.09-0.19,0.19-0.19h0.32c0.1,0,0.19,0.09,0.19,0.19v2.109
		c0,0.76,0.34,1.129,0.899,1.129c0.76,0,1.189-0.569,1.189-0.569c0-0.22,0-0.45,0-2.669c0-0.1,0.09-0.19,0.19-0.19h0.31
		c0.1,0,0.19,0.09,0.19,0.19v3.618c0,0.1-0.09,0.19-0.19,0.19h-0.19c-0.11,0-0.15-0.07-0.18-0.17l-0.07-0.26
		c0,0-0.47,0.53-1.299,0.53c-1.16,0-1.549-0.75-1.549-1.809V141.045z"/>
	<path fill="#B7B7B7" d="M225.924,141.045c0-0.1,0.09-0.19,0.19-0.19h0.19c0.09,0,0.14,0.04,0.16,0.12l0.09,0.31
		c0,0,0.47-0.53,1.299-0.53c0.589,0,1.02,0.23,1.279,0.649c0.05-0.04,0.689-0.649,1.489-0.649c1.159,0,1.549,0.759,1.549,1.799
		v2.109c0,0.1-0.09,0.19-0.19,0.19h-0.32c-0.1,0-0.19-0.09-0.19-0.19v-2.109c0-0.75-0.32-1.129-0.899-1.129
		c-0.649,0-1.079,0.43-1.219,0.56c0.03,0.17,0.05,0.36,0.05,0.57v2.109c0,0.1-0.09,0.19-0.19,0.19h-0.319
		c-0.1,0-0.19-0.09-0.19-0.19v-2.109c0-0.759-0.34-1.129-0.95-1.129c-0.709,0-1.139,0.57-1.139,0.57v2.668
		c0,0.1-0.09,0.19-0.19,0.19h-0.31c-0.1,0-0.19-0.09-0.19-0.19V141.045z"/>
	<path fill="#B7B7B7" d="M233.555,138.047c0-0.1,0.09-0.19,0.19-0.19h0.31c0.1,0,0.19,0.09,0.19,0.19v2.968
		c0,0,0.41-0.26,1.069-0.26c1.2,0,1.919,0.919,1.919,2.089c0,1.149-0.799,2.109-1.819,2.109c-0.75,0-1.229-0.53-1.229-0.53
		l-0.06,0.27c-0.02,0.09-0.08,0.16-0.169,0.16h-0.21c-0.1,0-0.19-0.09-0.19-0.19V138.047z M235.344,144.324
		c0.729,0,1.189-0.689,1.189-1.469c0-0.799-0.439-1.429-1.309-1.429c-0.55,0-0.969,0.24-0.969,0.24v1.999
		C234.254,143.664,234.624,144.324,235.344,144.324z"/>
	<path fill="#B7B7B7" d="M240.034,140.756c1.049,0,1.809,0.779,1.809,1.829c0,0.07-0.01,0.2-0.02,0.27
		c-0.01,0.1-0.09,0.17-0.18,0.17h-2.878c0.04,0.67,0.63,1.299,1.339,1.299c0.42,0,0.759-0.16,0.989-0.3
		c0.14-0.08,0.2-0.13,0.28-0.02c0.06,0.08,0.11,0.15,0.17,0.23c0.07,0.09,0.11,0.15-0.04,0.26c-0.24,0.19-0.779,0.46-1.469,0.46
		c-1.209,0-1.959-0.95-1.959-2.099C238.075,141.725,238.824,140.756,240.034,140.756z M241.153,142.465
		c-0.03-0.58-0.51-1.1-1.119-1.1c-0.67,0-1.189,0.48-1.26,1.1H241.153z"/>
	<path fill="#B7B7B7" d="M242.934,141.045c0-0.1,0.09-0.19,0.19-0.19h0.19c0.08,0,0.15,0.05,0.17,0.14l0.08,0.29
		c0,0,0.37-0.53,1.199-0.53c0.3,0,0.8,0.05,0.7,0.33l-0.12,0.34c-0.05,0.13-0.14,0.13-0.24,0.09c-0.09-0.04-0.24-0.08-0.39-0.08
		c-0.76,0-1.089,0.56-1.089,0.56v2.668c0,0.1-0.09,0.19-0.19,0.19h-0.31c-0.1,0-0.19-0.09-0.19-0.19V141.045z"/>
	<path fill="#B7B7B7" d="M250.193,140.756c1.109,0,1.989,0.959,1.989,2.089c0,1.149-0.879,2.109-1.989,2.109
		s-1.989-0.959-1.989-2.109C248.204,141.715,249.083,140.756,250.193,140.756z M250.193,144.304c0.729,0,1.299-0.649,1.299-1.459
		c0-0.79-0.57-1.429-1.299-1.429s-1.299,0.64-1.299,1.429C248.894,143.654,249.463,144.304,250.193,144.304z"/>
	<path fill="#B7B7B7" d="M253.633,141.456h-0.609c-0.11,0-0.19-0.09-0.19-0.19v-0.22c0-0.11,0.08-0.19,0.19-0.19h0.609v-1.399
		c0-1.16,0.67-1.699,1.529-1.699c0.55,0,0.919,0.24,1.1,0.41c0.07,0.06,0.08,0.16,0.04,0.23l-0.16,0.26
		c-0.06,0.1-0.16,0.09-0.26,0.01c-0.13-0.1-0.43-0.29-0.729-0.29c-0.46,0-0.83,0.31-0.83,1.08v1.399h1.159
		c0.11,0,0.19,0.08,0.19,0.19v0.22c0,0.1-0.08,0.19-0.19,0.19h-1.159v3.208c0,0.1-0.09,0.19-0.19,0.19h-0.31
		c-0.1,0-0.19-0.09-0.19-0.19V141.456z"/>
	<path fill="#B7B7B7" d="M258.493,144.294c0.04-0.06,0.11-0.2,0.14-0.25c0.05-0.08,0.16-0.1,0.27-0.03c0,0,0.43,0.35,0.939,0.35
		c0.41,0,0.65-0.21,0.65-0.479c0-0.35-0.3-0.51-0.879-0.8c-0.53-0.26-1.14-0.61-1.14-1.289c0-0.42,0.34-1.04,1.27-1.04
		c0.52,0,0.919,0.18,1.109,0.31c0.09,0.06,0.12,0.2,0.06,0.31l-0.08,0.16c-0.06,0.11-0.2,0.14-0.29,0.09c0,0-0.43-0.24-0.799-0.24
		c-0.45,0-0.57,0.23-0.57,0.4c0,0.33,0.33,0.48,0.74,0.68c0.689,0.33,1.309,0.64,1.309,1.359c0,0.58-0.56,1.129-1.379,1.129
		c-0.669,0-1.079-0.28-1.299-0.45C258.493,144.464,258.463,144.364,258.493,144.294z"/>
	<path fill="#B7B7B7" d="M262.553,141.456h-0.509c-0.11,0-0.19-0.09-0.19-0.19v-0.22c0-0.11,0.08-0.19,0.19-0.19h0.509v-1.109
		c0-0.1,0.09-0.189,0.19-0.189l0.32-0.02c0.1,0,0.18,0.09,0.18,0.19v1.129h1.159c0.11,0,0.19,0.08,0.19,0.19v0.22
		c0,0.1-0.08,0.19-0.19,0.19h-1.159v2.338c0,0.4,0.1,0.48,0.33,0.48c0.25,0,0.6-0.15,0.73-0.22c0.15-0.08,0.189-0.02,0.24,0.06
		l0.15,0.25c0.07,0.12,0.04,0.18-0.07,0.25c-0.14,0.09-0.679,0.34-1.149,0.34c-0.8,0-0.92-0.48-0.92-1.1V141.456z"/>
	<path fill="#B7B7B7" d="M265.663,141.045c0-0.1,0.09-0.19,0.19-0.19h0.32c0.1,0,0.19,0.09,0.19,0.19v2.109
		c0,0.76,0.34,1.129,0.899,1.129c0.76,0,1.189-0.569,1.189-0.569c0-0.22,0-0.45,0-2.669c0-0.1,0.09-0.19,0.19-0.19h0.31
		c0.1,0,0.19,0.09,0.19,0.19v3.618c0,0.1-0.09,0.19-0.19,0.19h-0.19c-0.11,0-0.15-0.07-0.18-0.17l-0.07-0.26
		c0,0-0.47,0.53-1.299,0.53c-1.16,0-1.549-0.75-1.549-1.809V141.045z"/>
	<path fill="#B7B7B7" d="M272.192,140.756c0.66,0,1.069,0.26,1.069,0.26v-2.968c0-0.1,0.09-0.19,0.19-0.19h0.31
		c0.1,0,0.19,0.09,0.19,0.19v6.616c0,0.1-0.09,0.19-0.19,0.19h-0.21c-0.09,0-0.15-0.07-0.17-0.16l-0.06-0.27
		c0,0-0.48,0.53-1.229,0.53c-1.02,0-1.819-0.959-1.819-2.109C270.273,141.675,270.993,140.756,272.192,140.756z M272.162,144.324
		c0.72,0,1.089-0.66,1.089-0.66v-1.999c0,0-0.419-0.24-0.969-0.24c-0.87,0-1.309,0.63-1.309,1.429
		C270.973,143.634,271.433,144.324,272.162,144.324z"/>
	<path fill="#B7B7B7" d="M277.052,140.756c1.049,0,1.809,0.779,1.809,1.829c0,0.07-0.01,0.2-0.02,0.27
		c-0.01,0.1-0.09,0.17-0.18,0.17h-2.878c0.04,0.67,0.63,1.299,1.339,1.299c0.42,0,0.759-0.16,0.989-0.3
		c0.14-0.08,0.2-0.13,0.28-0.02c0.06,0.08,0.11,0.15,0.17,0.23c0.07,0.09,0.11,0.15-0.04,0.26c-0.24,0.19-0.779,0.46-1.469,0.46
		c-1.209,0-1.959-0.95-1.959-2.099C275.093,141.725,275.843,140.756,277.052,140.756z M278.171,142.465
		c-0.03-0.58-0.51-1.1-1.119-1.1c-0.67,0-1.189,0.48-1.26,1.1H278.171z"/>
	<path fill="#B7B7B7" d="M279.953,141.045c0-0.1,0.09-0.19,0.19-0.19h0.19c0.09,0,0.14,0.04,0.16,0.12l0.09,0.31
		c0,0,0.57-0.53,1.399-0.53c1.16,0,1.549,0.759,1.549,1.799v2.109c0,0.1-0.09,0.19-0.19,0.19h-0.32c-0.1,0-0.19-0.09-0.19-0.19
		v-2.109c0-0.759-0.34-1.129-0.899-1.129c-0.75,0-1.289,0.57-1.289,0.57v2.668c0,0.1-0.09,0.19-0.19,0.19h-0.31
		c-0.1,0-0.19-0.09-0.19-0.19V141.045z"/>
	<path fill="#B7B7B7" d="M285.163,141.456h-0.509c-0.11,0-0.19-0.09-0.19-0.19v-0.22c0-0.11,0.08-0.19,0.19-0.19h0.509v-1.109
		c0-0.1,0.09-0.189,0.19-0.189l0.32-0.02c0.1,0,0.18,0.09,0.18,0.19v1.129h1.159c0.11,0,0.19,0.08,0.19,0.19v0.22
		c0,0.1-0.08,0.19-0.19,0.19h-1.159v2.338c0,0.4,0.1,0.48,0.33,0.48c0.25,0,0.6-0.15,0.729-0.22c0.15-0.08,0.19-0.02,0.24,0.06
		l0.15,0.25c0.07,0.12,0.04,0.18-0.07,0.25c-0.14,0.09-0.68,0.34-1.149,0.34c-0.8,0-0.92-0.48-0.92-1.1V141.456z"/>
	<path fill="#B7B7B7" d="M288.083,144.294c0.04-0.06,0.11-0.2,0.14-0.25c0.05-0.08,0.16-0.1,0.27-0.03c0,0,0.43,0.35,0.939,0.35
		c0.41,0,0.65-0.21,0.65-0.479c0-0.35-0.3-0.51-0.879-0.8c-0.53-0.26-1.14-0.61-1.14-1.289c0-0.42,0.34-1.04,1.27-1.04
		c0.52,0,0.919,0.18,1.109,0.31c0.09,0.06,0.12,0.2,0.06,0.31l-0.08,0.16c-0.06,0.11-0.2,0.14-0.29,0.09c0,0-0.43-0.24-0.799-0.24
		c-0.45,0-0.57,0.23-0.57,0.4c0,0.33,0.33,0.48,0.74,0.68c0.689,0.33,1.309,0.64,1.309,1.359c0,0.58-0.56,1.129-1.379,1.129
		c-0.669,0-1.079-0.28-1.299-0.45C288.083,144.464,288.053,144.364,288.083,144.294z"/>
	<path fill="#B7B7B7" d="M294.103,141.045c0-0.1,0.09-0.19,0.19-0.19h0.19c0.08,0,0.15,0.05,0.17,0.14l0.08,0.29
		c0,0,0.37-0.53,1.199-0.53c0.3,0,0.8,0.05,0.7,0.33l-0.12,0.34c-0.05,0.13-0.14,0.13-0.24,0.09c-0.09-0.04-0.24-0.08-0.39-0.08
		c-0.76,0-1.089,0.56-1.089,0.56v2.668c0,0.1-0.09,0.19-0.19,0.19h-0.31c-0.1,0-0.19-0.09-0.19-0.19V141.045z"/>
	<path fill="#B7B7B7" d="M299.082,140.756c1.05,0,1.81,0.779,1.81,1.829c0,0.07-0.011,0.2-0.021,0.27c-0.01,0.1-0.09,0.17-0.18,0.17
		h-2.878c0.039,0.67,0.629,1.299,1.339,1.299c0.42,0,0.76-0.16,0.989-0.3c0.14-0.08,0.2-0.13,0.28-0.02
		c0.06,0.08,0.109,0.15,0.17,0.23c0.069,0.09,0.109,0.15-0.04,0.26c-0.24,0.19-0.78,0.46-1.47,0.46c-1.209,0-1.958-0.95-1.958-2.099
		C297.123,141.725,297.873,140.756,299.082,140.756z M300.202,142.465c-0.03-0.58-0.51-1.1-1.12-1.1c-0.669,0-1.189,0.48-1.259,1.1
		H300.202z"/>
	<path fill="#B7B7B7" d="M303.742,140.756c0.6,0,1.069,0.24,1.429,0.7c0.07,0.09,0.051,0.209-0.04,0.28l-0.189,0.16
		c-0.15,0.14-0.2,0.04-0.29-0.04c-0.199-0.229-0.529-0.419-0.919-0.419c-0.75,0-1.33,0.62-1.33,1.419c0,0.8,0.57,1.439,1.319,1.439
		c0.6,0,0.83-0.3,1.06-0.52c0.12-0.12,0.19-0.1,0.3-0.02l0.11,0.08c0.1,0.07,0.13,0.18,0.07,0.28c-0.301,0.48-0.85,0.84-1.529,0.84
		c-1.109,0-2.049-0.89-2.049-2.089C301.683,141.685,302.652,140.756,303.742,140.756z"/>
	<path fill="#B7B7B7" d="M306.252,138.537c0-0.27,0.21-0.48,0.47-0.48c0.271,0,0.48,0.21,0.48,0.48c0,0.26-0.21,0.47-0.48,0.47
		C306.462,139.007,306.252,138.797,306.252,138.537z M306.393,141.045c0-0.1,0.09-0.19,0.189-0.19h0.31c0.101,0,0.19,0.09,0.19,0.19
		v3.618c0,0.1-0.09,0.19-0.19,0.19h-0.31c-0.1,0-0.189-0.09-0.189-0.19V141.045z"/>
	<path fill="#B7B7B7" d="M310.172,140.756c1.049,0,1.809,0.779,1.809,1.829c0,0.07-0.01,0.2-0.02,0.27
		c-0.011,0.1-0.09,0.17-0.18,0.17h-2.879c0.04,0.67,0.63,1.299,1.339,1.299c0.42,0,0.76-0.16,0.99-0.3
		c0.14-0.08,0.199-0.13,0.279-0.02c0.061,0.08,0.11,0.15,0.17,0.23c0.07,0.09,0.11,0.15-0.04,0.26
		c-0.239,0.19-0.779,0.46-1.469,0.46c-1.21,0-1.959-0.95-1.959-2.099C308.213,141.725,308.962,140.756,310.172,140.756z
		 M311.292,142.465c-0.03-0.58-0.51-1.1-1.119-1.1c-0.67,0-1.189,0.48-1.26,1.1H311.292z"/>
	<path fill="#B7B7B7" d="M312.524,141.085c-0.061-0.13,0-0.23,0.149-0.23h0.311c0.09,0,0.149,0.05,0.18,0.11l1.239,2.858h0.01
		l1.319-2.858c0.03-0.06,0.09-0.11,0.17-0.11h0.26c0.15,0,0.21,0.1,0.15,0.23l-1.709,3.768c-0.021,0.05-0.08,0.1-0.17,0.1h-0.051
		c-0.09,0-0.149-0.05-0.17-0.1L312.524,141.085z"/>
	<path fill="#B7B7B7" d="M317.043,138.537c0-0.27,0.21-0.48,0.47-0.48c0.271,0,0.48,0.21,0.48,0.48c0,0.26-0.21,0.47-0.48,0.47
		C317.253,139.007,317.043,138.797,317.043,138.537z M317.184,141.045c0-0.1,0.09-0.19,0.189-0.19h0.31c0.101,0,0.19,0.09,0.19,0.19
		v3.618c0,0.1-0.09,0.19-0.19,0.19h-0.31c-0.1,0-0.189-0.09-0.189-0.19V141.045z"/>
	<path fill="#B7B7B7" d="M319.294,141.045c0-0.1,0.09-0.19,0.189-0.19h0.19c0.09,0,0.14,0.04,0.159,0.12l0.09,0.31
		c0,0,0.57-0.53,1.399-0.53c1.159,0,1.55,0.759,1.55,1.799v2.109c0,0.1-0.091,0.19-0.19,0.19h-0.319c-0.101,0-0.19-0.09-0.19-0.19
		v-2.109c0-0.759-0.34-1.129-0.899-1.129c-0.75,0-1.289,0.57-1.289,0.57v2.668c0,0.1-0.09,0.19-0.19,0.19h-0.31
		c-0.1,0-0.189-0.09-0.189-0.19V141.045z"/>
	<path fill="#B7B7B7" d="M324.514,143.514c0,0-0.32-0.41-0.32-1c0-0.929,0.65-1.759,1.689-1.759h1.689
		c0.109,0,0.189,0.08,0.189,0.19v0.17c0,0.07-0.04,0.16-0.109,0.17l-0.54,0.11c0,0,0.449,0.33,0.449,1.119
		c0,0.91-0.649,1.699-1.679,1.699c-0.64,0-0.949-0.25-0.949-0.25s-0.44,0.2-0.44,0.6c0,0.25,0.181,0.49,0.55,0.49h1.439
		c0.84,0,1.499,0.41,1.499,1.279c0,0.83-0.859,1.619-2.068,1.619c-1.34,0-1.919-0.719-1.919-1.379c0-0.6,0.479-0.87,0.579-0.93
		v-0.03c-0.26-0.07-0.729-0.33-0.729-0.95C323.844,143.904,324.514,143.514,324.514,143.514z M325.904,147.302
		c0.659,0,1.339-0.37,1.339-0.95c0-0.13-0.06-0.649-0.76-0.649c-0.37,0-0.739,0-1.109,0c0,0-0.67,0.18-0.67,0.77
		C324.704,146.952,325.224,147.302,325.904,147.302z M326.893,142.495c0-0.66-0.4-1.119-1-1.119c-0.609,0-1.049,0.459-1.049,1.119
		s0.439,1.12,1.049,1.12C326.493,143.614,326.893,143.154,326.893,142.495z"/>
	<path fill="#B7B7B7" d="M332.363,142.315c0.43,0,0.85,0.13,0.85,0.13c0.01-0.74-0.08-1.08-0.649-1.08c-0.55,0-1.02,0.15-1.199,0.22
		c-0.1,0.04-0.16-0.01-0.19-0.1l-0.079-0.25c-0.04-0.12,0.02-0.18,0.109-0.22c0.061-0.03,0.64-0.26,1.39-0.26
		c1.02,0,1.27,0.52,1.27,1.689v2.219c0,0.1-0.091,0.19-0.19,0.19h-0.189c-0.11,0-0.141-0.06-0.17-0.15l-0.08-0.27
		c-0.21,0.21-0.62,0.52-1.239,0.52c-0.7,0-1.229-0.51-1.229-1.31C330.764,142.885,331.333,142.315,332.363,142.315z
		 M332.103,144.354c0.5,0,0.93-0.31,1.1-0.56v-0.79c-0.12-0.07-0.399-0.16-0.84-0.16c-0.56,0-0.959,0.28-0.959,0.799
		C331.404,144.044,331.673,144.354,332.103,144.354z"/>
	<path fill="#B7B7B7" d="M335.114,138.537c0-0.27,0.21-0.48,0.47-0.48c0.271,0,0.48,0.21,0.48,0.48c0,0.26-0.21,0.47-0.48,0.47
		C335.324,139.007,335.114,138.797,335.114,138.537z M335.254,141.045c0-0.1,0.09-0.19,0.189-0.19h0.31c0.101,0,0.19,0.09,0.19,0.19
		v3.618c0,0.1-0.09,0.19-0.19,0.19h-0.31c-0.1,0-0.189-0.09-0.189-0.19V141.045z"/>
	<path fill="#B7B7B7" d="M338.994,140.756c0.659,0,1.069,0.26,1.069,0.26v-2.968c0-0.1,0.09-0.19,0.189-0.19h0.311
		c0.1,0,0.189,0.09,0.189,0.19v6.616c0,0.1-0.09,0.19-0.189,0.19h-0.21c-0.09,0-0.15-0.07-0.17-0.16l-0.061-0.27
		c0,0-0.479,0.53-1.229,0.53c-1.02,0-1.819-0.959-1.819-2.109C337.075,141.675,337.794,140.756,338.994,140.756z M338.963,144.324
		c0.72,0,1.09-0.66,1.09-0.66v-1.999c0,0-0.42-0.24-0.97-0.24c-0.869,0-1.31,0.63-1.31,1.429
		C337.774,143.634,338.234,144.324,338.963,144.324z"/>
	<path fill="#B7B7B7" d="M342.185,141.326c0-0.32,0.26-0.57,0.569-0.57c0.319,0,0.569,0.25,0.569,0.57
		c0,0.31-0.25,0.569-0.569,0.569C342.445,141.895,342.185,141.635,342.185,141.326z M342.754,143.814c0.319,0,0.569,0.25,0.569,0.57
		c0,0.31-0.25,0.57-0.569,0.57c-0.31,0-0.569-0.26-0.569-0.57C342.185,144.064,342.445,143.814,342.754,143.814z"/>
	<path fill="#878787" d="M348.083,141.355v-0.03c-0.45-0.21-1.029-0.77-1.029-1.54c0-1.099,0.869-1.829,2.059-1.829
		c1.209,0,2.079,0.729,2.079,1.829c0,0.77-0.58,1.33-1.029,1.54v0.03c0.47,0.2,1.209,0.81,1.209,1.669
		c0,1.089-0.85,1.929-2.269,1.929c-1.38,0-2.229-0.84-2.229-1.929C346.875,142.165,347.614,141.555,348.083,141.355z
		 M349.103,144.354c0.859,0,1.519-0.47,1.519-1.259c0-0.62-0.549-1.25-1.499-1.35c-0.959,0.1-1.499,0.729-1.499,1.35
		C347.624,143.864,348.313,144.354,349.103,144.354z M350.452,139.816c0-0.75-0.579-1.259-1.369-1.259
		c-0.72,0-1.289,0.51-1.289,1.259c0,0.62,0.399,1.099,1.329,1.189C350.042,140.916,350.452,140.436,350.452,139.816z"/>
</g>
</svg>
