<?xml version="1.0" encoding="utf-8"?>
<!-- Generator: Adobe Illustrator 16.0.0, SVG Export Plug-In . SVG Version: 6.00 Build 0)  -->
<!DOCTYPE svg PUBLIC "-//W3C//DTD SVG 1.1//EN" "http://www.w3.org/Graphics/SVG/1.1/DTD/svg11.dtd">
<svg version="1.1" id="Layer_1" xmlns="http://www.w3.org/2000/svg" xmlns:xlink="http://www.w3.org/1999/xlink" x="0px" y="0px"
	 width="400px" height="400px" viewBox="0 0 400 400" enable-background="new 0 0 400 400" xml:space="preserve">
<g>
	<polygon fill="#EEDFA2" points="302.497,220.369 306.84,219.783 305.357,218.303 	"/>
	<polygon fill="#EEDFA2" points="343.265,218.504 341.293,221.074 343.655,223.24 344.343,220.771 	"/>
	<polygon fill="#EEDFA2" points="332.309,226.889 329.932,223.045 327.968,224.426 329.449,226.502 	"/>
	<polygon fill="#EEDFA2" points="341.092,228.764 342.379,230.244 345.433,229.17 341.293,226.502 	"/>
	<polygon fill="#EEDFA2" points="323.428,214.152 323.816,215.451 327.077,217.709 327.179,214.744 329.253,212.371 
		325.697,212.471 	"/>
	<polygon fill="#EEDFA2" points="299.351,215.947 295.538,214.914 293.262,217.141 298.318,216.84 	"/>
	<polygon fill="#EEDFA2" points="270.92,217.916 277.433,218.209 279.215,218.807 283.945,217.613 285.729,218.504 290.261,216.428 
		293.812,212.578 291.251,211.799 290.558,210.117 288.885,209.32 283.255,210.117 273.286,209.236 272.201,211.195 
		269.827,212.371 270.127,214.262 269.735,215.633 	"/>
	<polygon fill="#EEDFA2" points="253.441,214.57 251.906,212.936 251.015,213.377 252.057,215.309 253.941,216.094 255.67,214.865 	
		"/>
	<polygon fill="#EEDFA2" points="257.595,207.838 256.406,205.881 250.873,202.715 248.806,202.715 245.455,201.621 
		243.184,201.725 239.526,199.944 235.687,197.679 233.021,197.679 234.889,196.984 238.752,198.078 244.666,198.654 
		247.033,197.773 245.259,196.397 243.682,196.697 239.238,195.805 237.066,191.564 234.6,191.564 233.408,192.053 231.638,190.771 
		220.186,188.301 218.899,189.082 216.332,188.403 211.796,189.184 210.366,191.787 210.758,193.169 209.376,195.747 
		210.463,197.918 209.573,200.873 207.402,201.959 207.004,203.041 208.291,205.9 208.188,208.172 207.991,209.85 204.738,213.305 
		204.97,214.828 206.467,214.947 207.949,218.014 207.06,220.273 209.526,221.264 210.218,222.646 211.991,223.547 213.668,219.486 
		217.032,215.043 216.63,213.678 217.818,211.688 219.4,213.176 221.268,213.377 222.948,210.018 224.92,211.195 225.115,213.865 
		226.708,214.863 230.347,213.865 234.007,210.506 237.952,209.814 242.199,210.41 244.861,209.416 246.83,210.998 249.995,211.195 
		253.844,212.188 254.634,210.018 256.31,210.018 	"/>
	<polygon fill="#EEDFA2" points="143.301,213.77 140.733,209.52 130.273,208.936 125.142,210.018 122.082,209.709 119.813,210.209 
		118.236,212.471 120.797,214.445 122.571,213.865 124.258,214.656 125.83,218.209 127.706,219.688 130.866,219.588 
		133.043,221.264 136.289,221.367 136.391,218.504 138.76,218.504 139.846,219.783 141.231,219.395 142.317,217.113 
		144.193,218.111 148.729,218.111 149.026,216.83 146.754,214.445 	"/>
	<polygon fill="#EEDFA2" points="194.823,205.582 194.229,203.506 191.564,201.52 189.204,202.715 190.974,204.193 	"/>
	<path fill="#EEDFA2" d="M207.991,209.85l0.197-1.678l0.103-2.271l-1.287-2.859l0.398-1.082l2.171-1.086l0.89-2.954l-1.087-2.172
		l1.382-2.577l-0.392-1.382l-0.048,0.076l-2.468-0.6l-2.367,0.497l-2.372-2.374l-5.822-0.699l-1.678,0.997l-2.366-0.793h-5.134
		l-0.79,1.477c0.102,0,2.766,1.592,2.766,1.592l7.303,2.46l-0.794,1.384l0.985,2.173l-0.985,3.448l1.287,2.375l2.563,0.686
		l2.962,2.674l-0.692,1.672l-5.623-0.191l-1.085,0.775l-2.368-0.684l-3.26,0.301l-2.86-1.195l-3.355,1.398l-0.196-1.398
		l-1.188-0.479l-4.24,1.08l-2.269-2.182l-2.865,1.473l-1.094,1.686l0.996,2.271l3.256,0.406l3.356,3.842l1.476,0.492l0.302-2.369
		l1.468-1.184h6.038l2.559,1.387l7.502,0.184l1.384-0.889l2.266,1.1l2.056,0.172l-0.231-1.523L207.991,209.85z"/>
	<polygon fill="#EEDFA2" points="201.541,187.123 196.793,184.345 194.331,185.729 196.401,187.211 	"/>
	<polygon fill="#EEDFA2" points="156.226,190.776 163.261,189.148 164.201,187.618 165.904,187.907 167.877,186.323 
		172.516,186.914 175.975,186.03 177.45,183.269 176.271,181.978 173.803,181.691 172.125,177.932 166.096,175.474 158.993,175.474 
		157.119,174.778 158.592,173.391 159.592,170.033 157.915,169.448 155.636,170.34 153.067,170.144 148.138,166.495 
		146.754,167.776 144.59,165.799 140.932,163.037 138.76,165.298 137.681,164.017 138.271,162.345 136.787,161.658 135.902,163.325 
		134.225,161.56 128.993,160.372 125.532,157.108 122.389,155.343 118.926,152.666 111.328,152.284 108.558,150.989 
		107.575,148.028 104.414,144.583 101.947,145.167 100.668,143.584 90.506,142.104 87.143,143.39 82.905,142.512 80.427,139.549 
		74.114,138.456 68.588,138.658 65.822,140.924 58.324,141.319 52.601,142.702 50.524,144.583 44.705,146.253 42.729,148.626 
		40.266,150.005 39.868,153.163 41.453,155.25 40.762,156.523 38.491,155.25 33.647,158.102 31.678,157.503 31.57,159.281 
		34.143,160.562 36.899,157.406 37.89,158 37.992,160.165 41.357,158.199 43.712,158 46.48,153.752 50.037,154.452 51.415,153.268 
		53.192,154.652 55.957,154.152 60.005,149.207 62.374,148.723 64.042,146.843 67.793,147.442 70.459,147.35 76.48,148.028 
		78.058,149.508 76.48,150.808 73.422,150.505 71.353,151.982 73.422,153.659 81.522,154.949 83.195,154.346 85.661,154.346 
		87.834,156.222 91.681,156.718 93.559,156.625 94.573,155.131 96.355,156.461 96.552,157.956 101.007,161.166 104.529,161.755 
		106.011,160.917 108.341,162.89 110.912,162.5 112.949,163.436 116.754,162.149 118.389,162.744 120.617,170.903 125.181,176.296 
		127.406,176.345 128.397,175.453 131.467,177.292 136.312,177.341 137.019,178.715 139.237,179.509 138.889,182.17 
		135.433,183.012 130.866,187.123 130.765,189.591 135.525,190.43 138.741,188.753 141.123,189.738 147.812,188.203 
		151.521,188.655 	"/>
	<polygon fill="#EEDFA2" points="178.44,151.486 178.142,152.971 179.525,153.066 185.445,149.611 185.645,146.449 185.149,145.167 
		182.486,145.966 182.684,148.227 179.921,151.286 	"/>
	<polygon fill="#EEDFA2" points="194.131,165.103 195.611,166.003 195.611,163.516 	"/>
	<polygon fill="#EEDFA2" points="168.769,141.913 170.446,143.992 172.125,144.183 169.753,139.851 168.964,136.495 
		166.596,132.136 166.202,133.82 167.975,137.28 166.499,138.255 	"/>
	<polygon fill="#EEDFA2" points="165.838,119.627 163.11,117.655 162.673,119.335 164.742,121.712 165.287,125.467 164.153,126.74 
		165.337,128.287 168.556,128.03 168.706,126.412 166.583,122.542 	"/>
	<polygon fill="#EEDFA2" points="156.329,133.139 158.509,133.139 156.822,130.859 	"/>
	<polygon fill="#EEDFA2" points="192.652,151.881 193.834,153.268 196.401,153.066 198.965,154.244 199.159,153.163 
		195.019,150.808 	"/>
	<polygon fill="#EEDFA2" points="176.465,128.003 177.85,129.272 179.027,127.006 178.142,125.241 	"/>
	<polygon fill="#EEDFA2" points="177.256,142.901 177.062,144.583 178.735,146.547 180.798,146.946 180.51,144.67 	"/>
	<polygon fill="#EEDFA2" points="188.714,168.455 185.445,170.53 184.759,174.57 191.86,173.797 194.131,170.738 194.131,167.48 
		193.143,168.073 191.463,170.033 	"/>
	<polygon fill="#EEDFA2" points="152.114,105.927 151.817,107.923 155.087,109.15 157.119,112.024 156.176,114.081 154.545,114.927 
		155.732,116.312 157.271,115.873 158.36,111.624 155.92,108.1 	"/>
	<polygon fill="#EEDFA2" points="136.069,122.155 133.644,122.882 134.494,124.23 	"/>
	<polygon fill="#EEDFA2" points="132.999,123.88 131.764,124.917 133.247,125.609 	"/>
	<polygon fill="#EEDFA2" points="132.703,111.318 130.827,110.524 129.78,114.232 127.655,117.996 129.538,119.774 131.812,118.577 
		132.405,121.016 135.678,118.834 133.297,114.538 	"/>
	<polygon fill="#EEDFA2" points="134.237,132.394 136.514,131.941 137.747,129.511 137.019,127.733 137.359,125.857 
		136.264,124.719 132.751,126.642 132.854,129.015 	"/>
	<polygon fill="#EEDFA2" points="138.259,111.079 140.041,111.971 143.743,112.055 144.887,109.989 141.717,109.248 	"/>
	<polygon fill="#EEDFA2" points="148.332,88.918 146.354,87.623 145.871,84.966 141.717,82.106 137.873,82.195 142.019,83.58 
		142.513,86.342 145.578,90.297 143.791,91.977 144.59,94.54 143.6,99.076 145.871,96.717 145.668,94.341 148.332,92.665 	"/>
	<polygon fill="#EEDFA2" points="130.378,83.788 126.531,86.143 124.847,84.966 121.393,84.966 124.847,88.816 127.608,89.299 
		132.746,85.654 135.402,86.248 137.577,86.541 134.614,83.788 	"/>
	<polygon fill="#EEDFA2" points="249.995,297.852 251.174,300.123 253.055,300.424 254.634,302.49 255.228,300.225 252.65,297.658 	
		"/>
	<polygon fill="#EEDFA2" points="227.887,293.705 229.657,296.184 232.331,296.074 229.961,293.9 	"/>
	<path fill="#EEDFA2" d="M309.501,317.406l2.779,0.746l2.173-2.67l-1.188-1.828l-4.058,3.061l-1.335-1.779l-2.83,2.074
		c0.05-0.047,1.435,1.049,1.435,1.049L309.501,317.406z"/>
	<polygon fill="#EEDFA2" points="240.91,296.668 240.125,298.047 241.412,300.709 244.464,301.404 245.841,299.928 243.486,299.615 
			"/>
	<polygon fill="#EEDFA2" points="336.552,235.773 338.523,235.385 337.545,233.104 	"/>
	<polygon fill="#EEDFA2" points="343.361,238.928 342.477,241.699 345.93,246.934 347.709,241.793 345.137,238.83 	"/>
	<polygon fill="#EEDFA2" points="351.649,245.158 349.383,246.729 351.354,247.611 	"/>
	<polygon fill="#EEDFA2" points="347.611,238.643 349.184,241.504 352.342,241.793 350.368,236.059 	"/>
	<path fill="#EEDFA2" d="M348.098,257.184l2.558-0.594l-0.088-3.834l-2.07-2.174c-0.124,0.211-1.486,2.367-1.486,2.367
		L348.098,257.184z"/>
	<path fill="#EEDFA2" d="M348.497,250.582L348.497,250.582C348.509,250.555,348.509,250.551,348.497,250.582z"/>
	<polygon fill="#EEDFA2" points="352.736,268.744 354.906,269.82 355.103,267.359 353.725,262.42 348.098,260.949 348.098,263.117 
		351.552,266.664 350.957,268.545 	"/>
	<polygon fill="#EEDFA2" points="353.825,272.588 350.567,276.932 351.061,279.594 353.329,280.68 354.714,276.932 	"/>
	<polygon fill="#EEDFA2" points="371.11,285.717 372.844,288.143 376.268,288.037 376.169,285.467 373.688,283.092 	"/>
	<line fill="#EEDFA2" x1="347.611" y1="294.492" x2="347.619" y2="294.5"/>
	<polygon fill="#EEDFA2" points="349.968,282.258 349.077,289.369 351.157,285.314 	"/>
	<polygon fill="#EEDFA2" points="342.573,299.615 341.588,302.883 344.843,302.982 346.518,300.717 345.433,299.041 	"/>
	<path fill="#EEDFA2" d="M348.983,297.062l-1.364-2.562c-0.008,0.23-0.701,2.562-0.701,2.562H348.983z"/>
	<polygon fill="#EEDFA2" points="353.282,317.805 348.28,319.979 345.8,318.938 342.729,319.828 341.896,321.459 344.515,323.736 
		344.71,326.266 342.045,328.584 339.221,329.662 342.334,330.912 349.074,329.822 351.896,327.436 351.797,324.438 
		350.354,322.008 353.476,318.852 	"/>
	<polygon fill="#EEDFA2" points="357.488,314.309 354.665,315.58 356.998,316.578 	"/>
</g>
</svg>
