<?xml version="1.0" encoding="utf-8"?>
<!-- Generator: Adobe Illustrator 16.0.0, SVG Export Plug-In . SVG Version: 6.00 Build 0)  -->
<!DOCTYPE svg PUBLIC "-//W3C//DTD SVG 1.1//EN" "http://www.w3.org/Graphics/SVG/1.1/DTD/svg11.dtd">
<svg version="1.1" id="Layer_1" xmlns="http://www.w3.org/2000/svg" xmlns:xlink="http://www.w3.org/1999/xlink" x="0px" y="0px"
	 width="400px" height="400px" viewBox="0 0 400 400" enable-background="new 0 0 400 400" xml:space="preserve">
<g>
	<polygon fill="#EEDFA2" points="106.359,166.147 108.511,164.559 102.604,168.9 	"/>
	<polygon fill="#EEDFA2" points="354.146,316.996 356.794,314.902 358.28,309.667 361.387,304.14 359.439,298.758 358.744,295.947 
		359.657,292.183 357.889,290.605 354.935,288.902 354.16,286.58 350.28,282.078 341.261,276.783 335.977,275.528 326.491,275.528 
		323.388,274.784 322.143,272.758 318.883,271.352 316.701,271.651 310.644,276.009 304.111,277.563 290.909,284.252 
		287.025,287.966 283.291,288.438 276.294,288.122 268.831,282.995 263.87,280.672 262.615,281.763 265.107,283.312 
		265.107,285.509 261.684,286.105 258.114,284.252 257.023,282.526 257.874,281.678 259.361,281.218 258.182,279.871 
		256.475,280.034 253.827,279.171 251.489,276.685 250.622,274.301 246.836,274.138 244.821,275.521 244.972,279.258 
		242.329,282.202 241.713,285.617 244.197,286.411 246.836,290.144 243.424,292.773 242.483,296.188 242.614,298.462 
		244.01,300.554 247.056,300.24 250.708,300.853 254.684,300.146 256.704,298.684 258.576,300.694 258.336,302.271 260.762,302.963 
		268.614,304.053 269.639,309.578 272.348,315.125 275.782,317.152 279.357,316.996 280.688,314.42 279.202,312.783 
		280.614,310.518 283.496,310.987 284.812,312.783 284.041,315.125 285.128,319.492 284.352,322.628 285.744,325.03 
		291.818,325.961 294.394,321.924 297.352,318.862 301.235,319.492 303.428,318.798 303.731,314.42 300.39,311.453 296.803,308.881 
		295.165,305.375 295.875,302.963 299.457,301.091 306.224,299.62 312.303,294.067 312.072,292.038 310.812,291.045 
		311.287,286.898 317.744,283.467 322.961,282.995 325.689,284.477 329.585,288.291 332.464,288.844 336.202,293.848 
		337.683,297.824 339.936,299.62 341.261,298.52 344.063,295.261 346.393,295.177 347.414,298.138 345.62,299.991 343.438,300.298 
		339.855,305.679 338.144,307.335 339.936,312.941 344.772,319.656 349.232,323.659 352.049,317.152 	"/>
	<polygon fill="#EEDFA2" points="242.483,296.188 243.424,292.773 246.836,290.144 244.197,286.411 241.713,285.617 
		242.329,282.202 244.972,279.258 244.821,275.521 246.836,274.138 250.622,274.301 250.24,273.245 247.132,270.998 
		243.705,269.979 241.362,267.1 240.042,263.589 235.683,259.202 233.035,254.995 232.419,250.313 230.935,246.509 228.9,246.961 
		228.269,248.966 223.774,248.966 224.735,247.408 222.434,247.408 220.266,248.634 215.76,244.599 215.76,242.877 212.955,241.96 
		210.627,238.683 204.724,239.007 200.836,239.628 189.176,236.202 181.872,237.296 181.872,238.537 180.388,239.157 
		180.878,239.482 179.629,244.309 178.233,245.562 179.482,246.641 182.736,247.419 183.672,251.768 179.943,253.937 
		177.926,258.919 178.853,263.105 184.608,268.065 190.35,268.235 193.772,270.427 195.799,273.989 197.808,273.989 
		200.305,269.645 199.21,265.899 193.467,261.718 192.065,259.385 193.928,257.823 197.656,260.773 201.7,262.8 202.008,266.373 
		206.206,269.317 207.607,273.678 212.579,276.478 216.312,279.902 219.104,281.608 223.774,287.04 224.55,289.075 221.741,292.653 
		221.741,295.583 223.606,298.536 228.744,300.431 232.166,302.595 233.864,301.646 234.335,298.071 232.313,295.421 
		228.58,293.566 228.58,292.803 230.146,291.703 232.474,293.417 236.205,297.908 236.047,301.818 237.522,302.679 238.68,303.357 
		240.2,305.086 242.928,305.225 243.639,303.119 243.395,300.616 244.01,300.554 242.614,298.462 	"/>
	<path fill="#EEDFA2" d="M181.872,237.296l7.304-1.094l11.66,3.426l3.888-0.621l5.903-0.324l2.328,3.277l2.805,0.917v1.722
		l4.506,4.035l2.168-1.226h2.302l0.267-0.447l2.025-1.264l-0.615-3.249l-2.336-2.812l-1.087-4.491l2.643-5.134l1.396-3.424
		l0.152-4.501l-1.237,2.482l-0.622,2.019l-2.168,1.245v-3.107l1.082-3.423l2.013-4.665l-0.615-2.793l0.155-2.932l2.481-6.39
		l1.878,0.47l-0.786,1.712c0,0-0.155,2.63-0.155,3.416c0,0.792,0,4.509,0,4.509l1.193,0.133l1.703-2.888l1.015-8.336l-0.081-9.985
		l0.787-2.115l-1.642-2.487l-1.405-0.621l0.08-2.178l1.485-1.557l1.321,0.152l0.775,1.325l1.32-5.387l3.51-4.439l1.635-2.895
		l0.391-2.177l-2.104-1.49l-0.238-1.858l1.286-2.785l-0.622-3.582l0.319-5.733l1.242-2.324l1.307-1.397l-2.485,0.448l-3.043,0.319
		l-0.85-1.726h-2.41l-1.874,1.016l-0.86,2.877l-2.876,1.331l-3.783,2.683l-3.573,0.328l-0.927,2.615l-2.809-0.761l-3.884,0.62
		l-0.774-1.853l-2.953-2.333l-1.71,0.134l-0.942,3.906l-4.036,0.146l-3.413,5.286l-0.313,2.323l-2.027,1.1l-4.339,4.189
		l-4.511,1.707l-1.241,2.324l-2.956-1.061l-2.181,0.591l-2.483-2.325l-5.129-0.921l-7.143,3.879l-6.688,0.778l0.465,4.048v3.108
		l-0.62,5.59l-1.556,3.087l-5.286,0.479l-3.64,0.629l-0.151,2.346l-1.711,0.324l-3.885-1.383l-0.775,1.383l7.764,9.476l3.736,2.483
		v2.646l6.208,5.595l5.445,7.454l9.947,10.892l2.642,0.321l1.535,1.052l1.484-0.62V237.296z"/>
	<polygon fill="#EEDFA2" points="103.066,187.536 104.875,187.435 103.059,187.536 	"/>
	<polygon fill="#EEDFA2" points="158.559,195.46 160.114,192.373 160.734,186.783 160.734,183.675 160.27,179.627 166.957,178.849 
		174.1,174.97 179.229,175.892 181.712,178.217 183.893,177.626 186.849,178.687 188.09,176.362 192.601,174.655 196.939,170.466 
		198.967,169.366 199.28,167.043 202.693,161.757 206.729,161.611 207.672,157.705 209.382,157.571 212.335,159.904 
		213.109,161.757 216.993,161.137 219.802,161.898 220.729,159.283 224.302,158.956 228.085,156.272 230.961,154.942 
		231.821,152.064 233.695,151.048 236.105,151.048 236.955,152.774 239.998,152.455 242.483,152.007 243.81,150.592 
		242.569,148.424 237.595,144.376 232.929,142.354 232.624,143.14 234.494,146.699 229.829,146.54 224.234,145.937 222.053,144.216 
		218.019,143.737 214.444,143.737 215.375,142.043 218.17,141.254 217.866,139.245 219.725,138.776 223.152,139.561 228.9,141.254 
		229.671,140.652 225.787,137.534 220.51,134.582 216.777,134.266 213.197,135.061 210.86,133.96 209.935,136.599 207.142,134.582 
		197.656,133.663 188.495,133.193 183.508,128.981 179.012,126.799 178.077,129.446 179.774,130.71 176.37,132.104 174.197,133.663 
		170.613,132.413 163.471,134.266 154.298,133.499 141.554,133.814 135.953,136.914 133.334,134.75 132.606,136.581 
		129.808,138.607 128.41,142.346 122.346,145.888 119.082,145.746 113.486,151.492 110.068,155.088 111.157,158.795 
		108.511,164.559 106.359,166.147 108.016,164.932 111.602,165.713 112.302,166.817 114.715,167.654 116.736,170.009 
		120.869,169.366 125.23,170.314 127.875,173.734 128.57,176.247 131.223,178.035 132.081,176.087 133.008,173.649 136.668,173.276 
		138.778,173.986 141.663,174.998 141.663,178.504 140.726,182.548 141.187,184.193 140.095,187.461 140.628,189.452 
		140.782,189.288 143.11,190.539 144.195,192.09 146.05,191.927 146.993,190.539 148.701,191.46 148.701,194.107 149.64,196.431 
		149.633,196.568 153.272,195.938 	"/>
	<polygon fill="#EEDFA2" points="141.187,184.193 140.726,182.548 141.663,178.504 141.663,174.998 138.778,173.986 
		136.668,173.276 133.008,173.649 132.081,176.087 131.223,178.035 128.57,176.247 127.875,173.734 125.23,170.314 120.869,169.366 
		116.736,170.009 114.715,167.654 112.302,166.817 111.602,165.713 108.016,164.932 106.359,166.147 102.604,168.9 102.604,169.597 
		102.604,171.238 98.872,172.341 93.591,173.569 89.548,177.91 89.396,180.1 87.851,182.548 89.805,183.25 93.995,183.25 
		97.418,186.495 102.393,187.577 103.059,187.536 104.875,187.435 112.178,190.693 119.02,194.423 119.952,192.568 116.844,190.835 
		118.395,189.91 122.284,190.06 125.542,194.423 127.875,196.431 137.67,196.591 140.457,192.72 139.381,190.693 140.628,189.452 
		140.628,189.452 140.095,187.461 	"/>
	<polygon fill="#EEDFA2" points="126.695,76.576 125.795,78.297 124.938,81.529 122.222,85.243 121.986,86.167 120.347,86.557 
		119.535,87.682 118.555,87.022 118.354,85.359 115.252,85.204 112.923,86.796 112.613,89.912 112.586,89.912 112.666,90.006 
		112.063,130.081 115.181,130.223 116.43,130.919 118.75,130.764 118.714,130.71 120.421,127.119 124.464,122.928 126.787,124.946 
		132.85,116.553 135.032,110.664 135.184,103.503 132.85,101.162 133.786,94.795 136.114,90.924 136.738,80.348 137.354,78.021 
		136.885,75.689 134.096,75.689 131.921,77.702 130.868,75.742 129.302,75.64 	"/>
	<polygon fill="#EEDFA2" points="89.548,177.91 93.591,173.569 98.872,172.341 102.604,171.238 102.604,169.597 102.604,168.9 
		108.511,164.559 111.157,158.795 110.068,155.088 113.486,151.492 119.082,145.746 122.346,145.888 128.41,142.346 
		129.808,138.607 132.606,136.581 133.334,134.75 131.608,133.348 127.724,132.878 126.637,135.525 123.219,133.193 
		120.102,133.193 118.75,130.764 116.43,130.919 115.181,130.223 112.063,130.081 112.666,90.006 112.586,89.912 75.163,89.336 
		74.297,100.674 65.271,101.45 68.465,104.098 69.624,106.296 73.056,110.575 76.488,112.846 78.891,112.846 80.532,115.732 
		81.002,118.836 82.479,120.49 86.146,120.707 88.473,122.033 88.556,124.857 86.382,127.345 58.812,127.496 45.885,147.923 
		46.303,151.404 46.645,152.495 46.303,154.694 47.195,156.405 47.78,156.941 47.575,158.822 45.637,160.334 44.78,162.675 
		44.059,163.278 47.531,167.53 50.169,171.88 53.436,172.195 56.384,175.772 67.723,180.132 74.419,180.274 79.543,179.662 
		87.851,182.548 89.396,180.1 	"/>
</g>
</svg>
