<?xml version="1.0" encoding="utf-8"?>
<!-- Generator: Adobe Illustrator 16.0.0, SVG Export Plug-In . SVG Version: 6.00 Build 0)  -->
<!DOCTYPE svg PUBLIC "-//W3C//DTD SVG 1.1//EN" "http://www.w3.org/Graphics/SVG/1.1/DTD/svg11.dtd">
<svg version="1.1" id="Layer_1" xmlns="http://www.w3.org/2000/svg" xmlns:xlink="http://www.w3.org/1999/xlink" x="0px" y="0px"
	 width="400px" height="400px" viewBox="0 0 400 400" enable-background="new 0 0 400 400" xml:space="preserve">
<g>
	<polygon fill="#EEDFA2" points="324.017,193.74 324.035,193.719 329.197,186.736 	"/>
	<polygon fill="#EEDFA2" points="181.619,177.591 175.483,176.84 175.131,176.799 	"/>
	<polygon fill="#EEDFA2" points="207.354,138.425 207.196,138.465 205.662,138.911 	"/>
	<polygon fill="none" points="194.147,103.772 195.34,105.064 194.255,103.888 	"/>
	<polygon fill="#EEDFA2" points="216.262,123.309 216.272,123.325 213.178,118.68 	"/>
	<polygon fill="#EEDFA2" points="149.977,186.144 150.47,180.619 150.241,183.165 	"/>
	<polygon fill="#EEDFA2" points="204.562,116.114 204.562,116.108 204.297,115.69 	"/>
	<polygon fill="#EEDFA2" points="150.621,175.043 151.168,175.088 150.801,175.055 	"/>
	<polygon fill="#EEDFA2" points="152.466,173.657 153.164,173.706 152.536,173.657 	"/>
	<polygon fill="#EEDFA2" points="289.19,246.021 289.167,246.087 295.061,228 	"/>
	<polygon fill="#EEDFA2" points="211.479,118.184 210.379,116.01 209.185,116.01 208.386,116.703 206.587,115.026 205.481,115.606 
		204.276,115.651 204.297,115.69 204.562,116.108 204.846,116.133 205.821,117.253 206.689,117.18 207.183,118.407 207.079,119.398 
		210.098,121.033 210.33,122.346 212.126,123.261 213.939,123.325 215.881,124.404 216.262,123.309 213.178,118.68 	"/>
	<polygon fill="#EEDFA2" points="333.24,224.387 332.591,222.715 333.642,221.279 333.285,220.092 333.99,218.76 336.079,217.923 
		336.78,217.182 340.123,216.196 341.919,216.885 342.91,215.95 342.713,213.289 340.918,212.096 339.223,212.199 338.872,210.969 
		338.774,209.092 338.278,207.51 338.223,205.19 336.329,204.993 336.127,204.251 334.838,203.76 332.541,203.562 331.94,202.875 
		330.199,201.931 328.404,200.055 327.601,198.479 324.017,193.74 329.197,186.736 329.747,185.894 329.052,183.18 329.197,181.308 
		328.101,178.938 322.071,178.84 321.873,176.323 321.176,175.088 321.671,174.149 320.677,170.944 318.832,167.393 
		319.182,165.613 321.326,162.995 320.728,162.995 318.382,162.456 318.382,161.12 317.935,158.646 317.589,158.359 
		318.881,156.527 317.737,155.642 317.138,154.703 318.632,154.312 320.428,153.129 320.327,152.241 320.677,151.896 
		319.778,150.705 320.278,149.675 320.128,148.739 320.223,146.811 320.147,146.653 319.579,145.578 319.628,144.539 
		319.035,142.862 319.532,141.821 318.433,139.906 316.689,139.162 313.647,138.911 310.854,135.067 308.261,134.475 
		306.814,134.816 306.169,134.326 305.769,132.299 304.324,132.051 301.531,130.917 300.434,131.656 299.337,131.707 
		295.304,129.193 293.152,128.601 290.661,126.623 289.119,126.674 287.777,126.134 286.373,126.477 285.876,128.106 
		283.288,127.565 280.342,128.106 277.453,130.528 276.302,130.623 275.405,131.757 274.811,133.582 271.423,133.783 
		269.985,134.598 270.656,136.385 271.7,137.911 271.205,139.692 269.661,139.393 265.672,139.051 262.231,139.493 257.643,140.779 
		255.602,140.779 251.415,139.587 249.87,139.44 246.378,138.058 245.333,136.775 244.885,135.297 243.89,135.249 242.289,134.212 
		240.646,134.805 239.506,134.413 237.856,134.413 236.514,132.984 235.463,132.83 235.014,132.186 235.312,130.609 235.11,128.984 
		234.118,127.553 234.123,127.136 233.531,127.513 232.38,127.264 231.935,126.477 230.788,125.939 228.483,123.429 
		230.731,121.925 229.135,120.938 228.757,120.24 229.607,119.548 228.683,118.632 228.084,117.615 227.436,117.461 
		227.309,117.066 226.584,117.047 225.282,118.011 224.287,118.211 223.41,119.373 222.588,119.712 221.413,121.353 220.694,121.38 
		220.217,122.042 219.991,122.84 218.772,123.366 217.798,123.043 216.272,123.325 216.262,123.309 215.881,124.404 
		213.939,123.325 212.126,123.261 210.33,122.346 210.098,121.033 207.079,119.398 207.183,118.407 206.689,117.18 205.821,117.253 
		204.846,116.133 204.562,116.108 204.562,116.114 203.814,116.755 203.118,118.585 201.173,118.729 201.227,119.425 
		201.972,120.751 202.619,123.325 202.419,124.604 202.468,126.477 204.065,126.674 204.512,127.513 203.619,129.588 
		203.716,131.562 203.569,132.355 205.408,133.038 206.907,135.705 207.556,137.28 207.196,138.465 207.354,138.425 
		208.649,138.521 209.304,140.243 209.249,141.484 209.9,142.814 210.943,143.061 211.644,144.191 212.295,145.774 213.54,146.466 
		214.552,146.609 216.897,147.949 217.923,148.196 219.422,148.042 220.368,148.518 220.964,148.91 220.544,149.209 
		219.198,149.653 218.374,149.82 218.524,151.593 219.075,151.938 219.075,154.36 218.223,154.898 217.323,154.703 217.077,156.83 
		216.332,157.474 216.28,159.988 215.881,160.928 216.332,161.617 215.779,162.355 215.779,163.292 216.726,163.394 
		217.474,164.324 218.969,164.627 219.274,165.613 220.82,166.895 220.168,168.323 220.569,168.822 220.318,169.652 
		221.769,170.742 222.464,170.25 223.659,170.15 228.792,173.51 229.537,173.214 230.392,173.803 231.689,176.22 232.984,176.912 
		234.429,179.976 232.984,181.258 232.883,183.283 233.433,185.109 235.624,185.109 236.075,189.354 237.271,190.192 
		238.767,190.782 239.274,191.193 239.896,190.931 239.848,191.348 240.892,192.692 241.731,192.638 242.515,191.965 
		242.564,190.669 241.521,189.846 242.362,189.948 243.302,189.893 243.666,189.483 243.403,190.26 243.194,191.039 
		244.765,191.766 245.393,191.504 246.073,192.745 246.752,192.799 248.9,191.039 249.632,191.395 251.098,193.317 251.252,194.613 
		253.764,197.612 253.976,199.738 254.71,200.207 255.755,200.05 256.489,201.295 255.968,201.295 255.496,200.985 255.179,201.344 
		256.433,202.377 257.06,202.168 257.322,203.259 259.415,207.865 260.828,208.699 263.343,208.438 265.124,209.011 
		265.851,209.783 268.053,209.892 268.366,210.361 269.672,210.458 269.884,211.08 269.045,211.806 271.088,213.936 
		272.707,214.292 273.81,215.021 274.96,215.18 277.364,217.297 278.046,216.939 279.722,216.671 282.021,217.247 284.742,219.058 
		287.149,217.093 290.032,215.329 290.082,214.553 290.24,215.18 291.647,215.125 293.491,213.777 294.9,213.359 297.25,213.674 
		297.25,214.137 297.88,214.091 298.039,214.816 299.29,216.572 300.027,219.058 301.388,221.647 301.489,223.465 302.277,223.979 
		302.54,224.709 306.198,224.653 307.717,224.599 309.026,225.582 310.653,224.235 311.228,224.292 313.06,226 316.876,225.738 
		319.021,226.677 322.055,226.779 323.266,227.199 323.889,226.986 324.877,227.814 325.299,227.757 325.61,226.572 326.507,226.42 
		327.184,227.602 328.909,228.232 331.215,229.062 332.258,228.488 332.571,227.915 332.971,227.915 332.938,226.81 	"/>
	<polygon fill="#EEDFA2" points="153.112,148.233 154.463,147.749 154.306,146.215 155.208,145.67 155.256,143.109 155.659,142.025 
		157.651,142.524 158.845,142.814 162.188,141.532 162.988,141.429 163.981,140.845 167.571,140.497 168.868,140.845 
		169.565,141.484 171.811,141.927 174.949,142.025 175.248,141.429 177.049,140.889 178.087,139.755 180.532,139.017 
		182.275,139.017 183.624,138.76 187.115,138.961 189.859,138.022 191.801,137.972 192.352,138.432 194.246,136.896 
		195.894,136.896 196.585,136.349 199.427,136.349 201.82,136.939 203.619,136.446 204.562,137.038 204.512,138.369 
		205.662,138.911 207.196,138.465 207.556,137.28 206.907,135.705 205.408,133.038 203.569,132.355 203.716,131.562 
		203.619,129.588 204.512,127.513 204.065,126.674 202.468,126.477 202.419,124.604 202.619,123.325 201.972,120.751 
		201.227,119.425 201.173,118.729 203.118,118.585 203.814,116.755 204.562,116.114 204.297,115.69 204.276,115.651 
		203.766,114.832 202.565,113.641 201.227,113.747 199.083,113.641 197.088,112.464 196.982,109.744 197.434,107.627 
		196.688,106.199 195.44,105.9 195.34,105.064 194.147,103.772 192.896,103.481 190.009,101.068 188.861,100.767 187.863,101.604 
		187.016,101.751 185.221,101.068 184.568,101.901 183.776,101.656 183.477,100.421 182.609,100.318 182.29,100.767 
		181.456,102.525 179.727,103.558 177.42,104.705 177.005,105.737 174.86,105.893 174.021,106.567 171.191,105.945 170.358,105.427 
		169.363,105.427 168.942,105.167 167.585,105.582 165.077,105.737 162.142,106.927 159.79,106.46 158.219,105.375 157.38,105.945 
		154.71,104.65 153.353,104.447 150.941,102.838 150.215,102.838 149.585,103.721 148.431,103.458 147.229,101.854 146.917,100.199 
		145.815,99.26 145.031,99.422 143.354,101.078 142.778,100.815 142.157,101.235 139.644,98.954 139.431,97.604 139.014,97.454 
		137.343,98.28 135.144,98.28 134.097,97.916 132.735,98.28 129.333,98.12 127.661,98.483 124.467,99.884 123.003,100.036 
		120.435,100.504 119.707,101.487 118.499,101.799 117.351,102.993 116.725,103.352 116.042,105.02 115.411,105.427 115.52,106.151 
		113.061,106.301 109.396,104.961 108.249,104.961 107.407,105.582 105.892,105.275 103.792,105.788 102.749,105.427 
		101.022,105.893 100.714,106.826 101.97,108.894 103.901,108.952 105.521,109.207 105.265,109.936 102.433,109.984 99.98,110.712 
		99.087,111.852 99.557,112.521 100.867,112.114 101.389,112.883 100.345,113.251 97.151,113.306 95.789,112.575 94.167,113.306 
		93.385,112.158 92.496,112.215 91.287,113.56 90.139,113.507 88.462,112.215 86.844,112.215 83.699,114.597 83.229,115.838 
		82.706,117.028 83.229,117.913 83.177,119.308 82.706,119.881 83.177,120.707 85.009,120.091 85.535,120.296 86.892,119.982 
		88.568,120.037 86.944,121.539 87.158,122.572 87.831,123.659 87.796,124.489 87.668,125.078 88.106,125.39 89.36,124.591 
		89.468,125.286 88.631,126.142 86.909,127.201 87.509,127.61 88.502,127.715 87.509,128.365 86.909,129.548 86.179,129.548 
		85.42,127.745 84.896,127.485 84.663,128.621 85.133,129.884 84.536,130.555 84.744,131.533 85.9,132.262 86.159,131.689 
		87.521,132.83 88.568,132.618 90.139,133.551 90.554,135.162 89.459,136.248 90.346,137.081 90.4,137.905 91.287,137.953 
		93.015,139.62 92.386,140.699 91.287,140.395 91.024,141.177 91.915,141.532 94.014,141.014 96.943,141.014 96.731,141.591 
		96.062,142.287 94.558,142.939 92.316,142.841 91.792,143.616 92.62,143.83 93.77,143.457 95.309,143.451 96.053,143.079 
		96.053,144.069 96.47,144.432 97.255,143.451 98.197,142.31 99.192,142.255 99.874,143.079 100.758,143.079 102.067,143.861 
		102.695,142.982 103.743,143.143 103.589,143.861 103.062,144.124 103.691,145.057 103.848,145.984 105.314,147.178 
		105.839,146.915 107.407,147.543 109.08,147.284 109.865,146.662 111.229,146.662 112.011,145.984 113.218,146.609 114.05,146.139 
		113.896,144.539 114.158,143.709 113.896,142.207 116.826,141.95 119.34,142.147 122.688,143.861 123.893,143.861 126.089,146.763 
		127.976,147.952 134.253,147.178 136.132,146.401 136.761,146.401 137.077,146.706 137.968,146.088 138.277,144.949 
		141.261,141.591 141.994,141.427 144.827,142.411 146.547,143.191 148.697,142.766 148.854,142.147 150.368,141.062 
		151.522,141.427 151.683,142.411 150.635,144.069 149.271,145.157 149.323,145.835 150.579,147.284 150.301,148.233 
		151.666,148.488 	"/>
	<polygon fill="#EEDFA2" points="237.271,190.192 236.075,189.354 235.624,185.109 233.433,185.109 232.883,183.283 
		232.984,181.258 234.429,179.976 232.984,176.912 231.689,176.22 230.392,173.803 229.537,173.214 228.792,173.51 223.659,170.15 
		222.464,170.25 221.769,170.742 220.318,169.652 220.569,168.822 220.168,168.323 220.82,166.895 219.274,165.613 218.969,164.627 
		217.474,164.324 216.726,163.394 215.779,163.292 215.779,162.355 216.332,161.617 215.881,160.928 216.28,159.988 
		216.332,157.474 217.077,156.83 217.323,154.703 218.223,154.898 219.075,154.36 219.075,151.938 218.524,151.593 218.374,149.82 
		219.198,149.653 220.544,149.209 220.964,148.91 220.368,148.518 219.422,148.042 217.923,148.196 216.897,147.949 
		214.552,146.609 213.54,146.466 212.295,145.774 211.644,144.191 210.943,143.061 209.9,142.814 209.249,141.484 209.304,140.243 
		208.649,138.521 207.354,138.425 205.662,138.911 204.512,138.369 204.562,137.038 203.619,136.446 201.82,136.939 
		199.427,136.349 196.585,136.349 195.894,136.896 194.246,136.896 192.352,138.432 192.649,138.669 191.752,140.148 
		191.106,140.148 189.655,141.382 186.963,141.927 185.723,144.191 185.571,146.417 186.87,148.979 186.917,151.152 
		185.723,153.568 186.062,154.658 186.021,156.527 184.919,158.109 184.27,159.152 171.976,167.835 171.95,167.889 171.958,167.883 
		175.483,176.84 181.619,177.591 213.978,199.836 227.015,200.042 228.555,197.162 230.054,193.801 233.146,192.415 235.548,193.31 
		237.143,192.815 237.815,193.097 238.536,191.504 239.274,191.193 238.767,190.782 	"/>
	<polygon fill="#EEDFA2" points="235.548,193.31 233.146,192.415 230.054,193.801 228.555,197.162 227.015,200.042 227.947,200.055 
		234.278,201.981 234.677,204.495 238.898,202.55 238.175,201.654 238.438,201.496 238.694,201.496 237.905,200.611 
		237.861,199.481 237.393,198.443 237.068,199.066 234.349,197.298 238.33,196.528 237.648,193.469 237.815,193.097 
		237.143,192.815 	"/>
	<polygon fill="#EEDFA2" points="141.194,151.878 141.945,151.334 141.539,150.941 140.743,150.99 138.601,152.325 135.511,153.51 
		133.712,153.603 132.318,152.909 130.974,152.909 130.924,153.802 130.528,154.69 129.582,154.991 128.229,154.446 
		127.384,155.434 126.586,155.633 126.586,157.155 127.482,158.439 129.082,159.38 130.974,159.277 131.771,159.771 
		132.562,159.132 134.162,158.79 135.61,157.451 136.658,156.961 138.5,157.155 138.601,155.875 138.055,154.642 139.599,152.864 	
		"/>
	<polygon fill="#EEDFA2" points="154.306,160.582 155.506,161.173 155.406,163.048 155.908,164.084 155.208,164.529 
		154.463,164.529 153.112,165.213 152.563,167.094 151.569,168.676 151.392,168.687 151.742,169.169 152.741,170.122 
		152.899,172.567 152.536,173.657 153.164,173.706 155.458,174.691 156.855,175.775 157.355,175.775 158.303,176.372 
		171.95,167.889 171.976,167.835 184.27,159.152 184.919,158.109 186.021,156.527 186.062,154.658 185.723,153.568 186.917,151.152 
		186.87,148.979 185.571,146.417 185.723,144.191 186.963,141.927 189.655,141.382 191.106,140.148 191.752,140.148 
		192.649,138.669 192.352,138.432 191.801,137.972 189.859,138.022 187.115,138.961 183.624,138.76 182.275,139.017 
		180.532,139.017 178.087,139.755 177.049,140.889 175.248,141.429 174.949,142.025 171.811,141.927 169.565,141.484 
		168.868,140.845 167.571,140.497 163.981,140.845 162.988,141.429 162.188,141.532 158.845,142.814 157.651,142.524 
		155.659,142.025 155.256,143.109 155.208,145.67 154.306,146.215 154.463,147.749 153.112,148.233 151.666,148.488 
		150.301,148.233 150.265,148.369 149.323,148.733 149.634,150.809 150.794,153.079 151.246,154.874 150.929,156.324 
		150.738,158.971 153.662,159.101 	"/>
	<polygon fill="#EEDFA2" points="148.111,196.456 148.78,195.77 148.78,194.209 149.311,192.499 149.257,190.492 149.705,190.218 
		149.705,188.729 150.023,187.182 149.977,186.144 150.241,183.165 149.723,183.327 148.88,183.327 147.73,183.924 147.079,183.283 
		147.384,181.152 147.384,177.949 146.978,177.254 147.333,175.389 148.978,175.389 149.13,176.469 149.824,176.569 
		150.654,175.835 150.621,175.043 150.801,175.055 150.482,174.443 150.204,173.249 150.604,171.223 150.935,169.494 
		151.315,168.687 150.621,168.723 149.873,170.15 147.681,170.201 146.845,170.037 145.368,171.684 144.845,176.66 142.858,180.604 
		140.714,183.461 141.479,183.799 142.835,185.784 143.556,188.316 145.515,191.244 147.026,194.81 146.432,196.474 
		147.333,198.803 148.135,197.553 148.182,197.348 	"/>
	<polygon fill="#EEDFA2" points="152.899,172.567 152.741,170.122 151.742,169.169 151.392,168.687 151.315,168.687 
		150.935,169.494 150.604,171.223 150.204,173.249 150.482,174.443 150.801,175.055 151.168,175.088 151.616,174.402 
		152.466,173.657 152.536,173.657 	"/>
	<polygon fill="#EEDFA2" points="149.13,176.469 148.978,175.389 147.333,175.389 146.978,177.254 147.384,177.949 147.384,181.152 
		147.079,183.283 147.73,183.924 148.88,183.327 149.723,183.327 150.241,183.165 150.47,180.619 150.423,179.576 150.57,177.75 
		150.82,177.105 150.67,176.271 150.654,175.835 149.824,176.569 	"/>
	<polygon fill="#EEDFA2" points="149.873,170.15 150.621,168.723 151.315,168.687 151.392,168.687 151.569,168.676 152.563,167.094 
		153.112,165.213 154.463,164.529 155.208,164.529 155.908,164.084 155.406,163.048 155.506,161.173 154.306,160.582 
		153.662,159.101 150.738,158.971 150.714,159.336 149.771,159.544 149.458,164.421 148.308,166.187 147.042,167.947 
		147.042,169.815 146.845,170.037 147.681,170.201 	"/>
	<polygon fill="#EEDFA2" points="156.757,202.005 161.757,197.162 167.045,196.368 167.24,194.393 170.14,190.933 162.351,182.532 
		172.637,179.361 175.131,176.799 175.483,176.84 171.958,167.883 171.95,167.889 158.303,176.372 157.355,175.775 156.855,175.775 
		155.458,174.691 153.164,173.706 152.466,173.657 151.616,174.402 151.168,175.088 150.621,175.043 150.654,175.835 
		150.67,176.271 150.82,177.105 150.57,177.75 150.423,179.576 150.47,180.619 149.977,186.144 150.023,187.182 149.705,188.729 
		149.705,190.218 149.257,190.492 149.311,192.499 148.78,194.209 148.78,195.77 148.111,196.456 148.182,197.348 148.135,197.553 
		148.182,197.468 148.236,198.139 147.643,199.842 147.623,200.116 149.771,200.024 	"/>
	<polygon fill="#EEDFA2" points="234.278,201.981 227.947,200.055 227.015,200.042 213.978,199.836 181.619,177.591 
		175.131,176.799 172.637,179.361 162.351,182.532 170.14,190.933 167.24,194.393 167.045,196.368 161.757,197.162 156.757,202.005 
		149.771,200.024 147.623,200.116 147.431,202.638 147.537,205.539 146.81,207.503 146.96,208.224 147.956,207.865 148.272,208.387 
		149.16,207.767 150.729,208.646 150.307,208.907 153.351,212.278 153.662,213.723 154.34,214.033 154.604,215.434 156.121,216.783 
		156.85,216.826 158.843,220.201 158.894,221.282 159.413,222.477 160.512,222.68 160.829,224.391 161.507,225.326 163.077,226 
		164.337,229.271 165.33,229.942 165.746,232.012 165.33,232.891 165.33,233.876 166.793,234.909 166.847,236.048 167.79,236.624 
		168.837,235.581 170.3,236.777 172.5,237.768 174.229,239.52 174.752,241.021 175.266,241.125 175.483,242.837 176.157,243.407 
		176.736,245.737 178.1,246.923 178.525,249.32 178.942,250.071 178.416,252.319 177.903,252.784 178.416,253.869 179.097,256.356 
		179.385,258.959 180.639,260.04 180.846,260.997 184.369,264.723 185.541,265.206 186.939,265.322 187.881,266.665 
		188.563,266.665 190.604,268.377 190.655,269.41 192.384,269.715 192.173,270.706 193.06,271.066 194.687,276.974 196.15,277.853 
		196.257,279.617 201.49,284.844 202.271,284.844 202.744,287.797 204.944,288.418 206.176,291.927 207.401,292.045 
		208.454,292.484 209.204,291.106 211.043,289.926 209.792,287.607 210.695,284.357 212.542,283.563 214.633,285.238 
		218.969,285.381 224.908,287.759 231.081,290.719 231.386,296.933 243.943,280.104 270.1,272.371 289.766,266.555 290.762,251.628 
		289.167,246.087 289.19,246.021 286.872,248.169 266.602,245.098 265.101,239.762 263.439,237.809 263.489,235.448 
		263.445,235.431 263.077,235.581 262.454,234.501 262.505,233.822 263.135,233.044 261.981,233.151 261.798,232.823 
		260.651,232.823 258.413,231.646 258.12,230.994 257.745,231.23 256.591,229.624 256.274,227.861 252.771,223.514 251.878,221.859 
		252.664,222.06 252.664,221.282 251.411,217.971 251.411,217.202 250.524,215.852 249.891,215.852 247.642,212.636 
		246.805,212.586 245.812,211.493 245.92,211.024 246.335,210.926 246.913,211.296 246.335,210.458 245.182,210.25 242.832,209.688 
		241.521,206.215 240.787,204.557 239.896,204.088 239.896,202.945 239.421,203.21 238.898,202.55 234.677,204.495 	"/>
	<polygon fill="#EEDFA2" points="260.651,232.823 261.798,232.823 261.776,232.786 262.554,232.629 263.077,229.271 
		262.349,227.915 261.873,227.915 261.613,225.582 261.933,225.582 262.403,223.357 262.137,222.891 261.565,222.891 
		261.457,222.171 260.259,221.239 259.729,221.239 259.522,221.859 258.996,221.908 258.996,222.477 258.531,222.836 
		258.789,223.931 258.475,223.931 258.842,226 258.475,225.738 257.902,225.738 257.694,227.814 258.005,228.802 258.475,229.369 
		258.475,230.771 258.12,230.994 258.413,231.646 	"/>
	<polygon fill="#EEDFA2" points="265.101,239.762 266.602,245.098 286.872,248.169 289.19,246.021 295.061,228 296.413,227.81 
		296.257,226.108 296.048,225.174 295.42,225.383 295.056,225.066 295.064,224.865 294.447,224.839 294.246,222.41 293.374,222.139 
		293.356,223.131 292.964,223.806 288.673,226.358 288.673,228.232 284.691,231.597 284.065,232.58 284.644,232.786 
		285.004,233.618 283.229,235.48 282.6,234.599 282.021,235.014 281.136,235.014 281.24,236.105 280.823,236.21 280.503,236.834 
		278.468,237.193 277.003,237.348 276.372,236.569 275.013,236.669 274.437,236.362 273.439,236.569 271.088,236.048 
		268.26,238.232 267.158,237.911 266.119,237.809 265.015,238.276 264.599,235.166 264.024,235.79 263.489,235.448 263.439,237.809 
			"/>
	<polygon fill="#EEDFA2" points="289.167,246.087 290.762,251.628 289.766,266.555 270.1,272.371 269.694,275.745 275.988,283.652 
		275.085,286.617 279.062,291.3 279.982,291.059 280.353,291.318 281.714,291.318 282.6,289.874 284.116,289.922 286.574,288.604 
		287.959,288.706 289.127,288.481 290.226,289.156 291.059,289.073 292.732,286.622 292.649,286.336 292.989,286.258 
		293.068,285.454 292.413,285.095 292.542,284.242 292.364,283.572 293.331,282.619 293.956,281.973 296.354,282.022 
		298.08,281.732 298.913,282.069 300.217,280.756 300.845,280.192 300.845,278.073 303.373,275.02 304.941,274.605 305.904,275.07 
		306.61,274.587 310.053,274.301 310.313,273.63 309.74,273.111 308.878,270.66 309.274,270.576 308.619,269.343 308.33,269.264 
		308.773,268.173 308.773,266.988 309.947,264.766 310.758,264.563 310.262,263.681 310.574,263.604 311.412,262.105 
		312.087,261.567 312.711,261.8 312.375,262.471 312.247,263.225 312.974,263.604 313.79,263.681 314.566,261.079 315.377,260.383 
		316.142,258.785 317.815,257.292 320.378,253.253 320.622,252.224 320.489,251.332 321.328,249.844 321.403,248.525 
		320.958,248.038 319.701,247.804 317.14,245.737 316.513,244.499 315.311,243.407 314.782,241.644 312.847,239.104 311.904,239.05 
		310.18,239.421 307.097,238.842 305.784,238.898 304.89,239.309 303.165,238.842 299.29,235.638 299.081,234.703 296.78,231.905 
		296.413,227.81 295.061,228 	"/>
	<polygon fill="#EEDFA2" points="294.447,224.839 295.064,224.865 295.105,224.034 295.677,222.941 295.857,221.013 
		295.542,220.834 295.808,220.059 295.472,219.646 295.759,219.418 296.045,219.466 295.701,218.946 295.236,219.079 
		294.661,219.025 294.347,220.886 293.98,221.322 293.618,220.886 293.382,221.531 293.374,222.139 294.246,222.41 	"/>
	<polygon fill="#EEDFA2" points="275.988,283.652 269.694,275.745 270.1,272.371 243.943,280.104 231.386,296.933 231.081,290.719 
		224.908,287.759 218.969,285.381 214.633,285.238 212.542,283.563 210.695,284.357 209.792,287.607 211.043,289.926 
		209.204,291.106 208.454,292.484 207.401,292.045 206.176,291.927 206.619,293.188 207.243,296.656 207.138,298.727 
		206.354,298.727 206.354,299.453 205.259,299.14 205.728,300.126 206.463,300.126 206.511,301.165 208.189,303.288 
		209.075,309.655 210.855,311.267 210.96,313.179 210.227,313.646 210.96,315.509 212.429,317.066 212.689,318.773 213.262,319.918 
		214.675,319.709 215.04,319.244 216.977,319.862 218.126,319.599 219.544,318.42 220.906,318.42 221.638,319.136 222.939,318.617 
		224.252,316.805 224.932,316.707 225.716,314.894 227.443,313.808 228.333,313.539 229.43,313.597 229.694,314.008 
		231.686,313.912 232.102,314.425 233.458,314.734 236.709,313.492 239.32,313.231 240.216,312.507 240.366,311.681 242.841,309.76 
		243.914,309.813 244.773,310.479 245.764,310.277 246.416,309.655 246.834,310.046 247.801,310.046 249.808,308.391 
		251.242,306.065 252.52,305.444 253.251,305.529 260.886,303.288 261.565,302.562 265.851,301.781 268.571,300.44 269.936,299.191 
		272.921,298.569 272.656,297.79 272.868,297.379 272.293,296.802 272.499,295.104 274.853,292.26 277.519,291.685 279.062,291.3 
		275.085,286.617 	"/>
	<polygon fill="#EEDFA2" points="147.026,194.81 145.515,191.244 143.556,188.316 142.835,185.784 141.479,183.799 140.714,183.461 
		139.813,184.651 137.928,185.377 133.531,184.651 130.065,185.581 127.551,183.814 127.241,184.99 128.181,186.391 
		128.132,187.272 127.188,185.869 125.776,185.093 125.458,183.902 126.141,183.595 125.562,183.022 124.417,183.179 
		123.003,182.716 120.646,182.092 120.28,182.507 121.277,182.716 121.481,183.179 120.173,183.332 118.866,183.179 
		117.351,183.799 116.88,183.332 116.912,183.014 118.245,182.861 119.34,182.396 117.954,182.573 115.996,182.622 115.167,183.217 
		113.321,184.216 112.431,184.68 110.653,185.254 109.188,186.645 108.922,187.272 106.624,187.272 104.11,185.718 102.486,185.563 
		100.137,185.718 98.146,184.473 97.356,184.473 96.523,184.99 94.583,183.644 92.337,183.179 86.944,182.763 84.273,181.883 
		80.817,182.037 80.146,182.246 80.141,182.24 79.695,183.374 79.097,186.271 79.892,188.116 79.892,189.629 78.902,191.995 
		78.096,194.166 78.964,196.015 79.695,199.5 82.087,253.8 164.778,253.186 164.802,253.048 163.6,252.575 161.982,250.95 
		161.561,250.102 160.128,249.688 159.243,247.877 158.404,248.265 157.104,248.213 154.964,246.844 153.891,243.279 
		154.133,242.316 154.046,240.626 153.601,239.715 153.747,239.099 154.268,239.533 156.3,239.666 155.512,238.829 154.847,238.713 
		153.722,236.979 153.269,236.641 153.189,237.103 152.405,236.182 151.804,234.341 149.054,230.352 147.9,229.624 147.59,227.713 
		143.244,221.389 143.299,219.936 142.565,218.8 142.306,216.163 141.577,215.274 141.577,214.5 139.217,211.959 139.111,210.978 
		139.369,209.892 138.797,208.803 134.768,205.438 134.454,204.346 131.89,201.344 131.89,199.792 130.425,197.925 130.58,196.993 
		130.481,196.058 130.79,195.588 131.051,196.01 131.732,196.01 132.206,197.77 132.831,198.498 132.985,199.379 135.658,201.6 
		135.658,202.945 136.34,204.296 138.172,205.122 138.592,206.421 141.888,209.892 143.719,210.873 143.923,211.296 
		144.188,210.458 145.134,209.577 145.651,207.146 145.026,206.521 145.862,204.451 146.021,203.002 147.065,199.221 
		147.333,198.803 146.432,196.474 	"/>
</g>
</svg>
