<?xml version="1.0" encoding="utf-8"?>
<!-- Generator: Adobe Illustrator 16.0.0, SVG Export Plug-In . SVG Version: 6.00 Build 0)  -->
<!DOCTYPE svg PUBLIC "-//W3C//DTD SVG 1.1//EN" "http://www.w3.org/Graphics/SVG/1.1/DTD/svg11.dtd">
<svg version="1.1" id="Layer_1" xmlns="http://www.w3.org/2000/svg" xmlns:xlink="http://www.w3.org/1999/xlink" x="0px" y="0px"
	 width="400px" height="400px" viewBox="0 0 400 400" enable-background="new 0 0 400 400" xml:space="preserve">
<g>
	<polygon fill="#EEDFA2" points="272.858,45.828 272.498,46.624 271.833,46.816 272.027,47.334 272.897,47.414 273.493,46.624 	"/>
	<polygon fill="#EEDFA2" points="273.694,49.236 273.415,49.75 273.885,50.419 273.932,51.453 274.604,50.59 274.524,49.512 	"/>
	<polygon fill="#EEDFA2" points="265.526,47.214 266.037,46.146 266.002,45.188 265.406,44.994 264.971,42.651 264.221,42.612 
		263.267,41.024 261.999,40.435 261.165,39.484 259.621,39.163 257.599,37.46 255.895,36.985 253.432,35.519 253.592,36.271 
		254.267,36.949 258.074,39.163 260.056,40.279 261.362,40.399 263.306,42.411 264.1,45.233 263.7,46.146 264.02,47.334 
		265.13,48.563 	"/>
	<polygon fill="#EEDFA2" points="251.141,35.363 250.383,34.884 249.113,35.363 249.19,36.233 250.028,36.746 251.141,36.431 	"/>
	<polygon fill="#EEDFA2" points="248.762,48.284 248.559,48.839 249.668,49.945 250.267,49.273 249.552,48.202 	"/>
	<polygon fill="#EEDFA2" points="227.195,46.892 225.962,47.375 226.32,48.159 227.076,47.564 	"/>
	<polygon fill="#EEDFA2" points="247.451,28.972 247.49,28.307 246.857,27.352 245.862,27.312 246.062,28.065 	"/>
	<path fill="#EEDFA2" d="M233.812,31.911l-0.837,0.201l-0.667-0.48l-0.914,0.279l-0.871-0.078l-0.357,0.279
		c-0.035-0.074,0.357,0.79,0.357,0.79l0.871,0.114l0.475,0.445l1.387-0.077l1.188-1.001L233.812,31.911z"/>
	<polygon fill="#EEDFA2" points="237.301,54.074 237.58,53.558 237.301,52.561 236.427,51.849 235.754,52.603 236.348,53.479 	"/>
	<polygon fill="#EEDFA2" points="232.148,51.335 232.621,52.008 233.297,51.849 233.297,50.897 232.621,50.419 	"/>
	<g>
		<polygon fill="#EEDFA2" points="348.183,139.896 348.331,139.016 347.818,138.151 347.699,138.981 		"/>
		<polygon fill="#EEDFA2" points="345.162,121.142 344.056,120.467 343.529,121.382 343.971,121.734 345.281,121.697 		"/>
		<path fill="#EEDFA2" d="M336.047,112.257l0.552,1.474h0.835l0.512-0.835l0.762,0.402l0.71-0.518l-0.037-1.312l-0.479-0.71
			l0.352-0.993l-0.631-0.788l-0.278,0.512l-0.036,0.826l-0.754,0.243l-0.514-0.434l-0.08-1.98c0,0-0.794-0.834-0.753-0.795
			l-0.561,2.335l0.439,1.308L336.047,112.257z"/>
		<polygon fill="#EEDFA2" points="345.281,110.638 344.688,108.696 344.887,110.558 344.648,111.707 		"/>
		<polygon fill="#EEDFA2" points="338.707,116.064 338.901,116.704 339.495,116.743 340.012,117.295 339.691,118.009 
			339.455,119.598 339.61,120.423 341.039,119.676 341.993,119.398 341.438,118.683 340.604,117.219 340.566,116.23 
			339.771,115.513 338.821,115.513 		"/>
		<polygon fill="#EEDFA2" points="347.619,135.612 347.779,133.864 347.103,133.034 346.63,133.43 346.789,134.579 		"/>
		<polygon fill="#EEDFA2" points="343.299,127.168 344.254,128.042 345.242,127.522 345.242,126.533 344.489,125.699 
			343.228,126.256 		"/>
		<polygon fill="#EEDFA2" points="342.586,118.762 343.228,119.239 343.854,119.317 344.217,118.966 344.848,118.966 
			344.887,118.171 344.374,117.93 344.056,117.184 342.671,118.171 		"/>
		<path fill="#EEDFA2" d="M343.615,111.707l0.199-0.515l-1.309,0.436c0,0-0.438,0.553-0.475,0.594l0.715,0.236L343.615,111.707z"/>
		<path fill="#EEDFA2" d="M344.648,115.592l0.479,0.039l-0.081-0.909l-0.044-1.112l-0.433-0.435
			c0.038-0.035-0.195,1.224-0.195,1.224L344.648,115.592z"/>
		<polygon fill="#EEDFA2" points="284.792,56.487 283.484,57.794 284.59,57.241 		"/>
		<polygon fill="#EEDFA2" points="281.778,59.537 282.572,60.093 282.333,59.344 		"/>
		<polygon fill="#EEDFA2" points="291.889,70.917 292.602,70.679 292.727,69.849 291.557,69.686 291.567,70.323 		"/>
		<polygon fill="#EEDFA2" points="285.707,65.759 286.044,65.182 284.792,64.166 284.67,65.004 285.091,65.656 285.091,66.095 		"/>
		<polygon fill="#EEDFA2" points="289.863,66.407 289.326,66.158 288.629,66.751 288.274,68 288.969,68.081 289.723,68.179 
			289.965,69.032 290.715,69.354 291.318,69.414 291.414,68.316 291.054,67.624 290.123,67.109 		"/>
		<polygon fill="#EEDFA2" points="289.103,69.452 288.529,69.108 288.111,69.531 288.903,69.747 		"/>
		<polygon fill="#EEDFA2" points="334.49,84.073 335.328,83.302 334.972,82.783 334.051,82.783 333.199,83.401 333.439,83.853 		"/>
		<polygon fill="#EEDFA2" points="284.079,58.712 284.949,60.135 286.771,61.401 287.88,62.475 289.151,62.792 290.261,62.792 
			290.023,62.117 288.87,61.084 288.039,60.689 287.924,60.021 287.055,59.461 285.349,59.225 285.266,58.27 284.59,58.079 		"/>
		<polygon fill="#EEDFA2" points="306.79,69.573 306.63,70.249 307.229,71.197 307.583,72.896 309.806,74.8 310.674,75.081 
			310.834,76.191 311.671,76.467 311.907,75.24 310.834,74.051 310,73.654 309.486,72.781 308.097,70.875 308.336,69.971 
			307.229,68.737 305.956,68.657 305.998,69.099 		"/>
		<path fill="#EEDFA2" d="M298.703,67.31l1.073,0.837l0.594,0.631l0.199,0.719l0.558-0.683l0.792,0.559l-0.401-0.715l0.436-0.511
			l-2.021-2.141l-1.743-0.792l-1.464-1.233l-1.901-0.279c0.035,0.045,1.304,0.991,1.304,0.991L298.703,67.31z"/>
		<polygon fill="#EEDFA2" points="305.442,73.257 305.405,72.463 304.216,72.303 304.453,73.02 		"/>
		<polygon fill="#EEDFA2" points="310.718,80.117 309.568,79.995 310.161,80.951 310.24,81.735 311.748,83.126 313.488,83.799 
			314.877,83.724 314.479,83.326 314.599,82.65 313.929,81.662 311.863,81.224 		"/>
		<polygon fill="#EEDFA2" points="301.164,74.014 300.962,75.118 302.152,76.741 303.579,77.298 304.809,77.064 305.761,78.213 
			306.87,78.093 307.229,76.985 307.071,76.271 306.396,76.229 305.682,75.433 304.057,74.641 302.666,74.641 301.757,73.689 		"/>
		<polygon fill="#EEDFA2" points="303.186,87.29 302.033,87.25 302.072,87.966 302.591,88.439 303.5,88.357 304.416,88.718 
			305.21,88.318 304.099,87.884 		"/>
		<path fill="#EEDFA2" d="M287.257,65.496l-0.615,0.418c0-0.063,0.021,0.558,0.021,0.558l0.514,0.399l0.996-0.139l0.119-0.574
			L287.257,65.496z"/>
		<polygon fill="#EEDFA2" points="243.833,73.03 243.218,72.417 242.524,72.396 242.107,72.772 241.251,72.559 240.658,72.579 
			239.682,71.547 239.482,70.03 238.649,69.617 237.657,67.163 237.137,66.949 236.84,66.13 235.647,66.13 234.855,65.695 
			234.262,64.523 233.068,63.29 232.81,61.998 231.976,61.298 231.338,60.162 231.457,59.712 233.726,59.91 235.691,58.898 
			236.268,57.914 236.167,56.762 234.58,55.114 233.428,54.896 232.932,55.234 231.692,54.637 229.729,53.819 228.762,52.769 
			227.647,52.886 224.965,51.947 224.703,51.191 225.439,49.938 225.564,48.968 224.868,48.071 222.878,45.983 222.403,46.05 
			221.749,46.339 221.334,45.469 220.337,44.755 220.021,43.952 218.851,43.736 218.252,42.943 217.795,43.078 216.781,42.544 
			215.57,42.447 214.418,41.565 213.162,41.27 211.141,40.045 208.166,39.761 207.02,39.287 206.441,38.563 205.901,38.563 
			205.523,38.767 203.382,37.894 202.881,37.371 201.808,36.954 200.006,36.194 199.028,36.138 198.339,56.79 198.016,58.351 
			197.998,59.234 198.237,59.697 197.79,73.067 199.687,73.103 200.277,73.459 201.269,73.181 204.204,73.301 204.915,73.103 
			205.198,73.773 205.873,74.488 206.74,74.726 207.928,74.014 209.878,73.459 210.033,72.943 210.506,73.336 211.02,72.745 
			210.94,71.199 209.518,70.085 207.928,69.434 206.58,69.197 206.002,68.697 205.186,68.4 204.826,68.42 204.25,67.964 
			203.994,66.649 203.058,65.399 202.031,64.917 201.808,64.18 201.19,63.563 201.948,64.043 202.229,64.837 202.881,64.996 
			204.107,65.799 204.294,66.732 204.431,67.824 204.853,67.864 206.241,68.268 206.995,68.954 207.571,68.843 208.879,68.897 
			210.408,68.519 211.498,68.581 212.414,68.304 212.135,67.828 211.335,67.315 210.94,66.554 210.192,66.64 209.791,65.89 
			210.426,66.438 211.498,66.167 212.332,67.114 213.348,67.305 212.852,66.688 212.874,65.914 213.388,65.536 213.467,64.935 
			213.368,64.084 212.555,63.33 212.555,62.949 213.489,63.391 213.868,64.06 214.938,65.057 215.75,65.257 215.811,64.717 
			215.611,63.983 215.891,64.226 216.169,65.197 216.615,65.13 216.652,64.379 216.333,63.746 216.652,62.591 217.127,63.189 
			218.473,63.63 218.792,64.416 219.51,64.577 220.182,64.536 220.534,64.82 221.05,64.18 220.973,64.935 221.016,65.606 
			221.567,65.765 222.279,66.48 225.263,67.163 226.175,67.666 226.992,68.677 227.443,70.192 228.915,72.059 229.154,72.812 
			230.188,73.092 230.764,73.969 230.966,74.586 233.524,77.213 233.585,78.046 234.58,78.723 236.13,79.242 236.721,79 237.297,79 
			238.156,79.359 239.844,79.103 240.991,79.561 241.966,79.481 243.649,79.78 244.452,80.255 245.679,80.056 246.218,80.735 
			247.348,80.677 247.525,81.032 246.91,81.509 247.982,81.788 249.254,82.522 250.483,82.198 250.822,81.509 249.471,80.715 
			249.034,80.677 249.054,80.195 250.029,79.854 250.9,80.238 251.874,79.578 249.79,79.18 247.424,78.883 245.978,78.109 
			245.457,77.491 246.732,76.931 247.525,76.993 248.02,76.589 247.265,76.138 245.422,76.138 243.614,75.857 242.92,75.26 
			242.904,74.444 243.516,73.75 		"/>
		<polygon fill="#EEDFA2" points="278.487,54.544 277.021,54.074 276.626,52.521 276.028,51.732 274.842,51.809 274.64,52.845 
			274.88,53.751 274.88,55.499 275.989,56.053 277.021,57.958 276.702,58.548 277.339,59.426 278.169,59.426 278.923,59.697 
			280.27,59.537 280.513,59.064 281.263,58.832 281.381,57.359 280.27,55.977 		"/>
		<polygon fill="#EEDFA2" points="269.372,86.403 269.393,86.698 269.928,86.819 270.824,86.684 271.004,86.025 270.046,85.801 		
			"/>
		<polygon fill="#EEDFA2" points="262.145,72.103 261.859,72.937 262.163,73.535 262.578,73.393 263.788,74.225 263.691,73.535 		
			"/>
		<polygon fill="#EEDFA2" points="267.524,87.296 266.595,87.338 265.437,86.493 264.788,86.522 266.078,87.894 266.769,87.87 
			267.409,88.172 267.764,87.911 		"/>
		<path fill="#EEDFA2" d="M220.39,65.261l0.356,0.538c0,0-0.019-0.795-0.01-0.815L220.39,65.261z"/>
		<polygon fill="#EEDFA2" points="254.54,70.986 254.695,70.106 254.508,68.645 253.912,68.772 253.674,69.189 254.082,69.971 
			254.328,69.927 254.436,70.662 254.328,70.986 		"/>
		<polygon fill="#EEDFA2" points="253.315,77.82 252.909,77.689 252.83,77.413 252.36,76.927 251.637,76.809 251.688,77.058 
			252.085,77.235 252.54,78.15 252.824,78.287 252.767,78.956 253.527,79.154 254.111,78.967 254.24,78.518 254.747,78.143 
			254.66,77.593 254.162,77.608 253.465,78.156 		"/>
		<polygon fill="#EEDFA2" points="249.594,75.583 250.02,75.705 250.062,74.963 249.454,74.057 248.827,73.718 248.284,74.083 
			248.679,75.063 249.136,75.009 		"/>
		<polygon fill="#EEDFA2" points="251.924,75.038 251.502,75.038 250.871,74.921 250.634,75.063 250.853,76.015 251.361,76.284 
			252.103,76.224 252.337,76.537 252.623,76.178 252.313,75.698 251.977,75.698 252.116,75.486 		"/>
		<polygon fill="#EEDFA2" points="260.923,51.256 259.735,50.145 259.662,49.393 260.41,48.96 261.01,49.273 262.317,48.039 
			262.278,45.546 261.046,44.48 260.375,44.951 259.978,45.434 259.265,44.869 257.955,44.835 257.397,45.663 257.955,48.039 
			258.349,48.483 257.796,49.079 256.722,49.037 254.624,50.743 254.225,51.809 253.552,52.328 253.002,52.088 252.208,52.603 
			251.494,51.809 250.822,51.849 250.028,52.845 249.312,52.678 248.997,51.295 249.233,50.419 248.403,49.985 247.849,50.544 
			248.008,51.295 247.171,51.849 246.062,51.732 244.792,52.246 243.846,52.208 243.088,51.809 242.1,51.809 240.75,52.131 
			239.682,51.496 238.884,52.962 239.798,54.106 240.989,54.229 242.772,55.652 242.967,56.292 243.762,55.693 245.584,55.773 
			246.142,56.809 247.451,57 248.324,56.847 250.346,56.45 251.413,56.767 252.328,56.368 253.674,56.926 254.111,56.334 
			254.068,55.536 255.499,55.499 257.439,53.081 257.439,52.288 258.231,52.088 258.948,52.643 260.29,52.246 		"/>
		<path fill="#EEDFA2" d="M212.874,71.504l-0.72-0.837c0,0-1.57-0.656-1.546-0.656L212.874,71.504z"/>
		<polygon fill="#EEDFA2" points="214.169,65.095 214.631,65.998 215.027,66.118 214.674,65.498 		"/>
		<polygon fill="#EEDFA2" points="211.002,69.553 211.657,69.869 211.938,69.514 		"/>
		<polygon fill="#EEDFA2" points="216.854,64.744 216.772,65.343 217.438,65.462 217.353,65.118 		"/>
		<path fill="#EEDFA2" d="M214.059,66.646l-0.338-1.147l-0.615,0.549l-0.045,0.521l0.447,0.56c0.014,0,0.399-0.037,0.399-0.037
			L214.059,66.646z"/>
		<polygon fill="#EEDFA2" points="212.258,70.167 212.691,70.489 212.555,69.99 		"/>
		<polygon fill="#EEDFA2" points="212.137,67.329 212.318,67.658 212.866,67.771 213.105,67.512 		"/>
		<path fill="#EEDFA2" d="M213.825,68.897l-0.854-0.037l-0.635,0.636c0.019-0.044,1.188-0.104,1.188-0.104L213.825,68.897z"/>
		<polygon fill="#EEDFA2" points="217.737,63.917 217.434,64.518 218.146,65.253 218.062,64.772 218.294,63.997 		"/>
		<polygon fill="#EEDFA2" points="218.514,65.19 218.809,64.702 218.354,64.781 		"/>
		<polygon fill="#EEDFA2" points="333.312,145.997 333.115,145.363 332.441,145.363 332.317,146.158 331.644,146.949 
			332.672,147.03 		"/>
		<polygon fill="#EEDFA2" points="335.407,149.601 336.682,150.199 337.121,149.722 336.127,148.894 336.443,148.061 
			336.403,146.989 335.961,146.751 334.937,147.504 335.096,147.976 334.897,148.655 		"/>
		<polygon fill="#EEDFA2" points="319.357,145.363 320.818,148.337 321.978,149.011 321.978,149.96 322.526,150.912 
			323.359,150.947 323.522,151.7 324.989,152.815 325.576,154.439 326.058,154.163 326.689,154.204 327.166,155.71 328.473,155.869 
			328.713,156.977 329.743,157.809 330.85,157.334 331.803,158.248 332.361,158.01 333.229,158.603 333.15,156.815 332.361,156.619 
			330.419,155.196 329.065,152.854 328.119,152.101 327.361,152.416 326.453,150.394 324.235,147.549 323.676,147.39 
			323.084,146.315 321.618,145.363 321.385,144.53 320.749,143.735 320.386,144.576 318.882,142.592 318.682,143.659 
			319.238,144.216 		"/>
		<polygon fill="#EEDFA2" points="340.444,153.686 340.49,152.499 339.654,151.985 338.227,152.178 338.386,153.292 
			339.337,154.238 339.892,153.686 		"/>
		<path fill="#EEDFA2" d="M181.506,317.497c-0.008-0.005-0.008-0.005-0.012-0.005"/>
		<polygon fill="#EEDFA2" points="170.627,103.927 171.505,103.588 172.954,103.829 173.27,102.969 172.874,102.788 
			172.419,102.892 172.179,102.612 173.093,101.739 172.972,101.499 172.059,101.756 172.042,100.879 171.428,101.178 
			171.243,101.683 170.391,101.638 170.627,101.92 170.432,102.156 170.811,103.387 170.234,103.862 		"/>
		<polygon fill="#EEDFA2" points="252.701,195.116 252.824,193.786 252.031,191.704 251.696,191.034 251.66,189.912 
			252.031,189.417 252.07,188.127 253.032,186.465 252.948,185.963 252.861,182.753 253.489,181.671 253.032,181.05 
			252.738,179.925 252.781,177.764 252.32,177.598 252.903,176.395 251.825,175.938 251.281,174.852 251.325,173.606 
			250.076,172.52 249.285,170.94 248.954,169.405 248.245,168.072 247.539,168.026 246.705,168.4 245.958,167.697 245.792,166.276 
			245.25,166.032 245.126,165.238 243.791,164.074 243.167,163.487 243.464,162.658 242.71,161.33 243.754,159.995 244,158.335 
			243.67,157.542 243.833,156.459 243.088,156.045 242.884,156.626 243.206,157.12 242.791,157.707 240.339,155.461 
			239.798,154.173 239.336,154.422 239.336,155.172 239.049,155.998 239.631,157.707 238.424,156.247 237.841,156.918 
			237.841,155.879 237.385,155.003 237.179,151.924 237.508,151.591 237.508,150.841 236.472,150.177 236.882,149.263 
			236.095,148.638 236.346,147.681 234.558,146.142 234.055,145.056 233.975,143.771 234.973,144.02 234.973,142.937 234.1,141.353 
			233.639,141.605 232.681,141.481 231.602,139.938 230.767,139.898 229.769,139.022 229.187,139.649 228.73,139.022 
			227.523,138.612 226.773,139.315 227.394,138.312 228.479,138.027 228.563,137.237 228.232,136.611 226.982,136.738 
			226.026,136.648 225.736,135.993 225.197,135.993 222.907,134.698 221.906,132.692 221.698,130.708 221.033,129.407 
			221.072,128.373 221.618,128.162 222.071,125.96 221.449,123.049 220.784,121.716 221.364,121.427 220.657,120.758 
			219.826,120.758 218.783,118.589 218.741,115.892 219.156,115.562 219.204,114.97 218.702,114.349 218.452,110.937 
			218.741,110.026 218.452,108.936 218.821,108.608 218.952,107.815 217.038,105.983 215.87,105.277 216.206,104.781 
			214.955,103.536 213.836,104.282 213.287,103.909 212.666,105.108 211.752,105.154 210.632,103.445 210.76,102.532 
			210.048,100.992 210.463,98.95 210.208,96.501 209.757,96.706 209.335,95.706 209.836,94.753 209.004,93.627 208.967,92.671 
			208.382,92.295 208.424,90.921 209.089,90.254 208.343,89.836 207.424,90.048 206.716,89.383 207.131,86.763 206.804,86.178 
			206.467,84.641 205.305,84.386 205.348,83.68 204.056,84.18 203.43,85.05 203.43,87.01 202.854,88.673 202.854,89.134 
			202.603,90.254 201.974,90.172 201.265,91.963 200.311,93.293 201.144,94.081 202.184,94.915 201.513,95.379 200.809,95.254 
			200.353,96.325 199.769,97.411 200.562,98.702 200.686,99.623 199.852,99.288 199.227,99.748 198.725,102.444 199.227,104.282 
			198.854,106.274 199.395,107.689 199.27,109.314 198.233,110.275 198.233,111.188 197.105,113.311 196.898,116.43 
			195.941,117.505 196.273,118.634 195.648,120.341 194.65,121.34 194.525,123.424 192.819,124.713 189.325,126.088 
			187.914,125.087 186.456,124.962 185.747,124.003 184.373,122.925 184.332,122.253 183.958,121.755 183.624,120.549 
			182.331,120.341 181.253,119.884 179.544,119.756 177.963,118.761 177.672,117.842 176.468,116.302 175.008,116.181 
			173.722,115.35 173.637,114.638 172.933,114.561 172.303,114.062 171.101,114.1 170.099,113.85 170.391,113.388 169.016,112.268 
			168.77,111.188 167.351,109.729 166.437,109.605 165.23,108.19 165.189,106.815 166.229,105.154 166.479,103.819 167.562,103.073 
			167.895,101.536 168.352,100.539 167.398,101.239 166.605,99.748 167.732,98.999 167.518,97.83 168.104,97.873 168.77,97.58 
			169.057,97.997 170.058,98.206 171.434,97.58 171.891,96.325 170.933,95.542 171.684,94.956 172.473,95.17 173.014,93.293 
			173.722,92.921 174.462,91.918 174.511,91.382 173.386,90.846 172.68,91.667 171.97,91.382 171.806,89.505 170.889,89.928 
			169.602,91.462 170.268,91.755 170.268,92.504 169.35,92.955 168.472,92.423 168.271,91.755 167.812,91.134 167.436,91.834 
			166.686,92.048 166.728,91.344 167.351,90.671 167.602,90.133 166.813,90.462 166.229,91.134 164.978,91.548 164.816,92.006 
			164.149,92.131 163.816,91.667 162.777,91.585 162.734,91.085 161.899,89.928 161.445,89.799 160.158,90.506 159.239,90.133 
			158.7,90.462 158.283,89.675 157.786,89.551 157.161,88.384 155.91,88.966 154.58,88.757 153.375,88.215 153.456,87.427 
			152.625,86.39 152.127,86.508 152.247,86.971 150.586,87.474 150.167,86.473 149.252,86.141 147.797,85.306 147.588,85.724 
			146.839,85.176 145.927,85.887 147.011,86.719 146.675,87.01 147.716,87.263 148.63,86.845 150.208,88.175 150.084,88.92 
			150.412,90.671 149.294,90.758 148.878,92.006 148.502,91.257 147.672,91.01 146.799,91.585 143.637,91.755 142.431,90.711 
			142.262,91.174 141.014,91.633 141.14,92.671 140.1,92.458 140.431,93.917 140.06,93.376 138.769,92.955 138.27,93.706 
			138.769,94.418 138.68,94.882 137.312,94.46 136.604,95.17 137.146,95.75 136.56,96.04 135.647,96.561 135.727,97.243 
			136.56,98.099 136.785,98.717 135.811,98.161 135.023,98.823 134.063,98.823 133.107,100.363 132.237,102.115 131.524,102.322 
			131.194,103.78 130.317,104.319 131.067,105.108 132.941,105.444 132.237,105.655 131.819,106.444 134.063,107.194 
			133.191,107.566 131.775,107.401 131.317,106.732 131.359,107.401 132.276,108.109 132.237,109.314 133.191,110.607 
			131.775,109.482 130.901,107.858 129.859,107.73 129.82,108.399 129.403,109.147 129.279,108.275 126.945,106.78 125.244,107.104 
			125.781,107.73 125.2,108.318 124.62,107.815 124.164,107.815 123.667,108.48 124.451,109.518 124.237,110.146 124.082,109.69 
			123.538,109.814 123.538,110.351 122.453,110.978 120.873,111.271 122.123,110.687 122.953,109.562 122.873,107.858 
			123.747,106.78 123.202,106.072 122.289,105.943 120.708,103.073 119.879,101.824 118.339,101.451 117.296,100.784 
			116.629,101.195 117.168,101.739 116.546,101.951 115.802,103.073 115.045,102.948 115.297,102.322 114.299,102.612 
			114.051,103.277 113.298,101.7 112.675,101.536 112.51,102.444 113.298,102.91 112.219,103.697 111.846,104.818 112.219,105.479 
			111.09,106.151 110.594,105.36 109.97,105.318 109.762,104.735 110.555,103.819 109.721,103.861 109.301,105.028 108.143,105.318 
			107.654,105.983 107.453,107.185 109.135,107.665 107.726,108.856 106.644,108.275 105.351,109.147 105.602,109.938 
			107.141,110.146 106.604,111.017 105.855,111.188 104.77,109.898 103.855,110.937 102.761,111.107 102.988,111.915 
			103.195,112.669 103.279,113.374 103.938,113.14 103.15,114.226 103.687,115.015 102.774,115.471 102.19,116.224 104.105,116.552 
			102.897,117.184 102.648,117.681 101.607,117.431 101.022,116.633 100.15,116.058 99.321,116.762 98.947,115.97 97.909,115.303 
			97.16,115.933 98.53,116.887 98.028,117.135 97.449,118.218 98.57,119.219 99.696,119.178 99.196,120.092 99.148,121.09 
			98.697,120.673 98.115,120.673 98.32,121.839 97.865,123.085 97.696,124.458 95.95,120.716 94.783,118.426 94.161,117.555 
			94.449,116.224 94.039,116.846 92.873,117.72 92.58,119.178 91.707,119.386 91.578,120.007 90.494,119.929 89.875,120.758 
			88.961,121.552 89.165,122.96 89.165,125.839 89.71,126.122 89.71,127.125 88.709,127.666 88.124,128.742 86.63,129.162 
			86.753,129.784 85.468,130.622 85.504,132.032 84.798,132.692 83.09,135.067 79.807,137.027 76.933,137.278 75.812,137.694 
			74.146,137.816 72.816,138.151 71.483,137.816 69.776,138.485 69.566,139.486 68.444,140.022 64.861,139.898 63.946,140.437 
			63.66,141.398 61.414,142.311 59.71,142.311 58.789,141.937 57.919,142.023 57.584,141.398 56.669,141.856 55.792,143.179 
			53.464,143.604 53.261,144.104 52.634,144.104 50.804,145.723 48.43,146.847 45.309,147.805 43.938,149.715 43.895,151.466 
			42.644,152.548 41.774,151.964 42.187,151.339 42.021,150.465 42.605,149.093 42.559,148.096 40.812,149.427 40.401,151.048 
			39.151,153.423 39.981,155.083 39.402,156.459 39.485,158.995 37.359,161.661 36.529,165.282 37.114,167.154 36.817,169.774 
			38.732,173.021 38.817,174.271 39.609,175.186 38.9,176.808 39.318,178.263 38.151,178.718 37.653,177.848 37.566,175.938 
			36.857,176.976 36.529,176.599 36.616,174.852 35.487,172.44 34.782,173.646 35.031,176.062 36.529,177.562 37.566,179.633 
			36.032,179.884 34.782,178.221 34.488,176.265 33.994,177.104 33.363,177.435 34.323,179.259 36.237,181.636 37.359,184.754 
			37.154,190.333 37.943,191.37 38.522,194.49 40.188,198.608 39.609,200.063 39.774,206.222 39.525,207.056 40.108,208.767 
			40.062,210.679 41.229,213.375 41.274,214.711 40.232,215.463 40.773,216.043 40.401,217.502 40.188,219.914 39.233,220.792 
			39.525,221.494 39.233,222.957 38.276,223.657 38.484,225.076 36.698,226.45 35.903,225.742 34.532,227.824 34.614,231.235 
			35.36,231.9 36.197,231.938 38.522,234.312 38.484,235.19 38.9,235.696 40.108,235.891 40.646,236.56 42.23,236.812 
			42.853,236.685 43.188,237.145 44.395,237.305 45.81,237.018 46.179,237.808 46.807,237.305 47.141,237.558 48.724,237.269 
			50.093,237.145 50.261,236.476 51.093,236.307 52.007,234.936 53.633,235.147 53.633,234.191 54.668,233.604 55.504,233.604 
			56.335,234.482 57.211,233.273 57.669,233.479 58.208,233.19 58.5,231.857 61.539,229.982 62.703,230.152 63.452,230.613 
			64.446,229.949 67.363,229.325 67.736,229.904 69.609,229.487 70.149,229.86 71.025,229.949 72.149,229.527 72.564,230.698 
			73.229,230.698 74.103,230.235 74.599,230.819 75.478,230.235 77.642,230.235 77.515,231.15 77.895,231.319 79.096,230.152 
			80.307,230.484 81.763,229.487 82.297,228.151 82.844,227.983 84.006,226.827 84.67,224.864 86.005,223.83 87.588,223.374 
			88.168,223.743 90.46,222.957 93.368,221.165 95.16,219.496 95.988,219.173 96.78,219.21 97.74,219.173 99.358,219.875 
			100.856,219.959 101.901,219.587 104.105,219.709 107.141,218.629 108.934,218.21 110.263,217.255 111.09,217.255 
			112.634,216.128 114.922,215.959 120.952,215.504 122.917,216.043 124.237,216.088 125.904,215.504 127.24,215.674 
			128.902,217.255 130.199,219.458 131.194,219.792 131.897,219.21 132.57,218.958 133.07,219.496 133.692,219.21 134.857,219.496 
			135.897,220.872 137.312,221.123 137.892,220.749 140.308,222.457 140.1,223.497 140.846,223.542 141.677,224.409 
			141.347,225.203 140.431,225.203 140.228,225.956 141.178,228.078 142.179,228.151 143.301,229.364 143.677,230.9 
			143.469,232.066 144.677,234.732 144.263,235.935 144.754,236.605 144.549,238.019 144.093,238.853 143.428,238.433 
			143.097,238.765 143.97,239.89 144.802,240.351 145.218,241.473 146.13,241.142 147.089,241.889 147.131,240.931 146.59,240.057 
			147.216,239.393 147.754,238.306 148.63,238.144 149.128,237.229 150.084,236.812 150.375,235.854 151.374,234.568 
			153.706,233.401 153.958,232.694 154.416,232.694 156.243,231.82 156.702,230.277 158.158,228.03 159.736,227.699 
			160.361,226.784 159.95,225.617 160.196,224.287 160.862,225.827 160.902,227.242 160.902,228.618 160.238,229.487 
			159.904,232.272 157.621,233.776 157.284,234.985 156.614,235.854 156.702,237.108 155.371,238.975 155.787,239.52 
			154.826,242.174 152.205,241.889 151.668,243.35 151.003,244.511 151.003,244.925 152.625,244.511 154.207,243.804 
			156.079,244.47 157.907,241.387 158.406,238.556 159.95,236.98 160.361,237.477 160.408,240.104 160.991,241.639 160.489,241.807 
			160.656,244.426 159.447,246.674 157.369,247.509 157.701,248.254 159.03,248.081 160.457,248.12 161.08,247.478 162.039,247.248 
			163.203,246.297 164.132,246.567 164.836,246.461 164.277,247.414 163.74,248.313 162.742,248.248 162.472,248.829 
			163.449,250.259 163.856,251.458 164.564,253.2 164.651,255.249 164.441,257.786 163.072,259.24 163.314,259.949 163.107,261.86 
			164.065,262.695 164.898,264.153 165.148,265.938 167.103,268.561 168.605,268.937 169.646,269.687 170.138,271.012 
			171.265,271.095 171.518,270.596 172.227,270.347 173.637,270.809 174.803,272.223 176.048,272.352 177.423,273.638 
			177.593,274.763 178.675,275.13 179.797,276.472 180.626,276.472 181.004,275.716 183.126,274.716 183.776,273.769 
			185.108,273.721 186.519,272.312 187.535,272.519 187.994,271.979 187.722,271.421 186.519,271.093 186.913,270.364 
			189.069,268.928 190.876,270.197 190.813,271.403 188.616,272.604 189.13,273.642 189.817,273.81 190.627,272.954 191.52,272.272 
			192.638,272.893 192.53,273.958 191.875,273.938 190.986,274.801 192.445,276.506 192.734,278.382 193.278,278.049 
			194.025,278.125 194.114,279.251 194.897,280.416 195.689,279.042 195.607,277.549 194.734,278.215 194.525,277.591 
			195.19,276.843 197.898,276.927 198.233,277.463 198.605,276.843 199.976,274.968 202.807,273.264 204.388,271.845 
			203.553,271.845 202.93,272.223 203.182,271.887 202.219,271.559 203.26,271.468 204.682,271.468 206.758,270.849 
			211.002,270.013 214.411,270.68 215.829,269.846 215.829,268.937 216.83,268.937 217.867,268.229 218.821,266.273 
			218.412,264.108 218.365,262.942 220.24,261.071 220.24,257.819 221.119,256.571 221.493,254.381 222.578,253.876 
			222.492,252.803 225.824,248.631 226.742,248.466 227.324,246.214 228.666,244.463 229.497,242.13 230.833,240.794 
			230.685,239.602 231.643,239.103 232.517,236.98 231.812,236.307 233.513,235.519 234.68,233.776 235.386,233.067 
			236.219,231.279 237.841,230.777 238.84,230.277 237.179,230.277 237.594,229.735 239.549,229.612 241.301,228.367 
			241.668,227.076 241.421,226.409 241.668,225.283 243.464,223.909 243.504,222.744 244.744,222.249 245.958,220.207 
			245.792,219.173 246.413,217.502 245.958,216.96 246.122,216.088 247.662,212.515 248.037,210.597 250.036,207.019 
			249.951,205.685 250.988,203.102 252.491,201.855 253.032,200.361 252.615,198.742 253.534,197.614 		"/>
		<polygon fill="#EEDFA2" points="191.516,273.85 191.148,273.358 190.575,273.588 191.244,274.223 		"/>
		<polygon fill="#EEDFA2" points="200.562,290.782 199.935,291.195 200.269,291.905 201.934,291.988 202.759,292.323 
			202.93,291.697 201.808,290.654 		"/>
		<polygon fill="#EEDFA2" points="171.563,86.5 172.301,86.836 172.497,86.002 173.449,85.13 173.014,84.607 171.885,85.822 		"/>
		<polygon fill="#EEDFA2" points="185.803,122.062 186.381,121.745 186.296,121.149 185.485,121.552 		"/>
		<polygon fill="#EEDFA2" points="171.007,87.755 170.929,87.159 170.391,87.43 		"/>
		<polygon fill="#EEDFA2" points="173.531,113.077 172.912,112.255 172.561,113.154 172.954,113.85 		"/>
		<path fill="#EEDFA2" d="M187.211,118.009l-1.427-0.338l-1.349,0.773c0,0-0.299,0.76-0.238,0.717l0.473,0.497l0.657-0.239
			l0.654-0.834l1.208-0.177L187.211,118.009z"/>
		<polygon fill="#EEDFA2" points="182.242,289.954 181.937,290.801 182.682,291.239 183.031,290.49 182.994,289.534 		"/>
		<polygon fill="#EEDFA2" points="170.195,87.816 169.542,87.816 169.859,88.252 		"/>
		<polygon fill="#EEDFA2" points="183.221,292.79 183.922,293.008 184.442,292.482 183.742,291.794 183.031,291.96 		"/>
		<polygon fill="#EEDFA2" points="203.182,81.931 203.199,83.274 203.72,82.979 204.272,82.943 203.875,82.045 		"/>
		<polygon fill="#EEDFA2" points="197.101,277.278 196.146,277.357 196.726,277.754 		"/>
		<polygon fill="#EEDFA2" points="184.051,289.68 183.487,289.93 183.531,290.738 184.15,290.672 		"/>
		<path fill="#EEDFA2" d="M198.978,294.94l-0.624,0.999l-0.294-0.203l-0.623-0.049l-0.751,0.588l-0.581,0.371l-3.285-0.208
			l-0.706,0.459l0.041,1l-0.834-0.788l-1.085,0.043l-0.706,0.533l-1.033-0.747l-1.504-1.371l-1.912-1.043l0.04-1.62l-0.455,0.539
			l-0.169,0.579l-0.832-0.661l-1.004-0.504l-1.081-0.771l-0.351,0.519l-0.082,1.265l-0.336,0.25v1.146l0.247,2.154l-0.269,1.393
			l0.134,2.416l0.242,1.948l-0.288,1.539l0.5,0.337l0.036,0.712l1.007,0.997l-1.167-0.089l-0.921-1.032l-0.451,1.072l0.079,1.921
			l0.752,0.622l-0.253,0.585l0.047,3.072l0.582,0.466l-0.25,0.45l0.25,1.425l1.036,0.363l-0.618,0.71v1.169
			c0.05,0.024,0.455,0.203,0.455,0.203l0.997-0.203l0.749,0.746l0.874-1.16v0.911l0.539,0.992H186l1.033-1.574l0.129-1.001
			l0.501-1.789l0.745,0.705l0.33-0.577l1.003-0.793l0.413-1.166v1.166l0.709,0.25l0.541-0.952l0.918-0.176l0.621,0.543l-0.146,0.932
			l-1.121-0.461l0.061,1.614l0.975-0.483l0.443,0.146l1.245-1.787v-0.669l-0.87-0.581l0.787-0.999l-0.039-1.246h0.875l0.455-0.453
			l0.124-2.378l0.705-0.494l0.585-1.052l0.334,1.593l0.205,0.786l0.544-1.2l-0.045-1l0.294-0.502l-0.294-1.377l0.794-1.167
			l0.078-2.034l0.96-1.16l0.501-2.838l0.377-0.951l-1.291-0.92H198.978z"/>
		<polygon fill="#EEDFA2" points="188.781,315.456 188.781,316.411 187.994,317.664 188.7,318.079 189.075,316.496 189.574,315.795 
			189.325,315.206 		"/>
		<polygon fill="#EEDFA2" points="180.957,286.294 181.686,285.134 181.312,284.364 181.556,282.767 180.914,282.227 
			180.292,282.73 179.544,283.64 179.692,284.598 178.964,285.536 179.216,286.445 179.093,287.239 179.854,287.599 
			180.754,286.897 		"/>
		<polygon fill="#EEDFA2" points="195.024,311.586 195.648,311.255 195.024,310.666 		"/>
		<polygon fill="#EEDFA2" points="242.958,155.662 242.839,155.045 242.382,155.497 		"/>
		<polygon fill="#EEDFA2" points="168.188,88.39 167.554,88.87 168.188,88.931 		"/>
		<polygon fill="#EEDFA2" points="254.94,172.124 254.632,172.99 254.94,173.747 254.347,174.941 253.398,176.049 253.282,177.037 
			253.08,178.149 253.592,179.775 254.23,179.968 253.912,178.905 254.191,176.678 255.418,175.017 255.657,173.469 
			255.457,172.205 		"/>
		<polygon fill="#EEDFA2" points="200.353,286.62 200.686,287.535 200.269,288.53 200.641,289.196 200.973,289.954 202.93,289.077 
			202.93,288.118 201.144,286.326 		"/>
		<polygon fill="#EEDFA2" points="166.063,89.822 166.161,90.473 166.738,89.882 167.669,89.779 168.01,89.183 167.097,89.229 		"/>
		<polygon fill="#EEDFA2" points="164.834,91.195 165.807,90.798 165.728,90.456 164.396,90.878 		"/>
		<polygon fill="#EEDFA2" points="149.8,85.328 150.412,86.421 150.491,85.409 150.832,84.39 149.999,84.548 		"/>
		<polygon fill="#EEDFA2" points="253.089,193.554 253.72,192.778 253.465,191.543 		"/>
		<polygon fill="#EEDFA2" points="245.145,163.536 244.625,163.18 244.387,163.456 245.383,164.829 245.922,165.801 
			246.136,164.829 245.733,164.318 245.816,163.616 		"/>
		<polygon fill="#EEDFA2" points="200.973,293.816 201.226,292.942 200.436,293.195 		"/>
		<polygon fill="#EEDFA2" points="203.956,79.103 204.25,79.813 204.711,79.22 		"/>
		<polygon fill="#EEDFA2" points="222.523,131.992 222.979,130.894 222.843,129.086 222.465,129.283 221.569,129.522 
			222.385,130.438 222.011,131.331 		"/>
		<polygon fill="#EEDFA2" points="168.919,101.739 169.223,101.54 169.376,102.073 169.995,101.38 169.456,100.626 168.822,101.22 
					"/>
		<polygon fill="#EEDFA2" points="156.051,249.378 155.061,249.345 155.439,248.89 154.764,248.89 154.522,248.353 154.704,247.474 
			153.849,247.759 152.879,247.654 149.935,248.466 148.63,249.149 148.569,249.784 149.362,250.341 150.635,250.385 
			151.012,250.304 152.002,250.451 152.673,250.2 153.096,250.757 153.632,250.736 153.75,250.397 154.328,250.385 154.704,249.866 
			156.69,250.146 157.386,249.501 156.624,249.127 		"/>
		<polygon fill="#EEDFA2" points="354.567,276.013 355.068,276.092 355.104,275.537 354.328,275.601 		"/>
		<polygon fill="#EEDFA2" points="284.053,350.43 284.47,350.321 284.47,349.681 283.557,349.631 283.354,350.009 283.519,350.137 
					"/>
		<polygon fill="#EEDFA2" points="338.441,311.64 338.148,311.64 338.104,311.007 337.312,310.815 336.634,312.093 336.896,312.372 
			337.353,312.51 336.357,313.206 335.822,312.652 335.945,312.012 335.463,312.029 334.786,311.84 334.096,312.293 
			333.359,313.309 332.646,312.958 332.131,311.376 332.582,311.038 333.119,310.413 333.301,309.868 333,309.747 333.062,309.296 
			332.726,308.95 332.167,309.388 331.771,309.172 331.316,308.615 331.432,307.903 332.087,306.985 331.195,306.872 
			329.725,307.836 328.992,308.134 328.016,308.933 327.838,310.306 326.847,312.791 325.854,314.128 325.372,314.301 
			324.123,315.832 323.748,316.658 322.814,317.023 321.701,316.932 320.807,317.587 320.509,318.579 320.447,319.677 
			319.853,319.978 318.968,320.949 318.927,322.136 318.416,322.814 318.297,323.687 316.312,326.021 314.094,327.607 
			312.938,327.771 311.56,328.485 311.401,329.271 310.525,329.236 308.468,330.27 306.688,331.949 305.614,332.187 
			303.689,333.379 303.508,333.991 303.888,334.866 304.024,335.983 303.092,335.115 302.676,334.937 301.761,335.213 
			300.789,335.443 300.312,335.05 299.478,335.115 297.75,336.604 297.115,337.414 295.786,338.494 294.934,338.746 
			293.978,339.961 293.742,341.251 293.583,340.583 293.106,340.187 292.41,340.817 291.752,341.251 291.773,342.569 
			291.297,343.109 290.797,342.745 289.194,344.538 288.736,344.538 288.236,345.212 288.142,347.099 287.721,347.643 
			287.303,346.687 286.863,346.466 286.469,347.144 286.098,347.401 285.144,348.997 285.219,349.668 286.056,350.465 
			286.452,350.979 286.056,351.32 285.144,351.301 284.009,351.462 282.717,352.908 283.372,353.012 283.889,353.139 
			283.293,353.498 283.135,354.529 283.889,355.318 284.377,355.575 285.767,355.7 285.903,356.003 286.331,356.056 
			286.465,355.421 287.027,355.336 287.857,355.741 288.197,356.613 287.901,356.993 288.479,357.504 289.37,357.486 
			289.769,357.944 289.906,358.961 290.963,359.87 291.692,360.414 290.623,361.045 291.155,361.165 292.606,360.469 
			292.606,361.045 293.502,361.284 294.849,361.107 296.756,360.325 298.329,358.961 299.363,358.517 299.46,357.968 
			299.203,357.072 299.877,357.621 299.676,358.357 300.964,357.826 301.346,356.613 302.037,355.575 303.658,354.893 
			305.077,354.917 305.565,354.562 305.446,354.246 304.525,354.428 305.09,354.072 305.273,353.72 305.036,353.55 306.213,352.177 
			307.084,350.607 307.475,348.977 308.268,348.066 310.643,346.354 311.202,345.407 311.401,344.262 312.466,342.471 
			313.061,341.604 313.105,340.646 314.059,339.54 314.886,339.15 315.123,338.156 315.875,338.746 316.513,338.746 
			316.828,337.924 317.743,337.88 318.334,337.724 319.009,336.806 318.927,335.971 318.217,335.221 319.121,335.618 
			319.53,336.728 319.922,336.844 320.593,336.614 320.636,336.13 321.348,335.618 322.099,335.895 322.099,336.33 321.111,336.728 
			322.26,336.764 323.096,337.083 323.414,336.569 323.374,335.773 323.649,335.426 323.963,335.691 323.848,336.806 
			324.205,337.083 324.72,336.688 324.872,335.221 324.397,334.472 323.649,334.308 323.963,333.834 323.848,332.562 
			324.242,330.822 325.037,330.508 326.542,330.024 328.167,328.999 328.406,328.362 329.635,326.897 329.789,325.869 
			330.942,324.676 331.812,324.761 331.691,324.318 333.639,322.337 333.796,321.701 336.654,319.237 337.648,318.643 
			337.087,318.457 336.969,317.388 336.517,316.314 336.593,315.352 336.872,314.439 337.233,314.542 338.265,313.127 
			337.429,313.36 336.654,313.486 337.804,312.791 		"/>
		<polygon fill="#EEDFA2" points="369.779,283.871 369.306,283.233 369.719,283.101 369.803,282.777 368.547,282.541 
			367.398,283.297 365.387,285.387 364.077,285.513 363.365,285.871 362.376,285.432 360.158,283.135 359.485,283.254 
			358.652,282.063 358.333,281.312 358.886,280.718 359.086,279.487 358.255,277.778 358.255,276.913 357.896,276.321 
			358.017,275.24 358.296,274.495 357.734,274.374 357.58,273.146 357.301,272.468 356.908,272.745 356.034,272.231 
			355.756,272.671 356.547,273.457 356.509,274.532 356.671,274.93 355.83,275.722 355.875,276.472 356.59,277.381 356.59,278.021 
			355.716,278.299 355.086,277.588 354.962,276.673 353.855,276.513 353.855,275.995 352.979,275.607 352.311,275.722 
			352.225,275.172 353.065,274.688 353.378,273.943 352.504,273.227 353.144,271.997 353.971,271.8 354.208,270.686 
			353.855,269.851 354.092,269.263 353.736,268.342 353.816,267.119 352.662,266.288 352.779,265.73 353.458,266.132 
			354.368,265.93 354.567,264.742 354.962,264.345 354.962,262.796 354.567,261.371 354.728,260.461 354.248,260.654 
			352.943,261.215 351.951,260.222 352.546,259.705 351.951,259.154 351.514,259.072 351.911,258.434 352.779,258.039 
			352.625,257.447 351.6,257.215 350.919,256.571 350.245,256.85 350.088,255.902 350.521,255.902 350.882,255.268 350.326,255.188 
			349.775,255.577 349.783,256.147 349.325,256.938 348.609,256.623 348.909,255.742 348.471,255.013 348.195,253.597 
			348.258,252.647 348.258,252.306 348.556,252.18 348.053,251.622 347.505,252.003 346.027,251.905 345.989,252.246 
			346.683,253.019 347.854,255.864 348.031,256.88 347.854,258.713 347.421,259.168 347.004,259.168 346.804,259.474 
			347.442,261.759 347.761,262.068 348.591,261.475 349.721,261.475 348.947,261.718 348.173,262.647 348.451,263.979 
			349.109,265.492 349.365,268.277 349.348,269.953 349.384,271.104 349.959,270.821 350.197,269.846 349.923,269.172 
			350.255,268.874 350.654,269.483 350.654,270.423 351.254,270.343 351.353,269.892 351.21,269.549 351.528,269.47 
			351.626,270.251 351.039,271.302 350.753,272.177 350.696,272.708 350.296,272.826 349.883,272.199 349.428,272.199 
			349.663,273.846 350.422,275.977 350.88,276.131 351.254,275.93 351.649,276.649 351.747,277.165 352.247,277.546 
			351.157,278.278 351.135,278.678 351.509,279.06 351.175,279.813 350.537,281.703 350.558,282.656 350.255,282.999 
			350.814,283.573 350.6,283.977 349.84,284.03 349.365,284.886 349.348,285.421 349.959,286.038 349.325,286.386 348.651,286.435 
			348.173,287.626 347.442,291.53 347.321,292.465 346.544,293.04 345.753,293.102 344.818,292.742 343.786,292.885 341.7,293.875 
			340.748,294.925 340.449,296.184 340.691,297.897 341.62,298.711 343.188,299.668 343.943,301.092 345.408,301.565 
			346.003,302.161 346.244,304.539 346.36,304.776 346.084,305.054 346.084,306.328 345.611,307.361 343.447,310.104 341.9,311.723 
			340.27,313.188 339.691,313.89 339.851,314.439 340.967,314.702 341.202,314.088 341.682,314.11 341.718,314.881 341.62,315.441 
			341.92,315.575 342.353,315.441 342.676,315.832 342.615,316.71 342.854,317.023 343.687,316.932 345.691,315.456 
			347.458,314.026 349.086,312.333 350.612,310.589 352.482,308.258 353.499,307.603 354.171,307.538 354.629,306.968 
			354.708,306.095 355.125,305.529 356.194,305.093 356.908,302.954 358.017,301.284 358.017,300.813 358.572,300.296 
			357.734,299.496 356.827,299.341 356.113,299.461 356.863,298.827 357.539,298.632 359.998,296.016 361.068,295.62 
			362.85,295.896 363.765,295.984 363.582,296.685 363.706,297.438 364.619,296.543 365.273,296.184 363.981,295.647 
			364.122,294.573 364.817,292.86 365.429,292.169 366.343,292.208 366.604,292.584 367.08,292.109 367.654,291.249 369.088,288.96 
			369.068,288.208 369.029,287.455 369.443,286.158 370.299,285.161 371.249,284.567 371.093,284.31 		"/>
		<polygon fill="#EEDFA2" points="290.443,362.577 290.56,362.081 289.948,362.459 		"/>
		<polygon fill="#EEDFA2" points="287.82,362.577 288.438,362.459 288.497,362.223 288.319,361.863 287.84,360.706 286.887,359.737 
			285.938,360.007 285.774,360.762 285.854,361.826 285.559,362.815 284.743,362.978 284.743,363.676 284.311,363.952 
			283.235,365.049 283.392,365.523 283.912,365.561 284.726,364.605 285.081,364.524 285.396,364.74 285.974,364.787 286.55,364.37 
			287.721,363.975 288.12,364.129 288.46,363.693 288.379,363.255 287.88,363.017 287.44,362.597 287.087,362.521 287.582,362.317 
					"/>
		<polygon fill="#EEDFA2" points="337.598,309.313 337.804,308.794 336.938,308.561 336.315,309.402 336.266,310.204 
			336.14,310.498 336.396,310.454 336.896,309.72 		"/>
		<polygon fill="#EEDFA2" points="336.862,311.007 336.367,311.14 335.908,311.66 336.419,311.64 		"/>
		<polygon fill="#EEDFA2" points="336.115,311.14 336.158,310.852 335.048,311.419 335.621,311.376 		"/>
		<polygon fill="#EEDFA2" points="357.907,271.182 357.769,270.661 358.103,270.423 357.769,269.923 357.688,269.068 
			357.045,270.547 357.688,271.335 		"/>
		<polygon fill="#EEDFA2" points="356.065,270.364 355.644,270.564 355.878,270.904 		"/>
	</g>
</g>
</svg>
