<?xml version="1.0" encoding="utf-8"?>
<!-- Generator: Adobe Illustrator 16.0.0, SVG Export Plug-In . SVG Version: 6.00 Build 0)  -->
<!DOCTYPE svg PUBLIC "-//W3C//DTD SVG 1.1//EN" "http://www.w3.org/Graphics/SVG/1.1/DTD/svg11.dtd">
<svg version="1.1" id="Layer_1" xmlns="http://www.w3.org/2000/svg" xmlns:xlink="http://www.w3.org/1999/xlink" x="0px" y="0px"
	 width="400px" height="400px" viewBox="0 0 400 400" enable-background="new 0 0 400 400" xml:space="preserve">
<g>
	<polygon fill="#EEDFA2" points="206.855,25.767 205.381,27.529 204.337,28.324 205.381,27.529 	"/>
	<polygon fill="#EEDFA2" points="183.601,55.604 183.924,53.947 183.639,53.409 183.924,53.947 	"/>
	<polygon fill="#EEDFA2" points="175.766,188.522 175.115,187.172 175.11,187.164 	"/>
	<polygon fill="#EEDFA2" points="218.732,171.54 218.278,171.021 217.724,170.39 	"/>
	<polygon fill="#EEDFA2" points="196.108,47.011 196.108,47.011 195.284,46.617 	"/>
	<polygon fill="#EEDFA2" points="185.234,58.961 185.647,58.513 187.986,58.047 185.647,58.513 	"/>
	<polygon fill="#EEDFA2" points="156.176,90.896 156.063,90.402 155.816,89.317 	"/>
	<polygon fill="#EEDFA2" points="172.922,63.948 174.901,65.482 176.054,65.643 174.904,65.482 	"/>
	<polygon fill="#EEDFA2" points="168.329,36.569 169.141,36.989 169.447,38.919 169.141,36.98 	"/>
	<polygon fill="#EEDFA2" points="148.795,32.927 149.604,32.519 149.602,32.519 	"/>
	<polygon fill="#EEDFA2" points="166.997,45.93 166.997,45.937 167.376,44.688 	"/>
	<polygon fill="#EEDFA2" points="144.328,30.766 145.461,31.705 146.865,32.316 145.461,31.701 	"/>
	<path fill="#EEDFA2" d="M332.121,106.567l-0.15-2.466l-0.576-0.356l-0.214-1.224l-1.728-3.818V97.41l-0.289-1.581l-3.237-1.441
		l-1.874,0.067l-1.365,0.58l-0.939-1.299l-1.08-0.21l-1.077-1.228l-1.441-0.723l-1.008-0.138l-2.23-2.38l-1.798-2.52l-0.868-0.215
		l-1.222-1.153l-1.079,0.074l-3.022-2.16h-1.368l-1.513-0.647l-0.939,0.504h-1.435l-0.864-0.437l-0.933,0.437l-0.437,0.649
		l-0.576-0.576l-1.366-1.011l-0.217,0.434l-0.575-0.505l-0.214,0.644v0.509l-0.796-0.647l-0.139-0.505l-0.6-0.167l0.185,0.499
		l-0.291,0.202l-1.477-0.579l-0.488,0.089l-1.241-0.229l-2.735-1.301l-1.042,0.071l-0.058,0.307l0.217,0.558l-0.234,0.274
		l-0.576-0.307l-0.254,0.142l-0.16,0.409l-0.952,0.458l-0.347,0.505l-0.135,1.171l-0.506-0.864l-0.29-0.753l-0.496,0.211
		l0.066,0.938l-0.819,1.581v1.329l-0.294-1.253l0.326-1.264l-0.179-1.112l0.5-1.614l0.435-0.398l-0.361-0.326l-0.792-0.034
		l1.044-1.185l-1.366-1.474l-0.793-1.257l-0.751,0.072l-1.114-0.182l-0.649,0.829l-0.647,0.317l-0.32-0.752l-0.471-0.285
		l-0.21-0.726l-0.579-0.457l-0.79,0.066l-0.397-0.501l-0.679-0.25l-0.398,0.499v-0.426l-0.541-0.325l-0.357-0.723l-0.609,0.249
		l-1.114-0.32l-1.476-0.863L270.3,72.71l-0.251,0.436l-0.897-0.61l-0.648,0.069l-0.143,0.614l-0.431,0.03l-0.248-0.682l-1.152-0.032
		l-0.973,0.536l-0.541,0.969l0.075,0.576l-1.08,1.078l-1.397,0.828l-1.801,1.039l-0.859,1.08l-0.54,1.402l-0.212,1.367l-0.474,0.717
		l-0.813,0.857l0.059,0.601l0.159,1.025l-0.183,1.874l-0.324-1.136l-0.682-1.117l0.03-0.826l0.688-0.864l0.812-0.667l-0.123-1.375
		l0.409-1.152l-0.088-0.616l-0.594-0.014l-1.172,0.411l-1.277-0.38l-1.12,0.072l-0.896,0.235l-0.63-0.538l0.719,0.09l0.847-0.631
		l0.885-0.204l1.492,0.275l0.847-0.2l0.793-0.991l0.355-0.018l0.471,0.359l0.505-0.162l0.864-0.501l1.457-0.51v-1.147l1.294-1.513
		v-1.081l0.506-0.72l0.069-0.865l-1.363-0.288l-1.085-0.86h-1.004l-1.439,0.86l-1.222,0.077l-1.73-0.726l-1.875-0.14l-1.361,1.441
		l0.07,0.573l0.447,0.331l0.286,0.487l-0.647,0.078l-0.4,0.209l-0.356,0.866l-0.254-0.755l-0.47-0.181l-1.074,0.429l-1.151,1.617
		l-1.545,1.768l1.151-1.618l-0.038-1.038l0.252-0.583l0.105-0.714h-0.502l-1.004,0.816l-0.504,1.154l-0.503,1.295l-0.825,0.539
		l0.791-1.509l0.144-1.186l1.756-2.19l0.438-1.478l0.646-0.896l0.969-0.536l1.042-0.759l0.757-0.322l0.935-1.404l2.332-2.375
		l0.144-0.573l0.47-0.355l-0.499-0.648l0.175-0.688l0.324-0.281l0.032-0.973l-0.934-0.684l-1.042,0.07l-0.321,0.365l-0.468-0.794
		l-0.647-1.868l-1.112-2.771l-1.011-1.435l-0.715-1.904l0.034-1.042l-0.25-1.04l-0.414-0.396l-0.161-0.971l-0.613-1.184
		l-0.251,0.138l0.072,0.791l-0.395,0.615l-1.15,0.752l0.015-0.019l-0.058,0.056l-0.381,0.585l-1.223,1.514l-1.295,1.672
		l-0.018,0.904l-0.958,2.076l-0.812,1.312l-0.611,1.215l-0.861,0.146l-0.525,0.373l-0.195,0.812l-0.882,0.651l-0.596-0.201
		l-0.041-1.314l-0.355-0.163l-0.127-0.414l-0.56-0.055l-0.699,0.274l-0.542,0.592l-0.851-0.152l-0.688-0.762l0.008-0.489
		l-0.271-0.238l-0.313-0.812l-0.176-0.474l-0.682-0.138l-0.971-0.921l-1.299-0.055l-0.953,0.432l-2.069,0.091l-1.118-0.288
		l-0.971,0.648l-0.158,0.905l0.916,0.896l0.231,0.579l0.47,1.088l-0.184,0.372l-0.846,0.033l-1.259-0.345l-0.309-0.237l-0.412-0.01
		l-0.087-0.026l0.027,0.018h-1.621l-0.898,0.146l-0.395-0.434l-1.47,0.072l-1.045,0.433l-0.575,1.582l-2.049-0.074l-1.043,0.319
		l-0.146,0.478l-0.682,0.821l-1.145,0.108l-0.15-0.321l-0.683,0.177l-0.609,0.789l-0.788-0.317l-1.982-1.696l-0.716-0.895
		l-0.038-0.719l-1.075-1.077l-0.9-0.937l-0.106-1.008l0.213-0.676l-0.251-0.506l0.145-0.901l0.359-0.721l-0.07-1.076l0.969-1.692
		l0.323-1.365l0.897-1.113l-0.031-0.538l-0.938,0.073l-0.469-0.722l-0.32-0.718l-1.045,0.073l-0.862-0.433l0.431-0.612l0.611-0.969
		v-1.333l-0.824-1.041l-1.118-0.106l-0.536,0.362l-0.396-0.434l-0.494-0.071l0.099,1.047l-0.467,1.179l-2.587,1.839l-1.62,0.14
		l-2.228,0.935l0,0l0,0l-0.824-0.394l-1.405,0.142l-1.614,1.439l-1.583,0.536l-0.541-0.358l-2.227,0.293l-1.728,0.105l-1.546-0.868
		l-1.546-0.245l-1.436-0.434l0.649,1.221l1.042,0.392l1.074,1.014l0.359,0.93l-1.398,2.155l0.253,0.471l0.285,0.538l-0.323,1.657
		l2.303,0.755l1.579-0.184l1.58,0.324l0.072,1.01l-1.148,0.537l-2.339,0.466l-0.413,0.448l-0.413,0.451l-0.468,1.295l-2.554,1.33
		l-0.822,0.969l-1.716,1.119l-1.172,1.411l-2.036,0.106l-1.152-0.16l-1.979-1.534l-1.913-1.307l-1.309,0.151l0.034-1.372
		l-0.197-1.098l-0.831-1.009l-0.274-0.764l-1.361,0.355l-0.971,1.079l-0.648,0.11l-0.544-0.506h-0.968l-0.607,0.689l-5.644,0.029
		l-0.324,1.615l0.466,1.188l1.905,0.505l0.716,1.332l-0.538,0.609l0.577,0.611l-0.252,0.824l-1.186-0.788l-3.346,1.147l0.146,2.734
		l0.865,1.11l1.863,1.44l1.226,2.158l-0.071,1.691l-0.039,0.748l-2.802,10.409l-0.831,2.757l0.112,0.494l-0.431,0.721l-1.077-0.287
		l0.108-0.323l-1.116-0.722l-0.396,0.107h-0.972l-0.431-0.178l-0.359,0.792l-3.415,1.113l-2.551,0.538l-0.646,0.647l-0.576,0.179
		l-1.041,1.046l-1.186,0.536l-0.897,0.576l0.142,1.296l-0.501,0.748l0.214,0.797l-1.368,1.361l0.47,1.73l0.466,0.896l-0.829,0.794
		l-0.717-0.146l-1.399,0.897l-0.073,1.004l-0.503,0.54l0.322,0.684l-0.18,1.113l-0.399,0.936l0.363,0.829l-0.249,0.751l1.362,1.37
		l2.442,3.954l-1.253,1.576l3.09-0.251l1.473,0.251l1.078,1.584l0.322,1.399l2.147,0.085l2.531,0.161l2.11-1.929l1.783-1.026
		l0.501,0.536l-0.233,1.102l-0.359,0.382l-0.032,1.783l0.263,2.94l0.055,1.169l0.617,0.582l0.989-0.166l0.953-0.266l1.077-0.079
		l0.551-0.071l0.496,0.23l0.141,0.068l3.166-0.01l1.44,0.074l1.438-0.794h0.794l1.078-0.864h1.225l1.44-0.434l0.863-2.227
		l2.378-1.512l1.653-0.288l1.585-0.794h1.08l1.007,0.724l1.154-0.724l0.574,0.505l-0.142,1.152l0.577,1.803l-0.797,1.438
		l0.651,2.304l-0.432,1.005l0.859,1.875l1.153,0.505l0.36,1.51l1.15,0.577l1.587,1.004l1.077,1.008l0.433-0.501l2.089-0.507
		l1.729,1.727l1.295-0.359l1.8,1.946l0.793-0.072l2.158,0.72l1.37,0.507l0.287,1.441l1.008,0.28l1.295,0.724l2.88-0.292l2.016,1.157
		l0.433,0.864l-0.289,2.3l0.434,1.876l-0.577,1.147l1.872,3.168l-0.146,2.307l8.788,0.143l0.43,3.165l-0.143,2.017l2.587,0.577
		l2.593,4.611l0.146,2.443l-2.448,4.899l0.144,0.718l-0.669,0.918l0.454,0.52l-0.29,1.08l1.23,0.938l0.069,1.515l1.007,1.506
		l-0.506,3.024l0.288,1.224l-0.359,1.084l0.359,1.082l1.871-0.146l0.794,0.357l2.306-0.147l1.437,0.51l2.3-0.938l1.23,0.861
		l0.936,0.285l0.359,1.159l1.258,5.417l0.861,1.903l0.902,0.25l1.975-1.075l1.114,0.429l0.751,0.688l0.725,0.144l-0.488,0.805
		l-0.123,4.692l-0.206,0.546l-0.133,0.177l0.005,0.627l-0.129,0.52l-0.047,0.606l0.87-0.574l2.298,0.326l0.072,1.011l0.936,2.115
		l-0.075,1.692l0.218,1.941l0.18,1.796l-0.286,0.718l-1.01-0.034l-1.219,0.646l-0.183,0.397l-0.718,0.607l-0.321-0.18l-2.051,1.367
		l-0.393,0.647l-0.794,0.216l-1.87,1.546l-0.608,0.212l-0.071,1.224l-0.685,0.213l-0.609-0.103l-1.579,1.938l-0.294,0.754
		l0.041,1.114l-0.722,0.221l-0.396,0.611l-1.007,1.825l-0.719,0.76l-0.829,1.363v0.469l-0.931,0.647l-0.134,0.441l0.745,0.024
		l0.54,0.291l2.514-0.757l1.043,0.686l1.15,1.578l1.006,0.431l0.611,1.366l1.187,1.947h0.575l0.97-1.05l0.503,0.073l1.151,1.867
		l1.361,0.615l1.188,0.253l1.153,1.147l0.07,1.361l0.971-0.207l1.938,0.855l1.152,1.442l1.219,1.831l1.118,0.789l-0.216,1.404
		l-0.935,1.293l0.47,1.509l0.176,0.372l0.136,0.241l0.587,0.778l0.275,0.231l1.89-1.563l0.644-1.509l0.826-3.485l0.754-2.372
		l0.327-0.464l-0.428-0.544l-0.722-1.183l0.358-1.007l0.718-0.361l0.038-0.643l0.827-0.938v-0.722l0.5,0.4l0.685,0.109l0.827-0.977
		l0.105-0.998l0.327-0.331l0.069-1.145l0.359-0.471h0.505l0.356-0.97l-0.251-0.722l-0.537-0.567l0.067-1.513l-0.427-0.396
		l0.505,0.143l0.571,1.187l1.187,1.296h0.469l0.505-0.288l0.321,0.322l0.107,0.861l-0.395,0.104l-0.468,1.728l-1.149,1.981
		l-1.041,0.034l-0.145,1.256l-0.359,0.682l-0.327-0.104l-1.04,0.577l-0.757,0.644l-0.071,0.537l-0.82,0.142l-0.4,0.4l0.035,0.538
		l0.973,0.284l3.161-2.475l1.616-1.831l2.337-3.996l0.898-2.011l0.897-2.583l2.266-4.319l2.228-2.656l0.359-0.796l-0.213-0.283
		l0.107-0.68l0.466-0.147l0.36-1.115l0.646-0.392l-0.218-0.902l0.218-0.646l-0.218-0.287l-0.395-0.324l0.075-1.007l-0.976-1.36
		v-0.613l0.182-0.611l-0.182-0.651l-0.323-1.435l-0.497-1.51l0.39-0.355l1.261-0.253l-0.324-0.832l-0.611-0.355l1.188-0.286
		l0.035-0.974l-1.223-0.542l1.006-0.286l0.649-0.932l0.505,0.395l1.58-1.472l0.932-0.615l-0.037-0.503l1.332-1.147l1.546-1.007
		l2.05-2.333l1.794-0.223l0.969-0.93l1.08-0.864h1.009l0.645,0.54l0.757,0.18l0.032-0.72l0.758-1.325l2.118-1.332l0.824-0.252
		v-0.396l-0.502-0.323l-0.682-0.146l-0.322-0.609l0.758-0.185l1.291-0.782l0.751,0.21l0.85-0.07l0.611-0.482l0.848,0.048
		l-0.055,0.405l-1.205,0.678l-1.263,0.256l-0.25,0.287l0.412,0.325l1.927-0.721l2.325-0.921l-0.199-0.379l0.607-0.521l0.581,0.091
		l-0.198,0.559c0,0,0.055,0.827,0.14,0.864c0.094,0.031,1.461,0.214,1.461,0.214l0.816-0.446h1.363l1.66,0.179l1.005-0.684
		l0.018-0.505l-0.251-0.252l0.145-0.509l2.25-1.531l1.893-0.67l0.97-0.592l0.292-0.614l-0.274-0.382l-0.828-1.891l0.61-1.298
		l0.711-0.85l0.032-0.976l0.468-0.39l0.829-0.582l0.178-1.003l-0.252-0.141l1.402-2.264l1.907-2.233l0.034-1.003l-0.395-3.167
		l-0.326-0.609l0.611-1.901l0.503-0.758l0.108-0.644l1.476-1.189l0.214-0.576l-0.393-1.848l0.79-2.231l-0.22-1.725l0.293-1.294
		l-0.073-0.723l0.435-1.874l-0.506-6.762l-0.009-1.253l0.396-0.939l0.006-0.902l-0.438,0.467l-0.786-0.577v-0.57l0.722-1.119
		l-0.185-1.113l0.185-0.755l0.646-0.175l0.143-1.187l-0.685-1.117l-1.331-0.609l0.363-0.144l0.178-0.433l0.254,0.541l0.789,0.465
		l0.717,0.252l0.291-1.076l0.678,0.031l0.292,0.611l0.501,0.256l-0.541,0.752l-0.714,0.535l-0.185,0.616l0.506,0.034l0.974-0.897
		l1.327-0.682l1.689-2.586l0.757-1.905l0.247-1.152l0.646-0.575l0.646-1.726l0.722-1.472l2.622-1.795l0.326-0.866l0.794-0.246
		l0.572-0.938l2.229-2.011l1.976-2.665l0.501-0.721l1.226-2.69l0.32-1.187l0.614-0.861v-0.865l-0.646-0.97l0.252-1.008
		L332.121,106.567z"/>
	<polygon fill="#EEDFA2" points="220.749,40.576 220.785,41.271 220.082,42.089 219.178,42.554 217.954,42.595 217.308,43.82 
		217.27,44.887 216.424,46.974 216.519,47.607 217.414,48.076 218.008,48.767 218.153,49.269 218.732,50.039 218.785,50.69 
		219.36,51.197 220.011,51.232 220.387,51.543 220.585,52.278 220.979,53.778 220.946,54.787 221.468,55.182 222.282,56.123 
		222.402,56.987 223.414,57.381 223.414,57.782 223.703,58.43 224.406,58.925 224.493,58.951 224.905,58.961 225.214,59.198 
		226.473,59.543 227.318,59.51 227.502,59.138 227.032,58.05 226.801,57.471 225.885,56.575 226.043,55.67 227.014,55.021 
		228.132,55.31 230.201,55.219 231.154,54.787 232.453,54.842 233.424,55.763 234.105,55.9 234.361,55.958 235.566,55.143 
		236.035,54.049 235.672,53.397 235.566,52.137 236.36,51.355 236.524,50.496 236.343,50.039 236.14,49.016 235.584,48.109 
		235.191,47.318 234.286,46.775 234.286,45.947 234.414,44.829 234.036,43.841 233.928,42.466 234.72,41.406 235.109,40.97 
		235.158,40.936 236.127,39.757 236.05,39.068 235.009,38.604 233.283,38.312 231.306,37.562 230.662,37.635 229.762,38.028 
		228.216,37.882 226.274,38.279 224.655,37.811 222.47,37.851 221.204,38.312 220.995,39.454 221.001,39.57 	"/>
	<polygon fill="#EEDFA2" points="205.381,27.529 204.337,28.324 203.584,28.251 202.221,29.864 202.611,30.551 202.973,31.624 
		204.306,31.701 205.131,32.347 205.131,33.537 203.514,34.254 202.65,33.928 201.964,34.287 201.177,33.928 200.494,34.72 
		200.277,36.227 199.271,37.164 199.736,38.421 201.031,40.217 202.903,41.766 202.911,41.872 203.405,41.943 203.801,42.377 
		204.337,42.015 205.455,42.121 206.279,43.162 206.279,44.495 205.668,45.464 205.237,46.076 206.1,46.509 207.145,46.436 
		207.465,47.153 207.934,47.875 208.871,47.802 208.902,48.34 208.005,49.453 207.682,50.818 206.713,52.511 206.783,53.587 
		206.424,54.308 206.279,55.209 206.53,55.715 206.317,56.391 206.424,57.398 207.324,58.335 208.399,59.412 208.438,60.131 
		209.153,61.025 211.136,62.722 211.924,63.039 212.533,62.25 213.216,62.073 213.366,62.395 214.511,62.286 215.192,61.465 
		215.338,60.987 216.381,60.668 218.43,60.742 219.005,59.16 220.05,58.728 221.52,58.655 221.914,59.089 222.812,58.942 
		224.434,58.942 224.406,58.925 223.703,58.43 223.414,57.782 223.414,57.381 222.402,56.987 222.282,56.123 221.468,55.182 
		220.946,54.787 220.979,53.778 220.585,52.278 220.387,51.543 220.011,51.232 219.36,51.197 218.785,50.69 218.732,50.039 
		218.153,49.269 218.008,48.767 217.414,48.076 216.519,47.607 216.424,46.974 217.27,44.887 217.308,43.82 217.954,42.595 
		219.178,42.554 220.082,42.089 220.785,41.271 220.749,40.576 221.001,39.57 220.995,39.454 220.99,39.464 220.704,38.459 
		220.704,37.236 220.386,36.483 218.512,35.979 216.895,34.287 215.979,33.572 215.369,33.882 214.359,34.226 213.675,34.999 
		213.459,35.937 213.276,34.746 213.494,33.2 213.82,32.299 213.316,30.651 212.559,30.083 210.596,28.872 209.28,27.39 
		209.153,26.598 208.197,25.679 207.283,25.478 207.004,25.303 206.855,25.767 	"/>
	<path fill="#EEDFA2" d="M153.71,26.027l1.012,0.271l0.794-0.971l-0.433-0.67l-1.483,1.118l-0.483-0.646l-1.027,0.753
		c0.019-0.019,0.522,0.381,0.522,0.381L153.71,26.027z"/>
	<polygon fill="#EEDFA2" points="149.945,8.022 147.387,9.017 145.896,11.322 145.427,11.892 144.567,12.111 143.775,13.264 
		142.986,13.946 141.4,16.208 141.116,17.215 141.439,18.075 141.296,19.731 140.54,21.353 140.432,21.853 141.08,21.781 
		141.942,21.817 143.913,25.424 144.796,26.756 145.047,27.697 144.546,28.776 144.616,29.467 144.273,30.041 144.328,30.766 
		145.461,31.701 146.865,32.316 147.75,32.422 148.795,32.927 149.602,32.519 149.604,32.519 149.604,32.519 150.882,32.553 
		152.087,32.909 152.446,32.604 153.888,32.347 155.476,32.661 156.375,33.036 160.137,36.753 161.506,36.462 161.866,36.772 
		162.265,36.625 163.271,36.932 163.92,37.297 164.853,36.772 165.846,36.753 167.216,36.878 167.47,36.606 168.329,36.569 
		169.141,36.98 169.447,38.919 169.051,39.708 169.051,40.594 168.728,41.209 167.535,41.564 166.979,42.254 167.27,44.035 
		167.376,44.688 166.997,45.937 167.03,47.516 167.567,48.305 167.607,48.879 168.684,51.543 167.07,54.474 167.216,55.205 
		167.756,55.378 168.241,55.021 168.453,55.252 168.673,56.051 169.159,56.337 169.683,57.325 169.41,57.89 169.982,59.15 
		170.98,61.674 171.064,62.631 171.009,62.642 172.922,63.948 174.904,65.482 176.054,65.643 178.09,65.536 179.262,64.125 
		180.978,63.006 181.8,62.037 184.354,60.707 184.821,59.412 185.234,58.961 185.647,58.513 187.986,58.047 189.135,57.51 
		189.062,56.5 187.482,56.176 185.903,56.359 183.601,55.604 183.924,53.947 183.639,53.409 183.386,52.938 184.784,50.783 
		184.425,49.854 183.351,48.84 182.309,48.448 181.659,47.228 183.095,47.661 184.641,47.906 186.187,48.774 187.914,48.669 
		190.141,48.376 190.682,48.734 192.265,48.198 193.879,46.759 195.284,46.617 196.108,47.011 196.108,47.011 198.336,46.076 
		199.956,45.937 202.543,44.098 203.01,42.919 202.911,41.872 202.903,41.766 201.031,40.217 199.736,38.421 199.271,37.164 
		200.277,36.227 200.494,34.72 201.177,33.928 201.964,34.287 202.65,33.928 203.514,34.254 205.131,33.537 205.131,32.347 
		204.306,31.701 202.973,31.624 202.611,30.551 202.221,29.864 203.584,28.251 204.337,28.324 205.381,27.529 206.855,25.767 
		207.004,25.303 206.743,25.134 204.832,24.27 204.149,24.252 203.482,24.521 202.473,24.304 201.915,24.321 201.11,24.687 
		199.504,24.941 198.336,24.814 197.74,24.734 198.782,24.551 199.354,24.624 200.074,24.154 200.507,23.363 201.549,22.58 
		201.761,22.071 201.08,21.603 201.149,21.281 200.866,20.486 199.502,19.768 197.847,19.338 197.342,18.833 196.732,18.442 
		195.762,18.406 195.438,17.942 194.433,17.504 193.892,17.538 193.929,18.37 193.281,17.504 192.887,16.536 191.879,16.036 
		191.592,15.499 192.131,15.063 194.361,15.14 195.186,14.596 196.589,14.451 196.732,13.622 195.438,13.878 193.208,13.411 
		191.592,13.622 190.516,13.556 188.322,14.343 187.569,14.023 186.667,14.124 184.835,15.423 183.899,15.64 182.784,16.214 
		182.354,16.752 180.883,16.935 180.417,17.219 179.658,16.966 177.469,15.499 177.038,14.596 176.389,14.486 173.947,14.663 
		169.238,15.458 166.938,15.458 166.036,14.992 165.679,14.269 165.679,13.411 166.254,13.374 166.145,12.369 165.143,11.001 
		164.205,10.75 161.834,10.929 160.755,10.318 159.967,10.283 159.32,10.501 158.489,9.167 158.489,7.838 158.135,6.187 
		157.666,6.004 156.262,6.582 154.896,8.197 155.223,9.279 155.688,9.706 156.622,9.206 157.519,9.279 158.312,10.139 
		158.167,10.75 157.305,11.001 156.3,10.531 155.833,10.21 155.619,10.501 155.583,10.896 154.43,11.507 152.238,11.898 
		150.046,12.835 149.363,13.698 149.363,14.527 149.925,15.56 149.925,17.576 150.137,18.943 150.566,20.095 149.844,21.604 
		148.119,22.615 147.256,22.472 147.256,21.031 146.246,19.882 145.96,18.873 146.895,18.078 146.965,17.504 148.844,15.635 
		148.844,14.048 148.25,13.014 148.319,12.547 148.288,11.938 147.495,11.359 147.099,10.531 147.354,9.852 148.498,9.348 
		149.687,9.06 150.736,7.853 150.18,7.845 	"/>
	<polygon fill="#EEDFA2" points="114.271,63.43 116.508,64.884 117.387,64.901 118.559,66.129 118.382,66.871 118.581,67.52 
		120.107,67.646 121.857,68.494 122.446,68.911 124.052,69.267 124.663,68.711 124.609,67.684 125.339,67.109 125.687,67.119 
		127.183,67.65 127.968,68.079 128.185,68.732 128.858,69.11 128.97,69.18 129.323,69.148 129.899,69.727 131.699,70.161 
		132.814,70.411 133.102,70.945 134.291,72.351 134.397,73.282 135.222,74.831 135.867,74.831 138.241,75.621 139.244,77.098 
		139.213,78.284 139.569,78.39 140.396,78.785 140.831,80.044 140.506,80.544 140.792,81.263 141.727,81.661 142.768,81.411 
		143.633,81.627 144.855,81.589 145.355,81.155 146.939,80.438 148.303,80.691 149.49,81.263 151.214,80.508 152.115,80.508 
		152.508,81.087 153.087,81.051 154.197,81.589 154.698,82.271 155.669,81.948 155.745,82.628 152.508,88.094 152.689,88.704 
		153.806,88.598 155.06,88.488 155.816,89.317 156.063,90.402 156.895,87.646 159.696,77.236 159.735,76.488 159.807,74.797 
		158.581,72.639 156.718,71.198 155.853,70.088 155.707,67.354 159.053,66.206 160.238,66.994 160.49,66.17 159.913,65.559 
		160.451,64.949 159.735,63.617 157.83,63.112 157.364,61.924 157.688,60.309 163.332,60.279 163.939,59.59 164.907,59.59 
		165.451,60.096 166.1,59.985 167.07,58.906 168.432,58.551 168.706,59.314 169.537,60.323 169.734,61.421 169.7,62.793 
		171.009,62.642 171.064,62.631 170.98,61.674 169.982,59.15 169.41,57.89 169.683,57.325 169.159,56.337 168.673,56.051 
		168.453,55.252 168.241,55.021 167.756,55.378 167.216,55.205 167.07,54.474 168.684,51.543 167.607,48.879 167.567,48.305 
		167.03,47.516 166.997,45.937 166.997,45.93 167.376,44.688 167.27,44.035 166.979,42.254 167.535,41.564 168.728,41.209 
		169.051,40.594 169.051,39.708 169.447,38.919 169.141,36.989 168.329,36.569 167.47,36.606 167.216,36.878 165.846,36.753 
		164.853,36.772 163.92,37.297 163.271,36.932 162.265,36.625 161.866,36.772 161.506,36.462 160.137,36.753 156.375,33.036 
		155.476,32.661 153.888,32.347 152.446,32.604 152.087,32.909 150.882,32.553 149.604,32.519 149.604,32.519 148.795,32.927 
		147.75,32.422 146.865,32.316 145.461,31.705 144.328,30.766 144.273,30.041 144.616,29.467 144.546,28.776 145.047,27.697 
		144.796,26.756 143.913,25.424 141.942,21.817 141.08,21.781 140.432,21.853 140.54,21.353 141.296,19.731 141.439,18.075 
		141.116,17.215 141.4,16.208 142.986,13.946 143.775,13.264 144.567,12.111 145.427,11.892 145.896,11.322 147.387,9.017 
		149.945,8.022 150.18,7.845 150.736,7.853 150.876,7.692 151.446,7.262 151.663,6.688 151.088,5.935 149.291,4.961 148.571,4.927 
		148.319,5.361 148.25,5.825 147.495,5.935 147.099,6.256 146.273,6.147 145.555,6.439 145.157,6.904 145.586,7.406 145.264,7.874 
		143.975,8.521 142.246,9.565 141.095,10.395 139.765,10.673 138.295,10.785 136.675,10.603 135.67,11.144 135.744,11.756 
		136.064,12.547 135.959,13.339 135.201,14.018 134.702,13.804 134.88,13.014 134.768,12.764 135.488,12.509 134.45,12.401 
		133.188,11.864 132.542,11.898 130.887,12.905 130.494,13.588 129.381,14.882 128.052,17.398 127.87,18.12 128.264,17.942 
		128.625,18.331 128.771,19.161 128.48,20.06 127.762,20.414 126.826,20.486 126.109,20.884 124.814,22.139 124.276,22.43 
		123.304,23.863 122.733,23.938 121.901,23.976 122.188,24.912 123.055,25.881 123.055,27.104 122.554,28.179 122.012,28.144 
		121.114,27.39 121.222,27.031 121.542,26.457 120.792,26.14 120.467,25.193 119.363,24.229 119.154,25.103 119.314,25.752 
		119.768,26.995 119.049,28.271 118.703,29.483 118.092,29.966 117.604,30.003 116.958,31.51 117.167,31.701 117.383,32.854 
		117.472,33.988 118.459,35.199 118.843,35.162 119.325,34.91 119.596,35.362 119.722,36.462 119.11,37.146 119.095,37.579 
		119.685,38.227 119.685,39.619 119.037,40.104 118.641,40.828 119.037,40.986 119.431,41.901 119.306,43.589 119.396,45.91 
		118.713,46.723 118.59,47.429 119.179,48.255 120.061,47.877 119.94,48.431 120.443,49.157 120.962,49.108 121.017,49.572 
		120.504,50.215 120.075,51.329 118.203,53.192 117.702,54.237 116.297,55.604 114.43,56.016 112.99,57.094 111.623,59.185 
		111.409,60.846 111.184,61.755 112.637,62.307 	"/>
	<polygon fill="#EEDFA2" points="105.964,88.812 104.921,89.353 104.095,90.285 104.234,91.256 105.244,91.294 106.362,90.788 
		106.826,91.545 108.337,91.866 109.232,92.229 110.675,94.276 111.316,94.276 112.251,93.306 116.137,85.257 116.853,84.606 
		121.957,82.919 124.112,81.411 127.562,78.244 128.949,74.985 129.834,74.93 130.045,74.482 130.301,73.325 130.189,72.383 
		129.169,70.438 129.202,69.919 128.969,69.18 128.97,69.18 128.858,69.11 128.185,68.732 127.968,68.079 127.183,67.65 
		125.687,67.119 125.339,67.109 124.609,67.684 124.663,68.711 124.052,69.267 122.446,68.911 121.857,68.494 120.107,67.646 
		118.581,67.52 118.382,66.871 118.559,66.129 117.387,64.901 116.508,64.884 114.271,63.43 112.637,62.307 111.184,61.755 
		110.904,62.924 109.463,63.001 107.087,64.658 105.862,64.734 104.568,65.377 105.214,66.529 105.287,67.248 105.721,67.966 
		105.433,69.332 103.558,71.35 103.416,72.215 103.851,72.791 102.912,74.16 101.831,74.303 100.967,75.522 101.328,76.32 
		101.71,77.348 101.598,78.138 101.775,79.615 101.238,80.544 100.736,81.015 101.31,81.766 102.387,82.197 103.394,83.241 
		104.223,83.781 104.617,83.493 105.045,82.31 105.372,81.693 106.093,80.979 106.128,81.84 106.234,82.594 106.414,82.128 
		106.343,81.334 106.666,81.411 106.988,82.7 106.739,84.104 106.879,84.854 106.378,86.116 105.078,87.209 105.535,87.448 	"/>
	<polygon fill="#EEDFA2" points="159.088,162.782 159.735,162.925 160.705,162.315 161.064,161.486 160.161,160.628 160.49,159.763 
		160.992,158.936 161.69,159.099 161.568,158.471 160.961,158.361 160.526,157.89 161.28,156.278 162.396,155.523 163.398,154.194 
		163.51,153.005 162.066,149.702 162.573,148.91 162.465,147.653 162.142,147.004 161.928,145.962 162.539,145.276 162.897,143.552 
		162.755,140.354 162.285,138.95 162.897,137.374 162.86,133.921 163.688,132.551 163.652,131.835 159.053,125.259 159.053,125.259 
		158.912,125.19 158.416,124.96 157.865,125.031 156.788,125.11 155.835,125.376 154.846,125.542 154.229,124.96 154.174,123.791 
		153.911,120.851 153.943,119.067 154.303,118.686 154.536,117.584 154.035,117.048 152.252,118.074 150.142,120.003 
		147.61,119.842 145.463,119.757 145.141,118.357 144.062,116.773 142.59,116.522 139.5,116.773 140.753,115.197 138.311,111.243 
		136.948,109.873 137.197,109.122 136.834,108.293 137.233,107.357 137.413,106.244 137.091,105.561 137.594,105.021 
		137.667,104.017 139.066,103.119 139.783,103.266 140.612,102.472 140.146,101.575 139.677,99.845 141.045,98.483 140.831,97.687 
		141.332,96.938 141.19,95.643 142.088,95.066 143.273,94.53 144.314,93.484 144.891,93.306 145.536,92.658 148.087,92.12 
		151.502,91.007 151.861,90.215 152.292,90.393 153.264,90.393 153.66,90.285 154.776,91.007 154.668,91.33 155.745,91.617 
		156.176,90.896 155.816,89.317 155.06,88.488 153.806,88.598 152.689,88.704 152.508,88.094 155.745,82.628 155.669,81.948 
		154.698,82.271 154.197,81.589 153.087,81.051 152.508,81.087 152.115,80.508 151.214,80.508 149.49,81.263 148.303,80.691 
		146.939,80.438 145.355,81.155 144.855,81.589 143.633,81.627 142.768,81.411 141.727,81.661 140.792,81.263 140.506,80.544 
		140.831,80.044 140.396,78.785 139.569,78.39 139.213,78.284 139.244,77.098 138.241,75.621 135.867,74.831 135.222,74.831 
		134.397,73.282 134.291,72.351 133.102,70.945 132.814,70.411 131.699,70.161 129.899,69.727 129.323,69.148 128.97,69.18 
		128.969,69.18 129.202,69.919 129.169,70.438 130.189,72.383 130.301,73.325 130.045,74.482 129.834,74.93 128.949,74.985 
		127.562,78.244 124.112,81.411 121.957,82.919 116.853,84.606 116.137,85.257 112.251,93.306 111.316,94.276 110.675,94.276 
		109.232,92.229 108.337,91.866 106.826,91.545 106.362,90.788 105.244,91.294 104.234,91.256 104.095,90.285 104.921,89.353 
		105.964,88.812 105.535,87.448 105.078,87.209 105.012,87.267 102.568,88.346 101.671,89.172 99.944,90.862 99.585,92.12 
		99.189,93.083 99.299,93.553 100.092,94.204 100.197,94.923 99.585,95.353 99.585,95.886 100.553,96.76 101.31,98.152 
		101.202,99.128 100.449,99.164 99.658,99.525 99.373,100.279 100.197,101.066 101.202,101.47 102.675,102.714 104.041,102.901 
		106.093,104.267 107.095,104.521 107.349,105.348 108.461,106.926 108.605,108.293 109.182,109.297 111.193,110.338 
		112.092,111.815 112.378,113.251 112.956,114.216 113.133,115.839 113.812,116.954 114.606,117.423 115.511,119.042 
		115.688,120.225 115.398,120.619 116.189,122.34 117.77,124.321 118.382,125.361 118.13,126.187 118.311,126.879 118.958,127.088 
		120.643,128.602 121.076,129.498 121.258,130.896 121.724,131.508 123.019,131.977 123.271,133.162 124.709,135.459 
		125.064,136.615 126.719,138.944 126.755,139.883 126.327,140.066 125.856,139.738 125.82,140.242 125.999,141.071 
		125.999,141.823 126.578,141.719 127.224,142.148 127.369,142.8 127.151,143.3 128.806,144.448 130.385,145.235 130.455,145.917 
		131.212,146.859 132.143,146.963 132.523,147.445 132.885,148.27 133.513,148.684 135.028,148.611 135.508,148.021 
		135.202,148.888 136.071,149.862 137.675,150.706 138.394,151.374 138.519,152.116 139.275,152.615 140.484,153.053 
		140.915,152.889 141.762,153.122 143.687,154.299 145.002,154.802 145.939,154.852 146.386,155.09 146.656,155.755 
		148.022,156.748 148.782,157.217 149.861,158.23 150.532,158.499 150.854,159.129 150.781,159.651 150.797,160.354 
		151.932,160.588 153.067,161.059 154.437,162.462 155.716,163.653 156.58,163.927 156.766,164.1 158.009,163.503 	"/>
	<polygon fill="#EEDFA2" points="163.652,131.835 163.688,132.551 162.86,133.921 162.897,137.374 162.285,138.95 162.755,140.354 
		162.897,143.552 162.539,145.276 161.928,145.962 162.142,147.004 162.465,147.653 162.573,148.91 162.066,149.702 163.51,153.005 
		163.398,154.194 162.396,155.523 161.28,156.278 160.526,157.89 160.961,158.361 161.568,158.471 161.69,159.099 161.928,159.152 
		162.033,160.41 163.045,161.309 163.58,161.812 163.723,162.748 163.51,163.723 163.688,164.255 163.939,165.948 164.729,167.064 
		166.997,168.896 167.188,169.67 166.609,171.109 166.969,172.119 165.743,174.78 166.468,175.793 168.914,178.089 172.584,187.959 
		173.953,187.959 174.312,187.311 175.11,187.164 175.115,187.172 175.752,186.373 176.619,184.57 178.562,182.558 179.858,182.126 
		181.077,183.205 182.521,183.058 183.386,182.848 184.466,183.132 186.265,182.77 187.201,182.921 187.418,184.211 
		188.137,186.299 188.496,186.873 188.928,186.299 188.853,185.364 189.431,184.43 189.431,183.491 190.225,182.342 
		193.103,182.342 195.626,182.408 196.565,183.294 196.973,181.617 198.302,178.883 198.41,177.559 198.229,176.191 
		197.727,175.396 199.307,173.063 199.956,171.196 199.956,170.365 201.105,169.61 207.934,167.729 213.623,167.803 
		216.934,170.244 217.724,170.39 218.278,171.021 218.947,170.103 218.804,169.385 221.252,164.485 221.106,162.042 
		218.514,157.431 215.927,156.854 216.069,154.837 215.64,151.672 206.852,151.529 206.998,149.223 205.126,146.055 
		205.703,144.907 205.27,143.031 205.559,140.731 205.126,139.867 203.11,138.71 200.23,139.002 198.936,138.278 197.928,137.998 
		197.641,136.557 196.271,136.05 194.112,135.33 193.319,135.402 191.52,133.456 190.225,133.815 188.496,132.089 186.407,132.596 
		185.975,133.097 184.897,132.089 183.311,131.085 182.16,130.508 181.8,128.998 180.646,128.493 179.787,126.618 180.219,125.613 
		179.567,123.31 180.364,121.871 179.787,120.068 179.929,118.916 179.354,118.411 178.2,119.135 177.193,118.411 176.113,118.411 
		174.528,119.205 172.875,119.493 170.497,121.005 169.634,123.231 168.193,123.665 166.969,123.665 165.891,124.529 
		165.097,124.529 163.659,125.323 162.219,125.249 159.053,125.259 159.053,125.259 	"/>
	<polygon fill="#EEDFA2" points="216.934,170.244 213.623,167.803 207.934,167.729 201.105,169.61 199.956,170.365 199.956,171.196 
		199.307,173.063 197.727,175.396 198.229,176.191 198.41,177.559 198.302,178.883 196.973,181.617 196.565,183.294 
		196.701,183.423 197.854,184.642 198.79,184.862 200.016,187.094 203.11,190.185 204.333,190.332 205.559,191.415 206.352,192.706 
		209.375,193.426 211.316,194.434 212.208,194.629 214.403,196.533 216.635,197.647 219.616,198.037 220.802,199.369 
		222.274,200.593 222.85,201.815 222.526,202.897 221.771,204.08 220.91,204.728 220.408,205.552 220.689,206.6 219.975,208.539 
		218.43,210.12 218.14,211.234 219.005,211.202 222.526,210.66 225.512,211.557 227.59,212.814 228.747,212.314 229.394,212.314 
		229.895,212.856 230.901,211.557 231.366,211.305 232.446,211.628 233.345,210.517 233.741,209.225 236.005,207.641 
		236.327,206.563 237.01,205.34 237.909,204.586 238.02,202.749 237.835,202.245 237.941,200.85 238.229,200.663 238.275,200.057 
		238.404,199.537 238.399,198.91 238.532,198.733 238.738,198.188 238.861,193.495 239.35,192.69 238.625,192.547 237.874,191.859 
		236.76,191.431 234.785,192.506 233.883,192.256 233.021,190.353 231.764,184.936 231.404,183.776 230.469,183.491 229.238,182.63 
		226.938,183.567 225.502,183.058 223.196,183.205 222.402,182.848 220.531,182.993 220.172,181.911 220.531,180.827 
		220.243,179.604 220.749,176.579 219.742,175.073 219.673,173.559 218.442,172.62 218.732,171.54 217.724,170.39 	"/>
	<polygon fill="#EEDFA2" points="247.138,245.956 247.002,245.715 246.826,245.343 246.356,243.834 247.291,242.541 
		247.507,241.137 246.389,240.348 245.17,238.517 244.018,237.074 242.08,236.219 241.109,236.426 241.039,235.064 239.886,233.917 
		238.697,233.664 237.336,233.049 236.185,231.182 235.682,231.108 234.712,232.158 234.137,232.158 232.95,230.211 
		232.339,228.845 231.333,228.414 230.183,226.836 229.14,226.15 226.626,226.907 226.086,226.616 225.341,226.592 225.257,226.872 
		224.787,227.984 223.893,229.134 224.216,230.717 223.82,231.474 224.109,232.294 223.932,234.526 223.568,235.314 
		223.677,236.178 223.068,237.256 223.568,238.8 223.207,239.341 223.461,241.569 223.893,243.188 223.576,243.922 222.838,244.604 
		222.644,244.932 222.644,245.033 222.678,247.24 223.36,249.016 224.821,251.051 225.324,251.159 226.712,252.541 227.452,252.726 
		229.648,252.509 230.944,252.6 232.131,253.426 232.893,253.554 233.66,253.609 233.914,253.862 233.768,254.227 233.753,254.762 
		234.76,254.797 235.838,254.133 237.243,253.877 238.236,254.227 238.861,254.602 239.383,254.491 240.123,254.781 
		240.865,254.851 241.353,254.491 241.478,253.899 241.726,253.719 242.143,254.078 243.996,253.393 245.202,252.009 
		245.525,251.479 245.345,251.318 245.834,250.539 246.793,249.646 246.793,248.244 247.59,247.309 248,246.966 247.725,246.734 	
		"/>
	<polygon fill="#EEDFA2" points="222.838,244.604 223.576,243.922 223.893,243.188 223.461,241.569 223.207,239.341 223.568,238.8 
		223.068,237.256 223.677,236.178 223.568,235.314 223.932,234.526 224.109,232.294 223.82,231.474 224.216,230.717 
		223.893,229.134 224.787,227.984 225.257,226.872 225.341,226.592 225.475,226.15 226.405,225.503 226.405,225.034 
		227.234,223.671 227.953,222.911 228.96,221.086 229.355,220.475 230.077,220.254 230.036,219.14 230.33,218.386 231.909,216.447 
		232.519,216.55 233.203,216.337 233.274,215.113 233.883,214.901 235.753,213.355 236.547,213.14 236.939,212.492 238.99,211.125 
		239.312,211.305 240.029,210.697 240.212,210.3 241.431,209.654 242.44,209.688 242.727,208.971 242.547,207.175 242.329,205.233 
		242.404,203.541 241.469,201.426 241.396,200.415 239.099,200.089 238.229,200.663 237.941,200.85 237.835,202.245 238.02,202.749 
		237.909,204.586 237.01,205.34 236.327,206.563 236.005,207.641 233.741,209.225 233.345,210.517 232.446,211.628 231.366,211.305 
		230.901,211.557 229.895,212.856 229.394,212.314 228.747,212.314 227.59,212.814 225.512,211.557 222.526,210.66 219.005,211.202 
		218.14,211.234 218.43,210.12 219.975,208.539 220.689,206.6 220.408,205.552 220.91,204.728 221.771,204.08 222.526,202.897 
		222.85,201.815 222.274,200.593 220.802,199.369 219.616,198.037 216.635,197.647 214.403,196.533 212.208,194.629 
		211.316,194.434 209.375,193.426 206.352,192.706 205.559,191.415 204.333,190.332 203.11,190.185 200.016,187.094 198.79,184.862 
		197.854,184.642 196.701,183.423 196.565,183.294 195.626,182.408 193.103,182.342 190.225,182.342 189.431,183.491 
		189.431,184.43 188.853,185.364 188.928,186.299 188.496,186.873 188.137,186.299 187.418,184.211 187.201,182.921 186.265,182.77 
		184.466,183.132 183.386,182.848 182.521,183.058 181.077,183.205 179.858,182.126 178.562,182.558 176.619,184.57 
		175.752,186.373 175.115,187.172 175.766,188.522 174.47,194.16 168.504,197.323 168.107,198.616 169.148,199.482 169.402,200.378 
		168.795,201.461 169.08,203.146 170.161,204.514 170.161,205.771 169.257,206.452 169.049,207.424 169.654,207.925 
		170.013,208.644 170.087,210.05 170.556,210.551 169.797,211.445 168.831,211.952 167.535,213.283 166.201,216.619 
		165.271,217.884 164.907,221.591 164.228,222.269 164.369,225.395 165.271,227.05 165.198,229.244 164.406,230.249 
		164.369,232.726 162.97,233.371 162.719,235.277 163.221,237.725 164.118,238.947 164.3,239.876 165.451,241.712 166.241,243.225 
		166.85,246.132 167.567,246.814 168,250.666 167.75,253.041 166.778,253.356 165.949,255.373 166.241,257.345 165.091,259.039 
		165.772,259.609 166.778,261.3 167.03,263.096 165.841,264.32 164.804,266.407 164.839,269.858 164.839,271.293 164.481,273.232 
		167.464,279.097 166.743,279.957 165.414,280.603 165.124,283.335 163.293,285.781 163.51,287.505 164.445,289.053 
		164.118,292.788 164.3,296.058 164.729,298.393 165.668,298.865 166.201,299.869 165.883,301.166 164.804,301.88 165.019,305.688 
		165.483,307.167 167.07,307.704 166.96,309.394 167.03,310.828 167.966,312.847 168.438,315.143 169.377,315.32 170.13,314.797 
		170.796,315.068 170.868,316.277 169.77,317.561 167.519,317.544 167.159,318.386 167.775,318.987 168.098,318.69 169.141,318.69 
		170.796,319.851 171.822,321.691 171.858,322.829 170.579,323.944 170.492,324.916 171.139,326.234 171.518,328.994 
		172.095,331.122 171.193,332.039 171.033,333.194 172.027,335.555 171.021,336.71 170.624,338.977 171.27,340.914 171.773,343.538 
		171.27,346.092 169.546,347.889 168.504,349.397 167.859,353.856 168.151,355.448 170.345,359.831 171.373,359.852 
		172.236,358.876 173.823,358.103 174.87,358.062 174.87,359.387 175.188,362.26 176.266,363.235 176.771,364.998 177.561,367.081 
		179.97,367.26 180.794,367.734 184.391,367.119 190.837,367.119 191.182,367.536 192.258,367.694 193.632,368.938 194.791,369.476 
		195.221,369.509 195.119,368.57 194.107,367.785 192.417,366.745 192.238,365.766 191.38,364.945 190.802,365.121 190.262,364.588 
		191.014,364.152 191.199,363.503 190.912,363.358 190.912,362.646 190.083,360.349 189.111,358.835 188.935,357.359 
		189.51,355.705 190.733,354.703 191.16,353.909 190.802,353.52 190.802,352.616 190.334,352.005 190.976,352.36 191.63,353.086 
		192.385,353.334 193.425,352.474 193.567,351.683 194.467,350.643 194.756,349.849 194.433,348.342 193.674,348.158 
		193.208,348.516 193.425,347.872 194.289,347.043 194.647,345.969 194.863,344.857 196.013,343.739 196.982,343.669 
		197.342,342.515 198.06,341.544 198.567,341.37 198.747,340.575 199.536,340.182 200.327,339.283 200.145,338.924 200.255,338.272 
		200.866,337.845 199.966,337.016 199.394,337.016 200.255,336.19 200.255,335.396 199.682,334.215 199.682,333.678 
		200.039,333.279 199.716,332.742 198.928,332.49 198.489,332.705 197.594,332.67 195.938,332.813 193.967,330.982 192.635,329.828 
		191.951,329.611 190.949,328.787 189.865,326.992 189.865,325.915 189.258,325.086 189.327,324.473 190.44,323.679 
		190.837,322.821 191.199,321.631 191.842,321.49 192.672,320.521 193.784,320.374 194.721,319.373 196.158,319.154 
		197.054,319.298 198.636,319.014 198.707,318.575 198.24,318.114 197.27,317.753 197.411,317.318 197.594,316.57 198.957,315.669 
		198.707,315.383 199.174,314.695 199.213,314.232 198.026,312.938 198.205,312.324 198.205,311.642 197.847,311.104 
		197.524,309.844 198.312,309.021 198.707,308.05 198.352,307.654 198.928,307.014 200.473,306.431 201.549,305.424 201.51,304.924 
		200.039,304.492 199.031,304.455 198.6,303.734 198.782,303.193 199.682,302.512 201.012,302.009 202.232,302.658 202.232,303.235 
		202.054,303.667 202.45,304.631 203.167,304.887 205.107,303.771 205.394,302.804 204.929,301.762 204.282,300.968 
		204.674,300.786 204.887,299.894 204.21,298.737 203.451,298.67 202.48,299.319 201.727,299.353 201.264,299.743 201.549,299.967 
		202.371,300.177 202.303,300.72 200.618,301.219 199.861,300.933 200.327,300.463 200.901,300.142 200.361,299.855 
		198.852,299.967 197.703,299.319 197.381,298.412 197.411,296.043 197.021,294.251 195.938,293.28 195.979,291.519 
		196.982,290.508 197.74,290.477 197.411,291.05 197.703,291.229 198.817,291.123 200.722,291.734 202.48,293.202 203.992,293.567 
		206.798,293.528 208.482,292.379 208.342,292.057 209.49,291.229 209.707,290.292 209.456,289.581 209.743,289.038 
		210.029,288.212 209.166,287.961 208.556,286.917 208.556,286.016 208.913,285.335 208.701,284.868 209.598,283.972 
		209.566,283.646 209.922,283.538 210.067,282.894 209.889,282.028 209.061,281.955 209.166,281.422 208.701,280.733 
		208.701,278.972 208.446,278.397 208.446,277.577 208.773,277.247 209.204,277.825 209.889,277.825 211.288,278.288 
		212.399,279.006 213.372,279.006 214.917,278.722 216.572,278.972 218.655,278.865 222.142,277.969 225.195,276.711 
		225.341,276.064 225.737,276.6 227.856,275.886 230.586,274.193 230.984,273.222 230.7,272.074 231.2,270.529 231.558,270.204 
		231.701,270.74 232.062,270.236 232.422,268.659 233.393,267.079 233.607,266.103 233.607,263.983 233.393,263.162 
		233.142,263.125 232.495,263.807 231.412,263.771 230.122,262.909 229.365,261.476 229.438,260.752 230.662,258.31 
		230.732,257.305 230.157,256.58 227.573,254.573 225.482,253.78 223.399,252.163 222.896,251.258 223.221,250.938 223.182,250.074 
		222.553,249.421 222.747,248.869 222.388,247.062 222.644,245.025 222.644,245.033 222.644,244.932 	"/>
	<polygon fill="#EEDFA2" points="212.221,385.071 210.391,385.498 209.35,385.395 208.128,384.279 206.688,383.849 206.219,383.307 
		202.339,382.053 201.264,381.693 201.191,380.545 199.932,379.496 198.636,379.322 198.06,377.668 197.524,376.694 
		196.301,376.908 195.217,376.501 197.558,385.804 197.902,385.884 199.686,385.547 201.053,385.547 202.387,385.295 
		202.225,385.617 201.401,385.786 200.074,386.259 197.694,386.346 198.167,388.231 198.707,388.231 200.399,387.653 
		202.48,387.836 203.92,387.728 205.969,387.946 207.084,388.558 208.231,388.952 209.35,388.664 210.245,387.764 210.46,386.902 
		211.539,386.578 212.005,386.975 213.264,386.259 213.084,385.395 	"/>
	<polygon fill="#EEDFA2" points="195.513,375.476 196.263,375.152 196.806,375.689 196.301,373.244 194.687,371.631 
		193.929,370.516 193.732,370.596 195.16,376.263 	"/>
	<polygon fill="#EEDFA2" points="218.053,386.012 216.698,386.084 216.088,386.467 216.88,387.171 217.981,386.467 218.985,386.213 
		219.888,385.365 218.732,385.31 	"/>
	<path fill="#EEDFA2" d="M156.768,319.518l0.178-0.399l1.261-0.246l0.466-0.51l-2.088-0.033l-0.25,0.789
		C156.334,319.154,156.768,319.518,156.768,319.518z"/>
	<polygon fill="#EEDFA2" points="157.459,349.383 158.309,348.03 158.887,347.819 158.507,347.008 157.352,346.487 157.156,346.195 
		156.615,346.704 157.135,348.392 157.082,349.156 	"/>
	<polygon fill="#EEDFA2" points="157.011,344.859 156.685,343.885 155.986,343.584 155.609,343.473 155.645,344.826 156.184,345.24 
		156.254,345.671 156.831,345.579 	"/>
	<polygon fill="#EEDFA2" points="157.352,351.945 157.82,352.506 157.646,353.067 158.16,353.609 158.793,353.155 159.027,352.322 
		158.434,351.354 	"/>
	<polygon fill="#EEDFA2" points="155.474,315.645 155.635,316.124 156.163,316.262 156.939,315.95 157.045,315.528 156.553,314.998 
		155.812,314.961 	"/>
	<polygon fill="#EEDFA2" points="158.996,318.04 159.715,318.114 159.426,316.999 	"/>
	<polygon fill="#EEDFA2" points="158.419,325.196 158.021,324.402 157.159,324.226 156.873,323.786 156.479,324.367 
		157.414,325.404 	"/>
	<polygon fill="#EEDFA2" points="159.931,359.226 160.432,358.866 161.08,358.402 159.931,358.402 	"/>
	<polygon fill="#EEDFA2" points="157.208,314.961 157.385,314.439 156.957,314.135 156.756,314.404 	"/>
	<polygon fill="#EEDFA2" points="165.223,359.754 164.377,358.391 163.745,358.35 163.076,357.807 162.665,357.825 162.61,358.189 
		163.438,359.379 164.339,359.722 165.565,360.82 	"/>
	<polygon fill="#EEDFA2" points="158.852,320.161 158.135,320.234 157.019,320.594 157.487,321.026 158.777,320.987 	"/>
	<polygon fill="#EEDFA2" points="160.576,354.015 161.043,353.692 161.295,352.689 161.584,353.546 161.762,354.632 
		162.303,354.951 162.981,354.415 163.021,352.907 162.48,351.533 162.699,351.18 162.553,349.344 161.98,348.265 161.474,346.072 
		160.826,345.606 159.426,345.606 158.887,346.072 158.92,347.188 159.497,347.798 159.211,348.662 159.355,349.203 
		159.784,349.166 160.183,348.589 160.107,349.271 159.393,349.882 158.381,350.066 159.393,352.039 159.715,353.227 	"/>
	<polygon fill="#EEDFA2" points="163.062,359.754 162.578,359.882 162.825,361.146 163.891,362.432 164.736,362.462 
		165.132,361.815 164.124,360.336 	"/>
	<polygon fill="#EEDFA2" points="158.958,324.695 159.497,324.042 158.489,324.085 	"/>
	<polygon fill="#EEDFA2" points="155.649,325.196 156.188,325.227 156.047,324.367 155.619,324.402 	"/>
	<polygon fill="#EEDFA2" points="157.054,317.537 156.553,316.57 155.542,316.528 155.76,317.145 155.688,317.932 156.3,317.682 	
		"/>
	<polygon fill="#EEDFA2" points="153.284,311.859 153.806,312.363 155.046,311.898 154.419,311.425 153.661,311.425 	"/>
	<polygon fill="#EEDFA2" points="156.38,312.563 156.939,313.104 157.933,312.469 156.615,312.165 	"/>
	<polygon fill="#EEDFA2" points="152.379,319.044 153.641,319.592 153.962,318.977 153.425,318.403 152.49,318.403 	"/>
	<polygon fill="#EEDFA2" points="154.184,317.915 154.562,318.299 155.192,317.827 154.67,317.309 	"/>
	<polygon fill="#EEDFA2" points="158.16,313.214 158.813,313.75 158.887,314.349 159.533,313.989 159.406,312.998 158.666,312.78 	
		"/>
	<polygon fill="#EEDFA2" points="158.672,317.577 158.672,316.277 157.701,316.638 	"/>
	<polygon fill="#EEDFA2" points="158.021,322.821 157.198,322.895 157.989,323.75 	"/>
	<polygon fill="#EEDFA2" points="159.355,344.82 160.327,344.712 161.369,344.82 160.863,343.168 160.07,342.446 160.002,341.37 
		159.064,340.971 158.958,339.39 158.167,339.856 157.305,339.966 156.907,340.54 157.843,341.331 159.031,343.131 159.246,342.766 
		159.715,343.168 159.104,343.704 	"/>
	<polygon fill="#EEDFA2" points="155.768,340.857 155.461,341.201 155.426,341.793 155.658,342.968 156.669,343.168 
		157.298,343.672 157.189,344.064 157.588,345.529 158.381,346.012 158.703,345.473 158.757,344.389 157.895,343.112 
		156.598,341.092 	"/>
	<polygon fill="#EEDFA2" points="162.157,360.092 162.157,359.226 161.869,358.691 161.62,359.41 161.905,360.449 	"/>
	<path fill="#EEDFA2" d="M170.266,379.688l-0.434,0.342l1.062,0.307C170.894,380.336,170.229,379.725,170.266,379.688z"/>
	<polygon fill="#EEDFA2" points="168.267,367.04 167.726,365.855 167.31,365.873 167.328,367.368 167.884,367.996 169.073,368.558 
		169.38,368.523 169.111,367.967 	"/>
	<polygon fill="#EEDFA2" points="180.94,382.465 180.602,381.726 179.898,381.438 178.872,381.757 178.634,381.2 178.023,380.928 
		176.638,379.938 175.575,379.988 174.691,380.354 174.205,380.117 173.703,379.632 172.927,379.703 172.623,380.102 
		172.694,380.626 173.629,381.127 173.988,382.011 174.91,382.227 175.9,383.4 176.638,383.526 177.734,383.307 178.256,383.633 
		178.364,384.3 178.979,384.931 179.682,384.628 179.41,384.154 180.165,383.441 180.115,382.931 179.717,382.623 180.198,382.408 	
		"/>
	<polygon fill="#EEDFA2" points="169.328,370.004 169.132,369.221 168.463,369.061 168.157,369.297 168.911,370.054 	"/>
	<polygon fill="#EEDFA2" points="176.889,384.03 177.14,384.193 177.554,384.5 177.936,384.154 177.41,383.655 	"/>
	<polygon fill="#EEDFA2" points="174.385,379.632 175.361,379.632 175.521,379.325 175.251,378.941 174.833,378.894 
		173.866,378.188 173.437,377.722 172.279,377.722 171.486,377.287 170.644,376.963 169.812,376.922 169.132,376.515 
		168.086,375.288 167.506,374.906 167.239,375.373 167.471,376.336 168.104,377.537 169.132,377.684 170.515,378.278 
		171.001,378.999 171.757,378.999 172.15,378.764 173.486,379.271 	"/>
	<polygon fill="#EEDFA2" points="165.943,369.677 165.979,370.647 165.62,371.03 165.763,371.366 166.23,371.118 166.68,370.004 
		166.426,369.514 	"/>
	<polygon fill="#EEDFA2" points="167.851,368.883 167.634,368.321 166.627,367.802 166.821,368.379 167.58,368.92 	"/>
	<polygon fill="#EEDFA2" points="167.938,370.183 168.298,370.796 169.398,371.971 169.779,371.823 169.812,371.083 
		168.214,369.836 	"/>
	<polygon fill="#EEDFA2" points="168.823,372.523 168.067,372.814 168.445,373.119 169.398,373.066 169.56,373.589 170.067,374.024 
		170.496,374.257 171.001,373.442 170.697,372.489 169.506,372.668 	"/>
	<path fill="#EEDFA2" d="M203.593,395.443l0.433,0.311l0.683-0.683h-0.487C204.221,395.071,203.61,395.501,203.593,395.443z"/>
	<polygon fill="#EEDFA2" points="180.868,384.34 180.292,385.003 180.31,385.657 180.959,385.441 181.428,384.699 181.626,384.414 
		181.158,384.211 	"/>
	<polygon fill="#EEDFA2" points="205.158,393.121 205.426,393.66 204.869,394.381 205.338,394.903 205.911,394.942 205.949,394.117 
		205.807,393.357 	"/>
	<polygon fill="#EEDFA2" points="197.124,386.366 196.193,385.755 194.467,385.108 191.951,384.351 190.802,383.954 
		190.733,384.351 191.054,384.779 190.664,385.097 190.247,384.931 188.555,384.23 187.641,383.742 187.404,383.972 
		187.785,384.447 189.944,385.472 190.07,385.854 189.438,385.854 189.242,385.941 189.204,386.357 188.828,386.429 188.54,385.854 
		187.51,385.225 187.188,385.493 187.276,386.138 186.683,386.25 185.028,386.381 184.669,386.594 185.028,386.948 184.883,387.223 
		184.074,387.062 183.119,387.312 183.282,387.875 184.382,388.069 185.262,388.032 185.529,387.564 185.8,387.364 186.397,387.638 
		187.352,388.27 187.836,388.057 188.129,388.41 188.129,388.975 188.747,389.352 188.026,389.711 187.592,390.605 188.154,391.241 
		188.789,391.223 189.375,391.463 190.207,392.295 190.789,392.295 190.908,391.968 190.314,391.523 189.342,390.949 
		189.204,390.431 189.461,390.38 190.176,390.707 190.756,390.286 190.896,389.858 190.229,389.711 189.688,389.344 
		191.807,388.518 192.672,388.093 196.625,389.094 197.124,388.771 197.021,388.231 198.167,388.231 197.694,386.346 	"/>
	<polygon fill="#EEDFA2" points="187.873,379.828 187.676,378.785 187.077,378.426 186.939,379.414 186.596,380.354 187.045,381.2 
		186.703,381.792 186.703,382.533 187.585,383.038 188.54,383.29 188.879,383.618 189.242,383.166 188.156,382.354 188.81,381.709 
		188.376,381.145 188.486,380.78 	"/>
	<polygon fill="#EEDFA2" points="166.393,368.464 166.376,367.584 165.87,367.079 165.456,366.63 165.149,366.826 164.95,367.332 
		165.132,368.071 165.311,368.342 165.401,368.76 165.815,368.866 	"/>
	<polygon fill="#EEDFA2" points="204.424,391.139 205.18,390.642 205.679,390.135 205.18,389.639 204.998,388.771 204.062,388.518 
		202.627,388.558 201.401,388.664 199.861,388.518 198.567,389.094 196.158,389.639 195.004,389.454 194.504,389.564 
		193.715,389.564 192.997,389.918 193.536,390.43 194.143,390.135 194.938,390.528 193.496,391.072 192.708,391.471 192.672,391.9 
		193.461,392.475 194.179,391.863 193.857,392.62 194.54,392.868 194.791,393.371 195.438,393.087 196.589,393.625 197.021,393.586 
		197.124,392.832 196.373,392.403 196.481,391.938 197.524,391.826 197.847,392.726 198.567,393.232 199.32,392.832 
		200.039,393.018 201.149,394.02 201.549,394.089 201.549,393.196 200.505,392.293 199.682,391.971 199.999,391.609 
		199.567,391.254 198.383,390.999 198.135,391.104 197.201,390.393 198.383,390.21 198.957,390.21 199.716,389.417 200.473,389.454 
		200.901,390.393 201.332,390.999 202.48,390.93 203.416,390.282 203.953,390.528 	"/>
	<polygon fill="#EEDFA2" points="185.529,390.577 186.18,391.175 186.755,390.54 186.34,390.192 	"/>
	<polygon fill="#EEDFA2" points="184.182,384.931 184.598,384.539 184.921,385.023 185.732,385.26 186.324,384.81 186.072,384.248 
		186.451,383.491 186.054,383.234 185.568,383.327 185.134,383.763 184.701,383.13 182.956,382.66 182.615,382.966 181.266,383.089 
		181.282,383.583 181.842,383.9 182.293,384.699 182.718,384.266 183.604,384.389 	"/>
	<polygon fill="#EEDFA2" points="186.469,389.084 185.783,388.736 185.529,389.333 185.857,389.656 186.416,389.639 	"/>
	<polygon fill="#EEDFA2" points="153.985,302.245 153.768,303.002 154.021,303.613 154.309,303.893 154.724,305.131 
		154.922,308.177 154.419,309.277 155.573,309.771 157.229,309.607 157.242,309.172 157.135,308.141 157.55,307.422 
		158.544,307.749 158.74,307.549 157.664,306.537 158.097,306.111 156.984,304.991 156.907,304.423 157.487,304.387 
		158.454,304.924 158.487,304.701 158.126,304.229 156.939,303.386 158.038,303.709 158.055,302.732 157.839,302.359 
		157.895,301.019 157.029,299.775 156.111,299.382 155.015,299.342 154.309,300.011 154.273,300.551 154.618,301.036 
		154.545,301.815 	"/>
	<polygon fill="#EEDFA2" points="163.637,366.323 163.836,366.712 164.078,366.924 163.668,367.284 163.404,367.789 
		163.683,368.529 164.156,368.858 164.752,368.973 164.25,368.195 164.752,367.819 164.79,366.874 164.427,366.232 	"/>
	<polygon fill="#EEDFA2" points="159.821,321.205 158.744,321.205 157.88,321.706 158.419,322.141 158.744,323.219 159.393,323.542 
		159.931,322.783 	"/>
	<polygon fill="#EEDFA2" points="160.288,315.347 160.539,315.851 161.546,315.777 160.682,315.095 	"/>
	<polygon fill="#EEDFA2" points="160.613,318.793 160.682,319.909 161.401,319.154 161.905,319.268 162.373,319.518 
		163.021,319.373 163.306,318.687 163.848,317.9 163.057,317.033 162.845,316.314 161.905,316.137 160.899,316.528 160.432,318.005 
			"/>
	<polygon fill="#EEDFA2" points="159.104,302.48 159.967,303.193 160.327,302.658 159.821,302.156 	"/>
	<polygon fill="#EEDFA2" points="161.064,312.334 160.183,312.923 160.508,313.533 161.064,312.998 	"/>
	<polygon fill="#EEDFA2" points="164.557,364.701 164.662,364.393 165.438,364.356 165.475,363.811 164.07,362.88 163.438,362.93 
		162.755,362.306 162.127,362.462 162.628,363.292 162.142,364.304 161.711,364.733 162.162,365.061 163.545,364.792 	"/>
	<polygon fill="#EEDFA2" points="191.182,367.536 190.837,367.119 184.391,367.119 180.794,367.734 179.97,367.26 177.561,367.081 
		176.771,364.998 176.266,363.235 175.188,362.26 174.87,359.387 174.87,358.062 173.823,358.103 172.236,358.876 171.373,359.852 
		170.345,359.831 168.151,355.448 167.859,353.856 168.504,349.397 169.546,347.889 171.27,346.092 171.773,343.538 171.27,340.914 
		170.624,338.977 171.021,336.71 172.027,335.555 171.033,333.194 171.193,332.039 172.095,331.122 171.518,328.994 
		171.139,326.234 170.492,324.916 170.579,323.944 171.858,322.829 171.822,321.691 170.796,319.851 169.141,318.69 168.098,318.69 
		167.775,318.987 167.159,318.386 167.519,317.544 169.77,317.561 170.868,316.277 170.796,315.068 170.13,314.797 169.377,315.32 
		168.438,315.143 167.966,312.847 167.03,310.828 166.96,309.394 167.07,307.704 165.483,307.167 165.019,305.688 164.804,301.88 
		165.883,301.166 166.201,299.869 165.668,298.865 164.729,298.393 164.3,296.058 164.118,292.788 164.445,289.053 163.51,287.505 
		163.293,285.781 165.124,283.335 165.414,280.603 166.743,279.957 167.464,279.097 164.481,273.232 164.839,271.293 
		164.839,269.858 164.804,266.407 165.841,264.32 167.03,263.096 166.778,261.3 165.772,259.609 165.091,259.039 166.241,257.345 
		165.949,255.373 166.778,253.356 167.75,253.041 168,250.666 167.567,246.814 166.85,246.132 166.241,243.225 165.451,241.712 
		164.3,239.876 164.118,238.947 163.221,237.725 162.719,235.277 162.97,233.371 164.369,232.726 164.406,230.249 165.198,229.244 
		165.271,227.05 164.369,225.395 164.228,222.269 164.907,221.591 165.271,217.884 166.201,216.619 167.535,213.283 
		168.831,211.952 169.797,211.445 170.556,210.551 170.087,210.05 170.013,208.644 169.654,207.925 169.049,207.424 
		169.257,206.452 170.161,205.771 170.161,204.514 169.08,203.146 168.795,201.461 169.402,200.378 169.148,199.482 
		168.107,198.616 168.504,197.323 174.47,194.16 175.766,188.522 175.11,187.164 174.312,187.311 173.953,187.959 172.584,187.959 
		168.914,178.089 166.468,175.793 165.743,174.78 166.969,172.119 166.609,171.109 167.188,169.67 166.997,168.896 164.729,167.064 
		163.939,165.948 163.688,164.255 163.51,163.723 163.723,162.748 163.58,161.812 163.045,161.309 162.033,160.41 161.928,159.152 
		161.69,159.099 160.992,158.936 160.49,159.763 160.161,160.628 161.064,161.486 160.705,162.315 159.735,162.925 159.088,162.782 
		158.009,163.503 156.766,164.1 157.189,164.502 157.298,165.91 157.176,166.96 157.404,168.363 158.206,172.09 158.206,173.485 
		157.916,174.495 157.38,175.073 157.771,176.976 158.381,178.843 159.031,180.421 159.031,183.016 158.744,183.735 158.526,184.2 
		158.708,187.722 158.708,188.584 157.989,189.013 157.305,189.484 157.414,191.456 157.736,191.958 158.381,191.494 
		158.777,191.857 158.167,192.426 158.206,197.638 158.92,199.618 159.064,201.162 158.887,202.453 158.061,203.787 
		158.061,205.083 158.996,206.772 158.777,207.813 158.672,210.328 158.135,211.265 158.135,212.625 158.381,213.344 
		158.381,213.955 157.558,215.214 157.487,216.513 156.984,217.337 157.27,218.917 157.089,219.601 156.262,221.467 156.262,222.26 
		157.159,223.662 157.342,225.102 157.916,225.999 157.198,226.505 156.768,227.611 157.449,228.478 156.73,229.337 
		156.047,229.629 156.012,230.926 156.23,232.037 156.334,233.079 157.487,236.064 157.487,237.714 157.019,238.254 
		157.124,239.149 158.167,240.662 158.239,242.424 157.916,243.642 157.953,244.146 158.206,245.008 158.061,245.764 
		157.808,246.627 158.097,247.126 159.211,248.675 159.355,249.537 158.813,250.398 158.061,250.872 157.38,252.27 157.38,252.704 
		157.771,253.17 157.414,254.354 156.837,255.004 156.837,255.824 156.695,257.343 156.262,258.166 156.334,259.063 
		156.083,259.492 155.976,260.717 155.4,261.329 155.474,261.867 155.833,262.441 155.222,263.34 155.188,264.706 155.076,265.534 
		154.396,266 154.396,266.934 154.07,267.548 153.998,268.264 154.321,269.09 154.356,270.095 153.787,270.924 153.209,270.991 
		152.599,270.529 151.877,270.706 151.769,271.316 151.952,272.392 151.985,273.908 152.667,274.912 153.752,275.814 
		153.893,276.855 153.712,278.188 155.253,280.807 155.511,281.525 156.119,282.104 156.119,283.787 155.688,285.984 
		155.291,286.306 155.474,286.988 155.291,287.634 154.932,287.423 154.396,287.492 154.07,288.389 154.321,289.325 
		154.971,289.864 154.43,291.915 154.609,292.812 154.141,293.383 154.678,293.852 154.469,294.534 154.252,294.854 
		154.575,295.367 156.119,297.768 156.584,298.241 156.945,298.992 158.381,299.604 159.784,299.242 159.856,297.844 
		160.07,297.555 160.973,297.591 161.723,298.489 162.048,298.277 162.699,298.169 162.193,298.919 161.115,299.894 
		161.115,300.538 161.939,300.9 162.517,300.538 162.624,301.29 162.731,303.016 163.2,303.594 162.948,303.845 162.48,303.34 
		162.122,302.512 161.546,302.264 161.258,302.766 161.328,303.27 162.265,303.953 162.443,304.455 161.797,304.671 
		161.369,305.029 161.439,306.254 162.265,307.038 161.511,307.908 161.439,308.59 161.797,308.873 160.932,309.805 161.08,310.32 
		162.157,310.994 161.869,311.82 161.69,313.043 161.08,313.803 161.043,314.412 161.546,314.912 162.517,314.95 163.13,315.558 
		163.237,316.314 164.1,316.463 164.492,317.072 164.386,318.652 163.666,319.729 162.373,320.521 161.797,320.521 161.69,321.49 
		162.086,322.565 161.723,323.038 161.762,323.647 162.157,323.896 161.439,324.765 160.899,326.308 160.863,327.424 
		161.401,327.675 161.151,328.251 161.08,330.116 160.399,330.476 160.216,331.447 159.856,330.875 160.216,330.405 
		160.504,328.818 160.36,327.994 160.539,327.492 160.107,327.349 158.813,327.778 157.88,328.425 157.342,328.357 157.38,327.923 
		158.272,327.603 158.852,327.168 158.852,325.809 158.489,325.552 157.487,325.915 155.726,325.99 155.147,325.809 154.469,325.99 
		154.43,326.556 154.932,327.603 155.291,327.641 155.511,328.425 154.896,328.537 154.575,329.47 153.893,329.971 153.531,330.8 
		152.238,331.52 152.166,332.271 153.531,333.784 154.288,333.891 154.754,333.389 154.678,332.777 153.787,332.526 
		153.675,332.022 154.141,331.093 155.4,330.982 155.649,330.655 155.866,331.805 156.803,332.418 157.916,332.379 158.381,331.879 
		158.996,332.129 159.355,332.705 160.647,333.353 161.151,333.926 160.613,334.033 160.36,334.543 160.793,335.114 
		160.216,335.545 159.784,336.228 160.183,336.801 161.08,337.38 160.932,337.663 160.038,337.271 159.715,336.801 159.173,336.874 
		159.104,337.663 159.856,338.347 160.183,339.029 161.511,339.244 162.845,338.563 163.382,339.104 163.884,339.067 
		164.709,338.704 164.351,339.353 164.531,339.712 164.205,339.927 163.306,339.966 163.057,340.322 162.373,339.784 
		160.863,340.182 160.504,340.896 160.682,341.402 161.656,342.015 161.834,342.839 162.699,343.057 163.416,342.66 
		163.306,343.202 162.553,343.915 162.586,344.422 162.731,344.857 162.443,345.428 161.905,345.463 161.834,346.107 
		162.409,348.516 162.948,349.203 162.911,350.314 163.488,351.285 164.279,351.609 164.279,349.957 164.782,348.087 
		165.467,347.621 165.717,348.051 165.247,348.087 164.671,350.174 164.746,350.709 165.499,351.215 166.145,351.18 
		165.895,351.427 164.746,351.683 163.884,352.474 164.028,352.978 163.812,353.874 163.812,354.741 163.306,355.093 
		162.911,355.957 162.981,356.606 164.351,357.608 166.254,358.01 167.009,358.584 166.869,359.049 166.432,359.084 
		166.725,360.016 167.079,360.52 167.874,359.625 167.839,360.381 167.621,360.996 166.828,361.276 166.254,362.069 166.756,362.39 
		167.478,362.39 167.478,363 168.231,363.902 168.697,363.867 169.254,363.311 169.164,364.27 169.454,365.203 168.986,365.184 
		168.551,364.857 168.086,364.928 167.867,365.512 168.774,366.599 169.095,366.705 169.417,367.748 169.851,368.321 
		170.71,369.115 171.395,369.004 170.93,367.674 171.146,367.097 170.893,366.344 171.717,366.92 171.862,367.713 172.435,368.505 
		172.795,367.532 173.406,366.92 173.371,366.271 172.72,366.058 171.539,365.878 171.539,365.482 172.293,365.482 173.871,365.95 
		174.125,366.308 175.131,366.344 174.88,365.518 173.911,365.017 172.148,364.91 172.077,364.479 172.617,364.263 174.159,364.837 
		175.743,365.734 175.998,366.92 175.349,367.641 175.31,368.395 175.957,369.722 175.885,370.438 175.167,370.981 175.53,369.832 
		174.842,368.211 174.159,367.641 173.765,368.25 173.695,369.042 174.125,369.651 173.73,370.404 173.406,370.012 173.192,369.185 
		172.651,369.185 171.898,369.722 170.784,369.722 169.851,370.086 170.71,370.728 170.784,371.916 171.197,372.668 
		171.363,373.265 171.057,373.792 171.213,374.116 171.886,374.237 172.262,373.482 172.715,373.771 173.469,374.024 
		173.469,374.313 172.767,374.582 172.062,375.195 172.262,375.715 173.45,375.823 174.818,376.598 175.301,376.402 
		175.719,375.787 175.321,374.775 175.575,374.024 175.287,373.246 174.91,373.464 174.188,373.353 174.445,373.088 
		174.998,372.686 174.983,372.111 175.416,371.876 176.514,372.254 177,371.949 177.179,372.469 177.682,372.686 177.915,372.203 
		178.888,371.971 179.752,372.254 180.727,372.148 181.568,372.217 181.661,372.58 181.123,372.833 180.686,373.464 
		180.115,373.317 179.503,372.833 178.852,373.012 177.304,374.383 176.945,374.435 176.492,374.351 175.9,374.999 176.045,375.587 
		175.719,376.243 175.447,376.617 175.486,376.997 175.9,377.271 175.539,377.722 175.539,378.115 177,378.606 178.042,379.525 
		178.364,379.543 178.562,379.093 178.345,378.333 178.923,377.627 179.573,377.465 179.66,377.074 178.888,376.208 
		180.198,375.934 181.011,375.216 181.857,373.969 182.468,373.589 182.634,373.841 183.319,374.225 183.881,374.207 184,374.457 
		183.319,374.744 182.831,375.555 182.668,376.152 181.808,376.997 181.808,378.026 182.094,378.694 181.589,379.271 
		180.794,379.614 180.833,379.197 181.246,378.894 181.266,377.662 180.94,377.465 180.476,377.809 180.327,378.461 179.97,378.333 
		179.41,378.388 179.03,378.854 179.535,379.688 181.139,381.237 182.559,381.473 183.498,381.99 184.11,381.959 184.754,382.299 
		185.206,381.826 185.8,380.71 185.298,379.197 185.44,378.461 185.371,377.809 185.529,376.493 185.627,375.006 185.373,373.999 
		185.518,373.313 186.744,372.596 187.892,371.234 188.57,370.947 189.579,370.947 189.975,370.55 189.865,369.292 190.44,368.749 
		191.557,368.464 192.849,369.221 193.461,368.861 193.632,368.938 192.258,367.694 	"/>
	<polygon fill="#EEDFA2" points="195.076,376.444 195.16,376.263 193.732,370.596 192.385,371.158 191.951,371.52 191.199,370.805 
		190.477,370.622 190.083,371.38 190.3,372.168 190.156,372.814 189.292,373.641 189.041,374.072 188.033,373.498 187.428,373.313 
		186.811,374.183 187.428,374.647 188.179,374.536 188.033,375.261 187.21,376.084 187.494,376.694 187.569,377.844 
		188.539,379.064 189.258,379.029 189.975,378.204 191.414,377.416 192.489,377.452 192.78,378.278 192.097,379.43 191.124,379.717 
		190.949,380.218 189.398,380.976 189.398,381.403 189.542,381.854 190.445,382.753 191.527,383.418 192.357,383.327 
		194.046,383.938 196.427,385.529 197.558,385.804 195.217,376.501 	"/>
	<polygon fill="#EEDFA2" points="161.891,355.662 160.771,355.5 160.308,355.271 160.07,355.48 160.034,356.063 159.661,356.565 
		160.256,357.013 160.526,357.773 160.955,357.791 161.514,357.343 161.474,356.496 	"/>
</g>
</svg>
