<?xml version="1.0" encoding="utf-8"?>
<!-- Generator: Adobe Illustrator 21.0.0, SVG Export Plug-In . SVG Version: 6.00 Build 0)  -->
<svg version="1.1" id="Layer_1" xmlns="http://www.w3.org/2000/svg" xmlns:xlink="http://www.w3.org/1999/xlink" x="0px" y="0px"
	 viewBox="0 0 697 221.9" style="enable-background:new 0 0 697 221.9;" xml:space="preserve">
<style type="text/css">
	.st0{fill:#FFFFFF;}
	.st1{fill:#ADB6BA;}
	.st2{fill:#677172;}
	.st3{fill:#8C97A5;}
	.st4{fill:#24242F;}
	.st5{fill:#C5CED2;}
	.st6{fill:#E0E4E7;}
</style>
<path class="st0" d="M677.6,155.1c0,0,0.8-18.3-11.8-30.1c-12.6-11.8-26.1-21.1-26.1-21.1s-48.4-25.7-56.2-30.3
	c-7.9-4.6-90.2-33.8-113.3-40.4c-23.1-6.5-81.4-20-81.4-20l92.5,159.6l107,14.9l55.2-10.6L677.6,155.1z"/>
<path class="st0" d="M29.5,141.9c0,0-9.7-28.1,49.7-55.2c59.4-27.1,139.8-42.8,139.8-42.8S304,29.4,330,28.8l75.5-12.5l97.8,158.1
	L298,207.1l-172-7.3L41.2,163L29.5,141.9z"/>
<path class="st1" d="M686.1,179.7c-0.7,27-154.3,45-343.2,40.2C154,215.1,1.4,189.3,2.1,162.3c0.7-27,154.3-45,343.2-40.2
	C534.2,126.9,686.7,152.7,686.1,179.7"/>
<path class="st2" d="M21.5,125.6c0,0,6.9,29.1,11.5,32.6c3.7,2.8,14.9,50.2,234.2,45.4c53.4-1.2,222.7-25.6,222.7-25.6l-9.4-25.8
	c0,0-165.1,29.9-258.1,28.7C95.1,179.3,42.2,164,21.5,125.6"/>
<path class="st2" d="M489.9,178l12.2-24.6c73.4,10.9,64.7,11.8,100.3,15.3c33.2,3.3,77.1,6.9,89.5-7c0,0-13.8,24.5-26.4,28
	C652.9,193.1,659.8,196.6,489.9,178"/>
<path class="st3" d="M479.5,152.4l10.3,25.6l12.2-24.6L491,124.9l-11.4,6.2c0,0-28-68.4-63-108.3v-8.9l-9.4-12.7l-6.6,13.2"/>
<path class="st4" d="M317.1,79.2c-1-6.3-20.1-8.5-42.6-4.7c-22.5,3.7-40,11.9-38.9,18.2c1,6.4,20.1,8.5,42.6,4.7
	C300.7,93.8,318.2,85.6,317.1,79.2"/>
<path class="st4" d="M426.2,82.7c-1-6.3-20.1-8.5-42.6-4.7c-22.5,3.7-40,11.9-38.9,18.2c1,6.4,20.1,8.5,42.6,4.7
	C409.8,97.3,427.2,89.1,426.2,82.7"/>
<path class="st4" d="M391,46.8c-1-6.3-20.1-8.5-42.6-4.7c-22.5,3.7-40,11.9-38.9,18.2c1,6.3,20.1,8.5,42.6,4.7
	C374.6,61.3,392,53.1,391,46.8"/>
<path class="st4" d="M454.9,76.2c0,0,34.1,2.1,35.4-3.4c1.4-6.3-15.4-15.6-37.7-20.8c-3.8-0.9-10.9-2.1-10.9-2.1l-8.5,16.4
	l-10.5-15.1c0,0-12.3,0-12.9,2.7c-1.2,5.1,24.3,18.6,24.3,18.6l10.6,18L454.9,76.2z"/>
<path class="st0" d="M461.3,129.4c0,14-90.2,25.3-201.5,25.3c-111.3,0-201.5-11.3-201.5-25.3c0-14,90.2-25.3,201.5-25.3
	C371.1,104.1,461.3,115.4,461.3,129.4"/>
<path class="st5" d="M404.3,22.5c0,0-330.1,35.8-301.9,98.9c28.2,63.1,355.7,3.9,355.7,3.9l14,25.7c0,0-401.1,87.5-432.2-28.9
	c0,0,18.5-72.6,326.1-111.3l34.6,3.6l4.4,7.9"/>
<path class="st6" d="M401.8,16.2c0,0-341.4,37.7-311.6,104.3c29.8,66.6,375.1,3,375.1,3l14.3,28.9c0,0-426,91.1-458.8-31.7
	c0,0,19.5-76.6,344.2-117.4L393.4,1"/>
<path class="st5" d="M508.4,153.3c0,0,191.5,43.5,175.2-5.3c-16.2-48.7-247-130.8-257.8-134l-9.4-3.8l0.2,12.5l110.8,44.1
	c0,0,100.1,42,118.6,70.7c18.6,28.6-147.9-10.6-147.9-10.6L508.4,153.3z"/>
<path class="st6" d="M502.1,153.4c0,0,207.4,47.1,189.8-5.7C674.3,94.9,424.3,6,412.6,2.5l-5.4-1.2l9.4,12.7
	c0,0,219.3,90.3,239.4,121.4c20.1,31-165-10.4-165-10.4L502.1,153.4z"/>
</svg>
