<?xml version="1.0" encoding="utf-8"?>
<!-- Generator: Adobe Illustrator 16.0.4, SVG Export Plug-In . SVG Version: 6.00 Build 0)  -->
<!DOCTYPE svg PUBLIC "-//W3C//DTD SVG 1.1//EN" "http://www.w3.org/Graphics/SVG/1.1/DTD/svg11.dtd">
<svg version="1.1" id="DP_Logo" xmlns="http://www.w3.org/2000/svg" xmlns:xlink="http://www.w3.org/1999/xlink" x="0px" y="0px"
	 width="612px" height="792px" viewBox="0 0 612 792" enable-background="new 0 0 612 792" xml:space="preserve">
<g id="Logo">
	<path id="P" fill="#FFFFFF" d="M370.872,497.439c-20.502-3.061-43.452,8.262-63.954,31.212c-0.306-0.307-0.612-0.918-0.612-1.225
		c0.918-18.359,3.979-35.802,13.158-52.02c9.792-17.442,24.174-29.07,43.758-33.66c1.225-0.306,2.448-0.306,3.672-0.612
		c1.225-0.306,2.448-0.306,3.979-0.611c0-23.257,0-45.9,0-69.462c-9.18-1.53-17.748-0.918-26.316,3.06
		c-8.567,3.978-12.852,11.628-14.993,21.114c-0.919-0.918-1.53-1.224-1.837-1.53c-7.038-14.688-10.098-30.294-6.731-46.512
		c3.366-17.136,17.441-29.376,34.578-30.906c3.672-0.306,7.649-0.306,11.321-0.306c1.225,0,2.448-0.306,3.673-0.612
		c0-1.224,0.306-2.448,0.306-3.366c0.306-11.322,0.612-22.644,0.612-34.272c0-7.65-0.612-15.606-1.836-23.256
		c-0.612-4.59-2.755-9.486-5.202-13.464c-10.71-19.584-39.168-18.666-49.267-1.836c-1.836,3.366-3.672,6.732-5.201,10.098
		c-1.225,3.366-1.837,7.344-3.673,11.016c-0.917-3.978-2.142-7.956-2.448-11.934c-5.202-43.758,34.272-76.5,73.44-70.38
		c12.546,2.142,22.032,8.262,30.294,17.442c10.71,11.934,14.994,26.622,17.442,41.922c0.611,3.978,0.918,7.956,1.53,12.546
		c1.529-0.612,2.754-1.224,3.978-1.836c6.12-4.284,12.546-8.874,18.666-12.852c2.448-1.836,3.672-3.672,3.366-6.732
		c-0.307-8.262,0-16.524,0-25.398c2.448,0,4.59,0,7.344,0c0,7.344,0,14.382,0,21.726c0.612,0.306,0.918,0.612,1.53,0.612
		c24.786-17.748,49.266-35.802,74.664-53.856c18.972,25.398,45.288,37.638,75.888,43.146c-1.836,1.836-3.06,3.366-4.284,4.59
		c-7.649,7.344-15.3,14.994-22.95,22.338c-1.836,1.836-2.754,3.978-2.754,6.732c0.307,61.506,0.307,123.012,0.612,184.518
		c0,10.098,3.366,19.584,6.732,28.764c0.611,1.53,1.224,3.366,2.142,5.508c-43.758,2.755-72.828,26.929-94.554,63.036
		c-11.628-7.038-22.95-14.382-37.026-18.359c0,36.107,0,71.604,0,107.405c-24.174,1.225-41.31-10.403-55.998-27.539
		c-14.382,18.666-31.212,31.212-55.998,29.376c0.306-0.919,0.306-1.53,0.612-1.837c12.852-14.993,18.359-32.741,21.42-52.02
		C372.096,551.601,372.708,513.657,370.872,497.439z M461.754,438.381c24.786,6.732,44.676,21.727,65.178,36.72
		c0-76.806,0-152.388,0-228.275c-20.195-0.612-33.048-11.322-41.615-28.764c-6.732,5.202-12.547,9.792-18.666,14.076
		c-3.673,2.448-4.896,5.508-4.896,9.792c0,63.342,0,126.684,0,189.72C461.754,433.791,461.754,435.627,461.754,438.381z
		 M452.268,241.623c-6.731,5.202-12.239,9.792-18.359,13.464c-4.59,3.06-6.12,6.732-6.12,11.934c0.306,88.128,0,176.562,0,264.69
		c0,12.24,0,24.48,0.306,37.026c0.307,9.18,2.143,18.054,6.732,26.01c3.672,6.426,9.486,10.71,17.441,12.546
		C452.268,485.505,452.268,364.329,452.268,241.623z"/>
	<path id="D_Stroke" fill="#FFFFFF" d="M128.52,451.845c0-72.828,0-145.35,0-218.178c-2.142,0-4.284,0-6.12,0.306
		c-14.688,1.53-29.376,3.366-44.064,4.59c-13.158,0.918-26.01,0-38.556-3.978c-8.568-2.754-15.912-7.344-22.644-13.464
		C6.12,211.023,2.754,197.865,0.918,184.095c-0.306-3.672-0.306-7.344-0.612-11.628c7.344,1.836,14.076,3.672,20.502,5.202
		c14.688,3.06,29.376,4.59,44.064,3.366c22.95-1.836,45.594-4.284,68.544-6.426c21.42-2.142,42.84-4.896,64.26-2.754
		c26.622,2.754,46.512,16.524,58.446,40.086c7.344,14.076,10.71,29.682,11.934,45.288c1.224,15.912,1.836,32.13,2.142,48.348
		c0.306,41.31,0.306,82.62,0,123.624c0,13.464,2.754,25.704,7.956,37.943c0.918,1.837,1.53,3.979,2.754,6.732
		c-47.736,7.038-91.188,22.645-126.99,55.08c-50.49-29.07-100.98-29.376-151.47-1.836c0.918-5.814,17.442-26.316,31.518-38.862
		c13.158-11.628,27.54-20.808,44.064-27.233C94.248,454.293,111.078,452.151,128.52,451.845z M137.7,451.845
		c1.53,0.307,3.06,0.918,4.284,0.918c15.912,2.448,30.294,8.263,42.84,18.055c4.59,3.672,9.18,7.649,13.464,11.934
		c2.448,2.448,4.284,3.06,7.038,1.224c0.612-0.306,1.224-0.611,2.142-0.918c7.344-3.06,6.732-1.529,6.732-9.485
		c0-66.097-0.306-132.192-0.306-198.594c0-7.038-0.918-13.464-2.754-20.196c-3.672-13.77-12.546-21.726-26.01-24.48
		c-15.606-3.672-31.212-0.306-47.124,1.224C137.7,305.271,137.7,378.405,137.7,451.845z"/>
	<path id="D_Stem" fill="#FFFFFF" d="M45.9,383.301c-8.262-0.306-16.83-1.836-25.398,0c-7.65,1.53-12.852,6.732-14.076,14.688
		c-0.306,1.53-0.612,3.06-0.612,4.896c-0.612-0.306-0.918-0.306-1.224-0.611c-4.284-15.3-6.12-30.906-2.142-46.512
		c3.978-15.912,14.076-25.092,30.294-27.54c4.284-0.612,8.568-0.918,13.158-1.53c0.612-4.284,0.918-8.568,1.836-12.852
		c3.978-21.42,14.688-38.25,33.66-49.572c9.18-5.508,18.666-10.404,29.376-13.158c0,0.918,0,1.836-0.306,2.142
		c-5.202,10.404-6.426,21.726-6.426,33.354c-0.306,37.332-0.612,74.358-1.224,111.69c0,6.732-2.754,12.546-5.814,18.36
		c-3.978,7.649-9.792,14.076-16.83,19.584c-13.77,10.71-29.376,16.218-45.9,20.808c0-0.612,0-1.224,0-1.224
		c9.18-8.263,11.934-19.278,12.24-30.906c0.612-13.464,0.306-26.622,0.306-40.086C46.512,384.525,46.206,384.219,45.9,383.301z"/>
</g>
</svg>
