<?xml version="1.0" encoding="utf-8"?>
<!-- Generator: Adobe Illustrator 16.0.4, SVG Export Plug-In . SVG Version: 6.00 Build 0)  -->
<!DOCTYPE svg PUBLIC "-//W3C//DTD SVG 1.1//EN" "http://www.w3.org/Graphics/SVG/1.1/DTD/svg11.dtd">
<svg version="1.1" id="Layer_1" xmlns="http://www.w3.org/2000/svg" xmlns:xlink="http://www.w3.org/1999/xlink" x="0px" y="0px"
	 width="43.601px" height="66.682px" viewBox="0 0 43.601 66.682" enable-background="new 0 0 43.601 66.682" xml:space="preserve">
<path fill="#FFFFFF" d="M8.971,14.492c3.497-0.085,6.29-2.585,6.29-6.228c0-3.255-2.675-5.831-5.855-5.831
	c-3.426,0-5.542,2.264-5.741,5.675h-1.89c0.321-4.522,3.071-7.466,7.664-7.466c4.248,0,7.707,3.37,7.707,7.698
	c0,3.057-1.687,5.713-4.437,6.955c2.981,1.149,4.871,4.125,4.871,7.258c0,4.966-3.737,8.813-8.694,8.813
	c-4.436,0-8.25-3.138-8.207-7.745h1.885c0.317,3.449,2.67,5.954,6.284,5.954c3.738,0,6.842-3.176,6.842-6.904
	c0-3.893-3.029-6.393-6.719-6.393V14.492"/>
<path fill="#FFFFFF" d="M37.543,5.798h-0.231L25.009,23.257v0.241h12.534V5.798z M43.601,23.498v1.782h-4.166v5.675h-1.892V25.28
	H21.55v-0.241L39.193,0h0.242v23.498H43.601"/>
<polygon fill="#FFFFFF" points="9.55,66.682 7.669,66.682 7.669,38.543 0,38.543 0,36.757 17.219,36.757 17.219,38.543 9.55,38.543 
	"/>
<polygon fill="#FFFFFF" points="37.966,49.463 37.966,36.757 39.519,36.757 39.519,66.682 37.966,66.682 37.966,51.245 
	23.13,51.245 23.13,66.682 21.581,66.682 21.581,36.757 23.13,36.757 23.13,49.463 "/>
</svg>
