<?xml version="1.0" encoding="utf-8"?>
<!-- Generator: Adobe Illustrator 21.0.2, SVG Export Plug-In . SVG Version: 6.00 Build 0)  -->
<svg version="1.1" id="Layer_1" xmlns="http://www.w3.org/2000/svg" xmlns:xlink="http://www.w3.org/1999/xlink" x="0px" y="0px"
	 viewBox="0 0 145.1 78.6" style="enable-background:new 0 0 145.1 78.6;" xml:space="preserve">
<style type="text/css">
	.st0{fill:#011F5B;}
	.st1{fill:none;stroke:#000000;stroke-width:0.4715;stroke-miterlimit:3.8636;}
	.st2{fill:#990000;}
	.st3{fill:#FFFFFF;}
</style>
<g>
	<g>
		<path class="st0" d="M52.3,29.6c0,4.5,1.1,5.8,4.1,5.8v1.1h-13v-1.1c2.5,0,4.1-0.8,4.1-5.6V7c0-4.4-1.1-5.8-4.1-5.8v-1h13.2
			c10,0,14,5.3,14,10.3c0,6-4.6,9.4-12.8,9.4c-1.6,0-2.9-0.1-5.6-0.4L52.3,29.6L52.3,29.6z M52.3,17.8c1.6,0.6,2.6,0.6,4.5,0.6
			c5.4,0,8.8-2.9,8.8-7.8c0-3.9-2.2-9-8.8-9h-4.5V17.8z"/>
		<path class="st0" d="M71.5,22.8c-0.1,10.1,5.9,12.6,8.9,12.6c3.1,0,4.7-1.1,7.9-4.7v1.6c-2.7,3.5-5.3,4.8-9.2,4.8
			c-7,0-12.1-4.9-12.1-11.6c0-6.8,4.9-12.1,11.3-12.1c5.2,0,10,4.2,9.7,9.4C88,22.8,71.5,22.8,71.5,22.8z M83.7,21.7
			c0.2-4.9-3.2-7-6-7c-3.7,0-5.9,2.8-6.2,7H83.7z"/>
		<path class="st0" d="M112.2,31.5c0,2.9,0.6,3.8,3.8,3.8v1.1h-12v-1.1c3,0,3.9-0.7,3.9-2.8V20.9c0-3.6-2.6-5.1-5-5.1
			c-2.2,0-4.2,1.4-6.4,4.4V31c0,3.4,0.4,4.3,3.8,4.3v1.1H88.5v-1.1c3,0,3.7-0.3,3.7-4.3V18.5c0-2.7-0.7-3.3-3.7-3.3v-1.1l7-0.7h1.1
			v4.5c2.7-3,5.2-4.5,8.1-4.5c3.7,0,7.6,2.7,7.6,8L112.2,31.5L112.2,31.5z"/>
		<path class="st0" d="M139.5,31.5c0,2.9,0.6,3.8,3.8,3.8v1.1h-12v-1.1c3,0,3.9-0.7,3.9-2.8V20.9c0-3.6-2.6-5.1-5-5.1
			c-2.2,0-4.2,1.4-6.4,4.4V31c0,3.4,0.4,4.3,3.8,4.3v1.1h-11.8v-1.1c3,0,3.7-0.3,3.7-4.3V18.5c0-2.7-0.7-3.3-3.7-3.3v-1.1l7-0.7h1.1
			v4.5c2.7-3,5.2-4.5,8.1-4.5c3.7,0,7.6,2.7,7.6,8v10.1H139.5z"/>
	</g>
	<path class="st1" d="M37.3,0.1"/>
	<path class="st2" d="M17.7,43.5L29.6,74c0.8,1.9,1.8,2.3,4.5,2.5v1.3c-2.7,0-5.2,0-7.8,0c-3.5,0-5.4,0.1-7.6,0.3v-1.5
		c3-0.1,4.1-0.5,4.1-1.4c0-0.6-0.3-1.3-0.6-2l-2.9-7.7h-8.2c-1.2,0-1.8,0.5-2.3,1.6l-2.3,6.4C6.2,74.2,6,74.7,6,75.2
		c0,1,0.6,1.4,4.1,1.4v1.5c-1.9-0.1-3.7-0.3-5.6-0.3c-1.5,0-3.1,0.3-4.6,0.3v-1.5C1.8,76.3,3.5,76,4,74.8l12.4-31.2h1.3V43.5z
		 M14.6,52.3h-0.1l-3.8,10.1c-0.1,0.3-0.3,0.6-0.3,0.9c0,0.3,0.2,0.6,0.9,0.6h7.5L14.6,52.3z"/>
	<path class="st2" d="M44.1,77.8H31.8v-1.3h3.8c0.1-4.4,0.3-8.8,0.3-13.2V49.8c0-6.7-0.7-7-1.5-7.1l-2.5-0.2V41
		c6.7-0.2,8.4-0.9,9-0.9c0.3,0,0.5,0.2,0.5,0.6c0,3.8-0.4,8.9-0.4,13.5v22.3h3.2L44.1,77.8L44.1,77.8z"/>
	<path class="st2" d="M43.1,56.7c2.8,0,5.9-0.2,8.6-0.4c0,2.8-0.2,5.5-0.2,8.3V73c0,3,0.7,3.9,3.4,3.9c4.2,0,6.2-2.1,6.2-6.2V60.1
		c0-1.5-0.4-1.8-1.8-1.8h-1.7v-1.5c2.9,0,5.8-0.2,8.6-0.4v18.1c0,1.4,0.4,1.8,1.7,1.8h1.6v1.5c-3.1,0-7.1,0.4-7.6,0.4
		c-0.3,0-0.4-0.3-0.4-1.1l-0.3-2.3c-1.6,2.2-4.3,3.8-7.1,3.8c-6.4,0-7.7-3.8-7.7-10.1V58.3h-3.3C43.1,58.3,43.1,56.7,43.1,56.7z"/>
	<path class="st2" d="M108.4,77.8H97.2v-1.3c2.6,0,3.1-0.1,3.1-1.1V62.2c0-3.7-0.7-4.8-3.6-4.8c-3.7,0-5.5,3.8-5.5,7.3v10.6
		c0,1,0.5,1.1,3,1.1v1.3H83.1v-1.3c2.6,0,3.1-0.1,3.1-1.1V62.2c0-3.7-0.7-4.8-3.2-4.8c-4.4,0-5.9,4.4-5.9,7.6v10.3
		c0,1,0.5,1.1,3.2,1.1v1.3H68.8v-1.3c2.8,0,3.3-0.1,3.3-1.1v-15c0-1.2-0.4-1.6-0.9-1.7l-2.6-0.2v-1.5c2.5,0,5.2-0.6,7.7-0.6
		c0.4,0,0.5,0.6,0.5,1.8l0.1,2.3H77c1.5-2.9,3.8-4.9,7.4-4.9s5.7,2.3,6.4,5.7h0.1c1.1-3.3,3.5-5.7,7.1-5.7c6.1,0,7.6,4.4,7.6,9.8
		c0,1.9-0.2,3.7-0.2,5.6v5.6h3V77.8z"/>
	<path class="st2" d="M107.7,76.5h2c1.1,0,1.6-0.1,1.6-1.2v-15c0-1.2-0.4-1.5-0.9-1.6l-2.5-0.3v-1.5c2.5,0,5.2-0.6,7.7-0.6
		c0.4,0,0.5,0.6,0.5,1.8v2.6h0.1c1.3-3.3,4.2-5.2,7.4-5.2c5.4,0,7.4,4,7.4,8.8v12.2h3v1.3h-11.7v-1.3h2c1.1,0,1.6-0.1,1.6-1.2v-14
		c0-3-1.6-3.9-3.8-3.9c-3.8,0-5.8,3.2-5.8,6.4v8c0,1.5,0.2,3.1,0.2,4.6h2.8v1.3h-11.7v-1.2H107.7z"/>
	<path class="st2" d="M132.9,76.5h3.5c0.1-0.9,0.2-1.8,0.2-2.7V60.2c0-0.9-0.1-1.4-1-1.5l-2.6-0.2V57c5-0.2,7-1,8.3-1
		c0.2,0,0.5,0.2,0.5,0.6c0,1.5-0.2,5.1-0.2,9.5v5.6c0,1.7,0.1,3.5,0.3,4.7l3.3,0.2v1.2h-12.3V76.5z M139.7,44.8
		c1.7,0,3.2,1.3,3.2,3.2s-1.4,3.2-3.2,3.2c-1.7,0-3.2-1.3-3.2-3.2S138,44.8,139.7,44.8z"/>
</g>
<path class="st2" d="M6.1,10c0,0,0-9.7,0-9.7h31.8c0,0,0,5.2,0,9.7L6.1,10"/>
<path class="st2" d="M38,10.1H6.1l0-0.1L6,10c0-0.2,0-7,0-9.6l0-0.1h32V10.1 M6.2,9.9h31.6V0.5H6.2C6.3,7.5,6.3,9.4,6.2,9.9z"/>
<path class="st0" d="M7.9,24.2c1.2,2.6,2.7,4.6,4.9,6.4l9.3-9.4l8.9,9.1c1.8-1.7,3.6-3.7,4.9-6.1L22,10.9L7.9,24.2L7.9,24.2"/>
<path class="st0" d="M12.8,30.7L12.8,30.7c-2.1-1.8-3.7-3.8-5-6.5L7.7,24L8,24.1L22,10.8l0.1,0.1L36,24.2l0,0.1
	c-1.1,2.1-2.8,4.2-4.9,6.2l-0.1,0.1L22,21.4L12.8,30.7 M8.1,24.3c1.2,2.6,2.7,4.5,4.7,6.2l9.3-9.4l8.9,9.1c2.1-1.9,3.7-3.9,4.8-5.9
	L22,11.1L8.1,24.3z"/>
<polyline class="st0" points="6.1,10.2 6.1,10 37.9,10 37.9,10.2 6.1,10.2 "/>
<path class="st3" d="M30,2.8h0.9c0.6-0.1,0.9-0.5,1.5-0.5c0.5,0,0.7,0.3,1,0.3c0.3,0,0.7-0.3,1.2-0.3c0.5,0,0.7,0.3,1.1,0.4
	c0.3,0.1,0.7,0.1,1.1,0.1c0,0.3,0,0.5,0,0.7c0,0.2,0.3,0.2,0.3,0.6c0,0.4-0.4,0.3-0.4,0.5l0,1.6c0,0.2,0.4,0.2,0.4,0.5
	c0,0.4-0.4,0.3-0.4,0.6c0,0.3,0,0.8,0,0.8c-0.9,0-6.4,0-6.6,0c0-0.6,0.1-0.6,0.1-0.8c0-0.2-0.5-0.4-0.5-0.8c0-0.3,0.3-0.2,0.3-0.5
	V4.5c0-0.2-0.5-0.3-0.5-0.6c0-0.4,0.4-0.3,0.4-0.5C29.9,3.2,30,2.9,30,2.8"/>
<path class="st0" d="M30.2,8.3c-0.1,0-0.2,0-0.2,0l-0.1,0l0-0.1c0-0.4,0.1-0.5,0.1-0.6c0-0.1,0-0.1,0-0.2c0,0-0.1-0.1-0.2-0.2
	c-0.1-0.1-0.3-0.3-0.3-0.6c0-0.2,0.1-0.3,0.2-0.3c0.1-0.1,0.1-0.1,0.1-0.2l0-1.6c0,0-0.1-0.1-0.2-0.2c-0.1-0.1-0.3-0.2-0.3-0.5
	c0-0.3,0.2-0.4,0.3-0.4c0.1-0.1,0.1-0.1,0.1-0.1c0,0,0-0.1,0-0.2c0-0.1,0-0.3,0-0.4l0-0.1h1c0.2-0.1,0.4-0.2,0.6-0.2
	c0.3-0.1,0.5-0.3,0.9-0.3c0.3,0,0.5,0.1,0.6,0.2c0.1,0.1,0.3,0.1,0.4,0.1c0.1,0,0.3-0.1,0.4-0.1c0.2-0.1,0.5-0.2,0.8-0.2
	c0.4,0,0.6,0.2,0.8,0.3c0.1,0.1,0.2,0.1,0.3,0.2c0.3,0.1,0.6,0.1,1,0.1l0.2,0l0,0.1c0,0.2,0,0.3,0,0.5c0,0.1,0,0.1,0,0.2
	c0,0,0,0.1,0.1,0.1C37,3.7,37.2,3.8,37.2,4c0,0.3-0.2,0.4-0.4,0.5c0,0-0.1,0-0.1,0l0,1.6c0,0,0.1,0.1,0.1,0.1
	c0.1,0.1,0.3,0.2,0.3,0.4c0,0.3-0.2,0.4-0.3,0.5c-0.1,0.1-0.1,0.1-0.1,0.2c0,0.3,0,0.8,0,0.8l0,0.1h-0.1c-0.4,0-1.5,0-2.8,0
	C32.3,8.3,30.8,8.3,30.2,8.3 M30.1,8c0.5,0,2.2,0,3.7,0c1.2,0,2.2,0,2.7,0c0-0.2,0-0.5,0-0.7c0-0.2,0.1-0.3,0.2-0.4
	c0.1-0.1,0.2-0.1,0.2-0.3c0-0.1-0.1-0.2-0.2-0.2c-0.1-0.1-0.2-0.1-0.2-0.3l0-1.6c0-0.1,0.1-0.2,0.2-0.2C36.9,4.3,37,4.2,37,4
	c0-0.2-0.1-0.2-0.1-0.3c-0.1-0.1-0.2-0.1-0.2-0.3c0-0.1,0-0.2,0-0.2c0-0.1,0-0.2,0-0.4c0,0,0,0,0,0c-0.4,0-0.7,0-1-0.1
	c-0.1,0-0.2-0.1-0.3-0.2c-0.2-0.1-0.4-0.3-0.7-0.3c-0.3,0-0.5,0.1-0.7,0.2c-0.2,0.1-0.4,0.1-0.5,0.1c-0.2,0-0.3-0.1-0.5-0.1
	c-0.2-0.1-0.3-0.2-0.5-0.2c-0.3,0-0.6,0.1-0.8,0.2c-0.2,0.1-0.4,0.2-0.7,0.3l-0.8,0c0,0.1,0,0.2,0,0.3c0,0.1,0,0.1,0,0.2
	c0,0.2-0.1,0.2-0.2,0.3c-0.1,0.1-0.2,0.1-0.2,0.2c0,0.1,0.1,0.2,0.2,0.3c0.1,0.1,0.2,0.2,0.2,0.3l0,1.6c0,0.2-0.1,0.3-0.2,0.3
	c-0.1,0.1-0.1,0.1-0.1,0.2c0,0.2,0.1,0.3,0.3,0.4c0.1,0.1,0.2,0.2,0.2,0.4c0,0.1,0,0.2-0.1,0.3C30.2,7.7,30.1,7.8,30.1,8z"/>
<path class="st0" d="M33.2,7.3c-1.2,0-2.4,0-2.6,0h-0.1l0-0.1c0-0.8,0-4.3,0-4.3l0.2,0c0,0,0,3.3,0,4.2c1.7,0,4.5,0,5.1,0
	c0-1.1,0-4.3,0-4.3l0.2,0c0,0,0,3.4,0,4.4v0.1l-0.1,0C35.9,7.2,34.5,7.3,33.2,7.3"/>
<rect x="33.2" y="2.6" class="st0" width="0.2" height="4.6"/>
<path class="st0" d="M33.4,6.6c0.2,0,0.6,0.2,1,0.3C35,7,35.5,6.9,35.9,7c0.1,0-2.5,0-2.5,0C33.4,6.5,33.4,6.6,33.4,6.6"/>
<path class="st0" d="M33.3,7.2l0-0.1c0-0.2,0-0.3,0-0.4l0,0l0-0.2l0.1,0c0,0,0,0,0,0c0.2,0,0.4,0.1,0.7,0.2c0.1,0,0.2,0.1,0.3,0.1
	c0.3,0.1,0.6,0.1,0.9,0.1c0.2,0,0.4,0,0.6,0l0.1,0l0,0.1c0,0,0,0.1-0.1,0.1l0,0c0,0,0,0,0,0c-0.2,0-0.8,0-2.5,0.1L33.3,7.2
	 M33.5,6.7c0,0.1,0,0.1,0,0.2c0.2,0,0.5,0,0.7,0c0,0-0.1,0-0.1,0C33.9,6.8,33.7,6.7,33.5,6.7z"/>
<path class="st0" d="M33,7.3c0-0.1,0.1-0.2,0.3-0.2c0.2,0,0.3,0.1,0.3,0.2c0,0.1-0.1,0.2-0.3,0.2C33.2,7.5,33,7.4,33,7.3"/>
<path class="st0" d="M33.3,7.6c-0.2,0-0.4-0.1-0.4-0.3c0-0.2,0.2-0.3,0.4-0.3c0.2,0,0.4,0.1,0.4,0.3C33.7,7.4,33.6,7.6,33.3,7.6
	 M33.3,7.2c-0.1,0-0.2,0.1-0.2,0.1c0,0,0.1,0.1,0.2,0.1c0.1,0,0.2-0.1,0.2-0.1C33.5,7.2,33.5,7.2,33.3,7.2z"/>
<path class="st0" d="M33.2,6.6c-0.2,0-0.6,0.2-1,0.3c-0.5,0.2-1.1,0-1.5,0.1c-0.1,0,2.5,0,2.5,0C33.2,6.5,33.2,6.6,33.2,6.6"/>
<path class="st0" d="M33.3,7.2l-0.1,0c-1.7,0-2.3,0-2.5-0.1c0,0,0,0,0,0l0,0c-0.1,0-0.1,0-0.1-0.1l0-0.1l0.1,0c0.2,0,0.4,0,0.6,0
	c0.3,0,0.6,0,0.9-0.1c0.1,0,0.2-0.1,0.3-0.1c0.3-0.1,0.6-0.2,0.7-0.2c0,0,0,0,0,0l0.1,0l0,0.2l0,0c0,0.1,0,0.2,0,0.4L33.3,7.2
	 M32.3,6.9c0.3,0,0.5,0,0.7,0c0-0.1,0-0.2,0-0.2c-0.2,0-0.4,0.1-0.6,0.2C32.4,6.9,32.4,6.9,32.3,6.9z"/>
<path class="st3" d="M15.6,8.6c0.1,0.3,0.3,0.6,0.8,0.6c0.8,0,1.5-0.6,2-0.9C18.6,8,19,7.7,19,7.2l-0.1,0.2c0,0,0.6-0.6,2.1-0.1
	c0.4,0.1,2.2,1.1,2.6,1.3c0.3,0.1,1.5,1,3.3,0.6c0,0,2.7-0.4,2.1-3.2c-0.4-2-0.3-2.2-0.1-2.8c-0.1,0-1.7-0.4-1.6,1.8
	c-0.7,0.1-1.6,0.6-1,2c0.2-0.4,0.6-0.7,1-0.7c0.3,0,0.6,0.4,0.6,0.7c0,0.7-0.7,1-1.5,0.9c-0.4-0.1-0.9-0.6-1.5-1
	c0.1-0.1,0.2-0.4,0.2-0.6c0-0.4-0.3-0.5-0.5-0.6c0-0.1,0.1-0.3,0.1-0.4c0-0.3-0.4-0.3-0.6-0.4c0.1-0.1,0.1,0,0.1-0.2
	c0-0.4,0.1-0.6-0.8-0.6c0.1-0.4,0-0.7-0.3-0.8l-0.6-0.1C22,3.1,22.4,3,22,2.6c-0.3-0.3-0.8,0-0.8,0c0-0.3-0.2-0.5-0.5-0.5
	c-0.2,0-0.4,0-0.5,0.1l-0.3,0.2c-0.3,0-0.4-0.3-0.8-0.3c-0.4,0-0.5,0.3-0.7,0.5c-0.3-0.1-0.3-0.3-0.6-0.3c-0.2,0-0.3,0.2-0.3,0.3
	c-0.2,0.2-0.2,0.5-0.5,0.6L16.7,3c0,0,0,0,0,0c-0.5,0.2-1.6,2.8-1.6,3.4c0,0.5,0.4,0.3,0.4,0.8c0,0.3-0.5,0.6-0.5,0.8
	c0,0.3,0.4,0.5,0.8,0.5L15.6,8.6"/>
<path class="st0" d="M26,9.4c-1.1,0-1.9-0.4-2.3-0.6c-0.1,0-0.1-0.1-0.2-0.1c-0.2-0.1-0.5-0.3-1-0.5C22,7.8,21.2,7.4,21,7.4
	c-1.1-0.4-1.7-0.1-1.9,0c-0.1,0.5-0.4,0.7-0.7,0.9l-0.1,0.1c-0.5,0.3-1.2,0.9-1.9,0.9c-0.4,0-0.8-0.2-0.9-0.6l0-0.1
	c-0.3-0.1-0.5-0.3-0.5-0.6c0-0.2,0.1-0.3,0.3-0.5c0.1-0.1,0.2-0.2,0.2-0.4c0-0.2-0.1-0.3-0.2-0.3C15.1,6.7,15,6.6,15,6.3
	c0-0.6,1.2-3.2,1.7-3.5l0.1-0.1l0,0.2l0.1,0.1C17,3,17.1,2.9,17.2,2.8c0-0.1,0.1-0.2,0.2-0.3c0,0,0,0,0.1-0.1
	c0.1-0.1,0.2-0.3,0.4-0.3c0.3,0,0.4,0.1,0.5,0.2c0,0,0.1,0.1,0.1,0.1c0,0,0,0,0,0C18.5,2.3,18.7,2,19.1,2c0.2,0,0.4,0.1,0.5,0.2
	c0.1,0.1,0.2,0.1,0.3,0.1L20,2.1C20.2,2.1,20.4,2,20.6,2c0.3,0,0.6,0.2,0.6,0.5c0.2-0.1,0.6-0.2,0.8,0.1c0.2,0.2,0.2,0.4,0.2,0.5
	c0,0,0,0,0,0c0,0,0,0,0.1,0L23,3.2c0.3,0.1,0.5,0.4,0.4,0.8c0.3,0,0.5,0.1,0.6,0.2c0.1,0.1,0.1,0.3,0.1,0.5l0,0.1c0,0.1,0,0.1,0,0.1
	c0,0,0,0,0.1,0c0.2,0,0.4,0.1,0.4,0.4c0,0.1-0.1,0.2-0.1,0.3c0,0,0,0,0,0c0.2,0.1,0.5,0.3,0.5,0.7c0,0.1-0.1,0.4-0.2,0.5
	c0.2,0.1,0.3,0.3,0.5,0.4c0.3,0.3,0.6,0.5,0.9,0.6c0.5,0.1,1,0,1.2-0.2c0.1-0.1,0.2-0.3,0.2-0.5c0-0.2-0.3-0.6-0.5-0.6
	c-0.4,0-0.7,0.4-0.9,0.7l-0.1,0.2l-0.1-0.2c-0.3-0.6-0.3-1.1,0-1.5c0.2-0.3,0.6-0.6,1-0.6c0-0.8,0.2-1.4,0.7-1.7
	c0.5-0.3,1-0.2,1.1-0.2l0.1,0l-0.1,0.3c-0.1,0.5-0.2,0.8,0.2,2.6c0.2,0.9,0.1,1.6-0.3,2.2c-0.7,0.9-1.8,1.1-1.9,1.1
	C26.6,9.4,26.3,9.4,26,9.4 M20,7C20.3,7,20.6,7,21,7.2c0.3,0.1,1,0.5,1.6,0.8c0.4,0.2,0.8,0.4,1,0.5c0,0,0.1,0.1,0.2,0.1
	c0.5,0.3,1.5,0.8,3,0.5c0,0,1.2-0.2,1.8-1c0.4-0.5,0.5-1.2,0.3-2c-0.4-1.9-0.3-2.2-0.2-2.7l0-0.1c-0.2,0-0.5,0-0.8,0.2
	c-0.4,0.3-0.6,0.8-0.5,1.6l0,0.1l-0.1,0c-0.4,0-0.8,0.2-1,0.5c-0.2,0.3-0.2,0.7,0,1.1c0.2-0.3,0.5-0.6,1-0.6c0.3,0,0.7,0.4,0.7,0.8
	c0,0.3-0.1,0.5-0.3,0.7C27.3,8,26.8,8.1,26.2,8c-0.3-0.1-0.6-0.3-1-0.6c-0.2-0.1-0.3-0.3-0.5-0.4l-0.2-0.1l0.2-0.1
	c0.1,0,0.1-0.3,0.1-0.5c0-0.3-0.2-0.4-0.4-0.5l-0.1,0l0-0.1c0,0,0-0.1,0-0.1c0-0.1,0.1-0.2,0.1-0.3c0-0.1-0.1-0.1-0.3-0.2
	c-0.1,0-0.2,0-0.2-0.1l-0.1-0.1l0.1-0.1c0,0,0,0,0-0.1c0,0,0,0,0,0l0-0.1c0-0.2,0-0.3-0.1-0.3c-0.1-0.1-0.3-0.1-0.6-0.1l-0.1,0
	l0-0.1c0.1-0.5-0.1-0.6-0.2-0.7l-0.6-0.1c-0.2,0-0.3-0.1-0.3-0.3c0-0.1,0-0.2-0.1-0.3c-0.3-0.2-0.7,0-0.7,0l-0.2,0.1V2.6
	c0-0.2-0.2-0.4-0.4-0.4c-0.2,0-0.4,0-0.5,0.1l-0.3,0.2h0c-0.2,0-0.3-0.1-0.4-0.2c-0.1-0.1-0.2-0.1-0.4-0.1c-0.3,0-0.4,0.2-0.5,0.3
	c0,0,0,0.1-0.1,0.1l-0.1,0.1l-0.1,0c-0.1-0.1-0.2-0.1-0.2-0.2c-0.1-0.1-0.2-0.1-0.3-0.1c-0.1,0-0.1,0.1-0.2,0.2c0,0,0,0.1-0.1,0.1
	c-0.1,0.1-0.1,0.2-0.2,0.2c-0.1,0.2-0.2,0.3-0.4,0.4l-0.1,0l-0.1-0.2c-0.5,0.5-1.5,2.7-1.5,3.2c0,0.2,0.1,0.2,0.2,0.3
	c0.1,0.1,0.3,0.2,0.3,0.5c0,0.2-0.1,0.4-0.3,0.5c-0.1,0.1-0.2,0.2-0.2,0.3c0,0.3,0.4,0.4,0.6,0.4l0,0.2l-0.1,0C15.8,8.9,16,9,16.3,9
	c0.7,0,1.4-0.5,1.8-0.8l0.1-0.1c0.3-0.2,0.6-0.4,0.6-0.8l0,0l0.1-0.2l0.2,0C19.2,7.1,19.5,7,20,7z"/>
<path class="st0" d="M16.8,6.4c0,0,0.6,0.2,0.6,0.3c0,0.2-0.4,0.3-0.6,0.5h-0.3c0.1-0.4,0-0.2,0-0.5C16.4,6.5,16.7,6.4,16.8,6.4"/>
<path class="st0" d="M16.8,7.4h-0.5l0-0.1c0.1-0.2,0-0.2,0-0.2c0,0,0-0.1,0-0.3c0-0.3,0.3-0.4,0.5-0.4l0,0c0.6,0.2,0.6,0.4,0.6,0.4
	c0,0.2-0.2,0.3-0.4,0.4C17,7.2,16.9,7.3,16.8,7.4L16.8,7.4 M16.6,7.1h0.1C16.8,7.1,16.8,7,16.9,7c0.1-0.1,0.3-0.2,0.3-0.2
	c-0.1-0.1-0.3-0.2-0.5-0.2c-0.1,0-0.2,0.1-0.2,0.2c0,0.1,0,0.2,0,0.2C16.6,7,16.6,7,16.6,7.1z"/>
<path class="st0" d="M24.4,8.2l-0.2,0c0-0.3-0.1-0.4-0.2-0.4c-0.1,0-0.3-0.1-0.3-0.3c0-0.1,0-0.1,0-0.2c0-0.2-0.1-0.4-0.2-0.5
	c-0.1-0.1-0.3-0.1-0.5,0l-0.2,0.1l0-0.2c0-0.3-0.1-0.5-0.2-0.6C22.3,5.9,21.8,6,21.8,6l-0.2,0.1l0-0.2c0-0.2,0-0.4-0.2-0.6
	c-0.1-0.1-0.2-0.2-0.3-0.2c-0.2,0-0.3,0.1-0.4,0.1c-0.1,0.1-0.2,0.1-0.4,0.1c-0.2,0-0.4-0.1-0.5-0.2C19.7,5.1,19.6,5,19.4,5
	c-0.2,0-0.2,0.1-0.3,0.2c0,0.1-0.1,0.2-0.3,0.3l-0.1-0.2c0.1,0,0.1-0.1,0.2-0.2C19,5,19.1,4.8,19.4,4.8c0.2,0,0.4,0.1,0.5,0.2
	c0.1,0.1,0.2,0.1,0.4,0.1c0.1,0,0.2,0,0.3-0.1c0.1-0.1,0.3-0.2,0.5-0.2c0.2,0,0.4,0.1,0.5,0.3c0.2,0.2,0.2,0.4,0.2,0.6
	c0.2,0,0.5,0,0.7,0.1c0.2,0.1,0.3,0.4,0.3,0.7c0.2-0.1,0.4,0,0.5,0c0.2,0.1,0.3,0.4,0.3,0.7c0,0.1,0,0.1,0,0.2
	c0,0.1,0.1,0.1,0.2,0.1C24.2,7.6,24.4,7.7,24.4,8.2"/>
<path class="st3" d="M7.3,2.8h0.9c0.6-0.1,0.9-0.5,1.5-0.5c0.5,0,0.7,0.3,1,0.3c0.3,0,0.7-0.3,1.2-0.3c0.5,0,0.7,0.3,1.1,0.4
	c0.3,0.1,0.7,0.1,1.1,0.1c0,0.3,0,0.5,0,0.7c0,0.2,0.3,0.2,0.3,0.6c0,0.4-0.4,0.3-0.4,0.5l0,1.6c0,0.2,0.4,0.2,0.4,0.5
	C14.4,7.1,14,7,14,7.3c0,0.3,0,0.8,0,0.8c-0.9,0-6.2,0-6.5,0c0-0.6,0-0.5,0-0.8C7.5,7.1,7,7,7,6.6c0-0.3,0.3-0.2,0.3-0.5V4.5
	c0-0.2-0.5-0.3-0.5-0.6c0-0.4,0.4-0.3,0.4-0.5C7.3,3.3,7.3,2.9,7.3,2.8"/>
<path class="st0" d="M10.5,8.3c-1.5,0-2.9,0-3,0l-0.1,0l0-0.1c0-0.3,0-0.4,0-0.5c0-0.1,0-0.1,0-0.3c0,0-0.1-0.1-0.2-0.2
	C7.1,7,6.9,6.9,6.9,6.6c0-0.2,0.1-0.3,0.2-0.3c0.1-0.1,0.1-0.1,0.1-0.2l0-1.6c0,0-0.1-0.1-0.2-0.2C6.9,4.3,6.8,4.1,6.8,3.9
	c0-0.3,0.2-0.4,0.3-0.4c0.1-0.1,0.1-0.1,0.1-0.1c0,0,0-0.1,0-0.2c0-0.1,0-0.3,0-0.4l0-0.1h1c0.2-0.1,0.4-0.2,0.6-0.2
	c0.3-0.1,0.5-0.3,0.9-0.3c0.3,0,0.5,0.1,0.6,0.2c0.1,0.1,0.3,0.1,0.4,0.1c0.1,0,0.3-0.1,0.4-0.1c0.2-0.1,0.5-0.2,0.8-0.2
	c0.4,0,0.6,0.2,0.8,0.3c0.1,0.1,0.2,0.1,0.3,0.2c0.3,0.1,0.6,0.1,1,0.1l0.2,0l0,0.1c0,0.2,0,0.3,0,0.5c0,0.1,0,0.1,0,0.2
	c0,0,0,0.1,0.1,0.1c0.1,0.1,0.2,0.2,0.2,0.4c0,0.3-0.2,0.4-0.4,0.5c0,0-0.1,0-0.1,0l0,1.6c0,0,0.1,0.1,0.1,0.1
	c0.1,0.1,0.3,0.2,0.3,0.4c0,0.3-0.2,0.4-0.3,0.5c-0.1,0.1-0.1,0.1-0.1,0.2c0,0.3,0,0.8,0,0.8l0,0.1h-0.9C12.5,8.3,11.5,8.3,10.5,8.3
	 M7.6,8c0.7,0,3.9,0,5.6,0l0.7,0c0-0.2,0-0.5,0-0.7C13.9,7.1,14,7,14.1,7c0.1-0.1,0.2-0.1,0.2-0.3c0-0.1-0.1-0.2-0.2-0.2
	c-0.1-0.1-0.2-0.1-0.2-0.3l0-1.6c0-0.1,0.1-0.2,0.2-0.2c0.1-0.1,0.2-0.1,0.2-0.3c0-0.2-0.1-0.2-0.1-0.3C14.1,3.8,14,3.7,14,3.5
	c0-0.1,0-0.2,0-0.2c0-0.1,0-0.2,0-0.4c-0.4,0-0.7,0-1-0.1c-0.1,0-0.2-0.1-0.3-0.2c-0.2-0.1-0.4-0.3-0.7-0.3c-0.3,0-0.5,0.1-0.7,0.2
	c-0.2,0.1-0.4,0.1-0.5,0.1c-0.2,0-0.3-0.1-0.5-0.1c-0.2-0.1-0.3-0.2-0.5-0.2c-0.3,0-0.6,0.1-0.8,0.2C8.7,2.7,8.5,2.8,8.2,2.9l-0.8,0
	c0,0.1,0,0.2,0,0.3c0,0.1,0,0.1,0,0.2c0,0.2-0.1,0.2-0.2,0.3C7.1,3.8,7,3.8,7,3.9C7,4,7.1,4.1,7.2,4.2c0.1,0.1,0.2,0.2,0.2,0.3
	l0,1.6c0,0.2-0.1,0.3-0.2,0.3C7.2,6.5,7.1,6.5,7.1,6.6c0,0.2,0.1,0.3,0.3,0.4c0.1,0.1,0.2,0.2,0.2,0.4c0,0.1,0,0.2,0,0.3
	C7.6,7.7,7.6,7.8,7.6,8z"/>
<path class="st0" d="M10.6,7.3c-1.2,0-2.5,0-2.6,0l-0.1,0l0-0.1c0-0.8,0-4.3,0-4.3l0.2,0c0,0,0,3.3,0,4.2c1.7,0,4.5,0,5.1,0
	c0-1.1,0-4.3,0-4.3l0.2,0c0,0,0,3.4,0,4.4v0.1l-0.1,0C13.3,7.3,11.9,7.3,10.6,7.3"/>
<rect x="10.6" y="2.6" class="st0" width="0.2" height="4.6"/>
<path class="st0" d="M10.8,6.6c0.2,0,0.6,0.2,1,0.3c0.5,0.2,1.1,0,1.5,0.1c0.1,0-2.5,0-2.5,0C10.8,6.6,10.8,6.6,10.8,6.6"/>
<path class="st0" d="M10.7,7.2l0-0.1c0-0.2,0-0.3,0-0.4l0,0l0-0.2l0.1,0c0,0,0,0,0,0c0.2,0,0.4,0.1,0.7,0.2c0.1,0,0.2,0.1,0.3,0.1
	c0.3,0.1,0.6,0.1,0.9,0.1c0.2,0,0.4,0,0.6,0l0.1,0l0,0.1c0,0,0,0.1-0.1,0.1l0,0c0,0,0,0,0,0c-0.2,0-0.8,0-2.5,0.1L10.7,7.2
	 M10.9,6.7c0,0.1,0,0.1,0,0.2c0.2,0,0.5,0,0.7,0c0,0-0.1,0-0.1,0C11.3,6.8,11.1,6.8,10.9,6.7z"/>
<path class="st0" d="M10.4,7.3c0-0.1,0.1-0.2,0.3-0.2c0.2,0,0.3,0.1,0.3,0.2c0,0.1-0.1,0.2-0.3,0.2C10.6,7.5,10.4,7.4,10.4,7.3"/>
<path class="st0" d="M10.7,7.6c-0.2,0-0.4-0.1-0.4-0.3c0-0.2,0.2-0.3,0.4-0.3c0.2,0,0.4,0.1,0.4,0.3C11.1,7.5,10.9,7.6,10.7,7.6
	 M10.7,7.2c-0.1,0-0.2,0.1-0.2,0.1c0,0,0.1,0.1,0.2,0.1c0.1,0,0.2-0.1,0.2-0.1C10.9,7.3,10.8,7.2,10.7,7.2z"/>
<path class="st0" d="M10.6,6.6c-0.2,0-0.6,0.2-1,0.3C9,7.1,8.5,6.9,8,7c-0.1,0,2.5,0,2.5,0C10.6,6.6,10.6,6.6,10.6,6.6"/>
<path class="st0" d="M10.7,7.2l-0.1,0c-1.7,0-2.3,0-2.5-0.1c0,0,0,0,0,0l0,0c-0.1,0-0.1,0-0.1-0.1l0-0.1l0.1,0c0.2,0,0.4,0,0.6,0
	c0.3,0,0.6,0,0.9-0.1c0.1,0,0.2-0.1,0.3-0.1c0.3-0.1,0.6-0.2,0.7-0.2c0,0,0,0,0,0l0.1,0l0,0.2l0,0c0,0.1,0,0.2,0,0.4L10.7,7.2
	 M9.7,7c0.3,0,0.5,0,0.7,0c0-0.1,0-0.2,0-0.2c-0.2,0-0.4,0.1-0.6,0.2C9.8,6.9,9.8,6.9,9.7,7z"/>
<path class="st3" d="M11.6,23.1c0-1.5,1.2-2.7,2.8-2.7c1.5,0,2.8,1.2,2.8,2.7s-1.2,2.7-2.8,2.7C12.8,25.8,11.6,24.6,11.6,23.1"/>
<path class="st3" d="M19.2,16.7c0-1.5,1.2-2.7,2.8-2.7s2.8,1.2,2.8,2.7c0,1.5-1.2,2.7-2.8,2.7S19.2,18.2,19.2,16.7"/>
<path class="st0" d="M22,19.5c-1.6,0-2.9-1.2-2.9-2.8c0-1.5,1.3-2.8,2.9-2.8s2.9,1.2,2.9,2.8C24.9,18.2,23.6,19.5,22,19.5 M22,14.1
	c-1.5,0-2.7,1.1-2.7,2.6c0,1.4,1.2,2.6,2.7,2.6c1.5,0,2.7-1.1,2.7-2.6C24.7,15.3,23.5,14.1,22,14.1z"/>
<path class="st3" d="M26.4,23.1c0-1.5,1.2-2.7,2.8-2.7c1.5,0,2.8,1.2,2.8,2.7s-1.2,2.7-2.8,2.7C27.7,25.8,26.4,24.6,26.4,23.1"/>
<path class="st0" d="M29.2,25.9c-1.6,0-2.9-1.2-2.9-2.8c0-1.5,1.3-2.8,2.9-2.8s2.9,1.2,2.9,2.8C32.1,24.6,30.8,25.9,29.2,25.9
	 M29.2,20.5c-1.5,0-2.7,1.2-2.7,2.6c0,1.4,1.2,2.6,2.7,2.6c1.5,0,2.7-1.1,2.7-2.6C31.9,21.7,30.7,20.5,29.2,20.5z"/>
<path class="st0" d="M24.7,6.8c-0.4-0.4-0.8-0.9-1-1.2c-0.2-0.2-0.3-0.4-0.4-0.5c-0.1,0-0.2-0.2-0.4-0.4c-0.5-0.5-1.3-1.5-3-1.6
	c-0.7,0-2.6,0.2-2.7,0.6l-0.2,0c0.1-0.7,2.5-0.8,2.9-0.8C21.7,3,22.6,4,23.1,4.6c0.1,0.1,0.3,0.3,0.3,0.3c0.1,0,0.2,0.1,0.5,0.5
	c0.3,0.3,0.6,0.8,1,1.2L24.7,6.8"/>
<path class="st0" d="M19.1,7.3l-0.2,0c0,0,0-0.1,0-0.1c-0.1,0-0.2,0-0.3,0c-0.1,0-0.2,0-0.3,0l-0.1,0l0-0.1c0-0.1,0.1-0.1,0.2-0.2
	c0,0,0,0,0,0l0,0.1l0-0.1c0.5-0.2,0.8-0.4,0.8-0.5c0,0,0,0,0-0.1c-0.2-0.2-0.3-0.4-0.4-0.5c-0.1-0.1-0.1-0.2-0.2-0.2
	c-0.2-0.2-0.4-0.3-0.8-0.3c-0.2,0-0.5,0.3-0.8,0.5C17.1,5.8,17,5.9,17,5.9l-0.1-0.2l0.1-0.1c0.2-0.2,0.5-0.5,0.5-0.8
	c0-0.4-0.2-0.8-0.4-1.2c-0.1-0.3-0.3-0.5-0.3-0.8l0.2-0.1c0.1,0.2,0.2,0.5,0.3,0.7c0.2,0.4,0.4,0.8,0.4,1.3c0,0.1,0,0.1,0,0.2
	C17.7,5,17.9,5,18,5c0.4,0,0.7,0.1,0.9,0.4c0.1,0.1,0.1,0.1,0.2,0.2c0.1,0.1,0.2,0.3,0.4,0.5c0.1,0.1,0.1,0.2,0.1,0.3
	c-0.1,0.3-0.5,0.5-0.9,0.6c0.3,0,0.4,0,0.4,0.2C19.1,7.2,19.1,7.3,19.1,7.3"/>
<path class="st0" d="M15.8,8.6V8.3c0.6,0,0.9,0,1.2-0.2c0.4-0.2,0.8-0.5,0.9-0.8l0.2,0.1c-0.2,0.4-0.9,0.8-1,0.9
	C16.7,8.5,16.3,8.6,15.8,8.6"/>
<path class="st0" d="M21.4,36.2C21.4,36.2,21.4,36.2,21.4,36.2c-1.8-0.1-15.5-6.8-15.5-20c0-0.2,0-15.8,0-15.8V0.1h32.2v16.1
	c-0.1,6.4-3.7,11.1-6.6,13.9C27.3,34.1,22.5,36.2,21.4,36.2 M6.3,0.6c0,1.9,0,15.4,0,15.6c0,12.9,13.3,19.5,15,19.6c0,0,0,0,0,0
	c0.9,0,5.7-2,9.8-5.9c2.9-2.8,6.4-7.4,6.5-13.6V0.6H6.3z"/>
</svg>
