<?xml version="1.0" encoding="utf-8"?>
<!-- Generator: Adobe Illustrator 19.2.1, SVG Export Plug-In . SVG Version: 6.00 Build 0)  -->
<svg version="1.1" id="Layer_1" xmlns="http://www.w3.org/2000/svg" xmlns:xlink="http://www.w3.org/1999/xlink" x="0px" y="0px"
	 viewBox="0 0 711.2 275.6" style="enable-background:new 0 0 711.2 275.6;" xml:space="preserve">
<style type="text/css">
	.st0{opacity:0.3;fill:#014764;enable-background:new    ;}
	.st1{opacity:0.4;fill:#014764;enable-background:new    ;}
	.st2{opacity:0.6;fill:#014764;enable-background:new    ;}
	.st3{fill:none;stroke:#FFFFFF;stroke-width:0.5;stroke-miterlimit:10;}
	.st4{opacity:0.8;}
	.st5{fill:none;stroke:#FFFFFF;stroke-width:0.5;stroke-miterlimit:10;stroke-dasharray:2.9894,2.9894;}
	.st6{fill:none;stroke:#E83D26;stroke-width:2;stroke-miterlimit:10;}
	.st7{fill:#014764;}
	.st8{fill:#E83D26;}
	.st9{fill:none;}
	.st10{font-family:'MinistryW00-Light';}
	.st11{font-size:8px;}
	.st12{font-size:7.4885px;}
	.st13{fill:#FFFFFF;}
	.st14{font-family:'MinistryW00-Bold';}
	.st15{font-size:24.0003px;}
	.st16{font-size:10.5786px;}
	.st17{font-size:9.9022px;}
	.st18{font-size:8.5119px;}
	.st19{font-size:11.4514px;}
	.st20{font-size:25.6368px;}
	.st21{font-size:21.0209px;}
	.st22{font-size:17.4552px;}
	.st23{fill:#B5C7CF;}
	.st24{font-size:8.1574px;}
</style>
<rect class="st0" width="109.4" height="275.6"/>
<rect x="109.4" class="st1" width="273.5" height="275.6"/>
<rect x="383" class="st2" width="328.3" height="275.6"/>
<line class="st3" x1="36.4" y1="246.7" x2="665.1" y2="246.7"/>
<g class="st4">
	<g>
		<g>
			<g>
				<line class="st3" x1="37.8" y1="187.6" x2="39.3" y2="187.6"/>
				<line class="st5" x1="42.2" y1="187.6" x2="668.5" y2="187.6"/>
				<line class="st3" x1="670" y1="187.6" x2="671.5" y2="187.6"/>
			</g>
		</g>
		<g>
			<g>
				<line class="st3" x1="37.8" y1="165.6" x2="39.3" y2="165.6"/>
				<line class="st5" x1="42.2" y1="165.6" x2="668.5" y2="165.6"/>
				<line class="st3" x1="670" y1="165.6" x2="671.5" y2="165.6"/>
			</g>
		</g>
		<g>
			<g>
				<line class="st3" x1="37.8" y1="143.7" x2="39.3" y2="143.7"/>
				<line class="st5" x1="42.2" y1="143.7" x2="668.5" y2="143.7"/>
				<line class="st3" x1="670" y1="143.7" x2="671.5" y2="143.7"/>
			</g>
		</g>
		<g>
			<g>
				<line class="st3" x1="37.8" y1="121.8" x2="39.3" y2="121.8"/>
				<line class="st5" x1="42.2" y1="121.8" x2="668.5" y2="121.8"/>
				<line class="st3" x1="670" y1="121.8" x2="671.5" y2="121.8"/>
			</g>
		</g>
		<g>
			<g>
				<line class="st3" x1="37.8" y1="99.9" x2="39.3" y2="99.9"/>
				<line class="st5" x1="42.2" y1="99.9" x2="668.5" y2="99.9"/>
				<line class="st3" x1="670" y1="99.9" x2="671.5" y2="99.9"/>
			</g>
		</g>
		<g>
			<g>
				<line class="st3" x1="37.8" y1="77.9" x2="39.3" y2="77.9"/>
				<line class="st5" x1="42.2" y1="77.9" x2="668.5" y2="77.9"/>
				<line class="st3" x1="670" y1="77.9" x2="671.5" y2="77.9"/>
			</g>
		</g>
		<g>
			<g>
				<line class="st3" x1="37.8" y1="56" x2="39.3" y2="56"/>
				<line class="st5" x1="42.2" y1="56" x2="668.5" y2="56"/>
				<line class="st3" x1="670" y1="56" x2="671.5" y2="56"/>
			</g>
		</g>
	</g>
</g>
<g>
	<g>
		<g>
			<line class="st6" x1="86.3" y1="56" x2="37.4" y2="121.8"/>
			<line class="st6" x1="135.1" y1="121.8" x2="86.3" y2="56"/>
			<line class="st6" x1="184" y1="165.6" x2="135.1" y2="121.8"/>
			<line class="st6" x1="232.9" y1="143.7" x2="184" y2="165.6"/>
			<line class="st6" x1="281.7" y1="143.7" x2="232.9" y2="143.7"/>
			<line class="st6" x1="330.6" y1="165.6" x2="281.7" y2="143.7"/>
			<line class="st6" x1="379.4" y1="209.5" x2="330.6" y2="165.6"/>
			<line class="st6" x1="428.3" y1="165.6" x2="379.4" y2="209.5"/>
			<line class="st6" x1="477.1" y1="143.7" x2="428.3" y2="165.6"/>
			<line class="st6" x1="526" y1="99.9" x2="477.1" y2="143.7"/>
			<line class="st6" x1="574.9" y1="56" x2="526" y2="99.9"/>
			<line class="st6" x1="623.7" y1="77.9" x2="574.9" y2="56"/>
			<line class="st6" x1="623.7" y1="77.9" x2="672.6" y2="56"/>
		</g>
	</g>
</g>
<path class="st7" d="M85.3,246.7v-10.2c5.6,0,10.2,4.6,10.2,10.2c0,5.6-4.6,10.2-10.2,10.2s-10.2-4.6-10.2-10.2
	c0-5.6,4.6-10.2,10.2-10.2l0,0V246.7z"/>
<path class="st7" d="M134.1,246.7v-14.4c8,0,14.4,6.5,14.4,14.4c0,8-6.5,14.4-14.4,14.4c-8,0-14.4-6.5-14.4-14.4
	c0-8,6.5-14.4,14.4-14.4l0,0V246.7z"/>
<path class="st7" d="M427.3,246.7v-10.2c5.6,0,10.2,4.6,10.2,10.2c0,5.6-4.6,10.2-10.2,10.2s-10.2-4.6-10.2-10.2
	c0-5.6,4.6-10.2,10.2-10.2l0,0V246.7z"/>
<path class="st7" d="M525,246.7v-10.2c5.6,0,10.2,4.6,10.2,10.2c0,5.6-4.6,10.2-10.2,10.2s-10.2-4.6-10.2-10.2
	c0-5.6,4.6-10.2,10.2-10.2l0,0V246.7z"/>
<path class="st7" d="M573.6,246.7v-14.4c8,0,14.4,6.5,14.4,14.4c0,8-6.5,14.4-14.4,14.4c-8,0-14.4-6.5-14.4-14.4
	c0-8,6.5-14.4,14.4-14.4l0,0V246.7z"/>
<path class="st7" d="M622.6,246.7V229c9.8,0,17.7,7.9,17.7,17.7s-7.9,17.7-17.7,17.7s-17.7-7.9-17.7-17.7s7.9-17.7,17.7-17.7l0,0
	V246.7z"/>
<path class="st7" d="M671.5,246.7v-14.4c8,0,14.4,6.5,14.4,14.4c0,8-6.5,14.4-14.4,14.4c-8,0-14.4-6.5-14.4-14.4
	c0-8,6.5-14.4,14.4-14.4l0,0V246.7z"/>
<ellipse class="st8" cx="86.3" cy="57.1" rx="4.1" ry="4.4"/>
<rect x="110.7" y="65.6" class="st9" width="69.9" height="28.1"/>
<text transform="matrix(0.9395 0 0 1 128.6431 71.144)" class="st10 st11">Penn wins </text>
<text transform="matrix(0.9395 0 0 1 111.0742 78.144)" class="st10 st11">second-ever Ivy title</text>
<g>
	<rect x="540.9" y="36.1" class="st9" width="65.4" height="13.6"/>
	<text transform="matrix(0.9395 0 0 1 547.3711 41.335)" class="st10 st12">Mike McLaughlin </text>
	<text transform="matrix(0.9395 0 0 1 541.2637 47.9351)" class="st10 st12">wins his first Ivy title</text>
</g>
<g>
	<rect x="589" y="99.8" class="st9" width="69.9" height="14.4"/>
	<text transform="matrix(0.9395 0 0 1 590.1904 105.3662)" class="st10 st11">Penn wins first-ever </text>
	<text transform="matrix(0.9395 0 0 1 607.7588 112.3662)" class="st10 st11">Big 5 title</text>
</g>
<text transform="matrix(1 0 0 1 105.5215 24.5933)" class="st13 st14 st15">The Making of Penn Women’s Basketball</text>
<g>
	<rect x="344.5" y="150.3" class="st9" width="69.9" height="36.4"/>
	<text transform="matrix(0.9395 0 0 1 348.6621 155.8477)" class="st10 st11">Mike McLaughlin’s </text>
	<text transform="matrix(0.9395 0 0 1 350.165 162.8477)" class="st10 st11">first year as head </text>
	<text transform="matrix(0.9395 0 0 1 345.2793 169.8477)" class="st10 st11">coach, team finishes </text>
	<text transform="matrix(0.9395 0 0 1 356.8359 176.8477)" class="st10 st11">last in the Ivy </text>
	<text transform="matrix(0.9395 0 0 1 367.2637 183.8477)" class="st10 st11">League</text>
</g>
<text transform="matrix(0.9395 0 0 1 119.8325 62.1724)" class="st13 st14 st16">2003-2004</text>
<text transform="matrix(0.9395 0 0 1 351.8174 145.1582)" class="st13 st14 st16">2009-2010</text>
<text transform="matrix(0.9395 0 0 1 550.6963 33.2012)" class="st13 st14 st17">2013-2014</text>
<text transform="matrix(0.9395 0 0 1 601.9199 96.3091)" class="st13 st14 st16">2014-2015</text>
<text transform="matrix(0.9395 0 0 1 120.0381 217.3721)" class="st13 st14 st18">2004-5</text>
<text transform="matrix(0.9395 0 0 1 72.9409 217.3721)" class="st13 st14 st18">2003-4</text>
<text transform="matrix(0.9395 0 0 1 169.3379 217.3721)" class="st13 st14 st18">2005-6</text>
<text transform="matrix(0.9395 0 0 1 217.585 217.3721)" class="st13 st14 st18">2006-7</text>
<text transform="matrix(0.9395 0 0 1 267.0518 217.3721)" class="st13 st14 st18">2007-8</text>
<text transform="matrix(0.9395 0 0 1 315.7852 217.3721)" class="st13 st14 st18">2008-9</text>
<text transform="matrix(0.9395 0 0 1 414.7959 217.3721)" class="st13 st14 st18">2010-11</text>
<line class="st3" x1="36.4" y1="209.6" x2="671.8" y2="209.6"/>
<g>
	<line class="st3" x1="36.4" y1="209.6" x2="36.4" y2="205.7"/>
	<line class="st3" x1="85.3" y1="209.6" x2="85.3" y2="205.7"/>
	<line class="st3" x1="134.1" y1="209.6" x2="134.1" y2="205.7"/>
	<line class="st3" x1="183" y1="209.6" x2="183" y2="205.7"/>
	<line class="st3" x1="231.9" y1="209.6" x2="231.9" y2="205.7"/>
	<line class="st3" x1="280.7" y1="209.6" x2="280.7" y2="205.7"/>
	<line class="st3" x1="329.6" y1="209.6" x2="329.6" y2="205.7"/>
	<line class="st3" x1="378.4" y1="209.6" x2="378.4" y2="205.7"/>
	<line class="st3" x1="427.3" y1="209.6" x2="427.3" y2="205.7"/>
	<line class="st3" x1="476.1" y1="209.6" x2="476.1" y2="205.7"/>
	<line class="st3" x1="525" y1="209.6" x2="525" y2="205.7"/>
	<line class="st3" x1="573.9" y1="209.6" x2="573.9" y2="205.7"/>
	<line class="st3" x1="622.7" y1="209.6" x2="622.7" y2="205.7"/>
	<line class="st3" x1="671.6" y1="209.6" x2="671.6" y2="205.7"/>
</g>
<text transform="matrix(0.9395 0 0 1 464.0195 217.3721)" class="st13 st14 st18">2011-12</text>
<g>
	<g>
		<text transform="matrix(0.9395 0 0 1 24.6592 190.4082)" class="st13 st14 st18">7</text>
		<text transform="matrix(0.9395 0 0 1 24.5552 168.4795)" class="st13 st14 st18">6</text>
		<text transform="matrix(0.9395 0 0 1 24.5234 146.5508)" class="st13 st14 st18">5</text>
		<text transform="matrix(0.9395 0 0 1 24.4233 124.6221)" class="st13 st14 st18">4</text>
		<text transform="matrix(0.9395 0 0 1 24.5195 102.6938)" class="st13 st14 st18">3</text>
		<text transform="matrix(0.9395 0 0 1 24.5952 80.7656)" class="st13 st14 st18">2</text>
		<text transform="matrix(0.9395 0 0 1 25.751 58.8369)" class="st13 st14 st18">1</text>
	</g>
</g>
<line class="st3" x1="36.4" y1="209.5" x2="36.4" y2="56"/>
<text transform="matrix(0.9395 0 0 1 511.6455 217.3721)" class="st13 st14 st18">2012-13</text>
<text transform="matrix(0.9395 0 0 1 562.7832 217.3721)" class="st13 st14 st18">2013-14</text>
<text transform="matrix(0.9395 0 0 1 609.1914 217.3721)" class="st13 st14 st18">2014-15</text>
<text transform="matrix(0.9395 0 0 1 658.1807 217.3721)" class="st13 st14 st18">2015-16</text>
<text transform="matrix(0.9395 0 0 1 22.8032 217.3721)" class="st13 st14 st18">2002-3</text>
<text transform="matrix(0.9395 0 0 1 363.1992 217.3721)" class="st13 st14 st18">2009-10</text>
<ellipse class="st8" cx="379.4" cy="205.7" rx="4.1" ry="4.4"/>
<ellipse class="st8" cx="574.9" cy="56" rx="4.1" ry="4.4"/>
<ellipse class="st8" cx="623.7" cy="77.9" rx="4.1" ry="4.4"/>
<ellipse class="st8" cx="477.9" cy="143.7" rx="2.7" ry="2.8"/>
<ellipse class="st8" cx="428.3" cy="165.6" rx="2.7" ry="2.8"/>
<ellipse class="st8" cx="672.6" cy="56" rx="2.7" ry="2.8"/>
<ellipse class="st8" cx="330.6" cy="165.6" rx="2.7" ry="2.8"/>
<ellipse class="st8" cx="281.7" cy="143.7" rx="2.7" ry="2.8"/>
<ellipse class="st8" cx="232.9" cy="143.7" rx="2.7" ry="2.8"/>
<ellipse class="st8" cx="183" cy="165.6" rx="2.7" ry="2.8"/>
<ellipse class="st8" cx="134.8" cy="121.8" rx="2.7" ry="2.8"/>
<ellipse class="st8" cx="37.4" cy="120.8" rx="2.7" ry="2.8"/>
<g>
	<text transform="matrix(0.9395 0 0 1 9.9346 42.8794)" class="st7 st14 st19">Ivy League finish</text>
</g>
<text transform="matrix(0.9395 0 0 1 9.8789 236.4604)" class="st7 st14 st19">Big 5 wins</text>
<text transform="matrix(0.9395 0 0 1 615.1318 255.2891)" class="st13 st14 st20">3</text>
<ellipse class="st8" cx="526" cy="99.8" rx="2.7" ry="2.8"/>
<text transform="matrix(0.9395 0 0 1 567.6787 253.9258)" class="st13 st14 st21">2</text>
<text transform="matrix(0.9395 0 0 1 665.8682 253.9258)" class="st13 st14 st21">2</text>
<text transform="matrix(0.9395 0 0 1 522.4336 252.3408)" class="st13 st14 st22">1</text>
<text transform="matrix(0.9395 0 0 1 424.7197 252.3408)" class="st13 st14 st22">1</text>
<text transform="matrix(0.9395 0 0 1 82.7188 252.9258)" class="st13 st14 st22">1</text>
<text transform="matrix(0.9395 0 0 1 128.1992 253.9258)" class="st13 st14 st21">2</text>
<g>
	<text transform="matrix(0 -0.9395 1 0 706.9131 270.7266)" class="st23 st10 st11">Lucy Ferry &amp; Ilana Wurman</text>
</g>
<text transform="matrix(0.9395 0 0 1 3.144 272.71)" class="st1 st14 st24">COACH: KELLY GREENBERG</text>
<text transform="matrix(0.9395 0 0 1 191.4448 272.71)" class="st1 st14 st24">COACH: PATRICK KNAPP</text>
<text transform="matrix(0.9395 0 0 1 509.7949 272.71)" class="st23 st14 st24">COACH: MIKE MCLAUGHLIN</text>
</svg>
