<?xml version="1.0" encoding="utf-8"?>
<!-- Generator: Adobe Illustrator 19.0.0, SVG Export Plug-In . SVG Version: 6.00 Build 0)  -->
<svg version="1.1" id="Layer_1" xmlns="http://www.w3.org/2000/svg" xmlns:xlink="http://www.w3.org/1999/xlink" x="0px" y="0px"
	 viewBox="0 0 222.2 282.3" style="enable-background:new 0 0 222.2 282.3;" xml:space="preserve">
<style type="text/css">
	.st0{fill:#014563;}
	.st1{fill:#E73C26;}
</style>
<g>
	<path class="st0" d="M18.5,28.4L10,15.8l-2.5,3v9.7h-5V0.6h5v11.9c0,0,0.3-0.5,0.6-0.8l8.6-11.1h5.9L13,12.2l11.3,16.2H18.5z"/>
	<path class="st0" d="M42.9,28.4l-2.1-6.1H30.6l-2.1,6.1h-5.2l9.8-27.8h5l9.6,27.8H42.9z M36.2,8.2c-0.2-0.7-0.5-1.9-0.5-1.9
		s-0.3,1.2-0.5,1.9l-3.1,9.7h7.2L36.2,8.2z"/>
	<path class="st0" d="M59.4,28.9c-5,0-8.7-3.3-9.7-4.4l3.7-3.1c1.3,1.4,3.5,3,6,3c2.7,0,4.4-1.6,4.4-3.6c0-5.2-13.1-4.2-13.1-12.9
		c0-4.7,3.7-7.9,9.1-7.9C64.6,0,68,3.3,68,3.3l-3.6,3.2c0,0-1.9-1.9-4.5-1.9c-2.5,0-3.9,1.2-3.9,3.1c0,4.9,12.9,4,12.9,13
		C68.9,26.3,64.1,28.9,59.4,28.9z"/>
	<path class="st0" d="M73.7,28.4V0.6h16.9v4.5H78.6v6.4h8.6V16h-8.6v7.9H92v4.5H73.7z"/>
	<path class="st0" d="M107.9,18.3v10.2H103V18.3L93.2,0.6h5.5l5.9,11.3c0.4,0.8,0.8,1.6,0.8,1.6s0.4-0.8,0.8-1.6l5.9-11.3h5.5
		L107.9,18.3z"/>
	<path class="st0" d="M13.8,67.7c-7.3,0-12.6-5.6-12.6-14.2c0-8.6,5.2-14.4,12.6-14.4c4.1,0,7,1.8,9.5,5l-4.9,4
		c-1.2-1.4-2.7-2.4-4.5-2.4c-3.5,0-5.3,3.8-5.3,7.8c0,4,1.9,7.5,5.3,7.5c1.8,0,3.3-1,4.6-2.5l4.9,3.9C21,65.6,17.9,67.7,13.8,67.7z"
		/>
	<path class="st0" d="M43.1,67.4V56.1H35v11.3h-7.6V39.5H35v9.9h8.1v-9.9h7.6v27.8H43.1z"/>
	<path class="st0" d="M73.6,67.4L72,62.5h-8.2l-1.6,4.9h-8l10.2-27.8h6.8l10.1,27.8H73.6z M68.5,50.1c-0.3-0.9-0.6-2.1-0.6-2.1
		s-0.2,1.2-0.5,2.1l-1.8,6.4h4.7L68.5,50.1z"/>
	<path class="st0" d="M105,67.4V53.1c0,0-0.6,1-0.8,1.4l-5.6,9l-5.3-9c-0.2-0.4-0.8-1.4-0.8-1.4v14.2h-7.6V39.5h7l6.8,11.6l7-11.6
		h6.9v27.8H105z"/>
	<path class="st0" d="M129.3,67.4h-10.9V39.5h9.7c5.8,0,9.6,2.3,9.6,7.5c0,2-0.8,3.6-2.1,4.6c3,1.2,4.1,4.3,4.1,6.8
		C139.7,63.8,136,67.4,129.3,67.4z M125.9,45.7v4.5h2.1c1.5,0,2.6-0.4,2.6-2.3c0-1.9-1.3-2.2-2.6-2.2H125.9z M129.1,55.5h-3.2v5.6
		h3.2c2,0,3.1-1.2,3.1-2.8C132.2,56.6,131.3,55.5,129.1,55.5z"/>
	<path class="st0" d="M144.2,67.4V39.5h18.1v6.7h-10.6v4h7.4V56h-7.4v4.7h11.9v6.7H144.2z"/>
	<path class="st0" d="M181.9,67.4l-4.7-10.1h-2.1v10.1h-7.6V39.5h10.6c5.6,0,10,3,10,9c0,3.9-1.6,5.9-3.9,7.2l6.2,11.6H181.9z
		 M177.5,46.1h-2.4v5h2.4c2.4,0,3.1-1,3.1-2.5C180.6,47.2,179.9,46.1,177.5,46.1z"/>
	<path class="st0" d="M202.4,67.8c-5.4,0-9.2-3.2-10.9-5.6l5.3-4.1c2,2.2,4.1,3.2,5.8,3.2c1.9,0,2.7-1,2.7-2.1
		c0-3-12.6-3.5-12.6-11.9c0-5,4.3-8.4,10.2-8.4c5.6,0,9.5,4.3,9.5,4.3l-5,4.3c0,0-2.5-2-4.7-2c-1.9,0-2.4,0.8-2.4,1.6
		c0,2.9,12.6,3.3,12.6,11.9C212.9,65,207.4,67.8,202.4,67.8z"/>
</g>
<g>
	<g>
		<rect x="11.5" y="72.2" transform="matrix(0.754 0.6568 -0.6568 0.754 62.3168 13.9038)" class="st0" width="2.1" height="35.9"/>
	</g>
	<g>
		<rect x="19.8" y="72.2" transform="matrix(0.754 0.6568 -0.6568 0.754 64.3525 8.4674)" class="st0" width="2.1" height="35.9"/>
	</g>
	<g>
		
			<rect x="28.1" y="72.2" transform="matrix(0.7541 0.6568 -0.6568 0.7541 66.3856 3.0295)" class="st0" width="2.1" height="35.9"/>
	</g>
	<g>
		<rect x="36.4" y="72.2" transform="matrix(0.754 0.6568 -0.6568 0.754 68.4241 -2.406)" class="st0" width="2.1" height="35.9"/>
	</g>
	<g>
		<rect x="44.6" y="72.2" transform="matrix(0.754 0.6568 -0.6568 0.754 70.4595 -7.8418)" class="st0" width="2.1" height="35.9"/>
	</g>
	<g>
		
			<rect x="52.9" y="72.2" transform="matrix(0.7541 0.6568 -0.6568 0.7541 72.492 -13.2787)" class="st0" width="2.1" height="35.9"/>
	</g>
	<g>
		
			<rect x="61.2" y="72.2" transform="matrix(0.754 0.6568 -0.6568 0.754 74.5311 -18.7149)" class="st0" width="2.1" height="35.9"/>
	</g>
	<g>
		
			<rect x="69.5" y="72.2" transform="matrix(0.7541 0.6568 -0.6568 0.7541 76.5633 -24.1518)" class="st0" width="2.1" height="35.9"/>
	</g>
	<g>
		
			<rect x="77.8" y="72.2" transform="matrix(0.754 0.6568 -0.6568 0.754 78.6024 -29.5876)" class="st0" width="2.1" height="35.9"/>
	</g>
	<g>
		
			<rect x="86" y="72.2" transform="matrix(0.7541 0.6568 -0.6568 0.7541 80.6341 -35.0238)" class="st0" width="2.1" height="35.9"/>
	</g>
	<g>
		
			<rect x="94.3" y="72.2" transform="matrix(0.754 0.6568 -0.6568 0.754 82.6738 -40.4604)" class="st0" width="2.1" height="35.9"/>
	</g>
	<g>
		
			<rect x="102.6" y="72.2" transform="matrix(0.7541 0.6568 -0.6568 0.7541 84.7053 -45.8962)" class="st0" width="2.1" height="35.9"/>
	</g>
</g>
<g>
	<path class="st0" d="M5.4,129.6H0.3l0.3-1.6h5.1L5.4,129.6z"/>
	<path class="st0" d="M18.5,124.7c-0.5-0.4-1.4-0.7-2-0.7c-0.9,0-1.7,0.5-1.7,1.5c0,1.7,4.2,1.9,4.2,4.9c0,2.4-1.8,3.9-4.2,3.9
		c-1.5,0-3-0.7-4-1.9l1.7-1.3c0.5,0.7,1.5,1.3,2.4,1.3c1.1,0,1.9-0.7,1.9-1.8c0-1.8-4.2-2-4.2-4.8c0-2.4,1.8-3.7,4.1-3.7
		c1.3,0,2.6,0.6,3.5,1.4L18.5,124.7z"/>
	<path class="st0" d="M29.4,124.2h-3l-2.1,9.8h-2.1l2.1-9.8h-3l0.4-1.9h8.1L29.4,124.2z"/>
	<path class="st0" d="M35.2,134l-0.3-2.6h-4.3l-1.4,2.6h-2.3l6.8-11.7h2.2l1.6,11.7H35.2z M34.2,125.5c0-0.4-0.1-0.5-0.1-0.8
		l-2.6,4.9h3.1L34.2,125.5z"/>
	<path class="st0" d="M45.5,129l2.7,5h-2.5l-2.3-4.8h-1.2l-1,4.8H39l2.5-11.7h3.7c2,0,3.4,0.9,3.4,2.7
		C48.7,127.1,47.4,128.4,45.5,129z M45,124.2h-1.7l-0.7,3.1h1.5c1.4,0,2.5-0.7,2.5-2C46.6,124.6,46.1,124.2,45,124.2z"/>
	<path class="st0" d="M58.5,124.2h-3l-2.1,9.8h-2.1l2.1-9.8h-3l0.4-1.9h8.1L58.5,124.2z"/>
	<path class="st0" d="M67.2,124.2h-5l-0.6,2.7h3.6l-0.4,1.9h-3.6l-0.7,3.3h5.6l-0.4,1.9H58l2.5-11.7h7.1L67.2,124.2z"/>
	<path class="st0" d="M71.3,134h-3.9l2.5-11.7h3.7c3,0,4.2,1.9,4.2,4.3C77.9,130.4,75.3,134,71.3,134z M73.4,124.2h-1.8l-1.7,7.9
		h1.6c2.9,0,4.3-3,4.3-5.3C75.8,125.4,75.2,124.2,73.4,124.2z"/>
	<path class="st0" d="M90.6,134l-0.3-2.6h-4.3l-1.4,2.6h-2.3l6.8-11.7h2.2l1.6,11.7H90.6z M89.6,125.5c0-0.4-0.1-0.5-0.1-0.8
		l-2.6,4.9h3.1L89.6,125.5z"/>
	<path class="st0" d="M101.3,134h-6.8l2.5-11.7h2.1l-2.1,9.8h4.7L101.3,134z"/>
	<path class="st0" d="M110,134h-6.8l2.5-11.7h2.1l-2.1,9.8h4.7L110,134z"/>
	<path class="st1" d="M123.7,129.5l-2.4,2.1h3.3l-0.5,2.4h-8.6l6-5.5c1-0.9,1.7-1.6,1.9-2.5c0.2-0.8-0.3-1.4-1.2-1.4
		c-0.9,0-1.8,0.5-2.1,1.8h-2.7c0.6-2.7,2.9-4.1,5.1-4.1c2.4,0,4,1.9,3.5,4C125.6,127.5,124.8,128.5,123.7,129.5z"/>
	<path class="st1" d="M131.1,134h-3.6c1.8-1.2,3.4-2.5,4.7-4.3c-0.4,0.1-0.9,0.2-1.3,0.2c-1.9,0-3.4-1.3-3.4-3.3
		c0-2.5,2.1-4.5,4.6-4.5c2.5,0,4.2,1.5,4.2,4C136.2,129.4,133.6,132.2,131.1,134z M132,124.5c-1.1,0-1.9,0.8-1.9,1.9
		c0,1,0.9,1.5,1.8,1.5c0.5,0,1-0.1,1.4-0.3c0.2-0.5,0.3-1,0.3-1.4C133.6,125.2,132.9,124.5,132,124.5z"/>
	<path class="st0" d="M17.4,146.2c-0.7-0.7-1.2-1-2-1c-3,0-3.9,4-3.9,5.6c0,1.3,0.4,2.5,2,2.5c0.7,0,1.5-0.3,2.3-0.9l0.3-1.2h-1.3
		l0.4-1.8h3.4l-0.8,3.7c-1.1,1.3-2.7,2.2-4.5,2.2c-2.8,0-3.9-1.9-3.9-4.2c0-3.4,2-7.8,6.3-7.8c1.4,0,2.3,0.5,3.4,1.7L17.4,146.2z"/>
	<path class="st0" d="M26.8,155.2l-0.3-2.6h-4.3l-1.4,2.6h-2.3l6.8-11.7h2.2l1.6,11.7H26.8z M25.9,146.7c0-0.4-0.1-0.5-0.1-0.8
		l-2.6,4.9h3.1L25.9,146.7z"/>
	<path class="st0" d="M41.8,155.2h-2.1l1.8-8.3l-4.6,5.7l-2.2-5.6l-1.8,8.3h-2.1l2.5-11.7h2l2.2,5.5l4.7-5.5h2.2L41.8,155.2z"/>
	<path class="st0" d="M53.7,145.4h-5l-0.6,2.7h3.6l-0.4,1.9h-3.6l-0.7,3.3h5.6l-0.4,1.9h-7.7l2.5-11.7h7.1L53.7,145.4z"/>
	<path class="st0" d="M61.1,145.9c-0.5-0.4-1.4-0.7-2-0.7c-0.9,0-1.7,0.5-1.7,1.5c0,1.7,4.2,1.9,4.2,4.9c0,2.4-1.8,3.9-4.2,3.9
		c-1.5,0-3-0.7-4-1.9l1.7-1.3c0.5,0.7,1.5,1.3,2.4,1.3c1.1,0,1.9-0.7,1.9-1.8c0-1.8-4.2-2-4.2-4.8c0-2.4,1.8-3.7,4.1-3.7
		c1.3,0,2.6,0.6,3.5,1.4L61.1,145.9z"/>
	<path class="st0" d="M74.3,155.2h-6.8l2.5-11.7H72l-2.1,9.8h4.7L74.3,155.2z"/>
	<path class="st0" d="M83.4,155.2l-0.3-2.6h-4.3l-1.4,2.6h-2.3l6.8-11.7H84l1.6,11.7H83.4z M82.4,146.7c0-0.4-0.1-0.5-0.1-0.8
		l-2.6,4.9h3.1L82.4,146.7z"/>
	<path class="st0" d="M94.5,145.9c-0.5-0.4-1.4-0.7-2-0.7c-0.9,0-1.7,0.5-1.7,1.5c0,1.7,4.2,1.9,4.2,4.9c0,2.4-1.8,3.9-4.2,3.9
		c-1.5,0-3-0.7-4-1.9l1.7-1.3c0.5,0.7,1.5,1.3,2.4,1.3c1.1,0,1.9-0.7,1.9-1.8c0-1.8-4.2-2-4.2-4.8c0-2.4,1.8-3.7,4.1-3.7
		c1.3,0,2.6,0.6,3.5,1.4L94.5,145.9z"/>
	<path class="st0" d="M105.4,145.4h-3l-2.1,9.8h-2.1l2.1-9.8h-3l0.4-1.9h8.1L105.4,145.4z"/>
	<path class="st0" d="M116.7,145.9c-0.5-0.4-1.4-0.7-2-0.7c-0.9,0-1.7,0.5-1.7,1.5c0,1.7,4.2,1.9,4.2,4.9c0,2.4-1.8,3.9-4.2,3.9
		c-1.5,0-3-0.7-4-1.9l1.7-1.3c0.5,0.7,1.5,1.3,2.4,1.3c1.1,0,1.9-0.7,1.9-1.8c0-1.8-4.2-2-4.2-4.8c0-2.4,1.8-3.7,4.1-3.7
		c1.3,0,2.6,0.6,3.5,1.4L116.7,145.9z"/>
	<path class="st0" d="M127.7,145.4h-5l-0.6,2.7h3.6l-0.4,1.9h-3.6l-0.7,3.3h5.6l-0.4,1.9h-7.7l2.5-11.7h7.1L127.7,145.4z"/>
	<path class="st0" d="M135.2,155.2l-0.3-2.6h-4.3l-1.4,2.6h-2.3l6.8-11.7h2.2l1.6,11.7H135.2z M134.2,146.7c0-0.4-0.1-0.5-0.1-0.8
		l-2.6,4.9h3.1L134.2,146.7z"/>
	<path class="st0" d="M146.3,145.9c-0.5-0.4-1.4-0.7-2-0.7c-0.9,0-1.7,0.5-1.7,1.5c0,1.7,4.2,1.9,4.2,4.9c0,2.4-1.8,3.9-4.2,3.9
		c-1.5,0-3-0.7-4-1.9l1.7-1.3c0.5,0.7,1.5,1.3,2.4,1.3c1.1,0,1.9-0.7,1.9-1.8c0-1.8-4.2-2-4.2-4.8c0-2.4,1.8-3.7,4.1-3.7
		c1.3,0,2.6,0.6,3.5,1.4L146.3,145.9z"/>
	<path class="st0" d="M153,155.3c-2.8,0-4.3-1.9-4.3-4.6c0-3.4,2.2-7.4,6-7.4c2.8,0,4.3,1.9,4.3,4.6
		C159,151.3,156.9,155.3,153,155.3z M154.6,145.3c-2.6,0-3.8,3.2-3.8,5.4c0,1.5,0.7,2.6,2.3,2.6c2.6,0,3.8-3.2,3.8-5.4
		C156.9,146.5,156.3,145.3,154.6,145.3z"/>
	<path class="st0" d="M169.2,155.2h-2l-3.5-8.4l-1.8,8.4h-2.1l2.5-11.7h2l3.5,8.4l1.8-8.4h2.1L169.2,155.2z"/>
	<path class="st0" d="M5.4,171.9H0.3l0.3-1.6h5.1L5.4,171.9z"/>
	<path class="st1" d="M18.6,171.8l-2.4,2.1h3.3l-0.5,2.4h-8.6l6-5.5c1-0.9,1.7-1.6,1.9-2.5c0.2-0.8-0.3-1.4-1.2-1.4
		c-0.9,0-1.8,0.5-2.1,1.8h-2.7c0.6-2.7,2.9-4.1,5.1-4.1c2.4,0,4,1.9,3.5,4C20.6,169.8,19.8,170.8,18.6,171.8z"/>
	<path class="st1" d="M27,170.8h-1.4l-1.8-4.3l-0.9,4.3h-1.6l1.5-6.8h1.4l1.8,4.3l0.9-4.3h1.6L27,170.8z"/>
	<path class="st1" d="M30.9,170.8h-2.4l1.5-6.8h2.3c1.6,0,2.6,1,2.6,2.6C34.8,168.7,33.2,170.8,30.9,170.8z M32.1,165.3h-0.8
		l-0.9,4.1h0.7c1.4,0,2.2-1.5,2.2-2.7C33.3,165.9,32.9,165.3,32.1,165.3z"/>
	<path class="st0" d="M41.9,176.3h-2.1l2.5-11.7h2.1L41.9,176.3z"/>
	<path class="st0" d="M54,176.3h-2l-3.5-8.4l-1.8,8.4h-2.1l2.5-11.7h2l3.5,8.4l1.8-8.4h2.1L54,176.3z"/>
	<path class="st0" d="M63.3,176.3h-2.1l2.5-11.7h2.1L63.3,176.3z"/>
	<path class="st0" d="M70.9,176.3h-2l-1.5-11.7h2.1l0.9,8.7l4.6-8.7h2.3L70.9,176.3z"/>
	<path class="st0" d="M82.4,172.1l-0.9,4.2h-2.1l0.9-4.4l-2.3-7.4h2.2l1.5,5.4l3.8-5.4h2.5L82.4,172.1z"/>
	<path class="st0" d="M98.4,176.3h-6.8l2.5-11.7h2.1l-2.1,9.8h4.7L98.4,176.3z"/>
	<path class="st0" d="M109.4,166.5h-5l-0.6,2.7h3.6l-0.4,1.9h-3.6l-0.7,3.3h5.6l-0.4,1.9h-7.7l2.5-11.7h7.1L109.4,166.5z"/>
	<path class="st0" d="M117,176.3l-0.3-2.6h-4.3l-1.4,2.6h-2.3l6.8-11.7h2.2l1.6,11.7H117z M116,167.9c0-0.4-0.1-0.5-0.1-0.8
		l-2.6,4.9h3.1L116,167.9z"/>
	<path class="st0" d="M128.5,167.3c-0.7-0.7-1.2-1-2-1c-3,0-3.9,4-3.9,5.6c0,1.3,0.4,2.5,2,2.5c0.7,0,1.5-0.3,2.3-0.9l0.3-1.2h-1.3
		l0.4-1.8h3.4l-0.8,3.7c-1.1,1.3-2.7,2.2-4.5,2.2c-2.8,0-3.9-1.9-3.9-4.2c0-3.4,2-7.8,6.3-7.8c1.4,0,2.3,0.5,3.4,1.7L128.5,167.3z"
		/>
	<path class="st0" d="M141,171.6c-0.7,3.4-3,4.8-5.5,4.8c-2.2,0-4-1.3-4-3.7c0-0.4,0.1-0.8,0.2-1.3l1.5-6.9h2.1l-1.5,7.2
		c-0.3,1.4,0.2,2.7,1.9,2.7c1.5,0,2.9-1,3.3-2.9l1.5-7h2.1L141,171.6z"/>
	<path class="st0" d="M151.7,166.5h-5l-0.6,2.7h3.6l-0.4,1.9h-3.6l-0.7,3.3h5.6l-0.4,1.9h-7.7l2.5-11.7h7.1L151.7,166.5z"/>
	<path class="st0" d="M158.6,176.3h-2.1l2.5-11.7h2.1L158.6,176.3z"/>
	<path class="st0" d="M170.6,176.3h-2l-3.5-8.4l-1.8,8.4h-2.1l2.5-11.7h2l3.5,8.4l1.8-8.4h2.1L170.6,176.3z"/>
	<path class="st0" d="M16.1,197.5l-0.3-2.6h-4.3l-1.4,2.6H7.7l6.8-11.7h2.2l1.6,11.7H16.1z M15.2,189c0-0.4-0.1-0.5-0.1-0.8
		l-2.6,4.9h3.1L15.2,189z"/>
	<path class="st0" d="M27.3,188.2c-0.5-0.4-1.4-0.7-2-0.7c-0.9,0-1.7,0.5-1.7,1.5c0,1.7,4.2,1.9,4.2,4.9c0,2.4-1.8,3.9-4.2,3.9
		c-1.5,0-3-0.7-4-1.9l1.7-1.3c0.5,0.7,1.5,1.3,2.4,1.3c1.1,0,1.9-0.7,1.9-1.8c0-1.8-4.2-2-4.2-4.8c0-2.4,1.8-3.7,4.1-3.7
		c1.3,0,2.6,0.6,3.5,1.4L27.3,188.2z"/>
	<path class="st0" d="M36.2,188.2c-0.5-0.4-1.4-0.7-2-0.7c-0.9,0-1.7,0.5-1.7,1.5c0,1.7,4.2,1.9,4.2,4.9c0,2.4-1.8,3.9-4.2,3.9
		c-1.5,0-3-0.7-4-1.9l1.7-1.3c0.5,0.7,1.5,1.3,2.4,1.3c1.1,0,1.9-0.7,1.9-1.8c0-1.8-4.2-2-4.2-4.8c0-2.4,1.8-3.7,4.1-3.7
		c1.3,0,2.6,0.6,3.5,1.4L36.2,188.2z"/>
	<path class="st0" d="M40.1,197.5H38l2.5-11.7h2.1L40.1,197.5z"/>
	<path class="st0" d="M50,188.2c-0.5-0.4-1.4-0.7-2-0.7c-0.9,0-1.7,0.5-1.7,1.5c0,1.7,4.2,1.9,4.2,4.9c0,2.4-1.8,3.9-4.2,3.9
		c-1.5,0-3-0.7-4-1.9l1.7-1.3c0.5,0.7,1.5,1.3,2.4,1.3c1.1,0,1.9-0.7,1.9-1.8c0-1.8-4.2-2-4.2-4.8c0-2.4,1.8-3.7,4.1-3.7
		c1.3,0,2.6,0.6,3.5,1.4L50,188.2z"/>
	<path class="st0" d="M60.8,187.7h-3l-2.1,9.8h-2.1l2.1-9.8h-3l0.4-1.9h8.1L60.8,187.7z"/>
	<path class="st0" d="M74.1,187.7h-3l-2.1,9.8h-2.1l2.1-9.8h-3l0.4-1.9h8.1L74.1,187.7z"/>
	<path class="st0" d="M78.1,197.6c-2.8,0-4.3-1.9-4.3-4.6c0-3.4,2.2-7.4,6-7.4c2.8,0,4.3,1.9,4.3,4.6
		C84.1,193.6,82,197.6,78.1,197.6z M79.7,187.6c-2.6,0-3.8,3.2-3.8,5.4c0,1.5,0.7,2.6,2.3,2.6c2.6,0,3.8-3.2,3.8-5.4
		C82,188.8,81.3,187.6,79.7,187.6z"/>
	<path class="st0" d="M98.6,187.7h-3l-2.1,9.8h-2.1l2.1-9.8h-3l0.4-1.9H99L98.6,187.7z"/>
	<path class="st0" d="M108.3,192.8c-0.7,3.4-3,4.8-5.5,4.8c-2.2,0-4-1.3-4-3.7c0-0.4,0.1-0.8,0.2-1.3l1.5-6.9h2.1l-1.5,7.2
		c-0.3,1.4,0.2,2.7,1.9,2.7c1.5,0,2.9-1,3.3-2.9l1.5-7h2.1L108.3,192.8z"/>
	<path class="st0" d="M116.2,192.5l2.7,5h-2.5l-2.3-4.8h-1.2l-1,4.8h-2.1l2.5-11.7h3.7c2,0,3.4,0.9,3.4,2.7
		C119.4,190.6,118.2,191.8,116.2,192.5z M115.7,187.7H114l-0.7,3.1h1.5c1.4,0,2.5-0.7,2.5-2C117.3,188.1,116.8,187.7,115.7,187.7z"
		/>
	<path class="st0" d="M129.5,197.5h-2l-3.5-8.4l-1.8,8.4h-2.1l2.5-11.7h2l3.5,8.4l1.8-8.4h2.1L129.5,197.5z"/>
	<path class="st0" d="M137.1,197.6c-2.8,0-4.3-1.9-4.3-4.6c0-3.4,2.2-7.4,6-7.4c2.8,0,4.3,1.9,4.3,4.6
		C143.1,193.6,141,197.6,137.1,197.6z M138.7,187.6c-2.6,0-3.8,3.2-3.8,5.4c0,1.5,0.7,2.6,2.3,2.6c2.6,0,3.8-3.2,3.8-5.4
		C141,188.8,140.4,187.6,138.7,187.6z"/>
	<path class="st0" d="M147.9,197.5h-2l-1.5-11.7h2.1l0.9,8.7l4.6-8.7h2.3L147.9,197.5z"/>
	<path class="st0" d="M162.6,187.7h-5l-0.6,2.7h3.6l-0.4,1.9h-3.6l-0.7,3.3h5.6l-0.4,1.9h-7.7l2.5-11.7h7.1L162.6,187.7z"/>
	<path class="st0" d="M169.3,192.5l2.7,5h-2.5l-2.3-4.8h-1.2l-1,4.8h-2.1l2.5-11.7h3.7c2,0,3.4,0.9,3.4,2.7
		C172.5,190.6,171.2,191.8,169.3,192.5z M168.7,187.7H167l-0.7,3.1h1.5c1.4,0,2.5-0.7,2.5-2C170.4,188.1,169.9,187.7,168.7,187.7z"
		/>
	<path class="st0" d="M184.1,192.5l2.7,5h-2.5l-2.3-4.8h-1.2l-1,4.8h-2.1l2.5-11.7h3.7c2,0,3.4,0.9,3.4,2.7
		C187.3,190.6,186,191.8,184.1,192.5z M183.6,187.7h-1.7l-0.7,3.1h1.5c1.4,0,2.5-0.7,2.5-2C185.2,188.1,184.7,187.7,183.6,187.7z"/>
	<path class="st0" d="M195.3,197.5l-0.3-2.6h-4.3l-1.4,2.6h-2.3l6.8-11.7h2.2l1.6,11.7H195.3z M194.3,189c0-0.4-0.1-0.5-0.1-0.8
		l-2.6,4.9h3.1L194.3,189z"/>
	<path class="st0" d="M207,187.7h-3l-2.1,9.8h-2.1l2.1-9.8h-3l0.4-1.9h8.1L207,187.7z"/>
	<path class="st0" d="M208.6,197.5h-2.1l2.5-11.7h2.1L208.6,197.5z"/>
	<path class="st0" d="M216.3,197.6c-2.8,0-4.3-1.9-4.3-4.6c0-3.4,2.2-7.4,6-7.4c2.8,0,4.3,1.9,4.3,4.6
		C222.2,193.6,220.1,197.6,216.3,197.6z M217.9,187.6c-2.6,0-3.8,3.2-3.8,5.4c0,1.5,0.7,2.6,2.3,2.6c2.6,0,3.8-3.2,3.8-5.4
		C220.2,188.8,219.5,187.6,217.9,187.6z"/>
	<path class="st0" d="M5.4,214.3H0.3l0.3-1.6h5.1L5.4,214.3z"/>
	<path class="st1" d="M15.9,218.8c-2.5,0-4.2-1.5-4.2-4c0-3.2,2.6-6,5-7.8h3.6c-1.8,1.2-3.4,2.5-4.7,4.3c0.4-0.1,0.9-0.2,1.3-0.2
		c1.9,0,3.4,1.3,3.4,3.3C20.5,216.8,18.4,218.8,15.9,218.8z M16,213.1c-0.5,0-1,0.1-1.4,0.3c-0.2,0.5-0.3,0.9-0.3,1.4
		c0,1,0.7,1.6,1.6,1.6c1.1,0,1.9-0.8,1.9-1.9C17.8,213.5,17,213.1,16,213.1z"/>
	<path class="st1" d="M27,207.6h-1.7l-1.2,5.4h-1.6l1.2-5.4h-1.7l0.3-1.4h5L27,207.6z"/>
	<path class="st1" d="M32.2,213.1h-1.6l0.6-2.9h-2.3l-0.6,2.9h-1.6l1.5-6.8h1.6l-0.5,2.6h2.3l0.5-2.6h1.6L32.2,213.1z"/>
	<path class="st0" d="M40.3,218.6h-2.1l2.5-11.7h2.1L40.3,218.6z"/>
	<path class="st0" d="M52.4,218.6h-2l-3.5-8.4l-1.8,8.4H43l2.5-11.7h2l3.5,8.4l1.8-8.4h2.1L52.4,218.6z"/>
	<path class="st0" d="M68.7,208.8h-3l-2.1,9.8h-2.1l2.1-9.8h-3l0.4-1.9h8.1L68.7,208.8z"/>
	<path class="st0" d="M77.2,218.6h-2.1l1.1-5.2h-4.7l-1.1,5.2h-2.1l2.5-11.7h2.1l-1,4.6h4.7l1-4.6h2.1L77.2,218.6z"/>
	<path class="st0" d="M89.1,208.8h-5l-0.6,2.7h3.6l-0.4,1.9h-3.6l-0.7,3.3H88l-0.4,1.9h-7.7l2.5-11.7h7.1L89.1,208.8z"/>
	<path class="st0" d="M95.9,218.6h-2.1l2.5-11.7h2.1L95.9,218.6z"/>
	<path class="st0" d="M103.6,218.6h-2l-1.5-11.7h2.1l0.9,8.7l4.6-8.7h2.3L103.6,218.6z"/>
	<path class="st0" d="M115,214.4l-0.9,4.2H112l0.9-4.4l-2.3-7.4h2.2l1.5,5.4l3.8-5.4h2.5L115,214.4z"/>
	<path class="st0" d="M131.1,218.6h-6.8l2.5-11.7h2.1l-2.1,9.8h4.7L131.1,218.6z"/>
	<path class="st0" d="M142.1,208.8h-5l-0.6,2.7h3.6l-0.4,1.9h-3.6l-0.7,3.3h5.6l-0.4,1.9h-7.7l2.5-11.7h7.1L142.1,208.8z"/>
	<path class="st0" d="M149.6,218.6l-0.3-2.6H145l-1.4,2.6h-2.3l6.8-11.7h2.2l1.6,11.7H149.6z M148.7,210.2c0-0.4-0.1-0.5-0.1-0.8
		l-2.6,4.9h3.1L148.7,210.2z"/>
	<path class="st0" d="M161.2,209.7c-0.7-0.7-1.2-1-2-1c-3,0-3.9,4-3.9,5.6c0,1.3,0.4,2.5,2,2.5c0.7,0,1.5-0.3,2.3-0.9l0.3-1.2h-1.3
		l0.4-1.8h3.4l-0.8,3.7c-1.1,1.3-2.7,2.2-4.5,2.2c-2.8,0-3.9-1.9-3.9-4.2c0-3.4,2-7.8,6.3-7.8c1.4,0,2.3,0.5,3.4,1.7L161.2,209.7z"
		/>
	<path class="st0" d="M173.7,214c-0.7,3.4-3,4.8-5.5,4.8c-2.2,0-4-1.3-4-3.7c0-0.4,0.1-0.8,0.2-1.3l1.5-6.9h2.1l-1.5,7.2
		c-0.3,1.4,0.2,2.7,1.9,2.7c1.5,0,2.9-1,3.3-2.9l1.5-7h2.1L173.7,214z"/>
	<path class="st0" d="M184.3,208.8h-5l-0.6,2.7h3.6l-0.4,1.9h-3.6l-0.7,3.3h5.6l-0.4,1.9h-7.7l2.5-11.7h7.1L184.3,208.8z"/>
	<path class="st0" d="M23.8,239.8h-2l-0.7-6.2l-3.3,6.2h-2.1l-0.7-11.7h2.2l0.4,8.5l4.6-8.4l1.1,8.4l4-8.6h2.3L23.8,239.8z"/>
	<path class="st0" d="M30.7,239.8h-2.1l2.5-11.7h2.1L30.7,239.8z"/>
	<path class="st0" d="M42.5,230h-3l-2.1,9.8h-2.1l2.1-9.8h-3l0.4-1.9h8.1L42.5,230z"/>
	<path class="st0" d="M51,239.8h-2.1l1.1-5.2h-4.7l-1.1,5.2h-2.1l2.5-11.7h2.1l-1,4.6h4.7l1-4.6h2.1L51,239.8z"/>
	<path class="st1" d="M63,239.8h-3.6c1.8-1.2,3.4-2.5,4.7-4.3c-0.4,0.1-0.9,0.2-1.3,0.2c-1.9,0-3.4-1.3-3.4-3.3
		c0-2.5,2.1-4.5,4.6-4.5c2.5,0,4.2,1.5,4.2,4C68,235.2,65.4,238,63,239.8z M63.8,230.3c-1.1,0-1.9,0.8-1.9,1.9c0,1,0.9,1.5,1.8,1.5
		c0.5,0,1-0.1,1.4-0.3c0.2-0.5,0.3-1,0.3-1.4C65.4,231,64.7,230.3,63.8,230.3z"/>
	<path class="st1" d="M76.5,233.6c0.9,0.4,1.3,1.3,1.3,2.2c0,2.5-2.6,4.1-5,4.1c-2,0-4-1-4-3.2c0-1.7,1-2.7,2.5-3.4
		c-0.6-0.4-0.9-1.1-0.9-1.8c0-2.2,2.2-3.6,4.6-3.6c1.7,0,3.6,1,3.6,2.9C78.5,232.1,77.7,233.2,76.5,233.6z M73.1,234.4
		c-0.8,0.4-1.4,1.1-1.4,1.9c0,0.8,0.6,1.2,1.4,1.2c1,0,2-0.8,2-1.8C75.1,234.6,74,234.6,73.1,234.4z M74.8,230.3
		c-0.9,0-1.6,0.6-1.6,1.5c0,0.9,1.1,0.9,1.7,1c0.5-0.4,1-1,1-1.6C75.8,230.6,75.3,230.3,74.8,230.3z"/>
	<path class="st0" d="M91.2,239.8l-0.3-2.6h-4.3l-1.4,2.6h-2.3l6.8-11.7h2.2l1.6,11.7H91.2z M90.3,231.3c0-0.4-0.1-0.5-0.1-0.8
		l-2.6,4.9h3.1L90.3,231.3z"/>
	<path class="st0" d="M102.4,230.5c-0.5-0.4-1.4-0.7-2-0.7c-0.9,0-1.7,0.5-1.7,1.5c0,1.7,4.2,1.9,4.2,4.9c0,2.4-1.8,3.9-4.2,3.9
		c-1.5,0-3-0.7-4-1.9l1.7-1.3c0.5,0.7,1.5,1.3,2.4,1.3c1.1,0,1.9-0.7,1.9-1.8c0-1.8-4.2-2-4.2-4.8c0-2.4,1.8-3.7,4.1-3.7
		c1.3,0,2.6,0.6,3.5,1.4L102.4,230.5z"/>
	<path class="st0" d="M111.3,230.5c-0.5-0.4-1.4-0.7-2-0.7c-0.9,0-1.7,0.5-1.7,1.5c0,1.7,4.2,1.9,4.2,4.9c0,2.4-1.8,3.9-4.2,3.9
		c-1.5,0-3-0.7-4-1.9l1.7-1.3c0.5,0.7,1.5,1.3,2.4,1.3c1.1,0,1.9-0.7,1.9-1.8c0-1.8-4.2-2-4.2-4.8c0-2.4,1.8-3.7,4.1-3.7
		c1.3,0,2.6,0.6,3.5,1.4L111.3,230.5z"/>
	<path class="st0" d="M115.2,239.8h-2.1l2.5-11.7h2.1L115.2,239.8z"/>
	<path class="st0" d="M125.1,230.5c-0.5-0.4-1.4-0.7-2-0.7c-0.9,0-1.7,0.5-1.7,1.5c0,1.7,4.2,1.9,4.2,4.9c0,2.4-1.8,3.9-4.2,3.9
		c-1.5,0-3-0.7-4-1.9l1.7-1.3c0.5,0.7,1.5,1.3,2.4,1.3c1.1,0,1.9-0.7,1.9-1.8c0-1.8-4.2-2-4.2-4.8c0-2.4,1.8-3.7,4.1-3.7
		c1.3,0,2.6,0.6,3.5,1.4L125.1,230.5z"/>
	<path class="st0" d="M135.9,230h-3l-2.1,9.8h-2.1l2.1-9.8h-3l0.4-1.9h8.1L135.9,230z"/>
	<path class="st0" d="M142.7,230.5c-0.5-0.4-1.4-0.7-2-0.7c-0.9,0-1.7,0.5-1.7,1.5c0,1.7,4.2,1.9,4.2,4.9c0,2.4-1.8,3.9-4.2,3.9
		c-1.5,0-3-0.7-4-1.9l1.7-1.3c0.5,0.7,1.5,1.3,2.4,1.3c1.1,0,1.9-0.7,1.9-1.8c0-1.8-4.2-2-4.2-4.8c0-2.4,1.8-3.7,4.1-3.7
		c1.3,0,2.6,0.6,3.5,1.4L142.7,230.5z"/>
	<path class="st0" d="M5.4,256.6H0.3l0.3-1.6h5.1L5.4,256.6z"/>
	<path class="st1" d="M13.9,261H11l6.7-9.4h-4.5l0.5-2.3h8.4L13.9,261z"/>
	<path class="st1" d="M24,261h-3l0.6-2.7h3L24,261z"/>
	<path class="st1" d="M34.6,254.8c0.9,0.4,1.3,1.3,1.3,2.2c0,2.5-2.6,4.1-5,4.1c-2,0-4-1-4-3.2c0-1.7,1-2.7,2.5-3.4
		c-0.6-0.4-0.9-1.1-0.9-1.8c0-2.2,2.2-3.6,4.6-3.6c1.7,0,3.6,1,3.6,2.9C36.6,253.3,35.8,254.4,34.6,254.8z M31.2,255.6
		c-0.8,0.4-1.4,1.1-1.4,1.9c0,0.8,0.6,1.2,1.4,1.2c1,0,2-0.8,2-1.8C33.1,255.8,32,255.8,31.2,255.6z M32.8,251.5
		c-0.9,0-1.6,0.6-1.6,1.5c0,0.9,1.1,0.9,1.7,1c0.5-0.4,1-1,1-1.6C33.9,251.8,33.4,251.5,32.8,251.5z"/>
	<path class="st0" d="M46.9,256.2h-1.8l-1,4.8H42l2.5-11.7h3.7c2,0,3.4,1,3.4,2.7C51.6,254.8,49.4,256.2,46.9,256.2z M48,251.2h-1.8
		l-0.7,3.1h1.6c1.5,0,2.5-0.8,2.5-2C49.6,251.5,49.1,251.2,48,251.2z"/>
	<path class="st0" d="M56.7,261.1c-2.8,0-4.3-1.9-4.3-4.6c0-3.4,2.2-7.4,6-7.4c2.8,0,4.3,1.9,4.3,4.6
		C62.7,257.1,60.6,261.1,56.7,261.1z M58.3,251.1c-2.6,0-3.8,3.2-3.8,5.4c0,1.5,0.7,2.6,2.3,2.6c2.6,0,3.8-3.2,3.8-5.4
		C60.6,252.3,60,251.1,58.3,251.1z"/>
	<path class="st0" d="M65.6,261h-2.1l2.5-11.7h2.1L65.6,261z"/>
	<path class="st0" d="M77.7,261h-2l-3.5-8.4l-1.8,8.4h-2.1l2.5-11.7h2l3.5,8.4l1.8-8.4h2.1L77.7,261z"/>
	<path class="st0" d="M89.5,251.2h-3l-2.1,9.8h-2.1l2.1-9.8h-3l0.4-1.9h8.1L89.5,251.2z"/>
	<path class="st0" d="M96.3,251.7c-0.5-0.4-1.4-0.7-2-0.7c-0.9,0-1.7,0.5-1.7,1.5c0,1.7,4.2,1.9,4.2,4.9c0,2.4-1.8,3.9-4.2,3.9
		c-1.5,0-3-0.7-4-1.9l1.7-1.3c0.5,0.7,1.5,1.3,2.4,1.3c1.1,0,1.9-0.7,1.9-1.8c0-1.8-4.2-2-4.2-4.8c0-2.4,1.8-3.7,4.1-3.7
		c1.3,0,2.6,0.6,3.5,1.4L96.3,251.7z"/>
	<path class="st0" d="M107.5,256.2h-1.8l-1,4.8h-2.1l2.5-11.7h3.7c2,0,3.4,1,3.4,2.7C112.2,254.8,109.9,256.2,107.5,256.2z
		 M108.5,251.2h-1.8l-0.7,3.1h1.6c1.5,0,2.5-0.8,2.5-2C110.1,251.5,109.7,251.2,108.5,251.2z"/>
	<path class="st0" d="M121.5,251.2h-5l-0.6,2.7h3.6l-0.4,1.9h-3.6l-0.7,3.3h5.6L120,261h-7.7l2.5-11.7h7.1L121.5,251.2z"/>
	<path class="st0" d="M128.2,256l2.7,5h-2.5l-2.3-4.8h-1.2l-1,4.8h-2.1l2.5-11.7h3.7c2,0,3.4,0.9,3.4,2.7
		C131.4,254,130.1,255.3,128.2,256z M127.6,251.2h-1.7l-0.7,3.1h1.5c1.4,0,2.5-0.7,2.5-2C129.3,251.6,128.8,251.2,127.6,251.2z"/>
	<path class="st0" d="M145.2,252c-0.7-0.7-1.2-1-2-1c-3,0-3.9,4-3.9,5.6c0,1.3,0.4,2.5,2,2.5c0.7,0,1.5-0.3,2.3-0.9l0.3-1.2h-1.3
		l0.4-1.8h3.4l-0.8,3.7c-1.1,1.3-2.7,2.2-4.5,2.2c-2.8,0-3.9-1.9-3.9-4.2c0-3.4,2-7.8,6.3-7.8c1.4,0,2.3,0.5,3.4,1.7L145.2,252z"/>
	<path class="st0" d="M154.6,261l-0.3-2.6h-4.3l-1.4,2.6h-2.3l6.8-11.7h2.2l1.6,11.7H154.6z M153.6,252.5c0-0.4-0.1-0.5-0.1-0.8
		l-2.6,4.9h3.1L153.6,252.5z"/>
	<path class="st0" d="M169.6,261h-2.1l1.8-8.3l-4.6,5.7l-2.2-5.6l-1.8,8.3h-2.1l2.5-11.7h2l2.2,5.5l4.7-5.5h2.2L169.6,261z"/>
	<path class="st0" d="M181.4,251.2h-5l-0.6,2.7h3.6l-0.4,1.9h-3.6l-0.7,3.3h5.6l-0.4,1.9h-7.7l2.5-11.7h7.1L181.4,251.2z"/>
	<path class="st0" d="M181.7,263.4h-1.6l2.2-4.7h2.4L181.7,263.4z"/>
	<path class="st0" d="M5.4,277.7H0.3l0.3-1.6h5.1L5.4,277.7z"/>
	<path class="st1" d="M18.6,274.5c1.1,0.5,1.8,1.7,1.8,2.9c0,2.8-2.3,4.9-5.2,4.9c-2,0-3.6-1.2-4.1-2.9l2.4-1c0.2,0.8,1,1.4,1.9,1.4
		c1.3,0,2.3-0.9,2.3-2.2c0-1.4-1.6-1.8-3-1.6l2.9-3.2h-4.4l0.5-2.4h8.6L18.6,274.5z"/>
	<path class="st1" d="M24.6,282.1h-3l0.6-2.7h3L24.6,282.1z"/>
	<path class="st1" d="M35.6,277.5H37l-0.5,2.3h-1.4l-0.5,2.3H32l0.5-2.3H26l8.5-9.4h2.6L35.6,277.5z M30.8,277.5h2.2l0.7-3.1
		L30.8,277.5z"/>
	<path class="st0" d="M49.9,282.1l-0.3-2.6h-4.3l-1.4,2.6h-2.3l6.8-11.7h2.2l1.6,11.7H49.9z M48.9,273.6c0-0.4-0.1-0.5-0.1-0.8
		l-2.6,4.9h3.1L48.9,273.6z"/>
	<path class="st0" d="M61,272.8c-0.5-0.4-1.4-0.7-2-0.7c-0.9,0-1.7,0.5-1.7,1.5c0,1.7,4.2,1.9,4.2,4.9c0,2.4-1.8,3.9-4.2,3.9
		c-1.5,0-3-0.7-4-1.9l1.7-1.3c0.5,0.7,1.5,1.3,2.4,1.3c1.1,0,1.9-0.7,1.9-1.8c0-1.8-4.2-2-4.2-4.8c0-2.4,1.8-3.7,4.1-3.7
		c1.3,0,2.6,0.6,3.5,1.4L61,272.8z"/>
	<path class="st0" d="M70,272.8c-0.5-0.4-1.4-0.7-2-0.7c-0.9,0-1.7,0.5-1.7,1.5c0,1.7,4.2,1.9,4.2,4.9c0,2.4-1.8,3.9-4.2,3.9
		c-1.5,0-3-0.7-4-1.9l1.7-1.3c0.5,0.7,1.5,1.3,2.4,1.3c1.1,0,1.9-0.7,1.9-1.8c0-1.8-4.2-2-4.2-4.8c0-2.4,1.8-3.7,4.1-3.7
		c1.3,0,2.6,0.6,3.5,1.4L70,272.8z"/>
	<path class="st0" d="M73.8,282.1h-2.1l2.5-11.7h2.1L73.8,282.1z"/>
	<path class="st0" d="M83.7,272.8c-0.5-0.4-1.4-0.7-2-0.7c-0.9,0-1.7,0.5-1.7,1.5c0,1.7,4.2,1.9,4.2,4.9c0,2.4-1.8,3.9-4.2,3.9
		c-1.5,0-3-0.7-4-1.9l1.7-1.3c0.5,0.7,1.5,1.3,2.4,1.3c1.1,0,1.9-0.7,1.9-1.8c0-1.8-4.2-2-4.2-4.8c0-2.4,1.8-3.7,4.1-3.7
		c1.3,0,2.6,0.6,3.5,1.4L83.7,272.8z"/>
	<path class="st0" d="M94.6,272.3h-3l-2.1,9.8h-2.1l2.1-9.8h-3l0.4-1.9H95L94.6,272.3z"/>
	<path class="st0" d="M101.3,272.8c-0.5-0.4-1.4-0.7-2-0.7c-0.9,0-1.7,0.5-1.7,1.5c0,1.7,4.2,1.9,4.2,4.9c0,2.4-1.8,3.9-4.2,3.9
		c-1.5,0-3-0.7-4-1.9l1.7-1.3c0.5,0.7,1.5,1.3,2.4,1.3c1.1,0,1.9-0.7,1.9-1.8c0-1.8-4.2-2-4.2-4.8c0-2.4,1.8-3.7,4.1-3.7
		c1.3,0,2.6,0.6,3.5,1.4L101.3,272.8z"/>
	<path class="st0" d="M112.6,277.3h-1.8l-1,4.8h-2.1l2.5-11.7h3.7c2,0,3.4,1,3.4,2.7C117.2,276,115,277.3,112.6,277.3z M113.6,272.3
		h-1.8l-0.7,3.1h1.6c1.5,0,2.5-0.8,2.5-2C115.2,272.7,114.7,272.3,113.6,272.3z"/>
	<path class="st0" d="M126.6,272.3h-5L121,275h3.6l-0.4,1.9h-3.6l-0.7,3.3h5.6l-0.4,1.9h-7.7l2.5-11.7h7.1L126.6,272.3z"/>
	<path class="st0" d="M133.2,277.1l2.7,5h-2.5l-2.3-4.8h-1.2l-1,4.8h-2.1l2.5-11.7h3.7c2,0,3.4,0.9,3.4,2.7
		C136.4,275.2,135.2,276.5,133.2,277.1z M132.7,272.3H131l-0.7,3.1h1.5c1.4,0,2.5-0.7,2.5-2C134.3,272.7,133.8,272.3,132.7,272.3z"
		/>
	<path class="st0" d="M150.3,273.1c-0.7-0.7-1.2-1-2-1c-3,0-3.9,4-3.9,5.6c0,1.3,0.4,2.5,2,2.5c0.7,0,1.5-0.3,2.3-0.9l0.3-1.2h-1.3
		l0.4-1.8h3.4l-0.8,3.7c-1.1,1.3-2.7,2.2-4.5,2.2c-2.8,0-3.9-1.9-3.9-4.2c0-3.4,2-7.8,6.3-7.8c1.4,0,2.3,0.5,3.4,1.7L150.3,273.1z"
		/>
	<path class="st0" d="M159.7,282.1l-0.3-2.6H155l-1.4,2.6h-2.3l6.8-11.7h2.2l1.6,11.7H159.7z M158.7,273.6c0-0.4-0.1-0.5-0.1-0.8
		l-2.6,4.9h3.1L158.7,273.6z"/>
	<path class="st0" d="M174.7,282.1h-2.1l1.8-8.3l-4.6,5.7l-2.2-5.6l-1.8,8.3h-2.1l2.5-11.7h2l2.2,5.5l4.7-5.5h2.2L174.7,282.1z"/>
	<path class="st0" d="M186.5,272.3h-5l-0.6,2.7h3.6l-0.4,1.9h-3.6l-0.7,3.3h5.6l-0.4,1.9h-7.7l2.5-11.7h7.1L186.5,272.3z"/>
</g>
<g>
	<path class="st1" d="M132.9,79.8c-0.8-0.9-1.4-1.1-2-1.1c-1.8,0-2.8,1.8-3.2,3.7c-0.3,1.5-0.3,3.5,1.5,3.5c0.8,0,1.4-0.3,1.9-0.7
		l0.2-0.7h-1.4l0.5-2.5h4.7l-1,4.5c-1.5,1.5-3.2,2.6-5.4,2.6c-4.4,0-5.2-3.9-4.6-7.1c0.7-3.3,2.9-6.4,7-6.4c1.5,0,3.1,0.5,4.5,2.4
		L132.9,79.8z"/>
	<path class="st1" d="M148.2,83.6c-0.8,3.7-3.4,5.4-6.4,5.4c-4,0-5.5-2.5-4.8-5.7l1.6-7.7h3.6l-1.7,8.1c-0.3,1.6,0.5,2.1,1.5,2.1
		c1.2,0,2.2-0.6,2.6-2.5l1.6-7.7h3.6L148.2,83.6z"/>
	<path class="st1" d="M157.1,88.8l-0.3-2.3H153l-1.3,2.3h-3.9l7.7-13.2h3.2l1.9,13.2H157.1z M156.3,80.8c0-0.3,0-0.8,0-1.1l-1.9,4
		h2.1L156.3,80.8z"/>
	<path class="st1" d="M171.4,83.5l1.8,5.4h-3.9l-1.2-4.8H167l-1,4.8h-3.6l2.8-13.2h4.9c2.4,0,4.1,1.2,4.1,3.4
		C174.2,81.1,173.2,82.8,171.4,83.5z M168.6,81.2c1,0,2-0.3,2-1.5c0-0.5-0.3-0.8-1.1-0.8h-1.3l-0.5,2.4H168.6z"/>
	<path class="st1" d="M179.5,88.8h-5.1l2.8-13.2h4.6c3.2,0,5.2,2.2,5.2,5.4C187,85.3,183.8,88.8,179.5,88.8z M181.5,78.8h-1.3
		l-1.5,6.9h0.9c2.4,0,3.8-2.6,3.8-4.7C183.4,79.7,182.8,78.8,181.5,78.8z"/>
	<path class="st0" d="M112.7,102.3l-1.2,2.3h-3.2l1.2-2.3h-1.4l0.5-2.5h2.2l0.9-1.9h-1.5l0.5-2.5h2.2l0.9-1.7h3.3l-0.9,1.7h1.3
		l0.9-1.7h3.2l-0.9,1.7h1.4l-0.5,2.5h-2.1l-0.9,1.9h1.4l-0.5,2.5h-2.2l-1.2,2.3h-3.2l1.2-2.3H112.7z M114.9,97.9l-1,1.9h1.3l0.9-1.9
		H114.9z"/>
	<path class="st0" d="M125.6,105.8h-3.6l2.8-13.2h3.6L125.6,105.8z"/>
	<path class="st0" d="M134.9,102.6h3.3l-0.7,3.2h-10.1l6.7-6.3c1.1-1.1,2-1.9,2-2.8c0-0.6-0.5-1-1.2-1c-1.2,0-1.8,0.8-2,1.9h-3.6
		c0.5-3,2.7-5.1,6.1-5.1c2.2,0,4.3,1.5,4.3,3.9C139.6,99.1,136.9,101,134.9,102.6z"/>
	<path class="st1" d="M154,96.5c-0.8-0.6-1.5-1-2.2-1c-0.8,0-1.3,0.3-1.3,1c0,1.3,4.9,2.1,4.9,5.3c0,3-2.5,4.2-5.2,4.2
		c-2.3,0-4.1-1.1-5.4-2.7l2.8-1.9c0.6,0.7,1.6,1.6,2.6,1.6c0.8,0,1.5-0.3,1.5-1.1c0-1.4-4.9-2.2-4.9-5.4c0-2.9,2.6-4,4.9-4
		c2.1,0,3.9,1,5,2.2L154,96.5z"/>
	<path class="st1" d="M167.4,95.8h-5l-0.4,1.9h3.5l-0.6,2.8h-3.5l-0.5,2.2h5.7l-0.7,3.2h-9.3l2.8-13.2h8.6L167.4,95.8z"/>
	<path class="st1" d="M179,105.8h-3.2l-3.1-7l-1.5,7h-3.6l2.8-13.2h3.2l3.1,7.1l1.5-7.1h3.6L179,105.8z"/>
	<path class="st1" d="M185.4,105.8h-3.6l2.8-13.2h3.6L185.4,105.8z"/>
	<path class="st1" d="M194.2,105.9c-3.4,0-5.4-2.4-5.4-5.7c0-3.9,3-7.8,7-7.8c3.4,0,5.4,2.3,5.4,5.6
		C201.3,102,198.3,105.9,194.2,105.9z M195.8,95.6c-2.1,0-3.4,2.8-3.4,4.7c0,1.2,0.5,2.5,1.9,2.5c2.1,0,3.4-2.8,3.4-4.7
		C197.7,96.9,197.2,95.6,195.8,95.6z"/>
	<path class="st1" d="M210.9,100.4l1.8,5.4h-3.9l-1.2-4.8h-1.1l-1,4.8h-3.6l2.8-13.2h4.9c2.4,0,4.1,1.2,4.1,3.4
		C213.7,98.1,212.7,99.8,210.9,100.4z M208.1,98.1c1,0,2-0.3,2-1.5c0-0.5-0.3-0.8-1.1-0.8h-1.3l-0.5,2.4H208.1z"/>
</g>
</svg>
