<?xml version="1.0" encoding="utf-8"?>
<!-- Generator: Adobe Illustrator 19.2.1, SVG Export Plug-In . SVG Version: 6.00 Build 0)  -->
<svg version="1.1" id="Layer_1" xmlns="http://www.w3.org/2000/svg" xmlns:xlink="http://www.w3.org/1999/xlink" x="0px" y="0px"
	 viewBox="0 0 241.2 670.8" style="enable-background:new 0 0 241.2 670.8;" xml:space="preserve">
<style type="text/css">
	.st0{opacity:0.2;fill:#683D53;enable-background:new    ;}
	.st1{fill:#231F20;}
	.st2{font-family:'MinistryW00-Bold';}
	.st3{font-size:14.496px;}
	.st4{font-family:'MinistryW00-Light';}
	.st5{fill:#F99E1F;stroke:#231F20;stroke-width:2;}
	.st6{fill:#19164A;}
	.st7{fill:#FEFEFE;}
	.st8{fill:#FDFDFD;}
	.st9{fill:#FAFBFB;}
	.st10{fill:#F5F6F8;}
	.st11{fill:#DDE0E6;}
	.st12{fill:#CED1DA;}
	.st13{fill:#C5CAD6;}
	.st14{fill:#AAB0C1;}
	.st15{fill:#070708;}
	.st16{fill:#FCFCFC;}
	.st17{fill:#5B5958;}
	.st18{fill:#D2D0D0;}
	.st19{fill:#AE8A39;}
	.st20{fill:#7F642A;}
	.st21{fill:#342815;}
	.st22{fill:#513F1B;}
	.st23{fill:#C5AC6E;}
	.st24{fill:#EEE7D4;}
	.st25{fill:#C4A96A;}
	.st26{fill:#E3D8B9;}
	.st27{fill:#ECE4CE;}
	.st28{fill:#CAB377;}
	.st29{fill:#CCB57C;}
	.st30{fill:#FFFFFF;stroke:#000000;stroke-width:0.5;}
	.st31{fill:#A81F23;stroke:#000000;stroke-width:2;}
	.st32{fill:#FFFFFF;stroke:#231F20;stroke-width:2;}
	.st33{fill:#F3DAE2;}
	.st34{fill:#B41F40;}
	.st35{fill:#B42139;}
	.st36{fill:#B52141;}
	.st37{fill:#B6283F;}
	.st38{fill:#B5213E;}
	.st39{fill:#B5213C;}
	.st40{fill:#B5213B;}
	.st41{fill:#B42138;}
	.st42{fill:#B6243D;}
	.st43{fill:#B6243B;}
	.st44{fill:#B4213A;}
	.st45{fill:#B4213F;}
	.st46{fill:#C5C5C9;}
	.st47{fill:#183863;}
	.st48{fill:#1B3863;}
	.st49{fill:#1B3963;}
	.st50{fill:#1D3963;}
	.st51{fill:#193864;}
	.st52{fill:#4B5F80;}
	.st53{fill:#AEB3BE;}
	.st54{fill:#C1C4C3;}
	.st55{fill:#C12637;}
	.st56{fill:#C2C5CA;}
	.st57{fill:#C3C4C8;}
	.st58{fill:#AF273B;}
	.st59{fill:#BD2638;}
	.st60{fill:#B0273C;}
	.st61{fill:#1B355D;}
	.st62{fill:#B2B8BD;}
	.st63{fill:#1A355E;}
	.st64{fill:#BEC1C5;}
	.st65{fill:#19355F;}
	.st66{fill:#1B345C;}
	.st67{fill:#1A355D;}
	.st68{fill:#1B345D;}
	.st69{fill:#294169;}
	.st70{fill:#1D3660;}
	.st71{fill:#1B355E;}
	.st72{fill:#1C345C;}
	.st73{fill:#29325A;}
	.st74{fill:#728298;}
	.st75{fill:#762C4E;}
	.st76{fill:#1C355F;}
	.st77{fill:#1A3862;}
	.st78{fill:#2C466E;}
	.st79{fill:none;}
	.st80{fill:#EF5423;}
	.st81{fill:#12331B;}
	.st82{fill:#A0B5A1;}
	.st83{fill:#AFC3B0;}
	.st84{fill:#608168;}
	.st85{fill:#FACEB7;}
	.st86{fill:#242358;}
	.st87{fill:#003976;}
	.st88{fill:#6ACFF6;}
	.st89{font-size:30.0458px;}
</style>
<rect x="0.2" y="607.4" class="st0" width="240.8" height="63.4"/>
<rect x="0.2" y="84.1" class="st0" width="240.8" height="65.2"/>
<rect x="0.2" y="346.8" class="st0" width="240.8" height="65.2"/>
<text transform="matrix(1 0 0 1 99.5098 432.5293)" class="st1 st2 st3">Jan. 7 </text>
<text transform="matrix(1 0 0 1 99.5098 449.9293)" class="st1 st4 st3">Princeton </text>
<text transform="matrix(1 0 0 1 99.5098 467.3293)" class="st1 st4 st3">Princeton, N.J.</text>
<g>
	<path class="st5" d="M79.1,432.3c0,0,1-9.2-11.9-12.9c0,0-2.7-0.5-3.7-0.5c0,0,0.8,0.1-7.7,0.1s-16.2,0.2-16.2,0.2v9h5V457h-5v9.2
		h22.3V457H57v-9.4c0,0,11.3,0.7,13.9-1.6C70.8,446,79.9,442.3,79.1,432.3z M67.8,434.4c-0.6,4-5.4,3.9-5.4,3.9h-5.6v-10.1
		c0,0,0,0,4.6,0l2.8,0.4C69.1,430.5,67.8,434.4,67.8,434.4z"/>
	<path class="st1" d="M78.8,434.9c0.1-0.9,0.1-2,0-2.8c0,0-6.3-9.5-13.2-12.1c0,0,11,12.5,12.7,17.5
		C78.3,437.6,78.7,436.4,78.8,434.9z"/>
	<path class="st1" d="M60.9,447.7c0,0-11-11.9-14.4-13.6c0,0,10,12.4,10.1,13.5L60.9,447.7z"/>
	<path class="st1" d="M44.4,438.6c0,0,10.1,13.7,11.1,18.3c0,0-8.9-10.1-11.2-12.2L44.4,438.6z"/>
	<path class="st1" d="M60,466.3c0,0-9.7-10.4-15.7-14.3l-0.1,2.8c0,0,8.8,9,9.4,11.5H60z"/>
	<path class="st1" d="M40.6,457.2l-1.3-0.2l-0.1,3.8c0,0,4.6,4.5,5.4,5.5h1.9C46.5,466.3,42.3,457.8,40.6,457.2z"/>
	<path class="st1" d="M42.9,419.1l-3.6,0.1l-0.1,4.9c0,0,8.7,5.3,17.2,12.6v-5.2C52.5,426.6,47.8,421.7,42.9,419.1z M61.4,438.4h-3
		c3,2.8,5.9,5.7,8.3,8.8C66.7,447.2,64.7,443.4,61.4,438.4z"/>
	<path class="st1" d="M54.6,419H49c0,0,4.4,4.1,9.4,9.1c0.7,0,1.5,0,2.7,0l2.8,0.4c5,2,3.6,5.9,3.6,5.9c-0.1,0.9-0.5,1.6-1,2.2
		c3.2,3.5,5.7,6.5,6.3,8.1c0.3-0.3,3.6-2.7,4.6-5.1C77.5,439.7,67.8,424.5,54.6,419z"/>
</g>
<rect x="0.2" y="477.3" class="st0" width="240.8" height="65.2"/>
<text transform="matrix(1 0 0 1 99.5098 560.6875)" class="st1 st2 st3">Feb. 18 </text>
<text transform="matrix(1 0 0 1 99.5098 578.0875)" class="st1 st4 st3">Yale </text>
<text transform="matrix(1 0 0 1 99.5098 595.4875)" class="st1 st4 st3">New Haven, Conn.</text>
<g id="_x38_oCaEN.tif">
	<g>
		<path class="st6" d="M59.6,594.7c-4.2,0-8.3,0-12.5,0c-0.2,0-0.3,0-0.3-0.3c0-2.3,0-4.6,0-6.9c0-0.2,0-0.2,0.2-0.2
			c2.2,0,4.4,0,6.6,0c0.3,0,0.3,0,0.4-0.4c0-0.5,0-1,0-1.5c0-0.2,0.1-0.3,0.3-0.3c1.1,0,2.1-0.4,3-0.9c0.2-0.1,0.3-0.1,0.5-0.1
			c2.1,0.5,4.2,0.6,6.4,0.3c0.2,0,0.2,0.1,0.2,0.2c0,0.9,0,1.7,0,2.6c0,0.2,0.1,0.2,0.2,0.2c2.4,0,4.8,0,7.2,0c0.1,0,0.1,0,0.2,0
			c0.2,0,0.3,0.1,0.3,0.3c0,2.2,0,4.5,0,6.7c0,0.2-0.1,0.3-0.3,0.3C68,594.7,63.8,594.7,59.6,594.7z"/>
		<path class="st6" d="M48.8,566.4c-0.2-0.1-0.4-0.2-0.6-0.4c-0.2-0.2-0.2-0.3,0-0.5c0.9-0.7,1.8-1.4,2.6-2.3
			c0.5-0.6,0.9-1.2,1.2-1.8c0.1-0.1,0.2-0.2,0.3-0.3c0.7-0.2,1.2,0,1.8,0.3c0.5,0.3,0.9,0.7,1.5,0.9c0.3,0.1,0.7,0.4,1.1,0.4
			c0.2,0,0.3,0,0.5-0.1c1.3-0.6,2.7-0.8,4.1-0.7c1.3,0.1,2.4,0.5,3.4,1.3c0.3,0.2,0.4,0.4,0.6,0.7s0.3,0.6,0.5,0.8
			c0.2,0.3,0.5,0.4,0.8,0.4c0.7,0,1.2,0.8,1.1,1.4c0,0.2-0.1,0.3-0.1,0.5s0,0.3,0.3,0.4c0.1,0,0.3,0,0.4,0c0.8-0.2,1.6,0.2,1.9,0.9
			c0.2,0.5,0.3,1,0.4,1.5c0.1,0.2,0.2,0.4,0.3,0.6c0.2,0.2,0.2,0.4,0.2,0.6c0,0.2,0,0.3,0,0.5c0.1,0.2,0.1,0.2,0.3,0.1
			c0.3-0.2,0.5-0.5,0.6-0.8c0.1-0.2,0.2-0.4,0.3-0.6c0.1-0.1,0.2-0.2,0.3,0c0.5,0.4,0.7,1,0.8,1.6c0,0.2,0.1,0.3,0.1,0.5
			s0.2,0.3,0.4,0.3c0.4,0,0.4,0,0.4,0.4c-0.1,1.6-0.5,3-1.3,4.4c-1.1,1.9-2.6,3.4-4.4,4.6c-1.4,1-3,1.5-4.7,1.8s-3.5,0.3-5.2-0.2
			c-0.1,0-0.3-0.1-0.4-0.1c-0.3-0.2-0.6-0.1-0.9,0.1c-1.4,0.9-3,1.1-4.6,0.9c-1.3-0.1-2.3-0.8-3.2-1.7c-0.9-1-1.1-2.3-1.2-3.6
			c0-0.7,0-1.4,0.3-2c0.1-0.1,0-0.2-0.1-0.3c-1.2-1.8-2.5-3.6-3.7-5.4c-0.3-0.5-0.7-1-1-1.6c-0.1-0.1-0.1-0.2,0-0.3
			c0.2-0.5,0.6-0.9,1.1-1.2c1-0.7,2.1-1.2,3.2-1.5C48.4,566.6,48.6,566.5,48.8,566.4z"/>
		<path class="st6" d="M70.6,567.4c-0.2-0.4-0.5-0.6-0.9-0.6c-0.3,0-0.6-0.1-0.8-0.1c-0.6-0.1-0.8-0.4-0.6-0.9
			c0.1-0.2,0-0.3-0.1-0.4c-0.4-0.4-0.8-0.7-1.3-0.9c-0.2-0.1-0.4-0.2-0.5-0.3c-0.2-0.3-0.5-0.5-0.6-0.9c-0.1-0.2-0.1-0.3,0-0.5
			c0.9-1.4,1.7-2.7,2.6-4.1c0.2-0.3,0.4-0.6,0.6-0.9c-0.1,0-0.2,0-0.3,0c-1.4,0-2.9,0-4.3,0c-0.2,0-0.3,0-0.3-0.2c0-1.9,0-3.8,0-5.7
			c0-0.3,0.1-0.3,0.3-0.3c6,0,12,0,18,0c0.2,0,0.2,0.1,0.2,0.2c0,1.9,0,3.9,0,5.8c0,0.2,0,0.2-0.2,0.2c-1.5,0-3.1,0-4.6,0
			c-0.2,0-0.3,0.1-0.3,0.2c-0.8,1.2-1.7,2.4-2.6,3.6c-1.4,1.9-2.7,3.9-4.1,5.8C70.6,567.3,70.6,567.4,70.6,567.4z"/>
		<path class="st6" d="M45,551.5c2.8,0,5.6,0,8.4,0c0.3,0,0.3,0,0.3,0.3c0,1.9,0,3.7,0,5.6c0,0.3-0.1,0.3-0.3,0.3
			c-1.2,0-2.4,0-3.7,0c-0.2,0-0.3,0.1-0.2,0.3c0.2,0.6,0.6,1.1,0.9,1.6c0.2,0.3,0.4,0.6,0.6,0.9c0.1,0.2,0.1,0.4,0,0.6
			c-0.4,0.9-0.9,1.7-1.7,2.4c-0.7,0.7-1.5,1.3-2.4,1.9c-0.2,0.1-0.3,0.1-0.4-0.1c-1.2-1.7-2.3-3.3-3.5-4.9c-0.6-0.8-1.2-1.7-1.8-2.5
			c-0.1-0.1-0.2-0.1-0.3-0.1c-1.5,0-3.1,0-4.6,0c-0.2,0-0.3-0.1-0.3-0.3c0-1.9,0-3.7,0-5.6c0-0.3,0.1-0.4,0.4-0.4c0.1,0,0.1,0,0.2,0
			C39.5,551.5,42.3,551.5,45,551.5z"/>
		<path class="st6" d="M73.3,549.6c3.7,0,7.4,0,11,0c0.4,0,0.4,0,0.4,0.4c0,3.1,0,6.2,0,9.3c0,0.2,0,0.3-0.3,0.3c-1.9,0-3.8,0-5.6,0
			c-0.2,0-0.3,0-0.4,0.2c-1.2,1.7-2.4,3.4-3.6,5.1c-1.1,1.5-2.2,3.1-3.3,4.6c-0.1,0.1-0.1,0.1-0.2,0c-0.3-0.4-0.4-0.8-0.1-1.2
			c1.1-1.6,2.2-3.2,3.3-4.7c1.2-1.6,2.3-3.2,3.4-4.7c0.1-0.1,0.2-0.2,0.3-0.2c1.7,0,3.4,0,5.1,0c0.3,0,0.3,0,0.3-0.3
			c0-2.5,0-5,0-7.5c0-0.2,0-0.3-0.3-0.3c-6.7,0-13.4,0-20.1,0c-0.2,0-0.3,0.1-0.3,0.3c0,2.5,0,5.1,0,7.6c0,0.2,0.1,0.3,0.3,0.3
			c1.2,0,2.4,0,3.5,0c0.2,0,0.3,0.1,0.2,0.3c-0.7,1-1.3,2.1-2,3.1c-0.1,0.1-0.2,0.2-0.3,0.1c-0.7-0.1-0.8-0.3-0.4-0.9
			c0.3-0.5,0.6-0.9,0.9-1.4c0-0.1,0.1-0.1,0.1-0.2c-0.1-0.1-0.1-0.1-0.3-0.1c-0.3,0-0.6,0-0.9,0c-0.6,0-1.2,0-1.9,0
			c-0.3,0-0.4-0.1-0.4-0.4c0-3.1,0-6.2,0-9.4c0-0.2,0.1-0.2,0.2-0.2C65.8,549.6,69.6,549.6,73.3,549.6z"/>
		<path class="st6" d="M59.6,596.6c-4.8,0-9.6,0-14.5,0c-0.2,0-0.3-0.1-0.3-0.3c0-3.5,0-7,0-10.5c0-0.2,0.1-0.3,0.3-0.3
			c2.2,0,4.4,0,6.6,0c0.2,0,0.3,0,0.3-0.2c0-0.1,0.2-0.2,0.3-0.2s0.3,0,0.4,0c0.3,0,0.4,0.1,0.4,0.5c0,0.2-0.1,0.5-0.1,0.7
			c0,0.1-0.1,0.1-0.2,0.1c-0.9,0-1.7,0-2.6,0c-1.4,0-2.8,0-4.1,0c-0.3,0-0.3,0.1-0.3,0.3c0,0.8,0,1.7,0,2.5c0,2,0,4,0,6.1
			c0,0.3,0.1,0.4,0.4,0.4c9,0,18,0,27.1,0c0.2,0,0.3,0,0.3-0.3c0-2.9,0-5.7,0-8.6c0-0.2-0.1-0.3-0.3-0.3c-2.4,0-4.9,0-7.3,0
			c-0.2,0-0.3-0.1-0.3-0.3c0-0.6,0-1.3,0-1.9c0-0.2,0.1-0.3,0.2-0.3s0.3-0.1,0.4-0.1c0.3-0.1,0.3-0.1,0.3,0.3c0,0.3,0,0.5,0,0.8
			c0,0.1,0,0.2,0,0.4c0.1,0.2,0.2,0.3,0.4,0.3c2.3,0,4.7,0,7,0c0.2,0,0.3,0,0.3,0.3c0,3.5,0,7,0,10.4c0,0.2-0.1,0.3-0.3,0.3
			C69.2,596.6,64.4,596.6,59.6,596.6z"/>
		<path class="st6" d="M51.2,558.6c0.6,0,1.2,0,1.7,0s1.1,0,1.6,0c0.2,0,0.2,0,0.2-0.2c0-2.6,0-5.1,0-7.7c0-0.2-0.1-0.2-0.3-0.2
			c-3.8,0-7.5,0-11.3,0c-2.6,0-5.2,0-7.9,0c-0.2,0-0.3,0.1-0.3,0.3c0,2.6,0,5.1,0,7.7c0,0.2,0.1,0.2,0.3,0.2c1.7,0,3.4,0,5.2,0
			c0.2,0,0.3,0.1,0.4,0.2c0.7,0.9,1.3,1.9,2,2.8c1.1,1.5,2.1,3,3.1,4.5c0.1,0.2,0.2,0.3-0.1,0.3c-0.2,0.1-0.3,0.3-0.5,0.2
			c-0.1-0.1-0.2-0.3-0.3-0.4c-0.6-0.9-1.3-1.9-1.9-2.7c-0.9-1.2-1.8-2.5-2.7-3.8c-0.1-0.2-0.3-0.2-0.5-0.2c-1.9,0-3.7,0-5.6,0
			c-0.2,0-0.3-0.1-0.3-0.3c0-3.2,0-6.3,0-9.5c0-0.3,0-0.3,0.4-0.3c3,0,6.1,0,9.1,0c3.9,0,7.9,0,11.8,0c0.4,0,0.3,0,0.3,0.3
			c0,3.1,0,6.3,0,9.4c0,0.2-0.1,0.3-0.3,0.3c-0.7,0-1.4,0-2.2,0c-0.1,0-0.2,0-0.2,0.1s0,0.2,0.1,0.2c0.2,0.3,0.2,0.3-0.2,0.4
			c-0.5,0-0.8-0.2-1.1-0.6C51.6,559.4,51.4,559,51.2,558.6z"/>
		<path class="st7" d="M49.2,567.7c-0.2,0.7-0.2,1.4-0.1,2.1c0.1,0.6,0.4,1.1,0.9,1.5c0.2,0.1,0.2,0.1,0.3-0.1c0-0.2,0-0.3,0-0.5
			c-0.1-0.3-0.1-0.6-0.1-0.9c0.3-2,1.4-3.4,3.2-4.2c0.5-0.2,1-0.4,1.5-0.5c0.1,0,0.3,0,0.4-0.1c0.1,0,0.2-0.1,0.2-0.2
			c0-0.1-0.1-0.1-0.1-0.2c-0.5-0.4-1.1-0.8-1.7-1.1c-0.1-0.1-0.2-0.1-0.3,0.1c-0.4,0.5-0.7,1-1.1,1.4c-0.2,0.2-0.4,0.3-0.6,0.5
			c-0.4,0.3-1.4,0.2-1.8-0.1c-0.1-0.1-0.2-0.1,0-0.3c0.9-0.9,1.7-1.8,2.5-2.8c0-0.1,0.1-0.1,0.1-0.2c0.3-0.4,0.3-0.4,0.8-0.2
			s1,0.5,1.5,0.8c0.2,0.1,0.4,0.2,0.6,0.4c0.4,0.3,0.9,0.3,1.4,0.2c0.2-0.1,0.5-0.2,0.7-0.3c0.7-0.3,1.4-0.4,2.1-0.5
			c0.7-0.1,1.4-0.1,2.1,0c0.7,0.1,1.2,0.3,1.7,0.8c0.4,0.4,0.3,0.9-0.1,1.2c-0.2,0.1-0.4,0.2-0.6,0.3c-0.1,0-0.2,0.1-0.2,0.2
			c0,0.1,0.1,0.2,0.3,0.2c1.1,0.1,2.1,0.2,3.2,0.4c0.3,0,0.5,0.2,0.5,0.4c0.1,0.3,0,0.6-0.2,0.8c-0.1,0.1-0.1,0.1-0.2,0.1
			c-1.6-0.1-3.2-0.1-4.9-0.2c-0.2,0-0.4,0-0.5,0.2c-0.1,0.1-0.1,0.2-0.2,0.2c-0.4,0.3-0.4,0.7-0.2,1.2c0.1,0.4,0.4,0.8,0.9,0.8
			s1,0.2,1.6,0.1c0.1,0,0.2,0,0.2,0.1c0,0.3-0.1,0.6-0.2,0.9c-0.3,0.4-0.7,0.6-1.1,0.8c-0.3,0.1-0.6,0.2-0.8,0.4
			c0.3,0.2,0.6,0.2,0.9,0.1c0.8-0.1,1.5-0.5,2.2-0.9c0.8-0.4,1.5-0.9,2.3-1.2c0.9-0.4,1.8-0.5,2.8-0.2c0.6,0.2,0.8,0.5,0.9,1.1
			c0.1,1-0.4,1.9-1.3,2.1c-0.4,0.1-0.8,0.2-1.1,0.2c-0.6,0-1.1,0-1.7,0c-1.1,0-2,0.3-2.8,1.1s-1.6,1.7-2.3,2.7
			c-0.7,0.9-1.4,1.8-2.2,2.5c-0.7,0.6-1.5,1.2-2.4,1.6c-1.2,0.5-2.5,0.6-3.7,0.1c-0.9-0.4-1.4-1.1-1.8-1.9c-0.5-1.1-0.2-2.1,0.4-3
			c0.4-0.6,0.8-1.2,1.3-1.9c0.1-0.2,0.3-0.5,0.3-0.7c0-0.1,0-0.2,0-0.4c-0.1-0.1-0.1-0.2-0.2-0.2c-0.1,0-0.2,0.1-0.2,0.2
			c-0.2,0.6-0.7,1-1.2,1.4s-1,0.8-1.5,1.3c-0.1,0.1-0.1,0-0.2,0c-0.4-0.5-0.7-1.1-1.1-1.6c-0.9-1.3-1.7-2.6-2.6-3.8
			c-0.2-0.2-0.1-0.4,0-0.7c0.1-0.1,0.2-0.2,0.3-0.3c0.8-0.6,1.7-1,2.7-1.3c0.2-0.1,0.4-0.1,0.6-0.2
			C49.3,567.5,49.2,567.6,49.2,567.7z"/>
		<path class="st7" d="M58.9,582.5c1.2-1.4,2.1-3.1,3.1-4.7c0.5-0.9,1-1.9,1.6-2.8c0.4-0.6,1-1,1.6-1.3c1.1-0.5,2.3-0.5,3.5-0.5
			c1.1,0,2.3,0.1,3.4,0.1c0.1,0,0.3,0,0.4,0c0.4,0,0.4,0,0.3,0.4c-0.2,1.4-0.8,2.6-1.6,3.8c-0.7,1-1.6,2-2.6,2.6
			c-1.4,1-3,1.7-4.8,1.6c-1,0-1.9-0.2-2.8-0.5c-0.2-0.1-0.3,0-0.4,0.1c-0.4,0.5-0.9,0.9-1.4,1.2C59.1,582.5,59,582.5,58.9,582.5z"/>
		<path class="st7" d="M64.9,567.7c-0.4,0.2-0.7,0.4-1,0.6c-0.2,0.1-0.3,0.2-0.5,0.3c-0.4,0.2-0.8,0.1-1-0.3
			c-0.1-0.2-0.1-0.3,0.1-0.5c0.2-0.2,0.5-0.2,0.8-0.2C63.7,567.6,64.3,567.6,64.9,567.7z"/>
		<path class="st8" d="M71.1,572.4c0.5-0.3,0.9-0.8,1.2-1.3c0.1-0.1,0.1-0.1,0.2,0c0,0.1,0.1,0.2,0.1,0.2c0,0.2,0,0.5,0,0.7
			s-0.1,0.3-0.3,0.3C71.9,572.5,71.5,572.5,71.1,572.4z"/>
		<path class="st9" d="M66.7,568.6c-0.1,0-0.1,0-0.2,0s-0.1,0-0.1-0.1c0.1-0.3,0.5-0.5,0.8-0.5c0.2,0,0.2,0,0.1,0.2
			C67.2,568.5,67.1,568.6,66.7,568.6z"/>
		<path class="st10" d="M65.9,568c-0.5,0.5-1,0.7-1.6,0.7C64.8,568.4,65.3,568.2,65.9,568C65.9,567.9,65.9,567.9,65.9,568z"/>
		<path class="st11" d="M61.5,568.4L61.5,568.4C61.5,568.5,61.5,568.5,61.5,568.4c-0.1-0.1-0.2-0.3-0.1-0.5c0.1-0.2,0.1-0.3,0.3-0.4
			c-0.1,0.2-0.1,0.3-0.2,0.4C61.5,568.1,61.5,568.2,61.5,568.4z"/>
		<path class="st12" d="M61.5,568.4c-0.1-0.1-0.1-0.3,0-0.4C61.5,568.1,61.5,568.2,61.5,568.4z"/>
		<path class="st13" d="M65.9,568C65.9,568,65.8,568,65.9,568C65.9,567.9,65.9,567.8,65.9,568C66,567.9,66,568,65.9,568z"/>
		<path class="st14" d="M49.2,567.7c0-0.1,0-0.1-0.1-0.2c0,0,0.1-0.1,0.1,0C49.3,567.6,49.2,567.7,49.2,567.7z"/>
		<path class="st6" d="M60.4,565.9C60.4,565.9,60.5,565.9,60.4,565.9c0.1,0,0.2,0,0.2,0c0,0.1-0.1,0.1-0.1,0.1
			c-0.4,0.3-0.7,0.7-0.8,1.3c0,0.2-0.1,0.3-0.1,0.5c0,0.3,0,0.5,0.3,0.7c0.1,0.1,0.1,0.2,0.2,0.3c0,0.1,0.1,0.1,0.1,0.2
			c0,0.1-0.2,0.1-0.3,0.1c-0.4-0.1-0.7-0.2-1-0.5c-0.2-0.1-0.3-0.3-0.4-0.5c-0.3-0.4-0.3-0.7,0-1.1C59,566.2,59.6,566,60.4,565.9z"
			/>
	</g>
</g>
<text transform="matrix(1 0 0 1 98.7604 366.1115)" class="st1 st2 st3">Dec. 12 </text>
<text transform="matrix(1 0 0 1 98.7604 383.5115)" class="st1 st4 st3">Central Florida </text>
<text transform="matrix(1 0 0 1 98.7604 400.9115)" class="st1 st4 st3">Orlando, Fla.</text>
<g id="cJ3x2n.tif">
	<g>
		<path class="st15" d="M32.4,369.7c0.2-0.9,0.4-1.9,0.6-2.8c0.5-2.2,1-4.5,1.5-6.7c0.3-1.3,0.6-2.7,0.9-4c0-0.1,0-0.2-0.1-0.2l0,0
			l-0.1-0.1l0,0c-0.1-0.1-0.2-0.1-0.2-0.2c0,0-0.1,0-0.1-0.1c-0.1,0-0.1-0.1-0.2-0.1l0,0c-0.1,0-0.1-0.1-0.2-0.2l-0.1-0.1
			c-0.1-0.1-0.2-0.2-0.3-0.2c-0.1-0.1-0.2-0.1-0.2-0.2c-0.1-0.1-0.1-0.2-0.2-0.2c0,0,0,0-0.1-0.1s-0.2-0.2-0.3-0.3l0,0l-0.1-0.1l0,0
			c-0.1-0.1-0.2-0.2-0.3-0.2c0,0-0.1,0-0.1-0.1l-0.1-0.1l0,0c-0.1,0-0.1-0.1-0.2-0.2l0,0c-0.1,0-0.1-0.1-0.2-0.1l0,0
			c-0.1-0.1-0.1-0.1-0.2-0.2c0,0-0.1,0-0.1-0.1c-0.1,0-0.1-0.1-0.2-0.1l0,0c-0.1,0-0.1-0.1-0.2-0.2c-0.1,0-0.1-0.1-0.2-0.1
			c-0.1-0.1-0.2-0.1-0.3-0.2c-0.1-0.1-0.1-0.1-0.2-0.2s-0.2-0.1-0.2-0.2c0,0,0,0-0.1-0.1s-0.2-0.2-0.3-0.3c-0.1,0-0.1-0.1-0.2-0.1
			c-0.1-0.1-0.2-0.2-0.3-0.2c0,0,0,0-0.1-0.1s-0.2-0.2-0.3-0.3l0,0l-0.1-0.1l0,0c-0.1-0.1-0.2-0.1-0.2-0.2c0,0-0.1,0-0.1-0.1
			l-0.1-0.1c0-0.1,0-0.1,0-0.1H29c10.8,0,21.6,0,32.4,0c0.1,0,0.2-0.1,0.2,0.1c-0.1,0.4-0.2,0.8-0.3,1.2c-0.3,1.4-0.6,2.8-1,4.3
			c-0.3,1.5-0.7,3.1-1,4.6c0,0.1,0,0.2-0.1,0.3c0,0.1,0,0,0.1,0s0.1-0.1,0.2-0.1c0.1-0.1,0.1,0,0.2,0c3.2,0,6.3,0,9.5,0
			c0.1,0,0.2,0,0.3,0.1c0.1,0,0.1,0.1,0.1,0.1c0.1,0.1,0.2,0.2,0.3,0.2c0.1,0,0.1,0.1,0.2,0.1l0,0l0.1,0.1c0.1,0.1,0.2,0.2,0.3,0.3
			c0.1,0,0.1,0.1,0.1,0.1c0.1,0.1,0.2,0.2,0.3,0.3c0.1,0,0.1,0.1,0.1,0.1c0.1,0.1,0.2,0.2,0.3,0.2c0.1,0,0.1,0.1,0.1,0.1
			c0.4,0.3,0.8,0.6,1.2,0.9c0.1,0,0.1,0.1,0.1,0.1c0.1,0.1,0.2,0.2,0.3,0.2c0.1,0,0.1,0.1,0.1,0.1l0,0l0.1,0.1
			c0.1,0.1,0.2,0.2,0.3,0.3c0.1,0,0.1,0.1,0.1,0.1c0.1,0.1,0.2,0.2,0.3,0.3c0.1,0,0.1,0.1,0.1,0.1c0.1,0.1,0.2,0.2,0.3,0.2
			c0.1,0,0.1,0.1,0.1,0.1c0.1,0.1,0.2,0.2,0.3,0.2c0.1,0,0.1,0.1,0.1,0.1c0.2,0.1,0.3,0.2,0.5,0.3c0.1,0,0.1,0.1,0.1,0.1
			c0.1,0.1,0.1,0.1,0.2,0.2s0.2,0.1,0.2,0.2l0.1,0.1c-0.2,0.8-0.4,1.5-0.5,2.3c-0.1,0.6-0.3,1.2-0.4,1.8v0.1v0.1
			c-0.1,0.4-0.2,0.8-0.3,1.2c-0.1,0.5-0.2,0.9-0.3,1.4v0.1c0.1,0,0.1,0,0.2,0c5.4,0,10.8,0,16.2,0c0.1,0,0.1,0,0.2,0
			c-0.1,0.3-0.2,0.6-0.2,0.9c-0.2,0.8-0.3,1.6-0.5,2.4c-0.2,1-0.4,1.9-0.7,2.9c-0.3,1.2-0.5,2.4-0.8,3.7v0.1c0,0.1-0.1,0.1-0.2,0.1
			c-1,0-1.9,0-2.9,0c-0.1,0-0.1,0-0.2,0c-0.1,0.5-0.2,0.9-0.3,1.4c-0.3,1.4-0.6,2.8-0.9,4.2c-0.3,1.4-0.6,2.8-0.9,4.2
			c0,0.1-0.1,0.1-0.2,0.1c-2.8,0-5.5,0-8.3,0c-0.2,0-0.2,0-0.2,0.2c-0.3,1.5-0.7,3-1,4.5s-0.7,2.9-1,4.4c-0.2,0.7-0.3,1.4-0.4,2
			c0,0.1,0,0.1-0.1,0.1c0,0,0,0-0.1,0c-4.1,0-8.2,0-12.3,0h-0.1c0,0,0,0,0-0.1c0.2-0.9,0.4-1.9,0.6-2.8c0.2-1,0.4-1.9,0.6-2.9
			c0.2-1,0.4-2,0.7-3c0.2-1.1,0.5-2.1,0.7-3.2c0-0.2,0.1-0.4,0.1-0.6l0,0c-0.1,0-0.1,0-0.2,0c-3,0-6.1,0-9.1,0c-0.1,0-0.2,0-0.3-0.1
			c-0.1,0-0.1-0.1-0.1-0.1l-0.1-0.1l0,0c-0.1,0-0.1-0.1-0.2-0.2l0,0l-0.1-0.1l0,0c-0.1-0.1-0.2-0.1-0.2-0.2c-0.1,0-0.1-0.1-0.2-0.1
			l-0.1-0.1l0,0c-0.1,0-0.1-0.1-0.1-0.1c-0.1-0.1-0.2-0.1-0.2-0.2c-0.1-0.1-0.2-0.1-0.2-0.2c-0.1,0-0.1-0.1-0.2-0.1
			c-0.1-0.1-0.2-0.1-0.2-0.2l-0.1-0.1l-0.1-0.1l0,0c-0.1,0-0.1-0.1-0.2-0.2c-0.1-0.1-0.1-0.1-0.2-0.2c-0.1-0.1-0.1-0.1-0.2-0.2
			c-0.1,0-0.1-0.1-0.2-0.1l-0.1-0.1l0,0c-0.1,0-0.1-0.1-0.1-0.1l-0.1-0.1l-0.1-0.1l0,0c-0.1,0-0.1-0.1-0.2-0.2
			c-0.1,0-0.1-0.1-0.2-0.1c-0.1-0.1-0.2-0.1-0.2-0.2c-0.1,0-0.1-0.1-0.2-0.1c-0.1-0.1-0.2-0.2-0.4-0.3l0,0l-0.1-0.1l0,0
			c-0.1,0-0.1-0.1-0.2-0.2c-0.1-0.1-0.1-0.1-0.2-0.2c-0.1-0.1-0.2-0.1-0.2-0.2l-0.1-0.1l-0.1-0.1l0,0c-0.1,0-0.1-0.1-0.1-0.1
			c-0.1,0-0.1-0.1-0.1-0.1l-0.1-0.1l0,0c-0.1-0.1,0-0.1,0-0.2c0.4-1.6,0.7-3.3,1.1-4.9c0-0.2,0-0.2-0.1-0.2c-3.2,0-6.3,0-9.5,0
			c-0.2,0-0.3-0.1-0.5-0.2c-1.7-1.4-3.5-2.7-5.2-4.1c-0.4-0.3-0.9-0.7-1.3-1c-0.1-0.1-0.1-0.1-0.1-0.2c0.3-1.6,0.7-3.1,1-4.7
			c0.1-0.4,0.2-0.8,0.3-1.3C32.4,369.8,32.3,369.7,32.4,369.7z"/>
		<path class="st16" d="M61.7,350.3L61.7,350.3c-0.1-0.1-0.2-0.1-0.2-0.1c-5.3,0-10.7,0-16,0c-5.5,0-10.9,0-16.4,0
			c-0.1,0-0.1,0-0.2,0c0,0.1,0.1,0.1,0.1,0.2c0,0,0,0-0.1,0c0,0-0.1-0.1-0.1-0.2s0.1,0,0.2,0c10.9,0,21.7,0,32.6,0
			C61.6,350.2,61.8,350.1,61.7,350.3z"/>
		<path class="st16" d="M91.5,373.3c-0.1,0-0.2,0-0.2,0c-5.4,0-10.8,0-16.2,0c-0.1,0-0.1,0-0.2,0c5.5,0,11,0,16.4,0
			C91.4,373.2,91.5,373.2,91.5,373.3z"/>
		<path class="st16" d="M62.8,392c0.1,0,0,0.1,0,0.1c-0.7,3-1.3,6-2,9.1c-0.2,1.1-0.5,2.2-0.7,3.3c0,0,0,0,0,0.1c-0.1,0,0-0.1,0-0.1
			c0.3-1.3,0.6-2.6,0.9-3.9c0.3-1.5,0.7-3,1-4.5c0.3-1.3,0.6-2.6,0.9-3.9C62.8,392.1,62.8,392,62.8,392z"/>
		<path class="st16" d="M53.2,391.9c0.1,0.1,0.3,0.1,0.4,0.1c3,0,6,0,9,0c0.1,0,0.1,0,0.2,0c-3.1,0-6.3,0-9.4,0l0,0
			C53.3,392,53.2,392,53.2,391.9z"/>
		<path class="st16" d="M86,383.4c0.1-0.1,0.1,0,0.2,0c1,0,1.9,0,2.9,0c0.1,0,0.2,0,0.2,0c0,0.1-0.1,0.1-0.1,0.1
			C88.1,383.4,87,383.4,86,383.4z"/>
		<path class="st16" d="M48.2,387.8c0.1,0.1,0.2,0.2,0.4,0.3C48.4,388.1,48.3,387.9,48.2,387.8z"/>
		<path class="st16" d="M30.3,351.6c0.1,0.1,0.2,0.2,0.3,0.3C30.5,351.8,30.3,351.7,30.3,351.6z"/>
		<path class="st16" d="M29.4,350.8c0.1,0.1,0.2,0.2,0.3,0.3C29.6,351,29.5,351,29.4,350.8z"/>
		<path class="st16" d="M33.2,354.1c0.1,0.1,0.2,0.2,0.3,0.3C33.4,354.3,33.3,354.2,33.2,354.1z"/>
		<path class="st16" d="M32.8,353.7c0.1,0,0.2,0.1,0.3,0.2C32.9,353.9,32.8,353.8,32.8,353.7z"/>
		<path class="st16" d="M34.1,354.8c0.1,0.1,0.2,0.1,0.3,0.2C34.2,355,34.1,354.9,34.1,354.8z"/>
		<path class="st16" d="M31.1,352.3c0.1,0.1,0.2,0.1,0.3,0.2C31.3,352.5,31.1,352.4,31.1,352.3z"/>
		<path class="st16" d="M29.8,351.2c0.1,0,0.2,0.1,0.3,0.2C30,351.4,29.9,351.3,29.8,351.2z"/>
		<path class="st16" d="M48.7,388.2c0.1,0,0.2,0.1,0.2,0.2C48.9,388.4,48.8,388.3,48.7,388.2z"/>
		<path class="st16" d="M32,353c0.1,0,0.2,0.1,0.2,0.2C32.1,353.2,32,353.1,32,353z"/>
		<path class="st16" d="M34.9,355.6c0.1,0,0.2,0.1,0.2,0.2C35,355.7,35,355.7,34.9,355.6z"/>
		<path class="st16" d="M51.4,390.4c0.1,0,0.2,0.1,0.2,0.2C51.5,390.6,51.4,390.5,51.4,390.4z"/>
		<path class="st16" d="M52.3,391.2c0.1,0,0.2,0.1,0.2,0.2C52.4,391.3,52.3,391.3,52.3,391.2z"/>
		<path class="st16" d="M29,350.5c0.1,0,0.2,0.1,0.2,0.2C29.2,350.6,29.1,350.6,29,350.5z"/>
		<path class="st16" d="M50.5,389.7c0.1,0,0.2,0.1,0.2,0.2C50.6,389.8,50.5,389.8,50.5,389.7z"/>
		<path class="st16" d="M30.6,351.9c0.1,0,0.2,0.1,0.2,0.2C30.8,352.1,30.7,352,30.6,351.9z"/>
		<path class="st16" d="M51,390.1c0.1,0,0.2,0.1,0.2,0.2C51.1,390.2,51,390.2,51,390.1z"/>
		<path class="st16" d="M33.6,354.4c0.1,0,0.2,0.1,0.2,0.2C33.7,354.6,33.7,354.5,33.6,354.4z"/>
		<path class="st16" d="M47.4,387.1c0.1,0,0.2,0.1,0.2,0.2C47.5,387.3,47.4,387.2,47.4,387.1z"/>
		<path class="st16" d="M47.8,387.5c0.1,0,0.2,0.1,0.2,0.2C47.9,387.7,47.9,387.6,47.8,387.5z"/>
		<path class="st16" d="M49.1,388.6c0.1,0,0.2,0.1,0.2,0.2C49.3,388.7,49.2,388.7,49.1,388.6z"/>
		<path class="st16" d="M50.1,389.3c0.1,0,0.2,0.1,0.2,0.2C50.2,389.5,50.1,389.4,50.1,389.3z"/>
		<path class="st16" d="M52.7,391.5c0.1,0,0.2,0.1,0.2,0.2C52.8,391.6,52.8,391.6,52.7,391.5z"/>
		<path class="st16" d="M76.4,366c-0.1-0.1-0.1-0.1-0.2-0.2C76.3,365.9,76.4,365.9,76.4,366z"/>
		<path class="st16" d="M32.4,353.4c0.1,0,0.1,0.1,0.2,0.2C32.5,353.5,32.4,353.5,32.4,353.4z"/>
		<path class="st16" d="M34.5,355.2c0.1,0,0.1,0.1,0.2,0.2C34.6,355.3,34.5,355.3,34.5,355.2z"/>
		<path class="st16" d="M31.5,352.7c0.1,0,0.1,0.1,0.2,0.2C31.6,352.8,31.6,352.7,31.5,352.7z"/>
		<path class="st16" d="M70.2,361.2c-0.1,0-0.1-0.1-0.2-0.1C70.1,361.1,70.1,361.1,70.2,361.2z"/>
		<path class="st16" d="M32.2,353.3c0.1,0,0.1,0,0.2,0.1C32.3,353.4,32.3,353.3,32.2,353.3z"/>
		<path class="st16" d="M49.6,389c0.1,0,0.1,0.1,0.1,0.1C49.7,389.1,49.6,389,49.6,389z"/>
		<path class="st16" d="M46.9,386.8c0.1,0,0.1,0.1,0.1,0.1S47,386.9,46.9,386.8z"/>
		<path class="st17" d="M75.5,370.5c0-0.1,0-0.1,0-0.1S75.6,370.5,75.5,370.5z"/>
		<path class="st16" d="M31.7,352.8c0.1,0,0.1,0.1,0.2,0.1C31.8,352.9,31.7,352.9,31.7,352.8z"/>
		<path class="st16" d="M34.7,355.3c0.1,0,0.1,0.1,0.2,0.1C34.7,355.5,34.7,355.4,34.7,355.3z"/>
		<path class="st16" d="M59.6,360.7c0,0.1-0.1,0.1-0.2,0.1C59.5,360.7,59.5,360.7,59.6,360.7z"/>
		<path class="st16" d="M51.9,390.8c0.1,0,0.1,0.1,0.1,0.1C51.9,390.9,51.9,390.9,51.9,390.8z"/>
		<path class="st16" d="M50.7,389.8c0.1,0,0.1,0.1,0.1,0.1S50.7,389.9,50.7,389.8z"/>
		<path class="st16" d="M35.2,355.8c0.1,0,0.1,0.1,0.1,0.1C35.2,355.9,35.2,355.9,35.2,355.8z"/>
		<path class="st16" d="M52,390.9c0.1,0,0.1,0,0.1,0.1C52.1,391,52,391,52,390.9z"/>
		<path class="st16" d="M33.1,354c0.1,0,0.1,0.1,0.1,0.1C33.2,354.1,33.1,354,33.1,354z"/>
		<path class="st16" d="M49.8,389.1c0.1,0,0.1,0,0.1,0.1C49.8,389.2,49.8,389.1,49.8,389.1z"/>
		<path class="st16" d="M52.5,391.3c0.1,0,0.1,0,0.1,0.1S52.6,391.4,52.5,391.3z"/>
		<path class="st16" d="M49.4,388.7c0.1,0,0.1,0.1,0.1,0.1C49.4,388.8,49.4,388.8,49.4,388.7z"/>
		<path class="st16" d="M69.7,360.9l-0.1-0.1C69.6,360.8,69.7,360.8,69.7,360.9z"/>
		<path class="st16" d="M52.9,391.7c0.1,0,0.1,0.1,0.1,0.1C53,391.8,52.9,391.7,52.9,391.7z"/>
		<path class="st16" d="M32.6,353.5c0.1,0,0.1,0.1,0.1,0.1C32.6,353.6,32.6,353.6,32.6,353.5z"/>
		<path class="st16" d="M75.4,365.3l-0.1-0.1C75.3,365.1,75.4,365.2,75.4,365.3z"/>
		<path class="st16" d="M74.9,364.9l-0.1-0.1C74.9,364.8,74.9,364.8,74.9,364.9z"/>
		<path class="st16" d="M74.5,364.6l-0.1-0.1C74.4,364.4,74.5,364.5,74.5,364.6z"/>
		<path class="st16" d="M73.5,363.8c-0.1,0-0.1-0.1-0.1-0.1C73.4,363.7,73.4,363.7,73.5,363.8z"/>
		<path class="st16" d="M73,363.4l-0.1-0.1C73,363.3,73,363.4,73,363.4z"/>
		<path class="st16" d="M71.7,362.4l-0.1-0.1C71.6,362.3,71.6,362.3,71.7,362.4z"/>
		<path class="st16" d="M46.7,386.6c0.1,0,0.1,0.1,0.1,0.1C46.7,386.7,46.7,386.6,46.7,386.6z"/>
		<path class="st16" d="M47.1,386.9c0.1,0,0.1,0.1,0.1,0.1C47.2,387,47.1,387,47.1,386.9z"/>
		<path class="st16" d="M71.2,362l-0.1-0.1L71.2,362z"/>
		<path class="st16" d="M29.3,350.7c0.1,0,0.1,0.1,0.1,0.1C29.4,350.8,29.3,350.8,29.3,350.7z"/>
		<path class="st16" d="M48,387.7c0.1,0,0.1,0.1,0.1,0.1C48.1,387.8,48,387.7,48,387.7z"/>
		<path class="st16" d="M73.6,363.9l-0.1-0.1C73.5,363.8,73.6,363.8,73.6,363.9z"/>
		<path class="st16" d="M74,364.2l-0.1-0.1C74,364.1,74,364.1,74,364.2z"/>
		<path class="st16" d="M70.7,361.7l-0.1-0.1C70.7,361.6,70.7,361.6,70.7,361.7z"/>
		<path class="st16" d="M70.3,361.3l-0.1-0.1C70.2,361.2,70.3,361.3,70.3,361.3z"/>
		<path class="st16" d="M76,365.7l-0.1-0.1C75.9,365.6,76,365.6,76,365.7z"/>
		<path class="st18" d="M32.4,369.7c0,0.1,0,0.1-0.1,0.2C32.3,369.8,32.3,369.7,32.4,369.7z"/>
		<path class="st19" d="M48.6,364.7c0.2-0.8,0.3-1.5,0.5-2.3c0.5-2.4,1.1-4.9,1.6-7.3c0-0.1,0-0.2-0.1-0.2c-0.7-0.6-1.3-1.1-2-1.7
			c-0.2-0.1-0.3-0.3-0.5-0.4c0.1,0,0.1,0,0.2,0c3.4,0,6.8,0,10.3,0c0.1,0,0.2,0,0.2,0.2c-0.5,2.4-1.1,4.8-1.6,7.2
			c-0.4,1.8-0.8,3.7-1.2,5.5c0,0,0,0.1,0,0.2c0.3-0.2,0.5-0.3,0.8-0.5c0.8-0.5,1.7-1,2.5-1.4c0.3-0.2,0.7-0.4,1-0.6
			c0.1,0,0.1,0,0.2,0c2.7,0,5.4,0,8.1,0c0.1,0,0.2,0,0.2,0.1c1,0.8,2,1.5,3,2.3c0.6,0.5,1.2,1,1.9,1.4c0.1,0.1,0.1,0.1,0.1,0.2
			c-0.2,0.9-0.4,1.8-0.6,2.7c-0.2,1-0.4,1.9-0.6,2.9c0,0.1-0.1,0.2-0.2,0.2c-2.4,0-4.8,0-7.1,0c-0.1,0-0.2,0-0.2-0.2
			c0.4-1.5,0.7-3.1,1-4.6c0-0.1,0.1-0.2-0.1-0.2c-2.7,0-5.4,0-8,0c0,0-0.1,0-0.2,0c0.5,0.5,1.1,0.9,1.6,1.4c0,0,0.1,0,0.1,0.1
			c0.3,0.2,0.6,0.5,0.8,0.7c0.1,0.1,0.1,0.1,0.1,0.2c-0.3,1.2-0.6,2.5-0.8,3.7c0,0.1-0.1,0.2-0.1,0.3c-0.1,0,0,0.1-0.1,0.2
			c-0.2,0.8-0.4,1.6-0.5,2.4c-0.5,2.4-1.1,4.8-1.6,7.2c0,0.1,0,0.2,0.2,0.2c1.6,0,3.3,0,4.9,0c0.1,0,0.2,0,0.2-0.2
			c0.4-2,0.9-4,1.3-5.9c0.1-0.2,0.1-0.2,0.3-0.2c1.4,0,2.8,0,4.2,0c0.1,0,0.1,0,0.2,0c-0.9-0.8-1.7-1.5-2.5-2.2c0-0.1,0.1,0,0.1,0
			c7.4,0,14.8,0,22.2,0c0.1,0,0.2,0,0.1,0.2c-0.3,1.5-0.7,3-1,4.4c0,0.2-0.1,0.2-0.2,0.2c-4.9,0-9.7,0-14.6,0c-0.1,0-0.1,0-0.2,0
			c0.1,0.2,0.3,0.3,0.5,0.5c0.6,0.6,1.3,1.1,1.9,1.7c0.1,0.1,0.1,0.1,0.1,0.3c-0.2,0.8-0.4,1.7-0.6,2.5c0,0.2,0,0.2,0.2,0.2
			c0.3,0,0.6,0,1,0c2.4,0,4.8,0,7.3,0c0.2,0,0.2,0,0.2,0.2c-0.3,1.5-0.7,2.9-1,4.4c0,0.2-0.1,0.2-0.3,0.2c-2.7,0-5.5,0-8.2,0
			c-0.2,0-0.2,0.1-0.3,0.2c-0.5,2.4-1.1,4.8-1.6,7.2c-0.3,1.2-0.5,2.4-0.8,3.6c0,0.2-0.1,0.2-0.3,0.2c-2.4,0-4.8,0-7.2,0
			c-0.2,0-0.2,0-0.2-0.2c0.5-2.2,0.9-4.3,1.4-6.5c0.6-2.6,1.1-5.1,1.7-7.7c0,0,0-0.1,0-0.2c-0.2,0.1-0.4,0.2-0.6,0.3
			c-0.9,0.5-1.8,1-2.6,1.6c-0.1,0-0.1,0.1-0.2,0.1c-2.9,0-5.8,0-8.7,0c-0.2,0-0.3-0.2-0.5-0.3c-1.4-1.1-2.7-2.2-4.1-3.3
			c-0.3-0.2-0.3-0.4-0.3-0.7c0.6-2.8,1.3-5.6,1.9-8.4c0,0,0-0.1,0-0.2c-0.2,0.1-0.4,0.2-0.6,0.3c-0.7,0.4-1.4,0.9-2.1,1.3
			c-0.4,0.2-0.8,0.5-1.2,0.7c-0.1,0-0.1,0.1-0.2,0.1c-2.9,0-5.7,0-8.6,0c-0.1,0-0.2,0-0.2-0.1c-1.6-1.2-3.2-2.5-4.7-3.7
			c-0.1-0.1-0.2-0.1-0.1-0.3c0.4-1.9,0.9-3.8,1.3-5.8c0.6-2.6,1.2-5.3,1.8-7.9c0.3-1.5,0.7-3,1-4.5c0.1-0.4,0.2-0.8,0.3-1.3
			c0.1-0.2,0-0.3-0.1-0.4c-0.4-0.3-0.8-0.6-1.1-1c-0.4-0.3-0.8-0.7-1.1-1l-0.1-0.1c0-0.1,0.1-0.1,0.1-0.1c3.4,0,6.9,0,10.3,0
			c0.1,0,0.2,0,0.1,0.2c-0.7,3.1-1.4,6.2-2.1,9.3c-0.3,1.2-0.5,2.5-0.8,3.7c-0.6,2.6-1.2,5.2-1.8,7.9c0,0.1,0,0.2,0.1,0.2
			c1.6,0,3.2,0,4.8,0c0.1,0,0.2-0.1,0.2-0.2c0.5-2.4,1.1-4.9,1.6-7.3c0.1-0.5,0.2-1.1,0.4-1.6C48.5,364.8,48.5,364.8,48.6,364.7z"/>
		<path class="st20" d="M59.3,374.7c0-0.1,0-0.1,0.1-0.2C59.3,374.6,59.4,374.7,59.3,374.7z"/>
		<path class="st21" d="M48.6,364.7c0,0.1,0,0.1-0.1,0.1C48.5,364.8,48.5,364.7,48.6,364.7z"/>
		<path class="st22" d="M59.3,369.6c-0.1,0-0.1,0-0.1-0.1C59.3,369.5,59.3,369.5,59.3,369.6z"/>
		<path class="st7" d="M68.8,377.1c0.1-0.1,0.1,0,0.2,0c6,0,11.9,0,17.9,0c0.2,0,0.2,0,0.2,0.2c-0.1,0.3-0.1,0.5-0.2,0.8
			c0,0.1-0.1,0.1-0.2,0.1h-0.1c-5.3,0-10.5,0-15.8,0c-0.2,0-0.2,0-0.3,0.2c-0.1,0.6-0.2,1.2-0.4,1.8c-0.4,1.6-0.7,3.1-1.1,4.7
			c-0.8,3.6-1.6,7.2-2.4,10.8c-0.4,1.6-0.7,3.2-1.1,4.8c0,0.2-0.1,0.2-0.3,0.2c-0.2,0-0.5,0-0.7,0s-0.2-0.1-0.1-0.2
			c0.1-0.6,0.3-1.3,0.5-1.9c0.4-2,0.9-4,1.3-6c0.9-4.1,1.8-8.1,2.7-12.2c0.2-0.9,0.4-1.7,0.6-2.6c0-0.1,0-0.2-0.1-0.2
			C69.3,377.5,69.1,377.3,68.8,377.1z"/>
		<path class="st7" d="M48.6,369.4c0.1-0.3,0.2-0.7,0.2-1c0.7-3.3,1.5-6.6,2.2-9.9c0.3-1.3,0.6-2.5,0.8-3.8c0-0.1,0-0.2-0.1-0.2
			c-0.2-0.2-0.4-0.4-0.6-0.6c0-0.1,0.1,0,0.2,0c2,0,4,0,6.1,0c0.1,0,0.2,0,0.1,0.2c-0.1,0.3-0.1,0.6-0.2,0.8c0,0.1-0.1,0.2-0.2,0.2
			c-1.3,0-2.7,0-4,0c-0.2,0-0.2,0-0.3,0.2c-0.6,2.6-1.1,5.2-1.7,7.8c-0.4,2-0.9,4-1.3,6.1c-0.4,1.7-0.8,3.4-1.1,5.1c0,0,0,0,0,0.1
			c0,0,0,0.1-0.1,0.1c-0.1,0.6-0.3,1.2-0.4,1.7c0,0.1-0.1,0.1-0.2,0.1c-0.7,0-1.3,0-2,0c-1.6,0-3.3,0-4.9,0c-0.1,0-0.2,0-0.1-0.2
			c0.1-0.3,0.1-0.6,0.2-0.8c0-0.1,0.1-0.2,0.2-0.2c1.9,0,3.8,0,5.7,0c0.2,0,0.3,0,0.3-0.2c0.4-1.7,0.8-3.4,1.1-5.1c0,0,0-0.1,0-0.2
			C48.6,369.5,48.5,369.4,48.6,369.4z"/>
		<path class="st7" d="M53.9,369.8c0.1-0.4,0.2-0.7,0.3-1.1c0-0.2,0.1-0.3,0.1-0.5c0-0.1,0.1-0.2,0.2-0.3c1.6-0.9,3.1-1.8,4.7-2.7
			c0.4-0.2,0.8-0.5,1.2-0.7c0.1,0,0.2-0.1,0.3-0.1c2.5,0,5,0,7.5,0c0.1,0,0.2,0,0.2,0.1c0.4,0.3,0.9,0.7,1.3,1l0,0
			c-0.1,0-0.1,0-0.2,0c-2.9,0-5.7,0-8.6,0c-0.2,0-0.3,0-0.5,0.1c-1.6,0.9-3.2,1.9-4.9,2.8c-0.3,0.2-0.5,0.4-0.6,0.8
			c-0.4,1.8-0.7,3.5-1.2,5.2c-0.4,1.8-0.8,3.6-1.2,5.3c-0.4,1.9-0.8,3.8-1.3,5.6c0,0.2,0,0.2-0.2,0.1c-0.2-0.2-0.4-0.4-0.6-0.5
			c-0.1-0.1-0.1-0.1-0.1-0.2c0.4-1.6,0.7-3.1,1.1-4.7c0.6-2.7,1.2-5.5,1.8-8.2c0.2-0.7,0.3-1.4,0.5-2.1
			C53.9,369.8,53.9,369.8,53.9,369.8z"/>
		<path class="st7" d="M37.8,360.9c0.2-0.9,0.4-1.7,0.6-2.6c0.3-1.2,0.5-2.4,0.8-3.5c0-0.2,0-0.3-0.1-0.4c-0.2-0.2-0.4-0.3-0.6-0.5
			c0.1-0.1,0.1,0,0.2,0c2,0,4,0,6.1,0c0.1,0,0.2,0,0.1,0.2c-0.1,0.3-0.1,0.6-0.2,0.9c0,0.1-0.1,0.1-0.2,0.1c-1.3,0-2.7,0-4,0
			c-0.2,0-0.2,0-0.3,0.2c-0.7,3.1-1.4,6.2-2.1,9.3c-0.1,0.4-0.2,0.8-0.3,1.1c-0.1,0,0,0.1,0,0.1v0.1c-0.4,1.7-0.8,3.4-1.1,5.1
			c-0.3,1.3-0.6,2.6-0.9,3.9c0,0.1-0.1,0.2-0.2,0.1c-0.2-0.2-0.4-0.4-0.7-0.5c-0.1-0.1-0.1-0.1-0.1-0.2c0.4-1.8,0.8-3.6,1.2-5.4
			c0.6-2.6,1.2-5.2,1.7-7.8V361C37.7,361,37.7,360.9,37.8,360.9z"/>
		<path class="st7" d="M64.7,383.5c-0.2,0.7-0.3,1.4-0.5,2.1c-0.1,0.3-0.1,0.6-0.2,0.9c0,0.2-0.1,0.2-0.2,0.2c-2.3,0-4.5,0-6.8,0
			c-0.1,0-0.2,0-0.2,0c-0.1,0-0.1,0-0.1-0.1c0.1-0.3,0.1-0.6,0.2-0.8c0-0.1,0.1-0.2,0.2-0.2c1.9,0,3.9,0,5.8,0c0.2,0,0.2,0,0.3-0.2
			c0.4-2,0.9-3.9,1.3-5.9c0-0.2,0.1-0.2,0.3-0.2c1,0,1.9,0,2.9,0c0.2,0,0.2,0,0.1,0.2c-0.1,0.3-0.1,0.5-0.2,0.8
			c0,0.2-0.1,0.2-0.2,0.2c-0.6,0-1.2,0-1.8,0c-0.2,0-0.2,0.1-0.2,0.2c-0.2,0.9-0.4,1.8-0.6,2.7c0,0,0,0,0,0.1
			C64.7,383.4,64.7,383.5,64.7,383.5z"/>
		<path class="st7" d="M77.6,388.1c-1.2,0-2.4,0-3.6,0c-0.2,0-0.2,0-0.1-0.2c0.1-0.3,0.1-0.6,0.2-0.9c0-0.1,0.1-0.1,0.2-0.1l0,0
			c2.4,0,4.8,0,7.2,0c0.1,0,0.2,0,0.1,0.2c-0.1,0.3-0.1,0.6-0.2,0.8c0,0.1-0.1,0.2-0.2,0.2C80,388.1,78.8,388.1,77.6,388.1z"/>
		<path class="st7" d="M67.6,368.2c0.1,0,0.3,0,0.4,0s0.1,0,0.1,0.1c-0.2,0.8-0.3,1.5-0.5,2.3c-0.1,0.4-0.2,0.9-0.3,1.3
			c0,0.1-0.1,0.1-0.2,0.1c-0.3,0-0.5,0-0.8,0c-0.1,0-0.2,0-0.1-0.2c0.3-1.2,0.5-2.4,0.8-3.6c0-0.1,0.1-0.1,0.2-0.1
			C67.3,368.2,67.5,368.2,67.6,368.2z"/>
		<path class="st23" d="M48.6,369.4c0,0.1,0,0.1-0.1,0.2C48.5,369.5,48.5,369.4,48.6,369.4z"/>
		<path class="st24" d="M37.7,365.9c0-0.1,0-0.1,0.1-0.1C37.8,365.8,37.8,365.8,37.7,365.9L37.7,365.9z"/>
		<path class="st25" d="M37.8,360.9c0,0.1,0,0.1-0.1,0.1C37.7,361,37.7,360.9,37.8,360.9z"/>
		<path class="st26" d="M48.5,374.4c0-0.1,0-0.1,0.1-0.1C48.6,374.3,48.6,374.4,48.5,374.4z"/>
		<path class="st27" d="M64.7,383.5c0-0.1,0-0.1,0.1-0.1C64.7,383.4,64.7,383.5,64.7,383.5z"/>
		<path class="st28" d="M37.7,365.9L37.7,365.9C37.8,365.9,37.8,366,37.7,365.9L37.7,365.9z"/>
		<path class="st29" d="M53.9,369.8c0,0.1,0,0.1-0.1,0.1C53.9,369.8,53.9,369.8,53.9,369.8z"/>
	</g>
</g>
<text transform="matrix(1 0 0 1 98.7604 497.4159)" class="st1 st2 st3">Feb. 7 </text>
<text transform="matrix(1 0 0 1 98.7604 514.8159)" class="st1 st4 st3">Princeton </text>
<text transform="matrix(1 0 0 1 98.7604 532.2159)" class="st1 st4 st3">The Palestra</text>
<g>
	<path class="st5" d="M79.1,499.5c0,0,1-9.2-11.9-12.9c0,0-2.7-0.5-3.7-0.5c0,0,0.8,0.1-7.7,0.1s-16.2,0.2-16.2,0.2v9h5v28.8h-5v9.2
		h22.3v-9.2H57v-9.4c0,0,11.3,0.7,13.9-1.6C70.8,513.2,79.9,509.5,79.1,499.5z M67.8,501.6c-0.6,4-5.4,3.9-5.4,3.9h-5.6v-10.1
		c0,0,0,0,4.6,0l2.8,0.4C69.1,497.7,67.8,501.6,67.8,501.6z"/>
	<path class="st1" d="M78.8,502.1c0.1-0.9,0.1-2,0-2.8c0,0-6.3-9.5-13.2-12.1c0,0,11,12.5,12.7,17.5
		C78.3,504.7,78.7,503.5,78.8,502.1z"/>
	<path class="st1" d="M60.9,514.9c0,0-11-11.9-14.4-13.6c0,0,10,12.4,10.1,13.5L60.9,514.9z"/>
	<path class="st1" d="M44.4,505.8c0,0,10.1,13.7,11.1,18.3c0,0-8.9-10.1-11.2-12.2L44.4,505.8z"/>
	<path class="st1" d="M60,533.5c0,0-9.7-10.4-15.7-14.3l-0.1,2.8c0,0,8.8,9,9.4,11.5H60z"/>
	<path class="st1" d="M40.6,524.4l-1.3-0.2l-0.1,3.8c0,0,4.6,4.5,5.4,5.5h1.9C46.5,533.5,42.3,525,40.6,524.4z"/>
	<path class="st1" d="M42.9,486.3l-3.6,0.1l-0.1,4.9c0,0,8.7,5.3,17.2,12.6v-5.2C52.5,493.7,47.8,488.9,42.9,486.3z M61.4,505.6h-3
		c3,2.8,5.9,5.7,8.3,8.8C66.7,514.4,64.7,510.5,61.4,505.6z"/>
	<path class="st1" d="M54.6,486.2H49c0,0,4.4,4.1,9.4,9.1c0.7,0,1.5,0,2.7,0l2.8,0.4c5,2,3.6,5.9,3.6,5.9c-0.1,0.9-0.5,1.6-1,2.2
		c3.2,3.5,5.7,6.5,6.3,8.1c0.3-0.3,3.6-2.7,4.6-5.1C77.5,506.8,67.8,491.6,54.6,486.2z"/>
</g>
<text transform="matrix(1 0 0 1 99.9899 626.2148)" class="st1 st2 st3">March 4 </text>
<text transform="matrix(1 0 0 1 99.9899 643.6148)" class="st1 st4 st3">Harvard </text>
<text transform="matrix(1 0 0 1 99.9899 661.0148)" class="st1 st4 st3">The Palestra</text>
<g>
	<path class="st30" d="M37,613.4h44.4v21c0,0-0.7,18.9-22.1,29.5c0,0-20.3-8.7-22.3-29.5L37,613.4z"/>
	<path class="st31" d="M38.2,614.6h42v19.9c0,0-0.6,17.8-20.9,27.9c0,0-19.1-8.1-21.1-27.8L38.2,614.6z"/>
	<polygon class="st32" points="48,618.4 55.7,618.4 55.7,623.4 54.5,623.4 54.5,630.7 63.7,630.7 63.7,623.4 62.7,623.4 62.7,618.4 
		70.5,618.4 70.5,623.4 69.2,623.4 69.2,643 70.6,643 70.6,648.1 62.8,648.1 62.8,643 63.7,643 63.7,635.9 54.5,635.9 54.5,643 
		55.7,643 55.7,648.1 48,648.1 48,643 49.1,643 49.1,623.4 48,623.4 	"/>
</g>
<g>
	<rect x="0.2" y="216.2" class="st0" width="240.8" height="65.2"/>
</g>
<text transform="matrix(1 0 0 1 99.3893 301.6011)" class="st1 st2 st3">Dec. 3 </text>
<text transform="matrix(1 0 0 1 99.3893 319.0011)" class="st1 st4 st3">Temple</text>
<text transform="matrix(1 0 0 1 99.3893 336.4011)" class="st1 st4 st3">Philadelphia, Pa.</text>
<g id="yMgNr0_1_">
	<g>
		<path class="st33" d="M71.1,338.4c0,0.2,0,0.4,0.1,0.6c-7.9,0-15.7,0-23.6,0c0-0.2,0-0.4,0.1-0.7c0.3-0.2,0.5-0.3,0.8-0.4
			c7.3-0.2,14.5-0.2,21.8,0C70.6,338,70.9,338.2,71.1,338.4z"/>
		<path class="st34" d="M69.2,299.9c-4.1-0.3-4.2-0.3-4.1,3.9c0,8,0.1,15.9,0.1,23.9c-0.3,0.5,0,1.1-0.1,1.2c0-0.2-0.1-0.7,0.1-1.2
			c1.3,0,2.6,0.1,4,0s2,0.1,2.1,1.9c0,1.9-1,1.9-2.2,1.7c-2.5-0.3-5,0.7-7.4-0.5c0.6-0.9,0.3-1.8,0.3-2.8c0-9.4,0-18.9,0-28.3
			c0-0.6,0-1.2,0-1.8c0.1-0.8,0.6-1,1.3-0.8c0.8,0.3,0.2,0.8,0,1.1c-0.4,0.5-0.3,1.2-0.3,1.7c0,10,0,20.1,0,30.1c0-10,0-20,0-30
			c0-1.7,0.7-2.5,2.1-2.5c1.9,0,4.2-1.2,5.5,1.5c0,0.3-0.2,0.6-0.4,0.9C69.7,300.1,69.4,300.1,69.2,299.9z"/>
		<path class="st35" d="M70.2,299.9c0.1-1.1-0.4-1.5-1.4-1.6c-5.5-0.6-5.6-0.5-5.6,5.1c0,8.9,0,17.8,0,26.7c-0.1,0-0.2,0-0.3,0
			c0-10.9,0-21.7,0-32.4c-0.7,0.6-0.8,0.6-0.8,2.1c0,9.4,0,18.9,0,28.3c0,0.9,0.4,1.9-0.5,2.6c-0.1-11-0.1-22.1-0.2-33.1
			c0-1.3,0.5-1.6,1.6-1.6c2,0.1,4,0,6,0c3.7,0,3.7,0,3.5,3.8c-0.8,1.3-0.3,2.8-0.4,4.3c-0.1,0.7,0,1.5-1.2,1.4
			c-1.1-0.1-1.3-0.6-1.2-1.4C69.8,302.7,69.3,301.2,70.2,299.9z"/>
		<path class="st34" d="M43.1,291.6c-0.2,0-0.4,0-0.5,0c-0.8-0.6-1.7,0-2.6-0.3c0.7,0.3,1.5-0.2,2.2,0.4c-0.6,4-0.1,8-0.2,12.1
			c0,1.3,0,2.3-1.8,2.3s-2.1-0.7-2-2.3c0.1-4.5,0-9.1,0-13.6c0-0.6-0.3-1.4,0.4-1.8c0.4,0.1,0.8,0.3,1.1,0.5c1,0.2,2,0.1,3,0.2
			c1.5,0.3,2.3,1,1.3,2.7c-0.2,0-0.4,0-0.5,0c-0.6-2.4-2.7-0.7-3.6-1.3c0.6,0,1.4,0,2.3,0C43,290.4,43.6,290.6,43.1,291.6z"/>
		<path class="st36" d="M57.2,330.8c-2.9,1-5.9,0.3-8.8,0.3c-1.2,0-0.6-1.4-0.7-2.1c-0.1-0.7,0-1.4,1-1.4c0.5,0,1,0,1.5,0
			c3.6,0,3.6,0,3.6-3.8c0-6.7,0-13.4,0-20.1c0-4.3,0-4.3-4.2-3.9c1-2.2,2.7-1.1,4.2-0.9c1.1,0.7,0.8,2.1,1.1,3.1
			c0.1,0.3,0.1,0.5,0.1,0.8c-0.1,1.7-0.1,3.3-0.3,5c0,0.8,0,1.5,0,2.3c0.2,1.3,0.3,2.6,0,4c0,1.4,0,2.7,0,4.1c0.1,1.3,0.3,2.7,0,4
			c-0.1,1.8,0,3.7,0,5.5c-0.7,1-1.9,1.4-2.9,2.4c1-0.6,1.8-0.9,2.4-1.6c0.6,0.1,1.2-0.3,1.8,0c0.6,0.5,0.6,1.4,1,2
			C57.1,330.6,57.1,330.7,57.2,330.8z"/>
		<path class="st35" d="M80.2,289c0.1,5.5,0.3,11-0.1,16.4c-0.4,0-0.6-0.2-0.6-0.6c-0.1-3,0-5.9,0-8.3c-0.1,2.5,0.1,5.7-0.1,9.1
			C77.9,305,78,304,78,303c-0.1-3-0.1-6,0-9c0.1-2-0.6-3-2.7-3c-3,0.1-6,0-9,0c-0.7,0-1.5-0.1-2.1,0.5l-0.2,0.1l-0.2-0.1
			c-0.6-1.2-0.2-1.8,1.1-1.8c4.4,0,8.8,0,13.3,0c1.9,0,1.2,1.5,1.6,2.5c0.1,0.3,0.3-0.3,0.1-0.1c-0.1,0.1-0.2,0-0.2-0.2
			c0.2-1.8-0.5-2.3-2.3-2.3c-3.9,0.1-7.8,0.1-11.8,0c-1.5,0-2.1,0.5-2.3,1.8l-0.2,0.1l-0.2-0.1c-0.7-2.1-0.4-3.1,1.2-3.1
			c5.2,0,10.3,0,15.5,0C79.7,288.5,79.9,288.8,80.2,289z"/>
		<path class="st36" d="M54.6,302.4c-0.9-0.9-0.3-2.1-0.5-3.1c-1.9-0.7-3.8,0-5.7-0.3c-0.3-0.2-0.3,0.5-0.1,0.2
			c0-0.1,0.1-0.1,0.1-0.1c1.5,0.3,1.1,1.5,0.7,2.1c-0.5,0.6-0.6-0.4-0.5-0.3c1.3,0.9-0.5,3.1,0.9,4.6c-3.2,1-3.4,0.9-3.4-2.4
			c0-2.3-0.9-5.3,0.4-6.7c1.3-1.4,4.2-0.3,6.5-0.4c1.2,0,2.5,0.1,3.7,0.1c-0.2,1.5-1.4,1.2-2.3,1.2c-2.1,0.1-4.2,0.2-6.3,0.1
			c1.5,0.1,3.1,0,4.6,0.1c1,0.1,2.1,0.2,2.4,1.4C55.5,300.2,56,301.5,54.6,302.4z"/>
		<path class="st35" d="M77.2,305.6c-0.8-3.8-0.3-7.6-0.3-11.4c0-2.1-0.6-2.6-2.5-2.5c-3.2,0.1-6.5,0-9.7-0.1c0-1,0.8-0.7,1.3-0.7
			c3.6,0,7.2,0,10.8,0c1.5,0,1.8,0.6,1.8,2c-0.1,3.7,0,7.4,0,11.1C78.4,304.6,78.9,306,77.2,305.6z"/>
		<path class="st35" d="M54.6,302.4c0.8-3.3,0.2-4.1-3-4.1c-1.2,0-2.3,0-3.5,0c-0.5,0-1.7,0.3-0.4-0.8c-1.3-1-0.1-0.8,0.4-0.8
			c2.5,0,5,0,7.5,0c0.4,0,0.7-0.3,1.1-0.5c0.1,0.1,0.3,0.1,0.4,0.2c-0.3,2.8,0.3,5.7,0.2,8.5c0,0.8,0.6,1.9-0.7,2.5
			c-0.3,0-0.5-0.1-0.7-0.2c-0.8-1.3-0.5-2.9-1.3-4.2C54.7,302.8,54.6,302.6,54.6,302.4z"/>
		<path class="st34" d="M48.1,338.4h-0.2h-0.2c0-3.4,0-3.4,3.4-3.4c5.6,0,11.2,0,16.8,0c3.3,0,3.3,0,3.3,3.4H71h-0.2
			c-0.7-1.8-1.9-2.3-3.8-2.3c-5.5,0.1-10.9,0-16.4,0.1h-0.2l0.2,0.1c5.1,0,10.2,0,15.3,0c0.8,0,1.7-0.1,2.5,0.2c0.5,0.2,1,0.4,0.9,1
			c-0.1,0.8-0.7,0.5-1.2,0.5c-5.7,0-11.4,0-17,0C50,338,49,337.8,48.1,338.4z"/>
		<path class="st34" d="M56.1,307.1c1.1-0.1,1-1,1-1.7c-0.1-1.9-0.1-3.9-0.8-5.7c-0.6-1.4,0.4-2.2,0.8-3.3c0.4,0.4,0.3,0.9,0.3,1.4
			c0,10.6,0,21.2,0,31.8c0,0.4-0.1,0.8-0.2,1.2l-0.2-0.2c-0.8-1.5-0.3-3.2-0.8-4.8c-0.4-1.6,0-3.1,0.4-4.5c0.4-1.3-0.8,0.3-0.7-0.4
			c-0.3-0.5-0.3-1-0.1-1.5c0.5-3.4,0.9-6.9,0.5-10.4C56.2,308.4,55.8,307.8,56.1,307.1z"/>
		<path class="st34" d="M77.2,305.6c0.8-0.1,1-0.7,1-1.5c0-3.8,0-7.6,0-11.3c0-0.7,0-1.6-0.9-1.6c-4.2,0.1-8.5-0.7-12.6,0.4
			c-0.2,0-0.4,0-0.5,0c0.2-1.3,1.2-1,2-1c3.5,0,7,0.1,10.5,0c1.7-0.1,2.2,0.6,2.1,2.2c-0.1,4.1,0,8.1,0.5,12.2c0-3.2,0-6.4,0-9.7
			c1,3.4-0.1,6.8,0.9,10.2C79.2,306.3,78.2,306.1,77.2,305.6z"/>
		<path class="st34" d="M80.2,289c-5.3-0.1-10.7-0.2-16-0.2c-2.1,0-1.4,1.6-1.5,2.7c-0.2,0-0.4,0-0.5,0c-0.5-0.9-0.1-1.9-0.3-2.6
			c-0.1,0.8,0.2,1.7-0.2,2.6c-0.2,0-0.3,0-0.5,0c-0.6-0.9-1-2-1.9-2.8c-0.1-0.2-0.1-0.4-0.1-0.7c6.6,0,13.2-0.1,19.8-0.1
			C79.6,288.1,80.4,287.9,80.2,289z"/>
		<path class="st34" d="M59.1,288.2c0,0.1,0,0.2,0,0.4c-0.1,0.1-0.1,0.2-0.2,0.3c-0.2,0.2-0.4,0.4-0.6,0.7c-0.3,0.7-0.1,1.6-0.7,2.2
			c-0.2,0-0.4,0-0.5,0c-0.5-0.9-0.1-1.9-0.2-2.7c-0.1,0.8,0.2,1.8-0.2,2.7c-0.2,0-0.4,0-0.5,0c-0.8-2.1-2.1-2.8-4.1-1.6
			c-0.2,0.1-0.4,0.2-0.6,0.3c-0.7-0.3-1.5-0.5-2.2,0c-0.4-0.1-0.6-0.5-0.9-0.8c-0.2-0.2-0.5-0.3-0.8-0.4c-0.2-0.1-0.4-0.2-0.5-0.3
			c-0.1-0.2-0.1-0.3,0-0.5C51.1,288.2,55.1,288.2,59.1,288.2z"/>
		<path class="st37" d="M49.5,305.5c-1.4,0.1-1.8-0.9-1.3-1.8c1-1.8-0.3-2.6-1.1-3.7c1-0.5,1.3,0.4,1.8,0.9c0.7-1.9-1.1-1.3-2.3-2.2
			c2.9,0.4,5.3-0.5,7.5,0.6c-1.5,0.2-3.1-0.6-4.5,0.6C49.5,301.8,49.5,303.6,49.5,305.5z"/>
		<path class="st34" d="M63.1,291.6c-0.2-1.5,0.5-2.1,2-2.1c3.7,0.1,7.4,0,11,0c3.8,0,3.8,0,3.4,4.1c-0.6-0.6-0.3-1.3-0.3-1.8
			c0-1.1-0.3-1.8-1.6-1.7c-4.2,0-8.4,0-12.5,0c-1.1,0-1.5,0.4-1.5,1.5C63.5,291.6,63.3,291.6,63.1,291.6z"/>
		<path class="st34" d="M39,289c-0.1-0.3-0.3-0.5-0.4-0.8c2.5-0.3,5-0.2,7.5-0.1c0.2,0.2,0.3,0.4,0.5,0.7c0.2,1,0.2,1.9-0.4,2.8
			c-0.2,0-0.4,0-0.5,0c-0.5-0.9-0.1-1.9-0.2-2.7c-0.1,0.8,0.2,1.8-0.2,2.7c-0.2,0-0.4,0-0.5,0c0-2.1-1.1-2.7-2.9-2.4
			C40.8,289.3,39.9,289.4,39,289z"/>
		<path class="st34" d="M70.2,299.9c0,1.5,0,2.9,0,4.4c0,0.6,0,0.7,0.8,0.7s0.7-0.2,0.8-0.7c0.3-1.5-1-3.3,0.9-4.4
			c0,0.2,0,0.4,0,0.5c-0.3,1.7-0.2,3.4,0,5.1c-1.1,0.7-2.2,0.8-3.3,0c0.4-1.8-0.2-3.8,0.4-5.6C69.8,299.9,70,299.9,70.2,299.9z"/>
		<path class="st38" d="M49.1,290.1c0.8-1.3,1.7-1.3,2.5,0c0.4,0.5,0.4,1,0,1.5c-0.8,0-1.7,0-2.5,0
			C48.7,291.1,48.6,290.6,49.1,290.1z"/>
		<path class="st39" d="M59.1,288.5c1.6,0.4,2.3,1.4,2,3.1c-0.7,0-1.3,0-2,0c-0.6-0.7-0.7-1.5-0.4-2.3
			C58.8,289,58.9,288.8,59.1,288.5L59.1,288.5z"/>
		<path class="st40" d="M39,289c1-0.1,1.9-0.2,2.9-0.3c2-0.2,3.1,0.5,2.7,2.8c-0.2,0-0.3,0-0.5,0c0.2-1.5-0.4-2.2-2-2.1
			C41.1,289.6,39.9,290,39,289z"/>
		<path class="st40" d="M51.6,289.5c1.2-1.4,2.8-0.8,4-0.5c0.9,0.2,0.4,1.7,0.5,2.6c-0.2,0-0.3,0-0.5,0
			C54.8,289.8,52.7,290.6,51.6,289.5z"/>
		<path class="st34" d="M51.6,289.5c0.7,0,1.5,0.1,2.2,0c1.6-0.2,2,0.6,1.9,2.1c-0.2,0-0.4,0-0.5,0c-1-1.1-2-1.1-3,0
			c-0.2,0-0.3,0-0.5,0c0-0.5,0-1,0-1.5C51.6,289.9,51.6,289.7,51.6,289.5z"/>
		<path class="st41" d="M43.1,291.6c-0.8-2.1-2.7-0.4-3.9-1.2c3-0.7,3.7-0.5,4.4,1.2l-0.2,0.1L43.1,291.6z"/>
		<path class="st41" d="M49.1,290.1c0,0.5,0,1,0,1.5c-0.3,0-0.7,0-1,0c-0.8-1.2-0.8-2.2,0.5-3C49.2,288.9,49,289.5,49.1,290.1z"/>
		<path class="st41" d="M69.7,299.9c-0.2,1.9,0.4,3.8-0.4,5.6c0-1.9-0.1-3.7-0.1-5.6C69.3,299.9,69.5,299.9,69.7,299.9z"/>
		<path class="st41" d="M52.1,291.6c-0.1-1.3,0.5-1.6,1.6-1.5c1.1,0,1.5,0.5,1.4,1.5l-0.2,0.1l-0.2-0.1c-0.7-0.6-1.4-0.6-2,0
			l-0.2,0.1L52.1,291.6z"/>
		<path class="st41" d="M72.5,305.5c-0.6-1.7-0.7-3.4,0-5.1C72.6,302.1,72.6,303.8,72.5,305.5z"/>
		<path class="st34" d="M46.1,288.6c0-0.1,0-0.3,0-0.4c0.3,0,0.7,0,1,0c0,0.1,0,0.3,0,0.4c0.6,1,0.6,2,0,3c-0.2,0-0.4,0-0.5,0
			C46,290.7,46.7,289.5,46.1,288.6z"/>
		<path class="st34" d="M52.6,291.6c0.7-1.4,1.4-1.4,2,0C53.9,291.6,53.3,291.6,52.6,291.6z"/>
		<path class="st34" d="M48.6,288.6c-0.6,0.9-0.5,2-0.5,3c-0.2,0-0.4,0-0.5,0c-0.4-1-0.3-2,0-3C47.9,288.6,48.2,288.6,48.6,288.6z"
			/>
		<path class="st34" d="M59.1,288.5c0,0.2,0,0.3,0,0.5c-0.6,0.8,0.1,1.8-0.5,2.6c-0.2,0-0.4,0-0.5,0c-0.4-1-0.3-2,0-3
			C58.4,288.6,58.8,288.6,59.1,288.5z"/>
		<path class="st41" d="M42.1,291.7c-0.9,0-1.7-0.1-2.6-0.1c1-0.4,2-0.8,3,0.1l-0.2,0.1L42.1,291.7z"/>
		<path class="st41" d="M61.6,291.6c0-0.8,0-1.7,0-2.5c0.2,0,0.3,0,0.5,0c0,0.8,0,1.7,0,2.5l-0.2,0.1L61.6,291.6z"/>
		<path class="st41" d="M47.5,288.6c0,1,0,2,0,3l-0.2,0.1l-0.2-0.1c0-1,0-2,0-3C47.3,288.5,47.4,288.5,47.5,288.6z"/>
		<path class="st41" d="M56.6,291.6c0-0.8,0-1.7,0-2.5c0.2,0,0.3,0,0.5,0c0,0.8,0,1.7,0,2.5l-0.2,0.1L56.6,291.6z"/>
		<path class="st41" d="M58.1,288.6c0,1,0,2,0,3l-0.2,0.1l-0.2-0.1C57.8,290.6,57.2,289.5,58.1,288.6z"/>
		<path class="st41" d="M46.1,288.6c0.9,0.9,0.3,2,0.4,3l-0.2,0.1l-0.2-0.1C46.1,290.6,46.1,289.6,46.1,288.6z"/>
		<path class="st41" d="M45.1,291.6c0-0.8,0-1.7,0-2.5c0.2,0,0.3,0,0.5,0c0,0.8,0,1.7,0,2.5l-0.2,0.1L45.1,291.6z"/>
		<path class="st41" d="M58.6,291.6c0.1-0.9-0.3-1.8,0.5-2.6c0,0.9,0,1.7,0,2.6C58.9,291.6,58.8,291.6,58.6,291.6z"/>
		<path class="st42" d="M48.6,335.9c0.7-0.8,1.7-0.5,2.6-0.5c5.6,0,11.1,0.1,16.7-0.1c2.4-0.1,3.2,0.7,2.8,3c-7.5,0.2-15,0.2-22.6,0
			c0.3-1.2,1.3-0.9,2-0.9c6.2,0,12.4,0,18.8,0c-0.6-0.8-1.4-0.5-2-0.5c-5.6,0-11.2,0-16.7-0.1C49.6,336.9,48.3,337.7,48.6,335.9
			c3.7,0.6,7.5,0.2,11.2,0.3c2.7,0.1,5.3,0,8,0c0.7,0,1.5-0.6,2,0.5c-0.7-0.8-1.7-0.5-2.5-0.5c-5.4,0-10.8,0-16.3,0
			C50.2,336.2,49.4,336.4,48.6,335.9z"/>
		<path class="st43" d="M63.6,330.2c0-2.5,0-5.1,0-7.6c0-6.9,0.1-13.9,0-20.8c0-2.3,0.5-3.4,2.9-3c0.9,0.1,1.8,0,2.7,0.2
			c-1.5,0.7-3.5-0.4-4.5,0.7c-1.2,1.2-0.2,3.1-0.3,4.7c-0.4,7.8,0,15.6-0.2,23.4c0,0.8,0,1.7,0,2.5C64,330.2,63.8,330.2,63.6,330.2z
			"/>
		<path class="st41" d="M65.1,327.7c0.5,0.9-0.1,1.7-0.2,2.5C64.6,329.4,64.4,328.5,65.1,327.7L65.1,327.7z"/>
		<path class="st34" d="M71,304c-0.4-1.6-0.3-2.6-0.1-4.1C71.3,301.4,71.2,302.4,71,304z"/>
		<path class="st35" d="M41,293.2c0.3,1.5,1,3.1-0.3,4.6c-0.6,0.7-0.1,1.1,0.8,0.9c0,1.9,0,3.8-0.1,5.7c0,0.5-0.4,0.8-0.9,0.8
			c-0.8,0-0.5-0.7-0.5-1.2c0-2.9-0.1-5.8,0.2-8.7c0.1-1.2-0.2-1.6-1.1-2C39.7,293.2,40.4,293.2,41,293.2L41,293.2z"/>
		<path class="st41" d="M39.2,305c0-3,0-6.1,0-9.1c0.1,0,0.1,0,0.2,0c0,3,0,6.1,0,9.1C39.3,305,39.2,305,39.2,305z"/>
		<path class="st35" d="M41,293.2c-0.3-0.6-1-0.4-1.5-0.7C40.8,292.2,40.8,292.2,41,293.2L41,293.2z"/>
		<path class="st44" d="M56.1,307.1c1.4,1.9,1,4.1,0.9,6.2c0,1.6-0.7,3.3,0,5c0.3,0.6-0.2,1.1-0.9,1.2c-0.7,0.4-0.4-2.1-1.5-0.5
			c0,0-0.4-0.3-0.5-0.5c0-1.5,0-3.1,0-4.6c0.9-0.3,1.1-1,1.3-1.9c0.4-1.6-1.2-0.9-1.3-1.7c0-0.9,0-1.7,0-2.6
			c0.1-0.2,0.2-0.4,0.4-0.5L56.1,307.1L56.1,307.1z"/>
		<path class="st44" d="M56.1,321c0.3,0,0.9-1.3,0.9,0.1c0,1.5-0.3,3-0.4,4.5c0,0.1,0,0.2,0,0.4c0,0.7,0.1,1.4-0.3,2.1
			c-0.2,0.2-0.4,0.3-0.6,0.2c-0.7-0.7-0.2-1.6-0.3-2.2c-0.3,0.6,0.4,1.6-0.4,2.2c-0.1,0-0.2-0.1-0.3-0.1c-0.9-2-0.4-4.1-0.4-6.2
			c0.1-0.2,0.4-0.5,0.4-0.5C55.7,323.1,55.4,320.4,56.1,321z"/>
		<path class="st45" d="M56.1,307.1c-0.3,1.6-1.3,0.3-1.9,0.5c0.2-1.6,0.3-3.1,0.5-4.7C56.3,303.9,56.1,305.5,56.1,307.1z"/>
		<path class="st45" d="M56.1,321c-0.2,1.3-0.9,1.4-1.9,1c0.5-1.2-0.1-2.4,0-3.6c1-0.4,1.7-0.2,1.9,1C56.1,320,56.1,320.5,56.1,321z
			"/>
		<path class="st45" d="M54.2,310.2c0.6,0.9,1-1,1.4-0.1c0.7,1.3,0.7,2.6,0,3.9c-0.4,0.8-0.9-1-1.4-0.1
			C54.7,312.6,54.1,311.4,54.2,310.2z"/>
		<path class="st35" d="M54.6,328.7c-0.3,0.8-0.9,1.5-1.7,1.7c-0.5,0.1-1.2,0.4-1.3-0.6c0-0.4-0.5-1.9,0.8-0.5
			c0.4-1.1,1.4-0.9,2.2-1.1l0,0c0.1,0.1,0.2,0.2,0.1,0.3C54.7,328.7,54.6,328.7,54.6,328.7z"/>
		<path class="st44" d="M56.6,325.6c1,1.6,0.3,3.4,0.4,5c-1.4-0.1-0.7-1.2-0.9-2c-0.2-0.1-0.2-0.2-0.2-0.3c0.1-0.1,0.1-0.2,0.2-0.2
			l0,0C56.7,327.4,56,326.4,56.6,325.6L56.6,325.6z"/>
		<path class="st45" d="M56.1,328.2c0,0.2,0,0.3,0,0.5c-0.5-0.2-1,0.6-1.5,0c0-0.2,0-0.3,0-0.5c0.8-0.5,0.3-1.4,0.7-2.1
			C55.9,326.7,55.3,327.8,56.1,328.2z"/>
		<path class="st40" d="M49.2,330.8c-1.1-1.1-0.8-1.8-0.8-2.6C49.4,328.9,48.9,329.7,49.2,330.8z"/>
		<path class="st41" d="M49.7,328.5c0.6,0.6,0.3,1.2,0.4,2.2C49.4,329.7,49.6,329.2,49.7,328.5z"/>
		<path class="st41" d="M50.6,330.2c0-0.5,0-1.3,0.1-1.3c0.6-0.1,0.3,0.5,0.3,0.8c0,0.2-0.1,0.4-0.1,0.7
			C50.8,330.2,50.7,330.2,50.6,330.2z"/>
		<path class="st41" d="M46.9,305.2c0.1-0.6,0.2-1.2,0.3-2C47.8,304,47.6,304.6,46.9,305.2z"/>
		<path class="st34" d="M48.6,335.9c6.5,0,13,0,19.5,0c0.9,0,2.2-0.4,2,1.9c-0.6-1.6-1.7-1.4-2.7-1.4c-5.4,0-10.8,0-16.2,0
			C50.3,336.4,49.3,336.8,48.6,335.9L48.6,335.9z"/>
		<path class="st34" d="M40.6,303.9c0-1.1,0-2.3,0-3.4c0.1,0,0.2,0,0.3,0c0,1.1,0,2.3,0,3.4C40.8,303.9,40.7,303.9,40.6,303.9z"/>
		<path class="st34" d="M56.6,325.6c-0.1,0.9,0.3,1.9-0.5,2.6C56.2,327.3,55.8,326.3,56.6,325.6z"/>
	</g>
</g>
<g>
	<path class="st46" d="M79.5,94.6c1.6,2.9,3.6,5.5,4.7,8.8c2,6.4,2.1,12.9,0.7,19.4c-0.4,1.9-2,2.9-3.4,3.4
		c-3.3,1.2-5.1,4.1-7.2,6.8c-0.5,0.7-0.3,1.2-0.2,1.9c0.4,1.9,1.2,3.6,1.2,5.5c-9.5,0-19,0-28.4,0c0.1-1.8-0.8-1.2-1.7-1
		c-4.1,1.2-7.7,0.2-10.8-2.9c-0.5-0.5-0.9-1.2-1.2-1.9c-1.2-3-1-3.3,1.9-3.4c0.8,0,1.6-0.2,2.2-0.7c2.5-2,5-4,8.2-5.8
		c-2.7-1.4-4.8-3.1-6.6-5.3c-2.1-2.6-2.2-2.8,0.1-5.1c7.5-7.5,16.2-12.5,25.6-16.3c3.8-1.5,7.7-2.2,11.5-3.6
		C77.3,94.6,78.4,94.6,79.5,94.6z"/>
	<path class="st47" d="M48.6,125.9c0.7-0.2,1.5-0.4,2.4-0.7c-3.1-1.5-6.3-2.4-8.6-5c-0.9-1.3-1.3-2.5,0.8-2.8
		c0.3-0.1,0.5-0.5,0.7-0.8c7.2-5.8,15.1-10,23.8-12.4c2.3-0.6,4.5-1.6,6.9-0.2c1.3,0.7,2.7-0.4,4-0.8c1.4,0.2,1.9,1.2,2.1,2.6
		c-0.1,0.3,0.4-0.1,0.1,0c0-1,0.3-1.7,1.3-1.8c2.6,5.8,2.6,11.9,1.3,18c-0.4,1.7-1.8,2.5-3.1,3.1c-2.6,1.1-5,2.5-6.1,5.7
		c0,0.1-0.1,0.3-0.3,0.4c-2.5,1.2-2,3.3-1.4,5.4c0,1.1-0.1,2-1.5,1.7c-0.7-0.2-0.7-0.1-0.8-1.2l0,0v0.1c0,0.5-0.1,1.2-0.5,1.2
		c-2.4,0.3-4.8,0.7-7.1-0.3c-0.1-0.3-0.1-0.6,0-0.9c-0.6-1.1-1.9-0.8-2.5-1.8c-0.7-0.8-0.4-1.9-0.6-2.8c-0.2-1.5,0-3,0.5-4.4
		c0.6-1.5,1.5-1.6,2.3-0.3c2,3,4.7,2.8,7.5,1.8c0.6-0.2-0.3-0.4-0.2-0.7c-0.1-1,0.7-0.9,1.1-1.2c-0.3-0.2-0.6-0.1-0.8-0.1
		c-0.7-0.2-1.9,0.2-1.8-0.9c0-1,1.1-1.1,2-1c-2.2-0.7-2.4-1.2-1.2-2.9c0.8-0.4,1.1,1,1.9,0.6c0.3-0.1,0.5-0.1,0.8-0.2
		c1.4-0.4,1.1-1.3,0.5-2.3c-1.8,0.6-3.6,1.1-5.4,0c-0.2-0.2-0.4-0.4-0.4-0.7c0-0.6-0.8-0.7-0.8-1.4c0.6-1.8,1.9-2,3.4-2.1
		c2.2-0.1,4.2,0.6,6.4,0.9c0-0.9-0.6-1.2-1.1-1.5c-2.2-1.2-4.5-1.4-6.9-0.9c-1,0.2-1.4,1.1-2,1.8c-1.3,1.6-2.6,3-4.8,1.7
		c-0.9-0.5-1.5,0-1.7,1c-0.3,1.3-0.2,2.6,0.8,3.6c1,0.9,1.1,1.8,0.2,2.9c-0.5,0.4-0.9,0.9-1.6,0.9c-1-0.5-0.9-1.5-1-2.5
		c-0.1-0.9-0.4-1.8-1.3-0.6c-1,0.9-1.2,1.9-0.3,3.1c0.1,0.3,0.3,0.6,0.4,0.9c0.1,0.6,0.1,1.1-0.1,1.6c-1.8,1.5-3,3.9-5.2,4.9
		c-1.3-0.7-3-0.1-4-1.6c0-0.9,0.7-1.5,1.1-2.2c1.2-1.5,2.7-2.2,4.2-3.1c0.1-0.1,0.2-0.1,0.3-0.1c-0.3-0.1-0.4,0.2-0.6,0.2
		c-0.9,0.3-1.7,0.7-2.6,0.4C47.7,127.3,48.1,126.6,48.6,125.9z"/>
	<path class="st48" d="M44,117.1c-0.4,1.2-1.2,1.5-2.4,1.1c0.5,0.7,1.1,1.2,0.7,2c-3.5-3-3.5-3-0.2-5.8c9.2-8,19.2-14.1,30.7-16.8
		c0.7-0.2,1.5-0.3,2.4-0.5c-0.2,1.4-0.7,2.7,0.1,3.8c0.8,0.6,1.6,0.5,2.5,0.2c0.2-0.2,0.3-0.4,0.5-0.6c1.1,0.3,0.8-0.9,1.2-1.3
		c0.6,0,0.5,0.8,0.8,1c0.5,1.3-0.5,1.5-1.1,2c-0.7,0.4-1.4,0.7-2.1,0.9c-1.6,0.4-3,0.1-3.8-1.6c-0.7-1.4-1.5-1.5-2.7-1.1
		c-6.4,2-12.3,5.3-18.1,8.8c-2.9,1.8-5.7,3.9-8.3,6.1C43.6,115.9,42.8,116.4,44,117.1z"/>
	<path class="st49" d="M55.3,129.4c0-0.6,0-1.1,0-1.7c0-0.5,0-1.1,0.5-1.5c1.7,0.6,0.7,2.4,1.1,3.5c-0.3-0.8,0-1.5,0.1-2.2
		c0.2-0.4,0.3-0.9,0.9-0.7c0.4-0.3,0.9-0.6,1.3-0.9c0.6,1,0,1.9-0.3,2.8c-0.7,1.7-0.5,3,1,4c1,0.6-0.2,1.7,0.6,2.4
		c-1,0.7-1.9-0.1-2.7-0.5c-1.5-0.7-2.3-0.2-2.8,1.5c2,0.5,4-0.1,6,0.4c0.6,0.6,1.2,1.1,2,1.3c2,0.5,4.1,0.2,6.1,0.2
		c1.1,0,0.9-0.9,1-1.6l0,0c0.8-0.1-0.2,1.4,1,1.3c1.1-0.1,1-1,1.5-1.4c0.8,1.5,1,2.4-1.2,2.4c-6.9-0.1-13.7-0.1-20.6-0.1
		c-0.2-0.1-0.3-0.3-0.3-0.5c0.8-2.9,2.3-5.3,4.1-7.5C54.8,130.3,55.2,130,55.3,129.4z"/>
	<path class="st50" d="M48.6,125.9c0,0.6-0.4,1.2,0,1.7c-3.3,2.3-6.4,4.9-9.6,7.2c2.1,0.8,3.3,0.3,5.9-2.2c0.8-0.8,1.4-2.3,2.9-1.8
		c-0.1,0.9-0.7,1.4-1.2,1.9c-1.3,3.9-4.3,4.5-7.5,4.6c-2.2-0.5-3.7-1.9-4.4-4.6c4.3,1,6.5-3,9.6-4.7
		C45.6,127.3,46.9,126.2,48.6,125.9z"/>
	<path class="st51" d="M39,137.4c0.8-1.4,2.1-0.7,3.2-0.8c2.2-0.3,2.7-2.8,4.4-3.8c1.1,0.9,2.8,0.2,3.8,1.4c-0.1,1.7-1.4,2-2.4,2.6
		c-0.2,0-0.4,0-0.6-0.1C44.6,138,41.8,138.9,39,137.4z"/>
	<path class="st50" d="M79.1,102c0.4-0.6,1.3-0.7,1.3-1.7c0.9,1,1.3,2.2,1.7,3.5c-0.5,0.8-1,1.5-1.5,2.3c-0.4-1-0.7-2.2-1.7-2.8
		C78.3,102.7,78.8,102.4,79.1,102z"/>
	<path class="st52" d="M50.7,138.3c0,0.1,0,0.3,0,0.4c-0.8-0.2-1.8,0.4-2.5-0.4c0.3-1.2,0.9-1.6,1.9-1.2
		C50.6,137.3,50.3,138,50.7,138.3z"/>
	<path class="st53" d="M50.2,137.5c-0.9-0.2-1.6-0.1-2.1,0.8c-0.3-0.5-0.9-0.8-0.9-1.6c0.2-0.1,0.3-0.1,0.5-0.2
		C48.6,136.7,49.9,135.6,50.2,137.5z"/>
	<path class="st50" d="M77.8,101.2c-0.9,0.9-1.7,0.8-2.5-0.2C76.2,101.3,77,101.2,77.8,101.2z"/>
	<path class="st50" d="M79.5,99.3c0,0.9,0.1,1.9-1.2,1.3C78.5,99.9,78.9,99.5,79.5,99.3z"/>
	<path class="st54" d="M73.7,139.6c0-0.6,0-1,0.3-0.8c0.2,0.1,0.3,0.5,0.4,0.7c0,0.1-0.1,0.3-0.2,0.3
		C73.9,139.7,73.7,139.6,73.7,139.6z"/>
	<path class="st55" d="M79.1,102c-0.1,0.5-0.2,0.9-0.3,1.4c-1.8,1.5-3.8,1.8-5.9,0.6c-0.6-0.4-1.1-0.3-1.8-0.2
		c-9.9,2.4-18.9,6.9-27.2,13.3c-0.6,0-1.3,1.1-1.8,0c-0.4-0.8,0.5-1.1,1-1.5c8.2-7.1,17.4-12.2,27.4-15.7c1.4-0.5,2.5-0.9,3.1,1.3
		c0.4,1.5,1.8,1.8,3.1,1.5C77.5,102.6,78.3,102.3,79.1,102z"/>
	<path class="st56" d="M59.7,132.7c-2-0.1-2.6-1.1-1.7-3.2c0.5-1.1,0.8-2.4,1.1-3.6c0.6-0.9,1.1-1.6-0.4-2.3
		c-1.3-0.6-1.5-4.2-0.5-5.4c0.6-0.7,1.6-1.1,2.1-0.5c2.2,2.3,3.4,0.2,4.3-1.3c1-1.7,2.3-2.3,3.9-2.3c2.5,0,4.9,0.4,6.9,2.1
		c0.6,0.5,0.6,1.3,0.7,2.3c-2.4-0.7-4.8-1.3-7.2-1.4c-1.5-0.1-2.7,0.4-3.5,1.8c0.2,0.6,1.4-0.3,1.2,0.9c-0.1,0.1-0.2,0.2-0.4,0.3
		c1.4,1.8,1,2.7-1.4,3.4c-0.6,0-0.9-0.6-1.4-0.7c-0.3,0.1-0.6,0.2-0.7,0.5c-0.4,1.8-1.5,3.1-2.3,4.6
		C60.1,129.5,59.9,131.1,59.7,132.7z"/>
	<path class="st57" d="M60.3,127.9c1.2-2,0.8-5,3.4-6c0.1,0.9-0.2,2,0.4,2.9c0.3-0.5-0.2-1.1,0.2-1.5c2.3-0.5,2.6-1,1.8-3
		c1.7,0.5,3.4,1.2,5-0.2c0.2-0.2,0.8,0.1,1.2,0.1c0,1.3,0.9,3.1-1.2,3.5c-0.3,0.1-0.5,0.1-0.8,0.2c-0.7,0-0.4-1.3-1.3-1.1
		c-1.1,0.7-1.2,1.5,0.1,2.1c0.6,0.3,1.2,0.3,1.7,1c-0.9,0.4-2-0.2-2.6,0.9c2.5,0.3,2.5,0.3,3.3,1.2c-0.6,0.7-1.8-0.6-2.1,0.8
		c0.6,0.3,1.2,0.6,2.1,1.1c-1.9,0.4-3.4,0.9-5,1.1c-2.2,0.3-3.7-1-4.9-2.9C61.3,127.1,60.8,126.6,60.3,127.9z"/>
	<path class="st58" d="M47.7,130.8c-1.8,0.8-2.8,2.7-4.3,3.8c-1.8,1.3-3.5,1.9-5.5,0.2c3.8-2,6.5-5.8,10.7-7.1
		c1-0.2,1.9-0.3,2.9-0.5c0.4-0.1,0.6,0.1,0.5,0.6C50.5,128.8,49.1,129.8,47.7,130.8z"/>
	<path class="st59" d="M61.1,136.9c-2.4,0-4.8,0-7.2,0c0-1.3,0.8-1.9,1.1-2.7c0.4-1,1-1,1.8-0.6c1.1,0.5,2.3,0.9,3.5,1.4
		c1,0.5,2,1,2.9,1.5v0.2c-0.1,0.1-0.3,0.1-0.4,0.2C62.2,137.4,61.7,137.5,61.1,136.9z"/>
	<path class="st46" d="M50.2,137.5c-0.6-1.1-1.8-0.1-2.5-0.9c0.8-0.9,2-1.2,2.5-2.3c1.9-1.3,2.8-3.8,5-4.7c0.6,0.3,0.7,1,0.3,1.2
		c-2.8,1.7-3.3,5-4.9,7.6C50.3,138.2,50.2,137.8,50.2,137.5z"/>
	<path class="st60" d="M54.8,127.4c-0.9-1.4-1.2-2.7,0.4-3.8c0.5-0.4,1-0.4,1.4,0.2c0.1,0.7-0.4,1.3-0.7,1.9
		C55.3,126,55.8,127.3,54.8,127.4z"/>
	<path class="st61" d="M56.4,124c-0.3-0.5-0.7-0.3-1.2-0.4c0.3-0.5,0.3-1.3,1.2-0.8c0.6,0.3,1.2,0.5,1,1.3c-0.2,0.9-0.1,1.8,0.3,2.6
		c-0.3,0.2-0.4,0.5-0.4,0.9C55.6,126.9,56.6,125.3,56.4,124z"/>
	<path class="st62" d="M74.7,124.3c-0.3-1-0.3-1.9-0.1-2.9C76.2,122.4,76.2,122.7,74.7,124.3z"/>
	<path class="st63" d="M77.9,106.9c-0.1,0.9-0.4,1.7-1.3,1.6c-0.2,0-0.7-0.6-0.6-0.8C76.3,106.9,77.3,107.4,77.9,106.9z"/>
	<path class="st64" d="M71.2,123.5c1.7-0.6,0.8-2.3,1.2-3.5C73.3,123.1,73.1,123.5,71.2,123.5z"/>
	<path class="st63" d="M63.4,133.1c0.9,0.8,0.4,1.6,0.1,2.4C63,134.3,63,134.3,63.4,133.1z"/>
	<path class="st65" d="M61.1,136.9c0.6,0,1.1,0,1.7,0c0,0.3,0,0.6,0,0.9C62.1,137.9,60.9,139,61.1,136.9z"/>
	<path class="st66" d="M53.9,114.6c-0.4,0.7-0.8,0.1-1.1,0.3c-0.4,0.2,0.1,1.5-0.9,0.9c-0.1-0.1-0.1-0.4,0-0.6
		c0.2-0.7,0.7-0.8,1.3-0.8C53.4,114.4,53.6,114.6,53.9,114.6z"/>
	<path class="st67" d="M48.6,115.8c0.3-0.4,0.7-0.8,1.2-0.6c0.6,0.3,0.3,1,0.2,1.4c-0.1,0.6-0.6,0.3-1,0.1c0-0.1-0.1-0.1-0.1-0.2
		c-0.1-0.2-0.1-0.3-0.2-0.5C48.6,115.9,48.6,115.9,48.6,115.8z"/>
	<path class="st64" d="M69.1,122.6c0.6-0.6,0.6-0.6,1.3,1.1C69,124.7,69.7,122.8,69.1,122.6z"/>
	<path class="st68" d="M50.3,131c0.4-0.5,0.5-1.1,1.2-0.9c0.1,0,0.2,0.4,0.2,0.6C51.4,131.6,50.9,131,50.3,131z"/>
	<path class="st69" d="M69.5,128.6c-0.2-0.2-0.5-0.3-0.6-0.5c-0.1-0.4,0.2-0.4,0.5-0.4c0.7,0,1.5,0,2.2,0.1
		C71.1,128.6,70,127.8,69.5,128.6z"/>
	<path class="st68" d="M73.7,108.2c-0.5,0-0.7,1.1-1.3,0.5c-0.1-0.1-0.2-0.5-0.1-0.6C72.7,107.3,73.2,108,73.7,108.2z"/>
	<path class="st68" d="M64,110.7c0.2-0.4,0.4-1.1,1-0.6c0.3,0.2,0.1,0.7-0.1,1C64.4,111.6,64.4,110.7,64,110.7L64,110.7z"/>
	<path class="st68" d="M64,110.7c-0.2,0.4-0.4,1-0.9,0.5c-0.4-0.4,0-1,0.2-1.4C63.6,110.1,63.8,110.4,64,110.7L64,110.7z"/>
	<path class="st70" d="M82.3,110.4c-0.6-0.6-0.5-1.1-0.1-1.6C82.8,109.2,82.7,109.7,82.3,110.4z"/>
	<path class="st71" d="M58.9,113.9c0.1,1,0.6,1.5,0.1,2c-0.1,0.1-0.4,0-0.5-0.1C58.3,115.3,58.6,114.8,58.9,113.9z"/>
	<path class="st68" d="M48.2,117.6c-0.5-0.5-0.8-1.2-0.5-1.9c0.2-0.4,0.6,0,0.9,0.1l0,0c0.2,0.6,0,1.1-0.2,1.7
		C48.3,117.5,48.2,117.5,48.2,117.6z"/>
	<path class="st71" d="M55.2,116.6c0.5,0.7,1,1.2,0.4,1.6S55,118,55,117.5C55.1,117.3,55.1,117.1,55.2,116.6z"/>
	<path class="st68" d="M49,116.7c-0.1,0.5,0.6,1.2-0.1,1.5c-0.3,0.2-0.6-0.3-0.7-0.6l0,0C48.5,117.4,48.2,116.4,49,116.7L49,116.7z"
		/>
	<path class="st72" d="M73.3,107.1c1-0.1,1.5-0.2,1.6,0.9C74.4,107.7,74,107.5,73.3,107.1z"/>
	<path class="st73" d="M54.8,127.4c0.8-0.4,0.2-1.5,0.8-2c0.2,0.3,0.3,0.6,0,1c0,0.5,0,1.1-0.4,1.4C55.1,127.6,55,127.5,54.8,127.4z
		"/>
	<path class="st68" d="M68.2,109.3c-0.2,0.4-0.4,0.9-0.9,0.5c-0.3-0.2-0.2-0.6,0-0.8C67.9,108.3,67.9,109.4,68.2,109.3L68.2,109.3z"
		/>
	<path class="st68" d="M58.8,112.3c-0.3-0.1-0.5-0.3-0.4-0.6c0.1-0.2,0.3-0.4,0.4-0.6c0.1,0.2,0.2,0.4,0.3,0.6
		C59.3,112,59.1,112.2,58.8,112.3z"/>
	<path class="st68" d="M61.3,110.9c-0.1,0.1-0.2,0.4-0.3,0.4c-0.3,0.1-0.7-0.1-0.8-0.4c0,0,0.3-0.3,0.5-0.4S61.2,110.5,61.3,110.9z"
		/>
	<path class="st74" d="M66.5,119.9c-0.3-0.7-0.9-0.3-1.4-0.6c-0.2-0.2-0.2-0.4,0-0.2c0,0,0.1-0.1,0.2-0.1
		C65.7,119.3,67,118.2,66.5,119.9z"/>
	<path class="st72" d="M68.2,109.3c0-0.5,0-1.1-0.1-1.9C68.8,108.3,68.8,108.8,68.2,109.3L68.2,109.3z"/>
	<path class="st67" d="M74.2,109c0.2,0.1,0.4,0.2,0.5,0.4c0.1,0.3-0.1,0.6-0.4,0.6c-0.1,0-0.3-0.2-0.4-0.4
		C73.9,109.5,74.1,109.3,74.2,109z"/>
	<path class="st67" d="M69.9,136.4c-0.4,0.1-0.8,0.5-1-0.2c0-0.1,0-0.3,0.1-0.4C69.6,135.6,69.7,136.1,69.9,136.4L69.9,136.4z"/>
	<path class="st67" d="M73,111.2c-0.1-0.2-0.3-0.4-0.3-0.6c0-0.3,0.2-0.6,0.5-0.5c0.1,0,0.3,0.3,0.3,0.4
		C73.4,110.7,73.2,110.8,73,111.2z"/>
	<path class="st67" d="M55.9,113.2c-0.1,0.2-0.2,0.4-0.4,0.5c-0.3,0.1-0.5-0.1-0.5-0.4c0-0.2,0.2-0.4,0.4-0.4
		C55.6,112.8,55.7,113,55.9,113.2z"/>
	<path class="st67" d="M64.3,113.2c-0.1,0.2-0.2,0.4-0.4,0.5c-0.3,0.1-0.5-0.1-0.5-0.4c0-0.2,0.2-0.4,0.4-0.4
		C64,112.8,64.1,113,64.3,113.2z"/>
	<path class="st67" d="M61.4,113.6c-0.1,0.2-0.2,0.4-0.4,0.5c-0.3,0.1-0.5-0.1-0.5-0.4c0-0.2,0.2-0.4,0.4-0.4
		C61,113.3,61.2,113.5,61.4,113.6z"/>
	<path class="st75" d="M51.9,127.7c-0.2-0.2-0.3-0.4-0.5-0.6c0.4-0.3,1-0.7,1.3-0.1C52.9,127.3,52.3,127.6,51.9,127.7z"/>
	<path class="st72" d="M73,126.7c0.3,0.5,0.3,1.3,0.1,1.3c-0.5,0.2-0.2-0.4-0.3-0.7C72.8,127.2,72.9,126.9,73,126.7z"/>
	<path class="st76" d="M77.2,115.8c-0.3-0.4-0.6-1-0.2-1.2s0.4,0.4,0.4,0.8C77.4,115.6,77.3,115.7,77.2,115.8z"/>
	<path class="st76" d="M80.9,120.7c0.3,0.3,0.7,0.7,0.4,1.1c-0.3,0.3-0.5-0.3-0.5-0.6C80.8,121,80.9,120.9,80.9,120.7z"/>
	<path class="st67" d="M52.4,119c-0.1-0.3-0.2-0.5-0.3-0.7c0-0.3,0.2-0.6,0.4-0.5c0.1,0,0.3,0.3,0.3,0.4
		C52.9,118.5,52.7,118.6,52.4,119z"/>
	<path class="st67" d="M49.7,120.5c-0.1,0.2-0.2,0.4-0.3,0.5c-0.3,0.1-0.5-0.1-0.5-0.4c0-0.1,0.2-0.4,0.4-0.4
		C49.3,120.1,49.5,120.3,49.7,120.5z"/>
	<path class="st77" d="M55.7,126.3c0-0.3,0-0.6,0-1c0-0.6,0.3-1.1,0.8-1.4c1.3,0.9-0.5,2.8,0.9,3.7c-0.4,0.8-0.5,1.6-0.4,2.6
		C56.3,129,56.7,127.4,55.7,126.3z"/>
	<path class="st78" d="M64.4,123.2c0.3,0.8,0.6,1.7,0.9,2.5c-2.3-0.1-2.6-1-1.6-3.8C63.9,122.3,64.1,122.7,64.4,123.2z"/>
	<path class="st51" d="M49,116.7c-0.3,0.3-0.6,0.6-0.8,0.9c-0.1-0.7,0.1-1.3,0.4-1.8C49.3,115.8,49.2,116.2,49,116.7z"/>
</g>
<text transform="matrix(1 0 0 1 99.9899 103.8735)" class="st1 st2 st3">Nov. 11 </text>
<text transform="matrix(1 0 0 1 99.9899 121.2735)" class="st1 st4 st3">Robert Morris </text>
<text transform="matrix(1 0 0 1 99.9899 138.6735)" class="st1 st4 st3">Moon, Pa.</text>
<text transform="matrix(1 0 0 1 99.9899 170.0371)" class="st1 st2 st3">Nov. 19 </text>
<text transform="matrix(1 0 0 1 99.9899 187.4371)" class="st1 st4 st3">Miami </text>
<text transform="matrix(1 0 0 1 99.9899 204.8371)" class="st1 st4 st3">Coral Gables, Fla.</text>
<rect x="30.2" y="158.9" class="st79" width="58.1" height="44.6"/>
<g id="_x30_MNtDk.tif">
	<g>
		<path class="st80" d="M31.8,194.5c-0.1-0.5-0.2-1-0.2-1.5c0-6.3,0-12.7,0-19c0-4.1,0-8.2,0-12.4c0-0.3,0-0.3,0.3-0.3
			c4.3,0,8.6,0,13,0c0.3,0,0.3,0,0.3,0.3c0,9,0,18.1,0,27.1c0,1.3,0.2,2.6,0.6,3.8c0.4,0.9,0.9,1.8,1.7,2.4c0.8,0.7,1.7,1.3,2.7,1.7
			s2,0.7,3,0.8c0.8,0.1,1.7,0.2,2.5,0.3c0.7,0,1.4,0.1,2.1,0.1c0.1,0,0.2,0.1,0.2,0.2c0,1.2,0,2.3,0,3.5c0,0.1,0,0.2-0.2,0.2
			c-1.6,0-3.1,0-4.7-0.1c-0.9-0.1-1.9-0.1-2.8-0.2c-1.6-0.1-3.1-0.3-4.7-0.5c-1.3-0.2-2.7-0.4-4-0.7c-1.7-0.4-3.3-0.9-4.9-1.5
			c-0.6-0.2-1.1-0.5-1.7-0.8c-0.9-0.5-1.7-1.1-2.3-1.8c-0.4-0.4-0.6-0.9-0.8-1.4C31.8,194.6,31.8,194.5,31.8,194.5z"/>
		<path class="st81" d="M72.7,200.8c-0.6,0.1-1.2,0.2-1.8,0.3c-1.2,0.2-2.4,0.3-3.6,0.4c-1.3,0.1-2.6,0.2-3.8,0.2
			c-1,0-2.1,0-3.1,0.1c-0.2,0-0.2,0-0.2-0.2c0-1.1,0-2.3,0-3.4c0-0.2,0-0.2,0.2-0.2c0.9,0,1.9-0.1,2.8-0.1c0.1,0,0.2,0,0.2,0
			c0.3,0,0.6-0.1,0.9-0.1c0.7-0.1,1.5-0.3,2.2-0.5c1.1-0.3,2.2-0.8,3.2-1.4c1.7-1.1,2.7-2.7,3.1-4.7c0.1-0.4,0.1-0.7,0.1-1.1
			c0.1-0.1,0-0.3,0-0.4c0-0.1,0-0.2,0-0.4c0-3,0-6,0-9.1c0-6.1,0-12.3,0-18.4c0-0.2,0.1-0.3,0.3-0.3c4.3,0,8.6,0,13,0
			c0.2,0,0.3,0.1,0.3,0.3c0,10.5,0,21,0,31.5c0,1-0.3,1.8-0.8,2.6c-0.6,0.7-1.3,1.3-2.1,1.8c-1.4,0.8-2.8,1.4-4.4,1.9
			c-1.7,0.5-3.4,0.9-5.1,1.2c-0.2,0-0.4,0-0.5,0.1C73.2,200.7,72.9,200.8,72.7,200.8z"/>
		<path class="st82" d="M72.8,189.1c0,0.2,0,0.4,0,0.6c0,0.1,0,0.1-0.1,0.1C72.7,189.6,72.7,189.4,72.8,189.1
			C72.7,189.1,72.7,189.1,72.8,189.1z"/>
		<path class="st83" d="M64.2,197.6c-0.3,0.1-0.6,0.1-0.9,0.1C63.5,197.6,63.9,197.6,64.2,197.6z"/>
		<path class="st84" d="M72.7,200.8c0.2-0.1,0.5-0.1,0.8-0.1C73.2,200.8,72.9,200.8,72.7,200.8z"/>
		<path class="st85" d="M31.8,194.5c0.1,0,0.1,0.1,0.1,0.1C31.8,194.6,31.8,194.5,31.8,194.5z"/>
	</g>
</g>
<text transform="matrix(1 0 0 1 99.3893 237.2062)" class="st1 st2 st3">Nov. 29 </text>
<text transform="matrix(1 0 0 1 99.3893 254.6062)" class="st1 st4 st3">Villanova </text>
<text transform="matrix(1 0 0 1 99.3893 272.0062)" class="st1 st4 st3">The Palestra</text>
<g>
	<path class="st86" d="M84.6,227.3H63.7v3.2c1.3,0.5,1.9,1.5,1.3,3c-2.3,5.9-5.8,14.9-5.8,14.9s-3.5-9-5.8-14.9
		c-0.6-1.5,0-2.5,1.3-3v-3.2H33.8v3.1c0,0,1.8,0.8,2.7,3.6c0.6,1.8,11,28.2,11.7,30c0.6,1.5,1.2,2.6-0.5,3v3.4h22.9V267
		c-1.7-0.3-1.1-1.5-0.5-3c0.7-1.8,11.1-28.3,11.7-30c1-2.8,2.7-3.6,2.7-3.6v-3.1L84.6,227.3L84.6,227.3z M82.8,229.4
		c-0.8,0.7-1.9,1.9-2.6,3.9c-0.4,1.1-4.7,12.1-11.6,29.7l-0.1,0.3l-0.1,0.3c-0.4,1.1-1,2.4-0.3,3.6c0.2,0.3,0.4,0.6,0.8,0.8v0.5
		H49.7V268c0.3-0.2,0.6-0.5,0.7-0.8c0.7-1.2,0.2-2.5-0.3-3.6l-0.1-0.3V263c-6.9-17.5-11.2-28.6-11.6-29.7c-0.7-2-1.8-3.3-2.6-3.9
		v-0.3h17.1v0.3c-0.6,0.5-1,1-1.2,1.4c-0.3,0.7-0.6,1.8,0,3.3l5.8,14.9l1.8,4.6l1.8-4.6l5.8-14.9c0.6-1.5,0.3-2.6,0-3.3
		c-0.2-0.4-0.6-1-1.2-1.4v-0.3h17.1V229.4z"/>
	<path class="st87" d="M84.6,227.3H63.7v3.2c1.3,0.5,1.9,1.5,1.3,3c-2.3,5.9-5.8,14.9-5.8,14.9s-3.5-9-5.8-14.9
		c-0.6-1.5,0-2.5,1.3-3v-3.2H33.8v3.1c0,0,1.8,0.8,2.7,3.6c0.6,1.8,11,28.2,11.7,30c0.6,1.5,1.2,2.6-0.5,3v3.4h22.9V267
		c-1.7-0.3-1.1-1.5-0.5-3c0.7-1.8,11.1-28.3,11.7-30c1-2.8,2.7-3.6,2.7-3.6v-3.1L84.6,227.3L84.6,227.3z"/>
	<polygon class="st88" points="57.5,269.6 60.9,269.6 77.2,227.9 74.3,227.9 59.2,266.4 44.1,227.9 41.2,227.9 	"/>
</g>
<text transform="matrix(1.0587 0 0 1 51.8379 32.0083)" class="st1 st2 st89">M. Hoops  </text>
<text transform="matrix(1.0587 0 0 1 43.0503 68.1084)" class="st1 st2 st89">Key Games</text>
</svg>
