<?xml version="1.0" encoding="utf-8"?>
<!-- Generator: Adobe Illustrator 19.0.0, SVG Export Plug-In . SVG Version: 6.00 Build 0)  -->
<svg version="1.1" id="Layer_1" xmlns="http://www.w3.org/2000/svg" xmlns:xlink="http://www.w3.org/1999/xlink" x="0px" y="0px"
	 viewBox="0 0 220.1 283.1" style="enable-background:new 0 0 220.1 283.1;" xml:space="preserve">
<style type="text/css">
	.st0{fill:#014563;}
	.st1{fill:#E73C26;}
</style>
<g>
	<g>
		<rect x="11.5" y="74" transform="matrix(0.7541 0.6568 -0.6568 0.7541 63.5223 14.3544)" class="st0" width="2.1" height="35.9"/>
	</g>
	<g>
		<rect x="19.8" y="74" transform="matrix(0.7541 0.6568 -0.6568 0.7541 65.5551 8.9163)" class="st0" width="2.1" height="35.9"/>
	</g>
	<g>
		<rect x="28.1" y="74" transform="matrix(0.7541 0.6568 -0.6568 0.7541 67.5935 3.4817)" class="st0" width="2.1" height="35.9"/>
	</g>
	<g>
		<rect x="36.4" y="74" transform="matrix(0.7541 0.6568 -0.6568 0.7541 69.6262 -1.9558)" class="st0" width="2.1" height="35.9"/>
	</g>
	<g>
		<rect x="44.6" y="74" transform="matrix(0.7541 0.6568 -0.6568 0.7541 71.6643 -7.3913)" class="st0" width="2.1" height="35.9"/>
	</g>
	<g>
		<rect x="52.9" y="74" transform="matrix(0.7541 0.6568 -0.6568 0.7541 73.7 -12.8267)" class="st0" width="2.1" height="35.9"/>
	</g>
	<g>
		<rect x="61.2" y="74" transform="matrix(0.7541 0.6568 -0.6568 0.7541 75.732 -18.2633)" class="st0" width="2.1" height="35.9"/>
	</g>
	<g>
		
			<rect x="69.5" y="74" transform="matrix(0.7541 0.6568 -0.6568 0.7541 77.7711 -23.6994)" class="st0" width="2.1" height="35.9"/>
	</g>
	<g>
		
			<rect x="77.8" y="74" transform="matrix(0.7541 0.6568 -0.6568 0.7541 79.8067 -29.1359)" class="st0" width="2.1" height="35.9"/>
	</g>
</g>
<g>
	<path class="st0" d="M31.1,28.3V8.7c0,0-0.1,0.6-1,1.9l-7.3,11.3l-7.1-11.4c-0.8-1.3-1-1.8-1-1.8v19.6h-5V0.4h5l8.1,13.1l8.3-13.1
		h5v27.8H31.1z"/>
	<path class="st0" d="M42.4,28.3V0.4h5v27.8H42.4z"/>
	<path class="st0" d="M64.6,28.6c-6.3,0-11.9-4.8-11.9-14.2C52.7,5,58.3,0,64.6,0c3.9,0,6.4,1.4,9,4.1l-3.5,3
		c-1.4-1.7-3.1-2.5-5.4-2.5c-3.9,0-7,3.5-7,9.9c0,6.2,3,9.5,7,9.5c2.1,0,3.6-0.7,5.4-2.6l3.7,2.9C70.9,27.2,68.4,28.6,64.6,28.6z"/>
	<path class="st0" d="M94.1,28.3V15.9H82.9v12.4h-5V0.4h5v10.9h11.3V0.4h5v27.8H94.1z"/>
	<path class="st0" d="M105.4,28.3V0.4h16.9V5h-11.9v6.4h8.6v4.5h-8.6v7.9h13.4v4.5H105.4z"/>
	<path class="st0" d="M127.8,28.3V0.4h5v23.3H144v4.5H127.8z"/>
	<path class="st0" d="M148.3,28.3V0.4h5v23.3h11.3v4.5H148.3z"/>
	<path class="st0" d="M168.9,28.3V0.4h16.9V5h-11.9v6.4h8.6v4.5h-8.6v7.9h13.4v4.5H168.9z"/>
	<path class="st0" d="M26.5,67.2l-8.6-13c-0.4-0.6-0.8-1.5-0.8-1.5v14.6H9.5V39.4h6.9l8.6,13c0.5,0.8,0.9,1.6,0.9,1.6V39.4h7.5v27.8
		H26.5z"/>
	<path class="st0" d="M65.4,67.2h-6.6L55.6,58c-0.2-0.6-0.4-1.5-0.4-1.5S55,57.4,54.8,58l-3.4,9.2H45l-7.8-27.8h7.9l3.7,14.8
		c0.3,1.1,0.5,2.3,0.5,2.3s0.3-1.2,0.7-2.2l5.3-13.3l5.3,13.3c0.4,1.1,0.7,2.2,0.7,2.2s0.2-1.2,0.5-2.3l3.7-14.8h7.9L65.4,67.2z"/>
	<path class="st0" d="M87.2,67.6c-7.2,0-12.5-5.3-12.5-14.3c0-9,5.3-14.2,12.5-14.2c7.2,0,12.5,5.2,12.5,14.2
		C99.7,62.3,94.4,67.6,87.2,67.6z M87.2,45.8c-2.6,0-5,2.1-5,7.4c0,5.5,2.4,7.5,5,7.5c2.6,0,5.1-2,5.1-7.5
		C92.2,47.9,89.8,45.8,87.2,45.8z"/>
	<path class="st0" d="M120.4,67.2l-6.2-10.9l-1.9,2.4l0,8.5h-7.6V39.4h7.6v10.1c0,0,0.4-0.8,1-1.7l5.5-8.4h9.2l-8.5,11.5l10.1,16.4
		H120.4z"/>
	<path class="st0" d="M131.9,67.2V39.4h18.1v6.7h-10.6v4h7.4v5.8h-7.4v4.7h11.9v6.7H131.9z"/>
	<path class="st0" d="M165.2,67.2h-10V39.4h10c9,0,13.1,6.8,13.1,14.1C178.3,60.6,174,67.2,165.2,67.2z M165.2,46.1h-2.4v14.5h2.4
		c3.8,0,5.6-3.1,5.6-7.1C170.9,49.4,169,46.1,165.2,46.1z"/>
	<path class="st0" d="M183.2,67.2V39.4h7.6v27.8H183.2z"/>
</g>
<g>
	<path class="st0" d="M5.5,130.5H0.4l0.3-1.6h5.1L5.5,130.5z"/>
	<path class="st0" d="M18.7,134.9l-0.3-2.6h-4.3l-1.4,2.6h-2.3l6.8-11.7h2.2l1.6,11.7H18.7z M17.8,126.4c0-0.4-0.1-0.5-0.1-0.8
		l-2.6,4.9h3.1L17.8,126.4z"/>
	<path class="st0" d="M29.5,134.9h-6.8l2.5-11.7h2.1l-2.1,9.8h4.7L29.5,134.9z"/>
	<path class="st0" d="M38.1,134.9h-6.8l2.5-11.7h2.1l-2.1,9.8h4.7L38.1,134.9z"/>
	<path class="st0" d="M45.5,130.5h-5.1l0.3-1.6h5.1L45.5,130.5z"/>
	<path class="st0" d="M49,134.9h-2.1l2.5-11.7h2.1L49,134.9z"/>
	<path class="st0" d="M56.6,134.9h-2l-1.5-11.7h2.1l0.9,8.7l4.6-8.7h2.3L56.6,134.9z"/>
	<path class="st0" d="M68.1,130.7l-0.9,4.2h-2.1l0.9-4.4l-2.3-7.4h2.2l1.5,5.4l3.8-5.4h2.5L68.1,130.7z"/>
	<path class="st0" d="M71.6,137.3H70l2.2-4.7h2.4L71.6,137.3z"/>
	<path class="st0" d="M87.9,134.9l-0.3-2.6h-4.3l-1.4,2.6h-2.3l6.8-11.7h2.2l1.6,11.7H87.9z M86.9,126.4c0-0.4,0-0.5,0-0.8l-2.6,4.9
		h3.1L86.9,126.4z"/>
	<path class="st0" d="M98.6,134.9h-6.8l2.5-11.7h2.1l-2.1,9.8H99L98.6,134.9z"/>
	<path class="st0" d="M107.3,134.9h-6.8l2.5-11.7h2.1l-2.1,9.8h4.7L107.3,134.9z"/>
	<path class="st0" d="M114.7,130.5h-5.1l0.3-1.6h5.1L114.7,130.5z"/>
	<path class="st0" d="M123.7,128.4c1.1,0.4,1.4,1.3,1.4,2.3c0,2.4-2,4.2-4.9,4.2h-4.1l2.5-11.7h3.4c2.1,0,3.4,0.9,3.4,2.5
		C125.3,126.4,125,127.6,123.7,128.4z M121.3,129.6h-2l-0.7,3.3h1.8c1.5,0,2.6-0.8,2.6-2.2C123,130,122.5,129.6,121.3,129.6z
		 M121.6,125.1h-1.4l-0.6,2.7h1.2c1.3,0,2.3-0.5,2.3-1.8C123.2,125.3,122.6,125.1,121.6,125.1z"/>
	<path class="st0" d="M128.5,134.9h-2.1l2.5-11.7h2.1L128.5,134.9z"/>
	<path class="st0" d="M139.7,125.9c-0.7-0.7-1.2-1-2-1c-3,0-3.9,4-3.9,5.6c0,1.3,0.4,2.5,2,2.5c0.7,0,1.5-0.3,2.3-0.9l0.3-1.2h-1.3
		l0.4-1.8h3.4l-0.8,3.7c-1.1,1.3-2.7,2.2-4.5,2.2c-2.8,0-3.9-1.9-3.9-4.2c0-3.4,2-7.8,6.3-7.8c1.4,0,2.3,0.5,3.4,1.7L139.7,125.9z"
		/>
	<path class="st0" d="M155.5,125.1h-4.1l-0.7,2c0.2,0,0.5,0,0.7,0c2.1,0,3.8,1.1,3.8,3.3c0,2.8-2.1,4.7-5,4.7c-1.7,0-3.3-0.9-4-2.5
		l1.8-0.8c0.4,0.8,1.3,1.4,2.3,1.4c1.6,0,2.8-1,2.8-2.5c0-1.4-1.2-1.9-2.5-1.9c-1.1,0-2.1,0.2-3,0.6l2.3-6.1h5.9L155.5,125.1z"/>
	<path class="st0" d="M5.5,151.6H0.4l0.3-1.6h5.1L5.5,151.6z"/>
	<path class="st1" d="M14.1,156h-2.7l2.5-11.7h2.7L14.1,156z"/>
	<path class="st1" d="M22.1,156h-2.4l-1.6-11.7h2.8l0.8,7.8l4.1-7.8h2.9L22.1,156z"/>
	<path class="st1" d="M34.3,152.1l-0.8,4h-2.7l0.9-4.2l-2.4-7.6h2.9l1.3,5l3.4-5H40L34.3,152.1z"/>
	<path class="st1" d="M49.7,151.2L52,156h-3l-1.8-4.5h-0.9l-1,4.5h-2.7l2.5-11.7h4.1c2,0,3.5,1,3.5,2.9
		C52.7,149.1,51.6,150.6,49.7,151.2z M47.9,149.3c1.2,0,2.1-0.5,2.1-1.7c0-0.6-0.4-0.9-1.3-0.9h-1.4l-0.6,2.6H47.9z"/>
	<path class="st1" d="M58.1,156.1c-2.9,0-4.5-1.9-4.5-4.7c0-3.6,2.3-7.3,6.2-7.3c2.9,0,4.5,1.9,4.5,4.7
		C64.3,152.4,61.9,156.1,58.1,156.1z M59.7,146.6c-2.3,0-3.5,2.8-3.5,4.8c0,1.2,0.6,2.3,1.9,2.3c2.3,0,3.4-2.8,3.4-4.8
		C61.6,147.7,61,146.6,59.7,146.6z"/>
	<path class="st1" d="M70.1,156.1c-2.9,0-4.5-1.9-4.5-4.7c0-3.6,2.3-7.3,6.2-7.3c2.9,0,4.5,1.9,4.5,4.7
		C76.3,152.4,74,156.1,70.1,156.1z M71.7,146.6c-2.3,0-3.5,2.8-3.5,4.8c0,1.2,0.6,2.3,1.9,2.3c2.3,0,3.4-2.8,3.4-4.8
		C73.6,147.7,73.1,146.6,71.7,146.6z"/>
	<path class="st1" d="M83.8,149.2l3,6.8h-3.1l-2-5l-1.2,1.2l-0.8,3.7H77l2.5-11.7h2.7l-1,4.5l4.1-4.5h3.3L83.8,149.2z"/>
	<path class="st1" d="M90.6,156h-2.7l2.5-11.7h2.7L90.6,156z"/>
	<path class="st1" d="M102.7,146.7h-4.9l-0.5,2.2h3.5l-0.5,2.3h-3.5l-0.5,2.5h5.4l-0.5,2.4h-8.1l2.5-11.7h7.5L102.7,146.7z"/>
	<path class="st1" d="M111.7,156.1c-2.9,0-4.5-1.9-4.5-4.7c0-3.6,2.3-7.3,6.2-7.3c2.9,0,4.5,1.9,4.5,4.7
		C117.9,152.4,115.5,156.1,111.7,156.1z M113.3,146.6c-2.3,0-3.5,2.8-3.5,4.8c0,1.2,0.6,2.3,1.9,2.3c2.3,0,3.4-2.8,3.4-4.8
		C115.2,147.7,114.7,146.6,113.3,146.6z"/>
	<path class="st1" d="M128.2,146.7h-5l-0.5,2.2h3.6l-0.5,2.3h-3.6l-1.1,4.9h-2.7l2.5-11.7h7.6L128.2,146.7z"/>
	<path class="st1" d="M140.9,146.7H138l-2,9.3h-2.7l2-9.3h-2.9l0.5-2.4h8.5L140.9,146.7z"/>
	<path class="st1" d="M149.7,156H147l1.1-5h-3.9l-1.1,5h-2.7l2.5-11.7h2.7l-0.9,4.4h3.9l0.9-4.4h2.7L149.7,156z"/>
	<path class="st1" d="M161.8,146.7h-4.9l-0.5,2.2h3.5l-0.5,2.3H156l-0.5,2.5h5.4l-0.5,2.4h-8.1l2.5-11.7h7.5L161.8,146.7z"/>
	<path class="st1" d="M172.2,152.1l-0.8,4h-2.7l0.9-4.2l-2.4-7.6h2.9l1.3,5l3.4-5h3.1L172.2,152.1z"/>
	<path class="st1" d="M186.5,146.7h-4.9l-0.5,2.2h3.5l-0.5,2.3h-3.5l-0.5,2.5h5.4l-0.5,2.4h-8.1l2.5-11.7h7.5L186.5,146.7z"/>
	<path class="st1" d="M193.9,156l-0.3-2.2h-3.9l-1.2,2.2h-2.9l6.6-11.7h2.8l1.5,11.7H193.9z M193.1,148.2c0-0.5,0-0.8,0-0.8
		l-2.1,4.1h2.4L193.1,148.2z"/>
	<path class="st1" d="M205.2,151.2l2.2,4.8h-3l-1.8-4.5h-0.9l-1,4.5h-2.7l2.5-11.7h4.1c2,0,3.5,1,3.5,2.9
		C208.2,149.1,207.1,150.6,205.2,151.2z M203.4,149.3c1.2,0,2.1-0.5,2.1-1.7c0-0.6-0.4-0.9-1.3-0.9h-1.4l-0.6,2.6H203.4z"/>
	<path class="st0" d="M5.5,172.8H0.4l0.3-1.6h5.1L5.5,172.8z"/>
	<path class="st0" d="M20.6,167.4h-3l-2.1,9.8h-2.1l2.1-9.8h-3l0.4-1.9H21L20.6,167.4z"/>
	<path class="st0" d="M29,177.2h-2.1L28,172h-4.7l-1.1,5.2h-2.1l2.5-11.7h2.1l-1,4.6h4.7l1-4.6h2.1L29,177.2z"/>
	<path class="st0" d="M38.1,172.2l2.7,5h-2.5l-2.3-4.8h-1.2l-1,4.8h-2.1l2.5-11.7h3.8c2,0,3.4,0.9,3.4,2.7
		C41.3,170.2,40,171.5,38.1,172.2z M37.6,167.4h-1.7l-0.7,3.1h1.5c1.4,0,2.5-0.7,2.5-2C39.2,167.8,38.7,167.4,37.6,167.4z"/>
	<path class="st0" d="M51.1,167.4h-5l-0.6,2.7h3.6l-0.4,1.9h-3.6l-0.7,3.3h5.6l-0.4,1.9h-7.7l2.5-11.7h7.1L51.1,167.4z"/>
	<path class="st0" d="M60.6,167.4h-5L55,170h3.6l-0.4,1.9h-3.6l-0.7,3.3h5.6l-0.4,1.9h-7.7l2.5-11.7H61L60.6,167.4z"/>
	<path class="st0" d="M66.4,172.8h-5.1l0.3-1.6h5.1L66.4,172.8z"/>
	<path class="st0" d="M77,167.4h-3l-2.1,9.8h-2.1l2.1-9.8h-3l0.4-1.9h8.1L77,167.4z"/>
	<path class="st0" d="M78.6,177.2h-2.1l2.5-11.7h2.1L78.6,177.2z"/>
	<path class="st0" d="M92.4,177.2h-2.1l1.8-8.3l-4.6,5.7l-2.2-5.6l-1.8,8.3h-2.1l2.5-11.7h2L88,171l4.7-5.5h2.2L92.4,177.2z"/>
	<path class="st0" d="M104.2,167.4h-5l-0.6,2.7h3.6l-0.4,1.9h-3.6l-0.7,3.3h5.6l-0.4,1.9H95l2.5-11.7h7.1L104.2,167.4z"/>
	<path class="st0" d="M111.1,177.2H109l2.5-11.7h2.1L111.1,177.2z"/>
	<path class="st0" d="M118.7,177.2h-2l-1.5-11.7h2.1l0.9,8.7l4.6-8.7h2.3L118.7,177.2z"/>
	<path class="st0" d="M130.1,173l-0.9,4.2h-2.1l0.9-4.4l-2.3-7.4h2.2l1.5,5.4l3.8-5.4h2.5L130.1,173z"/>
	<path class="st0" d="M144.3,172.4h-1.8l-1,4.8h-2.1l2.5-11.7h3.8c2,0,3.4,1,3.4,2.7C149,171,146.7,172.4,144.3,172.4z M145.3,167.4
		h-1.8l-0.7,3.1h1.6c1.5,0,2.5-0.8,2.5-2C147,167.8,146.5,167.4,145.3,167.4z"/>
	<path class="st0" d="M156,177.2h-6.8l2.5-11.7h2.1l-2.1,9.8h4.7L156,177.2z"/>
	<path class="st0" d="M165.1,177.2l-0.3-2.6h-4.3l-1.4,2.6h-2.3l6.8-11.7h2.2l1.6,11.7H165.1z M164.2,168.7c0-0.4-0.1-0.5-0.1-0.8
		l-2.6,4.9h3.1L164.2,168.7z"/>
	<path class="st0" d="M172.8,173l-0.9,4.2h-2.1l0.9-4.4l-2.3-7.4h2.2l1.5,5.4l3.8-5.4h2.5L172.8,173z"/>
	<path class="st0" d="M186.7,167.4h-5l-0.6,2.7h3.6l-0.4,1.9h-3.6l-0.7,3.3h5.6l-0.4,1.9h-7.7l2.5-11.7h7.1L186.7,167.4z"/>
	<path class="st0" d="M193.3,172.2l2.7,5h-2.5l-2.3-4.8H190l-1,4.8h-2.1l2.5-11.7h3.7c2,0,3.4,0.9,3.4,2.7
		C196.5,170.2,195.3,171.5,193.3,172.2z M192.8,167.4H191l-0.7,3.1h1.5c1.4,0,2.5-0.7,2.5-2C194.4,167.8,193.9,167.4,192.8,167.4z"
		/>
	<path class="st0" d="M13.9,198.5c-2.8,0-4.3-1.9-4.3-4.6c0-3.4,2.2-7.4,6-7.4c2.8,0,4.3,1.9,4.3,4.6
		C19.9,194.5,17.8,198.5,13.9,198.5z M15.5,188.4c-2.6,0-3.8,3.2-3.8,5.4c0,1.5,0.7,2.6,2.3,2.6c2.6,0,3.8-3.2,3.8-5.4
		C17.8,189.6,17.1,188.4,15.5,188.4z"/>
	<path class="st0" d="M30,188.5h-5.1l-0.6,2.7H28l-0.4,1.9h-3.7l-1.1,5.2h-2.1l2.5-11.7h7.2L30,188.5z"/>
	<path class="st0" d="M43.3,188.5h-3l-2.1,9.8h-2.1l2.1-9.8h-3l0.4-1.9h8.1L43.3,188.5z"/>
	<path class="st0" d="M51.8,198.3h-2.1l1.1-5.2H46l-1.1,5.2h-2.1l2.5-11.7h2.1l-1,4.6h4.7l1-4.6h2.1L51.8,198.3z"/>
	<path class="st0" d="M63.6,188.5h-5l-0.6,2.7h3.6l-0.4,1.9h-3.6l-0.7,3.3h5.6l-0.4,1.9h-7.7l2.5-11.7H64L63.6,188.5z"/>
	<path class="st0" d="M78.8,198.3h-2l-0.7-6.2l-3.3,6.2h-2.1l-0.7-11.7h2.2l0.4,8.5l4.6-8.4l1.1,8.4l4-8.6h2.3L78.8,198.3z"/>
	<path class="st0" d="M92.9,188.5h-5l-0.6,2.7h3.6l-0.4,1.9h-3.6l-0.7,3.3h5.6l-0.4,1.9h-7.7l2.5-11.7h7.1L92.9,188.5z"/>
	<path class="st0" d="M102.3,188.5h-5l-0.6,2.7h3.6l-0.4,1.9h-3.6l-0.7,3.3h5.6l-0.4,1.9h-7.7l2.5-11.7h7.1L102.3,188.5z"/>
	<path class="st0" d="M108.4,191.5l3.2,6.8h-2.4l-2.3-5.4l-1.5,1.4l-0.9,4h-2.1l2.5-11.7h2.1l-1.1,4.9l4.9-4.9h2.6L108.4,191.5z"/>
	<path class="st0" d="M5.5,215.1H0.4l0.3-1.6h5.1L5.5,215.1z"/>
	<path class="st1" d="M18.7,211.9c1.1,0.5,1.8,1.7,1.8,2.9c0,2.8-2.3,4.9-5.2,4.9c-2,0-3.6-1.2-4.1-2.9l2.4-1c0.2,0.8,1,1.4,1.9,1.4
		c1.3,0,2.3-0.9,2.3-2.2c0-1.4-1.6-1.8-3-1.6l2.9-3.2h-4.4l0.5-2.4h8.6L18.7,211.9z"/>
	<path class="st1" d="M25.9,211.1l1.3,2.8h-1.8l-1.1-2.6h-0.5l-0.6,2.6h-1.6l1.5-6.8h2.4c1.2,0,2,0.6,2,1.7
		C27.6,209.9,27,210.7,25.9,211.1z M24.9,210c0.7,0,1.2-0.3,1.2-1c0-0.3-0.2-0.5-0.8-0.5h-0.8l-0.3,1.5H24.9z"/>
	<path class="st1" d="M30.3,213.9h-2.4l1.5-6.8h2.3c1.6,0,2.6,1,2.6,2.6C34.2,211.9,32.6,213.9,30.3,213.9z M31.5,208.5h-0.8
		l-0.9,4.1h0.7c1.4,0,2.2-1.5,2.2-2.7C32.7,209,32.3,208.5,31.5,208.5z"/>
	<path class="st0" d="M41.3,219.5h-2.1l2.5-11.7h2.1L41.3,219.5z"/>
	<path class="st0" d="M53.4,219.5h-2l-3.5-8.4l-1.8,8.4H44l2.5-11.7h2l3.5,8.4l1.8-8.4h2.1L53.4,219.5z"/>
	<path class="st0" d="M67.9,219.5l-0.3-2.6h-4.3l-1.4,2.6h-2.3l6.8-11.7h2.2l1.6,11.7H67.9z M66.9,211c0-0.4-0.1-0.5-0.1-0.8
		l-2.6,4.9h3.1L66.9,211z"/>
	<path class="st0" d="M78.6,219.5h-6.8l2.5-11.7h2.1l-2.1,9.8H79L78.6,219.5z"/>
	<path class="st0" d="M87.3,219.5h-6.8l2.5-11.7H85l-2.1,9.8h4.7L87.3,219.5z"/>
	<path class="st0" d="M102.8,209.7h-3l-2.1,9.8h-2.1l2.1-9.8h-3l0.4-1.9h8.1L102.8,209.7z"/>
	<path class="st0" d="M104.4,219.5h-2.1l2.5-11.7h2.1L104.4,219.5z"/>
	<path class="st0" d="M118.1,219.5H116l1.8-8.3l-4.6,5.7l-2.2-5.6l-1.8,8.3H107l2.5-11.7h2l2.2,5.5l4.7-5.5h2.2L118.1,219.5z"/>
	<path class="st0" d="M130,209.7h-5l-0.6,2.7h3.6l-0.4,1.9H124l-0.7,3.3h5.6l-0.4,1.9h-7.7l2.5-11.7h7.1L130,209.7z"/>
	<path class="st0" d="M142.4,213c1.1,0.4,1.4,1.3,1.4,2.3c0,2.4-2,4.2-4.9,4.2h-4.1l2.5-11.7h3.4c2.1,0,3.4,0.9,3.4,2.5
		C144,211.1,143.7,212.3,142.4,213z M140,214.2h-2l-0.7,3.3h1.8c1.5,0,2.6-0.8,2.6-2.2C141.7,214.7,141.2,214.2,140,214.2z
		 M140.3,209.7h-1.4l-0.6,2.7h1.2c1.3,0,2.3-0.5,2.3-1.8C141.9,210,141.3,209.7,140.3,209.7z"/>
	<path class="st0" d="M151.9,219.5H145l2.5-11.7h2.1l-2.1,9.8h4.7L151.9,219.5z"/>
	<path class="st0" d="M157.7,219.6c-2.8,0-4.3-1.9-4.3-4.6c0-3.4,2.2-7.4,6-7.4c2.8,0,4.3,1.9,4.3,4.6
		C163.7,215.6,161.6,219.6,157.7,219.6z M159.3,209.6c-2.6,0-3.8,3.2-3.8,5.4c0,1.5,0.7,2.6,2.3,2.6c2.6,0,3.8-3.2,3.8-5.4
		C161.6,210.8,160.9,209.6,159.3,209.6z"/>
	<path class="st0" d="M173.3,210.6c-0.6-0.8-1.2-1.1-2-1.1c-2.6,0-4.1,3.3-4.1,5.6c0,1.7,0.9,2.6,2.2,2.6c0.8,0,1.5-0.3,2.5-1.1
		l1.3,1.3c-1.6,1.3-2.7,1.8-4.1,1.8c-2.8,0-4-2.1-4-4.5c0-3.4,2.4-7.5,6.3-7.5c1.5,0,2.4,0.5,3.5,1.8L173.3,210.6z"/>
	<path class="st0" d="M180.6,212.7l3.2,6.8h-2.4l-2.3-5.4l-1.5,1.4l-0.9,4h-2.1l2.5-11.7h2.1l-1.1,4.9l4.9-4.9h2.6L180.6,212.7z"/>
	<path class="st0" d="M192.2,210.2c-0.5-0.4-1.4-0.7-2-0.7c-0.9,0-1.7,0.5-1.7,1.5c0,1.7,4.2,1.9,4.2,4.9c0,2.4-1.8,3.9-4.2,3.9
		c-1.5,0-3-0.7-4-1.9l1.7-1.3c0.5,0.7,1.5,1.3,2.4,1.3c1.1,0,1.9-0.7,1.9-1.8c0-1.8-4.2-2-4.2-4.8c0-2.4,1.8-3.7,4.1-3.7
		c1.3,0,2.6,0.6,3.5,1.4L192.2,210.2z"/>
	<path class="st0" d="M19.3,240.6h-2l-0.7-6.2l-3.3,6.2h-2.1l-0.7-11.7h2.2l0.4,8.5l4.6-8.4l1.1,8.4l4-8.6H25L19.3,240.6z"/>
	<path class="st0" d="M26.3,240.6h-2.1l2.5-11.7h2.1L26.3,240.6z"/>
	<path class="st0" d="M38.1,230.8h-3l-2.1,9.8h-2.1l2.1-9.8h-3l0.4-1.9h8.1L38.1,230.8z"/>
	<path class="st0" d="M46.6,240.6h-2.1l1.1-5.2h-4.7l-1.1,5.2h-2.1l2.5-11.7h2.1l-1,4.6H46l1-4.6H49L46.6,240.6z"/>
	<path class="st0" d="M55.9,240.6h-2.1l2.5-11.7h2.1L55.9,240.6z"/>
	<path class="st0" d="M66.4,236.3h1.3l-0.4,1.9H66l-0.5,2.4h-2.1l0.5-2.4h-6.5l8.4-9.3H68L66.4,236.3z M61.5,236.3h2.8l0.9-4
		L61.5,236.3z"/>
	<path class="st0" d="M73.1,240.6h-3.2c2.1-1.3,3.6-2.5,5-4.5c-0.5,0.2-1,0.3-1.5,0.3c-2,0-3.6-1.3-3.6-3.4c0-2.3,1.9-4.3,4.3-4.3
		c2.4,0,4.1,1.5,4.1,4C78.2,235.9,75.5,238.9,73.1,240.6z M74.1,230.7c-1.2,0-2.2,1-2.2,2.2c0,1.2,1,1.7,2.1,1.7
		c0.6,0,1.2-0.2,1.8-0.4c0.2-0.5,0.4-1,0.4-1.5C76.2,231.5,75.4,230.7,74.1,230.7z"/>
	<path class="st0" d="M92.2,231.7c-0.6-0.8-1.2-1.1-2-1.1c-2.6,0-4.1,3.3-4.1,5.6c0,1.7,0.9,2.6,2.2,2.6c0.8,0,1.5-0.3,2.5-1.1
		l1.3,1.3c-1.6,1.3-2.7,1.8-4.1,1.8c-2.8,0-4-2.1-4-4.5c0-3.4,2.4-7.5,6.3-7.5c1.5,0,2.4,0.5,3.5,1.8L92.2,231.7z"/>
	<path class="st0" d="M100.9,240.6l-0.3-2.6h-4.3l-1.4,2.6h-2.3l6.8-11.7h2.2l1.6,11.7H100.9z M99.9,232.2c0-0.4,0-0.5,0-0.8
		l-2.6,4.9h3.1L99.9,232.2z"/>
	<path class="st0" d="M111.2,235.7l2.7,5h-2.5l-2.3-4.8h-1.2l-1,4.8h-2.1l2.5-11.7h3.8c2,0,3.4,0.9,3.4,2.7
		C114.4,233.7,113.1,235,111.2,235.7z M110.6,230.8h-1.7l-0.7,3.1h1.5c1.4,0,2.5-0.7,2.5-2C112.3,231.2,111.8,230.8,110.6,230.8z"/>
	<path class="st0" d="M124.2,230.8h-5l-0.6,2.7h3.6l-0.4,1.9h-3.6l-0.7,3.3h5.6l-0.4,1.9H115l2.5-11.7h7.1L124.2,230.8z"/>
	<path class="st0" d="M133.6,230.8h-5l-0.6,2.7h3.6l-0.4,1.9h-3.6l-0.7,3.3h5.6l-0.4,1.9h-7.7l2.5-11.7h7.1L133.6,230.8z"/>
	<path class="st0" d="M140.3,235.7l2.7,5h-2.5l-2.3-4.8H137l-1,4.8h-2.1l2.5-11.7h3.8c2,0,3.4,0.9,3.4,2.7
		C143.5,233.7,142.2,235,140.3,235.7z M139.8,230.8H138l-0.7,3.1h1.5c1.4,0,2.5-0.7,2.5-2C141.4,231.2,140.9,230.8,139.8,230.8z"/>
	<path class="st0" d="M156.3,234.2c1.1,0.4,1.4,1.3,1.4,2.3c0,2.4-2,4.2-4.9,4.2h-4.1l2.5-11.7h3.4c2.1,0,3.4,0.9,3.4,2.5
		C157.9,232.2,157.6,233.4,156.3,234.2z M153.9,235.4h-2l-0.7,3.3h1.8c1.5,0,2.6-0.8,2.6-2.2C155.6,235.8,155.1,235.4,153.9,235.4z
		 M154.2,230.8h-1.4l-0.6,2.7h1.2c1.3,0,2.3-0.5,2.3-1.8C155.8,231.1,155.2,230.8,154.2,230.8z"/>
	<path class="st0" d="M165.8,240.6h-6.8l2.5-11.7h2.1l-2.1,9.8h4.7L165.8,240.6z"/>
	<path class="st0" d="M171.7,240.8c-2.8,0-4.3-1.9-4.3-4.6c0-3.4,2.2-7.4,6-7.4c2.8,0,4.3,1.9,4.3,4.6
		C177.6,236.8,175.5,240.8,171.7,240.8z M173.2,230.7c-2.6,0-3.8,3.2-3.8,5.4c0,1.5,0.7,2.6,2.3,2.6c2.6,0,3.8-3.2,3.8-5.4
		C175.5,231.9,174.9,230.7,173.2,230.7z"/>
	<path class="st0" d="M187.3,231.7c-0.6-0.8-1.2-1.1-2-1.1c-2.6,0-4.1,3.3-4.1,5.6c0,1.7,0.9,2.6,2.2,2.6c0.8,0,1.5-0.3,2.5-1.1
		l1.3,1.3c-1.6,1.3-2.7,1.8-4.1,1.8c-2.8,0-4-2.1-4-4.5c0-3.4,2.4-7.5,6.3-7.5c1.5,0,2.4,0.5,3.5,1.8L187.3,231.7z"/>
	<path class="st0" d="M194.6,233.9l3.2,6.8h-2.4l-2.3-5.4l-1.5,1.4l-0.9,4h-2.1l2.5-11.7h2.1l-1.1,4.9l4.9-4.9h2.6L194.6,233.9z"/>
	<path class="st0" d="M206.2,231.4c-0.5-0.4-1.4-0.7-2-0.7c-0.9,0-1.7,0.5-1.7,1.5c0,1.7,4.2,1.9,4.2,4.9c0,2.4-1.8,3.9-4.2,3.9
		c-1.5,0-3-0.7-4-1.9l1.7-1.3c0.5,0.7,1.5,1.3,2.4,1.3c1.1,0,1.9-0.7,1.9-1.8c0-1.8-4.2-2-4.2-4.8c0-2.4,1.8-3.7,4.1-3.7
		c1.3,0,2.6,0.6,3.5,1.4L206.2,231.4z"/>
	<path class="st0" d="M5.5,257.4H0.4l0.3-1.6h5.1L5.5,257.4z"/>
	<path class="st0" d="M17.1,261.8H15l2.5-11.7h2.1L17.1,261.8z"/>
	<path class="st0" d="M24.2,261.9c-2.6,0-3.6-2-3.6-4.4c0-3.3,1.7-7.5,5.5-7.5c2.6,0,3.7,1.9,3.7,4.4
		C29.8,257.9,28.1,261.9,24.2,261.9z M25.9,251.9c-2.5,0-3.3,3.6-3.3,5.6c0,1.2,0.4,2.5,1.8,2.5c2.5,0,3.3-3.5,3.3-5.6
		C27.7,253.2,27.4,251.9,25.9,251.9z"/>
	<path class="st0" d="M39.9,252h-3l-2.1,9.8h-2.1l2.1-9.8h-3l0.4-1.9h8.1L39.9,252z"/>
	<path class="st0" d="M48.4,261.8h-2.1l1.1-5.2h-4.7l-1.1,5.2h-2.1l2.5-11.7H44l-1,4.6h4.7l1-4.6h2.1L48.4,261.8z"/>
	<path class="st0" d="M62.9,261.8l-0.3-2.6h-4.3l-1.4,2.6h-2.3l6.8-11.7h2.2l1.6,11.7H62.9z M61.9,253.3c0-0.4-0.1-0.5-0.1-0.8
		l-2.6,4.9h3.1L61.9,253.3z"/>
	<path class="st0" d="M73.6,261.8h-6.8l2.5-11.7h2.1l-2.1,9.8H74L73.6,261.8z"/>
	<path class="st0" d="M82.3,261.8h-6.8l2.5-11.7H80l-2.1,9.8h4.7L82.3,261.8z"/>
	<path class="st0" d="M97.8,252h-3l-2.1,9.8h-2.1l2.1-9.8h-3l0.4-1.9h8.1L97.8,252z"/>
	<path class="st0" d="M99.4,261.8h-2.1l2.5-11.7h2.1L99.4,261.8z"/>
	<path class="st0" d="M113.1,261.8H111l1.8-8.3l-4.6,5.7l-2.2-5.6l-1.8,8.3H102l2.5-11.7h2l2.2,5.5l4.7-5.5h2.2L113.1,261.8z"/>
	<path class="st0" d="M125,252h-5l-0.6,2.7h3.6l-0.4,1.9H119l-0.7,3.3h5.6l-0.4,1.9h-7.7l2.5-11.7h7.1L125,252z"/>
	<path class="st0" d="M137.1,261.8l-0.3-2.6h-4.3l-1.4,2.6h-2.3l6.8-11.7h2.2l1.6,11.7H137.1z M136.1,253.3c0-0.4,0-0.5,0-0.8
		l-2.6,4.9h3.1L136.1,253.3z"/>
	<path class="st0" d="M148.8,252h-3l-2.1,9.8h-2.1l2.1-9.8h-3l0.4-1.9h8.1L148.8,252z"/>
	<path class="st0" d="M157.8,257H156l-1,4.8h-2.1l2.5-11.7h3.8c2,0,3.4,1,3.4,2.7C162.5,255.6,160.3,257,157.8,257z M158.9,252h-1.8
		l-0.7,3.1h1.6c1.5,0,2.5-0.8,2.5-2C160.5,252.4,160,252,158.9,252z"/>
	<path class="st0" d="M171.9,252h-5l-0.6,2.7h3.6l-0.4,1.9h-3.6l-0.7,3.3h5.6l-0.4,1.9h-7.7l2.5-11.7h7.1L171.9,252z"/>
	<path class="st0" d="M181.5,261.8h-2l-3.5-8.4l-1.8,8.4h-2.1l2.5-11.7h2l3.5,8.4l1.8-8.4h2.1L181.5,261.8z"/>
	<path class="st0" d="M193.6,261.8h-2l-3.5-8.4l-1.8,8.4h-2.1l2.5-11.7h2l3.5,8.4l1.8-8.4h2.1L193.6,261.8z"/>
	<path class="st0" d="M21,283h-2l-0.7-6.2l-3.3,6.2h-2.1l-0.7-11.7h2.2l0.4,8.5l4.6-8.4l1.1,8.4l4-8.6h2.3L21,283z"/>
	<path class="st0" d="M27.9,283h-2.1l2.5-11.7h2.1L27.9,283z"/>
	<path class="st0" d="M39.7,273.2h-3l-2.1,9.8h-2.1l2.1-9.8h-3l0.4-1.9h8.1L39.7,273.2z"/>
	<path class="st0" d="M48.2,283h-2.1l1.1-5.2h-4.7l-1.1,5.2h-2.1l2.5-11.7h2.1l-1,4.6h4.7l1-4.6h2.1L48.2,283z"/>
	<path class="st1" d="M57.1,283h-2.7l2.5-11.7h2.7L57.1,283z"/>
	<path class="st1" d="M62.3,283h-2.9l6.7-9.4h-4.5l0.5-2.3h8.4L62.3,283z"/>
	<path class="st1" d="M77.2,283H73l2.5-11.7h3.9c2.8,0,4.4,1.6,4.4,4.4C83.8,279.4,81.2,283,77.2,283z M79.2,273.6h-1.4l-1.5,7h1.2
		c2.4,0,3.7-2.6,3.7-4.7C81.2,274.6,80.6,273.6,79.2,273.6z"/>
	<path class="st1" d="M89.8,283.1c-2.9,0-4.5-1.9-4.5-4.7c0-3.6,2.3-7.3,6.2-7.3c2.9,0,4.5,1.9,4.5,4.7
		C96,279.3,93.6,283.1,89.8,283.1z M91.4,273.5c-2.3,0-3.5,2.8-3.5,4.8c0,1.2,0.6,2.3,1.9,2.3c2.3,0,3.4-2.8,3.4-4.8
		C93.3,274.6,92.7,273.5,91.4,273.5z"/>
	<path class="st1" d="M107.2,278.3c-0.7,3.4-2.8,4.8-5.6,4.8c-2.7,0-4.7-1.8-4.1-5l1.5-6.8h2.7l-1.5,7.2c-0.4,1.7,0.5,2.3,1.7,2.3
		c1.3,0,2.3-0.8,2.7-2.5l1.5-6.9h2.7L107.2,278.3z"/>
	<path class="st1" d="M116.7,276.5c0.8,0.4,1.3,1.2,1.3,2.2c0,2.8-2.5,4.3-5,4.3h-4.4l2.5-11.7h3.7c1.6,0,3.5,0.6,3.5,2.5
		C118.2,275,117.6,275.9,116.7,276.5z M114.1,277.9h-1.7l-0.6,2.8h1.5c1.1,0,2.2-0.6,2.2-1.8C115.4,278.1,114.7,277.9,114.1,277.9z
		 M114.5,273.5h-1.2l-0.5,2.3h1c1,0,1.9-0.3,1.9-1.4C115.7,273.7,115,273.5,114.5,273.5z"/>
	<path class="st1" d="M126.5,283h-7.3l2.5-11.7h2.7l-2,9.3h4.6L126.5,283z"/>
	<path class="st1" d="M137.7,273.6h-4.9l-0.5,2.2h3.5l-0.5,2.3h-3.5l-0.5,2.5h5.4l-0.5,2.4h-8.1l2.5-11.7h7.5L137.7,273.6z"/>
	<path class="st1" d="M144.1,278.6h-5.6l0.4-1.8h5.6L144.1,278.6z"/>
	<path class="st1" d="M149.5,283h-4.1l2.5-11.7h3.9c2.8,0,4.4,1.6,4.4,4.4C156.2,279.4,153.5,283,149.5,283z M151.5,273.6h-1.4
		l-1.5,7h1.2c2.4,0,3.7-2.6,3.7-4.7C153.5,274.6,152.9,273.6,151.5,273.6z"/>
	<path class="st1" d="M162.1,283.1c-2.9,0-4.5-1.9-4.5-4.7c0-3.6,2.3-7.3,6.2-7.3c2.9,0,4.5,1.9,4.5,4.7
		C168.3,279.3,166,283.1,162.1,283.1z M163.7,273.5c-2.3,0-3.5,2.8-3.5,4.8c0,1.2,0.6,2.3,1.9,2.3c2.3,0,3.4-2.8,3.4-4.8
		C165.6,274.6,165.1,273.5,163.7,273.5z"/>
	<path class="st1" d="M179.6,278.3c-0.7,3.4-2.8,4.8-5.6,4.8c-2.7,0-4.7-1.8-4.1-5l1.5-6.8h2.7l-1.5,7.2c-0.4,1.7,0.5,2.3,1.7,2.3
		c1.3,0,2.3-0.8,2.7-2.5l1.5-6.9h2.7L179.6,278.3z"/>
	<path class="st1" d="M189,276.5c0.8,0.4,1.3,1.2,1.3,2.2c0,2.8-2.5,4.3-5,4.3h-4.4l2.5-11.7h3.7c1.6,0,3.5,0.6,3.5,2.5
		C190.6,275,190,275.9,189,276.5z M186.4,277.9h-1.7l-0.6,2.8h1.5c1.1,0,2.2-0.6,2.2-1.8C187.8,278.1,187,277.9,186.4,277.9z
		 M186.8,273.5h-1.2l-0.5,2.3h1c1,0,1.9-0.3,1.9-1.4C188,273.7,187.3,273.5,186.8,273.5z"/>
	<path class="st1" d="M198.8,283h-7.3l2.5-11.7h2.7l-2,9.3h4.6L198.8,283z"/>
	<path class="st1" d="M210,273.6h-4.9l-0.5,2.2h3.5l-0.5,2.3h-3.5l-0.5,2.5h5.4l-0.5,2.4h-8.1l2.5-11.7h7.5L210,273.6z"/>
	<path class="st1" d="M218.1,274.2c-0.6-0.5-1.5-0.8-2.2-0.8c-0.6,0-1.4,0.3-1.4,1.1c0,1.4,4.5,1.9,4.5,4.8c0,2.6-2,3.8-4.4,3.8
		c-1.7,0-3.5-0.8-4.6-2.2l2.2-1.5c0.6,0.8,1.7,1.3,2.6,1.3c0.7,0,1.6-0.4,1.6-1.2c0-1.4-4.5-2.1-4.5-4.8c0-2.5,2-3.7,4.3-3.7
		c1.6,0,3,0.6,4.1,1.7L218.1,274.2z"/>
</g>
<g>
	<path class="st1" d="M109.3,80.7h-5.2l-0.4,1.9h3.7l-0.6,2.9h-3.7l-1.1,5.2h-3.6l2.8-13.2h8.8L109.3,80.7z"/>
	<path class="st1" d="M115,90.8c-3.4,0-5.4-2.4-5.4-5.7c0-3.9,3-7.8,7-7.8c3.4,0,5.4,2.3,5.4,5.6C122.1,86.9,119.1,90.8,115,90.8z
		 M116.7,80.5c-2.1,0-3.4,2.8-3.4,4.7c0,1.2,0.5,2.5,1.9,2.5c2.1,0,3.4-2.8,3.4-4.7C118.6,81.8,118,80.5,116.7,80.5z"/>
	<path class="st1" d="M131.7,85.3l1.8,5.4h-3.9l-1.2-4.8h-1.1l-1,4.8h-3.6l2.8-13.2h4.9c2.4,0,4.1,1.2,4.1,3.4
		C134.5,82.9,133.5,84.7,131.7,85.3z M128.9,83c1,0,2-0.3,2-1.5c0-0.5-0.3-0.8-1.1-0.8h-1.3L128,83H128.9z"/>
	<path class="st1" d="M146.8,90.7h-3l-0.8-5.2l-3,5.2h-3l-0.9-13.2h3.7l0.3,8.1l4.4-7.5l1.2,7.6l3.7-8.1h3.9L146.8,90.7z"/>
	<path class="st1" d="M158.9,90.7l-0.3-2.3h-3.8l-1.3,2.3h-3.9l7.7-13.2h3.2l1.9,13.2H158.9z M158.2,82.7c0-0.3,0-0.8,0-1.1l-1.9,4
		h2.1L158.2,82.7z"/>
	<path class="st1" d="M173.2,85.3l1.8,5.4h-3.9l-1.2-4.8h-1.1l-1,4.8h-3.6l2.8-13.2h4.9c2.4,0,4.1,1.2,4.1,3.4
		C176,82.9,175,84.7,173.2,85.3z M170.4,83c1,0,2-0.3,2-1.5c0-0.5-0.3-0.8-1.1-0.8H170l-0.5,2.4H170.4z"/>
	<path class="st1" d="M181.4,90.7h-5l2.8-13.2h4.6c3.2,0,5.2,2.2,5.2,5.4C188.9,87.1,185.7,90.7,181.4,90.7z M183.3,80.7h-1.3
		l-1.5,6.9h0.9c2.4,0,3.8-2.6,3.8-4.7C185.3,81.5,184.7,80.7,183.3,80.7z"/>
	<path class="st0" d="M87.9,104.2l-1.2,2.3h-3.2l1.2-2.3h-1.4l0.5-2.5h2.2l0.9-1.9h-1.5l0.5-2.5h2.2l0.9-1.7h3.3l-0.9,1.7h1.3
		l0.9-1.7h3.2L96,97.3h1.4l-0.5,2.5h-2.1l-0.9,1.9h1.4l-0.5,2.5h-2.2l-1.2,2.3h-3.2l1.2-2.3H87.9z M90.2,99.8l-1,1.9h1.3l0.9-1.9
		H90.2z"/>
	<path class="st0" d="M108.4,105.2h-1.6l-0.5,2.5h-3.6l0.5-2.5H96l9.7-10.7h3.3l-1.6,7.5h1.6L108.4,105.2z M102.3,102h1.6l0.5-2.3
		L102.3,102z"/>
	<path class="st0" d="M118.7,99.1c1.2,0.6,2,1.9,2,3.3c0,3.2-3.1,5.4-6,5.4c-2.6,0-4.3-1.5-4.9-3.6l3.1-1.3c0.2,0.9,0.9,1.6,2.1,1.6
		c1.1,0,2.1-0.9,2.1-2.1c0-1.9-2-2.1-3.2-1.7l2.9-3.1h-4.7l0.7-3.2H123L118.7,99.1z"/>
	<path class="st1" d="M136.3,103.3c-0.5,2.4-2.2,4.5-5.5,4.5c-1.8,0-3.7-0.8-3.9-3.6l3.2-0.9c0.1,0.9,0.5,1.3,1,1.3
		c1,0,1.5-0.8,1.7-1.8l1.8-8.4h3.6L136.3,103.3z"/>
	<path class="st1" d="M150.3,102.4c-0.8,3.7-3.4,5.4-6.4,5.4c-4,0-5.5-2.5-4.8-5.7l1.6-7.7h3.6l-1.7,8.1c-0.3,1.6,0.5,2.1,1.5,2.1
		c1.2,0,2.2-0.6,2.6-2.5l1.6-7.7h3.6L150.3,102.4z"/>
	<path class="st1" d="M163.1,107.6h-3.2l-3.1-7l-1.5,7h-3.6l2.8-13.2h3.2l3.1,7.1l1.5-7.1h3.6L163.1,107.6z"/>
	<path class="st1" d="M169.5,107.6h-3.6l2.8-13.2h3.6L169.5,107.6z"/>
	<path class="st1" d="M178.3,107.8c-3.4,0-5.4-2.4-5.4-5.7c0-3.9,3-7.8,7-7.8c3.4,0,5.4,2.3,5.4,5.6
		C185.4,103.8,182.4,107.8,178.3,107.8z M179.9,97.5c-2.1,0-3.4,2.8-3.4,4.7c0,1.2,0.5,2.5,1.9,2.5c2.1,0,3.4-2.8,3.4-4.7
		C181.8,98.8,181.3,97.5,179.9,97.5z"/>
	<path class="st1" d="M195,102.3l1.8,5.4h-3.9l-1.2-4.8h-1.1l-1,4.8H186l2.8-13.2h4.9c2.4,0,4.1,1.2,4.1,3.4
		C197.8,99.9,196.8,101.6,195,102.3z M192.2,100c1,0,2-0.3,2-1.5c0-0.5-0.3-0.8-1.1-0.8h-1.3l-0.5,2.4H192.2z"/>
</g>
</svg>
