<?xml version="1.0" encoding="utf-8"?>
<!-- Generator: Adobe Illustrator 19.0.0, SVG Export Plug-In . SVG Version: 6.00 Build 0)  -->
<svg version="1.1" id="Layer_1" xmlns="http://www.w3.org/2000/svg" xmlns:xlink="http://www.w3.org/1999/xlink" x="0px" y="0px"
	 viewBox="0 0 225 282.3" style="enable-background:new 0 0 225 282.3;" xml:space="preserve">
<style type="text/css">
	.st0{fill:#014563;}
	.st1{fill:#E73C26;}
</style>
<g>
	<path class="st0" d="M23.6,28.9c-5,0-8.7-3.3-9.7-4.4l3.7-3.1c1.3,1.4,3.5,3,6,3c2.7,0,4.4-1.6,4.4-3.6c0-5.2-13.1-4.2-13.1-12.9
		C14.9,3.2,18.6,0,24,0c4.8,0,8.2,3.3,8.2,3.3l-3.6,3.2c0,0-1.9-1.9-4.5-1.9c-2.5,0-3.9,1.2-3.9,3.1c0,4.9,12.9,4,12.9,13
		C33.1,26.3,28.3,28.9,23.6,28.9z"/>
	<path class="st0" d="M54.9,28.4l-2.1-6.1H42.7l-2.1,6.1h-5.2l9.8-27.8h5l9.6,27.8H54.9z M48.2,8.2c-0.2-0.7-0.5-1.9-0.5-1.9
		s-0.3,1.2-0.5,1.9l-3.1,9.7h7.2L48.2,8.2z"/>
	<path class="st0" d="M85.1,28.4V8.8c0,0-0.1,0.6-1,1.9L76.8,22l-7.1-11.4c-0.8-1.3-1-1.8-1-1.8v19.6h-5V0.6h5l8.1,13.1l8.3-13.1h5
		v27.8H85.1z"/>
	<path class="st0" d="M32.7,57.8c0,5.1-2.9,9.9-9.9,9.9c-4.4,0-8.2-2.3-9.4-7.6l6.7-1.9c0.4,2,1.5,2.9,2.6,2.9
		c1.9,0,2.5-1.4,2.5-3.4V39.5h7.6V57.8z"/>
	<path class="st0" d="M49.9,67.7c-7.2,0-12.5-5.3-12.5-14.3c0-9,5.3-14.2,12.5-14.2c7.2,0,12.5,5.2,12.5,14.2
		C62.4,62.4,57.1,67.7,49.9,67.7z M49.9,46c-2.6,0-5,2.1-5,7.4c0,5.5,2.4,7.5,5,7.5c2.6,0,5.1-2,5.1-7.5C54.9,48.1,52.5,46,49.9,46z
		"/>
	<path class="st0" d="M84.3,67.4l-8.6-13c-0.4-0.6-0.8-1.5-0.8-1.5v14.6h-7.5V39.5h6.9l8.6,13c0.5,0.8,0.9,1.6,0.9,1.6V39.5h7.5
		v27.8H84.3z"/>
	<path class="st0" d="M97.1,67.4V39.5h18.1v6.7h-10.6v4h7.4V56h-7.4v4.7h11.9v6.7H97.1z"/>
	<path class="st0" d="M129.9,67.8c-5.4,0-9.2-3.2-10.9-5.6l5.3-4.1c2,2.2,4.1,3.2,5.8,3.2c1.9,0,2.7-1,2.7-2.1
		c0-3-12.6-3.5-12.6-11.9c0-5,4.3-8.4,10.2-8.4c5.6,0,9.5,4.3,9.5,4.3l-5,4.3c0,0-2.5-2-4.7-2c-1.9,0-2.4,0.8-2.4,1.6
		c0,2.9,12.7,3.3,12.7,11.9C140.4,65,134.9,67.8,129.9,67.8z"/>
</g>
<g>
	<path class="st0" d="M5.1,129.7H0l0.3-1.6h5.1L5.1,129.7z"/>
	<path class="st0" d="M13.1,134H11l2.5-11.7h2.1L13.1,134z"/>
	<path class="st0" d="M20.7,134h-2l-1.5-11.7h2.1l0.9,8.7l4.6-8.7h2.3L20.7,134z"/>
	<path class="st0" d="M32.2,129.8l-0.9,4.2h-2.1l0.9-4.4l-2.3-7.4h2.2l1.5,5.4l3.8-5.4h2.5L32.2,129.8z"/>
	<path class="st0" d="M46.3,129.3h-1.8l-1,4.8h-2.1l2.5-11.7h3.7c2,0,3.4,1,3.4,2.7C51,127.9,48.8,129.3,46.3,129.3z M47.4,124.2
		h-1.8l-0.7,3.1h1.6c1.5,0,2.5-0.8,2.5-2C49,124.6,48.5,124.2,47.4,124.2z"/>
	<path class="st0" d="M58,134h-6.8l2.5-11.7h2.1l-2.1,9.8h4.7L58,134z"/>
	<path class="st0" d="M67.1,134l-0.3-2.6h-4.3L61,134h-2.3l6.8-11.7h2.2l1.6,11.7H67.1z M66.2,125.6c0-0.4,0-0.5,0-0.8l-2.6,4.9h3.1
		L66.2,125.6z"/>
	<path class="st0" d="M74.8,129.8l-0.9,4.2h-2.1l0.9-4.4l-2.3-7.4h2.2l1.5,5.4l3.8-5.4h2.5L74.8,129.8z"/>
	<path class="st0" d="M88.7,124.2h-5l-0.6,2.7h3.6l-0.4,1.9h-3.6l-0.7,3.3h5.6l-0.4,1.9h-7.7l2.5-11.7h7.1L88.7,124.2z"/>
	<path class="st0" d="M95.3,129.1l2.7,5h-2.5l-2.3-4.8H92l-1,4.8h-2.1l2.5-11.7h3.8c2,0,3.4,0.9,3.4,2.7
		C98.5,127.1,97.3,128.4,95.3,129.1z M94.8,124.2h-1.7l-0.7,3.1H94c1.4,0,2.5-0.7,2.5-2C96.4,124.6,95.9,124.2,94.8,124.2z"/>
	<path class="st0" d="M108.7,134.2c-2.8,0-4.3-1.9-4.3-4.6c0-3.4,2.2-7.4,6-7.4c2.8,0,4.3,1.9,4.3,4.6
		C114.7,130.2,112.6,134.2,108.7,134.2z M110.3,124.1c-2.6,0-3.8,3.2-3.8,5.4c0,1.5,0.7,2.6,2.3,2.6c2.6,0,3.8-3.2,3.8-5.4
		C112.6,125.3,112,124.1,110.3,124.1z"/>
	<path class="st0" d="M124.8,124.2h-5.1l-0.6,2.7h3.7l-0.4,1.9h-3.7l-1.1,5.2h-2.1l2.5-11.7h7.2L124.8,124.2z"/>
	<path class="st0" d="M138.1,124.2h-3L133,134h-2.1l2.1-9.8h-3l0.4-1.9h8.1L138.1,124.2z"/>
	<path class="st0" d="M146.6,134h-2.1l1.1-5.2h-4.7l-1.1,5.2h-2.1l2.5-11.7h2.1l-1,4.6h4.7l1-4.6h2.1L146.6,134z"/>
	<path class="st0" d="M158.4,124.2h-5l-0.6,2.7h3.6l-0.4,1.9h-3.6l-0.7,3.3h5.6l-0.4,1.9h-7.7l2.5-11.7h7.1L158.4,124.2z"/>
	<path class="st0" d="M173.6,134h-2l-0.7-6.2l-3.3,6.2h-2.1l-0.7-11.7h2.2l0.4,8.5l4.6-8.4l1.1,8.4l4-8.6h2.3L173.6,134z"/>
	<path class="st0" d="M187.7,124.2h-5l-0.6,2.7h3.6l-0.4,1.9h-3.6l-0.7,3.3h5.6l-0.4,1.9h-7.7l2.5-11.7h7.1L187.7,124.2z"/>
	<path class="st0" d="M197.1,124.2h-5l-0.6,2.7h3.6l-0.4,1.9h-3.6l-0.7,3.3h5.6l-0.4,1.9h-7.7l2.5-11.7h7.1L197.1,124.2z"/>
	<path class="st0" d="M203.3,127.3l3.2,6.8h-2.4l-2.3-5.4l-1.5,1.4l-0.9,4h-2.1l2.5-11.7h2.1l-1.1,4.9l4.9-4.9h2.6L203.3,127.3z"/>
	<path class="st0" d="M5.1,150.8H0l0.3-1.6h5.1L5.1,150.8z"/>
	<path class="st1" d="M19.1,148.7c0.8,0.4,1.3,1.2,1.3,2.2c0,2.8-2.5,4.3-5,4.3H11l2.5-11.7h3.7c1.6,0,3.5,0.6,3.5,2.5
		C20.6,147.2,20,148.2,19.1,148.7z M16.5,150.1h-1.7l-0.6,2.8h1.5c1.1,0,2.2-0.6,2.2-1.8C17.8,150.4,17.1,150.1,16.5,150.1z
		 M16.9,145.7h-1.2l-0.5,2.3h1c1,0,1.9-0.3,1.9-1.4C18.1,145.9,17.4,145.7,16.9,145.7z"/>
	<path class="st1" d="M24.3,155.2h-2.7l2.5-11.7h2.7L24.3,155.2z"/>
	<path class="st1" d="M35.4,146.7c-0.7-0.8-1.2-1-1.9-1c-1.9,0-2.9,1.9-3.3,3.7c-0.3,1.3-0.5,3.6,1.5,3.6c0.7,0,1.4-0.3,2-0.8l0.2-1
		h-1.3l0.4-2H37l-0.8,4.1c-1.2,1.3-2.8,2.1-4.7,2.1c-3.7,0-4.5-3.2-3.9-6.2c0.6-3,2.6-5.8,6.1-5.8c1.4,0,2.6,0.5,3.8,2L35.4,146.7z"
		/>
	<path class="st1" d="M50.9,145.8h-4.1l-0.5,1.4c0.3,0,0.5,0,0.8,0c2,0,3.6,1.2,3.6,3.3c0,2.9-2.2,4.8-5.1,4.8c-1.9,0-3.5-1-4.1-2.8
		l2.3-1c0.3,0.8,1.1,1.4,2,1.4c1.3,0,2.3-0.8,2.3-2.1c0-1.2-1.2-1.6-2.1-1.6c-1.1,0-2.2,0.3-3.2,0.6l2.3-6.3h6.4L50.9,145.8z"/>
	<path class="st1" d="M60.7,150.9H59l-0.9,4.3h-2.7l2.5-11.7H62c2.2,0,3.8,1.4,3.3,3.9C64.8,149.7,62.8,150.9,60.7,150.9z
		 M61.5,145.9h-1.4l-0.6,2.7h1.1c1.1,0,1.9-0.4,2.1-1.3C62.9,146.4,62.6,145.9,61.5,145.9z"/>
	<path class="st1" d="M72.8,155.2h-7.3l2.5-11.7h2.7l-2,9.3h4.6L72.8,155.2z"/>
	<path class="st1" d="M81.7,155.2l-0.3-2.2h-3.9l-1.2,2.2h-2.9l6.6-11.7h2.8l1.5,11.7H81.7z M80.9,147.4c-0.1-0.5-0.1-0.8-0.1-0.8
		l-2.1,4.1h2.4L80.9,147.4z"/>
	<path class="st1" d="M90.5,151.2l-0.8,4H87l0.9-4.2l-2.4-7.6h2.9l1.3,5l3.4-5h3.1L90.5,151.2z"/>
	<path class="st1" d="M104.8,145.9h-4.9l-0.5,2.2h3.5l-0.5,2.3H99l-0.5,2.5h5.4l-0.5,2.4h-8.1l2.5-11.7h7.5L104.8,145.9z"/>
	<path class="st1" d="M112.1,150.4l2.2,4.8h-3l-1.8-4.5h-0.9l-1,4.5H105l2.5-11.7h4.1c2,0,3.5,1,3.5,2.9
		C115.1,148.3,114,149.7,112.1,150.4z M110.3,148.4c1.2,0,2.1-0.5,2.1-1.7c0-0.6-0.4-0.9-1.3-0.9h-1.4l-0.6,2.6H110.3z"/>
	<path class="st1" d="M124.3,155.3c-2.9,0-4.5-1.9-4.5-4.7c0-3.6,2.3-7.3,6.2-7.3c2.9,0,4.5,1.9,4.5,4.7
		C130.5,151.6,128.1,155.3,124.3,155.3z M125.9,145.8c-2.3,0-3.5,2.8-3.5,4.8c0,1.2,0.6,2.3,1.9,2.3c2.3,0,3.4-2.8,3.4-4.8
		C127.8,146.9,127.3,145.8,125.9,145.8z"/>
	<path class="st1" d="M140.8,145.9h-5l-0.5,2.2h3.6l-0.5,2.3h-3.6l-1.1,4.9h-2.7l2.5-11.7h7.6L140.8,145.9z"/>
	<path class="st1" d="M153.5,145.9h-2.9l-2,9.3h-2.7l2-9.3H145l0.5-2.4h8.5L153.5,145.9z"/>
	<path class="st1" d="M162.3,155.2h-2.7l1.1-5h-3.9l-1.1,5H153l2.5-11.7h2.7l-0.9,4.4h3.9l0.9-4.4h2.7L162.3,155.2z"/>
	<path class="st1" d="M174.4,145.9h-4.9l-0.5,2.2h3.5l-0.5,2.3h-3.5l-0.5,2.5h5.4l-0.5,2.4h-8.1l2.5-11.7h7.5L174.4,145.9z"/>
	<path class="st1" d="M189,155.2h-2.4l-0.7-5.6l-3,5.6h-2.4l-0.8-11.7h2.8l0.3,7.8l4.3-7.6l1.1,7.6l3.6-7.9h2.9L189,155.2z"/>
	<path class="st1" d="M203.4,145.9h-4.9L198,148h3.5l-0.5,2.3h-3.5l-0.5,2.5h5.4l-0.5,2.4h-8.1l2.5-11.7h7.5L203.4,145.9z"/>
	<path class="st1" d="M213.1,145.9h-4.9l-0.5,2.2h3.5l-0.5,2.3h-3.5l-0.5,2.5h5.4l-0.5,2.4h-8.1l2.5-11.7h7.5L213.1,145.9z"/>
	<path class="st1" d="M220.2,148.4l3,6.8h-3.1l-2-5l-1.2,1.2l-0.8,3.7h-2.7l2.5-11.7h2.7l-1,4.5l4.1-4.5h3.3L220.2,148.4z"/>
	<path class="st0" d="M5.1,172H0l0.3-1.6h5.1L5.1,172z"/>
	<path class="st0" d="M13.1,176.4H11l2.5-11.7h2.1L13.1,176.4z"/>
	<path class="st0" d="M20.7,176.4h-2l-1.5-11.7h2.1l0.9,8.7l4.6-8.7h2.3L20.7,176.4z"/>
	<path class="st0" d="M32.2,172.2l-0.9,4.2h-2.1l0.9-4.4l-2.3-7.4h2.2l1.5,5.4l3.8-5.4h2.5L32.2,172.2z"/>
	<path class="st0" d="M47.8,171.4l2.7,5H48l-2.3-4.8h-1.2l-1,4.8h-2.1l2.5-11.7h3.7c2,0,3.4,0.9,3.4,2.7
		C51,169.4,49.8,170.7,47.8,171.4z M47.3,166.6h-1.7l-0.7,3.1h1.5c1.4,0,2.5-0.7,2.5-2C48.9,167,48.4,166.6,47.3,166.6z"/>
	<path class="st0" d="M56.2,176.5c-2.8,0-4.3-1.9-4.3-4.6c0-3.4,2.2-7.4,6-7.4c2.8,0,4.3,1.9,4.3,4.6
		C62.2,172.5,60.1,176.5,56.2,176.5z M57.8,166.5c-2.6,0-3.8,3.2-3.8,5.4c0,1.5,0.7,2.6,2.3,2.6c2.6,0,3.8-3.2,3.8-5.4
		C60.1,167.7,59.4,166.5,57.8,166.5z"/>
	<path class="st0" d="M68,176.5c-2.8,0-4.3-1.9-4.3-4.6c0-3.4,2.2-7.4,6-7.4c2.8,0,4.3,1.9,4.3,4.6C73.9,172.5,71.8,176.5,68,176.5z
		 M69.6,166.5c-2.6,0-3.8,3.2-3.8,5.4c0,1.5,0.7,2.6,2.3,2.6c2.6,0,3.8-3.2,3.8-5.4C71.9,167.7,71.2,166.5,69.6,166.5z"/>
	<path class="st0" d="M80.7,169.6l3.2,6.8h-2.4l-2.3-5.4l-1.5,1.4l-0.9,4h-2.1l2.5-11.7h2.1l-1.1,4.9l4.9-4.9h2.6L80.7,169.6z"/>
	<path class="st0" d="M87.2,176.4h-2.1l2.5-11.7h2.1L87.2,176.4z"/>
	<path class="st0" d="M99,166.6h-5l-0.6,2.7H97l-0.4,1.9H93l-0.7,3.3h5.6l-0.4,1.9h-7.7l2.5-11.7h7.1L99,166.6z"/>
	<path class="st0" d="M108.8,176.5c-2.8,0-4.3-1.9-4.3-4.6c0-3.4,2.2-7.4,6-7.4c2.8,0,4.3,1.9,4.3,4.6
		C114.8,172.5,112.6,176.5,108.8,176.5z M110.4,166.5c-2.6,0-3.8,3.2-3.8,5.4c0,1.5,0.7,2.6,2.3,2.6c2.6,0,3.8-3.2,3.8-5.4
		C112.7,167.7,112,166.5,110.4,166.5z"/>
	<path class="st0" d="M124.8,166.6h-5.1l-0.6,2.7h3.7l-0.4,1.9h-3.7l-1.1,5.2h-2.1l2.5-11.7h7.2L124.8,166.6z"/>
	<path class="st0" d="M138.2,166.6h-3l-2.1,9.8H131l2.1-9.8h-3l0.4-1.9h8.1L138.2,166.6z"/>
	<path class="st0" d="M146.6,176.4h-2.1l1.1-5.2h-4.7l-1.1,5.2h-2.1l2.5-11.7h2.1l-1,4.6h4.7l1-4.6h2.1L146.6,176.4z"/>
	<path class="st0" d="M158.5,166.6h-5l-0.6,2.7h3.6l-0.4,1.9h-3.6l-0.7,3.3h5.6l-0.4,1.9h-7.7l2.5-11.7h7.1L158.5,166.6z"/>
	<path class="st0" d="M173.7,176.4h-2l-0.7-6.2l-3.3,6.2h-2.1l-0.7-11.7h2.2l0.4,8.5l4.6-8.4l1.1,8.4l4-8.6h2.3L173.7,176.4z"/>
	<path class="st0" d="M187.7,166.6h-5l-0.6,2.7h3.6l-0.4,1.9h-3.6l-0.7,3.3h5.6l-0.4,1.9h-7.7l2.5-11.7h7.1L187.7,166.6z"/>
	<path class="st0" d="M197.1,166.6h-5l-0.6,2.7h3.6l-0.4,1.9h-3.6l-0.7,3.3h5.6l-0.4,1.9h-7.7l2.5-11.7h7.1L197.1,166.6z"/>
	<path class="st0" d="M203.3,169.6l3.2,6.8h-2.4l-2.3-5.4l-1.5,1.4l-0.9,4h-2.1l2.5-11.7h2.1l-1.1,4.9l4.9-4.9h2.6L203.3,169.6z"/>
	<path class="st0" d="M5.1,193.1H0l0.3-1.6h5.1L5.1,193.1z"/>
	<path class="st1" d="M16.2,197.6c-2.9,0-4.5-1.9-4.5-4.7c0-3.6,2.3-7.3,6.2-7.3c2.9,0,4.5,1.9,4.5,4.7
		C22.4,193.9,20,197.6,16.2,197.6z M17.8,188.1c-2.3,0-3.5,2.8-3.5,4.8c0,1.2,0.6,2.3,1.9,2.3c2.3,0,3.4-2.8,3.4-4.8
		C19.7,189.2,19.1,188.1,17.8,188.1z"/>
	<path class="st1" d="M32.8,197.5h-2.5l-3-7.4l-1.6,7.4H23l2.5-11.7H28l3,7.4l1.6-7.4h2.7L32.8,197.5z"/>
	<path class="st1" d="M44.9,188.2H40l-0.5,2.2h3.5l-0.5,2.3h-3.5l-0.5,2.5H44l-0.5,2.4h-8.1l2.5-11.7h7.5L44.9,188.2z"/>
	<path class="st1" d="M53.9,197.6c-2.9,0-4.5-1.9-4.5-4.7c0-3.6,2.3-7.3,6.2-7.3c2.9,0,4.5,1.9,4.5,4.7
		C60.1,193.9,57.7,197.6,53.9,197.6z M55.5,188.1c-2.3,0-3.5,2.8-3.5,4.8c0,1.2,0.6,2.3,1.9,2.3c2.3,0,3.4-2.8,3.4-4.8
		C57.4,189.2,56.8,188.1,55.5,188.1z"/>
	<path class="st1" d="M70.4,188.2h-5l-0.5,2.2h3.6l-0.5,2.3h-3.6l-1.1,4.9h-2.7l2.5-11.7h7.6L70.4,188.2z"/>
	<path class="st1" d="M82,192.9h1.4l-0.5,2.3h-1.4l-0.5,2.3h-2.6l0.5-2.3h-6.4l8.5-9.4h2.6L82,192.9z M77.2,192.9h2.2l0.7-3.1
		L77.2,192.9z"/>
	<path class="st0" d="M93.9,197.6c-2.8,0-4.3-1.9-4.3-4.6c0-3.4,2.2-7.4,6-7.4c2.8,0,4.3,1.9,4.3,4.6
		C99.9,193.6,97.8,197.6,93.9,197.6z M95.5,187.6c-2.6,0-3.8,3.2-3.8,5.4c0,1.5,0.7,2.6,2.3,2.6c2.6,0,3.8-3.2,3.8-5.4
		C97.8,188.8,97.2,187.6,95.5,187.6z"/>
	<path class="st0" d="M110.1,197.5h-2l-3.5-8.4l-1.8,8.4h-2.1l2.5-11.7h2l3.5,8.4l1.8-8.4h2.1L110.1,197.5z"/>
	<path class="st0" d="M126.5,187.7h-3l-2.1,9.8h-2.1l2.1-9.8h-3l0.4-1.9h8.1L126.5,187.7z"/>
	<path class="st0" d="M135.2,187.7h-5l-0.6,2.7h3.6l-0.4,1.9h-3.6l-0.7,3.3h5.6l-0.4,1.9H126l2.5-11.7h7.1L135.2,187.7z"/>
	<path class="st0" d="M142.8,197.5l-0.3-2.6h-4.3l-1.4,2.6h-2.3l6.8-11.7h2.2l1.6,11.7H142.8z M141.8,189c0-0.4,0-0.5,0-0.8
		l-2.6,4.9h3.1L141.8,189z"/>
	<path class="st0" d="M157.7,197.5h-2.1l1.8-8.3l-4.6,5.7l-2.2-5.6l-1.8,8.3h-2.1l2.5-11.7h2l2.2,5.5l4.7-5.5h2.2L157.7,197.5z"/>
	<path class="st0" d="M174.1,187.7h-3l-2.1,9.8h-2.1l2.1-9.8h-3l0.4-1.9h8.1L174.1,187.7z"/>
	<path class="st0" d="M178.1,197.6c-2.8,0-4.3-1.9-4.3-4.6c0-3.4,2.2-7.4,6-7.4c2.8,0,4.3,1.9,4.3,4.6
		C184.1,193.6,182,197.6,178.1,197.6z M179.7,187.6c-2.6,0-3.8,3.2-3.8,5.4c0,1.5,0.7,2.6,2.3,2.6c2.6,0,3.8-3.2,3.8-5.4
		C182,188.8,181.4,187.6,179.7,187.6z"/>
	<path class="st0" d="M18,213.9h-1.8l-1,4.8h-2.1l2.5-11.7h3.8c2,0,3.4,1,3.4,2.7C22.7,212.5,20.5,213.9,18,213.9z M19,208.9h-1.8
		l-0.7,3.1h1.6c1.5,0,2.5-0.8,2.5-2C20.7,209.3,20.2,208.9,19,208.9z"/>
	<path class="st0" d="M29.7,218.7h-6.8l2.5-11.7h2.1l-2.1,9.8h4.7L29.7,218.7z"/>
	<path class="st0" d="M38.8,218.7l-0.3-2.6h-4.3l-1.4,2.6h-2.3l6.8-11.7h2.2l1.6,11.7H38.8z M37.9,210.2c0-0.4-0.1-0.5-0.1-0.8
		l-2.6,4.9h3.1L37.9,210.2z"/>
	<path class="st0" d="M46.5,214.5l-0.9,4.2h-2.1l0.9-4.4l-2.3-7.4h2.2l1.5,5.4l3.8-5.4h2.5L46.5,214.5z"/>
	<path class="st1" d="M58.4,218.7h-2.7l2.5-11.7h2.7L58.4,218.7z"/>
	<path class="st1" d="M70.7,218.7h-2.5l-3-7.4l-1.6,7.4h-2.7l2.5-11.7h2.5l3,7.4l1.6-7.4h2.7L70.7,218.7z"/>
	<path class="st1" d="M84,218.7l-0.3-2.2h-3.9l-1.2,2.2h-2.9l6.6-11.7h2.8l1.5,11.7H84z M83.3,210.9c-0.1-0.5-0.1-0.8-0.1-0.8
		l-2.1,4.1h2.4L83.3,210.9z"/>
	<path class="st1" d="M95.6,218.7h-7.3l2.5-11.7h2.7l-2,9.3h4.6L95.6,218.7z"/>
	<path class="st1" d="M104.6,218.7h-7.3l2.5-11.7h2.7l-2,9.3h4.6L104.6,218.7z"/>
	<path class="st1" d="M117.2,214.2l-2.4,2.1h3.3l-0.5,2.4h-8.6l6-5.5c1-0.9,1.7-1.6,1.9-2.5c0.2-0.8-0.3-1.4-1.2-1.4
		c-0.9,0-1.8,0.5-2.1,1.8h-2.7c0.6-2.7,2.9-4.1,5.1-4.1c2.4,0,4,1.9,3.5,4C119.2,212.2,118.4,213.2,117.2,214.2z"/>
	<path class="st1" d="M128,212.5c0.9,0.4,1.3,1.3,1.3,2.2c0,2.5-2.6,4.1-5,4.1c-2,0-4-1-4-3.2c0-1.7,1-2.7,2.5-3.4
		c-0.6-0.4-0.9-1.1-0.9-1.8c0-2.2,2.2-3.6,4.6-3.6c1.7,0,3.6,1,3.6,2.9C130,211,129.2,212.1,128,212.5z M124.6,213.3
		c-0.8,0.4-1.4,1.1-1.4,1.9c0,0.8,0.6,1.2,1.4,1.2c1,0,2-0.8,2-1.8C126.5,213.5,125.4,213.5,124.6,213.3z M126.2,209.2
		c-0.9,0-1.6,0.6-1.6,1.5c0,0.9,1.1,0.9,1.7,1c0.5-0.4,1-1,1-1.6C127.2,209.5,126.7,209.2,126.2,209.2z"/>
	<path class="st1" d="M143,210.1c-0.7-0.8-1.2-1-1.9-1c-1.9,0-2.9,1.9-3.3,3.7c-0.3,1.3-0.5,3.6,1.5,3.6c0.7,0,1.4-0.3,2-0.8l0.2-1
		h-1.3l0.4-2h3.8l-0.8,4.1c-1.2,1.3-2.8,2.1-4.7,2.1c-3.7,0-4.5-3.2-3.9-6.2c0.6-3,2.6-5.8,6.1-5.8c1.4,0,2.6,0.5,3.8,2L143,210.1z"
		/>
	<path class="st1" d="M152.4,218.7l-0.3-2.2h-3.9l-1.2,2.2h-2.9l6.6-11.7h2.8l1.5,11.7H152.4z M151.6,210.9c0-0.5,0-0.8,0-0.8
		l-2.1,4.1h2.4L151.6,210.9z"/>
	<path class="st1" d="M168,218.7h-2.7l1.5-7.2l-4.1,4.9l-1.9-5l-1.6,7.3h-2.7l2.5-11.7h2.5l2,5.2l4.3-5.2h2.6L168,218.7z"/>
	<path class="st1" d="M180.1,209.3h-4.9l-0.5,2.2h3.5l-0.5,2.3h-3.5l-0.5,2.5h5.4l-0.5,2.4h-8.1l2.5-11.7h7.5L180.1,209.3z"/>
	<path class="st1" d="M188.2,209.9c-0.6-0.5-1.5-0.8-2.2-0.8c-0.6,0-1.4,0.3-1.4,1.1c0,1.4,4.5,1.9,4.5,4.8c0,2.6-2,3.8-4.4,3.8
		c-1.7,0-3.5-0.8-4.6-2.2l2.2-1.5c0.6,0.8,1.7,1.3,2.6,1.3c0.7,0,1.6-0.4,1.6-1.2c0-1.4-4.5-2.1-4.5-4.8c0-2.5,2-3.7,4.3-3.7
		c1.6,0,3,0.6,4.1,1.7L188.2,209.9z"/>
	<path class="st0" d="M5.1,235.4H0l0.3-1.6h5.1L5.1,235.4z"/>
	<path class="st0" d="M18.8,233.7c0.8,0.4,1.1,1.4,1.1,2.2c0,2.4-2.4,4.1-4.7,4.1c-1.9,0-3.8-1.1-3.8-3.1c0-1.6,1-2.8,2.4-3.6
		c-0.5-0.5-0.9-1.2-0.9-1.9c0-2.1,2-3.4,4.1-3.4c1.8,0,3.6,1.1,3.6,3C20.5,232.2,19.8,233.1,18.8,233.7z M15.3,234.4
		c-0.9,0.4-1.7,1.3-1.7,2.3c0,0.9,0.8,1.4,1.7,1.4c1.2,0,2.4-0.9,2.4-2.2C17.7,234.6,16.3,234.6,15.3,234.4z M16.9,229.9
		c-1,0-1.9,0.5-1.9,1.6c0,1.1,1.3,1.2,2.1,1.4c0.7-0.4,1.2-0.8,1.2-1.8C18.4,230.2,17.6,229.9,16.9,229.9z"/>
	<path class="st0" d="M23.8,239.8h-2.4l0.5-2.3h2.4L23.8,239.8z"/>
	<path class="st0" d="M34.3,235.5h1.3l-0.4,1.9h-1.3l-0.5,2.4h-2.1l0.5-2.4h-6.5l8.4-9.3h2.1L34.3,235.5z M29.4,235.5h2.8l0.9-4
		L29.4,235.5z"/>
	<path class="st0" d="M46.2,235h-1.8l-1,4.8h-2.1l2.5-11.7h3.8c2,0,3.4,1,3.4,2.7C50.8,233.7,48.6,235,46.2,235z M47.2,230h-1.8
		l-0.7,3.1h1.6c1.5,0,2.5-0.8,2.5-2C48.8,230.4,48.4,230,47.2,230z"/>
	<path class="st0" d="M55.9,235h-1.8l-1,4.8H51l2.5-11.7h3.7c2,0,3.4,1,3.4,2.7C60.6,233.7,58.4,235,55.9,235z M57,230h-1.8
		l-0.7,3.1h1.6c1.5,0,2.5-0.8,2.5-2C58.6,230.4,58.1,230,57,230z"/>
	<path class="st0" d="M69.4,230.8c-0.7-0.7-1.2-1-2-1c-3,0-3.9,4-3.9,5.6c0,1.3,0.4,2.5,2,2.5c0.7,0,1.5-0.3,2.3-0.9l0.3-1.2h-1.3
		l0.4-1.8h3.4l-0.8,3.7c-1.1,1.3-2.7,2.2-4.5,2.2c-2.8,0-3.9-1.9-3.9-4.2c0-3.4,2-7.8,6.3-7.8c1.4,0,2.3,0.5,3.4,1.7L69.4,230.8z"/>
	<path class="st0" d="M83.1,239.8h-6.8l2.5-11.7h2.1l-2.1,9.8h4.7L83.1,239.8z"/>
	<path class="st0" d="M92.2,239.8l-0.3-2.6h-4.3l-1.4,2.6h-2.3l6.8-11.7h2.2l1.6,11.7H92.2z M91.2,231.4c0-0.4,0-0.5,0-0.8l-2.6,4.9
		h3.1L91.2,231.4z"/>
	<path class="st0" d="M103.3,230.6c-0.5-0.4-1.4-0.7-2-0.7c-0.9,0-1.7,0.5-1.7,1.5c0,1.7,4.2,1.9,4.2,4.9c0,2.4-1.8,3.9-4.2,3.9
		c-1.5,0-3-0.7-4-1.9l1.7-1.3c0.5,0.7,1.5,1.3,2.4,1.3c1.1,0,1.9-0.7,1.9-1.8c0-1.8-4.2-2-4.2-4.8c0-2.4,1.8-3.7,4.1-3.7
		c1.3,0,2.6,0.6,3.5,1.4L103.3,230.6z"/>
	<path class="st0" d="M114.2,230h-3l-2.1,9.8H107l2.1-9.8h-3l0.4-1.9h8.1L114.2,230z"/>
	<path class="st0" d="M125.5,230.6c-0.5-0.4-1.4-0.7-2-0.7c-0.9,0-1.7,0.5-1.7,1.5c0,1.7,4.2,1.9,4.2,4.9c0,2.4-1.8,3.9-4.2,3.9
		c-1.5,0-3-0.7-3.9-1.9l1.7-1.3c0.5,0.7,1.5,1.3,2.4,1.3c1.1,0,1.9-0.7,1.9-1.8c0-1.8-4.2-2-4.2-4.8c0-2.4,1.8-3.7,4.1-3.7
		c1.3,0,2.6,0.6,3.5,1.4L125.5,230.6z"/>
	<path class="st0" d="M136.5,230h-5l-0.6,2.7h3.6l-0.4,1.9h-3.6l-0.7,3.3h5.6l-0.4,1.9h-7.7l2.5-11.7h7.1L136.5,230z"/>
	<path class="st0" d="M144,239.8l-0.3-2.6h-4.3l-1.4,2.6h-2.3l6.8-11.7h2.2l1.6,11.7H144z M143.1,231.4c0-0.4-0.1-0.5-0.1-0.8
		l-2.6,4.9h3.1L143.1,231.4z"/>
	<path class="st0" d="M155.1,230.6c-0.5-0.4-1.4-0.7-2-0.7c-0.9,0-1.7,0.5-1.7,1.5c0,1.7,4.2,1.9,4.2,4.9c0,2.4-1.8,3.9-4.2,3.9
		c-1.5,0-3-0.7-3.9-1.9l1.7-1.3c0.5,0.7,1.5,1.3,2.4,1.3c1.1,0,1.9-0.7,1.9-1.8c0-1.8-4.2-2-4.2-4.8c0-2.4,1.8-3.7,4.1-3.7
		c1.3,0,2.6,0.6,3.5,1.4L155.1,230.6z"/>
	<path class="st0" d="M161.8,240c-2.8,0-4.3-1.9-4.3-4.6c0-3.4,2.2-7.4,6-7.4c2.8,0,4.3,1.9,4.3,4.6C167.8,236,165.7,240,161.8,240z
		 M163.4,229.9c-2.6,0-3.8,3.2-3.8,5.4c0,1.5,0.7,2.6,2.3,2.6c2.6,0,3.8-3.2,3.8-5.4C165.7,231.1,165.1,229.9,163.4,229.9z"/>
	<path class="st0" d="M178,239.8h-2l-3.5-8.4l-1.8,8.4h-2.1l2.5-11.7h2l3.5,8.4l1.8-8.4h2.1L178,239.8z"/>
	<path class="st0" d="M5.1,256.6H0l0.3-1.6h5.1L5.1,256.6z"/>
	<path class="st1" d="M18.8,252.3c-0.6-0.5-1.5-0.8-2.2-0.8c-0.6,0-1.4,0.3-1.4,1.1c0,1.4,4.5,1.9,4.5,4.8c0,2.6-2,3.8-4.4,3.8
		c-1.7,0-3.5-0.8-4.6-2.2l2.2-1.5c0.6,0.8,1.7,1.3,2.6,1.3c0.7,0,1.6-0.4,1.6-1.2c0-1.4-4.5-2.1-4.5-4.8c0-2.5,2-3.7,4.3-3.7
		c1.6,0,3,0.6,4.1,1.7L18.8,252.3z"/>
	<path class="st1" d="M30.5,251.7h-4.9l-0.5,2.2h3.5l-0.5,2.3h-3.5l-0.5,2.5h5.4l-0.5,2.4h-8.1l2.5-11.7H31L30.5,251.7z"/>
	<path class="st1" d="M39.1,252.4c-0.5-0.6-1-1-1.9-1c-2.2,0-3.6,3-3.6,5c0,1.2,0.5,2.4,1.9,2.4c0.9,0,1.7-0.5,2.4-1.1l1.6,1.5
		c-1.2,1.2-2.6,2-4.3,2c-2.7,0-4.2-2-4.2-4.6c0-3.6,2.5-7.4,6.4-7.4c1.7,0,2.7,0.7,3.8,2L39.1,252.4z"/>
	<path class="st1" d="M45.7,261.1c-2.9,0-4.5-1.9-4.5-4.7c0-3.6,2.3-7.3,6.2-7.3c2.9,0,4.5,1.9,4.5,4.7
		C51.9,257.4,49.5,261.1,45.7,261.1z M47.3,251.6c-2.3,0-3.5,2.8-3.5,4.8c0,1.2,0.6,2.3,1.9,2.3c2.3,0,3.4-2.8,3.4-4.8
		C49.2,252.7,48.6,251.6,47.3,251.6z"/>
	<path class="st1" d="M62.3,261h-2.5l-3-7.4l-1.6,7.4h-2.7l2.5-11.7h2.5l3,7.4l1.6-7.4h2.7L62.3,261z"/>
	<path class="st1" d="M69,261h-4.1l2.5-11.7h3.9c2.8,0,4.4,1.6,4.4,4.4C75.7,257.5,73,261,69,261z M71,251.7h-1.4l-1.5,7h1.2
		c2.4,0,3.8-2.6,3.8-4.7C73,252.6,72.4,251.7,71,251.7z"/>
	<path class="st1" d="M85.2,261.1c-2.9,0-4.5-1.9-4.5-4.7c0-3.6,2.3-7.3,6.2-7.3c2.9,0,4.5,1.9,4.5,4.7
		C91.4,257.4,89,261.1,85.2,261.1z M86.8,251.6c-2.3,0-3.5,2.8-3.5,4.8c0,1.2,0.6,2.3,1.9,2.3c2.3,0,3.4-2.8,3.4-4.8
		C88.7,252.7,88.1,251.6,86.8,251.6z"/>
	<path class="st1" d="M101.8,261h-2.5l-3-7.4l-1.6,7.4H92l2.5-11.7H97l3,7.4l1.6-7.4h2.7L101.8,261z"/>
	<path class="st1" d="M117.4,251.7h-2.9l-2,9.3h-2.7l2-9.3h-2.9l0.5-2.4h8.5L117.4,251.7z"/>
	<path class="st1" d="M126.5,251.7h-4.9l-0.5,2.2h3.5l-0.5,2.3h-3.5l-0.5,2.5h5.4l-0.5,2.4h-8.1l2.5-11.7h7.5L126.5,251.7z"/>
	<path class="st1" d="M133.9,261l-0.3-2.2h-3.9l-1.2,2.2h-2.9l6.6-11.7h2.8l1.5,11.7H133.9z M133.1,253.2c-0.1-0.5-0.1-0.8-0.1-0.8
		l-2.1,4.1h2.4L133.1,253.2z"/>
	<path class="st1" d="M149.5,261h-2.7l1.5-7.2l-4.1,4.9l-1.9-5l-1.6,7.3h-2.7l2.5-11.7h2.5l2,5.2l4.3-5.2h2.6L149.5,261z"/>
	<path class="st1" d="M158.4,261h-2.7l2.5-11.7h2.7L158.4,261z"/>
	<path class="st1" d="M170.7,261h-2.5l-3-7.4l-1.6,7.4h-2.7l2.5-11.7h2.5l3,7.4l1.6-7.4h2.7L170.7,261z"/>
	<path class="st1" d="M184.2,253.4c1.1,0.5,1.8,1.7,1.8,2.9c0,2.8-2.3,4.9-5.2,4.9c-2,0-3.7-1.2-4.1-2.9l2.4-1
		c0.2,0.8,1,1.4,1.9,1.4c1.3,0,2.3-0.9,2.3-2.2c0-1.4-1.6-1.8-3-1.6l2.9-3.2h-4.4l0.5-2.4h8.6L184.2,253.4z"/>
	<path class="st1" d="M193.4,256.6h-5.6l0.4-1.8h5.6L193.4,256.6z"/>
	<path class="st1" d="M199.9,256.7h-1.6l-0.9,4.3h-2.7l2.5-11.7h4.1c2.2,0,3.8,1.4,3.3,3.9C204,255.5,202.1,256.7,199.9,256.7z
		 M200.7,251.7h-1.4l-0.6,2.7h1.1c1.1,0,1.9-0.4,2.1-1.3C202.1,252.2,201.8,251.7,200.7,251.7z"/>
	<path class="st1" d="M214.2,251.7h-2.9l-2,9.3h-2.7l2-9.3h-2.9l0.5-2.4h8.5L214.2,251.7z"/>
	<path class="st1" d="M221.6,252.3c-0.6-0.5-1.5-0.8-2.2-0.8c-0.6,0-1.4,0.3-1.4,1.1c0,1.4,4.5,1.9,4.5,4.8c0,2.6-2,3.8-4.4,3.8
		c-1.7,0-3.5-0.8-4.6-2.2l2.2-1.5c0.6,0.8,1.7,1.3,2.6,1.3c0.7,0,1.6-0.4,1.6-1.2c0-1.4-4.5-2.1-4.5-4.8c0-2.5,2-3.7,4.3-3.7
		c1.6,0,3,0.6,4.1,1.7L221.6,252.3z"/>
	<path class="st0" d="M18.9,282.1h-2l-0.7-6.2l-3.3,6.2h-2.1l-0.7-11.7h2.2l0.4,8.5l4.6-8.4l1.1,8.4l4-8.6h2.3L18.9,282.1z"/>
	<path class="st0" d="M25.9,282.1h-2.1l2.5-11.7h2.1L25.9,282.1z"/>
	<path class="st0" d="M37.7,272.3h-3l-2.1,9.8h-2.1l2.1-9.8h-3l0.4-1.9h8.1L37.7,272.3z"/>
	<path class="st0" d="M46.2,282.1H44l1.1-5.2h-4.7l-1.1,5.2h-2.1l2.5-11.7h2.1l-1,4.6h4.7l1-4.6h2.1L46.2,282.1z"/>
	<path class="st0" d="M62.3,272.3h-4.1l-0.7,2c0.2,0,0.5,0,0.7,0c2.1,0,3.8,1.1,3.8,3.3c0,2.8-2.1,4.7-5,4.7c-1.7,0-3.3-0.9-4-2.5
		L55,279c0.4,0.8,1.3,1.4,2.3,1.4c1.6,0,2.8-1,2.8-2.5c0-1.4-1.2-1.9-2.5-1.9c-1.1,0-2.1,0.2-3,0.6l2.3-6.1h5.9L62.3,272.3z"/>
	<path class="st0" d="M71.2,276c0.8,0.4,1.1,1.4,1.1,2.2c0,2.4-2.4,4.1-4.7,4.1c-1.9,0-3.8-1.1-3.8-3.1c0-1.6,1-2.8,2.4-3.6
		c-0.5-0.5-0.9-1.2-0.9-1.9c0-2.1,2-3.4,4.1-3.4c1.8,0,3.6,1.1,3.6,3C72.9,274.5,72.2,275.5,71.2,276z M67.7,276.7
		c-0.9,0.4-1.7,1.3-1.7,2.3c0,0.9,0.8,1.4,1.7,1.4c1.2,0,2.4-0.9,2.4-2.2C70,276.9,68.7,276.9,67.7,276.7z M69.3,272.2
		c-1,0-1.9,0.5-1.9,1.6c0,1.1,1.3,1.2,2.1,1.4c0.7-0.4,1.2-0.8,1.2-1.8C70.7,272.6,70,272.2,69.3,272.2z"/>
	<path class="st0" d="M85.2,282.1h-6.8l2.5-11.7h2.1l-2.1,9.8h4.7L85.2,282.1z"/>
	<path class="st0" d="M94.3,282.1l-0.3-2.6h-4.3l-1.4,2.6h-2.3l6.8-11.7h2.2l1.6,11.7H94.3z M93.3,273.7c0-0.4,0-0.5,0-0.8l-2.6,4.9
		h3.1L93.3,273.7z"/>
	<path class="st0" d="M105.4,272.9c-0.5-0.4-1.4-0.7-2-0.7c-0.9,0-1.7,0.5-1.7,1.5c0,1.7,4.2,1.9,4.2,4.9c0,2.4-1.8,3.9-4.2,3.9
		c-1.5,0-3-0.7-4-1.9l1.7-1.3c0.5,0.7,1.5,1.3,2.4,1.3c1.1,0,1.9-0.7,1.9-1.8c0-1.8-4.2-2-4.2-4.8c0-2.4,1.8-3.7,4.1-3.7
		c1.3,0,2.6,0.6,3.5,1.4L105.4,272.9z"/>
	<path class="st0" d="M116.3,272.3h-3l-2.1,9.8h-2.1l2.1-9.8h-3l0.4-1.9h8.1L116.3,272.3z"/>
	<path class="st0" d="M127.6,272.9c-0.5-0.4-1.4-0.7-2-0.7c-0.9,0-1.7,0.5-1.7,1.5c0,1.7,4.2,1.9,4.2,4.9c0,2.4-1.8,3.9-4.2,3.9
		c-1.5,0-3-0.7-3.9-1.9l1.7-1.3c0.5,0.7,1.5,1.3,2.4,1.3c1.1,0,1.9-0.7,1.9-1.8c0-1.8-4.2-2-4.2-4.8c0-2.4,1.8-3.7,4.1-3.7
		c1.3,0,2.6,0.6,3.5,1.4L127.6,272.9z"/>
	<path class="st0" d="M138.5,272.3h-5L133,275h3.6l-0.4,1.9h-3.6l-0.7,3.3h5.6l-0.4,1.9h-7.7l2.5-11.7h7.1L138.5,272.3z"/>
	<path class="st0" d="M146.1,282.1l-0.3-2.6h-4.3l-1.4,2.6h-2.3l6.8-11.7h2.2l1.6,11.7H146.1z M145.1,273.7c0-0.4-0.1-0.5-0.1-0.8
		l-2.6,4.9h3.1L145.1,273.7z"/>
	<path class="st0" d="M157.2,272.9c-0.5-0.4-1.4-0.7-2-0.7c-0.9,0-1.7,0.5-1.7,1.5c0,1.7,4.2,1.9,4.2,4.9c0,2.4-1.8,3.9-4.2,3.9
		c-1.5,0-3-0.7-3.9-1.9l1.7-1.3c0.5,0.7,1.5,1.3,2.4,1.3c1.1,0,1.9-0.7,1.9-1.8c0-1.8-4.2-2-4.2-4.8c0-2.4,1.8-3.7,4.1-3.7
		c1.3,0,2.6,0.6,3.5,1.4L157.2,272.9z"/>
	<path class="st0" d="M163.9,282.3c-2.8,0-4.3-1.9-4.3-4.6c0-3.4,2.2-7.4,6-7.4c2.8,0,4.3,1.9,4.3,4.6
		C169.9,278.3,167.8,282.3,163.9,282.3z M165.5,272.2c-2.6,0-3.8,3.2-3.8,5.4c0,1.5,0.7,2.6,2.3,2.6c2.6,0,3.8-3.2,3.8-5.4
		C167.8,273.4,167.2,272.2,165.5,272.2z"/>
	<path class="st0" d="M180.1,282.1h-2l-3.5-8.4l-1.8,8.4h-2.1l2.5-11.7h2l3.5,8.4l1.8-8.4h2.1L180.1,282.1z"/>
</g>
<g>
	<g>
		<rect x="15.2" y="73.7" transform="matrix(0.754 0.6568 -0.6568 0.754 64.224 11.8749)" class="st0" width="2.1" height="35.9"/>
	</g>
	<g>
		
			<rect x="23.5" y="73.7" transform="matrix(0.7541 0.6568 -0.6568 0.7541 66.2571 6.4369)" class="st0" width="2.1" height="35.9"/>
	</g>
	<g>
		<rect x="31.8" y="73.7" transform="matrix(0.754 0.6568 -0.6568 0.754 68.2956 1.0015)" class="st0" width="2.1" height="35.9"/>
	</g>
	<g>
		<rect x="40" y="73.7" transform="matrix(0.7541 0.6568 -0.6568 0.7541 70.3281 -4.4352)" class="st0" width="2.1" height="35.9"/>
	</g>
</g>
<g>
	<path class="st1" d="M68.4,81h-5.2l-0.4,1.9h3.7l-0.6,2.9h-3.7L61.1,91h-3.6l2.8-13.2h8.8L68.4,81z"/>
	<path class="st1" d="M74.2,91.2c-3.4,0-5.4-2.4-5.4-5.7c0-3.9,3-7.8,7-7.8c3.4,0,5.4,2.3,5.4,5.6C81.2,87.2,78.2,91.2,74.2,91.2z
		 M75.8,80.8c-2.1,0-3.4,2.8-3.4,4.7c0,1.2,0.5,2.5,1.9,2.5c2.1,0,3.4-2.8,3.4-4.7C77.7,82.2,77.1,80.8,75.8,80.8z"/>
	<path class="st1" d="M90.8,85.7l1.8,5.4h-3.9l-1.2-4.8h-1.1l-1,4.8h-3.6l2.8-13.2h4.9c2.4,0,4.1,1.2,4.1,3.4
		C93.6,83.3,92.6,85,90.8,85.7z M88,83.4c1,0,2-0.3,2-1.5c0-0.5-0.3-0.8-1.1-0.8h-1.3l-0.5,2.4H88z"/>
	<path class="st1" d="M106,91h-3l-0.8-5.2l-3,5.2h-3l-0.9-13.2H99l0.3,8.1l4.4-7.5l1.2,7.6l3.7-8.1h3.9L106,91z"/>
	<path class="st1" d="M118,91l-0.3-2.3H114l-1.3,2.3h-3.9l7.7-13.2h3.2l1.9,13.2H118z M117.3,83c0-0.3,0-0.8,0-1.1l-1.9,4h2.1
		L117.3,83z"/>
	<path class="st1" d="M132.3,85.7l1.8,5.4h-3.9l-1.2-4.8H128l-1,4.8h-3.6l2.8-13.2h4.9c2.4,0,4.1,1.2,4.1,3.4
		C135.1,83.3,134.1,85,132.3,85.7z M129.5,83.4c1,0,2-0.3,2-1.5c0-0.5-0.3-0.8-1.1-0.8h-1.3l-0.5,2.4H129.5z"/>
	<path class="st1" d="M140.5,91h-5.1l2.8-13.2h4.6c3.2,0,5.2,2.2,5.2,5.4C148,87.5,144.8,91,140.5,91z M142.5,81h-1.3l-1.5,6.9h0.9
		c2.4,0,3.8-2.6,3.8-4.7C144.4,81.9,143.8,81,142.5,81z"/>
	<path class="st0" d="M47,104.5l-1.2,2.3h-3.2l1.2-2.3h-1.4l0.5-2.5h2.2l0.9-1.9h-1.5l0.5-2.5h2.2l0.9-1.7h3.3l-0.9,1.7h1.3l0.9-1.7
		H56l-0.9,1.7h1.4l-0.5,2.5h-2.1l-0.9,1.9h1.4l-0.5,2.5h-2.2l-1.2,2.3h-3.2l1.2-2.3H47z M49.3,100.1l-1,1.9h1.3l0.9-1.9H49.3z"/>
	<path class="st0" d="M59.9,108h-3.6l2.8-13.2h3.6L59.9,108z"/>
	<path class="st0" d="M73.9,105.5h-1.6l-0.5,2.5h-3.6l0.5-2.5h-7.2l9.7-10.7h3.3l-1.6,7.5h1.6L73.9,105.5z M67.8,102.3h1.6l0.5-2.3
		L67.8,102.3z"/>
	<path class="st1" d="M89.4,103.6c-0.5,2.4-2.2,4.5-5.5,4.5c-1.8,0-3.7-0.8-3.9-3.6l3.2-0.9c0.1,0.9,0.5,1.3,1,1.3
		c1,0,1.5-0.8,1.7-1.8l1.8-8.4h3.6L89.4,103.6z"/>
	<path class="st1" d="M103.4,102.8c-0.8,3.7-3.4,5.4-6.4,5.4c-4,0-5.5-2.5-4.8-5.7l1.6-7.7h3.6l-1.7,8.1c-0.3,1.6,0.5,2.1,1.5,2.1
		c1.2,0,2.2-0.6,2.6-2.5l1.6-7.7h3.6L103.4,102.8z"/>
	<path class="st1" d="M116.3,108h-3.2l-3.1-7l-1.5,7h-3.6l2.8-13.2h3.2l3.1,7.1l1.5-7.1h3.6L116.3,108z"/>
	<path class="st1" d="M122.7,108h-3.6l2.8-13.2h3.6L122.7,108z"/>
	<path class="st1" d="M131.5,108.1c-3.4,0-5.4-2.4-5.4-5.7c0-3.9,3-7.8,7-7.8c3.4,0,5.4,2.3,5.4,5.6
		C138.5,104.2,135.6,108.1,131.5,108.1z M133.1,97.8c-2.1,0-3.4,2.8-3.4,4.7c0,1.2,0.5,2.5,1.9,2.5c2.1,0,3.4-2.8,3.4-4.7
		C135,99.1,134.5,97.8,133.1,97.8z"/>
	<path class="st1" d="M148.2,102.6l1.8,5.4h-3.9l-1.2-4.8h-1.1l-1,4.8h-3.6l2.8-13.2h4.9c2.4,0,4.1,1.2,4.1,3.4
		C151,100.3,150,102,148.2,102.6z M145.4,100.3c1,0,2-0.3,2-1.5c0-0.5-0.3-0.8-1.1-0.8h-1.3l-0.5,2.4H145.4z"/>
</g>
</svg>
