<?xml version="1.0" encoding="utf-8"?>
<!-- Generator: Adobe Illustrator 19.0.0, SVG Export Plug-In . SVG Version: 6.00 Build 0)  -->
<svg version="1.1" id="Layer_1" xmlns="http://www.w3.org/2000/svg" xmlns:xlink="http://www.w3.org/1999/xlink" x="0px" y="0px"
	 viewBox="0 0 266.9 283.3" style="enable-background:new 0 0 266.9 283.3;" xml:space="preserve">
<style type="text/css">
	.st0{fill:#014563;}
	.st1{fill:#E73C26;}
</style>
<g>
	<path class="st0" d="M19.5,28.9c-5,0-8.7-3.3-9.7-4.4l3.7-3.1c1.3,1.4,3.5,3,6,3c2.7,0,4.4-1.6,4.4-3.6c0-5.2-13.1-4.2-13.1-12.9
		c0-4.7,3.7-7.9,9.1-7.9c4.8,0,8.2,3.3,8.2,3.3l-3.6,3.2c0,0-1.9-1.9-4.5-1.9c-2.5,0-3.9,1.2-3.9,3.1c0,4.9,12.9,4,12.9,13
		C29,26.3,24.2,28.9,19.5,28.9z"/>
	<path class="st0" d="M44.3,18.3v10.2h-4.9V18.3L29.6,0.6h5.5L41,11.9c0.4,0.8,0.8,1.6,0.8,1.6s0.4-0.8,0.8-1.6l5.9-11.3h5.5
		L44.3,18.3z"/>
	<path class="st0" d="M66.6,28.4h-9.1V0.6h9.1C75.1,0.6,79,7.2,79,14.7C79,22.1,74.9,28.4,66.6,28.4z M66.6,5.1h-4.1v18.8h4.1
		c5.3,0,7.5-4.6,7.5-9.2C74.1,10,72.1,5.1,66.6,5.1z"/>
	<path class="st0" d="M101.7,28.4l-11.5-18c-0.6-1-1-1.9-1-1.9v19.9h-4.9V0.6h4.9l11.4,18c0.7,1.1,1,2,1,2v-20h4.9v27.8H101.7z"/>
	<path class="st0" d="M113,28.4V0.6h16.9v4.5H118v6.4h8.6V16H118v7.9h13.4v4.5H113z"/>
	<path class="st0" d="M147.2,18.3v10.2h-4.9V18.3l-9.8-17.7h5.5l5.9,11.3c0.4,0.8,0.8,1.6,0.8,1.6s0.4-0.8,0.8-1.6l5.9-11.3h5.5
		L147.2,18.3z"/>
	<path class="st0" d="M21,67.8c-5.4,0-9.2-3.2-10.9-5.6l5.3-4.1c2,2.2,4.1,3.2,5.8,3.2c1.9,0,2.7-1,2.7-2.1c0-3-12.6-3.5-12.6-11.9
		c0-5,4.3-8.4,10.2-8.4c5.6,0,9.5,4.3,9.5,4.3l-5,4.3c0,0-2.5-2-4.7-2c-1.9,0-2.4,0.8-2.4,1.6c0,2.9,12.6,3.3,12.6,11.9
		C31.5,65,26,67.8,21,67.8z"/>
	<path class="st0" d="M47.6,46.2v21.2H40V46.2h-6.3v-6.7h20.1v6.7H47.6z"/>
	<path class="st0" d="M57.4,67.4V39.5H65v27.8H57.4z"/>
	<path class="st0" d="M81.5,58.1h-3.1v9.3h-7.6V39.5h10.7c5.1,0,9.5,3.1,9.5,9.3C91.1,55.2,86.6,58.1,81.5,58.1z M80.5,46.1h-2.1
		v5.4h2.1c2.1,0,3.2-0.8,3.2-2.7C83.7,47,82.7,46.1,80.5,46.1z"/>
	<path class="st0" d="M109.3,67.4l-1.6-4.9h-8.2l-1.6,4.9h-8l10.2-27.8h6.8L117,67.4H109.3z M104.1,50.1c-0.3-0.9-0.6-2.1-0.6-2.1
		s-0.2,1.2-0.5,2.1l-1.8,6.4h4.7L104.1,50.1z"/>
	<path class="st0" d="M137.5,67.4l-8.6-13c-0.4-0.6-0.8-1.5-0.8-1.5v14.6h-7.5V39.5h6.9l8.6,13c0.5,0.8,0.9,1.6,0.9,1.6V39.5h7.5
		v27.8H137.5z"/>
	<path class="st0" d="M161.8,67.7c-7.2,0-12.5-5.3-12.5-14.3c0-9,5.3-14.2,12.5-14.2c7.2,0,12.5,5.2,12.5,14.2
		C174.4,62.4,169,67.7,161.8,67.7z M161.8,46c-2.6,0-5,2.1-5,7.4c0,5.5,2.4,7.5,5,7.5c2.6,0,5.1-2,5.1-7.5
		C166.9,48.1,164.5,46,161.8,46z"/>
	<path class="st0" d="M191.6,67.4h-6.4l-9.9-27.8h8l4.5,14.5c0.3,0.9,0.6,2.5,0.6,2.5s0.3-1.6,0.6-2.5l4.5-14.5h8L191.6,67.4z"/>
	<path class="st0" d="M205,67.4V39.5h7.6v27.8H205z"/>
	<path class="st0" d="M230.1,67.7c-7.3,0-12.6-5.6-12.6-14.2c0-8.6,5.2-14.4,12.6-14.4c4.1,0,7,1.8,9.5,5l-4.9,4
		c-1.2-1.4-2.7-2.4-4.5-2.4c-3.5,0-5.3,3.8-5.3,7.8c0,4,1.9,7.5,5.3,7.5c1.8,0,3.3-1,4.6-2.5l4.9,3.9
		C237.2,65.6,234.1,67.7,230.1,67.7z"/>
	<path class="st0" d="M259.4,67.4V56.1h-8.1v11.3h-7.6V39.5h7.6v9.9h8.1v-9.9h7.6v27.8H259.4z"/>
</g>
<g>
	<g>
		
			<rect x="11.5" y="73.6" transform="matrix(0.7541 0.6568 -0.6568 0.7541 63.2043 14.2359)" class="st0" width="2.1" height="35.9"/>
	</g>
	<g>
		<rect x="19.8" y="73.6" transform="matrix(0.754 0.6568 -0.6568 0.754 65.2417 8.8014)" class="st0" width="2.1" height="35.9"/>
	</g>
	<g>
		
			<rect x="28.1" y="73.6" transform="matrix(0.7541 0.6568 -0.6568 0.7541 67.2747 3.3638)" class="st0" width="2.1" height="35.9"/>
	</g>
	<g>
		<rect x="36.4" y="73.6" transform="matrix(0.754 0.6568 -0.6568 0.754 69.3132 -2.0717)" class="st0" width="2.1" height="35.9"/>
	</g>
	<g>
		
			<rect x="44.6" y="73.6" transform="matrix(0.7541 0.6568 -0.6568 0.7541 71.3459 -7.5092)" class="st0" width="2.1" height="35.9"/>
	</g>
	<g>
		
			<rect x="52.9" y="73.6" transform="matrix(0.754 0.6568 -0.6568 0.754 73.3846 -12.9444)" class="st0" width="2.1" height="35.9"/>
	</g>
	<g>
		
			<rect x="61.2" y="73.6" transform="matrix(0.7541 0.6568 -0.6568 0.7541 75.4162 -18.3813)" class="st0" width="2.1" height="35.9"/>
	</g>
	<g>
		
			<rect x="69.5" y="73.6" transform="matrix(0.7541 0.6568 -0.6568 0.7541 77.4524 -23.8174)" class="st0" width="2.1" height="35.9"/>
	</g>
	<g>
		
			<rect x="77.8" y="73.6" transform="matrix(0.754 0.6568 -0.6568 0.754 79.4917 -29.2536)" class="st0" width="2.1" height="35.9"/>
	</g>
</g>
<g>
	<g>
		
			<rect x="85.9" y="73.6" transform="matrix(0.754 0.6568 -0.6568 0.754 81.4979 -34.6209)" class="st0" width="2.1" height="35.9"/>
	</g>
	<g>
		
			<rect x="94.2" y="73.6" transform="matrix(0.7541 0.6568 -0.6568 0.7541 83.5287 -40.0572)" class="st0" width="2.1" height="35.9"/>
	</g>
	<g>
		
			<rect x="102.5" y="73.6" transform="matrix(0.754 0.6568 -0.6568 0.754 85.5694 -45.494)" class="st0" width="2.1" height="35.9"/>
	</g>
	<g>
		
			<rect x="110.8" y="73.6" transform="matrix(0.7541 0.6568 -0.6568 0.7541 87.6007 -50.93)" class="st0" width="2.1" height="35.9"/>
	</g>
	<g>
		<rect x="119" y="73.6" transform="matrix(0.7541 0.6568 -0.6568 0.7541 89.64 -56.3672)" class="st0" width="2.1" height="35.9"/>
	</g>
	<g>
		
			<rect x="127.3" y="73.6" transform="matrix(0.754 0.6568 -0.6568 0.754 91.6765 -61.8032)" class="st0" width="2.1" height="35.9"/>
	</g>
	<g>
		
			<rect x="135.6" y="73.6" transform="matrix(0.7541 0.6568 -0.6568 0.7541 93.7072 -67.2382)" class="st0" width="2.1" height="35.9"/>
	</g>
	<g>
		
			<rect x="143.9" y="73.6" transform="matrix(0.754 0.6568 -0.6568 0.754 95.748 -72.6763)" class="st0" width="2.1" height="35.9"/>
	</g>
	<g>
		
			<rect x="152.1" y="73.6" transform="matrix(0.754 0.6568 -0.6568 0.754 97.7838 -78.1129)" class="st0" width="2.1" height="35.9"/>
	</g>
</g>
<g>
	<path class="st1" d="M177.6,81.1c-0.4-0.6-1.1-1.1-1.9-1.1c-2.2,0-3.6,2.8-3.6,4.9c0,1.1,0.5,2.4,1.8,2.4c0.9,0,1.8-0.5,2.4-1.1
		l2.1,1.9c-1.2,1.3-2.9,2.4-5,2.4c-3.3,0-4.9-2.4-4.9-5.5c0-4.1,2.8-8,7.2-8c2.1,0,3.3,1,4.4,2.4L177.6,81.1z"/>
	<path class="st1" d="M190.5,80.2h-5l-0.4,1.9h3.5l-0.6,2.8h-3.5L184,87h5.7l-0.7,3.2h-9.3l2.8-13.2h8.6L190.5,80.2z"/>
	<path class="st1" d="M202.1,90.2H199l-3.1-7l-1.5,7h-3.6l2.8-13.2h3.2l3.1,7.1l1.5-7.1h3.6L202.1,90.2z"/>
	<path class="st1" d="M215.5,80.2h-3l-2.1,10h-3.6l2.1-10h-3l0.7-3.2h9.6L215.5,80.2z"/>
	<path class="st1" d="M225.8,80.2h-5l-0.4,1.9h3.5l-0.6,2.8h-3.5l-0.5,2.2h5.7l-0.7,3.2h-9.3l2.8-13.2h8.6L225.8,80.2z"/>
	<path class="st1" d="M235.1,84.8l1.8,5.4H233l-1.2-4.8h-1.1l-1,4.8h-3.6l2.8-13.2h4.9c2.4,0,4.1,1.2,4.1,3.4
		C237.9,82.4,236.9,84.2,235.1,84.8z M232.3,82.5c1,0,2-0.3,2-1.5c0-0.5-0.3-0.8-1.1-0.8h-1.3l-0.5,2.4H232.3z"/>
	<path class="st0" d="M162.3,103.7l-1.2,2.3h-3.2l1.2-2.3h-1.4l0.5-2.5h2.2l0.9-1.9h-1.5l0.5-2.5h2.2l0.9-1.7h3.3l-0.9,1.7h1.3
		l0.9-1.7h3.2l-0.9,1.7h1.4l-0.5,2.5h-2.1l-0.9,1.9h1.4l-0.5,2.5h-2.2l-1.2,2.3h-3.2l1.2-2.3H162.3z M164.6,99.3l-1,1.9h1.3l0.9-1.9
		H164.6z"/>
	<path class="st0" d="M175.2,107.2h-3.6l2.8-13.2h3.6L175.2,107.2z"/>
	<path class="st0" d="M186.8,98.6c1.2,0.6,2,1.9,2,3.3c0,3.2-3.1,5.4-6,5.4c-2.6,0-4.3-1.5-4.9-3.6l3.1-1.3c0.2,0.9,0.9,1.6,2.1,1.6
		c1.1,0,2.1-0.9,2.1-2.1c0-1.9-2-2.1-3.2-1.7l2.9-3.1H180l0.7-3.2h10.4L186.8,98.6z"/>
	<path class="st1" d="M204.3,97.9c-0.8-0.6-1.5-1-2.2-1c-0.8,0-1.3,0.3-1.3,1c0,1.3,4.9,2.1,4.9,5.3c0,3-2.5,4.2-5.2,4.2
		c-2.3,0-4.1-1.1-5.4-2.7l2.8-1.9c0.6,0.7,1.6,1.6,2.6,1.6c0.8,0,1.5-0.3,1.5-1.1c0-1.4-4.9-2.2-4.9-5.4c0-2.9,2.6-4,4.9-4
		c2.1,0,3.9,1,5,2.2L204.3,97.9z"/>
	<path class="st1" d="M217.7,97.1h-5l-0.4,1.9h3.5l-0.6,2.8h-3.5l-0.5,2.2h5.7l-0.7,3.2h-9.3l2.8-13.2h8.6L217.7,97.1z"/>
	<path class="st1" d="M229.3,107.2h-3.2l-3.1-7l-1.5,7H218l2.8-13.2h3.2l3.1,7.1l1.5-7.1h3.6L229.3,107.2z"/>
	<path class="st1" d="M235.7,107.2h-3.6l2.8-13.2h3.6L235.7,107.2z"/>
	<path class="st1" d="M244.6,107.3c-3.4,0-5.4-2.4-5.4-5.7c0-3.9,3-7.8,7-7.8c3.4,0,5.4,2.3,5.4,5.6
		C251.6,103.3,248.6,107.3,244.6,107.3z M246.2,97c-2.1,0-3.4,2.8-3.4,4.7c0,1.2,0.5,2.5,1.9,2.5c2.1,0,3.4-2.8,3.4-4.7
		C248.1,98.3,247.5,97,246.2,97z"/>
	<path class="st1" d="M261.2,101.8l1.8,5.4h-3.9l-1.2-4.8h-1.1l-1,4.8h-3.6l2.8-13.2h4.9c2.4,0,4.1,1.2,4.1,3.4
		C264,99.4,263,101.1,261.2,101.8z M258.4,99.5c1,0,2-0.3,2-1.5c0-0.5-0.3-0.8-1.1-0.8H258l-0.5,2.4H258.4z"/>
</g>
<g>
	<path class="st0" d="M7.4,129.1H2.3l0.3-1.6h5.1L7.4,129.1z"/>
	<path class="st1" d="M16,133.5h-2.7l2.5-11.7h2.7L16,133.5z"/>
	<path class="st1" d="M24,133.5h-2.4L20,121.8h2.8l0.8,7.8l4.1-7.8h2.9L24,133.5z"/>
	<path class="st1" d="M36.1,129.5l-0.8,4h-2.7l0.9-4.2l-2.4-7.6h2.9l1.3,5l3.4-5h3.1L36.1,129.5z"/>
	<path class="st1" d="M51.8,133.5h-7.3l2.5-11.7h2.7l-2,9.3h4.6L51.8,133.5z"/>
	<path class="st1" d="M63,124.2h-4.9l-0.5,2.2h3.5l-0.5,2.3h-3.5l-0.5,2.5h5.4l-0.5,2.4h-8.1l2.5-11.7h7.5L63,124.2z"/>
	<path class="st1" d="M70.4,133.5l-0.3-2.2h-3.9l-1.2,2.2h-2.9l6.6-11.7h2.8l1.5,11.7H70.4z M69.7,125.7c0-0.5,0-0.8,0-0.8l-2.1,4.1
		H70L69.7,125.7z"/>
	<path class="st1" d="M82.5,125c-0.7-0.8-1.2-1-1.9-1c-1.9,0-2.9,1.9-3.3,3.7c-0.3,1.3-0.5,3.6,1.5,3.6c0.7,0,1.4-0.3,2-0.8l0.2-1
		h-1.3l0.4-2h3.8l-0.8,4.1c-1.2,1.3-2.8,2.1-4.7,2.1c-3.7,0-4.5-3.2-3.9-6.2c0.6-3,2.6-5.8,6.1-5.8c1.4,0,2.6,0.5,3.8,2L82.5,125z"
		/>
	<path class="st1" d="M95.6,128.8c-0.7,3.4-2.8,4.8-5.6,4.8c-2.7,0-4.7-1.8-4.1-5l1.5-6.8H90l-1.5,7.2c-0.4,1.7,0.5,2.3,1.7,2.3
		c1.3,0,2.3-0.8,2.7-2.5l1.5-6.9h2.7L95.6,128.8z"/>
	<path class="st1" d="M106.5,124.2h-4.9l-0.5,2.2h3.5l-0.5,2.3h-3.5l-0.5,2.5h5.4l-0.5,2.4h-8.1l2.5-11.7h7.5L106.5,124.2z"/>
	<path class="st1" d="M115.5,129.2h-1.6l-0.9,4.3h-2.7l2.5-11.7h4.1c2.2,0,3.8,1.4,3.3,3.9C119.6,128.1,117.7,129.2,115.5,129.2z
		 M116.3,124.2H115l-0.6,2.7h1.1c1.1,0,1.9-0.4,2.1-1.3C117.8,124.7,117.5,124.2,116.3,124.2z"/>
	<path class="st1" d="M127.6,133.5h-7.3l2.5-11.7h2.7l-2,9.3h4.6L127.6,133.5z"/>
	<path class="st1" d="M136.6,133.5l-0.3-2.2h-3.9l-1.2,2.2h-2.9l6.6-11.7h2.8l1.5,11.7H136.6z M135.8,125.7c0-0.5,0-0.8,0-0.8
		l-2.1,4.1h2.4L135.8,125.7z"/>
	<path class="st1" d="M145.3,129.5l-0.8,4h-2.7l0.9-4.2l-2.4-7.6h2.9l1.3,5l3.4-5h3.1L145.3,129.5z"/>
	<path class="st1" d="M159.6,124.2h-4.9l-0.5,2.2h3.5l-0.5,2.3h-3.5l-0.5,2.5h5.4l-0.5,2.4h-8.1l2.5-11.7h7.5L159.6,124.2z"/>
	<path class="st1" d="M167,128.7l2.2,4.8h-3l-1.8-4.5h-0.9l-1,4.5h-2.7l2.5-11.7h4.1c2,0,3.5,1,3.5,2.9
		C169.9,126.6,168.8,128.1,167,128.7z M165.2,126.8c1.2,0,2.1-0.5,2.1-1.7c0-0.6-0.4-0.9-1.3-0.9h-1.4l-0.6,2.6H165.2z"/>
	<path class="st1" d="M179.1,133.6c-2.9,0-4.5-1.9-4.5-4.7c0-3.6,2.3-7.3,6.2-7.3c2.9,0,4.5,1.9,4.5,4.7
		C185.3,129.9,183,133.6,179.1,133.6z M180.7,124.1c-2.3,0-3.5,2.8-3.5,4.8c0,1.2,0.6,2.3,1.9,2.3c2.3,0,3.4-2.8,3.4-4.8
		C182.6,125.2,182.1,124.1,180.7,124.1z"/>
	<path class="st1" d="M195.6,124.2h-5l-0.5,2.2h3.6l-0.5,2.3h-3.6l-1.1,4.9H186l2.5-11.7h7.6L195.6,124.2z"/>
	<path class="st1" d="M205.4,129.5l-0.8,4h-2.7l0.9-4.2l-2.4-7.6h2.9l1.3,5l3.4-5h3.1L205.4,129.5z"/>
	<path class="st1" d="M219.7,124.2h-4.9l-0.5,2.2h3.5l-0.5,2.3h-3.5l-0.5,2.5h5.4l-0.5,2.4h-8.1l2.5-11.7h7.5L219.7,124.2z"/>
	<path class="st1" d="M227.1,133.5l-0.3-2.2H223l-1.2,2.2h-2.9l6.6-11.7h2.8l1.5,11.7H227.1z M226.3,125.7c0-0.5,0-0.8,0-0.8
		l-2.1,4.1h2.4L226.3,125.7z"/>
	<path class="st1" d="M238.5,128.7l2.2,4.8h-3l-1.8-4.5H235l-1,4.5h-2.7l2.5-11.7h4.1c2,0,3.5,1,3.5,2.9
		C241.4,126.6,240.3,128.1,238.5,128.7z M236.7,126.8c1.2,0,2.1-0.5,2.1-1.7c0-0.6-0.4-0.9-1.3-0.9H236l-0.6,2.6H236.7z"/>
	<path class="st0" d="M7.4,150.3H2.3l0.3-1.6h5.1L7.4,150.3z"/>
	<path class="st0" d="M15.4,154.7h-2.1l2.5-11.7h2.1L15.4,154.7z"/>
	<path class="st0" d="M23,154.7h-2L19.5,143h2.1l0.9,8.7l4.6-8.7h2.3L23,154.7z"/>
	<path class="st0" d="M34.5,150.5l-0.9,4.2h-2.1l0.9-4.4l-2.3-7.4h2.2l1.5,5.4l3.8-5.4H40L34.5,150.5z"/>
	<path class="st1" d="M47.8,154.7h-4.1l2.5-11.7h3.9c2.8,0,4.4,1.6,4.4,4.4C54.5,151.2,51.8,154.7,47.8,154.7z M49.8,145.3h-1.4
		l-1.5,7h1.2c2.4,0,3.7-2.6,3.7-4.7C51.8,146.3,51.2,145.3,49.8,145.3z"/>
	<path class="st1" d="M64.7,145.3h-4.9l-0.5,2.2h3.5l-0.5,2.3h-3.5l-0.5,2.5h5.4l-0.5,2.4h-8.1l2.5-11.7h7.5L64.7,145.3z"/>
	<path class="st1" d="M74.6,145.3h-5l-0.5,2.2h3.6l-0.5,2.3h-3.6l-1.1,4.9H65l2.5-11.7h7.6L74.6,145.3z"/>
	<path class="st1" d="M83.8,145.3h-4.9l-0.5,2.2H82l-0.5,2.3H78l-0.5,2.5h5.4l-0.5,2.4h-8.1l2.5-11.7h7.5L83.8,145.3z"/>
	<path class="st1" d="M93.8,154.7h-2.5l-3-7.4l-1.6,7.4H84l2.5-11.7H89l3,7.4l1.6-7.4h2.7L93.8,154.7z"/>
	<path class="st1" d="M104.2,145.9c-0.6-0.5-1.5-0.8-2.2-0.8c-0.6,0-1.4,0.3-1.4,1.1c0,1.4,4.5,1.9,4.5,4.8c0,2.6-2,3.8-4.4,3.8
		c-1.7,0-3.5-0.8-4.6-2.2l2.2-1.5c0.6,0.8,1.7,1.3,2.6,1.3c0.7,0,1.6-0.4,1.6-1.2c0-1.4-4.5-2.1-4.5-4.8c0-2.5,2-3.7,4.3-3.7
		c1.6,0,3,0.6,4.1,1.7L104.2,145.9z"/>
	<path class="st1" d="M109,154.7h-2.7l2.5-11.7h2.7L109,154.7z"/>
	<path class="st1" d="M117,154.7h-2.4L113,143h2.8l0.8,7.8l4.1-7.8h2.9L117,154.7z"/>
	<path class="st1" d="M132.1,145.3h-4.9l-0.5,2.2h3.5l-0.5,2.3h-3.5l-0.5,2.5h5.4l-0.5,2.4h-8.1l2.5-11.7h7.5L132.1,145.3z"/>
	<path class="st0" d="M141.8,149.9H140l-1,4.8h-2.1l2.5-11.7h3.8c2,0,3.4,1,3.4,2.7C146.5,148.5,144.3,149.9,141.8,149.9z
		 M142.9,144.9h-1.8l-0.7,3.1h1.6c1.5,0,2.5-0.8,2.5-2C144.5,145.2,144,144.9,142.9,144.9z"/>
	<path class="st0" d="M153.5,154.7h-6.8l2.5-11.7h2.1l-2.1,9.8h4.7L153.5,154.7z"/>
	<path class="st0" d="M162.6,154.7l-0.3-2.6H158l-1.4,2.6h-2.3L161,143h2.2l1.6,11.7H162.6z M161.7,146.2c0-0.4-0.1-0.5-0.1-0.8
		l-2.6,4.9h3.1L161.7,146.2z"/>
	<path class="st0" d="M170.3,150.5l-0.9,4.2h-2.1l0.9-4.4l-2.3-7.4h2.2l1.5,5.4l3.8-5.4h2.5L170.3,150.5z"/>
	<path class="st0" d="M184.2,144.9h-5l-0.6,2.7h3.6l-0.4,1.9h-3.6l-0.7,3.3h5.6l-0.4,1.9H175l2.5-11.7h7.1L184.2,144.9z"/>
	<path class="st0" d="M190.8,149.7l2.7,5H191l-2.3-4.8h-1.2l-1,4.8h-2.1l2.5-11.7h3.7c2,0,3.4,0.9,3.4,2.7
		C194,147.7,192.8,149,190.8,149.7z M190.3,144.9h-1.7l-0.7,3.1h1.5c1.4,0,2.5-0.7,2.5-2C192,145.3,191.4,144.9,190.3,144.9z"/>
	<path class="st0" d="M204.2,154.8c-2.8,0-4.3-1.9-4.3-4.6c0-3.4,2.2-7.4,6-7.4c2.8,0,4.3,1.9,4.3,4.6
		C210.2,150.8,208.1,154.8,204.2,154.8z M205.8,144.8c-2.6,0-3.8,3.2-3.8,5.4c0,1.5,0.7,2.6,2.3,2.6c2.6,0,3.8-3.2,3.8-5.4
		C208.1,146,207.5,144.8,205.8,144.8z"/>
	<path class="st0" d="M220.3,144.9h-5.1l-0.6,2.7h3.7l-0.4,1.9h-3.7l-1.1,5.2H211l2.5-11.7h7.2L220.3,144.9z"/>
	<path class="st0" d="M230.4,150.5l-0.9,4.2h-2.1l0.9-4.4L226,143h2.2l1.5,5.4l3.8-5.4h2.5L230.4,150.5z"/>
	<path class="st0" d="M244.2,144.9h-5l-0.6,2.7h3.6l-0.4,1.9h-3.6l-0.7,3.3h5.6l-0.4,1.9H235l2.5-11.7h7.1L244.2,144.9z"/>
	<path class="st0" d="M251.8,154.7l-0.3-2.6h-4.3l-1.4,2.6h-2.3l6.8-11.7h2.2l1.6,11.7H251.8z M250.8,146.2c0-0.4-0.1-0.5-0.1-0.8
		l-2.6,4.9h3.1L250.8,146.2z"/>
	<path class="st0" d="M262.1,149.7l2.7,5h-2.5l-2.3-4.8h-1.2l-1,4.8h-2.1l2.5-11.7h3.7c2,0,3.4,0.9,3.4,2.7
		C265.3,147.7,264.1,149,262.1,149.7z M261.6,144.9h-1.7l-0.7,3.1h1.5c1.4,0,2.5-0.7,2.5-2C263.2,145.3,262.7,144.9,261.6,144.9z"/>
	<path class="st0" d="M7.4,171.4H2.3l0.3-1.6h5.1L7.4,171.4z"/>
	<path class="st1" d="M20.5,175.8l-0.3-2.2h-3.9l-1.2,2.2h-2.9l6.6-11.7h2.8l1.5,11.7H20.5z M19.7,168c0-0.5,0-0.8,0-0.8l-2.1,4.1
		H20L19.7,168z"/>
	<path class="st1" d="M32,175.8h-7.3l2.5-11.7h2.7l-2,9.3h4.6L32,175.8z"/>
	<path class="st1" d="M41,175.8h-7.3l2.5-11.7h2.7l-2,9.3h4.6L41,175.8z"/>
	<path class="st1" d="M48.9,171.4h-5.6l0.4-1.8h5.6L48.9,171.4z"/>
	<path class="st1" d="M52.8,175.8h-2.7l2.5-11.7h2.7L52.8,175.8z"/>
	<path class="st1" d="M60.9,175.8h-2.4l-1.6-11.7h2.8l0.8,7.8l4.1-7.8h2.9L60.9,175.8z"/>
	<path class="st1" d="M73,171.9l-0.8,4h-2.7l0.9-4.2l-2.4-7.6H71l1.3,5l3.4-5h3.1L73,171.9z"/>
	<path class="st0" d="M83.6,170c-0.3,1.4-0.4,2.7-0.4,3.9c0,1.5,0.2,2.7,0.4,3.5h-1.3c-0.6-1.4-0.9-2.9-0.9-4.4
		c0-3.9,1.6-7.9,4-10.6h1.5C85.7,164.2,84.3,166.8,83.6,170z"/>
	<path class="st0" d="M95.9,171.1c-0.7,3.4-3,4.8-5.5,4.8c-2.2,0-4-1.3-4-3.7c0-0.4,0.1-0.8,0.2-1.3l1.5-6.9h2.1l-1.5,7.2
		c-0.3,1.4,0.2,2.7,1.9,2.7c1.5,0,2.9-1,3.3-2.9l1.5-7h2.1L95.9,171.1z"/>
	<path class="st0" d="M106.8,175.8h-2l-3.5-8.4l-1.8,8.4h-2.1l2.5-11.7h2l3.5,8.4l1.8-8.4h2.1L106.8,175.8z"/>
	<path class="st0" d="M116.8,175.8l-0.3-2.6h-4.3l-1.4,2.6h-2.3l6.8-11.7h2.2l1.6,11.7H116.8z M115.9,167.4c0-0.4-0.1-0.5-0.1-0.8
		l-2.6,4.9h3.1L115.9,167.4z"/>
	<path class="st0" d="M130.1,175.8h-2l-3.5-8.4l-1.8,8.4h-2.1l2.5-11.7h2l3.5,8.4l1.8-8.4h2.1L130.1,175.8z"/>
	<path class="st0" d="M135.1,175.8h-2.4l0.5-2.3h2.4L135.1,175.8z"/>
	<path class="st0" d="M138.1,177.5h-1.5c2.3-3.7,3.6-7.3,3.6-11.4c0-1.2-0.1-2.4-0.4-3.7h1.4c0.6,1.4,0.9,2.9,0.9,4.5
		C142,170.7,140.4,174.8,138.1,177.5z"/>
	<path class="st0" d="M154.1,171.4h-2.6l-0.6,2.6h-1.6l0.6-2.6h-2.6l0.3-1.6h2.6l0.5-2.4h1.6l-0.5,2.4h2.6L154.1,171.4z"/>
	<path class="st0" d="M167.3,175.8l-0.3-2.6h-4.3l-1.4,2.6h-2.3l6.8-11.7h2.2l1.6,11.7H167.3z M166.4,167.4c0-0.4-0.1-0.5-0.1-0.8
		l-2.6,4.9h3.1L166.4,167.4z"/>
	<path class="st0" d="M178.1,175.8h-6.8l2.5-11.7h2.1l-2.1,9.8h4.7L178.1,175.8z"/>
	<path class="st0" d="M186.7,175.8h-6.8l2.5-11.7h2.1l-2.1,9.8h4.7L186.7,175.8z"/>
	<path class="st0" d="M194.2,171.4h-5.1l0.3-1.6h5.1L194.2,171.4z"/>
	<path class="st0" d="M203.1,169.3c1.1,0.4,1.4,1.3,1.4,2.3c0,2.4-2,4.2-4.9,4.2h-4.1l2.5-11.7h3.4c2.1,0,3.4,0.9,3.4,2.5
		C204.7,167.4,204.4,168.6,203.1,169.3z M200.8,170.6h-2l-0.7,3.3h1.8c1.5,0,2.6-0.8,2.6-2.2C202.5,171,202,170.6,200.8,170.6z
		 M201.1,166h-1.4l-0.6,2.7h1.2c1.3,0,2.3-0.5,2.3-1.8C202.7,166.3,202.1,166,201.1,166z"/>
	<path class="st0" d="M207.9,175.8h-2.1l2.5-11.7h2.1L207.9,175.8z"/>
	<path class="st0" d="M219.2,166.8c-0.7-0.7-1.2-1-2-1c-3,0-3.9,4-3.9,5.6c0,1.3,0.4,2.5,2,2.5c0.7,0,1.5-0.3,2.3-0.9l0.3-1.2h-1.3
		l0.4-1.8h3.4l-0.8,3.7c-1.1,1.3-2.7,2.2-4.5,2.2c-2.8,0-3.9-1.9-3.9-4.2c0-3.4,2-7.8,6.3-7.8c1.4,0,2.3,0.5,3.4,1.7L219.2,166.8z"
		/>
	<path class="st0" d="M235,166h-4.1l-0.7,2c0.2,0,0.5,0,0.7,0c2.1,0,3.8,1.1,3.8,3.3c0,2.8-2.1,4.7-5,4.7c-1.7,0-3.3-0.9-4-2.5
		l1.8-0.8c0.4,0.8,1.3,1.4,2.3,1.4c1.6,0,2.8-1,2.8-2.5c0-1.4-1.2-1.9-2.5-1.9c-1.1,0-2.1,0.2-3,0.6l2.3-6.1h5.9L235,166z"/>
	<path class="st0" d="M7.4,192.6H2.3l0.3-1.6h5.1L7.4,192.6z"/>
	<path class="st0" d="M18.2,192.2h-1.8l-1,4.8h-2.1l2.5-11.7h3.7c2,0,3.4,1,3.4,2.7C22.9,190.8,20.7,192.2,18.2,192.2z M19.3,187.2
		h-1.8l-0.7,3.1h1.6c1.5,0,2.5-0.8,2.5-2C20.9,187.6,20.4,187.2,19.3,187.2z"/>
	<path class="st0" d="M32.3,187.2h-5l-0.6,2.7h3.6l-0.4,1.9h-3.6l-0.7,3.3h5.6l-0.4,1.9h-7.7l2.5-11.7h7.1L32.3,187.2z"/>
	<path class="st0" d="M41.9,197h-2l-3.5-8.4l-1.8,8.4h-2.1l2.5-11.7h2l3.5,8.4l1.8-8.4h2.1L41.9,197z"/>
	<path class="st0" d="M53.9,197h-2l-3.5-8.4l-1.8,8.4h-2.1l2.5-11.7h2l3.5,8.4l1.8-8.4h2.1L53.9,197z"/>
	<path class="st1" d="M68.3,197l-0.3-2.2h-3.9L63,197h-2.9l6.6-11.7h2.8L71,197H68.3z M67.5,189.2c0-0.5,0-0.8,0-0.8l-2.1,4.1h2.4
		L67.5,189.2z"/>
	<path class="st1" d="M79.8,197h-7.3l2.5-11.7h2.7l-2,9.3h4.6L79.8,197z"/>
	<path class="st1" d="M88.8,197h-7.3l2.5-11.7h2.7l-2,9.3h4.6L88.8,197z"/>
	<path class="st1" d="M103.6,187.6h-2.9l-2,9.3H96l2-9.3h-2.9l0.5-2.4h8.5L103.6,187.6z"/>
	<path class="st1" d="M105.8,197h-2.7l2.5-11.7h2.7L105.8,197z"/>
	<path class="st1" d="M119.8,197h-2.7l1.5-7.2l-4.1,4.9l-1.9-5l-1.6,7.3h-2.7l2.5-11.7h2.5l2,5.2l4.3-5.2h2.6L119.8,197z"/>
	<path class="st1" d="M131.9,187.6H127l-0.5,2.2h3.5l-0.5,2.3h-3.5l-0.5,2.5h5.4l-0.5,2.4h-8.1l2.5-11.7h7.5L131.9,187.6z"/>
	<path class="st1" d="M143.8,190.5c0.8,0.4,1.3,1.2,1.3,2.2c0,2.8-2.5,4.3-5,4.3h-4.4l2.5-11.7h3.7c1.6,0,3.5,0.6,3.5,2.5
		C145.3,189,144.7,190,143.8,190.5z M141.2,191.9h-1.7l-0.6,2.8h1.5c1.1,0,2.2-0.6,2.2-1.8C142.5,192.1,141.8,191.9,141.2,191.9z
		 M141.6,187.5h-1.2l-0.5,2.3h1c1,0,1.9-0.3,1.9-1.4C142.8,187.7,142.1,187.5,141.6,187.5z"/>
	<path class="st1" d="M153.6,197h-7.3l2.5-11.7h2.7l-2,9.3h4.6L153.6,197z"/>
	<path class="st1" d="M159.7,197.1c-2.9,0-4.5-1.9-4.5-4.7c0-3.6,2.3-7.3,6.2-7.3c2.9,0,4.5,1.9,4.5,4.7
		C166,193.4,163.6,197.1,159.7,197.1z M161.4,187.5c-2.3,0-3.5,2.8-3.5,4.8c0,1.2,0.6,2.3,1.9,2.3c2.3,0,3.4-2.8,3.4-4.8
		C163.3,188.7,162.7,187.5,161.4,187.5z"/>
	<path class="st1" d="M175.4,188.4c-0.5-0.6-1-1-1.9-1c-2.2,0-3.6,3-3.6,5c0,1.2,0.5,2.4,1.9,2.4c0.9,0,1.7-0.5,2.4-1.1l1.6,1.5
		c-1.2,1.2-2.6,2-4.3,2c-2.7,0-4.2-2-4.2-4.6c0-3.6,2.5-7.4,6.4-7.4c1.7,0,2.7,0.7,3.7,2L175.4,188.4z"/>
	<path class="st1" d="M183.9,190.2l3,6.8h-3.1l-2-5l-1.2,1.2l-0.8,3.7h-2.7l2.5-11.7h2.7l-1,4.5l4.1-4.5h3.3L183.9,190.2z"/>
	<path class="st1" d="M195.9,188.2c-0.6-0.5-1.5-0.8-2.2-0.8c-0.6,0-1.4,0.3-1.4,1.1c0,1.4,4.5,1.9,4.5,4.8c0,2.6-2,3.8-4.4,3.8
		c-1.7,0-3.5-0.8-4.6-2.2l2.2-1.5c0.6,0.8,1.7,1.3,2.6,1.3c0.7,0,1.6-0.4,1.6-1.2c0-1.4-4.5-2.1-4.5-4.8c0-2.5,2-3.7,4.3-3.7
		c1.6,0,3,0.6,4.1,1.7L195.9,188.2z"/>
	<path class="st1" d="M208.9,197h-7.3l2.5-11.7h2.7l-2,9.3h4.6L208.9,197z"/>
	<path class="st1" d="M220.1,187.6h-4.9l-0.5,2.2h3.5l-0.5,2.3h-3.5l-0.5,2.5h5.4l-0.5,2.4h-8.1l2.5-11.7h7.5L220.1,187.6z"/>
	<path class="st1" d="M227.5,197l-0.3-2.2h-3.9l-1.2,2.2h-2.9l6.6-11.7h2.8l1.5,11.7H227.5z M226.7,189.2c0-0.5,0-0.8,0-0.8
		l-2.1,4.1h2.4L226.7,189.2z"/>
	<path class="st1" d="M235.9,197h-4.1l2.5-11.7h3.9c2.8,0,4.4,1.6,4.4,4.4C242.6,193.5,239.9,197,235.9,197z M237.9,187.6h-1.4
		l-1.5,7h1.2c2.4,0,3.8-2.6,3.8-4.7C239.9,188.6,239.3,187.6,237.9,187.6z"/>
	<path class="st1" d="M252.8,187.6H248l-0.5,2.2h3.5l-0.5,2.3H247l-0.5,2.5h5.4l-0.5,2.4h-8.1l2.5-11.7h7.5L252.8,187.6z"/>
	<path class="st1" d="M260.2,192.2l2.2,4.8h-3l-1.8-4.5h-0.9l-1,4.5H253l2.5-11.7h4.1c2,0,3.5,1,3.5,2.9
		C263.1,190.1,262,191.5,260.2,192.2z M258.4,190.2c1.2,0,2.1-0.5,2.1-1.7c0-0.6-0.4-0.9-1.3-0.9h-1.4l-0.6,2.6H258.4z"/>
	<path class="st0" d="M21.2,218.1h-2l-0.7-6.2l-3.3,6.2H13l-0.7-11.7h2.2l0.4,8.5l4.6-8.4l1.1,8.4l4-8.6h2.3L21.2,218.1z"/>
	<path class="st0" d="M28.2,218.1h-2.1l2.5-11.7h2.1L28.2,218.1z"/>
	<path class="st0" d="M40,208.3h-3l-2.1,9.8h-2.1l2.1-9.8h-3l0.4-1.9h8.1L40,208.3z"/>
	<path class="st0" d="M48.4,218.1h-2.1l1.1-5.2h-4.7l-1.1,5.2h-2.1l2.5-11.7h2.1l-1,4.6h4.7l1-4.6h2.1L48.4,218.1z"/>
	<path class="st1" d="M63,213.7l-2.4,2.1H64l-0.5,2.4h-8.6l6-5.5c1-0.9,1.7-1.6,1.9-2.5c0.2-0.8-0.3-1.4-1.2-1.4
		c-0.9,0-1.8,0.5-2.1,1.8h-2.7c0.6-2.7,2.9-4.1,5.1-4.1c2.4,0,4,1.9,3.5,4C64.9,211.6,64.2,212.6,63,213.7z"/>
	<path class="st1" d="M70.4,218.3c-2.5,0-4.2-1.5-4.2-4c0-3.2,2.6-6,5-7.8h3.6c-1.8,1.2-3.4,2.5-4.7,4.3c0.4-0.1,0.9-0.2,1.3-0.2
		c1.9,0,3.4,1.3,3.4,3.3C74.9,216.3,72.8,218.3,70.4,218.3z M70.5,212.6c-0.5,0-1,0.1-1.4,0.3c-0.2,0.5-0.3,0.9-0.3,1.4
		c0,1,0.7,1.6,1.6,1.6c1.1,0,1.9-0.8,1.9-1.9C72.3,213,71.4,212.6,70.5,212.6z"/>
	<path class="st1" d="M82.8,213.7l-2.4,2.1h3.3l-0.5,2.4h-8.6l6-5.5c1-0.9,1.7-1.6,1.9-2.5c0.2-0.8-0.3-1.4-1.2-1.4
		c-0.9,0-1.8,0.5-2.1,1.8h-2.7c0.6-2.7,2.9-4.1,5.1-4.1c2.4,0,4,1.9,3.5,4C84.7,211.6,83.9,212.6,82.8,213.7z"/>
	<path class="st0" d="M97.9,209.2c-0.6-0.8-1.2-1.1-2-1.1c-2.6,0-4.1,3.3-4.1,5.6c0,1.7,0.9,2.6,2.2,2.6c0.8,0,1.5-0.3,2.5-1.1
		l1.3,1.3c-1.6,1.3-2.7,1.8-4.1,1.8c-2.8,0-4-2.1-4-4.5c0-3.4,2.4-7.5,6.3-7.5c1.5,0,2.4,0.5,3.5,1.8L97.9,209.2z"/>
	<path class="st0" d="M106.6,218.1l-0.3-2.6h-4.3l-1.4,2.6h-2.3l6.8-11.7h2.2l1.6,11.7H106.6z M105.6,209.7c0-0.4-0.1-0.5-0.1-0.8
		l-2.6,4.9h3.1L105.6,209.7z"/>
	<path class="st0" d="M116.9,213.2l2.7,5h-2.5l-2.3-4.8h-1.2l-1,4.8h-2.1l2.5-11.7h3.7c2,0,3.4,0.9,3.4,2.7
		C120.1,211.2,118.9,212.5,116.9,213.2z M116.4,208.3h-1.7l-0.7,3.1h1.5c1.4,0,2.5-0.7,2.5-2C118,208.7,117.5,208.3,116.4,208.3z"/>
	<path class="st0" d="M130,208.3h-5l-0.6,2.7h3.6l-0.4,1.9H124l-0.7,3.3h5.6l-0.4,1.9h-7.7l2.5-11.7h7.1L130,208.3z"/>
	<path class="st0" d="M139.4,208.3h-5l-0.6,2.7h3.6l-0.4,1.9h-3.6l-0.7,3.3h5.6l-0.4,1.9h-7.7l2.5-11.7h7.1L139.4,208.3z"/>
	<path class="st0" d="M146,213.2l2.7,5h-2.5l-2.3-4.8h-1.2l-1,4.8h-2.1l2.5-11.7h3.7c2,0,3.4,0.9,3.4,2.7
		C149.2,211.2,148,212.5,146,213.2z M145.5,208.3h-1.7l-0.7,3.1h1.5c1.4,0,2.5-0.7,2.5-2C147.1,208.7,146.6,208.3,145.5,208.3z"/>
	<path class="st0" d="M162,211.6c1.1,0.4,1.4,1.3,1.4,2.3c0,2.4-2,4.2-4.9,4.2h-4.1l2.5-11.7h3.4c2.1,0,3.4,0.9,3.4,2.5
		C163.6,209.7,163.3,210.9,162,211.6z M159.7,212.9h-2l-0.7,3.3h1.8c1.5,0,2.6-0.8,2.6-2.2C161.4,213.3,160.9,212.9,159.7,212.9z
		 M160,208.3h-1.4l-0.6,2.7h1.2c1.3,0,2.3-0.5,2.3-1.8C161.6,208.6,161,208.3,160,208.3z"/>
	<path class="st0" d="M171.5,218.1h-6.8l2.5-11.7h2.1l-2.1,9.8h4.7L171.5,218.1z"/>
	<path class="st0" d="M177.4,218.3c-2.8,0-4.3-1.9-4.3-4.6c0-3.4,2.2-7.4,6-7.4c2.8,0,4.3,1.9,4.3,4.6
		C183.4,214.3,181.2,218.3,177.4,218.3z M179,208.2c-2.6,0-3.8,3.2-3.8,5.4c0,1.5,0.7,2.6,2.3,2.6c2.6,0,3.8-3.2,3.8-5.4
		C181.3,209.4,180.6,208.2,179,208.2z"/>
	<path class="st0" d="M193,209.2c-0.6-0.8-1.2-1.1-2-1.1c-2.6,0-4.1,3.3-4.1,5.6c0,1.7,0.9,2.6,2.2,2.6c0.8,0,1.5-0.3,2.5-1.1
		l1.3,1.3c-1.6,1.3-2.7,1.8-4.1,1.8c-2.8,0-4-2.1-4-4.5c0-3.4,2.4-7.5,6.3-7.5c1.5,0,2.4,0.5,3.5,1.8L193,209.2z"/>
	<path class="st0" d="M200.3,211.3l3.2,6.8h-2.4l-2.3-5.4l-1.5,1.4l-0.9,4h-2.1l2.5-11.7h2.1l-1.1,4.9l4.9-4.9h2.6L200.3,211.3z"/>
	<path class="st0" d="M211.9,208.9c-0.5-0.4-1.4-0.7-2-0.7c-0.9,0-1.7,0.5-1.7,1.5c0,1.7,4.2,1.9,4.2,4.9c0,2.4-1.8,3.9-4.2,3.9
		c-1.5,0-3-0.7-4-1.9l1.7-1.3c0.5,0.7,1.5,1.3,2.4,1.3c1.1,0,1.9-0.7,1.9-1.8c0-1.8-4.2-2-4.2-4.8c0-2.4,1.8-3.7,4.1-3.7
		c1.3,0,2.6,0.6,3.5,1.4L211.9,208.9z"/>
	<path class="st0" d="M7.4,234.9H2.3l0.3-1.6h5.1L7.4,234.9z"/>
	<path class="st0" d="M18.2,234.5h-1.8l-1,4.8h-2.1l2.5-11.7h3.7c2,0,3.4,1,3.4,2.7C22.9,233.1,20.7,234.5,18.2,234.5z M19.3,229.5
		h-1.8l-0.7,3.1h1.6c1.5,0,2.5-0.8,2.5-2C20.9,229.9,20.4,229.5,19.3,229.5z"/>
	<path class="st0" d="M32.3,229.5h-5l-0.6,2.7h3.6l-0.4,1.9h-3.6l-0.7,3.3h5.6l-0.4,1.9h-7.7l2.5-11.7h7.1L32.3,229.5z"/>
	<path class="st0" d="M41.9,239.3h-2l-3.5-8.4l-1.8,8.4h-2.1l2.5-11.7h2l3.5,8.4l1.8-8.4h2.1L41.9,239.3z"/>
	<path class="st0" d="M53.9,239.3h-2l-3.5-8.4l-1.8,8.4h-2.1l2.5-11.7h2l3.5,8.4l1.8-8.4h2.1L53.9,239.3z"/>
	<path class="st0" d="M72.2,239.3h-2.1l1.8-8.3l-4.6,5.7L65,231l-1.8,8.3h-2.1l2.5-11.7h2l2.2,5.5l4.7-5.5h2.2L72.2,239.3z"/>
	<path class="st0" d="M79.9,239.4c-2.8,0-4.3-1.9-4.3-4.6c0-3.4,2.2-7.4,6-7.4c2.8,0,4.3,1.9,4.3,4.6
		C85.8,235.4,83.7,239.4,79.9,239.4z M81.5,229.4c-2.6,0-3.8,3.2-3.8,5.4c0,1.5,0.7,2.6,2.3,2.6c2.6,0,3.8-3.2,3.8-5.4
		C83.7,230.6,83.1,229.4,81.5,229.4z"/>
	<path class="st0" d="M93.9,230c-0.5-0.4-1.4-0.7-2-0.7c-0.9,0-1.7,0.5-1.7,1.5c0,1.7,4.2,1.9,4.2,4.9c0,2.4-1.8,3.9-4.2,3.9
		c-1.5,0-3-0.7-4-1.9l1.7-1.3c0.5,0.7,1.5,1.3,2.4,1.3c1.1,0,1.9-0.7,1.9-1.8c0-1.8-4.2-2-4.2-4.8c0-2.4,1.8-3.7,4.1-3.7
		c1.3,0,2.6,0.6,3.5,1.4L93.9,230z"/>
	<path class="st0" d="M104.8,229.5h-3l-2.1,9.8h-2.1l2.1-9.8h-3l0.4-1.9h8.1L104.8,229.5z"/>
	<path class="st0" d="M116.5,232.8c1.1,0.4,1.4,1.3,1.4,2.3c0,2.4-2,4.2-4.9,4.2h-4.1l2.5-11.7h3.4c2.1,0,3.4,0.9,3.4,2.5
		C118.1,230.9,117.8,232.1,116.5,232.8z M114.1,234h-2l-0.7,3.3h1.8c1.5,0,2.6-0.8,2.6-2.2C115.8,234.5,115.3,234,114.1,234z
		 M114.4,229.5H113l-0.6,2.7h1.2c1.3,0,2.3-0.5,2.3-1.8C116,229.8,115.4,229.5,114.4,229.5z"/>
	<path class="st0" d="M126,239.3h-6.8l2.5-11.7h2.1l-2.1,9.8h4.7L126,239.3z"/>
	<path class="st0" d="M131.8,239.4c-2.8,0-4.3-1.9-4.3-4.6c0-3.4,2.2-7.4,6-7.4c2.8,0,4.3,1.9,4.3,4.6
		C137.8,235.4,135.7,239.4,131.8,239.4z M133.4,229.4c-2.6,0-3.8,3.2-3.8,5.4c0,1.5,0.7,2.6,2.3,2.6c2.6,0,3.8-3.2,3.8-5.4
		C135.7,230.6,135,229.4,133.4,229.4z"/>
	<path class="st0" d="M147.4,230.4c-0.6-0.8-1.2-1.1-2-1.1c-2.6,0-4.1,3.3-4.1,5.6c0,1.7,0.9,2.6,2.2,2.6c0.8,0,1.5-0.3,2.5-1.1
		l1.3,1.3c-1.6,1.3-2.7,1.8-4.1,1.8c-2.8,0-4-2.1-4-4.5c0-3.4,2.4-7.5,6.3-7.5c1.5,0,2.4,0.5,3.5,1.8L147.4,230.4z"/>
	<path class="st0" d="M154.7,232.5l3.2,6.8h-2.4l-2.3-5.4l-1.5,1.4l-0.9,4h-2.1l2.5-11.7h2.1l-1.1,4.9l4.9-4.9h2.6L154.7,232.5z"/>
	<path class="st0" d="M166.3,230c-0.5-0.4-1.4-0.7-2-0.7c-0.9,0-1.7,0.5-1.7,1.5c0,1.7,4.2,1.9,4.2,4.9c0,2.4-1.8,3.9-4.2,3.9
		c-1.5,0-3-0.7-4-1.9l1.7-1.3c0.5,0.7,1.5,1.3,2.4,1.3c1.1,0,1.9-0.7,1.9-1.8c0-1.8-4.2-2-4.2-4.8c0-2.4,1.8-3.7,4.1-3.7
		c1.3,0,2.6,0.6,3.5,1.4L166.3,230z"/>
	<path class="st0" d="M174.7,239.3h-2.1l2.5-11.7h2.1L174.7,239.3z"/>
	<path class="st0" d="M186.8,239.3h-2l-3.5-8.4l-1.8,8.4h-2.1l2.5-11.7h2l3.5,8.4l1.8-8.4h2.1L186.8,239.3z"/>
	<path class="st0" d="M201.2,230c-0.5-0.4-1.4-0.7-2-0.7c-0.9,0-1.7,0.5-1.7,1.5c0,1.7,4.2,1.9,4.2,4.9c0,2.4-1.8,3.9-4.2,3.9
		c-1.5,0-3-0.7-4-1.9l1.7-1.3c0.5,0.7,1.5,1.3,2.4,1.3c1.1,0,1.9-0.7,1.9-1.8c0-1.8-4.2-2-4.2-4.8c0-2.4,1.8-3.7,4.1-3.7
		c1.3,0,2.6,0.6,3.5,1.4L201.2,230z"/>
	<path class="st0" d="M205.1,239.3h-2.1l2.5-11.7h2.1L205.1,239.3z"/>
	<path class="st0" d="M217.1,239.3h-2l-3.5-8.4l-1.8,8.4h-2.1l2.5-11.7h2l3.5,8.4l1.8-8.4h2.1L217.1,239.3z"/>
	<path class="st0" d="M228.4,230.3c-0.7-0.7-1.2-1-2-1c-3,0-3.9,4-3.9,5.6c0,1.3,0.4,2.5,2,2.5c0.7,0,1.5-0.3,2.3-0.9l0.3-1.2h-1.3
		l0.4-1.8h3.4l-0.8,3.7c-1.1,1.3-2.7,2.2-4.5,2.2c-2.8,0-3.9-1.9-3.9-4.2c0-3.4,2-7.8,6.3-7.8c1.4,0,2.3,0.5,3.4,1.7L228.4,230.3z"
		/>
	<path class="st0" d="M237.5,239.3h-6.8l2.5-11.7h2.1l-2.1,9.8h4.7L237.5,239.3z"/>
	<path class="st0" d="M248.5,229.5h-5l-0.6,2.7h3.6l-0.4,1.9h-3.6l-0.7,3.3h5.6l-0.4,1.9h-7.7l2.5-11.7h7.1L248.5,229.5z"/>
	<path class="st0" d="M18.1,251.2c-0.5-0.4-1.4-0.7-2-0.7c-0.9,0-1.7,0.5-1.7,1.5c0,1.7,4.2,1.9,4.2,4.9c0,2.4-1.8,3.9-4.2,3.9
		c-1.5,0-3-0.7-4-1.9l1.7-1.3c0.5,0.7,1.5,1.3,2.4,1.3c1.1,0,1.9-0.7,1.9-1.8c0-1.8-4.2-2-4.2-4.8c0-2.4,1.8-3.7,4.1-3.7
		c1.3,0,2.6,0.6,3.5,1.4L18.1,251.2z"/>
	<path class="st0" d="M29,250.6h-5l-0.6,2.7H27l-0.4,1.9H23l-0.7,3.3h5.6l-0.4,1.9h-7.7l2.5-11.7h7.1L29,250.6z"/>
	<path class="st0" d="M36.5,260.5l-0.3-2.6h-4.3l-1.4,2.6h-2.3l6.8-11.7h2.2l1.6,11.7H36.5z M35.6,252c0-0.4-0.1-0.5-0.1-0.8
		l-2.6,4.9H36L35.6,252z"/>
	<path class="st0" d="M47.7,251.2c-0.5-0.4-1.4-0.7-2-0.7c-0.9,0-1.7,0.5-1.7,1.5c0,1.7,4.2,1.9,4.2,4.9c0,2.4-1.8,3.9-4.2,3.9
		c-1.5,0-3-0.7-4-1.9l1.7-1.3c0.5,0.7,1.5,1.3,2.4,1.3c1.1,0,1.9-0.7,1.9-1.8c0-1.8-4.2-2-4.2-4.8c0-2.4,1.8-3.7,4.1-3.7
		c1.3,0,2.6,0.6,3.5,1.4L47.7,251.2z"/>
	<path class="st0" d="M54.4,260.6c-2.8,0-4.3-1.9-4.3-4.6c0-3.4,2.2-7.4,6-7.4c2.8,0,4.3,1.9,4.3,4.6
		C60.3,256.6,58.2,260.6,54.4,260.6z M56,250.5c-2.6,0-3.8,3.2-3.8,5.4c0,1.5,0.7,2.6,2.3,2.6c2.6,0,3.8-3.2,3.8-5.4
		C58.3,251.8,57.6,250.5,56,250.5z"/>
	<path class="st0" d="M70.6,260.5h-2l-3.5-8.4l-1.8,8.4h-2.1l2.5-11.7h2l3.5,8.4l1.8-8.4h2.1L70.6,260.5z"/>
	<path class="st0" d="M88.2,260.5h-2l-0.7-6.2l-3.3,6.2H80l-0.7-11.7h2.2l0.4,8.5l4.6-8.4l1.1,8.4l4-8.6h2.3L88.2,260.5z"/>
	<path class="st0" d="M95.1,260.5H93l2.5-11.7h2.1L95.1,260.5z"/>
	<path class="st0" d="M106.9,250.6h-3l-2.1,9.8h-2.1l2.1-9.8h-3l0.4-1.9h8.1L106.9,250.6z"/>
	<path class="st0" d="M115.4,260.5h-2.1l1.1-5.2h-4.7l-1.1,5.2h-2.1l2.5-11.7h2.1l-1,4.6h4.7l1-4.6h2.1L115.4,260.5z"/>
	<path class="st1" d="M127.4,260.5h-3.6c1.8-1.2,3.4-2.5,4.7-4.3c-0.4,0.1-0.9,0.2-1.3,0.2c-1.9,0-3.4-1.3-3.4-3.3
		c0-2.5,2.1-4.5,4.6-4.5c2.5,0,4.2,1.5,4.2,4C132.4,255.9,129.8,258.7,127.4,260.5z M128.2,251c-1.1,0-1.9,0.8-1.9,1.9
		c0,1,0.9,1.5,1.8,1.5c0.5,0,1-0.1,1.4-0.3c0.2-0.5,0.3-1,0.3-1.4C129.8,251.6,129.1,251,128.2,251z"/>
	<path class="st1" d="M137.7,260.5h-3.6c1.8-1.2,3.4-2.5,4.7-4.3c-0.4,0.1-0.9,0.2-1.3,0.2c-1.9,0-3.4-1.3-3.4-3.3
		c0-2.5,2.1-4.5,4.6-4.5c2.5,0,4.2,1.5,4.2,4C142.7,255.9,140.1,258.7,137.7,260.5z M138.5,251c-1.1,0-1.9,0.8-1.9,1.9
		c0,1,0.9,1.5,1.8,1.5c0.5,0,1-0.1,1.4-0.3c0.2-0.5,0.3-1,0.3-1.4C140.1,251.6,139.5,251,138.5,251z"/>
	<path class="st0" d="M154.2,260.5l-0.3-2.6h-4.3l-1.4,2.6h-2.3l6.8-11.7h2.2l1.6,11.7H154.2z M153.2,252c0-0.4-0.1-0.5-0.1-0.8
		l-2.6,4.9h3.1L153.2,252z"/>
	<path class="st0" d="M165.3,251.2c-0.5-0.4-1.4-0.7-2-0.7c-0.9,0-1.7,0.5-1.7,1.5c0,1.7,4.2,1.9,4.2,4.9c0,2.4-1.8,3.9-4.2,3.9
		c-1.5,0-3-0.7-4-1.9l1.7-1.3c0.5,0.7,1.5,1.3,2.4,1.3c1.1,0,1.9-0.7,1.9-1.8c0-1.8-4.2-2-4.2-4.8c0-2.4,1.8-3.7,4.1-3.7
		c1.3,0,2.6,0.6,3.5,1.4L165.3,251.2z"/>
	<path class="st0" d="M180.9,250.6h-5.1l-0.6,2.7h3.7l-0.4,1.9h-3.7l-1.1,5.2h-2.1l2.5-11.7h7.2L180.9,250.6z"/>
	<path class="st0" d="M186.9,255.5l2.7,5h-2.5l-2.3-4.8h-1.2l-1,4.8h-2.1l2.5-11.7h3.7c2,0,3.4,0.9,3.4,2.7
		C190.1,253.5,188.9,254.8,186.9,255.5z M186.4,250.6h-1.7l-0.7,3.1h1.5c1.4,0,2.5-0.7,2.5-2C188,251.1,187.5,250.6,186.4,250.6z"/>
	<path class="st0" d="M200,250.6h-5l-0.6,2.7h3.6l-0.4,1.9H194l-0.7,3.3h5.6l-0.4,1.9h-7.7l2.5-11.7h7.1L200,250.6z"/>
	<path class="st0" d="M207.4,251.2c-0.5-0.4-1.4-0.7-2-0.7c-0.9,0-1.7,0.5-1.7,1.5c0,1.7,4.2,1.9,4.2,4.9c0,2.4-1.8,3.9-4.2,3.9
		c-1.5,0-3-0.7-4-1.9l1.7-1.3c0.5,0.7,1.5,1.3,2.4,1.3c1.1,0,1.9-0.7,1.9-1.8c0-1.8-4.2-2-4.2-4.8c0-2.4,1.8-3.7,4.1-3.7
		c1.3,0,2.6,0.6,3.5,1.4L207.4,251.2z"/>
	<path class="st0" d="M218.1,260.5H216l1.1-5.2h-4.7l-1.1,5.2h-2.1l2.5-11.7h2.1l-1,4.6h4.7l1-4.6h2.1L218.1,260.5z"/>
	<path class="st0" d="M231.8,260.5h-2.1l1.8-8.3l-4.6,5.7l-2.2-5.6l-1.8,8.3h-2.1l2.5-11.7h2l2.2,5.5l4.7-5.5h2.2L231.8,260.5z"/>
	<path class="st0" d="M241.8,260.5l-0.3-2.6h-4.3l-1.4,2.6h-2.3l6.8-11.7h2.2l1.6,11.7H241.8z M240.8,252c0-0.4-0.1-0.5-0.1-0.8
		l-2.6,4.9h3.1L240.8,252z"/>
	<path class="st0" d="M255.1,260.5h-2l-3.5-8.4l-1.8,8.4h-2.1l2.5-11.7h2l3.5,8.4l1.8-8.4h2.1L255.1,260.5z"/>
	<path class="st0" d="M7.4,277.2H2.3l0.3-1.6h5.1L7.4,277.2z"/>
	<path class="st1" d="M16,281.6h-2.7l2.5-11.7h2.7L16,281.6z"/>
	<path class="st1" d="M24,281.6h-2.4L20,269.9h2.8l0.8,7.8l4.1-7.8h2.9L24,281.6z"/>
	<path class="st1" d="M36.1,277.6l-0.8,4h-2.7l0.9-4.2l-2.4-7.6h2.9l1.3,5l3.4-5h3.1L36.1,277.6z"/>
	<path class="st1" d="M51.6,276.8l2.2,4.8h-3l-1.8-4.5h-0.9l-1,4.5h-2.7l2.5-11.7H51c2,0,3.5,1,3.5,2.9
		C54.5,274.7,53.5,276.2,51.6,276.8z M49.8,274.9c1.2,0,2.1-0.5,2.1-1.7c0-0.6-0.4-0.9-1.3-0.9h-1.4l-0.6,2.6H49.8z"/>
	<path class="st1" d="M59.9,281.7c-2.9,0-4.5-1.9-4.5-4.7c0-3.6,2.3-7.3,6.2-7.3c2.9,0,4.5,1.9,4.5,4.7
		C66.2,278,63.8,281.7,59.9,281.7z M61.6,272.2c-2.3,0-3.5,2.8-3.5,4.8c0,1.2,0.6,2.3,1.9,2.3c2.3,0,3.4-2.8,3.4-4.8
		C63.5,273.3,62.9,272.2,61.6,272.2z"/>
	<path class="st1" d="M72,281.7c-2.9,0-4.5-1.9-4.5-4.7c0-3.6,2.3-7.3,6.2-7.3c2.9,0,4.5,1.9,4.5,4.7C78.2,278,75.9,281.7,72,281.7z
		 M73.6,272.2c-2.3,0-3.5,2.8-3.5,4.8c0,1.2,0.6,2.3,1.9,2.3c2.3,0,3.4-2.8,3.4-4.8C75.5,273.3,75,272.2,73.6,272.2z"/>
	<path class="st1" d="M85.7,274.8l3,6.8h-3.1l-2-5l-1.2,1.2l-0.8,3.7h-2.7l2.5-11.7h2.7l-1,4.5l4.1-4.5h3.3L85.7,274.8z"/>
	<path class="st1" d="M92.5,281.6h-2.7l2.5-11.7H95L92.5,281.6z"/>
	<path class="st1" d="M104.6,272.3h-4.9l-0.5,2.2h3.5l-0.5,2.3h-3.5l-0.5,2.5h5.4l-0.5,2.4h-8.1l2.5-11.7h7.5L104.6,272.3z"/>
	<path class="st1" d="M113.6,281.7c-2.9,0-4.5-1.9-4.5-4.7c0-3.6,2.3-7.3,6.2-7.3c2.9,0,4.5,1.9,4.5,4.7
		C119.8,278,117.4,281.7,113.6,281.7z M115.2,272.2c-2.3,0-3.5,2.8-3.5,4.8c0,1.2,0.6,2.3,1.9,2.3c2.3,0,3.4-2.8,3.4-4.8
		C117.1,273.3,116.5,272.2,115.2,272.2z"/>
	<path class="st1" d="M130.1,272.3h-5l-0.5,2.2h3.6l-0.5,2.3h-3.6l-1.1,4.9h-2.7l2.5-11.7h7.6L130.1,272.3z"/>
	<path class="st1" d="M142.8,272.3h-2.9l-2,9.3h-2.7l2-9.3h-2.9l0.5-2.4h8.5L142.8,272.3z"/>
	<path class="st1" d="M151.6,281.6h-2.7l1.1-5h-3.9l-1.1,5h-2.7l2.5-11.7h2.7l-0.9,4.4h3.9l0.9-4.4h2.7L151.6,281.6z"/>
	<path class="st1" d="M163.7,272.3h-4.9l-0.5,2.2h3.5l-0.5,2.3h-3.5l-0.5,2.5h5.4l-0.5,2.4h-8.1l2.5-11.7h7.5L163.7,272.3z"/>
	<path class="st1" d="M174.1,277.6l-0.8,4h-2.7l0.9-4.2l-2.4-7.6h2.9l1.3,5l3.4-5h3.1L174.1,277.6z"/>
	<path class="st1" d="M188.4,272.3h-4.9l-0.5,2.2h3.5l-0.5,2.3h-3.5l-0.5,2.5h5.4l-0.5,2.4h-8.1l2.5-11.7h7.5L188.4,272.3z"/>
	<path class="st1" d="M195.8,281.6l-0.3-2.2h-3.9l-1.2,2.2h-2.9l6.6-11.7h2.8l1.5,11.7H195.8z M195,273.8c0-0.5,0-0.8,0-0.8
		l-2.1,4.1h2.4L195,273.8z"/>
	<path class="st1" d="M207.1,276.8l2.2,4.8h-3l-1.8-4.5h-0.9l-1,4.5H200l2.5-11.7h4.1c2,0,3.5,1,3.5,2.9
		C210.1,274.7,209,276.2,207.1,276.8z M205.3,274.9c1.2,0,2.1-0.5,2.1-1.7c0-0.6-0.4-0.9-1.3-0.9h-1.4l-0.6,2.6H205.3z"/>
	<path class="st1" d="M217.1,279.3c0,1.3,0.2,2.7,0.4,4h-1.9c-0.7-1.5-1-3-1-4.6c0-3.7,1.6-7.6,4-10.4h2.1
		C218.6,271.7,217.1,275.1,217.1,279.3z"/>
	<path class="st1" d="M227,277.1l-2.4,2.1h3.3l-0.5,2.4h-8.6l6-5.5c1-0.9,1.7-1.6,1.9-2.5c0.2-0.8-0.3-1.4-1.2-1.4
		c-0.9,0-1.8,0.5-2.1,1.8h-2.7c0.6-2.7,2.9-4.1,5.1-4.1c2.4,0,4,1.9,3.5,4C229,275.1,228.2,276.1,227,277.1z"/>
	<path class="st1" d="M234.6,281.7c-2.7,0-4.2-1.9-4.2-4.5c0-3.4,2-7.4,5.8-7.4c2.7,0,4.2,1.8,4.2,4.4
		C240.5,277.7,238.5,281.7,234.6,281.7z M236.2,272.2c-2.1,0-3.1,3.2-3,5c0,1,0.3,2.2,1.6,2.2c2.2,0,3.1-3.1,3.1-4.9
		C237.8,273.3,237.5,272.2,236.2,272.2z"/>
	<path class="st1" d="M244,281.6h-2.7l2.5-11.7h2.7L244,281.6z"/>
	<path class="st1" d="M253.9,274c1.1,0.5,1.8,1.7,1.8,2.9c0,2.8-2.3,4.9-5.2,4.9c-2,0-3.6-1.2-4.1-2.9l2.4-1c0.2,0.8,1,1.4,1.9,1.4
		c1.3,0,2.3-0.9,2.3-2.2c0-1.4-1.6-1.8-3-1.6l2.9-3.2h-4.4l0.5-2.4h8.6L253.9,274z"/>
	<path class="st1" d="M257.9,283.3h-2.1c2.2-3.4,3.7-6.8,3.7-11c0-1.4-0.2-2.7-0.4-4.1h1.9c0.7,1.5,1,3,1,4.7
		C261.9,276.6,260.3,280.5,257.9,283.3z"/>
</g>
</svg>
