<?xml version="1.0" encoding="utf-8"?>
<!-- Generator: Adobe Illustrator 16.0.0, SVG Export Plug-In . SVG Version: 6.00 Build 0)  -->
<!DOCTYPE svg PUBLIC "-//W3C//DTD SVG 1.1//EN" "http://www.w3.org/Graphics/SVG/1.1/DTD/svg11.dtd">
<svg version="1.1" id="Layer_1" xmlns="http://www.w3.org/2000/svg" xmlns:xlink="http://www.w3.org/1999/xlink" x="0px" y="0px"
	 width="537.579px" height="693.893px" viewBox="0 0 537.579 693.893" enable-background="new 0 0 537.579 693.893"
	 xml:space="preserve">
<path d="M217.943,671.777l-11.76,5.502c-3.542,1.656-6.739,4.207-9.371,7.471l-5.681,7.045c-0.635,0.789-0.164,2.098,0.756,2.098
	h19.434c4.297,0,8.479-1.66,11.909-4.73l21.313-20.949l0.154,25.68h3.663v-26.719L217.943,671.777z"/>
<path fill="#F9CCAD" d="M197.747,683.648c0,0,8.994,1.861,17.91-1.414c8.914-3.273,19.527-15.059,19.527-15.059l-17.229,2.064
	l-11.772,8.039C206.184,677.279,201.815,678.658,197.747,683.648"/>
<path d="M305.585,671.777l11.76,5.502c3.542,1.656,6.739,4.207,9.371,7.471l5.68,7.045c0.637,0.789,0.164,2.098-0.756,2.098h-19.433
	c-4.297,0-8.478-1.66-11.909-4.73l-21.314-20.949l-0.153,25.68h-3.663v-26.719L305.585,671.777z"/>
<path fill="#F9CCAD" d="M325.78,683.648c0,0-8.994,1.861-17.908-1.414c-8.916-3.273-19.528-15.059-19.528-15.059l12.315-1.242
	l16.686,11.346C317.345,677.279,321.713,678.658,325.78,683.648"/>
<path fill="#F9CCAD" d="M456.315,188.386L456.315,188.386c1.038,0.714,2.473,0.448,3.187-0.591l10.608-15.438
	c0.714-1.039,0.447-2.473-0.592-3.187c-1.039-0.714-2.473-0.448-3.187,0.591l-10.608,15.438
	C455.01,186.238,455.276,187.672,456.315,188.386"/>
<path fill="#F9CCAD" d="M451.009,184.74L451.009,184.74c1.097,0.753,2.608,0.472,3.361-0.623l11.949-17.389
	c0.753-1.095,0.472-2.608-0.624-3.361c-1.095-0.753-2.608-0.473-3.361,0.623l-11.948,17.388
	C449.634,182.474,449.913,183.987,451.009,184.74"/>
<path fill="#F9CCAD" d="M445.41,180.893l0.427,0.294c1.097,0.753,2.609,0.472,3.362-0.624l12.968-18.872
	c0.753-1.096,0.473-2.608-0.624-3.361l-0.427-0.294c-1.096-0.753-2.607-0.472-3.361,0.623l-12.968,18.872
	C444.034,178.626,444.314,180.14,445.41,180.893"/>
<path fill="#F9CCAD" d="M440.022,177.19L440.022,177.19c1.096,0.753,2.608,0.472,3.361-0.623l11.949-17.389
	c0.753-1.095,0.472-2.608-0.624-3.361s-2.608-0.473-3.361,0.623l-11.948,17.388C438.646,174.924,438.927,176.438,440.022,177.19"/>
<path fill="#F9CCAD" d="M438.868,174.604l-8.284,12.056c-0.86,1.252-1.282,2.681-1.295,4.103c-0.013,0.975,0.167,1.949,0.528,2.854
	c0.304,0.766,0.736,1.483,1.289,2.12l0.002,0.001c0.399,0.463,0.863,0.88,1.389,1.241l7.939,5.456
	c3.365,2.312,8.01,1.451,10.32-1.913l8.285-12.056c0.899-1.309,0.564-3.116-0.745-4.015l-15.414-10.592
	C441.574,172.959,439.767,173.295,438.868,174.604"/>
<path fill="#F9CCAD" d="M426.701,176.818l2.587,13.944l0.53,2.854c0.303,0.766,0.735,1.484,1.287,2.12l0.002,0.002
	c0.438,0.228,0.954,0.319,1.476,0.223l0.246-0.048c1.24-0.229,2.066-1.43,1.836-2.671l-3.209-17.306
	c-0.23-1.238-1.434-2.065-2.672-1.835l-0.247,0.046C427.3,174.376,426.474,175.578,426.701,176.818"/>
<path fill="#1C75BC" d="M413.304,268.992l-6.141,10.65c-4.43,7.68-14.26,10.309-21.939,5.869l-55.916-32.589l-35.24-20.35
	l12.34-21.38h2.59c2.36,0,4.641,0.41,6.75,1.17l6.37,3.68L413.304,268.992z"/>
<path fill="#F9CCAD" d="M145.964,449.055L145.964,449.055c-1.226-0.293-2.469,0.471-2.762,1.697l-4.352,18.219
	c-0.291,1.227,0.472,2.469,1.698,2.762c1.226,0.293,2.47-0.471,2.761-1.697l4.352-18.219
	C147.954,450.59,147.19,449.348,145.964,449.055"/>
<path fill="#F9CCAD" d="M152.226,450.549L152.226,450.549c-1.293-0.309-2.604,0.498-2.913,1.791l-4.9,20.521
	c-0.309,1.293,0.496,2.604,1.79,2.912c1.293,0.309,2.604-0.496,2.912-1.789l4.901-20.521
	C154.324,452.17,153.519,450.859,152.226,450.549"/>
<path fill="#F9CCAD" d="M158.833,452.127l-0.504-0.119c-1.294-0.309-2.604,0.496-2.913,1.789l-5.319,22.271
	c-0.309,1.293,0.497,2.604,1.79,2.914l0.505,0.119c1.293,0.309,2.604-0.496,2.912-1.789l5.319-22.271
	C160.933,453.748,160.126,452.438,158.833,452.127"/>
<path fill="#F9CCAD" d="M165.191,453.646L165.191,453.646c-1.293-0.309-2.604,0.496-2.913,1.789l-4.9,20.521
	c-0.309,1.293,0.496,2.604,1.791,2.912c1.293,0.309,2.604-0.496,2.912-1.789l4.9-20.521
	C167.29,455.266,166.484,453.955,165.191,453.646"/>
<path fill="#F9CCAD" d="M167.198,455.645l3.398-14.227c0.352-1.479,0.232-2.965-0.266-4.295c-0.34-0.914-0.857-1.758-1.521-2.473
	c-0.558-0.605-1.22-1.121-1.964-1.516h-0.002c-0.54-0.289-1.123-0.512-1.743-0.66l-9.369-2.236
	c-3.972-0.949-7.996,1.523-8.944,5.494l-3.397,14.229c-0.369,1.543,0.593,3.109,2.138,3.479l18.191,4.344
	C165.264,458.152,166.829,457.189,167.198,455.645"/>
<path fill="#F9CCAD" d="M177.757,449.205l-7.426-12.082l-1.521-2.473c-0.558-0.607-1.22-1.121-1.964-1.516l-0.002-0.002
	c-0.491-0.055-1.006,0.045-1.457,0.324l-0.213,0.131c-1.075,0.66-1.414,2.078-0.754,3.154l9.215,14.996
	c0.66,1.07,2.08,1.412,3.154,0.752l0.213-0.131C178.076,451.699,178.415,450.281,177.757,449.205"/>
<rect x="265.74" y="419.016" fill="#0665A4" width="52.325" height="251.615"/>
<path fill="#1C75BC" d="M329.308,231.513v168.341c0,11.17-9.141,20.309-20.311,20.309h-98.8c-11.17,0-20.31-9.139-20.31-20.309
	V231.513c0-11.18,9.14-20.32,20.31-20.32h98.8c2.359,0,4.641,0.41,6.75,1.17c2.35,0.82,4.51,2.08,6.37,3.68
	C326.507,219.773,329.308,225.332,329.308,231.513"/>
<path fill="#FFDC7C" d="M273.577,88.948c0,0,0.553-9.811,4.021-9.811c3.468,0,24.275,4.624,30.055,20.23
	c5.78,15.605,12.5,70.66-0.928,93.552c-4.698,8.009-9.451,15.109-23.335,15.109"/>
<path fill="#FFDC7C" d="M273.577,88.948c0,0,4.021-13.258-3.492-12.701s-52.019-3.34-57.799,22.825
	c-5.779,26.165-9.248,60.124-2.89,82.949c6.358,22.826,26.411,26.007,26.411,26.007"/>
<path fill="#F9CCAD" d="M264.577,196.418h-9.956c-20.683,0-37.45-16.767-37.45-37.451v-33.179c0-20.683,16.768-37.45,37.45-37.45
	h9.956c20.683,0,37.451,16.767,37.451,37.45v33.179C302.028,179.651,285.26,196.418,264.577,196.418"/>
<rect x="235.808" y="188.792" fill="#F9CCAD" width="47.584" height="24.272"/>
<path fill="#F9CCAD" d="M235.808,213.064c0,0,5.65,11.25,23.791,11.25s23.793-11.25,23.793-11.25H235.808z"/>
<path fill="#FFDC7C" d="M276.714,90.356c0,0-15.602-3.407-33.795,9.116c-12.93,8.9-4.169,15.906-27.691,36.347
	c-3.025-10.522-0.653-30.354,3.775-37.703C224.505,88.99,242.638,80.868,276.714,90.356"/>
<polygon fill="#F9CCAD" points="235.547,210.993 252.458,251.436 266.989,251.436 283.667,211.283 "/>
<polygon fill="#0665A4" points="268.478,292.393 268.478,293.023 267.978,292.402 260.308,283.023 257.367,279.412 214.587,227.072 
	236.927,212.193 260.367,271.783 263.337,279.322 "/>
<polygon fill="#0665A4" points="305.527,225.623 262.617,278.123 259.587,281.822 256.647,278.213 259.647,270.582 283.197,210.733 
	"/>
<rect x="203.781" y="420.16" fill="#0665A4" width="52.325" height="251.617"/>
<path fill="#F1F2F2" d="M263.159,224.314c0,1.966-1.594,3.561-3.561,3.561c-1.965,0-3.56-1.595-3.56-3.561
	c0-1.967,1.595-3.56,3.56-3.56C261.565,220.754,263.159,222.348,263.159,224.314"/>
<path fill="#F1F2F2" d="M270.201,223.188c0,1.966-1.595,3.56-3.56,3.56c-1.968,0-3.561-1.594-3.561-3.56
	c0-1.966,1.593-3.56,3.561-3.56C268.606,219.628,270.201,221.222,270.201,223.188"/>
<path fill="#F1F2F2" d="M276.958,220.9c0,1.965-1.594,3.56-3.561,3.56s-3.56-1.595-3.56-3.56c0-1.966,1.593-3.56,3.56-3.56
	S276.958,218.934,276.958,220.9"/>
<path fill="#F1F2F2" d="M283.132,217.34c0,1.966-1.594,3.56-3.56,3.56s-3.56-1.594-3.56-3.56c0-1.966,1.594-3.56,3.56-3.56
	S283.132,215.374,283.132,217.34"/>
<path fill="#F1F2F2" d="M288.423,212.612c0,1.966-1.594,3.56-3.561,3.56s-3.56-1.594-3.56-3.56s1.593-3.56,3.56-3.56
	S288.423,210.646,288.423,212.612"/>
<path fill="#F1F2F2" d="M248.918,223.188c0,1.966,1.595,3.56,3.56,3.56c1.967,0,3.561-1.594,3.561-3.56
	c0-1.966-1.594-3.56-3.561-3.56C250.513,219.628,248.918,221.222,248.918,223.188"/>
<path fill="#F1F2F2" d="M242.161,220.9c0,1.965,1.594,3.56,3.561,3.56s3.56-1.595,3.56-3.56c0-1.966-1.593-3.56-3.56-3.56
	S242.161,218.934,242.161,220.9"/>
<path fill="#F1F2F2" d="M235.987,217.34c0,1.966,1.594,3.56,3.56,3.56s3.56-1.594,3.56-3.56c0-1.966-1.594-3.56-3.56-3.56
	S235.987,215.374,235.987,217.34"/>
<path fill="#F1F2F2" d="M230.696,212.612c0,1.966,1.594,3.56,3.561,3.56s3.56-1.594,3.56-3.56s-1.593-3.56-3.56-3.56
	S230.696,210.646,230.696,212.612"/>
<path fill="#0665A4" d="M265.717,294.32c0,3.373-2.735,6.109-6.11,6.109c-3.373,0-6.109-2.736-6.109-6.109
	c0-3.375,2.736-6.111,6.109-6.111C262.981,288.209,265.717,290.945,265.717,294.32"/>
<path fill="#1C75BC" d="M329.308,315.15v127.77c0,5.086-4.369,9.207-9.758,9.207H199.644c-5.389,0-9.756-4.121-9.756-9.207V315.15
	H329.308z"/>
<path fill="#0665A4" d="M265.717,323.445c0,3.373-2.735,6.109-6.11,6.109c-3.373,0-6.109-2.736-6.109-6.109
	c0-3.375,2.736-6.111,6.109-6.111C262.981,317.334,265.717,320.07,265.717,323.445"/>
<path fill="#0665A4" d="M265.717,352.568c0,3.375-2.735,6.111-6.11,6.111c-3.373,0-6.109-2.736-6.109-6.111
	c0-3.373,2.736-6.109,6.109-6.109C262.981,346.459,265.717,349.195,265.717,352.568"/>
<rect x="267.978" y="292.393" fill="#0665A4" width="0.5" height="150.07"/>
<path fill="#0665A4" d="M268.478,442.463c0,2.896-0.75,5.234-2.23,6.943c-1.41,1.627-3.189,2.371-4.561,2.721h-2.09v-0.291
	c0.041,0,1.01-0.012,2.271-0.361c1.26-0.359,2.819-1.068,4.03-2.486c1.38-1.594,2.08-3.791,2.08-6.525H268.478z"/>
<polygon fill="#1C75BC" points="172.626,443.629 142.384,438.473 190.326,227.608 211.384,216.275 "/>
<rect x="405.267" y="191.283" transform="matrix(-0.866 -0.5 0.5 -0.866 667.6666 638.9933)" fill="#1C75BC" width="28.346" height="77.531"/>
</svg>
