<?xml version="1.0" encoding="utf-8"?>
<!-- Generator: Adobe Illustrator 16.0.0, SVG Export Plug-In . SVG Version: 6.00 Build 0)  -->
<!DOCTYPE svg PUBLIC "-//W3C//DTD SVG 1.1//EN" "http://www.w3.org/Graphics/SVG/1.1/DTD/svg11.dtd">
<svg version="1.1" id="Layer_1" xmlns="http://www.w3.org/2000/svg" xmlns:xlink="http://www.w3.org/1999/xlink" x="0px" y="0px"
	 width="537.579px" height="693.893px" viewBox="0 0 537.579 693.893" enable-background="new 0 0 537.579 693.893"
	 xml:space="preserve">
<path fill="#F7C9AE" d="M173.942,420.403L173.942,420.403c-1.24-0.297-2.498,0.477-2.794,1.715l-4.399,18.426
	c-0.296,1.238,0.477,2.496,1.717,2.793c1.24,0.295,2.497-0.479,2.793-1.719l4.399-18.422
	C175.954,421.956,175.182,420.698,173.942,420.403"/>
<path fill="#F7C9AE" d="M180.273,421.915L180.273,421.915c-1.308-0.312-2.633,0.502-2.946,1.811l-4.954,20.75
	c-0.312,1.309,0.502,2.635,1.81,2.947c1.308,0.311,2.633-0.502,2.945-1.811l4.956-20.752
	C182.396,423.554,181.582,422.228,180.273,421.915"/>
<path fill="#F7C9AE" d="M186.956,423.511l-0.511-0.121c-1.308-0.312-2.633,0.502-2.945,1.809l-5.378,22.523
	c-0.312,1.307,0.502,2.633,1.81,2.945l0.51,0.121c1.309,0.312,2.633-0.502,2.946-1.809l5.378-22.523
	C189.077,425.149,188.264,423.823,186.956,423.511"/>
<path fill="#F7C9AE" d="M193.386,425.046L193.386,425.046c-1.309-0.312-2.633,0.502-2.946,1.811l-4.955,20.75
	c-0.312,1.309,0.502,2.635,1.81,2.947c1.309,0.312,2.634-0.502,2.945-1.811l4.956-20.75
	C195.508,426.685,194.693,425.358,193.386,425.046"/>
<path fill="#F7C9AE" d="M195.415,427.067l3.436-14.387c0.357-1.494,0.235-2.996-0.269-4.344c-0.342-0.924-0.866-1.777-1.537-2.5
	c-0.563-0.613-1.233-1.133-1.986-1.533h-0.002c-0.546-0.291-1.135-0.518-1.762-0.666l-9.475-2.264
	c-4.017-0.959-8.086,1.543-9.045,5.557l-3.436,14.389c-0.373,1.561,0.599,3.145,2.162,3.518l18.396,4.393
	C193.459,429.603,195.042,428.63,195.415,427.067"/>
<path fill="#F7C9AE" d="M206.092,420.556l-7.51-12.217l-1.537-2.502c-0.564-0.613-1.233-1.133-1.985-1.533h-0.003
	c-0.496-0.057-1.016,0.045-1.473,0.326l-0.216,0.133c-1.087,0.666-1.43,2.102-0.761,3.189l9.318,15.164
	c0.666,1.084,2.103,1.428,3.188,0.76l0.218-0.133C206.415,423.077,206.758,421.644,206.092,420.556"/>
<path fill="#F7C9AE" d="M363.638,420.765L363.638,420.765c1.24-0.295,2.497,0.477,2.793,1.717l4.4,18.424
	c0.296,1.24-0.478,2.496-1.718,2.793c-1.239,0.297-2.497-0.477-2.793-1.717l-4.398-18.424
	C361.626,422.317,362.397,421.062,363.638,420.765"/>
<path fill="#F7C9AE" d="M357.306,422.278L357.306,422.278c1.309-0.312,2.633,0.502,2.946,1.809l4.955,20.752
	c0.312,1.307-0.502,2.633-1.811,2.945c-1.308,0.312-2.633-0.502-2.944-1.811l-4.956-20.75
	C355.184,423.915,355.998,422.589,357.306,422.278"/>
<path fill="#F7C9AE" d="M350.624,423.874l0.51-0.123c1.309-0.312,2.633,0.502,2.946,1.811l5.378,22.521
	c0.312,1.309-0.502,2.635-1.811,2.945l-0.51,0.123c-1.308,0.312-2.633-0.502-2.945-1.811l-5.379-22.521
	C348.502,425.511,349.315,424.185,350.624,423.874"/>
<path fill="#F7C9AE" d="M344.194,425.409L344.194,425.409c1.308-0.312,2.633,0.502,2.945,1.809l4.955,20.752
	c0.312,1.309-0.502,2.633-1.81,2.945s-2.633-0.502-2.945-1.809l-4.956-20.752C342.072,427.046,342.886,425.72,344.194,425.409"/>
<path fill="#F7C9AE" d="M342.165,427.431l-3.437-14.389c-0.357-1.492-0.235-2.996,0.269-4.342c0.343-0.926,0.866-1.777,1.537-2.502
	c0.564-0.611,1.233-1.133,1.986-1.533h0.002c0.546-0.291,1.135-0.516,1.762-0.666l9.476-2.262c4.016-0.959,8.086,1.541,9.045,5.557
	l3.435,14.387c0.373,1.562-0.599,3.145-2.162,3.518l-18.395,4.395C344.12,429.966,342.537,428.991,342.165,427.431"/>
<path fill="#F7C9AE" d="M331.488,420.917l7.51-12.217l1.537-2.502c0.563-0.611,1.232-1.133,1.984-1.533h0.003
	c0.496-0.057,1.017,0.047,1.474,0.326l0.215,0.135c1.087,0.666,1.43,2.1,0.761,3.188l-9.318,15.164
	c-0.665,1.086-2.103,1.428-3.188,0.762l-0.217-0.133C331.164,423.44,330.822,422.005,331.488,420.917"/>
<path fill="#F7C9AE" d="M216.958,676.597c0,0,13.201-10.395,15.442-19.35c2.242-8.957,19.061-4.807,19.061-4.807l-3.058,11.598
	l-22.717,18.547l-8.729,1.311V676.597z"/>
<rect x="232.401" y="498.661" fill="#F7C9AE" width="28.532" height="163.389"/>
<rect x="272.755" y="498.661" fill="#F7C9AE" width="28.532" height="164.928"/>
<path fill="#4BC0B3" d="M304.909,519.204h-76.186c-4.286,0-7.826-3.348-8.066-7.627l-11.135-198.977h119.339l-15.898,199.168
	C312.628,515.968,309.122,519.204,304.909,519.204"/>
<path fill="#3BBEB1" d="M339.448,195.031v172.22c0,5.891-2.45,11.23-6.36,15.02c-2.779,2.689-6.31,4.6-10.22,5.381
	c-1.26,0.25-2.57,0.379-3.9,0.379h-28.31l-19.6-52.539l-1.74-4.68l-1.811,4.77l-19.88,52.449h-28.319c-1.94,0-3.83-0.279-5.61-0.809
	c-3.68-1.061-6.94-3.15-9.46-5.941c-3.351-3.709-5.41-8.639-5.41-14.029v-172.22c0-2.13,0.32-4.18,0.92-6.12
	c0.41-1.36,0.97-2.67,1.64-3.9c3.141-5.76,8.891-9.86,15.601-10.63c0.76-0.09,1.54-0.14,2.32-0.14h99.84
	c2.319,0.02,4.55,0.44,6.63,1.2c2.37,0.84,4.54,2.13,6.43,3.76c1.851,1.59,3.42,3.52,4.61,5.69c0.08,0.11,0.14,0.22,0.189,0.34
	C338.568,188.151,339.448,191.491,339.448,195.031"/>
<polygon fill="#F1F2F2" points="247.629,174.241 269.142,217.255 290.653,174.241 300.946,174.241 269.142,268.419 237.684,174.234 
	"/>
<path fill="#F7C9AE" d="M272.81,154.271h-7.337c-23.77,0-43.039-19.269-43.039-43.039V67.646c0-23.77,19.27-43.039,43.039-43.039
	h7.337c23.771,0,43.039,19.269,43.039,43.039v43.586C315.849,135.001,296.58,154.271,272.81,154.271"/>
<rect x="247.63" y="145.122" fill="#F7C9AE" width="43.023" height="29.12"/>
<polygon fill="#F7C9AE" points="247.629,174.241 269.142,217.255 290.653,174.241 "/>
<polygon fill="#0EB19D" points="237.683,174.235 224.635,183.579 269.313,330.808 312.369,187.952 300.946,174.245 269.141,268.419 
	"/>
<path fill="#D69347" d="M295.333,30.968c0,0-11.437-8.015-27.605-8.015c-16.168,0-24.78,8.015-24.78,8.015
	s-9.501,4.755-16.999,19.63c-7.497,14.876-11.184,31.299-11.854,42.024c-0.67,10.725,0.851,18.754,1.187,26.798
	c0.335,8.044-1.306,20.125-1.306,29.509c0,9.385,4.067,22.57,2.75,28.603c-1.317,6.033,3.324,10.611,5.709,10.611
	c2.386,0,7.748-1.675,11.435-1.675c3.688,0,4.421,1.675,9.081,1.675c4.661,0,2.315-19.439,2.315-19.439s-5.57-17.671-6.305-23.583
	c-0.734-5.911-8.778-39.427-7.772-55.683c1.005-16.256,22.792-34.019,26.479-38.711c3.686-4.693,7.706-15.418,15.416-15.418
	c7.709,0,29.665,0.79,25.957-1.776L295.333,30.968z"/>
<path fill="#3BBEB1" d="M247.625,388.03H210.29c-6.327,0-11.457-5.129-11.457-11.457v-28.188h48.792V388.03z"/>
<path fill="#3BBEB1" d="M327.988,388.03h-37.335v-39.645h48.792v28.188C339.445,382.901,334.316,388.03,327.988,388.03"/>
<path fill="#C4BD61" d="M274.95,330.011c0,3.209-2.602,5.809-5.81,5.809s-5.808-2.6-5.808-5.809c0-3.207,2.6-5.809,5.808-5.809
	S274.95,326.804,274.95,330.011"/>
<path d="M261.167,643.97c0,0,10.3,10.088,0.463,26.775c0,0-3.24,4.857-3.587,8.719l-0.539,11.527l-2.019-0.014l-0.684-13.26
	c0,0-0.463-7.346-4.629-5.852c-4.167,1.494-14.727,18.584-21.324,19.799c-6.176,1.139-23.231,3.113-28.209-5.727
	c0,0-1.504-2.99,3.241-4.732l13.078-4.609c0,0,3.951,5.756,10.067,1.371c11.754-8.426,24.879-21.939,28.749-26.918
	C255.775,651.05,258.514,647.696,261.167,643.97"/>
<path fill="#F7C9AE" d="M317.479,675.956c0,0-13.201-10.395-15.442-19.35c-2.24-8.957-19.061-4.807-19.061-4.807l3.058,11.598
	l22.718,18.547l8.728,1.311V675.956z"/>
<path d="M278.661,650.409c3.871,4.979,16.996,18.49,28.749,26.918c6.117,4.385,10.068-1.371,10.068-1.371l13.078,4.607
	c4.745,1.744,3.239,4.734,3.239,4.734c-4.976,8.838-22.031,6.865-28.209,5.727c-6.596-1.215-17.155-18.305-21.322-19.799
	c-4.166-1.494-4.629,5.852-4.629,5.852l-0.684,13.26l-2.019,0.012l-0.539-11.525c-0.347-3.861-3.587-8.719-3.587-8.719
	c-9.837-16.688,0.463-26.775,0.463-26.775C275.923,647.056,278.661,650.409,278.661,650.409"/>
<path fill="#3BBEB1" d="M227.708,188.201l-0.479,3.92l-14.641,120.48l-2.1,17.279l-2.25,18.512l-4,32.889l-0.56,4.641l-3.091,25.391
	l-0.2-0.021l-1.329-0.17l-4.86-0.59l-19.71-2.389l-1.37-0.17l25.71-211.501l0.92-7.56c0.41-1.36,0.97-2.67,1.64-3.9l18.931,2.29
	l4.53,0.55l1.13,0.14L227.708,188.201z"/>
<rect x="322.96" y="185.715" transform="matrix(0.9927 -0.1207 0.1207 0.9927 -33.5154 42.8284)" fill="#3BBEB1" width="27.672" height="224.748"/>
<path fill="#D69347" d="M323.448,152.201c-1.34,6.04-4.311,11.91-4.05,15.43c0.1,1.24,0.09,3.33,0.06,5.65
	c-2.56,7.53-1.8,12.83-0.189,16.39c-0.381,1.95-1.33,3.65-3.42,4.22c-3.891,1.06-6.211,1.13-10.25,0
	c-2.681-0.75-9.181-6.55-9.28-9.39c-0.01-0.27-0.01-0.54-0.01-0.81c0.02-1.96,0.38-3.71,0.939-5.33c0-0.03,0.01-0.07,0.03-0.1
	c2.21-6.36,7.52-10.57,7.979-16.36c0.71-9.05,1.07-16.63,0.091-21.05c-2.511-11.41,2.779-27.61,2.069-33.98
	c-1.08-9.77-4.43-22.05-4.84-35.88c-0.46-15.28-8.479-32.1-15.86-35.57l-2.1-8.78c0,0,27.35,7.01,31.23,23.39
	c3.88,16.38,4.489,53.3,6.84,61.11C325.028,118.951,324.788,146.161,323.448,152.201"/>
<path fill="#D69347" d="M324.458,195.661c0,0-19.189,4.561-25,0c-3.32-2.61-3.56-7.96-3.149-12.06c0.27-2.69,0.81-4.84,0.939-5.33
	c0.021-0.06,0.03-0.1,0.03-0.1l22.18-4.98c-2.56,7.53-1.8,12.83-0.189,16.39C321.229,193.921,324.458,195.661,324.458,195.661"/>
<path fill="#D69347" d="M216.725,177.443c0,0,0.635,12.306-10.293,11.427c2.031,6.313,10.729,8.648,16.002,8.766
	c3.952,0.087,13.506,0.044,18.044,0.016c0.81-0.005,1.155-1.031,0.514-1.525l-22.03-16.962L216.725,177.443z"/>
<path fill="#D69347" d="M242.451,178.875c1.581-0.767,3.423,0.361,3.459,2.118c0.049,2.411,0.062,5.348-0.11,6.751
	c-0.213,1.737-1.173,5.44-1.922,8.169c-0.441,1.612-2.346,2.294-3.711,1.331l-11.158-7.878c-1.497-1.057-1.311-3.333,0.338-4.134
	L242.451,178.875z"/>
</svg>
