<?xml version="1.0" encoding="utf-8"?>
<!-- Generator: Adobe Illustrator 16.0.0, SVG Export Plug-In . SVG Version: 6.00 Build 0)  -->
<!DOCTYPE svg PUBLIC "-//W3C//DTD SVG 1.1//EN" "http://www.w3.org/Graphics/SVG/1.1/DTD/svg11.dtd">
<svg version="1.1" id="Layer_1" xmlns="http://www.w3.org/2000/svg" xmlns:xlink="http://www.w3.org/1999/xlink" x="0px" y="0px"
	 width="525.502px" height="351.023px" viewBox="0 0 525.502 351.023" enable-background="new 0 0 525.502 351.023"
	 xml:space="preserve">
<rect y="44.291" fill="#C6C6C6" width="42" height="42"/>
<rect x="44" y="132.6" fill="#C6C6C6" width="42" height="42"/>
<rect x="44" y="176.754" fill="#C6C6C6" width="42" height="42.001"/>
<rect x="44.001" y="88.445" fill="#C6C6C6" width="42" height="42"/>
<rect x="88.001" y="132.677" fill="#C6C6C6" width="42" height="42"/>
<rect x="88.001" y="176.831" fill="#C6C6C6" width="42" height="42"/>
<rect x="88.002" y="220.985" fill="#C6C6C6" width="42" height="42.001"/>
<rect x="88.003" y="88.522" fill="#C6C6C6" width="42" height="42"/>
<rect x="131.665" y="132.561" fill="#C6C6C6" width="42" height="42"/>
<rect x="131.665" y="176.715" fill="#C6C6C6" width="42" height="42.001"/>
<rect x="131.666" y="220.87" fill="#C6C6C6" width="42" height="41.999"/>
<rect x="131.666" y="265.023" fill="#C6C6C6" width="42" height="42"/>
<rect x="131.667" y="309.023" fill="#C6C6C6" width="42" height="42"/>
<rect x="351.668" y="309.023" fill="#C6C6C6" width="42" height="42"/>
<rect y="309.023" fill="#C6C6C6" width="42" height="42"/>
<rect x="131.667" y="88.406" fill="#C6C6C6" width="42" height="42"/>
<rect x="175.667" y="132.561" fill="#C6C6C6" width="42" height="42"/>
<rect x="175.667" y="176.715" fill="#C6C6C6" width="42" height="42.001"/>
<rect x="175.667" y="220.87" fill="#C6C6C6" width="42" height="41.999"/>
<rect x="175.667" y="265.023" fill="#C6C6C6" width="42" height="42"/>
<rect x="175.668" y="88.406" fill="#C6C6C6" width="42" height="42"/>
<rect x="219.668" y="132.638" fill="#C6C6C6" width="42" height="42"/>
<rect x="219.668" y="176.792" fill="#C6C6C6" width="42" height="42"/>
<rect x="219.669" y="220.946" fill="#C6C6C6" width="42" height="42.001"/>
<rect x="219.669" y="265.102" fill="#C6C6C6" width="42" height="42"/>
<rect x="219.669" y="88.483" fill="#C6C6C6" width="42" height="42"/>
<rect x="263.665" y="132.619" fill="#C6C6C6" width="42" height="42"/>
<rect x="263.665" y="176.773" fill="#C6C6C6" width="42" height="42"/>
<rect x="263.667" y="220.927" fill="#C6C6C6" width="42" height="42.001"/>
<rect x="263.667" y="265.082" fill="#C6C6C6" width="42" height="42"/>
<rect x="263.667" y="44.31" fill="#C6C6C6" width="42" height="42"/>
<rect x="263.667" y="88.464" fill="#C6C6C6" width="42" height="42"/>
<rect x="307.667" y="132.619" fill="#C6C6C6" width="42" height="42"/>
<rect x="307.667" y="176.773" fill="#C6C6C6" width="42" height="42"/>
<rect x="307.667" y="220.927" fill="#C6C6C6" width="42" height="42.001"/>
<rect x="307.667" y="265.082" fill="#C6C6C6" width="42" height="42"/>
<rect x="307.668" y="88.464" fill="#C6C6C6" width="42" height="42"/>
<rect x="351.668" y="132.696" fill="#C6C6C6" width="42" height="42"/>
<rect x="351.668" y="176.85" fill="#C6C6C6" width="42" height="42"/>
<rect x="351.668" y="221.005" fill="#C6C6C6" width="42" height="42.001"/>
<rect x="395.5" y="176.541" fill="#C6C6C6" width="42" height="42"/>
<rect x="395.5" y="88.232" fill="#C6C6C6" width="42" height="42"/>
<rect x="395.5" y="132.386" fill="#C6C6C6" width="42" height="42"/>
<rect x="439.5" y="176.541" fill="#C6C6C6" width="42" height="42"/>
<rect x="439.501" y="44.077" fill="#C6C6C6" width="42" height="42"/>
<rect x="439.502" y="88.232" fill="#C6C6C6" width="42" height="42"/>
<rect x="439.502" y="132.386" fill="#C6C6C6" width="42" height="42"/>
<rect x="483.502" y="176.618" fill="#C6C6C6" width="42" height="42"/>
<rect x="483.502" fill="#C6C6C6" width="42" height="42"/>
<rect x="483.502" y="44.154" fill="#C6C6C6" width="42" height="42"/>
<rect x="483.504" y="132.463" fill="#C6C6C6" width="42" height="42"/>
<g>
	<line stroke="#FFFFFF" stroke-width="2" stroke-miterlimit="10" x1="525.502" y1="0" x2="483.502" y2="42"/>
	<line stroke="#FFFFFF" stroke-width="2" stroke-miterlimit="10" x1="525.502" y1="42" x2="483.502" y2="0"/>
</g>
<g>
	<line stroke="#FFFFFF" stroke-width="2" stroke-miterlimit="10" x1="217.668" y1="176.541" x2="175.668" y2="218.541"/>
	<line stroke="#FFFFFF" stroke-width="2" stroke-miterlimit="10" x1="217.668" y1="218.541" x2="175.668" y2="176.541"/>
</g>
<text transform="matrix(1 0 0 1 491.3345 28)" fill="#595C5D" font-family="'NeuzeitGro-Bla'" font-size="20">ME</text>
<text transform="matrix(1 0 0 1 490.8647 72.1543)" fill="#595C5D" font-family="'NeuzeitGro-Bla'" font-size="20">NH</text>
<text transform="matrix(1 0 0 1 445.4712 117.1543)" fill="#595C5D" font-family="'NeuzeitGro-Bla'" font-size="20">MA</text>
<text transform="matrix(1 0 0 1 449.4399 161.3086)" fill="#595C5D" font-family="'NeuzeitGro-Bla'" font-size="20">CT</text>
<text transform="matrix(1 0 0 1 493.4341 203.3086)" fill="#595C5D" font-family="'NeuzeitGro-Bla'" font-size="20">DE</text>
<text transform="matrix(1 0 0 1 495.6548 161.3086)" fill="#595C5D" font-family="'NeuzeitGro-Bla'" font-size="20">RI</text>
<text transform="matrix(1 0 0 1 445.4429 203.3086)" fill="#595C5D" font-family="'NeuzeitGro-Bla'" font-size="20">MD</text>
<text transform="matrix(1 0 0 1 403.6489 203.3086)" fill="#595C5D" font-family="'NeuzeitGro-Bla'" font-size="20">DC</text>
<text transform="matrix(1 0 0 1 405.6704 161.3086)" fill="#595C5D" font-family="'NeuzeitGro-Bla'" font-size="20">NJ</text>
<text transform="matrix(1 0 0 1 403.8501 117.1543)" fill="#595C5D" font-family="'NeuzeitGro-Bla'" font-size="20">NY</text>
<text transform="matrix(1 0 0 1 360.6089 161.3086)" fill="#595C5D" font-family="'NeuzeitGro-Bla'" font-size="20">PA</text>
<text transform="matrix(1 0 0 1 360.5386 203.3086)" fill="#595C5D" font-family="'NeuzeitGro-Bla'" font-size="20">VA</text>
<text transform="matrix(1 0 0 1 360.938 247.4639)" fill="#595C5D" font-family="'NeuzeitGro-Bla'" font-size="20">SC</text>
<text transform="matrix(1 0 0 1 314.5981 292.54)" fill="#595C5D" font-family="'NeuzeitGro-Bla'" font-size="20">GA</text>
<text transform="matrix(1 0 0 1 315.3579 248.3857)" fill="#595C5D" font-family="'NeuzeitGro-Bla'" font-size="20">NC</text>
<text transform="matrix(1 0 0 1 314.436 204.2314)" fill="#595C5D" font-family="'NeuzeitGro-Bla'" font-size="20">WV</text>
<text transform="matrix(1 0 0 1 314.229 161.3086)" fill="#595C5D" font-family="'NeuzeitGro-Bla'" font-size="20">OH</text>
<text transform="matrix(1 0 0 1 317.1987 117.1543)" fill="#595C5D" font-family="'NeuzeitGro-Bla'" font-size="20">MI</text>
<text transform="matrix(1 0 0 1 273.5942 291.9238)" fill="#595C5D" font-family="'NeuzeitGro-Bla'" font-size="20">AL</text>
<text transform="matrix(1 0 0 1 273.0347 247.7695)" fill="#595C5D" font-family="'NeuzeitGro-Bla'" font-size="20">TN</text>
<text transform="matrix(1 0 0 1 273.2134 203.6143)" fill="#595C5D" font-family="'NeuzeitGro-Bla'" font-size="20">KY</text>
<text transform="matrix(1 0 0 1 274.8364 160.6924)" fill="#595C5D" font-family="'NeuzeitGro-Bla'" font-size="20">IN</text>
<text transform="matrix(1 0 0 1 277.1558 116.5381)" fill="#595C5D" font-family="'NeuzeitGro-Bla'" font-size="20">IL</text>
<text transform="matrix(1 0 0 1 226.7285 291.002)" fill="#595C5D" font-family="'NeuzeitGro-Bla'" font-size="20">MS</text>
<text transform="matrix(1 0 0 1 228.2588 246.8477)" fill="#595C5D" font-family="'NeuzeitGro-Bla'" font-size="20">AR</text>
<text transform="matrix(1 0 0 1 224.3477 202.6924)" fill="#595C5D" font-family="'NeuzeitGro-Bla'" font-size="20">MO</text>
<text transform="matrix(1 0 0 1 231.3296 159.7705)" fill="#595C5D" font-family="'NeuzeitGro-Bla'" font-size="20">IA</text>
<text transform="matrix(1 0 0 1 225.1499 115.6162)" fill="#595C5D" font-family="'NeuzeitGro-Bla'" font-size="20">MN</text>
<text transform="matrix(1 0 0 1 185.5972 290.9248)" fill="#595C5D" font-family="'NeuzeitGro-Bla'" font-size="20">LA</text>
<text transform="matrix(1 0 0 1 185.5674 246.7705)" fill="#595C5D" font-family="'NeuzeitGro-Bla'" font-size="20">KS</text>
<text transform="matrix(1 0 0 1 185.1343 205.6631)" fill="#595C5D" font-family="'NeuzeitGro-Bla'" font-size="20">NE</text>
<text transform="matrix(1 0 0 1 184.8281 159.6934)" fill="#595C5D" font-family="'NeuzeitGro-Bla'" font-size="20">SD</text>
<text transform="matrix(1 0 0 1 183.248 115.5391)" fill="#595C5D" font-family="'NeuzeitGro-Bla'" font-size="20">ND</text>
<text transform="matrix(1 0 0 1 139.1865 291.9238)" fill="#595C5D" font-family="'NeuzeitGro-Bla'" font-size="20">OK</text>
<text transform="matrix(1 0 0 1 137.147 247.7695)" fill="#595C5D" font-family="'NeuzeitGro-Bla'" font-size="20">NM</text>
<text transform="matrix(1 0 0 1 138.5557 203.6143)" fill="#595C5D" font-family="'NeuzeitGro-Bla'" font-size="20">CO</text>
<text transform="matrix(1 0 0 1 138.4077 160.6924)" fill="#595C5D" font-family="'NeuzeitGro-Bla'" font-size="20">WY</text>
<text transform="matrix(1 0 0 1 139.3975 116.5381)" fill="#595C5D" font-family="'NeuzeitGro-Bla'" font-size="20">MT</text>
<text transform="matrix(1 0 0 1 96.9917 248.3857)" fill="#595C5D" font-family="'NeuzeitGro-Bla'" font-size="20">AZ</text>
<text transform="matrix(1 0 0 1 97.9106 204.2314)" fill="#595C5D" font-family="'NeuzeitGro-Bla'" font-size="20">UT</text>
<text transform="matrix(1 0 0 1 96.3828 161.3086)" fill="#595C5D" font-family="'NeuzeitGro-Bla'" font-size="20">NV</text>
<text transform="matrix(1 0 0 1 99.6328 117.1543)" fill="#595C5D" font-family="'NeuzeitGro-Bla'" font-size="20">ID</text>
<text transform="matrix(1 0 0 1 52.1792 204.2314)" fill="#595C5D" font-family="'NeuzeitGro-Bla'" font-size="20">CA</text>
<text transform="matrix(1 0 0 1 51.3013 161.3086)" fill="#595C5D" font-family="'NeuzeitGro-Bla'" font-size="20">OR</text>
<text transform="matrix(1 0 0 1 50.001 117.1543)" fill="#595C5D" font-family="'NeuzeitGro-Bla'" font-size="20">WA</text>
<text transform="matrix(1 0 0 1 273.2261 73.019)" fill="#595C5D" font-family="'NeuzeitGro-Bla'" font-size="20">WI</text>
<text transform="matrix(1 0 0 1 142.0259 337.4619)" fill="#595C5D" font-family="'NeuzeitGro-Bla'" font-size="20">TX</text>
<text transform="matrix(1 0 0 1 11.4092 337.4619)" fill="#595C5D" font-family="'NeuzeitGro-Bla'" font-size="20">HI</text>
<text transform="matrix(1 0 0 1 8.8091 73.0195)" fill="#595C5D" font-family="'NeuzeitGro-Bla'" font-size="20">AK</text>
<text transform="matrix(1 0 0 1 363.1646 337.4619)" fill="#595C5D" font-family="'NeuzeitGro-Bla'" font-size="20">FL</text>
<text transform="matrix(1 0 0 1 450.1323 72.1543)" fill="#595C5D" font-family="'NeuzeitGro-Bla'" font-size="20">VT</text>
</svg>
