<?xml version="1.0" encoding="utf-8"?>
<!-- Generator: Adobe Illustrator 16.0.0, SVG Export Plug-In . SVG Version: 6.00 Build 0)  -->
<!DOCTYPE svg PUBLIC "-//W3C//DTD SVG 1.1//EN" "http://www.w3.org/Graphics/SVG/1.1/DTD/svg11.dtd">
<svg version="1.1"
	 id="svg2" xmlns:rdf="http://www.w3.org/1999/02/22-rdf-syntax-ns#" xmlns:svg="http://www.w3.org/2000/svg" xmlns:dc="http://purl.org/dc/elements/1.1/" xmlns:cc="http://creativecommons.org/ns#" xmlns:inkscape="http://www.inkscape.org/namespaces/inkscape" xmlns:sodipodi="http://sodipodi.sourceforge.net/DTD/sodipodi-0.dtd" inkscape:version="0.48.5 r10040" sodipodi:docname="114th_United_States_Senate.svg"
	 xmlns="http://www.w3.org/2000/svg" xmlns:xlink="http://www.w3.org/1999/xlink" x="0px" y="0px" width="360px" height="185px"
	 viewBox="0 0 360 185" enable-background="new 0 0 360 185" xml:space="preserve">
<sodipodi:namedview  inkscape:cx="186.42641" gridtolerance="10" guidetolerance="10" objecttolerance="10" pagecolor="#ffffff" borderopacity="1" bordercolor="#666666" id="namedview211" inkscape:zoom="3.1777778" showgrid="false" inkscape:cy="99.02132" inkscape:pageopacity="0" inkscape:window-maximized="1" inkscape:window-x="-8" inkscape:pageshadow="2" inkscape:window-width="1366" inkscape:window-y="-8" inkscape:current-layer="Dem" inkscape:window-height="706">
	</sodipodi:namedview>
<g id="g4">
	<g id="Dem">
		<circle id="circle9" fill="#C6C6C6" cx="13.47" cy="173.34" r="6.67"/>
		<circle id="circle11" fill="#C6C6C6" cx="30.15" cy="173.34" r="6.67"/>
		<circle id="circle13" fill="#C6C6C6" cx="46.83" cy="173.34" r="6.67"/>
		<circle id="circle15" fill="#C6C6C6" cx="63.52" cy="173.34" r="6.67"/>
		<circle id="circle17" fill="#C6C6C6" cx="80.22" cy="173.34" r="6.67"/>
		<circle id="circle19" fill="#C6C6C6" cx="96.93" cy="173.35" r="6.67"/>
		<circle id="circle21" fill="#C6C6C6" cx="16" cy="150.3" r="6.67"/>
		<circle id="circle23" fill="#C6C6C6" cx="33.14" cy="149.45" r="6.67"/>
		<circle id="circle25" fill="#C6C6C6" cx="50.14" cy="149.75" r="6.67"/>
		<circle id="circle27" fill="#C6C6C6" cx="67.67" cy="148.5" r="6.67"/>
		<circle id="circle29" fill="#C6C6C6" cx="84.99" cy="148.8" r="6.67"/>
		<circle id="circle31" fill="#C6C6C6" cx="21.71" cy="127.84" r="6.67"/>
		<circle id="circle33" fill="#C6C6C6" cx="39.92" cy="126.35" r="6.67"/>
		<circle id="circle35" fill="#C6C6C6" cx="102.55" cy="149.24" r="6.67"/>
		<circle id="circle37" fill="#C6C6C6" cx="57.6" cy="127.12" r="6.67"/>
		<circle id="circle39" fill="#C6C6C6" cx="30.47" cy="106.38" r="6.67"/>
		<circle id="circle41" fill="#C6C6C6" cx="77.04" cy="125.141" r="6.67"/>
		<circle id="circle43" fill="#C6C6C6" cx="50.31" cy="104.63" r="6.67"/>
		<circle id="circle45" fill="#C6C6C6" cx="95.7" cy="126.2" r="6.67"/>
		<circle id="circle47" fill="#C6C6C6" cx="68.97" cy="106.18" r="6.67"/>
		<circle id="circle49" fill="#C6C6C6" cx="42.13" cy="86.35" r="6.67"/>
		<circle id="circle51" fill="#C6C6C6" cx="115.01" cy="127.84" r="6.67"/>
		<circle id="circle53" fill="#C6C6C6" cx="64.04" cy="84.85" r="6.67"/>
		<circle id="circle55" fill="#C6C6C6" cx="91.21" cy="104.32" r="6.67"/>
		<circle id="circle57" fill="#C6C6C6" cx="56.45" cy="68.14" r="6.67"/>
		<circle id="circle59" fill="#C6C6C6" cx="83.88" cy="87.6" r="6.67"/>
		<circle id="circle61" fill="#C6C6C6" cx="111.68" cy="106.97" r="6.67"/>
		<circle id="circle63" fill="#C6C6C6" cx="80.75" cy="67.53" r="6.67"/>
		<circle id="circle65" fill="#C6C6C6" cx="73.16" cy="52.08" r="6.67"/>
		<circle id="circle67" fill="#C6C6C6" cx="109.51" cy="87.03" r="6.67"/>
		<circle id="circle69" fill="#C6C6C6" cx="101.86" cy="71.97" r="6.67"/>
		<circle id="circle71" fill="#C6C6C6" cx="133.2" cy="111.05" r="6.67"/>
		<circle id="circle73" fill="#C6C6C6" cx="100.02" cy="53.1" r="6.67"/>
		<circle id="circle75" fill="#C6C6C6" cx="91.94" cy="38.5" r="6.67"/>
		<circle id="circle77" fill="#C6C6C6" cx="131.94" cy="92.31" r="6.67"/>
		<circle id="circle79" fill="#C6C6C6" cx="122.33" cy="59.78" r="6.67"/>
		<circle id="circle81" fill="#C6C6C6" cx="131.1" cy="74.08" r="6.67"/>
		<circle id="circle83" fill="#C6C6C6" cx="112.42" cy="27.65" r="6.67"/>
		<circle id="circle85" fill="#C6C6C6" cx="121.36" cy="41.94" r="6.67"/>
		
			<circle id="circle87" sodipodi:cx="155.52" sodipodi:cy="100.34" sodipodi:ry="6.6700001" sodipodi:rx="6.6700001" fill="#C6C6C6" cx="153.947" cy="65.095" r="6.67">
		</circle>
		<circle id="circle89" fill="#C6C6C6" cx="134.21" cy="19.75" r="6.67"/>
		<circle id="circle91" fill="#C6C6C6" cx="144.64" cy="51.44" r="6.67"/>
		
			<circle id="circle93" sodipodi:cx="155.19" sodipodi:cy="83.129997" sodipodi:ry="6.6700001" sodipodi:rx="6.6700001" fill="#C6C6C6" cx="156.764" cy="15.473" r="6.67">
		</circle>
		<circle id="circle95" fill="#C6C6C6" cx="144.2" cy="34.34" r="6.67"/>
	</g>
	<g id="Indep">
		
			<circle id="circle98" sodipodi:cx="154.97" sodipodi:cy="66.050003" sodipodi:ry="6.6700001" sodipodi:rx="6.6700001" fill="#C6C6C6" cx="156.543" cy="97.833" r="6.67">
		</circle>
		
			<circle id="circle100" sodipodi:cx="156.88" sodipodi:cy="14.94" sodipodi:ry="6.6700001" sodipodi:rx="6.6700001" fill="#C6C6C6" cx="155.936" cy="81.339" r="6.67">
		</circle>
	</g>
	<g id="Rep">
		<circle id="circle103" fill="#C6C6C6" cx="168.09" cy="47.2" r="6.67"/>
		<circle id="circle105" fill="#C6C6C6" cx="167.96" cy="30.48" r="6.67"/>
		<circle id="circle107" fill="#C6C6C6" cx="180" cy="63.33" r="6.67"/>
		<circle id="circle109" fill="#C6C6C6" cx="180" cy="13.33" r="6.67"/>
		<circle id="circle111" fill="#C6C6C6" cx="180" cy="80" r="6.67"/>
		<circle id="circle113" fill="#C6C6C6" cx="180" cy="96.67" r="6.67"/>
		<circle id="circle115" fill="#C6C6C6" cx="192.04" cy="30.48" r="6.67"/>
		<circle id="circle117" fill="#C6C6C6" cx="191.91" cy="47.2" r="6.67"/>
		<circle id="circle119" fill="#C6C6C6" cx="203.12" cy="14.94" r="6.67"/>
		<circle id="circle121" fill="#C6C6C6" cx="205.029" cy="66.05" r="6.67"/>
		<circle id="circle123" fill="#C6C6C6" cx="215.8" cy="34.34" r="6.67"/>
		<circle id="circle125" fill="#C6C6C6" cx="204.811" cy="83.13" r="6.67"/>
		<circle id="circle127" fill="#C6C6C6" cx="215.359" cy="51.44" r="6.67"/>
		<circle id="circle129" fill="#C6C6C6" cx="225.79" cy="19.75" r="6.67"/>
		<circle id="circle131" fill="#C6C6C6" cx="204.48" cy="100.34" r="6.67"/>
		<circle id="circle133" fill="#C6C6C6" cx="238.641" cy="41.94" r="6.67"/>
		<circle id="circle135" fill="#C6C6C6" cx="247.58" cy="27.65" r="6.67"/>
		<circle id="circle137" fill="#C6C6C6" cx="228.9" cy="74.08" r="6.67"/>
		<circle id="circle139" fill="#C6C6C6" cx="237.67" cy="59.78" r="6.67"/>
		<circle id="circle141" fill="#C6C6C6" cx="228.061" cy="92.31" r="6.67"/>
		<circle id="circle143" fill="#C6C6C6" cx="268.061" cy="38.5" r="6.67"/>
		<circle id="circle145" fill="#C6C6C6" cx="259.98" cy="53.1" r="6.67"/>
		<circle id="circle147" fill="#C6C6C6" cx="226.8" cy="111.05" r="6.67"/>
		<circle id="circle149" fill="#C6C6C6" cx="258.141" cy="71.97" r="6.67"/>
		<circle id="circle151" fill="#C6C6C6" cx="250.49" cy="87.03" r="6.67"/>
		<circle id="circle153" fill="#C6C6C6" cx="286.84" cy="52.08" r="6.67"/>
		<circle id="circle155" fill="#C6C6C6" cx="279.25" cy="67.53" r="6.67"/>
		<circle id="circle157" fill="#C6C6C6" cx="248.32" cy="106.97" r="6.67"/>
		<circle id="circle159" fill="#C6C6C6" cx="276.12" cy="87.6" r="6.67"/>
		<circle id="circle161" fill="#C6C6C6" cx="303.55" cy="68.14" r="6.67"/>
		<circle id="circle163" fill="#C6C6C6" cx="268.79" cy="104.32" r="6.67"/>
		<circle id="circle165" fill="#C6C6C6" cx="295.96" cy="84.85" r="6.67"/>
		<circle id="circle167" fill="#C6C6C6" cx="244.99" cy="127.84" r="6.67"/>
		<circle id="circle169" fill="#C6C6C6" cx="317.87" cy="86.35" r="6.67"/>
		<circle id="circle171" fill="#C6C6C6" cx="291.029" cy="106.18" r="6.67"/>
		<circle id="circle173" fill="#C6C6C6" cx="264.3" cy="126.2" r="6.67"/>
		<circle id="circle175" fill="#C6C6C6" cx="309.689" cy="104.63" r="6.67"/>
		<circle id="circle177" fill="#C6C6C6" cx="282.96" cy="125.141" r="6.67"/>
		<circle id="circle179" fill="#C6C6C6" cx="329.529" cy="106.38" r="6.67"/>
		<circle id="circle181" fill="#C6C6C6" cx="302.4" cy="127.12" r="6.67"/>
		<circle id="circle183" fill="#C6C6C6" cx="257.45" cy="149.24" r="6.67"/>
		<circle id="circle185" fill="#C6C6C6" cx="320.08" cy="126.35" r="6.67"/>
		<circle id="circle187" fill="#C6C6C6" cx="338.29" cy="127.84" r="6.67"/>
		<circle id="circle189" fill="#C6C6C6" cx="275.01" cy="148.8" r="6.67"/>
		<circle id="circle191" fill="#C6C6C6" cx="292.33" cy="148.5" r="6.67"/>
		<circle id="circle193" fill="#C6C6C6" cx="309.859" cy="149.75" r="6.67"/>
		<circle id="circle195" fill="#C6C6C6" cx="326.859" cy="149.45" r="6.67"/>
		<circle id="circle197" fill="#C6C6C6" cx="344" cy="150.3" r="6.67"/>
		<circle id="circle199" fill="#C6C6C6" cx="263.07" cy="173.35" r="6.67"/>
		<circle id="circle201" fill="#C6C6C6" cx="279.779" cy="173.34" r="6.67"/>
		<circle id="circle203" fill="#C6C6C6" cx="296.48" cy="173.34" r="6.67"/>
		<circle id="circle205" fill="#C6C6C6" cx="313.17" cy="173.34" r="6.67"/>
		<circle id="circle207" fill="#C6C6C6" cx="329.85" cy="173.34" r="6.67"/>
		<circle id="circle209" fill="#C6C6C6" cx="346.529" cy="173.34" r="6.67"/>
	</g>
</g>
</svg>
