<?xml version="1.0" encoding="utf-8"?>
<!-- Generator: Adobe Illustrator 16.0.0, SVG Export Plug-In . SVG Version: 6.00 Build 0)  -->
<!DOCTYPE svg PUBLIC "-//W3C//DTD SVG 1.1//EN" "http://www.w3.org/Graphics/SVG/1.1/DTD/svg11.dtd">
<svg version="1.1" id="Layer_1" xmlns="http://www.w3.org/2000/svg" xmlns:xlink="http://www.w3.org/1999/xlink" x="0px" y="0px"
	 width="537.579px" height="693.893px" viewBox="0 0 537.579 693.893" enable-background="new 0 0 537.579 693.893"
	 xml:space="preserve">
<path fill="#F9CCAD" d="M120.312,418.835L120.312,418.835c-1.547-0.379-3.114,0.609-3.484,2.195l-5.49,23.549
	c-0.369,1.586,0.595,3.191,2.143,3.57c1.547,0.379,3.114-0.609,3.484-2.193l5.489-23.551
	C122.824,420.821,121.86,419.214,120.312,418.835"/>
<path fill="#F9CCAD" d="M128.214,420.769L128.214,420.769c-1.632-0.398-3.286,0.643-3.675,2.314l-6.185,26.523
	c-0.389,1.674,0.627,3.367,2.259,3.768c1.631,0.398,3.285-0.643,3.676-2.314l6.183-26.525
	C130.861,422.862,129.846,421.167,128.214,420.769"/>
<path fill="#F9CCAD" d="M136.551,422.808l-0.637-0.156c-1.631-0.398-3.285,0.643-3.675,2.314l-6.711,28.789
	c-0.391,1.672,0.627,3.365,2.258,3.766l0.637,0.156c1.632,0.398,3.286-0.643,3.675-2.314l6.711-28.789
	C139.199,424.901,138.184,423.206,136.551,422.808"/>
<path fill="#F9CCAD" d="M144.574,424.771L144.574,424.771c-1.632-0.398-3.286,0.643-3.675,2.314l-6.185,26.525
	c-0.389,1.672,0.627,3.365,2.259,3.766c1.632,0.398,3.285-0.643,3.676-2.314l6.183-26.525
	C147.222,426.864,146.206,425.169,144.574,424.771"/>
<path fill="#F9CCAD" d="M147.106,427.354l4.287-18.393c0.444-1.908,0.294-3.828-0.335-5.549c-0.428-1.182-1.081-2.273-1.918-3.197
	c-0.704-0.783-1.539-1.447-2.479-1.959l-0.003-0.002c-0.681-0.371-1.416-0.66-2.199-0.85l-11.821-2.893
	c-5.012-1.227-10.089,1.971-11.285,7.102l-4.288,18.391c-0.465,1.998,0.749,4.021,2.698,4.498l22.953,5.615
	C144.665,430.595,146.642,429.353,147.106,427.354"/>
<path fill="#F9CCAD" d="M160.429,419.03l-9.37-15.617l-1.918-3.197c-0.704-0.783-1.539-1.447-2.479-1.959l-0.003-0.002
	c-0.62-0.07-1.268,0.059-1.839,0.418l-0.267,0.172c-1.357,0.85-1.784,2.684-0.95,4.074l11.626,19.385
	c0.832,1.387,2.625,1.824,3.978,0.973l0.271-0.17C160.832,422.253,161.26,420.421,160.429,419.03"/>
<path fill="#F9CCAD" d="M417.267,418.835L417.267,418.835c1.547-0.379,3.116,0.609,3.485,2.195l5.489,23.549
	c0.369,1.586-0.594,3.191-2.142,3.57c-1.547,0.379-3.115-0.609-3.485-2.193l-5.489-23.551
	C414.756,420.821,415.72,419.214,417.267,418.835"/>
<path fill="#F9CCAD" d="M409.366,420.769L409.366,420.769c1.632-0.398,3.286,0.643,3.675,2.314l6.184,26.523
	c0.39,1.674-0.627,3.367-2.259,3.768c-1.631,0.398-3.285-0.643-3.675-2.314l-6.184-26.525
	C406.718,422.862,407.734,421.167,409.366,420.769"/>
<path fill="#F9CCAD" d="M401.028,422.808l0.636-0.156c1.633-0.398,3.286,0.643,3.676,2.314l6.712,28.789
	c0.389,1.672-0.627,3.365-2.259,3.766l-0.637,0.156c-1.632,0.398-3.286-0.643-3.675-2.314l-6.711-28.789
	C398.381,424.901,399.396,423.206,401.028,422.808"/>
<path fill="#F9CCAD" d="M393.006,424.771L393.006,424.771c1.632-0.398,3.285,0.643,3.675,2.314l6.184,26.525
	c0.39,1.672-0.627,3.365-2.259,3.766c-1.631,0.398-3.285-0.643-3.675-2.314l-6.184-26.525
	C390.357,426.864,391.373,425.169,393.006,424.771"/>
<path fill="#F9CCAD" d="M390.473,427.354l-4.287-18.393c-0.444-1.908-0.294-3.828,0.336-5.549c0.427-1.182,1.08-2.273,1.918-3.197
	c0.703-0.783,1.538-1.447,2.478-1.959l0.003-0.002c0.681-0.371,1.416-0.66,2.199-0.85l11.822-2.893
	c5.011-1.227,10.089,1.971,11.284,7.102l4.288,18.391c0.465,1.998-0.749,4.021-2.697,4.498l-22.953,5.615
	C392.914,430.595,390.938,429.353,390.473,427.354"/>
<path fill="#F9CCAD" d="M377.151,419.03l9.37-15.617l1.918-3.197c0.703-0.783,1.539-1.447,2.478-1.959l0.003-0.002
	c0.62-0.07,1.269,0.059,1.839,0.418l0.268,0.172c1.356,0.85,1.784,2.684,0.95,4.074l-11.627,19.385
	c-0.832,1.387-2.625,1.824-3.978,0.973l-0.271-0.17C376.747,422.253,376.32,420.421,377.151,419.03"/>
<polygon fill="#232323" points="119.276,395.862 155.715,407.019 225.387,168.187 188.948,157.031 "/>
<polygon fill="#232323" points="416.442,395.862 380.004,407.019 310.332,168.187 346.771,157.031 "/>
<path fill="#F9CCAD" d="M268.843,116.884h-0.374c-21.914,0-39.679-17.765-39.679-39.679V33.381
	c0-15.373,12.462-27.834,27.834-27.834h24.064c15.372,0,27.834,12.461,27.834,27.834v43.824
	C308.522,99.12,290.757,116.884,268.843,116.884"/>
<rect x="244.171" y="105.009" fill="#F9CCAD" width="49.853" height="21.852"/>
<path fill="#603913" d="M237.699,12.964c0,0,3.343,21.066-8.909,44.441C224.887,26.619,231.127,17.555,237.699,12.964"/>
<path fill="#603913" d="M299.528,12.964c0,0-3.344,21.066,8.908,44.441C312.341,26.619,306.1,17.555,299.528,12.964"/>
<path fill="#603913" d="M231.659,19.592c0,0,2.464-15.509,35.156-15.213c32.296-1.513,38.758,15.213,38.758,15.213
	S296,9.411,268.59,9.411S231.659,19.592,231.659,19.592"/>
<path fill="#603913" d="M296.65,10.339c0,0-15.165-14.31-55.735-7.936c0,0-8.804,3.014-9.256,17.189
	C231.659,19.592,241.376,1.191,296.65,10.339"/>
<path d="M210.452,665.415c0,0-11.628,12.268-28.252,12.268c-16.625,0-14.549,15.443-14.549,15.443h69.715l5.04-5.754l2.19,5.754
	h10.778v-27.711H210.452z"/>
<path d="M327.107,665.415c0,0,11.628,12.268,28.253,12.268c16.624,0,14.548,15.443,14.548,15.443h-69.715l-5.04-5.754l-2.19,5.754
	h-10.778v-27.711H327.107z"/>
<path fill="#232323" d="M348.044,373.718H188.225V159.444c0-17.649,14.307-31.956,31.956-31.956h95.907
	c17.648,0,31.956,14.307,31.956,31.956V373.718z"/>
<rect x="243.392" y="127.488" fill="#F1F2F2" width="50.444" height="246.229"/>
<polygon fill="#E6E7E8" points="243.387,127.488 243.328,117.325 266.381,127.488 261.399,135.825 "/>
<polygon fill="#E6E7E8" points="293.777,127.488 293.836,117.325 270.783,127.488 275.764,135.825 "/>
<polygon fill="#BE1E2D" points="266.381,127.488 270.783,127.488 277.994,136.156 268.614,144.825 259.512,136.156 "/>
<polygon fill="#BE1E2D" points="268.679,137.564 273.036,137.564 283.257,333.583 253.971,333.583 264.062,137.564 "/>
<polygon fill="#BE1E2D" points="253.971,333.585 267.615,348.608 283.258,333.585 "/>
<path fill="#232323" d="M329.332,408.683H206.936c-10.334,0-18.711-8.379-18.711-18.713v-35.549h159.819v35.549
	C348.044,400.304,339.666,408.683,329.332,408.683"/>
<rect x="204.478" y="387.341" fill="#232323" width="55.926" height="283.225"/>
<rect x="277.156" y="387.341" fill="#232323" width="53.91" height="283.225"/>
<rect x="227.743" y="127.488" fill="#414042" width="15.648" height="246.229"/>
<rect x="293.836" y="125.705" fill="#414042" width="15.648" height="246.229"/>
<rect x="309.484" y="171.924" fill="#232323" width="38.56" height="200.012"/>
<rect x="188.226" y="173.707" fill="#232323" width="39.518" height="200.013"/>
<path fill="#F9CCAD" d="M230.797,85.418c0,0.01,0.01,0.01,0.01,0.021c0.482,1.102,0.754,2.369,0.754,3.708
	c0,4.255-2.705,7.695-6.043,7.695c-3.329,0-6.034-3.44-6.034-7.695c0-0.546,0.041-1.092,0.121-1.597
	c0.01-0.02,0.02-0.051,0.03-0.072l-0.061,0.062c0.262-0.649,0.422-1.267,0.523-1.844c0.211-1.257,0.09-2.359-0.182-3.296
	c-0.01-0.021-0.01-0.031-0.02-0.052c-0.523-1.813-0.416-1.096-1.811-3.142c-0.639-0.938-0.703-1.813-0.966-2.802
	c-1.769-6.819,0.554-13.371,5.199-14.638c4.636-1.257,9.824,3.235,11.594,10.054C235.392,77.539,234.004,83.059,230.797,85.418"/>
<path fill="#F9CCAD" d="M304.703,85.418c0,0.01-0.01,0.01-0.01,0.021c-0.483,1.102-0.755,2.369-0.755,3.708
	c0,4.255,2.705,7.695,6.043,7.695c3.329,0,6.034-3.44,6.034-7.695c0-0.546-0.041-1.092-0.121-1.597
	c-0.01-0.02-0.02-0.051-0.029-0.072l0.06,0.062c-0.261-0.649-0.422-1.267-0.522-1.844c-0.212-1.257-0.091-2.359,0.181-3.296
	c0.01-0.021,0.01-0.031,0.02-0.052c0.523-1.813,0.416-1.096,1.811-3.142c0.639-0.938,0.704-1.813,0.966-2.802
	c1.769-6.819-0.553-13.371-5.199-14.638c-4.636-1.257-9.824,3.235-11.594,10.054C300.107,77.539,301.495,83.059,304.703,85.418"/>
</svg>
