<?xml version="1.0" encoding="utf-8"?>
<!-- Generator: Adobe Illustrator 16.0.0, SVG Export Plug-In . SVG Version: 6.00 Build 0)  -->
<!DOCTYPE svg PUBLIC "-//W3C//DTD SVG 1.1//EN" "http://www.w3.org/Graphics/SVG/1.1/DTD/svg11.dtd">
<svg version="1.1" id="Layer_1" xmlns="http://www.w3.org/2000/svg" xmlns:xlink="http://www.w3.org/1999/xlink" x="0px" y="0px"
	 width="537.579px" height="693.893px" viewBox="0 0 537.579 693.893" enable-background="new 0 0 537.579 693.893"
	 xml:space="preserve">
<g>
	<path fill="#F8BA84" d="M499.995,208.433l1.044,1.212c1.531,1.775,4.236,1.976,6.012,0.446l20.186-17.398
		c1.775-1.531,1.977-4.236,0.445-6.012l-1.043-1.211c-1.531-1.776-4.236-1.977-6.013-0.446l-20.185,17.397
		C498.665,203.952,498.464,206.657,499.995,208.433"/>
	<path fill="#F8BA84" d="M504.964,216.932l1.044,1.212c1.531,1.775,4.236,1.976,6.012,0.446l20.186-17.398
		c1.775-1.531,1.977-4.236,0.445-6.012l-1.043-1.211c-1.531-1.776-4.236-1.977-6.013-0.446L505.41,210.92
		C503.634,212.451,503.433,215.156,504.964,216.932"/>
	<path fill="#F8BA84" d="M492.463,202.059l1.044,1.212c1.531,1.775,4.236,1.976,6.013,0.446l20.185-17.398
		c1.776-1.531,1.976-4.236,0.446-6.012l-1.045-1.211c-1.53-1.776-4.235-1.977-6.012-0.446l-20.185,17.397
		C491.133,197.578,490.932,200.283,492.463,202.059"/>
	<path fill="#F8BA84" d="M507.064,178.906L507.064,178.906c1.311,1.519,3.625,1.691,5.144,0.382l24.108-20.78
		c1.52-1.309,1.691-3.624,0.383-5.143c-1.311-1.519-3.625-1.691-5.145-0.381l-24.107,20.779
		C505.928,175.072,505.755,177.387,507.064,178.906"/>
	<path fill="#F8BA84" d="M506.375,174.689l-16.717,14.407c-1.734,1.496-2.898,3.42-3.465,5.488
		c-0.393,1.418-0.504,2.907-0.324,4.367c0.148,1.234,0.504,2.447,1.065,3.588l0.003,0.002c0.406,0.829,0.922,1.616,1.55,2.344
		l9.487,11.008c4.021,4.666,11.128,5.193,15.791,1.174l16.717-14.408c1.814-1.564,2.02-4.328,0.455-6.143l-18.419-21.371
		C510.954,173.33,508.189,173.125,506.375,174.689"/>
	<path fill="#F8BA84" d="M487.773,173.248l-1.58,21.337l-0.324,4.367c0.148,1.233,0.504,2.446,1.065,3.587l0.002,0.003
		c0.552,0.502,1.269,0.833,2.068,0.892l0.376,0.025c1.896,0.143,3.562-1.293,3.704-3.192l1.964-26.479
		c0.141-1.895-1.298-3.564-3.192-3.704l-0.379-0.028C489.584,169.915,487.916,171.351,487.773,173.248"/>
	<path fill="#F8BA84" d="M27.478,195.214L27.478,195.214c-1.242,1.441-3.436,1.603-4.877,0.362L1.196,177.128
		c-1.441-1.242-1.603-3.437-0.362-4.877c1.242-1.441,3.437-1.604,4.877-0.362l21.404,18.448
		C28.556,191.579,28.719,193.773,27.478,195.214"/>
	<path fill="#F8BA84" d="M33.817,187.858L33.817,187.858c-1.31,1.519-3.624,1.691-5.143,0.382L4.565,167.46
		c-1.519-1.309-1.691-3.624-0.381-5.143c1.309-1.519,3.624-1.691,5.143-0.381l24.108,20.779
		C34.956,184.024,35.127,186.339,33.817,187.858"/>
	<path fill="#F8BA84" d="M40.508,180.095l-0.511,0.593c-1.309,1.519-3.624,1.691-5.143,0.381L8.688,158.517
		c-1.519-1.31-1.691-3.624-0.382-5.143l0.511-0.593c1.31-1.519,3.624-1.691,5.144-0.382l26.165,22.553
		C41.646,176.261,41.818,178.576,40.508,180.095"/>
	<path fill="#F8BA84" d="M46.947,172.625L46.947,172.625c-1.31,1.519-3.624,1.691-5.143,0.381l-24.109-20.779
		c-1.519-1.309-1.691-3.624-0.381-5.143c1.309-1.519,3.624-1.691,5.143-0.382l24.108,20.78
		C48.085,168.791,48.257,171.106,46.947,172.625"/>
	<path fill="#F8BA84" d="M47.638,168.408l16.716,14.407c1.735,1.496,2.899,3.42,3.465,5.488c0.393,1.418,0.504,2.907,0.324,4.367
		c-0.148,1.234-0.504,2.447-1.065,3.588l-0.003,0.002c-0.407,0.828-0.922,1.616-1.55,2.344l-9.487,11.008
		c-4.022,4.666-11.128,5.193-15.792,1.174L23.53,196.378c-1.814-1.564-2.019-4.328-0.455-6.143l18.419-21.371
		C43.059,167.049,45.823,166.844,47.638,168.408"/>
	<path fill="#F8BA84" d="M66.238,166.966l1.58,21.337l0.324,4.367c-0.148,1.233-0.503,2.446-1.065,3.587l-0.002,0.003
		c-0.552,0.502-1.269,0.833-2.068,0.892l-0.376,0.025c-1.897,0.144-3.563-1.293-3.704-3.192l-1.964-26.479
		c-0.141-1.895,1.298-3.564,3.192-3.704l0.379-0.028C64.428,163.633,66.095,165.069,66.238,166.966"/>
	<path d="M208.445,666.99c0,0-13.447,11.908-32.673,11.908c-19.225,0-16.825,14.994-16.825,14.994h80.623l5.828-5.588l2.534,5.588
		h12.465V666.99H208.445z"/>
	<path d="M343.352,666.99c0,0,13.446,11.908,32.672,11.908s16.826,14.994,16.826,14.994h-80.623l-5.828-5.588l-2.534,5.588h-12.466
		V666.99H343.352z"/>
	<path fill="#F8BA84" d="M303.839,126.115h-57.376c-9.953,0-18.022-8.069-18.022-18.023V36.058c0-9.954,8.069-18.023,18.022-18.023
		h57.376c9.954,0,18.023,8.069,18.023,18.023v72.034C321.862,118.046,313.793,126.115,303.839,126.115"/>
	<path fill="#29415B" d="M367.563,381.828H182.739V176.659c0-18.7,15.159-33.859,33.859-33.859h117.106
		c18.7,0,33.859,15.159,33.859,33.859V381.828z"/>
	<path fill="#F7CB74" d="M228.947,9.277c0,0-15.841,9.092,0,17.426c6.639,3.493,13.8,4.735,38.845,8.138
		c51.684,7.021,60.281-8.136,68.183-6.937C335.975,27.904,265.155-19.514,228.947,9.277"/>
	<path fill="#F7CB74" d="M228.546,13.959c0,0-22.956,16.434-0.105,41.763C228.441,28.035,259.378,28.412,228.546,13.959"/>
	<rect x="246.464" y="126.116" fill="#F8BA84" width="58.411" height="16.685"/>
	<rect x="246.538" y="142.8" fill="#F1F2F2" width="58.337" height="239.026"/>
	<polygon fill="#E6E7E8" points="246.532,142.8 246.464,132.934 273.124,142.8 267.364,150.893 	"/>
	<polygon fill="#E6E7E8" points="304.807,142.8 304.874,132.934 278.214,142.8 283.975,150.893 	"/>
	<polygon fill="#ED1C24" points="273.123,142.8 278.214,142.8 286.553,151.215 275.705,159.629 265.181,151.215 	"/>
	<polygon fill="#ED1C24" points="275.781,152.581 280.82,152.581 292.64,342.867 258.772,342.867 270.441,152.581 	"/>
	<polygon fill="#ED1C24" points="258.771,342.867 274.551,357.451 292.641,342.867 	"/>
	<path fill="#223B51" d="M347.737,415.768H202.565c-10.95,0-19.826-8.875-19.826-19.826v-32.848h184.823v32.848
		C367.562,406.893,358.688,415.768,347.737,415.768"/>
	<rect x="195.721" y="395.051" fill="#223B51" width="71.643" height="274.939"/>
	<rect x="282.102" y="395.051" fill="#223B51" width="71.643" height="274.939"/>
	<rect x="228.44" y="142.8" fill="#2F4C66" width="18.096" height="239.026"/>
	<rect x="304.875" y="141.07" fill="#2F4C66" width="18.096" height="239.028"/>
	<rect x="322.971" y="185.936" fill="#29415B" width="44.593" height="194.16"/>
	<rect x="182.74" y="187.667" fill="#29415B" width="45.701" height="194.16"/>
	<path fill="#29415B" d="M145.615,284.681l78.612-87.581l-35.881-32.207l-93.52,104.19l19.272,17.299
		C123.271,294.615,137.382,293.854,145.615,284.681"/>
	
		<rect x="40.484" y="208.884" transform="matrix(-0.7442 -0.668 0.668 -0.7442 2.7976 466.67)" fill="#29415B" width="100.55" height="47.83"/>
	<path fill="#29415B" d="M408.033,288.989l-78.611-87.581l35.881-32.207l93.52,104.189l-19.271,17.3
		C430.377,298.922,416.266,298.162,408.033,288.989"/>
	
		<rect x="412.613" y="213.192" transform="matrix(0.7442 -0.668 0.668 0.7442 -39.9673 369.8529)" fill="#29415B" width="100.55" height="47.83"/>
</g>
</svg>
