<!-- Generator: Adobe Illustrator 18.0.0, SVG Export Plug-In  -->
<svg version="1.1"
	 xmlns="http://www.w3.org/2000/svg" xmlns:xlink="http://www.w3.org/1999/xlink" xmlns:a="http://ns.adobe.com/AdobeSVGViewerExtensions/3.0/"
	 x="0px" y="0px" width="103px" height="105.9px" viewBox="0 0 103 105.9" enable-background="new 0 0 103 105.9"
	 xml:space="preserve">
<defs>
</defs>
<g opacity="0.7">
	<path fill="#34B0E0" d="M102.4,47.4c0,8.2-2.1,15.8-5.7,22.5c-1.6,3-3.6,5.9-5.9,8.5C82.2,88.5,69.4,94.9,55,94.9
		c-20.9,0-38.7-13.5-45-32.3c-0.7-2-1.2-4-1.6-6c-0.6-2.9-0.9-6-0.9-9.1C7.6,21.2,29.2,0,55.3,0C80.6,0,101,19.7,103,44.6v0
		c0,0.4-0.3,0.8-0.3,1.2C102.8,46.4,102.4,46.9,102.4,47.4z"/>
	<g>
		<path fill="#FFFFFF" d="M42,60v-5h-4V45l-0.2,0l-3,2.3L30,50.9v4h-4v5h4v12.5c0,4.2,2,6.3,6.3,6.3c1.9,0,3.7-0.4,5.7-1.2v-5.4
			c-1,0.3-1.7,0.5-2.4,0.5c-0.9,0-1.2-0.2-1.5-0.5c-0.2-0.3-0.2-1-0.2-1.9V60H42z"/>
		<path fill="#FFFFFF" d="M57.3,74c-1.4,0-2.8-0.4-4.1-1.3c-1.3-0.9-2-2.7-2.1-4.7h18.1c0-3-0.4-5-1.2-7.1c-0.8-2.1-2.2-3.9-4.2-5.3
			c-2-1.4-4.4-2.1-7.2-2.1c-3.8,0-7,1.3-9.5,3.8c-2.5,2.5-3.7,5.6-3.7,9.4c0,3.7,1.2,6.7,3.6,8.9c2.4,2.3,5.8,3.4,10,3.4
			c5.4,0,9.3-2,11.9-6l-6-1.9C61,73,59.1,74,57.3,74z M56.2,58.9c1.5,0,2.7,0.6,3.6,1.5c0.9,1,1.4,1.6,1.6,3.6H51.3
			C51.7,60,53.4,58.9,56.2,58.9z"/>
		<path fill="#FFFFFF" d="M88.9,53.7c-2.4,0-3.9,0.9-6.9,2.6V55H71v5h4v13h-4v6h15v-6h-4V61.8c2-1.1,3.1-1.6,4.5-1.6
			c0.8,0,1.5,0.2,1.8,0.7c0.4,0.5,0.6,1.4,0.6,2.7V79h1.9c2.2-3,5.1-6,5.1-9v-6.8C96,56.9,93.8,53.7,88.9,53.7z"/>
	</g>
	<g>
		<g>
			<path fill="#FFFFFF" d="M26.8,41.4c-0.2,0-0.3,0.1-0.4,0.3c-0.1,0.2-0.2,0.4-0.3,0.5c0,0.1-0.1,0.2-0.1,0.3
				c-0.3,0.5-0.6,1-1.1,1.5c-0.5,0.6-1,1.1-1.6,1.5c-0.6,0.4-1.2,0.8-1.9,1c-0.7,0.3-1.4,0.4-2.1,0.4c-0.3,0-0.6,0-0.9-0.1
				c0.3,0,0.5-0.1,0.8-0.3c0.2-0.2,0.5-0.3,0.7-0.5c0.4-0.4,0.8-0.9,1.1-1.5c0.3-0.6,0.6-1.2,0.8-1.8c0.2-0.6,0.4-1.3,0.6-2
				c0.1-0.7,0.2-1.3,0.2-1.8c0-0.4,0-0.8-0.1-1.2c-0.1-0.4-0.2-0.8-0.4-1.1c-0.2-0.3-0.4-0.6-0.8-0.8c-0.3-0.2-0.7-0.3-1.2-0.3
				c-0.5,0-1,0.2-1.5,0.5c-0.5,0.3-1,0.7-1.5,1.1c-0.5,0.5-0.9,0.9-1.3,1.4c-0.4,0.5-0.7,0.9-1,1.3c0-0.3,0.1-0.7,0.1-1.1
				c0-0.4,0.1-0.7,0.1-1.1c0-0.2,0-0.4-0.1-0.6c-0.1-0.2-0.2-0.4-0.3-0.6c-0.1-0.2-0.3-0.4-0.5-0.5c-0.2-0.1-0.4-0.2-0.6-0.2
				c-0.3,0-0.5,0.1-0.6,0.3c-0.1,0.2-0.2,0.4-0.3,0.6c-0.1,0.2-0.1,0.5-0.1,0.8c0,0.3,0,0.5,0,0.7c-0.1,0.7-0.2,1.4-0.2,2.2
				C12,41,12,41.7,11.9,42.4c0,0.2,0,0.5-0.1,0.8c0,0.3-0.1,0.6-0.1,0.8c-0.4,1.1-0.8,2.3-1.2,3.6c-0.4,1.3-0.8,2.6-1.1,4
				c-0.3,1.4-0.6,2.7-0.8,4c0,0.3-0.1,0.6-0.1,0.8c0.4,2.1,0.9,4.1,1.6,6c0.2,0,0.4-0.1,0.6-0.2c0.2-0.1,0.4-0.3,0.6-0.5
				c0.2-0.2,0.3-0.4,0.5-0.7c0.1-0.2,0.2-0.5,0.3-0.7c0.3-0.8,0.6-1.8,0.9-3.1c0.2-1.2,0.4-2.5,0.6-3.8c0.2-1.3,0.3-2.6,0.4-3.9
				c0.1-1.3,0.2-2.4,0.3-3.3c0.2,0.3,0.5,0.6,0.9,0.8c0.4,0.2,0.8,0.4,1.3,0.5c0.5,0.1,0.9,0.2,1.4,0.2c0.5,0,0.9,0.1,1.2,0.1
				c0.9,0,1.7-0.1,2.5-0.4c0.8-0.3,1.5-0.6,2.1-1.1c0.6-0.5,1.2-1,1.8-1.6c0.1-0.1,0.2-0.2,0.3-0.3c0.4-0.5,0.8-1.1,1.2-1.7
				c0.1-0.2,0.2-0.3,0.2-0.4c0.1-0.1,0.1-0.3,0.1-0.5C27.4,41.6,27.2,41.4,26.8,41.4z M11.7,52.3c-0.2,1.8-0.4,3.5-0.7,5.2
				c0,0.1-0.1,0.3-0.1,0.7c-0.1,0.4-0.1,0.7-0.2,1.1c-0.1,0.4-0.2,0.8-0.3,1.1c-0.1,0.3-0.2,0.5-0.4,0.5c-0.1,0-0.2-0.1-0.2-0.2
				c0-0.1,0.1-0.3,0.1-0.4c0-0.2,0.2-0.3,0.2-0.5v-0.3c0-0.8-0.1-1.8,0-2.9c0.1-1.1,0.2-2.3,0.5-3.5c0.2-1.2,0.5-2.3,0.8-3.4
				c0.3-1.1,0.6-2,0.9-2.8C12,48.8,11.9,50.5,11.7,52.3z M17.9,44.9c-0.6,0.6-1.1,0.9-1.8,0.9c-0.4,0-1.4-0.4-1.6-0.4
				c-0.1,0-0.1-0.4-0.1-0.8c0-0.4,0.1-0.8,0.1-1.2c0.1-0.4,0.1-0.8,0.2-1.2c0.1-0.4,0.1-0.6,0.2-0.7c0.2-0.3,0.4-0.7,0.8-1.3
				c0.4-0.5,0.8-1,1.3-1.6c0.5-0.5,0.9-0.9,1.4-1.3c0.5-0.4,0.9-0.6,1.2-0.6c0.4,0,0.6,0.2,0.8,0.5c0.1,0.3,0.2,0.7,0.2,1
				c0,0.5-0.1,1.2-0.4,2c-0.2,0.9-0.6,1.7-1,2.5C18.9,43.6,18.4,44.3,17.9,44.9z"/>
			<path fill="#FFFFFF" d="M36.4,41.9c-0.1-0.1-0.2-0.1-0.3-0.1c-0.2,0-0.4,0.1-0.5,0.3c-0.1,0.1-0.2,0.3-0.3,0.4c0,0,0,0.1-0.1,0.1
				c-0.3,0.5-0.6,0.9-1,1.4c-0.4,0.5-0.8,0.9-1.2,1.3c-0.5,0.4-0.9,0.7-1.5,0.9c-0.5,0.2-1.1,0.4-1.7,0.4c-0.7,0-1.1-0.2-1.4-0.6
				c-0.3-0.4-0.4-0.9-0.4-1.5c0-0.4,0-0.8,0.1-1.2c0.4-0.2,0.9-0.4,1.4-0.9c0.5-0.4,1-0.9,1.4-1.4c0.4-0.5,0.8-1.1,1.1-1.7
				c0.3-0.6,0.4-1.1,0.4-1.6c0-0.5-0.1-0.9-0.4-1.2c-0.3-0.3-0.7-0.5-1.2-0.5c-0.8,0-1.5,0.3-2.1,0.9c-0.6,0.6-1.2,1.3-1.6,2.1
				c-0.5,0.8-0.8,1.7-1,2.6c-0.1,0.3-0.1,0.5-0.2,0.8c-0.1,0.6-0.2,1.1-0.2,1.5c0,0.2,0,0.4,0,0.6c0,0.3,0.1,0.6,0.1,0.9
				c0.1,0.5,0.3,0.9,0.6,1.2c0.3,0.4,0.6,0.6,1,0.9c0.4,0.2,0.9,0.3,1.4,0.3c0.8,0,1.5-0.1,2.2-0.4c0.7-0.3,1.4-0.6,2-1
				c0.6-0.4,1.2-0.9,1.7-1.5c0,0,0,0,0,0c0.5-0.6,1-1.2,1.3-1.8c0.1-0.2,0.2-0.3,0.2-0.4c0-0.1,0.1-0.3,0.1-0.5
				C36.5,42,36.5,42,36.4,41.9z M28.5,40.9c0.2-0.5,0.4-1.1,0.6-1.6c0.2-0.5,0.5-1,0.8-1.4c0.3-0.4,0.6-0.6,0.9-0.6
				c0.2,0,0.3,0.1,0.4,0.2c0.1,0.1,0.1,0.3,0.1,0.4c0,0.4-0.1,0.8-0.3,1.2c-0.2,0.4-0.5,0.8-0.8,1.2c-0.3,0.4-0.6,0.7-1,1.1
				c-0.4,0.3-0.7,0.6-1,0.8C28.2,41.9,28.4,41.5,28.5,40.9z"/>
			<path fill="#FFFFFF" d="M49.4,41.4c-0.1-0.1-0.2-0.2-0.4-0.2c-0.2,0-0.3,0.1-0.4,0.3c-0.1,0.2-0.2,0.3-0.3,0.5
				c-0.1,0.1-0.1,0.3-0.2,0.4c-0.1,0.2-0.3,0.4-0.4,0.7c-0.3,0.4-0.6,0.9-1,1.3c-0.4,0.4-0.7,0.8-1.1,1c-0.4,0.3-0.8,0.4-1.1,0.4
				c-0.2,0-0.4-0.1-0.5-0.2c-0.1-0.1-0.2-0.3-0.3-0.4c-0.1-0.2-0.1-0.4-0.1-0.6c0-0.2,0-0.4,0-0.6c0-0.7,0-1.3,0.1-2
				c0-0.7,0.1-1.3,0.1-2c0-0.2,0-0.5,0-0.8c0-0.3-0.1-0.6-0.2-0.9c-0.1-0.3-0.2-0.6-0.4-0.8c-0.2-0.2-0.4-0.3-0.7-0.3
				c-0.4,0-0.8,0.2-1.3,0.6c-0.5,0.4-1,0.9-1.4,1.4c-0.5,0.5-0.9,1.1-1.3,1.7c-0.4,0.6-0.7,1-0.9,1.3c0.1-0.5,0.2-1.1,0.3-1.6
				c0.1-0.5,0.3-1.1,0.5-1.6c0.2-0.5,0.3-1,0.5-1.5c0.2-0.5,0.2-1.1,0.2-1.5c0-0.3-0.1-0.5-0.2-0.7c-0.1-0.2-0.3-0.3-0.7-0.3
				c-0.4,0-0.7,0.1-1,0.4c-0.3,0.3-0.5,0.6-0.6,0.9c-0.1,0.4-0.2,0.9-0.3,1.3c-0.1,0.5-0.2,0.9-0.3,1.3c-0.2,1.1-0.4,2.1-0.7,3.3
				c-0.1,0.3-0.1,0.7-0.2,1c-0.1,0.5-0.2,1-0.2,1.4c-0.1,0.8-0.2,1.6-0.2,2.4c0,0.2,0,0.3,0,0.5c0,0.2,0,0.4,0.1,0.5
				c0.1,0.1,0.2,0.2,0.5,0.2c0.3,0,0.5-0.1,0.7-0.3c0.2-0.2,0.4-0.4,0.5-0.6c0.3-0.7,0.7-1.4,1-2.1c0.1-0.1,0.1-0.3,0.2-0.4
				c0.3-0.5,0.6-1.1,0.9-1.6c0.3-0.5,0.7-1.1,1.1-1.7c0.4-0.6,0.9-1.1,1.3-1.6c0.1-0.1,0.2-0.2,0.3-0.3c0.1-0.1,0.2-0.2,0.3-0.2
				c0.1,0,0.2,0.1,0.2,0.2c0,0.2,0,0.3,0,0.3c0,0.5,0,1.1-0.1,1.6c0,0.5-0.1,1.1-0.1,1.6c0,0.4,0,0.8,0,1.2c0,0.4,0.1,0.8,0.3,1.2
				c0.1,0.4,0.4,0.7,0.6,1c0.3,0.3,0.7,0.4,1.2,0.4c0.5,0,1.1-0.2,1.6-0.5c0.6-0.3,1.1-0.8,1.6-1.2c0.2-0.2,0.4-0.4,0.6-0.6
				c0.3-0.3,0.5-0.6,0.8-1c0.4-0.6,0.7-1.1,0.9-1.5c0-0.1,0.1-0.2,0.1-0.3c0-0.1,0.1-0.2,0.1-0.3C49.5,41.6,49.5,41.5,49.4,41.4z"/>
		</g>
		<path fill="#FFFFFF" d="M102.4,44.6c-2.3-0.6-4.7-0.7-7.1-0.6c-0.3,0-0.6,0-0.9,0c-0.3,0-0.6,0-0.9,0.1c-0.6,0-1.2,0.1-1.8,0.2
			c-0.3,0-0.6,0.1-0.9,0.1c-0.3,0-0.6,0.1-0.9,0.1c-0.6,0.1-1.2,0.2-1.7,0.3c-1.1,0.2-2.3,0.5-3.4,0.8c-1.1,0.3-2.2,0.5-3.3,0.8
			c-2.1,0.5-4.2,1-6.2,1.3c-1,0.1-1.9,0.2-2.8,0.3c-0.2,0-0.5,0-0.7,0c-0.2,0-0.4,0-0.7,0c-0.4,0-0.9-0.1-1.3-0.1
			c-1.7-0.3-3.1-0.9-4.3-1.6c-0.6-0.4-2.8-1.8-3.4-2c-0.2-0.1-0.5-0.1-0.7-0.1c-0.4,0-0.8,0.1-1.2,0.3c-0.5,0.3-1,0.6-1.8,0.9
			c-0.4,0.2-1,0.5-1.4,0.5c-0.2,0-0.4-0.1-0.5-0.2c-0.1-0.1-0.2-0.3-0.3-0.4c-0.1-0.2-0.1-0.4-0.1-0.6c0-0.2,0-0.4,0-0.6
			c0-0.7,0-1.3,0.1-2c0-0.7,0.1-1.3,0.1-2c0-0.2,0-0.5,0-0.8c0-0.3-0.1-0.6-0.2-0.9c-0.1-0.3-0.2-0.6-0.4-0.8
			c-0.2-0.2-0.4-0.3-0.7-0.3c-0.4,0-0.8,0.2-1.3,0.6c-0.5,0.4-1,0.9-1.4,1.4c-0.5,0.5-0.9,1.1-1.3,1.7c-0.4,0.6-0.7,1-0.9,1.3
			c0.1-0.5,0.2-1.1,0.3-1.6c0.1-0.5,0.3-1.1,0.5-1.6c0.2-0.5,0.3-1,0.5-1.5c0.2-0.5,0.2-1.1,0.2-1.5c0-0.3-0.1-0.5-0.2-0.7
			c-0.1-0.2-0.3-0.3-0.7-0.3c-0.4,0-0.7,0.1-1,0.4c-0.3,0.3-0.5,0.6-0.6,0.9c-0.1,0.4-0.2,0.9-0.3,1.3c-0.1,0.5-0.2,0.9-0.3,1.3
			c-0.3,1.4-0.6,2.8-0.9,4.3c-0.3,1.5-0.4,2.9-0.4,4.3c0,0.2,0,0.4,0.1,0.5c0.1,0.1,0.2,0.2,0.5,0.2c0.3,0,0.5-0.1,0.7-0.3
			c0.2-0.2,0.4-0.4,0.5-0.6c0.3-0.7,0.7-1.4,1-2.1c0.3-0.7,0.7-1.4,1.1-2c0.3-0.5,0.7-1.1,1.1-1.7c0.4-0.6,0.9-1.1,1.3-1.6
			c0.1-0.1,0.2-0.2,0.3-0.3c0.1-0.1,0.2-0.2,0.3-0.2c0.1,0,0.2,0.1,0.2,0.2c0,0.2,0,0.3,0,0.3c0,0.5,0,1.1-0.1,1.6
			c0,0.5-0.1,1.1-0.1,1.6c0,0.4,0,0.8,0,1.2c0,0.4,0.1,0.8,0.3,1.2c0.1,0.4,0.3,0.7,0.6,1c0.3,0.3,0.7,0.4,1.1,0.4
			c0.5,0,1.1-0.2,1.6-0.5c0.6-0.3,1.4-1,2-1.4c0.9-0.6,1-0.6,1.4-0.6c0.4,0,1.1,0.3,2,0.9c0.6,0.5,1.2,1.1,1.6,1.3
			c1.2,0.9,2.8,1.6,4.6,2c0.5,0.1,0.9,0.2,1.4,0.2l0.2,0l0.2,0c0.1,0,0.2,0,0.4,0c0.2,0,0.5,0,0.7,0c1,0,2-0.1,3-0.3
			c2-0.4,4.1-1.1,6.2-1.8c1-0.4,2.1-0.7,3.2-1c1.1-0.3,2.2-0.6,3.3-0.9c1.1-0.2,2.3-0.4,3.4-0.5c0.3,0,0.6,0,0.9-0.1
			c0.3,0,0.6,0,0.9,0c0.3,0,0.6,0,0.9,0c0.3,0,0.6,0,0.9,0c1.2,0,2.3,0.2,3.5,0.3c0.6,0.1,1.1,0.2,1.7,0.3c0.6,0.1,1.1,0.3,1.6,0.4
			c0.1,0,0.2,0.1,0.3,0.1L102.4,44.6z"/>
	</g>
	<g>
		<g>
			<g>
				<g>
					<path fill="#34B0E0" d="M7.3,70.2C7.4,70.2,7.4,70.2,7.3,70.2c0,0.1-0.7-0.1-0.9-0.3c-1.1,0.5-1.6,0.8-2.7,1.4
						c0.3,0.1,0.4,0.1,0.6,0.2c-0.6,0.2-1.5,0-2-0.5c-0.6-0.6-0.9-1.6-0.6-2.4c0.2-0.7,1-1.1,1.7-1.1c0.6-0.1,1.7,0.5,1.7,0.5
						c0,0-1.9,0-2.4,0.7c-0.4,0.5-0.3,1.2,0.1,1.8c0.2,0.3,0.5,0.6,0.8,0.7c1.1-0.5,1.6-0.8,2.7-1.4c-0.5-0.8-0.7-1.8-1.2-2.6
						c-0.1-0.2-0.4-0.4-0.4-0.4c0,0,0.6-0.1,0.9,0.1C6,67,6.1,67.5,6.3,67.9C6.6,68.7,6.8,69.6,7.3,70.2L7.3,70.2z"/>
					<path fill="#34B0E0" d="M16.3,83c0.1,0,0.1,0.1,0.2,0.1c-0.2,0.2-0.4,0.2-0.7,0.1c-0.3-0.1-0.3-0.5-0.3-0.6
						c0-0.1-0.1-0.1-0.2-0.1c0,0,0-0.1,0-0.1c0.4,0,0.6,0,1,0C16.2,82.6,16.1,82.9,16.3,83L16.3,83z"/>
					<path fill="#34B0E0" d="M17.1,84.2c-1,1-1.4,1.5-2.4,2.4c0.1,0.2,0.1,0.3,0.1,0.5c0.1,0,0.2,0.1,0.3,0.1c0,0,0,0.1,0,0.1
						c-0.3-0.1-1-0.2-1.1-0.2c-0.1-0.1,0-0.6-0.3-0.8c-0.1-0.1-0.1-0.1-0.2-0.1c0.1-0.1,0.3-0.2,0.5-0.1c0,0,0,0,0.1,0
						c1-1,1.5-1.4,2.4-2.4c0.1-0.1,0.1-0.4,0.1-0.4c0,0,1,0.6,1,0.6C17.7,83.9,17.3,84.1,17.1,84.2L17.1,84.2z"/>
					<path fill="#34B0E0" d="M39.1,97.6c-0.4,1.3-0.6,2-1.1,3.3c0.2,0.1,0.3,0.2,0.3,0.4c0.1,0,0.2,0,0.3,0c0,0,0,0.1,0,0.1
						c-0.4,0.1-1,0.3-1.1,0.3c-0.1,0-0.3-0.5-0.6-0.6c-0.1,0-0.2,0-0.3,0c0-0.2,0.2-0.3,0.4-0.3c0,0,0,0,0.1,0
						c0.4-1.3,0.7-1.9,1.1-3.2c0-0.1,0-0.4,0-0.4c0,0,1.2,0.1,1.2,0.1C39.5,97.1,39.2,97.4,39.1,97.6L39.1,97.6z"/>
					<path fill="#34B0E0" d="M50.1,99.8c0.1,0,0.1,0,0.2,0c0,0.2-0.2,0.4-0.4,0.5c-0.3,0.1-0.5-0.2-0.7-0.3c-0.1,0-0.2,0-0.2,0.1
						c0,0,0-0.1-0.1-0.1c0.3-0.2,0.5-0.4,0.8-0.6C49.7,99.6,49.9,99.8,50.1,99.8L50.1,99.8z"/>
					<path fill="#34B0E0" d="M7.9,71.2c-0.7,0-1.4,0.6-2.1,0.9c0.6,0.3,0.9,0.5,1.4,0.7c-0.1,0.2-0.1,0.5,0,0.7
						c0,0.1,0.2,0.2,0.2,0.2c0,0-0.5,0-0.6,0c-0.3,0-1.1,0.6-1.5,0.9C5.2,74.6,5,75,5,75c0,0-0.3-0.7-0.5-0.8c-0.1-0.1-0.2,0-0.2,0
						c-0.1,0.2,0,0.5-0.2,0.7C3.9,75,3.7,75.1,3.5,75c-0.1-0.1-0.4-0.3-0.4-0.3c0,0,0.5,0,0.7-0.2C3.9,74.3,4,74,4.3,74
						c0.2,0,0.5-0.1,0.7-0.2c0.5-0.3,0.8-0.5,1.4-0.8c0-0.1,0-0.1,0-0.2c0-0.1,0.1-0.2,0.1-0.3c-0.3-0.2-0.4-0.2-0.7-0.4
						c-0.5,0.3-0.8,0.5-1.4,0.8c0,0.2,0,0.6,0,0.6c-0.1,0-0.8-0.3-0.9-0.4c-0.1-0.1-0.1-1-0.1-1c0,0,0.4,0.1,0.6,0.2
						c1.2-0.6,1.8-1,3-1.6c0.1-0.1,0.2-0.3,0.2-0.3C7.2,70.3,7.6,71,7.9,71.2L7.9,71.2z"/>
					<path fill="#34B0E0" d="M10.8,81.9c0.6-0.5,0.9-0.7,1.5-1.2c0.3-0.3,0.6-0.6,0.8-0.9c0.1-0.3,0.1-0.7-0.1-0.9
						c-0.6-0.8-1.5-1.4-1.8-2.3c-0.2,0.1-0.3,0.2-0.4,0.4c-0.3,0.7,0.4,1.2,0.8,1.6c-0.9,0.7-1.4,1.1-2.4,1.8c-0.5-0.7-1.2-1-2.1-1
						c0.7,0.3,1.4,1.2,1.5,2c0.7,0.2,1.3,0.6,1.9,1.1C10.6,82.1,10.7,82,10.8,81.9z M9.8,81.5c-0.1,0-0.1-0.1-0.2-0.1
						c0-0.4-0.1-0.8-0.3-1.1c1-0.7,1.4-1.1,2.4-1.8c0.2,0.3,0.6,0.6,0.5,1c-0.1,0.1-0.1,0.1-0.1,0.2C11.2,80.4,10.8,80.8,9.8,81.5
						C9.9,81.5,9.8,81.5,9.8,81.5z"/>
					<path fill="#34B0E0" d="M24.2,90.5c0.2,0,0.4,0,0.6-0.1c-0.3-0.3-0.6-0.7-0.6-1.1c-0.5,0-0.8,0-1.3,0c0.1-0.1,0.1-0.2,0.2-0.3
						c0,0-0.1,0-0.1-0.1c-0.1,0.1-0.1,0.2-0.2,0.3c-0.2,0-0.3,0-0.4,0c0.1-0.1,0.2-0.3,0.2-0.4c0.1-0.3,0-0.6-0.1-0.8
						c-0.3-0.3-0.6-0.4-1-0.3c-0.2,0.1-0.5,0.3-0.5,0.5c0.1-0.1,0.2-0.2,0.4-0.2c0.2,0,0.3,0.1,0.4,0.3c0.2,0.4-0.3,0.7-0.5,1.1
						c-0.1,0-0.1-0.1-0.1-0.1c-0.2-0.1-0.4-0.2-0.6-0.1c-0.2,0.2-0.4,0.4-0.4,0.7c0,0,0.1,0,0.1-0.1c0.2-0.1,0.4,0,0.6,0.2
						c-0.2,0.3-0.4,0.4-0.6,0.7c-0.1-0.1-0.3-0.1-0.4-0.2c-0.5-0.1-0.9,0.2-1.2,0.5c0.4-0.1,0.8,0,1.1,0.3c-0.4,0.5-0.7,1-1.4,1.1
						c0.3,0.3,0.6,0.3,1,0.2c0,0.4,0.2,0.6,0.5,0.8c0.4-0.5,0.5-0.7,0.9-1.2c0.1,0.2,0.2,0.4,0.3,0.5c0.6-0.2,1.2-0.2,1.7,0.2
						c0-0.2,0.1-0.3,0.1-0.4C23.3,91.8,23.6,91.4,24.2,90.5z M19.7,93.4c-0.1-0.1-0.1-0.2-0.1-0.3c0-0.2,0.2-0.4,0.4-0.7
						c0.9-1.2,1.4-1.8,2.3-3c0.2,0,0.3,0,0.4,0C21.5,91,20.9,91.8,19.7,93.4z M21.7,92.6c-0.1-0.4-0.3-0.7-0.5-1
						c0.7-0.9,1-1.3,1.7-2.2c0.2,0,0.3,0,0.4,0c-0.1,0.3,0,0.5,0.3,0.7C22.8,91.1,22.4,91.6,21.7,92.6z"/>
					<path fill="#34B0E0" d="M3.9,70.2c-0.5,0.2-1.2-0.7-1.2-0.7c0,0,0.3,0.1,0.5,0c0.5-0.2,1.1-0.5,1.7-0.8
						c-0.1-0.1-0.2-0.1-0.3-0.2c0.1,0,0.1,0,0.1-0.1c0.3,0.3,0.6,0.6,1,0.8C5,69.6,4.6,69.8,3.9,70.2L3.9,70.2z"/>
					<path fill="#34B0E0" d="M11.4,78.4c-0.2,0-0.3,0.1-0.5,0.2c-0.5,0.4-0.7,0.5-1.2,0.9c-0.5,0.2-1.3-0.4-1.3-0.4c0,0,1-0.3,1-0.4
						c0-0.1-0.2-0.5-0.5-0.4c-0.1,0-0.1,0-0.1,0.1c0.2-0.2,0.5-0.5,0.8-0.5c0.2,0,0.4,0.3,0.5,0.3c0.1,0,0.6-0.2,0.9-0.1
						C11.1,78.2,11.2,78.3,11.4,78.4L11.4,78.4z"/>
					<path fill="#34B0E0" d="M15.5,84.2c-0.2,0.1-0.4,0.1-0.6,0c-0.5,0.4-0.7,0.7-1.1,1.1c-0.1,0.1-0.1,0.2-0.1,0.3
						c0,0.1,0.1,0.2,0.2,0.3c0,0,0,0-0.1,0.1c-0.3-0.1-0.8-0.1-0.9-0.2c-0.1-0.1,0-0.6,0.2-0.8c0.6-0.5,0.8-0.8,1.4-1.3
						c-0.1-0.2-0.1-0.5-0.1-0.5c0,0,0.9,0.1,0.9,0.2C15.2,83.4,15.2,84,15.5,84.2L15.5,84.2z"/>
					<path fill="#34B0E0" d="M19.3,87.8c-0.2,0.1-0.4,0.1-0.6,0c-0.5,0.5-0.7,0.8-1.2,1.3c-0.2,0.2-0.1,0.6-0.3,0.8
						c-0.3,0.3-0.8,0.4-1.2,0.3c-0.5-0.1-1.1-0.6-1.3-1c-0.1-0.2-0.2-0.6-0.6-0.6c0,0,0,0,0,0c0.2-0.2,0.6-0.4,0.9-0.2
						c0.2,0.1,0.3,0.3,0.4,0.5c0.1,0.4-0.1,0.9,0.3,1.1c0.2,0.1,0.4,0.1,0.5,0.1c0.3-0.2,0.3-0.6,0.4-0.9c0-0.2,0.2-0.3,0.4-0.5
						c-0.6-0.1-1-0.1-1.6-0.3c0-0.1,0-0.3-0.1-0.5c-0.1-0.1-0.4-0.3-0.4-0.3c0,0,0.4-0.2,0.6-0.1c0.4-0.5,0.7-0.7,1.1-1.2
						c0.1-0.1,0.1-0.3,0.1-0.4c0-0.1-0.1-0.2-0.2-0.2c0,0,0,0,0.1-0.1c0.2,0.1,0.7,0,0.8,0c0.1,0,0.2,0.4,0.1,0.7
						c-0.1,0.1-0.1,0.2-0.1,0.3c-0.5,0.5-0.7,0.8-1.2,1.3c0.1,0.1,0.1,0.3,0.1,0.5c0.3,0.1,0.5,0.1,0.8,0.1c0.4-0.5,0.6-0.7,1-1.2
						C18,87.3,18,86.9,18,86.9c0,0,0.8,0,0.9,0.1C19,87,19,87.6,19.3,87.8L19.3,87.8z"/>
					<path fill="#34B0E0" d="M28.6,94.2c0.1,0,0.2,0,0.2,0c0,0-0.4,0.2-0.5,0.3c-0.2,0.1-0.5,0.9-0.8,1.4c-0.1,0.1-0.1,0.3,0,0.4
						c0,0.1,0.1,0.1,0.2,0.2c0,0,0,0,0,0.1c-0.3,0-0.7,0.2-0.8,0.2c-0.1,0-0.3-0.4-0.3-0.6c0-0.1,0-0.2,0.1-0.3
						c0.4-0.6,0.5-0.9,0.9-1.6c-0.1-0.1-0.1-0.3-0.1-0.4c-0.3,0-0.5,0-0.8,0c-0.3,0.5-0.5,0.8-0.8,1.3c0.1,0.1,0.3,0.5,0.3,0.5
						c0,0-0.9,0.1-1,0.1c-0.1-0.1-0.6-0.8-0.6-0.9c0,0,0.4-0.2,0.6-0.1c0.3-0.5,0.5-0.8,0.8-1.3c0-0.1,0.1-0.2,0.1-0.3
						c0-0.1-0.1-0.2-0.2-0.3c0,0,0,0,0-0.1c0.3,0,0.8-0.1,0.9-0.1c0.1,0,0.2,0.6,0.1,0.8c0,0.1-0.1,0.1-0.1,0.2
						c0.6,0,0.9-0.1,1.6-0.1C28.2,93.9,28.3,94.1,28.6,94.2L28.6,94.2z"/>
					<path fill="#34B0E0" d="M31.6,95.8c0.1,0,0.2,0,0.2,0c0,0-0.4,0.3-0.5,0.3c-0.2,0.1-0.5,1-0.7,1.4c-0.1,0.1,0,0.3,0,0.4
						c0.1,0.1,0.1,0.1,0.2,0.2c0,0,0,0,0,0.1c-0.3,0-0.7,0.2-0.8,0.2c-0.1,0-0.4-0.4-0.3-0.6c0-0.1,0-0.2,0.1-0.3
						c0.3-0.7,0.5-1,0.8-1.6c-0.1-0.1-0.2-0.3-0.2-0.4c-0.3,0-0.5,0.1-0.8,0.1c-0.3,0.6-0.4,0.8-0.7,1.4c0.1,0.1,0.3,0.4,0.3,0.5
						c0,0-0.9,0.2-0.9,0.2c-0.1,0-0.6-0.8-0.6-0.8c0,0,0.4-0.2,0.6-0.2c0.3-0.6,0.4-0.8,0.7-1.4c0.1-0.1,0.1-0.2,0-0.3
						c0-0.1-0.2-0.2-0.2-0.3c0,0,0,0,0-0.1c0.3,0,0.8-0.1,0.9-0.1c0.1,0,0.2,0.5,0.1,0.8c0,0.1-0.1,0.1-0.1,0.2
						c0.6-0.1,0.9-0.1,1.6-0.2C31.3,95.5,31.4,95.7,31.6,95.8L31.6,95.8z"/>
					<path fill="#34B0E0" d="M37.7,98.4c-0.1,0.1-0.3,0.2-0.5,0.2c-0.2,0.7-0.4,1-0.6,1.7c-0.1,0.3,0.1,0.6,0,0.8
						c-0.2,0.4-0.6,0.6-1,0.7c-0.5,0.1-1.2-0.1-1.6-0.5c-0.2-0.2-0.4-0.5-0.8-0.4c0,0,0,0,0,0c0.1-0.3,0.4-0.6,0.7-0.5
						c0.2,0,0.4,0.1,0.5,0.3c0.2,0.3,0.2,0.8,0.7,0.9c0.2,0,0.4,0,0.5-0.1c0.3-0.3,0.1-0.7,0.1-0.9c0-0.2,0.1-0.4,0.2-0.6
						c-0.6,0.1-1,0.2-1.6,0.3c0-0.1-0.1-0.3-0.2-0.4c-0.1-0.1-0.4-0.1-0.4-0.1c0,0,0.3-0.3,0.5-0.3c0.2-0.6,0.4-0.9,0.6-1.5
						c0-0.1,0-0.3-0.1-0.4c-0.1-0.1-0.2-0.1-0.2-0.1c0,0,0,0,0-0.1c0.2,0,0.6-0.3,0.7-0.3c0.1,0,0.4,0.3,0.4,0.6c0,0.1,0,0.2,0,0.3
						c-0.3,0.7-0.4,1-0.7,1.7c0.1,0.1,0.2,0.2,0.2,0.4c0.3-0.1,0.5-0.1,0.8-0.2c0.2-0.6,0.3-0.9,0.5-1.5c-0.1-0.1-0.3-0.4-0.3-0.4
						c0,0,0.8-0.3,0.9-0.3C37.1,97.8,37.4,98.3,37.7,98.4L37.7,98.4z"/>
					<path fill="#34B0E0" d="M40.2,99.2c0,0.1,0,0.2,0,0.3c-0.2,0.6-0.3,0.9-0.4,1.6c-0.1,0.3,0.2,0.5,0.3,0.7
						c0.1,0.1,0.4,0.1,0.6,0.1c0.2-0.8,0.3-1.2,0.5-1.9c-0.2-0.1-0.4-0.4-0.4-0.4c0,0,0.8-0.4,0.9-0.3c0.1,0,0.8,0.6,0.8,0.6
						c0,0-0.3,0.3-0.5,0.3c-0.2,0.6-0.2,0.9-0.4,1.6c0,0.2,0.1,0.5,0.1,0.5c0,0-1.7,0-2.1,0c-0.2,0-0.5-0.3-0.5-0.6
						c0-0.3,0-0.5,0.1-0.8c0.1-0.5,0.2-0.7,0.3-1.2c0-0.1,0-0.2-0.1-0.3c-0.1-0.1-0.2-0.1-0.3-0.2c0,0,0,0,0-0.1
						c0.2,0,0.6-0.3,0.7-0.3C39.8,98.7,40.1,98.9,40.2,99.2L40.2,99.2z"/>
					<path fill="#34B0E0" d="M48.3,101c0.1,0,0.2,0,0.2,0c0,0-0.3,0.4-0.4,0.5c-0.2,0.2-0.2,1.1-0.2,1.6c0,0.1,0,0.3,0.2,0.4
						c0.1,0,0.2,0.1,0.3,0.1c0,0,0,0.1,0,0.1c-0.2,0.1-0.6,0.4-0.7,0.4c-0.1,0-0.5-0.2-0.5-0.5c0-0.1,0-0.2,0-0.3
						c0.1-0.7,0.2-1.1,0.3-1.8c-0.1-0.1-0.2-0.2-0.3-0.4c-0.3,0.1-0.5,0.2-0.8,0.3c-0.1,0.6-0.2,0.9-0.3,1.5
						c0.1,0.1,0.4,0.3,0.4,0.3c0,0-0.8,0.4-0.9,0.4c-0.1,0-0.9-0.6-0.9-0.6c0,0,0.3-0.3,0.5-0.3c0.1-0.6,0.2-0.9,0.3-1.5
						c0-0.1,0-0.2-0.1-0.3c-0.1-0.1-0.2-0.1-0.3-0.2c0,0,0-0.1,0-0.1c0.3-0.1,0.7-0.4,0.8-0.4c0.1,0,0.4,0.5,0.4,0.7
						c0,0.1,0,0.1,0,0.2c0.6-0.3,0.9-0.4,1.5-0.6C47.9,100.8,48.1,101,48.3,101L48.3,101z"/>
					<path fill="#34B0E0" d="M50.2,101.3c-0.1,0.2-0.3,0.3-0.5,0.4c-0.1,0.6-0.1,0.9-0.2,1.6c0,0.1,0,0.2,0.1,0.3
						c0.1,0.1,0.2,0.1,0.3,0.1c0,0,0,0.1,0,0.1c-0.3,0.1-0.7,0.4-0.9,0.4c-0.1,0-0.4-0.4-0.4-0.7c0.1-0.8,0.1-1.2,0.2-1.9
						c-0.2-0.1-0.4-0.3-0.4-0.3c0-0.1,0.7-0.5,0.8-0.5C49.5,100.8,49.9,101.3,50.2,101.3L50.2,101.3z"/>
					<path fill="#34B0E0" d="M56.6,101.6c0.1,0,0.2-0.1,0.2-0.1c0,0-0.3,0.4-0.3,0.5c-0.1,0.2,0,1.1,0,1.6c0,0.1,0.1,0.3,0.2,0.3
						c0.1,0,0.2,0,0.3,0c0,0,0,0.1,0,0.1c-0.2,0.1-0.5,0.5-0.7,0.5c-0.1,0-0.5-0.2-0.6-0.4c0-0.1,0-0.2-0.1-0.3c0-0.7,0-1.1,0-1.8
						c-0.1,0-0.3-0.2-0.3-0.3c-0.3,0.2-0.4,0.3-0.7,0.4c0,0.6,0,0.9-0.1,1.6c0.2,0.1,0.5,0.3,0.5,0.3c0,0.1-0.7,0.6-0.8,0.6
						c-0.1,0-1-0.5-1-0.5c0,0,0.3-0.3,0.5-0.4c0-0.6,0-0.9,0.1-1.6c0-0.1,0-0.2-0.1-0.3c-0.1-0.1-0.2-0.1-0.3-0.1c0,0,0-0.1,0-0.1
						c0.3-0.1,0.6-0.5,0.8-0.5c0.1,0,0.5,0.4,0.5,0.7c0,0.1,0,0.1,0,0.2c0.6-0.3,0.8-0.5,1.4-0.9C56.2,101.5,56.4,101.6,56.6,101.6
						L56.6,101.6z"/>
					<path fill="#34B0E0" d="M6.4,76.9c0-0.4-0.1-0.7-0.2-1c0.2-0.1,0.2-0.2,0.4-0.3c0.7,0.4,1,0.6,1.7,0.9c0-0.5,0.2-0.9,0.5-1.3
						c-0.6-0.2-1.1-0.7-1.3-1.3c0,0.2-0.1,0.3-0.3,0.4c-0.6,0.4-0.9,0.6-1.5,0.9c-0.2-0.1-0.4-0.2-0.6-0.2c0.4,0.5,0.5,1.1,0.6,1.7
						c0.5,0.2,0.7,0.3,1.2,0.5c0,0,0.1-0.1,0.1-0.1C6.7,77.1,6.5,77,6.4,76.9z M7.8,74.8C7.9,74.9,8,74.9,8,75
						c-0.2,0.3-0.4,0.7-0.5,1c-0.3-0.2-0.5-0.3-0.9-0.5C7.1,75.2,7.4,75.1,7.8,74.8z"/>
					<path fill="#34B0E0" d="M24.1,94.5c-0.2-0.3-0.4-0.6-0.6-0.8c0.1-0.2,0.2-0.2,0.3-0.4c0.8,0.1,1.2,0.1,1.9,0.1
						c-0.2-0.5-0.1-0.9-0.1-1.4c-0.6,0.1-1.3-0.2-1.7-0.7c0,0.2,0,0.3-0.1,0.5c-0.4,0.6-0.6,0.9-1,1.5c-0.2-0.1-0.4,0-0.6,0.1
						c0.6,0.3,0.9,0.8,1.2,1.3c0.5,0,0.8,0,1.3,0c0,0,0-0.1,0-0.1C24.5,94.6,24.3,94.5,24.1,94.5z M24.6,92c0.1,0,0.2,0.1,0.3,0.1
						c0,0.4-0.1,0.7-0.1,1.1c-0.4,0-0.6,0-1-0.1C24.1,92.7,24.3,92.5,24.6,92z"/>
					<path fill="#34B0E0" d="M12.5,84.4c0-0.2,0.1-0.3,0.2-0.4c0.4-0.4,0.7-0.6,1.1-1c0.2,0.1,0.4,0,0.6-0.1c-0.1,0-0.2-0.1-0.3-0.2
						c-0.1-0.2,0-0.4,0-0.5c-0.3,0-0.6-0.1-0.8-0.3c-0.2-0.2-0.1-0.5,0-0.6c-0.3,0.1-0.6-0.1-0.8-0.2c0,0.2,0.1,0.5,0.2,0.7
						c0.1,0.2,0.4,0.3,0.6,0.3c-0.1,0.1-0.1,0.3,0,0.5c-0.1,0.1-0.2,0.2-0.3,0.3c0-0.1-0.1-0.2-0.1-0.3c-0.3-0.4-0.8-0.7-1.4-0.6
						c-0.4,0-0.8,0.4-0.9,0.7c-0.1,0.3,0,0.6,0.2,0.9c0.5,0.1,0.7,0.2,1.1,0.3c0,0.1-0.1,0.1-0.1,0.2c-0.1,0.2-0.1,0.5,0.1,0.7
						c0.3,0,0.5,0.1,0.9,0.1C12.6,84.7,12.5,84.6,12.5,84.4z M11.9,83.7c-0.2,0-0.4-0.1-0.4-0.3c-0.1-0.3-0.2-0.6,0-0.9
						c0.1-0.2,0.4-0.3,0.6-0.3c0.3,0,0.6,0.3,0.7,0.6C12.4,83.3,12.3,83.4,11.9,83.7z"/>
					<path fill="#34B0E0" d="M44.4,102.6c-0.1-0.1-0.1-0.3-0.1-0.4c0.1-0.6,0.2-0.9,0.3-1.5c0.2-0.1,0.4-0.2,0.5-0.4
						c-0.1,0-0.3,0.1-0.4,0c-0.2-0.1-0.3-0.3-0.3-0.4c-0.3,0.2-0.5,0.3-0.8,0.3c-0.3,0-0.3-0.3-0.4-0.5c-0.2,0.2-0.5,0.3-0.8,0.3
						c0.1,0.2,0.3,0.3,0.5,0.5c0.2,0.1,0.5,0.1,0.7-0.1c0,0.2,0.1,0.3,0.3,0.4c0,0.2-0.1,0.3-0.1,0.4c-0.1-0.1-0.2-0.1-0.3-0.2
						c-0.5-0.2-1.1-0.1-1.5,0.3c-0.3,0.3-0.4,0.8-0.3,1.1c0.1,0.3,0.4,0.5,0.6,0.6c0.4-0.2,0.7-0.2,1.1-0.4c0,0.1,0,0.1,0,0.2
						c0.1,0.2,0.2,0.4,0.5,0.5c0.3-0.2,0.5-0.3,0.8-0.4C44.7,102.8,44.5,102.8,44.4,102.6z M43.5,102.4c-0.2,0.1-0.4,0.2-0.5,0
						c-0.2-0.1-0.5-0.4-0.5-0.7c0-0.2,0.1-0.5,0.3-0.6c0.3-0.2,0.7-0.1,0.9,0.1C43.7,101.7,43.6,102,43.5,102.4z"/>
					<path fill="#34B0E0" d="M52.9,103.8c-0.1-0.1-0.1-0.3-0.2-0.4c0-0.6,0.1-0.9,0.1-1.5c0.2-0.1,0.3-0.3,0.4-0.5
						c-0.1,0.1-0.3,0.1-0.4,0.1c-0.2-0.1-0.3-0.2-0.4-0.4c-0.2,0.2-0.5,0.4-0.8,0.4c-0.3,0-0.4-0.3-0.4-0.5
						c-0.2,0.3-0.5,0.4-0.7,0.4c0.2,0.2,0.4,0.3,0.6,0.4c0.3,0.1,0.5,0,0.7-0.2c0.1,0.2,0.2,0.3,0.3,0.4c0,0.2,0,0.3,0,0.4
						c-0.1-0.1-0.2-0.1-0.3-0.1c-0.6-0.1-1.2,0-1.5,0.5c-0.2,0.3-0.3,0.8-0.1,1.1c0.2,0.3,0.4,0.4,0.7,0.5c0.4-0.2,0.6-0.3,1-0.6
						c0,0.1,0,0.1,0.1,0.2c0.1,0.2,0.3,0.4,0.6,0.4c0.3-0.2,0.4-0.3,0.7-0.5C53.2,104,53.1,103.9,52.9,103.8z M52,103.7
						c-0.2,0.1-0.3,0.2-0.5,0.1c-0.3-0.1-0.6-0.3-0.6-0.6c0-0.2,0-0.5,0.2-0.6c0.2-0.2,0.7-0.2,0.9,0C52.1,103,52,103.3,52,103.7z"
						/>
					<path fill="#34B0E0" d="M34.2,98.1c-0.4-0.2-0.5-0.2-0.9-0.4c0.5-0.2,0.9-0.4,1.3-0.8c0.1,0,0-0.1,0-0.1
						c-0.1,0.1-0.2,0.1-0.3,0.1c-0.3-0.1-0.4-0.3-0.5-0.6c-0.6,0.2-1.2,0.1-1.7-0.3c0,0.1,0,0.3,0,0.4c-0.2,0.3-0.3,0.8-0.6,1
						c0.3,0.2,0.5,0.2,0.8,0.4c-0.6,0.2-1.1,0.4-1.6,0.7c-0.1,0,0,0.1,0,0.1c0.1-0.1,0.3-0.1,0.4-0.1c0.4,0.1,0.5,0.4,0.7,0.7
						c0.6-0.2,1.2-0.1,1.8,0.3c0-0.1,0-0.3,0-0.4C33.7,98.8,33.8,98.3,34.2,98.1z M32.3,97.5c0.2-0.4,0.3-0.6,0.4-1
						c0.1,0,0.1,0,0.2,0.1c0.1,0.3,0.2,0.5,0.5,0.6c0.2,0.1,0.5,0,0.7-0.1c-0.4,0.3-0.9,0.5-1.4,0.6C32.6,97.7,32.4,97.6,32.3,97.5z
						 M32.7,99.1c-0.1,0-0.1,0-0.2,0c0-0.3-0.2-0.5-0.4-0.6c-0.3-0.2-0.6-0.1-0.9-0.1c0.5-0.2,1-0.3,1.5-0.4C33,98,33,98,33.2,98.1
						C33,98.5,32.9,98.7,32.7,99.1z"/>
				</g>
			</g>
			<g>
			</g>
		</g>
	</g>
</g>
</svg>
