<?xml version="1.0" encoding="utf-8"?>
<!-- Generator: Adobe Illustrator 16.0.4, SVG Export Plug-In . SVG Version: 6.00 Build 0)  -->
<!DOCTYPE svg PUBLIC "-//W3C//DTD SVG 1.1//EN" "http://www.w3.org/Graphics/SVG/1.1/DTD/svg11.dtd">
<svg version="1.1" id="Layer_1" xmlns="http://www.w3.org/2000/svg" xmlns:xlink="http://www.w3.org/1999/xlink" x="0px" y="0px"
	 width="432px" height="400.381px" viewBox="0 0 432 400.381" enable-background="new 0 0 432 400.381" xml:space="preserve">
<rect fill="#29BBED" width="432" height="400.381"/>
<g opacity="0.5">
	<g>
		<defs>
			<rect id="SVGID_1_" x="28.782" y="22.583" width="374.436" height="355.216"/>
		</defs>
		<clipPath id="SVGID_2_">
			<use xlink:href="#SVGID_1_"  overflow="visible"/>
		</clipPath>
		<path clip-path="url(#SVGID_2_)" fill="#FFFFFF" d="M399.001,257.463c-1.171-0.832-2.056-1.385-2.875-2.041
			c-3.484-2.85-7.355-5.367-10.358-8.67c-7.834-8.609-6.405-15.293,4.059-20.406c3.094-1.516,6.38-2.652,9.577-3.955
			c0.051-0.248,0.101-0.502,0.155-0.75c-3.353-1.318-6.622-2.941-10.073-3.889c-6.307-1.723-12.411-0.033-18.318,2.109
			c-10.902,3.959-21.683,3.311-32.444-0.424c-2.04-0.705-4.004-1.648-6.08-2.525c-0.462,10.683,3.335,19.335,14.316,20.091
			c10.123,0.697,17.771,5.105,23.557,13.451C376.571,259.182,390.686,260.398,399.001,257.463"/>
		<path clip-path="url(#SVGID_2_)" fill="#FFFFFF" d="M332.491,215.534c-0.023,0.324-0.057,0.648-0.082,0.973
			c7.768,1.089,15.498,2.705,23.299,3.132c10.312,0.586,18.146-4,22.928-13.425c1.13-2.214,2.468-4.341,3.835-6.431
			c3.53-5.333,8.685-6.96,14.786-6.208c1.803,0.219,3.581,0.526,5.375,0.797c0.194-0.213,0.391-0.417,0.577-0.628
			c-2.483-2.97-4.76-6.16-7.502-8.885c-8.207-8.141-26.234-6.641-32.112,4.075c-1.656,3.028-3.455,5.99-5.129,9.027
			c-4.508,8.149-11.137,13.586-20.195,15.987C336.339,214.462,334.424,215.011,332.491,215.534"/>
		<path clip-path="url(#SVGID_2_)" fill="#FFFFFF" d="M381.152,264.232c-0.477-0.238-0.632-0.35-0.81-0.406
			c-0.543-0.188-1.088-0.393-1.641-0.537c-5.836-1.521-9.749-5.18-12.037-10.684c-0.818-1.957-1.695-3.871-2.483-5.836
			c-1.463-3.596-4.213-5.82-7.896-6.484c-3.079-0.551-6.339-0.875-9.417-0.502c-4.935,0.605-9.392,2.676-13.703,6.408
			c1.55,0.154,2.38,0.271,3.215,0.32c5.275,0.316,9.135,2.654,11.146,7.701c0.493,1.25,1.129,2.443,1.647,3.684
			c1.218,2.9,3.27,4.799,6.178,6.098C363.857,267.779,372.339,267.305,381.152,264.232"/>
		<path clip-path="url(#SVGID_2_)" fill="#FFFFFF" d="M234.802,209.959v-5.86c-5.026,3.302-9.774,6.421-15.278,10.039
			c1.828,0.083,2.826,0.171,3.812,0.171c10.48,0.009,20.977-0.046,31.466,0.074c1.233,0.017,2.824,0.682,3.609,1.599
			c5.102,6.016,9.978,12.217,15.028,18.28c1.15,1.389,1.287,2.418,0.377,4.043c-4.614,8.246-7.529,16.996-7.999,26.533
			c-0.066,1.543-1.384,3.021-2.235,4.732c1.715,1.291,3.507,2.752,5.417,4.02c0.631,0.412,1.616,0.545,2.408,0.445
			c7.946-0.965,15.693-0.25,23.402,1.939c3.564,1.01,7.307,1.607,11.008,1.914c3.793,0.328,7.045,1.514,9.154,4.662
			c4.245,6.354,8.274,12.85,12.802,19.93h-9.384c-0.244,1.295-0.438,2.393-0.697,3.779c-4.636-1.412-9.188-2.791-14.052-4.262v5.449
			c-4.673-1.105-9.059-2.389-13.536-3.164c-8.549-1.473-17.055-0.467-25.547,0.834c-5.797,0.885-11.634,1.855-17.461,0.248
			c-7.669-2.109-11.231-7.699-9.587-15.508c0.602-2.883-0.162-4.545-2.342-6.34c-12.512-10.301-26.431-18.16-41.376-24.285
			c-0.444-0.18-0.901-0.271-1.616-0.482c-1.641,3.695-3.319,7.355-4.869,11.047c-0.61,1.447-1.333,1.871-3.019,1.803
			c-9.375-0.363-17.836-3.658-25.944-7.979c-1.923-1.029-2.953-0.801-4.365,0.73c-11.83,12.803-15.577,28.135-14.223,45.068
			c0.308,3.896,0.943,7.76,0.876,12.141c-7.589-5.971-15.186-11.953-22.891-18.033v26.453c5.247-0.652,10.385-1.088,15.448-1.965
			c11.519-1.98,22.704-5.051,32.868-11.09c1.645-0.98,3.236-2.068,4.818-3.174c4.432-3.123,6.862-6.932,6.438-12.848
			c-0.561-7.85-0.137-15.779-0.137-23.672v-3.301c2.962,0.193,5.607,0.373,8.262,0.543c1.939,0.129,3.248-0.586,4.012-2.525
			c1.287-3.182,2.783-6.275,4.453-10.01c7.219,3.734,14.296,7.145,21.113,11.016c4.668,2.654,9.009,5.902,13.42,8.98
			c0.76,0.543,1.661,1.607,1.645,2.408c-0.104,6.535-0.053,13.092-0.76,19.572c-0.693,6.5-4.386,11.598-9.391,15.713
			c-11.141,9.172-24.087,15.117-37.325,20.416c-16.121,6.451-32.939,10.48-49.857,14.293c-26.924,6.064-53.741,12.598-80.586,18.938
			c-5.715,1.35-11.418,2.721-17.125,4.066c-0.739,0.162-1.495,0.229-2.986,0.457c1.021-0.943,1.482-1.438,2.019-1.852
			c5.441-4.279,10.958-8.484,16.324-12.873c0.943-0.773,1.844-2.289,1.836-3.469c-0.091-38.971-0.307-77.949-0.474-116.918
			c-0.038-8.084-0.079-16.17,0.025-24.262c0.025-1.941-0.552-3.149-2.223-4.212c-5.511-3.514-10.92-7.186-16.374-10.812
			c-0.769-0.51-1.5-1.089-2.571-1.86c2.393-1.645,4.503-3.1,6.613-4.553c3.963-2.729,7.876-5.529,11.909-8.124
			c1.591-1.023,2.065-2.185,2.065-4.005c-0.042-17.516,0.008-35.031,0.045-52.556c0.049-25.4,0.083-50.804,0.203-76.221
			c0.017-2.347-0.623-4.203-2.044-6.065C42.652,41.154,35.993,32.21,28.787,22.59c5.682,1.658,10.591,3.095,15.498,4.544
			c47.53,14.043,95.073,28.029,142.567,42.193c11.023,3.29,21.437,8.021,30.293,15.618c8.677,7.435,13.287,16.764,12.973,28.344
			c-0.068,2.202-0.01,4.407-0.01,6.609c-0.314,0.016-0.568,0.12-0.672,0.033c-4.158-3.182-4.434-3.148-7.722,1.096
			c-2.58,3.335-5.16,6.671-7.831,10.144c-4.831-2.833-9.45-5.566-14.085-8.27c-3.106-1.811-4.357-1.404-5.752,1.89
			c-1.42,3.352-2.771,6.721-4.448,10.804c-4.083-3.667-7.868-6.987-11.535-10.438c-0.519-0.478-0.689-1.608-0.61-2.401
			c1.591-15.252-7.386-24.756-18.165-33.183c-2.056-1.608-3.63-3.141-4.287-5.795c-0.893-3.539-2.542-3.896-5.724-2.094
			c-0.935,0.527-2.571,0.527-3.589,0.087c-8.864-3.863-18.106-6.397-27.88-8.345v42.285c10.567-11.78,21.666-22.43,34.09-32.308
			c6.94,23.053,18.264,42.696,39.157,56.079c2.106-5.055,4.075-9.786,6.156-14.77c5.845,3.418,11.452,6.712,17.388,10.185
			c3.667-4.74,7.294-9.417,11.094-14.326c6.106,5.47,12.071,10.803,18.044,16.136c0.314-0.086,0.635-0.178,0.95-0.266v-27.211
			c0.342-0.079,0.683-0.145,1.022-0.211c6.679,12.153,14.588,23.41,24.287,33.957c4.806-8.241,7.654-16.989,10.31-26.073
			c1.656,7.145,2.97,13.993,4.847,20.673c2.427,8.59,6.451,16.423,12.328,23.272c1.828,2.127,3.785,3.261,6.704,3.079
			c3.64-0.22,7.29-0.058,11.448-0.058c-1.146,2.695-2.136,4.993-3.307,7.726c8.403-0.818,15.643,1.396,22.551,5.105
			c0.577,0.295,1.915-0.24,2.57-0.785c4.055-3.369,10.335-6.123,15.635-6.593c-10.837,11.714-10.778,26.446-11.842,41.422
			c-1.354-1.883-2.239-3.465-3.489-4.699c-0.577-0.568-1.924-0.772-2.771-0.552c-1.176,0.299-2.197,1.159-3.277,1.786
			c-1.08,0.615-2.152,1.234-3.377,1.939c-0.806-3.838,4.05-6.105,2.758-10.031c-2.118,0.956-3.863,1.737-5.607,2.513
			c-0.723-1.806-1.453-3.608-2.167-5.411c-1.177,0.519-2.613,1.167-4.059,1.819c-0.827-1.94-1.517-3.572-2.307-5.426
			c-1.59,1.413-2.919,2.584-4.618,4.091c-0.622-4.788-3.692-4.747-7.069-4.672c-2.654,0.071-5.325-0.457-7.793-0.703
			c1.974,3.744,4.017,7.602,6.136,11.602c1.034-0.187,2.144-0.391,4.046-0.747c-0.748,2.38-1.367,4.377-2.127,6.803
			c2.109-0.644,3.804-1.154,5.486-1.674c0.088,0.254,0.225,0.44,0.179,0.561c-2.43,6.518-0.977,9.69,5.923,10.95
			c3.872,0.705,7.98,0.125,11.984,0.125c-0.74,11.75-13.321,24.764-25.441,26.201c0-2.779,0.009-5.537,0-8.295
			c-0.042-10.172-3.547-14.783-13.271-17.463c-1.479-0.414-2.961-0.816-4.457-1.176c-9.943-2.396-16.502-8.605-20.453-17.873
			c-2.09-4.935-5.237-6.463-10.172-4.124c-3.115,1.479-5.878,3.92-8.465,6.276c-2.161,1.968-3.851,4.461-6.269,6.542
			c0.47-2.833,0.927-5.675,1.387-8.507c-0.187-0.093-0.373-0.188-0.561-0.278c-1.047,1.521-2.109,3.044-3.148,4.561
			C237.178,206.438,236.131,208.003,234.802,209.959 M235.873,240.398c1.176-0.988,2.197-1.975,3.353-2.791
			c3.734-2.629,7.904-2.039,10.192,1.873c1.209,2.049,2.04,4.686,1.957,7.023c-0.104,3.098-0.942,6.281-2.027,9.213
			c-2.712,7.311-5.18,8.893-12.996,8.715c-2.137-0.045-2.46,0.84-2.186,2.592c0.577,3.717,4.183,5.803,8.549,4.025
			c3.845-1.566,7.339-4.076,10.846-6.406c0.971-0.648,1.59-2.084,1.98-3.293c2.646-8.117,5.104-16.299,7.83-24.387
			c0.535-1.619,0.473-2.578-0.615-3.83c-3.734-4.277-7.435-8.594-10.965-13.033c-1.463-1.82-3.004-2.543-5.358-2.533
			c-26.949,0.068-53.908,0.049-80.856,0.049h-3.245c3.718-4.889,9.08-4.166,14.015-4.968c0.083-1.383,0.149-2.617,0.22-3.858
			c1.038-18.53,10.471-30.875,28.062-35.876c5.786-1.648,11.851-2.517,17.858-3.103c5.221-0.502,10.529-0.104,16.585-0.104
			c-2.126-4.133-3.696-7.394-5.476-10.538c-0.904-1.574-0.816-2.75,0.32-4.137c1.45-1.761,2.691-3.7,4.229-5.836
			c-3.492-1.196-6.649-2.297-9.814-3.368c-4.295-1.455-7.809-0.482-11.193,3.277h10.731c1.063,6.064,0.196,7.493-5.262,8.955
			c-0.379,0.096-0.761,0.146-1.134,0.224c-6.845,1.376-13.208-0.485-19.319-3.219c-15.166-6.795-27.187-17.632-37.99-29.977
			c-2.555-2.916-4.91-6.006-7.361-9.009c9.333,19.024,24.723,32.132,42.363,43.09c-3.742,0.669-7.289,0.832-10.766,1.421
			c-10.654,1.811-19.601,6.371-23.157,17.354c-1.507,4.652-1.737,9.799-2.027,14.75c-0.319,5.504-0.041,5.546-5.067,7.614
			c-15.439,6.347-18.842,21.777-15.83,33.685c3.817,1.08,7.314,1.906,10.684,3.08c2.899,1.004,5.611,2.553,8.515,3.537
			c1.047,0.359,2.559,0.041,3.631-0.457c5.47-2.57,10.67-5.844,16.315-7.846c14.073-4.992,28.798-5.789,43.581-5.316
			c5.947,0.195,11.783,0.58,17.645-1.352c2.434-0.801,5.479-0.016,8.183,0.418c0.757,0.111,1.301,1.557,1.947,2.387
			c-0.859,0.463-1.682,1.168-2.587,1.312c-1.204,0.203-2.492-0.033-3.734-0.088C239.217,229.32,235.703,232.801,235.873,240.398
			 M250.947,128.705c-0.158,11.431-1.504,21.853-11.312,28.939c6.235,7.29,5.659,15.822,6.26,24.108
			c2.833-6.671,8.619-10.326,14.02-14.522c-4.935-5.648-11.477-7.808-18.851-9.668c6.276-2.692,12.001-2.654,18.39-1.234
			c-4.761-5.835-7.119-11.816-5.887-19.601c0.853,1.803,1.388,2.908,1.916,4.025c2.637,5.546,5.731,11.123,10.932,14.256
			c5.836,3.522,7.315,8.19,6.908,14.251c-0.017,0.278,0.187,0.668,0.065,0.847c-0.535,0.697-1.121,1.882-1.744,1.915
			c-9.399,0.51-16.747,5.188-23.518,11.178c-0.803,0.707-1.808,1.175-2.783,1.81v5.089c8.752-7.347,17.275-14.231,30.139-14.255
			c-0.918,2.176-1.3,3.92-2.264,5.237c-4.1,5.633-6.159,11.623-3.265,18.368c2.637,6.135,7.119,10.463,13.654,12.354
			c2.762,0.797,5.603,1.342,8.41,1.973c10.193,2.289,14.393,6.618,16.241,16.926c0.44,2.434,0.697,4.9,1.047,7.402
			c5.649-2.145,10.642-7.727,11.593-12.625c0.391-2.025,0.121-3.146-2.297-3.553c-9.841-1.654-15.618-7.694-17.795-17.289
			c-1.32-5.803-4.212-10.684-8.361-14.888c-1.832-1.843-3.718-3.646-5.371-5.631c-1.632-1.974-2.824-4.217-2.42-6.99
			c0.293,0.033,0.422,0.017,0.473,0.066c0.324,0.349,0.698,0.673,0.938,1.072c5.121,8.474,12.834,11.742,22.455,11.198
			c0.76-0.046,1.54,0.042,2.305-0.013c8.229-0.536,15.593,1.516,21.94,6.979c1.84,1.591,3.983,2.799,5.641,3.945
			c1.495-8.182,2.945-16.07,4.415-24.141c-2.338,2.048-4.747,4.166-7.19,6.321c-9.515-9.894-21.748-7.173-33.403-7.086
			c-0.154-0.273-0.316-0.536-0.47-0.811c2.085-1.728,4.162-3.459,6.234-5.188c-1.188-0.706-1.919-0.81-2.654-0.834
			c-6.146-0.162-11.999-1.633-17.581-4.142c-9.878-4.424-17.779-11.411-24.587-19.643
			C259.014,139.85,255.296,134.487,250.947,128.705 M249.36,282.906c-0.885,0.475-1.55,0.799-2.197,1.172
			c-3.817,2.238-5.786,6.705-4.789,10.826c0.935,3.85,3.726,5.943,8.752,5.926c3.926-0.016,7.862-0.443,11.768-0.934
			c8.012-1.006,15.999-2.305,24.083-0.77c2.006,0.375,3.971,0.99,6.309,1.574c-1.3-5.723-3.306-10.422-8.369-13.262
			c-4.848-2.73-10.073-1.576-15.714-1.139c5.6-5.438,13.528-5.91,18.812-1.268c2.94,2.584,5.466,5.658,8.053,8.623
			c2.477,2.834,5.659,3.926,9.442,2.791c-2.039-4.328-4.872-7.971-8.141-11.404c-5.351-5.625-11.789-8.201-19.46-7.248
			c-4.665,0.568-9.316,1.41-13.895,2.467c-2.219,0.512-3.318-0.088-4.382-1.939c-1.554-2.723-3.368-5.318-5.18-8.125
			c-3.443,1.736-6.634,3.359-10.065,5.096C246.157,277.998,247.716,280.381,249.36,282.906 M242.968,258.924
			c-2.347-3.555-4.516-6.846-6.966-10.555c-1.122,2.078-1.777,3.293-2.857,5.301c-0.333-1.812-0.408-2.742-0.674-3.635
			c-0.843-2.834-1.469-5.791-2.72-8.445c-1.828-3.871-3.991-4.834-8.229-4.066c-8.897,1.625-16.665,5.707-23.722,11.252
			c-0.062,0.047,0.017,0.266,0.033,0.527c1.495-0.535,2.908-1.121,4.37-1.564c10.023-3.037,13.001-2.186,18.838,5.273
			c1.536,1.965,3.662,3.475,5.74,5.389c0.477-1.441,0.664-2.289,1.013-3.064c1.138-2.486,2.763-2.705,4.628-0.674
			c0.52,0.564,0.976,1.191,1.445,1.807C236.053,259.352,238.893,260.059,242.968,258.924 M199.354,132.846
			c-0.83,2.222-1.545,4.083-2.226,5.965c-2.126,5.82-1.915,6.122,4.191,7.273c6.418,1.218,12.166-0.544,17.629-3.718
			c4.738-2.75,9.229-3.139,13.936,0.417c2.176,1.632,5.066,2.329,7.609,3.456c1.312-2.53,1.014-3.905-0.644-5.413
			c-4.587-4.166-8.969-8.565-13.638-13.076c-2.807,3.743-5.544,6.978-7.791,10.525c-1.688,2.67-3.215,2.738-5.788,1.283
			C208.397,137.158,203.956,135.143,199.354,132.846 M158.785,194.836c-0.27-0.698-0.366-1.071-0.552-1.371
			c-8.208-12.698-11.518-26.9-12.98-41.69c-1.259-12.769-0.868-25.521,0.059-38.281c0.037-0.478,0.087-0.964,0.07-1.446
			c-0.008-0.461-0.095-0.938-0.229-2.198c-8.237,30.534-4.324,59.183,7.323,87.428C154.61,196.453,156.55,195.696,158.785,194.836
			 M149.123,258.533c-13.969-10.205-24.831-22.645-31.273-39.273c-0.694,6.861-0.295,12.6,3.368,18.061
			c5.517,8.217,11.876,15.555,19.585,21.75C144.625,262.135,144.625,262.135,149.123,258.533 M279.508,135.314
			c-2.768,4.374-5.112,7.962-7.257,11.671c-0.282,0.479,0.254,1.861,0.822,2.314c3.353,2.713,6.729,5.453,10.314,7.834
			c2.471,1.641,5.304,2.711,7.979,4.057c0.133-0.211,0.27-0.406,0.408-0.61C286.021,153.325,281.41,145.516,279.508,135.314
			 M209.809,210.769c-8.989-2.18-14.521-8.756-19.792-15.713c1.226,6.049,3.539,11.56,8.565,15.194
			c2.363,1.721,5.495,2.483,8.37,3.394C208.729,214.196,209.921,213.294,209.809,210.769 M203.964,186.77
			c1.704,7.538,4.901,14.234,11.208,19.456c1.453-1.283,2.786-2.459,3.75-3.312C213.85,197.432,208.933,192.132,203.964,186.77
			 M230.191,194.667c-3.727-4.628-7.187-8.931-10.643-13.238c-0.195,0.071-0.373,0.146-0.561,0.211
			c1.923,5.396,3.838,10.779,5.902,16.557C227.226,196.648,228.787,195.608,230.191,194.667 M300.313,281.373
			c1.607,2.418,3.124,4.682,4.645,6.941c1.063,1.584,1.988,3.27,3.231,4.707c1.337,1.549,3.106,1.922,5.158,0.943
			c-2.53-3.598-4.885-7.055-7.343-10.439C304.6,281.604,302.748,280.611,300.313,281.373 M129.862,121.499
			c-0.178-0.12-0.349-0.229-0.527-0.333c-3.63,8.458-7.41,16.86-10.796,25.42c-0.984,2.484-0.83,5.409-1.196,8.129
			c0.116-0.009,0.236-0.017,0.357-0.025L129.862,121.499z M240.588,189.586c-2.201-3.581-4.212-6.854-6.219-10.123
			c-0.245,0.066-0.494,0.137-0.73,0.211c1.096,4.025,2.185,8.059,3.436,12.652C238.743,191.023,239.636,190.326,240.588,189.586
			 M172.542,250.545c-0.569,4.666,0.437,8.83,3.436,12.832c0.885-1.209,1.549-2.102,1.711-2.314
			C175.828,257.258,174.22,253.984,172.542,250.545 M183.109,244.141c-0.224-0.008-0.444-0.008-0.673-0.018
			c0.349,3.012,0.698,6.023,1.047,9.035l0.926,0.051c0.689-0.861,1.388-1.699,1.745-2.152
			C184.994,248.443,184.06,246.291,183.109,244.141 M194.49,238.832c-0.35,0.018-0.698,0.033-1.047,0.049
			c0.17,1.609,0.299,3.213,0.577,4.799c0.008,0.055,1.362-0.125,2.172-0.205C195.52,241.633,195.009,240.227,194.49,238.832
			 M210.83,259.455c-0.203-2.316-0.365-4.041-0.519-5.777c-0.203,0.018-0.399,0.041-0.594,0.066
			c-0.528,1.582-1.055,3.182-1.641,4.967C208.754,258.891,209.442,259.086,210.83,259.455 M326.088,200.423
			c1.184-1.018,1.923-1.666,2.92-2.543c-1.26-0.747-2.168-1.3-3.743-2.238C325.598,197.565,325.801,198.716,326.088,200.423"/>
		<path clip-path="url(#SVGID_2_)" fill="#FFFFFF" d="M399.001,257.463c-8.315,2.936-22.43,1.719-28.485-7.008
			c-5.786-8.346-13.434-12.754-23.557-13.451c-10.981-0.756-14.778-9.408-14.316-20.091c2.076,0.876,4.04,1.82,6.08,2.525
			c10.762,3.734,21.542,4.383,32.444,0.424c5.907-2.143,12.012-3.833,18.318-2.109c3.451,0.947,6.721,2.57,10.073,3.889
			c-0.055,0.248-0.104,0.502-0.155,0.75c-3.197,1.303-6.483,2.439-9.577,3.955c-10.464,5.113-11.893,11.797-4.059,20.406
			c3.003,3.303,6.874,5.82,10.358,8.67C396.945,256.078,397.83,256.631,399.001,257.463"/>
		<path clip-path="url(#SVGID_2_)" fill="#FFFFFF" d="M332.491,215.534c1.933-0.522,3.848-1.071,5.779-1.586
			c9.059-2.401,15.688-7.838,20.195-15.987c1.674-3.037,3.473-5.999,5.129-9.027c5.878-10.715,23.905-12.215,32.112-4.075
			c2.742,2.726,5.019,5.916,7.502,8.885c-0.187,0.211-0.383,0.415-0.577,0.628c-1.794-0.271-3.572-0.579-5.375-0.797
			c-6.102-0.752-11.256,0.875-14.786,6.208c-1.367,2.09-2.705,4.217-3.835,6.431c-4.781,9.425-12.615,14.011-22.928,13.425
			c-7.801-0.428-15.531-2.043-23.299-3.132C332.435,216.182,332.468,215.858,332.491,215.534"/>
		<path clip-path="url(#SVGID_2_)" fill="#FFFFFF" d="M381.152,264.232c-8.813,3.072-17.295,3.547-25.802-0.238
			c-2.908-1.299-4.96-3.197-6.178-6.098c-0.519-1.24-1.154-2.434-1.647-3.684c-2.011-5.047-5.87-7.385-11.146-7.701
			c-0.835-0.049-1.665-0.166-3.215-0.32c4.312-3.732,8.769-5.803,13.703-6.408c3.078-0.373,6.338-0.049,9.417,0.502
			c3.684,0.664,6.434,2.889,7.896,6.484c0.788,1.965,1.665,3.879,2.483,5.836c2.288,5.504,6.201,9.162,12.037,10.684
			c0.553,0.145,1.098,0.35,1.641,0.537C380.521,263.883,380.676,263.994,381.152,264.232"/>
		<path clip-path="url(#SVGID_2_)" fill="#FFFFFF" d="M281.178,166.238c5.735,1.566,11.842,3.215,17.541,4.765
			c-0.594,0.204-1.812,0.648-3.239,1.151c0.153,0.876,0.314,1.735,0.535,2.957C289.643,173.648,284.771,170.383,281.178,166.238"/>
		<path clip-path="url(#SVGID_2_)" fill="#FFFFFF" d="M338.221,183.535c-0.527,3.78-0.906,6.5-1.279,9.258
			c-3.905,0.312-5.732-2.571-5.546-9.886C333.327,186.08,335.267,188.353,338.221,183.535"/>
	</g>
</g>
</svg>
