<?xml version="1.0" encoding="utf-8"?>
<!-- Generator: Adobe Illustrator 16.0.4, SVG Export Plug-In . SVG Version: 6.00 Build 0)  -->
<!DOCTYPE svg PUBLIC "-//W3C//DTD SVG 1.1//EN" "http://www.w3.org/Graphics/SVG/1.1/DTD/svg11.dtd">
<svg version="1.1" id="Layer_1" xmlns="http://www.w3.org/2000/svg" xmlns:xlink="http://www.w3.org/1999/xlink" x="0px" y="0px"
	 width="432px" height="400.381px" viewBox="0 0 432 400.381" enable-background="new 0 0 432 400.381" xml:space="preserve">
<rect fill="#EF3D39" width="432" height="400.381"/>
<g opacity="0.5">
	<g>
		<defs>
			<rect id="SVGID_1_" x="81.819" y="44.464" width="268.363" height="311.453"/>
		</defs>
		<clipPath id="SVGID_2_">
			<use xlink:href="#SVGID_1_"  overflow="visible"/>
		</clipPath>
		<path clip-path="url(#SVGID_2_)" fill="none" stroke="#FFFFFF" stroke-miterlimit="10" d="M93.618,56.159v91.107
			c0,120.545,77.293,169.191,122.39,195.07c45.063-25.879,122.346-74.525,122.346-195.07V56.159H216.007H93.618z"/>
		<path clip-path="url(#SVGID_2_)" fill="none" stroke="#FFFFFF" stroke-miterlimit="10" d="M216.007,343.113l-0.337-0.186
			c-26.816-15.396-54.828-33.591-78.308-62.214c-29.481-35.984-44.418-80.891-44.418-133.448V55.495h246.106v91.771
			c0,52.558-14.994,97.464-44.432,133.448c-23.418,28.623-51.479,46.817-78.299,62.214L216.007,343.113z M94.282,56.832v90.434
			c0,52.249,14.861,96.871,44.114,132.647c23.229,28.311,51.022,46.366,77.611,61.649c26.571-15.283,54.354-33.339,77.577-61.649
			c29.277-35.776,44.115-80.398,44.115-132.647V56.832H94.282z"/>
		<polygon clip-path="url(#SVGID_2_)" fill="#FFFFFF" points="151.02,81.658 151.02,106.863 159.463,106.863 159.463,227.465 
			151.02,227.465 151.02,252.65 194.765,252.65 194.765,227.465 186.265,227.465 186.265,180.377 245.715,180.377 245.715,227.465 
			237.221,227.465 237.221,252.65 280.951,252.65 280.951,227.465 272.494,227.465 272.494,106.863 280.951,106.863 280.951,81.658 
			237.221,81.658 237.221,106.863 245.715,106.863 245.715,153.907 186.265,153.907 186.265,106.863 194.765,106.863 
			194.765,81.658 		"/>
		<path clip-path="url(#SVGID_2_)" fill="#FFFFFF" d="M287.674,259.297h-57.1v-38.464h8.443v-33.814h-46.03v33.814h8.476v38.464
			h-57.175v-38.464h8.462V113.476h-8.462V75.03h57.175v38.445h-8.476v33.818h46.03v-33.818h-8.443V75.03h57.1v38.445h-8.467v107.357
			h8.467V259.297z M231.869,257.96h54.473v-35.814h-8.443V112.167h8.443V76.381h-54.473v35.786h8.475v36.436h-48.688v-36.436h8.457
			V76.381H145.64v35.786h8.5v109.979h-8.5v35.814h54.473v-35.814h-8.457v-36.435h48.688v36.435h-8.475V257.96z"/>
		<path clip-path="url(#SVGID_2_)" fill="none" stroke="#FFFFFF" stroke-width="0.25" stroke-miterlimit="10" d="M287.674,259.297
			h-57.1v-38.464h8.443v-33.814h-46.03v33.814h8.476v38.464h-57.175v-38.464h8.462V113.476h-8.462V75.03h57.175v38.445h-8.476
			v33.818h46.03v-33.818h-8.443V75.03h57.1v38.445h-8.467v107.357h8.467V259.297z M231.869,257.96h54.473v-35.814h-8.443V112.167
			h8.443V76.381h-54.473v35.786h8.475v36.436h-48.688v-36.436h8.457V76.381H145.64v35.786h8.5v109.979h-8.5v35.814h54.473v-35.814
			h-8.457v-36.435h48.688v36.435h-8.475V257.96z"/>
		<polygon clip-path="url(#SVGID_2_)" fill="#FFFFFF" points="243.273,246.688 274.932,246.688 274.932,233.414 266.488,233.414 
			266.488,100.895 274.932,100.895 274.932,87.626 243.273,87.626 243.273,100.895 251.76,100.895 251.76,159.861 180.221,159.861 
			180.221,100.895 188.73,100.895 188.73,87.626 157.05,87.626 157.05,100.895 165.493,100.895 165.493,233.414 157.05,233.414 
			157.05,246.688 188.73,246.688 188.73,233.414 180.221,233.414 180.221,174.438 251.76,174.438 251.76,233.414 243.273,233.414 		
			"/>
		<path clip-path="url(#SVGID_2_)" fill="#FFFFFF" d="M85.421,48.066v1.508v97.691c0,127.03,85.096,178.479,129.817,203.991
			l0.769,0.465l0.711-0.465c44.745-25.513,129.86-76.961,129.86-203.991V49.574v-1.508h-1.525H216.007H86.919H85.421z
			 M88.441,51.077h127.566h127.532v96.189c0,125.101-82.744,175.34-127.532,200.981c-44.793-25.642-127.566-75.881-127.566-200.981
			V51.077z"/>
		<path clip-path="url(#SVGID_2_)" fill="none" stroke="#FFFFFF" stroke-miterlimit="10" d="M85.421,48.066v1.508v97.691
			c0,127.03,85.096,178.479,129.817,203.991l0.769,0.465l0.711-0.465c44.745-25.513,129.86-76.961,129.86-203.991V49.574v-1.508
			h-1.525H216.007H86.919H85.421z M88.441,51.077h127.566h127.532v96.189c0,125.101-82.744,175.34-127.532,200.981
			c-44.793-25.642-127.566-75.881-127.566-200.981V51.077z"/>
	</g>
</g>
</svg>
