<?xml version="1.0" encoding="utf-8"?>
<!-- Generator: Adobe Illustrator 16.0.4, SVG Export Plug-In . SVG Version: 6.00 Build 0)  -->
<!DOCTYPE svg PUBLIC "-//W3C//DTD SVG 1.1//EN" "http://www.w3.org/Graphics/SVG/1.1/DTD/svg11.dtd">
<svg version="1.1" id="Layer_1" xmlns="http://www.w3.org/2000/svg" xmlns:xlink="http://www.w3.org/1999/xlink" x="0px" y="0px"
	 width="432px" height="400.381px" viewBox="0 0 432 400.381" enable-background="new 0 0 432 400.381" xml:space="preserve">
<rect fill="#EF3D39" width="432" height="400.381"/>
<g opacity="0.5">
	<g>
		<defs>
			<rect id="SVGID_1_" x="21.434" y="48.379" width="389.132" height="303.623"/>
		</defs>
		<clipPath id="SVGID_2_">
			<use xlink:href="#SVGID_1_"  overflow="visible"/>
		</clipPath>
		<path clip-path="url(#SVGID_2_)" fill="#FFFFFF" d="M410.547,331.447c-129.984-64.656-259.157-64.557-388.774,0.182
			c-0.085-1.607-0.242-3.184-0.242-4.768c-0.008-44.213,0.052-88.412-0.097-132.612c-0.016-4.225,1.04-5.539,5.422-5.885
			c22.613-1.758,45.167-4.185,67.785-5.942c24.718-1.915,49.468-3.608,74.227-4.914c17.055-0.898,34.187-1.797,51.234-1.253
			c33.244,1.056,66.479,2.717,99.666,4.902c28.971,1.907,57.85,4.986,86.791,7.256c4.217,0.331,4.004,2.438,4.004,5.293
			c-0.025,37.398-0.016,74.787-0.016,112.178V331.447z M82.25,297.244c6.333-1.906,11.896-3.828,17.595-5.184
			c3.745-0.883,4.95-2.568,4.926-6.477c-0.174-30.266-0.089-60.539-0.097-90.803c0-1.612-0.141-3.221-0.233-5.111
			c-6.627,0.496-12.778,1.121-18.946,1.362c-3.45,0.122-5.119,1.544-5.909,4.862c-0.975,4.104-2.426,8.098-3.708,12.125
			c-2.979,9.395-5.966,18.799-9.255,29.104c-4.232-13.855-8.219-26.682-12.024-39.561c-0.786-2.645-1.81-3.632-4.741-3.213
			c-4.93,0.701-9.932,1.117-14.911,1.173c-4.16,0.041-5.664,1.363-5.635,5.805c0.173,37.536,0.097,75.065,0.097,112.595v5.416
			c6.869-3.172,12.806-6.127,18.913-8.625c2.701-1.117,3.559-2.545,3.515-5.387c-0.145-11.141-0.064-22.295-0.064-33.449
			c0.222-0.047,0.447-0.1,0.669-0.141c3.35,10.855,6.704,21.711,10.029,32.486c6.2-0.883,10.198-3.512,11.113-9.719
			c0.314-2.064,1.213-4.043,1.874-6.051c1.939-5.869,3.886-11.73,5.837-17.592l0.955,0.215V297.244z M402.662,318.992v-5.277
			V201.154c0-0.911,0.24-1.927-0.09-2.692c-0.408-0.968-1.213-2.387-1.975-2.475c-6.381-0.677-12.787-1.101-19.68-1.637v42.072
			c-0.883-0.465-1.08-0.992-1.254-1.529c-4.127-12.789-8.207-25.584-12.428-38.338c-0.451-1.379-1.633-3.435-2.68-3.567
			c-7.275-0.963-14.605-1.504-22.424-2.221v33.272c0,22.239-0.025,44.478,0.066,66.72c0,1.453,0.488,3.854,1.379,4.201
			c6.523,2.551,13.201,4.688,20.631,7.232V262.49c5.289,14.043,9.732,28.145,14.291,42.195c0.527,1.625,1.338,3.762,2.631,4.414
			C387.852,312.471,394.768,315.424,402.662,318.992 M327.258,237.295c0-12.861-0.076-25.733,0.047-38.604
			c0.033-3.986-1.543-6.792-5.09-8.271c-2.354-0.964-4.906-1.733-7.418-1.939c-12.504-1.016-25.027-1.975-37.561-2.632
			c-8.65-0.464-13.225,4.176-13.225,12.762c-0.008,22.562,0.289,45.114-0.143,67.669c-0.18,9.371,4.229,11.557,11.178,13.051
			c6.648,1.428,13.369,2.48,20.064,3.674c6.984,1.248,13.918,3.021,20.943,3.543c7.24,0.527,11.188-3.914,11.195-11.102
			C327.273,262.732,327.258,250.01,327.258,237.295 M189.095,276.047c-0.093-1.072-0.044-1.836-0.218-2.537
			c-7.232-28.381-14.52-56.748-21.67-85.146c-0.641-2.576-1.979-2.979-4.201-2.838c-7.538,0.452-15.083,0.947-22.638,1.181
			c-3.41,0.097-4.555,1.854-5.293,4.853c-7.123,29.18-14.362,58.34-21.554,87.508c-0.733,2.988-1.338,5.998-2.112,9.461
			c7.925-1.732,15.164-3.164,22.279-5.039c1.298-0.338,2.62-2.334,3.063-3.82c1.584-5.35,2.685-10.848,4.253-16.205
			c0.379-1.281,1.806-3.137,2.83-3.197c5.7-0.314,11.42-0.156,17.289-0.156c1.173,5.301,2.136,10.174,3.402,14.967
			c0.315,1.197,1.649,3.113,2.411,3.062C174.265,277.646,181.574,276.803,189.095,276.047 M218.368,256.621
			c2.023-7.68-2.487-6.949-6.546-6.836c-1.669,0.051-3.33,0.006-4.994,0.006c-11.609,0-11.609,0-11.593,11.594
			c0.016,9.461,3.321,13.488,12.706,13.992c9.808,0.52,19.655,0.504,29.484,0.33c7.105-0.125,12.297-5.836,12.391-12.984
			c0.064-4.84-0.166-9.686,0.064-14.516c0.213-4.26-1.291-7.627-4.16-10.598c-7.984-8.266-15.85-16.643-23.977-24.778
			c-2.508-2.507-3.623-4.994-2.475-8.501h7.264c0.226,2.148,0.398,3.89,0.572,5.623h22.295c0.182-0.77,0.371-1.197,0.371-1.636
			c0.037-4.225,0.102-8.461,0.045-12.706c-0.102-6.288-3.443-10.598-9.799-10.855c-11.477-0.452-22.994-0.472-34.462-0.016
			c-6.579,0.274-10.235,4.962-10.303,11.508c-0.056,5.442-0.443,10.94,0.149,16.322c0.347,3.212,1.56,6.909,3.656,9.263
			c7.937,8.917,16.503,17.261,24.536,26.097c1.593,1.742,1.843,4.697,2.718,7.098C223.979,255.488,221.653,255.959,218.368,256.621"
			/>
		<path clip-path="url(#SVGID_2_)" fill="#FFFFFF" d="M85.938,352.002c2.75-7.664,5.095-14.621,7.78-21.449
			c1.056-2.701,0.822-4.285-1.588-6.119c-5.297-4.01-10.311-8.385-16.156-13.197c45.498-16.713,91.842-24.906,139.633-25.008
			c47.924-0.09,94.434,8.057,140.459,24.734c-5.598,4.615-10.516,8.939-15.744,12.869c-2.648,1.988-3.096,3.742-1.848,6.801
			c2.674,6.568,4.895,13.311,7.66,20.945C259.215,322.092,172.854,321.217,85.938,352.002 M215.675,311.547
			c3.846-3.895,5.192-6.562,3.317-9.525c-1.426-2.262-4.284-4.805-6.719-5.043c-6.805-0.686-13.722-0.242-20.268-0.242v22.756h6.43
			c0.193-2.361,0.358-4.426,0.54-6.68c4.16-0.15,8.667-2.592,11.375,2.576c2.293,4.381,5.792,4.441,10.368,3.293
			C218.893,316.098,217.275,313.812,215.675,311.547 M295.924,323.156c6.781,6.498,14.352,9.791,23.238,8.57
			c2.246-0.307,5.213-2.939,5.846-5.096c0.496-1.693-1.584-5.012-3.434-6.316c-2.75-1.932-6.322-2.697-9.525-4.012
			c-1.709-0.701-3.369-1.527-5.051-2.285c6.453-2.434,11.439,0.652,16.527,3.648c1.354-1.15,2.574-2.182,4.094-3.467
			c-6.242-5.41-13.076-7.695-20.779-7.256c-3.188,0.182-5.885,1.592-6.6,5.16c-0.717,3.623,1.373,5.801,4.279,7.146
			c3.139,1.455,6.488,2.426,9.693,3.758c1.334,0.543,2.523,1.471,3.781,2.221c-7.119,1.479-12.648-1.133-17.754-5.467
			C298.822,320.871,297.561,321.857,295.924,323.156 M254.111,322.982c0.18-0.322,0.363-0.652,0.545-0.977
			c2.062-0.41,4.211-0.592,6.191-1.275c4.582-1.586,7.891-4.451,8.322-9.668c0.428-5.195-2.244-8.711-6.562-10.932
			c-6.408-3.293-13.043-3.74-19.518-0.141c-6.498,3.615-7.84,12.092-2.062,16.709C244.719,319.637,249.705,320.951,254.111,322.982
			 M103.803,311.695c1.858,7.586,3.592,14.674,5.418,22.109c2.333-0.627,4.285-1.148,6.373-1.699
			c-0.455-2.545-0.818-4.576-1.229-6.861c4.531-1.174,8.933-2.096,13.189-3.475c4.236-1.379,6.309-4.947,5.542-8.664
			c-0.851-4.135-4.213-6.916-8.654-6.131C117.674,308.174,111.019,310.01,103.803,311.695 M165.969,321.875
			c-5.292-6.604-10.025-12.639-14.911-18.547c-1.693-2.049-8.01-1.213-8.949,1.262c-2.806,7.389-5.341,14.885-8.155,22.844
			c3.846-0.465,7.296-0.018,8.296-4.482c0.166-0.738,1.378-1.545,2.245-1.742c3.072-0.701,6.191-1.289,9.328-1.629
			c1-0.115,2.576,0.348,3.071,1.088C159.306,324.289,162.212,322.934,165.969,321.875 M299.375,304.697
			c-9.434-1.58-18.334-3.062-27.674-4.615c-0.229,1.859-0.418,3.426-0.631,5.209c3.605,0.793,6.885,1.52,10.121,2.229
			c-0.92,5.895-1.746,11.188-2.611,16.801c2.455,0.314,4.336,0.561,6.529,0.844c1.061-5.789,2.039-11.215,3.039-16.693
			c3.607,0.508,6.846,0.965,10.256,1.451C298.742,308.113,299.004,306.67,299.375,304.697 M159.851,305.678
			c3.466-0.322,6.719-0.625,10.278-0.955c0.669,5.775,1.314,11.25,1.988,17.096c2.431-0.348,4.417-0.625,6.615-0.932
			c-0.561-5.789-1.088-11.154-1.636-16.693c3.543-0.535,6.913-1.047,10.468-1.596c-0.287-1.83-0.512-3.285-0.79-5.123
			c-9.264,0.971-18.305,1.93-27.532,2.902C159.471,302.449,159.645,303.896,159.851,305.678 M225.878,319.109h6.372v-22.002h-6.372
			V319.109z"/>
		<path clip-path="url(#SVGID_2_)" fill="#FFFFFF" d="M148.583,111.053c4.406,4.624,8.421,8.84,12.423,13.044
			c-9.831,5.003-19.889,9.792-29.635,15.132c-19.583,10.731-37.698,23.602-54.156,38.694c-4.18,3.837-8.63,3.995-14.358,3.821
			c19.646-23.791,42.031-43.421,67.696-60.489c-4.37-3.588-8.365-6.869-12.807-10.517c70.841-49.589,148.449-67.132,234.177-54.048
			c-5.17,7.002-9.604,13.274-14.439,19.236c-0.779,0.963-3.52,1.064-5.043,0.584c-17.422-5.53-34.775-11.242-52.145-16.897
			c-1.379-0.456-2.789-0.794-5.588-1.576c6.941,8.09,12.969,15.116,19.717,22.964C242.828,79.277,194.582,89.145,148.583,111.053"/>
		<path clip-path="url(#SVGID_2_)" fill="#FFFFFF" d="M92.432,178.286c33.094-21.614,69.139-36.102,109.159-44.224
			c-5.333-5.482-9.952-10.247-15.277-15.717c41.144-10.074,81.768-11.569,123.708-5.188c-3.387,4.789-6.381,9.042-9.381,13.287
			c-2.357,3.333-5.002,6.494-7.014,10.029c-2,3.507-4.475,4.003-8.215,3.35c-18.801-3.261-37.746-4.688-58.212-4.043
			c6.026,6.514,11.358,12.274,16.999,18.369c-0.908,0.262-1.42,0.552-1.932,0.544c-42.055-0.621-82.571,6.86-121.965,21.751
			c-8.413,3.181-18.369,2.253-27.608,3.221C92.605,179.201,92.521,178.75,92.432,178.286"/>
		<path clip-path="url(#SVGID_2_)" fill="#FFFFFF" d="M337.318,81.28c8.111-10.892,15.951-21.417,24.514-32.901
			c0.818,6.756,1.527,12.468,2.211,18.18c0.828,6.901,1.76,13.794,2.379,20.723c0.246,2.806,1.295,4.083,4.051,4.918
			c9.373,2.842,18.645,6.018,28.871,9.364c-8.783,4.62-16.652,9.085-24.814,12.903c-3.766,1.766-4.492,3.971-4.07,7.736
			c1.574,14.116,2.881,28.257,4.283,42.39c-0.432,0.403-0.867,0.818-1.305,1.221c-2.105-2.592-4.061-5.317-6.338-7.744
			c-7.34-7.833-14.91-15.471-22.15-23.388c-2.148-2.354-3.74-2.467-6.521-1.128c-18.369,8.848-36.836,17.491-55.273,26.201
			c-0.791,0.371-1.592,0.726-2.963,0.553c12.963-18.269,25.924-36.545,39.102-55.112c-11.518-13.318-22.938-26.524-34.354-39.734
			c0.199-0.33,0.404-0.653,0.602-0.983C302.697,70.042,319.861,75.609,337.318,81.28 M345.385,101.298
			c4.205-13.298,8.223-26.028,12.242-38.75c-5.957,6.248-11.086,12.77-15.805,19.575c-2.064,2.971-3.883,3.688-7.426,2.442
			c-11.344-3.99-22.832-7.538-34.275-11.254c-0.098,0.209-0.197,0.423-0.299,0.629C314.898,82.989,329.975,92.035,345.385,101.298
			 M294.543,147.066c0.221,0.189,0.434,0.379,0.648,0.568c16.09-14.818,32.191-29.636,49.021-45.147
			c-11.441,0.907-22.027,0.811-27.094,12.629c-1.039,2.447-3.08,4.45-4.648,6.664C306.494,130.208,300.516,138.637,294.543,147.066
			 M368.574,151.484c0.332-0.085,0.662-0.158,0.992-0.242c-0.857-8.534-2.512-17.087-2.354-25.609
			c0.164-8.965-4.043-13.827-11.449-17.301c-2.832-1.33-5.385-3.261-8.057-4.921c-0.234,0.306-0.465,0.612-0.693,0.918
			C354.205,120.046,361.385,135.763,368.574,151.484 M349.227,100.282c0.049,0.387,0.096,0.786,0.145,1.173h37.053
			c-7.654-2.503-14.736-4.854-21.852-7.083c-0.754-0.242-1.801,0.064-2.592,0.395C357.711,96.55,353.475,98.432,349.227,100.282"/>
		<path clip-path="url(#SVGID_2_)" fill="#FFFFFF" d="M303.85,264.779c-5.82-1.08-11.129-2.064-16.627-3.088v-55.495
			c5.545,0.423,10.895,0.818,16.627,1.258V264.779z"/>
		<path clip-path="url(#SVGID_2_)" fill="#FFFFFF" d="M146.766,240.326c1.616-6.646,3.088-12.705,4.563-18.764
			c0.273-0.016,0.552-0.023,0.834-0.031c1.354,6.098,2.717,12.201,4.184,18.795H146.766z"/>
		<path clip-path="url(#SVGID_2_)" fill="#FFFFFF" d="M198.834,306.648c-0.166-0.975-0.371-2.221-0.754-4.523
			c4.285,0,8.143-0.123,11.972,0.09c0.867,0.053,1.677,1.314,2.503,2.016c-0.879,0.803-1.702,2.236-2.636,2.314
			C206.364,306.814,202.78,306.648,198.834,306.648"/>
		<path clip-path="url(#SVGID_2_)" fill="#FFFFFF" d="M253.979,316.26c-5.535-0.008-9.57-2.963-9.514-6.951
			c0.053-3.582,3.387-6.166,8.041-6.244c5.326-0.08,9.721,2.955,9.768,6.773C262.322,313.627,258.92,316.268,253.979,316.26"/>
		<path clip-path="url(#SVGID_2_)" fill="#FFFFFF" d="M113.002,319.709c-0.407-1.418-0.709-2.52-1-3.523
			c0.331-0.361,0.488-0.709,0.726-0.777c3.326-0.883,6.639-1.883,10.013-2.5c1.023-0.18,2.253,0.719,3.386,1.121
			c-0.81,1.064-1.419,2.75-2.458,3.088C120.282,318.223,116.739,318.844,113.002,319.709"/>
		<path clip-path="url(#SVGID_2_)" fill="#FFFFFF" d="M151.845,314.299c-2.527,0.457-4.293,0.768-6.909,1.23
			c0.758-2.334,1.371-4.193,2.261-6.934C148.898,310.684,150.136,312.211,151.845,314.299"/>
	</g>
</g>
</svg>
