<?xml version="1.0" encoding="utf-8"?>
<!-- Generator: Adobe Illustrator 16.0.4, SVG Export Plug-In . SVG Version: 6.00 Build 0)  -->
<!DOCTYPE svg PUBLIC "-//W3C//DTD SVG 1.1//EN" "http://www.w3.org/Graphics/SVG/1.1/DTD/svg11.dtd">
<svg version="1.1" id="Layer_1" xmlns="http://www.w3.org/2000/svg" xmlns:xlink="http://www.w3.org/1999/xlink" x="0px" y="0px"
	 width="432px" height="400.381px" viewBox="0 0 432 400.381" enable-background="new 0 0 432 400.381" xml:space="preserve">
<rect fill="#29BBED" width="432" height="400.381"/>
<g opacity="0.5">
	<g>
		<defs>
			<rect id="SVGID_1_" x="66.231" y="28.355" width="299.539" height="343.67"/>
		</defs>
		<clipPath id="SVGID_2_">
			<use xlink:href="#SVGID_1_"  overflow="visible"/>
		</clipPath>
		<path clip-path="url(#SVGID_2_)" fill="#FFFFFF" d="M66.262,371.998v-77.612h36.93V106.038h-36.93V28.378h176.928
			c34.725,0,66.053,10.542,88.186,29.67c22.156,19.17,34.363,46.332,34.363,76.499c0,30.148-12.207,57.31-34.363,76.476
			c-22.096,19.116-53.414,29.644-88.186,29.644h-38.148v53.719h36.953v77.612H66.262z M228.299,359.868v-53.333h-36.952v-77.982
			h51.842c64.109,0,108.885-38.66,108.885-94.005c0-55.364-44.775-94.027-108.885-94.027H79.925v53.387h36.984v212.628H79.925
			v53.333H228.299z M191.347,175.466V93.907h38.663c33.162,0,54.594,16.014,54.594,40.799c0,24.765-21.432,40.76-54.594,40.76
			H191.347z M230.01,163.336c25.609,0,40.9-10.701,40.9-28.63c0-17.945-15.291-28.668-40.9-28.668h-24.968v57.298H230.01z"/>
		<path clip-path="url(#SVGID_2_)" fill="#223C74" d="M243.189,28.409c34.725,0,66.053,10.543,88.17,29.659
			c22.172,19.174,34.355,46.328,34.355,76.476c0,30.137-12.184,57.283-34.355,76.461c-22.117,19.135-53.445,29.64-88.17,29.64
			h-38.171v53.765h36.953v77.566H66.285v-77.566h36.93V106.014h-36.93V28.409h16.677H243.189 M79.91,93.935h36.976v212.581H79.91
			v53.376h148.404v-53.376H191.37v-77.944h51.819c64.125,0,108.908-38.655,108.908-94.027c0-55.368-44.783-94.051-108.908-94.051
			H82.962H79.91V93.935 M230.01,93.935c33.146,0,54.57,15.987,54.57,40.775c0,24.745-21.424,40.732-54.57,40.732h-38.64V93.935
			h6.828H230.01 M205.018,163.362h24.992c25.602,0,40.922-10.731,40.922-28.652c0-17.964-15.32-28.696-40.922-28.696h-24.992
			V163.362 M243.189,28.355H82.962H66.285h-0.046v0.054v77.605v0.046h0.046h36.884v188.294H66.285h-0.046v0.055v77.566v0.046h0.046
			h175.686h0.055v-0.046v-77.566v-0.055h-0.055h-36.906V240.69h38.125c34.771,0,66.105-10.527,88.201-29.647
			c22.164-19.178,34.379-46.339,34.379-76.499c0-30.171-12.215-57.34-34.379-76.518C309.258,38.898,277.922,28.355,243.189,28.355
			 M79.949,40.54h3.013h160.228c64.096,0,108.861,38.66,108.861,94.004c0,55.333-44.766,93.985-108.861,93.985H191.37h-0.046v0.042
			v77.944v0.047h0.046h36.899v53.275H79.949v-53.275h36.938h0.046v-0.047V93.935v-0.05h-0.046H79.949V40.54z M230.01,93.884h-31.812
			h-6.828h-0.046v0.05v81.508v0.051h0.046h38.64c33.178,0,54.617-16.007,54.617-40.783
			C284.627,109.906,263.188,93.884,230.01,93.884 M205.065,106.061h24.945c25.586,0,40.877,10.712,40.877,28.649
			c0,17.906-15.291,28.606-40.877,28.606h-24.945V106.061z"/>
		<path clip-path="url(#SVGID_2_)" fill="#FFFFFF" d="M100.294,34.451c28.43,22.688,64.38,53.476,97.904,90.826V99.976h16.862
			c-24.067-24.133-48.358-46.385-71.363-65.525H100.294z M182.484,34.451c57.268,32.726,119.312,79.381,166.354,143.831
			c1.92-3.826,3.584-7.811,4.979-11.922c-13.332-29.185-40.182-72.942-93.658-124.079c0,0,47.836,21.64,98.451,84.209
			c-4.139-54.593-50.455-92.039-115.42-92.039H182.484z M73.105,69.759V100h36.961v23.432v46.343
			c54.64,66.874,82.938,132.814,82.938,132.814c-27.674-33.955-55.572-63.267-82.938-88.502v20.835v28.715
			c32.899,25.474,73.351,59.914,113.571,102.339h11.514v-65.524h-36.953v-65.853h2.505c-23.883-32.063-50.447-65.775-78.707-99.584
			c0,0,51.079,43.515,106.62,99.584h14.574c8.793,0,17.209-0.679,25.277-1.996c-10.812-11.838-33.385-35.782-63.179-63.221h-7.09
			v-6.478C163.149,131.257,119.252,95.992,73.105,69.759 M268.467,157.108c-7.506,7.198-19.297,11.557-34.549,12.192
			c14.242,19.667,27.143,40.629,37.686,62.747c16.576-3.103,31.373-8.917,43.85-17.013
			C300.941,195.588,285.043,176.144,268.467,157.108 M110.066,282.387v18.064H84.18c19.089,24.684,33.323,47.557,43.272,65.524h49.9
			C160.667,340.239,139.266,313.07,110.066,282.387 M73.105,325.15v40.825h40.591C100.34,351.384,86.738,337.777,73.105,325.15"/>
	</g>
</g>
</svg>
