<?xml version="1.0" encoding="utf-8"?>
<!-- Generator: Adobe Illustrator 16.0.4, SVG Export Plug-In . SVG Version: 6.00 Build 0)  -->
<!DOCTYPE svg PUBLIC "-//W3C//DTD SVG 1.1//EN" "http://www.w3.org/Graphics/SVG/1.1/DTD/svg11.dtd">
<svg version="1.1" id="Layer_1" xmlns="http://www.w3.org/2000/svg" xmlns:xlink="http://www.w3.org/1999/xlink" x="0px" y="0px"
	 width="432px" height="400.381px" viewBox="0 0 432 400.381" enable-background="new 0 0 432 400.381" xml:space="preserve">
<rect fill="#EF3D39" width="432" height="400.381"/>
<g opacity="0.5">
	<g>
		<defs>
			<rect id="SVGID_1_" x="23.885" y="54.99" width="384.23" height="290.4"/>
		</defs>
		<clipPath id="SVGID_2_">
			<use xlink:href="#SVGID_1_"  overflow="visible"/>
		</clipPath>
		<path clip-path="url(#SVGID_2_)" fill="#FFFFFF" d="M23.885,345.014c7.571-28.038,14.213-55.282,22.672-81.952
			c2.013-6.36,10.134-10.786,15.503-16.155c-11.101,1.576-13.231-8.267-18.058-16.823c2.917-0.252,5.102-0.598,7.303-0.598
			c29.167-0.024,58.333-0.04,87.491-0.009c9.874,0.009,11.469,2.15,8.962,11.776c-2.099,8.051-4.914,15.975-6.29,24.136
			c-1.839,11.014-7.767,17.959-18.136,21.198c-7.445,2.315-9.858,6.029-7.657,14.265c3.75,14.021,5.966,28.447,9.096,43.992
			c-12.068,0-23.388,0.162-34.685-0.231c-1.203-0.044-3.035-3.18-3.333-5.083c-2.295-14.642-4.245-29.335-6.36-44.008
			c-0.558-3.888-0.471-7.312,4.292-8.472c16.878-4.126,23.781-16.017,26.532-32.216c1.918-11.284,2.586-11.398-8.962-11.438
			c-17.845-0.048-17.798-0.032-22.303,16.929c-6.879,25.872-14.009,51.674-20.612,77.62c-1.454,5.7-4.065,7.461-9.662,7.174
			C41.409,344.698,33.107,345.014,23.885,345.014"/>
		<path clip-path="url(#SVGID_2_)" fill="#FFFFFF" d="M289.045,344.967c5.629-20.948,10.904-40.467,16.133-60.007
			c4.361-16.316,8.654-32.665,12.994-48.994c0.928-3.518,1.525-6.681,6.77-6.614c26.555,0.279,53.119,0.129,79.666,0.169
			c0.977,0,1.936,0.378,3.518,0.699c-1.582,6.046-2.824,11.852-4.719,17.422c-0.629,1.851-2.744,3.766-4.631,4.523
			c-9.393,3.757-18.945,7.146-29.574,11.101c1.549-6.745,2.908-12.652,4.551-19.779c-7.453,0-14.127-0.283-20.754,0.2
			c-1.572,0.114-3.781,2.497-4.324,4.261c-2.736,8.92-5,17.968-7.672,27.869h36.516c-1.186,4.646-2.436,8.274-2.979,11.993
			c-0.637,4.3-2.877,5.413-6.92,5.299c-8.592-0.244-17.199-0.386-25.76,0.146c-2.344,0.146-5.914,2.381-6.564,4.418
			c-3.098,9.595-5.363,19.464-8.326,30.75c7.799,0,14.945,0.491,21.941-0.339c1.77-0.208,3.979-4.495,4.332-7.137
			c0.855-6.345,4.025-7.906,9.992-7.521c8.012,0.516,16.084,0.129,25.234,0.129c-2.578,9.934-4.818,19.167-7.521,28.264
			c-0.41,1.388-3.006,3.003-4.6,3.01C347.746,345.025,319.154,344.967,289.045,344.967"/>
		<path clip-path="url(#SVGID_2_)" fill="#FFFFFF" d="M295.383,264.614h-30.701c1.281-5.138,2.178-9.91,3.688-14.488
			c1.512-4.575-0.268-6.337-4.545-6.66c-0.785-0.055-1.562-0.03-2.342-0.062c-17.602-0.629-17.562-0.612-22.035,16.285
			c-5.385,20.342-10.707,40.699-16.376,60.962c-1.698,6.046,0.009,7.897,6.077,8.042c17.963,0.413,18.436,0.685,22.42-16.63
			c1.666-7.222,4.859-9.112,11.668-8.597c7.459,0.562,14.992,0.126,23.168,0.126c-1.926,12.302-4.576,22.235-15.088,29.972
			c-11.318,8.317-22.467,12.743-36.594,11.674c-13.459-1.03-27.059-0.146-40.597-0.267c-8.089-0.063-9.771-2.167-7.681-10.095
			c7.146-27.138,14.402-54.24,21.816-81.309c2.586-9.456,22.075-23.957,32.185-24.043c17.965-0.177,35.928-0.122,53.891-0.016
			c7.84,0.038,9.639,2.468,7.703,10.149C299.949,247.936,297.652,256.146,295.383,264.614"/>
		<path clip-path="url(#SVGID_2_)" fill="#FFFFFF" d="M241.916,189.116c-0.416-14.974-5.449-25.856-16.777-35.019h29.111
			c0.127-2.215,0.188-3.373,0.307-5.386c4.52,2.067,8.648,3.943,12.775,5.837c0.512-0.591,1.021-1.167,1.533-1.757
			c-4.529-4.097-8.9-8.411-13.711-12.153c-1.242-0.968-4.016-0.606-5.865-0.067c-5.055,1.506-9.842,4.139-14.967,5.039
			c-13.114,2.304-21.981-9.234-17.028-21.67c0.573-1.431,1.375-2.752,2.326-4.619c-2.075-1.088-4.001-2.088-6.973-3.632
			c4.411-0.885,7.957-1.593,11.627-2.327c-7.303-5.208-17.397-2.642-24.442,6.045c-10.683,13.172-7.421,24.949,11.518,41.563
			c-28.411-5.482-38.191-29.343-23.089-57.112c-12.947,3.619-25.903,7.244-40.306,11.277c5.888-4.693,10.747-9.081,16.116-12.729
			c5.565-3.778,11.627-6.835,18.938-11.053c-4.37-4.926-8.647-9.733-13.914-15.649c7.255,1.07,13.458,1.989,19.685,2.905
			c0.433-0.412,0.865-0.813,1.297-1.215c-7.209-7.357-14.402-14.708-21.918-22.405c14.74,0.767,27.115,6.376,36.147,17.874
			c8.664,11.033,16.258,22.9,24.551,34.221c5.896,8.043,12.186,15.793,18.293,23.683c0.52-0.393,1.047-0.79,1.572-1.183
			c-10.148-15.724-20.273-31.446-31.225-48.439c14.434,6.298,27.553,12.013,38.467,16.761c-1.676-5.529-4.137-13.765-6.613-22.016
			c0.795-0.315,1.58-0.637,2.375-0.95c8.34,8.848,14.207,19.342,18.529,30.686c3.105,8.142,8.695,17.276,7.193,24.78
			c-2.043,10.239-0.566,19.021,1.33,28.561c1.391,7.061-2.053,12.89-8.562,17.559c2.451-11.545,2.445-11.521-9.252-11.898
			c-2.588-0.09-5.148-0.483-8.35-0.79C251.24,172.441,254.652,183.53,241.916,189.116 M224.274,120.56
			c-4.732,4.878-6.321,9.815-3.263,15.264c2.752,4.909,7.217,6.722,15.268,4.838c-8.146-2.318-12.5-5.425-10.307-12.26
			c2.076-0.098,3.828-0.185,8.105-0.393C229.59,124.601,227.082,122.702,224.274,120.56"/>
		<path clip-path="url(#SVGID_2_)" fill="#FFFFFF" d="M199.409,229.466c-8.011,29.947-15.605,58.285-23.183,86.637
			c-1.95,7.283-3.514,14.704-5.999,21.808c-0.943,2.705-3.844,6.471-6.101,6.655c-9.245,0.759-18.593,0.314-28.797,0.314
			c4.851-18.329,9.41-35.644,14.025-52.937c4.614-17.349,9.685-34.57,13.757-52.038c1.918-8.227,5.864-11.277,14.119-10.57
			C184.149,229.941,191.178,229.466,199.409,229.466"/>
		<path clip-path="url(#SVGID_2_)" fill="#FFFFFF" d="M258.842,169.498c6.201,10.899,5.699,22.186-2.697,28.78
			c-12.404,9.731-26.17,17.731-40.753,27.394c-0.229-13.412-4.317-23.562-9.687-33.836c-2.13-4.072-4.182-7.653-7.5-10.196
			c-22.326-17.06-47.396-26.689-75.753-26.938c-2.594-0.023-5.197-0.039-7.799-0.091c-0.196-0.007-0.377-0.287-1.077-0.876
			c1.132-1.762,2.516-3.51,3.475-5.469c10.44-21.434,30.496-24.751,49.04-27.786c1.518,8.99,0.181,19.996,4.914,24.296
			c5.691,5.166,9.402,13.138,16.949,15.948c8.16,3.05,16.659,5.247,25.102,7.413c4.159,1.068,8.538,1.23,12.493,1.772
			c-1.006,2.429-2.571,4.288-2.257,5.764c2.092,9.779,4.583,19.487,7.325,30.8c6.189-5.605,11.949-12.896,19.467-17.044
			C258.148,184.97,258.818,178.715,258.842,169.498"/>
	</g>
</g>
</svg>
