<?xml version="1.0" encoding="utf-8"?>
<!-- Generator: Adobe Illustrator 16.0.4, SVG Export Plug-In . SVG Version: 6.00 Build 0)  -->
<!DOCTYPE svg PUBLIC "-//W3C//DTD SVG 1.1//EN" "http://www.w3.org/Graphics/SVG/1.1/DTD/svg11.dtd">
<svg version="1.1" id="Layer_1" xmlns="http://www.w3.org/2000/svg" xmlns:xlink="http://www.w3.org/1999/xlink" x="0px" y="0px"
	 width="432px" height="400.381px" viewBox="0 0 432 400.381" enable-background="new 0 0 432 400.381" xml:space="preserve">
<rect fill="#29BBED" width="432" height="400.381"/>
<g>
	<g opacity="0.5">
		<g>
			<defs>
				<rect id="SVGID_1_" x="79.237" y="39.93" width="273.525" height="109.315"/>
			</defs>
			<clipPath id="SVGID_2_">
				<use xlink:href="#SVGID_1_"  overflow="visible"/>
			</clipPath>
			<polygon clip-path="url(#SVGID_2_)" fill-rule="evenodd" clip-rule="evenodd" fill="#FFFFFF" points="352.771,39.93 
				352.771,149.252 329.421,149.252 329.421,63.419 102.664,63.419 102.664,149.23 79.237,149.23 79.237,39.93 			"/>
		</g>
	</g>
	<g opacity="0.5">
		<g>
			<defs>
				<rect id="SVGID_3_" x="126.178" y="86.832" width="77.985" height="226.578"/>
			</defs>
			<clipPath id="SVGID_4_">
				<use xlink:href="#SVGID_3_"  overflow="visible"/>
			</clipPath>
			<path clip-path="url(#SVGID_4_)" fill-rule="evenodd" clip-rule="evenodd" fill="#FFFFFF" d="M149.528,149.261H126.17V86.832
				h77.985V313.41h-62.398c-0.029-0.361-0.053-0.754-0.053-1.121c-0.008-6.98,0.023-13.959-0.038-20.939
				c-0.008-1.168,0.369-1.336,1.398-1.336c12.075,0.031,24.15,0.016,36.219,0.016h1.506v-1.238c0-59.102,0-118.209,0.022-177.301
				c0-1.045-0.3-1.292-1.307-1.292c-9.584,0.046-19.169,0.046-28.762,0c-1,0-1.23,0.308-1.23,1.261
				c0.023,12.114,0.016,24.228,0.016,36.341V149.261z"/>
		</g>
	</g>
	<g opacity="0.5">
		<g>
			<defs>
				<rect id="SVGID_5_" x="227.829" y="86.832" width="78.009" height="226.625"/>
			</defs>
			<clipPath id="SVGID_6_">
				<use xlink:href="#SVGID_5_"  overflow="visible"/>
			</clipPath>
			<path clip-path="url(#SVGID_6_)" fill-rule="evenodd" clip-rule="evenodd" fill="#FFFFFF" d="M227.838,86.832h78v62.383h-23.375
				v-1.384v-36.218c0-1.375,0-1.375-1.391-1.375H252.64h-1.352v179.792h1.391c12.106,0,24.221,0.016,36.318-0.016
				c1.029,0,1.34,0.244,1.34,1.297c-0.056,6.975-0.032,13.951-0.032,20.939v1.207h-62.467V86.832z"/>
		</g>
	</g>
	<g opacity="0.5">
		<g>
			<defs>
				<rect id="SVGID_7_" x="141.673" y="337.068" width="148.655" height="23.383"/>
			</defs>
			<clipPath id="SVGID_8_">
				<use xlink:href="#SVGID_7_"  overflow="visible"/>
			</clipPath>
			<path clip-path="url(#SVGID_8_)" fill-rule="evenodd" clip-rule="evenodd" fill="#FFFFFF" d="M290.251,337.068
				c0.03,0.385,0.062,0.707,0.062,1.016c0,7.055-0.017,14.111,0.016,21.152c0.013,0.961-0.24,1.223-1.191,1.223
				c-48.756-0.023-97.511-0.023-146.28,0c-0.945,0-1.19-0.262-1.184-1.191c0.046-7.057,0.023-14.129,0.023-21.17
				c0.008-0.322,0.031-0.629,0.061-1.029H290.251z"/>
		</g>
	</g>
</g>
</svg>
