<?xml version="1.0" encoding="utf-8"?>
<!-- Generator: Adobe Illustrator 16.0.4, SVG Export Plug-In . SVG Version: 6.00 Build 0)  -->
<!DOCTYPE svg PUBLIC "-//W3C//DTD SVG 1.1//EN" "http://www.w3.org/Graphics/SVG/1.1/DTD/svg11.dtd">
<svg version="1.1" id="Layer_1" xmlns="http://www.w3.org/2000/svg" xmlns:xlink="http://www.w3.org/1999/xlink" x="0px" y="0px"
	 width="432px" height="400.381px" viewBox="0 0 432 400.381" enable-background="new 0 0 432 400.381" xml:space="preserve">
<rect fill="#EF3D39" width="432" height="400.381"/>
<g opacity="0.5">
	<g>
		<defs>
			<rect id="SVGID_1_" x="43.382" y="46.925" width="345.235" height="306.53"/>
		</defs>
		<clipPath id="SVGID_2_">
			<use xlink:href="#SVGID_1_"  overflow="visible"/>
		</clipPath>
		<path clip-path="url(#SVGID_2_)" fill="#EF3D39" d="M384.449,46.925l-146.316,0.059l0.008,33.09l4.801,1.742
			c2.365,0.849,4.014,2.933,4.791,4.613c0.303,0.676,0.441,1.437,0.441,2.341c0,1.331-0.33,2.918-1,4.719
			c0,0,0.303-0.228,0.361-0.257c-0.971,1.896-2.25,5.271-4.594,11.482c0,0-21.736,57.77-26.897,71.453
			c-6.167-16.363-31.182-82.656-31.182-82.656c-0.669-1.783-1.008-3.389-1.008-4.727c0-0.904,0.155-1.665,0.448-2.312
			c0.765-1.694,2.426-3.793,4.771-4.62l4.8-1.764l-0.015-33.086L43.382,47.069l0.015,32.736l4.036,2.01
			c0.309,0.173,9.056,4.995,14.231,20.141c3.734,10.982,59.005,157.504,75.838,202.172c0-0.016,0.419,1.098,0.419,1.098
			c4.639,12.277,3.271,12.908,0.596,14.199c-0.015,0.006-4.168,1.992-4.168,1.992l0.022,32.037l163.481-0.076v-31.885l-3.971-2.031
			c-1.189-0.619-2.352-1.221-2.352-3.734c0-1.988,0.729-5.18,2.75-10.553l2.477-6.602c45.67-121.346,71.125-189.384,73.625-196.717
			c5.152-15.183,14.201-20.148,14.297-20.192c0.008,0,3.904-1.981,3.904-1.981l0.035-4.473V46.925H384.449z"/>
		<polygon clip-path="url(#SVGID_2_)" fill="#FFFFFF" points="317.654,61.186 215.882,317.217 116.037,61.186 102.262,61.186 
			209.884,339.088 221.359,338.828 331.518,61.186 		"/>
		<path clip-path="url(#SVGID_2_)" fill="#FFFFFF" d="M369.418,68.746c-5.33,4.583-12.496,12.864-17.172,26.635
			c-2.439,7.13-30.506,82.108-75.096,200.587l-0.814,2.158l-0.846,2.189c-2.912,7.598-6.211,16.193-1.691,24.533
			c1.205,2.229,2.846,4.109,4.859,5.676v3.039l-124.081,0.041l-0.007-3.043c2.014-1.559,3.668-3.441,4.852-5.676
			c4.528-8.348,1.213-16.936-1.713-24.5l-0.831-2.23l-0.772-2.037C111.392,177.611,83.268,102.618,80.827,95.496
			c-4.69-13.79-11.872-22.053-17.208-26.661l-0.007-2.191l111.062-0.037l-0.007,2.003c-4.087,3.084-6.439,6.63-7.762,9.505
			c-2.081,4.546-3.786,12.103,0.037,22.221l37.996,100.753l10.872,30.899l12.386-30.899l37.938-100.783
			c3.801-10.133,2.117-17.667,0.014-22.214c-1.338-2.881-3.682-6.436-7.777-9.53v-1.984l111.057-0.055L369.418,68.746z
			 M381.326,54.261l-135.908,0.048l0.008,20.7c7.578,3.326,12.355,10.964,8.541,21.082
			c-14.959,39.797-37.922,100.775-37.922,100.775s-23.001-60.963-37.996-100.746c-3.815-10.115,0-17.973,8.542-21.075l-0.016-20.722
			L50.667,54.383l0.007,20.964c0,0,11.497,5.59,17.87,24.312c4.102,12.026,71.545,190.723,76.191,203.045
			c3.822,10.137,6.535,18.742-3.103,23.332l0.008,20.166l148.934-0.062l-0.016-20.148c-8.887-4.545-6.924-13.201-3.109-23.334
			c4.639-12.334,71.941-191.076,76.037-203.113c6.357-18.737,17.84-24.32,17.84-24.32V54.261z"/>
	</g>
</g>
</svg>
