<?xml version="1.0" encoding="utf-8"?>
<!-- Generator: Adobe Illustrator 16.0.4, SVG Export Plug-In . SVG Version: 6.00 Build 0)  -->
<!DOCTYPE svg PUBLIC "-//W3C//DTD SVG 1.1//EN" "http://www.w3.org/Graphics/SVG/1.1/DTD/svg11.dtd">
<svg version="1.1" id="Layer_1" xmlns="http://www.w3.org/2000/svg" xmlns:xlink="http://www.w3.org/1999/xlink" x="0px" y="0px"
	 width="432px" height="400.381px" viewBox="0 0 432 400.381" enable-background="new 0 0 432 400.381" xml:space="preserve">
<rect fill="#EF3D39" width="432" height="400.381"/>
<g opacity="0.5">
	<g>
		<defs>
			<rect id="SVGID_5_" x="63.406" y="51.354" width="305.188" height="297.674"/>
		</defs>
		<clipPath id="SVGID_2_">
			<use xlink:href="#SVGID_5_"  overflow="visible"/>
		</clipPath>
		<path clip-path="url(#SVGID_2_)" fill="#FFFFFF" d="M193.847,114.66c-0.54,0.028-10.586-0.069-15.872,0.014
			c-1.148,1.246,1.135,2.311,0.928,3.833c-5.764,2.021-8.531-3.044-10.593-6.684c-0.146-0.94-1.626-2.491-1.993-3.334l21.635,0.027
			l0.139-51.005L69.585,57.359l-0.263,0.609v51.323l34.275,0.152c11.194,16.163,22.058,32.477,32.318,49.096l-4.366,2.395
			l-30.844-45.816l-37.292-0.027l0.083-63.28l1.017-0.457h129.299L193.847,114.66z"/>
		<path clip-path="url(#SVGID_2_)" fill="#FFFFFF" d="M368.601,51.423l-0.116,63.196l-37.051,0.055
			c-14.211,21.186-28.298,42.343-42.986,63.376c-1.931-1.854-3.142-4.622-1.931-7.127c13.526-20.908,28.014-41.291,42.039-61.937
			h32.809l0.976-0.152V57.498l-124.96-0.11c0,2.795-0.056,47.435,0,51.6h0.857h23.67v1.384c-5.044,6.739-8.324,14.169-13.015,20.978
			c-1.868-0.387-6.85-0.983-4.353-4.29l7.244-11.388l-0.94-0.997h-18.847l-1.018-1.384l-0.104-61.937H367.64L368.601,51.423z"/>
		<path clip-path="url(#SVGID_2_)" fill="#FFFFFF" d="M259.021,268.036c1.404,3.376-0.872,8.621,1.944,11.001h45.338l0.057,69.949
			l-114.922,0.041l-63.694-0.041v-70.462l43.45,0.042c0.049-3.183,3.604-2.2,5.756-2.407c2.354,2.407-0.407,5.105,0.464,8.08
			l-43.774-0.11l-0.118,1.578v56.152l0.989,1.01h165.54h0.94l-0.056-57.634l-47.275-0.082l0.075-15.194
			C255.217,268.714,257.147,268.492,259.021,268.036"/>
		<path clip-path="url(#SVGID_2_)" fill="#FFFFFF" d="M181.752,63.309v39.382c-1.017,0-17.282,0-25.522,0.056
			c1.349,6.614,7.361,12.592,10.605,19.054c-3.694,12.26-15.573,23.164-26.547,30.041c-11.271-16.397-22.188-32.407-33.826-49.095
			c-10.122-0.125-28.312-0.056-31.01-0.056l0.11-38.523l1.481-0.9h103.795L181.752,63.309z"/>
		<path clip-path="url(#SVGID_2_)" fill="#FFFFFF" d="M355.58,102.705c-2.062-0.055-27.314,0-30.45,0.055
			c-13.947,20.521-27.958,40.959-41.982,61.466c-2.685-8.385-17.553,0.318-13.533-11.9c-2.275-3.501-6.428-6.628-10.6-7.61
			c-2.345-2.366-5.279-5.881-5.279-9.078c6.49-10.779,13.194-21.489,19.304-32.407l-29.439-0.042V64.181l0.94-0.914h111.04V102.705z
			"/>
		<path clip-path="url(#SVGID_2_)" fill="#FFFFFF" d="M201.098,134.739c3.742-2.117,7.707-3.653,12.059-4.29
			c12.143-2.67,24.68-0.291,33.8,7.126c5.776,3.584,4.745,13.242,13.021,12.37c2.192,0.748,4.621,3.044,5.349,5.245
			c2.089,3.694-4.768,9.659,2.885,9.036c4.822-1.965,9.645,0.941,11.574,5.245c1.827,4.553,2.104,9.686,4.83,13.824
			c2.096,2.103-0.187,5.978,1.902,8.081c4.608-2.768,4.968-7.818,7.771-10.932c5.099,3.903,5.998,9.521,6.704,15.25
			c1.425,1.757,2.732,0.498,4.358,1.439c-0.042,27.454-20.659,51.932-44.397,64.303c-15.464,6.614-37.209,9.741-53.559,2.836
			c-3.21-0.456-5.168,2.27-7.735,3.322c-10.717,4.552-24.984,6.005-35.265-0.472c-13.389-7.79-16.204-22.97-14.475-37.638
			l1.944-5.688c-9.438-15.636-20.528-30.581-29.979-46.203c2.567-8.178,11.527-11.167,17.913-15.277
			c4.006-1.577,8.303-2.436,12.066-4.746c-1.612-1.384-3.951-2.117-4.836-4.317c9.859-7.431,19.731-16.938,24.61-28.048
			c8.869-4.346,15.477,5.271,23.198,8.081C196.655,134.393,198.655,135.016,201.098,134.739"/>
		<path clip-path="url(#SVGID_2_)" fill="#FFFFFF" d="M246.956,271.412v19.041l1.466,0.027h45.318l1.01,0.305v45.803l-1.01,0.082
			H140.316c-0.069-0.4,0.076-45.554,0-46.702l43.38,0.043c1.017-4.29-0.055-9.521,0.948-13.824
			c7.971-0.069,14.744-3.059,21.254-6.67C218.422,272.963,233.727,274.014,246.956,271.412"/>
		<path clip-path="url(#SVGID_2_)" fill="#E7E7E7" d="M194.843,139.928c6.255,0.525,11.277-4.636,17.823-4.733
			c9.658-1.217,22.416-2.989,28.533,6.117c0.726,3.072-0.949,5.438-3.433,6.697c-1.203,0.54-3.016,0.775-3.349,2.38l0.928,0.997
			l21.281,2.38c2.803,0.747,2.733,4.096,1.917,6.157l-1.466,1.453l-31.848-1.453c-1.82,0.914-3.226,2.851-4.837,4.29
			c-0.739,4.373,0.74,8.302,4.366,10.475c3.819,0.304,7.424,1.384,11.603,0.982c1.536,4.497-2.138,8.386-5.854,10.932
			c-2.192,1.107-4.746,1.495-6.766,3.362c1.833,1.578,5.189,0.969,7.244,0.471c15.422-3.459,27.647-21.669,44.923-13.381
			c3.688,2.809,3.093,7.942,2.408,11.914c-5.486,15.402-26.54,3.64-37.119,11.915c-15.222,12.164-21.477,30.429-38.158,41.942
			c-7.389,5.742-16.508,8.745-26.567,6.655c-6.968-1.12-12.6-6.987-14.952-13.353c-6.303-14.932,8.462-23.621,12.066-35.729
			c0.291-1.439-0.339-2.449-1.467-3.308c-1.937,0.333-1.743,2.464-2.442,3.792c-4.206,6.254-11.513,9.257-15.4,15.29
			c-7.957-12.26-16.087-24.368-23.655-36.725c-0.734-4.76,4.953-6.49,7.728-9.022c5.127-2.629,10.642-4.566,16.419-5.743
			c-2.408,7.943-2.581,18.985,4.822,24.285c1.736-1.715,0.2-4.497,0-6.628c0.041-11.374,5.881-21.227,15.94-27.634
			c5.252-2.269,10.274-5.037,16.377-5.244l0.996-1.453c-3.833-3.57-7.908-6.477-12.522-8.081
			c-3.909,4.788-7.044,11.139-13.098,13.837c-3.557,0.069-7.161,0.18-9.638-2.38c6.559-6.172,12.537-14.613,18.349-21.435
			C183.226,130.878,188.353,137.008,194.843,139.928"/>
		<path clip-path="url(#SVGID_2_)" fill="#FFFFFF" d="M230.059,164.711c-1.017,1.785-2.075,4.096-0.947,6.213
			c-1.467,0.139-0.532-1.522-1.467-1.923C228.107,167.437,227.983,164.78,230.059,164.711"/>
		<path clip-path="url(#SVGID_2_)" fill="#FFFFFF" d="M249.833,165.68c-5.825,0.609-11.512,11.056-16.916,3.321
			c-1.101-2.519,1.889-2.643,2.893-3.833C240.638,165.016,245.198,165.43,249.833,165.68"/>
		<path clip-path="url(#SVGID_2_)" fill="#FFFFFF" d="M257.084,166.15c-3.155,2.767-6.78,6.212-11.603,6.144
			C249.1,169.527,253.266,168.17,257.084,166.15"/>
		<path clip-path="url(#SVGID_2_)" fill="#FFFFFF" d="M264.308,167.52c-0.422,1.522-1.212,3.307-2.879,3.847h-3.354
			C258.891,169.042,261.208,166.468,264.308,167.52"/>
		<path clip-path="url(#SVGID_2_)" fill="#FFFFFF" d="M295.221,195.666c-2.615,0.72-6.089,0.72-8.711,0
			c3.37-2.145,5.701-5.494,7.777-8.538C296.029,188.927,294.916,192.815,295.221,195.666"/>
		<path clip-path="url(#SVGID_2_)" fill="#E7E7E7" d="M297.186,200.439c-2.352,22.223-19.704,44.252-41.499,51.462
			c-9.853,3.625-22.126,1.577-31.384-1.923c-3.356,4.04-7.438,8.191-12.066,9.977c12.6-15.139,19.844-32.477,28.977-49.068
			C254.414,194.531,277.931,202.473,297.186,200.439"/>
		<path clip-path="url(#SVGID_2_)" fill="#E7E7E7" d="M223.735,154.72c-4.953,3.293-7.438,9.105-6.248,14.723
			c1.571,1.273,2.429,2.781,3.37,4.331c-2.74,1.121-5.369-1.134-7.722-2.38c-1.992-2.602-5.112-5.313-3.805-8.621
			c2.062-5.176,6.78-7.75,12.066-8.538C222.123,154.36,223.265,153.849,223.735,154.72"/>
	</g>
</g>
</svg>
