<?xml version="1.0" encoding="utf-8"?>
<!-- Generator: Adobe Illustrator 16.0.4, SVG Export Plug-In . SVG Version: 6.00 Build 0)  -->
<!DOCTYPE svg PUBLIC "-//W3C//DTD SVG 1.1//EN" "http://www.w3.org/Graphics/SVG/1.1/DTD/svg11.dtd">
<svg version="1.1" id="Layer_1" xmlns="http://www.w3.org/2000/svg" xmlns:xlink="http://www.w3.org/1999/xlink" x="0px" y="0px"
	 width="216px" height="216px" viewBox="0 0 216 216" enable-background="new 0 0 216 216" xml:space="preserve">
<circle fill="none" stroke="#18487C" stroke-width="4" stroke-miterlimit="10" cx="114.667" cy="108.772" r="81.021"/>
<path fill="#8DC6E9" d="M145.688,47.398c-1.931-6.283-9.834-8.332-11.986-13.143c-10.757-24.042-72.864,20.166-72.864,20.166
	l-4.216,20.112l36.393,114.924c0,0,2.137,0.657,5.756,1.426c2.001,3.65,12.158,6.433,24.42,6.433c6.023,0,11.542-0.672,15.839-1.787
	c6.275,1.528,15.853-1.483,24.436-8.273c6.006-4.75,9.595-10.396,10.963-15.573c2.71-3.066,4.951-6.414,6.376-9.998
	C182.515,157.379,158.961,90.597,145.688,47.398"/>
<path fill="#FFFFFF" d="M146.252,47.245c-1.702-6.283-11.672-10.332-13.569-15.143C123.199,8.06,68.436,52.268,68.436,52.268
	L61.718,72.38l37.647,119.964c0,0,2.11-0.224,5.301,0.545c1.764,3.65,7.223,6.369,18.035,6.369c5.311,0,12.539-2.614,16.328-3.729
	c5.533,1.528,16.867-1.483,24.436-8.273c5.296-4.75,8.604-7.138,9.812-12.315c2.39-3.066,6.271-9.672,7.527-13.256
	C182.313,157.379,157.957,90.444,146.252,47.245"/>
<path fill="#18487C" d="M146.91,47.022l-0.089-0.285l-0.205-0.218c-0.102-0.108-10.905-11.409-14.269-15.557
	c-0.15,0.197,0.168,0.928,0,1.112c-0.424,0.46,0.115,1.751-0.428,2.031c3.261,4.005,11.208,12.441,12.638,13.953l34.884,113.534
	c-1.378,2.94-5.112,10.088-8.086,11.917c0,0-3.928,13.475-25.373,19.507c-19.854,5.584-33.274,4.157-37.765,0.264l-0.264-0.228
	l-0.344-0.062c-5.55-1.009-11.964-2.827-13.629-4.376c-2.172-3.681-22.651-69.972-36.026-114.088l5.002-17.194l0.1-0.415
	c-1.246,0.177-0.062-0.086-1.454-0.968c-0.026-0.016-0.048-0.034-0.073-0.051c0.415,0.743-1.682,1.261-1.284,1.609L55.29,74.541
	l0.11,0.363c8.035,26.508,34.429,113.173,36.712,115.457c2.671,2.671,12.092,4.59,14.71,5.081c2.71,2.157,7.989,3.817,15.88,3.817
	c6.312,0,14.297-1.062,23.971-3.783c20.73-5.831,25.741-17.897,26.604-20.535c4.292-3.063,8.508-12.325,8.691-12.731l0.198-0.439
	L146.91,47.022z"/>
<path fill="none" stroke="#18487C" stroke-width="2" stroke-miterlimit="10" d="M132.346,32.075c0,0-1.596,2.873-7.98,7.342
	c-6.385,4.47-33.201,15.004-43.735,16.6c-10.534,1.597-19.792-0.318-19.792-0.318l-4.216,18.834c0,0,7.706,5.253,17.284,3.976"/>
<path fill="none" stroke="#18487C" stroke-width="2" stroke-miterlimit="10" d="M124.453,59.554c0,0,16.1-8.359,17.52-16.035"/>
<path fill="none" stroke="#18487C" stroke-width="2" stroke-miterlimit="10" d="M122.042,53.186c0,0,14.126-6.05,15.547-15.227"/>
<polygon fill="#EA5334" points="148.57,61.12 87.597,170.158 93.414,186.977 158.387,93.073 "/>
<path fill="#8DC6E9" d="M131.94,28.247c2.196,6.917-12.525,17.762-32.88,24.223c-20.355,6.46-38.636,6.089-40.831-0.828
	c-2.196-6.917,12.525-17.763,32.88-24.223S129.745,21.33,131.94,28.247"/>
<ellipse transform="matrix(0.9531 -0.3025 0.3025 0.9531 -7.6285 30.6363)" fill="none" stroke="#18487C" stroke-width="2" stroke-miterlimit="10" cx="95.084" cy="39.944" rx="38.667" ry="13.141"/>
<path fill="#FFFFFF" d="M129.099,31.033c1.776,5.594-11.077,14.665-28.708,20.261c-17.63,5.595-33.362,5.597-35.138,0.003
	c-1.775-5.594,11.078-14.665,28.709-20.261C111.592,25.441,127.324,25.438,129.099,31.033"/>
<path fill="none" stroke="#18487C" stroke-width="2" stroke-miterlimit="10" d="M125.928,44.27c0,0,8.34-4.403,9.05-9.145"/>
<path fill="#C2E3F5" d="M148.419,117.383c4.091,21.806-4.788,41.771-19.832,44.593s-30.555-12.566-34.646-34.373
	c-4.091-21.806,4.788-41.771,19.832-44.593C128.816,80.188,144.329,95.577,148.419,117.383"/>
<path fill="#FFFFFF" d="M148.412,117.342c3.755,20.015-4.288,38.319-17.963,40.885s-27.805-11.58-31.56-31.595
	c-3.754-20.014,4.288-38.317,17.963-40.884C130.528,83.184,144.657,97.329,148.412,117.342"/>
<path fill="#18487C" d="M96.931,99.061c3.377-8.115,8.997-13.387,15.825-14.845c1.266-0.27,2.547-0.404,3.836-0.404
	c5.661,0,11.46,2.581,16.671,7.492c3.188,3.005,5.957,6.706,8.217,10.892l2.506-0.729c-2.436-4.627-5.462-8.715-8.971-12.022
	c-7.026-6.621-15.119-9.363-22.792-7.726c-7.673,1.637-13.941,7.448-17.649,16.361c-2.333,5.605-3.461,12.027-3.378,18.742
	l2.542-0.74C93.745,109.973,94.812,104.151,96.931,99.061"/>
<path fill="#18487C" d="M147.932,125.841c0.333,7.042-0.697,13.794-3.111,19.595c-3.377,8.113-8.997,13.387-15.826,14.845
	c-6.824,1.452-14.108-1.061-20.506-7.088c-2.793-2.634-5.246-5.819-7.337-9.376l-2.411,0.926c2.258,3.916,4.933,7.421,7.997,10.307
	c5.697,5.371,12.098,8.191,18.407,8.191c1.47,0,2.934-0.153,4.385-0.464c7.673-1.638,13.941-7.447,17.65-16.361
	c2.654-6.379,3.748-13.816,3.269-21.541L147.932,125.841z"/>
<path fill="none" stroke="#18487C" stroke-width="2" stroke-miterlimit="10" d="M145.688,47.398c0,0-13.721,24.687-38.086,24.532"/>
<path fill="none" stroke="#18487C" stroke-width="2" stroke-miterlimit="10" d="M99.366,192.344c0,0,48.868,5.461,72.819-18.21"/>
<path fill="#8DC6E9" d="M106.175,45.767c-0.57-2.269-8.394-2.258-17.473,0.024c-9.08,2.283-15.978,5.973-15.408,8.242
	c0.57,2.269,8.394,2.258,17.473-0.024C99.847,51.726,106.745,48.036,106.175,45.767"/>
<line fill="none" stroke="#C2E3F5" stroke-width="6" stroke-linecap="round" stroke-miterlimit="10" x1="320.967" y1="-67.377" x2="325.346" y2="-99.952"/>
<line fill="none" stroke="#C2E3F5" stroke-width="6" stroke-linecap="round" stroke-miterlimit="10" x1="346.397" y1="-58.014" x2="361.061" y2="-87.429"/>
<line fill="none" stroke="#C2E3F5" stroke-width="6" stroke-linecap="round" stroke-miterlimit="10" x1="392.864" y1="-16.03" x2="417.99" y2="-37.218"/>
<line fill="none" stroke="#C2E3F5" stroke-width="6" stroke-linecap="round" stroke-miterlimit="10" x1="400.437" y1="6.906" x2="432.826" y2="1.318"/>
<line fill="none" stroke="#C2E3F5" stroke-width="6" stroke-linecap="round" stroke-miterlimit="10" x1="371.624" y1="-39.468" x2="393.566" y2="-67.542"/>
<line fill="#EA5334" x1="-189.707" y1="134.518" x2="-222.57" y2="134.012"/>
<line fill="none" stroke="#C2E3F5" stroke-width="6" stroke-linecap="round" stroke-miterlimit="10" x1="-189.707" y1="134.518" x2="-222.57" y2="134.012"/>
<line fill="#EA5334" x1="-184.306" y1="161.024" x2="-215.572" y2="171.159"/>
<line fill="none" stroke="#C2E3F5" stroke-width="6" stroke-linecap="round" stroke-miterlimit="10" x1="-184.306" y1="161.024" x2="-215.572" y2="171.159"/>
<line fill="none" stroke="#C2E3F5" stroke-width="6" stroke-linecap="round" stroke-miterlimit="10" x1="-153.752" y1="213.272" x2="-178.435" y2="234.975"/>
<line fill="none" stroke="#C2E3F5" stroke-width="6" stroke-linecap="round" stroke-miterlimit="10" x1="-130.759" y1="229.02" x2="-141.094" y2="260.22"/>
<line fill="#EA5334" x1="-172.677" y1="188.279" x2="-203.696" y2="205.811"/>
<line fill="none" stroke="#C2E3F5" stroke-width="6" stroke-linecap="round" stroke-miterlimit="10" x1="-172.677" y1="188.279" x2="-203.696" y2="205.811"/>
<path fill="#18487C" d="M102.396,15.13l-8.089-0.82c-3.875-0.394-7.368,2.455-7.761,6.33l-1.866,18.394
	c-0.393,3.875,2.456,7.367,6.331,7.76l8.09,0.821c3.875,0.393,7.367-2.456,7.76-6.331l1.866-18.394
	C109.121,19.016,106.271,15.523,102.396,15.13 M103.62,38.755L103.62,38.755c-0.388,2.805-2.998,4.783-5.803,4.395l-4.728-0.653
	c-2.804-0.387-4.781-2.999-4.394-5.803c0.387-2.804,2.998-4.781,5.803-4.394l4.728,0.653
	C102.029,33.34,104.006,35.952,103.62,38.755 M105.062,25.019L105.062,25.019c-0.353,1.483-2.054,2.521-3.78,2.306l-8.372-1.043
	c-1.727-0.216-2.851-1.605-2.499-3.089c0.352-1.483,2.053-2.52,3.78-2.305l8.372,1.043C104.29,22.146,105.415,23.536,105.062,25.019
	"/>
</svg>
