<?xml version="1.0" encoding="UTF-8"?>
<svg width="1342px" height="800px" viewBox="0 0 1342 800" version="1.1" xmlns="http://www.w3.org/2000/svg" xmlns:xlink="http://www.w3.org/1999/xlink" style="background: #F7F9FD;">
    <!-- Generator: Sketch 43.1 (39012) - http://www.bohemiancoding.com/sketch -->
    <title>Desktop HD</title>
    <desc>Created with Sketch.</desc>
    <defs></defs>
    <g id="Page-1" stroke="none" stroke-width="1" fill="none" fill-rule="evenodd">
        <g id="Desktop-HD">
            <g id="bg" transform="translate(10.000000, -4.000000)">
                <rect id="Rectangle-path" fill="#F7F9FD" fill-rule="nonzero" x="0" y="0" width="1318" height="773"></rect>
                <path d="M795.89,695.345 C796.505,693.656 796.842,691.874 796.842,690.032 C796.842,679.264 785.596,670.535 771.723,670.535 C769.78,670.535 767.892,670.712 766.077,671.036 C766.083,670.869 766.093,670.703 766.093,670.536 C766.093,659.768 754.847,651.039 740.974,651.039 C727.101,651.039 715.853,659.768 715.853,670.536 L715.853,670.543 C702.152,670.696 691.103,679.361 691.103,690.032 C691.103,691.875 691.44,693.656 692.055,695.345 L536.375,695.345 C536.991,693.656 537.327,691.874 537.327,690.032 C537.327,679.264 526.08,670.535 512.207,670.535 C510.265,670.535 508.376,670.712 506.561,671.036 C506.566,670.869 506.577,670.703 506.577,670.536 C506.577,659.768 495.33,651.039 481.457,651.039 C467.584,651.039 456.337,659.768 456.337,670.536 L456.337,670.543 C442.635,670.696 431.587,679.361 431.587,690.032 C431.587,691.875 431.923,693.656 432.539,695.345 L206.344,695.345 C206.96,693.656 207.296,691.874 207.296,690.032 C207.296,679.264 196.049,670.535 182.176,670.535 C180.234,670.535 178.345,670.712 176.53,671.036 C176.535,670.869 176.546,670.703 176.546,670.536 C176.546,659.768 165.299,651.039 151.426,651.039 C137.553,651.039 126.306,659.768 126.306,670.536 L126.306,670.543 C112.604,670.696 101.556,679.361 101.556,690.032 C101.556,691.875 101.892,693.656 102.508,695.345 L34,695.345 L34,753.633 L841.079,753.633 L841.079,695.345 L795.89,695.345 Z" id="Shape" fill="#8DC3EA" fill-rule="nonzero"></path>
                <path d="M34,753.87 L1186,753.87" id="Shape" stroke="#1867B2" stroke-width="4"></path>
                <g id="Group" transform="translate(533.000000, 512.000000)">
                    <polygon id="Shape" fill="#FFFFFF" fill-rule="nonzero" points="111.118 50.616 111.118 88 50.922 88 50.922 50.616 0.387 50.616 0.387 88 0.387 249.907 160.817 249.907 160.817 88 160.817 50.616"></polygon>
                    <rect id="Rectangle-path" fill="#8DC3EA" fill-rule="nonzero" x="51.685" y="99.864" width="9.852" height="16.074"></rect>
                    <rect id="Rectangle-path" fill="#8DC3EA" fill-rule="nonzero" x="53.994" y="155.226" width="5.667" height="10.714"></rect>
                    <rect id="Rectangle-path" fill="#8DC3EA" fill-rule="nonzero" x="53.994" y="168.82" width="5.667" height="10.714"></rect>
                    <rect id="Rectangle-path" fill="#8DC3EA" fill-rule="nonzero" x="53.994" y="141.637" width="5.667" height="10.714"></rect>
                    <rect id="Rectangle-path" fill="#8DC3EA" fill-rule="nonzero" x="101.319" y="155.226" width="5.667" height="10.714"></rect>
                    <rect id="Rectangle-path" fill="#8DC3EA" fill-rule="nonzero" x="101.319" y="168.82" width="5.667" height="10.714"></rect>
                    <rect id="Rectangle-path" fill="#8DC3EA" fill-rule="nonzero" x="101.319" y="141.637" width="5.667" height="10.714"></rect>
                    <rect id="Rectangle-path" fill="#8DC3EA" fill-rule="nonzero" x="63.715" y="99.864" width="9.852" height="16.074"></rect>
                    <rect id="Rectangle-path" fill="#8DC3EA" fill-rule="nonzero" x="75.747" y="99.864" width="9.852" height="16.074"></rect>
                    <rect id="Rectangle-path" fill="#8DC3EA" fill-rule="nonzero" x="87.778" y="99.864" width="9.851" height="16.074"></rect>
                    <rect id="Rectangle-path" fill="#8DC3EA" fill-rule="nonzero" x="99.809" y="99.864" width="9.852" height="16.074"></rect>
                    <path d="M50.021,124.919 L111.108,124.919" id="Shape" stroke="#1867B2" stroke-width="4"></path>
                    <path d="M50.021,199.307 L111.108,199.307" id="Shape" stroke="#1867B2" stroke-width="4"></path>
                    <rect id="Rectangle-path" fill="#EC512C" fill-rule="nonzero" x="0.387" y="195.942" width="49.7" height="6.727"></rect>
                    <rect id="Rectangle-path" fill="#EC512C" fill-rule="nonzero" x="0.387" y="121.557" width="49.7" height="6.727"></rect>
                    <rect id="Rectangle-path" fill="#EC512C" fill-rule="nonzero" x="111.118" y="121.557" width="49.699" height="6.727"></rect>
                    <rect id="Rectangle-path" fill="#EC512C" fill-rule="nonzero" x="111.118" y="195.942" width="49.699" height="6.727"></rect>
                    <rect id="Rectangle-path" stroke="#1867B2" stroke-width="4" x="0.387" y="50.616" width="49.7" height="209.625"></rect>
                    <rect id="Rectangle-path" stroke="#1867B2" stroke-width="4" x="111.118" y="50.616" width="49.699" height="209.625"></rect>
                    <path d="M50.09,93.428 L50.09,260.241 L63.868,260.241 L63.868,228.748 C63.868,212.018 80.6,212.51 80.6,212.51 C80.6,212.51 97.33,212.018 97.33,228.748 L97.33,260.241 L111.108,260.241 L111.108,93.428 L50.09,93.428 Z" id="Shape" stroke="#1867B2" stroke-width="4"></path>
                    <path d="M80.6,111.797 C80.6,111.797 63.869,111.306 63.869,128.036 L63.869,155.92 L63.869,159.529 L63.869,187.414 C63.869,204.144 80.6,203.652 80.6,203.652 C80.6,203.652 97.33,204.144 97.33,187.414 L97.33,159.529 L97.33,155.92 L97.33,128.036 C97.33,111.306 80.6,111.797 80.6,111.797 Z" id="Shape" stroke="#1867B2" stroke-width="4" fill="#FFFFFF" fill-rule="nonzero"></path>
                    <path d="M135.973,0.916 C135.973,0.916 137.53,17.318 140.319,22.403 C160.824,32.901 160.769,50.616 160.769,50.616 L111.149,50.616 C111.149,50.616 111.094,32.901 131.596,22.403 C134.387,17.318 135.973,0.916 135.973,0.916" id="Shape" stroke="#1867B2" stroke-width="4" fill="#8DC3EA" fill-rule="nonzero" stroke-linecap="round"></path>
                    <path d="M25.226,0.916 C25.226,0.916 26.783,17.318 29.573,22.403 C50.077,32.901 50.022,50.616 50.022,50.616 L0.403,50.616 C0.403,50.616 0.347,32.901 20.851,22.403 C23.64,17.318 25.226,0.916 25.226,0.916" id="Shape" stroke="#1867B2" stroke-width="4" fill="#8DC3EA" fill-rule="nonzero" stroke-linecap="round"></path>
                    <rect id="Rectangle-path" fill="#8DC3EA" fill-rule="nonzero" x="12.833" y="135.417" width="24.809" height="20.011"></rect>
                    <rect id="Rectangle-path" fill="#8DC3EA" fill-rule="nonzero" x="18.676" y="97.363" width="13.123" height="16.074"></rect>
                    <rect id="Rectangle-path" fill="#8DC3EA" fill-rule="nonzero" x="129.406" y="97.363" width="13.122" height="16.074"></rect>
                    <rect id="Rectangle-path" fill="#8DC3EA" fill-rule="nonzero" x="123.563" y="135.417" width="24.81" height="20.011"></rect>
                    <rect id="Rectangle-path" fill="#8DC3EA" fill-rule="nonzero" x="123.563" y="166.828" width="24.81" height="20.012"></rect>
                    <rect id="Rectangle-path" fill="#8DC3EA" fill-rule="nonzero" x="126.003" y="233.833" width="19.93" height="16.074"></rect>
                    <rect id="Rectangle-path" fill="#8DC3EA" fill-rule="nonzero" x="15.273" y="233.833" width="19.929" height="16.074"></rect>
                    <rect id="Rectangle-path" fill="#8DC3EA" fill-rule="nonzero" x="15.273" y="204.637" width="19.929" height="16.074"></rect>
                    <rect id="Rectangle-path" fill="#8DC3EA" fill-rule="nonzero" x="126.003" y="204.637" width="19.93" height="16.074"></rect>
                    <rect id="Rectangle-path" fill="#8DC3EA" fill-rule="nonzero" x="12.833" y="166.828" width="24.809" height="20.012"></rect>
                    <path d="M63.869,235.884 L97.33,235.884" id="Shape" stroke="#1867B2" stroke-width="4"></path>
                    <path d="M97.33,152.545 C97.33,152.545 93.393,147.625 80.6,147.625 C67.807,147.625 63.869,152.545 63.869,152.545 L63.869,135.65 C63.869,135.65 67.806,130.728 80.6,130.728 C93.394,130.728 97.33,135.65 97.33,135.65 L97.33,152.545 Z" id="Shape" stroke="#1867B2" stroke-width="4" fill="#8DC3EA" fill-rule="nonzero"></path>
                    <path d="M97.33,183.172 C97.33,183.172 93.393,178.25 80.6,178.25 C67.807,178.25 63.869,183.172 63.869,183.172 L63.869,166.276 C63.869,166.276 67.806,161.355 80.6,161.355 C93.394,161.355 97.33,166.276 97.33,166.276 L97.33,183.172 Z" id="Shape" stroke="#1867B2" stroke-width="4" fill="#8DC3EA" fill-rule="nonzero"></path>
                    <path d="M0.387,84.298 L50.036,84.298" id="Shape" stroke="#1867B2" stroke-width="4"></path>
                    <path d="M0.387,56 L50.036,56" id="Shape" stroke="#1867B2" stroke-width="4"></path>
                    <path d="M111.135,56 L160.783,56" id="Shape" stroke="#1867B2" stroke-width="4"></path>
                    <path d="M50.922,88 L111.108,88" id="Shape" stroke="#1867B2" stroke-width="4"></path>
                    <path d="M111.148,84.298 L160.817,84.298" id="Shape" stroke="#1867B2" stroke-width="4"></path>
                </g>
                <g id="Group" transform="translate(144.000000, 497.000000)">
                    <rect id="Rectangle-path" stroke="#1867B2" stroke-width="4" fill="#FFFFFF" fill-rule="nonzero" x="73.458" y="11.908" width="89.261" height="264.015"></rect>
                    <polygon id="Shape" stroke="#1867B2" stroke-width="4" fill="#FFFFFF" fill-rule="nonzero" points="29.694 0.333 29.694 27.383 33.301 27.383 33.301 275.603 73.875 275.603 73.875 11.588 90.489 11.588 90.489 0.333"></polygon>
                    <polygon id="Shape" stroke="#1867B2" stroke-width="4" fill="#FFFFFF" fill-rule="nonzero" points="0.426 27.703 0.426 66.476 10.273 66.476 10.273 275.923 32.884 275.923 32.884 27.703"></polygon>
                    <path d="M2.438,44.132 L30.875,44.132" id="Shape" stroke="#EC512C" stroke-width="4"></path>
                    <path d="M0.426,32.708 L32.884,32.708" id="Shape" stroke="#1867B2" stroke-width="4"></path>
                    <path d="M30.111,5.66 L90.072,5.66" id="Shape" stroke="#1867B2" stroke-width="4"></path>
                    <path d="M75.269,17.081 L162.719,17.081" id="Shape" stroke="#1867B2" stroke-width="4"></path>
                    <polygon id="Shape" fill="#C1E3F8" fill-rule="nonzero" points="10.273 66.476 3.06 66.476 10.273 100.637"></polygon>
                    <rect id="Rectangle-path" stroke="#1867B2" stroke-width="4" fill="#FFFFFF" fill-rule="nonzero" x="3.06" y="66.476" width="7.213" height="209.447"></rect>
                    <rect id="Rectangle-path" fill="#8DC3EA" fill-rule="nonzero" x="93.228" y="23.693" width="10.52" height="19.537"></rect>
                    <rect id="Rectangle-path" fill="#8DC3EA" fill-rule="nonzero" x="93.228" y="45.636" width="10.52" height="9.72"></rect>
                    <rect id="Rectangle-path" fill="#8DC3EA" fill-rule="nonzero" x="93.228" y="57.762" width="10.52" height="9.72"></rect>
                    <rect id="Rectangle-path" fill="#8DC3EA" fill-rule="nonzero" x="93.228" y="69.888" width="10.52" height="9.72"></rect>
                    <rect id="Rectangle-path" fill="#8DC3EA" fill-rule="nonzero" x="93.228" y="82.014" width="10.52" height="9.719"></rect>
                    <rect id="Rectangle-path" fill="#8DC3EA" fill-rule="nonzero" x="93.228" y="94.14" width="10.52" height="9.719"></rect>
                    <rect id="Rectangle-path" fill="#8DC3EA" fill-rule="nonzero" x="93.228" y="106.265" width="10.52" height="9.72"></rect>
                    <rect id="Rectangle-path" fill="#8DC3EA" fill-rule="nonzero" x="93.228" y="118.391" width="10.52" height="9.719"></rect>
                    <rect id="Rectangle-path" fill="#8DC3EA" fill-rule="nonzero" x="93.228" y="130.517" width="10.52" height="9.72"></rect>
                    <rect id="Rectangle-path" fill="#8DC3EA" fill-rule="nonzero" x="93.228" y="142.642" width="10.52" height="9.72"></rect>
                    <rect id="Rectangle-path" fill="#8DC3EA" fill-rule="nonzero" x="93.228" y="154.768" width="10.52" height="9.72"></rect>
                    <rect id="Rectangle-path" fill="#8DC3EA" fill-rule="nonzero" x="93.228" y="166.894" width="10.52" height="9.72"></rect>
                    <rect id="Rectangle-path" fill="#8DC3EA" fill-rule="nonzero" x="93.228" y="179.019" width="10.52" height="9.72"></rect>
                    <rect id="Rectangle-path" fill="#8DC3EA" fill-rule="nonzero" x="93.228" y="191.145" width="10.52" height="9.72"></rect>
                    <rect id="Rectangle-path" fill="#8DC3EA" fill-rule="nonzero" x="93.228" y="203.271" width="10.52" height="9.72"></rect>
                    <rect id="Rectangle-path" fill="#8DC3EA" fill-rule="nonzero" x="93.228" y="215.396" width="10.52" height="9.72"></rect>
                    <rect id="Rectangle-path" fill="#8DC3EA" fill-rule="nonzero" x="93.228" y="227.522" width="10.52" height="9.72"></rect>
                    <rect id="Rectangle-path" fill="#8DC3EA" fill-rule="nonzero" x="93.228" y="239.647" width="10.52" height="9.72"></rect>
                    <rect id="Rectangle-path" fill="#8DC3EA" fill-rule="nonzero" x="93.228" y="251.773" width="10.52" height="9.72"></rect>
                    <rect id="Rectangle-path" fill="#8DC3EA" fill-rule="nonzero" x="118.089" y="45.636" width="10.52" height="9.72"></rect>
                    <rect id="Rectangle-path" fill="#8DC3EA" fill-rule="nonzero" x="118.089" y="57.762" width="10.52" height="9.72"></rect>
                    <rect id="Rectangle-path" fill="#8DC3EA" fill-rule="nonzero" x="118.089" y="69.888" width="10.52" height="9.72"></rect>
                    <rect id="Rectangle-path" fill="#8DC3EA" fill-rule="nonzero" x="118.089" y="82.014" width="10.52" height="9.719"></rect>
                    <rect id="Rectangle-path" fill="#8DC3EA" fill-rule="nonzero" x="118.089" y="94.14" width="10.52" height="9.719"></rect>
                    <rect id="Rectangle-path" fill="#8DC3EA" fill-rule="nonzero" x="118.089" y="106.265" width="10.52" height="9.72"></rect>
                    <rect id="Rectangle-path" fill="#8DC3EA" fill-rule="nonzero" x="118.089" y="118.391" width="10.52" height="9.719"></rect>
                    <rect id="Rectangle-path" fill="#8DC3EA" fill-rule="nonzero" x="118.089" y="130.517" width="10.52" height="9.72"></rect>
                    <rect id="Rectangle-path" fill="#8DC3EA" fill-rule="nonzero" x="118.089" y="142.642" width="10.52" height="9.72"></rect>
                    <rect id="Rectangle-path" fill="#8DC3EA" fill-rule="nonzero" x="118.089" y="154.768" width="10.52" height="9.72"></rect>
                    <rect id="Rectangle-path" fill="#8DC3EA" fill-rule="nonzero" x="118.089" y="166.894" width="10.52" height="9.72"></rect>
                    <rect id="Rectangle-path" fill="#8DC3EA" fill-rule="nonzero" x="118.089" y="179.019" width="10.52" height="9.72"></rect>
                    <rect id="Rectangle-path" fill="#8DC3EA" fill-rule="nonzero" x="118.089" y="191.145" width="10.52" height="9.72"></rect>
                    <rect id="Rectangle-path" fill="#8DC3EA" fill-rule="nonzero" x="118.089" y="203.271" width="10.52" height="9.72"></rect>
                    <rect id="Rectangle-path" fill="#8DC3EA" fill-rule="nonzero" x="118.089" y="215.396" width="10.52" height="9.72"></rect>
                    <rect id="Rectangle-path" fill="#8DC3EA" fill-rule="nonzero" x="118.089" y="227.522" width="10.52" height="9.72"></rect>
                    <rect id="Rectangle-path" fill="#8DC3EA" fill-rule="nonzero" x="118.089" y="239.647" width="10.52" height="9.72"></rect>
                    <rect id="Rectangle-path" fill="#8DC3EA" fill-rule="nonzero" x="118.089" y="251.773" width="10.52" height="9.72"></rect>
                    <rect id="Rectangle-path" fill="#8DC3EA" fill-rule="nonzero" x="142.133" y="45.636" width="5.261" height="9.72"></rect>
                    <rect id="Rectangle-path" fill="#8DC3EA" fill-rule="nonzero" x="142.133" y="57.762" width="5.261" height="9.72"></rect>
                    <rect id="Rectangle-path" fill="#8DC3EA" fill-rule="nonzero" x="142.133" y="69.888" width="5.261" height="9.72"></rect>
                    <rect id="Rectangle-path" fill="#8DC3EA" fill-rule="nonzero" x="142.133" y="82.014" width="5.261" height="9.719"></rect>
                    <rect id="Rectangle-path" fill="#8DC3EA" fill-rule="nonzero" x="142.133" y="94.14" width="5.261" height="9.719"></rect>
                    <rect id="Rectangle-path" fill="#8DC3EA" fill-rule="nonzero" x="142.133" y="106.265" width="5.261" height="9.72"></rect>
                    <rect id="Rectangle-path" fill="#8DC3EA" fill-rule="nonzero" x="142.133" y="118.391" width="5.261" height="9.719"></rect>
                    <rect id="Rectangle-path" fill="#8DC3EA" fill-rule="nonzero" x="142.133" y="130.517" width="5.261" height="9.72"></rect>
                    <rect id="Rectangle-path" fill="#8DC3EA" fill-rule="nonzero" x="142.133" y="142.642" width="5.261" height="9.72"></rect>
                    <rect id="Rectangle-path" fill="#8DC3EA" fill-rule="nonzero" x="142.133" y="154.768" width="5.261" height="9.72"></rect>
                    <rect id="Rectangle-path" fill="#8DC3EA" fill-rule="nonzero" x="142.133" y="166.894" width="5.261" height="9.72"></rect>
                    <rect id="Rectangle-path" fill="#8DC3EA" fill-rule="nonzero" x="142.133" y="179.019" width="5.261" height="9.72"></rect>
                    <rect id="Rectangle-path" fill="#8DC3EA" fill-rule="nonzero" x="142.133" y="191.145" width="5.261" height="9.72"></rect>
                    <rect id="Rectangle-path" fill="#8DC3EA" fill-rule="nonzero" x="142.133" y="203.271" width="5.261" height="9.72"></rect>
                    <rect id="Rectangle-path" fill="#8DC3EA" fill-rule="nonzero" x="142.133" y="215.396" width="5.261" height="9.72"></rect>
                    <rect id="Rectangle-path" fill="#8DC3EA" fill-rule="nonzero" x="142.133" y="227.522" width="5.261" height="9.72"></rect>
                    <rect id="Rectangle-path" fill="#8DC3EA" fill-rule="nonzero" x="142.133" y="239.647" width="5.261" height="9.72"></rect>
                    <rect id="Rectangle-path" fill="#8DC3EA" fill-rule="nonzero" x="142.133" y="251.773" width="5.261" height="9.72"></rect>
                    <rect id="Rectangle-path" fill="#8DC3EA" fill-rule="nonzero" x="75.894" y="45.636" width="9.318" height="9.72"></rect>
                    <rect id="Rectangle-path" fill="#8DC3EA" fill-rule="nonzero" x="75.894" y="57.762" width="9.318" height="9.72"></rect>
                    <rect id="Rectangle-path" fill="#8DC3EA" fill-rule="nonzero" x="75.894" y="69.888" width="9.318" height="9.72"></rect>
                    <rect id="Rectangle-path" fill="#8DC3EA" fill-rule="nonzero" x="75.894" y="82.014" width="9.318" height="9.719"></rect>
                    <rect id="Rectangle-path" fill="#8DC3EA" fill-rule="nonzero" x="75.894" y="94.14" width="9.318" height="9.719"></rect>
                    <rect id="Rectangle-path" fill="#8DC3EA" fill-rule="nonzero" x="75.894" y="106.265" width="9.318" height="9.72"></rect>
                    <rect id="Rectangle-path" fill="#8DC3EA" fill-rule="nonzero" x="75.894" y="118.391" width="9.318" height="9.719"></rect>
                    <rect id="Rectangle-path" fill="#8DC3EA" fill-rule="nonzero" x="75.894" y="130.517" width="9.318" height="9.72"></rect>
                    <rect id="Rectangle-path" fill="#8DC3EA" fill-rule="nonzero" x="75.894" y="142.642" width="9.318" height="9.72"></rect>
                    <rect id="Rectangle-path" fill="#8DC3EA" fill-rule="nonzero" x="75.894" y="154.768" width="9.318" height="9.72"></rect>
                    <rect id="Rectangle-path" fill="#8DC3EA" fill-rule="nonzero" x="75.894" y="166.894" width="9.318" height="9.72"></rect>
                    <rect id="Rectangle-path" fill="#8DC3EA" fill-rule="nonzero" x="75.894" y="179.019" width="9.318" height="9.72"></rect>
                    <rect id="Rectangle-path" fill="#8DC3EA" fill-rule="nonzero" x="75.894" y="191.145" width="9.318" height="9.72"></rect>
                    <rect id="Rectangle-path" fill="#8DC3EA" fill-rule="nonzero" x="75.894" y="203.271" width="9.318" height="9.72"></rect>
                    <rect id="Rectangle-path" fill="#8DC3EA" fill-rule="nonzero" x="75.894" y="215.396" width="9.318" height="9.72"></rect>
                    <rect id="Rectangle-path" fill="#8DC3EA" fill-rule="nonzero" x="75.894" y="227.522" width="9.318" height="9.72"></rect>
                    <rect id="Rectangle-path" fill="#8DC3EA" fill-rule="nonzero" x="75.894" y="239.647" width="9.318" height="9.72"></rect>
                    <rect id="Rectangle-path" fill="#8DC3EA" fill-rule="nonzero" x="75.894" y="251.773" width="9.318" height="9.72"></rect>
                    <rect id="Rectangle-path" fill="#8DC3EA" fill-rule="nonzero" x="118.089" y="23.693" width="10.52" height="19.537"></rect>
                    <rect id="Rectangle-path" fill="#8DC3EA" fill-rule="nonzero" x="142.133" y="23.693" width="10.52" height="19.537"></rect>
                    <polygon id="Shape" fill="#C1E3F8" fill-rule="nonzero" points="73.458 31.806 150.936 199.158 150.936 275.034 73.458 275.923"></polygon>
                    <polygon id="Shape" fill="#C1E3F8" fill-rule="nonzero" points="32.884 27.703 46.341 54.051 46.341 275.034 32.884 275.923"></polygon>
                </g>
                <g id="Group" transform="translate(0.000000, 498.000000)">
                    <rect id="Rectangle-path" stroke="#1867B2" stroke-width="4" fill="#FFFFFF" fill-rule="nonzero" x="44.985" y="10.908" width="89.261" height="264.015"></rect>
                    <polygon id="Shape" stroke="#1867B2" stroke-width="4" fill="#FFFFFF" fill-rule="nonzero" points="0.971 0.153 0.971 27.203 4.578 27.203 4.578 275.423 45.152 275.423 45.152 11.408 61.766 11.408 61.766 0.153"></polygon>
                    <path d="M1.639,4.66 L61.599,4.66" id="Shape" stroke="#1867B2" stroke-width="4"></path>
                    <path d="M46.796,16.081 L134.247,16.081" id="Shape" stroke="#1867B2" stroke-width="4"></path>
                    <rect id="Rectangle-path" fill="#8DC3EA" fill-rule="nonzero" x="64.755" y="22.693" width="10.52" height="19.537"></rect>
                    <rect id="Rectangle-path" fill="#8DC3EA" fill-rule="nonzero" x="64.755" y="44.636" width="10.52" height="9.72"></rect>
                    <rect id="Rectangle-path" fill="#8DC3EA" fill-rule="nonzero" x="64.755" y="56.762" width="10.52" height="9.72"></rect>
                    <rect id="Rectangle-path" fill="#8DC3EA" fill-rule="nonzero" x="64.755" y="68.888" width="10.52" height="9.72"></rect>
                    <rect id="Rectangle-path" fill="#8DC3EA" fill-rule="nonzero" x="64.755" y="81.014" width="10.52" height="9.719"></rect>
                    <rect id="Rectangle-path" fill="#8DC3EA" fill-rule="nonzero" x="64.755" y="93.14" width="10.52" height="9.719"></rect>
                    <rect id="Rectangle-path" fill="#8DC3EA" fill-rule="nonzero" x="64.755" y="105.265" width="10.52" height="9.72"></rect>
                    <rect id="Rectangle-path" fill="#8DC3EA" fill-rule="nonzero" x="64.755" y="117.391" width="10.52" height="9.719"></rect>
                    <rect id="Rectangle-path" fill="#8DC3EA" fill-rule="nonzero" x="64.755" y="129.517" width="10.52" height="9.72"></rect>
                    <rect id="Rectangle-path" fill="#8DC3EA" fill-rule="nonzero" x="64.755" y="141.642" width="10.52" height="9.72"></rect>
                    <rect id="Rectangle-path" fill="#8DC3EA" fill-rule="nonzero" x="64.755" y="153.768" width="10.52" height="9.72"></rect>
                    <rect id="Rectangle-path" fill="#8DC3EA" fill-rule="nonzero" x="64.755" y="165.894" width="10.52" height="9.72"></rect>
                    <rect id="Rectangle-path" fill="#8DC3EA" fill-rule="nonzero" x="64.755" y="178.019" width="10.52" height="9.72"></rect>
                    <rect id="Rectangle-path" fill="#8DC3EA" fill-rule="nonzero" x="64.755" y="190.145" width="10.52" height="9.72"></rect>
                    <rect id="Rectangle-path" fill="#8DC3EA" fill-rule="nonzero" x="64.755" y="202.271" width="10.52" height="9.72"></rect>
                    <rect id="Rectangle-path" fill="#8DC3EA" fill-rule="nonzero" x="64.755" y="214.396" width="10.52" height="9.72"></rect>
                    <rect id="Rectangle-path" fill="#8DC3EA" fill-rule="nonzero" x="64.755" y="226.522" width="10.52" height="9.72"></rect>
                    <rect id="Rectangle-path" fill="#8DC3EA" fill-rule="nonzero" x="64.755" y="238.647" width="10.52" height="9.72"></rect>
                    <rect id="Rectangle-path" fill="#8DC3EA" fill-rule="nonzero" x="64.755" y="250.773" width="10.52" height="9.72"></rect>
                    <rect id="Rectangle-path" fill="#8DC3EA" fill-rule="nonzero" x="89.616" y="44.636" width="10.52" height="9.72"></rect>
                    <rect id="Rectangle-path" fill="#8DC3EA" fill-rule="nonzero" x="89.616" y="56.762" width="10.52" height="9.72"></rect>
                    <rect id="Rectangle-path" fill="#8DC3EA" fill-rule="nonzero" x="89.616" y="68.888" width="10.52" height="9.72"></rect>
                    <rect id="Rectangle-path" fill="#8DC3EA" fill-rule="nonzero" x="89.616" y="81.014" width="10.52" height="9.719"></rect>
                    <rect id="Rectangle-path" fill="#8DC3EA" fill-rule="nonzero" x="89.616" y="93.14" width="10.52" height="9.719"></rect>
                    <rect id="Rectangle-path" fill="#8DC3EA" fill-rule="nonzero" x="89.616" y="105.265" width="10.52" height="9.72"></rect>
                    <rect id="Rectangle-path" fill="#8DC3EA" fill-rule="nonzero" x="89.616" y="117.391" width="10.52" height="9.719"></rect>
                    <rect id="Rectangle-path" fill="#8DC3EA" fill-rule="nonzero" x="89.616" y="129.517" width="10.52" height="9.72"></rect>
                    <rect id="Rectangle-path" fill="#8DC3EA" fill-rule="nonzero" x="89.616" y="141.642" width="10.52" height="9.72"></rect>
                    <rect id="Rectangle-path" fill="#8DC3EA" fill-rule="nonzero" x="89.616" y="153.768" width="10.52" height="9.72"></rect>
                    <rect id="Rectangle-path" fill="#8DC3EA" fill-rule="nonzero" x="89.616" y="165.894" width="10.52" height="9.72"></rect>
                    <rect id="Rectangle-path" fill="#8DC3EA" fill-rule="nonzero" x="89.616" y="178.019" width="10.52" height="9.72"></rect>
                    <rect id="Rectangle-path" fill="#8DC3EA" fill-rule="nonzero" x="89.616" y="190.145" width="10.52" height="9.72"></rect>
                    <rect id="Rectangle-path" fill="#8DC3EA" fill-rule="nonzero" x="89.616" y="202.271" width="10.52" height="9.72"></rect>
                    <rect id="Rectangle-path" fill="#8DC3EA" fill-rule="nonzero" x="89.616" y="214.396" width="10.52" height="9.72"></rect>
                    <rect id="Rectangle-path" fill="#8DC3EA" fill-rule="nonzero" x="89.616" y="226.522" width="10.52" height="9.72"></rect>
                    <rect id="Rectangle-path" fill="#8DC3EA" fill-rule="nonzero" x="89.616" y="238.647" width="10.52" height="9.72"></rect>
                    <rect id="Rectangle-path" fill="#8DC3EA" fill-rule="nonzero" x="89.616" y="250.773" width="10.52" height="9.72"></rect>
                    <rect id="Rectangle-path" fill="#8DC3EA" fill-rule="nonzero" x="113.66" y="44.636" width="5.261" height="9.72"></rect>
                    <rect id="Rectangle-path" fill="#8DC3EA" fill-rule="nonzero" x="113.66" y="56.762" width="5.261" height="9.72"></rect>
                    <rect id="Rectangle-path" fill="#8DC3EA" fill-rule="nonzero" x="113.66" y="68.888" width="5.261" height="9.72"></rect>
                    <rect id="Rectangle-path" fill="#8DC3EA" fill-rule="nonzero" x="113.66" y="81.014" width="5.261" height="9.719"></rect>
                    <rect id="Rectangle-path" fill="#8DC3EA" fill-rule="nonzero" x="113.66" y="93.14" width="5.261" height="9.719"></rect>
                    <rect id="Rectangle-path" fill="#8DC3EA" fill-rule="nonzero" x="113.66" y="105.265" width="5.261" height="9.72"></rect>
                    <rect id="Rectangle-path" fill="#8DC3EA" fill-rule="nonzero" x="113.66" y="117.391" width="5.261" height="9.719"></rect>
                    <rect id="Rectangle-path" fill="#8DC3EA" fill-rule="nonzero" x="113.66" y="129.517" width="5.261" height="9.72"></rect>
                    <rect id="Rectangle-path" fill="#8DC3EA" fill-rule="nonzero" x="113.66" y="141.642" width="5.261" height="9.72"></rect>
                    <rect id="Rectangle-path" fill="#8DC3EA" fill-rule="nonzero" x="113.66" y="153.768" width="5.261" height="9.72"></rect>
                    <rect id="Rectangle-path" fill="#8DC3EA" fill-rule="nonzero" x="113.66" y="165.894" width="5.261" height="9.72"></rect>
                    <rect id="Rectangle-path" fill="#8DC3EA" fill-rule="nonzero" x="113.66" y="178.019" width="5.261" height="9.72"></rect>
                    <rect id="Rectangle-path" fill="#8DC3EA" fill-rule="nonzero" x="113.66" y="190.145" width="5.261" height="9.72"></rect>
                    <rect id="Rectangle-path" fill="#8DC3EA" fill-rule="nonzero" x="113.66" y="202.271" width="5.261" height="9.72"></rect>
                    <rect id="Rectangle-path" fill="#8DC3EA" fill-rule="nonzero" x="113.66" y="214.396" width="5.261" height="9.72"></rect>
                    <rect id="Rectangle-path" fill="#8DC3EA" fill-rule="nonzero" x="113.66" y="226.522" width="5.261" height="9.72"></rect>
                    <rect id="Rectangle-path" fill="#8DC3EA" fill-rule="nonzero" x="113.66" y="238.647" width="5.261" height="9.72"></rect>
                    <rect id="Rectangle-path" fill="#8DC3EA" fill-rule="nonzero" x="113.66" y="250.773" width="5.261" height="9.72"></rect>
                    <rect id="Rectangle-path" fill="#8DC3EA" fill-rule="nonzero" x="46.796" y="44.636" width="9.318" height="9.72"></rect>
                    <rect id="Rectangle-path" fill="#8DC3EA" fill-rule="nonzero" x="46.796" y="56.762" width="9.318" height="9.72"></rect>
                    <rect id="Rectangle-path" fill="#8DC3EA" fill-rule="nonzero" x="46.796" y="68.888" width="9.318" height="9.72"></rect>
                    <rect id="Rectangle-path" fill="#8DC3EA" fill-rule="nonzero" x="46.796" y="81.014" width="9.318" height="9.719"></rect>
                    <rect id="Rectangle-path" fill="#8DC3EA" fill-rule="nonzero" x="46.796" y="93.14" width="9.318" height="9.719"></rect>
                    <rect id="Rectangle-path" fill="#8DC3EA" fill-rule="nonzero" x="46.796" y="105.265" width="9.318" height="9.72"></rect>
                    <rect id="Rectangle-path" fill="#8DC3EA" fill-rule="nonzero" x="46.796" y="117.391" width="9.318" height="9.719"></rect>
                    <rect id="Rectangle-path" fill="#8DC3EA" fill-rule="nonzero" x="46.796" y="129.517" width="9.318" height="9.72"></rect>
                    <rect id="Rectangle-path" fill="#8DC3EA" fill-rule="nonzero" x="46.796" y="141.642" width="9.318" height="9.72"></rect>
                    <rect id="Rectangle-path" fill="#8DC3EA" fill-rule="nonzero" x="46.796" y="153.768" width="9.318" height="9.72"></rect>
                    <rect id="Rectangle-path" fill="#8DC3EA" fill-rule="nonzero" x="46.796" y="165.894" width="9.318" height="9.72"></rect>
                    <rect id="Rectangle-path" fill="#8DC3EA" fill-rule="nonzero" x="46.796" y="178.019" width="9.318" height="9.72"></rect>
                    <rect id="Rectangle-path" fill="#8DC3EA" fill-rule="nonzero" x="46.796" y="190.145" width="9.318" height="9.72"></rect>
                    <rect id="Rectangle-path" fill="#8DC3EA" fill-rule="nonzero" x="46.796" y="202.271" width="9.318" height="9.72"></rect>
                    <rect id="Rectangle-path" fill="#8DC3EA" fill-rule="nonzero" x="46.796" y="214.396" width="9.318" height="9.72"></rect>
                    <rect id="Rectangle-path" fill="#8DC3EA" fill-rule="nonzero" x="46.796" y="226.522" width="9.318" height="9.72"></rect>
                    <rect id="Rectangle-path" fill="#8DC3EA" fill-rule="nonzero" x="46.796" y="238.647" width="9.318" height="9.72"></rect>
                    <rect id="Rectangle-path" fill="#8DC3EA" fill-rule="nonzero" x="46.796" y="250.773" width="9.318" height="9.72"></rect>
                    <rect id="Rectangle-path" fill="#8DC3EA" fill-rule="nonzero" x="89.616" y="22.693" width="10.52" height="19.537"></rect>
                    <rect id="Rectangle-path" fill="#8DC3EA" fill-rule="nonzero" x="113.66" y="22.693" width="10.52" height="19.537"></rect>
                    <polygon id="Shape" fill="#C1E3F8" fill-rule="nonzero" points="44.985 30.806 122.463 198.158 122.463 274.034 44.985 274.923"></polygon>
                </g>
                <g id="Group" transform="translate(318.000000, 500.000000)">
                    <polygon id="Shape" stroke="#1867B2" stroke-width="4" fill="#FFFFFF" fill-rule="nonzero" points="81.734 48.541 81.734 32.199 0.583 32.199 0.583 274.45 76.324 274.45 76.324 48.541"></polygon>
                    <polygon id="Shape" stroke="#1867B2" stroke-width="4" fill="#FFFFFF" fill-rule="nonzero" points="64.3 0.021 64.3 32.199 81.734 32.199 81.734 48.541 124.412 48.541 124.412 0.021"></polygon>
                    <polygon id="Shape" fill="#C1E3F8" fill-rule="nonzero" points="66.3 12.081 116.399 46.495 83.734 46.541 83.734 30.199 66.3 30.199"></polygon>
                    <rect id="Rectangle-path" fill="#8DC3EA" fill-rule="nonzero" x="136.96" y="88.794" width="5.26" height="9.72"></rect>
                    <rect id="Rectangle-path" fill="#8DC3EA" fill-rule="nonzero" x="136.96" y="100.919" width="5.26" height="9.72"></rect>
                    <rect id="Rectangle-path" fill="#8DC3EA" fill-rule="nonzero" x="136.96" y="113.046" width="5.26" height="9.719"></rect>
                    <rect id="Rectangle-path" fill="#8DC3EA" fill-rule="nonzero" x="136.96" y="125.17" width="5.26" height="9.72"></rect>
                    <rect id="Rectangle-path" fill="#8DC3EA" fill-rule="nonzero" x="136.96" y="137.297" width="5.26" height="9.718"></rect>
                    <rect id="Rectangle-path" fill="#8DC3EA" fill-rule="nonzero" x="136.96" y="149.422" width="5.26" height="9.72"></rect>
                    <rect id="Rectangle-path" fill="#8DC3EA" fill-rule="nonzero" x="136.96" y="161.547" width="5.26" height="9.72"></rect>
                    <rect id="Rectangle-path" fill="#8DC3EA" fill-rule="nonzero" x="136.96" y="173.674" width="5.26" height="9.72"></rect>
                    <rect id="Rectangle-path" fill="#8DC3EA" fill-rule="nonzero" x="136.96" y="185.799" width="5.26" height="9.72"></rect>
                    <rect id="Rectangle-path" fill="#8DC3EA" fill-rule="nonzero" x="136.96" y="197.924" width="5.26" height="9.72"></rect>
                    <rect id="Rectangle-path" fill="#8DC3EA" fill-rule="nonzero" x="136.96" y="210.051" width="5.26" height="9.72"></rect>
                    <rect id="Rectangle-path" fill="#8DC3EA" fill-rule="nonzero" x="136.96" y="222.176" width="5.26" height="9.72"></rect>
                    <rect id="Rectangle-path" fill="#8DC3EA" fill-rule="nonzero" x="136.96" y="234.303" width="5.26" height="9.72"></rect>
                    <rect id="Rectangle-path" fill="#8DC3EA" fill-rule="nonzero" x="136.96" y="246.428" width="5.26" height="9.72"></rect>
                    <rect id="Rectangle-path" stroke="#1867B2" stroke-width="4" fill="#FFFFFF" fill-rule="nonzero" x="134.331" y="82.924" width="10.519" height="191.526"></rect>
                    <polygon id="Shape" stroke="#1867B2" stroke-width="4" fill="#FFFFFF" fill-rule="nonzero" points="120.204 48.541 76.324 48.541 76.324 274.45 120.204 274.45 134.33 274.45 134.33 82.419 148.457 82.419 148.457 48.541"></polygon>
                    <path d="M78.375,62.256 L146.5,62.256" id="Shape" stroke="#EC512C" stroke-width="4"></path>
                    <path d="M0.583,37.009 L81.734,37.009" id="Shape" stroke="#1867B2" stroke-width="4"></path>
                    <path d="M64.3,4.698 L124.412,4.698" id="Shape" stroke="#1867B2" stroke-width="4"></path>
                    <path d="M76.324,53.389 L148.457,53.389" id="Shape" stroke="#1867B2" stroke-width="4"></path>
                    <rect id="Rectangle-path" fill="#8DC3EA" fill-rule="nonzero" x="28.834" y="64.542" width="10.52" height="9.72"></rect>
                    <rect id="Rectangle-path" fill="#8DC3EA" fill-rule="nonzero" x="28.834" y="76.667" width="10.52" height="9.72"></rect>
                    <rect id="Rectangle-path" fill="#8DC3EA" fill-rule="nonzero" x="28.834" y="88.794" width="10.52" height="9.72"></rect>
                    <rect id="Rectangle-path" fill="#8DC3EA" fill-rule="nonzero" x="28.834" y="100.919" width="10.52" height="9.72"></rect>
                    <rect id="Rectangle-path" fill="#8DC3EA" fill-rule="nonzero" x="28.834" y="113.046" width="10.52" height="9.719"></rect>
                    <rect id="Rectangle-path" fill="#8DC3EA" fill-rule="nonzero" x="28.834" y="125.17" width="10.52" height="9.72"></rect>
                    <rect id="Rectangle-path" fill="#8DC3EA" fill-rule="nonzero" x="28.834" y="137.297" width="10.52" height="9.718"></rect>
                    <rect id="Rectangle-path" fill="#8DC3EA" fill-rule="nonzero" x="28.834" y="149.422" width="10.52" height="9.72"></rect>
                    <rect id="Rectangle-path" fill="#8DC3EA" fill-rule="nonzero" x="28.834" y="161.547" width="10.52" height="9.72"></rect>
                    <rect id="Rectangle-path" fill="#8DC3EA" fill-rule="nonzero" x="28.834" y="173.674" width="10.52" height="9.72"></rect>
                    <rect id="Rectangle-path" fill="#8DC3EA" fill-rule="nonzero" x="28.834" y="185.799" width="10.52" height="9.72"></rect>
                    <rect id="Rectangle-path" fill="#8DC3EA" fill-rule="nonzero" x="28.834" y="197.924" width="10.52" height="9.72"></rect>
                    <rect id="Rectangle-path" fill="#8DC3EA" fill-rule="nonzero" x="28.834" y="210.051" width="10.52" height="9.72"></rect>
                    <rect id="Rectangle-path" fill="#8DC3EA" fill-rule="nonzero" x="28.834" y="222.176" width="10.52" height="9.72"></rect>
                    <rect id="Rectangle-path" fill="#8DC3EA" fill-rule="nonzero" x="28.834" y="234.303" width="10.52" height="9.72"></rect>
                    <rect id="Rectangle-path" fill="#8DC3EA" fill-rule="nonzero" x="28.834" y="246.428" width="10.52" height="9.72"></rect>
                    <rect id="Rectangle-path" fill="#8DC3EA" fill-rule="nonzero" x="28.834" y="42.599" width="10.52" height="19.538"></rect>
                    <rect id="Rectangle-path" fill="#8DC3EA" fill-rule="nonzero" x="51.977" y="64.542" width="10.52" height="9.72"></rect>
                    <rect id="Rectangle-path" fill="#8DC3EA" fill-rule="nonzero" x="51.977" y="76.667" width="10.52" height="9.72"></rect>
                    <rect id="Rectangle-path" fill="#8DC3EA" fill-rule="nonzero" x="51.977" y="88.794" width="10.52" height="9.72"></rect>
                    <rect id="Rectangle-path" fill="#8DC3EA" fill-rule="nonzero" x="51.977" y="100.919" width="10.52" height="9.72"></rect>
                    <rect id="Rectangle-path" fill="#8DC3EA" fill-rule="nonzero" x="51.977" y="113.046" width="10.52" height="9.719"></rect>
                    <rect id="Rectangle-path" fill="#8DC3EA" fill-rule="nonzero" x="51.977" y="125.17" width="10.52" height="9.72"></rect>
                    <rect id="Rectangle-path" fill="#8DC3EA" fill-rule="nonzero" x="51.977" y="137.297" width="10.52" height="9.718"></rect>
                    <rect id="Rectangle-path" fill="#8DC3EA" fill-rule="nonzero" x="51.977" y="149.422" width="10.52" height="9.72"></rect>
                    <rect id="Rectangle-path" fill="#8DC3EA" fill-rule="nonzero" x="51.977" y="161.547" width="10.52" height="9.72"></rect>
                    <rect id="Rectangle-path" fill="#8DC3EA" fill-rule="nonzero" x="51.977" y="173.674" width="10.52" height="9.72"></rect>
                    <rect id="Rectangle-path" fill="#8DC3EA" fill-rule="nonzero" x="51.977" y="185.799" width="10.52" height="9.72"></rect>
                    <rect id="Rectangle-path" fill="#8DC3EA" fill-rule="nonzero" x="51.977" y="197.924" width="10.52" height="9.72"></rect>
                    <rect id="Rectangle-path" fill="#8DC3EA" fill-rule="nonzero" x="51.977" y="210.051" width="10.52" height="9.72"></rect>
                    <rect id="Rectangle-path" fill="#8DC3EA" fill-rule="nonzero" x="51.977" y="222.176" width="10.52" height="9.72"></rect>
                    <rect id="Rectangle-path" fill="#8DC3EA" fill-rule="nonzero" x="51.977" y="234.303" width="10.52" height="9.72"></rect>
                    <rect id="Rectangle-path" fill="#8DC3EA" fill-rule="nonzero" x="51.977" y="246.428" width="10.52" height="9.72"></rect>
                    <rect id="Rectangle-path" fill="#8DC3EA" fill-rule="nonzero" x="51.977" y="42.599" width="10.52" height="19.538"></rect>
                    <rect id="Rectangle-path" fill="#8DC3EA" fill-rule="nonzero" x="11.853" y="64.542" width="5.26" height="9.72"></rect>
                    <rect id="Rectangle-path" fill="#8DC3EA" fill-rule="nonzero" x="11.853" y="76.667" width="5.26" height="9.72"></rect>
                    <rect id="Rectangle-path" fill="#8DC3EA" fill-rule="nonzero" x="11.853" y="88.794" width="5.26" height="9.72"></rect>
                    <rect id="Rectangle-path" fill="#8DC3EA" fill-rule="nonzero" x="11.853" y="100.919" width="5.26" height="9.72"></rect>
                    <rect id="Rectangle-path" fill="#8DC3EA" fill-rule="nonzero" x="11.853" y="113.046" width="5.26" height="9.719"></rect>
                    <rect id="Rectangle-path" fill="#8DC3EA" fill-rule="nonzero" x="11.853" y="125.17" width="5.26" height="9.72"></rect>
                    <rect id="Rectangle-path" fill="#8DC3EA" fill-rule="nonzero" x="11.853" y="137.297" width="5.26" height="9.718"></rect>
                    <rect id="Rectangle-path" fill="#8DC3EA" fill-rule="nonzero" x="11.853" y="149.422" width="5.26" height="9.72"></rect>
                    <rect id="Rectangle-path" fill="#8DC3EA" fill-rule="nonzero" x="11.853" y="161.547" width="5.26" height="9.72"></rect>
                    <rect id="Rectangle-path" fill="#8DC3EA" fill-rule="nonzero" x="11.853" y="173.674" width="5.26" height="9.72"></rect>
                    <rect id="Rectangle-path" fill="#8DC3EA" fill-rule="nonzero" x="11.853" y="185.799" width="5.26" height="9.72"></rect>
                    <rect id="Rectangle-path" fill="#8DC3EA" fill-rule="nonzero" x="11.853" y="197.924" width="5.26" height="9.72"></rect>
                    <rect id="Rectangle-path" fill="#8DC3EA" fill-rule="nonzero" x="11.853" y="210.051" width="5.26" height="9.72"></rect>
                    <rect id="Rectangle-path" fill="#8DC3EA" fill-rule="nonzero" x="11.853" y="222.176" width="5.26" height="9.72"></rect>
                    <rect id="Rectangle-path" fill="#8DC3EA" fill-rule="nonzero" x="11.853" y="234.303" width="5.26" height="9.72"></rect>
                    <rect id="Rectangle-path" fill="#8DC3EA" fill-rule="nonzero" x="11.853" y="246.428" width="5.26" height="9.72"></rect>
                    <rect id="Rectangle-path" fill="#8DC3EA" fill-rule="nonzero" x="6.592" y="42.599" width="10.52" height="19.538"></rect>
                </g>
                <g id="Group" transform="translate(732.000000, 534.000000)">
                    <rect id="Rectangle-path" fill="#FFFFFF" fill-rule="nonzero" x="9.219" y="106.283" width="33.376" height="85.6"></rect>
                    <polygon id="Shape" fill="#8DC3EA" fill-rule="nonzero" points="218 239.669 228.619 239.669 228.619 35.039 161.527 30.869 161.527 12.125 147.732 19.146 149.981 32.435 216.334 50.668"></polygon>
                    <polygon id="Shape" stroke="#1867B2" stroke-width="4" fill="#FFFFFF" fill-rule="nonzero" points="161.527 30.869 161.527 10.547 556.646 43.896 556.648 76.726 503.235 76.727 503.235 111.899 585.308 111.899 585.308 144.989 575.668 144.989 575.668 238.266 228.619 238.266 228.619 35.039"></polygon>
                    <polygon id="Shape" stroke="#1867B2" stroke-width="4" fill="#FFFFFF" fill-rule="nonzero" points="269.524 6.77 269.524 19.662 219.979 15.48 219.979 10.547 228.097 2.861"></polygon>
                    <polygon id="Shape" stroke="#1867B2" stroke-width="4" fill="#FFFFFF" fill-rule="nonzero" points="23.307 0.125 216.372 49.368 216.372 238.526 23.307 238.266 23.307 182.248 39.721 183.811 39.721 115.809 23.307 114.244 23.307 48.195 39.721 52.104 39.721 33.345 23.307 30.218"></polygon>
                    <polygon id="Shape" stroke="#1867B2" stroke-width="4" fill="#FFFFFF" fill-rule="nonzero" points="0.639 238.266 0.639 32.173 23.307 0.125 23.307 30.218 11.973 42.334 11.973 58.357 23.307 48.195 23.307 113.463 12.754 121.671 12.754 188.892 23.307 183.029 23.307 238.266"></polygon>
                    <polygon id="Shape" fill="#C1E3F8" fill-rule="nonzero" points="34.507 16.36 206 60.101 206 228.123 34.507 227.893 34.507 191.134 49.087 192.521 49.087 109.118 34.507 107.728 34.507 59.059 49.087 62.531 49.087 29.999 34.507 26.999"></polygon>
                    <polygon id="Shape" fill="#C1E3F8" fill-rule="nonzero" points="169.408 25 169.408 18.662 550.304 50.74 550.334 70.666 497 70.666 497 118.675 579.334 118.675 579.334 137.998 568.667 139.258 568 227.29 240.35 227.29 240.5 29.25"></polygon>
                    <polygon id="Shape" fill="#EC512C" fill-rule="nonzero" points="56.656 182.77 74.374 184.854 74.374 146.554 56.656 144.208"></polygon>
                    <polygon id="Shape" fill="#8DC3EA" fill-rule="nonzero" points="161.527 115.203 177.29 117.057 177.29 82.98 161.527 80.895"></polygon>
                    <polyline id="Shape" stroke="#1867B2" stroke-width="4" points="161.527 10.547 147.732 19.146 147.732 31.861"></polyline>
                    <polygon id="Shape" fill="#EC512C" fill-rule="nonzero" points="314.858 44.939 331.794 46.764 331.794 78.551 314.858 77.509"></polygon>
                    <polygon id="Shape" fill="#8DC3EA" fill-rule="nonzero" points="246.446 164.906 263.383 165.167 263.383 196.954 246.446 196.693"></polygon>
                    <rect id="Rectangle-path" fill="#8DC3EA" fill-rule="nonzero" x="399.537" y="103.042" width="14.591" height="31.266"></rect>
                </g>
                <circle id="Oval" fill="#F7F9FD" fill-rule="nonzero" cx="500.909" cy="702.929" r="24.243"></circle>
                <path d="M500.909,698.84 L500.909,753.633" id="Shape" stroke="#1867B2" stroke-width="4" stroke-linecap="round"></path>
                <path d="M492.193,697.115 C492.193,697.115 490.657,707.554 500.909,707.554" id="Shape" stroke="#1867B2" stroke-width="4" stroke-linecap="round"></path>
                <path d="M511.494,702.93 C511.494,702.93 513.053,716.429 500.909,716.429" id="Shape" stroke="#1867B2" stroke-width="4" stroke-linecap="round"></path>
                <polygon id="Shape" fill="#FFFFFF" fill-rule="nonzero" points="749.328 718.062 755.875 714.406 759.1 714.612 759.75 709.834 754.416 708.5 750.916 710.417"></polygon>
                <polygon id="Shape" fill="#F7F9FD" fill-rule="nonzero" points="751.656 582.75 754.719 580.031 758.75 580.938 758.5 576.406 754.438 576.094 750.688 576.562 750.844 579.156"></polygon>
                <polygon id="Shape" fill="#F7F9FD" fill-rule="nonzero" points="751.188 536.501 754.421 531.915 758.797 532.938 761.333 524.418 753.916 524.418 745.916 525.334 747.333 536.084"></polygon>
                <g id="Group" transform="translate(394.000000, 760.000000)">
                    <circle id="Oval" stroke="#1867B2" stroke-width="4" cx="8.945" cy="26.145" r="8.621"></circle>
                    <circle id="Oval" stroke="#1867B2" stroke-width="4" cx="47.206" cy="26.145" r="8.621"></circle>
                    <circle id="Oval" fill="#EC512C" fill-rule="nonzero" cx="8.945" cy="26.145" r="4.116"></circle>
                    <path d="M8.259,26.831 L19.02,7.658" id="Shape" stroke="#1867B2" stroke-width="4" stroke-linecap="round"></path>
                    <path d="M8.259,26.831 L22.916,26.831" id="Shape" stroke="#1867B2" stroke-width="4" stroke-linecap="round"></path>
                    <path d="M25.018,26.831 L17.565,2.911" id="Shape" stroke="#1867B2" stroke-width="4" stroke-linecap="round"></path>
                    <path d="M25.018,26.831 L43.675,2.911" id="Shape" stroke="#1867B2" stroke-width="4" stroke-linecap="round"></path>
                    <path d="M19.02,7.658 L39.971,7.658" id="Shape" stroke="#1867B2" stroke-width="4" stroke-linecap="round"></path>
                    <path d="M21.292,2.911 L14.387,2.911" id="Shape" stroke="#1867B2" stroke-width="4" stroke-linecap="round"></path>
                    <circle id="Oval" stroke="#1867B2" stroke-width="4" fill="#FFFFFF" fill-rule="nonzero" cx="25.017" cy="26.831" r="3.082"></circle>
                    <circle id="Oval" fill="#EC512C" fill-rule="nonzero" cx="47.206" cy="26.145" r="4.116"></circle>
                    <path d="M47.206,26.145 C47.206,26.145 43.675,21.332 43.675,0.166 L48.48,0.166" id="Shape" stroke="#1867B2" stroke-width="4" stroke-linecap="round"></path>
                </g>
            </g>
        </g>
    </g>
</svg>