<?xml version="1.0" encoding="utf-8"?>
<!-- Generator: Adobe Illustrator 16.0.4, SVG Export Plug-In . SVG Version: 6.00 Build 0)  -->
<!DOCTYPE svg PUBLIC "-//W3C//DTD SVG 1.1//EN" "http://www.w3.org/Graphics/SVG/1.1/DTD/svg11.dtd">
<svg version="1.1" id="Layer_1" xmlns="http://www.w3.org/2000/svg" xmlns:xlink="http://www.w3.org/1999/xlink" x="0px" y="0px"
	 width="267px" height="240.03px" viewBox="0 0 267 240.03" enable-background="new 0 0 267 240.03" xml:space="preserve">
<line fill="none" stroke="#C2E3F5" stroke-width="6" stroke-linecap="round" stroke-miterlimit="10" x1="490.093" y1="245.374" x2="494.472" y2="212.8"/>
<line fill="none" stroke="#C2E3F5" stroke-width="6" stroke-linecap="round" stroke-miterlimit="10" x1="515.522" y1="254.737" x2="530.187" y2="225.322"/>
<line fill="none" stroke="#C2E3F5" stroke-width="6" stroke-linecap="round" stroke-miterlimit="10" x1="561.989" y1="296.721" x2="587.115" y2="275.533"/>
<line fill="none" stroke="#C2E3F5" stroke-width="6" stroke-linecap="round" stroke-miterlimit="10" x1="569.562" y1="319.658" x2="601.951" y2="314.07"/>
<line fill="none" stroke="#C2E3F5" stroke-width="6" stroke-linecap="round" stroke-miterlimit="10" x1="540.749" y1="273.283" x2="562.691" y2="245.21"/>
<line fill="#EA5334" x1="364.646" y1="350.014" x2="331.784" y2="349.508"/>
<line fill="none" stroke="#C2E3F5" stroke-width="6" stroke-linecap="round" stroke-miterlimit="10" x1="364.646" y1="350.014" x2="331.784" y2="349.508"/>
<line fill="#EA5334" x1="370.048" y1="376.52" x2="338.782" y2="386.654"/>
<line fill="none" stroke="#C2E3F5" stroke-width="6" stroke-linecap="round" stroke-miterlimit="10" x1="370.048" y1="376.52" x2="338.782" y2="386.654"/>
<line fill="none" stroke="#C2E3F5" stroke-width="6" stroke-linecap="round" stroke-miterlimit="10" x1="400.602" y1="428.768" x2="375.918" y2="450.471"/>
<line fill="none" stroke="#C2E3F5" stroke-width="6" stroke-linecap="round" stroke-miterlimit="10" x1="423.595" y1="444.516" x2="413.26" y2="475.716"/>
<line fill="#EA5334" x1="381.676" y1="403.774" x2="350.657" y2="421.307"/>
<line fill="none" stroke="#C2E3F5" stroke-width="6" stroke-linecap="round" stroke-miterlimit="10" x1="381.676" y1="403.774" x2="350.657" y2="421.307"/>
<g>
	<circle fill="none" stroke="#18487C" stroke-width="4" stroke-miterlimit="10" cx="136.366" cy="120.015" r="81.021"/>
	<g>
		<g>
			<polyline fill="#8EC5EA" points="177.335,69.497 177.335,74.284 181.422,73.038 			"/>
		</g>
		<g>
			<polyline fill="#8EC5EA" points="177.332,55.814 177.332,60.602 181.417,59.356 			"/>
		</g>
		<g>
			<polygon fill="#1867B2" points="78.397,169.133 105.366,173.157 104.856,158.503 84.51,153.835 78.202,157.073 			"/>
		</g>
		<g>
			<g>
				<path fill="#1867B2" d="M76.305,87.632v-2.576l2.716-3.433l1.146,77.262c0,0-1.609,0-1.716,0c-0.108,0-0.216-70.18-0.216-70.18
					L76.305,87.632z"/>
			</g>
			<g>
				<path fill="#1867B2" d="M80.82,159.528h-2.369c-0.646,0-0.651-0.446-0.665-1.424c-0.006-0.515-0.013-1.27-0.02-2.23
					c-0.014-1.92-0.026-4.663-0.039-7.953c-0.025-6.58-0.049-15.353-0.068-24.125c-0.037-16.036-0.063-32.072-0.066-34.712
					L75.66,88.01v-3.177l3.978-4.706L80.82,159.528z M79.075,158.24h0.438l-0.577-38.903
					C78.977,137.423,79.026,154.845,79.075,158.24z M76.948,87.253l1.524,0.847l-0.069-4.659l-1.455,1.839V87.253z"/>
			</g>
		</g>
		<g>
			<polyline fill="#1867B2" points="125.184,170.099 120.221,171.708 113.165,145.229 124.057,136.295 			"/>
			<polygon fill="#1867B2" points="119.773,172.53 112.437,144.995 123.648,135.798 124.465,136.793 113.894,145.464 
				120.668,170.887 124.985,169.486 125.383,170.71 			"/>
		</g>
		<g>
			<polyline fill="#1867B2" points="166.847,155.329 184.418,149.889 215.001,157.347 214.035,163.982 166.229,159.207 			"/>
		</g>
		<g>
			<g>
				<polygon fill="#8EC5EA" points="60.199,102.47 60.199,96.432 56.882,95.036 56.882,91.388 60.199,92.568 60.199,86.022 
					56.882,84.841 56.882,80.121 78.235,89.241 78.375,149.227 75.338,148.476 74.695,106.732 				"/>
			</g>
			<g>
				<path fill="#1867B2" d="M79.021,150.05l-4.318-1.068l-0.644-41.766l-14.503-4.265v-6.092l-3.318-1.396v-3.541l3.318,1.021
					v-6.467l-3.318-1.18l0.689-5.108l21.952,8.627L79.021,150.05z M75.975,148.292l1.755,0.112l-0.137-58.737l-20.067-8.572v3.292
					l3.317,1.18v7.913L57.525,92.3v2.309l3.317,1.394v5.985l14.489,4.261L75.975,148.292z"/>
			</g>
		</g>
		<g>
			<polyline fill="#F9FAFC" points="135.314,170.099 141.388,173.801 143.047,151.269 134.787,146.978 			"/>
			<polygon fill="#1867B2" points="141.952,174.899 134.98,170.648 135.65,169.548 140.822,172.702 142.373,151.644 
				134.491,147.549 135.085,146.406 143.72,150.893 			"/>
		</g>
		<g>
			<path fill="#C1E5F6" d="M74.479,109.509c-0.214,0.322,0,6.653,0,6.653l3.226,0.886v-6.27L74.479,109.509z"/>
		</g>
		<g>
			<path fill="#C1E5F6" d="M74.479,119.234c-0.214,0.322,0,6.653,0,6.653l3.226,0.885v-6.27L74.479,119.234z"/>
		</g>
		<g>
			<polygon fill="#FFFFFF" points="52.054,169.133 79.021,173.157 78.512,158.503 58.165,153.835 51.857,157.073 			"/>
			<path fill="#1867B2" d="M79.69,173.908l-28.272-4.219l-0.211-13.006l6.873-3.527l21.058,4.831L79.69,173.908z M52.688,168.576
				l25.662,3.83l-0.466-13.385l-19.635-4.505l-5.742,2.947L52.688,168.576z"/>
		</g>
		<g>
			<path fill="#C1E5F6" d="M74.479,128.744c-0.214,0.322,0,6.653,0,6.653l3.226,0.885v-6.27L74.479,128.744z"/>
		</g>
		<g>
			<path fill="#C1E5F6" d="M74.479,139.081c-0.214,0.291,0,6.032,0,6.032l3.226,0.801v-5.683L74.479,139.081z"/>
		</g>
		<g>
			<path fill="#C1E5F6" d="M74.479,91.575c-0.214,0.322,0,6.653,0,6.653l3.226,0.886v-6.27L74.479,91.575z"/>
		</g>
		<g>
			<path fill="#C1E5F6" d="M74.479,100.375c-0.214,0.322,0,6.653,0,6.653l3.226,0.885v-6.27L74.479,100.375z"/>
		</g>
		<g>
			<polyline fill="#C1E5F6" points="99.912,102.486 92.689,102.486 99.912,102.486 99.912,150.255 92.829,148.414 92.689,102.486 
							"/>
		</g>
		<g>
			<polygon fill="#FFFFFF" points="80.274,81.3 102.005,91.227 102.005,99.757 92.669,95.734 92.829,148.368 100.878,150.46 
				100.557,160.44 80.489,158.885 			"/>
			<path fill="#1867B2" d="M101.178,161.135l-21.331-1.654l-0.219-79.184l23.021,10.516v9.924l-9.332-4.023l0.155,51.157
				l8.066,2.097L101.178,161.135z M81.132,158.288l18.803,1.458l0.284-8.792l-8.03-2.088l-0.167-54.113l9.34,4.025V91.64
				l-20.44-9.336L81.132,158.288z"/>
		</g>
		<g>
			<polygon fill="#1867B2" points="126.472,83.875 126.472,79.262 135.002,75.077 134.787,83.231 			"/>
		</g>
		<g>
			<polygon fill="#C1E5F6" points="124.7,83.231 124.057,170.099 135.314,170.099 135.002,84.691 			"/>
			<path fill="#1867B2" d="M135.962,170.743h-12.554l0.654-88.252l11.581,1.641l0.002,0.556L135.962,170.743z M124.705,169.455
				h9.964l-0.309-84.204l-9.021-1.278L124.705,169.455z"/>
		</g>
		<g>
			<g>
				<path fill="#FFFFFF" d="M148.309,152.768V54.902L124.7,70.999v8.692l10.302-4.614v44.425
					C135.002,119.502,139.725,153.84,148.309,152.768z"/>
			</g>
			<g>
				<path fill="#1867B2" d="M147.917,153.436c-0.001,0-0.001,0-0.002,0c-3.785-0.001-7.22-5.763-10.204-17.126
					c-2.172-8.264-3.334-16.636-3.346-16.72l-0.007-0.088V76.07l-10.302,4.615V70.658l23.93-16.652l0.967,99.33l-0.564,0.07
					C148.229,153.427,148.075,153.436,147.917,153.436z M135.646,119.458c0.094,0.657,1.241,8.649,3.313,16.534
					c2.662,10.131,5.744,15.835,8.706,16.144V56.121l-22.32,15.218v7.358l10.301-4.614V119.458z"/>
			</g>
		</g>
		<g>
			<g>
				<polygon fill="#8EC5EA" points="181.494,154.914 218.837,160.44 218.837,92.247 181.494,44.708 				"/>
			</g>
			<g>
				<path fill="#1867B2" d="M219.481,161.187l-38.632-5.716l0.832-112.175l37.8,48.729V161.187z M182.138,154.359l36.056,5.336
					V92.469L182.138,46.57V154.359z"/>
			</g>
		</g>
		<g>
			<path fill="none" stroke="#1867B2" stroke-width="4" stroke-miterlimit="10" d="M47.438,137.959"/>
		</g>
		<g>
			<polyline fill="#8DC3EA" points="103.023,123.795 114.077,119.288 114.077,142.145 103.023,145.914 103.023,123.795 			"/>
			<path fill="#1867B2" d="M102.38,146.813v-23.452l12.341-5.031v24.275L102.38,146.813z M103.668,124.228v20.787l9.766-3.331
				v-21.438L103.668,124.228z"/>
		</g>
		<g>
			<g>
				<polyline fill="#8EC5EA" points="156.667,60.482 148.309,55.118 148.309,149.915 151.528,151.139 				"/>
			</g>
			<g>
				<polygon fill="#1867B2" points="151.299,151.74 147.665,150.359 147.986,53.939 157.015,59.941 156.32,61.025 148.953,56.295 
					148.953,149.471 151.757,150.537 				"/>
			</g>
		</g>
		<g>
			<path fill="#C1E5F6" d="M65.896,87.739c-0.215,0.322,0,6.654,0,6.654l6.546,2.79v-6.868L65.896,87.739z"/>
		</g>
		<g>
			<rect x="124.057" y="116.927" fill="#1867B2" width="1.288" height="1.288"/>
		</g>
		<g>
			<polygon fill="#8DC3EA" points="138.115,73.467 138.115,80.872 144.66,77.331 144.66,69.497 			"/>
		</g>
		<g>
			<polygon fill="#8DC3EA" points="138.115,84.841 138.115,92.247 144.66,88.705 144.66,80.872 			"/>
		</g>
		<g>
			<polygon fill="#8DC3EA" points="138.115,96.217 138.115,103.621 144.66,100.08 144.66,92.247 			"/>
		</g>
		<g>
			<polygon fill="#8DC3EA" points="138.115,107.591 138.115,114.996 144.66,111.454 144.66,103.621 			"/>
		</g>
		<g>
			<polygon fill="#8DC3EA" points="138.115,118.966 138.115,126.37 144.66,122.829 144.66,114.996 			"/>
		</g>
		<g>
			<polygon fill="#8DC3EA" points="138.115,130.341 138.115,137.746 144.66,134.204 144.66,126.37 			"/>
		</g>
		<g>
			<polygon fill="#8DC3EA" points="138.115,141.716 138.115,149.12 144.66,145.579 144.66,137.746 			"/>
		</g>
		<g>
			<path fill="#C1E5F6" d="M65.621,97.72c-0.215,0.321,0,6.653,0,6.653l6.546,1.501v-5.579L65.621,97.72z"/>
		</g>
		<g>
			<g>
				<polyline fill="#C1E5F6" points="151.528,63.579 181.037,44.479 181.037,51.883 177.335,54.029 177.335,61.38 181.037,59.126 
					181.037,65.083 177.335,67.335 177.335,74.257 182.165,72.164 182.165,78.764 177.335,81.071 177.335,87.617 182.165,85.685 
					182.165,93.411 178.301,95.343 178.301,100.924 182.165,99.689 182.165,107.577 178.301,109.347 178.141,116.107 
					182.165,114.981 182.165,122.707 177.818,123.834 177.818,132.204 182.165,131.078 182.165,154.685 156.089,154.685 
					151.743,153.612 151.528,63.579 				"/>
			</g>
			<g>
				<path fill="#1867B2" d="M182.81,155.329h-26.799l-4.91-1.212l-0.218-90.887l30.799-19.935v8.959l-3.702,2.146v5.834l3.702-2.253
					v7.463l-3.702,2.254v5.578l4.83-2.092v7.986l-4.83,2.308v5.188l4.83-1.932v9.075l-3.864,1.931v4.302l3.864-1.235v9.181
					l-3.874,1.775l-0.132,5.488l4.006-1.121v9.073l-4.347,1.127v7.04l4.347-1.127V155.329z M156.167,154.041h25.354v-22.131
					l-4.346,1.126v-9.7l4.346-1.127v-6.378l-4.045,1.133l0.191-8.033l3.854-1.766v-6.593l-3.863,1.234v-6.859l3.863-1.932v-6.377
					l-4.829,1.932v-7.903l4.829-2.308v-5.212l-4.829,2.093v-8.264l3.702-2.254v-4.448l-3.702,2.253v-8.868l3.702-2.146v-5.85
					l-28.221,18.267l0.213,89.178L156.167,154.041z"/>
			</g>
		</g>
		<g>
			<rect x="52.696" y="86.43" fill="#8DC3EA" width="3.541" height="59.925"/>
		</g>
		<g>
			<polygon fill="#8DC3EA" points="83.279,93.104 83.279,99.329 89.288,101.26 89.288,95.358 			"/>
		</g>
		<g>
			<polygon fill="#8DC3EA" points="83.279,102.092 83.279,108.315 89.288,110.247 89.288,104.345 			"/>
		</g>
		<g>
			<polygon fill="#8DC3EA" points="78.512,148.308 57.097,146.978 57.097,153.758 78.12,155.289 			"/>
		</g>
		<g>
			<polygon fill="#8DC3EA" points="158.503,84.949 158.503,77.062 166.229,73.038 166.229,80.872 			"/>
		</g>
		<g>
			<polygon fill="#8DC3EA" points="83.279,111.078 83.279,117.303 89.288,119.234 89.288,113.332 			"/>
		</g>
		<g>
			<polygon fill="#8DC3EA" points="83.279,120.065 83.279,126.29 89.288,128.221 89.288,122.318 			"/>
		</g>
		<g>
			<polygon fill="#8DC3EA" points="83.279,129.052 83.279,135.276 89.288,137.208 89.288,131.306 			"/>
		</g>
		<g>
			<g>
				<polygon fill="#1867B2" points="51.857,137.959 57.33,135.188 56.479,130.368 51.857,132.855 				"/>
			</g>
			<g>
				<polygon fill="#1867B2" points="51.707,129.438 56.809,126.048 56.452,125.511 56.452,122.704 56.76,122.536 56.145,120.625 
					51.817,123.757 				"/>
			</g>
			<g>
				<polygon fill="#1867B2" points="52.054,119.569 56.858,115.655 56.452,115.156 56.452,112.018 56.894,111.601 56.01,110.665 
					52.054,114.396 				"/>
			</g>
			<g>
				<polygon fill="#1867B2" points="56.56,100.509 52.054,103.545 52.054,108.927 57.097,104.784 				"/>
			</g>
			<g>
				<polygon fill="#1867B2" points="52.054,143.907 52.054,148.629 57.134,147.359 56.345,141.363 				"/>
			</g>
			<g>
				<path fill="#1867B2" d="M78.879,88.976l-21.354-9.487l-5.903,6.182l0.432,0.905v5.22l4.816-6.114l2.686,0.956v5.179
					l-2.781-1.046l-4.716,4.553l-0.125,5.39l4.836-4.864l2.786,1.171v6.093l14.503,4.266l0.644,41.443l4.318,1.068L78.879,88.976z
					 M75.975,148.131l-0.643-41.722l-14.489-4.26v-5.985l-3.317-1.395v-2.308l3.317,1.18v-7.913l-3.294-1.172l-0.016-3.296
					l20.06,8.568l0.137,58.737L75.975,148.131z"/>
			</g>
		</g>
		<g>
			<polygon fill="#8DC3EA" points="83.279,138.039 83.279,144.585 89.288,146.194 89.288,139.971 			"/>
		</g>
		<g>
			<polyline fill="#8DC3EA" points="151.54,93.32 155.444,91.227 155.444,98.631 151.56,101.367 			"/>
		</g>
		<g>
			<polyline fill="#8DC3EA" points="151.54,105.553 155.444,103.459 155.444,110.864 151.56,113.601 			"/>
		</g>
		<g>
			<polyline fill="#8DC3EA" points="151.54,117.786 155.444,115.693 155.444,123.097 151.56,125.833 			"/>
		</g>
		<g>
			<polyline fill="#EC512C" points="151.54,130.02 155.444,127.926 155.444,135.33 151.56,138.067 			"/>
		</g>
		<g>
			<polyline fill="#8DC3EA" points="151.54,81.087 155.444,78.994 155.444,86.398 151.56,89.134 			"/>
		</g>
		<g>
			<g>
				<polygon fill="#C1E5F6" points="57.097,102.013 57.097,103.997 61.496,105.285 61.496,113.279 57.097,111.991 57.097,114.69 
					61.496,116.139 61.496,123.28 57.097,121.885 57.097,125.051 61.496,126.554 61.496,132.362 57.525,131.289 57.525,134.568 
					61.699,135.806 61.474,143.226 57.097,142.479 57.097,145.961 61.496,146.389 61.496,153.891 65.573,154.218 65.573,146.581 
					74.684,147.544 74.059,107.002 				"/>
			</g>
			<g>
				<path fill="#1867B2" d="M75.332,106.034l-18.772-5.525l0.038,4.684l3.61,1.057v5.312l-4.198-0.896l-0.201,4.958l4.399,1.449
					v4.449l-4.077-0.918l-0.322,5.37l4.399,1.503l-0.054,3.858l-3.675-0.965l-0.242,5.162l4.144,1.229l-0.15,4.948l-3.886-0.344
					l-0.536,5.766l4.399,0.428v7.522l6.653,0.531v-7.6l9.132,0.967L75.332,106.034z M66.218,147.295v7.619l-5.365-0.43v-7.511
					l-4.4-0.429v-4.829l4.4,0.75l0.188-6.183l-4.158-1.234v-4.601l3.971,1.072v-4.506l-4.4-1.503v-4.507l4.4,1.396v-5.795
					l-4.4-1.449v-4.023l4.4,1.287v-6.653l-4.4-1.288v-3.327l18.243,5.365l0.643,41.743L66.218,147.295z"/>
			</g>
			<g>
				<path fill="#1867B2" d="M74.695,106.518l-18.243-5.365v3.327l4.4,1.288v6.653l-4.4-1.287v4.023l4.4,1.449v5.795l-4.4-1.396
					v4.507l4.4,1.503v4.506l-3.971-1.072v4.601l4.158,1.234l-0.188,6.183l-4.4-0.75v4.829l4.4,0.429v7.511l5.365,0.43v-7.619
					l9.12,0.965L74.695,106.518z M65.573,146.581v7.637l-4.077-0.327v-7.501l-4.399-0.428v-3.482l4.377,0.748l0.226-7.42
					l-4.174-1.238v-3.279l3.971,1.074v-5.809l-4.399-1.502v-3.167l4.399,1.395v-7.141l-4.399-1.449v-2.699l4.399,1.288v-7.995
					l-4.399-1.288v-1.983l16.962,4.989l0.625,40.542L65.573,146.581z"/>
			</g>
		</g>
		<g>
			<polyline fill="#8DC3EA" points="151.54,142.252 155.444,140.16 155.444,147.563 151.56,150.3 			"/>
		</g>
		<g>
			<polygon fill="#8DC3EA" points="170.522,78.994 170.522,71.32 177.335,67.565 177.335,75.936 			"/>
		</g>
		<g>
			<polyline fill="#8DC3EA" points="83.279,149.566 83.279,155.772 89.288,156.417 89.288,150.729 			"/>
		</g>
		<g>
			<polyline fill="#8DC3EA" points="92.401,151.511 92.401,156.751 98.41,157.073 98.41,152.673 			"/>
		</g>
		<g>
			<polygon fill="#8DC3EA" points="65.252,107.162 65.252,114.352 72.441,116.444 72.441,109.308 			"/>
		</g>
		<g>
			<polygon fill="#EC512C" points="65.252,117.57 65.252,124.117 72.441,125.564 72.441,119.716 			"/>
		</g>
		<g>
			<polygon fill="#8EC5EA" points="154.64,85.298 154.64,154.426 182.486,154.727 181.414,72.447 			"/>
			<path fill="#1867B2" d="M183.139,155.378l-29.143-0.315V84.893l28.048-13.462L183.139,155.378z M155.283,153.789l26.551,0.287
				l-1.051-80.611l-25.5,12.238V153.789z"/>
		</g>
		<g>
			<polygon fill="#8DC3EA" points="65.252,126.692 65.252,133.237 72.441,135.33 72.441,128.194 			"/>
		</g>
		<g>
			<polygon fill="#8DC3EA" points="65.252,136.779 65.252,143.325 72.441,144.773 72.441,138.603 			"/>
		</g>
		<g>
			<polygon fill="#1867B2" points="158.503,89.778 158.503,97.72 166.229,94.768 166.229,86.559 			"/>
		</g>
		<g>
			<polygon fill="#1867B2" points="158.503,103.031 158.503,110.972 166.229,108.021 166.229,99.812 			"/>
		</g>
		<g>
			<polygon fill="#1867B2" points="158.503,116.283 158.503,124.225 166.229,121.273 166.229,113.064 			"/>
		</g>
		<g>
			<polygon fill="#1867B2" points="158.503,129.536 158.503,137.478 166.229,134.525 166.229,126.317 			"/>
		</g>
		<g>
			<polygon fill="#1867B2" points="158.503,143.432 158.503,154.272 166.229,154.218 166.229,140.858 			"/>
		</g>
		<g>
			<polygon fill="#8DC3EA" points="158.503,73.038 158.503,65.151 166.229,60.482 166.229,68.96 			"/>
		</g>
		<g>
			<rect x="124.7" y="88.651" fill="#EC512C" width="8.049" height="8.531"/>
		</g>
		<g>
			<rect x="124.7" y="99.581" fill="#8DC3EA" width="8.049" height="8.532"/>
		</g>
		<g>
			<rect x="124.7" y="110.513" fill="#8DC3EA" width="8.049" height="8.53"/>
		</g>
		<g>
			<polyline fill="#8DC3EA" points="151.54,68.854 155.444,66.761 155.444,74.165 151.56,76.901 			"/>
		</g>
		<g>
			<polygon fill="#EC512C" points="170.522,66.224 170.522,57.585 177.335,53.83 177.335,62.199 			"/>
		</g>
		<g>
			<polygon fill="#8DC3EA" points="99.912,105.392 93.259,105.392 93.259,112.849 99.912,112.957 			"/>
		</g>
		<g>
			<polygon fill="#8DC3EA" points="99.912,114.432 93.259,114.432 93.259,121.89 99.912,121.997 			"/>
		</g>
		<g>
			<polygon fill="#1867B2" points="117.726,117.048 124.7,116.927 126.472,142.117 113.97,146.355 114.291,118.645 116.723,117.691 
							"/>
			<path fill="#1867B2" d="M113.315,147.258l0.338-29.054l2.774-1.089l1.104-0.708l7.77-0.135l1.848,26.295L113.315,147.258z
				 M114.931,119.086l-0.307,26.369l11.17-3.788l-1.692-24.086l-6.182,0.107l-0.963,0.603L114.931,119.086z"/>
		</g>
		<g>
			<polygon fill="#8DC3EA" points="99.912,123.472 93.259,123.472 93.259,130.93 99.912,131.037 			"/>
		</g>
		<g>
			<polygon fill="#8DC3EA" points="99.912,132.513 93.259,132.513 93.259,139.971 99.912,140.077 			"/>
		</g>
		<g>
			<polygon fill="#8DC3EA" points="99.912,141.554 93.259,141.554 93.259,146.9 99.912,146.978 			"/>
		</g>
		<g>
			<polyline fill="#8EC5EA" points="99.912,102.441 103.023,107.564 103.023,142.145 99.92,151.139 			"/>
			<polygon fill="#1867B2" points="100.528,151.349 99.312,150.929 102.38,142.037 102.38,107.745 99.362,102.775 100.463,102.107 
				103.668,107.384 103.668,142.252 			"/>
		</g>
		<g>
			<polygon fill="#1867B2" points="170.522,140.077 182.97,135.224 182.97,148.476 170.522,150.46 			"/>
		</g>
		<g>
			<polygon fill="#1867B2" points="177.335,67.565 177.335,70.355 180.394,72.501 182.19,71.831 185.652,74.648 185.652,69.926 
				181.602,65.312 			"/>
		</g>
		<g>
			<polygon fill="#1867B2" points="177.335,53.722 177.335,56.512 180.394,58.659 182.19,57.987 185.652,60.805 185.652,56.083 
				181.602,51.469 			"/>
		</g>
		<g>
			<polygon fill="#1867B2" points="181.602,79.369 170.522,84.306 170.522,92.273 177.979,88.974 177.335,84.09 180.394,86.559 
				182.19,85.566 185.652,88.383 185.652,83.018 			"/>
		</g>
		<g>
			<polygon fill="#1867B2" points="182.245,92.782 171.166,97.867 171.166,105.834 178.623,102.856 177.979,97.504 181.037,99.65 
				182.836,98.979 186.297,101.797 186.297,97.075 			"/>
		</g>
		<g>
			<polygon fill="#1867B2" points="182.567,106.8 171.488,111.749 171.488,119.716 178.301,116.739 178.301,111.521 181.36,113.667 
				183.157,112.997 186.618,115.814 186.618,111.092 			"/>
		</g>
		<g>
			<polygon fill="#1867B2" points="181.602,120.763 170.844,125.954 170.844,133.922 177.657,130.944 177.657,125.71 
				180.394,127.63 182.19,126.959 185.652,129.777 185.652,125.056 			"/>
		</g>
		<g>
			<path fill="#1867B2" d="M182.165,155.355h-26.076l-0.154-0.019l-4.347-1.072l-0.488-0.624l-0.216-90.031l0.294-0.542
				l29.51-19.102l0.994,0.541v7.404l-0.321,0.558l-3.381,1.959v5.834l2.723-1.658l0.979,0.549v5.956l-0.31,0.55l-3.393,2.066v5.578
				l3.929-1.703l0.901,0.591v7.888l-0.4,0.595l-4.43,1.822v5.103l3.913-1.826l0.917,0.583v7.083l-0.356,0.576l-3.508,1.754v5.588
				l3.023-0.966l0.841,0.613v6.6l-0.376,0.584l-3.498,1.603l-0.132,5.487l3.188-0.891l0.818,0.62v7.726l-0.482,0.624l-3.864,1.001
				v7.04l3.54-0.917l0.807,0.623v23.608L182.165,155.355z M156.167,154.068h25.354v-22.131l-3.54,0.917l-0.806-0.622v-8.371
				l0.482-0.623l3.863-1.002v-6.379l-3.207,0.898l-0.817-0.635l0.161-6.761l0.376-0.569l3.487-1.599v-5.305l-3.023,0.967
				l-0.84-0.614v-6.868l0.355-0.576l3.508-1.753v-5.674l-3.912,1.826l-0.917-0.583v-6.546l0.399-0.595l4.43-1.822v-6.475
				l-3.929,1.702l-0.9-0.59v-6.922l0.31-0.549l3.393-2.066v-4.448l-2.724,1.658l-0.979-0.55v-7.351l0.321-0.557l3.381-1.959v-5.85
				l-28.221,18.268l0.213,89.176L156.167,154.068z"/>
		</g>
		<g>
			<polygon fill="#1867B2" points="116.545,120.165 116.545,117.89 114.68,118.663 114.61,119.353 113.329,119.224 113.475,117.768 
				117.832,115.964 117.832,118.411 124.057,116.455 124.057,82.538 134.836,83.341 134.74,84.625 125.345,83.926 125.345,117.399 
							"/>
		</g>
		<g>
			<polygon fill="#1867B2" points="100.557,151.042 92.668,148.991 92.992,147.745 99.269,149.377 99.269,103.085 92.689,103.085 
				92.689,101.797 100.557,101.797 			"/>
		</g>
		<g>
			<g>
				<path fill="#1867B2" d="M101.178,161.269l-21.331-1.653L79.628,80.11l23.021,10.837v9.923l-9.332-4.022l0.155,51.157
					l8.066,2.097L101.178,161.269z M81.132,158.422l18.803,1.459l0.284-8.792l-8.03-2.087l-0.167-54.113l9.34,4.025v-7.138
					l-20.44-9.337L81.132,158.422z"/>
			</g>
		</g>
		<g>
			<polygon fill="#1867B2" points="100.557,99.812 100.767,103.848 99.912,102.441 92.829,102.494 92.669,95.869 			"/>
		</g>
		<g>
			<polygon fill="#1867B2" points="114.337,118.804 113.817,117.625 117.645,115.937 123.311,116.937 123.087,118.205 
				117.807,117.273 			"/>
		</g>
		<g>
			<path fill="#1867B2" d="M117.726,116.605"/>
		</g>
		<g>
			<polyline fill="#1867B2" points="52.696,118.214 56.131,120.602 60.853,116.605 56.452,115.156 			"/>
		</g>
		<g>
			<polyline fill="#1867B2" points="53.057,107.498 56.49,109.885 61.212,105.888 56.812,104.439 			"/>
		</g>
		<g>
			<polyline fill="#1867B2" points="53.057,98.056 56.49,100.443 60.199,96.432 56.812,94.997 			"/>
		</g>
		<g>
			<polyline fill="#1867B2" points="52.536,90.1 55.97,90.866 60.199,86.706 56.291,85.419 			"/>
		</g>
		<g>
			<polyline fill="#1867B2" points="53.019,128.557 56.452,130.944 61.174,126.947 56.774,125.499 			"/>
		</g>
		<g>
			<polyline fill="#1867B2" points="52.375,137.329 56.774,140.683 60.989,136.779 56.452,135.237 			"/>
		</g>
		<g>
			<polyline fill="#1867B2" points="56.037,140.077 56.037,142.117 61.212,142.498 60.989,136.779 			"/>
		</g>
		<g>
			<polyline fill="#1867B2" points="56.683,129.184 56.683,131.223 61.212,131.604 60.989,127.172 			"/>
		</g>
		<g>
			<polyline fill="#1867B2" points="56.359,119.03 55.716,121.069 60.89,122.093 60.667,117.02 			"/>
		</g>
		<g>
			<polyline fill="#1867B2" points="56.037,108.982 56.037,111.022 61.212,112.046 61.312,105.363 			"/>
		</g>
		<g>
			<polyline fill="#1867B2" points="56.452,99.517 56.472,101.433 60.199,102.47 60.199,96.432 			"/>
		</g>
		<g>
			<polyline fill="#1867B2" points="56.131,89.829 56.149,91.745 60.199,92.461 60.199,86.422 			"/>
		</g>
		<g>
			<rect x="181.682" y="45.793" fill="#1867B2" width="1.288" height="108.919"/>
		</g>
		<g>
			<polygon fill="#C1E5F6" points="52.054,148.629 52.054,155.236 57.097,153.758 57.097,147.3 			"/>
		</g>
		<g>
			<g>
				<path fill="#F9FAFC" d="M109.425,138.309c2.751-0.055,5.917,1.083,5.917,1.083c1.813,0.632,3.47,3.285,3.702,5.924l1.019,16.194
					c0.23,2.639,1.599,6.624,2.564,8.903l2.76,6.511h-15.963l0,0H93.462l2.76-6.513c0.964-2.278,2.333-6.263,2.563-8.902
					l1.019-16.194c0.231-2.639,1.889-5.292,3.701-5.924C105.77,138.411,109.425,138.309,109.425,138.309z"/>
				<path fill="#1867B2" d="M126.358,177.568H92.489l3.141-7.407c1.063-2.517,2.306-6.315,2.514-8.707l1.018-16.179
					c0.256-2.917,2.058-5.75,4.108-6.484c2.352-1.009,5.983-1.121,6.137-1.125c0.074-0.001,0.145-0.002,0.214-0.002
					c2.785,0,5.812,1.077,5.938,1.123c2.056,0.717,3.87,3.561,4.127,6.474l1.02,16.209c0.208,2.379,1.448,6.177,2.515,8.694
					L126.358,177.568z M94.434,176.281h29.98l-2.38-5.616c-0.852-2.009-2.359-6.188-2.613-9.1l-1.02-16.208
					c-0.207-2.351-1.706-4.81-3.271-5.356c-0.036-0.013-3.088-1.103-5.693-1.047c-0.029,0-3.556,0.11-5.675,1.029l-0.044,0.017
					c-1.566,0.548-3.064,3.007-3.272,5.373l-1.017,16.178c-0.256,2.924-1.765,7.103-2.614,9.114L94.434,176.281z"/>
			</g>
			<g>
				<g>
					<path fill="#1867B2" d="M119.103,154.118c-10.715-4.029-19.297-0.098-19.383-0.058l-1.521-3.198
						c0.4-0.192,9.325-4.642,21.506-0.059L119.103,154.118z"/>
				</g>
			</g>
			<g>
				<g>
					<path fill="#1867B2" d="M120.925,165.61c-12.896-4.568-22.509-0.471-22.611-0.426l-1.832-3.625
						c0.483-0.217,8.607-5.84,23.269-0.644L120.925,165.61z"/>
				</g>
			</g>
			<g>
				<path fill="#1867B2" d="M109.669,169.767c-3.189,0-6.194-0.326-8.463-0.916c-2.6-0.678-3.92-1.614-3.92-2.785
					c0-1.17,1.32-2.107,3.92-2.784c2.269-0.592,5.273-0.917,8.463-0.917c3.188,0,6.194,0.325,8.463,0.917
					c2.601,0.677,3.919,1.614,3.919,2.784c0,1.17-1.318,2.107-3.919,2.785C115.863,169.441,112.856,169.767,109.669,169.767z
					 M109.669,163.653c-7.179,0-11.095,1.595-11.095,2.413c0,0.819,3.916,2.413,11.095,2.413s11.095-1.594,11.095-2.413
					C120.764,165.248,116.848,163.653,109.669,163.653z"/>
			</g>
			<g>
				<ellipse fill="#F9FAFC" cx="109.859" cy="176.924" rx="16.6" ry="3.057"/>
				<path fill="#1867B2" d="M109.859,180.625c-0.705,0-17.244-0.042-17.244-3.701c0-0.773,0.559-1.905,5.389-2.794
					c3.172-0.585,7.383-0.906,11.855-0.906c0.703,0,17.243,0.042,17.243,3.7c0,0.774-0.559,1.906-5.39,2.795
					C118.541,180.303,114.33,180.625,109.859,180.625z M109.859,174.511c-10.001,0-15.705,1.58-15.958,2.427
					c0.253,0.819,5.957,2.399,15.958,2.399c10,0,15.705-1.58,15.957-2.427C125.564,176.091,119.859,174.511,109.859,174.511z"/>
			</g>
			<g>
				<path fill="#1867B2" d="M98.964,175.128l-0.058-1.286c0.934-0.042,2.271-1.8,3.343-9.923c0.068-0.515,0.113-0.855,0.151-1.04
					c0.332-1.601,0.439-8.894,0.451-12.565c-1.114-8.936,4.579-12.325,4.823-12.464l0.642,1.116l-0.321-0.559l0.323,0.557
					c-0.213,0.125-5.21,3.146-4.185,11.229l0.006,0.042l-0.001,0.042c-0.001,0.437-0.034,10.729-0.478,12.864
					c-0.028,0.138-0.075,0.495-0.135,0.946C102.815,169.477,101.718,175.002,98.964,175.128z"/>
			</g>
			<g>
				<path fill="#1867B2" d="M120.246,175.128c-2.753-0.126-3.851-5.651-4.562-11.041c-0.06-0.451-0.107-0.808-0.135-0.946
					c-0.442-2.135-0.478-12.427-0.479-12.864l-0.001-0.042l0.006-0.042c1.025-8.083-3.971-11.104-4.185-11.229l0.645-1.115
					c0.243,0.14,5.938,3.528,4.823,12.464c0.012,3.672,0.119,10.964,0.451,12.565c0.037,0.185,0.083,0.525,0.15,1.04
					c1.071,8.123,2.41,9.881,3.345,9.923L120.246,175.128z"/>
			</g>
			<g>
				<line fill="#F9FAFC" x1="109.425" y1="138.309" x2="109.425" y2="173.867"/>
				<rect x="108.78" y="138.309" fill="#1867B2" width="1.287" height="35.559"/>
			</g>
		</g>
		<g>
			<g>
				<path fill="#F9FAFC" d="M176.602,162.582c0.055,2.752-1.083,5.917-1.083,5.917c-0.632,1.812-3.285,3.47-5.924,3.702
					L153.4,173.22c-2.639,0.23-6.624,1.599-8.903,2.563l-6.511,2.76v-15.962h0.001v-15.962l6.512,2.76
					c2.278,0.965,6.264,2.334,8.902,2.565l16.194,1.018c2.639,0.231,5.291,1.888,5.924,3.701
					C176.5,158.925,176.602,162.582,176.602,162.582z"/>
				<path fill="#1867B2" d="M137.343,179.516v-33.869l7.407,3.138c2.517,1.066,6.315,2.308,8.708,2.516l16.178,1.018
					c2.917,0.255,5.751,2.058,6.483,4.108c1.01,2.35,1.122,5.982,1.126,6.136c0.058,2.844-1.072,6.019-1.12,6.153
					c-0.717,2.055-3.561,3.869-6.474,4.125l-16.209,1.02c-2.38,0.208-6.179,1.45-8.694,2.515L137.343,179.516z M138.631,147.59
					v29.981l5.614-2.38c2.011-0.85,6.188-2.359,9.101-2.612l16.209-1.021c2.35-0.207,4.811-1.706,5.356-3.271
					c0.013-0.036,1.099-3.094,1.046-5.692c0-0.031-0.11-3.556-1.028-5.677l-0.017-0.043c-0.547-1.567-3.008-3.064-5.373-3.271
					l-16.178-1.018c-2.924-0.255-7.103-1.763-9.113-2.614L138.631,147.59z"/>
			</g>
			<g>
				<g>
					<path fill="#1867B2" d="M160.793,172.26c4.029-10.715,0.097-19.297,0.057-19.383l3.198-1.521
						c0.191,0.401,4.642,9.324,0.06,21.506L160.793,172.26z"/>
				</g>
			</g>
			<g>
				<g>
					<path fill="#1867B2" d="M149.301,174.082c4.568-12.896,0.471-22.509,0.426-22.611l3.625,0.1
						c0.218,0.483,5.84,6.675,0.646,21.336L149.301,174.082z"/>
				</g>
			</g>
			<g>
				<path fill="#1867B2" d="M148.845,175.208c-1.171,0-2.108-1.318-2.785-3.919c-0.591-2.27-0.916-5.274-0.916-8.463
					c0-3.188,0.325-6.194,0.916-8.463c0.677-2.601,1.614-3.919,2.785-3.919c1.17,0,2.107,1.318,2.783,3.919
					c0.591,2.269,0.917,5.275,0.917,8.463c0,3.189-0.326,6.193-0.917,8.463C150.952,173.89,150.015,175.208,148.845,175.208z
					 M148.845,151.731c-0.82,0-2.413,3.916-2.413,11.094s1.593,11.095,2.413,11.095c0.818,0,2.411-3.916,2.411-11.095
					S149.663,151.731,148.845,151.731z"/>
			</g>
			<g>
				<ellipse fill="#F9FAFC" cx="137.986" cy="163.016" rx="3.057" ry="16.6"/>
				<path fill="#1867B2" d="M137.986,180.26c-0.773,0-1.904-0.558-2.795-5.39c-0.584-3.173-0.906-7.383-0.906-11.854
					c0-0.705,0.043-17.245,3.701-17.245c0.774,0,1.905,0.559,2.795,5.39c0.584,3.172,0.906,7.382,0.906,11.855
					C141.688,163.72,141.645,180.26,137.986,180.26z M137.973,147.059c-0.819,0.253-2.399,5.957-2.399,15.958
					c0,9.947,1.563,15.643,2.413,15.952c0.85-0.31,2.413-6.005,2.413-15.952C140.399,153.015,138.819,147.312,137.973,147.059z"/>
			</g>
			<g>
				<path fill="#1867B2" d="M175.946,161.476c-0.125-0.213-3.143-5.21-11.23-4.185l-0.082,0.004
					c-0.437-0.001-10.729-0.035-12.863-0.476c-0.139-0.03-0.495-0.076-0.947-0.136c-5.389-0.709-10.915-1.808-11.04-4.562
					l1.286-0.059c0.043,0.935,1.799,2.273,9.923,3.345c0.515,0.067,0.854,0.112,1.039,0.151c1.602,0.331,8.895,0.439,12.565,0.449
					c8.935-1.113,12.324,4.581,12.465,4.823L175.946,161.476z"/>
			</g>
			<g>
				<path fill="#1867B2" d="M141.069,173.462l-1.286-0.059c0.125-2.754,5.651-3.852,11.04-4.562c0.452-0.06,0.809-0.106,0.947-0.136
					c2.135-0.441,12.427-0.477,12.863-0.477l0.083,0.004c8.123,1.029,11.198-4.13,11.229-4.183l1.116,0.643
					c-0.141,0.243-3.527,5.938-12.465,4.823c-3.671,0.011-10.964,0.119-12.564,0.451c-0.186,0.038-0.525,0.083-1.04,0.151
					C142.868,171.189,141.112,172.527,141.069,173.462z"/>
			</g>
			<g>
				<line fill="#F9FAFC" x1="176.602" y1="162.582" x2="141.043" y2="162.582"/>
				<rect x="141.043" y="161.938" fill="#1867B2" width="35.559" height="1.287"/>
			</g>
		</g>
		<g>
			<path fill="#C1E5F6" d="M56.452,146.544"/>
		</g>
		<g>
			<g>
				<polygon fill="#1867B2" points="78.402,159.473 57.607,157.146 51.294,159.353 51.294,154.794 57.053,152.224 78.939,154.674 
									"/>
			</g>
		</g>
		<g>
			<polygon fill="#C1E5F6" points="182.165,158.509 182.486,175.25 217.255,173.64 218.837,161.187 			"/>
			<path fill="#1867B2" d="M181.855,175.923l-0.349-18.107l38.055,2.778l-1.736,13.664L181.855,175.923z M182.821,159.202
				l0.296,15.373l33.567-1.553l1.429-11.243L182.821,159.202z"/>
		</g>
		<g>
			<path fill="#8EC5EA" d="M182.165,158.509h-5.887c0,0,3.311,15.105-10.049,13.91c-13.36-1.193,16.257,2.831,16.257,2.831
				L182.165,158.509z"/>
			<path fill="#1867B2" d="M183.145,175.988l-0.745-0.102c-0.049-0.006-4.994-0.678-9.874-1.382
				c-2.866-0.415-5.151-0.758-6.789-1.023c-0.978-0.158-1.735-0.29-2.252-0.391c-0.814-0.16-1.401-0.274-1.359-0.901
				c0.028-0.421,0.338-0.634,0.921-0.634c0.494,0,1.554,0.074,3.24,0.224c0.48,0.043,0.949,0.065,1.395,0.065
				c0.001,0,0.001,0,0.002,0c2.828,0,4.965-0.873,6.351-2.593c3.055-3.792,1.63-10.537,1.616-10.604l-0.17-0.781h7.316
				L183.145,175.988z M170.286,172.874c3.657,0.542,8.045,1.158,11.542,1.635l-0.296-15.357h-4.484
				c0.311,2.011,0.805,7.403-2.01,10.901C173.868,171.509,172.275,172.451,170.286,172.874z"/>
		</g>
		<g>
			<path fill="#F9FAFC" d="M129.128,117.473c2.752-0.056,5.917,1.082,5.917,1.082c1.813,0.633,3.471,3.286,3.702,5.924l1.019,16.194
				c0.23,2.639,1.599,6.624,2.564,8.903l2.76,6.511h-15.963v0h-15.962l2.76-6.512c0.964-2.279,2.334-6.263,2.564-8.903l1.019-16.193
				c0.23-2.639,1.888-5.292,3.7-5.924C125.472,117.574,129.128,117.473,129.128,117.473z"/>
			<path fill="#1867B2" d="M146.062,156.731l-33.868,0l3.139-7.406c1.065-2.517,2.307-6.315,2.516-8.708l1.018-16.178
				c0.255-2.917,2.057-5.751,4.108-6.484c2.351-1.009,5.981-1.121,6.136-1.125c0.075-0.002,0.145-0.003,0.215-0.003
				c2.785,0,5.812,1.078,5.938,1.123c2.055,0.717,3.869,3.561,4.126,6.475l1.02,16.209c0.208,2.379,1.449,6.177,2.515,8.693
				L146.062,156.731z M114.138,155.443h29.979l-2.38-5.615c-0.852-2.01-2.359-6.189-2.612-9.099l-1.021-16.209
				c-0.207-2.35-1.705-4.811-3.271-5.356c-0.035-0.014-3.093-1.107-5.692-1.047c-0.03,0-3.556,0.11-5.677,1.028l-0.043,0.018
				c-1.566,0.546-3.064,3.007-3.271,5.373l-1.019,16.178c-0.255,2.924-1.762,7.103-2.613,9.113L114.138,155.443z"/>
		</g>
		<g>
			<g>
				<path fill="#1867B2" d="M138.806,133.281c-10.715-4.029-19.297-0.096-19.383-0.056l-1.521-3.198
					c0.401-0.193,9.325-4.642,21.508-0.06L138.806,133.281z"/>
			</g>
		</g>
		<g>
			<g>
				<path fill="#1867B2" d="M140.628,144.773c-12.896-4.568-22.509-0.471-22.611-0.425l-1.831-3.626
					c0.482-0.217,8.605-5.839,23.268-0.645L140.628,144.773z"/>
			</g>
		</g>
		<g>
			<path fill="#1867B2" d="M129.03,148.93c-3.1,0-6.021-0.325-8.226-0.917c-2.531-0.679-3.814-1.616-3.814-2.784
				c0-1.167,1.283-2.104,3.814-2.783c2.205-0.591,5.126-0.918,8.226-0.918c3.098,0,6.019,0.327,8.225,0.918
				c2.531,0.679,3.814,1.616,3.814,2.783c0,1.168-1.283,2.105-3.814,2.784C135.049,148.604,132.128,148.93,129.03,148.93z
				 M129.03,142.816c-6.958,0-10.752,1.594-10.752,2.413c0,0.82,3.794,2.413,10.752,2.413c6.956,0,10.752-1.592,10.752-2.413
				C139.782,144.411,135.986,142.816,129.03,142.816z"/>
		</g>
		<g>
			<ellipse fill="#F9FAFC" cx="129.562" cy="156.087" rx="16.601" ry="3.057"/>
			<path fill="#1867B2" d="M129.562,159.788c-0.703,0-17.243-0.042-17.243-3.7c0-0.773,0.559-1.905,5.39-2.795
				c3.172-0.584,7.382-0.906,11.854-0.906c0.705,0,17.245,0.042,17.245,3.701c0,0.774-0.559,1.905-5.39,2.794
				C138.244,159.466,134.034,159.788,129.562,159.788z M129.562,153.675c-10.001,0-15.703,1.58-15.957,2.427
				c0.254,0.819,5.956,2.398,15.957,2.398c10.002,0,15.705-1.58,15.959-2.426C145.267,155.255,139.563,153.675,129.562,153.675z"/>
		</g>
		<g>
			<path fill="#1867B2" d="M118.667,154.292l-0.059-1.287c0.935-0.042,2.273-1.799,3.345-9.923c0.067-0.514,0.112-0.854,0.15-1.039
				c0.332-1.601,0.44-8.894,0.45-12.566c-1.113-8.936,4.58-12.323,4.824-12.464l0.644,1.116c-0.214,0.125-5.209,3.145-4.185,11.229
				l0.005,0.041v0.042c-0.001,0.437-0.035,10.729-0.477,12.864c-0.03,0.139-0.076,0.496-0.136,0.946
				C122.519,148.64,121.421,154.166,118.667,154.292z"/>
		</g>
		<g>
			<path fill="#1867B2" d="M139.95,154.292c-2.755-0.125-3.853-5.652-4.562-11.042c-0.06-0.45-0.106-0.808-0.136-0.947
				c-0.441-2.134-0.476-12.427-0.477-12.863l0.004-0.083c1.03-8.125-4.13-11.197-4.183-11.228l0.643-1.116
				c0.244,0.142,5.938,3.528,4.823,12.464c0.011,3.672,0.119,10.965,0.45,12.566c0.039,0.185,0.083,0.525,0.151,1.039
				c1.071,8.125,2.409,9.881,3.345,9.923L139.95,154.292z"/>
		</g>
		<g>
			<line fill="#F9FAFC" x1="129.128" y1="117.473" x2="129.128" y2="153.03"/>
			<rect x="128.483" y="117.473" fill="#1867B2" width="1.288" height="35.558"/>
		</g>
	</g>
</g>
</svg>
