<?xml version="1.0" encoding="utf-8"?>
<!-- Generator: Adobe Illustrator 16.0.4, SVG Export Plug-In . SVG Version: 6.00 Build 0)  -->
<!DOCTYPE svg PUBLIC "-//W3C//DTD SVG 1.1//EN" "http://www.w3.org/Graphics/SVG/1.1/DTD/svg11.dtd">
<svg version="1.1" id="Layer_1" xmlns="http://www.w3.org/2000/svg" xmlns:xlink="http://www.w3.org/1999/xlink" x="0px" y="0px"
	 width="720px" height="720px" viewBox="0 0 720 720" enable-background="new 0 0 720 720" xml:space="preserve">
<rect x="268.688" y="456.132" fill="#FBD8C5" width="180.519" height="252"/>
<path fill="#3D3039" d="M189.804,592.587c0,0-112,59.99-105.5,128.99h232.882l-60.415-134.675"/>
<path fill="#3D3039" d="M559.04,592.587c0,0,112,59.99,105.5,128.99H431.657l60.415-134.675"/>
<path fill="#FFFFFF" d="M280.406,656.132c0,0,89.789,83.535,178.325-5l-16.438,70.611H305.47L280.406,656.132z"/>
<path fill="#EDC0AE" d="M359.449,479.554l-82.845-1.248c0,0,15.168,79.326,82.845,78.555c67.676,0.771,82.844-78.555,82.844-78.555
	L359.449,479.554z"/>
<path fill="#D09B7F" d="M277.622,481.995c0,0-12.024,75.146-6.74,92.146c0,0-106.976-40.903-61.976-257.738
	c0,0,34.068-133.225,86.296-116.583C295.202,199.821,231.646,336.453,277.622,481.995z"/>
<path fill="#CEA27D" d="M504.094,552.462c14.052,7.24,27.049,28.344,35.87,40.352c10.072,13.711,15.866,26.136,22.376,41.795
	c8.264,19.879,7.727,39.854-0.894,59.884c-5.422,12.596-13.539,20.752-21.884,31.086c-1.94-14.687,8.338-29.834-6.95-40.632
	c-10.952-7.733-25.271-8.709-33.869-19.334c-14.558-17.987-24.707-43.276-24.649-66.563c0.044-17.682,4.406-32.887,14.667-47.252"/>
<linearGradient id="SVGID_1_" gradientUnits="userSpaceOnUse" x1="221.728" y1="305.3086" x2="252.772" y2="305.3086" gradientTransform="matrix(1 0 0 -1 0 703)">
	<stop  offset="0" style="stop-color:#E8B69E"/>
	<stop  offset="1" style="stop-color:#E8B69E"/>
</linearGradient>
<path fill="url(#SVGID_1_)" d="M228.304,376.632c2.637,4.383,8.461,11.279,13.013,13.898c2.727,1.567,8.238,2.345,11.4,3.188
	c0.511,8.736-2.57,14.46-8.804,20.551c-4.7,4.592-13.124,6.844-18.107,0.875c-5.931-7.104-5.359-30.891,1.498-37.012"/>
<path fill="#E4AC8B" d="M503.437,389.382c0,0,0.682,36.455-24.234,18.904c0,0,11,44.104-42.291,86.61
	c0,0-60.242,223.84,30.9,227.174c0,0-23.947-26-4.402-36.668c0,0,54.877,50.002,80.877,36.668c0,0-31.998-20.666-27.332-42
	c0,0,28-80.668-3.334-131.334c0,0,39.59-50.895,40.814-97.563"/>
<path fill="#C29879" d="M488.866,350.465c0,0-6.356,40.866-6.527,47.583c-0.167,6.553,28.611-2.541,21.538-19.229
	C496.804,362.132,488.866,350.465,488.866,350.465z"/>
<path fill="#FBD8C5" d="M279.804,245.632c16.366-4.762,31.279-14.304,46.97-20.961c13.462-5.711,28.48-8.043,41.64-14.199
	c5.146-2.408,7.018-5.559,10.354-9.816c3.856-4.921,8.664-7.263,4.562-12.649c-3.773-4.957-9.234-5.49-15.059-5.386
	c-13.396,0.238-27.069,1.687-40.32,3.351c-9.793,1.23-19.629,2.979-29.349,4.699c-2.862,0.506-4.577,0.373-7.175,1.899
	c-6.554,3.851-10.438,10.24-12.323,17.461c-1.687,6.457-0.241,14.153-2.702,20.264c-2.03,5.042-7.572,8.591-11.054,12.621
	c-5.963,6.902-11.267,14.421-16.054,22.177c0,0-14.217,99.333,0,128.665c0,0,2.844,64.668,16.349,74.668
	c13.505,10,40.517,65.332,99.16,62c58.646,3.332,85.656-52,99.161-62c13.507-10,18.755-72.689,18.755-72.689
	c14.219-29.333-2.404-130.644-2.404-130.644c-46.914-76-115.512-72-115.512-72s-47.296-2.758-90.204,39.82"/>
<linearGradient id="SVGID_2_" gradientUnits="userSpaceOnUse" x1="225.8931" y1="180.1309" x2="225.8931" y2="462.0054" gradientTransform="matrix(-1 0 0 -1 501.2539 703)">
	<stop  offset="0" style="stop-color:#E8B69E;stop-opacity:0"/>
	<stop  offset="1" style="stop-color:#E8B69E"/>
</linearGradient>
<path fill="url(#SVGID_2_)" d="M252.804,364.233c0,0,15.032-40.105,12.881-55.701c-4.906-35.57-2.673-53.606,1.656-67.535
	c-6.23,7.062-12.302,15.163-18.048,24.471c0,0-14.217,99.333,0,128.666c0,0,2.844,64.669,16.349,74.669
	c8.015,5.934,20.788,27.836,42.106,43.965l-8.896-21.899L252.804,364.233z"/>
<g>
	
		<linearGradient id="SVGID_3_" gradientUnits="userSpaceOnUse" x1="327.1646" y1="290.8828" x2="361.0435" y2="290.8828" gradientTransform="matrix(1 0 0 -1 0 703)">
		<stop  offset="0" style="stop-color:#E8B69E"/>
		<stop  offset="1" style="stop-color:#E8B69E"/>
	</linearGradient>
	<path fill="url(#SVGID_3_)" d="M347.177,407.132c0.571-1.445,1.286-5.408,2.052-10.687c-2.907-0.065-19.273,0.125-21.854,12.724
		c0,0-4.757,22.07,30.98,18.162C351.274,422.688,345.179,412.192,347.177,407.132z"/>
	
		<linearGradient id="SVGID_4_" gradientUnits="userSpaceOnUse" x1="368.5635" y1="292.1958" x2="402.4429" y2="292.1958" gradientTransform="matrix(1 0 0 -1 0 703)">
		<stop  offset="0" style="stop-color:#E8B69E"/>
		<stop  offset="1" style="stop-color:#E8B69E"/>
	</linearGradient>
	<path fill="url(#SVGID_4_)" d="M402.232,407.855c-2.564-12.515-18.734-12.786-21.799-12.724c0.838,5.93,1.623,10.437,2.24,12
		c1.832,4.641-3.55,13.984-9.804,19.049C406.844,429.251,402.232,407.855,402.232,407.855z"/>
	
		<linearGradient id="SVGID_5_" gradientUnits="userSpaceOnUse" x1="364.8047" y1="378.8691" x2="364.8047" y2="273.3647" gradientTransform="matrix(1 0 0 -1 0 703)">
		<stop  offset="0" style="stop-color:#E8B69E;stop-opacity:0"/>
		<stop  offset="1" style="stop-color:#E8B69E"/>
	</linearGradient>
	<path fill="url(#SVGID_5_)" d="M374.555,343.882c-0.25-10.25,16-19.75,16-19.75h-25.75h-25.75c0,0,16.25,9.5,16,19.75
		c0,0-5.446,56.784-7.999,63.25c-2.609,6.609,8.583,22.5,17.749,22.5c8.334,0.273,20.358-15.891,17.75-22.5
		C380.001,400.665,374.555,343.882,374.555,343.882z"/>
	<path fill="#7D3833" d="M342.292,418.997c-1.722-0.035-4.18-0.203-5.431,1.1c-0.834,0.871-0.909,2.545-0.304,3.57
		c0.588,0.994,1.266,0.906,2.427,0.949c2.449,0.09,4.667-0.484,7.105-0.455c2.314,0.024,3.723,1.188,5.715,1.953
		C351.805,426.114,350.039,419.147,342.292,418.997z"/>
	<path fill="#EFBDAE" d="M338.111,398.048c0,0,15.82-46.25,11.382-65.583c0,0,13.562-7.171,0.062,63.997
		C349.555,396.462,339.054,397.715,338.111,398.048z"/>
	<path fill="#7D3833" d="M387.073,417.683c1.722-0.033,4.18-0.203,5.431,1.101c0.834,0.87,0.909,2.547,0.305,3.571
		c-0.588,0.992-1.266,0.906-2.428,0.947c-2.449,0.092-4.666-0.482-7.105-0.455c-2.313,0.027-3.723,1.189-5.715,1.955
		C377.561,424.802,379.326,417.835,387.073,417.683z"/>
	<path fill="#EFBDAE" d="M391.254,396.733c0,0-15.82-46.249-11.382-65.582c0,0-13.562-7.171-0.062,63.998
		C379.811,395.149,390.311,396.401,391.254,396.733z"/>
</g>
<g>
	<path fill="#F1C7B1" d="M323.232,406.798c0,0-30.333,23-31.333,31.666c0,0,0.667,14.668,3.667,14.668c0,0-1.683-12.334,4.999-18
		C300.565,435.132,322.232,409.464,323.232,406.798z"/>
	<path fill="#F1C7B1" d="M406.375,406.798c0,0,30.333,23,31.333,31.666c0,0-0.666,14.668-3.666,14.668c0,0,1.684-12.334-5-18
		C429.042,435.132,407.376,409.464,406.375,406.798z"/>
</g>
<g>
	<path fill="#F4F8F5" d="M305.47,448.218c0,0,8.083,30.414,59.333,31.914c0,0,52.657-11.719,58.232-31.914
		C423.036,448.218,347.137,459.554,305.47,448.218z"/>
	<path fill="#D59091" d="M364.805,449.339c-34.75-7.5-65,0-65,0c20.333,1.834,65,7,65,7s44.666-5.166,64.999-7
		C429.804,449.339,399.554,441.839,364.805,449.339z"/>
	<path fill="#F599A5" d="M394.6,469.796c-4.668,0.381-26.619,5.359-30.347,6.209c-3.726-0.85-25.676-5.828-30.344-6.209
		c0,0-14.305-4.824-28.438-19.922c0,0,17.185,41.631,58.783,39.776c41.6,1.854,58.783-39.776,58.783-39.776
		C408.903,464.972,394.6,469.796,394.6,469.796z"/>
</g>
<g>
	<path fill="#71745D" d="M281.613,347.048c-3.198,0.763-7.931,2.223-10.731-0.193c4.266-0.178,6.636-1.954,10.211-3.7
		c-1.906,1.153-6.308,1.153-7.448-1.062c4.399,1.189,7.656-0.34,11.643-2.058c-1.967,0.364-2.509,0.389-4.542,0.285
		c-0.046-0.334-1.623-0.66-1.589-0.99c2.74,0.775,8.568-2.017,10.774-3.384"/>
	<g>
		<path fill="#9B6B68" d="M331.688,334.799c0,0-32.666-23-63,10.667C268.688,345.466,290.688,304.799,331.688,334.799z"/>
		<ellipse fill="#71745D" cx="306.52" cy="342.965" rx="11.333" ry="10.167"/>
		<path fill="#71745D" d="M338.603,349.215c0,0-33.75-39.5-64-1.25l6.25,2.5c0,0,10.105-15.199,23.25-15.851
			C317.247,333.962,333.603,345.965,338.603,349.215z"/>
		<path fill="#DA9C92" d="M255.519,324.466v-7.667l11.333-12.333h25.667h22.667l13.333,11.667l8.333,8.333
			c0,0-37.333-6.667-43.333-10s-25.333-1.667-25.333-1.667L255.519,324.466z"/>
	</g>
</g>
<path fill="#D09B7F" d="M294.804,128.132c-12.72,4.011-9.39,22.367-6.873,32.706c3.055,12.547,5.312,22.702-1.177,33.792
	c2.429,4.354,10.441,3.781,14.55,2.5c8.846-2.757,15.616-13.06,21.375-19.486c2.643-2.949,6.452-6.687,5.683-10.68
	c-0.338-1.76-3.246-5.442-4.033-7.27c-2.867-6.66-4.266-15.02-8.499-20.974c-4.171-5.868-13.365-9.284-20.027-10.588"/>
<g>
	<path fill="#71745D" d="M448,347.048c3.198,0.763,7.931,2.223,10.731-0.193c-4.268-0.178-6.638-1.954-10.211-3.7
		c1.905,1.153,6.307,1.153,7.446-1.062c-4.397,1.189-7.654-0.34-11.643-2.058c1.968,0.364,2.51,0.389,4.542,0.285
		c0.046-0.334,1.622-0.66,1.589-0.99c-2.74,0.775-8.568-2.017-10.773-3.384"/>
	<g>
		<path fill="#9B6B68" d="M397.925,334.799c0,0,32.666-23,63,10.667C460.925,345.466,438.925,304.799,397.925,334.799z"/>
		<ellipse fill="#71745D" cx="423.093" cy="342.965" rx="11.333" ry="10.167"/>
		<path fill="#71745D" d="M391.01,349.215c0,0,33.75-39.5,64-1.25l-6.25,2.5c0,0-10.104-15.199-23.25-15.851
			C412.366,333.962,396.01,345.965,391.01,349.215z"/>
		<path fill="#DA9C92" d="M474.094,324.466v-7.667l-11.333-12.333h-25.667h-22.667l-13.333,11.667l-8.332,8.333
			c0,0,37.332-6.667,43.332-10s25.333-1.667,25.333-1.667L474.094,324.466z"/>
	</g>
</g>
<linearGradient id="SVGID_6_" gradientUnits="userSpaceOnUse" x1="454.707" y1="186.2041" x2="454.707" y2="371.8853" gradientTransform="matrix(1 0 0 -1 0 703)">
	<stop  offset="0" style="stop-color:#E8B69E;stop-opacity:0"/>
	<stop  offset="1" style="stop-color:#E8B69E"/>
</linearGradient>
<path fill="url(#SVGID_6_)" d="M464.346,468.575c13.507-10,18.373-72.841,18.373-72.841c3.933-8.11,5.057-21.065,5.541-36.301
	c-3.857-14.146-12.508-28.321-12.508-28.321c13,41.818-43,153.684-43,153.684l-11.599,28.551
	C443.123,497.149,456.196,474.608,464.346,468.575z"/>
<g opacity="0.4">
	<path fill="#D99C86" d="M264.965,395.128c0,0-7.334,61.332,26,82.332C290.965,477.46,266.13,433.433,264.965,395.128z"/>
	<path fill="#D99C86" d="M464.641,395.128c0,0,7.336,61.332-25.998,82.332C438.643,477.46,463.477,433.433,464.641,395.128z"/>
</g>
<path fill="#F2C29F" d="M289.352,132.487c0,0,19.341,11.333,8.289,34c0,0-7.159,32.667-2.439,33.333
	c0,0-46.613-26.369-77.946,136.149c0,0-12.667,155.848,26.667,169.182c0,0,63.042,130.668,61.521,153.334
	c0,0,0.579,25.332-12.804,28.666c0,0,2.617-20-10.716-29.332c0,0-31.733,35.332-8.867,59.332c0,0-118.466,32.666-129.8-134
	c0,0,12.667,8.002,26-16.666C169.256,566.485,110.781,293.155,289.352,132.487z"/>
<path fill="#EEC7AC" d="M266.88,187.061c0,0-120.146,234.091,3.721,410.091c0,0-57.268-17.334-56.034-45.334
	c0,0,18.779,56.668,28.007,53.334c0,0-20.772,3.998-40.772-15.334c0,0,3.333,29.334,12.667,30.666c0,0-48-27.998-50.667-71.332
	C163.802,549.151,118.625,294.97,266.88,187.061z"/>
<g>
	<path fill="#FFE3C2" d="M671.163,387.663c0.062-0.367,0.103-0.742,0.103-1.127c0-0.338-0.032-0.668-0.081-0.993
		c-0.124,0.932-0.248,1.794-0.367,2.581C670.934,387.976,671.053,387.825,671.163,387.663z"/>
	<path fill="#E4AC8B" d="M670.621,389.382c0.255-0.537,0.438-1.113,0.542-1.719c-0.11,0.162-0.229,0.312-0.347,0.461
		C670.749,388.571,670.684,388.989,670.621,389.382z"/>
</g>
<path fill="#C29879" d="M501.055,402.681c-0.002,3.529-1.426,25.437-21.944,11.953c-1.67,30.621-45.414,88.311-45.414,88.311
	c-8.711,3.334-16.312,111-16.312,111c1.957-47.334,75.146-107.331,75.146-107.331C517.32,477.278,501.055,402.681,501.055,402.681z"
	/>
<g>
	
		<linearGradient id="SVGID_7_" gradientUnits="userSpaceOnUse" x1="478.7188" y1="302.123" x2="503.877" y2="302.123" gradientTransform="matrix(1 0 0 -1 0 703)">
		<stop  offset="0" style="stop-color:#E8B69E"/>
		<stop  offset="1" style="stop-color:#E8B69E"/>
	</linearGradient>
	<path fill="url(#SVGID_7_)" d="M482.719,395.735l-4,19.609c0,0,16.566,16.721,24.233,0.527c0,0,3.766-31.388-3.9-37.054
		C499.052,378.819,505.386,398.983,482.719,395.735z"/>
	<circle fill="#FFE3C2" cx="493.262" cy="409.202" r="6.67"/>
	<path fill="#CBB79E" d="M493.262,403.772c0,0-9,3.388-1.333,10.861C491.929,414.634,488.595,408.438,493.262,403.772z"/>
	<circle fill="#FFE3C2" cx="231.304" cy="406.798" r="6.67"/>
	<path fill="#CBB79E" d="M231.304,401.368c0,0-9,3.387-1.333,10.859C229.971,412.229,226.637,406.034,231.304,401.368z"/>
</g>
<path fill="#E4AC8B" d="M291.752,129.818c0,0,19.963,4.854,8.289,35.312c0,0-7.855,32.586,2.762,33.253
	c0,0,81.863-29.92,135.691,30.08c0,0,38.1,81.002,43.162,103.481c0,0,20.401,97.345,41.067,101.681l27.5,43.838
	c0,0,47.078-287.331-147.93-363.002C370.005,101.93,331.541,111.084,291.752,129.818z"/>
</svg>
