<?xml version="1.0" encoding="utf-8"?>
<!-- Generator: Adobe Illustrator 16.0.4, SVG Export Plug-In . SVG Version: 6.00 Build 0)  -->
<!DOCTYPE svg PUBLIC "-//W3C//DTD SVG 1.1//EN" "http://www.w3.org/Graphics/SVG/1.1/DTD/svg11.dtd">
<svg version="1.1" id="Layer_1" xmlns="http://www.w3.org/2000/svg" xmlns:xlink="http://www.w3.org/1999/xlink" x="0px" y="0px"
	 width="648.59px" height="655px" viewBox="0 0 648.59 655" enable-background="new 0 0 648.59 655" xml:space="preserve">
<path fill="#CEB4BD" d="M46.735,604.384c0,0,291-166.461,538,7.103v54.562h-535L46.735,604.384z"/>
<polyline fill="#CEB4BD" points="213.385,591.048 227.448,665.048 405.218,665.048 424.734,581.562 354.734,543.721 224.03,546.533 
	"/>
<linearGradient id="SVGID_1_" gradientUnits="userSpaceOnUse" x1="220.9136" y1="88.5576" x2="413.5547" y2="88.5576" gradientTransform="matrix(1 0 0 -1 0 638)">
	<stop  offset="0" style="stop-color:#B97A50"/>
	<stop  offset="0.8626" style="stop-color:#B97A50"/>
	<stop  offset="1" style="stop-color:#B97A50"/>
</linearGradient>
<path fill="url(#SVGID_1_)" d="M319.164,461.599v-0.053l-98.25-2.284v74.605c0,0,47.909,103.908,93.179,105.756h1.21
	c46.292,0,98.252-105.613,98.252-105.613v-74.604L319.164,461.599z"/>
<linearGradient id="SVGID_2_" gradientUnits="userSpaceOnUse" x1="431.9697" y1="278.5718" x2="477.915" y2="278.5718" gradientTransform="matrix(1 0 0 -1 0 638)">
	<stop  offset="0" style="stop-color:#B97A50"/>
	<stop  offset="0.8626" style="stop-color:#B97A50"/>
	<stop  offset="1" style="stop-color:#B97A50"/>
</linearGradient>
<path fill="url(#SVGID_2_)" d="M467.672,299.012c0,0,15.811-3.371,8.146,45.715c-7.667,49.088-24.274,58.598-24.274,58.598
	l-19.166,22.896c0,0-3.193-84.411,8.306-114.069C452.181,282.493,460.509,294.162,467.672,299.012z"/>
<linearGradient id="SVGID_3_" gradientUnits="userSpaceOnUse" x1="-348.2822" y1="278.5718" x2="-302.3369" y2="278.5718" gradientTransform="matrix(-1 0 0 -1 -150.3682 638)">
	<stop  offset="0" style="stop-color:#B97A50"/>
	<stop  offset="0.8626" style="stop-color:#B97A50"/>
	<stop  offset="1" style="stop-color:#B97A50"/>
</linearGradient>
<path fill="url(#SVGID_3_)" d="M162.212,299.012c0,0-15.811-3.371-8.146,45.715c7.667,49.088,24.275,58.598,24.275,58.598
	l19.166,22.896c0,0,3.193-84.411-8.306-114.069C177.703,282.493,169.375,294.162,162.212,299.012z"/>
<path fill="#C17F54" d="M442.941,300.12l-11.055-104.599c-14.883-56.991-100.831-46.042-114.65-43.25
	c-13.812-2.793-112.564-24.125-114.654,43.25l-13.056,104.597l-2.282,42.586l10.276,87.414c0,0,9.881,35.469,28.975,44.828
	c0,0,29.684,33.621,40.648,39.757c0,0,19.007,11.794,48.12,12.542c0.674,0.018,1.33-0.167,1.971-0.537
	c0.641,0.37,1.297,0.555,1.971,0.537c29.115-0.747,48.121-12.542,48.121-12.542c10.963-6.136,38.646-39.757,38.646-39.757
	c18.762-9.359,26.403-48.727,26.403-48.727l2.909-80.929L442.941,300.12z"/>
<linearGradient id="SVGID_4_" gradientUnits="userSpaceOnUse" x1="218.1758" y1="331.5449" x2="298.7373" y2="331.5449" gradientTransform="matrix(1 0 0 -1 0 638)">
	<stop  offset="0" style="stop-color:#B97A50"/>
	<stop  offset="0.8626" style="stop-color:#B97A50"/>
	<stop  offset="1" style="stop-color:#B97A50"/>
</linearGradient>
<path fill="url(#SVGID_4_)" d="M218.176,299.23c0,0,2.605-24.748,21.082-27.75c0,0,55.459-1.557,59.099,27.75
	s-19.729,41.775-30.175,42.215c0,0,42.803-36.352,13.678-45.919C252.736,285.958,247.911,280.178,218.176,299.23z"/>
<g>
	<path fill="#101010" d="M301.889,289.576l-8.639-26.671l-62.338-6.203c0,0-30.873,18.388-25.644,42.296
		c0,0,18.92-26.233,31.621-23.805C236.889,275.193,277.234,270.151,301.889,289.576z"/>
	
		<linearGradient id="SVGID_5_" gradientUnits="userSpaceOnUse" x1="-116.7637" y1="326.2568" x2="-45.7134" y2="326.2568" gradientTransform="matrix(-1 0 0 -1 175.5996 638)">
		<stop  offset="0" style="stop-color:#B97A50"/>
		<stop  offset="0.8626" style="stop-color:#B97A50"/>
		<stop  offset="1" style="stop-color:#B97A50"/>
	</linearGradient>
	<path fill="url(#SVGID_5_)" d="M233.713,302.001c0,0,37.73,13.635,58.65,1.494c0,0-20.547,39.035-65.188,4.482
		C227.176,307.978,210.348,298.528,233.713,302.001z"/>
</g>
<path fill="#A76C50" d="M410.439,388.251c0,0,23.586,15.711,0.539,61.688C410.979,449.938,423.738,411.18,410.439,388.251z"/>
<path fill="#A76C50" d="M224.03,388.251c0,0-23.586,15.711-0.54,61.688C223.49,449.938,210.731,411.18,224.03,388.251z"/>
<path fill="#101010" d="M472.171,166.32c-3.121-20.733-29.132-29.698-29.132-29.698c1.561-11.767-18.438-35.302-18.438-35.302
	c-9.595-21.293-53.86-25.776-53.86-25.776c-5.711-0.561-18.217-7.845-18.217-7.845c-16.127-10.647-47.339,0-47.339,0
	S174.987,43.86,171.518,174.048c0,0-11.23,50.699,6.11,79.837l1.148,37.392c0,0-0.424,1.321-1.118,23.774
	c-0.693,22.453,10.481,46.456,10.481,46.456s-1.752-78.798,9.397-101.648c2.072-4.247,13.723-12.811,13.723-12.811
	s-14.103-84.277,19.883-84.277c0,0,6.936,9.712,29.131,6.724c0,0,33.64-8.217,44.911-0.746v3.175
	c81.15-23.535,107.682,16.25,107.682,16.25l7.84,71.685l11.965,15.168c8.843,14.569,0,103.665,0,103.665
	c10.404-69.482,27.535-84.343,27.535-84.343l-2.081-18.76C463.327,269.423,475.292,187.053,472.171,166.32z"/>
<g>
	
		<linearGradient id="SVGID_6_" gradientUnits="userSpaceOnUse" x1="-2521.5308" y1="272.835" x2="-2492.0596" y2="272.835" gradientTransform="matrix(-1 0 0 -1 -2162.291 638)">
		<stop  offset="0" style="stop-color:#AC714A"/>
		<stop  offset="0.8626" style="stop-color:#AC714A"/>
		<stop  offset="1" style="stop-color:#AC714A"/>
	</linearGradient>
	<path fill="url(#SVGID_6_)" d="M329.769,393.559c0,0,32.591-6.273,29.228-21.591c0,0-4.854-24.069-26.521-35.196"/>
	<path fill="#55301D" d="M326.91,388.826c0,0,1.4-10.086,17.371-6.443c0,0,7.004,4.202-2.803,4.764
		C331.673,387.707,325.794,391.571,326.91,388.826z"/>
	
		<linearGradient id="SVGID_7_" gradientUnits="userSpaceOnUse" x1="275.2295" y1="272.835" x2="304.7012" y2="272.835" gradientTransform="matrix(1 0 0 -1 0 638)">
		<stop  offset="0" style="stop-color:#AC714A"/>
		<stop  offset="0.8626" style="stop-color:#AC714A"/>
		<stop  offset="1" style="stop-color:#AC714A"/>
	</linearGradient>
	<path fill="url(#SVGID_7_)" d="M304.701,393.559c0,0-32.59-6.273-29.229-21.591c0,0,4.855-24.069,26.523-35.196"/>
	<path fill="#55301D" d="M308.186,388.826c0,0-1.4-10.086-17.371-6.443c0,0-7.004,4.202,2.803,4.764
		C303.423,387.707,309.303,391.571,308.186,388.826z"/>
	
		<linearGradient id="SVGID_8_" gradientUnits="userSpaceOnUse" x1="317.4668" y1="239.4849" x2="317.4668" y2="362.9731" gradientTransform="matrix(1 0 0 -1 0 638)">
		<stop  offset="0" style="stop-color:#AF744C"/>
		<stop  offset="0.5278" style="stop-color:#AE734D;stop-opacity:0.4722"/>
		<stop  offset="0.8452" style="stop-color:#AB6F4E;stop-opacity:0.1548"/>
		<stop  offset="1" style="stop-color:#A76C50;stop-opacity:0"/>
	</linearGradient>
	<path fill="url(#SVGID_8_)" d="M337.765,369.726c-4.786-2.24,0-84.557,0-84.557l-19.89-9.74v-0.402l-0.41,0.2l-0.409-0.2
		l-0.002,0.402l-19.888,9.74c0,0,4.787,82.315,0,84.557c-4.726,2.214,2.593,30.26,20.299,28.729
		C335.171,399.984,342.49,371.938,337.765,369.726z"/>
	<path opacity="0.1" fill="#FFFFFF" enable-background="new    " d="M327.771,384.952c0,4.926-3.992,8.918-8.919,8.918h-1.872
		c-4.925,0-8.918-3.992-8.918-8.918l0,0c0-4.926,3.993-8.919,8.918-8.919h1.872C323.779,376.033,327.771,380.026,327.771,384.952
		L327.771,384.952z"/>
</g>
<g>
	<path opacity="0.5" fill="#734434" enable-background="new    " d="M320.209,461.606v-0.062c-0.969,0.065-1.965,0.091-2.975,0.102
		c-1.01-0.011-2.007-0.035-2.974-0.102v0.062c-20.235-0.781-46.08-10.632-46.08-10.632c5.078,24.879,38.778,26.414,49.054,26.295
		c10.274,0.119,43.977-1.416,49.055-26.295C366.289,450.976,340.443,460.825,320.209,461.606z"/>
	<g>
		<path fill="#734434" d="M377.139,429.247c0,0-36.021-15.276-59.766-9.309c-23.744-5.969-59.766,9.309-59.766,9.309
			c26.658,10.521,52.078,8.101,59.766,7.479C325.061,437.348,352.066,439.769,377.139,429.247z"/>
		<path fill="#734434" d="M264.886,427.623c0,0-6.396,2.06-12-4.945c-5.604-7.004-1.151,7.428,12,8.996"/>
		<path fill="#734434" d="M369.584,427.623c0,0,6.396,2.06,12-4.945c5.604-7.004,1.15,7.428-12,8.996"/>
	</g>
</g>
<path opacity="0.4" fill="#7F4A32" enable-background="new    " d="M317.129,285.555l-1.014-0.103
	c-15.812,1.294-19.455,13.969-14.469,8.292c4.805-5.472,24.965-5.575,29.951,0.103C336.582,299.524,332.939,286.849,317.129,285.555
	z"/>
<path fill="#2C2423" d="M216.28,302.266c0,0,10.407,0.578,28.331-15.61c0,0,24.283-10.985,47.988,11.562
	c0,0-14.454-10.407-31.221-10.985C244.611,286.655,241.141,303.422,216.28,302.266z"/>
<ellipse fill="#2C2423" cx="261.792" cy="296.15" rx="13.462" ry="11.897"/>
<path fill="#2C2423" d="M225.531,296.15c0,0,26.014-32.349,60.995-2.999C286.525,293.152,256.174,257.078,225.531,296.15z"/>
<linearGradient id="SVGID_9_" gradientUnits="userSpaceOnUse" x1="-17.2559" y1="333.3838" x2="63.3057" y2="333.3838" gradientTransform="matrix(-1 0 0 -1 397.9863 638)">
	<stop  offset="0" style="stop-color:#B97A50"/>
	<stop  offset="0.8626" style="stop-color:#B97A50"/>
	<stop  offset="1" style="stop-color:#B97A50"/>
</linearGradient>
<path fill="url(#SVGID_9_)" d="M415.242,297.39c0,0-2.604-24.748-21.082-27.749c0,0-55.459-1.557-59.099,27.749
	c-3.64,29.307,19.729,41.775,30.175,42.216c0,0-42.801-36.352-13.678-45.919C380.684,284.117,385.506,278.338,415.242,297.39z"/>
<g>
	<path fill="#101010" d="M331.529,287.735l8.639-26.67l62.339-6.203c0,0,30.873,18.387,25.646,42.295
		c0,0-18.921-26.232-31.621-23.805C396.529,273.353,356.184,268.312,331.529,287.735z"/>
	
		<linearGradient id="SVGID_10_" gradientUnits="userSpaceOnUse" x1="118.668" y1="328.0967" x2="189.7183" y2="328.0967" gradientTransform="matrix(1 0 0 -1 222.3867 638)">
		<stop  offset="0" style="stop-color:#B97A50"/>
		<stop  offset="0.8626" style="stop-color:#B97A50"/>
		<stop  offset="1" style="stop-color:#B97A50"/>
	</linearGradient>
	<path fill="url(#SVGID_10_)" d="M399.705,300.161c0,0-37.73,13.635-58.65,1.494c0,0,20.547,39.036,65.188,4.482
		C406.242,306.138,423.07,296.688,399.705,300.161z"/>
</g>
<path fill="#2C2423" d="M417.138,300.427c0,0-10.407,0.578-28.331-15.611c0,0-24.283-10.984-47.988,11.563
	c0,0,14.455-10.407,31.223-10.985C388.808,284.816,392.277,301.583,417.138,300.427z"/>
<g opacity="0.5">
	<path fill="#A76C50" d="M286.039,356.728c0,0-55.304,18.768-43.667,108.86C242.373,465.588,218.813,362.202,286.039,356.728z"/>
</g>
<g opacity="0.5">
	<path fill="#A76C50" d="M349.455,356.728c0,0,55.304,18.768,43.666,108.86C393.121,465.588,416.68,362.202,349.455,356.728z"/>
</g>
<ellipse fill="#2C2423" cx="371.625" cy="294.311" rx="13.463" ry="11.897"/>
<path fill="#2C2423" d="M407.887,294.311c0,0-26.014-32.349-60.994-2.999C346.893,291.312,377.244,255.238,407.887,294.311z"/>
<g>
	<path fill="#101010" d="M238.372,146.879c0,0,0.066,0.306,0.153,0.876c0.076,0.569,0.223,1.41,0.328,2.472
		c0.23,2.126,0.435,5.159,0.424,8.779c-0.007,3.62-0.23,7.827-0.771,12.303c-0.122,1.122-0.287,2.255-0.462,3.402
		c-0.168,1.148-0.353,2.31-0.581,3.474c-0.414,2.336-0.952,4.688-1.522,7.041c-0.619,2.339-1.264,4.681-2.045,6.952
		c-0.374,1.141-0.778,2.265-1.213,3.366c-0.431,1.103-0.857,2.193-1.343,3.246c-1.877,4.229-4.099,8.064-6.625,11.026
		c-1.263,1.475-2.59,2.731-3.933,3.668c-1.338,0.938-2.691,1.545-3.857,1.785c-1.167,0.261-2.096,0.131-2.673,0.038
		c-0.586-0.146-0.867-0.259-0.867-0.259s0.29-0.089,0.833-0.257c0.522-0.196,1.229-0.562,1.955-1.166
		c1.467-1.21,2.875-3.518,4.124-6.581c1.259-3.059,2.396-6.848,3.535-10.961c0.279-1.033,0.562-2.084,0.85-3.148
		c0.28-1.071,0.562-2.155,0.848-3.247c0.558-2.201,1.125-4.438,1.691-6.674c0.58-2.249,1.16-4.497,1.731-6.709
		c0.277-1.112,0.574-2.211,0.871-3.299c0.29-1.089,0.568-2.168,0.874-3.224c1.166-4.236,2.345-8.197,3.455-11.59
		c1.105-3.394,2.139-6.223,2.919-8.202c0.38-0.991,0.732-1.765,0.945-2.297C238.248,147.162,238.372,146.879,238.372,146.879z"/>
</g>
<path fill="#101010" d="M438.734,140.674c1.553-5.973,5.369-11.825,6-18.797c0.547-6.046,0.062-12.403-0.052-18.475
	c3.502,8.335,8.248,30.566,2.151,37.985c7.746,0.7,16.348-0.713,24.598-0.713c-9.837-0.606-25.977,14.914-28.697,22.374"/>
<path fill="#F7E5E5" d="M221.148,497.562c0,0-32,19-33,33s16.5,83,16.5,83l36.5-42l8.365,42l58.807,26.061
	C308.32,639.623,209.148,536.562,221.148,497.562z"/>
<path fill="#F7E5E5" d="M412.154,497.562c0,0,32,19,33,33s-16.5,83-16.5,83l-36.5-42l-8.365,42l-58.808,26.061
	C324.981,639.623,424.154,536.562,412.154,497.562z"/>
</svg>
