<?xml version="1.0" encoding="utf-8"?>
<!-- Generator: Adobe Illustrator 16.0.4, SVG Export Plug-In . SVG Version: 6.00 Build 0)  -->
<!DOCTYPE svg PUBLIC "-//W3C//DTD SVG 1.1//EN" "http://www.w3.org/Graphics/SVG/1.1/DTD/svg11.dtd">
<svg version="1.1" id="Layer_1" xmlns="http://www.w3.org/2000/svg" xmlns:xlink="http://www.w3.org/1999/xlink" x="0px" y="0px"
	 width="665px" height="665px" viewBox="0 0 665 665" enable-background="new 0 0 665 665" xml:space="preserve">
<g>
	
		<linearGradient id="SVGID_1_" gradientUnits="userSpaceOnUse" x1="228.2588" y1="102.5137" x2="430.7852" y2="102.5137" gradientTransform="matrix(1 0 0 -1 0 648)">
		<stop  offset="0" style="stop-color:#DBA99C"/>
		<stop  offset="1" style="stop-color:#DBA99C"/>
	</linearGradient>
	<path fill="url(#SVGID_1_)" d="M329.521,496.35l-101.263-15.815v73.95c0,0,63.134,58.157,101.263,55.89
		c38.131,2.269,101.264-55.89,101.264-55.89v-73.95L329.521,496.35z"/>
	<path fill="#282834" d="M478.898,580.515l-148.562,25.068l0,0l0,0l0,0l0,0l-144.229-25.068c0,0-87.793,42.127-87.793,84.485
		h233.646h1.08h233.646C566.688,622.642,478.898,580.515,478.898,580.515z"/>
	<g>
		<path fill="#AEBADF" d="M227.736,542.673c0,0-55.551,26.713-42.75,54.652l88.402,60.01c0,0,28.059-55.906,55.61-51.752
			C356.55,609.74,227.736,542.673,227.736,542.673z"/>
		<path fill="#AEBADF" d="M437.27,542.673c0,0,55.55,26.713,42.75,54.652l-88.402,60.01c0,0-28.059-55.906-55.609-51.752
			C308.454,609.74,437.27,542.673,437.27,542.673z"/>
	</g>
	<g>
		<path fill="#EEBDAF" d="M498.201,288.958c0,0,12.6-0.151,5.039,16.306c0,0,2.521,61.188-5.039,66.857
			c0,0-11.969,10.867-12.601,16.772c0,0-14.131,26.725-32.268,14.74C453.334,403.635,484.34,292.738,498.201,288.958z"/>
		<path fill="#EEBDAF" d="M166.803,288.958c0,0-12.599-0.151-5.039,16.306c0,0-2.521,61.188,5.039,66.857
			c0,0,11.971,10.867,12.6,16.772c0,0,14.131,26.725,32.268,14.74C211.669,403.635,180.665,292.738,166.803,288.958z"/>
		<g>
			<path fill="#EEBDAF" d="M460.492,175.555c-40.243-48.665-115.821-20.026-130.848-21.772v-0.277c0,0-0.465,0.041-1.319,0.129
				c-0.853-0.089-1.318-0.129-1.318-0.129v0.277c-15.028,1.746-90.872,12.799-131.112,61.464c0,0-26.356,7.56-10.545,84.421
				c0,0-10.322,35.28,2.745,56.702l18.341,97.023c0,0,46.891,80.934,121.89,79.404c75,1.528,121.892-79.404,121.892-79.404
				l18.34-97.023c13.068-21.422,2.744-56.702,2.744-56.702C487.113,222.806,460.492,175.555,460.492,175.555z"/>
			<g opacity="0.3">
				<path fill="#EEBDAF" d="M225.589,415.95l-34.333-56.259l16.768,92.768c0,0,12.908,23.288,35.939,44.645
					c0.934,0.726,1.473,1.116,1.473,1.116L225.589,415.95z"/>
				
					<linearGradient id="SVGID_2_" gradientUnits="userSpaceOnUse" x1="218.3452" y1="149.7808" x2="218.3452" y2="292.4442" gradientTransform="matrix(1 0 0 -1 0 648)">
					<stop  offset="0" style="stop-color:#DBA99C;stop-opacity:0"/>
					<stop  offset="1" style="stop-color:#DBA99C"/>
				</linearGradient>
				<path fill="url(#SVGID_2_)" d="M225.589,415.95l-34.333-56.259l16.768,92.768c0,0,12.908,23.288,35.939,44.645
					c0.934,0.726,1.473,1.116,1.473,1.116L225.589,415.95z"/>
			</g>
			<g opacity="0.3">
				<path fill="#EEBDAF" d="M432.352,415.95l34.332-56.259l-16.768,92.768c0,0-12.905,23.288-35.938,44.645
					c-0.933,0.726-1.472,1.116-1.472,1.116L432.352,415.95z"/>
				
					<linearGradient id="SVGID_3_" gradientUnits="userSpaceOnUse" x1="1287.291" y1="149.7798" x2="1287.291" y2="292.4432" gradientTransform="matrix(-1 0 0 -1 1726.8867 648)">
					<stop  offset="0" style="stop-color:#DBA99C;stop-opacity:0"/>
					<stop  offset="1" style="stop-color:#DBA99C"/>
				</linearGradient>
				<path fill="url(#SVGID_3_)" d="M432.352,415.95l34.332-56.259l-16.768,92.768c0,0-12.905,23.288-35.938,44.645
					c-0.933,0.726-1.472,1.116-1.472,1.116L432.352,415.95z"/>
			</g>
		</g>
	</g>
	<g>
		<g>
			<path fill="#5A494F" d="M298.959,282.542c0,0-27.09,3.15-27.721,8.821c0,0-45.36-6.3-56.701,0
				C203.195,297.663,234.697,248.521,298.959,282.542z"/>
			
				<linearGradient id="SVGID_4_" gradientUnits="userSpaceOnUse" x1="284.0059" y1="342.7354" x2="284.0059" y2="365.9863" gradientTransform="matrix(1 0 0 -1 0 648)">
				<stop  offset="0" style="stop-color:#000000;stop-opacity:0"/>
				<stop  offset="0.0076" style="stop-color:#090909;stop-opacity:0.0076"/>
				<stop  offset="0.1877" style="stop-color:#474345;stop-opacity:0.1877"/>
				<stop  offset="0.366" style="stop-color:#534B4E;stop-opacity:0.366"/>
				<stop  offset="0.539" style="stop-color:#584B4F;stop-opacity:0.539"/>
				<stop  offset="0.7055" style="stop-color:#594A4F;stop-opacity:0.7055"/>
				<stop  offset="0.8624" style="stop-color:#59494F;stop-opacity:0.8624"/>
				<stop  offset="1" style="stop-color:#5A494F"/>
			</linearGradient>
			<path fill="url(#SVGID_4_)" d="M298.779,282.384c0,0,9.883,10.711,11.084,20.161c1.203,9.45-2.752-8.544-38.805-11.341
				C235.005,288.408,283.188,280.178,298.779,282.384z"/>
		</g>
		<g>
			<path fill="#5A494F" d="M366.045,282.542c0,0,27.09,3.15,27.721,8.821c0,0,45.36-6.3,56.701,0
				C461.807,297.663,430.307,248.521,366.045,282.542z"/>
			
				<linearGradient id="SVGID_5_" gradientUnits="userSpaceOnUse" x1="1269.4941" y1="342.7354" x2="1269.4941" y2="365.9863" gradientTransform="matrix(-1 0 0 -1 1650.4941 648)">
				<stop  offset="0" style="stop-color:#000000;stop-opacity:0"/>
				<stop  offset="0.0076" style="stop-color:#090909;stop-opacity:0.0076"/>
				<stop  offset="0.1877" style="stop-color:#474345;stop-opacity:0.1877"/>
				<stop  offset="0.366" style="stop-color:#534B4E;stop-opacity:0.366"/>
				<stop  offset="0.539" style="stop-color:#584B4F;stop-opacity:0.539"/>
				<stop  offset="0.7055" style="stop-color:#594A4F;stop-opacity:0.7055"/>
				<stop  offset="0.8624" style="stop-color:#59494F;stop-opacity:0.8624"/>
				<stop  offset="1" style="stop-color:#5A494F"/>
			</linearGradient>
			<path fill="url(#SVGID_5_)" d="M366.227,282.384c0,0-9.883,10.711-11.086,20.161c-1.201,9.45,2.752-8.544,38.805-11.341
				C429.998,288.408,381.818,280.178,366.227,282.384z"/>
		</g>
	</g>
	<path fill="#101010" d="M299.432,324.633c0,0-21.263-45.833-71.822-3.78l8.979,0.945c0,0,6.917-7.979,16.559-11.564
		c-0.623,4.231-0.344,12.165,10.375,12.511c0,0,14.619-0.01,11.371-13.35C281.048,311.149,289.438,315.29,299.432,324.633z"/>
	<path fill="#101010" d="M366.032,324.633c0,0,21.263-45.833,71.821-3.78l-8.978,0.945c0,0-6.918-7.979-16.56-11.564
		c0.623,4.231,0.346,12.165-10.375,12.511c0,0-14.619-0.01-11.371-13.35C384.416,311.149,376.027,315.29,366.032,324.633z"/>
	<path fill="#BF857A" d="M380.253,450.321c-8.978-1.417-34.248-5.67-34.248-5.67c-6.597-0.645-11.224,0.905-13.506,1.959
		c-2.281-1.054-6.909-2.604-13.506-1.959c0,0-25.271,4.253-34.248,5.67c-8.8,1.391,16.599,7.893,47.754,7.893
		C363.762,458.068,389.054,451.712,380.253,450.321z"/>
	
		<linearGradient id="SVGID_6_" gradientUnits="userSpaceOnUse" x1="1216.4531" y1="319.625" x2="1287.0156" y2="319.625" gradientTransform="matrix(-1 0 0 -1 1651.7871 648)">
		<stop  offset="0" style="stop-color:#DBA99C"/>
		<stop  offset="0.5066" style="stop-color:#DBA99C;stop-opacity:0"/>
		<stop  offset="1" style="stop-color:#DBA99C"/>
	</linearGradient>
	<path fill="url(#SVGID_6_)" d="M423.241,321.346H407.49c0,0-15.748,6.825-37.822,0c0,0-4.896,3.346-4.896,3.817
		s1.658,9.605,1.658,9.605l3.238-0.314c0,0,28.811,6.93,51.176-7.561l14.49-3.465C435.334,323.43,431.307,318.946,423.241,321.346z"
		/>
	
		<linearGradient id="SVGID_7_" gradientUnits="userSpaceOnUse" x1="230.1289" y1="319.625" x2="300.6914" y2="319.625" gradientTransform="matrix(1 0 0 -1 0 648)">
		<stop  offset="0" style="stop-color:#DBA99C"/>
		<stop  offset="0.5066" style="stop-color:#DBA99C;stop-opacity:0"/>
		<stop  offset="1" style="stop-color:#DBA99C"/>
	</linearGradient>
	<path fill="url(#SVGID_7_)" d="M242.223,321.346h15.75c0,0,15.75,6.825,37.822,0c0,0,4.896,3.346,4.896,3.817
		s-1.658,9.605-1.658,9.605l-3.238-0.314c0,0-28.811,6.93-51.175-7.561l-14.491-3.465
		C230.129,323.43,234.156,318.946,242.223,321.346z"/>
	<g>
		<path fill="#713B36" d="M305.07,404.078c0,0-4.116,2.69,8.629,5.294c2.398,0.096,5.154,0.308,7.664,0.738
			C319.668,408.159,313.48,401.936,305.07,404.078z"/>
		<path fill="#713B36" d="M359.934,404.078c-8.41-2.144-14.598,4.081-16.291,6.032c2.508-0.432,5.266-0.644,7.664-0.738
			C364.05,406.77,359.934,404.078,359.934,404.078z"/>
		<g>
			<path fill="#D6A597" d="M310.186,374.286l2.53-15.855c-3.43,2.809-20.475,17.353-18.985,27.981c0,0,1.969,26.697,13.703,22.917
				c0,0,2.742-0.101,6.266,0.043c-12.745-2.604-8.629-5.294-8.629-5.294c8.41-2.144,14.598,4.081,16.291,6.032
				c2.147,0.368,4.106,0.899,5.496,1.658c-3.627-3.559-8.015-6.221-8.015-6.221C305.373,399.807,310.186,374.286,310.186,374.286z"
				/>
			<path fill="#D6A597" d="M352.229,358.381l2.539,15.905c0,0,4.811,25.521-8.66,31.263c0,0-4.442,2.697-8.084,6.289
				c1.396-0.796,3.406-1.348,5.617-1.728c1.694-1.951,7.881-8.176,16.293-6.032c0,0,4.115,2.69-8.63,5.294
				c3.523-0.144,6.267-0.043,6.267-0.043c11.733,3.78,13.703-22.917,13.703-22.917C372.771,375.724,355.525,361.075,352.229,358.381
				z"/>
			
				<linearGradient id="SVGID_8_" gradientUnits="userSpaceOnUse" x1="332.2109" y1="345.8115" x2="332.2109" y2="232.8799" gradientTransform="matrix(1 0 0 -1 0 648)">
				<stop  offset="0" style="stop-color:#DBA99C;stop-opacity:0"/>
				<stop  offset="1" style="stop-color:#DBA99C"/>
			</linearGradient>
			<path fill="url(#SVGID_8_)" d="M351.962,358.381l-6.119-38.325c0-11.485,17.318-17.867,17.318-17.867H331.73h-0.961h-29.506
				c0,0,17.316,6.381,17.316,17.867l-6.128,38.375l-2.531,15.855c0,0-4.812,25.521,8.659,31.263c0,0,4.387,2.662,8.014,6.221
				c1.074,1.055,2.085,2.185,2.893,3.351c0.347,0,5.104,0,5.451,0c0.789-1.141,1.775-2.246,2.823-3.281
				c3.64-3.592,8.083-6.289,8.083-6.289c13.471-5.742,8.658-31.263,8.658-31.263L351.962,358.381z"/>
			<ellipse fill="#E5C8C4" cx="331.675" cy="388.895" rx="6.708" ry="7.324"/>
		</g>
	</g>
	<g opacity="0.3">
		<path fill="#A9736A" d="M333.357,476.222c0.196-0.014,0-0.067,0-0.067V476.222z"/>
		<path fill="#A9736A" d="M347.382,474.263c-9.521,1.337-13.366,1.787-14.88,1.914c-1.514-0.127-5.359-0.577-14.88-1.914
			c0,0,5.298,6.678,14.024,7.479v0.081c0.293,0,0.57-0.027,0.855-0.041c0.285,0.014,0.562,0.041,0.855,0.041v-0.081
			C342.085,480.939,347.382,474.263,347.382,474.263z"/>
		<path fill="#A9736A" d="M333.537,476.222v-0.067C333.537,476.153,333.34,476.208,333.537,476.222z"/>
	</g>
	<path fill="#101010" d="M237.214,201.41l-17.464,33.717l32.434-30.76l-11.851,21.911l33.683-24.868l-5.613,16.808l63-51.896
		l-16.219,38.045l29.94-22.448l-29.315,38.84l53.643-38.84l-13.098,19.491l72.354-19.491l-29.941,23.77l35.553-11.944
		l-11.227,18.124l29.318-22.841l18.856,99.931l4.179,68.923l22.289-53.055c0,0,16.424-45.965,10.188-67.557
		c-6.238-21.592,7.506-2.143,7.506-2.143l-19.354-50.566l9.354,9.184c0,0-13.723-59.867-39.92-78.029
		c-26.199-18.162-48.65-55.631-127.867-53.726c-114.115,2.746-141.672,53.726-152.978,62.874
		c-10.129,8.195-29.472,50.965-29.472,50.965l-2.807,17.917h7.485l-10.293,29.711l6.083,9.052l-6.083,27.147
		c0,0,7.954-18.1,7.019-1.903c-0.936,16.192,12.631,47.153,12.631,47.153l11.226,16.671c0.937,21.909,21.053,52.87,21.053,52.87
		l-4.31-24.29c6.41-38.209-2.24-61.921-2.24-61.921c-9.823-27.15,24.795-61.957,24.795-61.957"/>
</g>
<image overflow="visible" enable-background="new    " width="416" height="416" xlink:href="C778CFE857E82628.jpeg"  transform="matrix(2.0729 -0.0803 0.0803 2.0729 380.3359 790.3223)">
</image>
<g id="tfLX92_1_">
	
		<image overflow="visible" enable-background="new    " width="417" height="417" id="tfLX92_3_" xlink:href="C778CFE857E82628.jpeg"  transform="matrix(0.9976 0 0 0.9976 -1117.1104 -181.5732)">
	</image>
</g>
<g id="oz2wqS_1_">
	
		<image overflow="visible" enable-background="new    " width="210" height="230" id="oz2wqS_2_" xlink:href="C778CFE857E82628.jpeg"  transform="matrix(1 0 0 1 -1025 438)">
	</image>
</g>
<rect x="-843" y="162.241" fill="#A76C50" width="203" height="557"/>
</svg>
