<?xml version="1.0" encoding="utf-8"?>
<!-- Generator: Adobe Illustrator 16.0.4, SVG Export Plug-In . SVG Version: 6.00 Build 0)  -->
<!DOCTYPE svg PUBLIC "-//W3C//DTD SVG 1.1//EN" "http://www.w3.org/Graphics/SVG/1.1/DTD/svg11.dtd">
<svg version="1.1" id="Layer_1" xmlns="http://www.w3.org/2000/svg" xmlns:xlink="http://www.w3.org/1999/xlink" x="0px" y="0px"
	 width="664.5px" height="664.5px" viewBox="13 55.5 664.5 664.5" enable-background="new 13 55.5 664.5 664.5"
	 xml:space="preserve">
<path fill="#B1B2AF" d="M614.188,719.889c-46.762-72.577-129.677-71.959-129.677-71.959l-116.777-23.604v-8.674l-21.457,4.337
	l-14.171-2.864v5.729l-116.779,23.603c0,0-82.915,0.854-129.676,73.433L614.188,719.889L614.188,719.889z"/>
<g>
	<path fill="#DDBCB3" d="M345.25,538.065l-111.384-17.493v100.582c0,0,71.102,67.553,113.042,65.043
		c41.942,2.51,109.729-65.043,109.729-65.043V520.572L345.25,538.065z"/>
	<g>
		<path fill="#EDD1C7" d="M186.046,369.586c0,0-49.242-40.743-36.354,37.453c0,0,8.483,41.521,17.101,52.218
			c3.833,4.758,11.387,6.685,19.252,15.052c3.113,3.311,17.599,14.28,25.979,3.805C220.406,467.638,186.046,369.586,186.046,369.586
			z"/>
		<path fill="#EDD1C7" d="M513.79,365.854c0,0,49.244-40.744,36.355,37.453c0,0-8.483,41.521-17.103,52.217
			c-3.834,4.758-11.387,6.684-19.254,15.052c-3.112,3.312-17.598,14.28-25.979,3.806C479.43,463.905,513.79,365.854,513.79,365.854z
			"/>
	</g>
	<path fill="#8F4E22" d="M507.67,202.112c-34.177-57.795-63.738-66.741-86.651-75.222c-25.712-9.518-61.761-32.608-70.681-37.597
		v-0.458c-0.123,0.065-45.808,28.538-71.52,38.055c-22.913,8.481-52.476,17.427-86.651,75.222
		c-30.777,52.048-34.966,109.197-17.368,162.914c0,0,30.169,18.429,26.817,60.793l8.8-13.462c0,0-8.229-89.317,25.292-109.569
		c0,0,1.436-17.504-2.061-35.815c-3.246-16.996-4.077-56.361,116.271-61.67c120.347,5.309,119.517,44.674,116.271,61.67
		c-3.498,18.311-2.062,35.815-2.062,35.815c33.521,20.251,25.293,109.569,25.293,109.569l8.802,13.462
		c-3.354-42.364,26.815-60.793,26.815-60.793C542.637,311.31,538.447,254.161,507.67,202.112z"/>
	<path fill="#E8CCC4" d="M472.731,287.329l8.442-16.76c5.686-25.605-18.46-47.769-18.46-47.769
		c-46.213-19.959-107.47-17.937-112.8-17.624c-5.371-0.314-66.598-2.327-112.792,17.625c0,0-24.145,22.163-18.458,47.769
		l7.503,16.761l-28.293,69.805l3.465,68.11l0.866,1.946c0,0,6.952,89.185,32.917,109.873c29.452,23.464,77.106,47.769,77.106,47.769
		s22.941,9.861,37.689,0.257c14.746,9.604,37.688-0.257,37.688-0.257s47.656-24.305,77.108-47.769
		c25.964-20.688,32.919-109.873,32.919-109.873l0.864-1.946l3.466-68.11L472.731,287.329z"/>
	<path fill="#C2968B" d="M412.562,490.994c-7.541-0.838-15.502,0.419-15.502,0.419c-6.705-8.381-21.79-11.312-31.429-11.731
		c-7.467-0.325-13.407,3.116-15.713,4.685c-2.304-1.567-8.246-5.01-15.713-4.685c-9.638,0.419-24.723,3.352-31.427,11.731
		c0,0-7.961-0.419-15.504,0.421c-6.769,0.751,49.901,4.316,61.597,4.523v0.037c0,0,0.375-0.006,1.047-0.018
		c0.674,0.012,1.049,0.018,1.049,0.018v-0.037C362.662,496.15,419.332,491.746,412.562,490.994z"/>
	<path fill="#DAC3B2" d="M349.918,519.068c-7.942,0.42-25.459-2.514-25.459-2.514c2.852,8.381,25.459,9.638,25.459,9.638
		s22.607-1.257,25.459-9.638C375.377,516.555,357.862,519.488,349.918,519.068z"/>
	<polygon fill="#DAC3B2" points="351.408,523.643 351.408,522.84 349.918,523.242 348.428,522.84 348.428,523.643 342.314,525.291 
		344.455,535.83 348.428,535.83 351.408,535.83 355.381,535.83 357.523,525.291 	"/>
	<g>
		<path fill="#DAC3B2" d="M332.181,538.902c0,0,0.459-0.346,1.331-0.826c0.435-0.24,0.968-0.524,1.598-0.812
			c0.63-0.278,1.341-0.616,2.145-0.886c0.795-0.307,1.67-0.6,2.608-0.861c0.937-0.278,1.943-0.486,2.985-0.712
			c1.05-0.166,2.135-0.383,3.253-0.467c1.114-0.108,2.252-0.195,3.396-0.192l1.709,0.004c0.568,0.027,1.133,0.078,1.693,0.119
			c1.123,0.053,2.219,0.241,3.273,0.426c1.059,0.153,2.062,0.431,3.006,0.695c0.471,0.137,0.928,0.27,1.369,0.396
			c0.432,0.17,0.848,0.332,1.246,0.489c0.797,0.312,1.519,0.608,2.14,0.914c0.616,0.32,1.14,0.634,1.567,0.883
			c0.856,0.504,1.319,0.828,1.319,0.828s-0.582-0.032-1.554-0.15c-0.485-0.062-1.074-0.126-1.73-0.24
			c-0.666-0.076-1.429-0.116-2.232-0.227c-0.402-0.045-0.823-0.092-1.258-0.141c-0.438-0.028-0.89-0.058-1.354-0.087
			c-0.922-0.075-1.885-0.173-2.893-0.191c-0.5-0.024-1.008-0.053-1.521-0.078c-0.514-0.034-1.037-0.01-1.562-0.03
			c-0.524-0.013-1.055-0.014-1.584-0.038l-1.599,0.025c-1.065-0.023-2.133,0.049-3.187,0.071c-1.055,0.021-2.088,0.121-3.098,0.146
			c-1.002,0.092-1.984,0.122-2.91,0.211c-0.934,0.075-1.815,0.146-2.629,0.21C334.393,538.695,332.181,538.902,332.181,538.902z"/>
	</g>
	
		<linearGradient id="SVGID_1_" gradientUnits="userSpaceOnUse" x1="327.7925" y1="317.1792" x2="327.7925" y2="254.7681" gradientTransform="matrix(1 0 0 -1 0 703)">
		<stop  offset="0" style="stop-color:#DBB8AC;stop-opacity:0"/>
		<stop  offset="1" style="stop-color:#DBB8AC"/>
	</linearGradient>
	<path fill="url(#SVGID_1_)" d="M324.459,408.446c0,0-16.861,7.962-14.348,29.333c0,0,11.733,22.094,35.617,2.037l-8.38-53.996"/>
	<path fill="#554841" d="M339.281,441.323c0,0-10.822-4.802-16.644,2.74c0,0-1.003,4.4,9.682,0c1.609-0.662,8.147,0.115,6.961,0
		C337.736,443.916,341.688,444.368,339.281,441.323z"/>
	
		<linearGradient id="SVGID_2_" gradientUnits="userSpaceOnUse" x1="220.1636" y1="317.1802" x2="220.1636" y2="254.769" gradientTransform="matrix(-1 0 0 -1 596.1055 703)">
		<stop  offset="0" style="stop-color:#DBB8AC;stop-opacity:0"/>
		<stop  offset="1" style="stop-color:#DBB8AC"/>
	</linearGradient>
	<path fill="url(#SVGID_2_)" d="M379.276,408.446c0,0,16.86,7.962,14.346,29.333c0,0-11.731,22.094-35.616,2.037l8.381-53.996"/>
	<path fill="#554841" d="M364.453,441.323c0,0,10.822-4.802,16.645,2.74c0,0,1.003,4.4-9.682,0c-1.61-0.662-8.148,0.115-6.963,0
		C365.998,443.916,362.047,444.368,364.453,441.323z"/>
	
		<linearGradient id="SVGID_3_" gradientUnits="userSpaceOnUse" x1="351.8789" y1="370.3965" x2="351.8789" y2="249.9165" gradientTransform="matrix(1 0 0 -1 0 703)">
		<stop  offset="0" style="stop-color:#DBB8AC;stop-opacity:0"/>
		<stop  offset="0.1809" style="stop-color:#D3B1A3;stop-opacity:0.1809"/>
		<stop  offset="0.4335" style="stop-color:#CEAD9D;stop-opacity:0.4335"/>
		<stop  offset="1" style="stop-color:#CCAB9B"/>
	</linearGradient>
	<path fill="url(#SVGID_3_)" d="M370.59,350.017c0,0,1.955,68.936,9.498,73.545c0,0,1.677,21.788-15.504,14.666
		c0,0-2.381,11.248-9.219,14.217c-1.826,0.794-6.189,0.908-7.962,0c-6.634-3.403-9.218-14.665-9.218-14.665
		c-17.18,7.122-15.504-14.667-15.504-14.667c7.543-4.607,9.498-73.545,9.498-73.545l-7.721-16.963h56.663L370.59,350.017z"/>
	<ellipse fill="#DAB9AD" cx="351.385" cy="420.759" rx="7.482" ry="17.041"/>
	<g>
		
			<linearGradient id="SVGID_4_" gradientUnits="userSpaceOnUse" x1="328.7642" y1="408.5264" x2="272.8843" y2="408.5264" gradientTransform="matrix(-1 0 0 -1 775.1152 703)">
			<stop  offset="0" style="stop-color:#DBB8AC;stop-opacity:0"/>
			<stop  offset="0.0133" style="stop-color:#DBB8AC;stop-opacity:0.0133"/>
			<stop  offset="1" style="stop-color:#CCAB9B"/>
		</linearGradient>
		<path fill="url(#SVGID_4_)" d="M446.351,310.427l16.631-87.255c0,0,24.144,22.164,18.459,47.769l-9.383,16.76l30.173,69.809
			l-0.058,1.141c-3.062,4.531-4.894,7.126-4.894,7.126L446.351,310.427z"/>
	</g>
	<path fill="#65340D" d="M323.729,336.655c0,0,1.867-17.6-41.087-15.086c-42.956,2.514-56.963,29.867-56.963,29.867
		S249.589,330.017,323.729,336.655z"/>
	<path fill="#203A3A" d="M295.479,356.112l20.289,4.846c0,0-15.534-10.174-33.431-8.85c-0.003,0-0.006,0-0.009,0
		c-3.861,0-7.387,0.779-10.11,2.066c-6.347,2.192-12.685,6.245-18.466,13.068c0,0,5.584-4.652,13.381-8.419
		c-0.249,0.613-0.392,1.246-0.392,1.898c0,4.759,6.978,8.616,15.586,8.616s15.585-3.857,15.585-8.616
		C297.914,359.025,297.014,357.447,295.479,356.112z"/>
	<path fill="#794E42" d="M244.954,369.34c0,0,22.208-37.294,70.814-14.667C315.769,354.673,276.799,334.979,244.954,369.34z"/>
	<path fill="#E1C6BA" d="M250.439,370.168c0,0,38.287,5.513,55.048-9.577h11.732c0,0-15.027,38.833-73.719,13.966L250.439,370.168z"
		/>
	<path fill="#65340D" d="M379.581,336.655c0,0-1.868-17.6,41.089-15.086c42.955,2.514,56.963,29.867,56.963,29.867
		S453.722,330.017,379.581,336.655z"/>
	<path fill="#203A3A" d="M407.831,356.112l-20.289,4.846c0,0,15.533-10.174,33.433-8.85c0.003,0,0.005,0,0.007,0
		c3.862,0,7.39,0.779,10.111,2.066c6.347,2.192,12.686,6.245,18.465,13.068c0,0-5.583-4.652-13.381-8.419
		c0.249,0.613,0.392,1.246,0.392,1.898c0,4.759-6.978,8.616-15.587,8.616c-8.606,0-15.585-3.857-15.585-8.616
		C405.396,359.025,406.298,357.447,407.831,356.112z"/>
	<path fill="#794E42" d="M458.357,369.34c0,0-22.21-37.294-70.815-14.667C387.542,354.673,426.512,334.979,458.357,369.34z"/>
	<path fill="#E1C6BA" d="M452.871,370.168c0,0-38.288,5.513-55.05-9.577H386.09c0,0,15.026,38.833,73.722,13.966L452.871,370.168z"
		/>
	<path fill="#E8CCC4" d="M455.141,224.527"/>
	<g>
		
			<linearGradient id="SVGID_5_" gradientUnits="userSpaceOnUse" x1="253.6172" y1="408.5264" x2="197.7388" y2="408.5264" gradientTransform="matrix(1 0 0 -1 0 703)">
			<stop  offset="0" style="stop-color:#DBB8AC;stop-opacity:0"/>
			<stop  offset="0.0133" style="stop-color:#DBB8AC;stop-opacity:0.0133"/>
			<stop  offset="1" style="stop-color:#CCAB9B"/>
		</linearGradient>
		<path fill="url(#SVGID_5_)" d="M253.618,310.427l-16.63-87.255c0,0-24.144,22.164-18.458,47.769l7.638,16.389l-28.428,70.18
			l0.058,1.141c3.063,4.531,4.893,7.126,4.893,7.126L253.618,310.427z"/>
	</g>
	<path fill="#8F4E22" d="M183.532,365.396c0,0,18.088,43.241,15.18,60.959l9.492-9.331c0,0-6.502-78.762,13.913-122.551"/>
	<path fill="#8F4E22" d="M517.065,362.883c0,0-20.602,45.755-17.694,63.473l-9.491-9.331c0,0,6.503-78.762-13.912-122.551"/>
	<path fill="#E1C6BA" d="M394.798,432.435c0,0,35.56,27.093,36.016,50.374S437.942,446.774,394.798,432.435z"/>
	<path fill="#E1C6BA" d="M305.04,432.435c0,0-35.559,27.093-36.015,50.374S261.896,446.774,305.04,432.435z"/>
	<path fill="#C2968B" d="M409.002,486.385c0,0,9.55,1.777,2.383,11.193c0,0,3.118-6.254-2.383-5.645
		C409.002,491.935,414.309,489.458,409.002,486.385z"/>
	<path fill="#C2968B" d="M291.765,486.385c0,0-9.548,1.777-2.383,11.193c0,0-3.119-6.254,2.383-5.645
		C291.765,491.935,286.458,489.458,291.765,486.385z"/>
	
		<linearGradient id="SVGID_6_" gradientUnits="userSpaceOnUse" x1="204.8916" y1="220.3721" x2="309.8545" y2="220.3721" gradientTransform="matrix(1 0 0 -1 0 703)">
		<stop  offset="0" style="stop-color:#DBB8AC;stop-opacity:0"/>
		<stop  offset="0.6409" style="stop-color:#D2B1A2;stop-opacity:0.6409"/>
		<stop  offset="1" style="stop-color:#CCAB9B"/>
	</linearGradient>
	<path opacity="0.5" fill="url(#SVGID_6_)" enable-background="new    " d="M297.542,543.337l-30.461-18.655
		c-1.116-10.109-1.304-17.237-1.304-17.237l-51.764-85.746c-1.205-32.037,19.525-40.011,19.525-40.011
		c-24.831,0.938-25.594,32.457-25.594,32.457l1.812,2.256c-2.737,11.234-4.302,21.883-4.864,31.953
		c3.778,27.704,12.642,74.534,30.545,88.8c7.974,6.354,17.282,12.765,26.618,18.742c0.456,0.315,0.915,0.636,1.375,0.955
		c20,12.689,39.757,23.229,46.425,26.718C286.715,560.099,297.542,543.337,297.542,543.337z"/>
	
		<linearGradient id="SVGID_7_" gradientUnits="userSpaceOnUse" x1="131.9326" y1="220.459" x2="236.8984" y2="220.459" gradientTransform="matrix(-1 0 0 -1 627.5098 703)">
		<stop  offset="0" style="stop-color:#DBB8AC;stop-opacity:0"/>
		<stop  offset="0.6409" style="stop-color:#D2B1A2;stop-opacity:0.6409"/>
		<stop  offset="1" style="stop-color:#CCAB9B"/>
	</linearGradient>
	<path opacity="0.5" fill="url(#SVGID_7_)" enable-background="new    " d="M402.927,543.249l30.461-18.654
		c1.116-10.109,1.304-17.237,1.304-17.237l51.765-85.746c1.203-32.037-19.524-40.011-19.524-40.011
		c24.83,0.938,25.593,32.457,25.593,32.457l-1.812,2.256c2.736,11.233,4.302,21.883,4.864,31.953
		c-3.777,27.703-12.642,74.534-30.547,88.8c-7.974,6.354-17.281,12.765-26.617,18.741c-0.456,0.316-0.914,0.637-1.375,0.955
		c-20,12.69-39.757,23.229-46.427,26.719C413.752,560.011,402.927,543.249,402.927,543.249z"/>
	<path fill="#D1B2AA" d="M372.291,611.033c0,0-10.66,14.914-20.201,15.104c0-0.043,0-0.072,0-0.072
		c-0.232,0.033-0.469,0.048-0.705,0.062c-0.234-0.014-0.471-0.027-0.703-0.062c0,0,0,0.029,0,0.072
		c-9.54-0.19-20.201-15.104-20.201-15.104c8.141,26.272,16.864,26.021,20.201,26.107c0,0.273,0,0.498,0,0.67
		c0-0.418,0.249-0.566,0.703-0.627c0.457,0.061,0.705,0.209,0.705,0.627c0-0.172,0-0.396,0-0.67
		C355.426,637.055,364.149,637.306,372.291,611.033z"/>
</g>
<g>
	<path fill="none" d="M417.871,696.138L417.871,696.138c0,0-30.709-14.784-59.839-8.451l3.744,30.729h70.844
		C432.62,718.416,427.232,707.992,417.871,696.138z"/>
	<path fill="#8A8C87" d="M296.042,671.242L296.042,671.242c-9.562,6.553-17.731,15.243-24.076,23.279l0,0
		c0,0,39.291-18.911,71.143-4.786c0.023-0.386,0.09-0.79,0.208-1.217C338.168,683.652,323.772,672.865,296.042,671.242z"/>
	<path fill="#A2A39D" d="M268.236,656.444c13.484-0.657,25.213,1.404,35.184,4.8c6.584-0.651,13.455-0.851,19.037-0.288
		c0,0-54.221-15.387-88.747-40.74c0,0-76.271,33.56-41.877,37.484c76.394,8.722,65.385,59.101,65.385,59.101
		s5.388-10.425,14.748-22.278C271.953,694.512,216.853,658.95,268.236,656.444z"/>
	<path fill="#A2A39D" d="M296.042,671.242c-30.184-1.767-12.74-8.005,7.379-9.998c-9.971-3.396-21.7-5.457-35.184-4.8
		c-51.384,2.506,3.716,38.067,3.73,38.077C278.312,686.485,286.481,677.793,296.042,671.242z"/>
	<path fill="#A2A39D" d="M343.426,688.188c0.379-1.182,1.059-2.489,1.98-3.883c-5.078-9.232-22.949-23.35-22.949-23.35
		c-4.262,0.396-8.384,1.398-12.346,2.865C327.912,671.494,339.037,683,343.426,688.188z"/>
	<path fill="#A2A39D" d="M310.111,663.821c-4.956,1.836-9.661,4.399-14.07,7.421l0,0c27.73,1.623,42.126,12.41,47.275,17.276
		c0.029-0.107,0.074-0.222,0.109-0.331C339.037,683,327.912,671.494,310.111,663.821z"/>
	<path fill="#A2A39D" d="M303.42,661.244c2.327,0.792,4.556,1.657,6.691,2.577c3.962-1.467,8.083-2.471,12.346-2.865
		C316.875,660.394,310.004,660.592,303.42,661.244z"/>
	<path fill="#A2A39D" d="M303.42,661.244c-20.119,1.993-37.562,8.231-7.379,9.998c4.409-3.021,9.114-5.585,14.07-7.421
		C307.977,662.901,305.748,662.036,303.42,661.244z"/>
	<path fill="#8A8C87" d="M393.795,672.857c-8.744,0.512-16.152,1.939-22.375,3.802c-5.75,4.503-13.569,9.538-13.569,9.538
		l0.182,1.489c29.13-6.333,59.839,8.451,59.839,8.451l0,0C411.526,688.102,403.356,679.409,393.795,672.857z"/>
	<path fill="#A2A39D" d="M386.417,662.86c9.973-3.396,21.701-5.457,35.186-4.8c51.382,2.506-3.711,38.064-3.73,38.077
		c9.361,11.854,14.749,22.278,14.749,22.278s-11.009-50.38,65.386-59.101c34.395-3.926-41.878-37.486-41.878-37.486
		c-34.525,25.354-88.746,40.742-88.746,40.742C372.963,662.01,379.833,662.209,386.417,662.86z"/>
	<path fill="#A2A39D" d="M421.602,658.061c-13.483-0.657-25.213,1.404-35.186,4.8c20.12,1.993,37.564,8.231,7.38,9.997
		c0,0,0,0-0.001,0c9.562,6.552,17.73,15.244,24.075,23.28C417.891,696.125,472.983,660.566,421.602,658.061z"/>
	<path fill="#A2A39D" d="M343.109,689.735c-0.027,0.444,0.016,0.856,0.125,1.239c0.17-0.317,0.342-0.635,0.521-0.949
		C343.541,689.926,343.325,689.831,343.109,689.735z"/>
	<path fill="#A2A39D" d="M367.381,671.903c3.678-2.293,7.795-4.504,12.346-6.466c-3.962-1.467-8.083-2.471-12.346-2.865
		c0,0-15.904,12.56-21.976,21.732c0.365,0.664,0.666,1.304,0.888,1.91C350.713,680.418,357.414,675.329,367.381,671.903z"/>
	<path fill="#A2A39D" d="M344.166,689.345c-0.248-0.25-0.533-0.528-0.849-0.826c-0.118,0.427-0.185,0.831-0.208,1.217
		c0.217,0.096,0.432,0.19,0.646,0.29C343.888,689.797,344.028,689.571,344.166,689.345z"/>
	<path fill="#A2A39D" d="M344.258,689.19c0.617-1.009,1.293-2.002,2.035-2.976c-0.222-0.606-0.521-1.246-0.888-1.91
		c-0.922,1.394-1.602,2.701-1.979,3.883C343.737,688.555,344.015,688.89,344.258,689.19z"/>
	<path fill="#A2A39D" d="M343.426,688.188c-0.034,0.109-0.079,0.224-0.108,0.331c0.315,0.298,0.601,0.576,0.849,0.826
		c0.03-0.053,0.062-0.104,0.092-0.154C344.015,688.89,343.737,688.555,343.426,688.188z"/>
	<path fill="#A2A39D" d="M371.42,676.659c6.223-1.861,13.631-3.29,22.375-3.802c-4.408-3.021-9.112-5.584-14.068-7.42
		c-4.551,1.962-8.668,4.173-12.346,6.466l0,0C382.021,666.872,378.129,671.404,371.42,676.659z"/>
	<path fill="#A2A39D" d="M386.417,662.86c-6.584-0.651-13.454-0.851-19.034-0.288c4.262,0.396,8.383,1.398,12.345,2.865
		C381.861,664.518,384.091,663.652,386.417,662.86z"/>
	<path fill="#A2A39D" d="M393.796,672.857c30.186-1.766,12.74-8.004-7.38-9.997c-2.325,0.792-4.556,1.657-6.689,2.577
		C384.683,667.273,389.387,669.836,393.796,672.857L393.796,672.857z"/>
	<path fill="#A2A39D" d="M344.266,692.511c-0.542-0.418-0.863-0.941-1.032-1.536c-4.928,9.198-5.262,19.43-4.33,27.44h22.872
		l-3.744-30.729C353.358,688.702,348.725,690.259,344.266,692.511z"/>
	<path fill="#A2A39D" d="M371.42,676.659c-19.381,5.8-27.154,15.853-27.154,15.853c4.459-2.252,9.093-3.81,13.767-4.824
		l-0.182-1.489C357.851,686.197,365.67,681.162,371.42,676.659z"/>
	<path fill="#A2A39D" d="M345.525,690.873c-0.587-0.296-1.177-0.575-1.77-0.848c-0.182,0.314-0.353,0.632-0.522,0.949
		c0.169,0.595,0.49,1.118,1.032,1.536C344.266,692.511,344.688,691.911,345.525,690.873z"/>
	<path fill="#A2A39D" d="M346.489,689.709c3.3-3.885,10.271-11.183,20.892-17.807c-9.967,3.426-16.668,8.516-21.086,14.312
		C346.787,687.567,346.896,688.758,346.489,689.709z"/>
	<path fill="#A2A39D" d="M344.166,689.345c-0.138,0.227-0.277,0.452-0.41,0.681c0.594,0.271,1.184,0.552,1.771,0.848
		c0.005-0.006,0.011-0.013,0.015-0.019C345.433,690.72,344.985,690.176,344.166,689.345z"/>
	<path fill="#A2A39D" d="M346.489,689.709c0.406-0.951,0.298-2.143-0.194-3.494c-0.742,0.974-1.418,1.967-2.037,2.976
		c0.748,0.922,1.177,1.512,1.285,1.662C345.814,690.516,346.129,690.134,346.489,689.709z"/>
	<path fill="#A2A39D" d="M345.543,690.853c-0.108-0.15-0.537-0.74-1.285-1.662c-0.03,0.051-0.062,0.104-0.092,0.154
		c0.819,0.831,1.268,1.375,1.375,1.51C345.541,690.854,345.541,690.854,345.543,690.853z"/>
	<path fill="#A2A39D" d="M371.42,676.659c6.709-5.255,10.601-9.787-4.039-4.756l0,0c-10.621,6.624-17.592,13.922-20.893,17.808
		c-0.191,0.448-0.484,0.852-0.917,1.186c-0.016-0.008-0.03-0.015-0.047-0.021c-0.838,1.037-1.26,1.638-1.26,1.638
		S352.039,682.459,371.42,676.659z"/>
	<path fill="#A2A39D" d="M345.541,690.854c-0.006,0.006-0.011,0.013-0.016,0.019c0.016,0.009,0.031,0.016,0.047,0.022
		C345.572,690.896,345.558,690.877,345.541,690.854z"/>
	<path fill="#A2A39D" d="M345.572,690.896c0.434-0.334,0.727-0.736,0.917-1.187c-0.358,0.425-0.675,0.807-0.946,1.144
		C345.561,690.877,345.572,690.896,345.572,690.896z"/>
	<path fill="#A2A39D" d="M345.541,690.854c0.018,0.022,0.031,0.041,0.031,0.041s-0.012-0.018-0.029-0.043
		C345.541,690.854,345.541,690.854,345.541,690.854z"/>
</g>
</svg>
