<svg xmlns="http://www.w3.org/2000/svg" viewBox="0 0 170.35 170.94"><defs><style>.cls-1{fill:#633315;}.cls-2{fill:#361f11;}</style></defs><title>Asset 1</title><g id="Layer_2" data-name="Layer 2"><g id="Layer_1-2" data-name="Layer 1"><path class="cls-1" d="M137.69,137.28c-37,37.54-90.57,44.78-119.57,16.18A58.59,58.59,0,0,1,5.46,134.87h0C-7.34,105.18,2.62,64.13,32.66,33.68,64.45,1.45,108.38-8.46,138.54,7.47a57.67,57.67,0,0,1,13.7,10,53.32,53.32,0,0,1,3.64,4c.57.66,1.12,1.35,1.64,2l0,0C180.23,53.16,172.26,102.23,137.69,137.28Z"/><path class="cls-2" d="M119.79,88.27C104.12,104.15,74.06,100.4,57,104.12c-26.61,5.8-50.8,30.15-51.53,30.74C6,134.08,26.1,90.8,55.68,84c19.37-4.48,38.54-3.23,57-26.32,18.16-22.77,25.7-49.43,25.9-50.17a57.67,57.67,0,0,1,13.7,10,53.32,53.32,0,0,1,3.64,4c.49.66,1,1.35,1.64,2l0,0C156.12,40.33,135.15,72.7,119.79,88.27Z"/></g></g></svg>