<?xml version="1.0" encoding="utf-8"?>
<!-- Generator: Adobe Illustrator 19.2.1, SVG Export Plug-In . SVG Version: 6.00 Build 0)  -->
<svg version="1.1" id="Layer_1" xmlns="http://www.w3.org/2000/svg" xmlns:xlink="http://www.w3.org/1999/xlink" x="0px" y="0px"
	 viewBox="0 0 360 360" style="enable-background:new 0 0 360 360;" xml:space="preserve">
<style type="text/css">
	.st0{fill:#512B10;}
	.st1{fill:#633312;}
	.st2{fill:#808184;}
	.st3{fill:#757678;}
	.st4{fill:#BBBDBF;}
</style>
<path class="st0" d="M232.5,108.1c-1.5-3.2-1.8-6.5-1.3-9.7c-8.8,1-16.3-1.6-19-7.4c-2.2-4.6-0.7-10.3,3.2-15.5
	c-5.6-1.8-9.7-5.3-10.7-9.9c-0.4-1.8-0.3-3.6,0.1-5.4h-99.4V237h138.5V117.3C239.1,116.3,234.8,113,232.5,108.1z"/>
<rect x="117.4" y="69.5" class="st1" width="33" height="46.3"/>
<rect x="199.6" y="180.4" class="st1" width="33" height="46.3"/>
<rect x="158.5" y="181" class="st1" width="33" height="46.3"/>
<rect x="117.4" y="181" class="st1" width="33" height="46.3"/>
<rect x="158.5" y="125.3" class="st1" width="33" height="46.3"/>
<rect x="117.4" y="125.3" class="st1" width="33" height="46.3"/>
<rect x="199.6" y="125.3" class="st1" width="33" height="46.3"/>
<rect x="158.5" y="70.2" class="st1" width="33" height="46.3"/>
<polygon class="st2" points="243.9,320.6 105.5,320.6 105.5,171.6 243.9,213 "/>
<polygon class="st3" points="104.4,171.3 105.5,320.6 243.9,320.6 "/>
<polygon class="st4" points="104.4,171.3 92.4,204.4 112.3,197.9 118.3,213.6 139.6,202.3 152.1,216.9 170.5,210.5 176.8,233.4 
	192.8,223 201.4,232.2 213.5,222 218.1,236.8 230.4,227.2 238.4,235.8 245.7,230.1 258.9,231.9 244.8,210.5 "/>
<path class="st1" d="M231.3,98.6c-8.8,1-16.3-1.6-19-7.4c-2.2-4.6-0.7-10.3,3.2-15.5c-3.6-1.2-6.6-3-8.5-5.4h-7.5v46.3h33v-8.5
	C231.1,105,230.8,101.7,231.3,98.6z"/>
</svg>
