<?xml version="1.0" encoding="utf-8"?>
<!-- Generator: Adobe Illustrator 19.2.1, SVG Export Plug-In . SVG Version: 6.00 Build 0)  -->
<svg version="1.1" id="Layer_1" xmlns="http://www.w3.org/2000/svg" xmlns:xlink="http://www.w3.org/1999/xlink" x="0px" y="0px"
	 viewBox="0 0 360 360" style="enable-background:new 0 0 360 360;" xml:space="preserve">
<style type="text/css">
	.st0{fill:#633315;}
	.st1{fill:#361F11;}
</style>
<g>
	<ellipse class="st0" cx="155.6" cy="149.2" rx="33.6" ry="43.5"/>
	<path class="st1" d="M151.2,106.2c0,0-7.6,15.1-8.1,27.2c-0.5,12.1,7.1,24.4,9.8,31.6c2.8,7.6,4.3,16.8,2.7,20.9
		c6.3-6.4,6.2-13.4,5.5-18.2c-1.2-8.5-5.5-25.9-5.5-34c0-11.2,8-26.5,8-26.5S158.5,105.5,151.2,106.2z"/>
</g>
<g>
	<path class="st0" d="M236.6,228.6c-16.2,16.4-39.5,19.5-52.2,7.1c-2.4-2.4-4.2-5.1-5.5-8.1c0,0,0,0,0,0
		c-5.6-12.9-1.2-30.9,11.9-44.1c13.9-14.1,33-18.4,46.2-11.4c2.2,1.1,4.2,2.6,6,4.4c0.6,0.6,1.1,1.1,1.6,1.7
		c0.2,0.3,0.5,0.6,0.7,0.9l0,0C255.2,191.9,251.7,213.3,236.6,228.6z"/>
	<path class="st1" d="M228.8,207.2c-6.8,6.9-19.9,5.3-27.4,6.9c-11.6,2.5-22.2,13.2-22.5,13.4c0.2-0.3,9-19.2,21.9-22.2
		c8.4-2,16.8-1.4,24.8-11.5c7.9-9.9,11.2-21.6,11.3-21.9c2.2,1.1,4.2,2.6,6,4.4c0.6,0.6,1.1,1.1,1.6,1.7c0.2,0.3,0.4,0.6,0.7,0.9
		l0,0C244.6,186.3,235.5,200.5,228.8,207.2z"/>
</g>
<g>
	
		<ellipse transform="matrix(0.9636 -0.2675 0.2675 0.9636 -55.9119 37.3961)" class="st0" cx="109.3" cy="223.9" rx="33" ry="42.7"/>
	<path class="st1" d="M98.7,186c0,0-1.6,19.5,2.7,34.9c4.3,15.4,18.4,41,18.4,41s-1-19.4-4.2-30.9C112.4,219.6,98.7,186,98.7,186z"
		/>
</g>
<g>
	<ellipse transform="matrix(0.687 -0.7267 0.7267 0.687 -15.8627 221.3677)" class="st0" cx="249" cy="129.1" rx="30.1" ry="39"/>
	<path class="st1" d="M217.1,107.4c0,0,8.5,4.5,17.2,11.9c8.7,7.4,17.4,20.5,21.4,27.2s13.6,14.9,13.6,14.9s5.2-1.9,8.1-5.6
		c-8-7.6-20-23.5-20-23.5s-9.8-14.3-19.4-21.6s-17.2-8.3-17.2-8.3S221.1,102.3,217.1,107.4z"/>
</g>
</svg>
