<?xml version="1.0" encoding="utf-8"?>
<!-- Generator: Adobe Illustrator 19.2.1, SVG Export Plug-In . SVG Version: 6.00 Build 0)  -->
<svg version="1.1" id="Layer_1" xmlns="http://www.w3.org/2000/svg" xmlns:xlink="http://www.w3.org/1999/xlink" x="0px" y="0px"
	 viewBox="0 0 360 360" style="enable-background:new 0 0 360 360;" xml:space="preserve">
<style type="text/css">
	.st0{fill:#C3E7F0;}
	.st1{fill:#A7D8DC;}
	.st2{opacity:0.7;fill:#AE6B2F;}
	.st3{fill:#E8F6FD;}
	.st4{fill:#B3DBEB;}
	.st5{fill:#CCEBF8;}
	.st6{fill:#DDF1FC;}
	.st7{opacity:0.77;fill:#37200F;}
	.st8{fill:#37200F;}
</style>
<g>
	<path class="st0" d="M295.5,190.3v63.2c0,18.8-15.2,34-34,34h-51.2c-14.8,0-27.5-9.5-32.1-22.8c1.7,0.3,3.4,0.4,5.1,0.4h51.2
		c32.9,0,34-4.5,34-34v-18.5c0-32.2-9.6-33.9-34-33.9h-51.2c-1.7,0-3.5,0.1-5.1,0.4c4.6-13.3,17.2-22.8,32.1-22.8h51.2
		C280.3,156.3,295.5,171.5,295.5,190.3z"/>
	<rect x="81.5" y="72.3" class="st0" width="136.9" height="27.5"/>
	<path class="st0" d="M202.3,350H97.6c-18.8,0-34-15.2-34-34V137c0-18.8,15.2-34,34-34h104.7c18.8,0,34,15.2,34,34v179
		C236.2,334.8,221,350,202.3,350z"/>
	<rect x="78" y="98.2" class="st1" width="143.8" height="8.4"/>
	<rect x="78" y="81.8" class="st1" width="143.8" height="8.4"/>
	<path class="st2" d="M78,152.3v158.2c0,0-0.3,23.1,16,23.1s109.1,0,109.1,0s18.6-1,18.6-19.2s0-162.2,0-162.2s-30.8,5.8-71.9,5.8
		C108.6,158.1,78,152.3,78,152.3z"/>
	<g>
		<polygon id="XMLID_12_" class="st3" points="131.9,200.3 117.9,171.3 141.8,154.2 155.8,183.3 		"/>
		<path id="XMLID_10_" class="st4" d="M105.9,179.8"/>
		<g>
			<polygon id="XMLID_11_" class="st5" points="113,194.3 98.9,165.3 122.8,148.2 136.8,177.3 			"/>
			<polygon id="XMLID_9_" class="st6" points="113,194.3 131.9,200.3 155.8,183.3 136.8,177.3 			"/>
			<polygon id="XMLID_8_" class="st3" points="122.8,148.2 141.8,154.2 155.8,183.3 136.8,177.3 			"/>
		</g>
	</g>
	<g>
		<polygon id="XMLID_6_" class="st3" points="203.9,165.2 183.6,171 174.6,155.8 194.9,150 		"/>
		<path id="XMLID_4_" class="st4" d="M188.1,178.6"/>
		<g>
			<polygon id="XMLID_5_" class="st5" points="198.3,175.7 177.9,181.5 168.9,166.3 189.2,160.5 			"/>
			<polygon id="XMLID_3_" class="st6" points="198.3,175.7 203.9,165.2 194.9,150 189.2,160.5 			"/>
			<polygon id="XMLID_2_" class="st3" points="168.9,166.3 174.6,155.8 194.9,150 189.2,160.5 			"/>
		</g>
	</g>
	<polygon class="st7" points="168.9,106.6 183.8,106.6 147.2,294.6 131.4,294.6 	"/>
	<path class="st8" d="M250.8,27.9l-54.4,33.2c-2.7,1.6-4.5,4.3-5.1,7.4l-0.7,3.8h-14.7l2.2-10.9c0.7-3.7,3.1-6.9,6.3-8.8L245.1,18
		L250.8,27.9z"/>
	<g>
		<polygon id="XMLID_15_" class="st3" points="177.1,226.5 163.3,200.8 181.1,184.1 194.9,209.9 		"/>
		<path id="XMLID_14_" class="st4" d="M154.3,209.1"/>
		<g>
			<polygon id="XMLID_13_" class="st5" points="161.2,222 147.4,196.2 165.3,179.6 179.1,205.3 			"/>
			<polygon id="XMLID_7_" class="st6" points="161.2,222 177.1,226.5 194.9,209.9 179.1,205.3 			"/>
			<polygon id="XMLID_1_" class="st3" points="165.3,179.6 181.1,184.1 194.9,209.9 179.1,205.3 			"/>
		</g>
	</g>
	<path class="st2" d="M78,152.3v158.2c0,0-0.3,23.1,16,23.1s109.1,0,109.1,0s18.6-1,18.6-19.2s0-162.2,0-162.2s-30.8,5.8-71.9,5.8
		C108.6,158.1,78,152.3,78,152.3z"/>
	<polygon class="st7" points="168.9,106.6 183.8,106.6 190.5,72.3 175.7,72.3 	"/>
	<path class="st2" d="M78,152.3l137.6,176.5c0,0-5,4.9-12.4,4.9c-7.4,0-109.1,0-109.1,0s-14,0.8-16-19.2C78,288.5,78,152.3,78,152.3
		z"/>
</g>
</svg>
