<?xml version="1.0" encoding="utf-8"?>
<!-- Generator: Adobe Illustrator 21.0.0, SVG Export Plug-In . SVG Version: 6.00 Build 0)  -->
<svg version="1.1" id="Layer_1" xmlns="http://www.w3.org/2000/svg" xmlns:xlink="http://www.w3.org/1999/xlink" x="0px" y="0px"
	 viewBox="0 0 360 360" style="enable-background:new 0 0 360 360;" xml:space="preserve">
<style type="text/css">
	.st0{fill:#EE3E33;}
	.st1{fill:#FEFDFD;}
</style>
<path class="st0" d="M106.8,127.7c0-3,0-5.9,0-8.9c0.6,0.7,1.5,0.5,2.3,0.4c1.9-0.2,4.2,0.7,5.7-0.7c1.4-1.3,0.5-3.4,0.6-5.2
	c0.1-1.6,0.5-2.5,2.3-2.4c1.1,0.1,2.3,0,3.5,0c16.5,0,32.9,0,49.4,0c4.2,0,4.2,0,4.3-4.3c0-0.8,0-1.6,0-2.5c0-24.5,0-49.1,0-73.6
	c0-1.3,0-2.6,0-4c0-1.2,0.6-1.8,1.8-1.8c2.6,0,5.3,0.1,7.9,0c2.1-0.1,2.5,1,2.4,2.7c-0.1,1.1,0,2.3,0,3.5c0,24.7,0,49.4,0,74.1
	c0,1.2,0.1,2.3,0,3.5c-0.1,1.6,0.5,2.5,2.2,2.5c1.2,0,2.3,0,3.5,0c16.1,0,32.3,0,48.4,0c4.9,0,5.4-0.9,5.3,4.9
	c0,3.2,0.1,3.2,3.4,3.3c0.7,0,1.3,0.1,2,0c2.1-0.2,2.9,0.7,3,2.8c0.2,5.3,0.3,5.4-5.2,5.5c-2.1,0-3.2,0.4-3.5,2.9
	c-1.5,14.2-3.2,28.4-4.9,42.7c-1.8,15.4-3.5,30.7-5.3,46.1c-2.2,18.6-4.3,37.3-6.5,55.9c-1.9,16.2-3.9,32.3-5.6,48.6
	c-0.6,5.8-2.1,11.6-1.4,17.6c-27.7,0-55.4,0-83,0c0.9-1.6,0.2-3.2,0-4.8c-2-18.5-4.1-36.9-6.3-55.3c-2.8-24.2-5.7-48.3-8.4-72.5
	c-2.8-24.3-5.5-48.7-8.3-73c-0.3-2.5,0.4-6-1.5-7.4C112.8,126.6,109.5,127.6,106.8,127.7z M180.9,324.4c8.7,0,17.5,0.1,26.2,0
	c5.9-0.1,8.7-2.7,9.4-8.6c1.3-11,2.6-21.9,3.8-32.9c2.8-24.4,5.5-48.7,8.3-73.1c3-26.5,6.1-53,9.3-79.4c0.3-2.4-0.5-2.8-2.6-2.8
	c-15.2,0-30.3,0.1-45.5,0c-2.6,0-2.9,1.2-2.9,3.3c0.1,6.4,0,12.8,0,19.3c0,10.7,0,10.6,7.7,17.7c1.3,1.2,2,1.4,2.9-0.2
	c0.9-1.7,1.9-3.5,3-5.1c1.7-2.6,3.1-3,5.8-1.5c5.8,3.2,11.5,6.5,17.1,9.9c2.6,1.6,2.8,3,1.4,5.8c-0.7,1.5-1.7,2.8-2.4,4.3
	c-0.7,1.3-2.3,2.8,0.8,3.4c1,0.2,0.7,1.3,0.6,2.1c-0.6,5.2-1.2,10.5-1.8,15.7c-2.2,18.6-4.4,37.3-6.5,55.9c-2,17.2-3.9,34.3-6,51.5
	c-0.5,4.6-2.8,6.7-7.5,6.8c-14.2,0.1-28.3,0.1-42.5,0c-4.6,0-6.9-2.3-7.4-6.9c-2-17.2-4-34.3-5.9-51.5c-1.8-15.7-3.7-31.4-5.5-47.1
	c-0.9-8-1.8-16-2.7-24c-0.1-0.9-0.6-2.4,0.7-2.5c3.4-0.2,2-1.8,1.2-3.4c-2.1-4-1.9-4.9,1.9-7.1c5.2-3.1,10.5-6.2,15.8-9.2
	c3.3-1.8,4.4-1.4,6.5,1.7c2.6,4,2.6,4,5.9,0.7c0.9-0.9,1.8-1.9,2.8-2.8c1.7-1.4,2.2-3.1,2.1-5.2c-0.1-9.4,0-18.8-0.1-28.2
	c0-3.3-0.1-3.4-3.2-3.4c-15,0-30,0-45,0c-0.3,0-0.7,0-1,0c-1.5,0-1.9,0.7-1.8,2.2c0.7,5.7,1.3,11.4,2,17.2
	c2.2,18.6,4.4,37.3,6.5,55.9c2.1,18.5,4.2,37,6.3,55.4c2.2,18.8,4.6,37.6,6.5,56.4c0.6,5.7,3.9,10,10.5,9.7
	C164,324.1,172.5,324.4,180.9,324.4z M184.9,69.7c0-12.3,0-24.7,0-37c0-1.2,0-2.3,0-3.5c0-1.2-0.7-1.6-1.8-1.8
	c-5.4-0.8-6.2-0.2-6.2,5.3c0,24.3,0,48.7,0,73c0,1.2,0,2.3,0,3.5c0,0.4,0.2,0.9,0.5,1.3c0.4,0.5,6.1,0.7,6.7,0.3
	c1.2-0.8,0.8-2.1,0.8-3.2C185,95.1,184.9,82.4,184.9,69.7z M182,184.2c8.7,0,8.7,0,14.7-6.4c0.2-0.2,0.4-0.5,0.7-0.7
	c1.6-1.4,1.3-2.7-0.1-4.1c-4.4-4.4-8.9-8.8-13.2-13.2c-1.5-1.5-2.7-1.5-4.2,0c-4.4,4.5-8.8,8.9-13.2,13.3c-1.4,1.4-1.5,2.6-0.2,4.2
	c5.5,6.6,6.4,7,15,7C181.7,184.2,181.8,184.2,182,184.2z M202.9,184.2c1,0,2,0,3,0c7.2,0,7.2,0,10.4-6.5c0.9-1.7,0.5-2.6-1.1-3.5
	c-3.4-1.9-6.8-4-10.2-6c-0.4-0.3-0.9-0.6-0.6-1.2c0.4-0.7,1-0.7,1.6-0.3c4,2.3,7.9,4.7,12,6.9c1.8,1,1.7,2.1,0.7,3.6
	c-1.1,1.6-2,3.4-2.9,5.1c-0.7,1.3,0,1.7,1.2,1.8c1.3,0.1,2.1-0.6,2.7-1.7c1.1-2,2.2-4,3.5-6c1.2-1.9,0.9-3.3-1.1-4.5
	c-3.9-2.2-7.7-4.5-11.5-6.7c-7.8-4.4-6.3-5.1-11.1,3c-0.9,1.6-1.3,2.8,0.2,4.3c1.9,1.9,1.1,3.9-0.6,5.6c-1.3,1.3-2.6,2.6-3.8,3.8
	c-0.5,0.5-1.1,1.1-0.8,1.6c0.2,0.4,1.2,0.4,1.8,0.4C198.3,184.2,200.6,184.1,202.9,184.2z M160.2,184.2
	C160.2,184.1,160.2,184.1,160.2,184.2c2.8,0,5.6,0,8.4,0c0.4,0,0.8-0.3,1.3-0.4c-0.2-0.4-0.3-1-0.5-1.3c-1.3-1.4-2.8-2.8-4.1-4.2
	c-1.2-1.2-2.2-2.7-1.2-4.4c1.9-3.5-1-5.4-2.5-7.7c-0.5-0.8-1.4-0.6-2.2-0.2c-5.8,3.4-11.7,6.7-17.5,10.1c-1.4,0.8-1.6,2-0.7,3.3
	c0.7,1.1,1.4,2.2,2,3.4c0.6,1.2,1.6,1.5,2.9,1.4c1-0.1,1.6-0.4,1-1.5c-0.3-0.6-0.6-1.2-0.9-1.7c-1.2-1.7-1-2.9,1-3.9
	c3.9-2.1,7.7-4.4,11.5-6.6c0.4-0.2,0.9-0.4,1.3,0c0.7,0.8-0.1,1.2-0.5,1.5c-3.4,2-6.8,4-10.2,6c-0.8,0.5-1.8,0.8-1.5,2.2
	c0.6,2.4,2.6,4.1,5.2,4.1C155.2,184.2,157.7,184.2,160.2,184.2z M176.8,143.3C176.9,143.3,176.9,143.3,176.8,143.3
	c0,4.8,0,9.6,0,14.3c0,1.3,0.4,2,1.7,0.9c1.2-1.1,2.4-2.5,4.3-1.8c2,0.8,2.2-0.2,2.2-1.8c0-7.7,0-15.5,0-23.2c0-4.2,0-4.2-4.4-4.2
	c-0.3,0-0.7,0-1,0c-2.2-0.3-2.8,0.9-2.7,2.9C176.9,134.8,176.8,139,176.8,143.3z"/>
<path class="st1" d="M180.9,324.4c-8.4,0-16.8-0.2-25.2,0.1c-6.6,0.3-9.9-4-10.5-9.7c-1.9-18.8-4.3-37.6-6.5-56.4
	c-2.1-18.5-4.2-37-6.3-55.4c-2.1-18.6-4.3-37.3-6.5-55.9c-0.7-5.7-1.3-11.4-2-17.2c-0.2-1.4,0.2-2.2,1.8-2.2c0.3,0,0.7,0,1,0
	c15,0,30,0,45,0c3.1,0,3.2,0.1,3.2,3.4c0,9.4,0,18.8,0.1,28.2c0,2.1-0.5,3.8-2.1,5.2c-1,0.8-1.9,1.9-2.8,2.8
	c-3.2,3.2-3.2,3.2-5.9-0.7c-2.1-3.1-3.2-3.5-6.5-1.7c-5.3,3-10.6,6-15.8,9.2c-3.8,2.3-4,3.1-1.9,7.1c0.8,1.6,2.2,3.1-1.2,3.4
	c-1.3,0.1-0.8,1.5-0.7,2.5c0.9,8,1.8,16,2.7,24c1.8,15.7,3.7,31.4,5.5,47.1c2,17.2,3.9,34.3,5.9,51.5c0.5,4.6,2.8,6.8,7.4,6.9
	c14.2,0.1,28.3,0.1,42.5,0c4.7,0,7-2.2,7.5-6.8c2-17.2,4-34.3,6-51.5c2.2-18.6,4.4-37.3,6.5-55.9c0.6-5.2,1.2-10.5,1.8-15.7
	c0.1-0.8,0.3-1.9-0.6-2.1c-3.1-0.6-1.5-2.1-0.8-3.4c0.8-1.5,1.7-2.8,2.4-4.3c1.4-2.8,1.2-4.3-1.4-5.8c-5.6-3.4-11.3-6.7-17.1-9.9
	c-2.7-1.5-4.1-1.1-5.8,1.5c-1.1,1.6-2,3.4-3,5.1c-0.9,1.7-1.7,1.4-2.9,0.2c-7.7-7.1-7.7-7-7.7-17.7c0-6.4,0.1-12.8,0-19.3
	c0-2.1,0.3-3.3,2.9-3.3c15.2,0.1,30.3,0.1,45.5,0c2.1,0,2.9,0.4,2.6,2.8c-3.2,26.5-6.3,53-9.3,79.4c-2.8,24.4-5.5,48.7-8.3,73.1
	c-1.2,11-2.5,21.9-3.8,32.9c-0.7,5.8-3.5,8.5-9.4,8.6C198.3,324.4,189.6,324.4,180.9,324.4z"/>
<path class="st1" d="M184.9,69.7c0,12.7,0,25.3,0,38c0,1.1,0.4,2.4-0.8,3.2c-0.7,0.4-6.4,0.2-6.7-0.3c-0.3-0.4-0.5-0.9-0.5-1.3
	c-0.1-1.1,0-2.3,0-3.5c0-24.3,0-48.7,0-73c0-5.5,0.8-6.1,6.2-5.3c1.2,0.2,1.8,0.6,1.8,1.8c0,1.2,0,2.3,0,3.5
	C184.9,45.1,184.9,57.4,184.9,69.7z"/>
<path class="st1" d="M182,184.2c-0.2,0-0.3,0-0.5,0c-8.6,0-9.5-0.5-15-7c-1.3-1.6-1.2-2.8,0.2-4.2c4.4-4.4,8.8-8.8,13.2-13.3
	c1.5-1.5,2.7-1.5,4.2,0c4.4,4.5,8.8,8.9,13.2,13.2c1.4,1.4,1.7,2.7,0.1,4.1c-0.2,0.2-0.5,0.5-0.7,0.7
	C190.7,184.2,190.7,184.2,182,184.2z M179.4,165.5c-0.3,0.3-0.7,0.7-1,1c-0.4,0.4-0.8,0.8-1.2,1.2c-0.3,0.3-0.7,0.7-1,1
	c-0.3,0.3-0.7,0.7-1,1c-0.3,0.3-0.7,0.7-1,1c-0.3,0.3-0.7,0.7-1,1c-0.3,0.3-0.7,0.7-1,1c-0.3,0.3-0.5,0.5-0.8,0.8
	c-0.7,0.6-2,1.1-1.1,2.1c0.9,1,1.4-0.4,1.9-1c0.5-0.1,0.9-0.5,1-1c0.5-0.1,0.8-0.5,1-1c0.5-0.1,0.9-0.5,1-1c0.5-0.1,0.9-0.5,1-1
	c0.5-0.1,0.8-0.5,1-1c0.5-0.1,0.9-0.5,1-1c0.5-0.1,0.9-0.4,1-1c0.5-0.1,0.9-0.5,1-1c0.5-0.1,0.9-0.5,1-1c0.7-0.1,1.7,0.2,2-0.7
	c0.1-0.3-0.2-0.9-0.5-1.2c-0.7-0.7-1.4-0.3-2,0.3c-0.2,0.2-0.4,0.5-0.6,0.8C179.9,165,179.6,165.2,179.4,165.5z M193.7,174.9
	c0-0.8-0.7-1.1-1.3-1.2c-0.3,0-0.9,0.3-0.5,1c0.3,0.6,0.8,1,1.5,1C193.5,175.7,193.6,175.2,193.7,174.9z"/>
<path class="st1" d="M202.9,184.2c-2.3,0-4.6,0-6.9,0c-0.6,0-1.6,0-1.8-0.4c-0.4-0.5,0.3-1.2,0.8-1.6c1.3-1.3,2.5-2.6,3.8-3.8
	c1.7-1.7,2.5-3.7,0.6-5.6c-1.5-1.5-1.1-2.7-0.2-4.3c4.8-8.1,3.3-7.5,11.1-3c3.9,2.2,7.7,4.5,11.5,6.7c2,1.1,2.3,2.5,1.1,4.5
	c-1.2,2-2.3,4-3.5,6c-0.6,1.1-1.4,1.8-2.7,1.7c-1.2-0.1-1.9-0.5-1.2-1.8c0.9-1.7,1.8-3.5,2.9-5.1c1-1.5,1.2-2.6-0.7-3.6
	c-4-2.2-8-4.6-12-6.9c-0.6-0.4-1.3-0.4-1.6,0.3c-0.3,0.5,0.2,0.9,0.6,1.2c3.4,2,6.8,4,10.2,6c1.6,0.9,1.9,1.8,1.1,3.5
	c-3.2,6.5-3.1,6.5-10.4,6.5C204.9,184.2,203.9,184.2,202.9,184.2z"/>
<path class="st1" d="M160.2,184.2c-2.5,0-4.9,0-7.4,0c-2.6-0.1-4.6-1.7-5.2-4.1c-0.3-1.3,0.7-1.7,1.5-2.2c3.4-2,6.8-3.9,10.2-6
	c0.5-0.3,1.2-0.7,0.5-1.5c-0.4-0.5-0.9-0.3-1.3,0c-3.8,2.2-7.6,4.5-11.5,6.6c-1.9,1-2.2,2.2-1,3.9c0.4,0.5,0.6,1.1,0.9,1.7
	c0.6,1.1,0,1.4-1,1.5c-1.2,0.1-2.2-0.1-2.9-1.4c-0.6-1.2-1.3-2.3-2-3.4c-0.9-1.4-0.7-2.5,0.7-3.3c5.8-3.4,11.7-6.7,17.5-10.1
	c0.8-0.5,1.7-0.6,2.2,0.2c1.5,2.3,4.4,4.2,2.5,7.7c-1,1.7,0,3.2,1.2,4.4c1.4,1.4,2.8,2.8,4.1,4.2c0.3,0.3,0.4,0.8,0.5,1.3
	c-0.4,0.2-0.8,0.4-1.3,0.4C165.7,184.1,162.9,184.1,160.2,184.2C160.2,184.1,160.2,184.1,160.2,184.2z"/>
<path class="st1" d="M176.8,143.3c0-4.3,0.1-8.6,0-12.8c0-2,0.5-3.2,2.7-2.9c0.3,0,0.7,0,1,0c4.4-0.1,4.4-0.1,4.4,4.2
	c0,7.7,0,15.5,0,23.2c0,1.5-0.1,2.6-2.2,1.8c-1.8-0.7-3,0.7-4.3,1.8c-1.3,1.1-1.7,0.4-1.7-0.9C176.9,152.9,176.9,148.1,176.8,143.3
	C176.9,143.3,176.9,143.3,176.8,143.3z"/>
<path class="st0" d="M193.5,174.2l-10.7-10.6c-0.7-0.7-1.4-0.3-2,0.3c-0.2,0.2-0.4,0.5-0.6,0.8c-0.3,0.3-0.5,0.5-0.8,0.8
	c-0.3,0.3-0.7,0.7-1,1c-0.4,0.4-0.8,0.8-1.2,1.2c-0.3,0.3-0.7,0.7-1,1c-0.3,0.3-0.7,0.7-1,1c-0.3,0.3-0.7,0.7-1,1
	c-0.3,0.3-0.7,0.7-1,1c-0.3,0.3-0.7,0.7-1,1c-0.3,0.3-0.5,0.5-0.8,0.8c-0.7,0.6-2,1.1-1.1,2.1c0.4,0.4,0.7,0.4,0.9,0.3l0,0l0,0
	c0.1-0.1,0.2-0.2,0.3-0.3l10.6-9.7l0,0l10.1,9.6l0,0c0.3,0.3,0.6,0.4,1,0.4c0.1,0,0.2-0.5,0.4-0.8
	C193.7,174.6,193.6,174.4,193.5,174.2z"/>
</svg>
