<?xml version="1.0" encoding="utf-8"?>
<!-- Generator: Adobe Illustrator 21.0.0, SVG Export Plug-In . SVG Version: 6.00 Build 0)  -->
<svg version="1.1" id="Layer_1" xmlns="http://www.w3.org/2000/svg" xmlns:xlink="http://www.w3.org/1999/xlink" x="0px" y="0px"
	 viewBox="0 0 417.3 70.2" style="enable-background:new 0 0 417.3 70.2;" xml:space="preserve">
<style type="text/css">
	.st0{fill:#FDB615;}
	.st1{fill:#633315;}
	.st2{fill:#361F11;}
	.st3{fill:#C4E8F0;}
	.st4{fill:#2D3086;}
	.st5{fill:#BD7938;}
	.st6{fill:#8E4521;}
	.st7{fill:#633312;}
	.st8{fill:#512B10;}
	.st9{fill:#38200F;}
	.st10{fill:#1E1E1E;}
	.st11{fill:#272626;}
	.st12{opacity:0.67;fill:#BD7938;}
	.st13{fill:#E9F7FE;}
	.st14{fill:#CEECF9;}
	.st15{fill:#B5DCEC;}
	.st16{fill:#DEF2FD;}
	.st17{opacity:0.77;fill:#38200F;}
	.st18{opacity:0.7;fill:#AF6A2F;}
	.st19{fill:#D1D3D4;}
	.st20{fill:#F1F2F2;}
	.st21{fill:#FFFFFF;}
	.st22{fill:#E6E7E8;}
	.st23{fill:#2C3689;}
	.st24{fill:#341C0F;}
	.st25{fill:#E0E0E0;}
	.st26{fill:#B2692B;}
	.st27{fill:#4B2816;}
	.st28{fill:#552D16;}
	.st29{fill:#EAEAEA;}
	.st30{fill:#808285;}
	.st31{fill:#747577;}
	.st32{fill:#BCBEC0;}
	.st33{fill:#A7D8DD;}
	.st34{opacity:0.47;}
	.st35{fill:none;stroke:#FDB615;stroke-width:12.0206;stroke-miterlimit:10;}
	.st36{fill:#7F2218;}
	.st37{fill:#006838;}
	.st38{fill:#BE1E2D;}
	.st39{opacity:0.77;fill:#BE1E2D;}
	.st40{opacity:0.77;fill:#BD7938;}
	.st41{opacity:0.77;}
	.st42{fill:none;stroke:#FDB615;stroke-width:10.9453;stroke-miterlimit:10;}
</style>
<g>
	<path class="st21" d="M16.7,65.5c-4-1.8-6.2-4.8-6.1-9.4c0.1-12.9,0-25.9,0.1-38.8c0-1.5,0.2-3,0.8-4.3c1.2-3.2,3.9-4.5,7.1-4.1
		c2.9,0.4,5.1,2,5.7,5.1c0.2,1.2,0.1,2.5,0.2,3.8c0.5,4.3-2.1,10.9,1.2,12.5c4.5,2.2,10.8,0.7,16.3,0.8c2.4,0,2.5-1.6,2.6-3.5
		c0-4,0.1-8.1,0.1-12.1c0.1-4.1,2.4-6.5,6.2-6.7c4.2-0.3,7,2,7.2,6.4c0.7,14.4,0.6,28.8,0.1,43.2c-0.1,3.8-3.1,5.2-5.7,7
		c-0.8,0-1.7,0-2.5,0c-5.2-1.2-7-4.8-6.9-9.8c0.1-2.1,0-4.2-0.1-6.3c0-3.4-1.8-5-5.2-4.9c-1.9,0-3.8,0.1-5.7,0
		c-3.9-0.2-5.9,1.5-5.8,5.6c0.1,1.9-0.1,3.8,0,5.7c0.1,5-1.6,8.6-6.9,9.8C18.4,65.5,17.6,65.5,16.7,65.5z"/>
	<path class="st21" d="M319.9,65.5c-0.7-0.3-1.4-0.8-2.2-1c-11.9-2.2-17.2-7.5-17.8-19.4c-0.5-9.5-0.2-19.1-0.2-28.6
		c0-4.5,2.2-7.6,6.7-7.6c4.8,0,6.2,3.6,6.3,7.9c0.1,9.3,0,18.6,0.5,27.9c0.3,6,4.1,9,10,9.2c6.5,0.2,10.5-3.3,10.7-9.8
		c0.2-8.7,0.1-17.4,0.1-26.1c0-4.7,1-9,6.4-9.1c5.5-0.1,6.7,4.1,6.6,8.8c-0.1,6.8,0,13.6,0,20.3c-0.1,18.5-2.5,21.9-19.5,27.4
		C325,65.5,322.5,65.5,319.9,65.5z"/>
	<path class="st21" d="M89.3,65.5c-0.9-1.1-2.3-0.9-3.5-1.1c-10.1-1.7-15.9-7.1-16.6-17.1c-0.7-10.6-0.3-21.2-0.3-31.8
		c0-4.4,2.8-6.8,6.9-6.6c3.9,0.2,5.9,3,5.9,6.9c0,8.7,0,17.4,0.1,26.1c0.1,8.2,3.6,12,10.7,12c7.1,0,10.5-3.7,10.6-12
		c0.1-7.8,0.1-15.7,0-23.5c0-4.9,0.7-9.5,6.7-9.4c5.5,0.1,6.4,4.4,6.4,9.1c-0.1,6.6,0,13.1,0,19.7c0,18.6-2.5,22.1-19.2,27.7
		C94.4,65.5,91.9,65.5,89.3,65.5z"/>
	<path class="st21" d="M208.6,12.6c2.9,10.3,7.7,18,12.2,25.9c4.1,7.2,2.8,14.2-2.8,18.9c-5.1,4.3-13,4.4-18.2,0.3
		c-5.8-4.6-7.2-12.1-3.1-19.4C201,30.6,205.8,23.1,208.6,12.6z"/>
	<path class="st21" d="M174.7,43.2c-1.5-4-4.8-6.1-8.9-8c6.1-4.2,7.9-9.6,5.7-15.9c-2.3-6.6-7.9-9.2-14.5-9.5c-7-0.3-14-0.2-21-0.1
		c-7.2,0.1-9.4,2.2-9.5,9.6c-0.1,11.7,0.1,23.3-0.1,35c-0.1,6.1,2.3,9.7,8.6,10.1c7.2,0,14.4,0,21.7,0c8.4-0.8,16-2.7,18.4-12.4
		C176,48.9,175.8,46,174.7,43.2z M140.2,25.1c-0.4-2.1-0.4-4.4,2.9-4.2c1.9,0.1,3.8,0,5.7,0c0-0.1,0-0.2,0-0.2
		c2.7,0.3,5.5,0.3,8.1,0.9c2.2,0.4,3.7,1.9,3.8,4.4c0.1,2.7-1.3,4.5-3.8,5.1c-4.7,1.2-9.7,1.2-14.4,0.6
		C138.2,31.3,140.6,27.4,140.2,25.1z M157.8,52.6c-2.7,0.3-5.5,0.1-8.2,0.1c0,0.1,0,0.1,0,0.2c-1.5,0-3-0.2-4.4,0
		c-4.4,0.7-5.1-1.5-5.2-5.4c0-3.9,0.8-5.9,5.2-5.4c4.2,0.4,8.5,0.1,12.7,0.4c2.9,0.3,5.5,1.6,5.5,5C163.3,51,160.7,52.3,157.8,52.6z
		"/>
	<path class="st21" d="M280.9,35.1c6.1-4.3,7.7-9.8,5.5-16c-2.4-6.6-8-9.1-14.6-9.4c-7-0.3-14-0.2-21-0.1c-7,0.1-9,2.1-9.1,9.2
		c-0.1,11.9,0.1,23.8-0.1,35.6c-0.1,5.9,2.1,9.3,8.2,9.8c7.2,0,14.4,0,21.7,0c2.5-0.4,5-0.7,7.5-1.2c6.2-1.4,10-5.5,11.3-11.6
		C291.9,43.9,288.4,38.5,280.9,35.1z M258.2,20.9c1.9,0.1,3.8,0,5.7,0c0,0.1,0,0.1,0,0.2c2.1,0,4.2-0.2,6.3,0.1
		c2.9,0.4,5.4,1.6,5.3,5.1c0,3.4-2.1,4.9-5.2,5.1c-4,0.3-8,0.3-12,0.5c-4.7,0.2-3.3-3.3-3.4-5.8C255,23.8,253.9,20.7,258.2,20.9z
		 M271.3,52.8c-2.3,0.1-4.7,0-7,0c0,0,0,0.1,0,0.1c-1.5,0-3-0.2-4.5,0c-3.9,0.5-5.3-0.9-5-4.9c0.3-3.3-0.4-6.5,4.7-5.9
		c4,0.4,8.1,0.1,12.1,0.3c3.3,0.2,6.8,1.2,6.6,5.3C278.1,51.7,274.7,52.6,271.3,52.8z"/>
	<path class="st21" d="M397.2,34.8c6-4,7.6-9.7,5-16c-2.7-6.8-8.7-8.9-15.5-9.1c-7-0.1-14-0.1-21,0c-5.1,0-8,2.5-8,7.8
		c0,12.9,0,25.9,0,38.8c0,5.3,2.8,7.8,7.9,7.8c8.1,0.1,16.1,0.3,24.2-0.1c8.9-0.4,14.6-4.7,16.3-11.6
		C408,45.2,405.6,40.5,397.2,34.8z M370.8,24c0.3-2.6,1.3-3.2,3.5-3.1c3.6,0.1,7.2-0.1,10.7,0.1c3.4,0.2,6.5,1.2,6.4,5.4
		c-0.1,3.8-2.7,4.9-6,5.1c-2.3,0.2-4.6,0.3-5.1,0.4C370.6,31.9,370.1,31.3,370.8,24z M386.2,52.9c-1.9,0-3.8,0-5.7,0c0,0,0,0,0,0
		c-1.5,0-3-0.2-4.4,0c-4.2,0.6-5.4-1.2-5.3-5.3c0.1-3.7,0.4-6.1,5-5.6c3.5,0.4,7.1,0.1,10.7,0.2c3.7,0.1,7.9,0.9,7.7,5.4
		C394.1,52.3,389.9,52.8,386.2,52.9z"/>
</g>
</svg>
