<?xml version="1.0" encoding="utf-8"?>
<!-- Generator: Adobe Illustrator 16.0.0, SVG Export Plug-In . SVG Version: 6.00 Build 0)  -->
<!DOCTYPE svg PUBLIC "-//W3C//DTD SVG 1.1//EN" "http://www.w3.org/Graphics/SVG/1.1/DTD/svg11.dtd">
<svg version="1.1" id="Layer_1" xmlns="http://www.w3.org/2000/svg" xmlns:xlink="http://www.w3.org/1999/xlink" x="0px" y="0px"
	 width="1489.893px" height="1489.692px" viewBox="0 0 1489.893 1489.692" enable-background="new 0 0 1489.893 1489.692"
	 xml:space="preserve">
<g id="kMUu3q.tif">
	<g>
		<path fill="#EF3F32" d="M0,777c0-21.333,0-42.667,0-64c1.9-0.888,0.966-2.631,1.031-3.935c1.923-38.33,6.39-76.361,14.314-113.911
			c33.979-161.03,111.875-297.129,234.82-406.395C381.122,72.372,535.02,10.423,710.019,1.009C711.345,0.938,713.062,1.822,714,0
			c20.667,0,41.333,0,62,0c0.936,1.822,2.653,0.944,3.977,1.007c50.761,2.429,100.806,9.726,150.019,22.405
			c390.282,100.558,640.043,497.307,536.368,906.553c-92.195,363.929-449.447,614.081-843.803,549.583
			c-155.994-25.512-290.728-94.82-402.408-206.582C84.526,1137.24,12.016,972.59,1.033,780.936C0.958,779.629,1.9,777.888,0,777z
			 M1137.299,604.548c3.402-1.654,5.917-2.904,8.454-4.105c12.29-5.817,20.949-15.028,26.222-27.569
			c17.956-42.709-5.239-80.63-35.54-95.914c-13.371-6.745-27.688-9.293-42.465-9.986c-35.804-1.68-71.629-0.533-107.443-0.761
			c-8.153-0.052-16.337,0.183-24.461,0.846c-18.521,1.514-31.277,14.34-33.177,32.756c-0.771,7.477-0.805,14.97-0.809,22.465
			c-0.027,58.646-0.045,117.291-0.021,175.937c0.004,10.325-0.079,20.65,0.901,30.961c0.952,10.017,5.309,17.847,13.133,24.279
			c8.8,7.236,19.08,8.302,29.64,8.355c35.986,0.186,71.974,0.111,107.96,0.233c13.181,0.045,26.298-0.672,39.4-2.085
			c43.097-4.648,72.557-33.804,76.427-75.767c3.326-36.049-14.305-63.837-48.351-76.187
			C1144.204,606.93,1141.216,605.918,1137.299,604.548z M503.365,989.729c3.385-1.607,5.779-2.752,8.179-3.883
			c12.623-5.947,21.48-15.379,26.808-28.313c17.504-42.495-5.619-80.167-35.858-95.423c-14.167-7.147-29.379-9.464-44.976-10.092
			c-33.476-1.348-66.967-0.483-100.451-0.62c-9.158-0.038-18.339,0.091-27.472,0.71c-20.125,1.363-33.123,14.448-34.691,34.509
			c-0.312,3.983-0.572,7.984-0.577,11.977c-0.072,63.644-0.127,127.286-0.096,190.929c0.004,7.989,0.412,15.984,0.826,23.967
			c0.562,10.814,5.429,19.191,14.05,25.852c8.374,6.47,17.975,7.58,27.868,7.624c37.152,0.166,74.305,0.107,111.458,0.229
			c13.018,0.043,25.967-0.747,38.886-2.284c41.262-4.911,70.142-33.901,74.282-74.616c3.709-36.464-13.958-64.631-48.388-77.13
			C510.265,992.092,507.292,991.095,503.365,989.729z M1137.269,989.729c3.165-1.518,5.392-2.632,7.655-3.665
			c13.771-6.281,22.889-16.723,28.211-30.822c16.01-42.414-8.054-78.984-37.201-93.34c-14.079-6.935-29.103-9.252-44.526-9.878
			c-33.475-1.359-66.966-0.488-100.45-0.625c-9.157-0.037-18.338,0.096-27.471,0.707c-19.932,1.334-32.907,14.114-34.616,33.987
			c-0.613,7.125-0.76,14.307-0.768,21.463c-0.067,58.645-0.067,117.289-0.045,175.934c0.005,10.325-0.091,20.651,0.91,30.96
			c0.952,9.812,5.146,17.568,12.788,23.939c8.431,7.03,18.256,8.528,28.542,8.57c37.318,0.154,74.638,0.109,111.956,0.233
			c13.018,0.043,25.967-0.746,38.887-2.282c41.831-4.973,70.881-34.641,74.43-76.069c3.055-35.659-14.416-63.148-47.988-75.48
			C1144.48,992.222,1141.35,991.164,1137.269,989.729z M554.029,614.146c0.013,0,0.024,0,0.036,0c0-11.166,0.11-22.334-0.021-33.499
			c-0.342-28.821,1.038-57.667-1.029-86.464c-1.339-18.647-16.755-32.568-36.28-32.981c-18.94-0.401-34.97,13.238-36.966,31.557
			c-0.469,4.302-0.821,8.638-0.857,12.961c-0.201,23.997-0.39,47.995-0.32,71.992c0.013,4.345-0.813,5.944-5.642,5.909
			c-32.497-0.237-64.997-0.22-97.494-0.015c-4.611,0.029-5.707-1.248-5.712-5.775c-0.036-27.493,0.777-54.998-0.723-82.479
			c-0.371-6.789-1.863-13.17-5.932-18.777c-9.042-12.461-26.392-18.325-41.475-13.992c-15.797,4.539-25.496,16.477-26.487,33.131
			c-0.574,9.643-0.897,19.315-0.911,28.976c-0.08,59.497-0.084,118.995,0.002,178.492c0.015,9.992,0.472,19.99,0.945,29.975
			c0.46,9.711,3.605,18.352,11.521,24.543c11.905,9.312,25.201,12.333,39.388,6.478c14.505-5.985,22.358-16.896,23.049-33.141
			c1.163-27.33,0.485-54.656,0.688-81.983c0.021-2.899,0.276-4.453,3.92-4.438c33.665,0.142,67.33,0.128,100.995,0.013
			c3.236-0.012,3.88,1.164,3.825,4.06c-0.154,8.163-0.112,16.332-0.04,24.497c0.185,20.99-0.646,41.999,1.274,62.956
			c0.927,10.123,5.62,18.072,13.949,23.724c11.735,7.962,24.512,9.766,37.518,4.014c13.524-5.981,21.658-16.281,21.958-31.761
			c0.139-7.161,0.763-14.315,0.782-21.475C554.08,678.477,554.029,646.312,554.029,614.146z M799.115,573.664
			c0,23.924,0.001,43.087-0.001,62.251c-0.001,9.001-0.144,17.995-1.011,26.966c-1.39,14.37-7.15,25.859-19.769,34.031
			c-20.3,13.146-41.771,13.333-63.139,5.159c-15.426-5.9-27.279-16.793-29.792-34.686c-0.625-4.447-1.251-8.927-1.389-13.406
			c-1.294-42.15-0.283-84.313-0.61-126.47c-0.095-12.162,0.082-24.337-1.358-36.448c-2.8-23.53-28.952-36.986-49.819-25.856
			c-13.343,7.116-19.908,17.93-20.24,33.039c-1.137,51.652-1.024,103.304-0.053,154.953c0.135,7.135,1.127,14.284,2.132,21.368
			c6.715,47.31,32.137,76.688,77.293,87.122c32.487,7.508,65.65,8.277,98.212,0.882c40.748-9.256,67.33-34.451,76.986-75.721
			c4.189-17.903,4.622-36.321,4.614-54.685c-0.015-36.161,0.016-72.322-0.017-108.484c-0.009-9.996-0.146-19.983-0.99-29.966
			c-1.269-14.977-9.514-24.507-22.999-29.834c-7.071-2.793-14.628-4.329-21.937-1.203c-15.223,6.512-24.773,16.975-25.453,34.771
			C798.746,524.447,799.553,551.436,799.115,573.664z M799.115,958.71c0,17.946,0.048,31.11-0.013,44.275
			c-0.069,14.992,0.438,29.998-0.987,44.962c-1.387,14.565-7.237,26.168-20.084,34.362c-20.377,12.998-41.844,13.111-63.17,4.834
			c-15.416-5.982-27.124-17.021-29.535-34.903c-0.623-4.616-1.215-9.266-1.35-13.914c-1.217-41.816-0.261-83.646-0.572-125.468
			c-0.091-12.161,0.085-24.336-1.341-36.448c-2.81-23.855-29.051-37.222-50.154-25.814c-13.363,7.223-19.614,18.176-19.944,33.223
			c-1.119,51.153-0.911,102.304-0.134,153.455c0.145,9.507,1.567,18.913,3.184,28.283c7.44,43.141,32.46,70.589,74.763,80.91
			c33.409,8.151,67.595,8.862,101.108,0.973c40.072-9.435,66.124-34.616,75.646-75.242c4.157-17.739,4.638-35.985,4.637-54.181
			c-0.003-36.494,0.02-72.988-0.014-109.482c-0.01-9.829-0.162-19.649-0.977-29.467c-1.261-15.193-9.616-24.801-23.34-30.107
			c-6.938-2.683-14.357-4.111-21.476-1.109c-15.253,6.433-24.865,16.872-25.57,34.667
			C798.722,909.516,799.553,936.504,799.115,958.71z M680.734,311.652c0.193,35.172,23.779,62.185,54.618,66.375
			c32.699,4.442,63.018-14.974,71.611-45.875c5.559-19.986,0.597-38.201-9.516-55.484c-3.867-6.609-8.001-13.062-11.992-19.6
			c-16.728-27.397-31.164-55.812-38.714-87.285c-0.252-1.051-0.176-2.714-1.559-2.814c-1.883-0.137-1.658,1.809-1.932,2.942
			c-3.086,12.822-7.391,25.231-12.499,37.37c-10.054,23.887-23.676,45.814-37.221,67.788
			C685.898,287.453,680.816,300.693,680.734,311.652z"/>
		<path fill-rule="evenodd" clip-rule="evenodd" fill="#FFFEFE" d="M1137.299,604.548c3.917,1.37,6.905,2.382,9.87,3.458
			c34.046,12.35,51.677,40.138,48.351,76.187c-3.87,41.963-33.33,71.118-76.427,75.767c-13.103,1.413-26.22,2.13-39.4,2.085
			c-35.986-0.122-71.974-0.048-107.96-0.233c-10.56-0.054-20.84-1.119-29.64-8.355c-7.824-6.433-12.181-14.263-13.133-24.279
			c-0.98-10.311-0.897-20.636-0.901-30.961c-0.023-58.646-0.006-117.291,0.021-175.937c0.004-7.495,0.037-14.988,0.809-22.465
			c1.899-18.416,14.656-31.242,33.177-32.756c8.124-0.663,16.308-0.897,24.461-0.846c35.814,0.228,71.64-0.919,107.443,0.761
			c14.777,0.693,29.094,3.241,42.465,9.986c30.301,15.284,53.496,53.205,35.54,95.914c-5.272,12.541-13.932,21.752-26.222,27.569
			C1143.216,601.644,1140.701,602.894,1137.299,604.548z M1050.94,701.959c13.331-0.145,28.508,0.591,43.614-0.976
			c12.414-1.287,23.903-4.639,31.461-15.783c5.92-8.729,5.108-19.577-1.762-27.407c-9.865-11.246-23.072-14.047-36.964-14.648
			c-27.461-1.191-54.948-0.316-82.422-0.61c-3.019-0.032-3.979,0.82-3.954,3.915c0.14,17.151,0.155,34.306-0.01,51.457
			c-0.032,3.369,1.072,4.152,4.255,4.119C1019.812,701.875,1034.468,701.959,1050.94,701.959z M1042.017,586.668
			c6.494,0,12.989,0.072,19.482-0.017c10.326-0.141,20.688-0.339,30.809-2.556c12.502-2.738,22.229-14.031,22.514-25.517
			c0.36-14.615-6.334-23.604-20.729-27.861c-5.626-1.663-11.391-2.571-17.23-2.618c-23.979-0.19-47.958-0.184-71.935-0.447
			c-3.526-0.039-4.021,1.338-4.001,4.354c0.114,16.651,0.164,33.306-0.03,49.955c-0.043,3.66,0.8,4.883,4.654,4.802
			C1017.7,586.508,1029.86,586.669,1042.017,586.668z"/>
		<path fill-rule="evenodd" clip-rule="evenodd" fill="#FFFEFE" d="M503.365,989.729c3.926,1.366,6.9,2.363,9.847,3.434
			c34.43,12.499,52.097,40.666,48.388,77.13c-4.141,40.715-33.021,69.705-74.282,74.616c-12.919,1.537-25.869,2.327-38.886,2.284
			c-37.152-0.121-74.305-0.062-111.458-0.229c-9.894-0.044-19.495-1.154-27.868-7.624c-8.621-6.66-13.488-15.037-14.05-25.852
			c-0.414-7.982-0.822-15.978-0.826-23.967c-0.031-63.643,0.024-127.285,0.096-190.929c0.004-3.992,0.265-7.993,0.577-11.977
			c1.568-20.061,14.566-33.146,34.691-34.509c9.132-0.619,18.314-0.748,27.472-0.71c33.484,0.137,66.976-0.728,100.451,0.62
			c15.597,0.628,30.81,2.944,44.976,10.092c30.239,15.256,53.362,52.928,35.858,95.423c-5.328,12.935-14.185,22.366-26.808,28.313
			C509.144,986.977,506.75,988.121,503.365,989.729z M416.209,1087.115c13.585-0.287,29.765,0.771,45.858-1.086
			c12.093-1.396,23.109-5.039,30.299-15.934c5.281-8.002,4.662-19.334-0.846-25.914c-8.283-9.897-19.201-14.237-31.494-15.217
			c-29.917-2.383-59.913-0.633-89.869-1.183c-3.499-0.064-3.077,2.065-3.076,4.237c0.008,16.984,0.082,33.968-0.063,50.95
			c-0.028,3.239,0.857,4.262,4.178,4.221C385.348,1087.015,399.502,1087.115,416.209,1087.115z M413.497,971.885
			c10.906,0.107,26.054,0.18,41.138-1.783c15.303-1.991,25.283-13.486,26.197-25.423c1.193-15.589-6.568-25.31-22.623-29.329
			c-2.417-0.604-4.885-1.155-7.36-1.348c-26.942-2.088-53.934-0.612-80.899-1.106c-3.195-0.059-2.87,1.899-2.869,3.931
			c0.01,16.987,0.09,33.976-0.066,50.961c-0.03,3.338,1.032,4.209,4.259,4.166C383.93,971.785,396.589,971.885,413.497,971.885z"/>
		<path fill-rule="evenodd" clip-rule="evenodd" fill="#FFFEFE" d="M1137.269,989.729c4.081,1.436,7.212,2.493,10.313,3.632
			c33.572,12.332,51.043,39.821,47.988,75.48c-3.549,41.429-32.599,71.097-74.43,76.069c-12.92,1.536-25.869,2.325-38.887,2.282
			c-37.318-0.124-74.638-0.079-111.956-0.233c-10.286-0.042-20.111-1.54-28.542-8.57c-7.642-6.371-11.836-14.128-12.788-23.939
			c-1.001-10.309-0.905-20.635-0.91-30.96c-0.022-58.645-0.022-117.289,0.045-175.934c0.008-7.156,0.154-14.338,0.768-21.463
			c1.709-19.873,14.685-32.653,34.616-33.987c9.133-0.611,18.313-0.744,27.471-0.707c33.484,0.137,66.976-0.734,100.45,0.625
			c15.424,0.626,30.447,2.943,44.526,9.878c29.147,14.355,53.211,50.926,37.201,93.34c-5.322,14.1-14.439,24.541-28.211,30.822
			C1142.66,987.097,1140.434,988.211,1137.269,989.729z M1049.928,1087.115c13.709-0.289,30.059,0.802,46.313-1.124
			c11.72-1.389,22.446-4.927,29.601-15.332c6.135-8.924,5.357-19.773-1.703-27.81c-7.635-8.691-17.604-12.683-28.587-13.682
			c-30.565-2.781-61.237-0.789-91.856-1.369c-3.331-0.062-2.702,2.146-2.704,4.041c-0.018,16.983,0.092,33.969-0.094,50.951
			c-0.039,3.553,1.021,4.449,4.474,4.402C1019.355,1087.005,1033.344,1087.115,1049.928,1087.115z M1046.957,971.885
			c11.276,0.121,26.77,0.273,42.166-1.884c13.769-1.93,24.995-13.082,25.684-25.451c0.846-15.192-6.362-24.776-21.919-28.933
			c-3.042-0.812-6.18-1.485-9.311-1.711c-26.446-1.909-52.938-0.539-79.406-1.03c-3.387-0.062-3.215,1.784-3.21,4.083
			c0.036,16.821,0.159,33.645-0.082,50.462c-0.058,4.01,1.399,4.592,4.892,4.538
			C1018.092,971.769,1030.418,971.885,1046.957,971.885z"/>
		<path fill-rule="evenodd" clip-rule="evenodd" fill="#FFFEFE" d="M554.029,614.146c0,32.165,0.051,64.33-0.038,96.495
			c-0.02,7.159-0.644,14.313-0.782,21.475c-0.301,15.479-8.435,25.779-21.958,31.761c-13.006,5.752-25.783,3.948-37.518-4.014
			c-8.329-5.651-13.022-13.601-13.949-23.724c-1.92-20.957-1.089-41.966-1.274-62.956c-0.072-8.165-0.114-16.334,0.04-24.497
			c0.055-2.896-0.589-4.071-3.825-4.06c-33.665,0.115-67.331,0.129-100.995-0.013c-3.644-0.016-3.899,1.538-3.92,4.438
			c-0.203,27.327,0.474,54.653-0.688,81.983c-0.691,16.244-8.544,27.155-23.049,33.141c-14.187,5.855-27.483,2.834-39.388-6.478
			c-7.916-6.191-11.06-14.832-11.521-24.543c-0.473-9.984-0.931-19.982-0.945-29.975c-0.086-59.497-0.083-118.995-0.002-178.492
			c0.013-9.66,0.336-19.333,0.911-28.976c0.992-16.654,10.69-28.592,26.487-33.131c15.083-4.333,32.434,1.531,41.475,13.992
			c4.068,5.607,5.561,11.988,5.932,18.777c1.5,27.481,0.687,54.986,0.723,82.479c0.006,4.527,1.102,5.805,5.712,5.775
			c32.498-0.205,64.998-0.223,97.494,0.015c4.829,0.035,5.654-1.564,5.642-5.909c-0.069-23.997,0.12-47.995,0.32-71.992
			c0.037-4.323,0.389-8.659,0.857-12.961c1.996-18.318,18.025-31.958,36.966-31.557c19.525,0.413,34.941,14.334,36.28,32.981
			c2.067,28.797,0.688,57.643,1.029,86.464c0.132,11.165,0.021,22.333,0.021,33.499
			C554.054,614.146,554.042,614.146,554.029,614.146z"/>
		<path fill-rule="evenodd" clip-rule="evenodd" fill="#FFFEFE" d="M799.115,573.664c0.438-22.229-0.369-49.217,0.661-76.216
			c0.68-17.797,10.23-28.26,25.453-34.771c7.309-3.126,14.865-1.59,21.937,1.203c13.485,5.327,21.73,14.857,22.999,29.834
			c0.845,9.982,0.981,19.97,0.99,29.966c0.032,36.162,0.002,72.323,0.017,108.484c0.008,18.363-0.425,36.781-4.614,54.685
			c-9.656,41.27-36.238,66.465-76.986,75.721c-32.562,7.396-65.725,6.626-98.212-0.882c-45.156-10.435-70.578-39.812-77.293-87.122
			c-1.005-7.084-1.997-14.233-2.132-21.368c-0.972-51.649-1.084-103.301,0.053-154.953c0.332-15.109,6.897-25.923,20.24-33.039
			c20.867-11.13,47.02,2.326,49.819,25.856c1.44,12.111,1.264,24.286,1.358,36.448c0.327,42.156-0.684,84.319,0.61,126.47
			c0.138,4.479,0.764,8.959,1.389,13.406c2.513,17.893,14.366,28.785,29.792,34.686c21.367,8.174,42.839,7.987,63.139-5.159
			c12.618-8.172,18.379-19.661,19.769-34.031c0.867-8.971,1.01-17.965,1.011-26.966
			C799.116,616.751,799.115,597.588,799.115,573.664z"/>
		<path fill-rule="evenodd" clip-rule="evenodd" fill="#FFFEFE" d="M799.115,958.71c0.438-22.206-0.394-49.194,0.677-76.192
			c0.705-17.795,10.317-28.234,25.57-34.667c7.118-3.002,14.538-1.573,21.476,1.109c13.724,5.307,22.079,14.914,23.34,30.107
			c0.814,9.817,0.967,19.638,0.977,29.467c0.033,36.494,0.011,72.988,0.014,109.482c0.001,18.195-0.479,36.441-4.637,54.181
			c-9.521,40.626-35.573,65.808-75.646,75.242c-33.514,7.89-67.699,7.179-101.108-0.973c-42.303-10.321-67.322-37.77-74.763-80.91
			c-1.616-9.37-3.039-18.776-3.184-28.283c-0.777-51.151-0.985-102.302,0.134-153.455c0.33-15.047,6.581-26,19.944-33.223
			c21.104-11.407,47.345,1.959,50.154,25.814c1.426,12.112,1.25,24.287,1.341,36.448c0.312,41.822-0.645,83.651,0.572,125.468
			c0.135,4.648,0.727,9.298,1.35,13.914c2.411,17.882,14.119,28.921,29.535,34.903c21.326,8.277,42.793,8.164,63.17-4.834
			c12.847-8.194,18.697-19.797,20.084-34.362c1.425-14.964,0.918-29.97,0.987-44.962C799.163,989.82,799.115,976.656,799.115,958.71
			z"/>
		<path fill-rule="evenodd" clip-rule="evenodd" fill="#FFFEFE" d="M680.734,311.652c0.082-10.959,5.164-24.199,12.798-36.583
			c13.545-21.974,27.167-43.901,37.221-67.788c5.108-12.139,9.413-24.548,12.499-37.37c0.273-1.133,0.049-3.079,1.932-2.942
			c1.383,0.101,1.307,1.763,1.559,2.814c7.55,31.473,21.986,59.887,38.714,87.285c3.991,6.537,8.125,12.99,11.992,19.6
			c10.112,17.283,15.074,35.498,9.516,55.484c-8.594,30.901-38.912,50.317-71.611,45.875
			C704.514,373.837,680.928,346.824,680.734,311.652z"/>
		<path fill-rule="evenodd" clip-rule="evenodd" fill="#EF3F32" d="M1050.94,701.959c-16.473,0-31.128-0.084-45.781,0.066
			c-3.183,0.033-4.287-0.75-4.255-4.119c0.165-17.151,0.149-34.306,0.01-51.457c-0.025-3.095,0.936-3.947,3.954-3.915
			c27.474,0.294,54.961-0.581,82.422,0.61c13.892,0.602,27.099,3.402,36.964,14.648c6.87,7.83,7.682,18.679,1.762,27.407
			c-7.558,11.145-19.047,14.496-31.461,15.783C1079.448,702.55,1064.271,701.814,1050.94,701.959z"/>
		<path fill-rule="evenodd" clip-rule="evenodd" fill="#EF3F32" d="M1042.017,586.668c-12.156,0.001-24.316-0.16-36.467,0.095
			c-3.854,0.081-4.697-1.142-4.654-4.802c0.194-16.649,0.145-33.304,0.03-49.955c-0.021-3.016,0.475-4.393,4.001-4.354
			c23.977,0.264,47.956,0.257,71.935,0.447c5.84,0.047,11.604,0.955,17.23,2.618c14.396,4.258,21.09,13.246,20.729,27.861
			c-0.284,11.485-10.012,22.778-22.514,25.517c-10.121,2.217-20.482,2.415-30.809,2.556
			C1055.006,586.74,1048.511,586.668,1042.017,586.668z"/>
		<path fill-rule="evenodd" clip-rule="evenodd" fill="#EF3F32" d="M416.209,1087.115c-16.708,0-30.862-0.101-45.012,0.075
			c-3.321,0.041-4.206-0.981-4.178-4.221c0.145-16.982,0.071-33.966,0.063-50.95c-0.001-2.172-0.423-4.302,3.076-4.237
			c29.956,0.55,59.951-1.2,89.869,1.183c12.292,0.979,23.21,5.319,31.494,15.217c5.507,6.58,6.126,17.912,0.846,25.914
			c-7.189,10.895-18.206,14.537-30.299,15.934C445.975,1087.887,429.795,1086.828,416.209,1087.115z"/>
		<path fill-rule="evenodd" clip-rule="evenodd" fill="#EF3F32" d="M413.497,971.885c-16.908,0-29.567-0.1-42.222,0.068
			c-3.227,0.043-4.29-0.828-4.259-4.166c0.156-16.985,0.076-33.974,0.066-50.961c-0.001-2.031-0.327-3.989,2.869-3.931
			c26.965,0.494,53.958-0.981,80.899,1.106c2.475,0.192,4.943,0.743,7.36,1.348c16.055,4.02,23.816,13.74,22.623,29.329
			c-0.914,11.937-10.894,23.432-26.197,25.423C439.551,972.064,424.403,971.992,413.497,971.885z"/>
		<path fill-rule="evenodd" clip-rule="evenodd" fill="#EF3F32" d="M1049.928,1087.115c-16.584,0-30.572-0.11-44.557,0.078
			c-3.453,0.047-4.513-0.85-4.474-4.402c0.186-16.982,0.076-33.968,0.094-50.951c0.002-1.896-0.627-4.104,2.704-4.041
			c30.619,0.58,61.291-1.412,91.856,1.369c10.983,0.999,20.952,4.99,28.587,13.682c7.061,8.036,7.838,18.886,1.703,27.81
			c-7.154,10.405-17.881,13.943-29.601,15.332C1079.986,1087.917,1063.637,1086.826,1049.928,1087.115z"/>
		<path fill-rule="evenodd" clip-rule="evenodd" fill="#EF3F32" d="M1046.957,971.885c-16.539,0-28.865-0.116-41.187,0.074
			c-3.492,0.054-4.949-0.528-4.892-4.538c0.241-16.817,0.118-33.641,0.082-50.462c-0.005-2.299-0.177-4.146,3.21-4.083
			c26.468,0.491,52.96-0.879,79.406,1.03c3.131,0.226,6.269,0.898,9.311,1.711c15.557,4.156,22.765,13.74,21.919,28.933
			c-0.688,12.369-11.915,23.521-25.684,25.451C1073.727,972.158,1058.233,972.006,1046.957,971.885z"/>
	</g>
</g>
</svg>
