<?xml version="1.0" encoding="utf-8"?>
<!-- Generator: Adobe Illustrator 19.2.1, SVG Export Plug-In . SVG Version: 6.00 Build 0)  -->
<svg version="1.1" id="Layer_1" xmlns="http://www.w3.org/2000/svg" xmlns:xlink="http://www.w3.org/1999/xlink" x="0px" y="0px"
	 viewBox="0 0 360 360" style="enable-background:new 0 0 360 360;" xml:space="preserve">
<style type="text/css">
	.st0{fill:#C3E7F0;}
	.st1{opacity:0.67;fill:#BC7937;}
	.st2{fill:#E8F6FD;}
	.st3{fill:#CCEBF8;}
	.st4{fill:#B3DBEB;}
	.st5{fill:#DDF1FC;}
	.st6{fill:#37200F;}
	.st7{opacity:0.77;fill:#37200F;}
	.st8{opacity:0.7;fill:#AE6B2F;}
</style>
<g>
	<polygon class="st0" points="66.1,81.7 85.8,350.3 221,350.3 239.2,81.7 	"/>
	<path id="XMLID_87_" class="st1" d="M224.3,158.5l-17.3-2.8c-36.7-6-74.1-6-110.7,0L79,158.5l33.7,5.5c25.2,2.8,51.5,2.9,76.7,0.1
		L224.3,158.5z"/>
	<polygon id="XMLID_86_" class="st2" points="128,214 111.9,180.6 139.4,161 155.5,194.4 	"/>
	<polygon id="XMLID_85_" class="st3" points="106.2,207.1 90.1,173.7 117.6,154.1 133.7,187.5 	"/>
	<path id="XMLID_84_" class="st4" d="M98.2,190.4"/>
	<polygon id="XMLID_83_" class="st5" points="106.2,207.1 128,214 155.5,194.4 133.7,187.5 	"/>
	<polygon id="XMLID_82_" class="st2" points="117.6,154.1 139.4,161 155.5,194.4 133.7,187.5 	"/>
	<path id="XMLID_16_" class="st6" d="M287.5,10.8l-69.9,39.7c-3.8,2.1-6.4,5.8-7.3,10.1l-4.2,21.1l17,0l2.5-12.9
		c0.7-3.5,2.8-6.6,5.9-8.5L294,22.2"/>
	<polyline id="XMLID_17_" class="st7" points="223,81.7 174.8,328.9 156.6,328.9 206,81.7 	"/>
	<polygon id="XMLID_76_" class="st2" points="201,198.4 177.5,205.1 167.2,187.6 190.6,180.9 	"/>
	<polygon id="XMLID_75_" class="st3" points="194.4,210.5 171,217.1 160.6,199.6 184.1,193 	"/>
	<path id="XMLID_74_" class="st4" d="M182.7,213.8"/>
	<polygon id="XMLID_73_" class="st5" points="194.4,210.5 201,198.4 190.6,180.9 184.1,193 	"/>
	<polygon id="XMLID_72_" class="st2" points="160.6,199.6 167.2,187.6 190.6,180.9 184.1,193 	"/>
	<path id="XMLID_69_" class="st8" d="M225.3,158.2l-11.8,181.6H95.2L80,158.2l19,3.3c35.1,6.1,70.9,6.2,106,0.1L225.3,158.2z"/>
	<polygon class="st8" points="80,158.2 95.2,339.8 213.4,339.8 	"/>
</g>
</svg>
