<?xml version="1.0" encoding="utf-8"?>
<!-- Generator: Adobe Illustrator 19.2.1, SVG Export Plug-In . SVG Version: 6.00 Build 0)  -->
<svg version="1.1" id="Layer_1" xmlns="http://www.w3.org/2000/svg" xmlns:xlink="http://www.w3.org/1999/xlink" x="0px" y="0px"
	 viewBox="0 0 360 360" style="enable-background:new 0 0 360 360;" xml:space="preserve">
<style type="text/css">
	.st0{fill:#D0D2D3;}
	.st1{fill:#F1F1F2;}
	.st2{fill:#BC7937;}
	.st3{fill:#B2692B;}
</style>
<g>
	<g>
		<circle class="st0" cx="179.6" cy="179.8" r="126"/>
		<circle class="st1" cx="179.6" cy="179.8" r="83.2"/>
		<circle class="st2" cx="179.6" cy="179.8" r="70.8"/>
		<path class="st1" d="M281,235.3l-1.3,2.2c-2.5,4.4-8.2,5.9-12.6,3.4l-21.8-12.6c-4.4-2.5-5.9-8.2-3.4-12.6l1.3-2.2
			c2.5-4.4,8.2-5.9,12.6-3.4l21.8,12.6C282,225.2,283.5,230.9,281,235.3z"/>
	</g>
	<path class="st3" d="M179.6,109v141.7c0,0-70.8-1.3-70.8-70.8S179.6,109,179.6,109z"/>
	<g>
		<path class="st1" d="M122.3,192.7c0,0,7.7,19.1,19.7,25.3c20.4,10.4,37.6,10.4,37.6,10.4s-12-13-27.2-21.5
			C137.2,198.3,122.3,192.7,122.3,192.7z"/>
		<path class="st1" d="M237,192.7c0,0-6.1,17.8-19.7,25.3c-20.5,11.2-37.6,10.4-37.6,10.4s12-13,27.2-21.5
			C222.1,198.3,237,192.7,237,192.7z"/>
	</g>
	<g>
		<path class="st1" d="M135.1,166.7c0,0,3.5,14.1,12.3,20.2c8.8,6.1,31.2,11.7,31.2,11.7s-7.9-10.6-19.7-18.4
			S135.1,166.7,135.1,166.7z"/>
		<path class="st1" d="M224.1,168c0,0-4.4,14-13.6,19.8s-31.9,10.7-31.9,10.7s8.6-10.4,20.9-17.8S224.1,168,224.1,168z"/>
	</g>
	<g>
		<path class="st1" d="M142.3,133.1c0,0,0.7,14.3,8.3,21.3c7.6,7,28.8,15,28.8,15s-5.8-11.4-16-20.4S142.3,133.1,142.3,133.1z"/>
		<path class="st1" d="M215.4,132.6c0,0-0.3,14.4-7.7,21.5s-28.3,15.7-28.3,15.7s5.5-11.5,15.4-20.8
			C204.7,139.8,215.4,132.6,215.4,132.6z"/>
	</g>
</g>
</svg>
