<?xml version="1.0" encoding="utf-8"?>
<!-- Generator: Adobe Illustrator 21.0.0, SVG Export Plug-In . SVG Version: 6.00 Build 0)  -->
<svg version="1.1" id="Layer_1" xmlns="http://www.w3.org/2000/svg" xmlns:xlink="http://www.w3.org/1999/xlink" x="0px" y="0px"
	 viewBox="0 0 360 360" style="enable-background:new 0 0 360 360;" xml:space="preserve">
<style type="text/css">
	.st0{fill:#F1F1F2;}
	.st1{fill:#D0D2D3;}
</style>
<g>
	<path class="st0" d="M241.3,242.4c62.3-35.6,44.9-101.9,44.9-101.9H72.8c0,0-15.7,66.3,48.8,101.9H241.3z"/>
	<rect x="121.6" y="242.4" class="st0" width="119.7" height="11.6"/>
	<g>
		<path class="st0" d="M290.6,217.2c-15.7,0-28.4-12.7-28.4-28.4s12.7-28.4,28.4-28.4c15.7,0,28.4,12.7,28.4,28.4
			S306.2,217.2,290.6,217.2z M290.6,171.2c-9.7,0-17.6,7.9-17.6,17.6c0,9.7,7.9,17.6,17.6,17.6s17.6-7.9,17.6-17.6
			C308.2,179.1,300.3,171.2,290.6,171.2z"/>
	</g>
	<path class="st1" d="M314.9,267.7H44.5c-3.8,0-6.9-3.1-6.9-6.9l0,0c0-3.8,3.1-6.9,6.9-6.9h270.3c3.8,0,6.9,3.1,6.9,6.9l0,0
		C321.8,264.6,318.7,267.7,314.9,267.7z"/>
	<polygon class="st1" points="91.3,267.7 121.3,279.4 241.7,279.4 269.6,267.7 	"/>
</g>
</svg>
