<?xml version="1.0" encoding="utf-8"?>
<!-- Generator: Adobe Illustrator 19.2.1, SVG Export Plug-In . SVG Version: 6.00 Build 0)  -->
<svg version="1.1" id="Layer_1" xmlns="http://www.w3.org/2000/svg" xmlns:xlink="http://www.w3.org/1999/xlink" x="0px" y="0px"
	 viewBox="0 0 360 360" style="enable-background:new 0 0 360 360;" xml:space="preserve">
<style type="text/css">
	.st0{fill:#C3E7F0;}
	.st1{fill:#2D3085;}
	.st2{fill:#633315;}
	.st3{fill:#4B2816;}
</style>
<g>
	<circle class="st0" cx="167.2" cy="228.7" r="124.5"/>
	<polygon class="st0" points="250.9,65.4 245.4,84.8 241.7,97.7 239.9,104 227.8,104 94.1,104 92.4,97.9 88.8,84.9 67.8,9.3 	"/>
	<polygon class="st0" points="227.8,104 94.2,104.2 94.1,104 	"/>
	<rect x="93.8" y="104" class="st1" width="147.6" height="24.1"/>
	<path class="st2" d="M276.2,229.1c0,60.3-48.8,109.1-109.1,109.1S58.1,289.3,58.1,229.1c0-3.2,4.8-27.4,35.7-33.9
		c26.5-5.6,59.8,27.8,92.5,26.3C231.3,219.4,276.2,205,276.2,229.1z"/>
	<path class="st1" d="M276.8,107.1l-0.6,17.4h-34.9v-16.9l15.1-0.2L276.8,107.1C276.8,107.1,276.8,107.1,276.8,107.1z"/>
	<g>
		<path class="st1" d="M276.8,107.1C276.8,107.1,276.8,107.1,276.8,107.1l-20.3,0.3c0.1,0.1,0.2,0.1,0.3,0.2
			c6.9,5.1,13.3,10.8,19.2,16.9c26,27.1,41.9,63.8,41.9,104.2c0,21.3-4.4,41.5-12.4,59.9h14.2c7.3-18.6,11.3-38.8,11.3-59.9
			C331,180.5,310.1,137.1,276.8,107.1z"/>
	</g>
	<path class="st3" d="M250.6,299.4c-20,23.7-50,38.8-83.4,38.8c-60.3,0-109.1-48.8-109.1-109.1L250.6,299.4z"/>
</g>
</svg>
