<?xml version="1.0" encoding="utf-8"?>
<!-- Generator: Adobe Illustrator 19.2.1, SVG Export Plug-In . SVG Version: 6.00 Build 0)  -->
<svg version="1.1" id="Layer_1" xmlns="http://www.w3.org/2000/svg" xmlns:xlink="http://www.w3.org/1999/xlink" x="0px" y="0px"
	 viewBox="0 0 360 360" style="enable-background:new 0 0 360 360;" xml:space="preserve">
<style type="text/css">
	.st0{fill:#F1F1F2;}
	.st1{fill:#E6E7E8;}
</style>
<g>
	<path class="st0" d="M305.5,202.8c7.1,63-47.2,114.1-121.4,114.1S55.3,265.8,62.1,202.8S123.2,88.7,183.5,88.7
		S298.4,139.8,305.5,202.8z"/>
	<g>
		<path class="st0" d="M325.2,227c-20.5,5-42.6-13-49.3-40.2c-6.7-27.2,4.6-53.4,25.1-58.5c20.5-5,42.6,13,49.3,40.2
			C356.9,195.8,345.7,222,325.2,227z M305.6,147.1c-12.7,3.1-19.7,19.4-15.6,36.3s17.9,28.1,30.6,25c12.7-3.1,19.7-19.4,15.6-36.3
			S318.3,143.9,305.6,147.1z"/>
	</g>
	<circle class="st1" cx="183.5" cy="73.5" r="15.9"/>
	<path class="st0" d="M85.6,228.5c0,0-50.6-1.1-54.5-43S6.2,140.4,6.2,140.4v-24.1c0,0,42.2-3,47.7,36.9s31.7,38.6,31.7,38.6V228.5z
		"/>
	<path class="st1" d="M92.1,133.6c22.9-27.3,56.2-44.9,91.6-44.9s68.9,17.6,91.9,44.9H92.1z"/>
</g>
</svg>
