<?xml version="1.0" encoding="utf-8"?>
<!-- Generator: Adobe Illustrator 21.0.0, SVG Export Plug-In . SVG Version: 6.00 Build 0)  -->
<svg version="1.1" id="Layer_1" xmlns="http://www.w3.org/2000/svg" xmlns:xlink="http://www.w3.org/1999/xlink" x="0px" y="0px"
	 viewBox="0 0 360 360" style="enable-background:new 0 0 360 360;" xml:space="preserve">
<style type="text/css">
	.st0{fill:#F1F1F2;}
	.st1{fill:#E6E7E8;}
	.st2{fill:#2C3688;}
	.st3{fill:#FFFFFF;}
</style>
<g>
	<g>
		<g>
			<rect x="95.8" y="37" class="st0" width="168.6" height="26.8"/>
		</g>
		<g>
			<rect x="71" y="64" class="st1" width="218.4" height="30.6"/>
		</g>
		<g>
			<polygon class="st0" points="271.1,94.6 243.6,340 116.8,340 89.1,94.6 			"/>
		</g>
		<g>
			<polygon class="st2" points="95.5,155.4 264.9,155.4 252.1,279.7 108.2,279.7 			"/>
		</g>
	</g>
	<g>
		<g>
			<g>
				<polygon class="st2" points="140.9,231.5 166.2,191.3 189,231.5 				"/>
				<path class="st3" d="M189.9,232h-50.1l26.4-41.6L189.9,232z M141.8,230.9h46.3l-21.9-38.5L141.8,230.9z"/>
			</g>
			<g>
				<path class="st3" d="M191.6,232.9h-53.3l28-44.3L191.6,232.9z M143.5,230h43.1l-20.4-35.8L143.5,230z"/>
				<path class="st3" d="M192.5,233.5h-55.3l29.1-46L192.5,233.5z M139.2,232.5h51.5l-24.4-42.8L139.2,232.5z M187.5,230.6h-44.9
					l23.6-37.3L187.5,230.6z M144.6,229.6h41.1l-19.5-34.3L144.6,229.6z"/>
			</g>
		</g>
		<g>
			<g>
				<polygon class="st2" points="189,179.7 219,231.5 189,231.5 174.4,205.6 				"/>
				<path class="st3" d="M220,232h-31.2l-15.1-26.4l15.4-27L220,232z M189.3,230.9h28.8L189,180.8l-14.2,24.8L189.3,230.9z"/>
			</g>
			<g>
				<path class="st3" d="M221.6,232.9h-33.4l-15.5-27.3l16.3-28.8L221.6,232.9z M189.9,230h26.5L189,182.6l-13.1,23L189.9,230z"/>
				<path class="st3" d="M222.5,233.5H188l-15.8-27.9l17.1-29.9L222.5,233.5z M188.6,232.5h32.1L189,177.9l-15.8,27.7L188.6,232.5z
					 M217.4,230.6h-27.7l-14.2-25l13.7-24.1L217.4,230.6z M190.3,229.6h25.3L189,183.7l-12.5,21.9L190.3,229.6z"/>
			</g>
		</g>
		<g>
			<g>
				<polyline class="st2" points="176.8,201.2 182.2,197.7 185.1,201.2 189,196.3 192.7,201.2 195,198.8 198.3,201.2 200.2,198.8 
									"/>
				<polygon class="st3" points="185.1,202.1 182,198.5 177.2,201.7 176.5,200.8 182.2,197.1 185.1,200.5 189.2,195.6 192.8,200.5 
					195,198.2 198.3,200.5 199.7,198.5 200.6,199.1 198.5,202 195.1,199.5 192.7,202.1 189,197.3 				"/>
			</g>
			<g>
				<polygon class="st3" points="185.1,203.5 181.9,199.7 177.6,202.4 176.1,200 182.5,195.9 185.1,198.9 189.2,194.1 192.8,198.9 
					194.8,197 198,199.2 198.9,198 201.4,199.7 198.6,203.4 195.1,200.8 192.7,203.5 189,198.8 				"/>
				<path class="st3" d="M185.1,204.4l-3.4-4l-4.3,2.9l-2.1-3.4l7.3-4.7l2.6,3l4.1-5l3.7,5l1.8-2l3.2,2.3l0.9-1.2l3.2,2.3l-3.2,4.4
					l-3.5-2.6l-2.7,2.9l-3.5-4.7L185.1,204.4z M182,198.9l3,3.8l4-4.9l3.7,4.9l2.4-2.6l3.5,2.4l2-2.7l-1.5-1.1l-0.9,1.2l-3.4-2.4
					l-2,2.3l-3.7-4.9l-4.1,4.9l-2.7-3.4l-5.6,3.7l1.1,1.5L182,198.9z"/>
			</g>
		</g>
	</g>
</g>
</svg>
