<?xml version="1.0" encoding="utf-8"?>
<!-- Generator: Adobe Illustrator 19.2.1, SVG Export Plug-In . SVG Version: 6.00 Build 0)  -->
<svg version="1.1" id="Layer_1" xmlns="http://www.w3.org/2000/svg" xmlns:xlink="http://www.w3.org/1999/xlink" x="0px" y="0px"
	 viewBox="0 0 360 360" style="enable-background:new 0 0 360 360;" xml:space="preserve">
<style type="text/css">
	.st0{fill:#F1F1F2;}
	.st1{fill:#E6E7E8;}
	.st2{fill:#2C3688;}
	.st3{fill:#FFFFFF;}
</style>
<g>
	<g>
		<g>
			<rect x="124.8" y="80.2" class="st0" width="110.7" height="17.6"/>
		</g>
		<g>
			<rect x="108.5" y="97.9" class="st1" width="143.4" height="20.1"/>
		</g>
		<g>
			<polygon class="st0" points="239.9,118 221.8,279.1 138.6,279.1 120.4,118 			"/>
		</g>
		<g>
			<polygon class="st2" points="124.6,157.9 235.8,157.9 227.4,239.5 132.9,239.5 			"/>
		</g>
	</g>
	<g>
		<g>
			<g>
				<polygon class="st2" points="154.4,207.9 171,181.5 186,207.9 				"/>
				<path class="st3" d="M186.6,208.2h-32.9l17.3-27.3L186.6,208.2z M155,207.5h30.4L171,182.2L155,207.5z"/>
			</g>
			<g>
				<path class="st3" d="M187.7,208.8h-35l18.4-29.1L187.7,208.8z M156.1,206.9h28.3L171,183.4L156.1,206.9z"/>
				<path class="st3" d="M188.3,209.2H152l19.1-30.2L188.3,209.2z M153.3,208.5h33.8l-16-28.1L153.3,208.5z M185,207.3h-29.5
					l15.5-24.5L185,207.3z M156.8,206.6h27L171,184.1L156.8,206.6z"/>
			</g>
		</g>
		<g>
			<g>
				<polygon class="st2" points="186,173.9 205.7,207.9 186,207.9 176.4,190.9 				"/>
				<path class="st3" d="M206.3,208.2h-20.5l-9.9-17.3l10.1-17.7L206.3,208.2z M186.2,207.5h18.9L186,174.6l-9.3,16.3L186.2,207.5z"
					/>
			</g>
			<g>
				<path class="st3" d="M207.4,208.8h-21.9l-10.2-17.9L186,172L207.4,208.8z M186.6,206.9H204l-18-31.1l-8.6,15.1L186.6,206.9z"/>
				<path class="st3" d="M208,209.2h-22.7l-10.4-18.3l11.2-19.6L208,209.2z M185.7,208.5h21.1L186,172.7l-10.4,18.2L185.7,208.5z
					 M204.6,207.3h-18.2l-9.3-16.4l9-15.8L204.6,207.3z M186.8,206.6h16.6L186,176.5l-8.2,14.4L186.8,206.6z"/>
			</g>
		</g>
		<g>
			<g>
				<polyline class="st2" points="178,188 181.5,185.7 183.4,188 186,184.8 188.4,188 189.9,186.4 192.1,188 193.3,186.4 				"/>
				<polygon class="st3" points="183.4,188.6 181.4,186.2 178.2,188.3 177.8,187.7 181.5,185.3 183.4,187.5 186.1,184.3 
					188.5,187.5 189.9,186 192.1,187.5 193,186.2 193.6,186.6 192.2,188.5 190,186.9 188.4,188.6 186,185.4 				"/>
			</g>
			<g>
				<polygon class="st3" points="183.4,189.5 181.3,187 178.5,188.8 177.5,187.2 181.7,184.5 183.4,186.5 186.1,183.3 188.5,186.5 
					189.8,185.2 191.9,186.7 192.5,185.9 194.1,187 192.3,189.4 190,187.7 188.4,189.5 186,186.4 				"/>
				<path class="st3" d="M183.4,190.1l-2.2-2.6l-2.8,1.9l-1.4-2.2l4.8-3.1l1.7,2l2.7-3.3l2.4,3.3l1.2-1.3l2.1,1.5l0.6-0.8l2.1,1.5
					l-2.1,2.9l-2.3-1.7l-1.8,1.9l-2.3-3.1L183.4,190.1z M181.4,186.5l2,2.5l2.6-3.2l2.4,3.2l1.6-1.7l2.3,1.6l1.3-1.8l-1-0.7
					l-0.6,0.8l-2.2-1.6l-1.3,1.5l-2.4-3.2l-2.7,3.2l-1.8-2.2l-3.7,2.4l0.7,1L181.4,186.5z"/>
			</g>
		</g>
	</g>
</g>
</svg>
