<?xml version="1.0" encoding="utf-8"?>
<!-- Generator: Adobe Illustrator 21.0.0, SVG Export Plug-In . SVG Version: 6.00 Build 0)  -->
<svg version="1.1" id="Layer_1" xmlns="http://www.w3.org/2000/svg" xmlns:xlink="http://www.w3.org/1999/xlink" x="0px" y="0px"
	 viewBox="0 0 202.3 178.2" style="enable-background:new 0 0 202.3 178.2;" xml:space="preserve">
<style type="text/css">
	.st0{fill:#121A33;}
	.st1{fill:#FFFFFF;}
	.st2{fill:#FDFDFD;}
	.st3{fill:#C7C6C5;}
</style>
<path class="st0" d="M202.1,3.1c-3.2,7-3.6,14.7-5.4,22c-3.1,12.6-5.8,25.3-8.6,38c-2,0.9-3.1-0.7-4.4-1.7
	c-7.4-5.3-14.8-10.7-22.2-16c-1.5-1-2.8-2.2-4.8-2.2c-18.3,0.1-36.6,0.1-54.8,0c-2,0-3.1,0.6-3.5,2.6c-0.8,4.1-1.6,8.1-2.4,12.2
	c-0.5,1.9-1,3.7-1.6,5.9c19.5,0,38.5,0.1,57.5-0.1c3.9,0,4.8,0.6,3.7,4.6c-2.8,10.4-5,21-7.5,31.5c-19.2,0-38.4,0-57.6,0
	c-2,0-4.5-0.8-5.1,2.4c-0.7,3.9-1.5,7.8-2.3,11.6c-3.6,14.6-7.2,29.3-10.9,43.9c-0.5,1.9-1.2,3.7-1.8,5.6c-2.6-0.1-5.3-0.2-7.9-0.2
	C43.8,163.1,25,163,6.3,163c0-0.7,0-1.3,0.1-2C13,131.5,20,101.9,26.6,72.3c2.2-10,5.4-19.9,6.4-30.2c1.7-2,1.3-4.7,2.2-7
	c1.6-4,0.6-6.7-2.8-9.3c-5.1-4-9.8-8.6-14.8-12.6C12.9,9.4,9.1,4.7,3.7,2C3.2,1.4,2.6,0.8,2.1,0.1c65.5,0,131,0,196.5,0
	C200.8,0.1,203-0.3,202.1,3.1z M180.8,46.5c2.5-10.8,4.6-20.9,7.3-30.8c1.3-4.7-0.2-5.4-4.5-5.4c-48.7,0.1-97.3,0.1-146,0.1
	c-1.8,0-3.6-0.6-5.6,0.8c3.2,4.4,7.5,7.6,11.6,10.7c4,2.9,4,5.9,3,10.2c-9.1,39-18,78.1-27,117.1c-0.7,3.2-0.2,4.1,3.1,4
	c11.8-0.2,23.7-0.2,35.5,0c3.3,0.1,4.5-1,5.3-4.3c4-17.7,8.6-35.2,12.5-52.9c1.1-5.1,2.8-7,8.4-6.9c15,0.5,30,0.2,45,0.2
	c10.6,0,10.4-0.1,13-10.2c1.1-4.2,0.2-5.1-3.9-5c-17.7,0.2-35.3,0-53,0.1c-3.2,0-4.3-0.5-3.4-4.1c2.8-11,5.3-22,7.6-33.1
	c0.7-3.3,2.1-4.2,5.3-4.1c18.3,0.2,36.7,0.5,55-0.1c8.6-0.3,15.9,1.4,22.3,7.4C174.5,42.5,177.5,44.1,180.8,46.5z"/>
<path class="st1" d="M3.1,178.1c1.1-5,2.8-9.9,3-15c18.7,0.1,37.5,0.1,56.2,0.2c2.6,0,5.3,0.1,7.9,0.2c-0.3,5-2.2,9.7-3.1,14.6
	C45.7,178.1,24.4,178.1,3.1,178.1z"/>
<path class="st1" d="M33,42.1c-6.3-2.3-10.1-7.9-15.1-11.8C11.8,25.5,6,20.2,0.1,15.1c0-1.3,0-2.7,0-4C2.5,8.6,0.6,4.3,3.7,2
	c5.4,2.7,9.2,7.4,13.8,11.1c5,4.1,9.7,8.7,14.8,12.6c3.4,2.6,4.4,5.4,2.8,9.3C34.2,37.4,34.6,40.1,33,42.1z"/>
<path class="st2" d="M3.7,2c-3.1,2.3-1.2,6.6-3.6,9.1C0.1,8,0.3,4.8,0,1.6c-0.2-2.1,1.1-1.4,2.1-1.5C2.6,0.8,3.2,1.4,3.7,2z"/>
<path class="st1" d="M95.9,58c0.8-4.1,1.6-8.1,2.4-12.2c0.4-2,1.5-2.6,3.5-2.6c18.3,0.1,36.6,0.1,54.8,0c2.1,0,3.4,1.2,4.8,2.2
	c7.4,5.3,14.8,10.7,22.2,16c1.3,0.9,2.4,2.5,4.4,1.7c0.1,4.2-1.8,8-2.3,12.2c-0.3,2.7-1.7,3.1-4,1.3c-6.9-5.2-14-10.1-20.9-15.3
	c-3.1-2.3-6.2-3.4-10-3.3C132.5,58.1,114.2,58,95.9,58z"/>
<path class="st1" d="M82.9,114c0.8-3.9,1.6-7.8,2.3-11.6c0.6-3.2,3.1-2.4,5.1-2.4c19.2,0,38.4,0,57.6,0
	c-2.8,14.3-2.8,14.3-17.4,14.3C114.7,114.2,98.8,114.1,82.9,114z"/>
<path class="st3" d="M180.8,46.5c-3.3-2.4-6.3-4-8.7-6.2c-6.3-6-13.6-7.7-22.3-7.4c-18.3,0.6-36.7,0.2-55,0.1
	c-3.2,0-4.6,0.8-5.3,4.1c-2.3,11.1-4.8,22.1-7.6,33.1c-0.9,3.6,0.2,4.1,3.4,4.1c17.7-0.1,35.3,0.1,53-0.1c4.1,0,5,0.9,3.9,5
	c-2.6,10.1-2.4,10.2-13,10.2c-15,0-30,0.3-45-0.2c-5.6-0.2-7.3,1.8-8.4,6.9c-3.9,17.7-8.4,35.2-12.5,52.9c-0.7,3.3-2,4.3-5.3,4.3
	c-11.8-0.2-23.7-0.2-35.5,0c-3.3,0-3.9-0.9-3.1-4c9.1-39,17.9-78.1,27-117.1c1-4.3,1-7.2-3-10.2c-4.1-3.1-8.5-6.2-11.6-10.7
	c2-1.3,3.8-0.8,5.6-0.8c48.7,0,97.3,0.1,146-0.1c4.4,0,5.8,0.6,4.5,5.4C185.4,25.6,183.3,35.7,180.8,46.5z"/>
</svg>
