<?xml version="1.0" encoding="utf-8"?>
<!-- Generator: Adobe Illustrator 21.0.0, SVG Export Plug-In . SVG Version: 6.00 Build 0)  -->
<svg version="1.1"
	 id="Layer_1" xmlns:cc="http://creativecommons.org/ns#" xmlns:dc="http://purl.org/dc/elements/1.1/" xmlns:rdf="http://www.w3.org/1999/02/22-rdf-syntax-ns#"
	 xmlns="http://www.w3.org/2000/svg" xmlns:xlink="http://www.w3.org/1999/xlink" x="0px" y="0px" viewBox="0 0 438 517"
	 style="enable-background:new 0 0 438 517;" xml:space="preserve">
<style type="text/css">
	.st0{fill:none;stroke:#FFFFFF;stroke-width:9;}
	.st1{fill:#FFFFFF;}
</style>
<g>
	<g>
		<path class="st0" d="M112,60v42h13.9v201H112v42h72v-42h-13.9v-78.4h97.9V303H254v42h72v-42h-13.9V102H326V60h-72v42h13.9v78.4
			h-97.9V102H184V60H112L112,60z"/>
		<path class="st1" d="M4,4v2.5v162.8c0,211.8,140.1,297.5,213.8,340.1l1.2,0.7l1.2-0.7C293.9,466.8,434,381.1,434,169.3V6.5V4h-2.5
			H219H6.5H4z M9,9h210h210v160.3c0,208.5-136.2,292.3-210,335C145.2,461.6,9,377.8,9,169.3V9z"/>
	</g>
</g>
</svg>
