<?xml version="1.0" encoding="utf-8"?>
<!-- Generator: Adobe Illustrator 21.0.0, SVG Export Plug-In . SVG Version: 6.00 Build 0)  -->
<svg version="1.1" id="DP_Sports" xmlns="http://www.w3.org/2000/svg" xmlns:xlink="http://www.w3.org/1999/xlink" x="0px" y="0px"
	 viewBox="0 0 200 147.5" style="enable-background:new 0 0 200 147.5;" xml:space="preserve">
<style type="text/css">
	.st0{fill:#AA1E22;}
	.st1{fill:#E5E5E4;}
</style>
<g id="Logo">
	<path id="P_Top" class="st0" d="M105,112.9c0.7-0.6,1.5-1.2,2.2-1.7l33-34.6c0-15,0-30.1,0-45.1c0-1.8,0.4-3,2-3.9
		c2-1.3,3.8-2.8,6-4.4c0,15.1,0,30.1,0,45.2l3.1-3.3c0-13.9,0-27.9,0-41.8c0-1.5,0.4-2.4,1.6-3.2c2-1.4,4-3,6.1-4.6
		c2.8,5.8,7.1,9.2,13.7,9.5c0,5.9,0,11.9,0,17.8L200,14.1c-9.8-1.9-18.3-5.8-24.4-14c-8.3,6-16.4,11.8-24.4,17.7
		c-0.2-0.1-0.3-0.2-0.5-0.2c0-2.4,0-4.8,0-7.1c-1,0-1.6,0-2.4,0c0,2.9,0,5.6,0,8.3c0,1-0.3,1.6-1.1,2.2c-2.1,1.4-4.1,2.8-6.1,4.3
		c-0.4,0.2-0.8,0.4-1.3,0.6c-0.2-1.5-0.3-2.8-0.5-4.1c-0.8-5.1-2.2-9.8-5.7-13.7c-2.7-3-5.8-5-9.9-5.7c-12.8-2-25.8,8.8-24,23.1
		c0.2,1.3,0.6,2.6,0.8,3.9c0.6-1.3,0.8-2.5,1.2-3.6c0.4-1.2,1-2.3,1.7-3.3c3.4-5.5,12.6-5.9,16.1,0.6c0.8,1.4,1.4,2.9,1.7,4.5
		c0.4,2.5,0.5,5.1,0.6,7.6c0,3.7-0.1,7.5-0.2,11.2c0,0.3-0.1,0.7-0.1,1.1c-0.4,0.1-0.8,0.2-1.2,0.2c-1.2,0.1-2.5,0-3.7,0.1
		c-5.7,0.5-10.3,4.5-11.4,10.1c-1,5.3,0,10.4,2.2,15.2c0.1,0.1,0.2,0.2,0.6,0.5c0.7-3.1,2.1-5.5,5-6.9c2.8-1.3,5.6-1.5,8.6-1
		c0,7.7,0,15.2,0,22.8c-0.5,0.1-0.9,0.1-1.3,0.2c-0.4,0.1-0.8,0.1-1.2,0.2c-6.4,1.5-11.1,5.3-14.3,11c-3,5.3-4,11.1-4.3,17.1
		c0,0.1,0.1,0.2,0.2,0.4C102,115.6,103.5,114.2,105,112.9z"/>
	<path id="P_Bottom" class="st1" d="M190.9,85.7c-0.1-15.2-0.1-30.4-0.2-45.7l-18.1,15.6c0,14.6,0,29.2,0,44
		c-6.7-4.9-13.3-9.8-21.4-12c0-0.8,0-1.5,0-2.1c0-3.8,0-7.6,0-11.4l-3.1,2.7c0,22.1,0,44.2,0,66.3c-2.6-0.7-4.4-2-5.7-4.1
		c-1.5-2.6-2.1-5.5-2.2-8.5c-0.1-4-0.1-8.1-0.1-12.1c0-11.6,0-23.1,0-34.7l-29.5,25.5c3.7-1.9,7.4-2.6,10.8-2.1
		c0.6,5.3,0.4,17.8-0.4,22.8c-0.9,6.3-2.8,12.1-7,17c-0.1,0.1-0.1,0.3-0.2,0.6c8.1,0.6,13.6-3.5,18.3-9.6c4.8,5.6,10.5,9.3,18.4,9
		c0-11.8,0-23.3,0-35.2c4.6,1.3,8.3,3.7,12.1,6c7.1-11.8,16.6-19.7,31-20.6c-0.3-0.8-0.5-1.3-0.7-1.8
		C192,92.1,190.9,88.9,190.9,85.7z"/>
	<path id="D_Stroke" class="st0" d="M42.1,92.1c0-23.9,0-47.6,0-71.5c-0.8,0-1.4,0-2,0.1c-4.8,0.5-9.6,1.1-14.5,1.5
		c-4.3,0.3-8.5,0-12.6-1.3c-2.8-0.9-5.3-2.4-7.4-4.4C2,13.1,0.9,8.9,0.3,4.3C0.2,3.1,0.2,1.9,0.1,0.5c2.4,0.6,4.6,1.2,6.8,1.7
		c4.8,1,9.6,1.5,14.5,1.1c7.5-0.6,15-1.4,22.4-2.1c7-0.7,14-1.6,21.1-0.9c8.7,0.9,15.2,5.4,19.2,13.2c2.4,4.6,3.5,9.7,3.9,14.9
		c0.4,5.2,0.6,10.5,0.7,15.8c0.1,13.5,0.1,27,0,40.5c0,4.4,0.9,8.4,2.6,12.4c0.3,0.6,0.5,1.3,0.9,2.2c-15.6,2.3-29.9,7.4-41.6,18
		c-16.6-9.5-33.1-9.7-49.7-0.6c0.3-1.9,5.7-8.6,10.3-12.7c4.3-3.8,9.1-6.8,14.4-8.9C30.8,92.9,36.4,92.1,42.1,92.1z M45.1,92.1
		c0.5,0.1,1,0.3,1.4,0.3c5.2,0.8,9.9,2.7,14.1,5.9c1.5,1.2,3,2.5,4.4,3.9c0.8,0.8,1.4,1,2.3,0.4c0.2-0.1,0.4-0.2,0.7-0.3
		c2.4-1,2.2-0.5,2.2-3.1c0-21.7-0.1-43.3-0.1-65c0-2.3-0.3-4.4-0.9-6.6c-1.2-4.5-4.2-7.1-8.5-8.1c-5.1-1.2-10.2-0.1-15.4,0.4
		C45.1,44.1,45.1,68,45.1,92.1z"/>
	<path id="D_Stem" class="st0" d="M15,69.6c-2.7-0.1-5.5-0.6-8.4,0c-2.5,0.5-4.2,2.2-4.6,4.8c-0.1,0.5-0.2,1-0.2,1.6
		c-0.2-0.1-0.3-0.1-0.4-0.2c-1.5-5-2-10.1-0.7-15.2c1.3-5.2,4.7-8.3,10-9c1.4-0.2,2.8-0.3,4.3-0.5c0.2-1.4,0.3-2.8,0.6-4.2
		c1.3-7,4.9-12.5,11-16.2c3-1.8,6.1-3.4,9.6-4.3c0,0.3,0,0.6-0.1,0.7c-1.7,3.4-2.1,7.1-2.1,10.9c-0.1,12.2-0.2,24.4-0.4,36.6
		c0,2.2-0.9,4.1-1.9,6c-1.3,2.6-3.2,4.7-5.5,6.4c-4.5,3.5-9.7,5.4-15.1,6.8c0-0.2,0-0.4,0-0.4c3-2.7,3.9-6.3,4-10.1
		c0.2-4.4,0.1-8.8,0.1-13.1C15.2,70,15.1,69.9,15,69.6z"/>
</g>
</svg>
