<?xml version="1.0" encoding="utf-8"?>
<!-- Generator: Adobe Illustrator 21.0.0, SVG Export Plug-In . SVG Version: 6.00 Build 0)  -->
<svg version="1.1" id="Layer_1" xmlns="http://www.w3.org/2000/svg" xmlns:xlink="http://www.w3.org/1999/xlink" x="0px" y="0px"
	 viewBox="0 0 600 130" style="enable-background:new 0 0 600 130;" xml:space="preserve">
<style type="text/css">
	.st0{fill:#FFFFFF;}
</style>
<g>
	<g>
		<path class="st0" d="M99,100.7l15.4-7.4c1.5,5.5,4.1,9.6,8,12.5c3.9,2.9,8.9,4.3,14.9,4.3c5.7,0,10.3-1.6,13.7-4.9
			c3.4-3.3,5.1-7.7,5.1-13.2c0-7.2-5.8-13.6-17.3-19.2c-1.6-0.8-2.9-1.4-3.7-1.8c-13.1-6.6-21.8-12.5-26.1-17.8
			c-4.4-5.3-6.5-11.8-6.5-19.5c0-10,3.3-18,9.8-24.2c6.6-6.2,15.2-9.3,25.8-9.3c8.8,0,16.1,1.7,22,5.2c5.9,3.5,10,8.5,12.2,15
			l-15.1,8c-2.4-3.8-5-6.7-7.8-8.4c-2.8-1.8-6.1-2.7-9.8-2.7c-5.2,0-9.3,1.4-12.4,4.2c-3.1,2.8-4.6,6.5-4.6,11.2
			c0,7.4,6.7,14.2,20.1,20.6c1,0.5,1.8,0.9,2.4,1.2c11.7,5.6,19.8,11,24.2,16.3c4.4,5.3,6.6,12,6.6,19.9c0,11.6-3.5,20.8-10.6,27.6
			c-7.1,6.8-16.6,10.2-28.7,10.2c-10.1,0-18.4-2.4-24.8-7.2C105.2,116.4,101,109.6,99,100.7z"/>
		<path class="st0" d="M231.1,19.7v105.5h-19.3V19.7h-31.5V2.8h82.2v16.9H231.1z"/>
		<path class="st0" d="M291.2,70.4v54.7h-18.1V2.8H300c7.9,0,14,0.5,18.4,1.6c4.3,1.1,8.1,2.8,11.1,5.3c3.7,3,6.5,6.8,8.5,11.4
			c2,4.7,3,9.8,3,15.4c0,9.8-2.3,17.5-6.9,23c-4.6,5.5-11.4,8.9-20.3,10l40.9,55.7h-21.8l-39.5-54.7H291.2z M292.4,55h3.5
			c10.2,0,17-1.2,20.3-3.7c3.3-2.5,5-6.8,5-13c0-6.7-1.8-11.5-5.4-14.2c-3.6-2.8-10.3-4.1-20-4.1h-3.5V55z"/>
		<path class="st0" d="M361.9,125.2V2.8h66.2v16.9h-46.9v30.7h46.9v17.5h-46.9v39.5h46.9v17.8H361.9z"/>
		<path class="st0" d="M446.1,125.2V2.8h66.2v16.9h-46.9v30.7h46.9v17.5h-46.9v39.5h46.9v17.8H446.1z"/>
		<path class="st0" d="M568.6,19.7v105.5h-19.3V19.7h-31.5V2.8H600v16.9H568.6z"/>
	</g>
	<g>
		<path class="st0" d="M18.3,28.3c6.8-0.2,12.2-5,12.2-12.1c0-6.3-5.2-11.3-11.4-11.3c-6.7,0-10.8,4.4-11.2,11H4.3
			c0.6-8.8,6-14.5,14.9-14.5c8.3,0,15,6.6,15,15c0,5.9-3.3,11.1-8.6,13.5c5.8,2.2,9.5,8,9.5,14.1c0,9.7-7.3,17.1-16.9,17.1
			c-8.6,0-16-6.1-16-15.1h3.7C6.4,52.8,11,57.7,18,57.7c7.3,0,13.3-6.2,13.3-13.4c0-7.6-5.9-12.4-13.1-12.4L18.3,28.3"/>
		<path class="st0" d="M73.8,11.4h-0.5L49.4,45.4v0.5h24.4V11.4 M85.6,45.9v3.5h-8.1v11h-3.7v-11H42.7v-0.5L77,0.2h0.5v45.7H85.6"/>
		<polyline class="st0" points="19.4,129.8 15.7,129.8 15.7,75.1 0.8,75.1 0.8,71.6 34.3,71.6 34.3,75.1 19.4,75.1 19.4,129.8 		"/>
		<polyline class="st0" points="74.6,96.3 74.6,71.6 77.6,71.6 77.6,129.8 74.6,129.8 74.6,99.8 45.8,99.8 45.8,129.8 42.8,129.8 
			42.8,71.6 45.8,71.6 45.8,96.3 74.6,96.3 		"/>
	</g>
</g>
</svg>
