<?xml version="1.0" encoding="utf-8"?>
<!-- Generator: Adobe Illustrator 16.0.4, SVG Export Plug-In . SVG Version: 6.00 Build 0)  -->
<!DOCTYPE svg PUBLIC "-//W3C//DTD SVG 1.1//EN" "http://www.w3.org/Graphics/SVG/1.1/DTD/svg11.dtd">
<svg version="1.1" id="Layer_1" xmlns="http://www.w3.org/2000/svg" xmlns:xlink="http://www.w3.org/1999/xlink" x="0px" y="0px"
	 width="700px" height="700px" viewBox="0 0 700 700" enable-background="new 0 0 700 700" xml:space="preserve">
<rect x="135.914" y="210.508" width="65.692" height="384.368"/>
<rect x="135.914" y="210.508" fill="#afc5b4" stroke="#afc5b4" stroke-width="5" stroke-linecap="round" stroke-linejoin="round" stroke-miterlimit="10" width="65.692" height="384.368"/>
<rect x="130.323" y="167.179" width="437.48" height="22.363"/>
<rect x="130.323" y="167.179" fill="#afc5b4" stroke="#afc5b4" stroke-width="5" stroke-linecap="round" stroke-linejoin="round" stroke-miterlimit="10" width="437.48" height="22.363"/>
<polygon points="83.5,146.214 610.434,146.214 356.052,33 "/>
<polygon fill="#afc5b4" stroke="#afc5b4" stroke-width="5" stroke-linecap="round" stroke-linejoin="round" stroke-miterlimit="10" points="
	83.5,146.214 610.434,146.214 356.052,33 "/>
<rect x="253.321" y="210.508" width="71.283" height="384.368"/>
<rect x="253.321" y="210.508" fill="#afc5b4" stroke="#afc5b4" stroke-width="5" stroke-linecap="round" stroke-linejoin="round" stroke-miterlimit="10" width="71.283" height="384.368"/>
<rect x="374.921" y="210.508" width="71.282" height="384.368"/>
<rect x="374.921" y="210.508" fill="#afc5b4" stroke="#afc5b4" stroke-width="5" stroke-linecap="round" stroke-linejoin="round" stroke-miterlimit="10" width="71.282" height="384.368"/>
<rect x="497.22" y="210.508" width="70.584" height="384.368"/>
<rect x="497.22" y="210.508" fill="#afc5b4" stroke="#afc5b4" stroke-width="5" stroke-linecap="round" stroke-linejoin="round" stroke-miterlimit="10" width="70.584" height="384.368"/>
<rect x="130.323" y="617.239" width="437.48" height="23.761"/>
<rect x="130.323" y="617.239" fill="#afc5b4" stroke="#afc5b4" stroke-width="5" stroke-linecap="round" stroke-linejoin="round" stroke-miterlimit="10" width="437.48" height="23.761"/>
</svg>
