<?xml version="1.0" encoding="utf-8"?>
<!-- Generator: Adobe Illustrator 16.0.4, SVG Export Plug-In . SVG Version: 6.00 Build 0)  -->
<!DOCTYPE svg PUBLIC "-//W3C//DTD SVG 1.1//EN" "http://www.w3.org/Graphics/SVG/1.1/DTD/svg11.dtd">
<svg version="1.1" id="Layer_1" xmlns="http://www.w3.org/2000/svg" xmlns:xlink="http://www.w3.org/1999/xlink" x="0px" y="0px"
	 width="372.649px" height="336.824px" viewBox="174.699 63.023 372.649 336.824"
	 enable-background="new 174.699 63.023 372.649 336.824" xml:space="preserve">
<title>139all</title>
<path fill="#59968A" d="M547.302,99.888c0-20.359-16.505-36.864-36.864-36.864H279.07c-20.359,0-36.864,16.505-36.864,36.864
	v114.647h-44.467c-12.725,0-23.04,10.315-23.04,23.04v94.741c0,12.725,10.315,23.04,23.04,23.04h24.745l8.571,37.324
	c1.133,4.963,6.074,8.067,11.036,6.935c1.837-0.42,3.502-1.393,4.77-2.787l37.647-41.472h61.333c12.725,0,23.04-10.315,23.04-23.04
	v-51.287h7.741l63.13,69.442c3.423,3.767,9.251,4.046,13.019,0.622c1.395-1.267,2.367-2.932,2.786-4.77l15.068-65.295h39.859
	c20.359,0,36.864-16.505,36.864-36.864L547.302,99.888z M350.448,332.315c0,2.545-2.063,4.607-4.608,4.607h-65.434
	c-2.601,0.007-5.078,1.111-6.82,3.042l-28.524,31.38l-6.267-27.279c-0.966-4.183-4.692-7.145-8.986-7.143h-32.256
	c-2.545,0-4.608-2.062-4.608-4.607v-94.741c0-2.545,2.063-4.608,4.608-4.608h44.467v11.197c0,20.359,16.504,36.864,36.864,36.864
	h71.562V332.315z M528.869,244.164c0,10.18-8.252,18.432-18.432,18.432h-47.186c-4.294-0.003-8.021,2.959-8.986,7.143
	l-12.718,55.295l-54.052-59.397c-1.75-1.913-4.227-3-6.82-2.995H279.07c-10.18,0-18.432-8.252-18.432-18.432V99.888
	c0-10.18,8.252-18.432,18.432-18.432h231.368c10.18,0,18.432,8.252,18.432,18.432V244.164z"/>
<path fill="#59968A" d="M300.405,153.064h110.592c5.09,0,9.216-4.126,9.216-9.216s-4.126-9.216-9.216-9.216H300.405
	c-5.09,0-9.216,4.126-9.216,9.216S295.315,153.064,300.405,153.064z"/>
<path fill="#59968A" d="M484.725,189.928h-184.32c-5.09,0-9.216,4.126-9.216,9.216s4.126,9.216,9.216,9.216h184.32
	c5.09,0,9.216-4.126,9.216-9.216S489.814,189.928,484.725,189.928z"/>
</svg>
