<?xml version="1.0" encoding="utf-8"?>
<!-- Generator: Adobe Illustrator 16.0.4, SVG Export Plug-In . SVG Version: 6.00 Build 0)  -->
<!DOCTYPE svg PUBLIC "-//W3C//DTD SVG 1.1//EN" "http://www.w3.org/Graphics/SVG/1.1/DTD/svg11.dtd">
<svg version="1.1" id="Layer_1" xmlns="http://www.w3.org/2000/svg" xmlns:xlink="http://www.w3.org/1999/xlink" x="0px" y="0px"
	 width="1536.358px" height="484.886px" viewBox="0 0 1536.358 484.886" enable-background="new 0 0 1536.358 484.886"
	 xml:space="preserve">
<g>
	<path fill="none" d="M955.863,324.327c0.04,0.416,0.079,0.834,0.118,1.25c-1.137,0.605-2.211,1.412-3.42,1.785
		c-10.489,3.227-20.908,6.742-31.524,9.488c-65.564,16.963-130.868,34.793-195.238,55.947
		c-31.612,10.389-63.49,19.969-95.256,29.889c-6.175,1.928-9.687,5.246-8.855,9.141c1.172,5.498,5.802,6.703,10.394,6.711
		c6.13,0.01,12.483,0.113,18.351-1.371c22.24-5.625,44.629-10.936,66.409-18.053c86.068-28.129,173.086-52.037,263.44-61.645
		c17.362-1.846,34.93-3.17,52.175,1.402c3.019,0.799,5.699,2.875,8.535,4.363c-2.711,1.879-5.185,4.762-8.174,5.467
		c-14.232,3.363-28.504,6.789-42.945,8.996c-47.489,7.258-94.463,16.814-139.466,33.85c-34.365,13.01-68.041,27.832-102.08,41.707
		c-15.221,6.205-30.181,13.221-47.143,13.896c-3.882,0.154-7.798,2.582-11.449,4.451c-3.188,1.631-4.073,4.785-3.185,8.18
		c0.93,3.553,3.678,5.26,7.117,5.094c5.961-0.289,12.087-0.268,17.814-1.697c24.693-6.16,49.276-12.764,73.882-19.273
		c45.351-11.994,90.805-23.623,135.974-36.27c17.402-4.871,34.201-11.951,51.146-18.369c3.784-1.432,7.023-4.303,10.514-6.51
		c-0.213-0.371-0.426-0.742-0.639-1.111c-58.929,17.234-118.644,31.271-178.786,44.336c3.613-3.416,7.441-6.459,11.799-7.896
		c24.629-8.119,49.095-16.984,74.175-23.42c28.481-7.307,57.49-12.635,86.396-18.158c9.909-1.893,20.31-1.127,30.285-2.781
		c8.467-1.404,16.567-4.877,24.967-6.857c37.123-8.754,75.037-11.633,112.933-13.773c40.418-2.283,80.914-4.199,121.383-4.344
		c65.314-0.232,130.635,1.145,195.953,1.787c23.153,0.229,46.308,0.32,69.462,0.383c1.811,0.006,3.623-0.709,5.435-1.088
		c-1.883-2.17-3.832-3.486-5.967-3.955c-8.281-1.814-16.557-4.238-24.951-4.855c-40.691-2.992-81.387-6.451-122.146-7.914
		c-67.464-2.418-134.981-2.225-202.435,0.926c-24.944,1.164-49.848,3.457-74.719,5.77c-11.074,1.031-22.018,3.434-33.035,5.109
		c-5.029,0.766-9.813-0.139-13.307-4.066c-10.76-12.098-25.245-14.75-40.21-15.984c-30.786-2.539-61.195,1.537-91.589,5.631
		c-7.3,0.982-14.594,2.014-21.89,3.021c-0.11-0.443-0.222-0.887-0.333-1.328c1.879-0.814,3.693-1.859,5.646-2.404
		c21.452-6.002,42.821-12.348,64.43-17.73c16.615-4.139,33.559-6.949,50.303-10.596c2.207-0.48,4.098-2.416,6.135-3.676
		c-1.762-2.291-3.199-4.986-5.391-6.742c-1.684-1.35-4.274-1.871-6.535-2.137c-4.455-0.523-8.975-0.982-13.446-0.828
		c-42.497,1.463-84.928,4.549-126.733,12.268c-60.871,11.236-121.515,23.73-182.169,36.105c-28.274,5.77-56.476,11.592-85.54,10.391
		c-4.768-0.197-9.635-1.012-14.195-2.396c-5.28-1.605-5.854-5.459-1.29-8.68c3.899-2.752,8.254-5.045,12.697-6.809
		c19.929-7.914,40.803-12.117,61.96-14.98c47.683-6.451,95.412-12.572,143.054-19.312c11.307-1.6,22.386-4.938,33.473-7.846
		c2.713-0.711,5.044-2.873,7.551-4.369c-0.206-0.58-0.412-1.158-0.618-1.738c-2.92-0.281-5.853-0.893-8.756-0.777
		c-7.654,0.307-15.353,0.504-22.935,1.498c-40.114,5.26-80.191,10.809-120.302,16.107c-6.624,0.875-13.348,0.998-20.025,1.469
		c-0.234-0.732-0.469-1.465-0.702-2.199c3.861-2.258,7.603-4.76,11.602-6.74C822.702,246.288,954.694,189.597,1085,129.26
		c10.007-4.634,20.852-8.318,31.689-10.059c10.725-1.721,12.245-7.046,9.506-15.543c-1.259-3.905-3.526-5.863-7.898-4.17
		c-9.609,3.723-19.496,6.812-28.871,11.045c-69.76,31.495-139.604,62.813-209.067,94.957
		c-74.449,34.451-148.529,69.701-222.729,104.692c-24.722,11.656-50.21,19.6-77.729,22.318
		c-29.099,2.875-58.288,6.877-86.797,13.254c-60.554,13.543-120.681,28.986-181.011,43.535c-7.992,1.928-16.146,3.182-24.225,4.748
		c-0.204-0.498-0.409-0.994-0.613-1.49c3.35-1.885,6.551-4.125,10.074-5.59c17.2-7.15,34.22-14.867,51.802-20.941
		c32.537-11.24,65.449-21.389,98.137-32.199c6.763-2.238,13.451-4.959,19.712-8.316c2.406-1.291,3.523-4.984,5.228-7.584
		c-2.708-0.734-5.56-2.43-8.099-2.047c-14.632,2.207-29.287,4.441-43.754,7.52c-42.804,9.109-85.494,18.748-128.298,27.855
		c-8.585,1.828-17.458,2.438-26.236,3.119c-2.052,0.158-4.259-1.682-6.395-2.602c1.487-1.592,2.709-3.65,4.517-4.682
		c4.18-2.385,8.541-4.529,13.01-6.322c32.421-13.006,64.877-25.926,97.342-38.822c28.03-11.137,55.722-22.845,80.622-40.341
		c6.733-4.732,14.683-7.73,22.06-11.553c1.762-0.913,3.706-1.668,5.15-2.961c4.354-3.898,3.398-9.399-2.093-11.297
		c-3.255-1.124-6.783-1.756-10.229-1.978c-20.104-1.292-39.912,1.472-59.588,5.077c-41.33,7.573-82.123,17.317-120.645,34.537
		c-52.254,23.359-104.172,47.466-156.385,70.916c-29.885,13.424-59.543,27.537-91.105,36.758c-6.728,1.967-14.014,2.506-21.07,2.695
		c-4.735,0.129-6.657-3.141-5.652-7.896c0.541-2.557,1.368-5.264,2.828-7.377c4.91-7.107,9.424-14.705,15.422-20.803
		c17.979-18.285,35.788-36.871,55.099-53.689c73.459-63.983,151.676-121.793,231.771-177.164
		c46.169-31.916,91.67-64.798,137.412-97.33c2.801-1.992,5.857-4.329,7.344-7.245c1.21-2.373,1.029-6.15,0.044-8.771
		c-1.242-3.305-4.884-4.336-8.062-2.851c-5.818,2.719-11.831,5.389-16.94,9.186c-13.633,10.13-26.449,21.38-40.266,31.236
		C345.634,79.877,290.751,117.958,236.53,156.96c-57.496,41.356-114.107,83.895-166.665,131.544
		c-19.163,17.375-38.04,35.076-53.364,55.998c-6.115,8.348-11.544,17.674-15.021,27.367c-4.868,13.574,2.654,23.861,16.995,26.211
		c9.976,1.633,19.593-0.131,29.085-2.832c31.979-9.102,61.918-23.342,92.104-36.924c53.106-23.891,105.853-48.613,159.313-71.68
		c44.315-19.122,90.756-31.588,138.653-38.196c3.757-0.519,7.647-0.068,11.476-0.068c0.142,0.637,0.283,1.274,0.426,1.912
		c-2.931,2.041-5.636,4.574-8.83,6.041c-15.266,7.01-30.533,14.047-46.041,20.494c-43.319,18.006-86.818,35.586-130.094,53.698
		c-7.44,3.113-14.384,7.646-21.088,12.211c-4.672,3.184-6.629,8.469-5.566,14.135c1.061,5.658,5.667,7.828,10.717,9.213
		c10.897,2.986,21.923,1.824,32.743,0.174c13.803-2.107,27.419-5.412,41.168-7.914c5.08-0.926,10.308-1.039,15.468-1.523
		c0.15,0.652,0.301,1.305,0.45,1.957c-2.726,1.391-5.36,3.012-8.193,4.133c-17.788,7.045-35.766,13.633-53.387,21.068
		c-11.769,4.965-23.112,10.963-34.483,16.814c-1.717,0.883-3.764,3.727-3.466,5.227c0.333,1.678,3.019,3.137,4.959,4.164
		c1.383,0.73,3.263,0.941,4.86,0.783c14.712-1.463,29.678-1.789,44.065-4.832c60.56-12.805,120.894-26.67,181.414-39.662
		c33.344-7.16,66.89-13.383,100.362-19.939c2.122-0.414,4.396-0.053,7.978-0.053c-1.989,3.926-3.23,6.734-4.779,9.359
		c-3.534,5.996-3.471,9.623,1.842,14.068c4.146,3.467,8.808,6.654,13.754,8.76c11.314,4.814,23.468,5.076,35.426,3.793
		c17.526-1.881,35.158-3.67,52.392-7.215c46.121-9.488,91.978-20.262,138.085-29.818c40.57-8.408,81.117-17.172,122.477-21.043
		C946.424,323.95,951.162,324.327,955.863,324.327z"/>
	<path fill-rule="evenodd" clip-rule="evenodd" d="M955.863,324.327c-4.701,0-9.438-0.377-14.099,0.059
		c-41.359,3.871-81.906,12.635-122.477,21.043c-46.107,9.557-91.964,20.33-138.085,29.818c-17.233,3.545-34.865,5.334-52.392,7.215
		c-11.958,1.283-24.111,1.021-35.426-3.793c-4.946-2.105-9.608-5.293-13.754-8.76c-5.312-4.445-5.376-8.072-1.842-14.068
		c1.549-2.625,2.79-5.434,4.779-9.359c-3.582,0-5.855-0.361-7.978,0.053c-33.473,6.557-67.019,12.779-100.362,19.939
		c-60.521,12.992-120.854,26.857-181.414,39.662c-14.388,3.043-29.354,3.369-44.065,4.832c-1.598,0.158-3.478-0.053-4.86-0.783
		c-1.94-1.027-4.626-2.486-4.959-4.164c-0.298-1.5,1.749-4.344,3.466-5.227c11.371-5.852,22.715-11.85,34.483-16.814
		c17.621-7.436,35.599-14.023,53.387-21.068c2.833-1.121,5.468-2.742,8.193-4.133c-0.149-0.652-0.3-1.305-0.45-1.957
		c-5.16,0.484-10.388,0.598-15.468,1.523c-13.749,2.502-27.365,5.807-41.168,7.914c-10.82,1.65-21.846,2.812-32.743-0.174
		c-5.05-1.385-9.656-3.555-10.717-9.213c-1.062-5.666,0.895-10.951,5.566-14.135c6.704-4.564,13.647-9.098,21.088-12.211
		c43.275-18.111,86.774-35.691,130.094-53.698c15.508-6.447,30.775-13.484,46.041-20.494c3.194-1.467,5.899-4,8.83-6.041
		c-0.143-0.638-0.284-1.275-0.426-1.912c-3.828,0-7.719-0.45-11.476,0.068c-47.897,6.607-94.338,19.074-138.653,38.196
		c-53.461,23.066-106.207,47.789-159.313,71.68c-30.187,13.582-60.125,27.822-92.104,36.924c-9.492,2.701-19.109,4.465-29.085,2.832
		C4.134,395.731-3.388,385.444,1.48,371.87c3.477-9.693,8.905-19.02,15.021-27.367c15.324-20.922,34.201-38.623,53.364-55.998
		c52.558-47.65,109.169-90.188,166.665-131.544c54.222-39.002,109.104-77.083,163.479-115.874
		c13.816-9.856,26.633-21.106,40.266-31.236c5.109-3.797,11.122-6.467,16.94-9.186c3.179-1.485,6.82-0.454,8.062,2.851
		c0.985,2.62,1.166,6.397-0.044,8.771c-1.486,2.916-4.543,5.253-7.344,7.245c-45.742,32.532-91.243,65.414-137.412,97.33
		c-80.096,55.37-158.312,113.181-231.771,177.164c-19.311,16.818-37.119,35.404-55.099,53.689
		c-5.998,6.098-10.512,13.695-15.422,20.803c-1.46,2.113-2.287,4.82-2.828,7.377c-1.005,4.756,0.917,8.025,5.652,7.896
		c7.057-0.189,14.343-0.729,21.07-2.695c31.562-9.221,61.221-23.334,91.105-36.758c52.213-23.449,104.131-47.557,156.385-70.916
		c38.521-17.22,79.314-26.964,120.645-34.537c19.676-3.605,39.484-6.369,59.588-5.077c3.446,0.222,6.975,0.854,10.229,1.978
		c5.491,1.897,6.447,7.398,2.093,11.297c-1.444,1.293-3.389,2.048-5.15,2.961c-7.377,3.822-15.326,6.82-22.06,11.553
		c-24.9,17.496-52.592,29.205-80.622,40.341c-32.465,12.896-64.921,25.816-97.342,38.822c-4.469,1.793-8.83,3.938-13.01,6.322
		c-1.808,1.031-3.029,3.09-4.517,4.682c2.136,0.92,4.343,2.76,6.395,2.602c8.778-0.682,17.651-1.291,26.236-3.119
		c42.804-9.107,85.494-18.746,128.298-27.855c14.467-3.078,29.122-5.312,43.754-7.52c2.539-0.383,5.391,1.312,8.099,2.047
		c-1.704,2.6-2.821,6.293-5.228,7.584c-6.261,3.357-12.949,6.078-19.712,8.316c-32.688,10.811-65.6,20.959-98.137,32.199
		c-17.582,6.074-34.602,13.791-51.802,20.941c-3.523,1.465-6.725,3.705-10.074,5.59c0.204,0.496,0.409,0.992,0.613,1.49
		c8.079-1.566,16.232-2.82,24.225-4.748c60.33-14.549,120.457-29.992,181.011-43.535c28.509-6.377,57.698-10.379,86.797-13.254
		c27.52-2.719,53.008-10.662,77.729-22.318c74.199-34.991,148.279-70.241,222.729-104.692
		c69.463-32.144,139.308-63.462,209.067-94.957c9.375-4.232,19.262-7.322,28.871-11.045c4.372-1.693,6.64,0.265,7.898,4.17
		c2.739,8.497,1.219,13.822-9.506,15.543c-10.838,1.74-21.683,5.425-31.689,10.059c-130.306,60.337-262.298,117.027-391.01,180.803
		c-3.999,1.98-7.74,4.482-11.602,6.74c0.233,0.734,0.468,1.467,0.702,2.199c6.678-0.471,13.401-0.594,20.025-1.469
		c40.11-5.299,80.188-10.848,120.302-16.107c7.582-0.994,15.28-1.191,22.935-1.498c2.903-0.115,5.836,0.496,8.756,0.777
		c0.206,0.58,0.412,1.158,0.618,1.738c-2.507,1.496-4.838,3.658-7.551,4.369c-11.087,2.908-22.166,6.246-33.473,7.846
		c-47.642,6.74-95.371,12.861-143.054,19.312c-21.157,2.863-42.031,7.066-61.96,14.98c-4.443,1.764-8.798,4.057-12.697,6.809
		c-4.563,3.221-3.99,7.074,1.29,8.68c4.561,1.385,9.428,2.199,14.195,2.396c29.064,1.201,57.266-4.621,85.54-10.391
		c60.654-12.375,121.298-24.869,182.169-36.105c41.806-7.719,84.236-10.805,126.733-12.268c4.472-0.154,8.991,0.305,13.446,0.828
		c2.261,0.266,4.852,0.787,6.535,2.137c2.191,1.756,3.629,4.451,5.391,6.742c-2.037,1.26-3.928,3.195-6.135,3.676
		c-16.744,3.646-33.688,6.457-50.303,10.596c-21.608,5.383-42.978,11.729-64.43,17.73c-1.953,0.545-3.768,1.59-5.646,2.404
		c0.111,0.441,0.223,0.885,0.333,1.328c7.296-1.008,14.59-2.039,21.89-3.021c30.394-4.094,60.803-8.17,91.589-5.631
		c14.965,1.234,29.45,3.887,40.21,15.984c3.493,3.928,8.277,4.832,13.307,4.066c11.018-1.676,21.961-4.078,33.035-5.109
		c24.871-2.312,49.774-4.605,74.719-5.77c67.453-3.15,134.971-3.344,202.435-0.926c40.759,1.463,81.454,4.922,122.146,7.914
		c8.395,0.617,16.67,3.041,24.951,4.855c2.135,0.469,4.084,1.785,5.967,3.955c-1.812,0.379-3.624,1.094-5.435,1.088
		c-23.154-0.062-46.309-0.154-69.462-0.383c-65.318-0.643-130.639-2.02-195.953-1.787c-40.469,0.145-80.965,2.061-121.383,4.344
		c-37.896,2.141-75.81,5.02-112.933,13.773c-8.399,1.98-16.5,5.453-24.967,6.857c-9.976,1.654-20.376,0.889-30.285,2.781
		c-28.906,5.523-57.915,10.852-86.396,18.158c-25.08,6.436-49.546,15.301-74.175,23.42c-4.357,1.438-8.186,4.48-11.799,7.896
		c60.143-13.064,119.857-27.102,178.786-44.336c0.213,0.369,0.426,0.74,0.639,1.111c-3.49,2.207-6.729,5.078-10.514,6.51
		c-16.944,6.418-33.743,13.498-51.146,18.369c-45.169,12.646-90.623,24.275-135.974,36.27c-24.605,6.51-49.188,13.113-73.882,19.273
		c-5.728,1.43-11.854,1.408-17.814,1.697c-3.439,0.166-6.188-1.541-7.117-5.094c-0.889-3.395-0.004-6.549,3.185-8.18
		c3.651-1.869,7.567-4.297,11.449-4.451c16.962-0.676,31.922-7.691,47.143-13.896c34.039-13.875,67.715-28.697,102.08-41.707
		c45.003-17.035,91.977-26.592,139.466-33.85c14.441-2.207,28.713-5.633,42.945-8.996c2.989-0.705,5.463-3.588,8.174-5.467
		c-2.836-1.488-5.517-3.564-8.535-4.363c-17.245-4.572-34.812-3.248-52.175-1.402c-90.354,9.607-177.372,33.516-263.44,61.645
		c-21.78,7.117-44.169,12.428-66.409,18.053c-5.867,1.484-12.221,1.381-18.351,1.371c-4.592-0.008-9.222-1.213-10.394-6.711
		c-0.831-3.895,2.681-7.213,8.855-9.141c31.766-9.92,63.644-19.5,95.256-29.889c64.37-21.154,129.674-38.984,195.238-55.947
		c10.616-2.746,21.035-6.262,31.524-9.488c1.209-0.373,2.283-1.18,3.42-1.785C955.942,325.161,955.903,324.743,955.863,324.327z"/>
</g>
</svg>
