<?xml version="1.0" encoding="utf-8"?>
<!-- Generator: Adobe Illustrator 16.0.4, SVG Export Plug-In . SVG Version: 6.00 Build 0)  -->
<!DOCTYPE svg PUBLIC "-//W3C//DTD SVG 1.1//EN" "http://www.w3.org/Graphics/SVG/1.1/DTD/svg11.dtd">
<svg version="1.1" id="Layer_1" xmlns="http://www.w3.org/2000/svg" xmlns:xlink="http://www.w3.org/1999/xlink" x="0px" y="0px"
	 width="1447px" height="394px" viewBox="-386.5 209.5 1447 394" enable-background="new -386.5 209.5 1447 394"
	 xml:space="preserve">
<title>Artboard 4</title>
<g>
	<path fill="none" d="M439.746,439.909c-0.278,3.124-0.159,5.814-0.797,8.312c-4.242,16.597-8.288,33.256-13.084,49.694
		c-6.614,22.67-14.002,45.113-20.674,67.768c-1.623,5.51-2.364,11.458-2.394,17.211c-0.032,6.331,3.945,9.044,9.657,6.323
		c3.539-1.687,7.148-5.247,8.649-8.835c5.899-14.104,10.936-28.569,16.37-42.87c3.956-10.411,7.953-20.81,12.104-31.144
		c1.462-3.641,4.148-5.116,7.991-2.989c8.532,4.723,17.898,4.78,27.226,4.598c12.793-0.251,25.158-2.626,36.591-8.69
		c5.969-3.166,11.105-2.258,15.81,2.563c2.08,2.132,4.432,4.057,6.883,5.756c8.572,5.945,13.272,5.97,21.771-0.189
		c11.027-7.994,19.049-18.395,24.695-30.827c2.234-4.921,5.155-9.741,8.692-13.798c3.39-3.889,7.194-2.321,7.864,2.863
		c0.356,2.756,0.186,5.672-0.278,8.427c-1.74,10.337-4.097,20.585-5.442,30.968c-0.96,7.406,4.876,12.286,11.386,9.75
		c2.975-1.158,6.25-3.839,7.492-6.663c2.438-5.544,3.94-11.594,5.124-17.574c2.408-12.171,5.635-24.003,12.511-34.481
		c1.49-2.271,3.667-4.412,6.023-5.719c3.708-2.056,6.651-0.179,6.711,4.068c0.054,3.81-0.088,7.691-0.766,11.428
		c-1.887,10.405-1.142,20.537,2.136,30.559c5.525,16.898,20.272,19.415,33.997,11.256c2.207-1.312,5.324-1.919,7.876-1.619
		c3.392,0.398,6.766,1.729,9.932,3.141c23.485,10.474,45.366,7.204,65.997-7.426c4.178-2.963,8.361-5.918,12.789-9.053
		c3.252,3.487,6.182,6.644,9.127,9.784c6.305,6.725,14.092,10.896,23.197,8.841c7.455-1.685,14.559-5.239,21.562-8.51
		c4.492-2.098,8.381-5.448,12.787-7.768c6.756-3.556,9.467-1.909,9.996,5.585c0.939,13.297,6.887,18.664,20.352,17.865
		c12.518-0.743,22.787-6.807,32.271-14.455c3.369-2.718,6.543-5.689,9.998-8.291c3.176-2.391,5.928-2.291,9.16,0.888
		c2.93,2.881,6.82,5.614,10.729,6.534c20.912,4.918,44.191-8.182,51.262-28.514c1.01-2.899,1.795-6.372,1.131-9.216
		c-0.631-2.696-2.846-6.044-5.215-7.002c-2.047-0.828-5.875,0.604-7.859,2.284c-2.697,2.284-4.605,5.627-6.467,8.745
		c-4.215,7.06-9.023,13.152-17.809,14.757c-8.582,1.568-13.188-2.409-10.635-10.685c2.625-8.507,6.709-16.568,10.254-24.782
		c2.434-5.639,5.371-11.083,7.461-16.84c1.764-4.86-1.906-12.462-6.535-14.351c-5.445-2.222-8.527,1.612-11.035,5.313
		c-3.82,5.637-7.586,11.4-10.547,17.512c-7.35,15.167-16.9,28.792-28.906,40.456c-5.619,5.462-12.416,10.165-19.467,13.589
		c-9.078,4.408-16.488-1.289-15.756-11.411c0.229-3.156,1.506-6.587,3.307-9.2c3.002-4.357,6.766-8.199,10.295-12.182
		c8.17-9.219,17.064-17.884,24.465-27.681c22.219-29.409,34.316-63.306,41.691-99.015c1.596-7.732,1.893-15.812,2.012-23.743
		c0.08-5.385-3.605-8.705-8.812-10.019c-6.979-1.761-13.061,0.518-18.104,4.852c-7.174,6.166-14.623,12.321-20.482,19.656
		c-29.16,36.491-50.205,76.439-50.756,124.685c-0.098,8.436-2.305,16.356-9.633,21.529c-6.914,4.88-14.08,9.436-21.352,13.771
		c-3.967,2.366-8.283,4.243-12.619,5.865c-5.053,1.89-8.039-1.746-10.992-4.955c-2.631-2.858-2.547-6.049-0.703-9.218
		c1.924-3.306,3.84-6.645,6.096-9.722c18.293-24.953,31.375-52.533,41.055-81.778c8.814-26.636,16.172-53.643,15.279-82.042
		c-0.197-6.323-1.758-12.901-4.135-18.779c-2.686-6.646-8.107-8.062-13.797-3.729c-6.572,5.008-12.934,10.576-18.301,16.834
		c-19.711,22.984-34.775,48.836-44.383,77.568c-10.002,29.909-17.838,60.17-7.65,91.881c1.283,3.993-1.047,7.143-4.152,9.455
		c-9.52,7.087-19.371,13.875-31.026,16.68c-6.64,1.598-13.812,2.185-20.606,1.601c-6.722-0.577-8.717-5.893-5.361-11.743
		c1.391-2.425,3.294-4.594,5.172-6.693c11.517-12.873,18.469-27.976,21.813-44.788c1.554-7.805-1.18-14.35-6.967-17.888
		c-7.123-4.355-14.356-4.228-20.788,1.318c-6.414,5.531-12.49,11.505-18.296,17.679c-5.762,6.128-8.449,13.775-9.482,22.117
		c-1.205,9.737-2.478,19.485-4.326,29.112c-0.433,2.252-3.304,4.035-5.054,6.033c-1.63-2.035-4.293-3.884-4.703-6.142
		c-1.395-7.677-2.123-15.486-2.865-23.269c-1.06-11.101-1.536-22.27-2.964-33.318c-1.088-8.417-7.381-11.215-14.951-7.173
		c-2.607,1.393-5.11,3.231-7.176,5.342c-5.705,5.829-11.021,12.042-16.776,17.819c-1.99,1.997-4.82,3.158-7.266,4.701
		c-0.689-2.749-1.729-5.464-1.995-8.253c-0.597-6.233-2.452-11.772-7.629-15.639c-4.695-3.506-8.263-3.234-11.384,1.587
		c-4.964,7.668-9.471,15.641-13.951,23.608c-5.542,9.857-10.683,19.944-16.374,29.713c-1.885,3.234-4.668,6.098-7.524,8.572
		c-3.262,2.826-6.746,2.306-9.659-1.027c-3.464-3.962-3.036-7.286,0.996-13.543c3.308-5.134,6.911-10.281,9.027-15.931
		c3.115-8.315,0.499-15.982-5.521-20.736c-3.459-2.731-6.517-2.708-9.628,0.59c-6.419,6.805-10.709,14.717-13.336,23.688
		c-1.055,3.603-2.257,7.64-4.692,10.276c-9.408,10.182-21.712,15.004-35.172,17.076c-1.248,0.192-3.307-0.466-3.847-1.394
		c-0.491-0.843,0.186-2.938,1.022-3.882c3.421-3.861,6.956-7.646,10.709-11.183c16.611-15.655,18.263-24.402,8.275-45.032
		c-0.436-0.898-0.837-1.815-1.313-2.691c-8.017-14.767-19.601-20.429-36.189-17.168c-6.835,1.343-13.473,3.661-20.244,5.36
		c-23.612,5.924-47.796,6.512-71.93,7.361c-1.246,0.044-3.128-1.896-3.766-3.334c-3.636-8.188-6.645-16.669-10.55-24.719
		c-2.521-5.2-6.272-9.796-9.364-14.729c-2.633-4.199-3.061-8.408-1.047-13.26c2.986-7.191,5.887-14.539,7.649-22.094
		c3.939-16.878,7.894-34.07,4.479-51.396c-5.085-25.803-21.121-39.452-47.624-34.981c-14.655,2.473-20.767,9.174-22.289,24.271
		c-2.772,27.503,5.053,51.997,20.518,74.429c4.818,6.989,9.629,13.983,14.652,21.281c-7.292,10.769-14.627,21.471-21.821,32.267
		c-5.697,8.549-13.317,13.317-23.728,14.68c-15.826,2.071-15.773,2.472-16.826,18.198c-0.573,8.555-2.687,16.483-9.562,22.299
		c-8.855,7.49-18.062,14.115-30.354,14.861c-6.397,0.389-10.727,5.055-10.872,10.398c-0.262,9.654,7.786,16.57,17.061,14.145
		c4.445-1.163,8.811-3.118,12.8-5.426c6.477-3.747,13.307-7.329,18.728-12.343c7.743-7.16,14.751-5.887,22.39-0.75
		c1.382,0.929,2.777,1.837,4.189,2.719c15.119,9.437,31.549,14,49.394,13.081c6.368-0.329,12.225-2.328,16.41-7.358
		c9.3-11.181,16.216-23.582,18.197-38.261c1.236-9.162,2.349-10.57,11.788-11.317c14.609-1.156,29.245-1.983,43.874-2.866
		C434.579,439.479,436.868,439.782,439.746,439.909z M-308.835,384.812c-0.456,0.484-0.912,0.968-1.369,1.452
		c-5.367-1.118-10.78-2.058-16.091-3.405c-5.781-1.465-11.551-2.8-17.18,0.053c-8.981,4.551-16.794,10.584-22.215,19.312
		c-10.922,17.585-12.539,36.494-7.098,56.103c4.556,16.418,12.896,30.481,29.272,37.239c12.927,5.334,26.524,6.734,37.805-3.825
		c8.177-7.654,14.359-16.922,14.69-29.023c0.06-2.209,1.313-5.582,2.9-6.23c1.714-0.701,4.839,0.655,6.678,2.025
		c3.074,2.293,5.715,5.216,8.365,8.037c16.252,17.31,36.315,25.804,59.818,25.736c13.867-0.04,24.261-6.022,29.124-19.812
		c1.905-5.404,4.02-10.765,5.477-16.295c5.567-21.119,6.649-42.653,5.692-64.407c-0.666-15.128-3.833-29.384-11.48-42.619
		c-3.153-5.455-5.304-11.496-8.098-17.683c2.745-1.022,4.7-2.043,6.774-2.473c7.891-1.633,15.821-3.077,23.737-4.588
		c12.199-2.33,24.482-4.296,36.566-7.123c6.875-1.61,9.866-7.738,8.138-14.052c-2.025-7.398-7.722-11.422-14.574-9.873
		c-5.557,1.255-11.029,2.916-16.502,4.523c-16.934,4.971-33.849,9.939-51.746,9.915c-6.287-0.008-10.831-2.533-14.302-7.816
		c-2.488-3.789-5.188-7.641-8.534-10.619c-22.147-19.727-44.462-39.264-66.799-58.773c-6.329-5.528-14.168-5.405-21.918-5.231
		c-12.679,0.283-28.588,20.47-29.765,31.113c-1.263,11.404,0.685,22.362,3.846,33.037c7.578,25.581,15.788,50.972,23.642,76.473
		C-312.063,372.195-310.539,378.531-308.835,384.812z M-60.006,446.812c1.173-6.942,0.707-13.747-4.321-19.061
		c-4.052-4.281-8.114-8.642-12.682-12.325c-15.306-12.342-32.048-13.278-46.457-2.988c-25.237,18.023-28.857,62.138-6.662,83.854
		c9.649,9.441,21.169,14.43,34.859,11.22c5.355-1.254,10.424-3.704,15.666-5.484c5.318-1.807,10.268-1.839,15.216,1.823
		c11.505,8.515,24.056,8.246,35.221-0.703c14.332-11.488,23.62-26.563,29.751-43.77c1.924-5.4,3.657-10.897,6.025-16.099
		c1.241-2.728,3.668-4.907,5.56-7.335c2.264,2.308,5.554,4.222,6.602,6.995c3.324,8.794,6.444,17.77,8.429,26.939
		c1.741,8.045,1.55,16.495,2.829,24.669c0.439,2.816,2.117,6.804,4.292,7.736c8.496,3.637,14.968-1.242,15.766-10.576
		c1.513-17.697,3.522-35.372,10.431-51.92c1.328-3.179,4.684-7.413,7.405-7.646c4.36-0.374,5.504,4.871,6.131,8.611
		c1.476,8.816,2.412,17.722,3.645,26.581c3.25,23.341,17.353,35.796,40.582,39.966c7.87,1.411,14.631-1.436,19.49-7.982
		c4.784-6.448,2.596-12.905-5.201-14.609c-4.21-0.921-8.663-0.707-13.005-1.021c-10.52-0.761-17.756-6.049-20.764-16.246
		c-1.607-5.45-1.995-11.271-2.832-16.939c-2.522-17.071-9.571-31.679-23.41-42.301c-8.849-6.792-15.382-5.545-20.662,4.231
		c-3.744,6.932-6.243,14.539-9.506,21.748c-0.85,1.878-2.478,3.399-3.748,5.084c-1.539-1.434-3.352-2.665-4.569-4.335
		c-6.232-8.554-13.229-16.256-22.845-21.012c-7.094-3.509-12.389-2.177-16.239,4.756c-3.173,5.712-5.898,11.792-7.938,18.005
		c-4.461,13.59-10.261,26.534-18.603,38.047c-3.853,5.317-8.977,10.136-14.474,13.697c-6.429,4.165-11.134,1.367-11.763-6.21
		C-58.764,470.432-59.289,458.614-60.006,446.812z M988.412,363.663c0.73,7.145,3.451,10.435,9.799,11.133
		c7.377,0.812,12.664-1.812,12.777-7.699c0.096-5.068-1.018-10.657-3.299-15.15c-3.021-5.951-11.268-5.89-14.834-0.166
		C990.664,355.298,989.846,359.673,988.412,363.663z M575.719,354.619c0.05-8.442-4.481-14.052-11.466-14.197
		c-6.355-0.133-10.26,3.731-10.313,10.205c-0.061,7.388,6.224,14.375,13.108,14.577
		C572.334,365.358,575.681,361.272,575.719,354.619z"/>
	<path fill-rule="evenodd" clip-rule="evenodd" d="M425.453,442.079c-2.88-0.072-5.175-0.332-7.435-0.152
		c-14.609,1.161-29.227,2.268-43.812,3.702c-9.423,0.927-10.509,2.355-11.569,11.539c-1.702,14.714-8.38,27.245-17.465,38.601
		c-4.089,5.109-9.906,7.22-16.267,7.67c-17.824,1.259-34.337-2.99-49.634-12.137c-1.429-0.855-2.841-1.736-4.24-2.639
		c-7.735-4.99-14.766-6.13-22.372,1.177c-5.324,5.116-12.085,8.827-18.489,12.697c-3.944,2.383-8.272,4.421-12.694,5.669
		c-9.226,2.602-17.404-4.159-17.327-13.817c0.043-5.346,4.283-10.093,10.672-10.604c12.274-0.98,21.354-7.779,30.065-15.438
		c6.764-5.945,8.726-13.912,9.136-22.477c0.753-15.744,0.692-16.144,16.476-18.516c10.382-1.561,17.91-6.474,23.443-15.129
		c6.987-10.932,14.117-21.771,21.203-32.677c-5.162-7.201-10.104-14.103-15.055-20.998c-15.89-22.133-24.18-46.474-21.932-74.024
		c1.234-15.123,7.217-21.939,21.822-24.691c26.413-4.975,42.706,8.366,48.282,34.068c3.743,17.257,0.118,34.521-3.5,51.471
		c-1.618,7.587-4.378,14.989-7.227,22.236c-1.921,4.889-1.413,9.089,1.3,13.237c3.185,4.874,7.022,9.396,9.643,14.548
		c4.059,7.975,7.229,16.396,11.02,24.514c0.665,1.425,2.583,3.329,3.828,3.262c24.113-1.31,48.281-2.358,71.776-8.731
		c6.738-1.827,13.33-4.272,20.139-5.745c16.523-3.576,28.213,1.864,36.51,16.476c0.493,0.866,0.912,1.775,1.364,2.666
		c10.379,20.436,8.895,29.213-7.415,45.182c-3.686,3.608-7.147,7.459-10.494,11.385c-0.818,0.96-1.455,3.067-0.948,3.9
		c0.558,0.917,2.628,1.536,3.872,1.32c13.418-2.329,25.628-7.385,34.841-17.743c2.385-2.684,3.51-6.742,4.495-10.364
		c2.456-9.02,6.594-17.012,12.882-23.938c3.049-3.356,6.104-3.438,9.615-0.773c6.11,4.639,8.872,12.254,5.916,20.628
		c-2.009,5.688-5.513,10.903-8.723,16.1c-3.912,6.332-4.276,9.664-0.737,13.56c2.976,3.276,6.47,3.73,9.677,0.843
		c2.809-2.528,5.537-5.444,7.359-8.714c5.505-9.875,10.452-20.059,15.805-30.02c4.328-8.052,8.683-16.109,13.499-23.87
		c3.029-4.88,6.591-5.22,11.352-1.804c5.25,3.767,7.21,9.27,7.926,15.49c0.319,2.784,1.41,5.479,2.152,8.214
		c2.415-1.59,5.223-2.805,7.174-4.839c5.645-5.886,10.841-12.199,16.435-18.136c2.024-2.149,4.492-4.035,7.072-5.478
		c7.492-4.186,13.837-1.508,15.085,6.887c1.639,11.02,2.327,22.177,3.599,33.256c0.891,7.767,1.768,15.561,3.308,23.21
		c0.453,2.249,3.151,4.047,4.819,6.051c1.712-2.031,4.549-3.869,4.938-6.129c1.665-9.66,2.751-19.431,3.771-29.189
		c0.874-8.36,3.415-16.058,9.059-22.294c5.688-6.283,11.648-12.371,17.956-18.024c6.325-5.667,13.555-5.933,20.759-1.714
		c5.854,3.427,8.712,9.919,7.307,17.752c-3.023,16.873-9.687,32.105-20.956,45.195c-1.837,2.135-3.699,4.34-5.043,6.791
		c-3.243,5.913-1.147,11.189,5.584,11.639c6.804,0.454,13.964-0.27,20.572-1.993c11.6-3.026,21.32-10.001,30.703-17.268
		c3.061-2.371,5.33-5.564,3.971-9.533c-10.79-31.511-3.532-61.915,5.898-92.01c9.058-28.91,23.627-55.044,42.896-78.399
		c5.247-6.359,11.501-12.048,17.977-17.18c5.606-4.44,11.054-3.128,13.865,3.466c2.489,5.832,4.175,12.378,4.492,18.697
		c1.434,28.378-5.408,55.52-13.713,82.318c-9.121,29.425-21.675,57.249-39.489,82.546c-2.196,3.12-4.049,6.495-5.909,9.836
		c-1.783,3.204-1.806,6.396,0.879,9.203c3.014,3.152,6.068,6.73,11.085,4.745c4.304-1.705,8.584-3.664,12.505-6.105
		c7.188-4.474,14.266-9.165,21.085-14.176c7.229-5.312,9.284-13.272,9.221-21.709c-0.368-48.246,19.911-88.589,48.371-125.629
		c5.718-7.445,13.049-13.741,20.104-20.043c4.96-4.43,10.997-6.823,18.008-5.195c5.231,1.214,8.979,4.463,9.002,9.849
		c0.032,7.932-0.11,16.016-1.559,23.777c-6.693,35.843-18.143,69.964-39.797,99.791c-7.213,9.936-15.94,18.769-23.934,28.142
		c-3.452,4.049-7.143,7.962-10.061,12.376c-1.751,2.646-2.962,6.102-3.131,9.262c-0.539,10.134,6.979,15.688,15.971,11.108
		c6.984-3.558,13.69-8.39,19.204-13.957c11.781-11.892,21.071-25.695,28.13-41c2.844-6.167,6.499-12.001,10.212-17.71
		c2.437-3.748,5.444-7.64,10.932-5.522c4.664,1.8,8.478,9.33,6.808,14.224c-1.98,5.796-4.813,11.295-7.139,16.979
		c-3.388,8.28-7.317,16.418-9.78,24.974c-2.395,8.322,2.286,12.212,10.837,10.479c8.753-1.771,13.444-7.955,17.523-15.093
		c1.802-3.153,3.646-6.532,6.3-8.867c1.951-1.718,5.752-3.223,7.814-2.434c2.387,0.913,4.665,4.218,5.347,6.901
		c0.719,2.83,0,6.317-0.955,9.235c-6.682,20.464-29.707,34.004-50.709,29.485c-3.925-0.845-7.867-3.504-10.851-6.328
		c-3.293-3.116-6.046-3.164-9.176-0.713c-3.404,2.667-6.521,5.698-9.838,8.479c-9.337,7.828-19.489,14.086-31.99,15.068
		c-13.447,1.055-19.496-4.198-20.688-17.475c-0.672-7.482-3.414-9.077-10.101-5.394c-4.361,2.403-8.186,5.827-12.637,8.01
		c-6.94,3.403-13.975,7.093-21.396,8.919c-9.064,2.229-16.93-1.794-23.361-8.396c-3.005-3.084-5.994-6.184-9.312-9.608
		c-4.368,3.218-8.494,6.253-12.615,9.295c-20.348,15.02-42.162,18.706-65.843,8.682c-3.192-1.352-6.592-2.617-9.99-2.951
		c-2.557-0.251-5.662,0.416-7.844,1.77c-13.566,8.419-28.358,6.184-34.205-10.606c-3.468-9.957-4.406-20.072-2.718-30.512
		c0.606-3.749,0.674-7.633,0.548-11.44c-0.141-4.245-3.119-6.065-6.787-3.939c-2.331,1.351-4.467,3.533-5.914,5.832
		c-6.675,10.607-9.675,22.499-11.851,34.714c-1.069,6.002-2.457,12.079-4.788,17.669c-1.188,2.847-4.412,5.59-7.364,6.805
		c-6.46,2.659-12.388-2.108-11.569-9.531c1.147-10.407,3.309-20.698,4.852-31.066c0.411-2.763,0.526-5.682,0.117-8.431
		c-0.769-5.171-4.603-6.665-7.917-2.713c-3.46,4.123-6.288,8.999-8.428,13.961c-5.409,12.538-13.23,23.09-24.104,31.292
		c-8.38,6.32-13.079,6.386-21.764,0.604c-2.482-1.652-4.87-3.531-6.991-5.623c-4.795-4.731-9.948-5.541-15.855-2.262
		c-11.314,6.281-23.633,8.891-36.418,9.386c-9.322,0.36-18.688,0.481-27.309-4.078c-3.883-2.053-6.54-0.526-7.933,3.142
		c-3.953,10.411-7.751,20.884-11.508,31.368c-5.161,14.401-9.921,28.96-15.551,43.174c-1.432,3.616-4.973,7.245-8.479,8.999
		c-5.658,2.829-9.688,0.192-9.775-6.139c-0.08-5.752,0.547-11.714,2.065-17.253c6.238-22.777,13.197-45.357,19.378-68.149
		c4.482-16.527,8.21-33.26,12.135-49.935C425.404,447.896,425.234,445.208,425.453,442.079z M772.302,433.209
		c0.408,2.874,0.55,6.915,1.626,10.69c1.269,4.46,4.444,5.12,7.217,1.465c3.397-4.482,6.554-9.245,9.133-14.239
		c16.449-31.83,29.547-65.031,39.626-99.396c1.902-6.482,3.151-13.304,3.477-20.028c0.139-2.881-2.857-5.912-4.428-8.876
		c-2.678,1.57-6.25,2.514-7.874,4.825c-5.819,8.286-11.381,16.812-16.317,25.652C787.579,364.089,775.706,396.665,772.302,433.209z
		 M856.177,432.91c1.053,2.05,2.111,4.107,3.171,6.167c1.949-1.015,4.008-1.87,5.811-3.1c1.202-0.82,2.141-2.1,3.03-3.298
		c21.866-29.459,39.661-61.092,50.894-96.161c1.456-4.548,2.341-9.383,2.703-14.146c0.327-4.282-2.127-5.603-5.636-3.076
		c-3.332,2.4-6.437,5.322-9.031,8.511c-21.286,26.146-35.875,55.896-46.521,87.688C858.765,420.976,857.725,426.722,856.177,432.91z
		 M331.488,311.335c0.206-2.652,0.24-7.358-0.252-7.429c0.255-8.896-1.426-17.261-6.92-24.482
		c-4.73-6.215-11.364-6.344-18.096-4.932c-7.236,1.519-11.294,5.693-11.842,12.333c-0.395,4.767-0.599,9.766,0.381,14.393
		c3.689,17.409,10.783,33.483,20.726,48.234c1.363,2.022,3.838,3.298,5.799,4.919c1.33-2.217,3.416-4.292,3.864-6.675
		C327.877,333.209,329.009,325.868,331.488,311.335z M318.404,445.588c0.315,0.013-4.416,0.201-4.98,0.219
		c-4.427,0.358-3.658,0.668-7.976,0.73c-11.241,0.16-18.946,6.15-24.947,15.025c-4.139,6.121-3.979,9.766,2.597,13.03
		c8.245,4.095,16.945,7.714,25.849,9.934c10.345,2.579,19.754-0.769,25.488-10.192c3.572-5.868,6.083-12.499,8.276-19.052
		c1.922-5.74-0.25-8.413-6.388-8.897C330.366,445.915,324.378,445.838,318.404,445.588z M462.822,427.78
		c-5.641,0.11-10.06,2.606-12.399,7.677c-5.692,12.343-8.737,25.405-9.43,38.946c-0.343,6.725,2.635,8.794,8.602,5.633
		c12.181-6.453,21.77-15.929,27.901-28.26C482.137,442.441,472.635,427.589,462.822,427.78z M324.801,426.185
		c3.821-0.377,7.34-0.439,10.731-1.131c4.088-0.831,6.25-3.495,4.273-7.631c-2.484-5.195-5.099-10.408-8.357-15.129
		c-2.88-4.172-6.504-4.128-9.23,0.187c-3.604,5.703-6.554,11.853-9.401,17.987c-1.594,3.433,0.189,5.352,3.891,5.469
		C319.523,426.025,322.341,426.109,324.801,426.185z M703.843,443.495c-0.057-4.14-2.521-5.761-6.478-4.104
		c-6.684,2.8-9.881,8.626-11.715,15.134c-0.573,2.031-0.05,6.14,0.957,6.493c2.285,0.803,5.812,0.776,7.713-0.538
		C700.172,456.438,703.089,450.333,703.843,443.495z"/>
	<path fill-rule="evenodd" clip-rule="evenodd" d="M-308.835,384.812c-1.704-6.28-3.229-12.616-5.144-18.831
		c-7.854-25.501-16.064-50.892-23.642-76.473c-3.161-10.675-5.109-21.633-3.846-33.037c1.177-10.643,17.086-30.83,29.765-31.113
		c7.75-0.174,15.59-0.297,21.918,5.231c22.336,19.51,44.652,39.047,66.799,58.773c3.346,2.979,6.046,6.83,8.534,10.619
		c3.471,5.283,8.015,7.809,14.302,7.816c17.897,0.024,34.812-4.944,51.746-9.915c5.473-1.607,10.945-3.269,16.502-4.523
		c6.852-1.549,12.548,2.475,14.574,9.873c1.728,6.313-1.264,12.441-8.138,14.052c-12.084,2.827-24.367,4.793-36.566,7.123
		c-7.916,1.511-15.846,2.955-23.737,4.588c-2.075,0.43-4.029,1.45-6.774,2.473c2.793,6.187,4.945,12.228,8.098,17.683
		c7.647,13.235,10.814,27.491,11.48,42.619c0.958,21.754-0.125,43.288-5.692,64.407c-1.457,5.53-3.572,10.891-5.477,16.295
		c-4.863,13.79-15.257,19.772-29.124,19.812c-23.503,0.067-43.566-8.427-59.818-25.736c-2.65-2.821-5.291-5.744-8.365-8.037
		c-1.839-1.37-4.964-2.727-6.678-2.025c-1.587,0.648-2.382,4.083-2.9,6.23c-3.472,14.358-6.513,21.369-14.69,29.023
		c-11.281,10.56-24.878,9.159-37.805,3.825c-16.376-6.758-24.716-20.821-29.272-37.239c-5.441-19.608-3.824-38.518,7.098-56.103
		c5.421-8.728,13.234-14.761,22.215-19.312c5.629-2.853,11.399-1.518,17.18-0.053c5.311,1.348,10.724,2.287,16.091,3.405
		C-309.747,385.779-309.291,385.296-308.835,384.812z M-193.272,393.183c-0.58-17.245-5.071-33.598-11.585-49.507
		c-5.318-12.99-5.205-13.036-19.379-12.496c-0.84,0.031-1.678,0.076-2.518,0.09c-23.144,0.354-46.343,1.588-68.68-6.854
		c-3.189-1.206-7.05-0.606-10.6-0.842c0.487,3.543,0.257,7.384,1.575,10.58c8.05,19.513,12.637,39.869,15.336,60.715
		c2.396,18.497,8.083,35.469,21.176,49.364c11.677,12.392,23.886,23.927,41.134,27.794c12.143,2.723,17.421-0.123,22.296-11.506
		C-195.308,439.026-191.762,416.55-193.272,393.183z M-227.306,311.252c-2.384-3.37-3.749-5.833-5.602-7.839
		c-20.227-21.89-42.942-40.915-66.767-58.666c-3.206-2.388-6.113-2.062-9.177,0.156c-9.275,6.712-15.082,22.216-12.499,33.477
		c3.501,15.262,13.977,23.458,28.152,27.385c18.065,5.004,36.562,7.133,55.291,6.918
		C-234.827,312.648-231.756,311.876-227.306,311.252z M-358.644,445.917c0.637,13.712,7.216,24.256,17.438,32.45
		c10.15,8.135,20.013,6.052,25.633-5.694c3.666-7.659,5.812-16.072,8.46-24.205c5.509-16.92-0.889-30.337-12.612-42.025
		c-7.08-7.059-14.189-7.403-21.205-0.473C-351.986,416.893-358.609,430.011-358.644,445.917z"/>
	<path fill-rule="evenodd" clip-rule="evenodd" d="M-60.006,446.812c0.717,11.803,1.242,23.62,2.219,35.401
		c0.629,7.577,5.334,10.375,11.763,6.21c5.497-3.562,10.621-8.38,14.474-13.697c8.342-11.513,14.142-24.457,18.603-38.047
		c2.04-6.213,4.765-12.293,7.938-18.005c3.85-6.933,9.145-8.265,16.239-4.756c9.616,4.756,16.612,12.458,22.845,21.012
		c1.218,1.67,3.03,2.901,4.569,4.335c1.271-1.685,2.898-3.206,3.748-5.084c3.263-7.209,5.762-14.816,9.506-21.748
		c5.28-9.776,11.813-11.023,20.662-4.231c13.839,10.622,20.888,25.229,23.41,42.301c0.836,5.668,1.225,11.489,2.832,16.939
		c3.008,10.197,10.244,15.485,20.764,16.246c4.342,0.313,8.795,0.1,13.005,1.021c7.797,1.704,9.985,8.161,5.201,14.609
		c-4.859,6.547-11.62,9.394-19.49,7.982c-23.229-4.17-37.332-16.625-40.582-39.966c-1.233-8.859-2.169-17.765-3.645-26.581
		c-0.626-3.74-1.771-8.985-6.131-8.611c-2.721,0.233-6.077,4.468-7.405,7.646c-6.909,16.548-8.918,34.223-10.431,51.92
		c-0.798,9.334-7.27,14.213-15.766,10.576c-2.175-0.933-3.853-4.92-4.292-7.736c-1.278-8.174-1.087-16.624-2.829-24.669
		c-1.984-9.17-5.105-18.146-8.429-26.939c-1.048-2.773-3.387-7.179-6.602-6.995c-3.062,0.175-4.318,4.607-5.56,7.335
		c-2.368,5.201-4.101,10.698-6.025,16.099c-6.131,17.206-15.419,32.281-29.751,43.77c-11.166,8.949-23.716,9.218-35.221,0.703
		c-4.948-3.662-9.897-3.63-15.216-1.823c-5.242,1.78-10.311,4.23-15.666,5.484c-13.69,3.21-25.209-1.778-34.859-11.22
		c-22.195-21.717-18.575-65.831,6.662-83.854c14.409-10.29,31.15-9.354,46.457,2.988c4.568,3.684,8.63,8.044,12.682,12.325
		C-59.299,433.064-58.833,439.869-60.006,446.812z M-82.222,449.577c-1.187-5.881-1.562-10.514-3.091-14.722
		c-2.931-8.074-10.415-10.964-17.915-7.515c-16.273,7.484-25.822,33.226-18.383,49.554c3.868,8.486,11.258,13.379,18.851,12.48
		c9.493-1.123,16.117-6.868,17.81-16.533C-83.533,464.756-83.004,456.51-82.222,449.577z"/>
	<path fill-rule="evenodd" clip-rule="evenodd" d="M972.566,355.391c1.357-4.017,2.092-8.406,4.216-11.965
		c3.457-5.791,11.7-6.01,14.835-0.117c2.366,4.449,3.586,10.016,3.587,15.085c-0.001,5.889-5.237,8.613-12.629,7.941
		C976.216,365.758,973.433,362.52,972.566,355.391z"/>
	<path fill-rule="evenodd" clip-rule="evenodd" d="M575.719,354.619c-0.038,6.653-3.385,10.739-8.671,10.585
		c-6.885-0.202-13.169-7.189-13.108-14.577c0.054-6.474,3.958-10.338,10.313-10.205
		C571.237,340.567,575.769,346.177,575.719,354.619z"/>
	<path fill-rule="evenodd" clip-rule="evenodd" fill="none" d="M786.701,437.65c4.1-36.472,16.592-68.816,34.357-99.271
		c5.104-8.744,10.826-17.162,16.803-25.336c1.668-2.28,5.258-3.155,7.965-4.675c1.514,2.993,4.451,6.081,4.258,8.959
		c-0.453,6.717-1.832,13.514-3.857,19.958c-10.732,34.167-24.461,67.112-41.514,98.624c-2.674,4.943-5.92,9.646-9.402,14.062
		c-2.842,3.602-6.004,2.881-7.188-1.603C787.119,444.575,787.055,440.532,786.701,437.65z"/>
	<path fill-rule="evenodd" clip-rule="evenodd" fill="none" d="M870.566,438.95c1.666-6.157,2.814-11.883,4.752-17.326
		c11.25-31.585,26.402-61.051,48.184-86.786c2.654-3.139,5.814-6.001,9.191-8.337c3.557-2.459,5.984-1.093,5.576,3.183
		c-0.453,4.755-1.43,9.572-2.973,14.092c-11.898,34.849-30.293,66.137-52.717,95.174c-0.912,1.181-1.875,2.442-3.092,3.239
		c-1.826,1.195-3.9,2.011-5.869,2.988C872.6,443.098,871.58,441.02,870.566,438.95z"/>
	<path fill-rule="evenodd" clip-rule="evenodd" fill="none" d="M347.83,309.847c-2.756,14.483-3.567,19.353-6.571,33.784
		c-0.494,2.374-2.619,4.409-3.991,6.601c-1.93-1.658-4.38-2.98-5.704-5.029c-9.66-14.938-16.446-31.144-19.803-48.62
		c-0.892-4.645-0.592-9.639-0.106-14.397c0.675-6.628,4.812-10.724,12.075-12.104c6.757-1.283,13.388-1.028,17.998,5.276
		c5.355,7.324,6.877,15.721,6.452,24.609C348.67,300.046,347.34,309.767,347.83,309.847z"/>
	<path fill-rule="evenodd" clip-rule="evenodd" fill="none" d="M332.649,441.378c5.969,0.363,11.954,0.555,17.901,1.138
		c6.127,0.602,8.248,3.315,6.217,9.018c-2.318,6.51-4.955,13.092-8.638,18.891c-5.912,9.312-15.384,12.48-25.678,9.705
		c-8.86-2.39-17.489-6.174-25.655-10.425c-6.513-3.39-6.603-7.036-2.348-13.077c6.169-8.759,13.986-14.602,25.229-14.548
		c4.318,0.021,4.879-0.701,9.197-0.701C330.083,441.257,331.541,441.311,332.649,441.378z"/>
	<path fill-rule="evenodd" clip-rule="evenodd" fill="none" d="M477.381,426.325c9.814-0.004,19.032,15.026,14.214,24.271
		c-6.365,12.212-16.133,21.503-28.435,27.723c-6.026,3.047-8.964,0.921-8.492-5.796c0.95-13.525,4.243-26.527,10.17-38.759
		C467.273,428.739,471.739,426.328,477.381,426.325z"/>
	<path fill-rule="evenodd" clip-rule="evenodd" fill="none" d="M339.415,422.1c-2.458-0.122-5.273-0.26-8.087-0.402
		c-3.699-0.188-5.445-2.141-3.786-5.542c2.964-6.079,6.03-12.171,9.742-17.805c2.809-4.262,6.433-4.236,9.232-0.011
		c3.168,4.782,5.683,10.044,8.067,15.285c1.898,4.173-0.314,6.795-4.418,7.549C346.763,421.8,343.243,421.796,339.415,422.1z"/>
	<path fill-rule="evenodd" clip-rule="evenodd" fill="none" d="M718.059,446.631c-0.884,6.822-3.917,12.87-9.845,16.801
		c-1.925,1.277-5.452,1.236-7.722,0.391c-1-0.373-1.445-4.49-0.833-6.511c1.958-6.472,5.266-12.235,12.001-14.907
		C715.648,440.822,718.081,442.49,718.059,446.631z"/>
	<path fill-rule="evenodd" clip-rule="evenodd" fill="none" d="M-193.272,393.183c1.511,23.367-2.036,45.844-11.245,67.338
		c-4.875,11.383-10.153,14.229-22.296,11.506c-17.248-3.867-29.457-15.402-41.134-27.794
		c-13.093-13.896-18.781-30.867-21.176-49.364c-2.699-20.846-7.286-41.202-15.336-60.715c-1.318-3.196-1.088-7.037-1.575-10.58
		c3.55,0.235,7.411-0.364,10.6,0.842c22.337,8.442,45.536,7.208,68.68,6.854c0.84-0.014,1.678-0.059,2.518-0.09
		c14.174-0.54,14.062-0.494,19.379,12.496C-198.344,359.585-193.853,375.938-193.272,393.183z"/>
	<path fill-rule="evenodd" clip-rule="evenodd" fill="none" d="M-227.306,311.252c-4.45,0.624-7.521,1.396-10.602,1.431
		c-18.729,0.215-37.226-1.914-55.291-6.918c-14.175-3.927-24.651-12.123-28.152-27.385c-2.583-11.261,3.223-26.765,12.499-33.477
		c3.064-2.218,5.971-2.544,9.177-0.156c23.825,17.75,46.54,36.776,66.767,58.666C-231.055,305.419-229.69,307.882-227.306,311.252z"
		/>
	<path fill-rule="evenodd" clip-rule="evenodd" fill="none" d="M-358.644,445.917c0.034-15.906,6.658-29.024,17.714-39.947
		c7.016-6.931,14.125-6.586,21.205,0.473c11.723,11.688,18.122,25.105,12.612,42.025c-2.648,8.133-4.794,16.546-8.46,24.205
		c-5.621,11.746-15.483,13.829-25.633,5.694C-351.428,470.173-358.007,459.629-358.644,445.917z"/>
	<path fill-rule="evenodd" clip-rule="evenodd" fill="none" d="M-82.222,449.577c-0.782,6.933-1.311,15.179-2.728,23.265
		c-1.693,9.665-8.317,15.41-17.81,16.533c-7.593,0.898-14.983-3.994-18.851-12.48c-7.439-16.328,2.11-42.069,18.383-49.554
		c7.5-3.449,14.984-0.56,17.915,7.515C-83.784,439.063-83.409,443.696-82.222,449.577z"/>
</g>
</svg>
