<?xml version="1.0" encoding="utf-8"?>
<!-- Generator: Adobe Illustrator 16.0.4, SVG Export Plug-In . SVG Version: 6.00 Build 0)  -->
<!DOCTYPE svg PUBLIC "-//W3C//DTD SVG 1.1//EN" "http://www.w3.org/Graphics/SVG/1.1/DTD/svg11.dtd">
<svg version="1.1" id="Layer_1" xmlns="http://www.w3.org/2000/svg" xmlns:xlink="http://www.w3.org/1999/xlink" x="0px" y="0px"
	 width="860px" height="378.318px" viewBox="327 31.182 860 378.318" enable-background="new 327 31.182 860 378.318"
	 xml:space="preserve">
<title>Artboard 4</title>
<g>
	<path fill="none" d="M579.59,216.719c3.917-5.886,16.423-8.889,20.946-5.788c2.752,1.886,2.919,4.796-0.065,6.079
		c-4.56,1.963-5.18,5.232-5.522,9.52c-0.286,3.576-1.816,7.059-2.82,10.575c-0.954,3.343-2.25,6.624-2.844,10.028
		c-1.024,5.873,1.013,8.543,6.847,9.764c5.882,1.232,10.272-1.455,14.222-5.385c6.106-6.074,6.124-6.057,12.97-1.033
		c5.624,4.127,13.386,2.775,16.902-2.648c8.525-13.145,22.105-18.564,36.164-23.049c3.521-1.121,5.721,0.447,5.351,4.509
		c-0.399,4.37-1.065,8.737-1.126,13.112c-0.074,5.188,0.356,10.514,5.596,13.453c5.657,3.174,11.086,1.248,16.085-1.76
		c1.488-0.896,2.764-2.93,3.068-4.633c0.129-0.719-2.383-2.486-3.904-2.82c-5.295-1.166-6.874-4.418-5.793-9.297
		c0.99-4.465,2.378-8.844,3.311-13.317c0.642-3.082,2.342-4.074,5.325-4.216c9.514-0.447,19.023-1.654,28.525-1.572
		c18.133,0.153,36.272,0.731,54.383,1.668c8.419,0.434,10.125,3.95,4.493,10.152c-4.788,5.273-10.925,9.889-17.333,13.02
		c-18.105,8.848-36.614,16.877-55.04,25.059c-68.029,30.213-136.139,60.25-200.927,97.166c-3.171,1.809-6.515,3.373-9.909,4.723
		c-4.598,1.828-9.009,2.561-10.061-5.105c-12.147,4.635-20.242,12.588-24.926,23.822c-2.724,6.531,0.744,10.281,7.605,8.188
		c4.818-1.471,9.279-4.24,13.753-6.693c59.35-32.553,120.018-62.461,181.777-90.137c30.434-13.639,61.219-26.494,91.763-39.896
		c4.188-1.838,6.908-0.951,9.352,2.453c1.07,1.49,1.994,3.129,3.27,4.414c3.276,3.307,2.902,6.1,0.188,9.865
		c-14.836,20.572-27.61,42.375-36.635,66.141c-2.768,7.285-4.327,15.09-5.799,22.777c-0.758,3.955,1.352,7.105,5.736,8.039
		c4.257,0.902,7.674,0.008,9.422-4.395c1.081-2.719,2.204-5.432,3.08-8.219c3.133-9.957,4.852-20.609,9.499-29.787
		c11.232-22.18,23.917-43.623,35.794-65.482c4.168-7.674,9.528-13.52,17.965-16.623c4.773-1.758,9.163-4.607,13.635-7.125
		c20.964-11.809,41.491-24.229,59.113-40.914c1.609-1.525,4.791-1.388,7.243-2.021c-0.502,2.18-0.51,4.651-1.59,6.491
		c-6.58,11.214-13.486,22.235-20.112,33.423c-2.889,4.875-5.653,9.867-7.96,15.037c-2.116,4.736-0.788,6.703,4.301,7.641
		c4.952,0.912,8.557-0.955,10.925-5.375c10.978-20.49,21.969-40.973,32.952-61.46c0.258-0.483,0.491-0.984,0.69-1.496
		c1.167-2.998,0.774-5.357-2.618-6.568c-4.136-1.477-8.174-3.296-12.395-4.46c-11.985-3.305-23.892-8.212-36.562-6.288
		c-7.282,1.106-11.825-0.4-15.132-7.069c-2.224-4.487-6.396-6.166-11.137-3.64c-6.074,3.234-10.915,8.102-11.628,15.065
		c-0.542,5.286-3.223,8.172-6.948,11.082c-4.605,3.598-9.38,7.148-13.263,11.457c-3.673,4.079-7.597,5.83-12.972,5.592
		c-18.13-0.807-36.264-1.686-54.405-1.957c-9.867-0.147-19.746,1.037-29.629,1.32c-6.861,0.196-8.084-1.438-6.875-8.252
		c0.768-4.331,1.36-8.753,2.751-12.893c0.976-2.903,2.587-6.132,4.904-7.957c13.976-11.011,28.209-21.696,42.408-32.423
		c38.082-28.77,76.978-56.325,118.789-79.536c3.353-1.861,6.414-4.25,9.61-6.395c3.804-2.554,3.27-5.161,0.266-8.03
		c-4.818-4.602-8.833-4.671-14.777-1.113c-8.591,5.141-17.479,9.784-26.2,14.708c-2.859,1.612-5.806,3.177-8.351,5.214
		c-7.398,5.923-14.396,12.363-21.938,18.089c-37.692,28.614-75.506,57.071-113.288,85.567c-7.759,5.854-15.612,11.584-23.331,17.491
		c-3.257,2.493-6.075,2.243-9.406-0.015c-9.283-6.295-12.298-5.167-15.521,5.371c-0.322,1.053-0.421,2.248-0.997,3.135
		c-3.545,5.464-6.548,11.487-11.006,16.092c-4.095,4.229-9.713,7.031-14.815,10.214c-3.696,2.306-7.539,4.452-11.54,6.144
		c-1.342,0.568-3.765-0.018-4.936-0.988c-0.674-0.562-0.252-3.156,0.4-4.477c2.838-5.74,5.988-11.324,8.933-17.012
		c2.351-4.545,4.963-9.014,6.737-13.784c1.824-4.909,0.049-7.612-4.883-9.147c-6.782-2.109-10.875-0.819-14.321,5.468
		c-2.882,5.258-6.419,7.068-12.112,4.682c-5.134-2.153-10.136-1.2-14.678,1.787c-2.899,1.906-5.87,3.864-8.285,6.315
		c-12.869,13.054-25.721,26.13-38.237,39.519c-3.571,3.82-6.375,8.506-8.859,13.154c-3.383,6.334-0.438,10.645,6.801,10.914
		c6.64,0.246,12.293-2.314,17.084-6.475c9.681-8.41,19.422-16.799,28.475-25.857c5.996-6.002,10.84-13.156,16.676-20.385
		C587.471,217.048,583.86,216.897,579.59,216.719z M371.263,108.276c0.873-0.388,1.776-0.566,2.383-1.091
		c12.967-11.217,28.274-18.219,43.981-24.506c34.069-13.639,69.648-21.17,105.855-26.151c4.854-0.667,6.244,0.723,4.883,5.484
		c-1.86,6.507-3.747,13.06-6.33,19.3c-23.01,55.583-49.951,109.181-81.319,160.543c-5.013,8.207-11.541,14.611-19.77,19.416
		c-8.392,4.9-16.862,9.67-25.153,14.734c-15.958,9.748-31.884,19.557-47.678,29.568c-5.816,3.688-6.792,7.316-4.213,13.381
		c2.789-1.232,5.787-2.127,8.325-3.742c17.63-11.223,35.149-22.619,52.744-33.896c3.074-1.971,6.242-3.859,9.562-5.35
		c1.225-0.549,3.015,0.158,4.547,0.291c-0.337,1.326-0.374,2.836-1.059,3.945c-6.346,10.283-12.78,20.512-19.233,30.727
		c-7.237,11.453-14.603,22.826-21.684,34.375c-0.912,1.486-0.452,3.814-0.626,5.75c2.399-0.086,5.245,0.605,7.087-0.451
		c2.41-1.383,4.341-3.938,5.939-6.348c13.456-20.293,27.908-40.039,39.825-61.207c10.711-19.029,25.378-31.82,44.301-42.383
		c48.969-27.335,97.465-55.601,145.203-85.031c31.776-19.59,60.226-43.674,83.029-73.807c8.581-11.339,6.603-18.803-7.021-26.09
		c-1.436-0.768-3.059-1.227-4.642-1.667c-30.591-8.502-61.834-12.086-93.513-11.975c-14.283,0.05-28.563,0.842-42.845,0.873
		c-3.642,0.007-7.817-0.76-10.817-2.65c-5.66-3.567-7.568-3.403-11.792,1.777c-1.971,2.42-5.167,4.795-8.127,5.297
		c-16.575,2.807-33.336,4.552-49.869,7.565c-31.747,5.785-61.919,16.44-90.53,31.362C372.229,91.786,369.951,96.552,371.263,108.276
		z M1033.809,239.018c0.475,0.393,0.947,0.783,1.421,1.176c-0.757,6.014-4.419,10.766-7.702,15.658
		c-3.359,5.004-7.056,9.799-10.17,14.945c-2.183,3.609-2.346,7.238,2.125,9.842c4.263,2.482,7.587,2.01,10.234-2.266
		c1.637-2.641,3.505-5.156,4.959-7.893c13.473-25.379,27.106-50.676,40.242-76.229c13.972-27.183,27.522-54.582,41.092-81.968
		c2.878-5.812,1.687-9.042-3.132-11.329c-4.622-2.193-7.279-1.061-10.107,4.923c-7.434,15.717-14.34,31.692-22.142,47.221
		c-12.239,24.361-24.967,48.481-37.726,72.575c-1.212,2.29-3.837,4.533-6.287,5.346c-10.713,3.553-21.623,6.506-32.419,9.814
		c-3.845,1.18-7.482,3.158-11.382,4.006c-2.791,0.605-5.858-0.064-8.803-0.164c0.657-3.186,0.384-7.091,2.17-9.404
		c3.65-4.723,7.953-9.234,12.81-12.669c9.256-6.545,19.313-11.953,28.605-18.45c6.535-4.568,12.814-9.715,18.344-15.438
		c4.115-4.258,2.168-8.475-3.467-10.324c-5.323-1.748-10.367-1.123-14.52,2.399c-15.768,13.371-31.581,26.705-46.871,40.608
		c-6.547,5.954-9.446,14.3-9.862,23.247c-0.352,7.545,2.534,11.277,10.011,12.49c3.012,0.492,6.411,0.834,9.217-0.064
		c8.504-2.721,16.899-5.848,25.152-9.264C1021.818,245.234,1027.752,241.973,1033.809,239.018z M1155.74,109.18
		c0.221-1.633,0.549-3.261,0.643-4.901c0.243-4.239-1.847-6.947-5.783-8.286c-5.316-1.807-9.626-0.108-13.361,3.804
		c-2.695,2.821-2.354,5.396-0.851,8.925c1.409,3.307,2.035,7.537,1.332,11.024c-1.292,6.414-3.049,12.962-5.945,18.79
		c-21.92,44.084-44.164,88.007-66.304,131.982c-1.151,2.287-2.479,4.512-3.361,6.898c-1.611,4.357,0.458,8.516,4.791,10.162
		c6.074,2.307,10.355-0.502,13.045-6.988c9.179-22.125,18.219-44.334,28.332-66.037c8.417-18.066,18.611-35.298,27.384-53.21
		C1143.87,144.577,1151.698,127.577,1155.74,109.18z M974.122,194.735c-1.024-1.93-1.905-6.321-4.49-7.867
		c-4.681-2.8-10.262-2.801-14.638,1.729c-16.415,16.996-32.825,33.995-49.174,51.053c-2.368,2.471-4.15,5.184-1.047,8.598
		c3.189,3.508,7.173,4.885,10.607,1.691c5.582-5.193,10.612-11.043,15.429-16.977c5.184-6.389,9.799-13.235,14.787-19.787
		c1.194-1.57,2.673-3.289,4.404-3.98c1.635-0.648,3.915-0.405,5.609,0.24c0.546,0.207,0.666,3.183,0.066,4.464
		c-2.553,5.459-5.484,10.739-8.213,16.118c-2.891,5.702-5.837,11.383-8.505,17.188c-1.463,3.188-1.887,6.719,2.089,8.477
		c3.979,1.76,7.716,0.881,9.962-3.107C960.949,234.931,967.865,216.066,974.122,194.735z M1108.369,248.93
		c4.699,0.551,11.027-4.398,13.85-10.143c3.859-7.854,8.097-15.521,12.2-23.255c2.055-3.876,4.288-7.661,6.226-11.592
		c2.091-4.243,0.343-8.138-3.309-9.716c-1.847-0.798-6.414,1.044-7.617,3.003c-8.896,14.484-17.416,29.21-25.684,44.065
		C1101.642,245.59,1103.622,248.375,1108.369,248.93z M934.076,142.164c-3.856,1.186-7.716,1.26-9.134,3.159
		c-1.145,1.532,0.176,5.479,1.28,7.963c1.23,2.767,3.195,5.34,5.309,7.549c2.967,3.102,6.753,2.906,8.854-0.594
		c1.808-3.01,3.699-7.582,2.62-10.295C941.73,146.74,937.302,144.791,934.076,142.164z M1167.016,135.21
		c-5.8-0.854-9.467,0.864-10.142,4.752c-0.764,4.392,3.481,8.908,9.132,9.716c4.943,0.707,10.579-2.401,10.945-6.035
		C1177.33,139.87,1172.852,136.069,1167.016,135.21z"/>
	<path fill-rule="evenodd" clip-rule="evenodd" d="M579.59,216.719c4.27,0.179,7.881,0.329,12.674,0.529
		c-5.836,7.229-10.68,14.383-16.676,20.385c-9.053,9.059-18.794,17.447-28.475,25.857c-4.792,4.16-10.445,6.721-17.084,6.475
		c-7.239-0.27-10.184-4.58-6.801-10.914c2.484-4.648,5.288-9.334,8.859-13.154c12.516-13.389,25.368-26.465,38.237-39.519
		c2.416-2.451,5.386-4.409,8.285-6.315c4.542-2.987,9.544-3.94,14.678-1.787c5.692,2.387,9.23,0.576,12.112-4.682
		c3.446-6.287,7.539-7.577,14.321-5.468c4.932,1.535,6.707,4.238,4.883,9.147c-1.773,4.77-4.386,9.239-6.737,13.784
		c-2.944,5.688-6.094,11.271-8.933,17.012c-0.652,1.32-1.074,3.914-0.4,4.477c1.17,0.971,3.594,1.557,4.936,0.988
		c4.001-1.691,7.844-3.838,11.54-6.144c5.103-3.183,10.721-5.985,14.815-10.214c4.458-4.604,7.46-10.628,11.006-16.092
		c0.576-0.887,0.675-2.082,0.997-3.135c3.223-10.538,6.238-11.666,15.521-5.371c3.331,2.258,6.149,2.508,9.406,0.015
		c7.719-5.907,15.572-11.637,23.331-17.491c37.782-28.496,75.596-56.953,113.288-85.567c7.543-5.726,14.54-12.166,21.938-18.089
		c2.545-2.037,5.491-3.602,8.351-5.214c8.722-4.924,17.609-9.566,26.2-14.708c5.944-3.558,9.959-3.489,14.777,1.113
		c3.004,2.869,3.538,5.476-0.266,8.03c-3.196,2.146-6.258,4.534-9.61,6.395c-41.812,23.211-80.707,50.766-118.789,79.536
		c-14.199,10.727-28.433,21.412-42.408,32.423c-2.317,1.825-3.929,5.054-4.904,7.957c-1.391,4.14-1.983,8.562-2.751,12.893
		c-1.209,6.814,0.014,8.448,6.875,8.252c9.883-0.283,19.762-1.468,29.629-1.32c18.142,0.271,36.275,1.15,54.405,1.957
		c5.375,0.238,9.299-1.513,12.972-5.592c3.883-4.309,8.657-7.859,13.263-11.457c3.726-2.91,6.406-5.795,6.948-11.082
		c0.713-6.963,5.554-11.831,11.628-15.065c4.741-2.526,8.913-0.848,11.137,3.64c3.307,6.668,7.85,8.175,15.132,7.069
		c12.671-1.924,24.577,2.983,36.562,6.288c4.221,1.164,8.259,2.983,12.395,4.46c3.393,1.211,3.785,3.571,2.618,6.568
		c-0.199,0.511-0.433,1.012-0.69,1.496c-10.983,20.488-21.975,40.97-32.952,61.46c-2.368,4.42-5.973,6.287-10.925,5.375
		c-5.089-0.938-6.417-2.904-4.301-7.641c2.307-5.17,5.071-10.162,7.96-15.037c6.626-11.188,13.532-22.209,20.112-33.423
		c1.08-1.84,1.088-4.312,1.59-6.491c-2.452,0.634-5.634,0.496-7.243,2.021c-17.622,16.686-38.149,29.105-59.113,40.914
		c-4.472,2.518-8.861,5.367-13.635,7.125c-8.437,3.104-13.797,8.949-17.965,16.623c-11.877,21.859-24.562,43.303-35.794,65.482
		c-4.647,9.178-6.366,19.83-9.499,29.787c-0.876,2.787-1.999,5.5-3.08,8.219c-1.748,4.402-5.165,5.297-9.422,4.395
		c-4.385-0.934-6.494-4.084-5.736-8.039c1.472-7.688,3.031-15.492,5.799-22.777c9.024-23.766,21.799-45.568,36.635-66.141
		c2.714-3.766,3.088-6.559-0.188-9.865c-1.275-1.285-2.199-2.924-3.27-4.414c-2.443-3.404-5.164-4.291-9.352-2.453
		c-30.544,13.402-61.329,26.258-91.763,39.896c-61.759,27.676-122.427,57.584-181.777,90.137c-4.474,2.453-8.935,5.223-13.753,6.693
		c-6.861,2.094-10.329-1.656-7.605-8.188c4.684-11.234,12.778-19.188,24.926-23.822c1.052,7.666,5.463,6.934,10.061,5.105
		c3.394-1.35,6.738-2.914,9.909-4.723c64.788-36.916,132.898-66.953,200.927-97.166c18.426-8.182,36.935-16.211,55.04-25.059
		c6.408-3.131,12.545-7.746,17.333-13.02c5.632-6.202,3.926-9.719-4.493-10.152c-18.11-0.937-36.25-1.515-54.383-1.668
		c-9.502-0.082-19.012,1.125-28.525,1.572c-2.983,0.142-4.684,1.134-5.325,4.216c-0.933,4.474-2.321,8.853-3.311,13.317
		c-1.081,4.879,0.498,8.131,5.793,9.297c1.521,0.334,4.033,2.102,3.904,2.82c-0.305,1.703-1.58,3.736-3.068,4.633
		c-4.999,3.008-10.428,4.934-16.085,1.76c-5.239-2.939-5.669-8.266-5.596-13.453c0.061-4.375,0.727-8.742,1.126-13.112
		c0.371-4.062-1.83-5.63-5.351-4.509c-14.059,4.484-27.639,9.904-36.164,23.049c-3.516,5.424-11.278,6.775-16.902,2.648
		c-6.846-5.023-6.864-5.041-12.97,1.033c-3.95,3.93-8.34,6.617-14.222,5.385c-5.834-1.221-7.872-3.891-6.847-9.764
		c0.594-3.404,1.89-6.686,2.844-10.028c1.003-3.517,2.534-6.999,2.82-10.575c0.342-4.287,0.962-7.557,5.522-9.52
		c2.985-1.283,2.817-4.193,0.065-6.079C596.013,207.83,583.507,210.833,579.59,216.719z M881.285,186.357
		c-7.616,0.938-15.073,1.647-22.456,2.818c-10.12,1.605-19.068,4.66-22.493,16.206c-1.3,4.38-4.942,8.052-7.437,12.097
		c-2.202,3.572-4.541,7.097-6.32,10.879c-0.797,1.691-0.368,3.955-0.496,5.961c2.003-0.16,4.515,0.404,5.931-0.588
		c18.574-13.041,37.018-26.269,55.403-39.573c1.287-0.931,2.941-3.392,2.539-4.183C885.184,188.455,883.058,187.624,881.285,186.357
		z M785.85,256.201c4.726,3.113,7.33,1.451,8.811-1.629c2.849-5.93,7.571-9.646,13.022-12.916c2.06-1.236,4.503-3.35,4.962-5.456
		c1.439-6.612,2.016-13.412,3.055-21.076c-7.332,4.847-12.009,9.71-14.125,17.487c-1.414,5.205-5.401,9.764-8.508,14.432
		C791.001,250.145,788.457,252.928,785.85,256.201z M691.906,206.4c-1.004-0.863-2.576-3.215-4.631-3.77
		c-4.167-1.123-11.439,4.082-10.721,7.739c0.42,2.141,3.208,4.729,5.445,5.399C686.08,216.99,691.297,212.438,691.906,206.4z
		 M661.08,215.271c6.56-0.357,11.749-3.253,10.816-6.199c-0.521-1.645-3.129-3.477-4.968-3.681
		C662.95,204.949,660.497,209.309,661.08,215.271z"/>
	<path fill-rule="evenodd" clip-rule="evenodd" d="M371.263,108.276c-1.312-11.724,0.965-16.49,11.443-21.956
		c28.611-14.922,58.783-25.577,90.53-31.362c16.533-3.013,33.294-4.758,49.869-7.565c2.961-0.502,6.156-2.876,8.127-5.297
		c4.223-5.18,6.132-5.345,11.792-1.777c3,1.89,7.175,2.657,10.817,2.65c14.282-0.031,28.562-0.822,42.845-0.873
		c31.679-0.111,62.922,3.473,93.513,11.975c1.583,0.44,3.207,0.899,4.642,1.667c13.624,7.288,15.603,14.751,7.021,26.09
		c-22.803,30.132-51.253,54.216-83.029,73.807c-47.738,29.43-96.233,57.696-145.203,85.031
		c-18.923,10.562-33.59,23.354-44.301,42.383c-11.917,21.168-26.369,40.914-39.825,61.207c-1.598,2.41-3.529,4.965-5.939,6.348
		c-1.842,1.057-4.688,0.365-7.087,0.451c0.175-1.936-0.286-4.264,0.626-5.75c7.082-11.549,14.447-22.922,21.684-34.375
		c6.454-10.215,12.888-20.443,19.233-30.727c0.685-1.109,0.722-2.619,1.059-3.945c-1.532-0.133-3.322-0.84-4.547-0.291
		c-3.32,1.49-6.489,3.379-9.562,5.35c-17.595,11.277-35.114,22.674-52.744,33.896c-2.539,1.615-5.536,2.51-8.325,3.742
		c-2.579-6.064-1.603-9.693,4.213-13.381c15.793-10.012,31.719-19.82,47.678-29.568c8.291-5.064,16.761-9.834,25.153-14.734
		c8.229-4.805,14.757-11.209,19.77-19.416c31.369-51.363,58.309-104.961,81.319-160.543c2.583-6.24,4.47-12.793,6.33-19.3
		c1.361-4.761-0.03-6.151-4.883-5.484c-36.208,4.981-71.786,12.513-105.855,26.151c-15.708,6.287-31.015,13.289-43.981,24.506
		C373.04,107.709,372.136,107.888,371.263,108.276z M460.115,235.099c0.456,0.403,0.91,0.808,1.367,1.214
		c3.938-2.1,7.955-4.066,11.805-6.321c18.658-10.92,37.181-22.074,55.919-32.854c40.852-23.502,81.654-47.062,118.317-76.993
		c14.391-11.749,27.764-24.496,38.404-39.845c8.449-12.187,6.465-16.967-8.269-20.071c-43.092-9.077-86.599-8.839-130.245-5.863
		c-3.993,0.272-5.274,1.979-5.781,5.658c-0.667,4.848-1.188,9.952-3.127,14.35c-14.018,31.8-27.73,63.766-42.868,95.035
		c-9.466,19.552-21.286,37.96-31.934,56.947C462.173,229.082,461.296,232.176,460.115,235.099z"/>
	<path fill-rule="evenodd" clip-rule="evenodd" d="M1033.809,239.018c-6.057,2.955-11.99,6.217-18.207,8.789
		c-8.253,3.416-16.648,6.543-25.152,9.264c-2.806,0.898-6.205,0.557-9.217,0.064c-7.477-1.213-10.362-4.945-10.011-12.49
		c0.416-8.947,3.315-17.293,9.862-23.247c15.29-13.903,31.104-27.238,46.871-40.608c4.152-3.522,9.196-4.147,14.52-2.399
		c5.635,1.85,7.582,6.066,3.467,10.324c-5.529,5.723-11.809,10.87-18.344,15.438c-9.292,6.497-19.35,11.905-28.605,18.45
		c-4.856,3.435-9.159,7.946-12.81,12.669c-1.786,2.313-1.513,6.219-2.17,9.404c2.944,0.1,6.012,0.77,8.803,0.164
		c3.899-0.848,7.537-2.826,11.382-4.006c10.796-3.309,21.706-6.262,32.419-9.814c2.45-0.812,5.075-3.056,6.287-5.346
		c12.759-24.094,25.486-48.214,37.726-72.575c7.802-15.529,14.708-31.504,22.142-47.221c2.828-5.983,5.485-7.116,10.107-4.923
		c4.818,2.287,6.01,5.517,3.132,11.329c-13.569,27.386-27.12,54.786-41.092,81.968c-13.136,25.553-26.77,50.85-40.242,76.229
		c-1.454,2.736-3.322,5.252-4.959,7.893c-2.647,4.275-5.972,4.748-10.234,2.266c-4.471-2.604-4.308-6.232-2.125-9.842
		c3.114-5.146,6.811-9.941,10.17-14.945c3.283-4.893,6.945-9.645,7.702-15.658C1034.756,239.801,1034.283,239.41,1033.809,239.018z"
		/>
	<path fill-rule="evenodd" clip-rule="evenodd" d="M1155.74,109.18c-4.042,18.396-11.87,35.397-20.079,52.163
		c-8.772,17.912-18.967,35.144-27.384,53.21c-10.113,21.703-19.153,43.912-28.332,66.037c-2.689,6.486-6.971,9.295-13.045,6.988
		c-4.333-1.646-6.402-5.805-4.791-10.162c0.883-2.387,2.21-4.611,3.361-6.898c22.14-43.975,44.384-87.898,66.304-131.982
		c2.896-5.828,4.653-12.375,5.945-18.79c0.703-3.487,0.077-7.717-1.332-11.024c-1.504-3.529-1.845-6.104,0.851-8.925
		c3.735-3.912,8.045-5.611,13.361-3.804c3.937,1.339,6.026,4.046,5.783,8.286C1156.289,105.919,1155.961,107.547,1155.74,109.18z"/>
	<path fill-rule="evenodd" clip-rule="evenodd" d="M974.122,194.735c-6.257,21.331-13.173,40.195-23.112,57.839
		c-2.246,3.988-5.982,4.867-9.962,3.107c-3.976-1.758-3.552-5.289-2.089-8.477c2.668-5.805,5.614-11.485,8.505-17.188
		c2.729-5.379,5.66-10.659,8.213-16.118c0.6-1.281,0.479-4.257-0.066-4.464c-1.694-0.646-3.975-0.889-5.609-0.24
		c-1.731,0.691-3.21,2.41-4.404,3.98c-4.988,6.552-9.604,13.398-14.787,19.787c-4.816,5.934-9.847,11.783-15.429,16.977
		c-3.435,3.193-7.418,1.816-10.607-1.691c-3.104-3.414-1.321-6.127,1.047-8.598c16.349-17.059,32.759-34.058,49.174-51.053
		c4.376-4.53,9.957-4.529,14.638-1.729C972.217,188.415,973.098,192.806,974.122,194.735z"/>
	<path fill-rule="evenodd" clip-rule="evenodd" d="M1108.369,248.93c-4.747-0.555-6.728-3.34-4.334-7.637
		c8.268-14.855,16.787-29.581,25.684-44.065c1.203-1.959,5.771-3.801,7.617-3.003c3.651,1.578,5.399,5.473,3.309,9.716
		c-1.938,3.931-4.171,7.716-6.226,11.592c-4.104,7.733-8.341,15.401-12.2,23.255C1119.396,244.531,1113.068,249.48,1108.369,248.93z
		"/>
	<path fill-rule="evenodd" clip-rule="evenodd" d="M934.076,142.164c3.226,2.627,7.654,4.577,8.929,7.781
		c1.079,2.714-0.812,7.285-2.62,10.295c-2.101,3.5-5.887,3.696-8.854,0.594c-2.113-2.208-4.078-4.782-5.309-7.549
		c-1.104-2.484-2.425-6.432-1.28-7.963C926.36,143.424,930.22,143.35,934.076,142.164z"/>
	<path fill-rule="evenodd" clip-rule="evenodd" d="M1167.016,135.21c5.836,0.859,10.314,4.66,9.936,8.433
		c-0.366,3.634-6.002,6.742-10.945,6.035c-5.65-0.808-9.896-5.324-9.132-9.716C1157.549,136.074,1161.216,134.356,1167.016,135.21z"
		/>
	<path fill-rule="evenodd" clip-rule="evenodd" fill="none" d="M881.285,186.357c1.772,1.266,3.898,2.098,4.671,3.617
		c0.402,0.791-1.252,3.251-2.539,4.183c-18.386,13.305-36.829,26.532-55.403,39.573c-1.416,0.992-3.928,0.428-5.931,0.588
		c0.128-2.006-0.301-4.27,0.496-5.961c1.779-3.782,4.118-7.307,6.32-10.879c2.494-4.045,6.137-7.717,7.437-12.097
		c3.425-11.546,12.373-14.601,22.493-16.206C866.212,188.004,873.669,187.296,881.285,186.357z"/>
	<path fill-rule="evenodd" clip-rule="evenodd" fill="none" d="M785.85,256.201c2.607-3.273,5.151-6.057,7.217-9.158
		c3.106-4.668,7.094-9.227,8.508-14.432c2.116-7.777,6.793-12.641,14.125-17.487c-1.039,7.664-1.615,14.464-3.055,21.076
		c-0.459,2.106-2.902,4.22-4.962,5.456c-5.451,3.27-10.174,6.986-13.022,12.916C793.18,257.652,790.575,259.314,785.85,256.201z"/>
	<path fill-rule="evenodd" clip-rule="evenodd" fill="none" d="M691.906,206.4c-0.608,6.037-5.826,10.59-9.907,9.369
		c-2.237-0.67-5.025-3.259-5.445-5.399c-0.718-3.657,6.554-8.862,10.721-7.739C689.33,203.186,690.902,205.537,691.906,206.4z"/>
	<path fill-rule="evenodd" clip-rule="evenodd" fill="none" d="M661.08,215.271c-0.583-5.963,1.87-10.322,5.848-9.88
		c1.839,0.204,4.448,2.036,4.968,3.681C672.829,212.019,667.64,214.914,661.08,215.271z"/>
	<path fill-rule="evenodd" clip-rule="evenodd" fill="none" d="M460.115,235.099c1.181-2.923,2.058-6.017,3.588-8.745
		c10.648-18.986,22.468-37.395,31.934-56.947c15.138-31.269,28.85-63.234,42.868-95.035c1.938-4.398,2.459-9.502,3.127-14.35
		c0.507-3.679,1.789-5.386,5.781-5.658c43.646-2.976,87.152-3.213,130.245,5.863c14.734,3.104,16.718,7.884,8.269,20.071
		c-10.64,15.349-24.013,28.097-38.404,39.845c-36.663,29.931-77.466,53.491-118.317,76.993
		c-18.739,10.78-37.261,21.935-55.919,32.854c-3.85,2.255-7.866,4.222-11.805,6.321
		C461.025,235.906,460.571,235.502,460.115,235.099z"/>
</g>
</svg>
