<?xml version="1.0" encoding="utf-8"?>
<!-- Generator: Adobe Illustrator 16.0.0, SVG Export Plug-In . SVG Version: 6.00 Build 0)  -->
<!DOCTYPE svg PUBLIC "-//W3C//DTD SVG 1.1//EN" "http://www.w3.org/Graphics/SVG/1.1/DTD/svg11.dtd">
<svg version="1.1" id="Layer_1" xmlns="http://www.w3.org/2000/svg" xmlns:xlink="http://www.w3.org/1999/xlink" x="0px" y="0px"
	 width="934px" height="96px" viewBox="0 0 934 96" enable-background="new 0 0 934 96" xml:space="preserve">
<g>
	<path fill="#FFFFFF" d="M60.544,1.175c0-0.177,0.151-0.177,0.308-0.177c-2.021,4.851-6.364,9.009-10.724,10.4v46.243l6.682-7.275
		c-1.703,10.217-9.01,20.957-18.031,24.074c-10.877,3.631-23.625,1.906-31.553-7.27c-7.151-7.63-7.615-20.789-4.66-30.835
		c2.33-8.307,8.55-16.452,15.701-20.953c-7.62,10.219-11.196,26.149-5.605,38.798c4.668,8.832,13.215,11.78,22.235,10.562
		c4.809-0.693,9.325-2.425,13.367-5.716V12.438C34.592,14.169,21.683,10.18,7.85,11.22c-2.801,0.179-5.448,1.219-7.307,3.815
		C0.854,10.35,2.879,5.849,6.609,2.909c5.125-3.805,12.276-2.769,18.653-2.602C36.919,0.998,49.039,4.639,60.544,1.175"/>
	<path fill="#FFFFFF" d="M285.739,8.019l2.483-0.687c-0.154,3.632-2.483,7.102-5.432,8.486c-3.894,1.906-7.157-1.038-10.111-2.767
		c-1.242-0.184-2.178,0.339-2.95,1.205l-1.093-1.389l10.261-10.739C279.979,4.908,282.478,8.194,285.739,8.019"/>
	<path fill="#FFFFFF" d="M840.164,8.019l2.482-0.687c-0.148,3.632-2.482,7.102-5.428,8.486c-3.896,1.906-7.156-1.038-10.112-2.767
		c-1.242-0.184-2.181,0.339-2.951,1.205l-1.093-1.389l10.26-10.739C834.408,4.908,836.906,8.194,840.164,8.019"/>
	<path fill="#FFFFFF" d="M306.873,9.49v53.168c2.488,0.523,4.516,2.08,6.065,4.344l4.2-2.264l0.771,1.557
		c-4.196,2.773-9.015,5.197-12.89,9.188c-2.964-3.289-6.07-5.896-10.268-5.025l-3.413,0.865c-0.165-2.773,1.396-5.885,4.04-7.273
		l0.768-0.341V10.879c-0.31-2.255-1.241-4.16-2.63-5.897c6.206,0.694,11.649-1.377,16.471-4.848
		C308.586,2.904,307.193,6.031,306.873,9.49"/>
	<path fill="#FFFFFF" d="M210.986,65.784l-2.642,1.03c-3.882-4.324-8.548-6.58-13.521-7.1v-46.59
		c4.974-0.339,12.121-2.246,15.078,3.643l0.935,3.29l0.15,44.855V65.784z M223.11,56.951V26.986c0-6.757-0.465-13.335-3.257-18.875
		c-2.647-4.507-6.998-7.114-11.509-7.805c-14.459-1.203-28.752,5.024-42.591,0c-0.157,2.774,0.466,5.37,1.399,7.805
		c5.446,9.346,17.411,6.057,25.803,5.363v46.241c-11.345-0.339-21.137,6.068-27.508,16.631c9.172-6.58,23.63-6.58,32.794-0.169
		c7.776-7.108,17.254-10.394,27.204-11.782C224.358,62.148,223.427,59.716,223.11,56.951"/>
	<path fill="#FFFFFF" d="M37.521,48.634c-1.249,8.317-9.334,9.698-14.921,11.601c1.713-1.733,2.479-3.983,2.792-6.407
		c0.153-9.528,0-19.047,0-28.406l-4.505,1.908V25.08c5.752-2.084,11.189-5.026,16.633-8.312L37.521,48.634L37.521,48.634z"/>
	<path fill="#FFFFFF" d="M189.541,16.941c-1.401,2.252-1.864,5.191-1.71,8.305l-0.32,23.562
		c-1.699,7.967-9.478,10.732-15.535,12.299c4.979-3.127,3.109-10.224,3.577-15.943c-2.954,0.178-7.306-1.206-8.4,2.78l-0.305,2.254
		c-1.4-4.164-2.022-10.57,0.772-14.209c2.019-2.252,4.817-2.771,7.774-2.771c0.158-5.188,2.485-10.044,6.68-12.821
		C184.409,18.834,186.896,17.629,189.541,16.941"/>
	<path fill="#FFFFFF" d="M289.935,28.368c-1.082,2.767-3.419,5.193-5.908,6.239v24.252c0.164,1.892,0.619,3.632,2.181,4.843
		c1.246,1.037,2.797,1.555,4.503,1.555v1.394c-3.882,2.072-7.46,5.197-10.877,8.479c-3.578-1.899-6.064-5.889-6.372-10.046
		l-0.165-29.959c-2.483-0.857-4.654-2.076-6.525-4.153c3.731-1.906,7.309-5.026,10.415-8.664
		C280.918,25.944,284.81,28.545,289.935,28.368"/>
	<path fill="#FFFFFF" d="M364.059,28.368c-1.08,2.767-3.413,5.193-5.906,6.239v27.536c-0.156,4.672,4.194,7.271,3.423,12.129
		c0,6.578-4.2,12.47-9.327,15.582c-6.219,3.99-15.539,4.679-22.387,1.731c-3.267-1.386-7.774-4.503-10.879-0.696l-0.462,0.523
		c0.31-4.672,2.012-10.046,6.526-12.121c2.643-0.871,5.904-0.689,8.08,1.389c4.044,3.459,6.683,11.076,12.594,9.521
		c2.483-0.517,4.968-2.246,5.91-4.851c2.322-5.371-0.942-10.043-3.578-14.026c-0.784-3.112-0.622-6.584-0.784-10.046L328.461,75.13
		c-0.935-1.899-2.95-4.153-4.974-4.672c-2.173-0.519-4.347,0-6.371,0.688c0-3.453,2.335-6.578,4.971-7.963l-0.153-24.773
		c0-2.073-1.082-4.143-2.793-5.192c-1.247-0.516-2.643-0.687-4.048-0.687v-1.396c3.117-1.9,6.067-4.836,8.556-8.132
		c3.107,0.51,6.684,2.432,8.087,6.062l0.93,4.497l0.152,28.238c2.023,0.515,4.045,2.429,4.972,4.496l9.642-7.096V35.124
		c-2.492-0.699-4.664-2.076-6.534-4.153c3.578-1.906,7.156-4.851,10.264-8.664C354.89,25.944,358.935,28.545,364.059,28.368"/>
	<path fill="#FFFFFF" d="M119.438,30.452l3.731-1.039c2.485,5.012,4.972,10.214,8.085,15.063l-11.817,7.272L119.438,30.452
		L119.438,30.452z M132.803,67.516c-4.197-2.776-8.548-4.856-13.523-5.721v-7.273l23.789-14.718
		c-5.604-4.848-9.021-11.257-11.507-17.496c-6.993,6.583-16.63,8.146-25.805,6.239c1.71,1.907,2.487,4.156,2.794,6.579l0.162,27.195
		c-2.494,1.033-4.976,3.977-6.069,6.58c8.866-0.865,16.169,2.936,23.474,6.576l14.3-10.736c-0.315-0.689-0.462-1.387-1.078-1.896
		C137.311,64.566,134.981,65.955,132.803,67.516"/>
	<path fill="#FFFFFF" d="M252.495,63.184c-2.024,1.556-4.204,3.635-6.524,1.899c-3.74-1.212-7.938-4.333-8.712-9.008
		c-0.62-3.626,0-7.269,2.495-9.863c3.109-3.466,9.01-3.982,12.741-1.042V63.184L252.495,63.184z M265.241,63.531
		c-1.556-1.562-2.175-3.82-2.493-6.068V34.266c2.803-1.565,4.358-4.685,5.135-7.803c-1.559,1.034-3.424,1.734-5.599,1.38
		c-2.332-0.688-4.198-3.458-5.745-5.537c-3.11,3.466-6.379,6.583-10.73,6.751c-3.578,0.524-5.592-3.809-6.839-6.751
		c-2.176,4.157-5.908,6.239-9.327,7.614c2.646,2.257,5.595,3.82,8.698,4.859c3.735,1.04,6.843-0.695,9.179-3.809
		c0.932,2.247,3.104,4.153,4.976,5.192v6.936c-1.244-0.701-2.646-1.218-4.044-1.567c-7.614-0.862-15.082,2.08-19.113,9.695
		c-2.81,4.849-2.958,12.821-0.315,17.842c2.478,4.16,6.37,5.721,10.412,6.406l13.213-10.211l1.249,3.635
		c1.393,3.295,4.496,5.891,7.921,5.891l8.858-8.834C268.652,65.609,266.786,65.083,265.241,63.531"/>
	<path fill="#FFFFFF" d="M98.293,27.886c1.082,0,1.999-0.681,3.074-1.029c-0.155,3.082-1.692,6.161-4.302,7.703
		c-0.459,7.867-0.309,16.424-0.153,24.467c0,2.048,1.079,4.102,2.917,5.133c1.074,0.51,2.458,0.682,3.84,0.682v1.367
		c-3.074,2.061-6.296,4.971-8.443,8.393c-3.079-0.859-6.46-2.572-7.833-6.158l-1.079-4.454L86.16,36.095
		c-1.995-0.517-3.684-2.737-4.761-4.618l-9.511,7.021v23.779c2.298,1.029,4.6,1.884,6.446,4.115
		c-3.69,1.877-7.223,5.129-10.296,8.89c-3.527-3.937-7.832-6.33-12.743-6.33c1.072-2.56,3.375-5.14,5.838-6.16V38.838
		c-0.162-1.718,0.365-25.952-0.347-28.666c-0.695-2.678-2.039-5.214-2.039-5.214c3.431,0.036,12.224-1.248,15.442-4.67
		c-1.258,2.881-3.118,6.567-2.807,11.003l0.504,24.975l18.42-13.518C91.99,25.654,94.916,28.056,98.293,27.886"/>
	<path fill="#FFFFFF" d="M682.968,11.007v53.168c2.33,0.519,4.347,2.078,5.898,4.332l4.197-2.254l0.938,1.558
		c-4.352,2.773-9.018,5.198-13.062,9.183c-2.787-3.281-6.062-5.89-10.259-5.021l-3.414,0.865c-0.154-2.771,1.555-5.893,4.033-7.273
		l0.935-0.34l-0.153-52.842c-0.15-2.242-1.247-4.149-2.639-5.885c6.215,0.695,11.659-1.387,16.477-4.849
		C684.523,4.423,683.115,7.534,682.968,11.007"/>
	<path fill="#FFFFFF" d="M436.529,64.875c-4.345-3.297-8.702-6.404-13.838-7.801V14.292l4.978-3.804
		c1.554,3.804,5.138,6.226,8.86,6.056V64.875L436.529,64.875z M420.681,92.922c-1.556-0.341-3.111-1.373-3.888-3.111
		c-1.712-3.295-1.093-7.621-1.247-11.598V19.324l5.135-3.816V92.922z M448.188,16.028l6.526-6.411
		c-6.213-1.04-12.122-3.46-16.317-9.179l-16.015,11.605V7.017h-1.702v6.41l-5.445,3.819c-0.153-2.603-0.617-5.034-1.393-7.273
		c-1.4-3.816-4.827-7.458-8.411-7.969c-5.896-1.045-11.176,1.207-14.603,6.574c-2.008,3.123-2.33,8.321-0.771,11.609
		c0.151-2.423,0.771-4.502,2.484-6.236c1.713-1.907,4.971-2.085,7.145-1.037c5.744,3.631,3.117,11.945,3.737,18.179h-2.644
		c-3.269,0.176-6.525,2.078-7.771,5.549c-1.249,4.15-0.157,8.479,1.557,11.774l0.619-2.077c1.554-3.291,4.814-3.813,8.239-3.47
		v14.729c-2.181,0-4.044,0.873-5.911,1.902c-5.753,3.641-7.766,10.391-7.919,17.322c3.415-4.85,8.237-7.273,13.83-7.273
		c0.153,9.527,0.931,19.738-5.293,26.328c4.979,0.52,9.184-1.904,12.279-6.247c3.277,3.988,7.157,6.065,11.972,5.896V72.662
		c2.799,0.865,5.444,2.425,7.773,3.992c4.511-8.146,11.971-13.336,20.21-13.336c-1.094-2.084-1.551-4.34-2.024-6.764L448.188,16.028
		z"/>
	<path fill="#FFFFFF" d="M527.422,29.015c1.1,0,2.031-0.689,3.111-1.037c-0.147,3.114-1.71,6.237-4.349,7.798
		c-0.468,7.968-0.311,16.619-0.157,24.755c0,2.085,1.083,4.16,2.961,5.203c1.084,0.519,2.479,0.692,3.876,0.692v1.384
		c-3.104,2.084-6.372,5.026-8.546,8.492c-3.109-0.869-6.536-2.593-7.924-6.236l-1.093-4.504l-0.151-28.229
		c-2.028-0.522-3.728-2.769-4.823-4.676l-9.642,7.096v24.073c2.33,1.047,4.668,1.907,6.526,4.162
		c-3.724,1.905-7.299,5.196-10.415,9.003c-3.574-3.983-7.919-6.408-12.893-6.408c1.088-2.595,3.414-5.193,5.9-6.232v-24.25
		c-0.159-1.737-0.617-3.29-1.704-4.678c-1.401-1.209-3.266-1.561-4.824-1.73v-1.383c3.727-2.085,7.313-4.675,10.57-8.146
		c3.732,1.208,6.531,5.897,6.838,10.401V37.5l18.658-13.676C521.057,26.767,524.009,29.191,527.422,29.015"/>
	<path fill="#FFFFFF" d="M577.011,29.015c1.248,0,2.181-0.689,3.264-1.037c-0.31,3.114-1.864,6.237-4.505,7.798
		c-0.314,7.968-0.314,16.619-0.155,24.755c0.155,2.085,1.084,4.16,2.946,5.203c1.099,0.519,2.492,0.692,4.041,0.692v1.384
		c-3.256,2.084-6.366,5.026-8.7,8.492c-3.114-0.869-6.529-2.593-7.928-6.236l-1.087-4.504V37.335
		c-2.178-0.522-3.89-2.769-4.972-4.676l-9.64,7.096v24.073c2.331,1.047,4.665,1.908,6.525,4.162
		c-3.726,1.906-7.303,5.195-10.412,9.003c-3.578-3.983-7.772-6.408-12.744-6.408c0.932-2.595,3.425-5.194,5.747-6.231v-24.25
		c0-1.737-0.616-3.29-1.706-4.678c-1.398-1.209-3.259-1.561-4.824-1.73v-1.383c3.732-2.085,7.311-4.675,10.572-8.146
		c3.732,1.208,6.527,5.897,6.842,10.401V37.5l18.807-13.676C570.786,26.767,573.591,29.191,577.011,29.015"/>
	<path fill="#FFFFFF" d="M669.149,29.886c-1.083,2.765-3.574,5.191-5.909,6.232v27.534c-0.153,4.679,4.043,7.271,3.419,12.121
		c-0.153,6.586-4.352,12.483-9.476,15.604c-6.066,3.979-15.396,4.672-22.224,1.725c-3.271-1.383-7.938-4.502-11.043-0.697
		l-0.462,0.525c0.297-4.672,2.013-10.043,6.526-12.123c2.64-0.869,5.905-0.695,8.073,1.383c4.043,3.469,6.691,11.082,12.753,9.529
		c2.328-0.525,4.813-2.25,5.899-4.855c2.182-5.366-0.93-10.04-3.571-14.023c-0.773-3.117-0.773-6.585-0.773-10.041l-18.812,13.85
		c-1.083-1.902-2.949-4.155-4.974-4.674c-2.328-0.521-4.506,0-6.372,0.688c-0.152-3.453,2.176-6.585,4.974-7.97l-0.156-24.761
		c-0.154-2.085-1.081-4.154-2.95-5.196c-1.25-0.529-2.646-0.69-3.884-0.69V32.65c3.111-1.9,6.062-4.841,8.39-8.132
		c3.27,0.512,6.684,2.425,8.079,6.056l1.1,4.502l0.147,28.232c2.02,0.52,3.885,2.428,4.975,4.502l9.485-7.095V36.629
		c-2.49-0.688-4.673-2.063-6.533-4.144c3.73-1.911,7.308-4.85,10.413-8.661C659.82,27.457,664.015,30.062,669.149,29.886"/>
	<path fill="#FFFFFF" d="M703.149,29.886l1.084,4.32l0.316,25.47c0,4.152,3.415,7.613,6.684,8.824
		c2.333,2.604,5.124-0.169,7.615-0.688V36.629c-2.491-0.688-4.666-2.063-6.531-4.144c3.738-1.911,7.314-4.85,10.42-8.661
		c3.575,3.632,7.772,6.238,12.898,6.062c-1.084,2.765-3.576,5.191-5.903,6.232v24.944c0.151,2.59,0.777,5.19,2.648,7.098
		c-10.266,0.171-19.749,2.596-27.673,8.833c-3.735-0.856-7.467-2.425-9.487-6.408c-1.558-3.812-1.865-8.14-1.558-12.64l-0.31-19.225
		c-0.312-1.908-0.934-3.644-2.488-4.514c-1.39-0.69-2.787-1.032-4.191-1.032v-1.218c3.112-1.894,6.06-4.842,8.396-8.132
		C698.335,24.343,701.757,26.077,703.149,29.886"/>
	<path fill="#FFFFFF" d="M819.076,29.015c1.082,0,2.011-0.689,3.101-1.037c-0.153,3.114-1.707,6.237-4.503,7.798
		c-0.311,7.968-0.158,16.619,0,24.755c0,2.085,0.938,4.16,2.796,5.203c1.246,0.519,2.646,0.692,4.046,0.692v1.384
		c-3.113,2.084-6.379,5.026-8.556,8.492c-3.258-0.869-6.683-2.593-8.083-6.236l-0.928-4.504l-0.157-28.229
		c-2.177-0.522-3.732-2.769-4.815-4.676l-9.639,7.096v24.073c2.165,1.047,4.498,1.907,6.527,4.162
		c-3.887,1.905-7.462,5.196-10.415,9.003c-3.576-3.983-7.928-6.408-12.904-6.408c1.087-2.595,3.427-5.193,5.901-6.232v-24.25
		c-0.145-1.737-0.618-3.29-1.699-4.678c-1.548-1.209-3.275-1.561-4.972-1.73v-1.383c3.726-2.085,7.456-4.675,10.726-8.146
		c3.724,1.208,6.525,5.897,6.836,10.401V37.5l18.651-13.676C812.702,26.767,815.65,29.191,819.076,29.015"/>
	<path fill="#FFFFFF" d="M844.86,29.886c-1.093,2.765-3.581,5.191-5.913,6.232v24.257c0.16,1.895,0.625,3.632,2.02,4.85
		c1.402,1.029,2.956,1.549,4.67,1.549v1.388c-4.043,2.078-7.619,5.19-11.036,8.485c-3.419-1.901-6.07-5.891-6.219-10.045
		l-0.312-29.972c-2.331-0.853-4.511-2.063-6.375-4.144c3.575-1.911,7.147-5.029,10.418-8.661
		C835.683,27.457,839.726,30.062,844.86,29.886"/>
	<path fill="#FFFFFF" d="M928.562,29.015c1.08,0,2.016-0.689,3.11-1.037c-0.162,3.114-1.711,6.237-4.357,7.798
		c-0.472,7.968-0.312,16.619-0.158,24.755c0,2.085,1.089,4.16,2.953,5.203c1.09,0.519,2.502,0.692,3.891,0.692v1.384
		c-3.114,2.084-6.37,5.026-8.553,8.492c-3.094-0.869-6.521-2.593-7.917-6.236l-1.099-4.504l-0.158-28.229
		c-2.018-0.522-3.725-2.769-4.82-4.676l-9.625,7.096v24.073c2.327,1.047,4.654,1.907,6.521,4.162
		c-3.724,1.905-7.454,5.196-10.413,9.003c-3.565-3.983-7.926-6.408-12.892-6.408c1.077-2.595,3.413-5.193,5.901-6.232v-24.25
		c-0.158-1.737-0.624-3.29-1.707-4.678c-1.408-1.209-3.272-1.561-4.822-1.73v-1.383c3.722-2.085,7.312-4.675,10.564-8.146
		c3.727,1.208,6.526,5.897,6.846,10.401V37.5l18.643-13.676C922.188,26.767,925.137,29.191,928.562,29.015"/>
	<path fill="#FFFFFF" d="M464.028,31.969l3.732-1.048c2.485,5.027,4.962,10.222,7.92,15.071l-11.652,7.273V31.969z M477.398,69.023
		c-4.202-2.771-8.708-4.849-13.528-5.715v-7.275l23.626-14.712c-5.438-4.848-8.858-11.259-11.344-17.497
		c-6.99,6.585-16.785,8.145-25.956,6.238c1.703,1.907,2.484,4.153,2.8,6.58l0.302,27.196c-2.633,1.029-4.979,3.975-6.061,6.577
		c8.705-0.866,16.019,2.937,23.32,6.578l14.45-10.739c-0.308-0.689-0.62-1.387-1.084-1.9
		C481.737,66.083,479.575,67.473,477.398,69.023"/>
	<path fill="#FFFFFF" d="M758.628,64.693c-2.181,1.561-4.202,3.645-6.534,1.908c-3.729-1.211-8.08-4.334-8.701-9.012
		c-0.628-3.637,0-7.271,2.481-9.863c3.108-3.47,9.016-3.982,12.754-1.047V64.693L758.628,64.693z M771.372,65.047
		c-1.712-1.559-2.33-3.812-2.49-6.068V35.77c2.646-1.555,4.357-4.673,5.134-7.786c-1.713,1.031-3.569,1.719-5.601,1.378
		c-2.484-0.689-4.346-3.463-5.751-5.539c-3.104,3.454-6.527,6.585-10.723,6.75c-3.578,0.522-5.593-3.808-6.842-6.75
		c-2.176,4.16-5.896,6.238-9.325,7.616c2.646,2.254,5.593,3.818,8.702,4.849c3.733,1.045,6.848-0.691,9.17-3.804
		c0.933,2.25,2.957,4.156,4.98,5.192v6.932c-1.244-0.694-2.646-1.213-4.049-1.561c-7.61-0.864-15.073,2.072-19.124,9.694
		c-2.791,4.849-2.941,12.821-0.3,17.843c2.333,4.159,6.369,5.721,10.413,6.408l13.211-10.217l1.246,3.639
		c1.397,3.281,4.514,5.891,7.922,5.891l8.87-8.832C774.787,67.119,772.769,66.602,771.372,65.047"/>
	<path fill="#FFFFFF" d="M869.38,64.693c-2.026,1.561-4.194,3.645-6.533,1.908c-3.73-1.211-7.929-4.334-8.55-9.012
		c-0.779-3.637-0.154-7.271,2.33-9.863c3.118-3.47,9.015-3.982,12.753-1.047V64.693z M882.125,65.047
		c-1.559-1.559-2.177-3.812-2.491-6.068V35.77c2.803-1.555,4.358-4.673,5.14-7.786c-1.562,1.031-3.428,1.719-5.604,1.378
		c-2.333-0.689-4.199-3.463-5.744-5.539c-3.113,3.454-6.374,6.585-10.73,6.75c-3.577,0.522-5.597-3.808-6.837-6.75
		c-2.179,4.16-5.909,6.238-9.326,7.616c2.643,2.254,5.593,3.818,8.706,4.849c3.727,1.045,6.841-0.691,9.17-3.804
		c0.929,2.25,3.107,4.156,4.975,5.192v6.932c-1.246-0.694-2.646-1.213-4.046-1.561c-7.932-1.04-15.697,2.416-19.428,10.559
		c-2.644,4.679-2.487,12.308,0,16.979c2.486,4.159,6.369,5.721,10.416,6.408l13.208-10.217l1.25,3.639
		c1.396,3.281,4.498,5.891,7.919,5.891l8.856-8.832C885.539,67.119,883.674,66.602,882.125,65.047"/>
	<path fill="#FFFFFF" d="M609.475,68.508l-2.323,0.871c-1.71-3.465-4.977-6.25-8.396-6.762c-4.82-0.518-8.396,2.076-12.274,3.807
		c4.973-5.878,10.868-11.598,16.932-16.105h6.063L609.475,68.508L609.475,68.508z M594.555,48.587V31.969l2.793-0.528
		c2.655,3.295,5.915,5.719,10.109,4.849c3.42-0.691,6.376-2.946,9.015-5.539c-3.878,6.409-9.167,12.298-14.605,17.666
		C599.534,48.759,597.04,48.587,594.555,48.587 M621.911,45.306l-13.833-0.186c5.137-5.708,9.953-11.598,12.438-18.523
		c0.773-0.867-0.156-1.567-0.78-1.907c-0.769,1.556-1.856,3.294-3.416,3.807c-4.19,1.042-7.465-1.73-10.26-4.673
		c-6.373,5.715-14.609,8.657-23.32,6.75c1.244,1.553,1.871,3.471,2.18,5.373c-0.153,6.062,1.396,13.334-2.18,17.837l12.751,0.17
		c-6.064,5.897-12.282,12.647-16.016,20.097c-1.083,1.206,0.782,1.206,1.246,1.731c0.935-1.562,2.642-3.638,4.354-4.331
		c5.125-1.383,9.012,2.6,13.057,5.542c6.379-6.408,15.081-8.655,23.777-6.408c-1.085-1.908-2.018-3.983-2.175-6.409
		C620.05,57.938,618.031,50.152,621.911,45.306"/>
</g>
</svg>
