<?xml version="1.0" encoding="utf-8"?>
<!-- Generator: Adobe Illustrator 16.0.4, SVG Export Plug-In . SVG Version: 6.00 Build 0)  -->
<!DOCTYPE svg PUBLIC "-//W3C//DTD SVG 1.1//EN" "http://www.w3.org/Graphics/SVG/1.1/DTD/svg11.dtd">
<svg version="1.1" id="Layer_1" xmlns="http://www.w3.org/2000/svg" xmlns:xlink="http://www.w3.org/1999/xlink" x="0px" y="0px"
	 width="405.788px" height="375.095px" viewBox="157.292 42.851 405.788 375.095"
	 enable-background="new 157.292 42.851 405.788 375.095" xml:space="preserve">
<g>
	<path fill="#265E6B" d="M529.157,199.526c-13.363,0-23.961,8.755-24.883,9.677c-0.461,0.461-0.922,0.922-0.922,1.382
		c-24.883,31.795-68.198,84.327-79.258,90.317c-1.843,0.922-10.598,4.607-41.933,4.607c-10.599,0-20.735-0.46-27.648-0.921v-5.53
		c17.971-0.46,52.071-2.764,70.042-13.363c26.266-15.667,22.579-44.697,22.579-45.619c-0.46-4.608-4.607-7.833-9.216-7.833H246.687
		c-2.304,0-4.608,0.922-6.451,2.765l-80.179,81.101c-1.843,1.383-2.765,4.147-2.765,6.451c0,2.305,0.921,4.608,2.765,6.451
		l88.013,86.17c1.843,1.844,4.147,2.765,6.451,2.765c0,0,0,0,0.461,0c2.304,0,5.069-1.382,6.451-3.226l39.629-43.775h149.76
		c2.765,0,5.53-1.383,7.373-3.226l99.072-122.112c2.304-1.843,5.068-5.53,5.529-10.138c1.383-7.833-2.304-16.128-10.599-25.344
		C545.746,203.213,537.913,199.526,529.157,199.526z M543.442,233.165l-97.229,119.808h-149.76c-2.765,0-5.069,0.922-6.912,3.226
		l-35.481,39.168l-74.65-72.807l71.424-71.424h177.869c-0.922,5.991-4.147,13.824-13.363,19.354
		c-14.285,8.294-49.767,10.598-68.659,10.598h-0.921l0,0c-5.069,0-9.216,4.147-9.216,9.217l-0.46,23.039
		c0,5.069,3.686,9.216,8.755,9.216c0.922,0,18.432,1.383,37.786,1.383c34.56,0,45.619-4.147,50.688-6.912
		c17.049-9.677,71.424-78.336,83.865-94.464c2.304-1.843,7.373-5.069,11.98-5.069c2.305,0,5.53,0.461,9.216,4.608
		c4.608,5.069,5.991,8.294,5.991,9.677C543.903,232.243,543.903,232.704,543.442,233.165z"/>
	<path fill="#265E6B" d="M355.436,217.037c0.46,0,0.921,0.461,0.921,0.461c0.461,0,0.922,0.461,0.922,0.461
		c0.46,0,1.382,0,1.843,0.46h0.46l0,0l0,0h0.461c0.461,0,1.383,0,1.844-0.46c0.461,0,0.921-0.461,0.921-0.461
		c0.461,0,0.922-0.461,0.922-0.461h0.461c77.414-48.384,89.395-92.621,89.855-114.739c0.461-21.658-9.677-41.012-27.647-52.992
		c-23.501-15.667-52.531,1.382-67.277,11.52c-13.824-10.138-41.933-26.266-64.973-12.902c-0.46,0.46-1.382,0.46-1.843,0.921l0,0l0,0
		l0,0c-17.971,11.981-27.648,30.874-27.648,52.992C265.58,123.955,278.021,168.192,355.436,217.037
		C355.436,216.576,355.436,216.576,355.436,217.037z M284.012,101.837c0-15.207,6.912-29.03,19.354-37.325
		c3.226-2.304,6.912-3.226,11.059-3.226c17.05-0.46,37.325,16.128,40.089,18.432l0,0c0,0,0.461,0,0.461,0.461
		c0.461,0,0.461,0.461,0.922,0.461l0,0h0.46c0.461,0,0.461,0.46,0.922,0.46l0,0h0.46c0.461,0,0.461,0,0.922,0c0,0,0,0,0.461,0h0.46
		h0.461h0.461h0.461h0.461c0.461,0,0.461,0,0.921,0h0.461h0.461l0,0c0.461,0,0.461,0,0.921-0.46c0,0,0,0,0.461,0
		c0,0,0.461,0,0.461-0.461c0,0,0.461,0,0.461-0.461c0,0,0.461,0,0.461-0.46l0,0l0,0c3.226-2.765,33.639-26.727,51.148-15.207
		c12.442,8.294,19.354,22.118,19.354,37.325c-0.461,18.432-11.06,53.914-76.493,96.768
		C294.61,155.29,284.012,119.347,284.012,101.837z"/>
</g>
</svg>
