<?xml version="1.0" encoding="utf-8"?>
<!-- Generator: Adobe Illustrator 16.0.4, SVG Export Plug-In . SVG Version: 6.00 Build 0)  -->
<!DOCTYPE svg PUBLIC "-//W3C//DTD SVG 1.1//EN" "http://www.w3.org/Graphics/SVG/1.1/DTD/svg11.dtd">
<svg version="1.1" id="Layer_1" xmlns="http://www.w3.org/2000/svg" xmlns:xlink="http://www.w3.org/1999/xlink" x="0px" y="0px"
	 width="436.94px" height="442.508px" viewBox="141.618 9.115 436.94 442.508"
	 enable-background="new 141.618 9.115 436.94 442.508" xml:space="preserve">
<title>Artboard 4</title>
<path fill="#468BA3" d="M151.58,275.512l25.897,8.433v78.567c0,16.567,13.431,29.998,29.998,29.998l0,0h64.512l13.409,47.001
	c2.523,8.854,11.742,13.988,20.598,11.475l172.8-49.306c8.854-2.524,13.988-11.742,11.475-20.598l-25.575-89.626
	c22.981-23.939,38.275-54.206,43.915-86.907h54.144c8.729,0,15.806-7.077,15.806-15.806s-7.076-15.805-15.806-15.805l0,0H402.578
	L371.52,237.45c-2.636,5.466-8.17,8.94-14.238,8.939h-1.613c-6.647-0.631-12.18-5.371-13.824-11.842l-20.321-81.562l-20.368,40.551
	c-2.692,5.314-8.143,8.663-14.101,8.663h-49.444c-8.729,0-15.805-7.077-15.805-15.806s7.076-15.806,15.805-15.806l0,0h39.721
	l35.067-69.581c3.929-7.795,13.433-10.929,21.228-7c4.101,2.067,7.101,5.816,8.217,10.271l20.137,80.041l16.45-34.007
	c2.637-5.466,8.17-8.94,14.239-8.939h114.785C488.355,51.249,399.811-6.327,309.686,12.774
	c-77.922,16.515-133.296,85.817-132.208,165.463l-34.606,77.645c-3.249,7.301,0.037,15.853,7.337,19.102
	C150.657,275.183,151.114,275.359,151.58,275.512z"/>
</svg>
