<?xml version="1.0" encoding="utf-8"?>
<!-- Generator: Adobe Illustrator 21.1.0, SVG Export Plug-In . SVG Version: 6.00 Build 0)  -->
<svg version="1.1" id="Layer_1" xmlns="http://www.w3.org/2000/svg" xmlns:xlink="http://www.w3.org/1999/xlink" x="0px" y="0px"
	 viewBox="0 0 436.9 442.5" style="enable-background:new 0 0 436.9 442.5;" xml:space="preserve">
<style type="text/css">
	.st0{fill:none;stroke:#468BA3;stroke-width:20;stroke-miterlimit:10;}
	.st1{fill:none;stroke:#468BA3;stroke-width:20;stroke-linecap:round;stroke-linejoin:round;stroke-miterlimit:10;}
</style>
<title>Artboard 4</title>
<path class="st0" d="M371.3,138.2C353.5,54.2,270.9,0.4,186.8,18.3C114.1,33.7,62.4,98.3,63.5,172.6l-32.3,72.4
	c-3,6.8,0,14.8,6.8,17.8c0.4,0.2,0.8,0.3,1.3,0.5l24.2,7.9v73.3c0,15.5,12.5,28,28,28l0,0h60.2l12.5,43.8c2.4,8.3,11,13,19.2,10.7
	l161.2-46c8.3-2.4,13-11,10.7-19.2l-23.9-83.6C376.9,249.9,377.5,168.7,371.3,138.2"/>
<polyline class="st1" points="374.1,171.5 285.3,171.5 254.4,237 223.8,122 188.3,194.8 138.2,194.8 "/>
</svg>
