<?xml version="1.0" encoding="utf-8"?>
<!-- Generator: Adobe Illustrator 16.0.4, SVG Export Plug-In . SVG Version: 6.00 Build 0)  -->
<!DOCTYPE svg PUBLIC "-//W3C//DTD SVG 1.1//EN" "http://www.w3.org/Graphics/SVG/1.1/DTD/svg11.dtd">
<svg version="1.1" id="Layer_1" xmlns="http://www.w3.org/2000/svg" xmlns:xlink="http://www.w3.org/1999/xlink" x="0px" y="0px"
	 width="578.5px" height="578.5px" viewBox="0 -506.5 578.5 578.5" enable-background="new 0 -506.5 578.5 578.5"
	 xml:space="preserve">
<g>
	<path fill="#265E6B" d="M526.31-250.289c-18.858,0-33.774,12.384-35.037,13.65c-0.705,0.701-1.263,1.266-1.263,1.967
		c-35.037,44.753-95.974,118.624-111.587,127.065c-2.541,1.271-14.917,6.475-58.962,6.475c-13.081,0-25.612-0.565-35.037-1.131
		c-2.11-0.14-3.799-1.967-3.799-4.074l0,0c0-2.254,1.688-3.95,3.941-4.089c26.027-0.836,70.637-4.5,94.553-18.711
		c37.013-22.088,31.801-62.896,31.801-64.158c-0.697-6.475-6.467-10.982-12.941-10.982H128.795c-3.233,0-6.471,1.266-9.146,3.942
		L6.938-86.214C4.406-84.248,3-80.452,3-77.076c0,3.237,1.266,6.475,3.938,9.154L130.767,53.37c2.532,2.533,5.77,3.942,9.146,3.942
		c0,0,0,0,0.705,0c3.233,0,7.175-1.975,9.146-4.508l54.593-60.224c0.705-0.844,1.832-1.409,2.959-1.409h208.955
		c3.803,0,7.598-1.828,10.13-4.36c0.147-0.14,0.287-0.287,0.427-0.426l138.74-171.524c0.14-0.139,0.279-0.426,0.558-0.565
		c3.237-2.672,6.9-7.737,7.466-14.064c1.968-10.979-3.237-22.658-14.916-35.603C549.668-245.084,538.555-250.289,526.31-250.289z
		 M546.431-203.01L410.78-35.981c-0.697,0.983-1.967,1.549-3.09,1.549H198.87c-3.938,0-7.175,1.262-9.708,4.5l-47.139,51.921
		c-1.549,1.688-4.221,1.835-5.909,0.147l-99.06-96.671c-1.689-1.549-1.689-4.229,0-5.778l96.384-96.384
		c0.704-0.705,1.831-1.123,2.815-1.123h243.578c2.664,0,4.64,2.533,3.935,5.205c-2.246,7.458-7.172,15.761-17.589,22.088
		c-20.121,11.679-70.075,14.917-96.671,14.917h-1.266l0,0c-7.176,0-12.946,5.777-12.946,12.949l-0.7,32.358
		c0,7.179,5.204,12.949,12.38,12.949c1.267,0,25.891,1.967,53.191,1.967c48.684,0,64.166-5.762,71.346-9.704
		c23.916-13.515,99.613-109.055,117.628-132.553c0.14-0.279,0.426-0.562,0.705-0.701c3.376-2.676,10.277-6.757,16.465-6.757
		c3.237,0,7.737,0.705,12.942,6.475c4.646,5.205,7.039,8.864,7.884,11.396c0.418,1.127,0.278,2.254-0.14,3.377
		C546.856-203.572,546.718-203.289,546.431-203.01z"/>
	<g>
		<path fill="#265E6B" d="M362.801-439.828c7.459,0,15.482,2.25,24.063,6.753c12.376,6.614,19.843,14.495,22.653,24.342
			c4.926,16.887-3.941,35.742-6.188,40.246l-1.688,2.25L299.905-247.051L197.747-366.376c-0.282-0.422-0.565-0.705-0.844-1.126
			c-0.565-0.844-1.409-1.828-1.971-2.815l0,0c-2.254-4.643-9.852-22.088-5.065-37.992c2.954-9.987,10.552-18.011,23.215-24.625
			c8.585-4.5,16.605-6.753,24.063-6.753c25.047,0,40.808,26.878,41.791,28.566l20.969,40.947l21.104-41.09
			C321.854-412.81,337.755-439.828,362.801-439.828 M321.01-411.265L321.01-411.265L321.01-411.265 M362.801-463.748
			c-40.807,0-62.756,41.086-62.756,41.086s-22.092-41.086-62.899-41.086c-10.553,0-22.231,2.672-35.32,9.569
			c-60.507,32.079-30.112,91.041-27.297,96.384c0.14,0.283,4.221,5.63,4.082,5.63c0,0-0.144-0.139-0.423-0.422l118.62,138.601
			c0.844,0.984,1.967,1.406,3.098,1.406c1.123,0,2.246-0.422,3.099-1.406L420.492-351.18l3.098-4.36
			c0.558-0.984,37.71-65.01-25.611-98.638C385.036-460.936,373.357-463.748,362.801-463.748L362.801-463.748z M178.188-352.586
			L178.188-352.586L178.188-352.586L178.188-352.586z"/>
	</g>
</g>
</svg>
