<?xml version="1.0" encoding="utf-8"?>
<!-- Generator: Adobe Illustrator 16.0.4, SVG Export Plug-In . SVG Version: 6.00 Build 0)  -->
<!DOCTYPE svg PUBLIC "-//W3C//DTD SVG 1.1//EN" "http://www.w3.org/Graphics/SVG/1.1/DTD/svg11.dtd">
<svg version="1.1" id="Layer_1" xmlns="http://www.w3.org/2000/svg" xmlns:xlink="http://www.w3.org/1999/xlink" x="0px" y="0px"
	 width="499.834px" height="499.834px" viewBox="0 0 499.834 499.834" enable-background="new 0 0 499.834 499.834"
	 xml:space="preserve">
<title>139all</title>
<path fill="#59968A" d="M206.546,352.121h12.415l100.993,111.071c5.515,6.066,14.761,6.484,20.833,0.962
	c2.211-2.07,3.724-4.692,4.414-7.586l24.146-104.447h63.743c32.554,0,58.91-26.35,58.91-58.904l-0.14-230.824
	c0-32.562-26.349-58.914-58.91-58.914H62.92C30.222,3.343,3.87,29.695,3.87,62.253v183.355l-0.275,29.529v17.939
	c0,32.562,26.353,58.911,58.911,58.911h114.517L206.546,352.121z M462.479,293.217c0,16.274-13.248,29.521-29.528,29.521h-75.471
	c-6.896,0-12.829,4.686-14.342,11.449l-20.29,88.3l-86.501-94.924c-2.762-3.033-6.76-4.825-10.901-4.825H62.92
	c-16.281,0-29.525-13.247-29.525-29.521V62.253c0-16.28,13.244-29.525,29.525-29.525h370.17c16.28,0,29.528,13.245,29.528,29.525
	L462.479,293.217L462.479,293.217z"/>
<path fill="#59968A" d="M391.833,206.431H96.998c-8.141,0-14.761,6.624-14.761,14.764c0,8.141,6.62,14.761,14.761,14.761h294.835
	c8.144,0,14.768-6.62,14.768-14.761C406.601,212.915,399.977,206.431,391.833,206.431z"/>
<path fill="#59968A" d="M391.833,117.855h-88.438H185.437H96.998c-8.141,0-14.761,6.624-14.761,14.764
	c0,8.138,6.62,14.761,14.761,14.761h88.438h117.958h88.438c8.144,0,14.768-6.623,14.768-14.761
	C406.601,124.479,399.977,117.855,391.833,117.855z"/>
</svg>
