<?xml version="1.0" encoding="utf-8"?>
<!-- Generator: Adobe Illustrator 16.0.4, SVG Export Plug-In . SVG Version: 6.00 Build 0)  -->
<!DOCTYPE svg PUBLIC "-//W3C//DTD SVG 1.1//EN" "http://www.w3.org/Graphics/SVG/1.1/DTD/svg11.dtd">
<svg version="1.1" id="Layer_1" xmlns="http://www.w3.org/2000/svg" xmlns:xlink="http://www.w3.org/1999/xlink" x="0px" y="0px"
	 width="1584px" height="677.333px" viewBox="0 265.167 1584 677.333" enable-background="new 0 265.167 1584 677.333"
	 xml:space="preserve">
<g>
	<g>
		<defs>
			<path id="SVGID_1_" d="M1147.247,430.604l-62.445-128.48H986.47c-0.227,1.179,15.9,16.51,15.9,16.51h65.922v113.858
				l78.955,110.475V430.604z"/>
		</defs>
		<clipPath id="SVGID_2_">
			<use xlink:href="#SVGID_1_"  overflow="visible"/>
		</clipPath>
		<g transform="matrix(1 0 0 1 6.103516e-05 3.051758e-05)" clip-path="url(#SVGID_2_)">
			
				<image overflow="visible" enable-background="new    " width="5119" height="3413" xlink:href="C9CCC93E46CC8E32.jpeg"  transform="matrix(0.0766 0 0 0.0766 920.0751 301.7216)">
			</image>
		</g>
	</g>
</g>
<g>
	<g>
		<defs>
			<path id="SVGID_3_" d="M15.347,478.454l116.602,0.938c0,0-13.018-81.835,56.137-86.976
				c29.533-2.195,131.919,76.634-112.561,210.158L15.347,478.454z"/>
		</defs>
		<clipPath id="SVGID_4_">
			<use xlink:href="#SVGID_3_"  overflow="visible"/>
		</clipPath>
		<g clip-path="url(#SVGID_4_)">
			
				<image overflow="visible" enable-background="new    " width="1000" height="665" xlink:href="C9CCC93E46CC8E36.jpeg"  transform="matrix(0.3928 0 0 0.3928 -43.7627 353.8564)">
			</image>
		</g>
	</g>
</g>
<path fill="none" d="M608.559,532.528c-10.529,0-15.791,9.095-15.791,27.274v129.915c10.52-4.775,15.791-13.391,15.791-25.84
	V532.528z"/>
<g>
	<g>
		<defs>
			<path id="SVGID_5_" d="M333.847,427.076c3.448,49.17-14.688,88.517-43.896,117.67c-1.437,1.435-9.102,7.057-22.985,16.845
				c-13.894,9.8-34.476,23.776-61.769,41.93c-16.766,11.467-27.468,23.784-37.766,36.927c-9.222,11.771-15.252,24.403-18.146,37.895
				l185.143,0.182c29.515-32.787,61.279-93.979,61.328-144.108c-0.398-185.9-96.25-248.386-206.763-243.808
				C150.578,292.199,323.489,279.352,333.847,427.076z"/>
		</defs>
		<clipPath id="SVGID_6_">
			<use xlink:href="#SVGID_5_"  overflow="visible"/>
		</clipPath>
		<g transform="matrix(1 5.820766e-11 -5.820766e-11 1 7.629395e-06 -3.051758e-05)" clip-path="url(#SVGID_6_)">
			
				<image overflow="visible" enable-background="new    " width="1000" height="667" xlink:href="C9CCC93E46CC8E36.jpeg"  transform="matrix(0.3405 3.309989e-04 -3.309989e-04 0.3405 124.958 498.3077)">
			</image>
		</g>
	</g>
</g>
<rect x="19.411" y="777.205" fill="none" width="133.214" height="0.08"/>
<g>
	<g>
		<defs>
			<path id="SVGID_7_" d="M333.673,427.011c3.496,49.167-14.602,88.531-43.783,117.713c-1.436,1.438-9.095,7.066-22.968,16.867
				c-13.884,9.814-34.453,23.811-61.728,41.99c-16.755,11.483-27.445,23.81-37.73,36.963c-9.21,11.78-15.229,24.419-18.11,37.912
				h185.143c29.482-32.815,61.188-94.038,61.188-144.167c-0.579-185.899-96.491-248.292-207-243.607
				C150.272,292.313,323.172,279.298,333.673,427.011z"/>
		</defs>
		<clipPath id="SVGID_8_">
			<use xlink:href="#SVGID_7_"  overflow="visible"/>
		</clipPath>
		<g id="YIRjohn_x5F_brennano.tif" clip-path="url(#SVGID_8_)">
			
				<image overflow="visible" enable-background="new    " width="2029" height="1349" id="YIRjohn_x5F_brennano" xlink:href="C9CCC93E46CC8E32.jpeg"  transform="matrix(0.18 0 0 0.1805 118.8018 279.4395)">
			</image>
		</g>
	</g>
</g>
<path fill="none" d="M1489.991,517.609l15.893,20.409C1501.749,530.258,1496.451,523.455,1489.991,517.609z"/>
<g>
	<g>
		<defs>
			<path id="SVGID_9_" d="M1345.417,557.43h-17.944c-30.148,1.092-42.33,17.288-45.221,30.729c-4.858,22.604-4.858,56.444,0,79.987
				c2.823,13.675,26.537,42.899,39.572,47.928c19.51,7.522,33.201,0,39.829,0l-0.446-69.98c0-7.027,4.292-10.862,10.92-12.136
				c4.596-0.886,19.942,0,19.942,0v-45.799C1392.069,574.41,1376.513,558.521,1345.417,557.43z"/>
		</defs>
		<clipPath id="SVGID_10_">
			<use xlink:href="#SVGID_9_"  overflow="visible"/>
		</clipPath>
		<g transform="matrix(1 0 0 1 1.220703e-04 0)" clip-path="url(#SVGID_10_)">
			
				<image overflow="visible" enable-background="new    " width="1000" height="667" xlink:href="C9CCC93E46CC8E32.jpeg"  transform="matrix(0.2536 0 0 0.2536 1231.2909 550.249)">
			</image>
		</g>
	</g>
</g>
<g>
	<g>
		<defs>
			<path id="SVGID_11_" d="M1308.47,357.783h-23.554c-28.56,2.577-42.859,16.304-42.859,41.223v91.874
				c24.877-20.098,56.729-31.544,95.463-30.146c23.873,0.861,44.365,5.817,61.958,13.113l-46.885-46.849
				C1352.593,426.275,1356.348,359.699,1308.47,357.783z"/>
		</defs>
		<clipPath id="SVGID_12_">
			<use xlink:href="#SVGID_11_"  overflow="visible"/>
		</clipPath>
		<g transform="matrix(1 0 0 1 1.220703e-04 0)" clip-path="url(#SVGID_12_)">
			
				<image overflow="visible" enable-background="new    " width="1000" height="667" xlink:href="C9CCC93E46CC8E3E.jpeg"  transform="matrix(0.2008 0 0 0.2008 1202.7225 356.9277)">
			</image>
		</g>
	</g>
</g>
<g>
	<g>
		<defs>
			<path id="SVGID_13_" d="M1551.081,502.722c-1.917-18.416-59.312-156.191-87.208-182.624
				c-9.645-9.139-19.312-16.591-28.735-22.716c0,0,28.735,22.716,39.1,57.501c0.177,0.588,0,72.115,0,72.115h-101.878l46.884,46.849
				c69.738,28.926,93.104,95.269,93.104,95.269h41.605C1553.952,543.275,1552.988,521.148,1551.081,502.722z"/>
		</defs>
		<clipPath id="SVGID_14_">
			<use xlink:href="#SVGID_13_"  overflow="visible"/>
		</clipPath>
		<g transform="matrix(1 -3.725290e-09 3.725290e-09 1 0 -3.051758e-05)" clip-path="url(#SVGID_14_)">
			
				<image overflow="visible" enable-background="new    " width="1711" height="1141" xlink:href="C9CCC93E46CC8E3E.jpeg"  transform="matrix(0.2986 -0.0132 0.0141 0.3195 1226.4893 283.2081)">
			</image>
		</g>
	</g>
</g>
<g>
	<g>
		<defs>
			<polygon id="SVGID_15_" points="422.44,812.455 344.204,703.15 344.204,777.285 230.854,777.285 371.536,917.967 422.44,917.967 
							"/>
		</defs>
		<clipPath id="SVGID_16_">
			<use xlink:href="#SVGID_15_"  overflow="visible"/>
		</clipPath>
		<g id="YIR_x5F_chance_x5F_fling.tif" clip-path="url(#SVGID_16_)">
			
				<image overflow="visible" enable-background="new    " width="4383" height="2926" id="YIR_x5F_chance_x5F_fling" xlink:href="C9CCC93E46CC8E32.jpeg"  transform="matrix(0.074 0 0 0.0739 131.647 702.5361)">
			</image>
		</g>
	</g>
</g>
<g>
	<g>
		<defs>
			<polygon id="SVGID_17_" points="173.756,777.285 170.933,777.285 40.542,777.285 40.542,777.205 24.752,777.205 24.752,793.794 
				88.633,917.967 170.933,917.967 173.756,917.967 371.536,917.967 230.854,777.285 			"/>
		</defs>
		<clipPath id="SVGID_18_">
			<use xlink:href="#SVGID_17_"  overflow="visible"/>
		</clipPath>
		<g id="YIR_x5F_olivia_x5F_kong.tif_1_" clip-path="url(#SVGID_18_)">
			
				<image overflow="visible" enable-background="new    " width="5275" height="3512" id="YIR_x5F_olivia_x5F_kong" xlink:href="C9CCC93E46CC8E32.jpeg"  transform="matrix(0.073 0 0 0.0731 5.5903 703.1504)">
			</image>
		</g>
	</g>
</g>
<path fill="none" d="M608.559,533.185v-0.656c-1.602,0-3.064,0.236-4.423,0.656H608.559z"/>
<g>
	<g>
		<defs>
			<path id="SVGID_19_" d="M513.814,432.759v231.119c0,30.628,39.57,49.374,39.57,49.374s33.202,0,39.83,0l-0.447-153.449
				c0-11.593,2.431-19.221,6.453-23.479l-77.67-133.829C516.398,410.212,513.814,420.295,513.814,432.759z"/>
		</defs>
		<clipPath id="SVGID_20_">
			<use xlink:href="#SVGID_19_"  overflow="visible"/>
		</clipPath>
		<g id="YIR_x5F_drunkdisruption.tif" clip-path="url(#SVGID_20_)">
			
				<image overflow="visible" enable-background="new    " width="1002" height="669" id="YIR_x5F_drunkdisruption" xlink:href="2A9916003B908D85.jpeg"  transform="matrix(0.4755 0 0 0.4751 276.8623 402.4941)">
			</image>
		</g>
	</g>
</g>
<g>
	<g>
		<defs>
			<path id="SVGID_21_" d="M576.978,383.951h-17.944c-17.684,1.408-30.172,7.592-37.482,18.543l77.67,133.829
				c1.327-1.405,2.826-2.445,4.469-3.139c4.596-1.938,19.942,0,19.942,0V432.759C623.632,402.611,608.077,386.35,576.978,383.951z"
				/>
		</defs>
		<clipPath id="SVGID_22_">
			<use xlink:href="#SVGID_21_"  overflow="visible"/>
		</clipPath>
		<g transform="matrix(1 0 0 1 -3.051758e-05 0)" clip-path="url(#SVGID_22_)">
			
				<image overflow="visible" enable-background="new    " width="1000" height="667" xlink:href="2A9916003B908D9B.jpeg"  transform="matrix(0.2291 0 0 0.2291 436.919 384.4014)">
			</image>
		</g>
	</g>
</g>
<g>
	<g>
		<defs>
			<path id="SVGID_23_" d="M576.979,786.615h-17.945c-123.188-11.537-164.768-109.053-164.768-109.053
				c0.987,4.829,8.104,109.834,97.193,198.923c0.293,0.292,22.467,21.385,35.633,28.562c13.155,7.179,28.588,12.562,46.295,16.148
				c17.697,3.59,38.761,5.855,63.164,6.82c77.668-4.158,129.39-28.282,155.18-72.359l-96.45-107.005
				C669.33,772.493,629.901,785.152,576.979,786.615z"/>
		</defs>
		<clipPath id="SVGID_24_">
			<use xlink:href="#SVGID_23_"  overflow="visible"/>
		</clipPath>
		<g id="SprintFootballYearInReview_x28_NickBuchta_x29_.tif" clip-path="url(#SVGID_24_)">
			
				<image overflow="visible" enable-background="new    " width="1004" height="668" id="SprintFootballYearInReview_x28_NickBuchta_x29_" xlink:href="2A9916003B908D9D.jpeg"  transform="matrix(0.5614 0 0 0.5611 268.9575 676.5303)">
			</image>
		</g>
	</g>
</g>
<g>
	<g>
		<defs>
			<path id="SVGID_25_" d="M804.506,523.914c-1.184-4.076-2.478-8.192-3.859-12.341c-3.648-10.946-7.979-22.146-13.005-33.596
				c-6.941-15.79-14.717-31.815-23.327-48.09c-8.615-16.262-17.227-32.534-25.841-48.808c-8.142-14.826-17.226-27.633-27.274-38.399
				c-10.048-10.767-21.656-19.74-34.812-26.917c-0.364-0.2-0.745-0.383-1.112-0.578c0,0,57.472,36.994,57.458,124.035v53.042
				v156.544c0,43.639-12.491,76.915-37.452,99.848l96.449,107.005c12.82-21.911,19.238-48.749,19.238-80.525v-209.59
				C810.969,552.625,808.814,538.752,804.506,523.914z"/>
		</defs>
		<clipPath id="SVGID_26_">
			<use xlink:href="#SVGID_25_"  overflow="visible"/>
		</clipPath>
		<g id="yir-dnc-alex.tif" clip-path="url(#SVGID_26_)">
			
				<image overflow="visible" enable-background="new    " width="6006" height="4002" id="yir-dnc-alex" xlink:href="2A9916003B908D9F.jpeg"  transform="matrix(0.138 0 0 0.138 158.8164 315.1836)">
			</image>
		</g>
	</g>
</g>
<g>
	<g>
		<defs>
			<polygon id="SVGID_27_" points="963.5,777.285 963.5,777.193 947.709,777.193 947.709,793.794 1011.59,917.967 1145.996,917.967 
				1066.954,777.285 			"/>
		</defs>
		<clipPath id="SVGID_28_">
			<use xlink:href="#SVGID_27_"  overflow="visible"/>
		</clipPath>
		<g id="YIR_x5F_HillaryatPenn.tif" clip-path="url(#SVGID_28_)">
			
				<image overflow="visible" enable-background="new    " width="5214" height="3488" id="YIR_x5F_HillaryatPenn" xlink:href="2A9916003B908D9D.jpeg"  transform="matrix(0.0538 0 0 0.0536 926.7344 762.2324)">
			</image>
		</g>
	</g>
</g>
<g>
	<g>
		<defs>
			<polygon id="SVGID_29_" points="963.5,434.45 876.649,434.45 876.649,452.855 963.5,586.085 			"/>
		</defs>
		<clipPath id="SVGID_30_">
			<use xlink:href="#SVGID_29_"  overflow="visible"/>
		</clipPath>
		<g id="YIR_x5F_arifrosch_1_" clip-path="url(#SVGID_30_)">
			
				<image overflow="visible" enable-background="new    " width="1005" height="637" id="YIR_x5F_arifrosch" xlink:href="2A9916003B908D9B.jpeg"  transform="matrix(0.2672 0 0 0.2664 785.8438 416.417)">
			</image>
		</g>
	</g>
</g>
<g>
	<g>
		<defs>
			<polygon id="SVGID_31_" points="1068.292,432.492 1068.292,777.285 1066.954,777.285 1145.996,917.967 1147.247,917.967 
				1147.247,542.967 			"/>
		</defs>
		<clipPath id="SVGID_32_">
			<use xlink:href="#SVGID_31_"  overflow="visible"/>
		</clipPath>
		<g id="MensCrossCountryYearInReview_x28_MichelleOzer_x29_.tif" clip-path="url(#SVGID_32_)">
			
				<image overflow="visible" enable-background="new    " width="1004" height="704" id="MensCrossCountryYearInReview_x28_MichelleOzer_x29_" xlink:href="2A9916003B908D85.jpeg"  transform="matrix(0.7052 0 0 0.7043 513.8145 427.3066)">
			</image>
		</g>
	</g>
</g>
<g>
	<g>
		<defs>
			<path id="SVGID_33_" d="M1411.312,783.017c-18.355,7.646-40.532,12.133-67.278,12.297h-17.228
				c-119.004-1.193-163.059-113.98-163.059-113.98c1.115,8.573,12.239,165.542,129.682,233.488
				c31.912,18.463,77.159,20.458,98.693,21.893h13.637c82.292-5.274,134.343-32.911,156.155-82.897L1411.312,783.017z"/>
		</defs>
		<clipPath id="SVGID_34_">
			<use xlink:href="#SVGID_33_"  overflow="visible"/>
		</clipPath>
		<g clip-path="url(#SVGID_34_)">
			
				<image overflow="visible" enable-background="new    " width="1000" height="667" xlink:href="2A9916003B908D87.jpeg"  transform="matrix(0.5407 0 0 0.5407 1098.2695 681.332)">
			</image>
		</g>
	</g>
</g>
<g>
	<g>
		<defs>
			<path id="SVGID_35_" d="M1574.14,791.007v-68.188c0-11.002-0.245-28.088-0.716-34.312
				c-0.481-6.215-88.563-138.261-88.563-138.261c6.34,11.901,42.183,184.75-73.124,232.769l150.603,70.799
				C1570.205,835.786,1574.14,814.851,1574.14,791.007z"/>
		</defs>
		<clipPath id="SVGID_36_">
			<use xlink:href="#SVGID_35_"  overflow="visible"/>
		</clipPath>
		<g clip-path="url(#SVGID_36_)">
			
				<image overflow="visible" enable-background="new    " width="1000" height="667" xlink:href="2A9916003B908D85.jpeg"  transform="matrix(0.4779 0 0 0.4779 1210 550.25)">
			</image>
		</g>
	</g>
</g>
</svg>
