<?xml version="1.0" encoding="utf-8"?>
<!-- Generator: Adobe Illustrator 22.1.0, SVG Export Plug-In . SVG Version: 6.00 Build 0)  -->
<svg version="1.1" id="Layer_1" xmlns="http://www.w3.org/2000/svg" xmlns:xlink="http://www.w3.org/1999/xlink" x="0px" y="0px"
	 viewBox="0 0 133.9646606 78.7948227" style="enable-background:new 0 0 133.9646606 78.7948227;" xml:space="preserve">
<style type="text/css">
	.st0{fill:#4153A4;}
	.st1{fill:#121245;}
	.st2{fill:#ABB8DE;}
	.st3{fill:#2C2C81;}
	.st4{clip-path:url(#SVGID_2_);fill:#4853A4;}
	.st5{clip-path:url(#SVGID_2_);}
	.st6{fill:#B8BBD8;}
	.st7{fill:#EDEDF5;}
	.st8{fill:none;stroke:#121245;stroke-miterlimit:10;}
	.st9{fill:none;stroke:#121245;stroke-miterlimit:10;stroke-dasharray:4.1037498,4.1037498;}
	.st10{fill:#3E54A3;}
	.st11{fill:none;stroke:#121245;stroke-miterlimit:10;stroke-dasharray:3.9702759,3.9702759;}
	.st12{fill:#FFFFFF;}
</style>
<g>
	<path class="st10" d="M62.7664566,73.1425934c-0.157177-0.1017609-0.3160934-0.2009506-0.4712181-0.305748
		c-0.5734787-0.3874283-0.8621101-0.9381485-0.7833595-1.617157c0.0568199-0.4899063-0.1364441-0.5524673-0.5562973-0.5515137
		c-5.0870705,0.0115509-10.1741714,0.007515-15.2612686,0.0069962c-0.6090508-0.000061-0.6104584-0.0015335-0.6105232-0.5964661
		c-0.0007133-6.4838371-0.000927-12.9676704-0.0013542-19.4515076c-0.0000458-0.6573715-0.0002975-0.6573677-0.6341553-0.7068634
		c-1.2977371-0.101326-2.0640259-1.4740906-1.4704475-2.6342239c0.3655777-0.7145004,0.3194199-1.6772575-0.3110886-2.1183739
		c-0.4647827-0.3251686-1.104393-0.5051231-1.7516212-0.3571472c-1.3212128,0.3020782-2.4008675-0.6540756-2.2412376-1.9976654
		c0.0346718-0.2918129,0.1817398-0.5889015,0.3430672-0.8413696c0.1384659-0.2166862,0.1609497-0.3408241-0.0449715-0.5148315
		c-0.4849777-0.4097939-0.6746178-0.9443245-0.6090698-1.5744514c0.008667-0.0833054,0.0179558-0.206646-0.0292435-0.2493858
		c-0.4153442-0.3761177-0.7902756-0.8529663-1.2793083-1.0793762c-0.8908997-0.4124565-1.34832-0.976902-1.3118439-1.9640846
		c0.0287361-0.7777405,0.5723686-1.3556633,1.4473534-1.6127052c0.2673645-0.0785446,0.5113754-0.2620583,0.7430267-0.4294128
		c0.2244492-0.1621475,0.4192619-0.3653221,0.6671066-0.5861244c-0.0961914-0.1036682-0.1861534-0.2106476-0.286335-0.3070183
		c-0.8525276-0.8200989-0.8098335-2.0767784,0.1177635-2.8001518c0.2330284-0.1817265,0.3258591-0.3722286,0.3403969-0.6634293
		c0.0261307-0.5233536,0.0651436-1.0153217-0.1035423-1.5511646c-0.4064255-1.2910595,0.6072731-2.4357414,1.9531479-2.297514
		c0.085228,0.0087547,0.1705627,0.0164261,0.2511711,0.0241528c0.1150169-0.3338223,0.1485634-0.7130032,0.3501091-0.948246
		c0.2824593-0.3296833,0.6945457-0.5464802,1.0421143-0.8229675c0.1813316-0.144249,0.3858833-0.2859783,0.5057259-0.4757252
		c0.32407-0.5131035,0.4790039-1.0677719,0.4869232-1.6981983c0.0085754-0.6827393,0.6326485-1.3161526,1.3516388-1.4333057
		c0.4120102-0.0671349,0.4804802-0.2516136,0.4796982-0.6120758c-0.0090179-4.1608105-0.0059967-8.3216486-0.0061684-12.4824791
		c-0.0000114-0.2893329,0-0.5786662,0-0.9157715c0.2486992,0,0.4360313-0.0000005,0.6233559,0
		c10.056591,0.0000219,20.1131973,0.0059576,30.1697388-0.0152211c0.578598-0.0012183,0.9848557,0.1659002,1.3878632,0.5515118
		c3.0003815,2.870862,6.0183563,5.72334,9.0158157,8.5972223c0.1754532,0.1682224,0.3124619,0.4719276,0.313179,0.7130451
		c0.0174866,5.8515816,0.0173569,11.7032337,0.0015488,17.554821c-0.0006104,0.227169-0.1316833,0.5126953-0.2974854,0.6709366
		c-0.9007034,0.859623-1.8250046,1.6950378-2.7558517,2.5222778c-0.2739029,0.2434196-0.2625809,0.3923492,0.0278549,0.6096992
		c0.9631348,0.7207642,1.9155655,1.4561539,2.8608017,2.2002831c0.220787,0.1738167,0.4146652,0.1971931,0.6790466,0.113636
		c1.1421051-0.3609619,2.0576172,0.1770287,2.4187698,1.3146667c0.1068115,0.3364372,0.4528122,0.590538,0.6528625,0.9054489
		c0.2326813,0.366272,0.5406952,0.458519,0.9607315,0.4555702c0.682312-0.0047836,1.2890854,0.5390816,1.5478973,1.2439384
		c0.0745316,0.2029915,0.2147675,0.4148674,0.3846436,0.5441589c0.7586441,0.5774117,1.024437,1.3718643,0.6470566,2.2575645
		c-0.2474899,0.5808449,0.0150681,1.1281242,0.015274,1.6901665c0.0000381,0.0909195,0.1638489,0.1910515,0.2644653,0.2712212
		c0.9667892,0.7703285,1.0168076,2.0385284,0.0837173,2.8596191c-0.2495728,0.2196236-0.1954727,0.3226509,0.016861,0.5054474
		c0.4438858,0.3821449,0.8772202,0.7256508,1.4790115,0.8905907c0.7552338,0.2070007,1.1466827,0.9215279,1.1298218,1.7510986
		c-0.0151138,0.743618-0.4632263,1.4316483-1.200882,1.618412c-0.6609726,0.1673431-0.8955002,0.7726097-1.3675919,1.1239891
		c-0.0627213,0.0466843-0.0480957,0.219429-0.0422592,0.3324013c0.0306244,0.5924034-0.1428909,1.1080589-0.5934219,1.5006866
		c-0.2301178,0.2005348-0.2204742,0.3485374-0.0443954,0.5887566c0.4323425,0.5898132,0.4380722,1.4430275,0.0550766,2.0321083
		c-0.4242706,0.6525688-1.1291504,0.982914-1.9075317,0.7759132c-0.6293182-0.1673622-1.1759415,0.0892067-1.7094345,0.2662773
		c-0.2708054,0.0898895-0.5040207,0.5429497-0.5908813,0.8746147c-0.1115112,0.4257431-0.1161652,0.8839874,0.1385727,1.3210678
		c0.4222107,0.7244186,0.2329788,1.620285-0.4052048,2.2027512c-0.5862732,0.5350723-1.4945145,0.6201782-2.1588669,0.1631088
		c-0.5328217-0.3665543-1.1385193-0.194519-1.7073212-0.2853775c-0.0694504-0.0110855-0.1693649,0.1005096-0.239212,0.1710358
		c-0.4208832,0.4250107-0.9310379,0.5873642-1.5207214,0.5492859c-0.6547012-0.0422821-1.1289978,0.2820206-1.378418,0.86483
		c-0.1984177,0.4636536-0.3203735,0.9103546-0.2903824,1.4364166c0.0465851,0.8171921-0.4068298,1.3801727-1.1573334,1.6968384
		c-0.6244278,0.2634735-1.4412842,0.1364746-1.8897018-0.4364929c-0.4093094-0.5230103-0.9583969-0.7490387-1.5146942-0.9963837
		c-0.1264725-0.0562363-0.3146515-0.0564804-0.4453354-0.0064697c-0.6489334,0.2483749-1.2563629,0.2112579-1.8575058-0.1520615
		c-0.1635361-0.0988388-0.3840103-0.1430283-0.5788193-0.1443329c-1.6907272-0.0113144-3.3815765-0.0031357-5.0723343-0.0118408
		c-0.2560272-0.0013199-0.4759674,0.0299377-0.5763397,0.2913742c-0.4272766,1.1128845-1.4003754,1.3606873-2.4198151,1.558342
		c-0.7332458,0.1421585-1.4600754,0.3179245-2.1879425,0.4865952c-0.0801277,0.0185699-0.1481819,0.0892487-0.2218361,0.1357574
		C63.4722137,73.1425934,63.1193352,73.1425934,62.7664566,73.1425934z M85.8862228,57.2726631
		c-0.1227036,0.230442-0.2453995,0.4608765-0.3680954,0.6913185c-0.9729004,1.4647636-2.361969,2.4320221-3.9213257,3.2471733
		c0.0269241-0.2935753,0.091156-0.7400513,0.2307739-0.7650185c0.6033325-0.1079063,1.0721512-0.3760719,1.5544662-0.7493553
		c1.0657883-0.8248672,1.3219452-1.888279,0.6548233-3.0410576c-0.1299515-0.2245598-0.197258-0.5156708-0.1999741-0.7770615
		c-0.0052032-0.5008163-0.2561798-0.7069092-0.7329254-0.5091896c-0.3069382,0.1273003-0.5977783,0.2933769-0.7876129,0.3880882
		c-0.5371475-0.3936577-1.030365-0.7224617-1.4841537-1.0988159c-0.3189392-0.2645302-0.5670471-0.6136322-0.8811417-0.885231
		c-0.1432648-0.1238823-0.3772583-0.2189331-0.5551987-0.1983299c-0.1082535,0.0125313-0.2797699,0.280674-0.2648697,0.416687
		c0.0660248,0.6025658-0.2261124,1.0732307-0.469986,1.5749702c-0.1447525,0.2978363-0.2802658,0.6242981-0.3090973,0.947773
		c-0.0305939,0.34338-0.1423492,0.4273224-0.4726562,0.4548988c-0.3426056,0.0286026-0.674942,0.1802025-1.0117722,0.2780113
		c-0.1799545,0.2765312-0.1672592,0.3335419,0.2281418,0.3993149c0.4819412,0.0801811,0.823204,0.3467827,0.8422241,0.8072166
		c0.022049,0.5339699,0.3619461,0.9622803,0.414711,1.4341812c0.0971451,0.8689537,0.5758667,1.0812492,1.3082809,1.0394669
		c0.3377228-0.019268,0.6723862-0.0923119,1.0084381-0.1409721c0.1056366-0.0219574,0.2112808-0.0439148,0.3658829-0.076046
		c-0.0307388,0.5718803-0.1030807,1.0392761-0.6667023,1.2672043c-1.2880554,0.520874-2.5657959,1.0680046-3.8616028,1.5685501
		c-0.452858,0.1749344-0.9464111,0.2445335-1.4213791,0.3622322c-0.0316772-0.0451851-0.0633621-0.0903778-0.095047-0.1355667
		c0.100975-0.1278267,0.1964569-0.3607063,0.3038177-0.3663177c0.6633606-0.0346642,1.1200867-0.4157295,1.6208267-0.7912979
		c0.9511032-0.7133331,1.2192688-1.8090668,0.6502533-2.8455734c-0.1516418-0.2762337-0.2223663-0.61866-0.2475433-0.937233
		c-0.0341263-0.4318924-0.281105-0.6467018-0.698349-0.4924393c-0.2452621,0.0906754-0.4652328,0.2540283-0.7132339,0.3311768
		c-0.1202164,0.0374069-0.3087387-0.0076828-0.4143448-0.0857544c-0.3359375-0.2483521-0.6249695-0.5646553-0.9741211-0.7895012
		c-0.4349136-0.2800751-0.8488693-0.5505905-1.1188583-1.0197525c-0.0827713-0.1438255-0.3593521-0.2706566-0.5205612-0.2440529
		c-0.1228485,0.0202827-0.2941513,0.2993507-0.2870712,0.456192c0.0267029,0.5907555-0.1944504,1.0851974-0.477066,1.5731049
		c-0.1019592,0.176033-0.174942,0.3688469-0.2611389,0.5540009c-0.0396118,0.0601387-0.116745,0.1227074-0.1130295,0.1800385
		c0.0364075,0.5609589-0.3098297,0.6047668-0.7475891,0.6253967c-0.2600479,0.0122566-0.6142044-0.0401268-0.7244797,0.3440514
		c0.0218582,0.1696358-0.0178223,0.3968887,0.0770264,0.4981766c0.2939072,0.3138542,0.3067322,0.6783714,0.3188248,1.0653915
		c0.03508,1.122097,0.8567734,1.9457283,1.9877319,1.9863167c0.5459442,0.0195961,1.0931778,0.0033836,1.6398239,0.0033836
		c0.0221405,0.0327225,0.0442734,0.0654373,0.0664139,0.0981598c-0.1851425,0.1307907-0.352478,0.3119583-0.5581589,0.3846588
		c-2.2640457,0.8002548-4.3822632,1.8910675-6.3759766,3.218895c-1.3556061,0.9028397-2.6554031,1.8832397-3.6965485,3.1584473
		c-0.1289482,0.1579361-0.2236481,0.3438263-0.3656807,0.5659866c0.2091522,0,0.3278084,0.0191727,0.4381409-0.0030365
		c0.8918877-0.179512,1.7852974-0.353775,2.6703148-0.563118c0.1687775-0.0399323,0.3324585-0.2044449,0.4473648-0.3514481
		c0.5305786-0.6788025,0.9705887-1.4444962,1.5749893-2.0466156c2.2525711-2.2440567,5.0744934-3.3671188,8.1442947-3.9506836
		c0.0946503-0.0179901,0.2100525,0.073143,0.3157806,0.1133957c-0.0048676,0.0372772-0.0097351,0.0745392-0.0146027,0.1118088
		c-0.6758575,0.0371628-1.0302353,0.555481-1.4934845,0.9261322c-0.7663574,0.6131897-1.0514374,2.0907059-0.3116302,2.8895035
		c0.2473679,0.2670822,0.3824539,0.5614014,0.3733749,0.9503784c-0.0095673,0.4093933,0.3452377,0.5831146,0.7112885,0.3801117
		c0.2415543-0.1339645,0.4518204-0.3273392,0.6989594-0.446846c0.1030731-0.0498428,0.2906799-0.0176773,0.3964157,0.0475922
		c0.3667831,0.2263336,0.7186737,0.4777908,1.0683517,0.7305832c0.3958893,0.2861938,0.7740326,0.5978851,1.1789246,0.8701859
		c0.1628189,0.1094971,0.4118805,0.2389069,0.5563049,0.1847839c0.1368713-0.0513,0.2350235-0.3230286,0.266571-0.511795
		c0.0522156-0.3124466-0.0120468-0.6478882,0.0607224-0.9526367c0.159935-0.6698303,0.3748474-1.3265228,0.579277-2.0297394
		c0.253952-0.0543747,0.6193085-0.1076889,0.9684448-0.2141724c0.3716431-0.1133499,0.5123138-0.4788055,0.2506485-0.7087784
		c-0.339859-0.2986984-0.3321609-0.6924362-0.4554901-1.0594406c-0.131958-0.3926544-0.2500534-0.8454971-0.5244293-1.1241379
		c-0.7626877-0.7745361-2.2573853-0.9197159-3.2419205-0.4135208c-0.1119843,0.057579-0.2435226,0.0771484-0.3659821,0.1143417
		c-0.0135803-0.0335922-0.0271454-0.0671768-0.0407181-0.1007767c0.0783234-0.0522766,0.1498642-0.1241951,0.2359772-0.1539078
		c1.5435791-0.5326385,2.9930573-1.2537079,4.3626938-2.1419029c0.1147919-0.0744476,0.2930603-0.0510139,0.4158249-0.0691948
		c-0.3178253,0.5536308-0.6029739,1.0503349-0.8881149,1.547039c-0.2092896,0.2352982-0.2933197,0.4913826-0.0167465,0.7188683
		c0.5398026,0.4439926,0.7025375,1.0338135,0.7448578,1.6954346c0.0088425,0.1381454,0.1544495,0.2675323,0.2370224,0.4009628
		c0.1590881,0.2203445,0.3410263,0.4280167,0.4718857,0.6640167c0.1958771,0.3532562,0.4985809,0.4391022,0.7817383,0.1517792
		c0.1931-0.1959305,0.3510208-0.4327164,0.4944-0.6695633c0.1221161-0.2017212,0.2261353-0.2252731,0.4576111-0.1436005
		c0.4070358,0.1436157,0.836235,0.260704,1.2642365,0.2992706c0.5052872,0.0455246,0.9745178,0.1128311,1.410141,0.4111328
		c0.1267242,0.0867767,0.4366226,0.0447235,0.5676422-0.0586014c0.0994568-0.0784378,0.0908051-0.3561554,0.0558167-0.5302353
		c-0.0791626-0.393898-0.2449188-0.7727661-0.3013-1.1683044c-0.085083-0.5968094-0.1068878-1.2026329-0.1613998-1.876606
		c0.1997375-0.1345711,0.5155487-0.3189316,0.7980499-0.5449295c0.3470001-0.2775993,0.2857056-0.5568886-0.0724792-0.8027496
		c-0.2510223-0.1723022-0.5129547-0.3971214-0.6453857-0.661026c-0.4034348-0.8039818-1.0464554-1.1615829-1.9126129-1.1650581
		c-0.719696-0.0028839-1.3459625,0.300705-1.9560547,0.6429443c-0.0426941-0.0414429-0.0853882-0.0828934-0.1280746-0.1243439
		c0.4740982-0.5259666,0.9481964-1.0519371,1.4222946-1.5779114c0.026886,0.3119965,0.1159515,0.4839211,0.5098267,0.4427948
		c1.0506897-0.1096992,1.9105377,0.2337799,2.4752045,1.1835823c0.132164,0.2223091,0.316124,0.4147797,0.483345,0.6150436
		c0.1967773,0.2356567,0.392334,0.473587,0.6063919,0.692997c0.0990753,0.1015549,0.2522125,0.2405853,0.3607941,0.2247963
		c0.2659836-0.0386925,0.5203247-0.1575241,0.7793427-0.2441063c0.4521332-0.1757698,0.8971863-0.2065048,1.371933-0.0434189
		c0.1317291,0.0452385,0.4136505-0.0783844,0.4866104-0.2051392c0.0744324-0.1293106,0.0460968-0.4434662-0.057991-0.5279884
		c-0.4419708-0.3588676-0.5884705-0.8552933-0.7780991-1.3504372c-0.1485214-0.3877792-0.3911209-0.7385902-0.5653992-1.1180077
		c-0.0507736-0.1105385-0.0621796-0.2966766-0.0016937-0.3896294c0.1584015-0.2433777,0.3946762-0.4368744,0.5478134-0.6827087
		c0.2078629-0.333683,0.0342712-0.6133156-0.3320541-0.7284279c-0.2924576-0.0918961-0.6014862-0.2284508-0.821785-0.4328804
		c-0.4948196-0.4591675-1.0282745-0.68153-1.7148285-0.6133842c-0.9878159,0.0980415-1.5661697,0.7799339-2.1824646,1.4236755
		C86.2449417,57.2311554,86.0030136,56.9042854,85.8862228,57.2726631z M87.7389832,42.5277214l-0.0003891-0.0024338
		c-0.0176926,0.8874588-0.0449677,1.7748909-0.0471954,2.6623878c-0.0006638,0.263092,1.375061,1.1141739,1.6476517,1.0595093
		c0.4836197-0.0969887,0.9678955-0.1941719,1.4556122-0.2661133c0.3339996-0.0492706,0.5118866-0.193264,0.4595642-0.5486488
		c0.0158844-0.056118,0.0251846-0.1151581,0.0486755-0.1678886c0.2179871-0.4894524,0.0335312-0.7663498-0.5034027-0.727623
		c-0.247345,0.0178413-0.4968033,0.0589676-0.7358856,0.1240997c-0.2362595,0.064373-0.3187714-0.0197792-0.4267807-0.2289314
		c-0.177124-0.3430023-0.4222031-0.6516457-0.6458282-0.9697037c-0.2149963-0.3057671-0.4391403-0.6050987-0.6592712-0.9072533
		c-0.0353317-0.1841736-0.0273361-0.3947601-0.1187668-0.5447159c-0.0832214-0.1365013-0.2744293-0.2071571-0.4180374-0.306839
		c-0.0539169,0.1371994-0.1416626,0.2719078-0.1520004,0.4123154C87.633049,42.2500763,87.7037125,42.3902016,87.7389832,42.5277214
		z M44.6801949,22.4140415c-0.028183,0.2861423-0.0082664,0.5879116-0.0950623,0.8550091
		c-0.1563416,0.4811096-0.3761024,0.9416542-0.5703011,1.4104042c-0.1953621,0.47155-0.8495064,1.0766525-1.3237381,1.2260284
		c-0.3618202,0.113966-0.4459877,0.3853779-0.2784576,0.7132359c0.1475677,0.2887878,0.2229347,0.6136055,0.3498459,0.9142113
		c0.0548363,0.1298885,0.1591492,0.2388859,0.2409897,0.3573761c0.2799721,0.2006569,0.4408684-0.0193672,0.6512413-0.1557293
		c0.2841873-0.184206,0.594101-0.4104328,0.9109955-0.442934c0.4521713-0.0463791,0.5952644-0.2210541,0.5527802-0.637558
		c-0.0163193-0.1600132-0.0036392-0.3230762-0.0027657-0.4847412c0.0063744-1.1756077,0.0167007-2.3512249,0.0142097-3.5268116
		c-0.000248-0.118824-0.0771675-0.2374859-0.1185036-0.3562241C44.9010162,22.328886,44.7906036,22.3714638,44.6801949,22.4140415z
		 M39.8112526,32.7247429c0.3979988-0.2109032,0.8002052-0.2313652,1.2198944-0.0547066
		c0.1146736,0.0482712,0.2704735,0.0802841,0.3814163,0.0428162c0.7394981-0.249752,1.4324951-0.094574,2.1383438,0.2501183
		c0.0891075-0.2162476,0.1653061-0.4011612,0.2415009-0.5860748c0.2549362-0.5982533,0.6287079-1.0885525,1.2500229-1.3428001
		c0.2429428-0.0994148,0.5136757-0.1439705,0.7380905-0.2723484c0.2910767-0.1665154,0.7025909-0.2764969,0.5853462-0.7677326
		c-0.2289543-0.2984486-0.4145584-0.6504478-0.698822-0.8805752c-0.2957535-0.2394295-0.5327568-0.461195-0.638092-0.8450966
		c-0.106308-0.3874607-0.4896011-0.4482708-0.789093-0.1542358c-0.1877251,0.1843014-0.3693085,0.37817-0.529129,0.5865498
		c-0.1324654,0.1727085-0.2285957,0.1857014-0.4354439,0.0856667c-0.3464699-0.1675529-0.7311745-0.2542839-1.0948143-0.3885193
		c-0.4993019-0.1843166-0.9885674-0.3975811-1.4934578-0.5640945c-0.1835365-0.0605278-0.4685822-0.1032505-0.5816498-0.006794
		c-0.1156464,0.0986557-0.1513939,0.4039936-0.0919151,0.5730515c0.1587563,0.4512444,0.2405891,0.8767166,0.1595116,1.3684025
		c-0.0685921,0.4159641,0.0159264,0.8623333,0.0681152,1.2909298c0.0268745,0.2207108,0.0869751,0.3866367-0.2145348,0.4645557
		c-0.2216492,0.0572777-0.4269371,0.1910782-0.6284828,0.3095531c-0.2434692,0.1431198-0.4455833,0.3439827-0.2912216,0.6451492
		C39.2486687,32.7552795,39.4996185,32.8623276,39.8112526,32.7247429z M92.6028137,51.0739975
		c0.3057785,0.0667458,0.6143265,0.074379,0.7444-0.2694321c0.1451645-0.3836555-0.1532898-0.5563507-0.4302368-0.706028
		c-0.1923294-0.1039429-0.4099579-0.1647606-0.5919189-0.2824974c-0.0812836-0.0525894-0.1476974-0.1994019-0.1437378-0.3004227
		c0.0197449-0.5039825,0.0543518-1.0080414,0.1047745-1.5099564c0.0429459-0.4274979,0.1346207-0.8507195,0.1643677-1.2786407
		c0.0136566-0.1965218-0.0089035-0.5098076-0.1235275-0.5728302c-0.1522064-0.0836792-0.421463-0.0069008-0.620163,0.0605888
		c-0.2151108,0.0730553-0.3967133,0.242363-0.6107712,0.3213768c-0.6779022,0.2502327-1.4700928,0.1309013-2.0753174,0.6388512
		c-0.0340042,0.0285378-0.1993408-0.0506363-0.2649078-0.1175461c-0.2033234-0.2075157-0.3690872-0.4544983-0.5845566-0.6468048
		c-0.2867737-0.2559433-0.6356201-0.1937065-0.7371445,0.161026c-0.1227341,0.4288292-0.3946991,0.6869392-0.7235413,0.9459877
		c-0.2231445,0.1757889-0.3795166,0.4363518-0.5657501,0.6590004c-0.2081528,0.1945496-0.1866455,0.3979149,0.0244064,0.5548096
		c0.2271652,0.1688728,0.4665527,0.3443718,0.7287674,0.4386215c0.7231827,0.2599335,1.3640213,0.5961075,1.6459885,1.374649
		c0.1067657,0.2491913,0.2135239,0.4983902,0.3231964,0.7543869c0.0953522-0.0277023,0.1531143-0.0367165,0.2040176-0.0604591
		c0.579689-0.2704048,1.1571274-0.4627037,1.8062057-0.1921577c0.1671066,0.0696564,0.4167404,0.0364227,0.5947037-0.0343742
		C91.8698273,50.8539124,92.2358704,50.8688545,92.6028137,51.0739975z M40.2511559,39.2013741
		c0.0097008-0.1592102,0.024498-0.318306,0.0281296-0.4776535c0.0103493-0.4546242,0.2566795-0.7671394,0.6716461-0.8541336
		c0.5834465-0.1223221,0.9394264-0.5386124,1.3538742-0.889225c0.5180702-0.2053375,1.0443726-0.3780785,1.6090469-0.2314529
		c0.4405251,0.1143913,0.5586128-0.0866585,0.5127831-0.4783211c0.1677246-0.5616188-0.155529-1.0233955-0.3152466-1.5157661
		c-0.3691902-1.1381226-1.368824-1.6734428-2.5249748-1.4066315c-0.2676125,0.0617599-0.5878487,0.0533104-0.8458138-0.0345535
		c-0.5001945-0.1703835-0.773243-0.0139542-0.7407646,0.5244789c0.0200691,0.3326912,0.0800819,0.6629715,0.1032104,0.8451157
		c-0.5629387,0.4121361-1.0234833,0.7832947-1.5187912,1.1001129c-0.3363686,0.2151566-0.7326851,0.3347359-1.0798912,0.5356102
		c-0.1635475,0.0946236-0.331459,0.2583237-0.396328,0.4291115c-0.0998344,0.2628212,0.1162834,0.3627892,0.3365059,0.4631348
		c0.3414001,0.1555519,0.6895676,0.3222618,0.9833145,0.5505676c0.4969826,0.3862534,0.953701,0.8243179,1.4933624,1.2986259
		c-0.0533867,0.2186813-0.1651459,0.5688362-0.2178917,0.9276657c-0.0398331,0.2710037,0.090004,0.5398979,0.3923378,0.5114784
		c0.2087364-0.0196228,0.4009323-0.21521,0.6005173-0.3321609c-0.1367264-0.0752335-0.2737427-0.1499481-0.4099159-0.2261696
		c-0.0246315-0.0137863-0.0457993-0.0337563-0.065815-0.0488014C40.2307625,39.6604004,40.2409592,39.4308853,40.2511559,39.2013741
		z M92.155777,57.7194595c0,0.1729813,0,0.3459587,0,0.4534454c-0.1695862,0.1114807-0.299263,0.1967163-0.4289398,0.2819595
		c0.143486,0.130394,0.2661667,0.3172035,0.4347992,0.3793793c0.344902,0.1271744,0.6281738-0.1486626,0.5650253-0.5420799
		c-0.0572586-0.356678-0.1619415-0.7057343-0.2198563-0.9494057c0.441658-0.3371124,0.8491516-0.5919685,1.1856918-0.919693
		c0.3933029-0.3829994,0.7775192-0.7408524,1.3190155-0.9144974c0.1504211-0.0482368,0.3602219-0.3007507,0.3355103-0.4145393
		c-0.0372086-0.1713638-0.2458725-0.416832-0.4007645-0.4317017c-0.6123657-0.0588264-0.9805984-0.479351-1.4189301-0.8139496
		c-0.2845993-0.2172356-0.5974503-0.4207954-0.9296112-0.5448723c-0.2575378-0.0962029-0.3115768-0.2073364-0.2631607-0.4463844
		c0.0550079-0.2715683,0.1256485-0.5477638,0.1230545-0.8213196c-0.0036697-0.3869896-0.3147202-0.5341911-0.6732101-0.4274406
		c-0.2772522,0.0825577-0.5968323,0.1358528-0.8743896,0.08218c-0.6849442-0.1324463-1.2772903-0.0646896-1.8690796,0.3650856
		c-0.6365128,0.462265-0.7232437,1.1751633-0.98246,1.8080788c-0.0975266,0.2381439-0.0521927,0.5406494-0.047348,0.8133736
		c0.0059509,0.3350563,0.1840363,0.4701271,0.5156631,0.3808403c0.468071,0.0644493,0.9361343,0.1288986,1.404213,0.1932831
		c0.557106,0.27668,0.9073334,0.9037018,1.6107407,0.9422417c0.0978775,0.0053596,0.1916275,0.1217461,0.2836914,0.1914864
		C92.2946014,56.7403221,92.1037903,57.2601204,92.155777,57.7194595z M60.0228424,43.4110222
		c0.3012276-0.408329,0.6042786-0.8153381,0.9031143-1.2254105c0.2418976-0.3319511,0.1825829-0.4952545-0.1888962-0.5363464
		c-0.0296745-0.0778923-0.0648804-0.1541748-0.0881042-0.2339439c-0.1285362-0.4414558-0.2028313-0.9076233-0.3942986-1.3194885
		c-0.2189903-0.4710846-0.4363213-0.9151459-0.4103279-1.4581528c0.0074272-0.1550713-0.1671295-0.4361801-0.2855186-0.451725
		c-0.1664276-0.0218506-0.3877296,0.1170807-0.5332451,0.246212c-0.3115768,0.2764969-0.5667686,0.6184387-0.8868752,0.8829765
		c-0.4521217,0.3736382-0.9420776,0.7014885-1.4651489,1.0850601c-0.2322159-0.1030693-0.5663147-0.2895393-0.9239426-0.3994751
		c-0.3656158-0.1123924-0.5986595,0.1215935-0.6223946,0.4621162c-0.0211983,0.3042221-0.0873909,0.623127-0.2145691,0.8981705
		c-0.2175865,0.4705582-0.448349,0.9142647-0.3065758,1.4630394c0.3299332,1.2771149,1.2179222,1.9264183,2.4340897,2.2362556
		c0.1311531,0.0334167,0.2374802,0.1642952,0.4374352,0.3096466c-0.195446,0.0511742-0.2388229,0.0764084-0.277668,0.0707092
		c-1.8000412-0.2641106-3.5269966-0.760891-5.1255989-1.647625c-0.4528046-0.2511635-0.6947136-0.8587303-0.60952-1.3146744
		c0.4827042,0.0185852,0.952404,0.0366745,1.4221039,0.0547562c0.0877838,0.0044632,0.1756248,0.0136757,0.2633476,0.0126228
		c0.6589203-0.0079155,0.6867981-0.0452614,0.8224258-0.6867599c0.0508003-0.240284,0.1880875-0.460968,0.2616043-0.6981316
		c0.0793839-0.2561073,0.1693382-0.5186462,0.185524-0.7826157c0.0339317-0.5532532,0.3648109-0.9608192,0.9158554-1.0823822
		c0.1275787-0.0281487,0.2417526-0.117054,0.3620987-0.1780014c-0.1133003-0.1283112-0.2266006-0.2566185-0.3398972-0.3849297
		c-0.3052559-0.0336418-0.6166916-0.0416489-0.9128571-0.1130066c-0.1260185-0.0303688-0.2691383-0.1736526-0.3196831-0.2996407
		c-0.1662598-0.4144478-0.3036766-0.8414459-0.4332848-1.2693443c-0.1334381-0.4405327-0.2305183-0.8923836-0.3723488-1.329937
		c-0.0609627-0.1880913-0.1772003-0.4805145-0.2994995-0.4972191c-0.1742744-0.0237961-0.4051208,0.1308098-0.5606842,0.2674179
		c-0.1821976,0.1600037-0.2769966,0.4250565-0.4666634,0.5700188c-0.6039276,0.4615707-1.2342949,0.8885498-1.8848267,1.3504639
		c-0.2195206-0.1106987-0.5120697-0.2814255-0.8223648-0.408989c-0.4134598-0.1699677-0.6827812,0.0487366-0.6775513,0.4958878
		c0.0024757,0.2116852,0.0172768,0.4706879-0.0905457,0.6280632c-0.4925766,0.7189293-0.6452713,1.460434-0.2918968,2.2778435
		c-0.0962334-0.0241013-0.1924706-0.0482025-0.2887077-0.0723076c-0.1743088-0.2371902-0.3486214-0.4743805-0.5229378-0.7115707
		c-0.2218666-0.3823853-0.4437332-0.7647705-0.6655998-1.1471558c-0.0316582,0.0156364-0.0633202,0.0312767-0.0949821,0.0469131
		c0.1060982,0.3652649,0.2121925,0.730526,0.3182869,1.095787c-0.2551537-0.0561409-0.6273041,0.1134377-0.7335587-0.237587
		c-0.1869736-0.61763-0.6243401-0.984024-1.0939026-1.3778572c-0.9780121-0.8202858-2.0933228-0.815052-3.0357857,0.0556335
		c-0.199295,0.1841164-0.4864388,0.3059883-0.7541618,0.3757896c-0.4444809,0.1158905-0.6145287,0.4357452-0.3496819,0.8126831
		c0.2072525,0.2949562,0.4522247,0.5634003,0.5814476,0.7220764c-0.2614059,0.6125603-0.4569054,1.1389275-0.7080917,1.6372299
		c-0.1933708,0.3836136-0.4724426,0.7232056-0.6819382,1.0998764c-0.0947227,0.1702995-0.1842918,0.4019661-0.1399193,0.5697517
		c0.0277634,0.1049843,0.3323364,0.2316971,0.4732246,0.1954041c0.6123123-0.1577415,1.191452-0.0821915,1.7684174,0.1291885
		c0.4583397,0.2948761,0.6776619,0.2322121,0.8879929-0.229496c0.0642891-0.1411209,0.1695938-0.2684174,0.2749825-0.3849907
		c0.2492409-0.2756996,0.5119591-0.5391655,0.7651138-0.8114052c0.1980934-0.2130203,0.3764763-0.4461212,0.5873146-0.6451988
		c0.5337296-0.503952,1.2408791-0.4719467,1.8995171-0.586319c0.8067513-0.0685387-0.0670013-0.4846725,0.2531891-0.7559967
		c0.1888046,0.148468,0.4487381,0.2935486,0.6278229,0.5065918c0.3283043,0.3905563,0.5858765,0.8408432,0.9167137,1.2289085
		c0.2622261,0.3075829,0.5898819,0.5593834,0.888485,0.8359528c-0.0254326,0.057724-0.050869,0.1154404-0.0763016,0.1731606
		c-0.1200562-0.0202408-0.3067589,0.0012703-0.3497047-0.0672798c-0.3696861-0.5901146-0.9594688-0.8044472-1.5680046-1.0492859
		c-1.0818825-0.4352875-2.224659-0.047081-2.773243,0.9834404c-0.1345215,0.252697-0.3584328,0.4932671-0.6003036,0.6457138
		c-0.4527245,0.2853432-0.5012436,0.5906792-0.0580139,0.9115372c0.2687073,0.1945229,0.5602341,0.3575325,0.8226509,0.5228195
		c-0.0931892,0.3477364-0.2397232,0.6673813-0.2535553,0.992672c-0.0303268,0.7131042,0.0630875,1.4303436-0.3124123,2.1007271
		c-0.0709648,0.1266975,0.0205421,0.394928,0.1198349,0.5419693c0.0405617,0.06007,0.3057137-0.011322,0.4608421-0.0524902
		c0.5168114-0.1371574,1.0279503-0.2958412,1.5453682-0.4305115c0.3906784-0.1016808,0.7958183-0.1538696,1.1786728-0.2772522
		c0.2223778-0.0716629,0.3336716-0.0648994,0.4631958,0.1475677c0.1581955,0.25951,0.3518829,0.5066872,0.5702896,0.7177277
		c0.2481918,0.2398262,0.4901009,0.1189537,0.6668472-0.1227837c0.2246056-0.3071976,0.4309464-0.627758,0.6451607-0.9425583
		c0.0306969-0.0454292,0.0884628-0.091114,0.0880432-0.1362534c-0.0065384-0.6967812,0.2599792-1.2836952,0.7083549-1.8001633
		c0.0285072-0.1651688,0.1311111-0.3649864,0.0728531-0.4895897c-0.2705803-0.5787163-0.5857315-1.1365929-0.9113846-1.7519188
		c0.1534119,0.0395699,0.3598175,0.0571938,0.5322876,0.1430168c1.2216568,0.6078987,2.4363632,1.2297707,3.6532822,1.8471832
		c-0.4309616,0.0181236-0.8640518,0.0162048-1.2921257,0.0615616c-0.2754593,0.0291862-0.5435524,0.1278572-0.8149529,0.195385
		c-0.7646599,0.3941956-1.2684631,0.9496193-1.3052902,1.8733444c-0.0103378,0.259407-0.2053566,0.5327682-0.3705826,0.7597504
		c-0.2561302,0.3518639-0.1777649,0.6910248,0.2449379,0.8028336c0.3491821,0.0923691,0.7064133,0.1543312,0.9280663,0.2016106
		c0.1906967,0.6591797,0.3792725,1.232666,0.5176163,1.8180199c0.085743,0.3627815,0.0759811,0.7472839,0.1465149,1.1148529
		c0.0391731,0.2041321,0.1119843,0.5070953,0.2482681,0.558979c0.1492348,0.0568237,0.4139709-0.0895844,0.5831184-0.2106552
		c0.2090302-0.1496162,0.3437691-0.4090271,0.5592346-0.5424881c0.6325073-0.3917694,1.289093-0.7446556,1.9605293-1.1265831
		c0.0909233,0.0499649,0.2627754,0.1443939,0.4346275,0.2388229c0.2127151,0.2747803,0.4576416,0.4403419,0.9476166,0.227272
		c-0.37743-0.1763153-0.6504593-0.3038597-0.9234848-0.4314041c-0.1155243-0.2053528-0.2310486-0.4107018-0.3465767-0.6160545
		c-0.0194893-0.5029144,0.1432419-0.9162636,0.5701866-1.2136497c0.0888252-0.0618668,0.1585312-0.1661377,0.2092819-0.2651062
		c0.2127495-0.414856,0.4149361-0.8351212,0.6209908-1.2534103c0.1608772-0.127758,0.2273827-0.2452393,0.0375404-0.4233284
		c-0.4435577-0.4160957-0.8389053-0.8973846-1.5520935-0.9269218c0.420826-0.464035,1.9974098-0.0921783,4.957077,1.0928612
		c0.025032,0.0892296,0.0500717,0.1784554,0.0751076,0.2676888c-0.3009644-0.0317307-0.6078033-0.0363083-0.9018707-0.0999298
		c-1.2363892-0.2674828-2.1280785,0.237709-2.5445862,1.4165154c-0.095768,0.2710419-0.2833176,0.5390778-0.4974632,0.7321548
		c-0.3431931,0.3094292-0.349678,0.6535568,0.0670471,0.8726044c0.2323151,0.1221161,0.4810143,0.2208481,0.7324524,0.2964516
		c0.2192917,0.0659332,0.2392235,0.1723557,0.2226677,0.3873825c-0.0310211,0.4029274-0.0361786,0.8160667,0.0183563,1.215332
		c0.0720024,0.527153,0.1605148,1.0339546-0.0354271,1.5629997c-0.0546684,0.1476059,0.0604401,0.4378624,0.1929588,0.5477333
		c0.092411,0.0766182,0.4154396,0.0217934,0.5173607-0.0859909c0.3787079-0.4005089,0.8681984-0.5169868,1.3607025-0.669178
		c0.3983612-0.1231079,0.7884827-0.2916565,1.1555443-0.4895897c0.1926765-0.1038971,0.298111-0.1170998,0.4486771,0.0439949
		c0.1995544,0.2135239,0.4070244,0.4275932,0.6429138,0.5971718c0.2857666,0.2054367,0.6398849,0.0841942,0.6784935-0.2485695
		c0.0475006-0.4094238,0.2794762-0.6519814,0.5645027-0.8986053c0.8473206-0.7331581,0.9661598-1.9650307,0.2752151-2.8468246
		c-0.349781-0.4463882-0.7265587-0.8716278-1.1638451-1.393158c0.2448349,0.1027412,0.4531021,0.1422005,0.5995293,0.2591133
		c1.2604561,1.0063744,2.2431374,2.232914,2.8506889,3.7361069c0.1056671,0.261425,0.2809677,0.3072662,0.4767914,0.2287483
		c0.0997467-0.0399895,0.1687927-0.2264824,0.1970825-0.3584633c0.0426483-0.1989403,0.0374374-0.4081383,0.0574036-0.6783295
		c0.1262207,0.0860977,0.1778717,0.1109085,0.2162704,0.149044c1.0320053,1.0248604,2.032753,1.0642891,3.1469727,0.1638145
		c0.2090149-0.1689148,0.5105515-0.2502823,0.7829514-0.3072319c0.3646011-0.0762215,0.54319-0.31633,0.3730927-0.6535034
		c-0.136734-0.2710419-0.3516006-0.5019951-0.4974136-0.7694778c-0.0543823-0.0997543-0.0571365-0.2766457-0.0045624-0.3770828
		c0.207283-0.3959846,0.4752045-0.7617683,0.6650696-1.1649208c0.2123337-0.4508324,0.3825455-0.9048157,0.8143158-1.221138
		c0.1247482-0.0913887,0.1998749-0.425415,0.1292877-0.5595093c-0.0711441-0.1351471-0.3469772-0.2017441-0.5416107-0.2238808
		c-0.3271866-0.03722-0.6676712,0.0251503-0.9907455-0.0272408c-0.6128387-0.0993767-1.1803513-0.4657021-1.8439865-0.2968636
		c-0.0493393,0.0125542-0.180687-0.1548843-0.2163696-0.2584686c-0.0951843-0.2763405-0.1298523-0.5757484-0.2423859-0.8433571
		c-0.1514587-0.3601608-0.4841309-0.3714676-0.7902145-0.1355553c-0.2512817,0.1936722-0.5583115,0.3908272-0.8604584,0.4288483
		c-1.0110092,0.127224-1.7517548,1.1917229-1.7355042,2.031826c0.0157471,0.8137665,0.0063248,1.6227989,0.6285019,2.2646599
		c0.0185242,0.0191116-0.0020218,0.0760956-0.0076904,0.1717377c-0.1122971-0.0744629-0.1995468-0.1156311-0.26577-0.1788292
		c-0.6261826-0.5975952-1.2626724-1.1856155-1.8615074-1.8096771c-0.1303062-0.1357956-0.1221123-0.4044876-0.1777115-0.6119766
		c0.047451-0.0178528,0.0948944-0.0357094,0.1423416-0.0535622c0.168293,0.1059647,0.3365822,0.2119293,0.5048752,0.3178978
		c0.3997841,0.2788696,0.3589973-0.0373764,0.364399-0.2743492c0.0253296-1.1108971,0.9151764-2.1903114,1.9898148-2.4224701
		c0.2204895-0.0476341,0.4328461-0.1329384,0.6489487-0.2008743c0.0320282-0.2001801,0.0911865-0.4004784,0.0902863-0.6005096
		c-0.0017471-0.3859062-0.0130997-0.7749557-0.0649109-1.1566734c-0.0718689-0.5294189-0.2990265-1.0359383-0.0732269-1.5958481
		c0.061676-0.152935-0.0577393-0.4698067-0.197731-0.5815392c-0.0949783-0.0758057-0.3890915,0.0405426-0.5619354,0.1319046
		c-0.3315506,0.1752701-0.6229019,0.4320297-0.9622498,0.5858917c-0.5605774,0.2541695-1.1460075,0.4535294-1.7209625,0.6759872
		c-0.1099129,0.0046272-0.2358284-0.1144485-0.3660126-0.2286491c-0.132019-0.1158218-0.2600136-0.2389069-0.404335-0.3374863
		c-0.3236008-0.2210274-0.7472572-0.109478-0.7594337,0.2306709c-0.0162849,0.4551735-0.3286247,0.6873627-0.5544662,1.0046577
		c-0.2379494,0.334301-0.5141716,0.7176437-0.5541725,1.1023827c-0.1245766,1.1981468,0.6198311,2.3609581,1.7412376,2.8242264
		c0.3824997,0.1580124,0.3189278,0.3265381,0.2028503,0.4944954c-1.515934-0.6305695-2.984787-1.2415543-4.4731636-1.8606606
		c0.4613037,0,0.8902359,0,1.3191681,0.0000038c0.1441917,0.0046501,0.3063812,0.0519257,0.4270935,0.0009651
		c0.1035118-0.043705,0.2246513-0.1990967,0.2258339-0.3063316C60.0658989,44.6147041,60.0385704,44.0127983,60.0228424,43.4110222z
		 M82.2570496,54.7978363c0.1763535-0.0137024,0.3689194,0.0139427,0.5264359-0.0478096
		c1.0230103-0.4010735,1.7509613,0.0852013,1.777153,1.1712532c0.0051956,0.2158089,0.1671753,0.4278412,0.2568512,0.641613
		c0.2423401-0.051815,0.5210876-0.0440369,0.7205963-0.1659393c0.7886887-0.4818993,1.4960327-1.0501938,1.6690979-2.0433846
		c0.2353897-0.6742477,0.4707794-1.3484955,0.7061691-2.022747c0.1880264-0.2978745,0.3625183-0.5803032,0.238533-0.9749832
		c-0.2632217-0.8379326-0.7590408-1.3913879-1.6455765-1.5882339c-0.2337036-0.0518875-0.475296-0.2193298-0.6397095-0.4004707
		c-0.3321152-0.3659172-0.6757507-0.3639603-0.8889465,0.0849762c-0.1535263,0.3232841-0.2530746,0.6721992-0.3358994,0.8982925
		c-0.573494,0.0474205-1.0688171,0.053112-1.5502701,0.1377411c-0.5194244,0.0913048-1.0164261,0.2430077-1.5453873,0.0076904
		c-0.1204147-0.0535774-0.436058,0.0551338-0.4757919,0.1597824c-0.0639954,0.1685715-0.0235596,0.4214134,0.0634308,0.5925713
		c0.1427383,0.2808533,0.4079437,0.5030251,0.5327225,0.788723c0.2802277,0.6416206,0.2371216,1.424118,1.018219,1.9569473
		c-0.2917557,0.2067566-0.505188,0.3580132-0.7357712,0.5214233C82.0869217,54.6418381,82.1719818,54.7198372,82.2570496,54.7978363
		z M50.3213387,36.1002045c-0.1392708-0.1655502-0.2785454-0.3311043-0.4178123-0.4966545
		c0.038887,0.0086899,0.077774,0.0173759,0.1166611,0.0260658c0.2097969-0.5195808,0.3990402-1.0487709,0.636055-1.5556259
		c0.1813393-0.3877945,0.4398994-0.7389984,0.6304207-1.123188c0.0878906-0.177227,0.1737366-0.4190254,0.1207771-0.5876617
		c-0.0798111-0.2541275-0.3304672-0.2700615-0.5923347-0.2033081c-0.2639732,0.0672874-0.54599,0.1252899-0.813694,0.1045685
		c-0.7270012-0.0562553-1.418354-0.5147495-2.1550102-0.1119576c-0.1358986-0.3915367-0.2273407-0.7162895-0.3600807-1.02318
		c-0.2036438-0.4708176-0.520565-0.4903736-0.8802261-0.134203c-0.2077179,0.2057037-0.4781151,0.407383-0.7533684,0.4737587
		c-0.6482735,0.1563301-1.0571136,0.5117092-1.3844032,1.0951347c-0.3688927,0.6575775-0.1756325,1.1608772,0.2104721,1.6806831
		c0.1157112,0.4182549,0.2244225,0.8386154,0.3496933,1.2539825c0.0782623,0.2594833,0.1814919,0.5114403,0.2735138,0.7667732
		c0.2267685,0.9241867,0.9682579,1.3892708,1.6938057,1.8483849c0.2286644,0.1446915,0.561985,0.3559036,0.7736359-0.0821571
		c0.0441475-0.1879997,0.1252899-0.3760567,0.1250305-0.5639954c-0.0006104-0.4442978,0.1451797-0.7927208,0.5326996-1.0281792
		c0.446579-0.2713318,0.8811188-0.1951637,1.3324699,0.0042c0.1367569,0.0604057,0.3327599,0.0442505,0.4795113-0.0040436
		C50.2974663,36.4204102,50.2957344,36.2187767,50.3213387,36.1002045z M70.4402008,29.8268356
		c0.0533447,0.1030617,0.145752,0.2031269,0.1539307,0.3096561c0.0732269,0.9537258,0.678688,1.4811668,1.4566345,1.8953495
		c0.1979752,0.1053963,0.3803177,0.2761917,0.5153122,0.4575348c0.5401459,0.7256279,1.3826752,0.7258606,1.8448639-0.0430832
		c0.2100525-0.349472,0.4186554-0.5504055,0.8438721-0.3686256c0.1137543,0.0486336,0.2778015,0.0654526,0.3884048,0.0211296
		c0.5423813-0.2173595,1.0454712-0.1259155,1.5816269,0.0625305c0.5788956,0.2034645,1.0790863,0.0246277,1.335144-0.3787651
		c0.2996368-0.4720402,0.119957-0.8694744-0.1580048-1.2986145c-0.4396515-0.6787682-0.3512039-1.4868279-0.417511-2.2495308
		c-0.0111389-0.128006,0.1370621-0.2853127,0.2395706-0.4052086c0.5956116-0.6966839,0.4330597-1.4127769-0.3565826-1.8462315
		c-0.2989044-0.1640739-0.5173798-0.4929085-0.7318954-0.7772846c-0.0435638-0.0577431,0.0589676-0.3231258,0.1561508-0.3737411
		c0.6200562-0.3229408,0.930397-0.8718758,1.1809464-1.4831238c0.0759811-0.1853676,0.1805954-0.3747082,0.3191833-0.5160637
		c0.7078018-0.7219257,0.5899887-1.4904251-0.286026-1.966238c-0.1808319-0.0982189-0.3982697-0.3320751-0.4056778-0.5113907
		c-0.032135-0.7784386-0.398201-1.5334377-0.095871-2.3444328c0.1412964-0.3790455-0.0051804-0.789402-0.4183807-1.0170517
		c-0.4069977-0.224226-0.8836594-0.1512222-1.2795181,0.1182194c-0.2954712,0.2011089-0.6352234,0.3428574-0.9671097,0.4829769
		c-0.2694168,0.1137524-0.5699997,0.1575775-0.8322525,0.2834644c-0.3280182,0.1574497-0.5750656,0.0917168-0.8442078-0.1295033
		c-0.7744141-0.6365147-1.5707321-0.3881092-1.8901291,0.566185c-0.0546188,0.1631947-0.1301193,0.3288364-0.2339478,0.4642258
		c-0.2389526,0.3115902-0.5115662,0.5973263-0.7512436,0.9084148c-0.2426147,0.3149223-1.1106567,0.7164688-1.3540497,0.5493164
		c-0.6443863-0.4425411-1.4695282-0.5927677-1.9523773-1.3117809c-0.2680054-0.3990879-0.7478256-0.4272556-1.2049866-0.2678909
		c-0.3564606,0.1242599-0.597229,0.3972244-0.57901,0.7534943c0.0405121,0.7922535-0.1749954,1.5104065-0.4948425,2.212431
		c-0.0794907,0.1744633-0.1749954,0.341629-0.2631378,0.5121517c0.076683-0.3332157-0.1766357-0.2781734-0.3505554-0.2811947
		c-0.6172104-0.0107231-1.2361336,0.0174503-1.8514824-0.0188103c-0.3886795-0.0229034-0.4858856,0.1349907-0.4813118,0.4814167
		c0.0114441,0.8671322,0.0031013,1.73452,0.0034256,2.6018066c0.0009727,2.6312428,0.0014076,5.2624893,0.004776,7.8937283
		c0.0003548,0.280159-0.030365,0.5392189,0.4209404,0.5350876c2.4546165-0.0224953,4.9095497-0.0184822,7.3643074-0.0082855
		c0.3616257,0.001503,0.5020676-0.1133881,0.4861374-0.4812813C70.4915924,31.8480129,70.4703445,30.8372326,70.4402008,29.8268356z
		 M79.8123093,38.0914497c-0.0286713-0.0627213-0.0573425-0.1254425-0.0860138-0.1881638
		c0.128273-0.0740051,0.2746124-0.128006,0.3820724-0.2250557c1.3379974-1.208477,2.6760559-2.4170609,3.9962692-3.6447983
		c0.1494904-0.1390152,0.2694244-0.3946609,0.269989-0.5965881c0.0143661-5.23353,0.0140686-10.4671173-0.0004196-15.7006474
		c-0.0005569-0.2032108-0.1152267-0.4596729-0.2630768-0.6009521c-2.6622162-2.5438538-5.340538-5.0708427-8.0057602-7.6115627
		c-0.2445602-0.2331295-0.4947891-0.3150263-0.82341-0.3147984c-9.1146622,0.0063162-18.2293205,0.004961-27.3439789,0.0053091
		c-0.6298676,0.0000248-0.630825,0.0015888-0.6308517,0.6191645c-0.0002785,6.5713596,0.0018692,13.142725-0.0062866,19.7140751
		c-0.0004196,0.3375664,0.0578537,0.5714493,0.3872223,0.744545c0.1743813,0.0916481,0.3285332,0.3144093,0.389637,0.5099144
		c0.1318169,0.4217491,0.3980103,0.5317059,0.808712,0.5586777c0.6650696,0.0436764,0.6640434,0.0728703,0.6640701-0.6095543
		c0.0002365-6.2184124,0.0000076-12.436821,0.0003395-18.6552315c0.0000343-0.6383038,0.0013046-0.6422052,0.6309052-0.6425943
		c2.6902962-0.0016651,5.3805923-0.000864,8.0708885-0.0008945c5.351162-0.000061,10.7023315,0.003089,16.0534821-0.0068083
		c0.3809814-0.0007048,0.6743011,0.097208,0.9405594,0.3712034c0.3988342,0.41043,0.824646,0.7947416,1.2408829,1.1881504
		c1.7908783,1.6926546,3.5868225,3.3800097,5.3657532,5.0851145c0.1481476,0.1420021,0.2590256,0.4017925,0.2596283,0.607235
		c0.0134888,4.5717716,0.0128555,9.1436081-0.0041733,13.7153625c-0.0007858,0.2136269-0.1243362,0.4846878-0.2817841,0.6309662
		c-1.7195892,1.5975571-3.4578323,3.1750183-5.1897812,4.759285c-0.3972778,0.3633957-0.3985291,0.3765755,0.0401917,0.7158089
		c2.0078049,1.5525131,4.0139923,3.1071739,6.0309219,4.6477623c0.3388824,0.2588463,0.5159607,0.5216293,0.5070877,0.981781
		c-0.0320282,1.6605568-0.0173569,3.322216,0.000618,4.9832344c0.0019455,0.1799965,0.1307602,0.5057526,0.2165146,0.5111084
		c0.300972,0.0187912,0.6580734,0.1540337,0.8539047-0.3071747c0.1330338-0.3133278,0.387207-0.6673126,0.6792374-0.798954
		c0.4140167-0.1866302,0.4888077-0.44104,0.4873505-0.8215904c-0.006218-1.6170921-0.0082474-3.2342567,0.0024948-4.8513031
		c0.001915-0.2893944-0.076149-0.4910698-0.3161545-0.6688499c-0.7428894-0.5502815-1.470047-1.1218376-2.2019806-1.6868668
		C81.8950653,39.7031288,80.8539352,38.8969612,79.8123093,38.0914497z M67.2017441,66.3168488
		c-0.0062866-0.046463-0.0125732-0.092926-0.0188522-0.139389c-0.2521591,0-0.5043182-0.0000381-0.7564774,0.0000153
		c-5.3944664,0.0010452-10.788929,0.0022736-16.1833954,0.0029297c-0.6922379,0.0000916-0.6923256-0.001297-0.6923294-0.7063065
		c-0.0000496-5.1888046,0.0002556-10.3776093-0.0012932-15.5664139c-0.000061-0.1972084-0.0179558-0.394413-0.0284691-0.6107712
		c-0.1165619,0.0139961-0.1765289,0.0108109-0.229023,0.0290833c-0.6316795,0.2198982-1.1128464,0.0071754-1.5072556-0.4998436
		c-0.0806236-0.1036453-0.2167091-0.1641388-0.3272285-0.2445221c-0.0500793,0.1374702-0.1077766,0.2728157-0.1469612,0.4133186
		c-0.0190239,0.0682068-0.0034256,0.14608-0.0034256,0.2195778c0.0000114,6.1883354-0.0000038,12.3766747,0.0000916,18.5650139
		c0.0000114,0.6526489,0.0003242,0.6535797,0.63694,0.6536102c4.9683189,0.0002213,9.9368286-0.0227432,14.9047966,0.0188675
		c1.0162621,0.0085144,1.8746719-0.134697,2.6343842-0.8722839C65.9885025,67.08918,66.6243439,66.7331161,67.2017441,66.3168488z
		 M70.4577484,52.3058929c-0.2293243,0.1875801-0.3551865,0.2813606-0.470665,0.3865356
		c-0.5972595,0.5439529-1.378624,0.7227402-2.1098404,0.8231125c-0.9803467,0.1345749-1.9933014,0.0231361-2.991951,0.0377388
		c-0.3178864,0.0046539-0.4156342-0.1312027-0.4066544-0.4200706c0.0097427-0.3133545,0.0022049-0.6272392,0.0022049-0.998806
		c-0.4350586,0.5030098-0.8139343,0.9345818-1.1825638,1.3747368c-0.0511856,0.0611115-0.057663,0.1634026-0.0748215,0.2486496
		c-0.0846405,0.4204903-0.3294144,0.6965561-0.7218018,0.8703728c-0.4322243,0.1914558-0.2079811,0.5837898-0.2241287,0.889782
		c-0.0162277,0.3075333,0.2431374,0.2727776,0.445797,0.2728539c2.438282,0.0009575,4.8765755-0.0037231,7.3148384,0.0043411
		c0.352211,0.0011597,0.5059891-0.1145935,0.4982681-0.4844246c-0.0171738-0.8222389-0.0027618-1.6450958-0.0078278-2.4676628
		C70.5277557,52.7058258,70.4936676,52.5688057,70.4577484,52.3058929z M69.9010239,68.3838959c1.4947586,0,2.9128342,0,4.2203751,0
		c-0.0174942-0.6086349-0.0748596-1.1679993-0.0369797-1.7208557c0.0328674-0.4795609-0.0110321-0.5722122-0.4912643-0.4180756
		c-1.2676849,0.4068909-2.4543762,0.9728546-3.4634399,1.8633499
		C70.0594177,68.1703568,70.0078964,68.2536697,69.9010239,68.3838959z M69.0669403,43.7072411
		c-0.0000076,0.0018463-0.0000076,0.0036964-0.0000076,0.0055466c-0.4105835,0-0.8214645-0.0081177-1.2314606,0.0073586
		c-0.0753098,0.0028419-0.1470032,0.1014214-0.2203674,0.1558075c0.0559311,0.0565796,0.1024628,0.1452332,0.1692429,0.1647911
		c0.6824265,0.1998787,1.0207214,0.6715469,1.1567764,1.3499413c0.0253754,0.1264763,0.2412109,0.2496605,0.3943939,0.3075981
		c0.2432175,0.0919952,0.5168457,0.1031342,0.7608643,0.193615c0.2974243,0.1102791,0.4444046,0.0745773,0.4369888-0.2788887
		c-0.0107727-0.5131035-0.0112991-1.0267754,0.0000153-1.5398445c0.0058975-0.2672691-0.1122742-0.3707008-0.3665237-0.3672142
		C69.8002853,43.7109833,69.4335861,43.7072411,69.0669403,43.7072411z"/>
	<path class="st10" d="M64.9390793,22.135355c0.0881424-0.1705227,0.1836472-0.3376884,0.2631378-0.5121517
		c0.3198471-0.7020245,0.5353546-1.4201775,0.4948425-2.212431c-0.018219-0.3562698,0.2225494-0.6292343,0.57901-0.7534943
		c0.4571609-0.1593647,0.9369812-0.131197,1.2049866,0.2678909c0.4828491,0.7190132,1.307991,0.8692398,1.9523773,1.3117809
		c0.2433929,0.1671524,1.1114349-0.2343941,1.3540497-0.5493164c0.2396774-0.3110886,0.512291-0.5968246,0.7512436-0.9084148
		c0.1038284-0.1353893,0.1793289-0.3010311,0.2339478-0.4642258c0.319397-0.9542942,1.115715-1.2026997,1.8901291-0.566185
		c0.2691422,0.22122,0.5161896,0.286953,0.8442078,0.1295033c0.2622528-0.1258869,0.5628357-0.1697121,0.8322525-0.2834644
		c0.3318863-0.1401196,0.6716385-0.281868,0.9671097-0.4829769c0.3958588-0.2694416,0.8725204-0.3424454,1.2795181-0.1182194
		c0.4132004,0.2276497,0.5596771,0.6380062,0.4183807,1.0170517c-0.30233,0.8109951,0.063736,1.5659943,0.095871,2.3444328
		c0.0074081,0.1793156,0.2248459,0.4131718,0.4056778,0.5113907c0.8760147,0.4758129,0.9938278,1.2443123,0.286026,1.966238
		c-0.138588,0.1413555-0.2432022,0.3306961-0.3191833,0.5160637c-0.2505493,0.611248-0.5608902,1.160183-1.1809464,1.4831238
		c-0.0971832,0.0506153-0.1997147,0.3159981-0.1561508,0.3737411c0.2145157,0.2843761,0.432991,0.6132107,0.7318954,0.7772846
		c0.7896423,0.4334545,0.9521942,1.1495476,0.3565826,1.8462315c-0.1025085,0.1198959-0.2507095,0.2772026-0.2395706,0.4052086
		c0.0663071,0.7627029-0.0221405,1.5707626,0.417511,2.2495308c0.2779617,0.4291401,0.4576416,0.8265743,0.1580048,1.2986145
		c-0.2560577,0.4033928-0.7562485,0.5822296-1.335144,0.3787651c-0.5361557-0.188446-1.0392456-0.2798901-1.5816269-0.0625305
		c-0.1106033,0.044323-0.2746506,0.027504-0.3884048-0.0211296c-0.4252167-0.1817799-0.6338196,0.0191536-0.8438721,0.3686256
		c-0.4621887,0.7689438-1.304718,0.7687111-1.8448639,0.0430832c-0.1349945-0.1813431-0.317337-0.3521385-0.5153122-0.4575348
		c-0.7779465-0.4141827-1.3834076-0.9416237-1.4566345-1.8953495c-0.0081787-0.1065292-0.1005859-0.2065945-0.1539307-0.3096561
		c0.0277863-0.6068745,0.0555649-1.2137508,0.0841141-1.8376408c-0.1174088,0-0.1983643-0.0215931-0.2606888,0.003355
		c-0.5963058,0.2387085-1.1966095,0.4700661-1.7774811,0.7425213c-0.1153717,0.0541172-0.2084732,0.2715054-0.2161179,0.418581
		c-0.02668,0.5132065-0.0199966,1.0287857-0.0086136,1.5430813c0.0061798,0.2788887-0.0904236,0.3964787-0.3832169,0.3859329
		c-0.4992142-0.0179844-0.9995422-0.0048923-1.4994049-0.004879c-0.6130905,0.0000134-1.226181,0.0000038-1.8956604,0.0000038
		c0-0.2618084,0.0099182-0.4646873-0.0015411-0.6663551c-0.1075211-1.8919983,0.3024521-3.8190746-0.3798599-5.6717567
		c-0.0923538-0.2507725-0.1673279-0.5201092-0.3159332-0.7356319c-0.3819504-0.5539551-0.2770271-1.2835274,0.3023605-1.5995579
		C64.3444748,22.2646828,64.6538086,22.2220821,64.9390793,22.135355z M77.299324,31.5918026
		c0.2078476,0.0315018,0.5353012,0.1556892,0.5980301,0.0747375c0.1214294-0.1567078,0.1021957-0.4281845,0.1223831-0.6537857
		c0.0055084-0.0614986-0.0562973-0.1290245-0.0872116-0.1937828c-0.0890121-0.4684296-0.1688843-0.9389019-0.2728271-1.4039917
		c-0.0295715-0.1322918-0.1291885-0.2489281-0.1966858-0.3727417c-0.3832779-0.6472492-0.4203491-1.2099762,0.3799744-1.5725231
		c0.0366898-0.0166206,0.0641937-0.0597496,0.088974-0.0953941c0.1776581-0.2554607,0.0904083-0.7581615-0.1682358-0.773819
		c-0.4863052-0.0294399-0.6269226-0.4242554-0.8891373-0.6962681c-0.1764526-0.1830521-0.353714-0.3653221-0.5306091-0.547945
		c-0.0636063-0.0571423-0.123497-0.1587505-0.1914062-0.1644249c-0.5646667-0.0471802-1.1306381-0.0933685-1.6966248-0.0990448
		c-0.1317368-0.0013218-0.2650375,0.1533718-0.3976212,0.2362823c-0.3852005,0.2645931-0.770401,0.5291862-1.1556091,0.7937794
		c-0.491684,0.275732-0.7341614,0.2227383-0.9745407-0.2129917c0.5287628-0.6209049,1.0539932-1.2449036,1.5924683-1.8572674
		c0.0468521-0.053278,0.1808319-0.0299454,0.2743378-0.0421982c0.5324707,0.5748634,1.9884033,0.8823757,2.7843475,0.5910759
		c0.5079651-0.1859074,1.0605011-0.3152008,1.1757889-0.973959c0.2354736-0.5168667,0.2652588-1.150898,0.8737183-1.460741
		c0.0661545-0.0336914,0.0727005-0.403553-0.0115128-0.4721813c-0.2481766-0.2022419-0.5403748-0.4100628-0.8440857-0.4699612
		c-0.4101791-0.0808983-0.4002228-0.2385044-0.3168716-0.5731831c0.0684891-0.2750282,0.0581207-0.5899868,0.0025482-0.8714218
		c-0.1179123-0.5972309-0.2263107-1.1764278-0.0324097-1.7866192c0.0511169-0.1608639-0.0678558-0.427742-0.1938171-0.5712547
		c-0.0641479-0.073082-0.3413925-0.0263176-0.4796906,0.0468464c-0.2889709,0.1528835-0.5496674,0.3592243-0.8219757,0.5436096
		c-0.5910034,0.1272926-1.2427368,0.0837822-1.694603,0.602457c-0.1125107,0.0799847-0.225029,0.1599674-0.2929001,0.2082176
		c-0.3178253-0.2797375-0.5722656-0.5384922-0.8618546-0.7488499c-0.2928314-0.2127113-0.6883545-0.085083-0.7231827,0.2678356
		c-0.0479507,0.4858856-0.3679962,0.7427845-0.6675949,1.0302277c-0.4537811,0.4353561-0.6652832,0.9642258-0.5872879,1.5794086
		c0.1158218,0.9135818,0.6583099,1.5862045,1.324791,2.1712894c0.1508179,0.1324043,0.3271179,0.2357864,0.517601,0.3709068
		c-0.9110413,1.3596592-2.0136871,2.4435387-3.5129776,3.1323032c-0.1471481-0.6922874-0.1211166-0.727993,0.4835587-0.876112
		c0.124588-0.0305195,0.2565918-0.0818539,0.3544846-0.161377c0.4125366-0.3351116,0.8849106-0.6300735,1.1996689-1.0431442
		c0.355011-0.4659157,0.533905-0.8356133,0.2045212-1.2461624c-0.6007385-0.7821999-1.3452377-1.4991798-1.1331558-2.6962605
		c-0.1731567,0.0598278-0.2734299,0.0944748-0.373703,0.1291218c-0.1377258,0.0779037-0.300415,0.1309242-0.4080048,0.2388649
		c-0.2276535,0.2284012-0.3631287,0.0848694-0.5474625-0.0630817c-0.2956161-0.2372837-0.5927505-0.5102444-0.9374771-0.6398335
		c-0.4954605-0.1862583-0.8826218-0.4692707-1.186203-0.8842258c-0.3048172-0.4166412-0.4356766-0.4296398-0.802681-0.0557365
		c-0.0560379,0.1407566-0.1493912,0.2786407-0.1604996,0.4228611c-0.0246582,0.3201141-0.0080795,0.643404-0.008316,0.9654007
		c-0.2213898,0.5496597-0.485466,1.0853004-0.42939,1.7108078c0.0066223,0.0738277-0.1757278,0.2008457-0.2921219,0.2420464
		c-0.2564697,0.0907784-0.5293045,0.1339931-0.790802,0.2121811c-0.3688736,0.1102924-0.4951706,0.4703426-0.2299194,0.741106
		c0.3020325,0.3083134,0.3964691,0.6616821,0.4222488,1.0736752c0.032486,0.519146,0.2505875,0.9499245,0.6959763,1.2602921
		c0.9761047,0.6801949,2.0019379,0.706686,3.073616,0.2738781c0.0466614-0.0188427,0.1026611-0.0145473,0.2270813-0.0301647
		c-0.1216202,0.4507828-0.2005463,0.8487053-0.6743927,0.9906807c-0.4489899,0.1345329-0.8997803,0.2631683-1.3502502,0.3927441
		c-0.5460663,0.157074-0.607666,0.2767811-0.4183426,0.8652973c0.1239471-0.0182476,0.2554474-0.0261402,0.380928-0.0578403
		c1.3151932-0.3322906,2.5861816-0.7767277,3.7630768-1.4669876c0.5263977-0.3087368,1.2158966-0.2167473,1.5717392,0.1204643
		c-0.28479,0.5679646-0.5530548,1.102972-0.821312,1.6379833c-0.3902283,0.4818878-0.3945923,1.2262707-0.0103378,1.7614117
		c0.1219482,0.5833988,0.6047058,0.8188343,1.0425491,1.1118717c0.2890701,0.1934624,0.571785,0.4176216,0.7965851,0.6800823
		c0.2363739,0.2759628,0.5430374,0.3322754,0.7582779,0.0386467c0.1526337-0.20821,0.3098068-0.4272747,0.3965607-0.666317
		c0.1360474-0.3748226,0.3480148-0.3491211,0.6233902-0.1916389c0.234581,0.0577679,0.4674606,0.1553555,0.704071,0.1654148
		C76.1368484,31.6070309,76.7184296,31.5912914,77.299324,31.5918026z"/>
	<path class="st2" d="M45.302002,36.2653923c-0.0920219-0.2553329-0.1952515-0.5072899-0.2735138-0.7667732
		c-0.1252708-0.4153671-0.2339821-0.8357277-0.3496933-1.2539825c0.0122414-0.1121597,0.0544357-0.2307549,0.0319595-0.3354607
		c-0.1679764-0.7825279,0.2471886-1.6129265,0.967289-1.9073486c0.4637184-0.1895943,0.9281578-0.3774319,1.4592094-0.5932598
		c0.1075668,0.4351521,0.2268028,0.9175014,0.3368378,1.362627c0.3882446-0.1110954,0.7528076-0.3160858,1.1034317-0.2945061
		c0.7010078,0.0431442,1.3943787,0.2104111,2.1213799,0.3314972c-0.0725899,0.078804-0.1299629,0.1410904-0.1873398,0.2033806
		c-0.1350594,0.0459709-0.2826958,0.0705032-0.4032478,0.1412086c-1.28368,0.7528992-2.5594101,1.5194206-3.8473778,2.2648392
		c-0.2037811,0.1179428-0.4574356,0.1497231-0.6880341,0.2213364c-0.1210823-0.0921021-0.2421646-0.1842041-0.3632431-0.2763062
		c-0.0306435,0.0165329-0.0612907,0.0330696-0.0919342,0.0496063C45.1791496,35.6966286,45.2405777,35.9810104,45.302002,36.2653923
		z"/>
	<path class="st2" d="M87.913353,52.3308296c-0.2353897,0.6742439-0.4707794,1.3484917-0.7061691,2.0227394
		c0.0339966-0.2047882,0.0680008-0.4095764,0.1019974-0.6143723c-0.0349655-0.0107994-0.0699234-0.0216064-0.1048889-0.0324097
		c-0.1183853,0.0968018-0.236763,0.1936073-0.3551483,0.2904129c-0.1665649-0.0445404-0.3524399-0.055687-0.4965515-0.1390533
		c-0.922966-0.5339966-1.8336182-1.0892525-2.7546844-1.6266098c-0.6169052-0.3598938-1.2443161-0.7017822-1.8670197-1.0517311
		c1.0749054-0.0210571,2.1380081-0.8261719,3.1959229,0.0045433c0.1492157-0.5420609,0.2832489-1.029007,0.3961411-1.4391289
		c0.4897842,0.2010918,0.8678513,0.3689537,1.2551422,0.5118103c0.3957672,0.1459808,0.7854233,0.3110886,0.9151459,0.7484818
		c0.1379318,0.4650536,0.2192841,0.9468803,0.3186569,1.3914757C87.7910156,52.4106064,87.8521805,52.3707161,87.913353,52.3308296z
		"/>
	<path class="st2" d="M87.4665985,65.3806229c0.083313,0.2597351,0.1666336,0.5194626,0.2796097,0.8716431
		c-0.2661362-0.07164-0.4355087-0.135437-0.6104507-0.1608353c-0.4759521-0.0690613-0.9622116-0.0870361-1.4287643-0.1936417
		c-0.2999496-0.0685349-0.5843201-0.2383881-0.8511505-0.4026642c-0.109169-0.067215-0.1536179-0.2395554-0.246788-0.3965836
		c-0.3506088,0.5626068-0.613121,0.9838409-0.8750534,1.4041595c-0.354126-0.3384018-0.6467361-0.6180191-0.9393463-0.8976288
		c-0.0497055,0.0309448-0.0994186,0.0618896-0.1491241,0.0928345c0.0197601,0.1286774,0.0395279,0.2573471,0.059288,0.3860245
		c-0.0825729-0.1334305-0.2281799-0.2628174-0.2370224-0.4009628c-0.0423203-0.6616211-0.2050552-1.251442-0.7448578-1.6954346
		c-0.2765732-0.2274857-0.192543-0.4835701,0.0167465-0.7188683c0.034996,0.2117462-0.2411499,0.4925537,0.1781311,0.6525307
		c0.1466217-0.2981834,0.2605057-0.6146507,0.4447632-0.8827324c0.2240219-0.3259392,0.4924774-0.625721,0.7703552-0.9086838
		c0.1787033-0.1819611,0.4090118-0.3132515,0.6161957-0.4672546c0.1098099,0.2371979,0.1720657,0.516243,0.3376617,0.7042961
		c0.703743,0.7991524,1.4357147,1.5735703,2.1622772,2.3524475c0.396759,0.4253387,0.8033066,0.8415451,1.2509537,1.309433
		C87.4858093,65.7530899,87.4762039,65.5668564,87.4665985,65.3806229z"/>
	<path class="st2" d="M49.8802185,47.5515594c-0.0540581-0.2510452-0.2134972-0.2783585-0.3835983-0.1383781
		c-0.2561035,0.2107506-0.4875565,0.4514503-0.802166,0.7479057c-0.2574654-0.4246445-0.5141525-0.848011-0.8061371-1.3295898
		c-0.4571571,0.6794281-1.107151,0.7567253-1.8291664,0.7616577c-0.4325752,0.0029564-0.863781,0.2070007-1.364975,0.3389244
		c0.077404-0.0930328,0.1205406-0.1448784,0.1636772-0.1967239c0.0582161-0.0441666,0.1243668-0.080925,0.1734848-0.1335793
		c1.1762199-1.2609062,2.356884-2.5178337,3.5149002-3.7952805c0.1066666-0.1176682,0.0668716-0.3680954,0.0950851-0.5568771
		c0.2620583,0.1996613,0.5094261,0.423439,0.7892647,0.5939178c0.5646286,0.3439789,0.6529655,0.9849014,0.9741135,1.4794502
		c0.0713692,0.1099014,0.1802864,0.1954155,0.2719154,0.2921562c-0.4483757,0.516468-0.7148933,1.1033821-0.7083549,1.8001633
		C49.9686813,47.4604454,49.9109154,47.5061302,49.8802185,47.5515594z"/>
	<path class="st2" d="M83.1465759,59.2934265c-0.3829575,0.5420265-0.9137878,0.7421799-1.5650177,0.7202759
		c-0.2061234-0.0069275-0.4407043,0.0493698-0.6190033,0.1519279c-0.4433365,0.2550201-0.8899384,0.3359489-1.3952332,0.2371368
		c-0.2749786-0.053772-0.5691071-0.009594-0.854599-0.009594c-0.0209198,0.0483131-0.041832,0.0966339-0.0627518,0.1449509
		c0.149086,0.0767822,0.2945633,0.2103119,0.4478912,0.2200279c0.5223083,0.0330658,1.0473938,0.0224876,1.5714111,0.0285797
		c-0.3360519,0.0486603-0.6707153,0.1217041-1.0084381,0.1409721c-0.7324142,0.0417824-1.2111359-0.1705132-1.3082809-1.0394669
		c-0.0527649-0.4719009-0.392662-0.9002113-0.414711-1.4341812c-0.0190201-0.460434-0.3602829-0.7270355-0.8422241-0.8072166
		c-0.395401-0.065773-0.4080963-0.1227837-0.2281418-0.3993149c0.1085129,0.0874023,0.2167358,0.2491989,0.3255844,0.2496262
		c0.5368271,0.0020561,1.0738144-0.0386391,1.6491089-0.0660782c-0.0171509,0.0214005,0.0195236-0.0044861,0.0161057-0.0229454
		c-0.139679-0.7539902,0.016243-1.4300613,0.4220505-2.0897255c0.1970901-0.3203964,0.2297668-0.7419357,0.3533859-1.1756096
		c0.0577774,0.0850067,0.1040955,0.1531563,0.1504211,0.2212982c-0.0021439,0.1547661-0.0407181,0.3197021-0.000824,0.4627533
		c0.4229965,1.5168571,0.8725891,3.026432,1.2815475,4.5469742c0.1169052,0.4346542,0.3627014,0.6077805,0.757103,0.5065041
		c0.3546448-0.0910683,0.6861877-0.2738876,1.0254364-0.421917C82.9513321,59.4130478,83.047081,59.3489418,83.1465759,59.2934265z"
		/>
	<path class="st2" d="M44.4266357,36.2705879c0.0458298,0.3916626-0.072258,0.5927124-0.5127831,0.4783211
		c-0.5646744-0.1466255-1.0909767,0.0261154-1.6090469,0.2314453c-1.2524414-0.061367-2.5046463-0.1290054-3.7576447-0.1749268
		c-0.1337128-0.0049019-0.2720718,0.1170235-0.4082718,0.1801186c-0.1301994-0.0607224-0.2603989-0.1214447-0.3553848-0.1657448
		c0.4375877-0.2783699,0.8959351-0.4792404,1.2321663-0.8058243c0.4648056-0.4514732,0.9555321-0.710125,1.605587-0.6519012
		c0.0571556,0.0051231,0.1204414-0.0581551,0.1645088-0.0811348c-0.1287193-0.4966049-0.2501678-0.9651566-0.3575439-1.3794098
		c0.5856628-0.0532036,1.0746422-0.0886574,1.5613594-0.1440163c0.674984-0.0767746,1.4449425,0.3919754,1.6591034,1.0320396
		c0.1748276,0.5224915,0.4662933,1.0197678,0.3364754,1.6109619c-0.0149727,0.0681686,0.0855484,0.1617012,0.1325226,0.2434731
		c0.0719719-0.0587234,0.1530342-0.1095695,0.2129707-0.1787224C44.3764954,36.4123802,44.3956223,36.3363342,44.4266357,36.2705879
		z"/>
	<path class="st2" d="M52.6155014,36.0813637c0.055542-0.0846367,0.1110802-0.1692657,0.1238976-0.188797
		c0.2490921,0.5805092,0.525135,1.137722,0.7242432,1.7211876c0.1136551,0.3330536,0.1133995,0.7080307,0.1406822,1.0659409
		c0.0102539,0.1345444-0.0466347,0.2742157-0.0800438,0.4488106c0.7053337,0,1.3520508,0,2.083889,0
		c-0.1047249-0.1655006-0.1775169-0.2805405-0.250309-0.3955803c0.1132965,0.1283112,0.2265968,0.2566185,0.3398972,0.3849297
		c-0.1203461,0.0609474-0.23452,0.1498528-0.3620987,0.1780014c-0.5510445,0.121563-0.8819237,0.529129-0.9158554,1.0823822
		c-0.0161858,0.2639694-0.1061401,0.5265083-0.185524,0.7826157c-0.0735168,0.2371635-0.210804,0.4578476-0.2616043,0.6981316
		c-0.1356277,0.6414986-0.1635056,0.6788445-0.8224258,0.6867599c-0.0877228,0.0010529-0.1755638-0.0081596-0.2633476-0.012619
		c0.2089729-0.048027,0.4231911-0.0809593,0.6245537-0.1508942c0.0912361-0.0316849,0.1569595-0.136837,0.2342606-0.2086601
		c-0.0892448-0.0473518-0.1784363-0.1344376-0.267746-0.134552c-0.2611046-0.0003319-0.5219803,0.0393295-0.7834854,0.0529175
		c-0.1743736,0.0090561-0.3816299,0.0613098-0.519165-0.0107574c-0.6835213-0.358139-1.4353981-0.411644-2.1699677-0.5488701
		c-0.0746231-0.0139427-0.1358299-0.0996819-0.20327-0.1520958c0.359169,0.055275,0.718502,0.1484337,1.077446,0.1469536
		c0.1414299-0.0005798,0.3653641-0.1866913,0.4100685-0.3319244c0.4542961-1.4758682,0.8858604-2.9589005,1.3050194-4.4452248
		C52.6533508,36.5417328,52.611042,36.3049545,52.6155014,36.0813637z"/>
	<path class="st2" d="M89.9309845,55.2512703c-0.4680634-0.0644531-0.9361267-0.1289024-1.4041977-0.1933556
		c0.0112915-0.4121933-0.2126923-0.8152313,0.0112-1.240097c0.2733765-0.5187759,0.3071747-1.1550293,0.9245071-1.4911423
		c0.8359375-0.4551239,1.6878357,0.0573082,2.5724945-0.220047c-0.1425781,0.5796585-0.2594528,1.0548058-0.3902817,1.5866966
		c0.2082748,0.0117836,0.382843-0.0014153,0.545723,0.0361099c0.2653961,0.061142,0.5603867,0.1004601,0.7765579,0.2468948
		c0.4833069,0.3273849,0.9257355,0.7151146,1.3848114,1.0782661C92.8781891,55.1201515,91.4045868,55.1857109,89.9309845,55.2512703
		z"/>
	<path class="st2" d="M45.5729027,35.6389503c0.2305984-0.0716133,0.4842529-0.1033936,0.6880341-0.2213364
		c1.2879677-0.7454185,2.5636978-1.51194,3.8473778-2.2648392c0.1205521-0.0707054,0.2681885-0.0952377,0.4032402-0.1412163
		c-0.3510437,0.8869781-0.333683,1.9722023-1.3465347,2.5046272c-0.0168076,0.008831-0.0149193,0.0532341-0.0311852,0.1194038
		c0.2597122,0.2072868,0.5263405,0.4327736,0.8066673,0.6396866c0.2118225,0.1563492,0.317337,0.0222092,0.3808365-0.1750717
		c-0.0256042,0.1185722-0.0238724,0.3202057-0.0821838,0.3393974c-0.1467514,0.0482941-0.3427544,0.0644493-0.4795113,0.0040436
		c-0.4513512-0.1993637-0.885891-0.2755318-1.3324699-0.0042c-0.3875198,0.2354584-0.5333099,0.5838814-0.5326996,1.0281792
		c0.0002594,0.1879387-0.080883,0.3759956-0.1250305,0.5639954c-0.0451317-0.0545425-0.0791435-0.1343727-0.1370621-0.1598625
		c-0.9341583-0.4111214-1.7441978-0.9364586-1.9563942-2.0404968C45.6628838,35.763073,45.6082268,35.7028694,45.5729027,35.6389503
		z"/>
	<path class="st2" d="M81.7308884,51.1798058c0.6227036,0.3499489,1.2501144,0.6918373,1.8670197,1.0517311
		c0.9210663,0.5373573,1.8317184,1.0926132,2.7546844,1.6266098c0.1441116,0.0833664,0.3299866,0.0945129,0.4965515,0.1390533
		c-0.0469666,0.090271-0.1237717,0.17659-0.1363373,0.2714233c-0.1359634,1.0259705-0.9137344,1.461792-1.7224274,1.8453789
		c-0.2548294,0.1208763-0.216835,0.2608681-0.1728897,0.4488907c-0.0896759-0.2137718-0.2516556-0.4258041-0.2568512-0.641613
		c-0.0261917-1.0860519-0.7541428-1.5723267-1.777153-1.1712532c-0.1575165,0.0617523-0.3500824,0.0341072-0.5264359,0.0478096
		c0.3735504-0.2843819,0.7471085-0.5687675,1.1455383-0.8720932c-0.0988388-0.0893555-0.142746-0.1507225-0.2023849-0.1795616
		c-0.5112686-0.247242-0.7644958-0.6559296-0.9033813-1.2066498C82.1780701,52.0686646,81.9247055,51.6317444,81.7308884,51.1798058
		z"/>
	<path class="st2" d="M46.3658676,29.9940147c0.1172447,0.4912357-0.2942696,0.6012173-0.5853462,0.7677326
		c-0.2244148,0.1283779-0.4951477,0.1729336-0.7380905,0.2723484c-0.621315,0.2542477-0.9950867,0.7445469-1.2500153,1.3428078
		c-0.1196213-0.1003723-0.2609138-0.1837311-0.3553123-0.3039207c-0.5693207-0.7248859-1.1271324-1.4587917-1.6903534-2.1884804
		c-0.333622-0.4322243-0.6701126-0.8622341-1.0348663-1.3312473c0,0.3535938,0.0004272,0.6276836-0.0000916,0.9017677
		c-0.0010185,0.5364571-0.0025673,1.0729122-0.0038986,1.6093693c-0.0609779-0.2026405-0.1681671-0.4038372-0.1745377-0.6081791
		c-0.0218658-0.7010555-0.0083923-1.4032154-0.0083923-2.0051842c0.6525192,0.1415157,1.3344612,0.2573357,1.9948578,0.4478474
		c0.2784996,0.0803432,0.5180359,0.3093567,0.7623138,0.488472c0.1080284,0.0792084,0.1838264,0.2023678,0.2825127,0.3149967
		c0.3364296-0.4563789,0.6375313-0.8648453,0.8999748-1.2208614c0.5972061,0.656044,1.1267471,1.2377567,1.691246,1.8578701
		C46.2105331,30.2494583,46.2882004,30.1217384,46.3658676,29.9940147z"/>
	<path class="st2" d="M54.6648178,46.4862976c0.251873,0.0579071,0.5187874,0.0810699,0.7520256,0.1820259
		c0.3331718,0.1442146,0.6444588,0.3406143,0.9597092,0.5239906c0.1935616,0.1125946,0.3770599,0.2424812,0.5650787,0.3646011
		c-0.2060547,0.4182892-0.4082413,0.8385544-0.6209908,1.2534103c-0.0507507,0.0989685-0.1204567,0.2032394-0.2092819,0.2651062
		c-0.4269447,0.2973862-0.5896759,0.7107353-0.5701828,1.2136497c-0.1235275-0.0967789-0.2470512-0.1935616-0.414135-0.3244667
		c-0.0650482,0.1497269-0.0926437,0.2816505-0.1682854,0.3743858c-0.2167473,0.2657051-0.4116707,0.5804596-0.6903648,0.7576981
		c-0.5349197,0.3401871-1.1217155,0.5988045-1.7270699,0.9119987c-0.0535965-0.3101234-0.1144295-0.662117-0.1752739-1.0141068
		c0.0960159,0.2127571,0.1920433,0.4255142,0.310955,0.688961c0.0688095-0.106266,0.1160011-0.1592331,0.1413078-0.2211418
		c0.6071091-1.4853592,1.2163811-2.969883,1.8102341-4.4605446C54.6892815,46.8493919,54.6550064,46.6590614,54.6648178,46.4862976z
		"/>
	<path class="st2" d="M88.5439453,50.5447502c-0.2819672-0.7785416-0.9228058-1.1147156-1.6459885-1.374649
		c-0.2622147-0.0942497-0.5016022-0.2697487-0.7287674-0.4386215c-0.2110519-0.1568947-0.2325592-0.36026-0.0244064-0.5548096
		c0.0475616,0.1861839,0.0951233,0.3723679,0.1305313,0.5109863c0.3823318-0.4008522,0.7185974-0.7497902,1.0503159-1.1030045
		c0.1297302-0.138134,0.28759-0.2676964,0.3658295-0.4328156c0.194191-0.4098625,0.3811951-0.2738686,0.5634766-0.0147781
		c0.2059555,0.2927475,0.3905487,0.6005287,0.5449066,0.8403587c0.4502335-0.2837486,0.8316574-0.6514015,1.2803726-0.7752609
		c0.5832596-0.1609955,1.2230225-0.1173439,1.7416-0.5114708c0.0181198,0.053524,0.036232,0.107048,0.0543518,0.1605682
		c-0.1559753,0.1402245-0.3373032,0.2607841-0.4638214,0.4238586c-0.8224258,1.0600624-1.6360931,2.1269913-2.4442596,3.1979942
		C88.8351212,50.6493187,88.7168503,50.7053604,88.5439453,50.5447502z"/>
	<path class="st2" d="M59.9383507,45.0968666c-0.231472-0.0069656-0.464653,0.0012512-0.6940079-0.0245323
		c-0.3271561-0.0367813-0.6890945-0.0250511-0.9677734-0.1676903c-0.3683167-0.1885071-0.721508-0.2765236-1.1276283-0.2696533
		c-0.1865921,0.0031548-0.3750229-0.1025734-0.5626183-0.1589355c0.1300545,0.0203819,0.2594872,0.0469475,0.3902626,0.0601234
		c0.7256851,0.073101,0.774929,0.0362129,0.9765778-0.6615334c0.3239937-1.1210785,0.6651573-2.2374191,0.9715919-3.3632393
		c0.1358566-0.4991264,0.2046432-1.0165024,0.303875-1.5255966c0.0609512,0.0109138,0.1638412,0.0044708,0.1766052,0.0353203
		c0.2152939,0.5203667,0.4670563,1.0326347,0.6115112,1.5732079c0.1257286,0.4705086,0.1274529,0.9741554,0.1944618,1.5538864
		c0.1767387-0.0523643,0.4373665-0.1295853,0.6979942-0.2068062c-0.0573807-0.0973816-0.1147652-0.194767-0.1721458-0.2921524
		c0.3714828,0.0410919,0.4307976,0.2043953,0.1889,0.5363464c-0.2988358,0.4100723-0.6018867,0.8170815-0.90308,1.2254066
		C59.739994,43.9601898,59.8180046,44.5274658,59.9383507,45.0968666z"/>
	<path class="st2" d="M88.5439453,50.5447502c0.172905,0.1606102,0.2911758,0.1045685,0.4241409-0.0716438
		c0.8081665-1.071003,1.6218338-2.1379318,2.4442596-3.1979942c0.1265182-0.1630745,0.3078461-0.2836342,0.463829-0.423851
		c-0.0008698,0.5335083-0.0397644,1.0704155,0.0074692,1.5996284c0.0534744,0.5992851-0.14534,1.08395-0.5592957,1.5168343
		c0.5267868,0.197094,1.0078888,0.3770981,1.4495392,0.5423431c-0.0743332,0.2450333-0.1227112,0.4044838-0.1710739,0.5639305
		c-0.3669434-0.205143-0.7329865-0.2200851-1.1307449-0.0618515c-0.1779633,0.070797-0.427597,0.1040306-0.5947037,0.0343742
		c-0.6490784-0.270546-1.2265167-0.0782471-1.8062057,0.1921577c-0.0509033,0.0237427-0.1086655,0.0327568-0.2040176,0.0604591
		C88.7574692,51.0431404,88.6507111,50.7939415,88.5439453,50.5447502z"/>
	<path class="st2" d="M40.7078934,31.0643921c0.0013313-0.5364571,0.0028801-1.0729122,0.0038986-1.6093693
		c0.0005188-0.2740841,0.0000916-0.5481739,0.0000916-0.9017677c0.3647537,0.4690132,0.7012444,0.8990231,1.0348663,1.3312473
		c0.563221,0.7296886,1.1210327,1.4635944,1.6903534,2.1884804c0.0943985,0.1201897,0.2356911,0.2035484,0.3553123,0.3039207
		c-0.0762024,0.184906-0.152401,0.3698196-0.2415085,0.5860672c-0.7058487-0.3446922-1.3988457-0.4998703-2.1383438-0.2501183
		c-0.1109428,0.037468-0.2667427,0.005455-0.3814163-0.0428162c-0.4196892-0.1766586-0.8218956-0.1561966-1.2198944,0.0547066
		c-0.0339165-0.1593628-0.0678368-0.3187294-0.1192894-0.5604935c0.4253845-0.1651764,0.8865013-0.3442268,1.3717232-0.5326385
		C40.9345474,31.4257317,40.8212204,31.24506,40.7078934,31.0643921z"/>
	<path class="st2" d="M65.6668777,41.8120232c0.1748123-0.1465187,0.349617-0.2930412,0.5244293-0.4395599
		c-0.2314148,0.7682266,0.1362839,1.4252777,0.2393646,2.1138268c0.0404663,0.2703094-0.0703583,0.5674515-0.1339417,0.8474617
		c-0.033905,0.1493111-0.1139755,0.288147-0.2009811,0.4989891c0.2576065,0,0.4536133,0,0.6496201,0
		c-0.2161026,0.0679398-0.4284592,0.153244-0.6489487,0.2008781c-1.0746384,0.2321587-1.9644852,1.311573-1.9898148,2.4224701
		c-0.0054016,0.2369728,0.0353851,0.5532188-0.364399,0.2743492c0.4300957-0.1048088,0.2279205-0.3052864,0.0643311-0.4805603
		c-0.3367271-0.3607941-0.750103-0.6021271-1.2225685-0.7429352c0.5796051,0.1449547,0.8907318-0.1476898,1.1003571-0.6476517
		c0.0951004-0.2268257,0.2489433-0.4287186,0.3728638-0.6438141c0.6459351-1.1212196,1.2908096-2.2430458,1.958374-3.40345
		C65.8605423,41.812027,65.76371,41.812027,65.6668777,41.8120232z"/>
	<path class="st2" d="M45.8415337,40.0444107c0.2903824,0.2988396,0.5807686,0.5976791,0.871151,0.8965187
		c-0.658638,0.1143723-1.3657875,0.0823669-1.8995171,0.586319c-0.2108383,0.1990776-0.3892212,0.4321785-0.5873146,0.6451988
		c-0.2531548,0.2722397-0.515873,0.5357056-0.7651138,0.8114052c-0.1053886,0.1165733-0.2106934,0.2438698-0.2749825,0.3849907
		c-0.210331,0.4617081-0.4296532,0.5243721-0.8879929,0.229496c0.144577,0.0119667,0.2939491,0.0515327,0.4322662,0.0274925
		c0.118515-0.0205994,0.2243767-0.1140213,0.3358345-0.1752357c-0.0114746-0.0587006-0.022953-0.1174049-0.0344276-0.1761055
		c-0.7437515-0.1407585-1.4874992-0.2815208-2.2469444-0.4252548c0.0251389-0.0350952,0.0638733-0.0891762,0.1026077-0.1432571
		c0.0690079-0.022953,0.1433754-0.0360603,0.2062378-0.0702972C42.6768074,41.7732735,44.2590637,40.9086494,45.8415337,40.0444107z
		"/>
	<path class="st2" d="M85.2513275,58.9301453c0.0697632-0.0732727,0.1395187-0.1465492,0.2092819-0.2198257
		c0.0265427,0.0171852,0.0530777,0.0343781,0.0796204,0.0515671c-0.0357437,0.1426659-0.0714874,0.2853394-0.1247711,0.4980049
		c0.6176529-0.0461884,0.7256546-0.6833267,1.1620712-0.8592987c1.6246109,0.8919716,3.2492218,1.7839432,4.9005585,2.6905899
		c-0.5164642,0.1517563-0.9413834,0.2766113-1.3663025,0.4014702c-0.1446457,0.0253296-0.2977448,0.0295258-0.4311829,0.0828857
		c-0.1011581,0.0404358-0.1772385,0.1435547-0.264473,0.2187881c0.1055603,0.0570221,0.2128983,0.1646042,0.3163147,0.160965
		c0.2455826-0.0086555,0.4893112-0.0699959,0.7337875-0.1100388c-0.2590179,0.0865822-0.5133591,0.2054138-0.7793427,0.2441063
		c-0.1085815,0.015789-0.2617188-0.1232414-0.3607941-0.2247963c-0.2140579-0.2194099-0.4096146-0.4573402-0.6063919-0.692997
		c-0.1672211-0.200264-0.351181-0.3927345-0.483345-0.6150436c-0.5646667-0.9498024-1.4245148-1.2932816-2.4752045-1.1835823
		C85.3672791,59.4140663,85.2782135,59.2421417,85.2513275,58.9301453z"/>
	<path class="st2" d="M91.2542267,45.4324188c0.0523224,0.3553886-0.1255646,0.499382-0.4595642,0.5486526
		c-0.4877167,0.0719414-0.9719925,0.1691246-1.4556122,0.2661133c-0.2725906,0.0546646-1.6483154-0.7964172-1.6476517-1.0595093
		c0.0022278-0.8874969,0.0295029-1.774929,0.0471954-2.662384c0.3941574,0.4993515,0.8130417,0.9817619,1.1718063,1.5053635
		c0.1731949,0.2527809,0.2494812,0.5783348,0.3375168,0.8803062c0.0414581,0.1421814,0.0071106,0.306469,0.0071106,0.4827919
		c0.5435028-0.1484261,1.0282898-0.2808189,1.5864487-0.4332466c-0.0407715,0.2777557-0.0813293,0.4208641-0.0759964,0.5622406
		c0.0038834,0.1028137,0.0684204,0.2033386,0.1059189,0.3048897c0.0965576-0.0669785,0.2014999-0.1249847,0.2864151-0.2043991
		C91.2066879,45.5775337,91.2231598,45.4971809,91.2542267,45.4324188z"/>
	<path class="st2" d="M44.6801949,22.4140415c0.1104088-0.0425777,0.2208214-0.0851555,0.331234-0.1277313
		c0.0413361,0.1187363,0.1182556,0.2373981,0.1185036,0.3562222c0.002491,1.1755867-0.0078354,2.3512039-0.0142097,3.5268116
		c-0.0008736,0.161665-0.0135536,0.324728,0.0027657,0.4847412c0.0424843,0.4165039-0.1006088,0.5911789-0.5527802,0.637558
		c-0.3168945,0.0325012-0.6268082,0.258728-0.9109955,0.442934c-0.2103729,0.1363621-0.3712692,0.3563862-0.6512413,0.1557293
		c0.077198-0.1365719,0.2312851-0.281723,0.2171783-0.4081039c-0.0423737-0.3797245-0.1503448-0.7521286-0.2480545-1.1972237
		c0.487854,0,0.9847145,0,1.5866356,0c-0.4816971-0.8197041-0.0975113-1.4301147,0.1858482-2.0947552
		c0.1983528-0.4652557,0.2118797-1.0121365,0.2880707-1.5255108C45.0738945,22.3901863,44.9119835,22.3375607,44.6801949,22.4140415
		z"/>
	<path class="st2" d="M94.351799,55.0545959c0.0545273,0.0122299,0.1090622,0.0244637,0.2509613,0.0562859
		c-0.7555008,0.570034-1.4582291,1.0934715-2.1499252,1.6311073c-0.0820999,0.0638199-0.1201401,0.2008095-0.1502075,0.3115921
		c-0.0594559,0.2191048-0.0990524,0.4435997-0.1468506,0.6658783c-0.0519867-0.4593391,0.1388245-0.9791374-0.3303452-1.3345299
		c-0.0920639-0.0697403-0.1858139-0.1861267-0.2836914-0.1914864c-0.7034073-0.0385399-1.0536346-0.6655617-1.6107559-0.9422112
		C91.4045868,55.1857109,92.8781891,55.1201515,94.351799,55.0545959z"/>
	<path class="st2" d="M40.2511597,39.2013741c-0.0199547-0.0210533-0.0593376-0.0445404-0.0570488-0.062809
		c0.075531-0.6031418-0.3686104-0.7787552-0.7770615-1.0478134c-0.466362-0.3072014-0.8554573-0.7317009-1.278141-1.105217
		c0.1361809-0.0630836,0.2745399-0.185009,0.4082527-0.1801071c1.2529984,0.0459213,2.5052032,0.1135597,3.7576447,0.1749268
		c-0.4144478,0.3506203-0.7704277,0.7669106-1.3538742,0.8892326c-0.4149666,0.0869942-0.6612968,0.3995094-0.6716461,0.8541336
		C40.2756538,38.8830681,40.2608566,39.0421638,40.2511597,39.2013741z"/>
	<path class="st2" d="M49.5184593,42.0159721c-0.5271683-0.5612679-1.0543404-1.1225319-1.5815125-1.6837959
		c0.0962372,0.0241051,0.1924744,0.0482063,0.2887077,0.0723076c0.431015,0.447567,0.86203,0.8951302,1.293045,1.3426933
		C49.5186234,41.8367767,49.5185432,41.9263725,49.5184593,42.0159721z"/>
	<path class="st2" d="M54.0236549,45.3638344c0.2234459,0.0566368,0.4529381,0.0972977,0.6671181,0.1784019
		c0.0769768,0.0291481,0.1170731,0.1556892,0.1739998,0.2377853c-0.1009483,0.0258141-0.2403908,0.1075859-0.2968559,0.0687447
		c-0.5352516-0.3681908-1.1373711-0.350338-1.7391167-0.32444c-0.3048935,0.0131187-0.6081963,0.0631294-0.9122238,0.0964546
		c0.2714005-0.0675278,0.5394936-0.1661987,0.8149529-0.195385C53.1596031,45.3800392,53.5926933,45.381958,54.0236549,45.3638344z"
		/>
	<path class="st2" d="M60.3841553,47.2995262c0.4494438,0.2180176,0.8988953,0.4360352,1.3483391,0.6540489
		c-0.0153694,0.0655708-0.0307426,0.1311417-0.0461159,0.1967125c-0.1661148-0.0129967-0.3598976,0.0239334-0.4924927-0.0495491
		c-0.2627411-0.145607-0.4916992-0.3521652-0.734623-0.5335274C60.434227,47.4779816,60.4091873,47.3887558,60.3841553,47.2995262z"
		/>
	<path class="st2" d="M47.4140091,39.6206055c-0.1474342-0.0014877-0.2948647-0.0029716-0.4422951-0.0044556
		c-0.1060944-0.3652611-0.2121887-0.7305222-0.3182869-1.095787c0.031662-0.0156364,0.063324-0.0312767,0.0949821-0.0469131
		C46.9702759,38.855835,47.1921425,39.2382202,47.4140091,39.6206055z"/>
	<path class="st2" d="M83.9571075,60.6324005c-0.1498566,0.1970825-0.2821045,0.4122734-0.4576263,0.5829697
		c-0.0780945,0.0759468-0.2434082,0.0622063-0.3691254,0.0891724c-0.0200043-0.0520058-0.0400085-0.1040077-0.0600128-0.1560097
		c0.2528992-0.2134972,0.5057907-0.4269867,0.7586899-0.6404762C83.8717194,60.5495071,83.9144135,60.5909576,83.9571075,60.6324005
		z"/>
	<path class="st2" d="M71.853035,59.1156578c0.0032425,0.0432549,0.0098419,0.0865631,0.0092316,0.1297607
		c-0.0101242,0.719101-0.0121841,0.7017746-0.7371368,0.7795753c-0.2909698,0.0312233-0.5717621,0.1572685-0.8571854,0.2401505
		c0.1102676-0.3841782,0.4644241-0.3317947,0.724472-0.3440514c0.4377594-0.0206299,0.7839966-0.0644379,0.7475891-0.6253967
		C71.73629,59.2383652,71.8134232,59.1757965,71.853035,59.1156578z"/>
	<path class="st2" d="M86.4182739,57.1769066c-0.1192093,0.2674065-0.2384186,0.5348091-0.3576202,0.8022156
		c-0.0345764-0.1051941-0.0760269-0.2087135-0.1019669-0.3159904c-0.0310745-0.128479-0.0488968-0.2601624-0.0724564-0.390461
		C86.0030136,56.9042854,86.2449417,57.2311554,86.4182739,57.1769066z"/>
	<path class="st2" d="M59.9383507,45.0968666c-0.1203461-0.5694008-0.1983566-1.1366768,0.0845222-1.6858482
		c0.0156975,0.6017799,0.043026,1.2036858,0.0363655,1.8052139c-0.0011826,0.107235-0.1223221,0.2626266-0.2258339,0.3063316
		c-0.1207123,0.0509605-0.2829018,0.003685-0.4270935-0.0009689C59.5759506,45.370369,60.0440788,45.5930443,59.9383507,45.0968666z
		"/>
	<path class="st2" d="M55.8636169,51.1092682c0.0080414-0.0680428,0.0160866-0.1360893,0.0241318-0.2041321
		c0.2730255,0.1275444,0.5460548,0.2550888,0.9234848,0.4314041C56.3212585,51.5496101,56.0763321,51.3840485,55.8636169,51.1092682
		z"/>
	<path class="st2" d="M85.8862305,57.2726631c0.0235596,0.1303062,0.0413818,0.2619896,0.0724564,0.3904686
		c0.0259399,0.1072769,0.0673904,0.2107964,0.1019669,0.3159904c-0.1893997,0.3015518-0.3609085-0.0378494-0.5425339-0.0151405
		C85.6408234,57.7335396,85.7635193,57.5031052,85.8862305,57.2726631z"/>
	<path class="st2" d="M88.3317337,42.5551224c-0.0549164-0.1253052-0.1010666-0.2554741-0.1670914-0.3746262
		c-0.0746841-0.1347923-0.1672134-0.259697-0.251976-0.3889046c-0.0460815,0.0139503-0.0921631,0.0279007-0.138237,0.041851
		c-0.0118256,0.2314262-0.0236435,0.4628487-0.0354538,0.6942787c-0.0352631-0.1375198-0.1059265-0.2776451-0.0960464-0.4118385
		c0.0103378-0.1404076,0.0980835-0.275116,0.1520004-0.4123154c0.1436081,0.0996819,0.334816,0.1703377,0.4180374,0.306839
		C88.3043976,42.1603622,88.296402,42.3709488,88.3317337,42.5551224z"/>
	<path class="st2" d="M61.0821609,48.6280518c0.2624779,0.1437836,0.5240173,0.2893257,0.7879524,0.430378
		c0.0900307,0.0481148,0.1987152,0.0686378,0.2773705,0.1295509c0.5780411,0.4476242,1.3910103,1.5039597,1.1315422,2.4077339
		c-0.0809364,0.2819176-0.2801132,0.5380249-0.4591408,0.7809029c-0.1281319,0.1738396-0.3333511,0.2900467-0.466362,0.4613342
		c-0.1217651,0.1568069-0.1928101,0.3530006-0.3447342,0.643898c-0.3668938-0.4118919-0.7042694-0.790657-1.0824623-1.2152405
		c-0.3612442,0.8385811-1.1005592,0.9987946-1.8644829,1.1607437c-0.3450241,0.073143-0.6601868,0.2871819-0.980732,0.4335709
		c-0.0821419-0.7184105-0.1928482-1.437767-0.2319298-2.1609993c-0.0140114-0.2593269,0.099472-0.5548973,0.2363853-0.78545
		c0.1640549-0.2762642,0.0474472-0.3591423-0.1772652-0.4374428c0.2199326,0.0013809,0.6099472-0.05756,0.3678055,0.3178902
		c-0.5841026,0.9056435-0.0799141,1.7728081-0.0819054,2.771286c0.1218224-0.1421471,0.1621895-0.17976,0.1913414-0.2246513
		c0.8763313-1.3493423,1.7604637-2.693821,2.615612-4.0564804C61.1073952,49.1157951,61.0589333,48.8494301,61.0821609,48.6280518z"
		/>
	<path class="st2" d="M59.2286301,38.9858093c-0.0992317,0.5090942-0.1680183,1.0264702-0.303875,1.5255966
		c-0.3064346,1.1258202-0.6475983,2.2421608-0.9715919,3.3632393c-0.2016487,0.6977463-0.2508926,0.7346344-0.9765778,0.6615334
		c-0.1307755-0.013176-0.2602081-0.0397415-0.3902626-0.0601234c-0.6474342-0.4338264-1.412693-0.7751427-1.5198822-1.6785545
		c-0.0361099-0.3043785-0.0058098-0.6427193,0.0937691-0.9311409c0.1582909-0.4584656,0.4002037-0.8880539,0.6508217-1.4241447
		c0.3664627,0.2361107,0.7830429,0.504509,1.2373009,0.7971878c0.0488167-0.1256371,0.10429-0.2400017,0.1380653-0.3604546
		c0.1215553-0.4335136,0.395443-0.7268562,0.7735138-0.9674187C58.4007034,39.6310654,58.8072357,39.2967606,59.2286301,38.9858093z
		"/>
	<path class="st2" d="M65.944725,49.7616234c-0.8458557-0.8677864-1.0123367-2.1420746-0.3502197-3.0784073
		c0.1711578-0.2420311,0.4745865-0.4253502,0.7556458-0.546833c0.4452286-0.1924553,0.9228134-0.3100662,1.4643021-0.4843102
		c0.0412521,0.1702728,0.1174393,0.4127426,0.1553268,0.6610565c0.0387955,0.2542572,0.0400925,0.5142403,0.0640945,0.8631439
		c1.1938171-0.7961273,2.2002487,0.1012917,3.2792053,0.1949997c-1.3575058,0.6382828-2.711174,1.2849655-4.0748596,1.909771
		C66.8211975,49.4721146,66.3766556,49.6031113,65.944725,49.7616234z"/>
	<path class="st2" d="M65.6668777,41.8120308c0.0968323-0.0000038,0.1936646-0.0000038,0.3486862-0.0000038
		c-0.6675644,1.1604042-1.312439,2.2822304-1.958374,3.40345c-0.1239204,0.2150955-0.2777634,0.4169884-0.3728638,0.6438141
		c-0.2096252,0.4999619-0.520752,0.7926064-1.1003571,0.6476517c-0.9136848-0.3585129-1.6338234-1.4244804-1.526844-2.3811302
		c0.0343628-0.3072586,0.2566681-0.6076088,0.4385757-0.8807602c0.2376976-0.3569107,0.5206833-0.6836586,0.8388863-1.0939064
		c0.2911224,0.3094406,0.6308632,0.6705513,0.9779205,1.0394402c0.0076447-0.0015068,0.0522346,0.0021896,0.0610847-0.0138397
		c0.3674507-0.6657791,0.95261-0.993721,1.6826363-1.1251869C65.2673111,42.0135498,65.4637375,41.8941307,65.6668777,41.8120308z"
		/>
	<path class="st2" d="M52.6155014,36.0813637c-0.0044594,0.2235909,0.0378494,0.4603691-0.0208855,0.6686554
		c-0.4191589,1.4863243-0.8507233,2.9693565-1.3050194,4.4452248c-0.0447044,0.1452332-0.2686386,0.3313446-0.4100685,0.3319244
		c-0.3589439,0.0014801-0.718277-0.0916786-1.077446-0.1469536c-0.2300797-0.1805267-0.4571991-0.3649902-0.6908302-0.540802
		c-0.6001549-0.4516144-0.8105965-1.3382378-0.4673882-2.0181694c0.1121025-0.222084,0.270916-0.4238739,0.3589745-0.6538506
		c0.0810928-0.2117882,0.095871-0.4489708,0.1591911-0.774292c0.4639854,0.2975845,0.8861732,0.5683632,1.3467407,0.8637581
		c0.0341682-0.0981026,0.0754204-0.1977272,0.1036682-0.3009148c0.1229134-0.4489326,0.3988304-0.7623177,0.7939491-1.008873
		C51.8260765,36.6851845,52.2138138,36.372097,52.6155014,36.0813637z"/>
	<path class="st2" d="M65.944725,49.7616234c0.4319305-0.1585121,0.8764725-0.2895088,1.2934952-0.4805794
		c1.3636856-0.6248055,2.7173538-1.2714882,4.0748596-1.909771c-0.2350159,0.4515572-0.519043,0.8851852-0.6925583,1.3592606
		c-0.2147141,0.5865974-0.5998077,0.9573631-1.2180557,1.1792374c0.3856812,0.4182205,0.7378769,0.8001213,1.0391769,1.1268463
		c-0.4589462,0.3159485-0.8482819,0.5784569-1.2317886,0.8492279c-0.6468658,0.4567108-1.5675049,0.2926674-2.1857529-0.2017059
		C66.3771133,51.1667862,66.068718,50.5346298,65.944725,49.7616234z"/>
	<path class="st2" d="M45.8415337,40.0444107c-1.5824699,0.8642387-3.1647263,1.7288628-4.7481956,2.5912704
		c-0.0628624,0.0342369-0.1372299,0.0473442-0.2062378,0.0702972c0.1932869-0.5190773,0.3348312-1.0661774,0.5960388-1.5484657
		c0.2133408-0.3939133,0.5695648-0.7104492,0.9174385-1.1271706c-0.314167-0.258831-0.6995049-0.5762939-1.0494347-0.8645859
		c0.5299606-0.4034348,0.9286156-0.7071495,1.3275299-1.0105324c0.4932632-0.3751335,1.0543137-0.4257088,1.5782967-0.161602
		C45.0942917,38.4156685,45.8680077,38.9339027,45.8415337,40.0444107z"/>
	<path class="st2" d="M54.6648178,46.4863014c-0.0098114,0.17276,0.0244637,0.3630905-0.036274,0.515564
		c-0.593853,1.4906616-1.203125,2.9751854-1.8102341,4.4605446c-0.0253067,0.0619087-0.0724983,0.1148758-0.1413078,0.2211418
		c-0.1189117-0.2634468-0.2149391-0.4762039-0.310955-0.688961c-0.1201897-0.4766083-0.2787094-0.9480247-0.3441887-1.4320374
		c-0.0320435-0.2368507,0.1089134-0.4971085,0.172699-0.7512665c-0.5194168-0.0482635-1.0032501-0.0932236-1.433876-0.1332359
		c0.1390686-0.6002884,0.2571068-1.1170921,0.3787613-1.6330414c0.1382446-0.5863266,0.6026459-0.9441872,1.100605-1.0269547
		C53.0725479,45.8796844,53.9784775,45.7171288,54.6648178,46.4863014z"/>
	<path class="st2" d="M48.6413231,43.2496185c-0.0282135,0.1887817,0.0115814,0.439209-0.0950851,0.5568771
		c-1.1580162,1.2774467-2.3386803,2.5343742-3.5149002,3.7952805c-0.049118,0.0526543-0.1152687,0.0894127-0.1734848,0.1335793
		c0.0026093-0.05756,0.0052147-0.1151199,0.0078125-0.1726799c0.0568008-0.219162,0.1441765-0.4355774,0.1641655-0.6580429
		c0.0439796-0.4894524,0.0539131-0.9819679,0.0777435-1.4732285c0.1627312-0.2462006,0.3254585-0.4923973,0.4870071-0.7368088
		c-0.4663239-0.22435-0.91782-0.4415627-1.327076-0.6384583c0.3553085-0.5028839,0.6756783-0.9415054,0.9799767-1.3910065
		c0.3302536-0.4878349,0.8585777-0.6358032,1.3520584-0.5645714C47.3994827,42.2160187,48.2123795,42.4232941,48.6413231,43.2496185
		z"/>
	<path class="st2" d="M61.0821609,48.6280518c-0.0232277,0.2213783,0.0252342,0.4877434-0.0810051,0.6570244
		c-0.8551483,1.3626595-1.7392807,2.7071381-2.615612,4.0564804c-0.0291519,0.0448914-0.069519,0.0825043-0.1913414,0.2246513
		c0.0019913-0.9984779-0.5021973-1.8656425,0.0819054-2.771286c0.2421417-0.3754501-0.1478729-0.3165092-0.3678055-0.3178902
		c-0.3602562-0.1057243-0.7205086-0.2114525-1.026783-0.3013382c0.2527122-0.5356712,0.4863663-1.025135,0.7149239-1.516964
		c0.259552-0.5585327,0.7705612-0.8262329,1.3094292-0.8154907C59.6922417,47.8589134,60.5308266,47.8906441,61.0821609,48.6280518z
		"/>
	<path class="st2" d="M49.5184593,42.0159721c0.0000839-0.0895996,0.000164-0.1791954,0.0002403-0.268795
		c0.3859406,0.148819,0.7718773,0.2976379,1.2253609,0.4725037c0.0227394,0.1597252,0.0605125,0.4250565,0.1214867,0.8533707
		C50.3572083,42.6741524,49.9378357,42.3450623,49.5184593,42.0159721z"/>
	<path class="st2" d="M45.1075745,45.4314041c-0.0238304,0.4912605-0.0337639,0.9837761-0.0777435,1.4732285
		c-0.019989,0.2224655-0.1073647,0.4388809-0.1641655,0.6580429c0.0243301-0.5664215,0.0385704-1.1335793,0.079834-1.698761
		C44.9562531,45.7165833,45.0512619,45.5754051,45.1075745,45.4314041z"/>
	<path class="st2" d="M79.9590225,69.6091614c0,0.2597275,0,0.5194473,0,0.7791748
		c-0.0454025,0.0341034-0.0908051,0.0682144-0.1362076,0.1023178c-0.6529922-0.9515839-2.1934738-0.7434998-2.4817886-2.1773071
		c-0.4423828,0.351387-0.818718,0.6503296-1.175148,0.9334488c-0.3190002-0.5312195-0.5782089-0.983551-0.8578186-1.4228973
		c-0.3006287-0.4723587-0.202713-0.9864349,0.0161362-1.3915787c0.3451767-0.6390076,0.8314514-1.197403,1.591507-1.4146423
		c0.3455811-0.0987778,0.6817169-0.2306061,1.0221405-0.347435c-0.2143936,0.2315903-0.214325,0.4691086-0.0903015,0.7595139
		c0.3548965,0.8310165,0.6774063,1.6758118,1.0181885,2.5129318c0.282341,0.6935654,0.5725479,1.3839264,0.8921814,2.1551285
		C79.8503952,69.873085,79.9047089,69.741127,79.9590225,69.6091614z"/>
	<path class="st2" d="M76.2669449,62.5589676c-0.2380295,0.4035034-0.6509476,0.3793869-1.0385361,0.4441032
		c-0.3500977,0.0584526-0.7159271,0.1172142-1.0320129,0.2664871c-0.8473969,0.400219-2.3504944,0.089695-2.8796616-0.6763649
		c-0.1483383-0.2147522-0.1880951-0.5157509-0.2381516-0.7845383c-0.0783844-0.4208641-0.1231384-0.8479767-0.1903763-1.331749
		c0.4158401,0,0.9133453,0,1.4216919,0c0-0.4807816-0.0743484-0.9125366,0.0206146-1.3031197
		c0.0977707-0.4021263,0.3860092-0.7540131,0.5422897-1.147213c0.1048965-0.2639198,0.1251221-0.5614929,0.2038574-0.9442978
		c0.1244888,0.1709061,0.1954727,0.2683563,0.2664642,0.3658066c-0.3470383,0.231102-0.0550919,0.4743233,0.004303,0.694458
		c0.3794174,1.4060555,0.7739868,2.8080521,1.1702118,4.209507c0.1325226,0.4687462,0.3231888,0.609848,0.8037109,0.5227051
		C75.6449966,62.8160439,75.9523239,62.6673851,76.2669449,62.5589676z"/>
	<path class="st2" d="M76.2669449,62.5589714c-0.314621,0.1084137-0.6219482,0.2570724-0.9455948,0.3157806
		c-0.4805222,0.0871429-0.6711884-0.0539589-0.8037109-0.5227051c-0.396225-1.4014549-0.7907944-2.8034515-1.1702118-4.209507
		c-0.0593948-0.2201347-0.3513412-0.463356-0.004303-0.694458c0.2866669,0.2239685,0.5473404,0.499218,0.8657303,0.6606445
		c0.5689545,0.2884674,0.9980774,0.654892,1.1008224,1.3172531c0.0080185,0.0516663,0.0543365,0.0973969,0.0878983,0.1544724
		c0.4509277-0.2900162,0.8899384-0.5723763,1.2676926-0.8153343c0.2563553,0.6072159,0.5012589,1.1236992,0.6934662,1.6591072
		c0.2268524,0.6319046-0.0532913,1.3830948-0.6051025,1.763546C76.5858536,62.3034515,76.4288712,62.434803,76.2669449,62.5589714z"
		/>
	<path class="st2" d="M90.1117859,61.4926529c0.4249191-0.1248589,0.8498383-0.2497139,1.3663025-0.4014702
		c-1.6513367-0.9066467-3.2759476-1.7986183-4.9005585-2.6905899c-0.102272-1.1581154,1.4448929-2.332489,2.4937668-2.1826859
		c0.2220383,0.0317078,0.4552917,0.1246033,0.6395798,0.2524414c0.4161224,0.2886391,0.804863,0.6167412,1.3419724,1.0358696
		c-0.3600235,0.2890663-0.7387161,0.5931282-1.111763,0.8926506c0.3381729,0.306427,0.6406403,0.5199203,0.8591537,0.7991257
		c0.1538391,0.1965446,0.1791611,0.4889374,0.2872467,0.7270203c0.2139893,0.4713669,0.4455414,0.934761,0.6545105,1.3695831
		C91.228302,61.3570099,90.6700439,61.4248314,90.1117859,61.4926529z"/>
	<path class="st2" d="M83.1465759,59.2934265c-0.0994949,0.0555153-0.1952438,0.1196213-0.2991791,0.164978
		c-0.3392487,0.1480293-0.6707916,0.3308487-1.0254364,0.421917c-0.3944016,0.1012764-0.6401978-0.0718498-0.757103-0.5065041
		c-0.4089584-1.5205421-0.858551-3.030117-1.2815475-4.5469742c-0.0398941-0.1430511-0.0013199-0.3079872,0.000824-0.4627533
		c0.2933884,0.2370949,0.5589294,0.5267334,0.8860931,0.7000809c0.6393814,0.3387833,1.1441269,0.7565422,1.2236404,1.5688972
		c0.482132-0.315155,0.9070663-0.592926,1.2793808-0.8362999c0.2194672,0.4834251,0.3887024,0.8917694,0.5869446,1.2855072
		C84.1705704,57.8973503,83.9444046,58.7352448,83.1465759,59.2934265z"/>
	<path class="st2" d="M87.4665909,65.3806229c0.009613,0.1862335,0.0192184,0.372467,0.033432,0.6480789
		c-0.4476471-0.4678879-0.8541946-0.8840942-1.2509537-1.309433c-0.7265625-0.7788773-1.4585342-1.5532951-2.1622772-2.3524475
		c-0.165596-0.1880531-0.2278519-0.4670982-0.3376617-0.7042961c0.2931061-0.9090958,2.0823135-1.5064087,2.9121246-1.0691185
		c0.3029785,0.159668,0.5256348,0.4882507,0.7566299,0.7635193c0.2445221,0.2913742,0.455368,0.6110115,0.7398453,0.9985771
		c-0.144516,0.0890694-0.3575592,0.2401772-0.5880356,0.3568459c-0.2296295,0.11623-0.4767456,0.1979027-0.831398,0.3413048
		C87.6709137,63.6738472,87.4238281,64.5642319,87.4665909,65.3806229z"/>
	<path class="st2" d="M79.9590225,69.6091614c-0.0543137,0.1319656-0.1086273,0.2639236-0.2011108,0.4886551
		c-0.3196335-0.7712021-0.6098404-1.4615631-0.8921814-2.1551285c-0.3407822-0.8371201-0.6632919-1.6819153-1.0181885-2.5129318
		c-0.1240234-0.2904053-0.1240921-0.5279236,0.0903015-0.7595139c0.9296799-0.6314621,2.0889969-0.6056671,2.9589691,0.0906601
		c0.1618881,0.12957,0.3165207,0.3239288,0.3736343,0.5180664c0.1615753,0.5491486,0.2707901,1.1137085,0.4181671,1.7476044
		c-0.4338379,0.0374451-0.9289551,0.0801697-1.4288025,0.1233139c0.0585709,0.3031464,0.2024307,0.612854,0.1537476,0.8885727
		C80.3193512,68.5721359,80.1167145,69.0866852,79.9590225,69.6091614z"/>
	<path class="st2" d="M71.6752472,23.2996349c-0.0999908,0.1075592-0.2505417,0.1985588-0.292038,0.3252735
		c-0.3614426,1.1034813-1.2497864,1.7353325-2.4356537,1.7077827c-0.6448898-1.6744175-1.2871933-3.3498363-1.9406967-5.0208759
		c-0.0416718-0.1065617-0.1702499-0.1791382-0.2583923-0.2675266c0.0039597-0.081274,0.0079269-0.1625481,0.0070496-0.1446075
		c0.5109024,0.2888088,1.0634689,0.5425205,1.5464859,0.8922749c0.4061584,0.2940998,0.731369,0.6999989,1.1460342,1.1093388
		c0.2445679-0.2143307,0.5988007-0.4866543,0.9026947-0.8067703c0.1573029-0.1656933,0.0506134-0.3259563-0.1823425-0.3620281
		c0.1002731-0.034647,0.2005463-0.069294,0.373703-0.1291218C70.3300095,21.8004551,71.0745087,22.5174351,71.6752472,23.2996349z"
		/>
	<path class="st10" d="M73.7949829,24.0104237c0.5722656,0.1879177,1.133461,0.4284153,1.7193222,0.551733
		c0.9356003,0.196928,1.6691818-0.2016048,2.2408142-0.9346085c-0.1152878,0.6587505-0.6678238,0.788044-1.1757889,0.9739513
		C75.7833862,24.8927994,74.3274536,24.5852871,73.7949829,24.0104237z"/>
	<path class="st10" d="M74.8529053,31.4169655c0.5223236-0.0091248,1.0458527-0.0429611,1.5665207-0.0177822
		c0.2957153,0.0143013,0.5867615,0.1252136,0.8798981,0.1926193c-0.5808945-0.0005112-1.1624756,0.0152283-1.7423477-0.0094223
		C75.3203659,31.5723209,75.0874863,31.4747334,74.8529053,31.4169655z"/>
	<path class="st10" d="M76.3439789,25.3562889c-0.499649-0.0734367-0.997551-0.1799545-1.4996796-0.206604
		c-0.2580872-0.0136986-0.5237427,0.1150417-0.7859726,0.1794147c0.1325836-0.0829086,0.2658844-0.2376022,0.3976212-0.2362804
		c0.5659866,0.0056763,1.131958,0.0518646,1.6966248,0.0990448C76.2204819,25.1975384,76.2803726,25.2991467,76.3439789,25.3562889z
		"/>
	<path class="st10" d="M77.9325256,30.8189716c-0.1454849-0.431818-0.3007889-0.8607044-0.4310684-1.29706
		c-0.0448837-0.1503105-0.0274124-0.3192387-0.0384293-0.4796696c0.067482,0.1238098,0.167099,0.2404461,0.1966705,0.3727379
		C77.7636414,29.8800697,77.8435135,30.3505421,77.9325256,30.8189716z"/>
	<path class="st10" d="M72.9027176,26.1228809c-0.0962372,0.366642-0.2598724,0.5376606-0.6461029,0.2809277
		c-0.1643219-0.1092186-0.3795013-0.1419106-0.6296616-0.2297935c0.1183014-0.1037331,0.2097626-0.1839275,0.3012238-0.2641239
		C72.1685562,26.3456192,72.4110336,26.398613,72.9027176,26.1228809z"/>
	<path class="st10" d="M66.2865601,19.3284836c0.0041733,0.2917595,0.0304031,0.5855122,0.004303,0.8745384
		c-0.0158005,0.1750259-0.1126709,0.3427315-0.1731186,0.5137253c0.0002365-0.3219986-0.0163422-0.6452885,0.008316-0.9654026
		C66.1371689,19.6071243,66.2305222,19.4692402,66.2865601,19.3284836z"/>
	<path class="st10" d="M75.9310226,18.0126343c-0.1713715,0.0658646-0.3412552,0.1359882-0.5144196,0.1967335
		c-0.39254,0.1376953-0.7866898,0.270771-1.1801834,0.4057236C74.6882858,18.0964165,75.3400192,18.1399269,75.9310226,18.0126343z"
		/>
	<path class="st10" d="M71.2458801,28.682909c-0.2531509,0.5856705-0.175705,1.1732826-0.0103378,1.7614117
		C70.8512878,29.9091797,70.8556519,29.1647968,71.2458801,28.682909z"/>
	<path class="st2" d="M76.6158066,18.1805649c0.1125107-0.0986862,0.225029-0.1973743,0.3375397-0.2960606
		c0.0349274,0.0147305,0.0698395,0.0294609,0.1047668,0.0441914c-0.3473053,0.7365112-0.0484695,1.4307995,0.0359802,2.1471558
		c0.0471573,0.39995-0.1708984,0.831171-0.2811127,1.2976894c0.4311371,0.1290569,0.9182587,0.2748756,1.33741,0.4003468
		c-0.2570648,0.5443039-0.4845734,1.0056591-0.6943436,1.4749413c-0.3225861,0.721653-1.2353668,1.0191822-2.0429688,0.9055271
		c-0.8663635-0.1219234-1.4253387-0.6529675-2.0542145-1.1260166c0.1930466-0.1009045,0.4615326-0.1516209,0.5673065-0.3105946
		c0.9154968-1.3759766,1.8049316-2.769392,2.6890717-4.1658821C76.6712341,18.4634285,76.6181488,18.3059349,76.6158066,18.1805649z
		"/>
	<path class="st2" d="M76.6158066,18.1805649c0.0023422,0.12537,0.0554276,0.2828636-0.0005646,0.3712978
		c-0.88414,1.3964901-1.7735748,2.7899055-2.6890717,4.1658821c-0.1057739,0.1589737-0.3742599,0.2096901-0.5673065,0.3105946
		c-1.0868301-0.3116455-1.8690643-1.4149761-1.7333221-2.5317783c0.0340424-0.2800636,0.2332077-0.5581512,0.4090118-0.7987709
		c0.2860031-0.3914471,0.6152802-0.7512741,1.0284271-1.2469864c0.1078262,0.1447449,0.2618942,0.3529263,0.4174576,0.5599842
		c0.1550751,0.2064018,0.3116531,0.4116707,0.4938049,0.6520424c0.1608124-0.2110157,0.2657394-0.441988,0.4449463-0.5624752
		c0.2848129-0.1914959,0.613205-0.3239956,0.9341125-0.454546C75.7685089,18.4768944,76.1944733,18.3344212,76.6158066,18.1805649z"
		/>
	<path class="st2" d="M73.0969696,26.7461052c0.5356979-0.7872028,1.2824173-1.1990108,2.2307892-1.2354145
		c0.4953918-0.0190163,0.8535767,0.229147,1.1567535,0.6059494c0.2792816,0.3471127,0.5942764,0.6655025,0.9633179,1.0737362
		c-0.3523941,0.2362766-0.7623367,0.5111389-1.1692276,0.7839603c0,0.0290146-0.0122528,0.0735283,0.00177,0.084507
		c0.5429306,0.4253044,0.7887268,0.975832,0.8088303,1.6701603c0.0102997,0.355751,0.1630173,0.7073803,0.2513733,1.060873
		c-0.2082901-0.0957851-0.4473648-0.1536312-0.6198425-0.29356c-1.0676651-0.8661804-2.1046753-1.7707996-3.1861343-2.6189804
		C73.1312866,27.5610199,72.8821182,27.2642612,73.0969696,26.7461052z"/>
	<path class="st2" d="M66.7484665,20.0442886c0.0881424,0.0883884,0.2167206,0.160965,0.2583923,0.2675266
		c0.6535034,1.6710396,1.2958069,3.3464584,1.9406967,5.0208759c-0.4421616,0.4969654-0.9493103,0.7450409-1.6595764,0.6868896
		c-0.562561-0.0460606-1.1290894,0.0269585-1.5271988-0.4623528c-0.2021332-0.2484322-0.392189-0.5314827-0.4941864-0.8307552
		c-0.1511536-0.4434834-0.2191696-0.9152985-0.3441849-1.4711208c0.4001236-0.0353184,0.8787384-0.0775681,1.367569-0.120718
		c0.0060883-0.0094337,0.0404739-0.0410156,0.0343246-0.0562572c-0.3188095-0.7906132-0.074707-1.5046501,0.2627411-2.2234459
		C66.7007065,20.6128178,66.6979904,20.3160686,66.7484665,20.0442886z"/>
	<path class="st2" d="M73.0969696,26.7461052c-0.2148514,0.5181561,0.034317,0.8149147,0.4376297,1.1312313
		c1.081459,0.8481808,2.1184692,1.7528,3.1861343,2.6189804c0.1724777,0.1399288,0.4115524,0.1977749,0.6198425,0.29356
		c0.0742264,0.0969868,0.1484451,0.1939735,0.1911163,0.2497349c-0.6611786-0.0212097-1.3126984-0.0102768-1.9565048-0.0754871
		c-0.34935-0.0353813-0.6879349-0.193531-1.0263977-0.3106842c-0.1171112-0.0405369-0.2191925-0.1244812-0.3465729-0.19944
		c-0.2132645,0.4983616-0.4095612,0.9570656-0.5792007,1.3534813c-0.4626923-0.2958164-0.8529205-0.5569344-1.2544098-0.7994308
		c-0.7098541-0.4287548-0.9604797-1.2271671-0.726265-2.015934c0.202652-0.6824646,0.4391098-1.2867966,1.1068726-1.6592026
		C72.9208374,27.2372017,72.9839859,26.9469719,73.0969696,26.7461052z"/>
</g>
</svg>
