<?xml version="1.0" encoding="utf-8"?>
<!-- Generator: Adobe Illustrator 22.1.0, SVG Export Plug-In . SVG Version: 6.00 Build 0)  -->
<svg version="1.1" id="Layer_1" xmlns="http://www.w3.org/2000/svg" xmlns:xlink="http://www.w3.org/1999/xlink" x="0px" y="0px"
	 viewBox="0 0 133.9646606 78.7948227" style="enable-background:new 0 0 133.9646606 78.7948227;" xml:space="preserve">
<style type="text/css">
	.st0{fill:#4153A4;}
	.st1{fill:#121245;}
	.st2{fill:#ABB8DE;}
	.st3{fill:#2C2C81;}
	.st4{clip-path:url(#SVGID_2_);fill:#4853A4;}
	.st5{clip-path:url(#SVGID_2_);}
	.st6{fill:#B8BBD8;}
	.st7{fill:#EDEDF5;}
	.st8{fill:none;stroke:#121245;stroke-miterlimit:10;}
	.st9{fill:none;stroke:#121245;stroke-miterlimit:10;stroke-dasharray:4.1037498,4.1037498;}
	.st10{fill:#3E54A3;}
	.st11{fill:none;stroke:#121245;stroke-miterlimit:10;stroke-dasharray:3.9702759,3.9702759;}
	.st12{fill:#FFFFFF;}
</style>
<g>
	<path class="st2" d="M97.5388794,51.6079063c-0.7250137-0.1039467-1.4502563-0.2064285-2.1749573-0.312561
		c-0.2862396-0.0419159-0.5717697-0.0891647-0.8567047-0.1392441c-0.2043839-0.0359154-0.3346024,0.0287399-0.4531784,0.2133751
		c-0.6688309,1.0415001-1.4380035,2.0055199-2.2796707,2.9136276c-0.1064987,0.1149063-0.1976013,0.3008232-0.1941986,0.4515495
		c0.0203476,0.9022713-0.1474075,1.7568321-0.4706955,2.6019211c-0.110672,0.2892876-0.0341034,0.6662598,0.0099487,0.9960861
		c0.2937546,2.1993713,0.9091721,4.3060837,1.9198914,6.2839851c0.7223282,1.4135208,1.5639725,2.7527161,2.6979218,3.8846054
		c0.0406418,0.0405655,0.0763321,0.0865631,0.1104507,0.1328812c0.0096817,0.0131454,0.0056076,0.0364304,0.0153122,0.1174316
		c-0.4243164,0.1784439-0.859108,0.3794708-1.306633,0.5463409c-1.8579865,0.6927795-3.7913513,0.9043503-5.7538834,0.7844009
		c-2.295578-0.1403122-4.5090408-0.6806793-6.5690918-1.7128601c-1.5945892-0.7989655-3.1506882-1.6777267-4.701622-2.5601578
		c-2.2835999-1.2993011-4.6011276-2.5308189-6.9791641-3.6480293c-0.3057556-0.1436462-0.6223221-0.2676392-0.9162216-0.4322624
		c-0.307991-0.1725197-0.6264038-0.2153168-0.9721298-0.2145805c-3.3416138,0.007103-6.6832657-0.0003433-10.0248718,0.0085297
		c-1.4090195,0.0037422-2.817997,0.0342941-4.2269249,0.0568275c-0.8488503,0.0135803-1.6984138,0.0680695-2.5461655,0.046257
		c-1.699585-0.0437317-3.3926849-0.1719971-5.0289307-0.6874619c-1.3822594-0.4354515-2.6504288-1.0749016-3.642189-2.1629028
		c-0.895153-0.9820137-1.4354935-2.1432419-1.6368484-3.4562225c-0.2468948-1.6099434,0.003418-3.1755371,0.500515-4.7023926
		c0.4002266-1.2293129,0.8610458-2.4389801,1.3001518-3.6554985c0.1344185-0.3723946,0.1248016-0.39785-0.2621498-0.3979073
		c-1.2458649-0.0001869-2.4924774,0.0283241-3.7374077-0.0055275c-1.4561806-0.0395966-2.9087753-0.1493607-4.3274879-0.520977
		c-1.4632416-0.3832817-2.8003731-0.9994774-3.8566265-2.1184425c-0.9285851-0.9837303-1.496769-2.1462059-1.6705894-3.4928169
		c-0.1975784-1.5306664-0.0102615-3.0348701,0.4538822-4.4878616c0.7665958-2.3998146,1.5779095-4.7861576,2.4175072-7.1615181
		c0.4466515-1.2636585,0.9884796-2.4938908,1.4973145-3.7351246c0.0753021-0.1836872,0.0740166-0.3182755-0.060585-0.4713726
		c-0.5792084-0.6588135-1.149456-1.3254986-1.7240105-1.9884109c-0.7134705-0.8231888-1.4277496-1.6456738-2.1421013-2.4680958
		c-0.5626526-0.6477757-1.1260853-1.2948742-1.6887493-1.9426384c-0.0596066-0.0686207-0.1163807-0.1397038-0.2203178-0.2648506
		c0.2117596-0.0112762,0.3512249-0.0251446,0.4906979-0.0252018c5.2345734-0.0021172,10.4691544,0.0008888,15.7037201-0.0064163
		c1.4959259-0.0020885,2.9917831-0.0444832,4.4877129-0.0475903c0.9356689-0.0019455,1.8716393,0.0281754,2.8069878,0.0588379
		c0.262722,0.0086136,0.4510193-0.0745525,0.6373138-0.2600155c1.6055565-1.598423,3.4093628-2.9289598,5.4389458-3.9407511
		c2.1774597-1.0855083,4.4742393-1.8057775,6.8870888-2.1193457c0.9918823-0.1289024,1.9953766-0.1775322,2.9952164-0.2336493
		c1.224205-0.0687084,2.4443054,0.0114708,3.6619339,0.1517649c0.1260681,0.0145254,0.3071976-0.068737,0.3959961-0.1669846
		c1.6796951-1.8583937,3.7647095-3.0466251,6.1480179-3.7465277c1.2306137-0.3613915,2.4930801-0.5473247,3.770752-0.5178204
		c2.3305817,0.0538182,4.4945908,0.6679778,6.3934708,2.0747232c0.0539474,0.0399656,0.1054306,0.0840626,0.1531601,0.1312008
		c0.0186462,0.0184126,0.023735,0.0505371,0.0492249,0.1090918c-0.1791077,0.1599731-0.369194,0.3195238-0.547821,0.4910145
		c-0.8919296,0.8562918-1.5853119,1.8650475-2.2229614,2.9153824c-0.1200562,0.1977615-0.2234573,0.4056005-0.3357697,0.6081047
		c-0.3468704,0.6253948-0.3701706,1.2703686-0.0998993,1.9246216c0.149437,0.361763,0.3219986,0.713975,0.4841309,1.0704927
		c0.0311661,0.0017986,0.0623322,0.0035992,0.0934982,0.0053978c0.1627045-0.3534412,0.3439865-0.6996536,0.4848251-1.0616035
		c0.5490875-1.4111433,0.9050827-2.8690538,1.0205612-4.3821507c0.0186615-0.2446241,0.0618515-0.2682056,0.3213654-0.173933
		c1.4038315,0.5099611,2.6610489,1.2582226,3.7802505,2.2536583c1.6338043,1.4531393,2.8086624,3.207716,3.4578552,5.2888508
		c0.9196014,2.9479885,0.5928955,5.7581863-1.0766144,8.3819561c-0.1237793,0.1945305-0.1411438,0.3442249-0.039299,0.5551968
		c1.4912872,3.0892296,2.4908676,6.3369446,3.0998611,9.7082062c0.0736389,0.407711,0.1327972,0.8192139,0.1701202,1.2315445
		c0.0101776,0.1124954-0.0547028,0.2616081-0.1349869,0.3471298c-0.2904968,0.3094711-0.5992661,0.6021385-0.907402,0.894558
		c-0.1191559,0.1130791-0.1389465,0.2276382-0.1064682,0.3884811c0.4219971,2.0899429,0.869278,4.1755943,1.2416382,6.2744904
		c0.2962952,1.670105,0.4983063,3.356926,0.743782,5.0360909c0.0095978,0.0656853,0.03582,0.1289406,0.054306,0.1933289
		C97.5388794,51.4147301,97.5388794,51.5113182,97.5388794,51.6079063z M85.3833542,9.6593008
		c-0.5305862-0.193821-0.981636-0.3905096-1.4506302-0.5243301c-1.9214478-0.5482616-3.838829-0.4568434-5.7398224,0.106739
		c-2.380722,0.7058067-4.3868637,1.9808702-5.912262,3.9639511c-0.1385803,0.1801529-0.2730637,0.2201958-0.4923096,0.1787472
		c-1.859436-0.3515196-3.7346115-0.4599199-5.6211166-0.3041916c-1.5337677,0.1266117-3.040802,0.4056616-4.5126305,0.8612833
		c-2.2437477,0.694581-4.3135223,1.7320824-6.1887131,3.1508331c-0.9650078,0.7301102-1.8597908,1.5367184-2.675663,2.4321022
		c-0.0903473,0.0991497-0.2584953,0.1849251-0.3882713,0.1818027c-1.4182816-0.0341244-2.8359718-0.1208382-4.2540894-0.126442
		c-1.7086983-0.0067539-3.417572,0.070118-5.126503,0.0768585c-3.5543365,0.0140247-7.108757,0.0056934-10.663147,0.0065441
		c-0.1195717,0.0000305-0.2391472,0.0000057-0.3587208,0.0000057c-0.0087795,0.0252914-0.0175571,0.050581-0.0263386,0.0758743
		c0.3629303,0.4211235,0.7244568,0.8434658,1.0890579,1.2631378c0.9499054,1.09338,1.8987122,2.1877422,2.8545609,3.2759132
		c0.1404457,0.1598949,0.1621857,0.2853394,0.0563583,0.4819679c-0.7109756,1.3210011-1.268055,2.7098866-1.7665253,4.1221771
		c-0.7035103,1.993227-1.3887901,3.9929008-2.0954361,5.9850006c-0.429966,1.2121162-0.8357372,2.4270821-0.9538727,3.719017
		c-0.1106224,1.2097588,0.0942612,2.3485298,0.7454128,3.3864594c0.8120022,1.2943268,2.0467205,1.9799652,3.4727306,2.3842773
		c1.2374802,0.3508568,2.5112152,0.4420357,3.7842407,0.4537125c2.1531372,0.0197639,4.3068161-0.019783,6.4602737-0.0330696
		c0.1212196-0.0007477,0.2425117,0.0105667,0.400444,0.0179977c-0.0334053,0.1389122-0.0497017,0.2413101-0.0826836,0.3380203
		c-0.1744461,0.5114899-0.3485909,1.0231667-0.5311203,1.5318108c-0.5573616,1.5531654-1.1455917,3.0959129-1.6693726,4.6602745
		c-0.3987083,1.1908073-0.5585594,2.4246559-0.3836479,3.6840134c0.1820793,1.3110008,0.7606659,2.4006691,1.8148537,3.2181282
		c0.9635353,0.7471619,2.0739594,1.16605,3.2683525,1.3088913c1.0803528,0.1292038,2.1725426,0.2160606,3.2599182,0.2203598
		c5.4570618,0.0215607,10.9143677,0.0276146,16.3713036-0.0064163c0.9858017-0.0061417,1.8646774,0.1874695,2.7479858,0.6092987
		c2.9473953,1.4075317,5.8088303,2.9752655,8.6636658,4.5565605c1.7745209,0.9829102,3.5507889,1.9569855,5.4893646,2.5943909
		c2.1022415,0.6912155,4.2409134,1.0060043,6.4463806,0.6654739c0.4425659-0.0683365,0.8780289-0.1826477,1.3519363-0.2832184
		c-0.0630875-0.1003418-0.0902634-0.1498337-0.12323-0.1950989c-0.7382736-1.0135345-1.3003235-2.1223526-1.7684174-3.2810593
		c-0.8780365-2.1734581-1.3578568-4.4425659-1.6185532-6.7641563c-0.0432205-0.384903-0.0579376-0.7353821,0.2088013-1.0872917
		c0.180603-0.238266,0.2701721-0.584343,0.2972107-0.8912926c0.0428009-0.4858971,0.0224762-0.9813614-0.0183105-1.4688301
		c-0.0190048-0.2271843,0.025444-0.3747864,0.1805573-0.5359573c0.8778458-0.9121742,1.7063675-1.8655968,2.4351196-2.9049339
		c0.2109222-0.3008156,0.2805862-0.552227,0.0760269-0.8862152c-0.1552582-0.2534981-0.2394257-0.5505333-0.3552246-0.8281975
		c0.021492-0.0209122,0.042984-0.0418282,0.0644836-0.0627403c1.1061707,0.1774025,2.2123337,0.3548012,3.3484192,0.5370064
		c-0.0085831-0.1244965-0.0090714-0.1991615-0.019516-0.2724075c-0.1021576-0.7162628-0.1984482-1.4334679-0.3106613-2.1481667
		c-0.4163132-2.6517105-0.9078369-5.2879791-1.6649094-7.8674049c-0.0550995-0.1877098-0.0127182-0.3025131,0.1286774-0.4256859
		c0.3493805-0.3043404,0.6969299-0.6125183,1.0216522-0.9423447c0.0915527-0.0929947,0.1582184-0.2738838,0.1406937-0.4013138
		c-0.2401123-1.7454872-0.6846848-3.4431534-1.2356262-5.1141968c-0.6118851-1.8558826-1.3638611-3.652813-2.2871552-5.3759975
		c-0.0918655-0.1714706-0.0686417-0.2733212,0.0499039-0.430563c0.3707275-0.4917336,0.7659073-0.978014,1.0499725-1.5197086
		c0.903244-1.722435,1.0478363-3.5635052,0.6417236-5.4376545c-0.5670471-2.6168728-1.917984-4.7164593-4.2419815-6.1290245
		c-0.1447983-0.0880098-0.3001556-0.1586494-0.4760666-0.2506971c-0.0158844,0.1207066-0.0281143,0.1953011-0.0352173,0.270381
		c-0.1391754,1.471117-0.6019974,2.8271275-1.4529877,4.0407906c-0.4318008,0.6158199-0.9450607,1.1504822-1.6371002,1.4775677
		c-0.1095352,0.0517731-0.2887268,0.093029-0.3716736,0.0396442c-0.3009415-0.1936989-0.6243134-0.3688107-0.6829987-0.800972
		c-0.0368118-0.2711143-0.169693-0.5317516-0.2759476-0.7903194c-0.205452-0.4999638-0.4265366-0.9934864-0.6340027-1.4926443
		c-0.4335098-1.0429754-0.4140396-2.0831108,0.0120163-3.1265945c0.3547821-0.8689079,0.8754425-1.6303062,1.4714355-2.3458471
		C84.892868,10.2310905,85.1062012,9.9849319,85.3833542,9.6593008z"/>
	<path class="st10" d="M85.3833542,9.6593008c-0.277153,0.3256311-0.4904861,0.5717897-0.6989212,0.8220301
		c-0.595993,0.7155409-1.1166534,1.4769392-1.4714355,2.3458471c-0.4260559,1.0434837-0.4455261,2.0836191-0.0120163,3.1265945
		c0.2074661,0.4991579,0.4285507,0.9926805,0.6340027,1.4926443c0.1062546,0.2585678,0.2391357,0.5192051,0.2759476,0.7903194
		c0.0586853,0.4321613,0.3820572,0.6072731,0.6829987,0.800972c0.0829468,0.0533848,0.2621384,0.0121288,0.3716736-0.0396442
		c0.6920395-0.3270855,1.2052994-0.8617477,1.6371002-1.4775677c0.8509903-1.2136631,1.3138123-2.5696735,1.4529877-4.0407906
		c0.007103-0.0750799,0.0193329-0.1496744,0.0352173-0.270381c0.1759109,0.0920477,0.3312683,0.1626873,0.4760666,0.2506971
		c2.3239975,1.4125652,3.6749344,3.5121517,4.2419815,6.1290245c0.4061127,1.8741493,0.2615204,3.7152195-0.6417236,5.4376545
		c-0.2840652,0.5416946-0.679245,1.0279751-1.0499725,1.5197086c-0.1185455,0.1572418-0.1417694,0.2590923-0.0499039,0.430563
		c0.9232941,1.7231846,1.6752701,3.5201149,2.2871552,5.3759975c0.5509415,1.6710434,0.9955139,3.3687096,1.2356262,5.1141968
		c0.0175247,0.12743-0.0491409,0.3083191-0.1406937,0.4013138c-0.3247223,0.3298264-0.6722717,0.6380043-1.0216522,0.9423447
		c-0.1413956,0.1231728-0.1837769,0.2379761-0.1286774,0.4256859c0.7570724,2.5794258,1.2485962,5.2156944,1.6649094,7.8674049
		c0.1122131,0.7146988,0.2085037,1.4319038,0.3106613,2.1481667c0.0104446,0.073246,0.0109329,0.1479111,0.019516,0.2724075
		c-1.1360855-0.1822052-2.2422485-0.3596039-3.3484192-0.5370064c-0.0214996,0.0209122-0.0429916,0.0418282-0.0644836,0.0627403
		c0.115799,0.2776642,0.1999664,0.5746994,0.3552246,0.8281975c0.2045593,0.3339882,0.1348953,0.5853996-0.0760269,0.8862152
		c-0.7287521,1.0393372-1.5572739,1.9927597-2.4351196,2.9049339c-0.1551132,0.161171-0.1995621,0.308773-0.1805573,0.5359573
		c0.0407867,0.4874687,0.0611115,0.982933,0.0183105,1.4688301c-0.0270386,0.3069496-0.1166077,0.6530266-0.2972107,0.8912926
		c-0.2667389,0.3519096-0.2520218,0.7023888-0.2088013,1.0872917c0.2606964,2.3215904,0.7405167,4.5906982,1.6185532,6.7641563
		c0.4680939,1.1587067,1.0301437,2.2675247,1.7684174,3.2810593c0.0329666,0.0452652,0.0601425,0.0947571,0.12323,0.1950989
		c-0.4739075,0.1005707-0.9093704,0.2148819-1.3519363,0.2832184c-2.2054672,0.3405304-4.3441391,0.0257416-6.4463806-0.6654739
		c-1.9385757-0.6374054-3.7148438-1.6114807-5.4893646-2.5943909c-2.8548355-1.581295-5.7162704-3.1490288-8.6636658-4.5565605
		c-0.8833084-0.4218292-1.7621841-0.6154404-2.7479858-0.6092987c-5.4569359,0.0340309-10.9142418,0.027977-16.3713036,0.0064163
		c-1.0873756-0.0042992-2.1795654-0.091156-3.2599182-0.2203598c-1.1943932-0.1428413-2.3048172-0.5617294-3.2683525-1.3088913
		c-1.0541878-0.8174591-1.6327744-1.9071274-1.8148537-3.2181282c-0.1749115-1.2593575-0.0150604-2.493206,0.3836479-3.6840134
		c0.5237808-1.5643616,1.112011-3.1071091,1.6693726-4.6602745c0.1825294-0.5086441,0.3566742-1.0203209,0.5311203-1.5318108
		c0.0329819-0.0967102,0.0492783-0.1991081,0.0826836-0.3380203c-0.1579323-0.007431-0.2792244-0.0187454-0.400444-0.0179977
		c-2.1534576,0.0132866-4.3071365,0.0528336-6.4602737,0.0330696c-1.2730255-0.0116768-2.5467606-0.1028557-3.7842407-0.4537125
		c-1.4260101-0.4043121-2.6607285-1.0899506-3.4727306-2.3842773c-0.6511517-1.0379295-0.8560352-2.1767006-0.7454128-3.3864594
		c0.1181355-1.291935,0.5239067-2.5069008,0.9538727-3.719017c0.706646-1.9920998,1.3919258-3.9917736,2.0954361-5.9850006
		c0.4984703-1.4122906,1.0555496-2.8011761,1.7665253-4.1221771c0.1058273-0.1966286,0.0840874-0.322073-0.0563583-0.4819679
		c-0.9558487-1.088171-1.9046555-2.1825333-2.8545609-3.2759132c-0.3646011-0.419672-0.7261276-0.8420143-1.0890579-1.2631378
		c0.0087814-0.0252934,0.0175591-0.0505829,0.0263386-0.0758743c0.1195736,0,0.2391491,0.0000248,0.3587208-0.0000057
		c3.55439-0.0008507,7.1088104,0.0074806,10.663147-0.0065441c1.708931-0.0067406,3.4178047-0.0836124,5.126503-0.0768585
		c1.4181175,0.0056038,2.8358078,0.0923176,4.2540894,0.126442c0.129776,0.0031223,0.297924-0.082653,0.3882713-0.1818027
		c0.8158722-0.8953838,1.7106552-1.701992,2.675663-2.4321022c1.8751907-1.4187508,3.9449654-2.4562521,6.1887131-3.1508331
		c1.4718285-0.4556217,2.9788628-0.7346716,4.5126305-0.8612833c1.8865051-0.1557283,3.7616806-0.047328,5.6211166,0.3041916
		c0.2192459,0.0414486,0.3537292,0.0014057,0.4923096-0.1787472c1.5253983-1.9830809,3.5315399-3.2581444,5.912262-3.9639511
		c1.9009933-0.5635824,3.8183746-0.6550007,5.7398224-0.106739C84.4017181,9.2687912,84.8527679,9.4654799,85.3833542,9.6593008z
		 M79.6921082,26.4630165c-0.0269318,0.0101852-0.0557404,0.0170441-0.0805283,0.0310249
		c-2.0620651,1.1633644-4.291626,1.5749836-6.6348877,1.4887886c-0.1348343-0.0049591-0.2990189,0.0260983-0.4043732,0.102602
		c-0.8199997,0.5953941-1.6253967,1.2108555-2.4435654,1.8088264c-0.2195816,0.1604881-0.3179474,0.3320713-0.2453461,0.6085491
		c0.0484238,0.1844273,0.0446472,0.3823566,0.066597,0.5739727c0.2497253,2.1801281,0.6871643,4.3242588,1.2245789,6.4501133
		c0.0797424,0.3154182,0.2308731,0.5647392,0.4734268,0.7715378c1.6159515,1.3777657,3.2306824,2.7569656,4.8458176,4.1356964
		c0.1633453,0.1394424,0.3267288,0.2788544,0.490097,0.4182816c-0.0125961,0.0241356-0.0251923,0.0482712-0.0377808,0.0724068
		c-1.0185394-0.0143967-1.9939194-0.270443-2.9362183-0.6349869c-0.9388657-0.3632164-1.8540115-0.7877426-2.7906723-1.1901665
		c-0.0848541,0.4151268-0.1292801,0.841938-0.260994,1.2398491c-0.5182953,1.5656891-1.0680008,3.1209602-1.5953445,4.683712
		c-0.07827,0.2319527-0.199791,0.3057747-0.4404831,0.3039818c-1.4002151-0.0104179-2.8005524-0.005394-4.2008514-0.0044136
		c-0.1101151,0.0000801-0.2202301,0.0091553-0.361557,0.0154343c0.0406952,0.1242485,0.0616837,0.206768,0.0941544,0.2844925
		c0.2344284,0.5611038,0.4803543,1.1176262,0.7028656,1.6833801c0.0948029,0.2410278,0.2273483,0.3359985,0.4951553,0.3297844
		c0.7914734-0.0183449,1.5836411-0.0075722,2.3755264-0.0052719c0.1088181,0.0003128,0.2175903,0.0171509,0.3537827,0.0286484
		c-0.0437775,0.1419106-0.0711975,0.2429504-0.1059189,0.3414154c-0.2696152,0.7645531-0.5419464,1.5281487-0.8107605,2.2929878
		c-0.1696243,0.4826469-0.2004013,0.3994713,0.2423859,0.6684608c3.2471161,1.9725533,6.608963,3.7259865,10.0905914,5.2470741
		c2.8073883,1.2265129,5.6753845,2.2838173,8.6483231,3.0408287c0.1046371,0.0266418,0.2123718,0.0410461,0.3310928,0.0635071
		c-0.0047302-0.074295-0.0039291-0.1032944-0.0087433-0.1313286c-0.220047-1.2827911-0.4424744-2.5651779-0.6587296-3.8486061
		c-0.027626-0.163929-0.1066437-0.2449646-0.263092-0.3005638c-0.6095657-0.2165909-1.0953674-0.6039467-1.470726-1.1277313
		c-0.3679352-0.513443-0.6129074-1.0788651-0.7411728-1.7685204c1.0515823,0.5359688,2.0879059,0.6198082,3.2360535,0.3505859
		c-0.2304306-0.4659462-0.4394531-0.8753014-0.6365356-1.2903252c-0.2738571-0.5767021-0.7338181-0.8940773-1.3315506-1.1044998
		c-1.8696671-0.6582146-3.7994537-1.011692-5.7602386-1.2355728c-0.41082-0.0469055-0.7671967,0.017849-1.1065979,0.2784576
		c-0.3330078,0.2556992-0.7065887,0.4585495-1.0659256,0.6868515c-0.0217285-0.047081-0.0376129-0.0647621-0.0357132-0.0802727
		c0.0081711-0.066803,0.0173721-0.1340256,0.0336685-0.1992226c0.4483185-1.7932739,1.4116287-3.2130814,2.9981537-4.2005043
		c0.4300003-0.2676239,0.8072739-0.312809,1.2906036-0.1120872c1.6563263,0.6878204,3.2145844,1.5548592,4.7330322,2.4974747
		c0.8345413,0.5180626,1.6456528,1.0738907,2.5302505,1.6539612c0.3127136-0.3967285,0.634697-0.8134232,0.966423-1.2222137
		c0.1406631-0.1733322,0.1353607-0.3300247,0.0456772-0.5301476c-0.6434708-1.4357758-1.2770309-2.8760033-1.9078827-4.317379
		c-0.0413208-0.0944099-0.0342636-0.2099991-0.0497055-0.3157349c1.5230484,0.5682487,3.0874557,0.9941025,4.7202606,1.4244614
		c-0.3727188-2.9861984-1.1654358-5.7849197-2.2229767-8.5181961c0.6113358-0.4709282,1.2017365-0.9369354,1.8058014-1.3845329
		c0.1917267-0.1420708,0.235939-0.2748222,0.1755829-0.5101357c-0.7118607-2.7754555-1.8862152-5.3414497-3.4715042-7.7228642
		c-0.0725708-0.1090164-0.1792908-0.2014313-0.2855301-0.2809868c-1.826004-1.3673954-3.8369446-2.4084072-5.9103394-3.3380871
		c-0.3856888-0.1729355-0.3870163-0.1682034-0.6814499,0.1537476c-0.0781403,0.0854473-0.1529388,0.1766701-0.242836,0.2482033
		C80.873764,25.5354576,80.2823257,25.9984722,79.6921082,26.4630165z M40.1091843,24.3908482
		c-0.7666969,0.6345806-1.2406502,1.4366798-1.6238937,2.2989559c-0.1997147,0.4493504-0.3966942,0.901144-0.5669289,1.3621655
		c-0.8819122,2.3883514-1.7462463,4.7832203-2.6345863,7.169157c-0.4179039,1.1224289-0.8166847,2.2464638-1.0078316,3.4349709
		c-0.1873245,1.1647797,0.1949997,1.9718857,1.1890755,2.437706c0.2258987,0.1058578,0.4653473,0.1876068,0.7051048,0.2582169
		c0.9170074,0.2700653,1.8641281,0.3184586,2.8094635,0.3216743c3.7561035,0.0127716,7.5122719,0.0061302,11.2684021,0.0134888
		c0.2103882,0.0004082,0.3041306-0.0728722,0.3715935-0.2683411c0.3933105-1.1396294,0.799839-2.2746887,1.2008591-3.4116631
		c0.024929-0.0706787,0.0409317-0.1445084,0.0747643-0.2659798c-3.422493,0-6.8135147,0-10.2012711,0
		c-0.0121574-0.0710754-0.0247879-0.1002617-0.0201111-0.1263542c0.011837-0.0660515,0.029686-0.131218,0.0482025-0.1958618
		c1.0240784-3.5749435,2.2783699-7.0668812,3.7661781-10.4753628c0.0822639-0.1884632,0.1770477-0.2601929,0.3834648-0.2585545
		c1.1586418,0.0091896,2.3173943,0.0039883,3.4761086,0.005415c0.0823212,0.0001011,0.1646271,0.013958,0.2921829,0.0255203
		c-0.2981567,0.8500595-0.5850334,1.6679478-0.8725281,2.4876099c0.0701675,0.0205517,0.0884094,0.0305595,0.1066628,0.0305805
		c1.9601021,0.0020275,3.920208,0.0019798,5.8802986,0.0072212c0.15205,0.0004063,0.2249603-0.0574131,0.2690659-0.1984711
		c0.3049278-0.9752731,0.6475868-1.9403038,0.9086647-2.9270058c0.1125603-0.4253998,0.1349602-0.9064674,0.0659142-1.3412209
		c-0.1276894-0.8040028-0.7253761-1.2422428-1.4389-1.5277824c-1.0135841-0.4056282-2.085907-0.4789238-3.1576462-0.4826488
		c-4.1230431-0.0143414-8.2461624-0.0074387-12.3692551-0.0076332c-0.0831223-0.0000019-0.1662445,0.0099812-0.3158569,0.0195637
		C39.1957855,23.3319702,39.639122,23.8459167,40.1091843,24.3908482z M60.8634453,44.1852036
		c0.0717583,0.022049,0.0989075,0.0376663,0.1260719,0.0376968c1.9606781,0.0022736,3.9213715,0.0056305,5.8819962-0.0037193
		c0.0817719-0.0003891,0.2099915-0.1047478,0.2372589-0.1869698c0.3156052-0.9517784,0.6427536-1.901268,0.9075546-2.8676109
		c0.1122055-0.4094696,0.1538544-0.8649254,0.1064453-1.2858315c-0.0938797-0.8335571-0.6650925-1.3201752-1.4012527-1.6269455
		c-0.868782-0.3620338-1.78936-0.4828568-2.7185974-0.4891472c-2.8298798-0.0191536-5.6599312-0.0119591-8.4898758-0.0242844
		c-0.2319832-0.0010147-0.33424,0.071331-0.4116898,0.2928123c-0.7547112,2.1581345-1.5256157,4.3106041-2.2812386,6.4684219
		c-0.0732117,0.2090683-0.1694412,0.281086-0.3900681,0.278244c-0.9270897-0.01194-1.8544884,0.0011101-2.7816124-0.0095062
		c-0.2154541-0.0024643-0.3224907,0.0587082-0.3974609,0.2717896c-0.413002,1.1738129-0.8495903,2.3393059-1.2661133,3.5119057
		c-0.4551659,1.2814102-0.932354,2.5567245-1.3299561,3.8561096c-0.1923141,0.628479-0.3059196,1.3054962-0.3096581,1.9613686
		c-0.0053329,0.9363441,0.6202431,1.4776039,1.4395332,1.8026237c0.948719,0.3763657,1.9511185,0.4689255,2.9571953,0.4719696
		c3.8731384,0.0117035,7.7463379,0.0039482,11.619503,0.0096626c0.1943474,0.0002861,0.2890739-0.0546684,0.3546371-0.2446823
		c0.3964615-1.1491203,0.8069954-2.2933807,1.2110863-3.4398804c0.0242767-0.0688591,0.033577-0.1429977,0.0588303-0.2542992
		c-3.4285278,0-6.8238182,0-10.2377281,0c0.0222244-0.1109352,0.0318527-0.1870689,0.0528755-0.2599182
		c1.0340157-3.5828857,2.2828217-7.0884285,3.7732964-10.5077095c0.0869179-0.1993942,0.1887817-0.2709312,0.4054985-0.2689781
		c1.1493034,0.0103683,2.298748,0.0043602,3.448143,0.0058556c0.0909729,0.0001221,0.1819305,0.0141716,0.3070793,0.0245895
		C61.4383888,42.5519371,61.1545639,43.3582039,60.8634453,44.1852036z M80.7855911,11.6719761
		c-0.2639389,0.0415907-0.5306244,0.0705624-0.7914429,0.12675c-2.3353195,0.5030918-4.2014694,1.6918154-5.4576721,3.7605257
		c-0.7555771,1.2442837-1.0156174,2.552269-0.5896835,3.9860859c0.6994781,2.3546848,2.8677979,3.2511787,4.6107407,3.0303078
		c1.1665573-0.147831,2.8022461-1.4810257,2.5805893-3.1383839c-0.0963669-0.7205372-0.3564224-1.3820972-0.7045593-2.0081596
		c-0.7035522-1.2652454-0.7871552-2.5891895-0.3689117-3.9463968
		C80.2505035,12.8796349,80.5299911,12.3054228,80.7855911,11.6719761z M58.4968452,29.2170486
		c0,0.242548-0.0080872,0.3958473,0.0015182,0.5480289c0.0285378,0.4522419,0.0305977,0.9095173,0.1034546,1.3549366
		c0.1771774,1.0832825,0.390625,2.1605911,0.5842323,3.2412453c0.0381851,0.2131271,0.1518402,0.2759399,0.3607063,0.2708435
		c0.5594559-0.013649,1.1194954-0.0153084,1.6791191-0.007782c1.0319138,0.0138741,2.0638618,0.0317574,3.0954437,0.0604897
		c0.3889084,0.0108299,0.7768402,0.0563965,1.2178421,0.0901527c-0.0800323-0.1086502-0.1206284-0.1845818-0.1798859-0.2408943
		c-0.4402237-0.418396-0.8526001-0.874218-1.3328171-1.2409019c-1.4642334-1.1180687-2.954174-2.2025032-4.4361916-3.2972126
		C59.252037,29.7461166,58.9054451,29.5076027,58.4968452,29.2170486z M89.3677063,23.8174438
		c1.4452515-1.466629,1.4253464-5.3751717-0.0347977-6.6317196c-0.7183533,2.180233-0.6173096,2.1167107-2.2501831,3.8492947
		C87.841629,21.9591408,88.5987701,22.8811054,89.3677063,23.8174438z M80.503891,49.6219444
		c1.2046509,0.2333069,2.3240509,0.4501076,3.4434509,0.6669083c0.011734-0.0276947,0.023468-0.0553894,0.0352097-0.0830803
		c-0.7192612-0.3896523-1.4375458-0.7811279-2.1595459-1.1656418c-0.0605087-0.0322227-0.1617966-0.0483551-0.2172318-0.019783
		C81.2570114,49.2000885,80.9158783,49.3946037,80.503891,49.6219444z"/>
	<path class="st2" d="M87.5744705,44.9961548c0.0154419,0.1057358,0.0083847,0.2213249,0.0497055,0.3157349
		c0.6308517,1.4413757,1.2644119,2.8816032,1.9078827,4.317379c0.0896835,0.2001228,0.094986,0.3568153-0.0456772,0.5301476
		c-0.3317261,0.4087906-0.6537094,0.8254852-0.966423,1.2222137c-0.8845978-0.5800705-1.6957092-1.1358986-2.5302505-1.6539612
		c-1.5184479-0.9426155-3.0767059-1.8096542-4.7330322-2.4974747c-0.4833298-0.2007217-0.8606033-0.1555367-1.2906036,0.1120872
		c-1.586525,0.9874229-2.5498352,2.4072304-2.9981537,4.2005043c-0.0162964,0.065197-0.0254974,0.1324196-0.0336685,0.1992226
		c-0.0018997,0.0155106,0.0139847,0.0331917,0.0357132,0.0802727c0.3593369-0.228302,0.7329178-0.4311523,1.0659256-0.6868515
		c0.3394012-0.2606087,0.6957779-0.3253632,1.1065979-0.2784576c1.9607849,0.2238808,3.8905716,0.5773582,5.7602386,1.2355728
		c0.5977325,0.2104225,1.0576935,0.5277977,1.3315506,1.1044998c0.1970825,0.4150238,0.406105,0.824379,0.6365356,1.2903252
		c-1.1481476,0.2692223-2.1844711,0.1853828-3.2360535-0.3505859c0.1282654,0.6896553,0.3732376,1.2550774,0.7411728,1.7685204
		c0.3753586,0.5237846,0.8611603,0.9111404,1.470726,1.1277313c0.1564484,0.0555992,0.235466,0.1366348,0.263092,0.3005638
		c0.2162552,1.2834282,0.4386826,2.565815,0.6587296,3.8486061c0.0048141,0.0280342,0.0040131,0.0570335,0.0087433,0.1313286
		c-0.118721-0.0224609-0.2264557-0.0368652-0.3310928-0.0635071c-2.9729385-0.7570114-5.8409348-1.8143158-8.6483231-3.0408287
		c-3.4816284-1.5210876-6.8434753-3.2745209-10.0905914-5.2470741c-0.4427872-0.2689896-0.4120102-0.1858139-0.2423859-0.6684608
		c0.2688141-0.7648392,0.5411453-1.5284348,0.8107605-2.2929878c0.0347214-0.098465,0.0621414-0.1995049,0.1059189-0.3414154
		c-0.1361923-0.0114975-0.2449646-0.0283356-0.3537827-0.0286484c-0.7918854-0.0023003-1.584053-0.013073-2.3755264,0.0052719
		c-0.267807,0.0062141-0.4003525-0.0887566-0.4951553-0.3297844c-0.2225113-0.5657539-0.4684372-1.1222763-0.7028656-1.6833801
		c-0.0324707-0.0777245-0.0534592-0.160244-0.0941544-0.2844925c0.1413269-0.006279,0.251442-0.0153542,0.361557-0.0154343
		c1.4002991-0.0009804,2.8006363-0.0060043,4.2008514,0.0044136c0.2406921,0.0017929,0.3622131-0.0720291,0.4404831-0.3039818
		c0.5273438-1.5627518,1.0770493-3.1180229,1.5953445-4.683712c0.1317139-0.3979111,0.1761398-0.8247223,0.260994-1.2398491
		c0.9366608,0.4024239,1.8518066,0.8269501,2.7906723,1.1901665c0.9422989,0.3645439,1.9176788,0.6205902,2.9362183,0.6349869
		c0.0125885-0.0241356,0.0251846-0.0482712,0.0377808-0.0724068c-0.1633682-0.1394272-0.3267517-0.2788391-0.490097-0.4182816
		c-1.6151352-1.3787308-3.229866-2.7579308-4.8458176-4.1356964c-0.2425537-0.2067986-0.3936844-0.4561195-0.4734268-0.7715378
		c-0.5374146-2.1258545-0.9748535-4.2699852-1.2245789-6.4501133c-0.0219498-0.1916161-0.0181732-0.3895454-0.066597-0.5739727
		c-0.0726013-0.2764778,0.0257645-0.448061,0.2453461-0.6085491c0.8181686-0.597971,1.6235657-1.2134323,2.4435654-1.8088264
		c0.1053543-0.0765038,0.2695389-0.1075611,0.4043732-0.102602c2.3432617,0.086195,4.5728226-0.3254242,6.6348877-1.4887886
		c0.0247879-0.0139809,0.0535965-0.0208397,0.0805283-0.0310268c-0.0202789,0.0433674-0.0332947,0.0923576-0.0619049,0.1292744
		c-0.6552734,0.845623-1.1527176,1.7813835-1.5584106,2.7661304c-0.1064224,0.2583199-0.1519775,0.5417118-0.2254868,0.8135891
		c0.1202927,0.0194626,0.2400742,0.0516472,0.3609467,0.0564499c1.4740448,0.0585995,2.9484787,0.1081371,4.4220734,0.1760426
		c0.1590729,0.0073299,0.3496094,0.0761967,0.4642563,0.182579c0.7562714,0.7017879,1.3747482,1.5124454,1.8288498,2.442255
		c0.103302,0.2115364,0.1856079,0.4333229,0.2775803,0.6503944c-0.0172424,0.0181122-0.0344772,0.0362244-0.0517197,0.0543327
		c-1.8219147-0.7486191-3.6851273-1.354351-5.6307755-1.6932907c0.0162201,0.0788574,0.0451431,0.1266136,0.0803299,0.1692009
		c0.6204071,0.7510262,1.2502365,1.4945297,1.8564606,2.2568207c0.1505966,0.1893654,0.2582474,0.429039,0.3293915,0.6627159
		c0.3632126,1.1930695,0.8474655,2.3207054,1.6892624,3.2633629c0.1179962,0.1321259,0.0667648,0.2264824,0.0036011,0.3590775
		c-0.2191467,0.4600449-0.4313202,0.9242935-0.6210098,1.3970261c-0.0711441,0.177269-0.0734482,0.382164-0.1071396,0.5744591
		c0.0234146,0.0141449,0.0468292,0.0282898,0.0702438,0.0424385c2.0620956-1.1797371,4.2001266-2.1952286,6.4290924-3.0140648
		c0.0784683,0.4646301,0.1750488,0.9270706,0.2314224,1.3943634c0.0991287,0.8216896,0.1867065,1.6452751,0.2542725,2.4701042
		c0.0518265,0.6328468,0.0767212,1.2686691,0.0856705,1.9035606c0.0016327,0.1150665-0.1039276,0.2799988-0.2074814,0.3401108
		c-0.5494995,0.3189545-1.1147919,0.6106224-1.6730347,0.9146461
		C87.8139648,44.8424683,87.6956787,44.9219933,87.5744705,44.9961548z M75.9590225,44.295845
		c0.1449127,0.7216644,0.4041824,1.338047,0.9899368,1.7657967c0.1729813,0.1263199,0.2578583,0.2521591,0.2539368,0.4722252
		c-0.0049286,0.2762947,0.0579987,0.5461884,0.2121124,0.7686043c0.7627792-0.5410042,1.5053711-1.067688,2.2976379-1.6296082
		c-0.386673-0.1114197-0.7532349-0.2580032-1.1334839-0.3184776c-0.9213028-0.1465149-1.7819061-0.41539-2.5009003-1.0387268
		C76.0662918,44.3052826,76.0421829,44.3089218,75.9590225,44.295845z"/>
	<path class="st2" d="M58.4968452,29.2170486c0.4085999,0.290554,0.7551918,0.529068,1.0934219,0.7789059
		c1.4820175,1.0947094,2.9719582,2.1791439,4.4361916,3.2972126c0.480217,0.366684,0.8925934,0.822506,1.3328171,1.2409019
		c0.0592575,0.0563126,0.0998535,0.1322441,0.1798859,0.2408943c-0.4410019-0.0337563-0.8289337-0.0793228-1.2178421-0.0901527
		c-1.0315819-0.0287323-2.06353-0.0466156-3.0954437-0.0604897c-0.5596237-0.0075264-1.1196632-0.005867-1.6791191,0.007782
		c-0.2088661,0.0050964-0.3225212-0.0577164-0.3607063-0.2708435c-0.1936073-1.0806541-0.4070549-2.1579628-0.5842323-3.2412453
		c-0.0728569-0.4454193-0.0749168-0.9026947-0.1034546-1.3549366C58.4887581,29.612896,58.4968452,29.4595966,58.4968452,29.2170486
		z"/>
	<path class="st10" d="M77.8463058,30.1720085c1.1903992-0.6681042,2.4655762-1.0967255,3.8110352-1.3027363
		c0.5990372-0.0917244,1.2074585-0.128973,1.8131714-0.1647511c0.1235046-0.0072956,0.2764969,0.0762196,0.3778229,0.1625557
		c1.6850662,1.4356518,3.075737,3.1124496,4.1212463,5.0689812c0.0489578,0.0916138,0.0994339,0.1824188,0.1717682,0.3149567
		c0.2062302-0.2447624,0.3889313-0.4615974,0.6149673-0.7298584c0.3669739,1.4231758,0.6029663,2.8050957,0.4914322,4.2306519
		c-2.2289658,0.8188362-4.3669968,1.8343277-6.4290924,3.0140648c-0.0234146-0.0141487-0.0468292-0.0282936-0.0702438-0.0424385
		c0.0336914-0.1922951,0.0359955-0.3971901,0.1071396-0.5744591c0.1896896-0.4727325,0.4018631-0.9369812,0.6210098-1.3970261
		c0.0631638-0.1325951,0.1143951-0.2269516-0.0036011-0.3590775c-0.8417969-0.9426575-1.3260498-2.0702934-1.6892624-3.2633629
		c-0.0711441-0.2336769-0.1787949-0.4733505-0.3293915-0.6627159c-0.6062241-0.762291-1.2360535-1.5057945-1.8564606-2.2568207
		c-0.0351868-0.0425873-0.0641098-0.0903435-0.0803299-0.1692009c1.9456482,0.3389397,3.8088608,0.9446716,5.6307755,1.6932907
		c0.0172424-0.0181084,0.0344772-0.0362206,0.0517197-0.0543327c-0.0919724-0.2170715-0.1742783-0.438858-0.2775803-0.6503944
		c-0.4541016-0.9298096-1.0725784-1.7404671-1.8288498-2.442255c-0.1146469-0.1063824-0.3051834-0.1752491-0.4642563-0.182579
		c-1.4735947-0.0679054-2.9480286-0.1174431-4.4220734-0.1760426C78.08638,30.2236557,77.9665985,30.1914711,77.8463058,30.1720085z
		 M85.419632,37.8497925c-0.0828476-0.2519112-0.1547241-0.5081711-0.2521667-0.7542992
		c-0.0723419-0.1827202-0.0544586-0.3010368,0.132431-0.3970261c0.1475296-0.0757675,0.2772827-0.1861458,0.441864-0.2997437
		c-0.9327469-0.6959801-1.9330597-1.1748619-2.9373627-1.6581383C83.3334427,36.0630035,84.055481,37.2165222,85.419632,37.8497925z
		"/>
	<path class="st10" d="M75.9590225,44.295845c0.0831604,0.0130768,0.1072693,0.0094376,0.1192398,0.0198135
		c0.7189941,0.6233368,1.5795975,0.8922119,2.5009003,1.0387268c0.380249,0.0604744,0.7468109,0.207058,1.1334839,0.3184776
		c-0.7922668,0.5619202-1.5348587,1.088604-2.2976379,1.6296082c-0.1541138-0.2224159-0.217041-0.4923096-0.2121124-0.7686043
		c0.0039215-0.2200661-0.0809555-0.3459053-0.2539368-0.4722252C76.363205,45.6338921,76.1039352,45.0175095,75.9590225,44.295845z"
		/>
</g>
</svg>
