<?xml version="1.0" encoding="utf-8"?>
<!-- Generator: Adobe Illustrator 22.1.0, SVG Export Plug-In . SVG Version: 6.00 Build 0)  -->
<svg version="1.1" id="Layer_1" xmlns="http://www.w3.org/2000/svg" xmlns:xlink="http://www.w3.org/1999/xlink" x="0px" y="0px"
	 viewBox="0 0 133.9646606 78.7948227" style="enable-background:new 0 0 133.9646606 78.7948227;" xml:space="preserve">
<style type="text/css">
	.st0{fill:#4153A4;}
	.st1{fill:#121245;}
	.st2{fill:#ABB8DE;}
	.st3{fill:#2C2C81;}
	.st4{clip-path:url(#SVGID_2_);fill:#4853A4;}
	.st5{clip-path:url(#SVGID_2_);}
	.st6{fill:#B8BBD8;}
	.st7{fill:#EDEDF5;}
	.st8{fill:none;stroke:#121245;stroke-miterlimit:10;}
	.st9{fill:none;stroke:#121245;stroke-miterlimit:10;stroke-dasharray:4.1037498,4.1037498;}
	.st10{fill:#3E54A3;}
	.st11{fill:none;stroke:#121245;stroke-miterlimit:10;stroke-dasharray:3.9702759,3.9702759;}
	.st12{fill:#FFFFFF;}
</style>
<g>
	<path class="st10" d="M45.8321075,36.2687759c-1.0458641,0.5839424-2.0201416,1.1820412-2.6050682,2.366272
		c-0.0373306-0.2528648-0.075573-0.4268456-0.0870895-0.6025772c-0.1998825-3.0498962,0.063343-6.0421257,1.1534081-8.9237785
		c0.6143074-1.623951,1.5112305-3.0623875,2.8582764-4.1897087c0.0443687-0.0371323,0.1001015-0.0606956,0.1228752-0.1408672
		c-1.1499062-0.1100445-2.1280785,0.3619843-3.1291733,0.8373699c0.850811-2.7007828,1.8263817-5.309515,4.2341423-7.1274815
		c-1.4563484-0.7129288-2.3980904-1.9217701-3.2855644-3.2227688c0.0799866-0.0539141,0.1307182-0.0965519,0.1882858-0.125679
		c1.5552711-0.7869024,3.1183891-1.5586767,4.6646347-2.3628979c1.0709267-0.5570011,2.1506958-1.0447826,3.3871994-1.0933619
		c0.8298721-0.0326052,1.6300888-0.0148487,2.3099632,0.5579729c0.065937,0.0555544,0.2028236,0.0785856,0.2868042,0.0524788
		c0.4730186-0.1470356,0.9399261-0.3137293,1.4834671-0.4991512c-0.6381607-0.4279509-1.3161812-0.5359945-1.9641991-0.7762136
		c2.1257935-1.2047548,4.3820763-1.4911528,6.8184624-0.9105387c-0.3233261-0.6321087-0.8349457-0.9035749-1.4236336-1.1103258
		c1.2768059-0.4437923,4.4984016-0.6475563,6.9747505,1.2954493c2.0472336-1.5414591,4.3304138-1.8091841,6.7790909-1.1818933
		c-0.5583572,0.2432623-1.0822678,0.5161057-1.4071274,1.1503954c2.4277878-0.5914469,4.6757202-0.2860565,6.8897171,0.8925934
		c-0.7170105,0.247447-1.3443375,0.4639425-1.9716644,0.680438c0.0008316,0.0453672,0.0016556,0.0907345,0.0024796,0.1361017
		c0.5071945,0.1653614,1.0129623,0.3354292,1.5235214,0.4896507c0.0585861,0.0176964,0.1581573-0.0366087,0.2146225-0.085413
		c0.5707245-0.4932194,1.2564468-0.559926,1.967514-0.5499411c1.1397858,0.0160065,2.2055054,0.305295,3.203476,0.8515091
		c1.7031937,0.9322062,3.3830948,1.9103775,5.1941757,2.6296387c0.041687,0.0165548,0.0765839,0.050189,0.1568375,0.10431
		c-0.8835907,1.3018551-1.8276291,2.5193596-3.294426,3.2283993c2.3992767,1.8069477,3.3823166,4.4157639,4.3056564,7.1754284
		c-0.5823746-0.2536373-1.0613632-0.5078487-1.5696182-0.6707954c-0.5095367-0.1633606-1.0482788-0.2356644-1.5742188-0.3478775
		c-0.0153198,0.040453-0.030632,0.0809059-0.0459442,0.1213589c0.0362473,0.0486279,0.064743,0.1064339,0.1098633,0.144558
		c1.4850006,1.2546043,2.4254608,2.867424,3.0418625,4.6812859c0.9345856,2.750124,1.1759109,5.58531,0.9774246,8.4684124
		c-0.0118942,0.1727982-0.0504379,0.3437614-0.0889206,0.5966759c-0.5500183-1.1842346-1.5364761-1.7814217-2.6089783-2.3936958
		c0.4772797,6.7749138-1.3714676,12.5782547-6.5337982,17.1173439c-0.0557404-1.7434578-0.3634262-3.4293137-0.7825165-5.1737099
		c-0.0951385,0.7923965-0.1339417,1.5082664-0.2733994,2.2039566c-0.4259796,2.1249161-1.5868683,3.8521347-3.0475464,5.395153
		c-1.5975037,1.6875687-3.4590378,3.0313721-5.5029526,4.1278839c-0.0387955,0.0208092-0.0820618,0.0332718-0.1527557,0.027874
		c1.031311-0.9139595,1.8080673-1.9741211,1.9776688-3.4068108c-0.0751343,0.0876808-0.1586838,0.1695404-0.2240295,0.2639961
		c-0.3903198,0.5641899-0.7773438,1.1306648-1.163765,1.6975365c-0.5944824,0.8720779-1.3069687,1.6423721-2.1323013,2.2909546
		c-0.9220276,0.7245827-1.511734,1.6637154-1.9245682,2.7304077c-0.7243652,1.8716393-0.9248505,3.8086128-0.673851,5.7959709
		c0.0069809,0.0552673,0.0075684,0.1113281,0.0159607,0.2423325c-0.1913452-0.1055756-0.3416901-0.175087-0.477951-0.2657623
		c-1.7025757-1.1330185-3.1018982-2.5892334-4.4042358-4.1473007c-1.8799133-2.249054-3.4479179-4.7081795-4.843853-7.277771
		c-0.3194733-0.5880775-0.5238686-1.2386703-0.8336983-1.8530312c0.2183304,1.0980911,0.4366608,2.1961746,0.6666985,3.3531609
		c-0.1063995-0.0512962-0.1577377-0.0667877-0.1981888-0.0969086c-0.858223-0.6390266-1.7186317-1.2751846-2.5717316-1.9210014
		c-1.7059669-1.2914658-2.8546524-2.9658241-3.4599266-5.0206604c-0.3888931-1.3202438-0.67939-2.6576996-0.8123856-4.0284081
		c-0.0116196-0.1197586-0.0378113-0.2380981-0.0993118-0.3522606c-0.3928757,1.7584534-0.254467,3.4932861,0.1819801,5.2303886
		C47.1995049,48.8206215,45.3668709,43.0263557,45.8321075,36.2687759z M61.3015099,22.5202961
		c-0.0292244,0.0105362-0.058445,0.0210724-0.0876656,0.0316105c0.01931,0.0881386,0.0396652,0.1760674,0.057766,0.2644539
		c0.2261047,1.1039276-0.3407898,1.9436989-1.4553528,2.1235561c-0.2720757,0.0439053-0.5600548,0.0495605-0.8333664,0.0148602
		c-1.0513115-0.1334801-1.6273613-0.8306961-1.5628357-1.8921585c0.0150452-0.2474995-0.0352287-0.3654842-0.2943459-0.3929615
		c-0.2301407-0.0244026-0.4629097-0.0692844-0.6820259-0.1425095c-0.3946991-0.1319046-0.7856331-0.2792778-1.1653557-0.448822
		c-0.0935898-0.04179-0.1984673-0.2014256-0.1868973-0.2927933c0.0102577-0.0809784,0.1652641-0.1751671,0.2731628-0.20751
		c1.6342087-0.4898815,3.3025894-0.6655521,5.0017242-0.4987545c1.5832863,0.1554279,2.765976,0.8661823,3.3823433,2.4072819
		c0.1727066,0.4318066,0.4884071,0.8048248,0.7161293,1.2171764c0.0702057,0.1271286,0.1181564,0.3067627,0.0879517,0.4427261
		c-0.2294083,1.0325222-0.5011139,2.0558624-0.7197685,3.0904903c-0.2379532,1.1259518-0.4339485,2.260788-0.6456261,3.3922424
		c-0.0295525,0.1579552-0.0876961,0.345253,0.1777649,0.3550243c1.0320816,0.0379963,1.9739532,0.4206867,2.9223099,0.7710285
		c0.6262131,0.2313271,1.2752457,0.3395958,1.9203415,0.2142487c1.455658-0.2828522,2.9005432-0.6211357,4.3499603-0.9368973
		c0-0.1584187,0.014946-0.2517414-0.0021973-0.3387451c-0.3886719-1.9732723-0.7632751-3.9496098-1.1837616-5.9161301
		c-0.1169052-0.5467606-0.3087463-1.039526,0.2499542-1.4659863c0.1512222-0.1154308,0.2067566-0.3577805,0.302742-0.5436687
		c0.1387024-0.2686253,0.2663269-0.5432625,0.41259-0.8076382c0.467865-0.8456516,1.1660843-1.4194031,2.0987778-1.6683311
		c0.4687195-0.1250954,0.9571457-0.2255573,1.4396591-0.240551c1.4976501-0.0465374,3.0084915-0.1434479,4.4341049,0.4788418
		c0.1414108,0.0617256,0.3645554,0.2357883,0.3465042,0.303709c-0.0437317,0.164587-0.1792526,0.3713837-0.3284149,0.4281616
		c-0.3649826,0.1389294-0.755722,0.2176495-1.1416473,0.2916641c-0.2908325,0.0557766-0.5902557,0.0667305-0.9104004,0.1002026
		c0.1769867,0.867897,0.0544052,1.6166592-0.7598419,2.0491962c-0.8091888,0.4298496-1.6553955,0.4201984-2.4198151-0.0990906
		c-0.768631-0.5221519-0.7953186-1.2990532-0.5300598-2.1439667c-0.4390945,0.3179741-0.6330338,0.7905998-0.6586685,1.4635811
		c-0.0066528,0.1748886-0.0411072,0.3776302-0.1374283,0.5153942c-0.5310211,0.759491-0.7677078,1.5162506-0.4647293,2.475687
		c0.4474564,1.4169273,0.7453308,2.8760319,0.8509293,4.3727779c0.0949478,1.3458405-0.7768097,2.9190025-2.1255035,3.3327713
		c-0.8218994,0.2521515-1.6284027,0.5544739-2.4418945,0.834053c-0.0328522,0.0112877-0.0668869,0.0305061-0.099617,0.0290604
		c-0.3934097-0.0173988-0.4496231,0.0478172-0.3737793,0.443985c0.0524826,0.2741814,0.1396713,0.546463,0.1527939,0.8223801
		c0.0230789,0.4850044,0.2974701,0.6931725,0.7297058,0.7865143c1.3820114,0.2984619,2.7683792,0.3323174,4.1578674,0.0686798
		c0.2178879-0.0413399,0.4245148-0.1420097,0.6363449-0.2152443c-0.0069733-0.0336456-0.0139465-0.0672951-0.0209198-0.1009407
		c-0.2366562,0.0115051-0.4742508,0.0400276-0.7095413,0.026989c-0.1097412-0.0060768-0.2862473-0.0736504-0.3058472-0.1471329
		c-0.0303574-0.1137848,0.0155182-0.2815247,0.0907822-0.3784904c0.0535202-0.0689583,0.2113571-0.0893059,0.3179321-0.0796127
		c0.854538,0.0777206,1.7177353,0.1138611,2.5594406,0.2666016c1.2793198,0.2321472,2.4649582,0.7504196,3.6080856,1.3662796
		c0.1090851,0.058773,0.341835,0.088028,0.3892899,0.028698c0.308548-0.3857613,0.5817032-0.7998238,0.9202728-1.2811584
		c-0.7819061-0.2484589-1.4787369-0.5033798-2.1934128-0.6898956c-1.4155426-0.3694115-2.8535233-0.5505104-4.3200912-0.3792
		c-0.1616364,0.0188789-0.3556213,0.0298958-0.3638687-0.2071381c-0.0068893-0.1978149,0.0630188-0.3701096,0.3019714-0.3966713
		c0.0693283-0.0077057,0.1393127-0.0252571,0.2079544-0.0211182c0.9032135,0.0545044,1.8134308,0.0594978,2.7075653,0.1817131
		c1.2174988,0.1664162,2.3598557,0.6112328,3.4724579,1.1288223c0.1146698,0.0533447,0.3446808,0.0843582,0.3890152,0.0257492
		c0.2420807-0.3199463,0.4428101-0.6711845,0.6666794-1.025795c-0.0914917-0.0558662-0.1360092-0.0948906-0.1878281-0.1129761
		c-1.9434204-0.6781578-3.9266052-1.0591888-5.9951324-0.795536c-0.1947327,0.0248222-0.4281921,0.0971794-0.4564362-0.2037506
		c-0.0246429-0.2625122,0.1185913-0.3725739,0.3932648-0.4161758c0.2612915-0.041481,0.5383606-0.1467781,0.749588-0.3034401
		c0.3433075-0.2546234,0.6651306-0.5504646,0.9490891-0.8705444c0.8082352-0.9110451,1.2382812-1.9577141,1.0475998-3.202282
		c-0.1855545-1.211071-0.8217316-2.1834564-1.6198349-3.0708084c-0.1045532-0.1162567-0.2111664-0.2306671-0.3168259-0.3459358
		c0.0929947-0.043808,0.1477585-0.0375519,0.1976013-0.0184612c1.1622696,0.4451447,2.324234,0.891058,3.4852676,1.3393936
		c0.0747375,0.028862,0.1527252,0.0663929,0.2102737,0.1201477c0.8331299,0.7782173,1.5496368,1.6425266,1.9424667,2.7318878
		c0.2397079,0.6647301,0.1670914,1.2937069-0.2213211,1.8991833c-0.5998993,0.9351463-1.4873505,1.4453697-2.5095291,1.774334
		c-0.1121979,0.0361137-0.2217789,0.0803566-0.3284683,0.1193275c0.9048462,0.3262901,1.785408,0.6509399,2.6741486,0.9514351
		c0.0748215,0.0252991,0.2597427-0.0866776,0.3000793-0.1767273c0.4221954-0.9425659,0.9245911-1.8645325,1.2134171-2.848381
		c0.6381912-2.1739197,0.3550415-4.2074089-1.2330551-5.9477539c-0.3103714-0.3401203-0.5943604-0.7043037-0.8905182-1.0573883
		c0.0134277-0.0200195,0.0268555-0.0400391,0.0402908-0.0600586c0.2339554,0.0669689,0.4679108,0.1339359,0.7045593,0.2016716
		c-0.1682129-0.7331219-0.3721237-1.4165497-0.4710999-2.114851c-0.0872879-0.6158276-0.0784302-1.2485332-0.0702515-1.8732395
		c0.0039673-0.3029213,0.1840439-0.493721,0.5361252-0.4260445c0.1720123,0.0330658,0.3491821,0.0393047,0.5595093,0.0614185
		c-0.0356522-0.1121445-0.0477066-0.1683903-0.0707016-0.2197285c-0.9449539-2.1094322-2.2423553-3.9632092-3.9988403-5.4789171
		c-0.1627579-0.1404495-0.3642807-0.2633114-0.5686646-0.3235893c-1.0361481-0.3055849-2.077034-0.5959177-3.1208649-0.8743067
		c-0.4321518-0.1152544-0.8758011-0.187398-1.34375-0.285327c0.3224335-0.6946993,0.9179001-1.0396824,1.5503464-1.4642649
		c-1.8671341-0.4669962-3.3377762,0.2831736-4.803894,1.1803856c-0.135498-0.6133766-0.0241013-1.1433983,0.2215958-1.6547451
		c-0.586235-0.1499109-1.8944626,0.4852667-2.1059799,1.0080347c-0.0296783,0.0733624-0.0313416,0.1593199-0.039093,0.2401075
		c-0.1155167,1.20401-0.2315903,2.4079714-0.3438721,3.6122837c-0.0720062,0.7722301-0.1380234,1.5450153-0.2096176,2.3500843
		c-0.1886978-0.0146656-0.3365326-0.0360031-0.4843216-0.0356922c-0.3633652,0.0007648-0.4731216-0.1727695-0.5017014-0.5335751
		c-0.1377411-1.7387466-0.3082199-3.4749308-0.4741135-5.2113523c-0.0115128-0.1204967-0.04496-0.2798262-0.1280212-0.3458443
		c-0.4966202-0.3947325-0.9917374-0.7978516-1.5280151-1.1331272c-0.2293472-0.1433849-0.5567322-0.1299524-0.8395691-0.1877756
		c-0.0156403,0.0314121-0.0312805,0.0628262-0.0469208,0.0942392c0.269577,0.5124159,0.3573914,1.0448761,0.2401276,1.6475945
		c-1.4832344-0.8953753-2.9529152-1.6681023-4.7346992-1.1628962c0.5656433,0.3957796,1.1523094,0.749341,1.4642906,1.4438276
		c-0.1731873,0.0380707-0.3075333,0.0653334-0.4407616,0.0972509c-1.0736008,0.2572021-2.1546974,0.4878559-3.2167244,0.7863407
		c-0.435936,0.1225214-0.890049,0.3204355-1.234005,0.6065445c-1.7278519,1.4372578-2.9902382,3.2379894-3.9496727,5.2592487
		c-0.0528259,0.11129-0.0870934,0.2313881-0.1289406,0.3445168c0.0532646,0.0256424,0.0730515,0.0417843,0.0943108,0.0440407
		c0.0459366,0.0048771,0.0959091,0.013937,0.1385078,0.0015678c0.4736481-0.1375351,0.6094475-0.0630226,0.6101608,0.5387383
		c0.0010185,0.857233-0.0779381,1.7158833-0.1528778,2.5712852c-0.0339622,0.3876877-0.1403847,0.7690277-0.2250938,1.2115479
		c0.2814751-0.0779285,0.5179863-0.1434097,0.8456726-0.2341328c-0.1206551,0.1858044-0.1835709,0.2922516-0.2556343,0.3920918
		c-0.4220619,0.5847168-0.8338699,1.1774025-1.2728386,1.7492046c-0.5642281,0.7349663-0.8381996,1.5848827-0.9356499,2.478775
		c-0.222477,2.0407963,0.4593391,3.846056,1.541275,5.5337009c0.1214905,0.1895065,0.2480087,0.1415443,0.414814,0.0864067
		c0.8049469-0.2660942,1.6138268-0.5202751,2.4210968-0.7793541c0.0484161-0.0155411,0.0949593-0.0369263,0.1576157-0.0615921
		c-0.0417404-0.039814-0.055069-0.0621567-0.0739899-0.0689697c-0.0983734-0.0354385-0.1984596-0.066082-0.2974319-0.0999031
		c-0.8413925-0.2875366-1.5903549-0.71455-2.1475067-1.428894c-0.4668198-0.5985298-0.7125931-1.2505379-0.4812469-2.0161572
		c0.3629417-1.2011242,1.1397972-2.1167583,2.0383835-2.9468174c0.0568199-0.0524864,0.1427689-0.076128,0.2181892-0.1053944
		c1.0952606-0.424984,2.1907692-0.84935,3.2871552-1.2714272c0.1005974-0.0387268,0.2075882-0.0608482,0.3583374-0.1040802
		c-0.3904877,0.4934921-0.7737846,0.9161453-1.0872688,1.385437c-1.0145798,1.5188503-1.3483543,3.118391-0.2447319,4.7202168
		c0.4325829,0.627861,1.0728569,1.1135674,1.6265602,1.6558304c0.0689049,0.0674858,0.1841621,0.107399,0.2831993,0.1205673
		c0.2717209,0.0361214,0.3314934,0.2352943,0.2724571,0.4279938c-0.0281982,0.0920486-0.2479324,0.1956291-0.3653679,0.1796646
		c-1.960186-0.2664642-3.8458023,0.0764809-5.7034264,0.6674728c-0.1039124,0.0330544-0.2017899,0.0850792-0.3425293,0.1454544
		c0.2367096,0.3210449,0.449482,0.5956116,0.6460037,0.8813515c0.1207809,0.1756096,0.237381,0.1914864,0.4372139,0.1115646
		c0.6687012-0.2674446,1.3387184-0.5389519,2.026207-0.7504768c1.2549171-0.3861084,2.5452118-0.5410461,3.8595161-0.4653282
		c0.0812263,0.0046806,0.1622849,0.0129356,0.2432747,0.021019c0.2515869,0.0251007,0.3612862,0.2028847,0.3092384,0.4095993
		c-0.0231209,0.0918312-0.2444611,0.2037239-0.3633881,0.1909256c-1.6853981-0.1813927-3.3169937,0.0917931-4.92659,0.5567207
		c-0.3854713,0.1113396-0.760788,0.2578354-1.2024879,0.4093323c0.2866478,0.3506317,0.546402,0.6312943,0.7618256,0.9426346
		c0.2023964,0.2925186,0.3772926,0.3315392,0.7113838,0.1614342c1.7556458-0.8938866,3.6102562-1.4181709,5.599575-1.3785706
		c0.1865807,0.0037117,0.414299-0.021019,0.4386215,0.2279663c0.0150261,0.1538467-0.075161,0.3179665-0.1283073,0.5153313
		c0.0421524,0.0149918,0.1580963,0.0667763,0.2793541,0.0977287c1.2869568,0.3284798,2.5776787,0.3304863,3.8683662,0.0259819
		c0.1679382-0.0396194,0.3349152-0.10532,0.485199-0.1895218c0.0922775-0.0517006,0.1957321-0.1510353,0.2188797-0.2471123
		c0.1143112-0.4744835,0.2090912-0.95401,0.2953873-1.4345207c0.0126495-0.0704346-0.0399475-0.2089729-0.0915375-0.2256317
		c-0.4115448-0.1328812-0.8346786-0.2300873-1.2454529-0.3650475c-0.5851212-0.1922417-1.1725845-0.3836212-1.7406464-0.6196518
		c-0.5074921-0.2108612-0.9887276-0.4826317-1.1913681-1.054081c-0.0140839-0.0397186-0.0489998-0.098484-0.0795135-0.1019592
		c-0.4415359-0.0502701-0.5691185-0.425045-0.6120911-0.7387161c-0.0905876-0.66119-0.2017822-1.3560963-0.0917587-2.000864
		c0.2537537-1.4870892,0.6358376-2.9522076,0.9612617-4.4272518c0.0292664-0.1326485,0.0725975-0.2911015,0.0279579-0.4059124
		c-0.1549797-0.3986244-0.3174629-0.7999802-0.5332565-1.1672993c-0.1399498-0.2382145-0.243763-0.4526482-0.2378616-0.7379131
		C61.8340988,23.3415909,61.673439,22.8821239,61.3015099,22.5202961z M61.4486084,38.7639465
		c-0.7794762-0.1583557-1.3212166-0.5666504-1.6597824-1.2493591c-0.0415878-0.0838585-0.2611275-0.1283875-0.3888283-0.11306
		c-1.2907028,0.1548958-2.5241737,0.5254936-3.7201424,1.027153c-0.0786362,0.0329819-0.1483841,0.0871544-0.1903419,0.1123199
		c0.4219971,0.6775169,0.8691292,1.304184,1.2211609,1.9803658c0.6480827,1.2448311,1.0022507,2.5993042,1.3627663,3.9491577
		c0.3867874,1.4482307,0.743866,2.907444,1.2082634,4.3310852c0.5016365,1.5378151,1.421917,2.7908134,2.8776855,3.5876617
		c1.1347237,0.6211014,2.3714409,0.8789864,3.6426353,0.9920731c2.1671066,0.1927872,4.3248901-0.032196,6.4772644-0.2246056
		c1.4154587-0.1265335,2.6332626-0.7618179,3.4116592-1.9868965c0.4434967-0.6979828,0.8101578-1.4750328,1.0509949-2.2653618
		c0.538559-1.7673492,0.9650421-3.5685349,1.4590912-5.3498573c0.4528732-1.6328316,1.0274734-3.2146606,2.100029-4.5652122
		c0.0479889-0.0604248,0.075882-0.1368141,0.1130753-0.2056618c-0.0383682-0.0361862-0.0593338-0.0681496-0.0888062-0.0820007
		c-1.1842117-0.5562897-2.4139633-0.9724388-3.7019348-1.2148056c-0.2497787-0.0470009-0.3695831,0.0692978-0.4494171,0.2741051
		c-0.1913834,0.4909439-0.5753021,0.7397423-1.0674744,0.857357c-0.0961151,0.0229721-0.1875,0.0657234-0.3027344,0.1071434
		c0.0678711,0.1285019,0.1223755,0.2288055,0.1742783,0.3304367c0.704422,1.379406,0.8583832,2.7634621,0.0390244,4.1579475
		c-0.4692917,0.7987061-0.7186584,1.6637878-0.7413635,2.5887299c-0.0156937,0.6393814,0.0307999,1.2823524-0.0196915,1.9182205
		c-0.0465469,0.5862465-0.1498413,1.1741219-0.2936325,1.7447777c-0.1431122,0.5679474-0.5603027,0.9359741-1.1400909,0.9901657
		c-0.5595474,0.0522881-1.146553,0.0797844-1.6916275-0.0300636c-2.0242615-0.4079437-4.02771-0.5452614-6.0357285,0.0909729
		c-0.3911057,0.1239166-0.8255386,0.1493225-1.2404785,0.1523361c-1.0709648,0.0077744-1.8515472-0.7588387-1.8728371-1.8346024
		c-0.0082283-0.4157524,0.0277138-0.8385963,0.0991898-1.2485085c0.1990318-1.1414108,0.2878494-2.26511-0.2989159-3.333313
		c-0.1735611-0.3159637-0.3311729-0.6410828-0.5136032-0.9517136c-0.8209381-1.3978539-0.7263069-2.7928009-0.0017166-4.1895523
		C61.318203,39.0118675,61.3706093,38.9127617,61.4486084,38.7639465z M61.9699898,42.1650543
		c0.165966,0.3579712,0.304657,0.700325,0.4787827,1.0235939c0.3513374,0.6522789,0.5929604,1.3275337,0.668808,2.0752869
		c0.0342255,0.3374367,0.2378883,0.6576805,0.3646774,0.9857292c0.1377144-0.1199722,0.1743965-0.2259521,0.2213707-0.3271523
		c0.2444992-0.5267525,0.4837952-1.0562515,0.7458191-1.5742073c0.0418396-0.0826988,0.2124634-0.1755638,0.2831268-0.1503639
		c0.1012344,0.0361061,0.2157288,0.1672821,0.2353134,0.2742157c0.0499496,0.2727165,0.0606842,0.5541916,0.0687866,0.832695
		c0.0230484,0.7916298,0.696785,1.1383781,1.0995178,1.7583122c0.1208954-0.3290749,0.2067642-0.5627861,0.312439-0.8504333
		c0.5058594,0.5883484,0.9709549,1.1292915,1.4642639,1.7030449c0.5112228-0.5923119,0.9856567-1.1420135,1.4909439-1.7274513
		c0.1267853,0.2566719,0.2253265,0.4561768,0.3367081,0.6816635c0.3591232-0.3154335,0.6924438-0.587265,0.9979553-0.887394
		c0.1136322-0.1116295,0.2033234-0.2820435,0.2317886-0.438755c0.0578995-0.3187065,0.0493927-0.6492882,0.1039429-0.9688797
		c0.0231323-0.1354675,0.1362-0.2555847,0.2083969-0.3826752c0.1230621,0.0746918,0.2643585,0.131012,0.363678,0.2296143
		c0.0867996,0.0861549,0.1352158,0.2161102,0.1853027,0.333252c0.2726822,0.637722,0.5406418,1.2774658,0.8438797,1.9963074
		c0.1424789-0.3066864,0.310585-0.5700836,0.3901596-0.8579483c0.2594528-0.9385643,0.4836349-1.8868217,0.7282486-2.8295708
		c0.0599747-0.2311363,0.1460953-0.4554901,0.220192-0.6829643c-0.0360718-0.0268669-0.0721512-0.0537376-0.1082153-0.0806046
		c-0.1199799,0.1237297-0.2792969,0.2277451-0.3529358,0.3746948c-0.275589,0.5499725-0.5139084,1.1186447-0.7906418,1.6679878
		c-0.0442123,0.0877686-0.2294617,0.1732254-0.3204269,0.1492729c-0.090065-0.023716-0.1879501-0.1804504-0.2045441-0.2905693
		c-0.0535583-0.3554878-0.0563202-0.7186966-0.1114044-1.0738525c-0.0177994-0.1147423-0.1166077-0.2808266-0.2125473-0.3096466
		c-0.9439011-0.2835884-1.8853836-0.3499527-2.7456741,0.2433586c-0.3417435,0.2356911-0.6450119,0.5315208-0.9459686,0.8206177
		c-0.2302475,0.2211685-0.4536667,0.2555656-0.7170868,0.0807762c-0.2228241-0.14785-0.4465866-0.2945137-0.6738739-0.4353561
		c-0.7741394-0.4797249-1.5972061-0.8001022-2.5262375-0.8008881c-0.2479172-0.0002136-0.3637199,0.0855446-0.3795509,0.3339233
		c-0.0229034,0.3593597-0.0446053,0.7203865-0.1013374,1.0751801c-0.0213737,0.133667-0.1097374,0.3003082-0.219223,0.3666077
		c-0.1945953,0.117836-0.2906303-0.0668488-0.3566704-0.2157478c-0.2775726-0.6258469-0.5536575-1.2525291-0.816143-1.8847771
		C62.3554115,42.2184105,62.3083534,42.0408783,61.9699898,42.1650543z M55.0558929,14.8430767
		c0.0058937-0.0493689,0.0117912-0.0987368,0.0176849-0.1481056c-0.3534889-0.1513529-0.6947441-0.3500528-1.0627632-0.445178
		c-1.102066-0.2848577-2.1346016-0.1100559-3.0909462,0.5338764c-0.4992561,0.3361645-1.0257988,0.6335554-1.5518494,0.9272642
		c-0.1927567,0.1076212-0.4196663,0.154067-0.7063522,0.2549305c0.2358055,0.1755104,0.4013214,0.3167324,0.5836067,0.4312687
		c0.8070412,0.5070877,1.7111855,0.6920071,2.642086,0.8059502c0.4065399,0.0497608,0.7202606-0.0059795,1.028553-0.3203468
		C53.6054916,16.1795616,54.3398018,15.5202532,55.0558929,14.8430767z M80.4754333,14.8816442
		c0.0297852,0.0557089,0.0394516,0.0927839,0.0630493,0.1151829c0.8015366,0.7608013,1.6011124,1.5237589,2.4122162,2.2742567
		c0.0800552,0.0740757,0.2333984,0.1034355,0.3501205,0.0979633c0.9517975-0.0446339,1.8680344-0.2457924,2.7127838-0.6999969
		c0.2569199-0.1381359,0.4856033-0.3287811,0.727211-0.4953766c-0.0064011-0.0320168-0.0128021-0.0640335-0.0192032-0.0960522
		c-0.8689651-0.1880016-1.5555573-0.7127333-2.2638931-1.1906633c-0.9090805-0.6133757-1.897377-0.7191105-2.9404221-0.5080662
		C81.1314621,14.4569597,80.7601166,14.5854483,80.4754333,14.8816442z M65.5659485,41.5694199
		c0.3753662-0.7753029,0.7040863-1.454258,1.0661316-2.2020416c0.4333801,0.806057,0.824913,1.5342674,1.2524719,2.3294907
		c0.4413223-0.8327713,0.8454895-1.5954399,1.2655869-2.3881569c-0.4971542-0.1760368-1.0187683-0.2365074-1.25354-0.7433167
		c-0.8646088,0.9482079-2.0206909,0.7149239-3.0904999,0.9222031
		C65.0522842,40.1620865,65.2894974,40.8120117,65.5659485,41.5694199z M72.6327515,43.4816818
		c0.4843216-0.7827682,0.7829437-1.6098518,0.7759171-2.5052185c-0.003479-0.4431877-0.1211014-0.8885078-0.2147827-1.3269463
		c-0.0680618-0.3185349-0.265007-0.4644661-0.6109772-0.3529282c-0.1635513,0.0527306-0.3410721,0.075779-0.5136185,0.0840263
		c-0.3242798,0.0154877-0.413475,0.1431808-0.3197098,0.4659119c0.2554092,0.8791428,0.4924927,1.7639198,0.7184372,2.6511497
		C72.5498047,42.8188324,72.579361,43.1532936,72.6327515,43.4816818z M63.3326988,43.5139008
		c0.2996902-1.1387405,0.5830917-2.2490845,0.8856163-3.3541946c0.2316513-0.8462334,0.1715927-0.726223-0.542099-0.8116226
		c-0.0690384-0.0082664-0.1385765-0.0180435-0.2057343-0.0354195c-0.313549-0.0811195-0.4980888,0.0346985-0.6152382,0.3395958
		C62.3229599,41.0375671,62.7898865,42.280632,63.3326988,43.5139008z M65.4905472,49.1166191
		c-0.3440552-1.3549461-0.6655502-2.6210594-0.9952927-3.9196205c-0.3564911,0.7032623-0.6093102,1.4308548-0.6948624,2.208065
		c-0.0615425,0.5590973-0.0367737,1.119442,0.2149506,1.6377182c0.0494308,0.1017761,0.1960678,0.2291565,0.2906036,0.223484
		C64.6941833,49.242981,65.0796127,49.1728592,65.4905472,49.1166191z M70.6381683,48.8604698
		c0.3057098,0.0464172,0.5899811,0.0899124,0.8743591,0.132679c0.5476303,0.0823555,0.6103897,0.0406189,0.7057495-0.5174904
		c0.1973419-1.1550331-0.1531677-2.2039032-0.6393585-3.2242088c-0.0098038-0.0205841-0.0555649-0.0240402-0.0388031-0.0174255
		C71.242981,46.4287148,70.9467468,47.6197777,70.6381683,48.8604698z M67.9120789,48.5954247
		c-0.4415817-0.5106964-0.8466339-0.9791412-1.3004761-1.5040092c-0.1970673,0.6170998-0.3696976,1.1577034-0.5423355,1.698307
		c0.0241852,0.039814,0.0483704,0.079628,0.0725632,0.119442c1.2421341-0.132946,2.4960556-0.0330429,3.7972717-0.2162056
		c-0.2343597-0.5954857-0.4353943-1.1063042-0.6585159-1.6732445c-0.2541199,0.2923164-0.465683,0.5354996-0.6770401,0.7788658
		C68.3837662,48.0516434,68.1641846,48.304882,67.9120789,48.5954247z M70.2743759,41.5091019
		c0.0314331-0.0044975,0.0628738-0.0089912,0.0943069-0.013485c0.2220459-0.5202332,0.4430771-1.0409012,0.6664886-1.5605469
		c0.1482315-0.3447647,0.1159668-0.4443703-0.248848-0.4922523c-0.4899139-0.0643005-0.9856339-0.0843201-1.5575333-0.12957
		C69.5954285,40.0832253,69.9348984,40.7961655,70.2743759,41.5091019z M60.1831932,22.5330315
		c-0.0669823,0.7100468-0.2999802,1.0734596-0.7246475,1.0319443c-0.223774-0.0218792-0.4965363-0.1718884-0.6265182-0.351408
		c-0.1367645-0.1888924-0.1295471-0.4820385-0.1842384-0.725174c-0.4361,0.3629417-0.4973946,0.8725815-0.1445885,1.2660255
		c0.4337425,0.4837093,1.2571793,0.5101967,1.7268791,0.0555458C60.6137123,23.4386196,60.6074562,22.9299812,60.1831932,22.5330315
		z M75.7191544,22.4523296c-0.3944931,0.3590126-0.4888306,0.7050018-0.3184738,1.0789738
		c0.1819687,0.3994732,0.680397,0.656599,1.1642761,0.6006165c0.4886856-0.0565376,0.8873291-0.370409,0.9668427-0.777647
		c0.0634079-0.3247566-0.022171-0.5986919-0.3147812-0.8446293c-0.0449219,0.7307301-0.3062973,1.0786362-0.7619629,1.0720673
		C75.9961853,23.5750961,75.7539902,23.214489,75.7191544,22.4523296z"/>
	<path class="st10" d="M64.7568588,22.9910622c-0.4255981-0.5619392-0.8340111-1.0383015-1.1688995-1.5617065
		c-0.3119965-0.487627-0.5554924-1.0205784-0.8096046-1.5430775c-0.1162376-0.2390156-0.2751503-0.3639603-0.5353775-0.4377117
		c-1.235611-0.3501968-2.4003143-0.8453674-3.2237358-1.8895969c-0.2902641-0.368103-0.5030518-0.7973042-0.7512131-1.1986065
		c0.0264931-0.0290718,0.05299-0.0581417,0.079483-0.0872116c0.0986214,0.0360069,0.1994858,0.066885,0.2955399,0.1087799
		c1.8963242,0.8271217,3.7932701,1.6528511,5.6850967,2.4901562c0.1162643,0.0514584,0.2660599,0.1909809,0.2738342,0.2986622
		c0.0871048,1.2055664,0.1496048,2.4129162,0.2168427,3.6198902C64.8205185,22.8210373,64.8006439,22.8526344,64.7568588,22.9910622
		z"/>
	<path class="st10" d="M77.3890915,16.2535458c-0.0686264,0.176012-0.106308,0.291687-0.1575012,0.4010372
		c-0.5647278,1.2063465-1.5453873,1.9474659-2.7448883,2.4380856c-0.2790756,0.1141453-0.5610962,0.2448692-0.8542633,0.2951832
		c-0.440834,0.075655-0.6780014,0.3241215-0.850029,0.715395c-0.4179459,0.9505806-0.9535294,1.8314095-1.6532974,2.605648
		c-0.0621109,0.0687141-0.1192398,0.1419773-0.1823196,0.2097378c-0.0124207,0.0133476-0.0416183,0.0110893-0.0869141,0.0215206
		c-0.0045395-0.0805302-0.0164413-0.1566944-0.0119324-0.2318745c0.0680542-1.1359577,0.1426315-2.271553,0.2042007-3.4078522
		c0.0120163-0.2216415,0.0793686-0.3504028,0.2985611-0.4448757c1.9084854-0.8225594,3.8109283-1.6591339,5.7157135-2.4903011
		C77.1469269,16.3301182,77.2327728,16.3071976,77.3890915,16.2535458z"/>
	<path class="st10" d="M65.9161987,23.5107059c0.9264984-0.9916916,2.7558212-1.0645065,3.9024048-0.1545391
		c-0.3383026,0.1657696-0.5936737,0.3959999-1.0213089,0.2001724c-0.6364365-0.2914391-1.3154449-0.2958508-1.9595261,0.0013237
		C66.5150681,23.7065525,66.2406006,23.6534805,65.9161987,23.5107059z"/>
	<path class="st10" d="M61.8959846,37.3527374c0-0.1953506,0-0.3760948,0-0.578804
		c0.2407265-0.0302048,0.3532219,0.0737305,0.3500862,0.3202972C62.2434311,37.301693,62.184063,37.4378815,61.8959846,37.3527374z"
		/>
	<path class="st10" d="M73.5185699,36.7688332c-0.0112534,0.2070122-0.021019,0.3867989-0.0315399,0.5802422
		c-0.1942368,0.0754089-0.310318,0.0266953-0.3315735-0.1910248C73.1319351,36.9171677,73.1932068,36.7455673,73.5185699,36.7688332
		z"/>
	<path class="st10" d="M59.7972412,34.8612289c0-0.2003632,0-0.3807259,0-0.5717773
		c0.2761574-0.0132446,0.3590851,0.1319122,0.340271,0.3628654C60.121624,34.847374,60.037075,34.9555473,59.7972412,34.8612289z"/>
	<path class="st10" d="M74.541481,35.5174484c-0.0081406,0.0998192,0.0004425,0.2049294-0.0289764,0.298027
		c-0.0311966,0.0987167-0.0984879,0.1860275-0.1500168,0.2783241c-0.0597534-0.1057625-0.179039-0.2208328-0.1643219-0.314949
		c0.0187454-0.1198349,0.1459198-0.2227097,0.2263565-0.3328972C74.4635086,35.4697838,74.5024948,35.4936142,74.541481,35.5174484z
		"/>
	<path class="st10" d="M75.598999,34.8555946c-0.2141953,0.0986366-0.3082809,0.0137367-0.3320236-0.1889343
		c-0.0271454-0.231739,0.053978-0.3740654,0.3320236-0.3832092C75.598999,34.482357,75.598999,34.6676979,75.598999,34.8555946z"/>
	<path class="st10" d="M60.8839531,35.4992828c0.2955437-0.0046196,0.3643951,0.1695976,0.314476,0.3835716
		c-0.0220337,0.0944405-0.1505394,0.1640434-0.2307091,0.2449226c-0.0279236-0.0237961-0.0558434-0.047596-0.0837669-0.0713921
		C60.8839531,35.871376,60.8839531,35.6863708,60.8839531,35.4992828z"/>
</g>
</svg>
