<?xml version="1.0" encoding="utf-8"?>
<!-- Generator: Adobe Illustrator 22.1.0, SVG Export Plug-In . SVG Version: 6.00 Build 0)  -->
<svg version="1.1" id="Layer_1" xmlns="http://www.w3.org/2000/svg" xmlns:xlink="http://www.w3.org/1999/xlink" x="0px" y="0px"
	 viewBox="0 0 133.9646606 78.7948227" style="enable-background:new 0 0 133.9646606 78.7948227;" xml:space="preserve">
<style type="text/css">
	.st0{fill:#4153A4;}
	.st1{fill:#121245;}
	.st2{fill:#ABB8DE;}
	.st3{fill:#2C2C81;}
	.st4{clip-path:url(#SVGID_2_);fill:#4853A4;}
	.st5{clip-path:url(#SVGID_2_);}
	.st6{fill:#B8BBD8;}
	.st7{fill:#EDEDF5;}
	.st8{fill:none;stroke:#121245;stroke-miterlimit:10;}
	.st9{fill:none;stroke:#121245;stroke-miterlimit:10;stroke-dasharray:4.1037498,4.1037498;}
	.st10{fill:#3E54A3;}
	.st11{fill:none;stroke:#121245;stroke-miterlimit:10;stroke-dasharray:3.9702759,3.9702759;}
	.st12{fill:#FFFFFF;}
</style>
<g>
	<path class="st10" d="M37.7504539,4.9202843c19.5045052,0,38.9653587,0,58.4640465,0
		c0,0.1617274-0.0000076,0.3083739-0.0000076,0.4550204c0,7.7447257-0.0129242,15.4894772,0.0033417,23.234169
		c0.0195007,9.2866821-2.5106735,17.8159752-7.5440216,25.6099548c-2.9547729,4.5753708-6.5511398,8.5900192-10.6612625,12.1519852
		c-3.0710831,2.6615067-6.3452072,5.0385056-9.8959045,7.0250168c-1.1379776,0.6366577-1.1411743,0.6404724-2.2797241-0.0065231
		c-5.918396-3.3632278-11.1162109-7.615303-15.6325188-12.7029533c-3.4329872-3.8672829-6.2708435-8.127552-8.4055138-12.8445129
		c-1.521862-3.362854-2.6214218-6.8597069-3.2883682-10.4920692c-0.5459785-2.9735222-0.7681274-5.9718914-0.7637482-8.9934025
		c0.0110893-7.6522331,0.0036812-15.3044939,0.0036774-22.9567451C37.7504501,5.2511592,37.7504539,5.1020927,37.7504539,4.9202843z
		 M61.3073616,17.2442169c0-1.76509,0-3.5023117,0-5.2439547c-2.8826599,0-5.7426338,0-8.6086159,0
		c0,1.7595072,0,3.4966011,0,5.264348c0.5659409,0,1.1049194,0,1.6804466,0c0,0.1777554,0,0.3251286,0,0.4725018
		c0,9.4900951,0,18.9801922-0.0000038,28.4702892c0,0.0693512-0.0075836,0.1396828,0.0012474,0.2078857
		c0.0302505,0.233593-0.0779343,0.299015-0.2988396,0.2928772c-0.4586525-0.0127411-0.9179077-0.003849-1.3831902-0.003849
		c0,1.7783737,0,3.5143166,0,5.252121c2.8912926,0,5.7508202,0,8.6119308,0c0-1.756916,0-3.4862709,0-5.2602272
		c-0.5545959,0-1.0905647,0-1.6201401,0c0-4.0492744,0-8.0537643,0-12.0635452c4.8747444,0,9.7239418,0,14.5845375,0
		c0,4.026577,0,8.0301895,0,12.078907c-0.5566635,0-1.09272,0-1.634285,0c0,1.7737503,0,3.5022888,0,5.2468567
		c0.0842896,0.0097466,0.1507797,0.0241165,0.2172775,0.024147c2.7164078,0.0012093,5.4328308-0.001564,8.1492157,0.0058212
		c0.2424316,0.0006561,0.2854233-0.0980949,0.2845764-0.3095207c-0.0062408-1.5720253-0.0030212-3.1440849-0.0049438-4.7161369
		c-0.0000916-0.0768509-0.0204086-0.1536713-0.0366669-0.2682533c-0.5520248,0-1.0902786,0-1.6359177,0
		c0-9.8341446,0-19.6276875,0-29.4543552c0.5660782,0,1.1041718,0,1.6446152,0c0-1.7699633,0-3.5065975,0-5.2384214
		c-2.8910065,0-5.7522736,0-8.6083832,0c0,1.7608776,0,3.4978704,0,5.2595606c0.5573425,0,1.0853348,0,1.6295166,0
		c0,4.0288181,0,8.0325413,0,12.0441303c-4.8776855,0-9.7358856,0-14.5925751,0c0-4.0277824,0-8.0306492,0-12.061182
		C60.2416267,17.2442169,60.769001,17.2442169,61.3073616,17.2442169z"/>
</g>
</svg>
