<?xml version="1.0" encoding="utf-8"?>
<!-- Generator: Adobe Illustrator 22.1.0, SVG Export Plug-In . SVG Version: 6.00 Build 0)  -->
<svg version="1.1" id="Layer_1" xmlns="http://www.w3.org/2000/svg" xmlns:xlink="http://www.w3.org/1999/xlink" x="0px" y="0px"
	 viewBox="0 0 133.9646606 78.7948227" style="enable-background:new 0 0 133.9646606 78.7948227;" xml:space="preserve">
<style type="text/css">
	.st0{fill:#4153A4;}
	.st1{fill:#121245;}
	.st2{fill:#ABB8DE;}
	.st3{fill:#2C2C81;}
	.st4{clip-path:url(#SVGID_2_);fill:#4853A4;}
	.st5{clip-path:url(#SVGID_2_);}
	.st6{fill:#B8BBD8;}
	.st7{fill:#EDEDF5;}
	.st8{fill:none;stroke:#121245;stroke-miterlimit:10;}
	.st9{fill:none;stroke:#121245;stroke-miterlimit:10;stroke-dasharray:4.1037498,4.1037498;}
	.st10{fill:#3E54A3;}
	.st11{fill:none;stroke:#121245;stroke-miterlimit:10;stroke-dasharray:3.9702759,3.9702759;}
	.st12{fill:#FFFFFF;}
</style>
<g>
	<path class="st10" d="M34.952404,26.4869633c4.7449684-2.1056843,9.6087799-3.7981262,14.9043732-4.6280098
		c-0.8423996-0.5397301-1.5652313-1.0028553-2.288063-1.4659805c0.0053177-0.0362453,0.0106316-0.0724869,0.0159492-0.1087322
		c0.8307991-0.1039639,1.6601868-0.2214413,2.492775-0.308218c0.8928719-0.0930576,1.7879639-0.1693058,2.6837196-0.2279644
		c0.3481903-0.0228004,0.5004578-0.1768131,0.5762215-0.507679c0.1770973-0.7733765,0.3867455-1.5392971,0.5980263-2.3662243
		c-1.7949142,0-3.5357971,0-5.3733292,0c0.09412-0.3855419,0.1690407-0.7069645,0.2511635-1.0265331
		c0.7016335-2.7303572,1.4084091-5.4594049,2.1018715-8.1918316c0.0791855-0.3120065,0.1898804-0.4440804,0.5500603-0.4435983
		c9.3836975,0.012567,18.7674179,0.0099597,28.1511307,0.0099664c0.1131516,0,0.2263031,0,0.4039841,0
		c-0.2483215,0.9799237-0.48246,1.9196057-0.7248306,2.8571591c-0.546524,2.1140814-1.1032333,4.2255592-1.6394882,6.3422279
		c-0.0808487,0.3191032-0.1993332,0.4514408-0.5528259,0.4440708c-1.1765366-0.0245266-2.3539124-0.009222-3.5309601-0.009182
		c-1.2838669,0.0000439-1.5348587,0.2071857-1.8095627,1.5480595c0.1854401,0.0300827,0.3679428,0.0708084,0.5526428,0.088026
		c4.6224289,0.4309101,9.1360703,1.3449898,13.3945999,3.2409267c1.5122528,0.6732731,2.9213181,1.5779457,4.3797989,2.372736
		c0.2742767,0.1494617,0.3176575,0.3252659,0.2224808,0.6334438c-0.4603271,1.4905224-0.0977325,2.2422943,1.3485641,2.7975082
		c0.6531067,0.2507191,1.326889,0.4484768,1.9943008,0.6608124c2.5473709,0.810442,3.5866776,2.2158966,3.4347305,5.1306782
		c-0.0867996,1.6652489-0.8842239,3.0530205-1.8820343,4.3306007c-1.4536133,1.8611717-3.2960434,3.2983932-5.1871719,4.6780357
		c-0.0353622,0.025795-0.0883636,0.027401-0.159729,0.0479507c0.0893631-1.132164,0.0003128-2.2340584-0.3619461-3.292572
		c-0.7190399-2.1010017-2.249588-3.2362595-4.4095535-3.5118599c-2.4235077-0.3092308-4.6825333,0.3313637-7.0110779,1.3535652
		c0.3306122,0.1297913,0.5440903,0.2153587,0.7588348,0.2976303c2.6821899,1.0276299,5.2262878,2.3050575,7.4212112,4.1899681
		c1.9884033,1.7075577,3.5283737,3.7244492,4.0771332,6.3494453c0.1672211,0.7999306,0.1743774,1.6333237,0.2548447,2.4513969
		c-0.0512543,0.0186348-0.1025162,0.0372696-0.1537781,0.0559082c-0.4183578-0.2394981-0.8352432-0.481636-1.2553329-0.7180634
		c-2.8393326-1.5979881-5.8337173-2.7732544-9.0816269-3.1892662c-4.4564743-0.5708122-8.595787,0.3662872-12.4025726,2.7506714
		c-1.7969666,1.1255264-3.401329,2.4831467-4.7977943,4.0813446c-0.1042786,0.1193428-0.2113762,0.2601662-0.2507324,0.4086113
		c-0.4339142,1.6367645-0.8546562,3.2770233-1.2885208,4.9532394c0.0831757,0.0203514,0.139328,0.0466805,0.1951027,0.0459137
		c1.9109001-0.0260887,3.8310318,0.053566,5.7304077-0.1089973c2.6874924-0.2300148,4.6169281-1.7282028,5.9611664-4.0261993
		c0.7817612-1.3364296,1.2574615-2.7898979,1.6529694-4.2739716c0.0588226-0.2207375,0.0916061-0.3930054,0.3874969-0.3921738
		c2.8271255,0.007946,5.6542816,0.0047455,8.5516434,0.0047455c-1.9496918,6.1579018-3.8851089,12.27071-5.8237381,18.3936806
		c-14.2379608,0-28.4580536,0-42.7379189,0c0.8264122-3.1993713,1.6471863-6.3768959,2.4775772-9.5916595
		c0.7959824,0,1.5797386-0.0292206,2.3606491,0.0055275c2.2575569,0.1004601,3.3783798-1.3209801,3.7937546-2.9213829
		c1.1175194-4.305687,2.2262611-8.6136589,3.3378868-12.9208755c0.8225861-3.1872749,1.6378975-6.376461,2.4762802-9.5595741
		c0.0821114-0.3117638,0.0154686-0.4710312-0.2244873-0.650856c-4.1067047-3.0776043-8.6765785-5.0817032-13.7393417-5.9493523
		C35.4906464,26.5740089,35.2213936,26.5312538,34.952404,26.4869633z M52.1945839,34.7395782
		c-0.1069565,0.325882-0.1645393,0.4730873-0.203804,0.6250267c-1.6839981,6.5165558-3.3635101,13.0342674-5.0519409,19.5496712
		c-0.2612076,1.0079613-0.4444008,2.058918-0.8687286,2.997261c-0.9952621,2.2009087-2.8671951,3.215168-5.2008858,3.4489288
		c-1.0084343,0.1010132-1.0113029,0.0716171-1.2661629,1.0393028c-0.0622482,0.236351-0.1280174,0.4718018-0.1872444,0.7089005
		c-0.1868668,0.7480812-0.3714027,1.4967537-0.5629158,2.2697258c12.4475746,0,24.8211784,0,37.2214241,0
		c1.3395538-4.233963,2.6763763-8.4592743,4.0309677-12.7407761c-0.9966049,0-1.8786774,0.0159569-2.7596283-0.0083427
		c-0.3240433-0.0089378-0.4395294,0.1315422-0.5627441,0.4008293c-0.3790817,0.8284378-0.7336578,1.6781044-1.2098694,2.4503975
		c-2.4155884,3.9174767-5.8857803,5.9983559-10.550293,5.9625206c-2.2071266-0.0169563-4.4144897-0.0029144-6.6217461-0.0029144
		c-0.1756363,0-0.3512726,0-0.5833626,0c0.0410042-0.2002335,0.0633926-0.3405609,0.0987167-0.4775429
		c0.9115257-3.5349884,1.8277779-7.0687714,2.7300034-10.6061287c0.065136-0.2553749,0.1001816-0.5562057,0.0307312-0.8024826
		c-1.116806-3.9603577-2.7850342-7.6655769-5.2709427-10.9619179
		C54.4272957,37.2940559,53.3255653,36.0887337,52.1945839,34.7395782z M42.7831268,26.4550343
		c0.1969833,0.0582886,0.2521935,0.0787125,0.309166,0.0909042c5.0992584,1.0913067,9.3143845,3.664566,12.7093086,7.6013699
		c3.3574257,3.8933296,5.4929733,8.4172935,6.8410797,13.3420448c0.1787224,0.6528893,0.3268318,1.3141556,0.5028191,2.0270462
		c2.2773514-2.7711258,5.200058-4.3430977,8.7112885-5.1560593c-3.5828323-1.7875519-7.2578888-2.8461227-11.2128906-3.4385033
		c0.311039-0.644886,0.5458183-1.2686539,0.8918724-1.8229485c0.9626236-1.5418854,2.422039-2.5355301,3.9511604-3.4379387
		c0.444313-0.2622108,0.8947372-0.5140495,1.3707962-0.7869415c-1.185318-1.1581459-1.725174-2.5528831-1.8241272-4.1141415
		c-0.0986023-1.5556126-0.0071259-3.0799828,1.3720093-4.3220139c-0.7335739,0-1.3334885-0.0411472-1.9250488,0.0115585
		c-0.5928764,0.0528259-1.1774063,0.1993179-1.8278999,0.3159256c1.7472115-1.47822,3.7219353-2.2378387,5.9371605-2.3712921
		c2.28862-0.1378765,4.4561081,0.38344,6.4700699,1.4333839c1.455452,0.75877,2.8339767,1.6650906,4.2875824,2.5298634
		c1.3222885-1.83638,3.0234604-3.3550549,5.4476547-4.0889473c-2.3432541-1.6958637-4.9414749-2.4034863-7.603508-2.9267998
		c-2.6690674-0.5247002-5.3705978-0.726347-8.1985168-0.7823467c0.3482742,0.3871078,0.605629,0.6780643,0.8684998,0.9639549
		c0.2579803,0.2805767,0.5215683,0.5560055,0.7325363,0.7803516C61.0177155,21.3163166,51.7653503,22.472374,42.7831268,26.4550343z
		 M62.7757378,18.3942795c0.0089455-0.0436115,0.0178833-0.0872231,0.026825-0.1308346
		c1.9251976,0,3.8504753-0.0087986,5.7755241,0.0084763c0.3289642,0.0029507,0.3954468-0.1458702,0.4761963-0.4129505
		c0.5326767-1.7617989,1.5700607-3.1047916,3.3976212-3.6017237c0.784729-0.213378,1.6453934-0.1704197,2.4729462-0.1929131
		c0.367218-0.0099802,0.5508575-0.0892029,0.6396637-0.4762516c0.2367935-1.0319405,0.5235519-2.0523634,0.7843094-3.0789223
		c0.0333328-0.1312304,0.0302505-0.2717123,0.0460587-0.4278069c-7.7806549,0-15.5067825,0-23.2650299,0
		c-0.3373833,1.3109503-0.6719246,2.6108646-1.0220757,3.9714308c0.6401215,0,1.1939354-0.0026379,1.747715,0.0004768
		c1.9389496,0.0109062,3.0732346,1.3357668,2.7455521,3.2367496c-0.1292915,0.7500381-0.319767,1.4895267-0.4752922,2.2013741
		c2.9917564,0.1083374,5.9654465,0.2160187,8.9525185,0.3241844C64.3138809,19.3437347,63.5448112,18.8690071,62.7757378,18.3942795
		z M63.8412132,39.323082c0.1073456,0.0655518,0.1464767,0.0966454,0.1908073,0.1154938
		c4.2048874,1.7874718,8.553772,3.105011,13.0741882,3.7671547c3.5407791,0.5186539,6.900383,1.5181503,10.045166,3.2290611
		c0.2600174,0.141468,0.5287933,0.2668495,0.7935104,0.3997078c0.0487442-0.0582161,0.097496-0.1164322,0.1462479-0.1746445
		c-0.2006226-0.1421776-0.4205475-0.2636948-0.5986938-0.4299545c-1.0141678-0.9464874-2.1719513-1.670002-3.4294434-2.2413635
		c-2.6036453-1.1830101-5.3840714-1.7459641-8.1561813-2.3515434c-2.6897278-0.5875816-5.3684082-1.2266769-8.0461655-1.8673172
		c-0.5080414-0.1215515-0.9890213-0.3561707-1.5632172-0.5684624c0.2358704-0.1278839,0.3618927-0.2024536,0.4930801-0.2664108
		c2.7139359-1.3231392,5.4773254-2.5288696,8.3646164-3.4253845c3.8957596-1.2096443,7.8428955-1.9086113,11.9578171-1.4344978
		c1.8799362,0.2165985,3.1360092,1.0612984,3.8071365,2.8092728c0.1660614,0.4325333,0.3349228,0.8639984,0.5264435,1.3576851
		c1.7283554-1.6138229,2.8679352-3.464077,2.9436188-5.8231239c0.0415192-1.2940407-0.6027298-2.0953865-1.8044281-2.3120213
		c-0.6343079-0.1143475-1.3035889-0.136343-1.946785-0.0808182c-2.0165939,0.1740971-3.9376831,0.7697544-5.7923508,1.5437241
		c-0.9829178,0.4101791-1.9682159,0.1103306-2.9455414,0.2750988c1.6241379-2.0475807,3.6222076-3.552475,6.0287933-4.5349445
		c-0.2604294-0.101326-0.4958725-0.1563702-0.7342987-0.1904812c-1.5970764-0.2284794-2.9829102,0.327158-4.1795502,1.2976418
		c-1.0750198,0.8718338-2.083847,1.8366299-3.0462341,2.8334522c-1.610054,1.6676807-3.5509949,2.7515736-5.7198639,3.4840336
		c1.1116638-0.6941833,1.8992996-1.6413193,2.2983475-2.8932266c0.2474823-0.7764072,0.233757-0.8172894-0.400383-1.3157024
		c-0.4491882-0.3530426-0.9041367-0.7002335-1.3730164-1.0262928c-0.3778687-0.2627659-0.7804413-0.489996-1.1720505-0.7329922
		c0.0708618,0.2814045,0.2138443,0.4800224,0.3031693,0.7003937c0.0949554,0.2342796,0.139061,0.4891758,0.2278595,0.8184872
		c-0.5676575-0.1032124-1.0563583-0.19207-1.6874008-0.3068066c0.4912415,0.2927685,0.8446198,0.5275116,1.2197571,0.7197933
		c0.3380127,0.1732483,0.366684,0.3757019,0.2024078,0.6976757c-0.5122528,1.0039577-1.6606903,1.5041294-2.7364807,1.1683521
		c-1.027504-0.3207054-1.7266464-1.3813438-1.5936279-2.4176197c0.1502075-1.170248,1.0541763-2.0064697,2.2030487-2.0398808
		c0.1137772-0.0033092,0.2272644-0.01688,0.340889-0.0256882c0.0077133-0.0481987,0.015419-0.0963993,0.0231323-0.144598
		c-1.0487289-0.3400459-2.1027603-0.6648598-3.1435165-1.0277634c-0.4063873-0.1417046-0.6586609-0.0387936-0.9268646,0.2781963
		c-2.2478409,2.6567554-1.096489,6.7950592,2.2114868,7.8826027c0.3681107,0.1210213,0.7598495,0.1898079,1.1461334,0.2303009
		c0.3676987,0.0385399,0.7426147,0.0083008,1.2507019,0.0083008C69.4854355,36.3336906,66.3372269,37.0569534,63.8412132,39.323082z
		 M79.1335297,40.4804306c-0.3368454-0.1524773-0.6732483-0.3059578-1.0106277-0.4572563
		c-1.083252-0.4857826-2.16539-0.9740944-3.250885-1.4548264c-0.6651611-0.2945747-1.1784058-0.2120132-1.5396729,0.2610207
		C75.1862488,39.6601791,77.0919952,40.2710075,79.1335297,40.4804306z"/>
</g>
</svg>
