<?xml version="1.0" encoding="utf-8"?>
<!-- Generator: Adobe Illustrator 22.1.0, SVG Export Plug-In . SVG Version: 6.00 Build 0)  -->
<svg version="1.1" id="Layer_1" xmlns="http://www.w3.org/2000/svg" xmlns:xlink="http://www.w3.org/1999/xlink" x="0px" y="0px"
	 viewBox="0 0 133.9646606 78.7948227" style="enable-background:new 0 0 133.9646606 78.7948227;" xml:space="preserve">
<style type="text/css">
	.st0{fill:#4153A4;}
	.st1{fill:#121245;}
	.st2{fill:#ABB8DE;}
	.st3{fill:#2C2C81;}
	.st4{clip-path:url(#SVGID_2_);fill:#4853A4;}
	.st5{clip-path:url(#SVGID_2_);}
	.st6{fill:#B8BBD8;}
	.st7{fill:#EDEDF5;}
	.st8{fill:none;stroke:#121245;stroke-miterlimit:10;}
	.st9{fill:none;stroke:#121245;stroke-miterlimit:10;stroke-dasharray:4.1037498,4.1037498;}
	.st10{fill:#3E54A3;}
	.st11{fill:none;stroke:#121245;stroke-miterlimit:10;stroke-dasharray:3.9702759,3.9702759;}
	.st12{fill:#FFFFFF;}
</style>
<g>
	<path class="st2" d="M64.8085632,43.8786392c-0.15168,0.0068932-0.3033676,0.0137901-0.4704208,0.0213776
		c0,4.1964493,0,8.3772545,0,12.5800552c0.1164856,0.0060158,0.2275009,0.0166893,0.3385162,0.0167427
		c2.1370087,0.0010033,4.274025,0.000618,6.4110413,0.0009384c0.316124,0.0000458,0.3168182,0.0010376,0.3168335,0.3209648
		c0.0001678,3.9664345,0.0001526,7.9328613,0.0000381,11.899292c-0.0000076,0.3225021-0.0004883,0.3228989-0.3109665,0.3232269
		c-3.4887009,0.0036316-6.9774017,0.0072556-10.4661026,0.0100861c-0.096714,0.0000839-0.1934319-0.0086823-0.2901459-0.0133286
		c-0.0000381-0.0126266-0.0000648-0.0252609-0.0000916-0.0378876c2.8654289,0.0016556,5.7308578,0.0034256,8.5962906,0.0039597
		c0.0441971,0.0000076,0.0884018-0.0152588,0.178009-0.0317535c-6.7106667-7.0529633-13.9105949-13.4985619-21.6370659-19.4815865
		c0,0.2596893,0.0008621,0.4419174-0.0001411,0.6241379c-0.0053482,0.9709129-0.0111618,1.9418259-0.0168114,2.9127426
		c-0.0083046-0.0958672-0.0239296-0.1917343-0.0238533-0.2875938c0.0033493-4.1581535,0.0079765-8.3163071,0.0134468-12.4744606
		c0.0001144-0.0883789,0.0119057-0.1767502,0.0182495-0.2651215c0.102314,0.0785522,0.2124977,0.1487846,0.3057175,0.2369499
		c0.9344177,0.8837128,1.8809204,1.7553406,2.7949409,2.6597633c1.334343,1.3203316,2.6493607,2.6603394,3.9633369,4.0010529
		c0.5830688,0.5949402,1.1515007,1.2047844,1.7123489,1.8208084c0.9581337,1.0523911,1.9118996,2.1089287,2.8545761,3.175148
		c0.7924995,0.8963623,1.5711365,1.8051224,2.3473473,2.7156982c0.5757904,0.6754608,1.1378479,1.3626404,1.706028,2.0445976
		c0.0196114-0.0130463,0.0392189-0.0260849,0.0588341-0.0391235c-4.2184067-8.9670258-9.445076-17.3032532-15.6717377-25.0138588
		c-0.0207596,0.0064907-0.0415192,0.0129814-0.0622787,0.0194702c0,0.0933361,0,0.1866722,0,0.2800083
		c-0.0000038,2.5654697,0.0002213,5.1309414-0.0007019,7.696413c-0.0000458,0.1209831-0.0102692,0.2419662-0.0157509,0.3629494
		c-0.0084686-0.0877533-0.0242882-0.1755104-0.0243301-0.2632713c-0.0013008-2.6547279-0.0027351-5.3094635-0.0006599-7.9641953
		c0.0034599-4.4270802,0.0093842-8.8541584,0.0140419-13.2812386c0.0003586-0.3392982-0.0004845-0.3396988-0.3466225-0.3397198
		c-2.136734-0.0001392-4.2734718,0.0000477-6.4102058-0.0002384c-0.3201065-0.000042-0.3211708-0.0009346-0.3207321-0.3136177
		c0.0025864-1.8290081,0.0057106-3.6580181,0.0086517-5.4870262c2.6480446,1.5184546,5.2247009,3.1496344,7.7374878,4.8828068
		c3.7387581,2.5787735,7.3375511,5.3416786,10.8123283,8.2639885c1.8192215,1.529974,3.5903625,3.1171207,5.3832169,4.6784477
		c0,0.4153194,0,0.8306427,0,1.2755566c0.5058746,0,0.9636459,0,1.4214172,0
		c0.1473236,0.1380291,0.2955093,0.2751465,0.4418259,0.4142323c1.2900848,1.2263508,2.6027451,2.4300137,3.8643951,3.6849651
		c1.9622116,1.9517899,3.8951645,3.933136,5.8287735,5.9134293c0.6551361,0.670948,1.2746735,1.3766441,1.9104843,2.0664635
		c-0.7357864,0.0972137-1.4694138,0.2528114-2.2077866,0.2801018c-1.8234711,0.0673981-3.6491241,0.0759659-5.4738998,0.1081848
		c-0.0257721-0.0310402-0.0491562-0.0644913-0.0776672-0.0927734c-1.2927475-1.2825279-2.5829544-2.5676384-3.8801422-3.8456726
		c-0.8647308-0.8519592-1.7295456-1.7042656-2.6118393-2.5378838c-1.7464638-1.6501007-3.5016556-3.2910156-5.2599525-4.9285202
		c-1.0002632-0.9315434-2.0061951-1.8573093-3.0231972-2.7704983c-1.4200478-1.2750969-2.8522339-2.5366859-4.280674-3.8024216
		c-0.2801399-0.2482319-0.5668526-0.4890423-0.8505363-0.7332764c0.2310562,0.3646927,0.5016937,0.6911983,0.7700043,1.0196037
		c1.5605278,1.9100494,3.1302643,3.8126869,4.6776161,5.7333565c1.253273,1.5556469,2.4943619,3.1216297,3.7140808,4.7036686
		C61.1310921,39.0333481,62.9649162,41.4597855,64.8085632,43.8786392z"/>
	<path class="st10" d="M53.9308929,5.5708733c0.8329659-0.0029187,1.6659317-0.0084949,2.4988937-0.0081897
		c1.6257248,0.0005946,3.2514534,0.0044785,4.8771782,0.0070004c0.501606,0.2958093,1.0027428,0.592423,1.5048981,0.8872957
		c3.0305748,1.7795868,5.977459,3.6884212,8.8351936,5.7339573c2.5866318,1.8514872,5.1036072,3.793437,7.4989166,5.8877563
		c1.2847061,1.12327,2.5661316,2.253067,3.7990341,3.4322014c2.2404633,2.1427574,4.4038925,4.3637943,6.3772507,6.758276
		c1.2598419,1.5287189,2.4674606,3.1005058,3.6956482,4.6552258c0.052803,0.0668297,0.076973,0.1562729,0.1144791,0.2351799
		c-0.9357529,1.8704224-2.1908188,3.500412-3.7182007,4.9233093c-0.8054199,0.7503242-1.6659622,1.4314461-2.5982208,2.0194435
		c-0.0628433-0.0620422-0.1347046-0.1172981-0.1872406-0.1870995c-2.6176529-3.4780617-5.356842-6.8575554-8.2125397-10.1429138
		c-0.2106094-0.2423096-0.3985977-0.5042915-0.5971146-0.7571239c1.0638275-1.0716934,1.6441803-2.3582706,1.7204437-3.8691788
		c0.1044388-2.0690174-0.5930481-3.7942314-2.2351074-5.0869122c-1.5400772-1.2123909-3.3550949-1.7187138-5.2673035-1.8554344
		c-1.3937607-0.0996552-2.7968903-0.0682468-4.1958237-0.0960751c-0.1047592-0.0020828-0.2093811-0.0106659-0.314064-0.0162239
		c-0.0637665-0.0726299-0.1230087-0.1498966-0.1919708-0.217205c-1.3552475-1.3228302-2.7086868-2.647543-4.0692215-3.9649296
		c-0.5521126-0.534606-1.1144371-1.0590353-1.6821976-1.5770426c-1.1292496-1.0302954-2.2606812-2.0583124-3.4004326-3.0769491
		c-0.8380814-0.7490215-1.6886139-1.484189-2.5378304-2.2206497C55.0778465,6.5422559,54.5027084,6.0584803,53.9308929,5.5708733z"
		/>
	<path class="st2" d="M93.1323853,33.1595764c-0.0375061-0.078907-0.061676-0.1683502-0.1144791-0.2351799
		c-1.2281876-1.5547199-2.4358063-3.1265068-3.6956482-4.6552258c-1.9733582-2.3944817-4.1367874-4.6155186-6.3772507-6.758276
		c-1.2329025-1.1791344-2.514328-2.3089314-3.7990341-3.4322014c-2.3953094-2.0943193-4.9122849-4.0362692-7.4989166-5.8877563
		c-2.8577347-2.045536-5.8046188-3.9543705-8.8351936-5.7339573c-0.5021553-0.2948728-1.0032921-0.5914865-1.5048981-0.8872957
		c0.0808449-0.0023069,0.1616898-0.006639,0.2425385-0.0066299c3.9254494,0.0004573,7.8511467-0.0262299,11.7762718,0.0097094
		c4.0387878,0.0369797,7.9243698,0.8085198,11.5515137,2.6537704c3.4503632,1.7553167,6.1992493,4.2581625,8.0612717,7.6822939
		c1.1266556,2.0718603,1.7907486,4.2895517,2.0378723,6.6332083c0.0211411,0.2004395,0.0274734,0.4024391,0.0406876,0.6037159
		c-0.4514236-0.5275478-0.8935089-1.0634441-1.3561935-1.5809269c-1.0134354-1.1334801-2.0104675-2.2833843-3.0626755-3.3800716
		c-2.0185242-2.1038361-4.1669388-4.0694408-6.4512863-5.8842926c-2.2534409-1.7902956-4.6055298-3.4334927-7.139061-4.8073735
		c-0.2006683-0.1088161-0.4066925-0.2077346-0.6102295-0.3112526c0.1704254,0.2341256,0.3776932,0.4134159,0.5689163,0.6084371
		c1.2125702,1.2366409,2.4397736,2.4596586,3.6263504,3.7208462c1.0527496,1.1189442,2.0997086,2.248064,3.0762558,3.4328394
		c1.4141922,1.7157469,2.8041382,3.4548597,4.1298981,5.2393713c2.2972565,3.0921726,4.2970734,6.3722305,5.9731369,9.8450451
		c0.1193161,0.2472172,0.2433243,0.4921627,0.3651505,0.7381668C93.8023834,31.5642204,93.4673843,32.3619003,93.1323853,33.1595764
		z"/>
	<path class="st10" d="M64.3112183,30.1362438c-1.7928467-1.561327-3.5639877-3.1484737-5.3832092-4.6784477
		c-3.4747772-2.9223099-7.0735703-5.685215-10.8123283-8.2639885c-2.5127869-1.7331724-5.0894432-3.3643522-7.7374878-4.8828068
		c-0.0026703-1.859786-0.0054321-3.7195711-0.0079384-5.5793562c-0.0005112-0.3789206-0.0000763-0.7578425-0.0000763-1.1351233
		c0.036602-0.0144935,0.0580521-0.0304265,0.0794945-0.0304184c1.7060814,0.0006509,3.412159,0.0025487,5.1182365,0.004353
		c1.6756401,1.3857484,3.3691216,2.7506194,5.0218811,4.1631379c1.640728,1.4022379,3.2587585,2.8324099,4.8524132,4.2879181
		c1.2777557,1.1669931,2.5191154,2.3751116,3.7488976,3.5929804c1.1321487,1.1211872,2.2320671,2.2751503,3.3369179,3.4235878
		c0.6050453,0.6289158,1.1909218,1.2762737,1.7854424,1.9153118c0.0028534,0.0969009,0.0081787,0.1938,0.0082016,0.290699
		c0.0004807,2.0468369,0.0007324,4.0936718-0.0001144,6.1405067C64.3214493,29.6351471,64.314827,29.8856945,64.3112183,30.1362438z
		"/>
	<path class="st2" d="M60.337265,69.0001068c0.0000267,0.0126266,0.0000534,0.0252609,0.0000916,0.0378876
		c-2.2465057,0.0011139-4.4930153,0.0012054-6.739521,0.0036697c-1.7211342,0.0018768-3.4422646,0.0069733-5.1633949,0.0096588
		c-0.0965385,0.0001526-0.1930885-0.0087357-0.2896347-0.0134125c-0.0000496-0.0118256-0.0001068-0.0236511-0.0001678-0.0354767
		c0.8434296,0,1.6868629,0,2.5769348,0c-0.0659103-0.1300812-0.0990257-0.2016449-0.1373901-0.2702789
		c-2.0197563-3.6134186-4.2722397-7.0763359-6.7313919-10.4055099c-0.4465065-0.6044731-0.8949318-1.2075462-1.3424721-1.811264
		c0.1045303-0.0059509,0.2090569-0.0169983,0.313591-0.0170822c1.4466133-0.001152,2.8932495-0.0048561,4.3398132,0.003521
		c0.2188377,0.0012703,0.2920799-0.0579071,0.2892799-0.2844582c-0.011692-0.9454079-0.0054512-1.8910408-0.0040932-2.8365974
		c0.0001488-0.104538,0.0111198-0.2090683,0.0170708-0.3136024c0.0723381,0.0638771,0.1502953,0.122467,0.2161255,0.1924667
		c0.4928627,0.5241013,0.9971504,1.0383072,1.4720078,1.5783386c1.5207253,1.7294464,3.0472603,3.454277,4.5396156,5.208065
		c1.6772118,1.971035,3.2376556,4.0349464,4.7278404,6.1507835C59.0732002,67.1220398,59.6994743,68.0651321,60.337265,69.0001068z"
		/>
	<path class="st10" d="M60.337265,69.0001068c-0.6377907-0.9349747-1.2640648-1.878067-1.9156952-2.8032913
		c-1.4901848-2.1158371-3.0506287-4.1797485-4.7278404-6.1507835c-1.4923553-1.753788-3.0188904-3.4786186-4.5396156-5.208065
		c-0.4748573-0.5400314-0.9791451-1.0542374-1.4720078-1.5783386c-0.0658302-0.0699997-0.1437874-0.1285896-0.2161255-0.1924667
		c-0.0075111-0.0121841-0.0103226-0.0253677-0.0084343-0.0395546c0.0056496-0.9709167,0.0114632-1.9418297,0.0168114-2.9127426
		c0.0010033-0.1822205,0.0001411-0.3644485,0.0001411-0.6241379c7.7264709,5.9830246,14.9263992,12.4286232,21.6370659,19.4815865
		c-0.0896072,0.0164948-0.133812,0.0317612-0.178009,0.0317535C66.0681229,69.0035324,63.2026939,69.0017624,60.337265,69.0001068z"
		/>
	<path class="st2" d="M64.3134613,22.953392c-0.5945206-0.6390381-1.180397-1.286396-1.7854424-1.9153118
		c-1.1048508-1.1484375-2.2047691-2.3024006-3.3369179-3.4235878c-1.2297821-1.2178688-2.4711418-2.4259872-3.7488976-3.5929804
		c-1.5936546-1.4555082-3.2116852-2.8856802-4.8524132-4.2879181c-1.6527596-1.4125185-3.346241-2.7773895-5.0218811-4.1631379
		c1.5756416-0.0025616,3.1512794-0.0068908,4.7269211-0.007112c1.2120209-0.0001702,2.4240417,0.0048285,3.6360626,0.0075293
		c0.5718155,0.487607,1.1469536,0.9713826,1.7146683,1.4637184c0.8492165,0.7364607,1.699749,1.4716282,2.5378304,2.2206497
		c1.1397514,1.0186367,2.271183,2.0466537,3.4004326,3.0769491c0.5677605,0.5180073,1.130085,1.0424366,1.6821976,1.5770426
		c1.3605347,1.3173866,2.713974,2.6420994,4.0692215,3.9649296c0.0689621,0.0673084,0.1282043,0.1445751,0.1919708,0.217205
		c-0.953476,0.0053177-1.9069519,0.0110264-2.8604279,0.0157509c-0.3443604,0.0017033-0.3440857,0.0006256-0.3447037,0.3358765
		C64.3193054,19.9464607,64.3163528,21.4499264,64.3134613,22.953392z"/>
	<path class="st2" d="M77.8190689,29.015192c0.1985168,0.2528324,0.3865051,0.5148144,0.5971146,0.7571239
		c2.8556976,3.2853584,5.5948868,6.6648521,8.2125397,10.1429138c0.052536,0.0698013,0.1243973,0.1250572,0.1872406,0.1870995
		c-1.4824371,0.9874649-3.0809021,1.7387924-4.759285,2.3234367c-1.2074585,0.4205971-2.4388428,0.7543259-3.7011719,0.9672928
		c-0.0243607-0.0597992-0.0454559-0.1211815-0.0735626-0.1791649c-1.1050568-2.2798653-2.3021317-4.5112343-3.6668167-6.6454811
		c-1.1147232-1.7433395-2.2947159-3.4449463-3.4457626-5.1650562c0.5932693-0.0652409,1.1902008-0.1072311,1.7791214-0.2000523
		C74.7682037,30.9164925,76.4478378,30.3059006,77.8190689,29.015192z"/>
	<path class="st10" d="M47.4580498,39.9603081c0.0054817-0.1209831,0.0157051-0.2419662,0.0157509-0.3629494
		c0.0009232-2.5654716,0.0006981-5.1309433,0.0007019-7.696413c0-0.0933361,0-0.1866722,0-0.2800083
		c0.0207596-0.0064888,0.0415192-0.0129795,0.0622787-0.0194702c6.2266617,7.7106056,11.453331,16.046833,15.6717377,25.0138588
		c-0.0196152,0.0130386-0.0392227,0.0260773-0.0588341,0.0391235c-0.5681801-0.6819572-1.1302376-1.3691368-1.706028-2.0445976
		c-0.7762108-0.9105759-1.5548477-1.8193359-2.3473473-2.7156982c-0.9426765-1.0662193-1.8964424-2.122757-2.8545761-3.175148
		c-0.5608482-0.616024-1.1292801-1.2258682-1.7123489-1.8208084c-1.3139763-1.3407135-2.628994-2.6807213-3.9633369-4.0010529
		c-0.9140205-0.9044228-1.8605232-1.7760506-2.7949409-2.6597633c-0.0932198-0.0881653-0.2034035-0.1583977-0.3057175-0.2369499
		C47.4586487,39.9878426,47.4561996,39.9744682,47.4580498,39.9603081z"/>
	<path class="st10" d="M94.1373749,30.7665367c-0.1218185-0.2460003-0.2458267-0.4909458-0.3651428-0.738163
		c-1.6760635-3.4728146-3.6758804-6.7528725-5.9731369-9.8450451c-1.3257599-1.7845116-2.7157059-3.5236244-4.1298981-5.2393713
		c-0.9765472-1.1847754-2.0235062-2.3138952-3.0762558-3.4328394c-1.1865768-1.2611876-2.4137802-2.4842052-3.6263504-3.7208462
		C76.7753677,7.5952506,76.5681,7.4159603,76.3976746,7.1818347c0.203537,0.103518,0.4095612,0.2024364,0.6102295,0.3112526
		c2.5335312,1.3738809,4.8856201,3.0170779,7.139061,4.8073735c2.2843475,1.8148518,4.4327621,3.7804565,6.4512863,5.8842926
		c1.0522079,1.0966873,2.0492401,2.2465916,3.0626755,3.3800716c0.4626846,0.5174828,0.9047699,1.0533791,1.3561935,1.5809269
		c0.0290527,0.5240135,0.0837479,1.0480881,0.0825806,1.5720367c-0.0044174,1.9993057-0.2751541,3.9603462-0.8988037,5.8659878
		C94.1808395,30.6450596,94.1585999,30.7056332,94.1373749,30.7665367z"/>
	<path class="st10" d="M64.8085632,43.8786392c-1.843647-2.4188538-3.6774712-4.8452911-5.5344353-7.2538795
		c-1.2197189-1.5820389-2.4608078-3.1480217-3.7140808-4.7036686c-1.5473518-1.9206696-3.1170883-3.823307-4.6776161-5.7333565
		c-0.2683105-0.3284054-0.5389481-0.654911-0.7700043-1.0196037c0.2836838,0.2442341,0.5703964,0.4850445,0.8505363,0.7332764
		c1.4284401,1.2657356,2.8606262,2.5273247,4.280674,3.8024216c1.0170021,0.9131889,2.022934,1.8389549,3.0231972,2.7704983
		c1.758297,1.6375046,3.5134888,3.2784195,5.2599525,4.9285202c0.8822937,0.8336182,1.7471085,1.6859245,2.6118393,2.5378838
		c1.2971878,1.2780342,2.5873947,2.5631447,3.8801422,3.8456726c0.028511,0.0282822,0.0518951,0.0617332,0.0776672,0.0927696
		C68.3338165,43.8789978,66.5711899,43.8788185,64.8085632,43.8786392z"/>
	<path class="st10" d="M42.5103188,56.5153809c0.4475403,0.6037178,0.8959656,1.2067909,1.3424721,1.811264
		c2.4591522,3.329174,4.7116356,6.7920914,6.7313919,10.4055099c0.0383644,0.068634,0.0714798,0.1401978,0.1373901,0.2702789
		c-0.8900719,0-1.7335052,0-2.5769348,0c-0.0591583-0.0549927-0.1220016-0.1065369-0.1769066-0.1654816
		c-0.589817-0.6332245-1.163063-1.2827225-1.7703896-1.8986282c-1.3861885-1.4057693-2.7839088-2.800293-4.1874847-4.1887321
		c-0.5286102-0.5229187-1.0863342-1.0164032-1.6307907-1.5233002c-0.0017624-1.5506821-0.0035706-3.1013527-0.004612-4.6520348
		c-0.0000076-0.0146294,0.0102234-0.0292625,0.0212517-0.058876C41.0971451,56.5153809,41.80373,56.5153809,42.5103188,56.5153809z"
		/>
	<path class="st10" d="M71.1693649,31.4033546c1.1510468,1.7201118,2.3310394,3.4217186,3.4457626,5.1650581
		c1.3646851,2.1342468,2.5617599,4.3656158,3.6668167,6.6454811c0.0281067,0.0579834,0.049202,0.1193657,0.0735626,0.1791649
		c-0.1924667,0.032608-0.3849258,0.0652199-0.5773849,0.0978317c-0.6358109-0.6898193-1.2553482-1.3955154-1.9104843-2.0664635
		c-1.933609-1.9802933-3.8665619-3.9616394-5.8287735-5.9134293c-1.2616501-1.2549515-2.5743103-2.4586143-3.8643951-3.6849651
		c-0.1463165-0.1390858-0.2945023-0.2762032-0.4418259-0.4142342C67.5448837,31.4089851,69.3571243,31.406168,71.1693649,31.4033546
		z"/>
	<path class="st2" d="M40.3790665,61.2262917c0.5444565,0.506897,1.1021805,1.0003815,1.6307907,1.5233002
		c1.4035759,1.3884392,2.8012962,2.7829628,4.1874847,4.1887321c0.6073265,0.6159058,1.1805725,1.2654037,1.7703896,1.8986282
		c0.0549049,0.0589447,0.1177483,0.1104889,0.1769066,0.1654816c0.000061,0.0118256,0.0001183,0.0236511,0.0001678,0.0354843
		c-2.517601,0.0010834-5.0352058,0.0015869-7.5528107,0.0048065c-0.1385078,0.0001831-0.2263412-0.0129089-0.2257996-0.1912613
		C40.3739243,66.3097458,40.3757896,63.7680206,40.3790665,61.2262917z"/>
</g>
</svg>
