<?xml version="1.0" encoding="utf-8"?>
<!-- Generator: Adobe Illustrator 22.1.0, SVG Export Plug-In . SVG Version: 6.00 Build 0)  -->
<svg version="1.1" id="Layer_1" xmlns="http://www.w3.org/2000/svg" xmlns:xlink="http://www.w3.org/1999/xlink" x="0px" y="0px"
	 viewBox="0 0 133.9646606 78.7948227" style="enable-background:new 0 0 133.9646606 78.7948227;" xml:space="preserve">
<style type="text/css">
	.st0{fill:#4153A4;}
	.st1{fill:#121245;}
	.st2{fill:#ABB8DE;}
	.st3{fill:#2C2C81;}
	.st4{clip-path:url(#SVGID_2_);fill:#4853A4;}
	.st5{clip-path:url(#SVGID_2_);}
	.st6{fill:#B8BBD8;}
	.st7{fill:#EDEDF5;}
	.st8{fill:none;stroke:#121245;stroke-miterlimit:10;}
	.st9{fill:none;stroke:#121245;stroke-miterlimit:10;stroke-dasharray:4.1037498,4.1037498;}
	.st10{fill:#3E54A3;}
	.st11{fill:none;stroke:#121245;stroke-miterlimit:10;stroke-dasharray:3.9702759,3.9702759;}
	.st12{fill:#FFFFFF;}
</style>
<g>
	<path class="st10" d="M44.4726257,70.4259949c-0.005455-0.1066055-0.0156593-0.2132111-0.0156784-0.3198166
		c-0.0007935-4.6575394-0.0006828-9.3150749-0.0006828-13.9726143c0-0.1138687,0-0.2277412,0-0.3637047
		c3.0525398,0,6.0736809,0,9.0858536,0c0.1733093-0.4459114,0.2476387-0.4958572,0.7214394-0.5005836
		c0.0624466-0.0006256,0.1249123,0.0002594,0.1873665,0.0007553c0.4326172,0.0034256,0.5638657,0.1409836,0.5174332,0.5844307
		c-0.0360031,0.3438416-0.100235,0.6847267-0.1570358,1.0608063c-3.0104752,0-6.0554962,0-9.1305466,0
		c-0.0130844,0.1652565-0.0336456,0.304306-0.0337105,0.4433632c-0.0017509,3.8277473-0.0015831,7.6554985-0.0011139,11.483242
		c0.0000381,0.3128204,0.1219673,0.4369965,0.4285812,0.4417267c0.1248856,0.001915,0.2498245,0.0004654,0.3747406,0.0004654
		c11.2958679,0.0000076,22.5917358,0.0000076,33.8876038,0.0000076c0.0446091,0,0.0892258,0.0002213,0.1338348-0.0000305
		c0.4666443-0.0026703,0.4067841,0.0272141,0.4060974-0.397583c-0.0060654-3.7831268-0.0140686-7.566246-0.0214691-11.3493652
		c-0.0002213-0.1151314-0.0000229-0.2302628-0.0000229-0.3827286c-3.3082504,0-6.5949173,0-9.9049759,0
		c-0.0099335-0.110878-0.0226746-0.186718-0.0226135-0.2625504c0.0006714-0.9100914,0.0086975-1.8202286,0.0006714-2.7302322
		c-0.0015945-0.1808205,0.0585632-0.292942,0.2187805-0.3474846c0.2833786-0.0964546,0.5702591-0.1825981,0.9075241-0.2894897
		c0.032959,0.247448,0.0743561,0.4457512,0.0823822,0.6453896c0.0114365,0.2849007-0.0114365,0.5711632-0.0003815,0.8560982
		c0.006485,0.1671486,0.0313263,0.3389091,0.081955,0.4977379c0.0729218,0.2287445,0.2147293,0.3480835,0.492691,0.3470688
		c2.9533005-0.0108299,5.906662-0.0067177,8.8600082-0.0067177c0.1148834,0,0.2297668-0.0000038,0.3764572-0.0000038
		c0.0058823,0.1280556,0.0153122,0.2396355,0.0155182,0.351223c0.0082779,4.6218376,0.0155869,9.2436714,0.0241241,13.8655052
		c0.0002136,0.1150436,0.0129242,0.2300568,0.0198059,0.3450851C69.4957123,70.4259949,56.984169,70.4259949,44.4726257,70.4259949z
		"/>
	<path class="st10" d="M30.9258862,8.1002913c0.1715546-0.0330734,0.3430958-0.0949945,0.5146694-0.0950851
		C40.2826805,8.0005102,49.1248055,8.00107,57.9669342,8.00107c0.1065826,0,0.2131691,0,0.3428116,0
		c0,4.4234161,0,8.8338242,0,13.2721519c-0.1005478,0.0053883-0.2038002,0.015583-0.3070641,0.0157299
		c-0.9189377,0.001318-1.837883-0.0004864-2.7568207,0.0016289c-0.3387871,0.0007801-0.3940048,0.1070576-0.2245483,0.4046383
		c0.0676613,0.1188259,0.1236992,0.2442684,0.1965218,0.3896313c-0.5502357,0.1890907-1.0360489,0.1506615-1.4023285-0.2423725
		c-0.3178291-0.3410378-0.5623474-0.7520943-0.826149-1.1411018c-0.1419754-0.2093678-0.2563934-0.4374275-0.403019-0.6912918
		c1.5216179,0,3.0061607,0,4.5188751,0c0-3.5807571,0-7.1366596,0-10.7361889c-0.0964584,0-0.1996651,0.0000572-0.3028679-0.0000086
		c-7.2271271-0.0045891-14.4542542-0.0091124-21.6813812-0.0138874c-0.8833046-0.0005836-1.7667694,0.0063753-2.6498146-0.0094023
		c-0.2564583-0.0045824-0.3189735,0.0912399-0.3186417,0.3268499c0.0048523,3.4529724,0.0032578,6.9059553,0.003891,10.3589334
		c0.0000114,0.0700417,0.0083008,0.1400814,0.0143661,0.2360115c0.1035118,0.0061512,0.1986732,0.0164471,0.2938728,0.0167866
		c2.2216148,0.0079231,4.4432335,0.0159283,6.6648598,0.0192738c0.1525192,0.0002289,0.2606506,0.0244637,0.3543282,0.167141
		c2.1774902,3.3164864,4.3603783,6.6294346,6.5416489,9.9434414c0.0383949,0.0583401,0.0692291,0.1216621,0.1070976,0.1888847
		c-0.0343552,0.027792-0.0587807,0.0541725-0.0886574,0.0706787c-0.2569962,0.1419716-0.5149765,0.2821579-0.7884483,0.4314995
		c-0.065712-0.0945206-0.12677-0.1800137-0.1854553-0.2671089c-2.0429993-3.0319767-4.0876617-6.0628357-6.1241531-9.0991745
		c-0.130043-0.1938896-0.2657547-0.2635937-0.4981422-0.2630005c-2.5072594,0.0064144-5.0145493,0.0008106-7.5218296-0.0015068
		C30.9258862,16.9529686,30.9258862,12.5266304,30.9258862,8.1002913z"/>
	<path class="st10" d="M47.1149826,67.9401245c0-3.2541046,0-6.4976273,0-9.7760811
		c0.1231804,0,0.2359314-0.0000763,0.3486824,0.0000114c2.8199844,0.0021439,5.6399765,0.0014687,8.4599304,0.0116539
		c0.235054,0.0008469,0.3423691-0.0569229,0.3456039-0.3023453c0.0058708-0.4454689,0.0269814-0.8908081,0.0459557-1.3360176
		c0.0148048-0.3473053,0.0350494-0.694397,0.0548744-1.0414658c0.0077782-0.1361351,0.0452347-0.229229,0.2181435-0.2353973
		c1.4533463-0.0518532,2.765049-0.5649033,4.017971-1.2580795c0.1821098-0.10075,0.3458824-0.1259041,0.5555267-0.0733032
		c2.7332039,0.6858025,5.4911613,0.8393936,8.310009,0.3451233c0.0052948,0.1082611,0.0144348,0.209301,0.0145264,0.3103523
		c0.0010376,1.1065826,0.0005264,2.2131653,0.0007477,3.3197479c0.0000687,0.3651581,0.0004807,0.3684311,0.3607407,0.3685493
		c3.0609512,0.0009995,6.1218948,0.0007019,9.1828461,0.0008659c0.0892334,0.0000076,0.1784744,0.0019455,0.2677002,0.0011253
		c0.1761322-0.0016174,0.2446136,0.0725861,0.2443008,0.2598152c-0.0051498,3.0698624-0.0036011,6.1397362-0.0042801,9.2096138
		c-0.0000153,0.0601807-0.0087128,0.1203613-0.0145416,0.1958313
		C68.7162247,67.9401245,57.9234619,67.9401245,47.1149826,67.9401245z"/>
	<path class="st10" d="M77.7666092,37.445961c0.9650574-0.5208778,1.0842361-1.5826721,1.6825867-2.2985497
		c0.6147003,0.4626198,0.9624557,1.0745964,1.1466522,1.7818527c0.0985413,0.3783607,0.1608582,0.767128,0.2219009,1.1539764
		c0.0517197,0.327713,0.1619263,0.449173,0.4927673,0.4799423c0.0531998,0.0049477,0.107048,0.0065727,0.1604538,0.0049934
		c0.220314-0.0065117,0.3090286,0.0749054,0.3005066,0.3179092c-0.0624313,1.7807579-0.4816971,3.4728966-1.2469711,5.0780525
		c-1.4903946,3.1260834-3.8103104,5.4990044-6.6823807,7.3811607c-1.6936188,1.1098709-3.5822372,1.6481133-5.5435486,1.987114
		c-1.2787018,0.2210197-2.5682678,0.2859879-3.8651352,0.1722679c-1.0179634-0.0892601-2.0139885-0.2796402-2.9642029-0.6568222
		c-0.3964462-0.1573677-0.756916-0.1420631-1.0891991,0.0967178c-0.9306984,0.6688156-1.9991379,0.9695091-3.1008224,1.1643028
		c-1.5289078,0.2703362-3.0433311,0.2377014-4.4817924-0.4266014c-2.0335083-0.9391098-3.1909523-2.5598221-3.6049385-4.7380295
		c-0.2100449-1.1051483-0.2208672-2.2192497-0.0863495-3.3304214c0.0442047-0.3651314,0.1905861-0.7222862,0.3227234-1.0707741
		c0.0810318-0.2136917,0.066658-0.3737679-0.0600777-0.5659752c-1.5068054-2.2852707-3.0083923-4.5740051-4.5047073-6.8661575
		c-0.5165787-0.7913284-1.0111237-1.5970116-1.524559-2.3904305c-0.0945663-0.1461296-0.0956535-0.2688332-0.0314484-0.421875
		c0.2752609-0.6561012,0.7315712-1.1672707,1.3131294-1.5510445c1.1602592-0.7656631,2.3395042-1.4974403,3.6969757-1.8870792
		c0.4052505-0.1163216,0.785553-0.3195572,1.22229-0.5017471c-0.097683-0.0904312-0.1418304-0.141243-0.1952667-0.1788597
		c-0.1457825-0.1026154-0.3002701-0.1932812-0.442749-0.3000965c-0.4439659-0.3328304-0.442482-0.4124126-0.0218887-0.7426624
		c1.5446739-1.2128716,2.9631195-2.5488968,4.0348434-4.2128372c0.2502251-0.3885021,0.4452133-0.8122196,0.6825142-1.2096443
		c0.0669594-0.1121349,0.1782341-0.2278919,0.2959175-0.2745457c0.5678825-0.2251244,1.1486969-0.200964,1.6873894,0.0676155
		c0.5083008,0.2534313,0.9805756,0.5783424,1.4740028,0.8625984c0.5856171,0.3373623,1.1659012,0.6868305,1.7693558,0.9894657
		c0.452198,0.2267799,0.9001656,0.2177505,1.4029846-0.0048447c2.8171272-1.2471352,5.6313744-1.368412,8.3989449,0.1686707
		c0.8524246,0.4734249,1.5531311,1.0944805,1.9350204,2.0301266c0.1122818,0.275095,0.3004761,0.5260658,0.4865799,0.7623386
		c0.2069168,0.2627048,0.5017395,0.4200344,0.8386307,0.4068508c0.6313477-0.0247059,0.9987411,0.3575249,1.3227081,0.8100071
		c0.2308273,0.3223915,0.288559,0.6830463,0.166008,1.0682392c-0.0647583,0.2035236-0.1280365,0.4084911-0.1741028,0.6167622
		c-0.0690842,0.3123589,0.0544052,0.4798012,0.3752747,0.5044708c0.1581345,0.0121574,0.3257675,0.0162067,0.4774704-0.0221329
		c1.0685806-0.2700615,2.0268478,0.2159023,2.3850174,1.2569294c0.2198639,0.6390381,0.3710556,1.3015747,0.586586,1.9422913
		c0.1037292,0.3083534,0.2934494,0.586834,0.4276123,0.8862915c0.0710144,0.1584892,0.1299057,0.3299179,0.1518021,0.500946
		c0.0258484,0.2018776-0.0133209,0.4119759,0.0114212,0.6141434C77.6380157,37.0763779,77.7093124,37.2458038,77.7666092,37.445961z
		 M58.1106911,28.3019733c-0.0801849,0.1948357-0.182682,0.2964725-0.4106216,0.317625
		c-1.1851883,0.1099949-2.2620811,0.5821056-3.2773552,1.1513062c-1.0173073,0.570343-1.818779,1.414526-2.3883209,2.4395103
		c-0.6882973,1.2387123-1.1109543,2.5420036-0.7725792,3.9892845c0.0540962,0.2313766,0.076149,0.4802284-0.1240425,0.6936111
		c-0.5036011-0.349041-0.8302078-0.8273354-1.0350342-1.3923378c-0.357605-0.9864235-0.331543-1.9927902-0.1332932-3.0048904
		c0.0433426-0.2212791,0.0974541-0.4404488,0.1521301-0.6853409c-0.1271439,0.0249023-0.213974,0.0387859-0.2992783,0.059082
		c-1.4844131,0.3531876-2.901165,0.8605385-4.1153755,1.8225784c-0.1529503,0.1211853-0.3063202,0.248394-0.4319191,0.3962402
		c-0.3035927,0.3573761-0.325161,0.7043076-0.0727654,1.0962982c1.5634766,2.4281807,3.1300163,4.8543854,4.696209,7.2808151
		c0.0353928,0.0548325,0.0786819,0.1045723,0.1352043,0.1789513c0.5176048-0.773983,1.2456284-1.2829933,1.9202995-1.8501778
		c0.313549-0.2635956,0.6114388-0.5473213,0.901577-0.8368073c0.2600441-0.2594643,0.4797325-0.5497627,0.558754-0.9244995
		c0.0177002-0.0839348,0.0614815-0.1687279,0.1135826-0.2377853c0.1197433-0.1587067,0.2510796-0.1813469,0.3933334-0.0142097
		c0.1754227,0.2061081,0.2071342,0.4392509,0.102005,0.6741142c-0.1959724,0.4378128-0.3817406,0.8852119-0.6291962,1.2938385
		c-0.4152298,0.6856689-0.8790474,1.3417511-1.3159943,2.0144653c-0.8676224,1.3357506-1.1768456,2.7326317-0.4777565,4.249691
		c0.5710983,1.2393112,1.415802,2.1974754,2.7655258,2.5676994c1.2667694,0.3474731,2.5404739,0.2847328,3.7879105-0.1517448
		c1.2451935-0.4356918,2.2718163-1.219574,3.2514305-2.0679779c1.2091904-1.0472221,2.1584892-2.3235893,3.1016464-3.6026726
		c0.9796295-1.328537,1.9515991-2.6624069,3.1698456-3.7926979c0.5639648-0.5232544,1.1611481-0.9818611,1.9456635-1.1005516
		c0.4218826-0.0638237,0.8490601-0.1129646,1.2750549-0.1246834c0.7311401-0.0201073,1.4638977,0.0128937,2.1946716-0.0130196
		c0.4154053-0.0147285,0.8373718-0.0647392,1.2406387-0.1632767c1.7865524-0.4365501,2.1714706-2.256588,1.7196732-3.5697708
		c-0.1134033-0.3296165-0.3564529-0.5581131-0.6940155-0.6984177c-1.1990356-0.4983711-2.4042053-0.4678574-3.5516586,0.0807762
		c-1.0577774,0.5057564-2.0632553,1.1225433-3.0828934,1.7059479c-0.8685226,0.4969444-1.745636,0.9677887-2.7390366,1.1663246
		c-0.4424438,0.0884285-0.8885727,0.1741638-1.3914108-0.1567001c0.4037781-0.1853943,0.7402344-0.3568459,1.0894165-0.49646
		c0.6119995-0.244709,1.0697479-0.6654015,1.4277649-1.2039452c0.2158051-0.3246155,0.2861557-0.6869125,0.2296524-1.0735817
		c-0.0187836-0.1284637-0.0633774-0.198082-0.2188568-0.2053452c-0.4974442-0.0232391-0.9947586-0.0593567-1.4904251-0.1078033
		c-0.5144272-0.0502853-1.0548401-0.0797234-1.3421021-0.6108475c-0.1502914-0.2778702-0.2935982-0.5749435-0.3554688-0.8804741
		c-0.0523376-0.2584648-0.0753555-0.6018505,0.0537834-0.8000679c0.2075539-0.3185635,0.5477715-0.5523682,0.8407173-0.8120728
		c0.0526505-0.0466766,0.1484299-0.0660877,0.2230148-0.0633507c0.7755127,0.0284557,1.5508499,0.0621471,2.3260651,0.0980339
		c1.3543015,0.0626907,2.7083511,0.1311188,4.0629501,0.1861c0.1081619,0.0043888,0.2434311-0.0499859,0.325592-0.1227722
		c0.3066406-0.2716293,0.4067535-0.8001728,0.1848755-1.144659c-0.098465-0.1528721-0.2963181-0.2969933-0.4723053-0.333744
		c-0.4343033-0.0906887-0.8817749-0.1193886-1.3244324-0.1687298c-0.9915771-0.110527-1.9840088-0.2138176-2.9742889-0.3348656
		c-0.095108-0.0116253-0.2168961-0.1114063-0.2521896-0.1998386c-0.024147-0.0605202,0.0593262-0.2010498,0.1322708-0.2548351
		c0.1190414-0.0877781,0.2811127-0.1162968,0.402916-0.2014465c0.2367249-0.1654854,0.5024719-0.3180046,0.6762085-0.538826
		c0.3191223-0.4055882,0.2753906-0.8234692-0.0566864-1.21451c-0.32341-0.3808517-0.7222824-0.6574154-1.1817474-0.8526707
		c-0.5924301-0.2517567-1.2191162-0.3648586-1.8514938-0.3521919c-0.8360977,0.0167465-1.6701889,0.1159592-2.5062065,0.1593304
		c-0.8178291,0.0424309-1.5618858,0.3227081-2.2968369,0.650034c-0.2350998,0.1047058-0.4791641,0.191288-0.72369,0.2724018
		c-0.5418587,0.1797409-1.0550804,0.1720219-1.5455704-0.1838264c-0.5118332-0.3713303-1.0314903-0.7384567-1.5800667-1.0505848
		c-0.4831505-0.2749023-1.0074501-0.4795799-1.5212517-0.6971588c-0.1421928-0.0602112-0.2912788-0.0604954-0.4252663,0.1004047
		c-1.2205086,1.46562-2.3342972,3.0222549-3.7265854,4.3608589c0.2594681,0.2945156,0.5852852,0.4191685,0.9436836,0.4759388
		c0.6812897,0.107914,1.3392372,0.0981541,1.8638115-0.4424934c0.3161087-0.3257961,0.6370964-0.6499481,0.9217377-1.0024185
		c0.3684731-0.4562893,0.7028961-0.940073,1.0536308-1.4142494C56.5244217,26.9884853,57.3501778,27.5953693,58.1106911,28.3019733z
		 M64.7422104,49.7735977c0.3604965,0.1136513,0.7053528,0.2310982,1.0551529,0.3312263
		c2.2169418,0.6345901,4.3998871,0.6797638,6.5411148-0.3272705c3.3220291-1.5623779,5.612999-4.0844727,6.9934616-7.458828
		c0.3883133-0.9491959,0.6324844-1.9397545,0.7354355-2.981514c-0.0760651-0.0038719-0.1358109-0.0113182-0.1952286-0.0092545
		c-0.5343399,0.0185852-1.0688095,0.0595818-1.6028976,0.0547485c-1.6671906-0.0150833-3.3344574-0.075882-5.0012589-0.0627441
		c-1.0930405,0.0086174-2.1607819,0.2290764-3.1479645,0.729332c-0.9251938,0.4688454-1.6911926,1.1023064-2.1642685,2.0623932
		c-0.5272827,1.070076-1.0964279,2.1195145-1.6466904,3.1782799c-1.1642303,2.2401352-2.3901215,4.4417076-3.9981194,6.404892
		c-0.0223427,0.0272751-0.0331154,0.0640297-0.0791626,0.1560631
		C63.3142815,51.3773346,64.0366287,50.5786629,64.7422104,49.7735977z M69.9095383,32.0074615
		c-0.0719147-0.0083675-0.1485748-0.0220909-0.2256851-0.0255013c-0.6579285-0.0291157-1.3176193-0.0363693-1.9733124-0.0915318
		c-0.403717-0.0339661-0.7259293,0.1121311-1.03685,0.3250065c-0.2036209,0.1394119-0.2331161,0.3146973-0.1072617,0.53302
		c0.305687,0.5303001,0.8336487,0.7143555,1.3924637,0.4655151c0.2176514-0.0969162,0.4204788-0.2296791,0.6231995-0.3570175
		C69.0234299,32.5797348,69.4603653,32.2955132,69.9095383,32.0074615z M79.6706314,38.3197327
		c-0.0898514-0.5955429,0.1536331-1.2114677-0.1961823-1.8065529c-0.263382,0.3443985-0.4885254,0.675293-0.7516251,0.9726143
		c-0.2662048,0.3008347-0.5699615,0.5684357-0.8586426,0.851944C78.3985214,38.5037651,79.0684357,38.501358,79.6706314,38.3197327z
		 M73.146492,32.4257507c-0.5284958-0.2158165-1.1910553,0.2024422-1.2657318,0.7812767
		C72.692543,33.2979012,72.9852371,33.1199455,73.146492,32.4257507z M69.2605209,33.4006729
		c0.9453735-0.0162125,1.6041794-0.5797729,2.2404022-1.1860962C70.7313766,32.5635071,69.9299469,32.8508873,69.2605209,33.4006729
		z M65.7103729,33.1266441c-0.1553345-0.4764595,0.0418015-0.8852425,0.2571564-1.3396931
		c-0.4518204,0.1424618-0.4423981,0.4903431-0.4969711,0.7784138
		C65.4301834,32.7784653,65.5162277,32.9812622,65.7103729,33.1266441z"/>
	<path class="st10" d="M74.9968262,18.8941269c-0.1567001,0-0.2529907,0.0000763-0.3492813-0.0000114
		c-1.8201675-0.0016613-3.6403351-0.0028439-5.4605103-0.0054207c-0.382988-0.0005417-0.3832092-0.002903-0.3832169-0.3735695
		c-0.0000687-2.5072269-0.0001144-5.0144558,0.0000458-7.5216827c0.0000229-0.4165573,0.0644608-0.4813108,0.4786301-0.4813156
		c7.5752182-0.0000868,15.1504364-0.0000629,22.7256546-0.000062c0.0962906,0,0.1925812,0,0.3055115,0
		c0,2.7596731,0,5.4947634,0,8.2551813c-0.1131973,0.0049648-0.226799,0.0140133-0.340416,0.0143261
		c-1.9182816,0.0053082-3.8365707,0.0126762-5.754837,0.0095005c-0.2100449-0.0003471-0.3341293,0.0641956-0.4540482,0.2403164
		c-2.8106079,4.1278419-5.6279221,8.2511196-8.4442062,12.3751011c-0.0549088,0.0804081-0.1122742,0.1591339-0.1933975,0.2738495
		c-0.3418274-0.7783527-1.0368347-0.8255405-1.7246552-0.8892212c-0.1420059-0.0131474-0.2834167-0.033062-0.4248428-0.0518074
		c-0.712532-0.0944443-0.9749908-0.4463539-0.7870865-1.1478653c0.0866852-0.323597,0.0057449-0.5362606-0.2039185-0.7621269
		c-0.5013275-0.5400639-1.0807953-0.9535961-1.7874603-1.1787186c-0.0585403-0.018652-0.1303101-0.0291023-0.1697998-0.0691395
		c-0.4530334-0.4593506-0.8909988-0.9351749-1.0445328-1.5856018c-0.0340195-0.1441078-0.000206-0.3403282,0.0759888-0.4689465
		c1.1767197-1.9864063,2.3661194-3.9652939,3.5509109-5.9469299C74.733902,19.3750172,74.8457489,19.1636562,74.9968262,18.8941269z
		"/>
	<path class="st10" d="M55.7842674,10.5120659c0.0056,0.1202669,0.0139503,0.2163057,0.0139771,0.3123465
		c0.0007133,2.5428553-0.0044708,5.0857344,0.0076447,7.6285315c0.0013504,0.282999-0.0878029,0.3361187-0.3476906,0.3348999
		c-1.5791397-0.0074005-3.1583595,0.0022678-4.7375526,0.0061951c-0.0793877,0.0001984-0.1587753,0.0000267-0.2772102,0.0000267
		c0.0247459,0.1208439,0.0242386,0.2299538,0.0684166,0.316164c0.3077011,0.6004295,0.604763,1.2077141,0.944313,1.7900181
		c0.3319016,0.5691891,0.7076492,1.1129932,1.0696297,1.6643429c0.1071472,0.1632061,0.1096573,0.3139343,0.0434074,0.4979897
		c-0.5163078,1.4344292-1.4164314,2.608717-2.4786072,3.6717892c-0.8542557,0.8549767-1.8012466,1.5966759-2.8176575,2.2499313
		c-0.0585098,0.0376015-0.1212349,0.0686417-0.1965561,0.1109047c-0.2941856-0.4274845-0.5815697-0.8453064-0.869175-1.2629738
		c-2.0179672-2.930521-4.0377884-5.8597679-6.0496597-8.794466c-0.1262016-0.1840878-0.2571678-0.2493248-0.4780617-0.2488632
		c-1.9894943,0.0041637-3.979023-0.0071831-5.9685249-0.0042381c-0.2057877,0.0003033-0.2536049-0.0646496-0.2523804-0.2602673
		c0.0159073-2.5427933,0.0268288-5.0856342,0.0299759-7.6284733c0.0003242-0.2640181,0.1664848-0.3265457,0.3575401-0.3786917
		c0.0748863-0.0204401,0.1596947-0.0050888,0.2399864-0.0050898c7.10215-0.0000849,14.2042961-0.0000772,21.3064499-0.0000763
		C55.5159111,10.5120659,55.6392937,10.5120659,55.7842674,10.5120659z"/>
	<path class="st10" d="M66.1425629,8.0180941c9.6481171,0,19.2656555,0,28.8930588,0c0,4.41712,0,8.8191843,0,13.2610579
		c-0.1309891,0-0.2347488-0.000248-0.3385239,0.0000362c-2.3736343,0.0064983-4.7472763,0.0160046-7.1209183,0.0148926
		c-0.2292938-0.0001087-0.3668442,0.0665016-0.4990845,0.2622242c-2.8810196,4.2639713-5.7700958,8.522501-8.6579132,12.7818794
		c-0.0584641,0.0862312-0.1204529,0.1700821-0.1819,0.2565918c-0.5704117-0.5043602-0.662262-1.0960579-0.2533417-1.6989479
		c2.8485947-4.1997414,5.7018051-8.3963528,8.5491562-12.5969372c0.0978241-0.1443214,0.2032166-0.1905098,0.3727798-0.1900787
		c2.15065,0.0054798,4.3013153,0.0037651,6.451973,0.0034351c0.4137039-0.0000648,0.414093-0.0009556,0.4141083-0.4028111
		c0.0001068-3.3553848,0.000206-6.7107687-0.0005875-10.0661526c-0.0000305-0.1134529-0.0095215-0.2269039-0.0155411-0.361105
		c-8.7580109,0-17.4916458,0-26.2483978,0c0,3.5930862,0,7.1923733,0,10.8243656c1.7018356,0,3.4006653,0,5.1591492,0
		c-0.0446625,0.1657066-0.0515137,0.3020954-0.1137772,0.4049435c-0.6045609,0.9986534-1.2179184,1.9919968-1.8298645,2.9861717
		c-0.2383347,0.3871822-0.4732513,0.7767868-0.7254181,1.1548195c-0.0425568,0.0638008-0.1705246,0.1129494-0.2495041,0.1017361
		c-0.1920242-0.0272579-0.385994-0.07551-0.5655136-0.1487923c-0.3397293-0.138689-0.3989334-0.3438225-0.2026596-0.6548405
		c0.4568405-0.7238922,0.9205704-1.4434528,1.3746109-2.1690807c0.0596695-0.0953617,0.136322-0.2884083,0.1066895-0.3118591
		c-0.1063766-0.0841923-0.2545624-0.1579151-0.3877258-0.1592674c-1.151062-0.0117092-2.3022919-0.0064087-3.453476-0.0070019
		c-0.3038788-0.0001564-0.4567337-0.1458702-0.4576797-0.450613c-0.0131149-4.2120533-0.0245438-8.4241114-0.0356064-12.6361694
		C66.1264954,8.1558437,66.1361465,8.0950708,66.1425629,8.0180941z"/>
	<path class="st10" d="M64.5842133,29.7160969c-0.0661392,0.0543957-0.1328583,0.108099-0.1983261,0.1632881
		c-0.8521805,0.718401-1.2425499,1.6279011-1.1167946,2.7417126c0.0125885,0.1114655,0.0934334,0.2226181,0.1634178,0.3187637
		c0.1809616,0.2486,0.3735695,0.4887238,0.5615234,0.7322311c-0.0130768,0.0230904-0.0261536,0.0461845-0.0392265,0.0692749
		c-0.1698074,0-0.3518829,0.0404625-0.5073967-0.0066833c-0.888546-0.2693977-1.5117455-0.8525124-1.8409653-1.7130241
		c-0.0754051-0.1970978-0.0334702-0.4862118,0.053894-0.6904392c0.4153442-0.9708939,1.2286453-1.4380779,2.2186775-1.6439953
		c0.2232323-0.0464268,0.456974-0.0423203,0.6858788-0.0614758C64.5713348,29.6558647,64.577774,29.6859798,64.5842133,29.7160969z"
		/>
</g>
</svg>
