<!-- Generator: Adobe Illustrator 18.0.0, SVG Export Plug-In  -->
<svg version="1.1"
	 xmlns="http://www.w3.org/2000/svg" xmlns:xlink="http://www.w3.org/1999/xlink" xmlns:a="http://ns.adobe.com/AdobeSVGViewerExtensions/3.0/"
	 x="0px" y="0px" width="258.8px" height="26px" viewBox="0 0 258.8 26" enable-background="new 0 0 258.8 26" xml:space="preserve"
	>
<defs>
</defs>
<g>
	<g>
		<path fill="#FFFFFF" d="M16.4,0.6C16.4,0.6,16.4,0.6,16.4,0.6c-0.5,1.3-1.7,2.4-2.8,2.8V16l1.8-2c-0.5,2.8-2.5,5.7-4.9,6.6
			c-3,1-6.4,0.5-8.6-2c-1.9-2.1-2.1-5.7-1.3-8.4c0.6-2.3,2.3-4.5,4.3-5.7c-2.1,2.8-3.1,7.1-1.5,10.6c1.3,2.4,3.6,3.2,6.1,2.9
			c1.3-0.2,2.5-0.7,3.6-1.6V3.7C9.3,4.2,5.8,3.1,2,3.4c-0.8,0-1.5,0.3-2,1c0.1-1.3,0.6-2.5,1.7-3.3C3.1,0,5,0.3,6.7,0.4
			C9.9,0.6,13.2,1.6,16.4,0.6L16.4,0.6z"/>
		<path fill="#FFFFFF" d="M78.4,1.9l0.7-0.2c0,1-0.7,1.9-1.5,2.3c-1.1,0.5-1.9-0.3-2.8-0.8c-0.3,0-0.6,0.1-0.8,0.3l-0.3-0.4l2.8-2.9
			C76.9,1.1,77.6,2,78.4,1.9L78.4,1.9z"/>
		<path fill="#FFFFFF" d="M84.2,2.9v14.5c0.7,0.1,1.2,0.6,1.7,1.2l1.1-0.6l0.2,0.4c-1.1,0.8-2.5,1.4-3.5,2.5
			c-0.8-0.9-1.7-1.6-2.8-1.4L80,19.7c0-0.8,0.4-1.6,1.1-2l0.2-0.1V3.3c-0.1-0.6-0.3-1.1-0.7-1.6c1.7,0.2,3.2-0.4,4.5-1.3
			C84.7,1.1,84.3,1.9,84.2,2.9L84.2,2.9z"/>
		<path fill="#FFFFFF" d="M187.6,2.9v14.5c0.6,0.1,1.2,0.6,1.6,1.2l1.1-0.6l0.3,0.4c-1.2,0.8-2.5,1.4-3.6,2.5
			c-0.8-0.9-1.7-1.6-2.8-1.4l-0.9,0.2c0-0.8,0.4-1.6,1.1-2l0.3-0.1l0-14.4c0-0.6-0.3-1.1-0.7-1.6c1.7,0.2,3.2-0.4,4.5-1.3
			C188,1.1,187.6,1.9,187.6,2.9L187.6,2.9z"/>
		<path fill="#FFFFFF" d="M231.9,1.9l0.7-0.2c0,1-0.6,1.9-1.4,2.3c-1.1,0.5-1.9-0.3-2.8-0.8c-0.3,0-0.6,0.1-0.8,0.3l-0.3-0.4
			l2.8-2.9C230.4,1.1,231,2,231.9,1.9L231.9,1.9z"/>
		<path fill="#FFFFFF" d="M20.9,0.4c-1.5,2.7-0.6,6.5-0.8,9.7l5.1-3.7c0.5,0.8,1.2,1.5,2.2,1.4c0.3,0,0.6-0.2,0.9-0.3
			c-0.1,0.8-0.5,1.7-1.2,2.1c-0.1,2.5,0,5.1,0,7.5c0.1,0.8,0.3,1.5,0.8,2.1c-1.1-0.2-2.6-0.4-3.6,0.2c-0.3,0.2-0.4,0.6-0.3,0.9
			c0.5,0.8,1.6,1,1.9,2c0.1,0.9,0,1.9-0.6,2.5c-0.5,0.4-1.1,0.7-1.7,0.7c0.6-0.8,0.9-1.9,0.6-3.1c-0.1-0.9-1-1.6-0.6-2.6
			c0.4-0.9,0.7-2,0.6-3.1l0-6.6c-0.2-0.1-0.5-0.2-0.7-0.5l-0.7-0.8L20,10.7v6.6c0.6,0.3,1.3,0.5,1.8,1.1c-1,0.5-2,1.4-2.8,2.4
			c-1-1-2.1-1.7-3.5-1.7c0.3-0.8,0.9-1.4,1.6-1.7l0-14.3c-0.1-0.5-0.3-1-0.7-1.5C18.1,1.9,19.5,1.2,20.9,0.4L20.9,0.4z"/>
		<path fill="#FFFFFF" d="M61,15.8V7.6c0-1.8-0.1-3.6-0.9-5.1c-0.7-1.2-1.9-1.9-3.1-2.1c-3.9-0.3-7.8,1.4-11.6,0
			c0,0.8,0.1,1.5,0.4,2.1c1.5,2.5,4.7,1.7,7,1.5v12.6c-3.1-0.1-5.8,1.7-7.5,4.5c2.5-1.8,6.4-1.8,8.9,0c2.1-1.9,4.7-2.8,7.4-3.2
			C61.4,17.2,61.1,16.6,61,15.8z M57.7,18.2L57,18.5c-1.1-1.2-2.3-1.8-3.7-1.9V3.9c1.4-0.1,3.3-0.6,4.1,1l0.3,0.9l0,12.2V18.2z"/>
		<path fill="#FFFFFF" d="M121.8,4.2l1.8-1.7c-1.7-0.3-3.3-0.9-4.4-2.5l-4.4,3.2V1.8h-0.5v1.7l-1.5,1c0-0.7-0.2-1.4-0.4-2
			c-0.4-1-1.3-2-2.3-2.2c-1.6-0.3-3.1,0.3-4,1.8c-0.6,0.9-0.6,2.3-0.2,3.2c0-0.7,0.2-1.2,0.7-1.7c0.5-0.5,1.4-0.6,1.9-0.3
			c1.6,1,0.8,3.3,1,5h-0.7c-0.9,0-1.8,0.6-2.1,1.5c-0.3,1.1,0,2.3,0.4,3.2l0.2-0.6c0.4-0.9,1.3-1,2.2-0.9v4c-0.6,0-1.1,0.2-1.6,0.5
			c-1.6,1-2.1,2.8-2.2,4.7c0.9-1.3,2.2-2,3.8-2c0,2.6,0.3,5.4-1.4,7.2c1.4,0.1,2.5-0.5,3.3-1.7c0.9,1.1,1.9,1.7,3.3,1.6v-6.2
			c0.8,0.2,1.5,0.7,2.1,1.1c1.2-2.2,3.3-3.6,5.5-3.6c-0.3-0.6-0.4-1.2-0.6-1.8L121.8,4.2z M114.3,25.2c-0.4-0.1-0.8-0.4-1.1-0.8
			c-0.5-0.9-0.3-2.1-0.3-3.2V5.1l1.4-1V25.2z M118.7,17.6c-1.2-0.9-2.4-1.7-3.8-2.1V3.8l1.4-1c0.4,1,1.4,1.7,2.4,1.7V17.6z"/>
		<path fill="#FFFFFF" d="M10.4,13.6c-0.3,2.3-2.5,2.6-4.1,3.2C6.8,16.2,7,15.6,7.1,15c0-2.6,0-5.2,0-7.7L5.9,7.7V7.1
			c1.6-0.6,3.1-1.4,4.5-2.3V13.6L10.4,13.6z"/>
		<path fill="#FFFFFF" d="M51.9,4.9c-0.4,0.6-0.5,1.4-0.5,2.3l-0.1,6.4c-0.5,2.2-2.6,2.9-4.2,3.4c1.4-0.9,0.8-2.8,1-4.3
			c-0.8,0-2-0.3-2.3,0.8L45.7,14c-0.4-1.1-0.6-2.9,0.2-3.9c0.6-0.6,1.3-0.8,2.1-0.8c0-1.4,0.7-2.7,1.8-3.5
			C50.5,5.4,51.2,5.1,51.9,4.9L51.9,4.9z"/>
		<path fill="#FFFFFF" d="M79.6,8c-0.3,0.8-0.9,1.4-1.6,1.7v6.6c0,0.5,0.2,1,0.6,1.3c0.3,0.3,0.8,0.4,1.2,0.4v0.4
			c-1.1,0.6-2,1.4-3,2.3c-1-0.5-1.7-1.6-1.7-2.7l0-8.2c-0.7-0.2-1.3-0.6-1.8-1.1c1-0.5,2-1.4,2.8-2.4C77.1,7.4,78.2,8.1,79.6,8
			L79.6,8z"/>
		<path fill="#FFFFFF" d="M100.1,8c-0.3,0.8-0.9,1.4-1.6,1.7v7.5c0,1.3,1.1,2,0.9,3.3c0,1.8-1.1,3.4-2.5,4.2
			c-1.7,1.1-4.2,1.3-6.1,0.5c-0.9-0.4-2.1-1.2-3-0.2l-0.1,0.1c0.1-1.3,0.6-2.7,1.8-3.3c0.7-0.2,1.6-0.2,2.2,0.4
			c1.1,0.9,1.8,3,3.4,2.6c0.7-0.1,1.4-0.6,1.6-1.3c0.6-1.5-0.3-2.7-1-3.8c-0.2-0.8-0.2-1.8-0.2-2.7l-5.1,3.8
			c-0.3-0.5-0.8-1.1-1.4-1.3c-0.6-0.1-1.2,0-1.7,0.2c0-0.9,0.6-1.8,1.4-2.2l0-6.8c0-0.6-0.3-1.1-0.8-1.4c-0.3-0.1-0.7-0.2-1.1-0.2
			V8.8c0.8-0.5,1.7-1.3,2.3-2.2c0.8,0.1,1.8,0.7,2.2,1.7l0.3,1.2l0,7.7c0.6,0.1,1.1,0.7,1.4,1.2l2.6-1.9V9.9
			c-0.7-0.2-1.3-0.6-1.8-1.1c1-0.5,1.9-1.3,2.8-2.4C97.6,7.4,98.7,8.1,100.1,8L100.1,8z"/>
		<path fill="#FFFFFF" d="M144.1,7.8c0.3,0,0.6-0.2,0.8-0.3c0,0.8-0.5,1.7-1.2,2.1c-0.1,2.2-0.1,4.5,0,6.8c0,0.6,0.3,1.1,0.8,1.4
			c0.3,0.1,0.7,0.2,1.1,0.2v0.4c-0.8,0.6-1.7,1.4-2.3,2.3c-0.8-0.2-1.8-0.7-2.2-1.7l-0.3-1.2l0-7.7c-0.6-0.1-1-0.8-1.3-1.3l-2.6,1.9
			v6.6c0.6,0.3,1.3,0.5,1.8,1.1c-1,0.5-2,1.4-2.8,2.5c-1-1.1-2.2-1.7-3.5-1.7c0.3-0.7,0.9-1.4,1.6-1.7v-6.6c0-0.5-0.2-0.9-0.5-1.3
			c-0.4-0.3-0.9-0.4-1.3-0.5V8.7c1-0.6,2-1.3,2.9-2.2c1,0.3,1.8,1.6,1.9,2.8v0.8l5.1-3.7C142.4,7.2,143.2,7.8,144.1,7.8L144.1,7.8z"
			/>
		<path fill="#FFFFFF" d="M157.6,7.8c0.3,0,0.6-0.2,0.9-0.3c-0.1,0.8-0.5,1.7-1.2,2.1c-0.1,2.2-0.1,4.5,0,6.8c0,0.6,0.3,1.1,0.8,1.4
			c0.3,0.1,0.7,0.2,1.1,0.2v0.4c-0.9,0.6-1.7,1.4-2.4,2.3c-0.8-0.2-1.8-0.7-2.2-1.7l-0.3-1.2v-7.7c-0.6-0.1-1.1-0.8-1.4-1.3
			l-2.6,1.9v6.6c0.6,0.3,1.3,0.5,1.8,1.1c-1,0.5-2,1.4-2.8,2.5c-1-1.1-2.1-1.7-3.5-1.7c0.3-0.7,0.9-1.4,1.6-1.7v-6.6
			c0-0.5-0.2-0.9-0.5-1.3c-0.4-0.3-0.9-0.4-1.3-0.5V8.7c1-0.6,2-1.3,2.9-2.2c1,0.3,1.8,1.6,1.9,2.8v0.8l5.1-3.7
			C156,7.2,156.7,7.8,157.6,7.8L157.6,7.8z"/>
		<path fill="#FFFFFF" d="M183.5,8c-0.3,0.8-1,1.4-1.6,1.7v7.5c0,1.3,1.1,2,0.9,3.3c0,1.8-1.2,3.4-2.6,4.2c-1.7,1.1-4.2,1.3-6.1,0.5
			c-0.9-0.4-2.2-1.2-3-0.2l-0.1,0.1c0.1-1.3,0.6-2.7,1.8-3.3c0.7-0.2,1.6-0.2,2.2,0.4c1.1,0.9,1.8,3,3.5,2.6
			c0.6-0.1,1.3-0.6,1.6-1.3c0.6-1.5-0.3-2.7-1-3.8c-0.2-0.8-0.2-1.8-0.2-2.7l-5.1,3.8c-0.3-0.5-0.8-1.1-1.4-1.3
			c-0.6-0.1-1.2,0-1.7,0.2c0-0.9,0.6-1.8,1.4-2.2l0-6.8c0-0.6-0.3-1.1-0.8-1.4c-0.3-0.1-0.7-0.2-1.1-0.2V8.8
			c0.8-0.5,1.7-1.3,2.3-2.2c0.9,0.1,1.8,0.7,2.2,1.7l0.3,1.2l0,7.7c0.6,0.1,1.1,0.7,1.4,1.2l2.6-1.9V9.9c-0.7-0.2-1.3-0.6-1.8-1.1
			c1-0.5,2-1.3,2.8-2.4C180.9,7.4,182.1,8.1,183.5,8L183.5,8z"/>
		<path fill="#FFFFFF" d="M193.4,8l0.3,1.2l0.1,6.9c0,1.1,0.9,2.1,1.8,2.4c0.6,0.7,1.4,0,2.1-0.2V9.9c-0.7-0.2-1.3-0.6-1.8-1.1
			c1-0.5,2-1.3,2.8-2.4c1,1,2.1,1.7,3.5,1.7c-0.3,0.8-1,1.4-1.6,1.7v6.8c0,0.7,0.2,1.4,0.7,1.9c-2.8,0-5.4,0.7-7.5,2.4
			c-1-0.2-2-0.7-2.6-1.7c-0.4-1-0.5-2.2-0.4-3.4l-0.1-5.2c-0.1-0.5-0.3-1-0.7-1.2c-0.4-0.2-0.8-0.3-1.1-0.3V8.6
			c0.8-0.5,1.7-1.3,2.3-2.2C192.1,6.5,193,7,193.4,8L193.4,8z"/>
		<path fill="#FFFFFF" d="M225.7,7.8c0.3,0,0.6-0.2,0.8-0.3c0,0.8-0.5,1.7-1.2,2.1c-0.1,2.2,0,4.5,0,6.8c0,0.6,0.3,1.1,0.8,1.4
			c0.3,0.1,0.7,0.2,1.1,0.2v0.4c-0.8,0.6-1.7,1.4-2.3,2.3c-0.9-0.2-1.8-0.7-2.2-1.7l-0.3-1.2l0-7.7c-0.6-0.1-1-0.8-1.3-1.3l-2.6,1.9
			v6.6c0.6,0.3,1.2,0.5,1.8,1.1c-1.1,0.5-2,1.4-2.8,2.5c-1-1.1-2.2-1.7-3.5-1.7c0.3-0.7,0.9-1.4,1.6-1.7v-6.6c0-0.5-0.2-0.9-0.5-1.3
			c-0.4-0.3-0.9-0.4-1.4-0.5V8.7c1-0.6,2-1.3,2.9-2.2c1,0.3,1.8,1.6,1.9,2.8v0.8l5.1-3.7C224,7.2,224.8,7.8,225.7,7.8L225.7,7.8z"/>
		<path fill="#FFFFFF" d="M233.1,8c-0.3,0.8-1,1.4-1.6,1.7v6.6c0,0.5,0.2,1,0.6,1.3c0.4,0.3,0.8,0.4,1.3,0.4v0.4
			c-1.1,0.6-2.1,1.4-3,2.3c-0.9-0.5-1.7-1.6-1.7-2.7l-0.1-8.2c-0.6-0.2-1.2-0.6-1.7-1.1c1-0.5,1.9-1.4,2.8-2.4
			C230.6,7.4,231.7,8.1,233.1,8L233.1,8z"/>
		<path fill="#FFFFFF" d="M257.3,7.8c0.3,0,0.6-0.2,0.8-0.3c0,0.8-0.5,1.7-1.2,2.1c-0.1,2.2-0.1,4.5,0,6.8c0,0.6,0.3,1.1,0.8,1.4
			c0.3,0.1,0.7,0.2,1.1,0.2v0.4c-0.8,0.6-1.7,1.4-2.3,2.3c-0.8-0.2-1.8-0.7-2.2-1.7l-0.3-1.2l0-7.7c-0.6-0.1-1-0.8-1.3-1.3l-2.6,1.9
			v6.6c0.6,0.3,1.3,0.5,1.8,1.1c-1,0.5-2,1.4-2.8,2.5c-1-1.1-2.2-1.7-3.5-1.7c0.3-0.7,0.9-1.4,1.6-1.7v-6.6c0-0.5-0.2-0.9-0.5-1.3
			c-0.4-0.3-0.9-0.4-1.3-0.5V8.7c1-0.6,2-1.3,2.9-2.2c1,0.3,1.8,1.6,1.9,2.8v0.8l5.1-3.7C255.5,7.2,256.3,7.8,257.3,7.8L257.3,7.8z"
			/>
		<path fill="#FFFFFF" d="M36.4,18.7c-1.1-0.8-2.3-1.3-3.7-1.6v-2l6.5-4c-1.5-1.3-2.5-3.1-3.1-4.8c-1.9,1.8-4.5,2.2-7,1.7
			c0.5,0.5,0.7,1.1,0.8,1.8l0,7.4c-0.7,0.3-1.4,1.1-1.7,1.8c2.4-0.2,4.4,0.8,6.4,1.8l3.9-2.9c-0.1-0.2-0.1-0.4-0.3-0.5
			C37.6,17.9,37,18.3,36.4,18.7z M32.8,8.6l1-0.3c0.7,1.4,1.4,2.8,2.2,4.1l-3.2,2V8.6z"/>
		<path fill="#FFFFFF" d="M130.1,18.7c-1.1-0.8-2.4-1.3-3.7-1.6v-2l6.4-4c-1.5-1.3-2.4-3.1-3.1-4.8c-1.9,1.8-4.6,2.2-7.1,1.7
			c0.5,0.5,0.7,1.1,0.8,1.8l0.1,7.4c-0.7,0.3-1.4,1.1-1.7,1.8c2.4-0.2,4.4,0.8,6.4,1.8l3.9-2.9c-0.1-0.2-0.2-0.4-0.3-0.5
			C131.3,17.9,130.7,18.3,130.1,18.7z M126.5,8.6l1-0.3c0.7,1.4,1.4,2.8,2.2,4.1l-3.2,2V8.6z"/>
		<path fill="#FFFFFF" d="M72.5,17.6c-0.4-0.4-0.6-1-0.7-1.7V9.6c0.8-0.4,1.2-1.3,1.4-2.1c-0.4,0.3-0.9,0.5-1.5,0.4
			c-0.6-0.2-1.1-0.9-1.6-1.5c-0.8,0.9-1.7,1.8-2.9,1.8c-1,0.1-1.5-1-1.9-1.8c-0.6,1.1-1.6,1.7-2.5,2.1c0.7,0.6,1.5,1,2.4,1.3
			c1,0.3,1.9-0.2,2.5-1c0.3,0.6,0.8,1.1,1.4,1.4V12c-0.3-0.2-0.7-0.3-1.1-0.4c-2.1-0.2-4.1,0.6-5.2,2.6c-0.8,1.3-0.8,3.5-0.1,4.9
			c0.7,1.1,1.7,1.6,2.8,1.7l3.6-2.8l0.3,1c0.4,0.9,1.2,1.6,2.2,1.6l2.4-2.4C73.4,18.2,72.9,18,72.5,17.6z M69,17.5
			c-0.6,0.4-1.1,1-1.8,0.5c-1-0.3-2.2-1.2-2.4-2.5c-0.2-1,0-2,0.7-2.7c0.8-0.9,2.5-1.1,3.5-0.3V17.5z"/>
		<path fill="#FFFFFF" d="M212.4,17.6c-0.5-0.4-0.6-1-0.7-1.7V9.6c0.7-0.4,1.2-1.3,1.4-2.1c-0.5,0.3-1,0.5-1.5,0.4
			c-0.7-0.2-1.2-0.9-1.6-1.5c-0.8,0.9-1.8,1.8-2.9,1.8c-1,0.1-1.5-1-1.9-1.8c-0.6,1.1-1.6,1.7-2.5,2.1c0.7,0.6,1.5,1,2.4,1.3
			c1,0.3,1.9-0.2,2.5-1c0.3,0.6,0.8,1.1,1.4,1.4V12c-0.3-0.2-0.7-0.3-1.1-0.4c-2.1-0.2-4.1,0.6-5.2,2.6c-0.8,1.3-0.8,3.5-0.1,4.9
			c0.6,1.1,1.7,1.6,2.8,1.7l3.6-2.8l0.3,1c0.4,0.9,1.2,1.6,2.2,1.6l2.4-2.4C213.3,18.2,212.7,18,212.4,17.6z M208.9,17.5
			c-0.6,0.4-1.1,1-1.8,0.5c-1-0.3-2.2-1.2-2.4-2.5c-0.2-1,0-2,0.7-2.7c0.8-0.9,2.5-1.1,3.5-0.3V17.5z"/>
		<path fill="#FFFFFF" d="M243.9,17.6c-0.4-0.4-0.6-1-0.7-1.7V9.6c0.8-0.4,1.2-1.3,1.4-2.1c-0.4,0.3-0.9,0.5-1.5,0.4
			c-0.6-0.2-1.1-0.9-1.6-1.5c-0.8,0.9-1.7,1.8-2.9,1.8c-1,0.1-1.5-1-1.9-1.8c-0.6,1.1-1.6,1.7-2.5,2.1c0.7,0.6,1.5,1,2.4,1.3
			c1,0.3,1.9-0.2,2.5-1c0.3,0.6,0.8,1.1,1.4,1.4V12c-0.3-0.2-0.7-0.3-1.1-0.4c-2.2-0.3-4.3,0.7-5.3,2.9c-0.7,1.3-0.7,3.4,0,4.6
			c0.7,1.1,1.7,1.6,2.8,1.7l3.6-2.8l0.3,1c0.4,0.9,1.2,1.6,2.2,1.6l2.4-2.4C244.9,18.2,244.4,18,243.9,17.6z M240.5,17.5
			c-0.6,0.4-1.1,1-1.8,0.5c-1-0.3-2.2-1.2-2.3-2.5c-0.2-1,0-2,0.6-2.7c0.8-0.9,2.5-1.1,3.5-0.3V17.5z"/>
		<path fill="#FFFFFF" d="M170.2,12.2l-3.8,0c1.4-1.6,2.7-3.2,3.4-5.1c0.2-0.2,0-0.4-0.2-0.5c-0.2,0.4-0.5,0.9-0.9,1
			c-1.1,0.3-2-0.5-2.8-1.3c-1.7,1.6-4,2.4-6.4,1.8c0.3,0.4,0.5,0.9,0.6,1.5c0,1.7,0.4,3.6-0.6,4.9l3.5,0c-1.7,1.6-3.3,3.4-4.4,5.5
			c-0.3,0.3,0.2,0.3,0.3,0.5c0.3-0.4,0.7-1,1.2-1.2c1.4-0.4,2.5,0.7,3.6,1.5c1.7-1.7,4.1-2.4,6.5-1.7c-0.3-0.5-0.6-1.1-0.6-1.7
			C169.7,15.7,169.2,13.6,170.2,12.2z M162.8,13.1V8.6l0.8-0.1c0.7,0.9,1.6,1.6,2.8,1.3c0.9-0.2,1.7-0.8,2.5-1.5
			c-1.1,1.7-2.5,3.4-4,4.8C164.1,13.2,163.5,13.1,162.8,13.1z M166.8,18.6l-0.6,0.2c-0.5-0.9-1.4-1.7-2.3-1.8
			c-1.3-0.1-2.3,0.6-3.3,1c1.4-1.6,3-3.2,4.6-4.4h1.7V18.6z"/>
	</g>
</g>
</svg>