<?xml version="1.0" encoding="utf-8"?>
<!-- Generator: Adobe Illustrator 16.0.0, SVG Export Plug-In . SVG Version: 6.00 Build 0)  -->
<!DOCTYPE svg PUBLIC "-//W3C//DTD SVG 1.1//EN" "http://www.w3.org/Graphics/SVG/1.1/DTD/svg11.dtd">
<svg version="1.1" id="Layer_1" xmlns="http://www.w3.org/2000/svg" xmlns:xlink="http://www.w3.org/1999/xlink" x="0px" y="0px"
	 width="123.957px" height="93.559px" viewBox="0 0 123.957 93.559" enable-background="new 0 0 123.957 93.559"
	 xml:space="preserve">
<g>
	<path fill="none" d="M0,96.006C0,64.01,0,32.016,0,0c41.303,0,82.611,0,123.957,0c0,31.989,0,63.998,0,96.006
		C82.656,96.006,41.333,96.006,0,96.006z M76.157,67.213c0.352,3.098,0.219,10.439-0.214,13.392
		c-0.536,3.673-1.645,7.107-4.092,9.999c-0.057,0.066-0.053,0.186-0.097,0.353c4.738,0.339,8.003-2.077,10.771-5.641
		c2.84,3.302,6.146,5.482,10.781,5.273c0-6.903,0-13.7,0-20.674c2.707,0.76,4.883,2.165,7.103,3.523
		c4.161-6.95,9.755-11.595,18.198-12.103c-0.176-0.445-0.307-0.759-0.422-1.077c-0.66-1.801-1.277-3.642-1.289-5.562
		c-0.072-11.828-0.078-23.657-0.121-35.485c-0.002-0.532,0.162-0.915,0.543-1.279c1.48-1.422,2.938-2.866,4.4-4.308
		c0.242-0.237,0.465-0.497,0.816-0.876c-5.913-1.068-10.992-3.393-14.62-8.29c-4.862,3.519-9.603,6.947-14.343,10.376
		c-0.09-0.045-0.178-0.09-0.268-0.136c0-1.397,0-2.795,0-4.185c-0.563,0-0.957,0-1.421,0c0,1.683-0.021,3.279,0.013,4.875
		c0.013,0.587-0.183,0.964-0.672,1.288c-1.216,0.81-2.396,1.671-3.6,2.499c-0.206,0.143-0.451,0.226-0.748,0.37
		c-0.113-0.887-0.197-1.644-0.311-2.396c-0.447-2.967-1.312-5.763-3.354-8.069c-1.565-1.77-3.407-2.954-5.831-3.336
		c-7.517-1.188-15.132,5.147-14.085,13.588c0.097,0.771,0.329,1.521,0.498,2.281c0.349-0.741,0.46-1.466,0.71-2.141
		c0.252-0.679,0.602-1.33,0.979-1.949c1.977-3.242,7.416-3.457,9.481,0.333c0.442,0.812,0.838,1.711,0.981,2.614
		c0.234,1.468,0.312,2.971,0.332,4.46c0.027,2.189-0.053,4.382-0.09,6.572c-0.004,0.204-0.037,0.407-0.061,0.654
		c-0.256,0.042-0.488,0.105-0.725,0.115c-0.729,0.031-1.463,0.004-2.188,0.065c-3.327,0.283-6.026,2.666-6.67,5.94
		c-0.612,3.118-0.026,6.082,1.312,8.924c0.039,0.08,0.137,0.133,0.326,0.312c0.409-1.814,1.25-3.25,2.905-4.034
		c1.616-0.766,3.308-0.877,5.056-0.604c0,4.537,0,8.938,0,13.383c-0.302,0.043-0.537,0.072-0.771,0.108
		c-0.24,0.037-0.481,0.067-0.72,0.123c-3.774,0.9-6.539,3.135-8.422,6.479c-1.744,3.104-2.361,6.509-2.526,10.019
		c-0.004,0.068,0.078,0.142,0.129,0.227C67.826,68.788,72.211,66.641,76.157,67.213z M29.56,58.451
		c-3.38,0.048-6.632,0.488-9.743,1.695c-3.149,1.222-5.957,2.991-8.476,5.23c-2.705,2.405-5.87,6.354-6.055,7.479
		c9.736-5.298,19.439-5.224,29.164,0.373c6.898-6.241,15.27-9.225,24.442-10.571c-0.208-0.521-0.351-0.902-0.511-1.275
		c-0.997-2.326-1.531-4.72-1.51-7.285c0.066-7.931,0.061-15.862,0.006-23.792c-0.021-3.092-0.154-6.188-0.396-9.271
		c-0.238-3.028-0.88-6.012-2.273-8.73c-2.344-4.576-6.15-7.174-11.267-7.729c-4.144-0.449-8.263,0.104-12.38,0.509
		c-4.393,0.434-8.779,0.926-13.179,1.254C14.533,6.55,11.682,6.3,8.88,5.689c-1.277-0.28-2.541-0.627-3.971-0.983
		c0.036,0.81,0.021,1.529,0.108,2.236c0.332,2.666,1.003,5.183,3.077,7.111c1.272,1.183,2.71,2.059,4.359,2.578
		c2.42,0.765,4.914,0.973,7.425,0.77c2.839-0.229,5.668-0.582,8.502-0.875c0.367-0.038,0.738-0.039,1.18-0.062
		C29.56,30.5,29.56,44.426,29.56,58.451z M13.626,45.271c0.07,0.146,0.126,0.207,0.126,0.268c0,2.571,0.07,5.146-0.03,7.714
		c-0.088,2.228-0.636,4.338-2.377,5.938c-0.03,0.026-0.004,0.115-0.004,0.24c3.175-0.873,6.221-1.975,8.846-4.02
		c1.334-1.04,2.441-2.275,3.229-3.775c0.582-1.109,1.121-2.26,1.139-3.538c0.098-7.16,0.184-14.32,0.243-21.48
		c0.019-2.213,0.259-4.366,1.233-6.388c0.049-0.102,0.027-0.235,0.046-0.43c-2.086,0.574-3.909,1.483-5.663,2.554
		c-3.604,2.196-5.682,5.426-6.453,9.532c-0.153,0.813-0.238,1.64-0.357,2.481c-0.874,0.099-1.699,0.175-2.521,0.288
		c-3.12,0.431-5.106,2.208-5.851,5.275C4.5,42.951,4.809,45.931,5.663,48.88c0.011,0.037,0.095,0.053,0.215,0.11
		c0.049-0.328,0.089-0.629,0.139-0.929c0.252-1.506,1.224-2.516,2.698-2.812C10.375,44.916,12.019,45.226,13.626,45.271z"/>
	<path fill="#AA1E22" d="M76.157,67.213c-3.945-0.571-8.331,1.574-12.318,6.008c-0.051-0.086-0.133-0.158-0.129-0.228
		c0.165-3.51,0.782-6.915,2.526-10.019c1.883-3.346,4.646-5.579,8.423-6.479c0.235-0.056,0.479-0.086,0.719-0.123
		c0.233-0.036,0.47-0.065,0.771-0.107c0-4.444,0-8.847,0-13.384c-1.748-0.272-3.438-0.16-5.056,0.604
		c-1.655,0.784-2.495,2.219-2.905,4.034c-0.189-0.18-0.287-0.231-0.326-0.312c-1.34-2.842-1.924-5.806-1.312-8.924
		c0.644-3.274,3.343-5.657,6.671-5.94c0.727-0.062,1.459-0.035,2.188-0.065c0.233-0.01,0.468-0.073,0.724-0.115
		c0.023-0.247,0.057-0.45,0.061-0.654c0.037-2.19,0.117-4.382,0.09-6.572c-0.02-1.49-0.098-2.993-0.332-4.46
		c-0.145-0.902-0.539-1.802-0.98-2.614c-2.066-3.79-7.507-3.575-9.482-0.333c-0.377,0.62-0.727,1.271-0.979,1.949
		c-0.25,0.674-0.361,1.399-0.71,2.141c-0.169-0.76-0.401-1.512-0.498-2.281c-1.047-8.44,6.568-14.775,14.085-13.588
		c2.424,0.383,4.266,1.566,5.831,3.336c2.041,2.307,2.906,5.103,3.354,8.069c0.113,0.752,0.195,1.509,0.311,2.396
		c0.297-0.145,0.542-0.228,0.748-0.369c1.203-0.829,2.385-1.69,3.6-2.499c0.49-0.325,0.685-0.702,0.672-1.289
		c-0.033-1.596-0.012-3.192-0.012-4.875c0.463,0,0.855,0,1.42,0c0,1.39,0,2.787,0,4.185c0.09,0.045,0.178,0.091,0.268,0.136
		c4.74-3.429,9.48-6.858,14.343-10.376c3.628,4.897,8.707,7.221,14.62,8.29c-0.354,0.38-0.574,0.639-0.816,0.876
		c-1.461,1.44-2.92,2.887-4.399,4.308c-0.382,0.365-0.546,0.748-0.543,1.279c0.042,11.828,0.048,23.657,0.12,35.485
		c0.012,1.92,0.63,3.761,1.289,5.562c0.115,0.317,0.246,0.631,0.422,1.076c-8.443,0.509-14.036,5.151-18.198,12.103
		c-2.22-1.358-4.396-2.765-7.103-3.523c0,6.974,0,13.771,0,20.674c-4.637,0.209-7.941-1.973-10.78-5.273
		c-2.769,3.562-6.033,5.979-10.771,5.641c0.044-0.167,0.04-0.285,0.097-0.353c2.447-2.892,3.556-6.326,4.093-9.999
		C76.375,77.653,76.508,70.31,76.157,67.213z M93.639,55.842c4.779,1.321,8.606,4.156,12.56,7.046c0-14.764,0-29.308,0-43.888
		c-3.871-0.131-6.384-2.173-8.031-5.561c-1.272,0.975-2.399,1.9-3.595,2.729c-0.705,0.489-0.954,1.043-0.952,1.9
		c0.026,12.172,0.019,24.344,0.019,36.516C93.639,54.964,93.639,55.344,93.639,55.842z M91.814,18
		c-1.31,0.974-2.381,1.859-3.543,2.603c-0.899,0.574-1.164,1.273-1.162,2.316c0.029,16.979,0.02,33.957,0.023,50.936
		c0,2.364,0.012,4.73,0.061,7.097c0.037,1.76,0.396,3.455,1.287,5c0.729,1.263,1.812,2.04,3.334,2.434
		C91.814,64.912,91.814,41.586,91.814,18z"/>
	<path fill="#AA1E22" d="M29.56,58.451c0-14.024,0-27.95,0-41.985c-0.441,0.022-0.812,0.023-1.18,0.062
		c-2.834,0.293-5.663,0.646-8.502,0.875c-2.511,0.203-5.005-0.005-7.425-0.77c-1.649-0.521-3.087-1.396-4.359-2.578
		c-2.074-1.93-2.745-4.446-3.077-7.112C4.929,6.235,4.945,5.515,4.909,4.706C6.34,5.062,7.603,5.409,8.882,5.688
		c2.802,0.61,5.653,0.861,8.502,0.648c4.399-0.328,8.786-0.82,13.179-1.254c4.117-0.404,8.236-0.958,12.38-0.509
		c5.116,0.555,8.923,3.151,11.267,7.728c1.394,2.721,2.035,5.703,2.273,8.731c0.242,3.082,0.376,6.179,0.396,9.271
		c0.055,7.931,0.061,15.862-0.006,23.792c-0.021,2.565,0.513,4.959,1.51,7.285c0.16,0.373,0.303,0.754,0.511,1.275
		c-9.173,1.348-17.544,4.33-24.442,10.571c-9.725-5.597-19.428-5.671-29.164-0.373c0.185-1.124,3.35-5.073,6.055-7.479
		c2.519-2.239,5.326-4.01,8.476-5.23C22.928,58.939,26.18,58.499,29.56,58.451z M31.282,58.447c0.3,0.07,0.562,0.153,0.829,0.192
		c3.057,0.448,5.818,1.608,8.268,3.479c0.908,0.693,1.76,1.474,2.562,2.287c0.443,0.447,0.83,0.561,1.361,0.264
		c0.121-0.066,0.257-0.105,0.385-0.159c1.437-0.602,1.284-0.278,1.281-1.831c-0.026-12.726-0.068-25.449-0.081-38.175
		c-0.001-1.335-0.204-2.605-0.542-3.896c-0.695-2.654-2.441-4.156-5.008-4.735c-3.011-0.679-6-0.035-9.056,0.256
		C31.282,30.273,31.282,44.335,31.282,58.447z"/>
	<path fill="#AA1E22" d="M13.626,45.271c-1.607-0.045-3.252-0.355-4.912-0.021c-1.475,0.297-2.446,1.307-2.698,2.812
		c-0.05,0.3-0.09,0.601-0.139,0.929c-0.12-0.059-0.204-0.073-0.215-0.11c-0.853-2.949-1.162-5.931-0.43-8.95
		c0.744-3.066,2.73-4.845,5.851-5.275c0.821-0.113,1.646-0.189,2.521-0.288c0.119-0.843,0.204-1.668,0.357-2.481
		c0.771-4.106,2.849-7.336,6.453-9.532c1.754-1.07,3.577-1.979,5.663-2.554c-0.019,0.193,0.003,0.328-0.046,0.43
		c-0.975,2.021-1.215,4.174-1.233,6.388c-0.06,7.16-0.146,14.32-0.243,21.48c-0.018,1.278-0.557,2.429-1.139,3.538
		c-0.787,1.5-1.895,2.735-3.229,3.775c-2.625,2.045-5.671,3.146-8.846,4.02c0-0.125-0.026-0.214,0.004-0.24
		c1.741-1.6,2.289-3.71,2.377-5.938c0.101-2.566,0.03-5.143,0.03-7.714C13.752,45.478,13.697,45.417,13.626,45.271z"/>
	<path fill="none" d="M93.639,55.842c0-0.498,0-0.878,0-1.258c0-12.172,0.008-24.344-0.02-36.516
		c-0.002-0.857,0.247-1.412,0.951-1.9c1.195-0.828,2.322-1.753,3.596-2.729c1.646,3.388,4.16,5.43,8.031,5.561
		c0,14.58,0,29.124,0,43.888C102.246,59.999,98.418,57.164,93.639,55.842z"/>
	<path fill="none" d="M91.814,18c0,23.586,0,46.911,0,70.385c-1.521-0.394-2.605-1.171-3.334-2.434c-0.891-1.545-1.25-3.24-1.287-5
		c-0.049-2.365-0.061-4.73-0.061-7.097c-0.005-16.979,0.006-33.957-0.023-50.936c-0.002-1.043,0.263-1.743,1.162-2.316
		C89.434,19.859,90.505,18.973,91.814,18z"/>
	<path fill="none" d="M31.282,58.447c0-14.111,0-28.173,0-42.32c3.056-0.291,6.045-0.935,9.056-0.256
		c2.566,0.579,4.312,2.081,5.008,4.735c0.338,1.291,0.541,2.562,0.542,3.896c0.013,12.726,0.055,25.45,0.081,38.174
		c0.003,1.554,0.155,1.23-1.281,1.832c-0.128,0.054-0.264,0.093-0.385,0.159c-0.531,0.297-0.918,0.185-1.361-0.264
		c-0.803-0.813-1.654-1.594-2.562-2.287c-2.449-1.869-5.211-3.029-8.268-3.479C31.843,58.6,31.582,58.517,31.282,58.447z"/>
</g>
</svg>
