<?xml version="1.0" encoding="utf-8"?>
<!-- Generator: Adobe Illustrator 16.0.0, SVG Export Plug-In . SVG Version: 6.00 Build 0)  -->
<!DOCTYPE svg PUBLIC "-//W3C//DTD SVG 1.1//EN" "http://www.w3.org/Graphics/SVG/1.1/DTD/svg11.dtd">
<svg version="1.1" id="Layer_1" xmlns="http://www.w3.org/2000/svg" xmlns:xlink="http://www.w3.org/1999/xlink" x="0px" y="0px"
	 width="944.947px" height="221.878px" viewBox="0 0 944.947 221.878" enable-background="new 0 0 944.947 221.878"
	 xml:space="preserve">
<path fill="#FFFFFF" d="M445.151,101.506c0,0,0.518-12.08-7.774-19.862c-8.289-7.783-17.18-13.883-17.18-13.883
	S388.315,50.86,383.139,47.82c-5.178-3.04-59.436-22.285-74.681-26.588c-15.244-4.305-53.657-13.207-53.657-13.207l60.956,105.16
	l70.495,9.829l36.386-6.963L445.151,101.506z"/>
<path fill="#FFFFFF" d="M18.179,92.818c0,0-6.375-18.538,32.769-36.372c39.145-17.833,92.118-28.188,92.118-28.188
	s55.916-9.558,73.084-9.956l49.726-8.209l64.451,104.182l-135.269,21.512l-113.304-4.781l-55.916-24.291L18.179,92.818z"/>
<path fill="#ADB6BA" d="M450.755,117.763c-0.439,17.799-101.683,29.654-226.129,26.48c-124.446-3.176-224.972-20.18-224.53-37.979
	c0.44-17.801,101.682-29.657,226.128-26.481C350.671,82.958,451.197,99.962,450.755,117.763"/>
<path fill="#677172" d="M12.882,82.092c0,0,4.539,19.185,7.565,21.487c2.432,1.852,9.846,33.055,154.299,29.93
	c35.161-0.76,146.738-16.883,146.738-16.883l-6.183-17.017c0,0-108.788,19.671-170.056,18.904
	C61.379,117.462,26.496,107.416,12.882,82.092"/>
<path fill="#677172" d="M321.484,116.626l8.066-16.226c48.368,7.198,42.613,7.783,66.061,10.086
	c21.845,2.146,50.803,4.577,58.996-4.605c0,0-9.075,16.116-17.395,18.418C428.89,126.603,433.43,128.904,321.484,116.626"/>
<path fill="#8C97A5" d="M314.678,99.743l6.806,16.882l8.066-16.224l-7.345-18.767l-7.496,4.095c0,0-18.453-45.05-41.52-71.379V8.499
	l-6.163-8.34l-4.344,8.678"/>
<path fill="#24242F" d="M207.675,51.55c-0.672-4.183-13.25-5.582-28.093-3.126c-14.841,2.457-26.33,7.839-25.657,12.021
	c0.673,4.184,13.25,5.583,28.093,3.127C196.86,61.115,208.347,55.734,207.675,51.55"/>
<path fill="#24242F" d="M279.53,53.854c-0.672-4.183-13.251-5.583-28.094-3.126c-14.841,2.456-26.329,7.838-25.656,12.021
	c0.673,4.184,13.25,5.583,28.092,3.126C268.715,63.418,280.201,58.038,279.53,53.854"/>
<path fill="#24242F" d="M256.334,30.151c-0.672-4.183-13.25-5.582-28.092-3.126c-14.843,2.457-26.329,7.84-25.657,12.022
	c0.673,4.183,13.25,5.583,28.092,3.126C245.521,39.717,257.005,34.335,256.334,30.151"/>
<path fill="#24242F" d="M298.445,49.556c0,0,22.49,1.394,23.327-2.267c0.941-4.129-10.172-10.264-24.825-13.705
	c-2.476-0.58-7.212-1.404-7.212-1.404l-5.59,10.838l-6.921-9.945c0,0-8.106-0.009-8.51,1.758
	c-0.772,3.385,16.008,12.284,16.008,12.284l6.991,11.852L298.445,49.556z"/>
<path fill="#FFFFFF" d="M302.65,84.595c0,9.213-59.447,16.682-132.781,16.682c-73.333,0-132.782-7.469-132.782-16.682
	s59.449-16.683,132.782-16.683C243.203,67.912,302.65,75.382,302.65,84.595"/>
<path fill="#C5CED2" d="M265.073,14.134c0,0-217.476,23.583-198.9,65.159c18.577,41.577,234.388,2.558,234.388,2.558l9.223,16.949
	c0,0-264.282,57.637-284.763-19.029c0,0,12.188-47.812,214.893-73.312l22.768,2.379l2.867,5.202"/>
<path fill="#E0E4E7" d="M263.436,9.999c0,0-224.941,24.829-205.335,68.708c19.605,43.882,247.171,1.97,247.171,1.97l9.407,19.066
	c0,0-280.694,60.023-302.31-20.89c0,0,12.862-50.461,226.799-77.373L257.898,0"/>
<path fill="#C5CED2" d="M333.694,100.359c0,0,126.146,28.646,115.441-3.467C438.43,64.778,286.388,10.713,279.245,8.581
	l-6.165-2.497l0.109,8.266l73.012,29.084c0,0,65.922,27.695,78.161,46.56c12.241,18.865-97.449-6.958-97.449-6.958L333.694,100.359z
	"/>
<path fill="#E0E4E7" d="M329.55,100.401c0,0,136.669,31.036,125.071-3.756C443.022,61.854,278.3,3.277,270.56,0.968l-3.534-0.809
	L273.19,8.5c0,0,144.469,59.52,157.73,79.959c13.261,20.438-108.715-6.825-108.715-6.825L329.55,100.401z"/>
<path fill="#060809" stroke="#FFFFFF" d="M8.52,193.937c0,5.112-0.562,11.553,2.471,16.098c3.257,5.019,10.108,7.007,16.622,7.007
	c6.852,0,12.804-1.609,18.308-5.113v3.884h28.64v-13.354c-3.594-1.894-3.257-4.734-3.257-7.859v-38.445H41.541v13.352
	c3.594,1.799,3.369,4.829,3.257,7.859v22.159c-1.348,0.567-2.584,1.041-4.268,1.041c-6.065,0-5.504-5.966-5.504-9.47v-23.579
	c0-3.787-0.337-7.67-1.46-11.362H5.375v13.352c3.37,2.178,3.145,4.64,3.145,7.859V193.937z"/>
<path stroke="#FFFFFF" d="M110.5,156.152H81.86v13.353c3.369,2.083,3.257,4.167,3.257,7.386v18.087c0,3.03,0.224,5.776-3.257,7.481
	v13.352h33.02v-13.352c-3.594-1.61-3.257-4.925-3.257-7.86v-22.348c4.38-1.704,7.301,0,9.098,2.272
	c1.123,2.179,0.786,4.925,0.786,5.304v17.424c0,6.154-0.112,12.499,1.46,18.56h28.191v-13.352c-3.482-1.61-3.145-4.925-3.145-7.86
	v-22.348c0-5.114-0.561-9.47-5.391-13.353c-2.696-2.272-7.525-3.788-13.028-3.977c-5.616-0.189-11.906,0.852-19.094,4.924V156.152z"
	/>
<path stroke="#FFFFFF" d="M195.073,215.811h28.977v-13.353c-3.482-2.082-3.145-4.734-3.145-6.533v-61.269h-29.426v13.353
	c3.594,1.988,2.92,4.925,2.92,8.05v3.219c-4.717-3.03-10.558-4.355-15.612-4.355c-13.365,0-21.002,5.492-21.002,18.56v22.443
	c0,12.973,3.93,21.116,19.767,21.116c6.289,0,12.467-1.42,17.521-4.64V215.811z M194.399,199.333
	c-1.348,0.663-3.257,1.043-4.717,1.043c-5.391,0-5.391-5.21-5.391-8.429v-13.163c0-3.408,0-7.386,5.278-7.386
	c1.685,0,3.482,0.474,4.83,1.231V199.333z"/>
<path stroke="#FFFFFF" d="M266.729,177.175h-10.333v-2.272c0-2.367,0.45-6.061,5.167-6.061c4.717,0,5.166,3.693,5.166,6.061V177.175
	z M229.891,194.031c0,7.196,0.337,13.824,7.75,18.465c5.84,3.693,16.734,5.209,27.517,4.546c10.894-0.663,21.789-3.409,27.629-7.671
	V194.41h-26.506v2.178c0,3.03-0.337,6.534-4.942,6.534c-4.605,0-5.054-3.883-4.942-6.819v-5.492h36.39v-14.108
	c0.449-14.583-5.953-21.875-32.01-21.78c-24.821,0.095-31.335,6.629-30.886,22.916V194.031z"/>
<path fill="#060809" stroke="#FFFFFF" d="M327.379,156.152h-28.528v13.541c3.594,1.989,3.257,4.735,3.257,7.86v16.856
	c0,3.124,0.337,5.871-3.257,7.858v13.542h33.582v-13.352c-2.246-0.947-2.92-1.421-3.369-3.41c-0.45-1.893-0.45-4.544-0.45-6.438
	v-5.776c0-7.007,2.022-11.363,11.232-11.363h2.134v-20.36c-1.011-0.188-2.134-0.283-3.145-0.283c-5.728,0-8.648,1.988-11.456,6.061
	V156.152z"/>
<path fill="none" stroke="#060809" d="M366.777,158.683l-16.016,4.548v8.347h-1.967v9.773h1.967v19.95
	c0,3.733-0.203,7.736,2.715,10.655c2.715,2.646,7.058,3.257,10.587,2.986l8.007-0.611v-9.705c-5.361-0.61-5.293-2.307-5.293-6.922
	v-16.354h5.293v-9.773h-5.293V158.683z"/>
<path fill="none" stroke="#060809" d="M393.514,156.173h-18.051v9.568c2.239,1.153,2.103,3.461,2.035,5.632v28.028
	c0,2.171,0.136,4.14-1.967,5.361v9.568h19.951v-9.568c-2.172-1.153-1.968-3.529-1.968-5.632v-16.018
	c2.647-1.221,4.411,0,5.497,1.629c0.679,1.562,0.475,3.529,0.475,3.801v12.486c0,4.412-0.068,8.958,0.882,13.302h17.034v-9.568
	c-2.104-1.153-1.9-3.529-1.9-5.632v-16.018c0-3.664-0.34-6.786-3.258-9.568c-1.628-1.629-4.546-2.715-7.872-2.851
	c-3.393-0.135-7.193,0.611-10.858,2.783V156.173z"/>
<path fill="none" stroke="#060809" d="M444.004,186.643h-6.243v-1.628c0-1.697,0.271-4.344,3.121-4.344
	c2.85,0,3.122,2.646,3.122,4.344V186.643z M421.745,198.723c0,5.157,0.203,9.908,4.682,13.233
	c3.529,2.646,10.112,3.732,16.627,3.258c6.583-0.476,13.165-2.444,16.694-5.497v-10.723h-16.016v1.561
	c0,2.172-0.203,4.683-2.986,4.683c-2.782,0-3.053-2.782-2.985-4.887v-3.936h21.987v-10.111c0.271-10.451-3.597-15.677-19.341-15.609
	c-14.997,0.068-18.933,4.751-18.662,16.425V198.723z"/>
<path fill="#060809" stroke="#FFFFFF" d="M506.645,153.624c5.179-1.869,8.343-1.869,10.357-0.287c1.87,1.438,2.445,4.46,2.445,8.631
	v26.325c0,4.171-0.575,7.191-2.445,8.631c-2.015,1.438-5.179,1.438-10.357-0.288V153.624z M506.645,96.229h-38.264v20.283
	c4.603,3.021,4.315,7.192,4.315,11.94v80.555c12.083,9.781,28.77,12.371,43.874,12.371c27.906,0,36.825-11.221,36.825-32.366
	v-33.518c0-17.692-8.631-28.481-28.339-28.481c-6.616,0-12.802,1.439-18.412,5.609V96.229z"/>
<path fill="#060809" stroke="#FFFFFF" d="M563.896,186.278c0,7.768-0.72,17.55,3.164,24.455c4.172,7.624,12.947,10.645,21.29,10.645
	c8.774,0,16.399-2.445,23.447-7.768v5.896h36.682v-20.281c-4.603-2.877-4.171-7.193-4.171-11.94v-58.403h-38.12v20.283
	c4.603,2.733,4.315,7.337,4.171,11.94v33.66c-1.726,0.863-3.309,1.583-5.466,1.583c-7.769,0-7.049-9.063-7.049-14.386v-35.818
	c0-5.754-0.432-11.652-1.87-17.263h-36.106v20.283c4.315,3.31,4.028,7.049,4.028,11.94V186.278z"/>
<path fill="#060809" stroke="#FFFFFF" d="M693.504,101.551l-33.949,9.638v17.694h-4.171v20.714h4.171v42.291
	c0,7.911-0.432,16.398,5.754,22.585c5.754,5.609,14.961,6.904,22.44,6.329l16.975-1.295v-20.57
	c-11.364-1.295-11.22-4.892-11.22-14.673v-34.667h11.22v-20.714h-11.22V101.551z"/>
<path fill="#060809" stroke="#FFFFFF" d="M748.165,101.551l-33.949,9.638v17.694h-4.171v20.714h4.171v42.291
	c0,7.911-0.432,16.398,5.754,22.585c5.754,5.609,14.961,6.904,22.44,6.329l16.975-1.295v-20.57
	c-11.365-1.295-11.22-4.892-11.22-14.673v-34.667h11.22v-20.714h-11.22V101.551z"/>
<path fill="#060809" stroke="#FFFFFF" d="M800.668,161.681c0-5.035-0.863-13.522,6.474-13.522c7.336,0,6.329,8.632,6.329,13.522
	v26.18c0,4.892,0.432,12.371-6.474,12.371c-6.761,0-6.329-7.479-6.329-12.371V161.681z M847.419,161.393
	c0-11.508-0.719-22.44-11.651-29.058c-7.912-4.604-21.722-5.322-30.928-5.322c-10.214,0-21.29,0.863-29.489,7.336
	c-8.487,6.617-8.631,17.262-8.631,27.044v23.591c0,11.94,0,23.017,11.076,30.353c7.912,5.322,21.146,6.042,30.496,6.042
	c10.356,0,22.44-0.863,30.64-7.911c8.2-7.049,8.487-18.413,8.487-28.483V161.393z"/>
<path fill="#060809" stroke="#FFFFFF" d="M892.874,128.883h-36.682v20.283c4.315,3.164,4.171,6.329,4.171,11.22v27.475
	c0,4.604,0.288,8.775-4.171,11.364v20.283h42.291v-20.283c-4.603-2.444-4.171-7.479-4.171-11.938v-33.949
	c5.609-2.589,9.35,0,11.651,3.453c1.438,3.308,1.007,7.479,1.007,8.055v26.469c0,9.351-0.144,18.987,1.87,28.194h36.106v-20.283
	c-4.459-2.444-4.027-7.479-4.027-11.938v-33.949c0-7.768-0.72-14.385-6.905-20.283c-3.452-3.452-9.638-5.754-16.687-6.041
	c-7.192-0.288-15.248,1.294-24.454,7.48V128.883z"/>
</svg>
