<svg enable-background="new 0 0 133.9646606 78.7948227" viewBox="0 0 133.9646606 78.7948227" xmlns="http://www.w3.org/2000/svg"><path d="m62.7664566 73.1425934c-.157177-.1017609-.3160934-.2009506-.4712181-.305748-.5734787-.3874283-.8621101-.9381485-.7833595-1.617157.0568199-.4899063-.1364441-.5524673-.5562973-.5515137-5.0870705.0115509-10.1741714.007515-15.2612686.0069962-.6090508-.000061-.6104584-.0015335-.6105232-.5964661-.0007133-6.4838371-.000927-12.9676704-.0013542-19.4515076-.0000458-.6573715-.0002975-.6573677-.6341553-.7068634-1.2977371-.101326-2.0640259-1.4740906-1.4704475-2.6342239.3655777-.7145004.3194199-1.6772575-.3110886-2.1183739-.4647827-.3251686-1.104393-.5051231-1.7516212-.3571472-1.3212128.3020782-2.4008675-.6540756-2.2412376-1.9976654.0346718-.2918129.1817398-.5889015.3430672-.8413696.1384659-.2166862.1609497-.3408241-.0449715-.5148315-.4849777-.4097939-.6746178-.9443245-.6090698-1.5744514.008667-.0833054.0179558-.206646-.0292435-.2493858-.4153442-.3761177-.7902756-.8529663-1.2793083-1.0793762-.8908997-.4124565-1.34832-.976902-1.3118439-1.9640846.0287361-.7777405.5723686-1.3556633 1.4473534-1.6127052.2673645-.0785446.5113754-.2620583.7430267-.4294128.2244492-.1621475.4192619-.3653221.6671066-.5861244-.0961914-.1036682-.1861534-.2106476-.286335-.3070183-.8525276-.8200989-.8098335-2.0767784.1177635-2.8001518.2330284-.1817265.3258591-.3722286.3403969-.6634293.0261307-.5233536.0651436-1.0153217-.1035423-1.5511646-.4064255-1.2910595.6072731-2.4357414 1.9531479-2.297514.085228.0087547.1705627.0164261.2511711.0241528.1150169-.3338223.1485634-.7130032.3501091-.948246.2824593-.3296833.6945457-.5464802 1.0421143-.8229675.1813316-.144249.3858833-.2859783.5057259-.4757252.32407-.5131035.4790039-1.0677719.4869232-1.6981983.0085754-.6827393.6326485-1.3161526 1.3516388-1.4333057.4120102-.0671349.4804802-.2516136.4796982-.6120758-.0090179-4.1608105-.0059967-8.3216486-.0061684-12.4824791-.0000114-.2893329 0-.5786662 0-.9157715.2486992 0 .4360313-.0000005.6233559 0 10.056591.0000219 20.1131973.0059576 30.1697388-.0152211.578598-.0012183.9848557.1659002 1.3878632.5515118 3.0003815 2.870862 6.0183563 5.72334 9.0158157 8.5972223.1754532.1682224.3124619.4719276.313179.7130451.0174866 5.8515816.0173569 11.7032337.0015488 17.554821-.0006104.227169-.1316833.5126953-.2974854.6709366-.9007034.859623-1.8250046 1.6950378-2.7558517 2.5222778-.2739029.2434196-.2625809.3923492.0278549.6096992.9631348.7207642 1.9155655 1.4561539 2.8608017 2.2002831.220787.1738167.4146652.1971931.6790466.113636 1.1421051-.3609619 2.0576172.1770287 2.4187698 1.3146667.1068115.3364372.4528122.590538.6528625.9054489.2326813.366272.5406952.458519.9607315.4555702.682312-.0047836 1.2890854.5390816 1.5478973 1.2439384.0745316.2029915.2147675.4148674.3846436.5441589.7586441.5774117 1.024437 1.3718643.6470566 2.2575645-.2474899.5808449.0150681 1.1281242.015274 1.6901665.0000381.0909195.1638489.1910515.2644653.2712212.9667892.7703285 1.0168076 2.0385284.0837173 2.8596191-.2495728.2196236-.1954727.3226509.016861.5054474.4438858.3821449.8772202.7256508 1.4790115.8905907.7552338.2070007 1.1466827.9215279 1.1298218 1.7510986-.0151138.743618-.4632263 1.4316483-1.200882 1.618412-.6609726.1673431-.8955002.7726097-1.3675919 1.1239891-.0627213.0466843-.0480957.219429-.0422592.3324013.0306244.5924034-.1428909 1.1080589-.5934219 1.5006866-.2301178.2005348-.2204742.3485374-.0443954.5887566.4323425.5898132.4380722 1.4430275.0550766 2.0321083-.4242706.6525688-1.1291504.982914-1.9075317.7759132-.6293182-.1673622-1.1759415.0892067-1.7094345.2662773-.2708054.0898895-.5040207.5429497-.5908813.8746147-.1115112.4257431-.1161652.8839874.1385727 1.3210678.4222107.7244186.2329788 1.620285-.4052048 2.2027512-.5862732.5350723-1.4945145.6201782-2.1588669.1631088-.5328217-.3665543-1.1385193-.194519-1.7073212-.2853775-.0694504-.0110855-.1693649.1005096-.239212.1710358-.4208832.4250107-.9310379.5873642-1.5207214.5492859-.6547012-.0422821-1.1289978.2820206-1.378418.86483-.1984177.4636536-.3203735.9103546-.2903824 1.4364166.0465851.8171921-.4068298 1.3801727-1.1573334 1.6968384-.6244278.2634735-1.4412842.1364746-1.8897018-.4364929-.4093094-.5230103-.9583969-.7490387-1.5146942-.9963837-.1264725-.0562363-.3146515-.0564804-.4453354-.0064697-.6489334.2483749-1.2563629.2112579-1.8575058-.1520615-.1635361-.0988388-.3840103-.1430283-.5788193-.1443329-1.6907272-.0113144-3.3815765-.0031357-5.0723343-.0118408-.2560272-.0013199-.4759674.0299377-.5763397.2913742-.4272766 1.1128845-1.4003754 1.3606873-2.4198151 1.558342-.7332458.1421585-1.4600754.3179245-2.1879425.4865952-.0801277.0185699-.1481819.0892487-.2218361.1357574-.3528787-.0000005-.7057572-.0000005-1.0586358-.0000005zm23.1197662-15.8699303c-.1227036.230442-.2453995.4608765-.3680954.6913185-.9729004 1.4647636-2.361969 2.4320221-3.9213257 3.2471733.0269241-.2935753.091156-.7400513.2307739-.7650185.6033325-.1079063 1.0721512-.3760719 1.5544662-.7493553 1.0657883-.8248672 1.3219452-1.888279.6548233-3.0410576-.1299515-.2245598-.197258-.5156708-.1999741-.7770615-.0052032-.5008163-.2561798-.7069092-.7329254-.5091896-.3069382.1273003-.5977783.2933769-.7876129.3880882-.5371475-.3936577-1.030365-.7224617-1.4841537-1.0988159-.3189392-.2645302-.5670471-.6136322-.8811417-.885231-.1432648-.1238823-.3772583-.2189331-.5551987-.1983299-.1082535.0125313-.2797699.280674-.2648697.416687.0660248.6025658-.2261124 1.0732307-.469986 1.5749702-.1447525.2978363-.2802658.6242981-.3090973.947773-.0305939.34338-.1423492.4273224-.4726562.4548988-.3426056.0286026-.674942.1802025-1.0117722.2780113-.1799545.2765312-.1672592.3335419.2281418.3993149.4819412.0801811.823204.3467827.8422241.8072166.022049.5339699.3619461.9622803.414711 1.4341812.0971451.8689537.5758667 1.0812492 1.3082809 1.0394669.3377228-.019268.6723862-.0923119 1.0084381-.1409721.1056366-.0219574.2112808-.0439148.3658829-.076046-.0307388.5718803-.1030807 1.0392761-.6667023 1.2672043-1.2880554.520874-2.5657959 1.0680046-3.8616028 1.5685501-.452858.1749344-.9464111.2445335-1.4213791.3622322-.0316772-.0451851-.0633621-.0903778-.095047-.1355667.100975-.1278267.1964569-.3607063.3038177-.3663177.6633606-.0346642 1.1200867-.4157295 1.6208267-.7912979.9511032-.7133331 1.2192688-1.8090668.6502533-2.8455734-.1516418-.2762337-.2223663-.61866-.2475433-.937233-.0341263-.4318924-.281105-.6467018-.698349-.4924393-.2452621.0906754-.4652328.2540283-.7132339.3311768-.1202164.0374069-.3087387-.0076828-.4143448-.0857544-.3359375-.2483521-.6249695-.5646553-.9741211-.7895012-.4349136-.2800751-.8488693-.5505905-1.1188583-1.0197525-.0827713-.1438255-.3593521-.2706566-.5205612-.2440529-.1228485.0202827-.2941513.2993507-.2870712.456192.0267029.5907555-.1944504 1.0851974-.477066 1.5731049-.1019592.176033-.174942.3688469-.2611389.5540009-.0396118.0601387-.116745.1227074-.1130295.1800385.0364075.5609589-.3098297.6047668-.7475891.6253967-.2600479.0122566-.6142044-.0401268-.7244797.3440514.0218582.1696358-.0178223.3968887.0770264.4981766.2939072.3138542.3067322.6783714.3188248 1.0653915.03508 1.122097.8567734 1.9457283 1.9877319 1.9863167.5459442.0195961 1.0931778.0033836 1.6398239.0033836.0221405.0327225.0442734.0654373.0664139.0981598-.1851425.1307907-.352478.3119583-.5581589.3846588-2.2640457.8002548-4.3822632 1.8910675-6.3759766 3.218895-1.3556061.9028397-2.6554031 1.8832397-3.6965485 3.1584473-.1289482.1579361-.2236481.3438263-.3656807.5659866.2091522 0 .3278084.0191727.4381409-.0030365.8918877-.179512 1.7852974-.353775 2.6703148-.563118.1687775-.0399323.3324585-.2044449.4473648-.3514481.5305786-.6788025.9705887-1.4444962 1.5749893-2.0466156 2.2525711-2.2440567 5.0744934-3.3671188 8.1442947-3.9506836.0946503-.0179901.2100525.073143.3157806.1133957-.0048676.0372772-.0097351.0745392-.0146027.1118088-.6758575.0371628-1.0302353.555481-1.4934845.9261322-.7663574.6131897-1.0514374 2.0907059-.3116302 2.8895035.2473679.2670822.3824539.5614014.3733749.9503784-.0095673.4093933.3452377.5831146.7112885.3801117.2415543-.1339645.4518204-.3273392.6989594-.446846.1030731-.0498428.2906799-.0176773.3964157.0475922.3667831.2263336.7186737.4777908 1.0683517.7305832.3958893.2861938.7740326.5978851 1.1789246.8701859.1628189.1094971.4118805.2389069.5563049.1847839.1368713-.0513.2350235-.3230286.266571-.511795.0522156-.3124466-.0120468-.6478882.0607224-.9526367.159935-.6698303.3748474-1.3265228.579277-2.0297394.253952-.0543747.6193085-.1076889.9684448-.2141724.3716431-.1133499.5123138-.4788055.2506485-.7087784-.339859-.2986984-.3321609-.6924362-.4554901-1.0594406-.131958-.3926544-.2500534-.8454971-.5244293-1.1241379-.7626877-.7745361-2.2573853-.9197159-3.2419205-.4135208-.1119843.057579-.2435226.0771484-.3659821.1143417-.0135803-.0335922-.0271454-.0671768-.0407181-.1007767.0783234-.0522766.1498642-.1241951.2359772-.1539078 1.5435791-.5326385 2.9930573-1.2537079 4.3626938-2.1419029.1147919-.0744476.2930603-.0510139.4158249-.0691948-.3178253.5536308-.6029739 1.0503349-.8881149 1.547039-.2092896.2352982-.2933197.4913826-.0167465.7188683.5398026.4439926.7025375 1.0338135.7448578 1.6954346.0088425.1381454.1544495.2675323.2370224.4009628.1590881.2203445.3410263.4280167.4718857.6640167.1958771.3532562.4985809.4391022.7817383.1517792.1931-.1959305.3510208-.4327164.4944-.6695633.1221161-.2017212.2261353-.2252731.4576111-.1436005.4070358.1436157.836235.260704 1.2642365.2992706.5052872.0455246.9745178.1128311 1.410141.4111328.1267242.0867767.4366226.0447235.5676422-.0586014.0994568-.0784378.0908051-.3561554.0558167-.5302353-.0791626-.393898-.2449188-.7727661-.3013-1.1683044-.085083-.5968094-.1068878-1.2026329-.1613998-1.876606.1997375-.1345711.5155487-.3189316.7980499-.5449295.3470001-.2775993.2857056-.5568886-.0724792-.8027496-.2510223-.1723022-.5129547-.3971214-.6453857-.661026-.4034348-.8039818-1.0464554-1.1615829-1.9126129-1.1650581-.719696-.0028839-1.3459625.300705-1.9560547.6429443-.0426941-.0414429-.0853882-.0828934-.1280746-.1243439.4740982-.5259666.9481964-1.0519371 1.4222946-1.5779114.026886.3119965.1159515.4839211.5098267.4427948 1.0506897-.1096992 1.9105377.2337799 2.4752045 1.1835823.132164.2223091.316124.4147797.483345.6150436.1967773.2356567.392334.473587.6063919.692997.0990753.1015549.2522125.2405853.3607941.2247963.2659836-.0386925.5203247-.1575241.7793427-.2441063.4521332-.1757698.8971863-.2065048 1.371933-.0434189.1317291.0452385.4136505-.0783844.4866104-.2051392.0744324-.1293106.0460968-.4434662-.057991-.5279884-.4419708-.3588676-.5884705-.8552933-.7780991-1.3504372-.1485214-.3877792-.3911209-.7385902-.5653992-1.1180077-.0507736-.1105385-.0621796-.2966766-.0016937-.3896294.1584015-.2433777.3946762-.4368744.5478134-.6827087.2078629-.333683.0342712-.6133156-.3320541-.7284279-.2924576-.0918961-.6014862-.2284508-.821785-.4328804-.4948196-.4591675-1.0282745-.68153-1.7148285-.6133842-.9878159.0980415-1.5661697.7799339-2.1824646 1.4236755-.1733323.054249-.4152604-.272621-.5320512.0957567zm1.8527604-14.7449417-.0003891-.0024338c-.0176926.8874588-.0449677 1.7748909-.0471954 2.6623878-.0006638.263092 1.375061 1.1141739 1.6476517 1.0595093.4836197-.0969887.9678955-.1941719 1.4556122-.2661133.3339996-.0492706.5118866-.193264.4595642-.5486488.0158844-.056118.0251846-.1151581.0486755-.1678886.2179871-.4894524.0335312-.7663498-.5034027-.727623-.247345.0178413-.4968033.0589676-.7358856.1240997-.2362595.064373-.3187714-.0197792-.4267807-.2289314-.177124-.3430023-.4222031-.6516457-.6458282-.9697037-.2149963-.3057671-.4391403-.6050987-.6592712-.9072533-.0353317-.1841736-.0273361-.3947601-.1187668-.5447159-.0832214-.1365013-.2744293-.2071571-.4180374-.306839-.0539169.1371994-.1416626.2719078-.1520004.4123154-.0098803.1341935.0607832.2743188.0960539.4118386zm-43.0587883-20.1136799c-.028183.2861423-.0082664.5879116-.0950623.8550091-.1563416.4811096-.3761024.9416542-.5703011 1.4104042-.1953621.47155-.8495064 1.0766525-1.3237381 1.2260284-.3618202.113966-.4459877.3853779-.2784576.7132359.1475677.2887878.2229347.6136055.3498459.9142113.0548363.1298885.1591492.2388859.2409897.3573761.2799721.2006569.4408684-.0193672.6512413-.1557293.2841873-.184206.594101-.4104328.9109955-.442934.4521713-.0463791.5952644-.2210541.5527802-.637558-.0163193-.1600132-.0036392-.3230762-.0027657-.4847412.0063744-1.1756077.0167007-2.3512249.0142097-3.5268116-.000248-.118824-.0771675-.2374859-.1185036-.3562241-.1104126.0425777-.2208252.0851555-.3312339.1277332zm-4.8689423 10.3107014c.3979988-.2109032.8002052-.2313652 1.2198944-.0547066.1146736.0482712.2704735.0802841.3814163.0428162.7394981-.249752 1.4324951-.094574 2.1383438.2501183.0891075-.2162476.1653061-.4011612.2415009-.5860748.2549362-.5982533.6287079-1.0885525 1.2500229-1.3428001.2429428-.0994148.5136757-.1439705.7380905-.2723484.2910767-.1665154.7025909-.2764969.5853462-.7677326-.2289543-.2984486-.4145584-.6504478-.698822-.8805752-.2957535-.2394295-.5327568-.461195-.638092-.8450966-.106308-.3874607-.4896011-.4482708-.789093-.1542358-.1877251.1843014-.3693085.37817-.529129.5865498-.1324654.1727085-.2285957.1857014-.4354439.0856667-.3464699-.1675529-.7311745-.2542839-1.0948143-.3885193-.4993019-.1843166-.9885674-.3975811-1.4934578-.5640945-.1835365-.0605278-.4685822-.1032505-.5816498-.006794-.1156464.0986557-.1513939.4039936-.0919151.5730515.1587563.4512444.2405891.8767166.1595116 1.3684025-.0685921.4159641.0159264.8623333.0681152 1.2909298.0268745.2207108.0869751.3866367-.2145348.4645557-.2216492.0572777-.4269371.1910782-.6284828.3095531-.2434692.1431198-.4455833.3439827-.2912216.6451492.1418304.2767217.3927802.3837698.7044143.2461851zm52.7915611 18.3492546c.3057785.0667458.6143265.074379.7444-.2694321.1451645-.3836555-.1532898-.5563507-.4302368-.706028-.1923294-.1039429-.4099579-.1647606-.5919189-.2824974-.0812836-.0525894-.1476974-.1994019-.1437378-.3004227.0197449-.5039825.0543518-1.0080414.1047745-1.5099564.0429459-.4274979.1346207-.8507195.1643677-1.2786407.0136566-.1965218-.0089035-.5098076-.1235275-.5728302-.1522064-.0836792-.421463-.0069008-.620163.0605888-.2151108.0730553-.3967133.242363-.6107712.3213768-.6779022.2502327-1.4700928.1309013-2.0753174.6388512-.0340042.0285378-.1993408-.0506363-.2649078-.1175461-.2033234-.2075157-.3690872-.4544983-.5845566-.6468048-.2867737-.2559433-.6356201-.1937065-.7371445.161026-.1227341.4288292-.3946991.6869392-.7235413.9459877-.2231445.1757889-.3795166.4363518-.5657501.6590004-.2081528.1945496-.1866455.3979149.0244064.5548096.2271652.1688728.4665527.3443718.7287674.4386215.7231827.2599335 1.3640213.5961075 1.6459885 1.374649.1067657.2491913.2135239.4983902.3231964.7543869.0953522-.0277023.1531143-.0367165.2040176-.0604591.579689-.2704048 1.1571274-.4627037 1.8062057-.1921577.1671066.0696564.4167404.0364227.5947037-.0343742.3977586-.1582336.7638017-.1432915 1.130745.0618515zm-52.3516578-11.8726234c.0097008-.1592102.024498-.318306.0281296-.4776535.0103493-.4546242.2566795-.7671394.6716461-.8541336.5834465-.1223221.9394264-.5386124 1.3538742-.889225.5180702-.2053375 1.0443726-.3780785 1.6090469-.2314529.4405251.1143913.5586128-.0866585.5127831-.4783211.1677246-.5616188-.155529-1.0233955-.3152466-1.5157661-.3691902-1.1381226-1.368824-1.6734428-2.5249748-1.4066315-.2676125.0617599-.5878487.0533104-.8458138-.0345535-.5001945-.1703835-.773243-.0139542-.7407646.5244789.0200691.3326912.0800819.6629715.1032104.8451157-.5629387.4121361-1.0234833.7832947-1.5187912 1.1001129-.3363686.2151566-.7326851.3347359-1.0798912.5356102-.1635475.0946236-.331459.2583237-.396328.4291115-.0998344.2628212.1162834.3627892.3365059.4631348.3414001.1555519.6895676.3222618.9833145.5505676.4969826.3862534.953701.8243179 1.4933624 1.2986259-.0533867.2186813-.1651459.5688362-.2178917.9276657-.0398331.2710037.090004.5398979.3923378.5114784.2087364-.0196228.4009323-.21521.6005173-.3321609-.1367264-.0752335-.2737427-.1499481-.4099159-.2261696-.0246315-.0137863-.0457993-.0337563-.065815-.0488014.0103112-.2320062.0205079-.4615213.0307046-.6910325zm51.9046211 18.5180854v.4534454c-.1695862.1114807-.299263.1967163-.4289398.2819595.143486.130394.2661667.3172035.4347992.3793793.344902.1271744.6281738-.1486626.5650253-.5420799-.0572586-.356678-.1619415-.7057343-.2198563-.9494057.441658-.3371124.8491516-.5919685 1.1856918-.919693.3933029-.3829994.7775192-.7408524 1.3190155-.9144974.1504211-.0482368.3602219-.3007507.3355103-.4145393-.0372086-.1713638-.2458725-.416832-.4007645-.4317017-.6123657-.0588264-.9805984-.479351-1.4189301-.8139496-.2845993-.2172356-.5974503-.4207954-.9296112-.5448723-.2575378-.0962029-.3115768-.2073364-.2631607-.4463844.0550079-.2715683.1256485-.5477638.1230545-.8213196-.0036697-.3869896-.3147202-.5341911-.6732101-.4274406-.2772522.0825577-.5968323.1358528-.8743896.08218-.6849442-.1324463-1.2772903-.0646896-1.8690796.3650856-.6365128.462265-.7232437 1.1751633-.98246 1.8080788-.0975266.2381439-.0521927.5406494-.047348.8133736.0059509.3350563.1840363.4701271.5156631.3808403.468071.0644493.9361343.1288986 1.404213.1932831.557106.27668.9073334.9037018 1.6107407.9422417.0978775.0053596.1916275.1217461.2836914.1914864.4691695.3553924.2783584.8751907.3303451 1.3345298zm-32.1329346-14.3084373c.3012276-.408329.6042786-.8153381.9031143-1.2254105.2418976-.3319511.1825829-.4952545-.1888962-.5363464-.0296745-.0778923-.0648804-.1541748-.0881042-.2339439-.1285362-.4414558-.2028313-.9076233-.3942986-1.3194885-.2189903-.4710846-.4363213-.9151459-.4103279-1.4581528.0074272-.1550713-.1671295-.4361801-.2855186-.451725-.1664276-.0218506-.3877296.1170807-.5332451.246212-.3115768.2764969-.5667686.6184387-.8868752.8829765-.4521217.3736382-.9420776.7014885-1.4651489 1.0850601-.2322159-.1030693-.5663147-.2895393-.9239426-.3994751-.3656158-.1123924-.5986595.1215935-.6223946.4621162-.0211983.3042221-.0873909.623127-.2145691.8981705-.2175865.4705582-.448349.9142647-.3065758 1.4630394.3299332 1.2771149 1.2179222 1.9264183 2.4340897 2.2362556.1311531.0334167.2374802.1642952.4374352.3096466-.195446.0511742-.2388229.0764084-.277668.0707092-1.8000412-.2641106-3.5269966-.760891-5.1255989-1.647625-.4528046-.2511635-.6947136-.8587303-.60952-1.3146744.4827042.0185852.952404.0366745 1.4221039.0547562.0877838.0044632.1756248.0136757.2633476.0126228.6589203-.0079155.6867981-.0452614.8224258-.6867599.0508003-.240284.1880875-.460968.2616043-.6981316.0793839-.2561073.1693382-.5186462.185524-.7826157.0339317-.5532532.3648109-.9608192.9158554-1.0823822.1275787-.0281487.2417526-.117054.3620987-.1780014-.1133003-.1283112-.2266006-.2566185-.3398972-.3849297-.3052559-.0336418-.6166916-.0416489-.9128571-.1130066-.1260185-.0303688-.2691383-.1736526-.3196831-.2996407-.1662598-.4144478-.3036766-.8414459-.4332848-1.2693443-.1334381-.4405327-.2305183-.8923836-.3723488-1.329937-.0609627-.1880913-.1772003-.4805145-.2994995-.4972191-.1742744-.0237961-.4051208.1308098-.5606842.2674179-.1821976.1600037-.2769966.4250565-.4666634.5700188-.6039276.4615707-1.2342949.8885498-1.8848267 1.3504639-.2195206-.1106987-.5120697-.2814255-.8223648-.408989-.4134598-.1699677-.6827812.0487366-.6775513.4958878.0024757.2116852.0172768.4706879-.0905457.6280632-.4925766.7189293-.6452713 1.460434-.2918968 2.2778435-.0962334-.0241013-.1924706-.0482025-.2887077-.0723076-.1743088-.2371902-.3486214-.4743805-.5229378-.7115707-.2218666-.3823853-.4437332-.7647705-.6655998-1.1471558-.0316582.0156364-.0633202.0312767-.0949821.0469131.1060982.3652649.2121925.730526.3182869 1.095787-.2551537-.0561409-.6273041.1134377-.7335587-.237587-.1869736-.61763-.6243401-.984024-1.0939026-1.3778572-.9780121-.8202858-2.0933228-.815052-3.0357857.0556335-.199295.1841164-.4864388.3059883-.7541618.3757896-.4444809.1158905-.6145287.4357452-.3496819.8126831.2072525.2949562.4522247.5634003.5814476.7220764-.2614059.6125603-.4569054 1.1389275-.7080917 1.6372299-.1933708.3836136-.4724426.7232056-.6819382 1.0998764-.0947227.1702995-.1842918.4019661-.1399193.5697517.0277634.1049843.3323364.2316971.4732246.1954041.6123123-.1577415 1.191452-.0821915 1.7684174.1291885.4583397.2948761.6776619.2322121.8879929-.229496.0642891-.1411209.1695938-.2684174.2749825-.3849907.2492409-.2756996.5119591-.5391655.7651138-.8114052.1980934-.2130203.3764763-.4461212.5873146-.6451988.5337296-.503952 1.2408791-.4719467 1.8995171-.586319.8067513-.0685387-.0670013-.4846725.2531891-.7559967.1888046.148468.4487381.2935486.6278229.5065918.3283043.3905563.5858765.8408432.9167137 1.2289085.2622261.3075829.5898819.5593834.888485.8359528-.0254326.057724-.050869.1154404-.0763016.1731606-.1200562-.0202408-.3067589.0012703-.3497047-.0672798-.3696861-.5901146-.9594688-.8044472-1.5680046-1.0492859-1.0818825-.4352875-2.224659-.047081-2.773243.9834404-.1345215.252697-.3584328.4932671-.6003036.6457138-.4527245.2853432-.5012436.5906792-.0580139.9115372.2687073.1945229.5602341.3575325.8226509.5228195-.0931892.3477364-.2397232.6673813-.2535553.992672-.0303268.7131042.0630875 1.4303436-.3124123 2.1007271-.0709648.1266975.0205421.394928.1198349.5419693.0405617.06007.3057137-.011322.4608421-.0524902.5168114-.1371574 1.0279503-.2958412 1.5453682-.4305115.3906784-.1016808.7958183-.1538696 1.1786728-.2772522.2223778-.0716629.3336716-.0648994.4631958.1475677.1581955.25951.3518829.5066872.5702896.7177277.2481918.2398262.4901009.1189537.6668472-.1227837.2246056-.3071976.4309464-.627758.6451607-.9425583.0306969-.0454292.0884628-.091114.0880432-.1362534-.0065384-.6967812.2599792-1.2836952.7083549-1.8001633.0285072-.1651688.1311111-.3649864.0728531-.4895897-.2705803-.5787163-.5857315-1.1365929-.9113846-1.7519188.1534119.0395699.3598175.0571938.5322876.1430168 1.2216568.6078987 2.4363632 1.2297707 3.6532822 1.8471832-.4309616.0181236-.8640518.0162048-1.2921257.0615616-.2754593.0291862-.5435524.1278572-.8149529.195385-.7646599.3941956-1.2684631.9496193-1.3052902 1.8733444-.0103378.259407-.2053566.5327682-.3705826.7597504-.2561302.3518639-.1777649.6910248.2449379.8028336.3491821.0923691.7064133.1543312.9280663.2016106.1906967.6591797.3792725 1.232666.5176163 1.8180199.085743.3627815.0759811.7472839.1465149 1.1148529.0391731.2041321.1119843.5070953.2482681.558979.1492348.0568237.4139709-.0895844.5831184-.2106552.2090302-.1496162.3437691-.4090271.5592346-.5424881.6325073-.3917694 1.289093-.7446556 1.9605293-1.1265831.0909233.0499649.2627754.1443939.4346275.2388229.2127151.2747803.4576416.4403419.9476166.227272-.37743-.1763153-.6504593-.3038597-.9234848-.4314041-.1155243-.2053528-.2310486-.4107018-.3465767-.6160545-.0194893-.5029144.1432419-.9162636.5701866-1.2136497.0888252-.0618668.1585312-.1661377.2092819-.2651062.2127495-.414856.4149361-.8351212.6209908-1.2534103.1608772-.127758.2273827-.2452393.0375404-.4233284-.4435577-.4160957-.8389053-.8973846-1.5520935-.9269218.420826-.464035 1.9974098-.0921783 4.957077 1.0928612.025032.0892296.0500717.1784554.0751076.2676888-.3009644-.0317307-.6078033-.0363083-.9018707-.0999298-1.2363892-.2674828-2.1280785.237709-2.5445862 1.4165154-.095768.2710419-.2833176.5390778-.4974632.7321548-.3431931.3094292-.349678.6535568.0670471.8726044.2323151.1221161.4810143.2208481.7324524.2964516.2192917.0659332.2392235.1723557.2226677.3873825-.0310211.4029274-.0361786.8160667.0183563 1.215332.0720024.527153.1605148 1.0339546-.0354271 1.5629997-.0546684.1476059.0604401.4378624.1929588.5477333.092411.0766182.4154396.0217934.5173607-.0859909.3787079-.4005089.8681984-.5169868 1.3607025-.669178.3983612-.1231079.7884827-.2916565 1.1555443-.4895897.1926765-.1038971.298111-.1170998.4486771.0439949.1995544.2135239.4070244.4275932.6429138.5971718.2857666.2054367.6398849.0841942.6784935-.2485695.0475006-.4094238.2794762-.6519814.5645027-.8986053.8473206-.7331581.9661598-1.9650307.2752151-2.8468246-.349781-.4463882-.7265587-.8716278-1.1638451-1.393158.2448349.1027412.4531021.1422005.5995293.2591133 1.2604561 1.0063744 2.2431374 2.232914 2.8506889 3.7361069.1056671.261425.2809677.3072662.4767914.2287483.0997467-.0399895.1687927-.2264824.1970825-.3584633.0426483-.1989403.0374374-.4081383.0574036-.6783295.1262207.0860977.1778717.1109085.2162704.149044 1.0320053 1.0248604 2.032753 1.0642891 3.1469727.1638145.2090149-.1689148.5105515-.2502823.7829514-.3072319.3646011-.0762215.54319-.31633.3730927-.6535034-.136734-.2710419-.3516006-.5019951-.4974136-.7694778-.0543823-.0997543-.0571365-.2766457-.0045624-.3770828.207283-.3959846.4752045-.7617683.6650696-1.1649208.2123337-.4508324.3825455-.9048157.8143158-1.221138.1247482-.0913887.1998749-.425415.1292877-.5595093-.0711441-.1351471-.3469772-.2017441-.5416107-.2238808-.3271866-.03722-.6676712.0251503-.9907455-.0272408-.6128387-.0993767-1.1803513-.4657021-1.8439865-.2968636-.0493393.0125542-.180687-.1548843-.2163696-.2584686-.0951843-.2763405-.1298523-.5757484-.2423859-.8433571-.1514587-.3601608-.4841309-.3714676-.7902145-.1355553-.2512817.1936722-.5583115.3908272-.8604584.4288483-1.0110092.127224-1.7517548 1.1917229-1.7355042 2.031826.0157471.8137665.0063248 1.6227989.6285019 2.2646599.0185242.0191116-.0020218.0760956-.0076904.1717377-.1122971-.0744629-.1995468-.1156311-.26577-.1788292-.6261826-.5975952-1.2626724-1.1856155-1.8615074-1.8096771-.1303062-.1357956-.1221123-.4044876-.1777115-.6119766.047451-.0178528.0948944-.0357094.1423416-.0535622.168293.1059647.3365822.2119293.5048752.3178978.3997841.2788696.3589973-.0373764.364399-.2743492.0253296-1.1108971.9151764-2.1903114 1.9898148-2.4224701.2204895-.0476341.4328461-.1329384.6489487-.2008743.0320282-.2001801.0911865-.4004784.0902863-.6005096-.0017471-.3859062-.0130997-.7749557-.0649109-1.1566734-.0718689-.5294189-.2990265-1.0359383-.0732269-1.5958481.061676-.152935-.0577393-.4698067-.197731-.5815392-.0949783-.0758057-.3890915.0405426-.5619354.1319046-.3315506.1752701-.6229019.4320297-.9622498.5858917-.5605774.2541695-1.1460075.4535294-1.7209625.6759872-.1099129.0046272-.2358284-.1144485-.3660126-.2286491-.132019-.1158218-.2600136-.2389069-.404335-.3374863-.3236008-.2210274-.7472572-.109478-.7594337.2306709-.0162849.4551735-.3286247.6873627-.5544662 1.0046577-.2379494.334301-.5141716.7176437-.5541725 1.1023827-.1245766 1.1981468.6198311 2.3609581 1.7412376 2.8242264.3824997.1580124.3189278.3265381.2028503.4944954-1.515934-.6305695-2.984787-1.2415543-4.4731636-1.8606606.4613037 0 .8902359 0 1.3191681.0000038.1441917.0046501.3063812.0519257.4270935.0009651.1035118-.043705.2246513-.1990967.2258339-.3063316.0066606-.6015278-.0206679-1.2034336-.0363959-1.8052097zm22.2342072 11.3868141c.1763535-.0137024.3689194.0139427.5264359-.0478096 1.0230103-.4010735 1.7509613.0852013 1.777153 1.1712532.0051956.2158089.1671753.4278412.2568512.641613.2423401-.051815.5210876-.0440369.7205963-.1659393.7886887-.4818993 1.4960327-1.0501938 1.6690979-2.0433846.2353897-.6742477.4707794-1.3484955.7061691-2.022747.1880264-.2978745.3625183-.5803032.238533-.9749832-.2632217-.8379326-.7590408-1.3913879-1.6455765-1.5882339-.2337036-.0518875-.475296-.2193298-.6397095-.4004707-.3321152-.3659172-.6757507-.3639603-.8889465.0849762-.1535263.3232841-.2530746.6721992-.3358994.8982925-.573494.0474205-1.0688171.053112-1.5502701.1377411-.5194244.0913048-1.0164261.2430077-1.5453873.0076904-.1204147-.0535774-.436058.0551338-.4757919.1597824-.0639954.1685715-.0235596.4214134.0634308.5925713.1427383.2808533.4079437.5030251.5327225.788723.2802277.6416206.2371216 1.424118 1.018219 1.9569473-.2917557.2067566-.505188.3580132-.7357712.5214233.1380158.1265564.2230759.2045555.3081437.2825546zm-31.9357109-18.6976318c-.1392708-.1655502-.2785454-.3311043-.4178123-.4966545.038887.0086899.077774.0173759.1166611.0260658.2097969-.5195808.3990402-1.0487709.636055-1.5556259.1813393-.3877945.4398994-.7389984.6304207-1.123188.0878906-.177227.1737366-.4190254.1207771-.5876617-.0798111-.2541275-.3304672-.2700615-.5923347-.2033081-.2639732.0672874-.54599.1252899-.813694.1045685-.7270012-.0562553-1.418354-.5147495-2.1550102-.1119576-.1358986-.3915367-.2273407-.7162895-.3600807-1.02318-.2036438-.4708176-.520565-.4903736-.8802261-.134203-.2077179.2057037-.4781151.407383-.7533684.4737587-.6482735.1563301-1.0571136.5117092-1.3844032 1.0951347-.3688927.6575775-.1756325 1.1608772.2104721 1.6806831.1157112.4182549.2244225.8386154.3496933 1.2539825.0782623.2594833.1814919.5114403.2735138.7667732.2267685.9241867.9682579 1.3892708 1.6938057 1.8483849.2286644.1446915.561985.3559036.7736359-.0821571.0441475-.1879997.1252899-.3760567.1250305-.5639954-.0006104-.4442978.1451797-.7927208.5326996-1.0281792.446579-.2713318.8811188-.1951637 1.3324699.0042.1367569.0604057.3327599.0442505.4795113-.0040436.0583112-.0191916.0565793-.2208251.0821836-.3393973zm20.1188621-6.2733689c.0533447.1030617.145752.2031269.1539307.3096561.0732269.9537258.678688 1.4811668 1.4566345 1.8953495.1979752.1053963.3803177.2761917.5153122.4575348.5401459.7256279 1.3826752.7258606 1.8448639-.0430832.2100525-.349472.4186554-.5504055.8438721-.3686256.1137543.0486336.2778015.0654526.3884048.0211296.5423813-.2173595 1.0454712-.1259155 1.5816269.0625305.5788956.2034645 1.0790863.0246277 1.335144-.3787651.2996368-.4720402.119957-.8694744-.1580048-1.2986145-.4396515-.6787682-.3512039-1.4868279-.417511-2.2495308-.0111389-.128006.1370621-.2853127.2395706-.4052086.5956116-.6966839.4330597-1.4127769-.3565826-1.8462315-.2989044-.1640739-.5173798-.4929085-.7318954-.7772846-.0435638-.0577431.0589676-.3231258.1561508-.3737411.6200562-.3229408.930397-.8718758 1.1809464-1.4831238.0759811-.1853676.1805954-.3747082.3191833-.5160637.7078018-.7219257.5899887-1.4904251-.286026-1.966238-.1808319-.0982189-.3982697-.3320751-.4056778-.5113907-.032135-.7784386-.398201-1.5334377-.095871-2.3444328.1412964-.3790455-.0051804-.789402-.4183807-1.0170517-.4069977-.224226-.8836594-.1512222-1.2795181.1182194-.2954712.2011089-.6352234.3428574-.9671097.4829769-.2694168.1137524-.5699997.1575775-.8322525.2834644-.3280182.1574497-.5750656.0917168-.8442078-.1295033-.7744141-.6365147-1.5707321-.3881092-1.8901291.566185-.0546188.1631947-.1301193.3288364-.2339478.4642258-.2389526.3115902-.5115662.5973263-.7512436.9084148-.2426147.3149223-1.1106567.7164688-1.3540497.5493164-.6443863-.4425411-1.4695282-.5927677-1.9523773-1.3117809-.2680054-.3990879-.7478256-.4272556-1.2049866-.2678909-.3564606.1242599-.597229.3972244-.57901.7534943.0405121.7922535-.1749954 1.5104065-.4948425 2.212431-.0794907.1744633-.1749954.341629-.2631378.5121517.076683-.3332157-.1766357-.2781734-.3505554-.2811947-.6172104-.0107231-1.2361336.0174503-1.8514824-.0188103-.3886795-.0229034-.4858856.1349907-.4813118.4814167.0114441.8671322.0031013 1.73452.0034256 2.6018066.0009727 2.6312428.0014076 5.2624893.004776 7.8937283.0003548.280159-.030365.5392189.4209404.5350876 2.4546165-.0224953 4.9095497-.0184822 7.3643074-.0082855.3616257.001503.5020676-.1133881.4861374-.4812813-.043724-1.0098095-.0649719-2.0205898-.0951156-3.0309868zm9.3721085 8.2646141c-.0286713-.0627213-.0573425-.1254425-.0860138-.1881638.128273-.0740051.2746124-.128006.3820724-.2250557 1.3379974-1.208477 2.6760559-2.4170609 3.9962692-3.6447983.1494904-.1390152.2694244-.3946609.269989-.5965881.0143661-5.23353.0140686-10.4671173-.0004196-15.7006474-.0005569-.2032108-.1152267-.4596729-.2630768-.6009521-2.6622162-2.5438538-5.340538-5.0708427-8.0057602-7.6115627-.2445602-.2331295-.4947891-.3150263-.82341-.3147984-9.1146622.0063162-18.2293205.004961-27.3439789.0053091-.6298676.0000248-.630825.0015888-.6308517.6191645-.0002785 6.5713596.0018692 13.142725-.0062866 19.7140751-.0004196.3375664.0578537.5714493.3872223.744545.1743813.0916481.3285332.3144093.389637.5099144.1318169.4217491.3980103.5317059.808712.5586777.6650696.0436764.6640434.0728703.6640701-.6095543.0002365-6.2184124.0000076-12.436821.0003395-18.6552315.0000343-.6383038.0013046-.6422052.6309052-.6425943 2.6902962-.0016651 5.3805923-.000864 8.0708885-.0008945 5.351162-.000061 10.7023315.003089 16.0534821-.0068083.3809814-.0007048.6743011.097208.9405594.3712034.3988342.41043.824646.7947416 1.2408829 1.1881504 1.7908783 1.6926546 3.5868225 3.3800097 5.3657532 5.0851145.1481476.1420021.2590256.4017925.2596283.607235.0134888 4.5717716.0128555 9.1436081-.0041733 13.7153625-.0007858.2136269-.1243362.4846878-.2817841.6309662-1.7195892 1.5975571-3.4578323 3.1750183-5.1897812 4.759285-.3972778.3633957-.3985291.3765755.0401917.7158089 2.0078049 1.5525131 4.0139923 3.1071739 6.0309219 4.6477623.3388824.2588463.5159607.5216293.5070877.981781-.0320282 1.6605568-.0173569 3.322216.000618 4.9832344.0019455.1799965.1307602.5057526.2165146.5111084.300972.0187912.6580734.1540337.8539047-.3071747.1330338-.3133278.387207-.6673126.6792374-.798954.4140167-.1866302.4888077-.44104.4873505-.8215904-.006218-1.6170921-.0082474-3.2342567.0024948-4.8513031.001915-.2893944-.076149-.4910698-.3161545-.6688499-.7428894-.5502815-1.470047-1.1218376-2.2019806-1.6868668-1.0423051-.8046304-2.0834352-1.610798-3.1250611-2.4163095zm-12.6105652 28.2253991c-.0062866-.046463-.0125732-.092926-.0188522-.139389-.2521591 0-.5043182-.0000381-.7564774.0000153-5.3944664.0010452-10.788929.0022736-16.1833954.0029297-.6922379.0000916-.6923256-.001297-.6923294-.7063065-.0000496-5.1888046.0002556-10.3776093-.0012932-15.5664139-.000061-.1972084-.0179558-.394413-.0284691-.6107712-.1165619.0139961-.1765289.0108109-.229023.0290833-.6316795.2198982-1.1128464.0071754-1.5072556-.4998436-.0806236-.1036453-.2167091-.1641388-.3272285-.2445221-.0500793.1374702-.1077766.2728157-.1469612.4133186-.0190239.0682068-.0034256.14608-.0034256.2195778.0000114 6.1883354-.0000038 12.3766747.0000916 18.5650139.0000114.6526489.0003242.6535797.63694.6536102 4.9683189.0002213 9.9368286-.0227432 14.9047966.0188675 1.0162621.0085144 1.8746719-.134697 2.6343842-.8722839.5052566-.4905549 1.141098-.8466188 1.7184982-1.2628861zm3.2560043-14.0109559c-.2293243.1875801-.3551865.2813606-.470665.3865356-.5972595.5439529-1.378624.7227402-2.1098404.8231125-.9803467.1345749-1.9933014.0231361-2.991951.0377388-.3178864.0046539-.4156342-.1312027-.4066544-.4200706.0097427-.3133545.0022049-.6272392.0022049-.998806-.4350586.5030098-.8139343.9345818-1.1825638 1.3747368-.0511856.0611115-.057663.1634026-.0748215.2486496-.0846405.4204903-.3294144.6965561-.7218018.8703728-.4322243.1914558-.2079811.5837898-.2241287.889782-.0162277.3075333.2431374.2727776.445797.2728539 2.438282.0009575 4.8765755-.0037231 7.3148384.0043411.352211.0011597.5059891-.1145935.4982681-.4844246-.0171738-.8222389-.0027618-1.6450958-.0078278-2.4676628-.0008467-.1372262-.0349348-.2742463-.070854-.5371591zm-.5567245 16.078003h4.2203751c-.0174942-.6086349-.0748596-1.1679993-.0369797-1.7208557.0328674-.4795609-.0110321-.5722122-.4912643-.4180756-1.2676849.4068909-2.4543762.9728546-3.4634399 1.8633499-.0702974.0620423-.1218187.1453552-.2286912.2755814zm-.8340836-24.6766548c-.0000076.0018463-.0000076.0036964-.0000076.0055466-.4105835 0-.8214645-.0081177-1.2314606.0073586-.0753098.0028419-.1470032.1014214-.2203674.1558075.0559311.0565796.1024628.1452332.1692429.1647911.6824265.1998787 1.0207214.6715469 1.1567764 1.3499413.0253754.1264763.2412109.2496605.3943939.3075981.2432175.0919952.5168457.1031342.7608643.193615.2974243.1102791.4444046.0745773.4369888-.2788887-.0107727-.5131035-.0112991-1.0267754.0000153-1.5398445.0058975-.2672691-.1122742-.3707008-.3665237-.3672142-.3665773.0050314-.7332765.0012892-1.0999223.0012892z" fill="#3e54a3"/><path d="m64.9390793 22.135355c.0881424-.1705227.1836472-.3376884.2631378-.5121517.3198471-.7020245.5353546-1.4201775.4948425-2.212431-.018219-.3562698.2225494-.6292343.57901-.7534943.4571609-.1593647.9369812-.131197 1.2049866.2678909.4828491.7190132 1.307991.8692398 1.9523773 1.3117809.2433929.1671524 1.1114349-.2343941 1.3540497-.5493164.2396774-.3110886.512291-.5968246.7512436-.9084148.1038284-.1353893.1793289-.3010311.2339478-.4642258.319397-.9542942 1.115715-1.2026997 1.8901291-.566185.2691422.22122.5161896.286953.8442078.1295033.2622528-.1258869.5628357-.1697121.8322525-.2834644.3318863-.1401196.6716385-.281868.9671097-.4829769.3958588-.2694416.8725204-.3424454 1.2795181-.1182194.4132004.2276497.5596771.6380062.4183807 1.0170517-.30233.8109951.063736 1.5659943.095871 2.3444328.0074081.1793156.2248459.4131718.4056778.5113907.8760147.4758129.9938278 1.2443123.286026 1.966238-.138588.1413555-.2432022.3306961-.3191833.5160637-.2505493.611248-.5608902 1.160183-1.1809464 1.4831238-.0971832.0506153-.1997147.3159981-.1561508.3737411.2145157.2843761.432991.6132107.7318954.7772846.7896423.4334545.9521942 1.1495476.3565826 1.8462315-.1025085.1198959-.2507095.2772026-.2395706.4052086.0663071.7627029-.0221405 1.5707626.417511 2.2495308.2779617.4291401.4576416.8265743.1580048 1.2986145-.2560577.4033928-.7562485.5822296-1.335144.3787651-.5361557-.188446-1.0392456-.2798901-1.5816269-.0625305-.1106033.044323-.2746506.027504-.3884048-.0211296-.4252167-.1817799-.6338196.0191536-.8438721.3686256-.4621887.7689438-1.304718.7687111-1.8448639.0430832-.1349945-.1813431-.317337-.3521385-.5153122-.4575348-.7779465-.4141827-1.3834076-.9416237-1.4566345-1.8953495-.0081787-.1065292-.1005859-.2065945-.1539307-.3096561.0277863-.6068745.0555649-1.2137508.0841141-1.8376408-.1174088 0-.1983643-.0215931-.2606888.003355-.5963058.2387085-1.1966095.4700661-1.7774811.7425213-.1153717.0541172-.2084732.2715054-.2161179.418581-.02668.5132065-.0199966 1.0287857-.0086136 1.5430813.0061798.2788887-.0904236.3964787-.3832169.3859329-.4992142-.0179844-.9995422-.0048923-1.4994049-.004879-.6130905.0000134-1.226181.0000038-1.8956604.0000038 0-.2618084.0099182-.4646873-.0015411-.6663551-.1075211-1.8919983.3024521-3.8190746-.3798599-5.6717567-.0923538-.2507725-.1673279-.5201092-.3159332-.7356319-.3819504-.5539551-.2770271-1.2835274.3023605-1.5995579.2563171-.1398067.5656509-.1824074.8509216-.2691345zm12.3602447 9.4564476c.2078476.0315018.5353012.1556892.5980301.0747375.1214294-.1567078.1021957-.4281845.1223831-.6537857.0055084-.0614986-.0562973-.1290245-.0872116-.1937828-.0890121-.4684296-.1688843-.9389019-.2728271-1.4039917-.0295715-.1322918-.1291885-.2489281-.1966858-.3727417-.3832779-.6472492-.4203491-1.2099762.3799744-1.5725231.0366898-.0166206.0641937-.0597496.088974-.0953941.1776581-.2554607.0904083-.7581615-.1682358-.773819-.4863052-.0294399-.6269226-.4242554-.8891373-.6962681-.1764526-.1830521-.353714-.3653221-.5306091-.547945-.0636063-.0571423-.123497-.1587505-.1914062-.1644249-.5646667-.0471802-1.1306381-.0933685-1.6966248-.0990448-.1317368-.0013218-.2650375.1533718-.3976212.2362823-.3852005.2645931-.770401.5291862-1.1556091.7937794-.491684.275732-.7341614.2227383-.9745407-.2129917.5287628-.6209049 1.0539932-1.2449036 1.5924683-1.8572674.0468521-.053278.1808319-.0299454.2743378-.0421982.5324707.5748634 1.9884033.8823757 2.7843475.5910759.5079651-.1859074 1.0605011-.3152008 1.1757889-.973959.2354736-.5168667.2652588-1.150898.8737183-1.460741.0661545-.0336914.0727005-.403553-.0115128-.4721813-.2481766-.2022419-.5403748-.4100628-.8440857-.4699612-.4101791-.0808983-.4002228-.2385044-.3168716-.5731831.0684891-.2750282.0581207-.5899868.0025482-.8714218-.1179123-.5972309-.2263107-1.1764278-.0324097-1.7866192.0511169-.1608639-.0678558-.427742-.1938171-.5712547-.0641479-.073082-.3413925-.0263176-.4796906.0468464-.2889709.1528835-.5496674.3592243-.8219757.5436096-.5910034.1272926-1.2427368.0837822-1.694603.602457-.1125107.0799847-.225029.1599674-.2929001.2082176-.3178253-.2797375-.5722656-.5384922-.8618546-.7488499-.2928314-.2127113-.6883545-.085083-.7231827.2678356-.0479507.4858856-.3679962.7427845-.6675949 1.0302277-.4537811.4353561-.6652832.9642258-.5872879 1.5794086.1158218.9135818.6583099 1.5862045 1.324791 2.1712894.1508179.1324043.3271179.2357864.517601.3709068-.9110413 1.3596592-2.0136871 2.4435387-3.5129776 3.1323032-.1471481-.6922874-.1211166-.727993.4835587-.876112.124588-.0305195.2565918-.0818539.3544846-.161377.4125366-.3351116.8849106-.6300735 1.1996689-1.0431442.355011-.4659157.533905-.8356133.2045212-1.2461624-.6007385-.7821999-1.3452377-1.4991798-1.1331558-2.6962605-.1731567.0598278-.2734299.0944748-.373703.1291218-.1377258.0779037-.300415.1309242-.4080048.2388649-.2276535.2284012-.3631287.0848694-.5474625-.0630817-.2956161-.2372837-.5927505-.5102444-.9374771-.6398335-.4954605-.1862583-.8826218-.4692707-1.186203-.8842258-.3048172-.4166412-.4356766-.4296398-.802681-.0557365-.0560379.1407566-.1493912.2786407-.1604996.4228611-.0246582.3201141-.0080795.643404-.008316.9654007-.2213898.5496597-.485466 1.0853004-.42939 1.7108078.0066223.0738277-.1757278.2008457-.2921219.2420464-.2564697.0907784-.5293045.1339931-.790802.2121811-.3688736.1102924-.4951706.4703426-.2299194.741106.3020325.3083134.3964691.6616821.4222488 1.0736752.032486.519146.2505875.9499245.6959763 1.2602921.9761047.6801949 2.0019379.706686 3.073616.2738781.0466614-.0188427.1026611-.0145473.2270813-.0301647-.1216202.4507828-.2005463.8487053-.6743927.9906807-.4489899.1345329-.8997803.2631683-1.3502502.3927441-.5460663.157074-.607666.2767811-.4183426.8652973.1239471-.0182476.2554474-.0261402.380928-.0578403 1.3151932-.3322906 2.5861816-.7767277 3.7630768-1.4669876.5263977-.3087368 1.2158966-.2167473 1.5717392.1204643-.28479.5679646-.5530548 1.102972-.821312 1.6379833-.3902283.4818878-.3945923 1.2262707-.0103378 1.7614117.1219482.5833988.6047058.8188343 1.0425491 1.1118717.2890701.1934624.571785.4176216.7965851.6800823.2363739.2759628.5430374.3322754.7582779.0386467.1526337-.20821.3098068-.4272747.3965607-.666317.1360474-.3748226.3480148-.3491211.6233902-.1916389.234581.0577679.4674606.1553555.704071.1654148.5798721.0246507 1.1614533.0089112 1.7423477.0094224z" fill="#3e54a3"/><g fill="#abb8de"><path d="m45.302002 36.2653923c-.0920219-.2553329-.1952515-.5072899-.2735138-.7667732-.1252708-.4153671-.2339821-.8357277-.3496933-1.2539825.0122414-.1121597.0544357-.2307549.0319595-.3354607-.1679764-.7825279.2471886-1.6129265.967289-1.9073486.4637184-.1895943.9281578-.3774319 1.4592094-.5932598.1075668.4351521.2268028.9175014.3368378 1.362627.3882446-.1110954.7528076-.3160858 1.1034317-.2945061.7010078.0431442 1.3943787.2104111 2.1213799.3314972-.0725899.078804-.1299629.1410904-.1873398.2033806-.1350594.0459709-.2826958.0705032-.4032478.1412086-1.28368.7528992-2.5594101 1.5194206-3.8473778 2.2648392-.2037811.1179428-.4574356.1497231-.6880341.2213364-.1210823-.0921021-.2421646-.1842041-.3632431-.2763062-.0306435.0165329-.0612907.0330696-.0919342.0496063.0614242.2843781.1228523.5687599.1842766.8531418z"/><path d="m87.913353 52.3308296c-.2353897.6742439-.4707794 1.3484917-.7061691 2.0227394.0339966-.2047882.0680008-.4095764.1019974-.6143723-.0349655-.0107994-.0699234-.0216064-.1048889-.0324097-.1183853.0968018-.236763.1936073-.3551483.2904129-.1665649-.0445404-.3524399-.055687-.4965515-.1390533-.922966-.5339966-1.8336182-1.0892525-2.7546844-1.6266098-.6169052-.3598938-1.2443161-.7017822-1.8670197-1.0517311 1.0749054-.0210571 2.1380081-.8261719 3.1959229.0045433.1492157-.5420609.2832489-1.029007.3961411-1.4391289.4897842.2010918.8678513.3689537 1.2551422.5118103.3957672.1459808.7854233.3110886.9151459.7484818.1379318.4650536.2192841.9468803.3186569 1.3914757-.0208819.0136185.040283-.0262718.1014555-.0661583z"/><path d="m87.4665985 65.3806229c.083313.2597351.1666336.5194626.2796097.8716431-.2661362-.07164-.4355087-.135437-.6104507-.1608353-.4759521-.0690613-.9622116-.0870361-1.4287643-.1936417-.2999496-.0685349-.5843201-.2383881-.8511505-.4026642-.109169-.067215-.1536179-.2395554-.246788-.3965836-.3506088.5626068-.613121.9838409-.8750534 1.4041595-.354126-.3384018-.6467361-.6180191-.9393463-.8976288-.0497055.0309448-.0994186.0618896-.1491241.0928345.0197601.1286774.0395279.2573471.059288.3860245-.0825729-.1334305-.2281799-.2628174-.2370224-.4009628-.0423203-.6616211-.2050552-1.251442-.7448578-1.6954346-.2765732-.2274857-.192543-.4835701.0167465-.7188683.034996.2117462-.2411499.4925537.1781311.6525307.1466217-.2981834.2605057-.6146507.4447632-.8827324.2240219-.3259392.4924774-.625721.7703552-.9086838.1787033-.1819611.4090118-.3132515.6161957-.4672546.1098099.2371979.1720657.516243.3376617.7042961.703743.7991524 1.4357147 1.5735703 2.1622772 2.3524475.396759.4253387.8033066.8415451 1.2509537 1.309433-.0142137-.2756118-.0238191-.4618453-.0334245-.6480788z"/><path d="m49.8802185 47.5515594c-.0540581-.2510452-.2134972-.2783585-.3835983-.1383781-.2561035.2107506-.4875565.4514503-.802166.7479057-.2574654-.4246445-.5141525-.848011-.8061371-1.3295898-.4571571.6794281-1.107151.7567253-1.8291664.7616577-.4325752.0029564-.863781.2070007-1.364975.3389244.077404-.0930328.1205406-.1448784.1636772-.1967239.0582161-.0441666.1243668-.080925.1734848-.1335793 1.1762199-1.2609062 2.356884-2.5178337 3.5149002-3.7952805.1066666-.1176682.0668716-.3680954.0950851-.5568771.2620583.1996613.5094261.423439.7892647.5939178.5646286.3439789.6529655.9849014.9741135 1.4794502.0713692.1099014.1802864.1954155.2719154.2921562-.4483757.516468-.7148933 1.1033821-.7083549 1.8001633.0004196.0451394-.0573463.0908242-.0880432.1362534z"/><path d="m83.1465759 59.2934265c-.3829575.5420265-.9137878.7421799-1.5650177.7202759-.2061234-.0069275-.4407043.0493698-.6190033.1519279-.4433365.2550201-.8899384.3359489-1.3952332.2371368-.2749786-.053772-.5691071-.009594-.854599-.009594-.0209198.0483131-.041832.0966339-.0627518.1449509.149086.0767822.2945633.2103119.4478912.2200279.5223083.0330658 1.0473938.0224876 1.5714111.0285797-.3360519.0486603-.6707153.1217041-1.0084381.1409721-.7324142.0417824-1.2111359-.1705132-1.3082809-1.0394669-.0527649-.4719009-.392662-.9002113-.414711-1.4341812-.0190201-.460434-.3602829-.7270355-.8422241-.8072166-.395401-.065773-.4080963-.1227837-.2281418-.3993149.1085129.0874023.2167358.2491989.3255844.2496262.5368271.0020561 1.0738144-.0386391 1.6491089-.0660782-.0171509.0214005.0195236-.0044861.0161057-.0229454-.139679-.7539902.016243-1.4300613.4220505-2.0897255.1970901-.3203964.2297668-.7419357.3533859-1.1756096.0577774.0850067.1040955.1531563.1504211.2212982-.0021439.1547661-.0407181.3197021-.000824.4627533.4229965 1.5168571.8725891 3.026432 1.2815475 4.5469742.1169052.4346542.3627014.6077805.757103.5065041.3546448-.0910683.6861877-.2738876 1.0254364-.421917.1039354-.0453566.1996843-.1094626.2991792-.1649779z"/><path d="m44.4266357 36.2705879c.0458298.3916626-.072258.5927124-.5127831.4783211-.5646744-.1466255-1.0909767.0261154-1.6090469.2314453-1.2524414-.061367-2.5046463-.1290054-3.7576447-.1749268-.1337128-.0049019-.2720718.1170235-.4082718.1801186-.1301994-.0607224-.2603989-.1214447-.3553848-.1657448.4375877-.2783699.8959351-.4792404 1.2321663-.8058243.4648056-.4514732.9555321-.710125 1.605587-.6519012.0571556.0051231.1204414-.0581551.1645088-.0811348-.1287193-.4966049-.2501678-.9651566-.3575439-1.3794098.5856628-.0532036 1.0746422-.0886574 1.5613594-.1440163.674984-.0767746 1.4449425.3919754 1.6591034 1.0320396.1748276.5224915.4662933 1.0197678.3364754 1.6109619-.0149727.0681686.0855484.1617012.1325226.2434731.0719719-.0587234.1530342-.1095695.2129707-.1787224.0458413-.0528869.0649682-.1289329.0959816-.1946792z"/><path d="m52.6155014 36.0813637c.055542-.0846367.1110802-.1692657.1238976-.188797.2490921.5805092.525135 1.137722.7242432 1.7211876.1136551.3330536.1133995.7080307.1406822 1.0659409.0102539.1345444-.0466347.2742157-.0800438.4488106h2.083889c-.1047249-.1655006-.1775169-.2805405-.250309-.3955803.1132965.1283112.2265968.2566185.3398972.3849297-.1203461.0609474-.23452.1498528-.3620987.1780014-.5510445.121563-.8819237.529129-.9158554 1.0823822-.0161858.2639694-.1061401.5265083-.185524.7826157-.0735168.2371635-.210804.4578476-.2616043.6981316-.1356277.6414986-.1635056.6788445-.8224258.6867599-.0877228.0010529-.1755638-.0081596-.2633476-.012619.2089729-.048027.4231911-.0809593.6245537-.1508942.0912361-.0316849.1569595-.136837.2342606-.2086601-.0892448-.0473518-.1784363-.1344376-.267746-.134552-.2611046-.0003319-.5219803.0393295-.7834854.0529175-.1743736.0090561-.3816299.0613098-.519165-.0107574-.6835213-.358139-1.4353981-.411644-2.1699677-.5488701-.0746231-.0139427-.1358299-.0996819-.20327-.1520958.359169.055275.718502.1484337 1.077446.1469536.1414299-.0005798.3653641-.1866913.4100685-.3319244.4542961-1.4758682.8858604-2.9589005 1.3050194-4.4452248.0587347-.2082865.0164259-.4450648.0208853-.6686556z"/><path d="m89.9309845 55.2512703c-.4680634-.0644531-.9361267-.1289024-1.4041977-.1933556.0112915-.4121933-.2126923-.8152313.0112-1.240097.2733765-.5187759.3071747-1.1550293.9245071-1.4911423.8359375-.4551239 1.6878357.0573082 2.5724945-.220047-.1425781.5796585-.2594528 1.0548058-.3902817 1.5866966.2082748.0117836.382843-.0014153.545723.0361099.2653961.061142.5603867.1004601.7765579.2468948.4833069.3273849.9257355.7151146 1.3848114 1.0782661-1.4736099.0655557-2.9472122.1311151-4.4208145.1966745z"/><path d="m45.5729027 35.6389503c.2305984-.0716133.4842529-.1033936.6880341-.2213364 1.2879677-.7454185 2.5636978-1.51194 3.8473778-2.2648392.1205521-.0707054.2681885-.0952377.4032402-.1412163-.3510437.8869781-.333683 1.9722023-1.3465347 2.5046272-.0168076.008831-.0149193.0532341-.0311852.1194038.2597122.2072868.5263405.4327736.8066673.6396866.2118225.1563492.317337.0222092.3808365-.1750717-.0256042.1185722-.0238724.3202057-.0821838.3393974-.1467514.0482941-.3427544.0644493-.4795113.0040436-.4513512-.1993637-.885891-.2755318-1.3324699-.0042-.3875198.2354584-.5333099.5838814-.5326996 1.0281792.0002594.1879387-.080883.3759956-.1250305.5639954-.0451317-.0545425-.0791435-.1343727-.1370621-.1598625-.9341583-.4111214-1.7441978-.9364586-1.9563942-2.0404968-.0131035-.0681876-.0677605-.1283912-.1030846-.1923103z"/><path d="m81.7308884 51.1798058c.6227036.3499489 1.2501144.6918373 1.8670197 1.0517311.9210663.5373573 1.8317184 1.0926132 2.7546844 1.6266098.1441116.0833664.3299866.0945129.4965515.1390533-.0469666.090271-.1237717.17659-.1363373.2714233-.1359634 1.0259705-.9137344 1.461792-1.7224274 1.8453789-.2548294.1208763-.216835.2608681-.1728897.4488907-.0896759-.2137718-.2516556-.4258041-.2568512-.641613-.0261917-1.0860519-.7541428-1.5723267-1.777153-1.1712532-.1575165.0617523-.3500824.0341072-.5264359.0478096.3735504-.2843819.7471085-.5687675 1.1455383-.8720932-.0988388-.0893555-.142746-.1507225-.2023849-.1795616-.5112686-.247242-.7644958-.6559296-.9033813-1.2066498-.1187515-.4708671-.3721161-.9077873-.5659332-1.3597259z"/><path d="m46.3658676 29.9940147c.1172447.4912357-.2942696.6012173-.5853462.7677326-.2244148.1283779-.4951477.1729336-.7380905.2723484-.621315.2542477-.9950867.7445469-1.2500153 1.3428078-.1196213-.1003723-.2609138-.1837311-.3553123-.3039207-.5693207-.7248859-1.1271324-1.4587917-1.6903534-2.1884804-.333622-.4322243-.6701126-.8622341-1.0348663-1.3312473 0 .3535938.0004272.6276836-.0000916.9017677-.0010185.5364571-.0025673 1.0729122-.0038986 1.6093693-.0609779-.2026405-.1681671-.4038372-.1745377-.6081791-.0218658-.7010555-.0083923-1.4032154-.0083923-2.0051842.6525192.1415157 1.3344612.2573357 1.9948578.4478474.2784996.0803432.5180359.3093567.7623138.488472.1080284.0792084.1838264.2023678.2825127.3149967.3364296-.4563789.6375313-.8648453.8999748-1.2208614.5972061.656044 1.1267471 1.2377567 1.691246 1.8578701.0546646-.0898953.1323319-.2176152.2099991-.3453389z"/><path d="m54.6648178 46.4862976c.251873.0579071.5187874.0810699.7520256.1820259.3331718.1442146.6444588.3406143.9597092.5239906.1935616.1125946.3770599.2424812.5650787.3646011-.2060547.4182892-.4082413.8385544-.6209908 1.2534103-.0507507.0989685-.1204567.2032394-.2092819.2651062-.4269447.2973862-.5896759.7107353-.5701828 1.2136497-.1235275-.0967789-.2470512-.1935616-.414135-.3244667-.0650482.1497269-.0926437.2816505-.1682854.3743858-.2167473.2657051-.4116707.5804596-.6903648.7576981-.5349197.3401871-1.1217155.5988045-1.7270699.9119987-.0535965-.3101234-.1144295-.662117-.1752739-1.0141068.0960159.2127571.1920433.4255142.310955.688961.0688095-.106266.1160011-.1592331.1413078-.2211418.6071091-1.4853592 1.2163811-2.969883 1.8102341-4.4605446.0607378-.1524732.0264627-.3428037.0362741-.5155675z"/><path d="m88.5439453 50.5447502c-.2819672-.7785416-.9228058-1.1147156-1.6459885-1.374649-.2622147-.0942497-.5016022-.2697487-.7287674-.4386215-.2110519-.1568947-.2325592-.36026-.0244064-.5548096.0475616.1861839.0951233.3723679.1305313.5109863.3823318-.4008522.7185974-.7497902 1.0503159-1.1030045.1297302-.138134.28759-.2676964.3658295-.4328156.194191-.4098625.3811951-.2738686.5634766-.0147781.2059555.2927475.3905487.6005287.5449066.8403587.4502335-.2837486.8316574-.6514015 1.2803726-.7752609.5832596-.1609955 1.2230225-.1173439 1.7416-.5114708.0181198.053524.036232.107048.0543518.1605682-.1559753.1402245-.3373032.2607841-.4638214.4238586-.8224258 1.0600624-1.6360931 2.1269913-2.4442596 3.1979942-.1329651.1762125-.251236.2322542-.424141.071644z"/><path d="m59.9383507 45.0968666c-.231472-.0069656-.464653.0012512-.6940079-.0245323-.3271561-.0367813-.6890945-.0250511-.9677734-.1676903-.3683167-.1885071-.721508-.2765236-1.1276283-.2696533-.1865921.0031548-.3750229-.1025734-.5626183-.1589355.1300545.0203819.2594872.0469475.3902626.0601234.7256851.073101.774929.0362129.9765778-.6615334.3239937-1.1210785.6651573-2.2374191.9715919-3.3632393.1358566-.4991264.2046432-1.0165024.303875-1.5255966.0609512.0109138.1638412.0044708.1766052.0353203.2152939.5203667.4670563 1.0326347.6115112 1.5732079.1257286.4705086.1274529.9741554.1944618 1.5538864.1767387-.0523643.4373665-.1295853.6979942-.2068062-.0573807-.0973816-.1147652-.194767-.1721458-.2921524.3714828.0410919.4307976.2043953.1889.5363464-.2988358.4100723-.6018867.8170815-.90308 1.2254066-.2828827.5491715-.2048721 1.1164475-.084526 1.6858483z"/><path d="m88.5439453 50.5447502c.172905.1606102.2911758.1045685.4241409-.0716438.8081665-1.071003 1.6218338-2.1379318 2.4442596-3.1979942.1265182-.1630745.3078461-.2836342.463829-.423851-.0008698.5335083-.0397644 1.0704155.0074692 1.5996284.0534744.5992851-.14534 1.08395-.5592957 1.5168343.5267868.197094 1.0078888.3770981 1.4495392.5423431-.0743332.2450333-.1227112.4044838-.1710739.5639305-.3669434-.205143-.7329865-.2200851-1.1307449-.0618515-.1779633.070797-.427597.1040306-.5947037.0343742-.6490784-.270546-1.2265167-.0782471-1.8062057.1921577-.0509033.0237427-.1086655.0327568-.2040176.0604591-.1096725-.2559966-.2164306-.5051955-.3231964-.7543868z"/><path d="m40.7078934 31.0643921c.0013313-.5364571.0028801-1.0729122.0038986-1.6093693.0005188-.2740841.0000916-.5481739.0000916-.9017677.3647537.4690132.7012444.8990231 1.0348663 1.3312473.563221.7296886 1.1210327 1.4635944 1.6903534 2.1884804.0943985.1201897.2356911.2035484.3553123.3039207-.0762024.184906-.152401.3698196-.2415085.5860672-.7058487-.3446922-1.3988457-.4998703-2.1383438-.2501183-.1109428.037468-.2667427.005455-.3814163-.0428162-.4196892-.1766586-.8218956-.1561966-1.2198944.0547066-.0339165-.1593628-.0678368-.3187294-.1192894-.5604935.4253845-.1651764.8865013-.3442268 1.3717232-.5326385-.129139-.2058791-.242466-.3865508-.355793-.5672187z"/><path d="m65.6668777 41.8120232c.1748123-.1465187.349617-.2930412.5244293-.4395599-.2314148.7682266.1362839 1.4252777.2393646 2.1138268.0404663.2703094-.0703583.5674515-.1339417.8474617-.033905.1493111-.1139755.288147-.2009811.4989891h.6496201c-.2161026.0679398-.4284592.153244-.6489487.2008781-1.0746384.2321587-1.9644852 1.311573-1.9898148 2.4224701-.0054016.2369728.0353851.5532188-.364399.2743492.4300957-.1048088.2279205-.3052864.0643311-.4805603-.3367271-.3607941-.750103-.6021271-1.2225685-.7429352.5796051.1449547.8907318-.1476898 1.1003571-.6476517.0951004-.2268257.2489433-.4287186.3728638-.6438141.6459351-1.1212196 1.2908096-2.2430458 1.958374-3.40345-.1550216 0-.2518539 0-.3486862-.0000038z"/><path d="m45.8415337 40.0444107c.2903824.2988396.5807686.5976791.871151.8965187-.658638.1143723-1.3657875.0823669-1.8995171.586319-.2108383.1990776-.3892212.4321785-.5873146.6451988-.2531548.2722397-.515873.5357056-.7651138.8114052-.1053886.1165733-.2106934.2438698-.2749825.3849907-.210331.4617081-.4296532.5243721-.8879929.229496.144577.0119667.2939491.0515327.4322662.0274925.118515-.0205994.2243767-.1140213.3358345-.1752357-.0114746-.0587006-.022953-.1174049-.0344276-.1761055-.7437515-.1407585-1.4874992-.2815208-2.2469444-.4252548.0251389-.0350952.0638733-.0891762.1026077-.1432571.0690079-.022953.1433754-.0360603.2062378-.0702972 1.5834694-.8624078 3.1657257-1.7270319 4.7481957-2.5912706z"/><path d="m85.2513275 58.9301453c.0697632-.0732727.1395187-.1465492.2092819-.2198257.0265427.0171852.0530777.0343781.0796204.0515671-.0357437.1426659-.0714874.2853394-.1247711.4980049.6176529-.0461884.7256546-.6833267 1.1620712-.8592987 1.6246109.8919716 3.2492218 1.7839432 4.9005585 2.6905899-.5164642.1517563-.9413834.2766113-1.3663025.4014702-.1446457.0253296-.2977448.0295258-.4311829.0828857-.1011581.0404358-.1772385.1435547-.264473.2187881.1055603.0570221.2128983.1646042.3163147.160965.2455826-.0086555.4893112-.0699959.7337875-.1100388-.2590179.0865822-.5133591.2054138-.7793427.2441063-.1085815.015789-.2617188-.1232414-.3607941-.2247963-.2140579-.2194099-.4096146-.4573402-.6063919-.692997-.1672211-.200264-.351181-.3927345-.483345-.6150436-.5646667-.9498024-1.4245148-1.2932816-2.4752045-1.1835823-.3938749.0411262-.4829405-.1307984-.5098265-.4427948z"/><path d="m91.2542267 45.4324188c.0523224.3553886-.1255646.499382-.4595642.5486526-.4877167.0719414-.9719925.1691246-1.4556122.2661133-.2725906.0546646-1.6483154-.7964172-1.6476517-1.0595093.0022278-.8874969.0295029-1.774929.0471954-2.662384.3941574.4993515.8130417.9817619 1.1718063 1.5053635.1731949.2527809.2494812.5783348.3375168.8803062.0414581.1421814.0071106.306469.0071106.4827919.5435028-.1484261 1.0282898-.2808189 1.5864487-.4332466-.0407715.2777557-.0813293.4208641-.0759964.5622406.0038834.1028137.0684204.2033386.1059189.3048897.0965576-.0669785.2014999-.1249847.2864151-.2043991.0488739-.0457039.0653458-.1260567.0964127-.1908188z"/><path d="m44.6801949 22.4140415c.1104088-.0425777.2208214-.0851555.331234-.1277313.0413361.1187363.1182556.2373981.1185036.3562222.002491 1.1755867-.0078354 2.3512039-.0142097 3.5268116-.0008736.161665-.0135536.324728.0027657.4847412.0424843.4165039-.1006088.5911789-.5527802.637558-.3168945.0325012-.6268082.258728-.9109955.442934-.2103729.1363621-.3712692.3563862-.6512413.1557293.077198-.1365719.2312851-.281723.2171783-.4081039-.0423737-.3797245-.1503448-.7521286-.2480545-1.1972237h1.5866356c-.4816971-.8197041-.0975113-1.4301147.1858482-2.0947552.1983528-.4652557.2118797-1.0121365.2880707-1.5255108.0407447-.2745266-.1211663-.3271522-.3529549-.2506714z"/><path d="m94.351799 55.0545959c.0545273.0122299.1090622.0244637.2509613.0562859-.7555008.570034-1.4582291 1.0934715-2.1499252 1.6311073-.0820999.0638199-.1201401.2008095-.1502075.3115921-.0594559.2191048-.0990524.4435997-.1468506.6658783-.0519867-.4593391.1388245-.9791374-.3303452-1.3345299-.0920639-.0697403-.1858139-.1861267-.2836914-.1914864-.7034073-.0385399-1.0536346-.6655617-1.6107559-.9422112 1.4736023-.0655211 2.9472046-.1310805 4.4208145-.1966361z"/><path d="m40.2511597 39.2013741c-.0199547-.0210533-.0593376-.0445404-.0570488-.062809.075531-.6031418-.3686104-.7787552-.7770615-1.0478134-.466362-.3072014-.8554573-.7317009-1.278141-1.105217.1361809-.0630836.2745399-.185009.4082527-.1801071 1.2529984.0459213 2.5052032.1135597 3.7576447.1749268-.4144478.3506203-.7704277.7669106-1.3538742.8892326-.4149666.0869942-.6612968.3995094-.6716461.8541336-.0036317.1593475-.0184289.3184432-.0281258.4776535z"/><path d="m49.5184593 42.0159721c-.5271683-.5612679-1.0543404-1.1225319-1.5815125-1.6837959.0962372.0241051.1924744.0482063.2887077.0723076.431015.447567.86203.8951302 1.293045 1.3426933-.0000761.0895996-.0001563.1791954-.0002402.268795z"/><path d="m54.0236549 45.3638344c.2234459.0566368.4529381.0972977.6671181.1784019.0769768.0291481.1170731.1556892.1739998.2377853-.1009483.0258141-.2403908.1075859-.2968559.0687447-.5352516-.3681908-1.1373711-.350338-1.7391167-.32444-.3048935.0131187-.6081963.0631294-.9122238.0964546.2714005-.0675278.5394936-.1661987.8149529-.195385.4280738-.0453567.861164-.0434379 1.2921256-.0615615z"/><path d="m60.3841553 47.2995262c.4494438.2180176.8988953.4360352 1.3483391.6540489-.0153694.0655708-.0307426.1311417-.0461159.1967125-.1661148-.0129967-.3598976.0239334-.4924927-.0495491-.2627411-.145607-.4916992-.3521652-.734623-.5335274-.0250358-.0892295-.0500755-.1784553-.0751075-.2676849z"/><path d="m47.4140091 39.6206055c-.1474342-.0014877-.2948647-.0029716-.4422951-.0044556-.1060944-.3652611-.2121887-.7305222-.3182869-1.095787.031662-.0156364.063324-.0312767.0949821-.0469131.2218667.3823852.4437333.7647704.6655999 1.1471557z"/><path d="m83.9571075 60.6324005c-.1498566.1970825-.2821045.4122734-.4576263.5829697-.0780945.0759468-.2434082.0622063-.3691254.0891724-.0200043-.0520058-.0400085-.1040077-.0600128-.1560097.2528992-.2134972.5057907-.4269867.7586899-.6404762.0426865.0414504.0853806.0829009.1280746.1243438z"/><path d="m71.853035 59.1156578c.0032425.0432549.0098419.0865631.0092316.1297607-.0101242.719101-.0121841.7017746-.7371368.7795753-.2909698.0312233-.5717621.1572685-.8571854.2401505.1102676-.3841782.4644241-.3317947.724472-.3440514.4377594-.0206299.7839966-.0644379.7475891-.6253967-.0037155-.057331.0734177-.1198997.1130295-.1800384z"/><path d="m86.4182739 57.1769066c-.1192093.2674065-.2384186.5348091-.3576202.8022156-.0345764-.1051941-.0760269-.2087135-.1019669-.3159904-.0310745-.128479-.0488968-.2601624-.0724564-.390461.1167832-.3683854.3587113-.0415154.5320435-.0957642z"/><path d="m59.9383507 45.0968666c-.1203461-.5694008-.1983566-1.1366768.0845222-1.6858482.0156975.6017799.043026 1.2036858.0363655 1.8052139-.0011826.107235-.1223221.2626266-.2258339.3063316-.1207123.0509605-.2829018.003685-.4270935-.0009689.1696396-.151226.6377678.0714493.5320397-.4247284z"/><path d="m55.8636169 51.1092682c.0080414-.0680428.0160866-.1360893.0241318-.2041321.2730255.1275444.5460548.2550888.9234848.4314041-.489975.2130699-.7349014.0475083-.9476166-.227272z"/><path d="m85.8862305 57.2726631c.0235596.1303062.0413818.2619896.0724564.3904686.0259399.1072769.0673904.2107964.1019669.3159904-.1893997.3015518-.3609085-.0378494-.5425339-.0151405.1227035-.230442.2453994-.4608764.3681106-.6913185z"/><path d="m88.3317337 42.5551224c-.0549164-.1253052-.1010666-.2554741-.1670914-.3746262-.0746841-.1347923-.1672134-.259697-.251976-.3889046-.0460815.0139503-.0921631.0279007-.138237.041851-.0118256.2314262-.0236435.4628487-.0354538.6942787-.0352631-.1375198-.1059265-.2776451-.0960464-.4118385.0103378-.1404076.0980835-.275116.1520004-.4123154.1436081.0996819.334816.1703377.4180374.306839.0914307.1499558.0834351.3605424.1187668.544716z"/><path d="m61.0821609 48.6280518c.2624779.1437836.5240173.2893257.7879524.430378.0900307.0481148.1987152.0686378.2773705.1295509.5780411.4476242 1.3910103 1.5039597 1.1315422 2.4077339-.0809364.2819176-.2801132.5380249-.4591408.7809029-.1281319.1738396-.3333511.2900467-.466362.4613342-.1217651.1568069-.1928101.3530006-.3447342.643898-.3668938-.4118919-.7042694-.790657-1.0824623-1.2152405-.3612442.8385811-1.1005592.9987946-1.8644829 1.1607437-.3450241.073143-.6601868.2871819-.980732.4335709-.0821419-.7184105-.1928482-1.437767-.2319298-2.1609993-.0140114-.2593269.099472-.5548973.2363853-.78545.1640549-.2762642.0474472-.3591423-.1772652-.4374428.2199326.0013809.6099472-.05756.3678055.3178902-.5841026.9056435-.0799141 1.7728081-.0819054 2.771286.1218224-.1421471.1621895-.17976.1913414-.2246513.8763313-1.3493423 1.7604637-2.693821 2.615612-4.0564804.1062396-.1692811.0577777-.4356461.0810053-.6570244z"/><path d="m59.2286301 38.9858093c-.0992317.5090942-.1680183 1.0264702-.303875 1.5255966-.3064346 1.1258202-.6475983 2.2421608-.9715919 3.3632393-.2016487.6977463-.2508926.7346344-.9765778.6615334-.1307755-.013176-.2602081-.0397415-.3902626-.0601234-.6474342-.4338264-1.412693-.7751427-1.5198822-1.6785545-.0361099-.3043785-.0058098-.6427193.0937691-.9311409.1582909-.4584656.4002037-.8880539.6508217-1.4241447.3664627.2361107.7830429.504509 1.2373009.7971878.0488167-.1256371.10429-.2400017.1380653-.3604546.1215553-.4335136.395443-.7268562.7735138-.9674187.440792-.2804642.8473243-.614769 1.2687187-.9257203z"/><path d="m65.944725 49.7616234c-.8458557-.8677864-1.0123367-2.1420746-.3502197-3.0784073.1711578-.2420311.4745865-.4253502.7556458-.546833.4452286-.1924553.9228134-.3100662 1.4643021-.4843102.0412521.1702728.1174393.4127426.1553268.6610565.0387955.2542572.0400925.5142403.0640945.8631439 1.1938171-.7961273 2.2002487.1012917 3.2792053.1949997-1.3575058.6382828-2.711174 1.2849655-4.0748596 1.909771-.4170227.1910706-.8615646.3220673-1.2934952.4805794z"/><path d="m65.6668777 41.8120308c.0968323-.0000038.1936646-.0000038.3486862-.0000038-.6675644 1.1604042-1.312439 2.2822304-1.958374 3.40345-.1239204.2150955-.2777634.4169884-.3728638.6438141-.2096252.4999619-.520752.7926064-1.1003571.6476517-.9136848-.3585129-1.6338234-1.4244804-1.526844-2.3811302.0343628-.3072586.2566681-.6076088.4385757-.8807602.2376976-.3569107.5206833-.6836586.8388863-1.0939064.2911224.3094406.6308632.6705513.9779205 1.0394402.0076447-.0015068.0522346.0021896.0610847-.0138397.3674507-.6657791.95261-.993721 1.6826363-1.1251869.2110826-.0380098.407509-.1574289.6106492-.2395288z"/><path d="m52.6155014 36.0813637c-.0044594.2235909.0378494.4603691-.0208855.6686554-.4191589 1.4863243-.8507233 2.9693565-1.3050194 4.4452248-.0447044.1452332-.2686386.3313446-.4100685.3319244-.3589439.0014801-.718277-.0916786-1.077446-.1469536-.2300797-.1805267-.4571991-.3649902-.6908302-.540802-.6001549-.4516144-.8105965-1.3382378-.4673882-2.0181694.1121025-.222084.270916-.4238739.3589745-.6538506.0810928-.2117882.095871-.4489708.1591911-.774292.4639854.2975845.8861732.5683632 1.3467407.8637581.0341682-.0981026.0754204-.1977272.1036682-.3009148.1229134-.4489326.3988304-.7623177.7939491-1.008873.4196893-.2618865.8074266-.574974 1.2091142-.8657073z"/><path d="m65.944725 49.7616234c.4319305-.1585121.8764725-.2895088 1.2934952-.4805794 1.3636856-.6248055 2.7173538-1.2714882 4.0748596-1.909771-.2350159.4515572-.519043.8851852-.6925583 1.3592606-.2147141.5865974-.5998077.9573631-1.2180557 1.1792374.3856812.4182205.7378769.8001213 1.0391769 1.1268463-.4589462.3159485-.8482819.5784569-1.2317886.8492279-.6468658.4567108-1.5675049.2926674-2.1857529-.2017059-.6469879-.5173531-.9553832-1.1495095-1.0793762-1.9225159z"/><path d="m45.8415337 40.0444107c-1.5824699.8642387-3.1647263 1.7288628-4.7481956 2.5912704-.0628624.0342369-.1372299.0473442-.2062378.0702972.1932869-.5190773.3348312-1.0661774.5960388-1.5484657.2133408-.3939133.5695648-.7104492.9174385-1.1271706-.314167-.258831-.6995049-.5762939-1.0494347-.8645859.5299606-.4034348.9286156-.7071495 1.3275299-1.0105324.4932632-.3751335 1.0543137-.4257088 1.5782967-.161602.8373222.4220468 1.6110382.940281 1.5845642 2.050789z"/><path d="m54.6648178 46.4863014c-.0098114.17276.0244637.3630905-.036274.515564-.593853 1.4906616-1.203125 2.9751854-1.8102341 4.4605446-.0253067.0619087-.0724983.1148758-.1413078.2211418-.1189117-.2634468-.2149391-.4762039-.310955-.688961-.1201897-.4766083-.2787094-.9480247-.3441887-1.4320374-.0320435-.2368507.1089134-.4971085.172699-.7512665-.5194168-.0482635-1.0032501-.0932236-1.433876-.1332359.1390686-.6002884.2571068-1.1170921.3787613-1.6330414.1382446-.5863266.6026459-.9441872 1.100605-1.0269547.8325004-.1383705 1.73843-.3009261 2.4247703.4682465z"/><path d="m48.6413231 43.2496185c-.0282135.1887817.0115814.439209-.0950851.5568771-1.1580162 1.2774467-2.3386803 2.5343742-3.5149002 3.7952805-.049118.0526543-.1152687.0894127-.1734848.1335793.0026093-.05756.0052147-.1151199.0078125-.1726799.0568008-.219162.1441765-.4355774.1641655-.6580429.0439796-.4894524.0539131-.9819679.0777435-1.4732285.1627312-.2462006.3254585-.4923973.4870071-.7368088-.4663239-.22435-.91782-.4415627-1.327076-.6384583.3553085-.5028839.6756783-.9415054.9799767-1.3910065.3302536-.4878349.8585777-.6358032 1.3520584-.5645714.799942.1154596 1.6128388.322735 2.0417824 1.1490594z"/><path d="m61.0821609 48.6280518c-.0232277.2213783.0252342.4877434-.0810051.6570244-.8551483 1.3626595-1.7392807 2.7071381-2.615612 4.0564804-.0291519.0448914-.069519.0825043-.1913414.2246513.0019913-.9984779-.5021973-1.8656425.0819054-2.771286.2421417-.3754501-.1478729-.3165092-.3678055-.3178902-.3602562-.1057243-.7205086-.2114525-1.026783-.3013382.2527122-.5356712.4863663-1.025135.7149239-1.516964.259552-.5585327.7705612-.8262329 1.3094292-.8154907.7863693.0156746 1.6249542.0474053 2.1762885.784813z"/><path d="m49.5184593 42.0159721c.0000839-.0895996.000164-.1791954.0002403-.268795.3859406.148819.7718773.2976379 1.2253609.4725037.0227394.1597252.0605125.4250565.1214867.8533707-.5083389-.3988991-.9277115-.7279892-1.3470879-1.0570794z"/><path d="m45.1075745 45.4314041c-.0238304.4912605-.0337639.9837761-.0777435 1.4732285-.019989.2224655-.1073647.4388809-.1641655.6580429.0243301-.5664215.0385704-1.1335793.079834-1.698761.0107536-.1473312.1057624-.2885094.162075-.4325104z"/><path d="m79.9590225 69.6091614v.7791748c-.0454025.0341034-.0908051.0682144-.1362076.1023178-.6529922-.9515839-2.1934738-.7434998-2.4817886-2.1773071-.4423828.351387-.818718.6503296-1.175148.9334488-.3190002-.5312195-.5782089-.983551-.8578186-1.4228973-.3006287-.4723587-.202713-.9864349.0161362-1.3915787.3451767-.6390076.8314514-1.197403 1.591507-1.4146423.3455811-.0987778.6817169-.2306061 1.0221405-.347435-.2143936.2315903-.214325.4691086-.0903015.7595139.3548965.8310165.6774063 1.6758118 1.0181885 2.5129318.282341.6935654.5725479 1.3839264.8921814 2.1551285.0924834-.2247316.1467971-.3566896.2011107-.4886552z"/><path d="m76.2669449 62.5589676c-.2380295.4035034-.6509476.3793869-1.0385361.4441032-.3500977.0584526-.7159271.1172142-1.0320129.2664871-.8473969.400219-2.3504944.089695-2.8796616-.6763649-.1483383-.2147522-.1880951-.5157509-.2381516-.7845383-.0783844-.4208641-.1231384-.8479767-.1903763-1.331749h1.4216919c0-.4807816-.0743484-.9125366.0206146-1.3031197.0977707-.4021263.3860092-.7540131.5422897-1.147213.1048965-.2639198.1251221-.5614929.2038574-.9442978.1244888.1709061.1954727.2683563.2664642.3658066-.3470383.231102-.0550919.4743233.004303.694458.3794174 1.4060555.7739868 2.8080521 1.1702118 4.209507.1325226.4687462.3231888.609848.8037109.5227051.3236467-.058708.630974-.2073668.945595-.3157843z"/><path d="m76.2669449 62.5589714c-.314621.1084137-.6219482.2570724-.9455948.3157806-.4805222.0871429-.6711884-.0539589-.8037109-.5227051-.396225-1.4014549-.7907944-2.8034515-1.1702118-4.209507-.0593948-.2201347-.3513412-.463356-.004303-.694458.2866669.2239685.5473404.499218.8657303.6606445.5689545.2884674.9980774.654892 1.1008224 1.3172531.0080185.0516663.0543365.0973969.0878983.1544724.4509277-.2900162.8899384-.5723763 1.2676926-.8153343.2563553.6072159.5012589 1.1236992.6934662 1.6591072.2268524.6319046-.0532913 1.3830948-.6051025 1.763546-.1677781.1156807-.3247605.2470322-.4866868.3712006z"/><path d="m90.1117859 61.4926529c.4249191-.1248589.8498383-.2497139 1.3663025-.4014702-1.6513367-.9066467-3.2759476-1.7986183-4.9005585-2.6905899-.102272-1.1581154 1.4448929-2.332489 2.4937668-2.1826859.2220383.0317078.4552917.1246033.6395798.2524414.4161224.2886391.804863.6167412 1.3419724 1.0358696-.3600235.2890663-.7387161.5931282-1.111763.8926506.3381729.306427.6406403.5199203.8591537.7991257.1538391.1965446.1791611.4889374.2872467.7270203.2139893.4713669.4455414.934761.6545105 1.3695831-.5136948.0624123-1.0719529.1302338-1.6302109.1980553z"/><path d="m83.1465759 59.2934265c-.0994949.0555153-.1952438.1196213-.2991791.164978-.3392487.1480293-.6707916.3308487-1.0254364.421917-.3944016.1012764-.6401978-.0718498-.757103-.5065041-.4089584-1.5205421-.858551-3.030117-1.2815475-4.5469742-.0398941-.1430511-.0013199-.3079872.000824-.4627533.2933884.2370949.5589294.5267334.8860931.7000809.6393814.3387833 1.1441269.7565422 1.2236404 1.5688972.482132-.315155.9070663-.592926 1.2793808-.8362999.2194672.4834251.3887024.8917694.5869446 1.2855072.4103776.815075.1842118 1.6529695-.6136169 2.2111512z"/><path d="m87.4665909 65.3806229c.009613.1862335.0192184.372467.033432.6480789-.4476471-.4678879-.8541946-.8840942-1.2509537-1.309433-.7265625-.7788773-1.4585342-1.5532951-2.1622772-2.3524475-.165596-.1880531-.2278519-.4670982-.3376617-.7042961.2931061-.9090958 2.0823135-1.5064087 2.9121246-1.0691185.3029785.159668.5256348.4882507.7566299.7635193.2445221.2913742.455368.6110115.7398453.9985771-.144516.0890694-.3575592.2401772-.5880356.3568459-.2296295.11623-.4767456.1979027-.831398.3413048.9326172.6201934.6855316 1.5105781.7282944 2.3269691z"/><path d="m79.9590225 69.6091614c-.0543137.1319656-.1086273.2639236-.2011108.4886551-.3196335-.7712021-.6098404-1.4615631-.8921814-2.1551285-.3407822-.8371201-.6632919-1.6819153-1.0181885-2.5129318-.1240234-.2904053-.1240921-.5279236.0903015-.7595139.9296799-.6314621 2.0889969-.6056671 2.9589691.0906601.1618881.12957.3165207.3239288.3736343.5180664.1615753.5491486.2707901 1.1137085.4181671 1.7476044-.4338379.0374451-.9289551.0801697-1.4288025.1233139.0585709.3031464.2024307.612854.1537476.8885727-.0942077.5336761-.2968444 1.0482254-.4545364 1.5707016z"/><path d="m71.6752472 23.2996349c-.0999908.1075592-.2505417.1985588-.292038.3252735-.3614426 1.1034813-1.2497864 1.7353325-2.4356537 1.7077827-.6448898-1.6744175-1.2871933-3.3498363-1.9406967-5.0208759-.0416718-.1065617-.1702499-.1791382-.2583923-.2675266.0039597-.081274.0079269-.1625481.0070496-.1446075.5109024.2888088 1.0634689.5425205 1.5464859.8922749.4061584.2940998.731369.6999989 1.1460342 1.1093388.2445679-.2143307.5988007-.4866543.9026947-.8067703.1573029-.1656933.0506134-.3259563-.1823425-.3620281.1002731-.034647.2005463-.069294.373703-.1291218-.2120819 1.1970805.5324173 1.9140605 1.1331558 2.6962603z"/></g><path d="m73.7949829 24.0104237c.5722656.1879177 1.133461.4284153 1.7193222.551733.9356003.196928 1.6691818-.2016048 2.2408142-.9346085-.1152878.6587505-.6678238.788044-1.1757889.9739513-.7959442.2912999-2.2518768-.0162124-2.7843475-.5910758z" fill="#3e54a3"/><path d="m74.8529053 31.4169655c.5223236-.0091248 1.0458527-.0429611 1.5665207-.0177822.2957153.0143013.5867615.1252136.8798981.1926193-.5808945-.0005112-1.1624756.0152283-1.7423477-.0094223-.2366105-.0100594-.4694901-.1076469-.7040711-.1654148z" fill="#3e54a3"/><path d="m76.3439789 25.3562889c-.499649-.0734367-.997551-.1799545-1.4996796-.206604-.2580872-.0136986-.5237427.1150417-.7859726.1794147.1325836-.0829086.2658844-.2376022.3976212-.2362804.5659866.0056763 1.131958.0518646 1.6966248.0990448.0679092.0056744.1277999.1072827.1914062.1644249z" fill="#3e54a3"/><path d="m77.9325256 30.8189716c-.1454849-.431818-.3007889-.8607044-.4310684-1.29706-.0448837-.1503105-.0274124-.3192387-.0384293-.4796696.067482.1238098.167099.2404461.1966705.3727379.103943.4650898.1838151.9355622.2728272 1.4039917z" fill="#3e54a3"/><path d="m72.9027176 26.1228809c-.0962372.366642-.2598724.5376606-.6461029.2809277-.1643219-.1092186-.3795013-.1419106-.6296616-.2297935.1183014-.1037331.2097626-.1839275.3012238-.2641239.2403793.435728.4828567.4887218.9745407.2129897z" fill="#3e54a3"/><path d="m66.2865601 19.3284836c.0041733.2917595.0304031.5855122.004303.8745384-.0158005.1750259-.1126709.3427315-.1731186.5137253.0002365-.3219986-.0163422-.6452885.008316-.9654026.0111084-.1442204.1044617-.2821045.1604996-.4228611z" fill="#3e54a3"/><path d="m75.9310226 18.0126343c-.1713715.0658646-.3412552.1359882-.5144196.1967335-.39254.1376953-.7866898.270771-1.1801834.4057236.4518662-.5186749 1.1035996-.4751645 1.694603-.6024571z" fill="#3e54a3"/><path d="m71.2458801 28.682909c-.2531509.5856705-.175705 1.1732826-.0103378 1.7614117-.3842545-.535141-.3798904-1.2795239.0103378-1.7614117z" fill="#3e54a3"/><path d="m76.6158066 18.1805649c.1125107-.0986862.225029-.1973743.3375397-.2960606.0349274.0147305.0698395.0294609.1047668.0441914-.3473053.7365112-.0484695 1.4307995.0359802 2.1471558.0471573.39995-.1708984.831171-.2811127 1.2976894.4311371.1290569.9182587.2748756 1.33741.4003468-.2570648.5443039-.4845734 1.0056591-.6943436 1.4749413-.3225861.721653-1.2353668 1.0191822-2.0429688.9055271-.8663635-.1219234-1.4253387-.6529675-2.0542145-1.1260166.1930466-.1009045.4615326-.1516209.5673065-.3105946.9154968-1.3759766 1.8049316-2.769392 2.6890717-4.1658821.0559922-.0884343.0029069-.2459279.0005647-.3712979z" fill="#abb8de"/><path d="m76.6158066 18.1805649c.0023422.12537.0554276.2828636-.0005646.3712978-.88414 1.3964901-1.7735748 2.7899055-2.6890717 4.1658821-.1057739.1589737-.3742599.2096901-.5673065.3105946-1.0868301-.3116455-1.8690643-1.4149761-1.7333221-2.5317783.0340424-.2800636.2332077-.5581512.4090118-.7987709.2860031-.3914471.6152802-.7512741 1.0284271-1.2469864.1078262.1447449.2618942.3529263.4174576.5599842.1550751.2064018.3116531.4116707.4938049.6520424.1608124-.2110157.2657394-.441988.4449463-.5624752.2848129-.1914959.613205-.3239956.9341125-.454546.415207-.1689148.8411714-.311388 1.2625047-.4652443z" fill="#abb8de"/><path d="m73.0969696 26.7461052c.5356979-.7872028 1.2824173-1.1990108 2.2307892-1.2354145.4953918-.0190163.8535767.229147 1.1567535.6059494.2792816.3471127.5942764.6655025.9633179 1.0737362-.3523941.2362766-.7623367.5111389-1.1692276.7839603 0 .0290146-.0122528.0735283.00177.084507.5429306.4253044.7887268.975832.8088303 1.6701603.0102997.355751.1630173.7073803.2513733 1.060873-.2082901-.0957851-.4473648-.1536312-.6198425-.29356-1.0676651-.8661804-2.1046753-1.7707996-3.1861343-2.6189804-.4033128-.3163166-.6524812-.6130753-.4376298-1.1312313z" fill="#abb8de"/><path d="m66.7484665 20.0442886c.0881424.0883884.2167206.160965.2583923.2675266.6535034 1.6710396 1.2958069 3.3464584 1.9406967 5.0208759-.4421616.4969654-.9493103.7450409-1.6595764.6868896-.562561-.0460606-1.1290894.0269585-1.5271988-.4623528-.2021332-.2484322-.392189-.5314827-.4941864-.8307552-.1511536-.4434834-.2191696-.9152985-.3441849-1.4711208.4001236-.0353184.8787384-.0775681 1.367569-.120718.0060883-.0094337.0404739-.0410156.0343246-.0562572-.3188095-.7906132-.074707-1.5046501.2627411-2.2234459.1136628-.242113.1109467-.5388622.1614228-.8106422z" fill="#abb8de"/><path d="m73.0969696 26.7461052c-.2148514.5181561.034317.8149147.4376297 1.1312313 1.081459.8481808 2.1184692 1.7528 3.1861343 2.6189804.1724777.1399288.4115524.1977749.6198425.29356.0742264.0969868.1484451.1939735.1911163.2497349-.6611786-.0212097-1.3126984-.0102768-1.9565048-.0754871-.34935-.0353813-.6879349-.193531-1.0263977-.3106842-.1171112-.0405369-.2191925-.1244812-.3465729-.19944-.2132645.4983616-.4095612.9570656-.5792007 1.3534813-.4626923-.2958164-.8529205-.5569344-1.2544098-.7994308-.7098541-.4287548-.9604797-1.2271671-.726265-2.015934.202652-.6824646.4391098-1.2867966 1.1068726-1.6592026.1716233-.0957127.2347718-.3859425.3477555-.5868092z" fill="#abb8de"/></svg>