<svg id="Layer_1" data-name="Layer 1" xmlns="http://www.w3.org/2000/svg" viewBox="0 0 133.96 78.79"><defs><style>.cls-1{fill:#a83131;}.cls-2{fill:#ce6363;}.cls-3{fill:#abb8de;}</style></defs><title>brown</title><path class="cls-1" d="M62.77,73.14l-.47-.3a1.64,1.64,0,0,1-.79-1.62c.06-.49-.13-.55-.55-.55H45.69c-.6,0-.61,0-.61-.6V50.63c0-.66,0-.66-.63-.71A1.8,1.8,0,0,1,43,47.29a1.69,1.69,0,0,0-.31-2.12,2.2,2.2,0,0,0-1.75-.36,1.78,1.78,0,0,1-2.25-2A2.21,2.21,0,0,1,39,42c.14-.22.16-.34-.05-.51a1.75,1.75,0,0,1-.61-1.58c0-.08,0-.2,0-.25a5.92,5.92,0,0,0-1.28-1.08,1.91,1.91,0,0,1-1.31-2A1.77,1.77,0,0,1,37.19,35a2.75,2.75,0,0,0,.74-.43A8.34,8.34,0,0,0,38.6,34l-.29-.31a1.8,1.8,0,0,1,.12-2.8.79.79,0,0,0,.34-.66,4.09,4.09,0,0,0-.1-1.55,1.76,1.76,0,0,1,1.95-2.3l.25,0a3,3,0,0,1,.35-.95,8.41,8.41,0,0,1,1-.83,1.92,1.92,0,0,0,.51-.47,3.21,3.21,0,0,0,.49-1.7A1.59,1.59,0,0,1,44.61,21c.41-.07.48-.25.48-.61q0-6.25,0-12.49V7h.63Q60.79,7,75.88,7a1.85,1.85,0,0,1,1.38.55l9,8.6a1.12,1.12,0,0,1,.31.71q0,8.79,0,17.56a1.05,1.05,0,0,1-.29.67c-.9.86-1.83,1.69-2.76,2.52-.27.25-.26.39,0,.61,1,.72,1.91,1.46,2.86,2.2a.65.65,0,0,0,.68.12,1.8,1.8,0,0,1,2.42,1.31c.1.34.45.59.65.91a1,1,0,0,0,1,.45,1.77,1.77,0,0,1,1.55,1.25,1.21,1.21,0,0,0,.38.54,1.78,1.78,0,0,1,.65,2.26c-.25.58,0,1.12,0,1.69,0,.09.16.19.26.27A1.79,1.79,0,0,1,94.08,52c-.25.22-.19.32,0,.5a3.61,3.61,0,0,0,1.48.89,1.8,1.8,0,0,1-.07,3.37c-.66.17-.9.78-1.37,1.13-.06,0,0,.22,0,.33a1.76,1.76,0,0,1-.59,1.5c-.23.2-.23.35-.05.59a1.85,1.85,0,0,1,.06,2,1.72,1.72,0,0,1-1.91.78,2.9,2.9,0,0,0-1.71.26c-.27.09-.5.55-.59.88a1.67,1.67,0,0,0,.14,1.32A1.81,1.81,0,0,1,86.88,68c-.53-.37-1.14-.2-1.7-.29-.07,0-.17.1-.24.17a1.84,1.84,0,0,1-1.52.55,1.33,1.33,0,0,0-1.38.86,3.1,3.1,0,0,0-.29,1.44,1.69,1.69,0,0,1-1.16,1.7A1.64,1.64,0,0,1,78.7,72a3.55,3.55,0,0,0-1.51-1,.63.63,0,0,0-.45,0,2,2,0,0,1-1.86-.15,1.14,1.14,0,0,0-.58-.15H69.23c-.26,0-.47,0-.58.29-.42,1.11-1.4,1.36-2.42,1.56-.73.14-1.46.32-2.18.49a1,1,0,0,0-.22.13ZM85.89,57.27l-.37.69a9.94,9.94,0,0,1-3.92,3.25c0-.29.09-.74.23-.76a3.51,3.51,0,0,0,1.55-.75,2.16,2.16,0,0,0,.66-3,1.65,1.65,0,0,1-.2-.78c0-.5-.26-.71-.74-.51-.3.13-.59.29-.78.39-.54-.4-1-.72-1.49-1.1s-.56-.61-.88-.89a.77.77,0,0,0-.55-.19c-.11,0-.28.28-.27.41a2.84,2.84,0,0,1-.47,1.58,2.89,2.89,0,0,0-.31.94c0,.35-.14.43-.47.46a5.23,5.23,0,0,0-1,.28c-.18.27-.17.33.23.4s.82.34.84.8.36,1,.41,1.44c.1.87.58,1.08,1.31,1,.34,0,.67-.09,1-.14l.37-.08c0,.57-.11,1-.67,1.27-1.29.52-2.57,1.07-3.86,1.57a14.06,14.06,0,0,1-1.42.36l-.1-.14c.1-.12.2-.36.3-.36a3.05,3.05,0,0,0,1.63-.79,2.13,2.13,0,0,0,.65-2.85,2.19,2.19,0,0,1-.25-.94c0-.43-.28-.64-.7-.49-.25.09-.47.25-.71.33a.57.57,0,0,1-.42-.08c-.33-.25-.62-.57-1-.79a3,3,0,0,1-1.12-1,.63.63,0,0,0-.52-.25.57.57,0,0,0-.29.46,2.74,2.74,0,0,1-.48,1.57c-.1.18-.17.37-.26.56s-.11.12-.11.18c0,.56-.31.6-.75.62-.26,0-.61,0-.72.35,0,.16,0,.39.07.49a1.45,1.45,0,0,1,.32,1.07,2,2,0,0,0,2,2h1.64l.07.1a2.52,2.52,0,0,1-.56.38,29,29,0,0,0-6.38,3.22,16.14,16.14,0,0,0-3.69,3.16,6.05,6.05,0,0,0-.37.56,3.14,3.14,0,0,0,.44,0c.89-.18,1.78-.35,2.67-.56a1,1,0,0,0,.45-.35,21.34,21.34,0,0,1,1.57-2,15.11,15.11,0,0,1,8.15-4c.09,0,.21.07.31.11v.11c-.68,0-1,.56-1.5.93a2.15,2.15,0,0,0-.31,2.89,1.27,1.27,0,0,1,.38.95c0,.41.34.58.71.38s.45-.33.7-.45a.49.49,0,0,1,.39,0c.37.23.72.48,1.07.73s.77.6,1.18.87c.16.11.41.24.56.19s.23-.33.26-.51,0-.65.06-1c.16-.67.38-1.32.58-2a8.25,8.25,0,0,0,1-.21c.37-.11.51-.48.25-.71s-.33-.69-.45-1.06A2.42,2.42,0,0,0,78,64.07a2,2,0,0,1-.37.12l0-.1a.91.91,0,0,1,.24-.16,19.83,19.83,0,0,0,4.36-2.14,1.23,1.23,0,0,1,.42-.07l-.89,1.55c-.21.23-.29.49,0,.72a2.19,2.19,0,0,1,.75,1.69c0,.14.15.27.23.4a6.29,6.29,0,0,1,.48.67c.19.35.5.44.78.15a3.6,3.6,0,0,0,.49-.67c.12-.2.23-.23.46-.14a5.63,5.63,0,0,0,1.26.3,2.69,2.69,0,0,1,1.41.41.64.64,0,0,0,.57-.06c.1-.08.09-.36.06-.53-.08-.4-.25-.77-.3-1.17-.09-.6-.11-1.2-.16-1.88.2-.13.51-.32.79-.54s.29-.56-.07-.8a2,2,0,0,1-.64-.67A2,2,0,0,0,85.91,60a4,4,0,0,0-2,.64l-.13-.12,1.42-1.58c0,.31.12.48.51.44a2.39,2.39,0,0,1,2.48,1.19,4.59,4.59,0,0,0,.48.61,8.12,8.12,0,0,0,.61.69c.1.11.25.25.36.23a5.81,5.81,0,0,0,.78-.24,1.9,1.9,0,0,1,1.37-.05.53.53,0,0,0,.48-.2.55.55,0,0,0,0-.53,2.85,2.85,0,0,1-.78-1.35c-.15-.39-.39-.74-.57-1.12a.48.48,0,0,1,0-.39c.16-.24.4-.44.55-.68s0-.62-.33-.73a2.15,2.15,0,0,1-.82-.43,2.12,2.12,0,0,0-1.72-.62,3.52,3.52,0,0,0-2.18,1.43C86.24,57.23,86,56.9,85.89,57.27Zm1.85-14.74h0c0,.88,0,1.77,0,2.66,0,.26,1.38,1.11,1.65,1.06.48-.1,1-.2,1.45-.27s.52-.19.46-.55c0,0,0-.11,0-.17.22-.48,0-.76-.5-.72a3.69,3.69,0,0,0-.74.12c-.23.07-.32,0-.42-.23a10.25,10.25,0,0,0-.65-1c-.21-.3-.44-.6-.66-.9a1.58,1.58,0,0,0-.12-.55c-.08-.14-.27-.21-.42-.31a1.77,1.77,0,0,0-.15.42A1.29,1.29,0,0,0,87.74,42.53ZM44.68,22.41a4.82,4.82,0,0,1-.09.86c-.16.48-.38.94-.58,1.41a2.59,2.59,0,0,1-1.32,1.23c-.36.11-.44.38-.28.71s.23.61.35.91a2.82,2.82,0,0,0,.24.36c.28.2.44,0,.65-.16a2.36,2.36,0,0,1,.92-.44c.45,0,.59-.22.55-.64a2.57,2.57,0,0,1,0-.48c0-1.18,0-2.35,0-3.53a1.21,1.21,0,0,0-.12-.35ZM39.81,32.72a1.35,1.35,0,0,1,1.22,0,.57.57,0,0,0,.38,0,2.73,2.73,0,0,1,2.14.25l.24-.58A2.37,2.37,0,0,1,45,31a5.38,5.38,0,0,0,.74-.27c.29-.16.7-.27.59-.77a5.52,5.52,0,0,0-.7-.88,1.57,1.57,0,0,1-.64-.84c-.11-.39-.49-.45-.79-.16a5.88,5.88,0,0,0-.53.59c-.13.17-.23.19-.43.09a11.07,11.07,0,0,0-1.1-.39c-.5-.19-1-.4-1.49-.57-.19-.06-.47-.1-.58,0a.62.62,0,0,0-.1.57,2.65,2.65,0,0,1,.16,1.37,4.71,4.71,0,0,0,.07,1.29c0,.22.09.39-.21.46a2.46,2.46,0,0,0-.63.31c-.25.15-.45.35-.29.65A.49.49,0,0,0,39.81,32.72ZM92.6,51.07c.31.07.62.08.75-.27s-.16-.55-.43-.7-.41-.17-.59-.28a.4.4,0,0,1-.15-.3c0-.51.06-1,.11-1.51s.13-.86.16-1.28c0-.2,0-.51-.12-.58a1,1,0,0,0-.62.06c-.22.08-.4.25-.61.33-.68.25-1.47.13-2.08.64,0,0-.2-.06-.26-.12-.21-.21-.37-.46-.59-.65s-.63-.19-.74.16a1.8,1.8,0,0,1-.72,1,4.1,4.1,0,0,0-.57.66.32.32,0,0,0,0,.55,2.9,2.9,0,0,0,.73.44,2.39,2.39,0,0,1,1.64,1.37l.33.76.2-.06a2.13,2.13,0,0,1,1.81-.19.87.87,0,0,0,.59,0A1.25,1.25,0,0,1,92.6,51.07ZM40.25,39.2c0-.16,0-.32,0-.48a.83.83,0,0,1,.67-.85A3.11,3.11,0,0,0,42.3,37a2.57,2.57,0,0,1,1.61-.23c.44.11.56-.09.52-.48.16-.56-.16-1-.32-1.52a2,2,0,0,0-2.52-1.4,1.63,1.63,0,0,1-.85,0c-.5-.17-.77,0-.74.53,0,.33.08.66.1.84-.56.42-1,.79-1.52,1.1-.33.22-.73.34-1.08.54a.9.9,0,0,0-.39.43c-.1.26.11.36.33.46a5,5,0,0,1,1,.55c.49.39,1,.83,1.49,1.3-.05.22-.16.57-.22.93s.09.54.4.51.4-.22.6-.33l-.41-.23a.18.18,0,0,1-.07,0ZM92.16,57.72v.45l-.43.28c.14.14.26.32.43.38.35.13.63-.14.57-.54s-.17-.7-.22-.95a11,11,0,0,0,1.18-.92A3.44,3.44,0,0,1,95,55.51c.15,0,.36-.3.34-.42a.66.66,0,0,0-.4-.43,2.81,2.81,0,0,1-1.42-.81,4,4,0,0,0-.93-.55c-.26-.09-.31-.2-.27-.44a3.89,3.89,0,0,0,.13-.82c0-.39-.32-.54-.68-.43a2,2,0,0,1-.87.08,2.24,2.24,0,0,0-1.87.37c-.64.46-.72,1.17-1,1.8a2.22,2.22,0,0,0,0,.82c0,.33.19.47.52.38l1.4.19c.56.28.91.9,1.61.94.1,0,.19.13.29.19C92.29,56.74,92.1,57.26,92.16,57.72ZM60,43.41l.91-1.22c.24-.34.18-.5-.19-.54a2.18,2.18,0,0,1-.09-.23,8.08,8.08,0,0,0-.4-1.32,3.27,3.27,0,0,1-.41-1.46c0-.16-.16-.44-.28-.45a.74.74,0,0,0-.53.24c-.32.28-.57.62-.89.89s-.94.7-1.47,1.08a7.8,7.8,0,0,0-.92-.4.46.46,0,0,0-.62.46,2.48,2.48,0,0,1-.22.9,2.09,2.09,0,0,0-.3,1.46A3,3,0,0,0,57,45.06c.13,0,.24.16.44.31-.2.05-.24.08-.28.07a14.77,14.77,0,0,1-5.13-1.65,1.34,1.34,0,0,1-.61-1.31l1.43.05.26,0c.66,0,.69,0,.82-.69.05-.24.19-.46.26-.7a3.7,3.7,0,0,0,.19-.78,1.1,1.1,0,0,1,.92-1.08,2,2,0,0,0,.36-.18l-.34-.39a6.66,6.66,0,0,1-.91-.11.53.53,0,0,1-.32-.3c-.17-.41-.31-.84-.44-1.27s-.23-.89-.37-1.33c-.06-.19-.18-.48-.3-.5a.89.89,0,0,0-.56.27c-.18.16-.28.43-.47.57-.6.46-1.23.89-1.88,1.35-.22-.11-.51-.28-.82-.41s-.69,0-.68.5a1.18,1.18,0,0,1-.09.63,2.18,2.18,0,0,0-.29,2.27l-.29-.07-.53-.71-.66-1.15-.1.05.32,1.1c-.25-.06-.63.11-.73-.24A2.93,2.93,0,0,0,45.14,38a2.13,2.13,0,0,0-3,.06,1.86,1.86,0,0,1-.76.37c-.44.12-.61.44-.35.81s.46.57.59.73c-.27.61-.46,1.14-.71,1.63s-.47.73-.68,1.1a.83.83,0,0,0-.14.57c0,.11.33.24.47.2a2.9,2.9,0,0,1,1.77.13c.46.29.68.23.89-.23a1.7,1.7,0,0,1,.27-.39l.77-.81c.19-.21.37-.44.58-.64a3.31,3.31,0,0,1,1.9-.59c.81-.07-.06-.48.26-.76a4.64,4.64,0,0,1,.62.51c.33.39.59.84.92,1.23a10.14,10.14,0,0,0,.89.84l-.08.17c-.12,0-.3,0-.35-.07a2.94,2.94,0,0,0-1.57-1,2.15,2.15,0,0,0-2.77,1,1.75,1.75,0,0,1-.6.64c-.45.29-.5.59-.06.91.27.2.56.36.83.53a4.68,4.68,0,0,0-.26,1,4.33,4.33,0,0,1-.31,2.1.66.66,0,0,0,.12.54c0,.06.31,0,.46,0,.52-.14,1-.3,1.55-.43s.79-.16,1.17-.28c.23-.07.34-.06.47.15a3.61,3.61,0,0,0,.57.72c.25.24.49.12.67-.13s.43-.62.64-.94c0,0,.09-.09.09-.13a2.6,2.6,0,0,1,.71-1.8c0-.17.13-.37.07-.49-.27-.58-.59-1.14-.91-1.76a2.37,2.37,0,0,1,.53.15c1.22.6,2.44,1.23,3.65,1.84-.43,0-.86,0-1.29.07a4.75,4.75,0,0,0-.81.19,2.1,2.1,0,0,0-1.31,1.87,1.5,1.5,0,0,1-.37.76c-.26.36-.18.69.25.81s.7.15.92.2c.19.66.38,1.23.52,1.82.09.36.08.74.15,1.11,0,.21.11.51.25.56s.41-.09.58-.21.34-.41.56-.54c.63-.39,1.29-.75,2-1.13l.43.24a.69.69,0,0,0,1,.23l-.92-.43-.35-.62a1.29,1.29,0,0,1,.57-1.21.79.79,0,0,0,.21-.27c.21-.41.42-.83.62-1.25.16-.13.23-.25,0-.43a2.42,2.42,0,0,0-1.55-.92c.42-.47,2-.1,5,1.09l.08.27a8.85,8.85,0,0,1-.9-.1A2,2,0,0,0,57,48.88a1.92,1.92,0,0,1-.49.74c-.35.31-.35.65.06.87a4.66,4.66,0,0,0,.73.3c.22.06.24.17.23.38a5.52,5.52,0,0,0,0,1.22,3.06,3.06,0,0,1,0,1.56.65.65,0,0,0,.19.55.53.53,0,0,0,.52-.09,3,3,0,0,1,1.36-.67,6.21,6.21,0,0,0,1.16-.49c.19-.1.3-.11.45,0a4,4,0,0,0,.64.59.4.4,0,0,0,.68-.24,1.33,1.33,0,0,1,.56-.9,2.06,2.06,0,0,0,.28-2.85c-.35-.45-.73-.87-1.17-1.39a2.28,2.28,0,0,1,.6.26,9,9,0,0,1,2.85,3.73c.11.26.28.31.48.23s.17-.22.2-.36a6,6,0,0,0,.05-.68l.22.15a2.08,2.08,0,0,0,3.15.17,1.91,1.91,0,0,1,.78-.31c.37-.08.54-.32.37-.65s-.35-.5-.49-.77a.46.46,0,0,1,0-.38c.21-.4.48-.76.67-1.16a2.82,2.82,0,0,1,.81-1.23A.57.57,0,0,0,72,47c-.07-.13-.35-.2-.54-.22s-.67,0-1,0c-.61-.1-1.18-.46-1.85-.29-.05,0-.18-.16-.21-.26-.1-.28-.13-.58-.24-.84s-.49-.38-.79-.14a2,2,0,0,1-.87.43,2.14,2.14,0,0,0-1.73,2,3,3,0,0,0,.63,2.26s0,.08,0,.18c-.11-.08-.2-.12-.27-.18-.62-.6-1.26-1.19-1.86-1.81-.13-.14-.12-.41-.18-.61l.15-.06.5.32c.4.28.36,0,.37-.27a2.66,2.66,0,0,1,2-2.43,5.38,5.38,0,0,0,.65-.2,4.14,4.14,0,0,0,.09-.6,11.09,11.09,0,0,0-.07-1.15,2.9,2.9,0,0,1-.07-1.6.66.66,0,0,0-.2-.58c-.1-.08-.39,0-.56.13-.33.18-.63.43-1,.59-.56.25-1.15.45-1.73.67-.11,0-.23-.11-.36-.23a3.29,3.29,0,0,0-.41-.33c-.32-.23-.74-.11-.76.23s-.32.68-.55,1a2.6,2.6,0,0,0-.55,1.1,2.81,2.81,0,0,0,1.74,2.83c.38.16.32.32.2.49l-4.47-1.86h1.32a1,1,0,0,0,.42,0,.41.41,0,0,0,.23-.3C60.07,44.61,60,44,60,43.41ZM82.26,54.8a2.19,2.19,0,0,0,.52,0,1.18,1.18,0,0,1,1.78,1.17,2.06,2.06,0,0,0,.26.64,2.37,2.37,0,0,0,.72-.16,3.06,3.06,0,0,0,1.67-2l.7-2a1.06,1.06,0,0,0,.24-1,2.1,2.1,0,0,0-1.64-1.59,1.27,1.27,0,0,1-.64-.4c-.34-.37-.68-.37-.89.08a7.75,7.75,0,0,0-.34.9c-.57,0-1.07,0-1.55.14a2.53,2.53,0,0,1-1.54,0,.49.49,0,0,0-.48.16.87.87,0,0,0,.06.59c.15.28.41.5.54.79.28.64.23,1.42,1,2l-.73.53ZM50.32,36.1l-.42-.5.12,0c.21-.52.4-1.05.64-1.56s.44-.74.63-1.12a1,1,0,0,0,.12-.59c-.08-.25-.33-.27-.59-.2a2.31,2.31,0,0,1-.82.1c-.73,0-1.42-.51-2.15-.11-.14-.39-.23-.71-.36-1-.21-.47-.52-.49-.88-.13a1.83,1.83,0,0,1-.76.47,2.05,2.05,0,0,0-1.38,1.09,1.38,1.38,0,0,0,.21,1.68c.11.42.22.84.35,1.26.08.26.18.51.27.77A3.21,3.21,0,0,0,47,38.11c.22.15.56.36.77-.08a2.8,2.8,0,0,0,.12-.56,1.09,1.09,0,0,1,.54-1,1.34,1.34,0,0,1,1.33,0,.72.72,0,0,0,.48,0C50.3,36.42,50.3,36.22,50.32,36.1Zm20.12-6.27c0,.1.15.2.15.31A2.32,2.32,0,0,0,72.05,32a1.76,1.76,0,0,1,.52.46,1,1,0,0,0,1.84,0c.21-.35.42-.55.84-.37a.59.59,0,0,0,.39,0,2.11,2.11,0,0,1,1.58.06,1.08,1.08,0,0,0,1.34-.38c.3-.47.12-.87-.16-1.3A4.64,4.64,0,0,1,78,28.23c0-.12.14-.28.24-.4A1.1,1.1,0,0,0,77.87,26a2.56,2.56,0,0,1-.73-.77c0-.06,0-.33.15-.38a2.63,2.63,0,0,0,1.18-1.48,1.62,1.62,0,0,1,.32-.52,1.12,1.12,0,0,0-.28-2,.81.81,0,0,1-.41-.51c0-.78-.4-1.54-.1-2.35a.81.81,0,0,0-.41-1,1.22,1.22,0,0,0-1.28.12,5.83,5.83,0,0,1-1,.48c-.27.12-.57.16-.83.29a.71.71,0,0,1-.85-.13,1.09,1.09,0,0,0-1.89.56,1.58,1.58,0,0,1-.23.47c-.24.31-.51.6-.75.91s-1.11.71-1.36.55c-.64-.45-1.47-.6-2-1.31a1,1,0,0,0-1.2-.27.75.75,0,0,0-.58.75,4.68,4.68,0,0,1-.5,2.21c-.08.18-.17.34-.26.52.08-.34-.18-.28-.35-.29-.62,0-1.24,0-1.85,0-.39,0-.49.13-.48.48,0,.86,0,1.73,0,2.6v7.89c0,.28,0,.54.42.54,2.46,0,4.91,0,7.37,0,.36,0,.5-.11.49-.48C70.49,31.85,70.47,30.84,70.44,29.83Zm9.37,8.26-.08-.19a2.08,2.08,0,0,0,.38-.22c1.34-1.21,2.67-2.42,4-3.65a.9.9,0,0,0,.27-.59q0-7.86,0-15.7a.89.89,0,0,0-.26-.6c-2.66-2.55-5.34-5.08-8-7.62a1.12,1.12,0,0,0-.83-.31H47.94c-.63,0-.63,0-.63.62q0,9.85,0,19.72a.7.7,0,0,0,.39.74,1,1,0,0,1,.39.51c.13.42.4.53.81.56.66,0,.66.07.66-.61V12.1c0-.64,0-.65.63-.65h8.07c5.35,0,10.7,0,16.06,0a1.15,1.15,0,0,1,.94.37c.4.41.82.79,1.24,1.18,1.79,1.7,3.58,3.38,5.36,5.09a.92.92,0,0,1,.26.61q0,6.86,0,13.71a1,1,0,0,1-.28.63c-1.72,1.6-3.46,3.18-5.19,4.76-.4.37-.4.38,0,.72,2,1.55,4,3.11,6,4.65a1.11,1.11,0,0,1,.51,1c0,1.66,0,3.32,0,5,0,.18.13.51.21.51.3,0,.66.16.86-.3a1.5,1.5,0,0,1,.68-.8.76.76,0,0,0,.48-.83c0-1.61,0-3.23,0-4.85a.75.75,0,0,0-.32-.67c-.74-.55-1.47-1.12-2.2-1.68ZM67.2,66.32l0-.14H50.24c-.69,0-.69,0-.69-.71V49.91c0-.2,0-.4,0-.61a.9.9,0,0,0-.23,0,1.26,1.26,0,0,1-1.51-.5,1.31,1.31,0,0,0-.32-.25c-.05.14-.11.27-.15.41a.81.81,0,0,0,0,.22V67.78c0,.65,0,.65.63.65,5,0,9.94,0,14.91,0a3.37,3.37,0,0,0,2.63-.87A14.33,14.33,0,0,1,67.2,66.32Zm3.26-14c-.23.18-.36.28-.47.38a3.76,3.76,0,0,1-2.11.83,24.84,24.84,0,0,1-3,0c-.32,0-.42-.13-.41-.42s0-.62,0-1L63.3,53.51a.61.61,0,0,0-.08.25,1.16,1.16,0,0,1-.72.87c-.43.19-.21.58-.22.89s.24.27.44.27H70c.35,0,.5-.12.5-.49,0-.82,0-1.64,0-2.47C70.53,52.71,70.49,52.57,70.46,52.31ZM69.9,68.38h4.22c0-.6-.07-1.16,0-1.72s0-.57-.49-.42a9.63,9.63,0,0,0-3.46,1.87A2.73,2.73,0,0,0,69.9,68.38Zm-.83-24.67h0c-.41,0-.82,0-1.23,0-.08,0-.15.1-.22.16s.1.14.16.16a1.57,1.57,0,0,1,1.16,1.35c0,.13.24.25.4.31s.51.1.76.19.44.08.43-.28,0-1,0-1.54c0-.26-.11-.37-.36-.36Z"/><path class="cls-1" d="M64.94,22.14c.09-.18.18-.34.26-.52a4.68,4.68,0,0,0,.5-2.21.75.75,0,0,1,.58-.75,1,1,0,0,1,1.2.27c.48.71,1.31.86,2,1.31.25.16,1.11-.24,1.36-.55s.51-.6.75-.91a1.58,1.58,0,0,0,.23-.47,1.09,1.09,0,0,1,1.89-.56.71.71,0,0,0,.85.13c.26-.13.56-.17.83-.29a5.83,5.83,0,0,0,1-.48A1.22,1.22,0,0,1,77.59,17,.81.81,0,0,1,78,18c-.3.81.07,1.57.1,2.35a.81.81,0,0,0,.41.51,1.12,1.12,0,0,1,.28,2,1.62,1.62,0,0,0-.32.52,2.63,2.63,0,0,1-1.18,1.48c-.1.05-.2.32-.15.38a2.56,2.56,0,0,0,.73.77,1.1,1.1,0,0,1,.35,1.85c-.1.12-.25.28-.24.4a4.64,4.64,0,0,0,.42,2.25c.28.43.46.83.16,1.3a1.08,1.08,0,0,1-1.34.38,2.11,2.11,0,0,0-1.58-.06.59.59,0,0,1-.39,0c-.42-.18-.63,0-.84.37a1,1,0,0,1-1.84,0,1.76,1.76,0,0,0-.52-.46,2.32,2.32,0,0,1-1.46-1.89c0-.11-.1-.21-.15-.31L70.52,28a1.12,1.12,0,0,0-.26,0c-.59.24-1.19.47-1.77.75a.54.54,0,0,0-.22.41c0,.52,0,1,0,1.55,0,.28-.09.39-.38.38-.5,0-1,0-1.5,0h-1.9c0-.26,0-.47,0-.67-.11-1.89.3-3.82-.38-5.67a3.73,3.73,0,0,0-.31-.74,1.07,1.07,0,0,1,.3-1.6A3.82,3.82,0,0,1,64.94,22.14ZM77.3,31.59c.21,0,.53.16.6.08A1.37,1.37,0,0,0,78,31c0-.06-.06-.13-.09-.19-.09-.47-.17-.94-.27-1.41a1.68,1.68,0,0,0-.2-.37c-.38-.65-.42-1.21.38-1.57a.22.22,0,0,0,.09-.1c.18-.25.09-.75-.17-.77-.48,0-.62-.42-.89-.7l-.53-.54c-.06-.06-.12-.16-.19-.17-.56-.05-1.13-.09-1.69-.1-.14,0-.27.16-.4.24l-1.16.79c-.49.28-.73.23-1-.21.53-.62,1-1.25,1.59-1.86,0-.05.18,0,.27,0a3.16,3.16,0,0,0,2.79.59c.51-.18,1.06-.31,1.18-1s.26-1.15.87-1.46a.58.58,0,0,0,0-.48,2.1,2.1,0,0,0-.85-.47c-.41-.08-.4-.23-.31-.57a2.31,2.31,0,0,0,0-.87,3.4,3.4,0,0,1,0-1.79.73.73,0,0,0-.2-.57c-.06-.07-.34,0-.48,0a8.92,8.92,0,0,0-.82.54c-.59.13-1.24.09-1.69.61l-.3.2a11,11,0,0,0-.86-.75.44.44,0,0,0-.72.27,1.61,1.61,0,0,1-.67,1A1.84,1.84,0,0,0,71.1,21a3.46,3.46,0,0,0,1.33,2.17,4.33,4.33,0,0,0,.52.37,8.54,8.54,0,0,1-3.52,3.14c-.14-.7-.12-.73.49-.88a.93.93,0,0,0,.35-.16,7.12,7.12,0,0,0,1.2-1c.36-.47.53-.84.21-1.25-.61-.78-1.35-1.5-1.14-2.7l-.37.13a1.84,1.84,0,0,0-.41.24c-.23.23-.36.09-.55-.06a3.59,3.59,0,0,0-.93-.64,2.48,2.48,0,0,1-1.19-.89c-.31-.41-.44-.43-.8-.05a1.45,1.45,0,0,0-.16.42c0,.32,0,.64,0,1a3.62,3.62,0,0,0-.43,1.71c0,.07-.18.2-.29.24-.26.09-.53.13-.79.21a.43.43,0,0,0-.23.74,1.59,1.59,0,0,1,.42,1.08A1.58,1.58,0,0,0,65.49,26a3.07,3.07,0,0,0,3.08.27,1.41,1.41,0,0,1,.22,0c-.12.45-.2.85-.67,1l-1.35.39c-.55.16-.61.28-.42.87.13,0,.26,0,.38-.06a14.2,14.2,0,0,0,3.77-1.47,1.41,1.41,0,0,1,1.57.12l-.82,1.64a1.47,1.47,0,0,0,0,1.76c.12.59.6.82,1,1.12a3.43,3.43,0,0,1,.79.68c.24.27.55.33.76,0a2.48,2.48,0,0,0,.4-.66c.14-.38.35-.35.62-.19a4.53,4.53,0,0,0,.71.16C76.14,31.61,76.72,31.59,77.3,31.59Z"/><path class="cls-2" d="M45.3,36.27c-.09-.26-.19-.51-.27-.77-.13-.42-.24-.84-.35-1.26a1.27,1.27,0,0,0,0-.33,1.7,1.7,0,0,1,1-1.91l1.46-.59.33,1.36a3.81,3.81,0,0,1,1.11-.29,20.62,20.62,0,0,1,2.12.33l-.19.2a2.7,2.7,0,0,0-.4.14c-1.29.76-2.56,1.52-3.85,2.27a3.09,3.09,0,0,1-.69.22l-.36-.28-.09,0Z"/><path class="cls-2" d="M87.91,52.33l-.7,2,.1-.61-.11,0-.35.29a2.63,2.63,0,0,1-.5-.14L83.6,52.23c-.62-.36-1.25-.7-1.87-1,1.08,0,2.14-.83,3.2,0l.39-1.43,1.26.51a1.24,1.24,0,0,1,.91.75c.14.46.22.94.32,1.39Z"/><path class="cls-2" d="M87.47,65.38l.28.87c-.27-.07-.44-.13-.61-.16-.48-.07-1-.09-1.43-.19a3,3,0,0,1-.85-.4c-.11-.07-.16-.24-.25-.4l-.88,1.4-.94-.89-.14.09,0,.38c-.08-.13-.22-.26-.23-.4A2.19,2.19,0,0,0,81.72,64c-.27-.23-.19-.49,0-.72,0,.21-.24.49.18.65a6.57,6.57,0,0,1,.44-.88,7.55,7.55,0,0,1,.77-.91,5.93,5.93,0,0,1,.62-.47,2.74,2.74,0,0,0,.34.71c.7.8,1.43,1.57,2.16,2.35L87.5,66Z"/><path class="cls-2" d="M49.88,47.55c-.05-.25-.21-.28-.38-.14s-.49.45-.81.75l-.8-1.33a1.93,1.93,0,0,1-1.83.76,6.83,6.83,0,0,0-1.37.34l.17-.19L45,47.6c1.18-1.26,2.36-2.52,3.52-3.79.1-.12.06-.37.09-.56a9,9,0,0,0,.79.59c.57.35.65,1,1,1.48a2.62,2.62,0,0,0,.28.3,2.6,2.6,0,0,0-.71,1.8S49.91,47.51,49.88,47.55Z"/><path class="cls-2" d="M83.15,59.29a1.68,1.68,0,0,1-1.57.72,1.25,1.25,0,0,0-.62.16,1.93,1.93,0,0,1-1.39.23,4.93,4.93,0,0,0-.86,0l-.06.15c.15.07.29.21.45.22.52,0,1.05,0,1.57,0-.34.05-.67.12-1,.14-.73,0-1.21-.17-1.31-1,0-.47-.39-.9-.41-1.44s-.36-.72-.84-.8-.41-.13-.23-.4c.11.08.21.25.32.25.54,0,1.08,0,1.65-.07,0,0,0,0,0,0a2.82,2.82,0,0,1,.42-2.09,4.56,4.56,0,0,0,.35-1.18l.15.22a1.85,1.85,0,0,0,0,.47c.43,1.51.88,3,1.28,4.54.12.44.37.61.76.51a6.55,6.55,0,0,0,1-.42Z"/><path class="cls-2" d="M44.43,36.27c0,.39-.08.59-.52.48A2.57,2.57,0,0,0,42.3,37c-1.25-.06-2.5-.13-3.75-.17-.14,0-.27.11-.41.18l-.36-.17A7.59,7.59,0,0,0,39,36a1.93,1.93,0,0,1,1.6-.65c.06,0,.12-.06.17-.08l-.36-1.38L42,33.76a1.66,1.66,0,0,1,1.66,1A3.08,3.08,0,0,1,44,36.4c0,.07.08.16.13.24a1.73,1.73,0,0,0,.21-.17A.75.75,0,0,0,44.43,36.27Z"/><path class="cls-2" d="M52.62,36.08l.12-.19c.25.58.52,1.14.72,1.72a3.83,3.83,0,0,1,.14,1.07,1.71,1.71,0,0,1-.08.45h2.09l-.25-.4.34.39a2,2,0,0,1-.36.18,1.1,1.1,0,0,0-.92,1.08,3.7,3.7,0,0,1-.19.78c-.07.24-.21.46-.26.7-.13.64-.16.68-.82.69l-.26,0a4.31,4.31,0,0,0,.62-.15c.09,0,.16-.13.24-.21-.09,0-.18-.13-.27-.13-.26,0-.52,0-.79.05a1.09,1.09,0,0,1-.51,0A7.53,7.53,0,0,0,50,41.53c-.08,0-.14-.1-.21-.15a6.68,6.68,0,0,0,1.08.15.59.59,0,0,0,.41-.33c.45-1.48.89-3,1.3-4.45A3,3,0,0,0,52.62,36.08Z"/><path class="cls-2" d="M89.93,55.25l-1.4-.19c0-.41-.22-.82,0-1.24s.31-1.16.92-1.49c.84-.46,1.69.05,2.57-.22l-.39,1.58a4.29,4.29,0,0,1,.55,0A2.23,2.23,0,0,1,93,54c.48.32.92.71,1.38,1.07Z"/><path class="cls-2" d="M45.57,35.64a3.09,3.09,0,0,0,.69-.22c1.29-.75,2.56-1.51,3.85-2.27a2.7,2.7,0,0,1,.4-.14c-.35.89-.33,2-1.34,2.51,0,0,0,0,0,.12.26.2.53.43.81.64s.32,0,.38-.18c0,.12,0,.32-.08.34a.72.72,0,0,1-.48,0,1.34,1.34,0,0,0-1.33,0,1.09,1.09,0,0,0-.54,1,2.8,2.8,0,0,1-.12.56c-.05-.05-.08-.13-.14-.16a2.83,2.83,0,0,1-2-2A.72.72,0,0,0,45.57,35.64Z"/><path class="cls-2" d="M81.73,51.18c.62.35,1.25.69,1.87,1l2.75,1.63a2.63,2.63,0,0,0,.5.14,1,1,0,0,0-.14.27c-.13,1-.91,1.46-1.72,1.84-.25.12-.22.26-.17.45a2.06,2.06,0,0,1-.26-.64,1.18,1.18,0,0,0-1.78-1.17,2.19,2.19,0,0,1-.52,0l1.14-.87a1.31,1.31,0,0,0-.2-.18,1.68,1.68,0,0,1-.9-1.21A10,10,0,0,0,81.73,51.18Z"/><path class="cls-2" d="M46.37,30c.11.5-.3.61-.59.77A5.38,5.38,0,0,1,45,31a2.37,2.37,0,0,0-1.25,1.35,2.1,2.1,0,0,1-.35-.31c-.57-.72-1.13-1.46-1.69-2.19l-1-1.33v2.51a2.74,2.74,0,0,1-.18-.6c0-.7,0-1.41,0-2,.66.14,1.34.26,2,.45a2.6,2.6,0,0,1,.76.49,1.67,1.67,0,0,1,.28.31l.9-1.22,1.7,1.86Z"/><path class="cls-2" d="M54.66,46.49a3.83,3.83,0,0,1,.76.18,10,10,0,0,1,1,.52c.19.11.37.24.56.37-.2.42-.41.84-.62,1.25a.79.79,0,0,1-.21.27,1.29,1.29,0,0,0-.57,1.21L55.13,50a2.34,2.34,0,0,1-.17.38,3.59,3.59,0,0,1-.69.76c-.54.34-1.12.6-1.73.91l-.17-1,.31.69a1.8,1.8,0,0,0,.14-.22q.91-2.22,1.81-4.46A1.44,1.44,0,0,0,54.66,46.49Z"/><path class="cls-2" d="M88.54,50.54a2.39,2.39,0,0,0-1.64-1.37,2.9,2.9,0,0,1-.73-.44.32.32,0,0,1,0-.55l.14.51,1-1.11a1.65,1.65,0,0,0,.36-.43c.2-.41.38-.27.56,0s.4.6.55.84a5.5,5.5,0,0,1,1.28-.78,4.66,4.66,0,0,0,1.74-.51l.06.16a3.2,3.2,0,0,0-.47.43c-.82,1.06-1.63,2.12-2.44,3.19C88.84,50.65,88.72,50.71,88.54,50.54Z"/><path class="cls-2" d="M59.94,45.1c-.23,0-.47,0-.7,0a2.55,2.55,0,0,1-1-.17,2.47,2.47,0,0,0-1.13-.27,1.86,1.86,0,0,1-.56-.15l.39.06c.72.07.77,0,1-.67.33-1.12.67-2.23,1-3.36.14-.5.21-1,.31-1.52.06,0,.16,0,.18,0A15,15,0,0,1,60,40.59a13.06,13.06,0,0,1,.19,1.56l.7-.21-.17-.29c.37,0,.43.2.19.54L60,43.41A2.46,2.46,0,0,0,59.94,45.1Z"/><path class="cls-2" d="M88.54,50.54c.18.17.3.11.43-.07.81-1.07,1.62-2.13,2.44-3.19a3.2,3.2,0,0,1,.47-.43c0,.53,0,1.07,0,1.6A1.82,1.82,0,0,1,91.32,50l1.45.54-.17.56A1.25,1.25,0,0,0,91.47,51a.87.87,0,0,1-.59,0,2.13,2.13,0,0,0-1.81.19l-.2.06Z"/><path class="cls-2" d="M40.71,31.06V28.55l1,1.33c.56.73,1.12,1.47,1.69,2.19a2.1,2.1,0,0,0,.35.31l-.24.58a2.73,2.73,0,0,0-2.14-.25.57.57,0,0,1-.38,0,1.35,1.35,0,0,0-1.22,0l-.12-.56,1.37-.53Z"/><path class="cls-2" d="M65.67,41.81l.52-.44a4.57,4.57,0,0,0,.24,2.12,2.49,2.49,0,0,1-.13.84c0,.15-.12.29-.2.5h.65a5.38,5.38,0,0,1-.65.2,2.66,2.66,0,0,0-2,2.43c0,.23,0,.55-.37.27.43-.1.23-.3.07-.48a2.68,2.68,0,0,0-1.23-.74c.58.14.89-.15,1.1-.65a5.14,5.14,0,0,1,.38-.64c.64-1.13,1.29-2.25,2-3.41Z"/><path class="cls-2" d="M45.84,40l.87.9a3.31,3.31,0,0,0-1.9.59c-.21.2-.39.43-.58.64l-.77.81a1.7,1.7,0,0,0-.27.39c-.21.46-.43.52-.89.23a2.08,2.08,0,0,0,.43,0,1.4,1.4,0,0,0,.34-.18l0-.18-2.25-.42.11-.14.2-.07Z"/><path class="cls-2" d="M85.25,58.93l.21-.22.08,0-.12.5c.61,0,.72-.68,1.16-.86l4.9,2.69-1.37.4a2.05,2.05,0,0,0-.43.09,1,1,0,0,0-.26.21c.1.06.21.17.31.17a6.29,6.29,0,0,0,.74-.11,5.81,5.81,0,0,1-.78.24c-.11,0-.26-.12-.36-.23a8.12,8.12,0,0,1-.61-.69,4.59,4.59,0,0,1-.48-.61,2.39,2.39,0,0,0-2.48-1.19C85.37,59.41,85.28,59.24,85.25,58.93Z"/><path class="cls-2" d="M91.25,45.43c.06.36-.12.5-.46.55s-1,.17-1.45.27c-.27,0-1.65-.8-1.65-1.06,0-.89,0-1.78,0-2.66.39.49.81,1,1.17,1.5a3.22,3.22,0,0,1,.34.88,1.9,1.9,0,0,1,0,.48L90.84,45a3.18,3.18,0,0,0-.07.56.87.87,0,0,0,.1.31,3.06,3.06,0,0,0,.29-.21S91.22,45.5,91.25,45.43Z"/><path class="cls-2" d="M44.68,22.41l.33-.12a1.21,1.21,0,0,1,.12.35c0,1.18,0,2.35,0,3.53a2.57,2.57,0,0,0,0,.48c0,.42-.1.6-.55.64a2.36,2.36,0,0,0-.92.44c-.21.14-.37.36-.65.16.08-.14.23-.28.22-.41a11.25,11.25,0,0,0-.25-1.2h1.59c-.48-.81-.1-1.43.19-2.09A6.37,6.37,0,0,0,45,22.66C45.07,22.39,44.91,22.34,44.68,22.41Z"/><path class="cls-2" d="M94.35,55.05l.25.06c-.75.57-1.46,1.09-2.15,1.63a.64.64,0,0,0-.15.31c-.06.22-.1.45-.14.67-.06-.46.13-1-.33-1.34-.1-.06-.19-.18-.29-.19-.7,0-1.05-.66-1.61-.94Z"/><path class="cls-2" d="M40.25,39.2s-.06,0-.06-.06c.08-.6-.36-.78-.77-1A12.17,12.17,0,0,1,38.14,37c.14-.07.27-.19.41-.18,1.25,0,2.5.11,3.75.17a3.11,3.11,0,0,1-1.35.89.83.83,0,0,0-.67.85C40.28,38.88,40.26,39,40.25,39.2Z"/><path class="cls-1" d="M49.52,42l-1.58-1.69.29.07,1.29,1.35Z"/><path class="cls-1" d="M54,45.36a6.55,6.55,0,0,1,.67.18c.08,0,.12.16.17.24s-.24.11-.29.07a2.73,2.73,0,0,0-1.74-.33c-.31,0-.61.07-.91.1a4.75,4.75,0,0,1,.81-.19C53.16,45.38,53.59,45.38,54,45.36Z"/><path class="cls-1" d="M60.38,47.3l1.35.65,0,.2a1.35,1.35,0,0,1-.5,0,6.16,6.16,0,0,1-.73-.53Z"/><path class="cls-1" d="M47.41,39.62H47l-.32-1.1.1-.05Z"/><path class="cls-2" d="M84,60.63a5.2,5.2,0,0,1-.46.59c-.08.07-.24.06-.37.08l-.06-.15.76-.64Z"/><path class="cls-3" d="M71.85,59.12a.53.53,0,0,1,0,.13c0,.71,0,.7-.73.77a5,5,0,0,0-.86.25c.11-.39.46-.34.72-.35.44,0,.79-.06.75-.62C71.74,59.24,71.81,59.18,71.85,59.12Z"/><path class="cls-1" d="M86.42,57.18l-.36.8c0-.11-.08-.21-.1-.32s0-.26-.07-.39C86,56.9,86.24,57.23,86.42,57.18Z"/><path class="cls-1" d="M59.94,45.1A2.46,2.46,0,0,1,60,43.41c0,.6,0,1.2,0,1.81a.41.41,0,0,1-.23.3,1,1,0,0,1-.42,0C59.58,45.37,60,45.59,59.94,45.1Z"/><path class="cls-1" d="M55.86,51.11l0-.2.92.43A.69.69,0,0,1,55.86,51.11Z"/><path class="cls-2" d="M85.89,57.27c0,.13,0,.26.07.39s.07.21.1.32c-.19.3-.36,0-.54,0Z"/><path class="cls-3" d="M88.33,42.56a2.59,2.59,0,0,0-.17-.38,4.25,4.25,0,0,0-.25-.39l-.14,0,0,.7a1.29,1.29,0,0,1-.1-.41,1.77,1.77,0,0,1,.15-.42c.15.1.34.17.42.31A1.58,1.58,0,0,1,88.33,42.56Z"/><path class="cls-2" d="M61.08,48.63l.79.43a2.39,2.39,0,0,1,.28.13,2.65,2.65,0,0,1,1.13,2.41,2.71,2.71,0,0,1-.46.78c-.13.17-.33.29-.47.46a4.38,4.38,0,0,0-.34.64l-1.08-1.21c-.36.84-1.1,1-1.87,1.16a4.71,4.71,0,0,0-1,.43c-.08-.72-.19-1.44-.23-2.16a1.55,1.55,0,0,1,.24-.79c.16-.27,0-.35-.18-.43.22,0,.61-.06.37.31-.59.91-.08,1.78-.09,2.78a2.77,2.77,0,0,0,.2-.23c.87-1.35,1.76-2.69,2.61-4.05C61.11,49.12,61.06,48.85,61.08,48.63Z"/><path class="cls-2" d="M59.23,39c-.1.5-.17,1-.31,1.52-.3,1.13-.64,2.24-1,3.36-.2.7-.25.74-1,.67l-.39-.06c-.65-.44-1.42-.78-1.52-1.68a2.07,2.07,0,0,1,.09-.93c.16-.46.4-.89.65-1.43l1.24.8c.05-.13.1-.24.14-.36a1.65,1.65,0,0,1,.77-1C58.4,39.63,58.81,39.3,59.23,39Z"/><path class="cls-2" d="M65.94,49.76a2.42,2.42,0,0,1-.35-3.08,1.89,1.89,0,0,1,.76-.54c.45-.2.92-.31,1.46-.49a5.35,5.35,0,0,1,.16.66c0,.26,0,.52.06.87,1.2-.8,2.2.1,3.28.19C70,48,68.6,48.66,67.24,49.28,66.82,49.47,66.38,49.6,65.94,49.76Z"/><path class="cls-2" d="M65.67,41.81H66c-.67,1.16-1.32,2.28-2,3.41a5.14,5.14,0,0,0-.38.64c-.21.5-.52.79-1.1.65a2.48,2.48,0,0,1-1.52-2.38,2,2,0,0,1,.44-.88c.23-.36.52-.69.83-1.1l1,1h.06a2.24,2.24,0,0,1,1.69-1.13A3.85,3.85,0,0,0,65.67,41.81Z"/><path class="cls-2" d="M52.62,36.08a3,3,0,0,1,0,.67c-.41,1.49-.85,3-1.3,4.45a.59.59,0,0,1-.41.33,6.68,6.68,0,0,1-1.08-.15l-.69-.54a1.66,1.66,0,0,1-.47-2,5.93,5.93,0,0,0,.36-.65,4.79,4.79,0,0,0,.16-.78l1.35.87.1-.3a1.68,1.68,0,0,1,.8-1C51.83,36.69,52.21,36.37,52.62,36.08Z"/><path class="cls-2" d="M65.94,49.76c.44-.16.88-.29,1.3-.48C68.6,48.66,70,48,71.31,47.37a12.4,12.4,0,0,0-.69,1.36,1.85,1.85,0,0,1-1.22,1.18l1,1.13-1.23.85A1.88,1.88,0,0,1,67,51.68,2.94,2.94,0,0,1,65.94,49.76Z"/><path class="cls-2" d="M45.84,40l-4.75,2.6-.2.07a11.53,11.53,0,0,1,.59-1.55A8,8,0,0,1,42.4,40l-1-.86,1.33-1A1.43,1.43,0,0,1,44.26,38C45.09,38.42,45.87,38.93,45.84,40Z"/><path class="cls-2" d="M54.66,46.49a1.44,1.44,0,0,1,0,.51q-.9,2.23-1.81,4.46a1.8,1.8,0,0,1-.14.22L52.37,51A13.56,13.56,0,0,1,52,49.56a2.44,2.44,0,0,1,.17-.75l-1.43-.13.38-1.63a1.34,1.34,0,0,1,1.1-1A2.37,2.37,0,0,1,54.66,46.49Z"/><path class="cls-2" d="M48.64,43.25c0,.19,0,.44-.09.56-1.16,1.27-2.34,2.53-3.52,3.79l-.17.14v-.18A4.88,4.88,0,0,0,45,46.9c0-.48,0-1,.08-1.47l.48-.74-1.32-.63c.35-.51.67-1,1-1.39a1.35,1.35,0,0,1,1.35-.57A2.43,2.43,0,0,1,48.64,43.25Z"/><path class="cls-2" d="M61.08,48.63c0,.22,0,.49-.08.66-.85,1.36-1.74,2.7-2.61,4.05a2.77,2.77,0,0,1-.2.23c0-1-.5-1.87.09-2.78.24-.37-.15-.31-.37-.31l-1-.3c.25-.54.49-1,.72-1.52a1.38,1.38,0,0,1,1.31-.82A2.5,2.5,0,0,1,61.08,48.63Z"/><path class="cls-1" d="M49.52,42v-.27l1.22.47.13.85Z"/><path class="cls-3" d="M45.11,45.43c0,.49,0,1-.08,1.47a4.88,4.88,0,0,1-.16.66c0-.56,0-1.13.08-1.7A1.62,1.62,0,0,1,45.11,45.43Z"/><path class="cls-2" d="M80,69.61v.78l-.14.1c-.65-.95-2.19-.74-2.48-2.18l-1.17.94c-.32-.53-.58-1-.86-1.43a1.36,1.36,0,0,1,0-1.39A2.66,2.66,0,0,1,76.92,65c.34-.1.68-.23,1-.35a.62.62,0,0,0-.09.76c.35.83.67,1.68,1,2.51s.57,1.39.89,2.16Z"/><path class="cls-2" d="M76.27,62.56c-.24.4-.65.38-1,.44a3.91,3.91,0,0,0-1,.27,2.63,2.63,0,0,1-2.88-.68,2,2,0,0,1-.24-.78c-.08-.42-.12-.85-.19-1.33h1.42a6.26,6.26,0,0,1,0-1.31A10.73,10.73,0,0,1,72.87,58a5.69,5.69,0,0,0,.21-1l.26.37c-.34.23,0,.47,0,.69.38,1.41.77,2.81,1.17,4.21.13.47.32.61.8.52A5.85,5.85,0,0,0,76.27,62.56Z"/><path class="cls-2" d="M76.27,62.56a5.85,5.85,0,0,1-1,.31c-.48.09-.67,0-.8-.52-.4-1.4-.79-2.8-1.17-4.21-.06-.22-.35-.46,0-.69a6,6,0,0,0,.87.66,1.74,1.74,0,0,1,1.1,1.32.49.49,0,0,0,.09.15l1.27-.81c.25.6.5,1.12.69,1.65a1.56,1.56,0,0,1-.61,1.77C76.59,62.3,76.43,62.43,76.27,62.56Z"/><path class="cls-2" d="M90.11,61.49l1.37-.4-4.9-2.69a2.42,2.42,0,0,1,2.49-2.18,1.48,1.48,0,0,1,.64.25c.42.29.81.62,1.34,1l-1.11.89a7.67,7.67,0,0,1,.86.8,3.7,3.7,0,0,1,.29.73c.21.47.44.93.65,1.36Z"/><path class="cls-2" d="M83.15,59.29l-.3.17a6.55,6.55,0,0,1-1,.42c-.39.1-.64-.07-.76-.51-.4-1.52-.85-3-1.28-4.54a1.85,1.85,0,0,1,0-.47,5.82,5.82,0,0,0,.89.7,1.94,1.94,0,0,1,1.22,1.57l1.28-.83c.22.48.39.89.59,1.28A1.66,1.66,0,0,1,83.15,59.29Z"/><path class="cls-2" d="M87.47,65.38l0,.65-1.25-1.31c-.73-.78-1.46-1.55-2.16-2.35a2.74,2.74,0,0,1-.34-.71,2.49,2.49,0,0,1,2.91-1.07,2.93,2.93,0,0,1,.76.77c.24.29.45.61.74,1-.15.08-.36.24-.59.35s-.48.2-.83.34C87.67,63.67,87.42,64.56,87.47,65.38Z"/><path class="cls-2" d="M80,69.61l-.2.49c-.32-.77-.61-1.46-.89-2.16s-.67-1.68-1-2.51a.62.62,0,0,1,.09-.76,2.45,2.45,0,0,1,3,.09,1.14,1.14,0,0,1,.37.52c.16.55.27,1.11.42,1.75l-1.43.12a2.6,2.6,0,0,1,.15.89A12.71,12.71,0,0,1,80,69.61Z"/><path class="cls-2" d="M71.68,23.3c-.1.11-.26.2-.3.32A2.36,2.36,0,0,1,69,25.33c-.65-1.67-1.29-3.35-1.94-5,0-.1-.17-.18-.26-.27a.66.66,0,0,1,0-.14,15.76,15.76,0,0,1,1.54.89,11.79,11.79,0,0,1,1.15,1.11,11.69,11.69,0,0,0,.9-.81c.16-.16.05-.32-.18-.36l.37-.13C70.33,21.8,71.07,22.52,71.68,23.3Z"/><path class="cls-1" d="M73.79,24a16.31,16.31,0,0,0,1.72.55,2.17,2.17,0,0,0,2.25-.93c-.12.66-.67.79-1.18,1A3.16,3.16,0,0,1,73.79,24Z"/><path class="cls-1" d="M74.85,31.42c.53,0,1.05-.05,1.57,0a4.46,4.46,0,0,1,.88.19c-.58,0-1.16,0-1.74,0A4.53,4.53,0,0,1,74.85,31.42Z"/><path class="cls-1" d="M76.34,25.36a15,15,0,0,0-1.5-.21,2.83,2.83,0,0,0-.78.18c.13-.08.26-.24.4-.24.56,0,1.13.05,1.69.1C76.22,25.2,76.28,25.3,76.34,25.36Z"/><path class="cls-1" d="M77.93,30.82c-.14-.43-.3-.86-.43-1.3a2.52,2.52,0,0,1,0-.48,1.68,1.68,0,0,1,.2.37C77.76,29.88,77.84,30.35,77.93,30.82Z"/><path class="cls-1" d="M72.9,26.12c-.09.37-.26.54-.64.28a3.23,3.23,0,0,0-.63-.23l.3-.26C72.17,26.35,72.41,26.4,72.9,26.12Z"/><path class="cls-1" d="M66.29,19.33a8.42,8.42,0,0,1,0,.87,2,2,0,0,1-.17.52c0-.33,0-.65,0-1A1.45,1.45,0,0,1,66.29,19.33Z"/><path class="cls-1" d="M75.93,18l-.51.2-1.18.41C74.69,18.1,75.34,18.14,75.93,18Z"/><path class="cls-1" d="M71.25,28.68a2.48,2.48,0,0,0,0,1.76A1.47,1.47,0,0,1,71.25,28.68Z"/><path class="cls-2" d="M76.62,18.18l.33-.3.11.05a3.66,3.66,0,0,0,0,2.15,4.06,4.06,0,0,1-.28,1.29l1.34.4c-.26.55-.48,1-.69,1.48a1.92,1.92,0,0,1-2,.9,4.44,4.44,0,0,1-2-1.12c.19-.1.46-.15.57-.31.91-1.38,1.8-2.77,2.69-4.17C76.67,18.46,76.62,18.31,76.62,18.18Z"/><path class="cls-2" d="M76.62,18.18c0,.13,0,.28,0,.37-.89,1.4-1.78,2.79-2.69,4.17-.11.16-.38.21-.57.31a2.41,2.41,0,0,1-1.73-2.53,1.89,1.89,0,0,1,.4-.8c.29-.39.62-.75,1-1.25l.42.56.49.65a2.68,2.68,0,0,1,.45-.56,5,5,0,0,1,.93-.45C75.77,18.48,76.19,18.33,76.62,18.18Z"/><path class="cls-2" d="M73.1,26.75a2.69,2.69,0,0,1,2.23-1.24,1.36,1.36,0,0,1,1.15.61c.28.34.6.66,1,1.07L76.28,28s0,.08,0,.09a2.06,2.06,0,0,1,.81,1.67,5.09,5.09,0,0,0,.25,1.06,3,3,0,0,1-.62-.29c-1.07-.87-2.1-1.77-3.19-2.62C73.13,27.56,72.88,27.26,73.1,26.75Z"/><path class="cls-2" d="M66.75,20c.09.09.22.17.26.27.65,1.67,1.29,3.35,1.94,5a1.85,1.85,0,0,1-1.66.69c-.56-.05-1.13,0-1.53-.46a2.8,2.8,0,0,1-.49-.83c-.15-.45-.22-.92-.35-1.47l1.37-.13s0,0,0-.05a2.7,2.7,0,0,1,.27-2.23A3.42,3.42,0,0,0,66.75,20Z"/><path class="cls-2" d="M73.1,26.75c-.22.51,0,.81.43,1.13,1.09.85,2.12,1.75,3.19,2.62a3,3,0,0,0,.62.29l.19.25c-.66,0-1.31,0-2-.08a4.35,4.35,0,0,1-1-.31,1.82,1.82,0,0,1-.35-.2l-.58,1.36c-.46-.3-.85-.56-1.25-.8a1.72,1.72,0,0,1-.73-2,2.49,2.49,0,0,1,1.11-1.66C72.92,27.24,73,27,73.1,26.75Z"/></svg>