<svg enable-background="new 0 0 133.9646606 78.7948227" viewBox="0 0 133.9646606 78.7948227" xmlns="http://www.w3.org/2000/svg"><g fill="#3e54a3"><path d="m45.8321075 36.2687759c-1.0458641.5839424-2.0201416 1.1820412-2.6050682 2.366272-.0373306-.2528648-.075573-.4268456-.0870895-.6025772-.1998825-3.0498962.063343-6.0421257 1.1534081-8.9237785.6143074-1.623951 1.5112305-3.0623875 2.8582764-4.1897087.0443687-.0371323.1001015-.0606956.1228752-.1408672-1.1499062-.1100445-2.1280785.3619843-3.1291733.8373699.850811-2.7007828 1.8263817-5.309515 4.2341423-7.1274815-1.4563484-.7129288-2.3980904-1.9217701-3.2855644-3.2227688.0799866-.0539141.1307182-.0965519.1882858-.125679 1.5552711-.7869024 3.1183891-1.5586767 4.6646347-2.3628979 1.0709267-.5570011 2.1506958-1.0447826 3.3871994-1.0933619.8298721-.0326052 1.6300888-.0148487 2.3099632.5579729.065937.0555544.2028236.0785856.2868042.0524788.4730186-.1470356.9399261-.3137293 1.4834671-.4991512-.6381607-.4279509-1.3161812-.5359945-1.9641991-.7762136 2.1257935-1.2047548 4.3820763-1.4911528 6.8184624-.9105387-.3233261-.6321087-.8349457-.9035749-1.4236336-1.1103258 1.2768059-.4437923 4.4984016-.6475563 6.9747505 1.2954493 2.0472336-1.5414591 4.3304138-1.8091841 6.7790909-1.1818933-.5583572.2432623-1.0822678.5161057-1.4071274 1.1503954 2.4277878-.5914469 4.6757202-.2860565 6.8897171.8925934-.7170105.247447-1.3443375.4639425-1.9716644.680438.0008316.0453672.0016556.0907345.0024796.1361017.5071945.1653614 1.0129623.3354292 1.5235214.4896507.0585861.0176964.1581573-.0366087.2146225-.085413.5707245-.4932194 1.2564468-.559926 1.967514-.5499411 1.1397858.0160065 2.2055054.305295 3.203476.8515091 1.7031937.9322062 3.3830948 1.9103775 5.1941757 2.6296387.041687.0165548.0765839.050189.1568375.10431-.8835907 1.3018551-1.8276291 2.5193596-3.294426 3.2283993 2.3992767 1.8069477 3.3823166 4.4157639 4.3056564 7.1754284-.5823746-.2536373-1.0613632-.5078487-1.5696182-.6707954-.5095367-.1633606-1.0482788-.2356644-1.5742188-.3478775-.0153198.040453-.030632.0809059-.0459442.1213589.0362473.0486279.064743.1064339.1098633.144558 1.4850006 1.2546043 2.4254608 2.867424 3.0418625 4.6812859.9345856 2.750124 1.1759109 5.58531.9774246 8.4684124-.0118942.1727982-.0504379.3437614-.0889206.5966759-.5500183-1.1842346-1.5364761-1.7814217-2.6089783-2.3936958.4772797 6.7749138-1.3714676 12.5782547-6.5337982 17.1173439-.0557404-1.7434578-.3634262-3.4293137-.7825165-5.1737099-.0951385.7923965-.1339417 1.5082664-.2733994 2.2039566-.4259796 2.1249161-1.5868683 3.8521347-3.0475464 5.395153-1.5975037 1.6875687-3.4590378 3.0313721-5.5029526 4.1278839-.0387955.0208092-.0820618.0332718-.1527557.027874 1.031311-.9139595 1.8080673-1.9741211 1.9776688-3.4068108-.0751343.0876808-.1586838.1695404-.2240295.2639961-.3903198.5641899-.7773438 1.1306648-1.163765 1.6975365-.5944824.8720779-1.3069687 1.6423721-2.1323013 2.2909546-.9220276.7245827-1.511734 1.6637154-1.9245682 2.7304077-.7243652 1.8716393-.9248505 3.8086128-.673851 5.7959709.0069809.0552673.0075684.1113281.0159607.2423325-.1913452-.1055756-.3416901-.175087-.477951-.2657623-1.7025757-1.1330185-3.1018982-2.5892334-4.4042358-4.1473007-1.8799133-2.249054-3.4479179-4.7081795-4.843853-7.277771-.3194733-.5880775-.5238686-1.2386703-.8336983-1.8530312.2183304 1.0980911.4366608 2.1961746.6666985 3.3531609-.1063995-.0512962-.1577377-.0667877-.1981888-.0969086-.858223-.6390266-1.7186317-1.2751846-2.5717316-1.9210014-1.7059669-1.2914658-2.8546524-2.9658241-3.4599266-5.0206604-.3888931-1.3202438-.67939-2.6576996-.8123856-4.0284081-.0116196-.1197586-.0378113-.2380981-.0993118-.3522606-.3928757 1.7584534-.254467 3.4932861.1819801 5.2303886-5.1550292-4.5268212-6.9876632-10.321087-6.5224266-17.0786668zm15.4694024-13.7484798c-.0292244.0105362-.058445.0210724-.0876656.0316105.01931.0881386.0396652.1760674.057766.2644539.2261047 1.1039276-.3407898 1.9436989-1.4553528 2.1235561-.2720757.0439053-.5600548.0495605-.8333664.0148602-1.0513115-.1334801-1.6273613-.8306961-1.5628357-1.8921585.0150452-.2474995-.0352287-.3654842-.2943459-.3929615-.2301407-.0244026-.4629097-.0692844-.6820259-.1425095-.3946991-.1319046-.7856331-.2792778-1.1653557-.448822-.0935898-.04179-.1984673-.2014256-.1868973-.2927933.0102577-.0809784.1652641-.1751671.2731628-.20751 1.6342087-.4898815 3.3025894-.6655521 5.0017242-.4987545 1.5832863.1554279 2.765976.8661823 3.3823433 2.4072819.1727066.4318066.4884071.8048248.7161293 1.2171764.0702057.1271286.1181564.3067627.0879517.4427261-.2294083 1.0325222-.5011139 2.0558624-.7197685 3.0904903-.2379532 1.1259518-.4339485 2.260788-.6456261 3.3922424-.0295525.1579552-.0876961.345253.1777649.3550243 1.0320816.0379963 1.9739532.4206867 2.9223099.7710285.6262131.2313271 1.2752457.3395958 1.9203415.2142487 1.455658-.2828522 2.9005432-.6211357 4.3499603-.9368973 0-.1584187.014946-.2517414-.0021973-.3387451-.3886719-1.9732723-.7632751-3.9496098-1.1837616-5.9161301-.1169052-.5467606-.3087463-1.039526.2499542-1.4659863.1512222-.1154308.2067566-.3577805.302742-.5436687.1387024-.2686253.2663269-.5432625.41259-.8076382.467865-.8456516 1.1660843-1.4194031 2.0987778-1.6683311.4687195-.1250954.9571457-.2255573 1.4396591-.240551 1.4976501-.0465374 3.0084915-.1434479 4.4341049.4788418.1414108.0617256.3645554.2357883.3465042.303709-.0437317.164587-.1792526.3713837-.3284149.4281616-.3649826.1389294-.755722.2176495-1.1416473.2916641-.2908325.0557766-.5902557.0667305-.9104004.1002026.1769867.867897.0544052 1.6166592-.7598419 2.0491962-.8091888.4298496-1.6553955.4201984-2.4198151-.0990906-.768631-.5221519-.7953186-1.2990532-.5300598-2.1439667-.4390945.3179741-.6330338.7905998-.6586685 1.4635811-.0066528.1748886-.0411072.3776302-.1374283.5153942-.5310211.759491-.7677078 1.5162506-.4647293 2.475687.4474564 1.4169273.7453308 2.8760319.8509293 4.3727779.0949478 1.3458405-.7768097 2.9190025-2.1255035 3.3327713-.8218994.2521515-1.6284027.5544739-2.4418945.834053-.0328522.0112877-.0668869.0305061-.099617.0290604-.3934097-.0173988-.4496231.0478172-.3737793.443985.0524826.2741814.1396713.546463.1527939.8223801.0230789.4850044.2974701.6931725.7297058.7865143 1.3820114.2984619 2.7683792.3323174 4.1578674.0686798.2178879-.0413399.4245148-.1420097.6363449-.2152443-.0069733-.0336456-.0139465-.0672951-.0209198-.1009407-.2366562.0115051-.4742508.0400276-.7095413.026989-.1097412-.0060768-.2862473-.0736504-.3058472-.1471329-.0303574-.1137848.0155182-.2815247.0907822-.3784904.0535202-.0689583.2113571-.0893059.3179321-.0796127.854538.0777206 1.7177353.1138611 2.5594406.2666016 1.2793198.2321472 2.4649582.7504196 3.6080856 1.3662796.1090851.058773.341835.088028.3892899.028698.308548-.3857613.5817032-.7998238.9202728-1.2811584-.7819061-.2484589-1.4787369-.5033798-2.1934128-.6898956-1.4155426-.3694115-2.8535233-.5505104-4.3200912-.3792-.1616364.0188789-.3556213.0298958-.3638687-.2071381-.0068893-.1978149.0630188-.3701096.3019714-.3966713.0693283-.0077057.1393127-.0252571.2079544-.0211182.9032135.0545044 1.8134308.0594978 2.7075653.1817131 1.2174988.1664162 2.3598557.6112328 3.4724579 1.1288223.1146698.0533447.3446808.0843582.3890152.0257492.2420807-.3199463.4428101-.6711845.6666794-1.025795-.0914917-.0558662-.1360092-.0948906-.1878281-.1129761-1.9434204-.6781578-3.9266052-1.0591888-5.9951324-.795536-.1947327.0248222-.4281921.0971794-.4564362-.2037506-.0246429-.2625122.1185913-.3725739.3932648-.4161758.2612915-.041481.5383606-.1467781.749588-.3034401.3433075-.2546234.6651306-.5504646.9490891-.8705444.8082352-.9110451 1.2382812-1.9577141 1.0475998-3.202282-.1855545-1.211071-.8217316-2.1834564-1.6198349-3.0708084-.1045532-.1162567-.2111664-.2306671-.3168259-.3459358.0929947-.043808.1477585-.0375519.1976013-.0184612 1.1622696.4451447 2.324234.891058 3.4852676 1.3393936.0747375.028862.1527252.0663929.2102737.1201477.8331299.7782173 1.5496368 1.6425266 1.9424667 2.7318878.2397079.6647301.1670914 1.2937069-.2213211 1.8991833-.5998993.9351463-1.4873505 1.4453697-2.5095291 1.774334-.1121979.0361137-.2217789.0803566-.3284683.1193275.9048462.3262901 1.785408.6509399 2.6741486.9514351.0748215.0252991.2597427-.0866776.3000793-.1767273.4221954-.9425659.9245911-1.8645325 1.2134171-2.848381.6381912-2.1739197.3550415-4.2074089-1.2330551-5.9477539-.3103714-.3401203-.5943604-.7043037-.8905182-1.0573883.0134277-.0200195.0268555-.0400391.0402908-.0600586.2339554.0669689.4679108.1339359.7045593.2016716-.1682129-.7331219-.3721237-1.4165497-.4710999-2.114851-.0872879-.6158276-.0784302-1.2485332-.0702515-1.8732395.0039673-.3029213.1840439-.493721.5361252-.4260445.1720123.0330658.3491821.0393047.5595093.0614185-.0356522-.1121445-.0477066-.1683903-.0707016-.2197285-.9449539-2.1094322-2.2423553-3.9632092-3.9988403-5.4789171-.1627579-.1404495-.3642807-.2633114-.5686646-.3235893-1.0361481-.3055849-2.077034-.5959177-3.1208649-.8743067-.4321518-.1152544-.8758011-.187398-1.34375-.285327.3224335-.6946993.9179001-1.0396824 1.5503464-1.4642649-1.8671341-.4669962-3.3377762.2831736-4.803894 1.1803856-.135498-.6133766-.0241013-1.1433983.2215958-1.6547451-.586235-.1499109-1.8944626.4852667-2.1059799 1.0080347-.0296783.0733624-.0313416.1593199-.039093.2401075-.1155167 1.20401-.2315903 2.4079714-.3438721 3.6122837-.0720062.7722301-.1380234 1.5450153-.2096176 2.3500843-.1886978-.0146656-.3365326-.0360031-.4843216-.0356922-.3633652.0007648-.4731216-.1727695-.5017014-.5335751-.1377411-1.7387466-.3082199-3.4749308-.4741135-5.2113523-.0115128-.1204967-.04496-.2798262-.1280212-.3458443-.4966202-.3947325-.9917374-.7978516-1.5280151-1.1331272-.2293472-.1433849-.5567322-.1299524-.8395691-.1877756-.0156403.0314121-.0312805.0628262-.0469208.0942392.269577.5124159.3573914 1.0448761.2401276 1.6475945-1.4832344-.8953753-2.9529152-1.6681023-4.7346992-1.1628962.5656433.3957796 1.1523094.749341 1.4642906 1.4438276-.1731873.0380707-.3075333.0653334-.4407616.0972509-1.0736008.2572021-2.1546974.4878559-3.2167244.7863407-.435936.1225214-.890049.3204355-1.234005.6065445-1.7278519 1.4372578-2.9902382 3.2379894-3.9496727 5.2592487-.0528259.11129-.0870934.2313881-.1289406.3445168.0532646.0256424.0730515.0417843.0943108.0440407.0459366.0048771.0959091.013937.1385078.0015678.4736481-.1375351.6094475-.0630226.6101608.5387383.0010185.857233-.0779381 1.7158833-.1528778 2.5712852-.0339622.3876877-.1403847.7690277-.2250938 1.2115479.2814751-.0779285.5179863-.1434097.8456726-.2341328-.1206551.1858044-.1835709.2922516-.2556343.3920918-.4220619.5847168-.8338699 1.1774025-1.2728386 1.7492046-.5642281.7349663-.8381996 1.5848827-.9356499 2.478775-.222477 2.0407963.4593391 3.846056 1.541275 5.5337009.1214905.1895065.2480087.1415443.414814.0864067.8049469-.2660942 1.6138268-.5202751 2.4210968-.7793541.0484161-.0155411.0949593-.0369263.1576157-.0615921-.0417404-.039814-.055069-.0621567-.0739899-.0689697-.0983734-.0354385-.1984596-.066082-.2974319-.0999031-.8413925-.2875366-1.5903549-.71455-2.1475067-1.428894-.4668198-.5985298-.7125931-1.2505379-.4812469-2.0161572.3629417-1.2011242 1.1397972-2.1167583 2.0383835-2.9468174.0568199-.0524864.1427689-.076128.2181892-.1053944 1.0952606-.424984 2.1907692-.84935 3.2871552-1.2714272.1005974-.0387268.2075882-.0608482.3583374-.1040802-.3904877.4934921-.7737846.9161453-1.0872688 1.385437-1.0145798 1.5188503-1.3483543 3.118391-.2447319 4.7202168.4325829.627861 1.0728569 1.1135674 1.6265602 1.6558304.0689049.0674858.1841621.107399.2831993.1205673.2717209.0361214.3314934.2352943.2724571.4279938-.0281982.0920486-.2479324.1956291-.3653679.1796646-1.960186-.2664642-3.8458023.0764809-5.7034264.6674728-.1039124.0330544-.2017899.0850792-.3425293.1454544.2367096.3210449.449482.5956116.6460037.8813515.1207809.1756096.237381.1914864.4372139.1115646.6687012-.2674446 1.3387184-.5389519 2.026207-.7504768 1.2549171-.3861084 2.5452118-.5410461 3.8595161-.4653282.0812263.0046806.1622849.0129356.2432747.021019.2515869.0251007.3612862.2028847.3092384.4095993-.0231209.0918312-.2444611.2037239-.3633881.1909256-1.6853981-.1813927-3.3169937.0917931-4.92659.5567207-.3854713.1113396-.760788.2578354-1.2024879.4093323.2866478.3506317.546402.6312943.7618256.9426346.2023964.2925186.3772926.3315392.7113838.1614342 1.7556458-.8938866 3.6102562-1.4181709 5.599575-1.3785706.1865807.0037117.414299-.021019.4386215.2279663.0150261.1538467-.075161.3179665-.1283073.5153313.0421524.0149918.1580963.0667763.2793541.0977287 1.2869568.3284798 2.5776787.3304863 3.8683662.0259819.1679382-.0396194.3349152-.10532.485199-.1895218.0922775-.0517006.1957321-.1510353.2188797-.2471123.1143112-.4744835.2090912-.95401.2953873-1.4345207.0126495-.0704346-.0399475-.2089729-.0915375-.2256317-.4115448-.1328812-.8346786-.2300873-1.2454529-.3650475-.5851212-.1922417-1.1725845-.3836212-1.7406464-.6196518-.5074921-.2108612-.9887276-.4826317-1.1913681-1.054081-.0140839-.0397186-.0489998-.098484-.0795135-.1019592-.4415359-.0502701-.5691185-.425045-.6120911-.7387161-.0905876-.66119-.2017822-1.3560963-.0917587-2.000864.2537537-1.4870892.6358376-2.9522076.9612617-4.4272518.0292664-.1326485.0725975-.2911015.0279579-.4059124-.1549797-.3986244-.3174629-.7999802-.5332565-1.1672993-.1399498-.2382145-.243763-.4526482-.2378616-.7379131.0106509-.514772-.1500089-.974239-.521938-1.3360668zm.1470985 16.2436504c-.7794762-.1583557-1.3212166-.5666504-1.6597824-1.2493591-.0415878-.0838585-.2611275-.1283875-.3888283-.11306-1.2907028.1548958-2.5241737.5254936-3.7201424 1.027153-.0786362.0329819-.1483841.0871544-.1903419.1123199.4219971.6775169.8691292 1.304184 1.2211609 1.9803658.6480827 1.2448311 1.0022507 2.5993042 1.3627663 3.9491577.3867874 1.4482307.743866 2.907444 1.2082634 4.3310852.5016365 1.5378151 1.421917 2.7908134 2.8776855 3.5876617 1.1347237.6211014 2.3714409.8789864 3.6426353.9920731 2.1671066.1927872 4.3248901-.032196 6.4772644-.2246056 1.4154587-.1265335 2.6332626-.7618179 3.4116592-1.9868965.4434967-.6979828.8101578-1.4750328 1.0509949-2.2653618.538559-1.7673492.9650421-3.5685349 1.4590912-5.3498573.4528732-1.6328316 1.0274734-3.2146606 2.100029-4.5652122.0479889-.0604248.075882-.1368141.1130753-.2056618-.0383682-.0361862-.0593338-.0681496-.0888062-.0820007-1.1842117-.5562897-2.4139633-.9724388-3.7019348-1.2148056-.2497787-.0470009-.3695831.0692978-.4494171.2741051-.1913834.4909439-.5753021.7397423-1.0674744.857357-.0961151.0229721-.1875.0657234-.3027344.1071434.0678711.1285019.1223755.2288055.1742783.3304367.704422 1.379406.8583832 2.7634621.0390244 4.1579475-.4692917.7987061-.7186584 1.6637878-.7413635 2.5887299-.0156937.6393814.0307999 1.2823524-.0196915 1.9182205-.0465469.5862465-.1498413 1.1741219-.2936325 1.7447777-.1431122.5679474-.5603027.9359741-1.1400909.9901657-.5595474.0522881-1.146553.0797844-1.6916275-.0300636-2.0242615-.4079437-4.02771-.5452614-6.0357285.0909729-.3911057.1239166-.8255386.1493225-1.2404785.1523361-1.0709648.0077744-1.8515472-.7588387-1.8728371-1.8346024-.0082283-.4157524.0277138-.8385963.0991898-1.2485085.1990318-1.1414108.2878494-2.26511-.2989159-3.333313-.1735611-.3159637-.3311729-.6410828-.5136032-.9517136-.8209381-1.3978539-.7263069-2.7928009-.0017166-4.1895523.0516243-.0995139.1040306-.1986197.1820297-.3474349zm.5213814 3.4011078c.165966.3579712.304657.700325.4787827 1.0235939.3513374.6522789.5929604 1.3275337.668808 2.0752869.0342255.3374367.2378883.6576805.3646774.9857292.1377144-.1199722.1743965-.2259521.2213707-.3271523.2444992-.5267525.4837952-1.0562515.7458191-1.5742073.0418396-.0826988.2124634-.1755638.2831268-.1503639.1012344.0361061.2157288.1672821.2353134.2742157.0499496.2727165.0606842.5541916.0687866.832695.0230484.7916298.696785 1.1383781 1.0995178 1.7583122.1208954-.3290749.2067642-.5627861.312439-.8504333.5058594.5883484.9709549 1.1292915 1.4642639 1.7030449.5112228-.5923119.9856567-1.1420135 1.4909439-1.7274513.1267853.2566719.2253265.4561768.3367081.6816635.3591232-.3154335.6924438-.587265.9979553-.887394.1136322-.1116295.2033234-.2820435.2317886-.438755.0578995-.3187065.0493927-.6492882.1039429-.9688797.0231323-.1354675.1362-.2555847.2083969-.3826752.1230621.0746918.2643585.131012.363678.2296143.0867996.0861549.1352158.2161102.1853027.333252.2726822.637722.5406418 1.2774658.8438797 1.9963074.1424789-.3066864.310585-.5700836.3901596-.8579483.2594528-.9385643.4836349-1.8868217.7282486-2.8295708.0599747-.2311363.1460953-.4554901.220192-.6829643-.0360718-.0268669-.0721512-.0537376-.1082153-.0806046-.1199799.1237297-.2792969.2277451-.3529358.3746948-.275589.5499725-.5139084 1.1186447-.7906418 1.6679878-.0442123.0877686-.2294617.1732254-.3204269.1492729-.090065-.023716-.1879501-.1804504-.2045441-.2905693-.0535583-.3554878-.0563202-.7186966-.1114044-1.0738525-.0177994-.1147423-.1166077-.2808266-.2125473-.3096466-.9439011-.2835884-1.8853836-.3499527-2.7456741.2433586-.3417435.2356911-.6450119.5315208-.9459686.8206177-.2302475.2211685-.4536667.2555656-.7170868.0807762-.2228241-.14785-.4465866-.2945137-.6738739-.4353561-.7741394-.4797249-1.5972061-.8001022-2.5262375-.8008881-.2479172-.0002136-.3637199.0855446-.3795509.3339233-.0229034.3593597-.0446053.7203865-.1013374 1.0751801-.0213737.133667-.1097374.3003082-.219223.3666077-.1945953.117836-.2906303-.0668488-.3566704-.2157478-.2775726-.6258469-.5536575-1.2525291-.816143-1.8847771-.0761988-.1835404-.1232569-.3610726-.4616205-.2368966zm-6.9140969-27.3219776c.0058937-.0493689.0117912-.0987368.0176849-.1481056-.3534889-.1513529-.6947441-.3500528-1.0627632-.445178-1.102066-.2848577-2.1346016-.1100559-3.0909462.5338764-.4992561.3361645-1.0257988.6335554-1.5518494.9272642-.1927567.1076212-.4196663.154067-.7063522.2549305.2358055.1755104.4013214.3167324.5836067.4312687.8070412.5070877 1.7111855.6920071 2.642086.8059502.4065399.0497608.7202606-.0059795 1.028553-.3203468.6895791-.7031747 1.4238893-1.3624831 2.1399804-2.0396596zm25.4195404.0385675c.0297852.0557089.0394516.0927839.0630493.1151829.8015366.7608013 1.6011124 1.5237589 2.4122162 2.2742567.0800552.0740757.2333984.1034355.3501205.0979633.9517975-.0446339 1.8680344-.2457924 2.7127838-.6999969.2569199-.1381359.4856033-.3287811.727211-.4953766-.0064011-.0320168-.0128021-.0640335-.0192032-.0960522-.8689651-.1880016-1.5555573-.7127333-2.2638931-1.1906633-.9090805-.6133757-1.897377-.7191105-2.9404221-.5080662-.3858336.0780678-.7571791.2065564-1.0418624.5027523zm-14.9094848 26.6877757c.3753662-.7753029.7040863-1.454258 1.0661316-2.2020416.4333801.806057.824913 1.5342674 1.2524719 2.3294907.4413223-.8327713.8454895-1.5954399 1.2655869-2.3881569-.4971542-.1760368-1.0187683-.2365074-1.25354-.7433167-.8646088.9482079-2.0206909.7149239-3.0904999.9222031.2461852.674488.4833984 1.3244132.7598495 2.0818214zm7.066803 1.9122619c.4843216-.7827682.7829437-1.6098518.7759171-2.5052185-.003479-.4431877-.1211014-.8885078-.2147827-1.3269463-.0680618-.3185349-.265007-.4644661-.6109772-.3529282-.1635513.0527306-.3410721.075779-.5136185.0840263-.3242798.0154877-.413475.1431808-.3197098.4659119.2554092.8791428.4924927 1.7639198.7184372 2.6511497.0817871.3211557.1113434.6556169.1647339.9840051zm-9.3000527.032219c.2996902-1.1387405.5830917-2.2490845.8856163-3.3541946.2316513-.8462334.1715927-.726223-.542099-.8116226-.0690384-.0082664-.1385765-.0180435-.2057343-.0354195-.313549-.0811195-.4980888.0346985-.6152382.3395958-.5322837 1.3853072-.0653571 2.6283721.4774552 3.8616409zm2.1578484 5.6027183c-.3440552-1.3549461-.6655502-2.6210594-.9952927-3.9196205-.3564911.7032623-.6093102 1.4308548-.6948624 2.208065-.0615425.5590973-.0367737 1.119442.2149506 1.6377182.0494308.1017761.1960678.2291565.2906036.223484.388237-.0232848.7736664-.0934066 1.1846009-.1496467zm5.1476211-.2561493c.3057098.0464172.5899811.0899124.8743591.132679.5476303.0823555.6103897.0406189.7057495-.5174904.1973419-1.1550331-.1531677-2.2039032-.6393585-3.2242088-.0098038-.0205841-.0555649-.0240402-.0388031-.0174255-.2971343 1.1946907-.5933685 2.3857536-.901947 3.6264457zm-2.7260894-.2650451c-.4415817-.5106964-.8466339-.9791412-1.3004761-1.5040092-.1970673.6170998-.3696976 1.1577034-.5423355 1.698307.0241852.039814.0483704.079628.0725632.119442 1.2421341-.132946 2.4960556-.0330429 3.7972717-.2162056-.2343597-.5954857-.4353943-1.1063042-.6585159-1.6732445-.2541199.2923164-.465683.5354996-.6770401.7788658-.21978.2530632-.4393616.5063018-.6914673.7968445zm2.362297-7.0863228c.0314331-.0044975.0628738-.0089912.0943069-.013485.2220459-.5202332.4430771-1.0409012.6664886-1.5605469.1482315-.3447647.1159668-.4443703-.248848-.4922523-.4899139-.0643005-.9856339-.0843201-1.5575333-.12957.3666384.7699776.7061083 1.4829178 1.0455858 2.1958542zm-10.0911827-18.9760704c-.0669823.7100468-.2999802 1.0734596-.7246475 1.0319443-.223774-.0218792-.4965363-.1718884-.6265182-.351408-.1367645-.1888924-.1295471-.4820385-.1842384-.725174-.4361.3629417-.4973946.8725815-.1445885 1.2660255.4337425.4837093 1.2571793.5101967 1.7268791.0555458.3836326-.3713455.3773765-.8799839-.0468865-1.2769336zm15.5359612-.0807019c-.3944931.3590126-.4888306.7050018-.3184738 1.0789738.1819687.3994732.680397.656599 1.1642761.6006165.4886856-.0565376.8873291-.370409.9668427-.777647.0634079-.3247566-.022171-.5986919-.3147812-.8446293-.0449219.7307301-.3062973 1.0786362-.7619629 1.0720673-.45887-.0066148-.7010651-.3672219-.7359009-1.1293813z"/><path d="m64.7568588 22.9910622c-.4255981-.5619392-.8340111-1.0383015-1.1688995-1.5617065-.3119965-.487627-.5554924-1.0205784-.8096046-1.5430775-.1162376-.2390156-.2751503-.3639603-.5353775-.4377117-1.235611-.3501968-2.4003143-.8453674-3.2237358-1.8895969-.2902641-.368103-.5030518-.7973042-.7512131-1.1986065.0264931-.0290718.05299-.0581417.079483-.0872116.0986214.0360069.1994858.066885.2955399.1087799 1.8963242.8271217 3.7932701 1.6528511 5.6850967 2.4901562.1162643.0514584.2660599.1909809.2738342.2986622.0871048 1.2055664.1496048 2.4129162.2168427 3.6198902.0016937.0303973-.0181809.0619944-.061966.2004222z"/><path d="m77.3890915 16.2535458c-.0686264.176012-.106308.291687-.1575012.4010372-.5647278 1.2063465-1.5453873 1.9474659-2.7448883 2.4380856-.2790756.1141453-.5610962.2448692-.8542633.2951832-.440834.075655-.6780014.3241215-.850029.715395-.4179459.9505806-.9535294 1.8314095-1.6532974 2.605648-.0621109.0687141-.1192398.1419773-.1823196.2097378-.0124207.0133476-.0416183.0110893-.0869141.0215206-.0045395-.0805302-.0164413-.1566944-.0119324-.2318745.0680542-1.1359577.1426315-2.271553.2042007-3.4078522.0120163-.2216415.0793686-.3504028.2985611-.4448757 1.9084854-.8225594 3.8109283-1.6591339 5.7157135-2.4903011.0805054-.0351315.1663513-.0580521.32267-.1117039z"/><path d="m65.9161987 23.5107059c.9264984-.9916916 2.7558212-1.0645065 3.9024048-.1545391-.3383026.1657696-.5936737.3959999-1.0213089.2001724-.6364365-.2914391-1.3154449-.2958508-1.9595261.0013237-.3227004.1488896-.5971679.0958176-.9215698-.046957z"/><path d="m61.8959846 37.3527374c0-.1953506 0-.3760948 0-.578804.2407265-.0302048.3532219.0737305.3500862.3202972-.0026397.2074624-.0620078.3436509-.3500862.2585068z"/><path d="m73.5185699 36.7688332c-.0112534.2070122-.021019.3867989-.0315399.5802422-.1942368.0754089-.310318.0266953-.3315735-.1910248-.0235214-.2408829.0377503-.4124833.3631134-.3892174z"/><path d="m59.7972412 34.8612289c0-.2003632 0-.3807259 0-.5717773.2761574-.0132446.3590851.1319122.340271.3628654-.0158882.195057-.1004372.3032303-.340271.2089119z"/><path d="m74.541481 35.5174484c-.0081406.0998192.0004425.2049294-.0289764.298027-.0311966.0987167-.0984879.1860275-.1500168.2783241-.0597534-.1057625-.179039-.2208328-.1643219-.314949.0187454-.1198349.1459198-.2227097.2263565-.3328972.0389862.0238305.0779724.0476609.1169586.0714951z"/><path d="m75.598999 34.8555946c-.2141953.0986366-.3082809.0137367-.3320236-.1889343-.0271454-.231739.053978-.3740654.3320236-.3832092z"/><path d="m60.8839531 35.4992828c.2955437-.0046196.3643951.1695976.314476.3835716-.0220337.0944405-.1505394.1640434-.2307091.2449226-.0279236-.0237961-.0558434-.047596-.0837669-.0713921 0-.1850089 0-.3700141 0-.5571021z"/></g></svg>