<svg viewBox="0 0 133.96 78.79" xmlns="http://www.w3.org/2000/svg"><g fill="#a83131"><path d="m45.83 36.27a5.56 5.56 0 0 0 -2.6 2.37c0-.26-.08-.43-.09-.61a21 21 0 0 1 1.15-8.92 9.86 9.86 0 0 1 2.86-4.19c.05 0 .1-.06.12-.14a5.83 5.83 0 0 0 -3.12.84c.85-2.71 1.82-5.31 4.23-7.13a8.76 8.76 0 0 1 -3.29-3.22 1.3 1.3 0 0 1 .19-.13c1.56-.79 3.12-1.56 4.67-2.36a8 8 0 0 1 3.38-1.1 3.16 3.16 0 0 1 2.31.56.34.34 0 0 0 .29 0c.47-.14.94-.31 1.48-.5a8.48 8.48 0 0 0 -2-.77 9 9 0 0 1 6.82-.91 2.26 2.26 0 0 0 -1.39-1.06 8.07 8.07 0 0 1 7 1.29 7.57 7.57 0 0 1 6.76-1.18 2.55 2.55 0 0 0 -1.41 1.15 9.4 9.4 0 0 1 6.89.89l-2 .68v.17c.51.17 1 .34 1.53.49 0 0 .15 0 .21-.09a2.78 2.78 0 0 1 2-.55 6.78 6.78 0 0 1 3.2.86 46.9 46.9 0 0 0 5.2 2.63s.07 0 .15.1a8.72 8.72 0 0 1 -3.29 3.23c2.4 1.81 3.38 4.41 4.3 7.17-.58-.25-1.06-.5-1.57-.67s-1-.23-1.57-.34v.12a1.71 1.71 0 0 0 .11.14 10.3 10.3 0 0 1 3 4.68 21.51 21.51 0 0 1 1 8.47c0 .17 0 .34-.09.6a5.53 5.53 0 0 0 -2.61-2.4c.48 6.78-1.37 12.58-6.53 17.12a25 25 0 0 0 -.78-5.17c-.1.79-.14 1.51-.27 2.2a11.07 11.07 0 0 1 -3.07 5.41 21.4 21.4 0 0 1 -5.51 4.12.17.17 0 0 1 -.15 0 5.32 5.32 0 0 0 2-3.4 1.78 1.78 0 0 0 -.22.26l-1.17 1.7a10.3 10.3 0 0 1 -2.16 2.32 6.12 6.12 0 0 0 -1.92 2.73 11.67 11.67 0 0 0 -.68 5.79v.25c-.19-.11-.34-.18-.48-.27a21.17 21.17 0 0 1 -4.41-4.15 44.83 44.83 0 0 1 -4.82-7.35c-.32-.59-.52-1.24-.83-1.86l.66 3.36-.19-.1-2.58-1.92a9.57 9.57 0 0 1 -3.46-5 22.14 22.14 0 0 1 -.81-4 .88.88 0 0 0 -.1-.35 11.28 11.28 0 0 0 .18 5.23c-5.15-4.54-6.98-10.36-6.52-17.09zm15.47-13.75h-.09l.06.27a1.66 1.66 0 0 1 -1.45 2.12 3 3 0 0 1 -.82.09 1.65 1.65 0 0 1 -1.56-1.89c0-.24 0-.36-.29-.39a3.25 3.25 0 0 1 -.69-.14c-.39-.13-.78-.28-1.16-.45a.36.36 0 0 1 -.19-.29c0-.09.17-.18.27-.21a12.88 12.88 0 0 1 5-.5 3.72 3.72 0 0 1 3.38 2.41 12.33 12.33 0 0 0 .71 1.21.72.72 0 0 1 .09.45c-.23 1-.5 2.05-.72 3.09s-.43 2.26-.64 3.39c0 .16-.09.34.18.35a9.29 9.29 0 0 1 2.92.78 3.61 3.61 0 0 0 1.92.21c1.45-.28 2.9-.62 4.35-.94 0-.16 0-.25 0-.34-.39-2-.77-4-1.19-5.91-.12-.55-.31-1 .25-1.47.15-.11.21-.36.3-.54s.27-.55.42-.81a3.27 3.27 0 0 1 2.1-1.67 6.88 6.88 0 0 1 1.44-.24 10.11 10.11 0 0 1 4.43.48c.14.06.36.24.35.3a.67.67 0 0 1 -.33.43 6.57 6.57 0 0 1 -1.14.29 8.44 8.44 0 0 1 -.91.1 1.69 1.69 0 0 1 -.76 2.05 2.23 2.23 0 0 1 -2.42-.1 1.69 1.69 0 0 1 -.53-2.14 1.72 1.72 0 0 0 -.66 1.46 1 1 0 0 1 -.14.52 2.61 2.61 0 0 0 -.46 2.47 19.63 19.63 0 0 1 .85 4.38 3.36 3.36 0 0 1 -2.17 3.28c-.82.25-1.63.55-2.44.83a.13.13 0 0 1 -.1 0c-.39 0-.45.05-.37.45a7.4 7.4 0 0 1 .15.82.79.79 0 0 0 .73.79 10.59 10.59 0 0 0 4.16.07c.21 0 .42-.15.63-.22v-.1c-.24 0-.47 0-.71 0s-.28-.08-.3-.15a.49.49 0 0 1 .09-.38c.05-.07.21-.09.31-.08.86.08 1.72.11 2.56.27a12.33 12.33 0 0 1 3.61 1.36c.11.06.34.09.39 0 .31-.38.58-.8.92-1.28-.78-.25-1.48-.5-2.19-.69a11.68 11.68 0 0 0 -4.31-.31c-.16 0-.36 0-.37-.21s.07-.37.31-.39a.71.71 0 0 1 .2 0c.91.05 1.82.06 2.71.18a12.17 12.17 0 0 1 3.47 1.13c.12 0 .35.08.39 0a12 12 0 0 0 .67-1 1.31 1.31 0 0 0 -.19-.12 13.13 13.13 0 0 0 -6-.79c-.2 0-.43.1-.46-.2s.12-.38.39-.42a1.82 1.82 0 0 0 .75-.3 6.06 6.06 0 0 0 1-.88 3.81 3.81 0 0 0 1-3.2 6 6 0 0 0 -1.62-3.07l-.32-.34a.21.21 0 0 1 .2 0l3.49 1.34a.63.63 0 0 1 .21.12 7 7 0 0 1 1.94 2.73 2 2 0 0 1 -.22 1.9 4.43 4.43 0 0 1 -2.51 1.77l-.33.12c.9.33 1.78.65 2.67.95.08 0 .26-.08.3-.17a22.83 22.83 0 0 0 1.19-2.87 5.84 5.84 0 0 0 -1.24-6c-.31-.34-.59-.7-.89-1.06v-.06l.71.2c-.17-.73-.37-1.41-.47-2.11a11.7 11.7 0 0 1 -.07-1.87.4.4 0 0 1 .53-.43c.18 0 .35 0 .56.06a2 2 0 0 0 -.07-.22 15.38 15.38 0 0 0 -4-5.48 1.53 1.53 0 0 0 -.57-.32q-1.54-.46-3.12-.87c-.43-.12-.87-.19-1.34-.29a3.77 3.77 0 0 1 1.55-1.46c-1.87-.47-3.34.28-4.8 1.18a2.4 2.4 0 0 1 .22-1.66 2.52 2.52 0 0 0 -2 1.11.93.93 0 0 0 0 .24c-.11 1.2-.23 2.41-.34 3.61-.07.77-.14 1.55-.21 2.35h-.48c-.37 0-.48-.18-.51-.54-.13-1.74-.3-3.47-.47-5.21a.52.52 0 0 0 -.13-.34 16.86 16.86 0 0 0 -1.53-1.14 2.72 2.72 0 0 0 -.84-.19v.1a2.45 2.45 0 0 1 .24 1.65c-1.49-.9-3-1.67-4.74-1.17a3.72 3.72 0 0 1 1.47 1.45l-.44.09c-1.08.26-2.16.49-3.22.79a3.35 3.35 0 0 0 -1.24.61 15 15 0 0 0 -3.94 5.26 2.37 2.37 0 0 0 -.13.34l.09.05h.14c.47-.14.61-.07.61.54 0 .85-.08 1.71-.15 2.57 0 .38-.14.77-.23 1.21l.85-.24-.26.4c-.42.58-.83 1.17-1.27 1.75a4.79 4.79 0 0 0 -.94 2.47 8.42 8.42 0 0 0 1.54 5.54c.13.19.25.14.42.08l2.42-.77.16-.07-.08-.07-.29-.1a4.36 4.36 0 0 1 -2.15-1.42 2.13 2.13 0 0 1 -.48-2 6.67 6.67 0 0 1 2-2.95.68.68 0 0 1 .21-.1l3.29-1.27.36-.11c-.39.5-.77.92-1.09 1.39-1 1.52-1.35 3.12-.24 4.72a12 12 0 0 0 1.6 1.55.5.5 0 0 0 .29.12.31.31 0 0 1 .27.43.43.43 0 0 1 -.37.18 13 13 0 0 0 -5.7.67 3.57 3.57 0 0 0 -.34.14c.24.33.45.6.64.89a.31.31 0 0 0 .44.11c.67-.27 1.34-.54 2-.75a10.92 10.92 0 0 1 3.86-.47h.24a.32.32 0 0 1 .31.41.41.41 0 0 1 -.36.19 12.84 12.84 0 0 0 -4.93.56c-.39.11-.76.26-1.2.41.28.35.54.63.76.94s.38.33.71.16a11.87 11.87 0 0 1 5.6-1.38c.19 0 .41 0 .44.23a2 2 0 0 1 -.13.52l.28.1a8 8 0 0 0 3.87 0 1.66 1.66 0 0 0 .48-.19.43.43 0 0 0 .22-.24c.12-.48.21-1 .3-1.44 0-.07 0-.21-.09-.22-.42-.14-.84-.24-1.25-.37-.58-.19-1.17-.38-1.74-.62a1.86 1.86 0 0 1 -1.19-1.05s0-.1-.08-.11c-.44 0-.57-.42-.61-.73a6.82 6.82 0 0 1 -.09-2c.25-1.48.63-2.95 1-4.42a.73.73 0 0 0 0-.41 7.24 7.24 0 0 0 -.53-1.17 1.35 1.35 0 0 1 -.24-.73 1.75 1.75 0 0 0 -.56-1.31zm.15 16.24a2.2 2.2 0 0 1 -1.66-1.25c0-.08-.26-.12-.39-.11a14.19 14.19 0 0 0 -3.72 1 1.39 1.39 0 0 0 -.19.11c.42.68.87 1.31 1.22 2a19 19 0 0 1 1.36 3.95c.39 1.45.75 2.91 1.21 4.33a6.05 6.05 0 0 0 2.88 3.59 9.07 9.07 0 0 0 3.64 1 36.9 36.9 0 0 0 6.48-.22 4.36 4.36 0 0 0 3.41-2 9.55 9.55 0 0 0 1-2.27c.54-1.76 1-3.56 1.46-5.35a12.48 12.48 0 0 1 2.15-4.54.84.84 0 0 0 .11-.21l-.08-.08a15.64 15.64 0 0 0 -3.71-1.21.36.36 0 0 0 -.45.27 1.39 1.39 0 0 1 -1.06.86 1.67 1.67 0 0 0 -.31.11 3.69 3.69 0 0 1 .18.33 4.06 4.06 0 0 1 0 4.15 5.28 5.28 0 0 0 -.74 2.59v1.92a10.33 10.33 0 0 1 -.3 1.75 1.27 1.27 0 0 1 -1.14 1 6 6 0 0 1 -1.69 0 11.78 11.78 0 0 0 -6 .09 4.26 4.26 0 0 1 -1.24.15 1.8 1.8 0 0 1 -1.87-1.89 6.48 6.48 0 0 1 .1-1.24 4.87 4.87 0 0 0 -.3-3.34c-.17-.31-.33-.64-.51-1a4.07 4.07 0 0 1 0-4.19zm.55 3.41c.17.35.3.7.48 1a5.6 5.6 0 0 1 .67 2.07 4.22 4.22 0 0 0 .36 1 .73.73 0 0 0 .22-.33c.25-.52.49-1.05.75-1.57 0-.08.21-.18.28-.15a.43.43 0 0 1 .24.27 5.81 5.81 0 0 1 .07.83c0 .8.69 1.14 1.1 1.76l.31-.85 1.46 1.71 1.49-1.73.34.68c.36-.32.69-.59 1-.89a.89.89 0 0 0 .23-.44c.06-.31 0-.65.1-1a1.8 1.8 0 0 1 .21-.38 1.93 1.93 0 0 1 .37.23 1.22 1.22 0 0 1 .18.34l.85 2a6.41 6.41 0 0 0 .39-.86c.26-.94.48-1.88.72-2.83.06-.23.15-.45.22-.68l-.1-.08a1.85 1.85 0 0 0 -.36.38c-.27.55-.51 1.11-.79 1.66a.34.34 0 0 1 -.32.15.37.37 0 0 1 -.2-.29c-.06-.35-.06-.72-.11-1.07a.43.43 0 0 0 -.22-.31 3 3 0 0 0 -2.74.24 8.22 8.22 0 0 0 -1 .82.51.51 0 0 1 -.72.08l-.67-.43a4.73 4.73 0 0 0 -2.53-.8c-.24 0-.36.08-.38.33a9.85 9.85 0 0 1 -.1 1.08.54.54 0 0 1 -.22.36c-.19.12-.29-.06-.35-.21-.28-.63-.56-1.26-.82-1.89-.05-.15-.1-.37-.41-.2zm-6.94-27.33v-.15a7 7 0 0 0 -1.06-.44 3.66 3.66 0 0 0 -3.09.53c-.5.34-1 .64-1.55.93a4.33 4.33 0 0 1 -.71.26c.24.17.4.31.59.43a6.25 6.25 0 0 0 2.64.8 1.09 1.09 0 0 0 1-.32c.73-.7 1.46-1.36 2.18-2.04zm25.42 0c0 .06 0 .09.06.12.8.76 1.6 1.52 2.41 2.27a.52.52 0 0 0 .35.1 6.37 6.37 0 0 0 2.71-.7 7.25 7.25 0 0 0 .73-.5v-.09a6.81 6.81 0 0 1 -2.26-1.19 3.69 3.69 0 0 0 -2.94-.51 1.92 1.92 0 0 0 -1.06.54zm-14.91 26.73 1.06-2.2 1.25 2.33 1.27-2.39c-.5-.18-1-.24-1.25-.74-.87.94-2 .71-3.09.92zm7.06 1.91a4.58 4.58 0 0 0 .78-2.5 6.06 6.06 0 0 0 -.22-1.33.42.42 0 0 0 -.61-.35 2.17 2.17 0 0 1 -.51.08c-.32 0-.41.14-.32.47.25.88.49 1.76.72 2.65.08.32.11.65.16.98zm-9.3 0c.3-1.13.59-2.25.89-3.35.23-.85.17-.73-.54-.81h-.21a.46.46 0 0 0 -.61.34 4.82 4.82 0 0 0 .47 3.85zm2.16 5.61-1-3.92a6.42 6.42 0 0 0 -.7 2.21 2.87 2.87 0 0 0 .21 1.62.42.42 0 0 0 .29.23c.4.01.79-.06 1.2-.11zm5.15-.26.87.13c.55.09.61 0 .71-.51a5.27 5.27 0 0 0 -.64-3.23s-.06 0 0 0zm-2.73-.26-1.3-1.51-.54 1.7.07.12c1.24-.13 2.5 0 3.8-.22l-.66-1.66-.68.78c-.22.27-.44.52-.69.82zm2.36-7.09h.1c.22-.52.44-1 .67-1.56.14-.35.11-.45-.25-.5s-1-.08-1.56-.13zm-10.09-19c-.06.71-.3 1.08-.72 1a1 1 0 0 1 -.63-.35 2.06 2.06 0 0 1 -.18-.72.83.83 0 0 0 -.15 1.26 1.24 1.24 0 0 0 1.73.06.83.83 0 0 0 -.05-1.2zm15.54-.08a.87.87 0 0 0 -.32 1.08 1.14 1.14 0 0 0 1.16.6 1.06 1.06 0 0 0 1-.78.8.8 0 0 0 -.31-.84c0 .73-.31 1.08-.76 1.07s-.74-.32-.77-1.08z"/><path d="m64.76 23c-.43-.56-.84-1-1.17-1.56a15.06 15.06 0 0 1 -.81-1.54.78.78 0 0 0 -.54-.44 5.94 5.94 0 0 1 -3.24-1.9 13.41 13.41 0 0 1 -.75-1.2l.08-.09.29.11c1.9.83 3.8 1.65 5.69 2.49a.5.5 0 0 1 .27.3c.09 1.21.15 2.41.22 3.62a1.79 1.79 0 0 1 -.04.21z"/><path d="m77.39 16.25c-.07.18-.11.3-.16.4a4.84 4.84 0 0 1 -2.74 2.44 3.82 3.82 0 0 1 -.86.3 1.06 1.06 0 0 0 -.85.71 9.77 9.77 0 0 1 -1.65 2.61l-.18.21h-.09a1.85 1.85 0 0 1 0-.23c.07-1.14.14-2.27.2-3.41a.43.43 0 0 1 .3-.44l5.72-2.49z"/><path d="m65.92 23.51a3 3 0 0 1 3.9-.15c-.34.16-.6.39-1 .2a2.25 2.25 0 0 0 -2 0 1 1 0 0 1 -.9-.05z"/><path d="m61.9 37.35v-.58c.24 0 .35.08.35.32s-.07.35-.35.26z"/><path d="m73.52 36.77v.58c-.2.07-.31 0-.33-.19s0-.41.33-.39z"/><path d="m59.8 34.86v-.57c.27 0 .36.13.34.36s-.14.35-.34.21z"/><path d="m74.54 35.52a1.53 1.53 0 0 1 0 .3 1.82 1.82 0 0 1 -.15.27c-.06-.1-.18-.22-.16-.31s.14-.22.22-.33z"/><path d="m75.6 34.86c-.22.09-.31 0-.33-.19s0-.38.33-.39z"/><path d="m60.88 35.5c.3 0 .37.17.32.38s-.15.17-.23.25l-.09-.07z"/></g></svg>