<svg viewBox="0 0 133.96 78.79" xmlns="http://www.w3.org/2000/svg"><path d="m62 70.44h1.41c-1-1.46-2.83-1.45-4.15-2.35l.08-.26c.32 0 .64.08 1 .08a4.84 4.84 0 0 0 .64-.13 2 2 0 0 0 -.67-.31c-1.75 0-3.51 0-5.26 0-.68 0-1.36 0-2 0a1.46 1.46 0 0 1 -.88-.35c-2.22-2.18-4.42-4.38-6.63-6.58-.94-.93-1.92-1.83-2.84-2.78a1.42 1.42 0 0 1 -.34-.86c0-1.3 0-2.61 0-3.91a.89.89 0 0 0 -.55-.87 11 11 0 0 1 -4.84-4.46 22 22 0 0 0 -1.6-2.46 4.42 4.42 0 0 1 -.71-3.88c.07-.26.15-.53.22-.82a.68.68 0 0 0 -.21-.06c-.57 0-.61-.06-.48-.59a11.9 11.9 0 0 1 4.2-6.29c1.46-1.25 3.09-2.3 4.62-3.48a1.2 1.2 0 0 0 .34-.8c0-2 0-3.91 0-5.87 0-2.83 0-5.67 0-8.51a1.24 1.24 0 0 1 .46-1c2-1.88 4-3.79 6-5.68 1-.9 1.93-1.82 2.93-2.68a1.57 1.57 0 0 1 1-.27h19.36 7.3a2.52 2.52 0 0 1 2 .84c1.16 1.13 2.36 2.22 3.54 3.33 1.63 1.55 3.25 3.11 4.89 4.65a1.34 1.34 0 0 1 .35.91q0 5.28 0 10.57c0 .75-.06.8-.83.8-1.11 0-2.21 0-3.32 0a1.67 1.67 0 0 0 -.77.32c-.38.26-.7.61-1.08.84s-.31.38-.21.72c.19.69.25 1.43.41 2.13a.9.9 0 0 0 .35.54c1.5 1 3.09 1.88 4.52 3a21.35 21.35 0 0 1 5.14 5.66c1.08 1.71 2.05 3.49 3 5.25a10 10 0 0 1 .61 1.51 1.84 1.84 0 0 1 0 .53 4.51 4.51 0 0 1 -.52 0 4.42 4.42 0 0 1 -.6-.14c.1.53.19 1 .25 1.39a46.33 46.33 0 0 1 .7 5.46 10.87 10.87 0 0 1 -3 8.06 27.89 27.89 0 0 1 -9 5.89c-1.71.76-3.55 1.21-5.31 1.87-.84.31-1.63.76-2.44 1.15a22.16 22.16 0 0 1 -10.7 2.54 8.08 8.08 0 0 1 -3.28-.9c-.7-.35-1.44-.63-2.15-1-.38-.18-.72-.41-1.08-.61zm24.57-4.63a2.16 2.16 0 0 0 .27 0 21.18 21.18 0 0 0 8-5.39 11 11 0 0 0 2.69-6.3 15.34 15.34 0 0 0 -1-6.67c-.42-1.1-.88-2.19-1.32-3.28l1.1.09a6.19 6.19 0 0 0 -.36-1.05 34.43 34.43 0 0 0 -4.34-6 20.57 20.57 0 0 0 -5.11-4.27c-.17-.09-.36-.17-.65-.3l2.38 2.71-2.39-1.35v.07l3.16 3.48-.1.08-4.21-2.75c-.72 1.21-1.37 2.27-2 3.35s-1.21 2.15-1.78 3.24a10.59 10.59 0 0 0 -.44 1.28l-.28-.31-.24-.21c-.07.06-.12.08-.14.13a8.64 8.64 0 0 1 -4 3.86 5.76 5.76 0 0 1 -5.2.41c-.8-.35-1.55-.82-2.33-1.24l-.14.37a4.81 4.81 0 0 0 -3.47-2.11 11.14 11.14 0 0 1 -1.77-.72 4.25 4.25 0 0 1 -.46-.27l-.31.54-.61-.2v8.54c0 .39.26.43.57.43h10.12c.5 0 .63-.22.6-.68s-.24-.4-.51-.45a5 5 0 0 1 -2.3-.84l2.85-.37v-.23a13 13 0 0 1 -4.82-2.28c3.88 1.47 7.57 1.33 11.11-1.27l-.51 1.48a8.67 8.67 0 0 0 3.81-1.75l-.44 1.42a6.15 6.15 0 0 0 2.33-1.49c.14.3.28.6.41.9a14.2 14.2 0 0 1 1.46 6.59 6 6 0 0 1 -2.27 4.49 10.46 10.46 0 0 1 -4.38 2c-.15 0-.35-.14-.53-.22a1.87 1.87 0 0 0 -.91.17 5 5 0 0 1 -3.44.22 26.16 26.16 0 0 0 -8.28-.66c-.87.19-1.75.37-2.61.59a.71.71 0 0 0 -.39.48c0 .09.24.27.39.38s.3.16.57.31c-.33.08-.51.15-.71.18s-.63.13-.44.6c0 .07-.09.25-.18.32s-.36.2-.52.32c-.49.4-.47.62.08.89a4.93 4.93 0 0 1 .43.26l-.77.42.19.46-.48.49c-.37.38-.34.51.15.69.21.07.42.17.73.29l-.8.43c.15.1.23.18.33.23.38.21.67.42.45.95 0 .12.24.45.43.56a3.49 3.49 0 0 0 .9.25l-.78.59 2 .71-.27.68 1.16.24-.52.6a2 2 0 0 0 .27.08l.35.15a9.48 9.48 0 0 0 4.32.37 19.54 19.54 0 0 0 7-2.15 28.68 28.68 0 0 1 5.53-2.19 32.51 32.51 0 0 0 3.32-1.37zm-26.93-25.34-.45.35a5.79 5.79 0 0 1 -2.64-4.67c0-.75 0-1.5 0-2.38-.7.37-.7-.13-.74-.48-.08-.88-.14-1.76-.14-2.63a7.32 7.32 0 0 1 1.66-4.66.69.69 0 0 0 -.08-1.08 5.07 5.07 0 0 1 -.52-6.35c1.39-2.22 3.13-2.89 5.58-2a2.46 2.46 0 0 0 1.57.35h9.82.57v2.11a.76.76 0 0 0 .54.89 2.71 2.71 0 0 0 1.86.69 2.25 2.25 0 0 1 1.26.31c.86.59 1.41.38 2.22-.23a3.92 3.92 0 0 1 6.34 2.39c.07.35.11.69.16 1l-.11.5h3a2 2 0 0 0 0-.31c0-3 0-5.93 0-8.9a1 1 0 0 0 -.31-.65q-4.09-3.83-8.23-7.72a1.13 1.13 0 0 0 -.69-.24q-13 0-26 0a1.29 1.29 0 0 0 -.81.32c-2.67 2.43-5.31 4.9-8 7.33a1.63 1.63 0 0 0 -.57 1.33v21.51.38s.21.15.32.23a13.75 13.75 0 0 1 5-.65 2.32 2.32 0 0 1 2.15 1.12.81.81 0 0 0 1.17.44c.39-.12.77-.27 1.16-.41l.08.12a2 2 0 0 1 -.28.36 10.3 10.3 0 0 0 -1.28.94 1.31 1.31 0 0 0 -.34 1 .64.64 0 0 0 .88.52c.53-.15 1.06-.27 1.6-.4a1.5 1.5 0 0 1 .3 0 2.09 2.09 0 0 1 -1.36 1.22 1.31 1.31 0 0 0 -.9 1.43c.1.6.39.79 1.25.79.32 0 .65 0 1.13-.05a2.66 2.66 0 0 1 -1.58.81c-.17 0-.42.08-.48.2-.21.43-.36.89-.55 1.4l2 .14a2.43 2.43 0 0 1 -1.53.82 1 1 0 0 0 -.59.3 15.21 15.21 0 0 0 -.77 1.38l1.78.16v.2a4.14 4.14 0 0 1 -.86.39c-.84.16-1.65.33-2 1.28 0 .07-.09.11-.14.17a5 5 0 0 1 -3.62 1.52c-1 0-2.06-.12-3.08-.19l-.56-.21v3.33a1.29 1.29 0 0 0 .34.81q4.24 4.26 8.53 8.49a1.22 1.22 0 0 0 .76.31h5.14.57l-.86-.51c.4 0 .79-.11 1.19-.12s.63.15.71-.34.27-.8-.37-1a2.22 2.22 0 0 1 -1.35-1.22c.59.11 1.1.23 1.62.29a.64.64 0 0 0 .52-.2c.29-.46.53-1 .81-1.48a7.79 7.79 0 0 1 -.72-.34 4 4 0 0 1 -.68-.55c-.09-.1-.07-.3-.11-.45a1.69 1.69 0 0 1 .44 0c.31.06.6.18.91.26a.49.49 0 0 0 .66-.32 2.21 2.21 0 0 1 1.37-1.29 12.88 12.88 0 0 1 2.83-.65 28 28 0 0 1 7.91.63 7.26 7.26 0 0 0 5-.67l1-.49c.07.64.4.45.72.28s.47-.28.72-.41a5.49 5.49 0 0 0 2.89-6.06c-.22-.8-.47-1.59-.71-2.38-.13-.35-.39-.41-.74-.41h-6.93c-.53 0-1.28-.17-1.53.1s-.15 1-.16 1.58v3.56h-14.24v-.71q0-5.51 0-11a1.38 1.38 0 0 0 -.43-1.23zm17.77-16.7-.22.08a4.3 4.3 0 0 0 -.35-.55 16.33 16.33 0 0 0 -1.84-2.05 8.25 8.25 0 0 0 -5.39-1.64c-.08 0-.23 0-.24.07-.11.38-.42.3-.68.3a7 7 0 0 0 -3.77.88s-.14 0-.23 0q-.09-.25-.15-.48a3.71 3.71 0 0 0 -3.54-2.65 4 4 0 0 0 -3.55 2.27 4 4 0 0 0 .91 4.28c.69.64.79.66 1.61.27l.18-.06a3.75 3.75 0 0 1 -.63.86 10.12 10.12 0 0 0 -2.43 4.22 4.31 4.31 0 0 0 0 2.17l.76-.32v3.16a7.38 7.38 0 0 0 .32 3.1 6.46 6.46 0 0 0 .55.94l.69-.84c.4 1.67 1.87 2.35 2.74 3.6l.55-.8a5.87 5.87 0 0 0 2.6 1.74c1.06.38 2.27.39 3.06 1.4l.15-.06.34-2.38h.16c.14.74.3 1.48.39 2.23a1.5 1.5 0 0 0 .89 1.3 15.1 15.1 0 0 0 1.81.66c1.47.43 2.78.34 3.65-1.15h.15v.55a4.59 4.59 0 0 0 2-1.72c.69-1 1.26-2.15 1.91-3.22a2.25 2.25 0 0 1 .55-.45c.61-.85 1.17-1.76 1.75-2.66a5.67 5.67 0 0 0 1.13-3.72 5.56 5.56 0 0 1 .29-1.73 3.58 3.58 0 0 0 0-2.22c-.35-.86-.65-1.73-1.06-2.56a8.53 8.53 0 0 0 -4.1-4.09 11.28 11.28 0 0 0 -1.6-.5zm-26.55 17.34.34-.66-.91-.29.33-.24c.2-.17.57-.39.54-.5a1.67 1.67 0 0 0 -.53-.72.94.94 0 0 0 -.55-.23 8.09 8.09 0 0 0 -2.25 0c-2.18.49-4.34 1.11-6.51 1.69l-.53.16-.06-.14c.72-.49 1.44-1 2.18-1.48a.86.86 0 0 0 .48-.84c0-1 0-2.06 0-3.1 0-.16 0-.33-.07-.67l-3 2.31a1.46 1.46 0 0 1 .28-.54c.84-1.07 1.7-2.13 2.53-3.21a3.18 3.18 0 0 0 .32-.83l-.2-.1c-2.66 1.82-5.26 3.71-6.92 6.76l1.38-.26a24.65 24.65 0 0 0 -1.16 2.18c-.71 1.73-.82 3.39.75 4.8a3.71 3.71 0 0 1 .68.93 11.31 11.31 0 0 0 2.76 3.42 9.77 9.77 0 0 0 7.35 1.86 2.78 2.78 0 0 0 2-1l-.57-.41a2.61 2.61 0 0 0 .6-.28c.11-.11.24-.37.18-.47-.21-.41 0-.54.32-.71a4.68 4.68 0 0 0 .74-.58l-.57-.4c.75-.49.75-.49.48-1.2l1-.82-.86-.54.85-.47-.83-.89.53-.75-1.15-.44 1.13-.58zm29.57-18.62c.59.59.61.59 1.15.07a1.85 1.85 0 0 1 2.84.26c0 .06.1.12.1.19 0 .95 0 1.89-1.06 2.4-.45.23-.21.56-.08.85s.4.2.64.09a2.69 2.69 0 0 0 1.39-2.78 2.76 2.76 0 0 0 -2.08-2.31 2.59 2.59 0 0 0 -2.9 1.23zm-7.57-4.12h-8.17a4.57 4.57 0 0 1 .75.66.53.53 0 0 0 .65.24 2.63 2.63 0 0 1 .49-.05c.49-.06 1-.09 1.48-.2.24-.05.45-.37.67-.35 1.11.06 2.22.18 3.33.3a5.5 5.5 0 0 1 .8.2z" fill="#a83131"/><path d="m86.64 24.1c0-.35-.09-.69-.16-1a3.92 3.92 0 0 0 -6.34-2.39c-.81.61-1.36.82-2.22.23a2.25 2.25 0 0 0 -1.26-.31 2.71 2.71 0 0 1 -1.86-.69v-3.48a2.06 2.06 0 0 0 -.26 0h-11.88c-.12 0-.23.1-.35.14-2.45-.86-4.19-.19-5.58 2a5.07 5.07 0 0 0 .52 6.35.69.69 0 0 1 .08 1.05 7.32 7.32 0 0 0 -1.66 4.64c0 .87.06 1.75.14 2.63 0 .35 0 .85.74.48v2.38a5.79 5.79 0 0 0 2.64 4.67l.45-.35a2.15 2.15 0 0 0 -.14.54v12.33c0 .45.11.61.59.61q7.09 0 14.2 0h.64v-5.25h8.27a2.61 2.61 0 0 0 .6-.14c.24.79.49 1.58.71 2.38a5.49 5.49 0 0 1 -2.91 6.08c-.25.13-.48.28-.72.41s-.65.36-.72-.28l-1 .49a7.26 7.26 0 0 1 -5 .67 28 28 0 0 0 -7.91-.63 12.88 12.88 0 0 0 -2.83.65 2.21 2.21 0 0 0 -1.42 1.27.49.49 0 0 1 -.66.32c-.31-.08-.6-.2-.91-.26a1.69 1.69 0 0 0 -.44 0c0 .15 0 .35.11.45a4 4 0 0 0 .68.55 7.79 7.79 0 0 0 .72.34c-.28.53-.52 1-.81 1.48a.64.64 0 0 1 -.52.2c-.52-.06-1-.18-1.62-.29a2.22 2.22 0 0 0 1.35 1.22c.64.18.44.57.37 1s-.41.33-.71.34-.79.08-1.19.12c-1.53 0-3 0-4.58 0a1.18 1.18 0 0 1 -.74-.25q-4.22-4.12-8.4-8.29a.78.78 0 0 1 -.25-.46c0-1.06 0-2.13 0-3.19 1 .07 2.05.2 3.08.19a5 5 0 0 0 3.62-1.52c0-.06.12-.1.14-.17.33-.95 1.14-1.12 2-1.28a4.14 4.14 0 0 0 .86-.39v-.2l-1.78-.16a15.21 15.21 0 0 1 .79-1.33 1 1 0 0 1 .59-.3 2.43 2.43 0 0 0 1.53-.82l-2-.14c.19-.51.34-1 .55-1.4.06-.12.31-.17.48-.2a2.66 2.66 0 0 0 1.58-.81c-.48 0-.81.05-1.13.05-.86 0-1.15-.19-1.25-.79a1.31 1.31 0 0 1 .9-1.43 2.09 2.09 0 0 0 1.36-1.22 1.5 1.5 0 0 0 -.3 0c-.54.13-1.07.25-1.6.4a.64.64 0 0 1 -.88-.52 1.31 1.31 0 0 1 .34-1 10.3 10.3 0 0 1 1.28-.94 2 2 0 0 0 .28-.36l-.08-.12c-.39.14-.77.29-1.16.41a.81.81 0 0 1 -1.17-.44 2.32 2.32 0 0 0 -2.15-1.12 13.75 13.75 0 0 0 -5 .65 3.13 3.13 0 0 0 .17-.72c0-7.11 0-14.23 0-21.35a1.25 1.25 0 0 1 .25-.83q4-3.74 8-7.41a1.16 1.16 0 0 1 .73-.28q12.81 0 25.61 0a1.42 1.42 0 0 1 .87.35q3.9 3.66 7.79 7.34a1.21 1.21 0 0 1 .34.8v7.75.54z" fill="#a83131"/><path d="m95.17 44.12c-.69-.88-1.34-1.8-2.09-2.63a10.68 10.68 0 0 0 -2-1.63 11.77 11.77 0 0 1 2.68 4.82 12.32 12.32 0 0 0 -5.52-3.89 8 8 0 0 1 3.5 7.32l-1.69-2.4h-.23a7.41 7.41 0 0 1 -1.57 8.73 14.29 14.29 0 0 0 .47-4.42 9.24 9.24 0 0 0 -1.44-4.13v2.29a4.6 4.6 0 0 1 -.61 2.19 20.12 20.12 0 0 0 -.31-2.63 10 10 0 0 0 -1-2.33c-.38-.68-.63-.64-1.14 0a6.15 6.15 0 0 1 -2.22 1.59l.53-1.41a8.67 8.67 0 0 1 -3.81 1.75l.51-1.48c-3.54 2.6-7.23 2.74-11.11 1.27a13 13 0 0 0 4.82 2.28v.23l-2.94.36a5 5 0 0 0 2.26.88c.27 0 .49.11.51.45s-.1.68-.6.68h-10.08c-.31 0-.57 0-.57-.43v-8.58l.55.21.31-.54a4.25 4.25 0 0 0 .46.27 11.14 11.14 0 0 0 1.77.72 4.81 4.81 0 0 1 3.47 2.11l.14-.37c.78.42 1.53.89 2.33 1.24a5.76 5.76 0 0 0 5.2-.41 8.64 8.64 0 0 0 4-3.86s.07-.07.14-.13l.24.21.28.31a10.59 10.59 0 0 1 .44-1.28c.57-1.09 1.17-2.17 1.78-3.24s1.27-2.14 2-3.35l4.21 2.75.1-.08-3.13-3.56v-.07l2.3 1.42-2.38-2.71c.29.13.48.21.65.3a20.57 20.57 0 0 1 5.11 4.27 34.43 34.43 0 0 1 4.34 6 6.19 6.19 0 0 1 .36 1.05z" fill="#ce6363"/><path d="m66.39 59c-.11.14-.19.34-.34.42a1 1 0 0 0 -.47 1.26c.07.25.11.44-.19.6-1.11.59-1.2.88-.62 2a6.14 6.14 0 0 0 -.47.42c-.46.48-.45 1 .12 1.34s.77.57.58 1.24.37.88.83 1.1a8.92 8.92 0 0 0 1.23.42 1.56 1.56 0 0 0 1.86 1.89 25.81 25.81 0 0 0 5.43-.92 10.87 10.87 0 0 0 6.4-4.51c0-.07.12-.12.28-.31 0 .71-.12 1.27-.14 1.83s.12.67.66.44a5.59 5.59 0 0 0 2.79-2.31 5.14 5.14 0 0 1 1-1.24l-.14.91a2.94 2.94 0 0 0 1.8-1.49c.65-1.14 1.27-2.29 1.9-3.44a.91.91 0 0 1 .33-.35 5.84 5.84 0 0 1 -.48 2.92 15.14 15.14 0 0 0 3.45-6.28 10.62 10.62 0 0 1 .21 1.47 16.08 16.08 0 0 1 -.14 3 5.93 5.93 0 0 1 -.88 1.76c-.21.38-.52.71-.74 1.09a8.71 8.71 0 0 1 -3.65 3.23l-.51.32a32.51 32.51 0 0 1 -3.37 1.36 28.68 28.68 0 0 0 -5.53 2.19 19.54 19.54 0 0 1 -7 2.15 9.48 9.48 0 0 1 -4.32-.37l-.27-.14a2 2 0 0 1 -.2-.12l.52-.6-1.2-.28.27-.68-2-.71.78-.59a3.49 3.49 0 0 1 -.9-.25c-.19-.11-.47-.44-.43-.56.22-.53-.07-.74-.45-.95-.1-.05-.18-.13-.33-.23l.8-.43c-.31-.12-.52-.22-.73-.29-.49-.18-.52-.31-.15-.69l.48-.49-.19-.46.77-.42a4.93 4.93 0 0 0 -.43-.26c-.55-.27-.57-.49-.08-.89.16-.12.36-.19.52-.32s.21-.25.18-.32c-.19-.47.1-.54.44-.6s.38-.1.71-.18c-.27-.15-.43-.21-.57-.31s-.41-.29-.39-.38a.71.71 0 0 1 .39-.48c.83-.19 1.71-.37 2.58-.51z" fill="#ce6363"/><path d="m71.15 43.59.3.51c-.7 0-1.12-.48-1.17-1.29s0-1.37 0-2.05c-.09-1-.24-2-.38-3a3.51 3.51 0 0 0 -.19-.5l-.49.67a1.24 1.24 0 0 1 .41-1.63 4.32 4.32 0 0 1 1.64-.56 18.88 18.88 0 0 1 2.25.08q1.45 0 2.91 0a.91.91 0 0 1 1 .48 4.27 4.27 0 0 0 .84.86c.22.2.31.41.09.67a12.68 12.68 0 0 0 -2.06 4.89 1.71 1.71 0 0 1 -2 1.48 23.55 23.55 0 0 1 -2.75-.46 3.3 3.3 0 0 1 -.4-.15zm.42-3.09a2 2 0 0 0 -.53 2c.06.12.19.28.3.3.35 0 .71 0 1.07.06a5.91 5.91 0 0 1 1 .12c.48.14.93.35 1.41.52a.35.35 0 0 0 .29-.09 2.15 2.15 0 0 0 .67-1.77l-.79.94-3.16-.75zm2.19-3.78c.1.55.5.41.87.46s.87.52 1.43.32c0 0 .11.08.18.1l.66.2-.11 1a3.13 3.13 0 0 0 .87-.87.56.56 0 0 0 -.17-.82 1.76 1.76 0 0 0 -1.49-.51 4.63 4.63 0 0 1 -1.48-.07c-.62-.08-1.23-.2-1.91-.31v1.35l.12.12z" fill="#a83131"/><path d="m79.31 31.73-.87-.86.48-.24-.6-.7c.75-.69 1.46-1.5 2.67-1.29a3.15 3.15 0 0 1 .63.27c-.1.15-.21.3-.3.46a.32.32 0 0 0 -.08.2c0 .68-.33 1-1 1.12-.09 0-.24.23-.22.31.11.5.27 1 .4 1.47a8.7 8.7 0 0 1 .15.89 3.41 3.41 0 0 0 0 .64 2.84 2.84 0 0 1 -.75 3c-.37.38-.69.81-1 1.22l-.26-.2c.13-.26.24-.53.38-.78.28-.47.6-.93.85-1.41a2.09 2.09 0 0 0 .2-.74c0-.29 0-.52-.41-.45s-.49-.11-.43-.45.18-.64-.25-.71-.58.28-.63.61a4 4 0 0 0 0 .83c-1 .66-1.27.47-1.87-.42a5 5 0 0 0 .72-.57c.2-.22.41-.53.07-.82s-.55-.17-.82.09c-.61.55-1 .59-1.46.21a.9.9 0 0 1 -.3-1.13 2 2 0 0 1 2.76-.92c.56.23 1.15.4 1.73.59zm.61 1-2.75-.91a2.68 2.68 0 0 0 -.64-.11 1.94 1.94 0 0 0 -.51.07 5.39 5.39 0 0 1 1.21.43 4 4 0 0 0 2.69.54zm.61-3.23-.93.19c.14.18.36.36.54.33s.24-.29.39-.5z" fill="#a83131"/><path d="m73.37 23a2.5 2.5 0 0 1 1.69 1 19.91 19.91 0 0 1 1.36 2.26c.52 1 1.23 1.19 2 .39a16.4 16.4 0 0 1 1.18-1.18l-.31 1.31a12.41 12.41 0 0 1 1.52-.32c.16 0 .36.24.53.45-1.08 0-1.56.77-2.14 1.42-1.06 1.18-1 1.15-2.48.58a6.5 6.5 0 0 1 -3-2.72 13.1 13.1 0 0 0 -1.61-2 3.23 3.23 0 0 0 -2.71-.63h-.43s0-.05-.14-.14a4.8 4.8 0 0 1 3.43-.26c1.2.4 1.73 1.52 2.54 2.35a6.21 6.21 0 0 0 -1.43-2.51z" fill="#ce6363"/><g fill="#a83131"><path d="m61 23.47.18-.45-.08-.11a7.34 7.34 0 0 0 -1.2.75c-.39.37-.63.28-1-.06a3 3 0 0 1 .1-3.84l.43-.4-.31-.36a3 3 0 0 1 3.7.74 2.73 2.73 0 0 1 .75 1.85.5.5 0 0 1 -.16.35c-.76.55-1.53 1.08-2.3 1.61z"/><path d="m69.73 33.32h.41v.07a8 8 0 0 0 -1.72 4.61c-.47-.76-.48-1.13-.18-3.05h-.52c.39-1.78 1.72-2.77 3.1-3.79l-.82-.32 2.39-.77.16.14a3.92 3.92 0 0 1 -.54.86c-.59.57-1.24 1.1-1.87 1.63a7.14 7.14 0 0 1 -.65.41z"/><path d="m72.61 29-.42-.65c-1 .77-1.53.87-2.12.44s-.66-1-.35-1.91l-1.11-.37.65-.14-.26-.52a11.37 11.37 0 0 1 1.91.41 3.12 3.12 0 0 1 1.7 2.74zm-2.06-1.71c-.38.46-.31.85 0 1.1s.71.17 1.16-.26a2 2 0 0 0 -.59-.09c-.29.08-.39 0-.43-.3a1.86 1.86 0 0 0 -.14-.46z"/><path d="m77.21 29.89a11 11 0 0 0 -1.41-.38 12.85 12.85 0 0 0 -1.53 0c.94-1.11 2.06-.64 2.94.38z"/><path d="m75.5 30.32c.73-.49 1.24-.41 1.66.24z"/></g></svg>