<svg enable-background="new 0 0 133.9646606 78.7948227" viewBox="0 0 133.9646606 78.7948227" xmlns="http://www.w3.org/2000/svg"><path d="m61.9470711 70.4401627h1.4146767c-.9600067-1.4607239-2.8314095-1.4454803-4.1505089-2.350174.0263901-.087265.0527802-.1745377.0791664-.2618103.3216171.0288467.6435013.0817261.9647522.0781326.2164688-.0024185.4320374-.0845871.6480103-.1310883-.2251282-.1053314-.4489746-.2987366-.6755867-.3020248-1.7511749-.0254593-3.5028839-.0140762-5.254425-.0142288-.6821823-.000061-1.3670731.0350342-2.0452995-.0168762-.3019104-.0231094-.6637154-.1468887-.8736572-.3523636-2.2250633-2.1776657-4.4218102-4.3842239-6.6333542-6.5757637-.9421577-.9336395-1.9165039-1.8354187-2.8394585-2.7873268-.1999893-.2062645-.3359451-.5638275-.3410263-.8545151-.0228271-1.3050957.0111237-2.6112175.0269966-3.9169464.0049782-.4097557-.1652527-.6707458-.5464897-.8680458-2.0168953-1.0438118-3.7290154-2.4153633-4.8418961-4.4603119-.4655075-.8553848-1.0200424-1.6685677-1.5944366-2.4569855-.8672028-1.1903229-1.0702438-2.4754486-.7101898-3.8766708.0681305-.2651367.1418495-.5288391.2206383-.8216248-.0880699-.0270042-.1525192-.0642776-.2166138-.0636749-.5639458.0052643-.6048775-.0559158-.4772491-.5916786.6225624-2.6134224 2.2248421-4.6019821 4.1942863-6.2864151 1.4634094-1.2516403 3.0959816-2.3041782 4.6250648-3.4819355.2023735-.1558781.332222-.526516.3362083-.8000164.0284805-1.9539394.0157318-3.9084854.0158386-5.8628387.0001526-2.839344.0064812-5.6787167-.0065842-8.5180016-.0020142-.4381714.1270447-.74086.4614029-1.0497732 2.028923-1.8745012 4.0265465-3.7828331 6.040699-5.6733942.9665489-.9072409 1.9280167-1.8217678 2.9340477-2.6836677.2316093-.1984291.6365814-.2712402.9620781-.2720122 6.4530182-.0153146 12.9060822-.0115027 19.3591385-.0115638 2.4337158-.0000224 4.8684692.0399823 7.3006058-.0219197.8411789-.0214081 1.4220123.278348 1.9882278.830667 1.1601639 1.1316838 2.360199 2.2223821 3.5366974 3.3374562 1.6310043 1.5458307 3.2505875 3.103735 4.8868713 4.6439219.322319.3033972.4445419.6374588.4431076 1.0749521-.011528 3.5214853-.0052872 7.0430269-.0075531 10.5645514-.0004883.7498856-.0615005.8060379-.8321075.8079796-1.1062317.0027847-2.2131195-.0188313-3.3182297.0166149-.2613602.008379-.5421677.1651344-.769165.3195763-.3781738.2572937-.696907.6054573-1.0844116.8444328-.3278427.2021885-.3047333.3717384-.2123032.711134.1901169.6981277.2540588 1.4296799.4104233 2.1385403.0435486.1974373.1888123.4243622.3556061.5345802 1.5031281.9933395 3.0863342 1.8778381 4.5198135 2.9612846 2.0556412 1.5536842 3.755928 3.4853821 5.1347733 5.6609688 1.0818787 1.7070198 2.0497055 3.4873657 3.0368652 5.252655.2582474.4618378.4116745.9847908.5879288 1.4885368.0561905.1605797.0306015.3497696.0424194.5258675-.1730576.0028648-.3480148.0227356-.5186615.0038528-.1729965-.019146-.3417587-.0765877-.6036682-.1390228.096405.5260162.1908646.9517212.2504654 1.3822517.2520981 1.8211861.66642 3.6405869.7004776 5.4666214.0567017 3.0401573-.8471222 5.7991257-3.0302734 8.0574684-2.5623627 2.6506157-5.7045517 4.41679-9.0139923 5.8895073-1.7067337.7595062-3.5464783 1.2151184-5.3038483 1.8680038-.8428802.3131332-1.6361008.761261-2.4482269 1.155632-3.3757172 1.6391983-6.8927536 2.6963959-10.6906815 2.5374451-1.1527939-.0482483-2.2418213-.384758-3.2801285-.9027252-.7035217-.3509521-1.4439354-.6272049-2.1561203-.9618301-.373764-.1756134-.7223015-.4049072-1.0822296-.6099625.0270309-.0584869.0540618-.1169662.081089-.1754455zm24.5740013-4.6266709c.0900192-.0185928.1863251-.0224915.269165-.0578995 3.0070496-1.2852554 5.8163147-2.8717232 7.985611-5.3904152 1.5584869-1.8095169 2.4919815-3.9146881 2.6931763-6.2979126.1933441-2.2903481-.1759186-4.5205116-.9821701-6.6703491-.4131165-1.1015549-.8791428-2.1832657-1.3212585-3.273941.3671265.0287628.7342453.0575256 1.1013641.0862885-.1155624-.3505211-.1761856-.7324142-.3555374-1.046505-1.2281265-2.1506729-2.6840744-4.1437111-4.3434753-5.9783134-1.4999619-1.6583214-3.1332016-3.1740799-5.1079025-4.2720871-.1712875-.0952415-.3551941-.167778-.6519623-.306263.8676758.9882393 1.6261826 1.85215 2.384697 2.7160606-.0176697.0161438-.0353317.0322876-.0529938.0484276-.7655563-.4722061-1.531105-.9444122-2.2966614-1.4166183-.0100327.0206985-.02005.0413971-.0300751.0620956 1.0512161 1.1784821 2.1024246 2.3569565 3.1536407 3.5354385-.0316162.0260735-.0632401.0521469-.0948563.0782204-1.4301224-.932724-2.8602371-1.8654556-4.212883-2.7476578-.7179413 1.2075691-1.3685837 2.2709846-1.9878845 3.352356-.6118011 1.0683022-1.2088776 2.1459351-1.7766342 3.2380753-.1953278.375721-.282814.8074989-.4401779 1.2748756-.1383896-.1466408-.2103729-.2282333-.2881775-.3038368-.0752335-.0731277-.1564636-.1400948-.2403793-.2144775-.0631485.0569038-.1180115.0848312-.1397781.1290474-.8760147 1.77985-2.2984238 2.9742203-4.0404129 3.8577957-1.6854095.8548698-3.3995895 1.2290039-5.1954193.4189301-.7974472-.3597107-1.548233-.8228531-2.3340683-1.246521-.0363617.0962181-.0836105.2212715-.139389.3688812-1.1465607-1.4221191-1.6896744-1.7119522-3.4631424-2.110218-.6144829-.137989-1.187191-.4662743-1.7745171-.7180557-.160099-.068634-.303978-.1750984-.4592514-.2665253-.1192436.2059288-.208744.3604851-.3118668.5385742-.1845131-.0722885-.3456421-.1354179-.5483246-.2148247 0 2.8773918-.000267 5.7124176.0003128 8.547451.0000839.3892479.2643929.4302025.5662766.4301186 3.3732719-.000927 6.7465706-.0065994 10.1197853.0071259.5078812.0020599.6356888-.2239799.6059418-.6776733-.0228195-.348053-.2376251-.4034042-.5120392-.4531441-.7891922-.1430397-1.5558777-.3505249-2.263298-.8840408 1.0039444-.1281281 1.9284363-.2461166 2.8529205-.3641014.0052109-.0762825.0104294-.1525612.0156479-.2288399-1.7027893-.5471115-3.4161224-1.0728188-4.8159027-2.2786484 3.8796539 1.468811 7.5757065 1.3284111 11.1059036-1.2779884-.1913605.5619736-.3333359.9789429-.5045547 1.4817543 1.4774628-.3185425 2.7122345-.8460579 3.8053131-1.7440414-.1669083.4487686-.3338013.8975449-.5235443 1.4077034.9848175-.2903366 1.6524124-.8996887 2.3311691-1.4917336.1369553.3009872.2767029.6007309.410408.9031525.9313812 2.1064949 1.6117325 4.2691078 1.4812469 6.6139069-.1016541 1.8267822-.8450317 3.3264542-2.2634354 4.4910736-1.2841568 1.0544052-2.7921371 1.6190262-4.3814392 1.9928551-.1509018.0354919-.3520279-.14254-.5298462-.221447-.286377-.0330696-.6098251.044651-.9143677.1687584-1.1240311.458046-2.1894913.586216-3.4391098.2201195-2.6879654-.7874832-5.4874878-.7725143-8.2727356-.67519-.8721466.1911774-1.7494431.362793-2.6120148.5902672-.1697159.044754-.3500175.2891273-.3934975.4726906-.0220757.093174.2390862.2703896.3918343.3829765.1361656.1003609.2993622.1640358.5696182.3067245-.3254471.0876045-.5135574.1526718-.7071228.1871529-.3400688.0605812-.6352768.1232719-.4425812.5946846.0301094.0736771-.0918808.2480469-.185379.325016-.1540794.1268349-.3573112.1934547-.513382.3184662-.4938965.395607-.467247.6139755.0832024.8897629.1254959.0628777.2410927.1455116.4268074.259182-.2916565.1592979-.5210266.2845764-.7686539.4198303.0708847.1762238.1303444.3240471.1851845.4603767-.1731644.1759262-.3292198.3310699-.481472.4898605-.3645287.380188-.334095.5078964.1520882.6865158.2126617.0781326.4209099.1682663.7338943.2943344-.3239479.1730881-.5354271.2860794-.7980804.4264145.1474571.1068192.2292213.1801071.322979.231514.3812866.2090836.6690712.424118.4553528.9559097-.0468025.1164627.2333221.4410858.429512.5584564.2301598.1376801.5330772.1537094.8970184.2459793-.2753868.2095566-.4529037.3446426-.7800217.5935669.7674866.2674179 1.3924179.4851608 2.0341415.7087555-.0911713.2229996-.1771469.4333038-.2783813.6809158.4126434.0843277.7632217.1559753 1.1629562.2376633-.187767.216774-.3339081.385498-.5162201.5959702.1018143.0653534.1453171.101326.1949921.1235428.1172714.0524445.2360229.102356.3567352.1462479 1.4046783.5108261 2.8713531.5303802 4.3165894.3766937 2.4581833-.2614288 4.7978363-1.0100632 6.9855347-2.1559448 1.7715073-.9278793 3.6074982-1.6392136 5.5299988-2.1877365 1.1596069-.3308643 2.2524261-.8958362 3.3752594-1.3556064zm-26.8786011-25.3441124c-.1345711.1045799-.2691383.2091599-.453392.3523483-1.518074-1.1725655-2.6314316-2.6010857-2.6411972-4.6703453-.00354-.7507858-.0005722-1.501606-.0005722-2.3766518-.6938324.3644218-.7006416-.138031-.7330475-.489418-.0805397-.873436-.1480789-1.7521629-.1441574-2.6284218.0077438-1.732687.5839767-3.28582 1.6576996-4.6400833.3327713-.4197254.2966766-.6933765-.0760651-1.0745106-.7520103-.7689381-1.1839256-1.7409592-1.3481293-2.787941-.200428-1.2779503.1217613-2.4483681.8233948-3.565855 1.3944778-2.220993 3.1357422-2.88941 5.5819588-2.0235138.4725761.347229 1.0125618.3429413 1.5686874.3408737 3.2739983-.012167 6.5480614-.0065231 9.8221016-.0068741.1762085-.0000191.3524246-.0000019.5698013-.0000019 0 .755537.0329132 1.435894-.0114441 2.1111794-.0301437.4589958.1268539.7354927.5403442.8916492.5422516.4374504 1.1232834.7083912 1.8589401.6884003.4239807-.0115204.9283829.078537 1.2661133.3117828.855423.5907726 1.4102554.3745995 2.221405-.2354546 2.4767227-1.8627186 5.7753067-.5584602 6.3377457 2.3970203.0652542.3429012.1057129.6905155.1576614 1.035944-.0365448.1642971-.0730972.3285942-.1113968.5007439h3.04496c.0115204-.130125.0262756-.2194443.0263443-.3087711.0020599-2.9670067.0093994-5.9340553-.0100555-8.9009275-.0014343-.2189655-.1454086-.4922523-.3106155-.6466618-2.7589798-2.5786686-5.5285034-5.1461172-8.3103104-7.7001362-.1658858-.1522959-.4549788-.2403692-.6868895-.2406596-8.679863-.0108795-17.3597488-.0108681-26.0395927.0067801-.2757111.0005598-.6133308.1335001-.8170815.3196568-2.6655312 2.4353809-5.3029633 4.9015589-7.9728622 7.3320827-.4226646.3847694-.5728912.7701235-.5714951 1.3312263.0178452 7.1686926.0119438 14.3374434.0121689 21.5061798.0000038.128994-.0426903.2835693.0136261.3800392.0606613.1039124.2145844.1533852.3278236.2266045 1.6323051-.5051384 3.2986259-.7572403 5.0088196-.6426125.8752251.05867 1.7277832.2712173 2.1495934 1.1182823.2913704.5851059.6640663.6042366 1.163681.4422035.3900909-.1265068.7740097-.2720375 1.1606712-.4091187.0267677.0385017.0535316.0770073.0802994.115509-.0927696.1208344-.1648483.2690468-.2820168.357605-.4240227.3204956-.9128113.5725784-1.2780075.947155-.2184029.2240028-.3807297.6465759-.3372917.9464302.0574303.3964195.3969231.6471291.8777199.5168686.5299568-.1435738 1.0641823-.2717819 1.5984917-.3985176.0922546-.0218811.1941566-.0030975.3051491-.0030975-.1792564.5409508-.6736374.9769936-1.3577805 1.2268829-.6331215.2312508-1.0100098.8239479-.9089661 1.4294434.1001396.6000748.3942299.7893181 1.2503738.7842712.3289642-.0019417.6577835-.0283737 1.1356735-.0505676-.5233078.5438576-1.0322952.714756-1.5833244.8150558-.1703835.0310135-.4205933.0778313-.477951.194355-.2132645.4332619-.3614616.8985558-.5530052 1.4014969.6728058.0468445 1.2981644.0903893 2.044487.1423531-.4679527.5767059-.999424.6873703-1.5331726.8160172-.2133675.0514221-.4785767.1436577-.5912094.3065147-.2768364.4002914-.4788017.8523636-.763752 1.3818512.6014366.0528641 1.1876411.104393 1.7738495.1559219.0115013.0657997.0230026.1315956.0345039.1973953-.2857246.1337242-.5591164.3299408-.8595352.3892403-.8411446.1660385-1.6528854.3363724-1.9773369 1.2858238-.0217323.0636024-.0968246.1091003-.1474648.1626778-.982708 1.0398865-2.2324448 1.5010414-3.6204033 1.5227776-1.0258713.0160637-2.0541611-.1225891-3.0813751-.1923103-.1599922-.0609207-.3199844-.1218452-.5517578-.2101021 0 1.1717224-.0226097 2.2558136.015686 3.3377457.0097351.2749748.1450996.6107559.3376656.8042107 2.8309326 2.8439827 5.6772308 5.6727562 8.5366135 8.4881516.1834564.1806335.5024109.3102417.7606735.3142853 1.7115402.026825 3.4237213.0135651 5.1356926.0107727.1372871-.0002289.2745438-.019928.5653763-.0424881-.3704071-.2194672-.6128883-.3631439-.8553658-.5068207.3956413-.0436096.7906036-.1118088 1.187149-.1228027.3021965-.0083923.6328812.1554337.7152252-.3397751.0685425-.4122009.2716179-.7969055-.3696861-.9796867-.6131668-.1747551-1.0497322-.6170654-1.3500748-1.2227974.5826225.1108475 1.0958328.2331505 1.6162262.2932587.1679192.0194016.4340553-.0733032.5185623-.2034721.2957001-.455513.531723-.9497566.8169098-1.4784088-.2328033-.1074371-.4923553-.1980743-.7198448-.3400879-.2459831-.153553-.4848709-.333847-.6810532-.5450287-.0920601-.0990906-.0766449-.2980042-.1099281-.4516907.1472092-.0128632.3020058-.061039.4400826-.0313759.3049965.0654984.5999031.1764641.9020615.2571487.3055496.0815964.5313759.0023613.6681824-.3149071.2687645-.6233292.7333641-1.0974655 1.3689117-1.2891617.9264526-.2794266 1.8752441-.5888634 2.8298035-.6511192 2.6569366-.1732941 5.3101273.0483513 7.9036484.6300774 1.779274.3990898 3.3850784.101963 4.9663544-.6721001.3251572-.1591644.6561584-.3063698 1.0431366-.4863815.0786209.6383781.4041519.4511566.7211304.2781601.2424088-.1322975.4777603-.2777023.7215729-.4072456 2.295929-1.2199402 3.5018768-3.8370667 2.8894272-6.0673714-.2189178-.7971916-.4716263-1.5851135-.7089157-2.3772659-.1291733-.3494873-.3860855-.412323-.7391357-.4099884-2.3596802.0156097-4.7195206.004467-7.0792923.0098724-.5307922.0012169-1.2821426-.1690178-1.5338898.1051674-.2857513.3112183-.1461258 1.032711-.1528702 1.5763168-.0145645 1.174633-.0044785 2.3495712-.0044785 3.5555649-4.7515869 0-9.4413452 0-14.1949539 0 0-.2426376 0-.4588547 0-.6750755-.0000076-3.6687317-.0075188-7.3374901.0090446-11.0061493.0021819-.4836168-.0503236-.9040765-.4410821-1.2256212zm17.7631302-16.7021408c-.0726166.0259228-.1452332.0518436-.2178497.0777664-.115387-.1839161-.2101593-.3854618-.3497391-.548687-.5948486-.6956062-1.1266327-1.4716606-1.8217545-2.0495758-1.5452652-1.2847118-3.4339905-1.6070328-5.3863373-1.6399899-.0839615-.0014172-.2305679.0277023-.2434082.072546-.1096115.3826656-.4171524.30159-.6788406.2999401-1.327919-.008379-2.6071243.1798496-3.7682571.8833065-.0526505.0319004-.136734.0119267-.2299042.0175457-.055069-.1736717-.1060715-.3286972-.15345-.4848213-.4826126-1.590271-1.8067284-2.5860825-3.5453072-2.6655254-1.4138603-.0646038-3.0031776.9567032-3.5600471 2.2877083-.5908775 1.4122887-.1988297 3.2542152.9123497 4.2864571.6874504.6386127.7830544.6540966 1.61092.2678757.055439-.0258636.116806-.0390129.1754189-.0580769-.1722336.341959-.4043274.5972576-.6322823.8561993-1.0946808 1.2434978-2.0209503 2.5899429-2.424099 4.2237282-.1739273.7048416-.235611 1.4306698-.0313072 2.1678581.2677269-.1150188.4734116-.2033863.7590179-.326086 0 1.1224003.0472183 2.1473026-.0130196 3.1658497-.0626945 1.060009-.0567055 2.1012764.3215981 3.1031189.1160812.3074112.3347702.5760803.5496178.9344482.2566833-.3089867.425312-.5119705.6936188-.8349457.4007797 1.662075 1.8711319 2.3430824 2.7335167 3.5929871.2040749-.2933769.3643188-.5237389.5512047-.7924042.7399712.8638077 1.6262245 1.3839455 2.604557 1.7346764 1.0576706.3791771 2.2664642.3946838 3.054657 1.4012222.0526962-.0187302.1053925-.0374641.1580887-.0561943.110405-.7957611.2208176-1.5915222.3312302-2.3872871.055809-.007225.1116333-.0144577.16745-.0216866.1334076.7454872.2994843 1.4870415.3899841 2.2377014.0734406.6090927.3399811 1.0611153.8872833 1.2988892.58815.2555237 1.1951675.4775696 1.810173.6593552 1.4648819.4329948 2.7820129.3403893 3.6491928-1.152317.017189-.0295906.0845871-.0300102.149437-.0506973v.5500221c.8830414-.3875275 1.5503464-.9763565 2.0339813-1.7132072.6849136-1.0435143 1.2591095-2.159153 1.9078293-3.2274437.1160431-.1910858.3638229-.3021736.5507812-.4501953.6062012-.8498154 1.1637955-1.7604637 1.7442932-2.6562691.7347412-1.1338463 1.2726974-2.2988358 1.1316833-3.7214355-.0557327-.5622368.1593552-1.1588898.2921219-1.7303486.1734009-.7463856.2918625-1.4830265-.0110016-2.2229061-.3489227-.8523865-.6471634-1.7299767-1.0565491-2.5522461-.9044037-1.8165646-2.2471619-3.2299786-4.1059494-4.0913334-.4775009-.2212696-1.0170746-.3085957-1.5750046-.4711094.2408295.6781633.4374619 1.2318743.6341019 1.7855871zm-26.5419769 17.3398476c.1169701-.2296906.2199097-.4318275.3359261-.6596527-.3246384-.1023598-.5763741-.181736-.9126244-.2877579.16996-.1210938.2597198-.1752968.3380356-.2427826.1940117-.1671638.5671425-.3903084.5370903-.501297-.0731354-.270153-.3092194-.516613-.5289116-.7192345-.1385078-.1277428-.3629761-.2143669-.553772-.2241516-.7497978-.0384483-1.5353508-.1877861-2.2462425-.0260849-2.1866226.4973717-4.3450813 1.1186142-6.5140228 1.6934624-.1781654.0472183-.3528442.1075897-.5291443.16185-.020359-.0465164-.0407219-.0930328-.0610886-.1395493.7260437-.4954262 1.440464-1.0092735 2.1833916-1.4779282.3335419-.2103996.4876175-.4394302.4773178-.8436356-.0262833-1.0315552-.0083122-2.0641937-.0146332-3.0963516-.0010338-.1689072-.035553-.3376083-.0735893-.6747856-1.0815392.8347321-2.0403748 1.5747604-2.9992142 2.3147926.0530243-.2210999.1543388-.39254.2765808-.5474663.84375-1.0693398 1.7040596-2.1259613 2.5286522-3.2098007.1722145-.2263565.217701-.5491333.3215904-.8274765-.0660782-.0345516-.1321526-.0691032-.1982269-.1036587-2.655941 1.826582-5.2559433 3.7108135-6.9185257 6.7606373.5286255-.0979271.9233856-.1710587 1.3737755-.2544899-.4187088.7811012-.8512383 1.4503784-1.1510048 2.1746101-.7173767 1.7331772-.8294334 3.3980522.7423897 4.8045387.2810326.2514725.4915123.5983047.682457.9310112.7387924 1.2873077 1.5775833 2.4941444 2.7585258 3.4173241 2.1736946 1.6992607 4.6824303 2.1381187 7.3527031 1.8563614.745121-.0786285 1.4619141-.3265495 1.9886169-.9872856-.1921768-.1319351-.3335075-.2289619-.5443306-.3736992.2533073-.1145096.4674606-.1601715.603569-.2885666.1147728-.1082764.2387199-.3658752.1857529-.4651337-.2192154-.4107475.0043335-.5390282.3149719-.7076454.2612534-.1418037.4767494-.3679123.7436905-.5816803-.2772102-.1905823-.4204559-.2890663-.5768661-.3965988.753231-.4949265.753231-.4949265.4788742-1.2074165.3208389-.2588539.636734-.5137138 1.0122681-.8166962-.413166-.2709999-.6183662-.4055901-.8707352-.571125.2921562-.1596718.5262299-.2875977.8577728-.468792-.3097916-.3297615-.5732803-.6102333-.8328171-.8864975.1710472-.2409554.3346977-.4714966.5324326-.7500458-.4069824-.1563873-.7368813-.2831573-1.1515656-.4425125.3910751-.2012482.6917801-.3559952 1.1225548-.5776749-.410942-.2903364-.7263908-.5132063-1.0716247-.7571142zm29.5633468-18.6130734c.5899429.5892582.6092911.5900059 1.1548309.0665359.8554153-.8208046 2.1683578-.7029076 2.8377914.2562675.0407562.058403.0973282.1270294.096344.1901131-.0148773.94837-.0484772 1.8886375-1.0584412 2.4039688-.4518127.2305298-.2103195.5588188-.082283.8485165.157692.3567772.4070587.2048664.6438446.0876255.9815521-.4859982 1.5279312-1.5735931 1.3912811-2.7730885-.1241379-1.0896206-1.0311661-2.1023769-2.0765381-2.3185768-1.2136915-.2510146-2.2829512.1960488-2.9068297 1.238638zm-7.5621719-4.1255684c-2.7513504 0-5.4395447 0-8.1699295 0 .2858658.2457676.5622559.4183064.7471619.6606407.185051.2425175.3546906.3336105.6468201.2433357.1548462-.0478497.3285751-.0320435.4928741-.0523224.4931793-.0608845.9927673-.09445 1.4758987-.2016106.2389679-.0530052.4540329-.3647232.668335-.3527088 1.1130753.0624046 2.2232285.1839371 3.3324814.3027363.2613525.0279942.5153275.1249695.8063583.1987438 0-.3070411 0-.5388469 0-.7988147z" fill="#3e54a3"/><path d="m86.6403198 24.0995064c-.0519485-.3454285-.0924072-.6930428-.1576614-1.035944-.562439-2.9554806-3.8610229-4.2597389-6.3377457-2.3970203-.8111496.610054-1.3659821.8262272-2.221405.2354546-.3377304-.2332458-.8421326-.3233032-1.2661133-.3117828-.7356567.0199909-1.3166885-.2509499-1.8589401-.6884003 0-1.1418266 0-2.2836514 0-3.4405975-.0746002-.0109692-.164566-.035675-.2545471-.03578-3.9608536-.0045986-7.9216995-.0083179-11.8825417-.0034466-.117527.000145-.2349358.0932388-.3524017.1429977-2.4462166-.8658962-4.1874809-.1974792-5.5819588 2.0235138-.7016335 1.117487-1.0238228 2.2879047-.8233948 3.565855.1642036 1.0469818.5961189 2.0190029 1.3481293 2.787941.3727417.381134.4088364.6547852.0760651 1.0745106-1.0737228 1.3542633-1.6499557 2.9073963-1.6576996 4.6400833-.0039215.8762589.0636177 1.7549858.1441574 2.6284218.0324059.351387.0392151.8538399.7330475.489418 0 .8750458-.0029678 1.6258659.0005722 2.3766518.0097656 2.0692596 1.1231232 3.4977798 2.6411972 4.6703453.1842537-.1431885.318821-.2477684.453392-.3523483-.0505447.1806831-.1448746.3612785-.1452141.5420532-.0077133 4.1098518.0008087 8.2197456-.013092 12.3295708-.0015068.4448509.1083298.605732.5810509.6040154 4.7364197-.0172577 9.4729156-.012188 14.2093887-.0156937.1952591-.0001411.3904953-.022789.6318741-.0378304 0-1.7501602 0-3.4404259 0-5.2068214.2649307 0 .4801178.0000343.6953201-.0000038 2.5248871-.0004158 5.0497971.0024223 7.574646-.0074959.2010803-.0007858.4018021-.0898438.602684-.1378822.2372894.7921524.4899979 1.5800743.7089157 2.3772659.6124496 2.2303047-.5934982 4.8474312-2.8894272 6.0673714-.2438126.1295433-.4791641.2749481-.7215729.4072456-.3169785.1729965-.6425095.360218-.7211304-.2781601-.3869781.1800117-.7179794.3272171-1.0431366.4863815-1.5812759.7740631-3.1870804 1.0711899-4.9663544.6721001-2.5935211-.5817261-5.2467117-.8033714-7.9036484-.6300774-.9545593.0622559-1.9033508.3716927-2.8298035.6511192-.6355476.1916962-1.1001472.6658325-1.3689117 1.2891617-.1368065.3172684-.3626328.3965034-.6681824.3149071-.3021584-.0806847-.597065-.1916504-.9020615-.2571487-.1380768-.0296631-.2928734.0185127-.4400826.0313759.0332832.1536865.017868.3526001.1099281.4516907.1961823.2111816.43507.3914757.6810532.5450287.2274895.1420135.4870415.2326508.7198448.3400879-.2851868.5286522-.5212097 1.0228958-.8169098 1.4784088-.084507.1301689-.3506432.2228737-.5185623.2034721-.5203934-.0601082-1.0336037-.1824112-1.6162262-.2932587.3003426.605732.736908 1.0480423 1.3500748 1.2227974.641304.1827812.4382286.5674858.3696861.9796867-.0823441.4952087-.4130287.3313828-.7152252.3397751-.3965454.010994-.7915077.0791931-1.187149.1228027-1.526371.003746-3.0528793.0189209-4.5789642-.0001602-.2500648-.0031281-.5674133-.0861893-.7369919-.2517929-2.8151169-2.7488823-5.6129494-5.5154915-8.4075508-8.2852974-.1198044-.1187363-.2415733-.3057976-.2431259-.4622154-.0105515-1.0652542.0109177-2.130825.022049-3.1962891 1.0272141.0697212 2.0555038.208374 3.0813751.1923103 1.3879585-.0217361 2.6376953-.4828911 3.6204033-1.5227776.0506401-.0535774.1257324-.0990753.1474648-.1626778.3244514-.9494514 1.1361923-1.1197853 1.9773369-1.2858238.3004189-.0592995.5738106-.2555161.8595352-.3892403-.0115013-.0657997-.0230026-.1315956-.0345039-.1973953-.5862083-.0515289-1.1724129-.1030579-1.7738495-.1559219.2849503-.5294876.4869156-.9815598.763752-1.3818512.1126328-.1628571.3778419-.2550926.5912094-.3065147.5337486-.1286469 1.0652199-.2393112 1.5331726-.8160172-.7463226-.0519638-1.3716812-.0955086-2.044487-.1423531.1915436-.5029411.3397408-.968235.5530052-1.4014969.0573578-.1165237.3075676-.1633415.477951-.194355.5510292-.1002998 1.0600166-.2711983 1.5833244-.8150558-.47789.0221939-.8067093.0486259-1.1356735.0505676-.856144.0050468-1.1502342-.1841965-1.2503738-.7842712-.1010437-.6054955.2758446-1.1981926.9089661-1.4294434.6841431-.2498894 1.178524-.6859322 1.3577805-1.2268829-.1109924 0-.2128944-.0187836-.3051491.0030975-.5343094.1267357-1.0685349.2549438-1.5984917.3985176-.4807968.1302605-.8202896-.1204491-.8777199-.5168686-.043438-.2998543.1188889-.7224274.3372917-.9464302.3651962-.3745766.8539848-.6266594 1.2780075-.947155.1171684-.0885582.1892471-.2367706.2820168-.357605-.0267677-.0385017-.0535316-.0770073-.0802994-.115509-.3866615.1370811-.7705803.2826118-1.1606712.4091187-.4996147.1620331-.8723106.1429024-1.163681-.4422035-.4218102-.847065-1.2743683-1.0596123-2.1495934-1.1182823-1.7101936-.1146278-3.3765144.1374741-5.0088196.6426125.0576935-.2380791.1655235-.4761047.1657944-.7142487.0082016-7.1163788.0025787-14.2327766.0167694-21.3491325.0005569-.2808075.0902557-.6500902.2794952-.8285065 2.6415939-2.4904852 5.3039169-4.9590931 7.976696-7.4161615.1799927-.1654615.4840851-.2768068.73069-.2772136 8.5359573-.0140734 17.0719452-.0152221 25.6078873.0030427.2922821.0006247.6504974.1477594.8660278.3474412 2.6228714 2.4300313 5.2299728 4.877212 7.8215103 7.3406358.196106.1864166.3408203.5291901.3434906.8009148.0254059 2.5808201.0154648 5.1619911.0133743 7.7430611-.0001297.1748352-.0189896.349659-.0302811.5440121-.8409651-.0000011-1.6135252-.0000011-2.3860777-.0000011z" fill="#3e54a3"/><path d="m95.165596 44.1229744c-.6896744-.8820343-1.336792-1.8022614-2.082962-2.6335907-.5610809-.6251373-1.2492828-1.1361923-1.9605942-1.6270828 1.3292084 1.368 2.1113358 3.0180817 2.6730957 4.8139725-1.5444641-1.6952858-3.2117157-3.2002144-5.5128632-3.8864326 2.4885025 1.8190575 3.671608 4.2443542 3.5009842 7.3196373-.5630493-.8014069-1.126091-1.6028137-1.6891403-2.4042244-.0785751.0190315-.1571503.0380669-.235733.0570984 1.3820572 3.2730942.9105911 6.1903954-1.5695496 8.7272835.3250198-1.4581566.6101379-2.9031715.4726105-4.4212036-.1400528-1.5458412-.6751099-2.9003792-1.4445648-4.1321602 0 .7537117.0241318 1.5269623-.0067978 2.2980003-.0308075.7678757-.2128601 1.50383-.6127472 2.1879997-.0958099-.9068527-.0961761-1.7942963-.3045731-2.6298485-.2014313-.8076515-.5542297-1.5964546-.9571838-2.3294067-.3739395-.6801529-.6234283-.6417542-1.1320572-.0030251-.6788177.5921326-1.3464127 1.2014847-2.3312302 1.4918213.189743-.5101585.356636-.9589348.5235443-1.4077034-1.0930786.8979836-2.3278503 1.425499-3.8053131 1.7440414.1712189-.5028114.3131943-.9197807.5045547-1.4817543-3.5301971 2.6063995-7.2262497 2.7467995-11.1059036 1.2779884 1.3997803 1.2058296 3.1131134 1.7315369 4.8159027 2.2786484-.0052185.0762787-.010437.1525574-.0156479.2288399-.9244843.1179848-1.8489761.2359734-2.8529205.3641014.7074203.5335159 1.4741058.7410011 2.263298.8840408.2744141.0497398.4892197.1050911.5120392.4531441.029747.4536934-.0980606.6797333-.6059418.6776733-3.3732147-.0137253-6.7465134-.0080528-10.1197853-.0071259-.3018837.0000839-.5661926-.0408707-.5662766-.4301186-.0005798-2.8350334-.0003128-5.6700592-.0003128-8.547451.2026825.0794067.3638115.1425362.5483246.2148247.1031227-.1780891.1926231-.3326454.3118668-.5385742.1552734.0914268.2991524.1978912.4592514.2665253.587326.2517815 1.1600342.5800667 1.7745171.7180557 1.773468.3982658 2.3165817.6880989 3.4631424 2.110218.0557785-.1476097.1030273-.2726631.139389-.3688812.7858353.4236679 1.5366211.8868103 2.3340683 1.246521 1.7958298.8100739 3.5100098.4359398 5.1954193-.4189301 1.7419891-.8835754 3.1643982-2.0779457 4.0404129-3.8577957.0217667-.0442162.0766296-.0721436.1397781-.1290474.0839157.0743828.1651459.1413498.2403793.2144775.0778046.0756035.1497879.157196.2881775.3038368.1573639-.4673767.2448502-.8991547.4401779-1.2748756.5677567-1.0921402 1.1648331-2.1697731 1.7766342-3.2380753.6193008-1.0813713 1.2699432-2.1447868 1.9878845-3.352356 1.3526459.8822021 2.7827606 1.8149338 4.212883 2.7476578.0316162-.0260735.0632401-.0521469.0948563-.0782204-1.0512161-1.1784821-2.1024246-2.3569565-3.1536407-3.5354385.010025-.0206985.0200424-.0413971.0300751-.0620956.7655563.4722061 1.531105.9444122 2.2966614 1.4166183.017662-.01614.0353241-.0322838.0529938-.0484276-.7585144-.8639107-1.5170212-1.7278214-2.384697-2.7160606.2967682.138485.4806747.2110214.6519623.306263 1.9747009 1.0980072 3.6079407 2.6137657 5.1079025 4.2720871 1.6594009 1.8346024 3.1153488 3.8276405 4.3434753 5.9783134.1793518.3140907.239975.6959839.3555374 1.046505-.3671187-.0287627-.7342375-.0575255-1.101364-.0862883z" fill="#abb8de"/><path d="m66.3941803 58.9533081c-.1118317.1405563-.1951141.3348999-.3405685.4120941-.547821.290741-.6219711.7356796-.4730988 1.267952.0693817.248024.1047974.4347191-.1914291.5929604-1.1135941.5948677-1.1967697.8826981-.6213531 2.02742-.1516876.131691-.3251953.2599449-.4718323.4138031-.4595108.4821205-.443119 1.0150719.1214371 1.3465462.5135956.3015594.7776642.5612259.5853043 1.2353287-.1592636.5581131.3720398.8825073.8231125 1.0992813.3920517.1884079.8264847.2886276 1.236763.4259949-.113945 1.2750549.57547 1.9896545 1.8540497 1.8844604 1.8350067-.1509857 3.6578217-.3794403 5.4318695-.9160995 2.6369171-.7976761 4.8862076-2.1299515 6.4040985-4.5099869.0454025-.0711975.1139603-.1276245.2799072-.3095245-.056633.7058182-.1231232 1.2638092-.140274 1.8233185-.0177078.5775146.1227493.6767578.6545105.4428482 1.1469574-.504509 2.156662-1.1769943 2.7956924-2.3136635.2555618-.4545593.5988007-.8598213 1.0105133-1.2334938-.0426331.2676201-.0852661.5352478-.1450119.9102745.8713226-.2763939 1.3805237-.8085709 1.7567749-1.4657135.6495132-1.1344452 1.2614594-2.2903709 1.8934937-3.4348869.0735397-.1331635.1743927-.251236.3286362-.3508377.1959457 1.0355949-.1621246 1.966835-.4732056 2.9211617 1.6668243-1.8066025 2.7690201-3.8983803 3.4432907-6.2853394.076767.4924545.2157364.9847031.217308 1.4773941.0032196 1.0111198.0310287 2.0397835-.1431732 3.0273933-.1089478.6177292-.5493927 1.1843109-.8761063 1.7537613-.219223.3820839-.5284958.7124977-.7477646 1.0945587-.840065 1.4637794-2.1344681 2.4101791-3.5726318 3.2018738-.176506.097168-.3424149.2135696-.5133286.3211823-1.1229248.4598923-2.215744 1.0248642-3.375351 1.3557281-1.9225006.5485229-3.7584915 1.2598572-5.5299988 2.1877365-2.1876984 1.1458817-4.5273514 1.894516-6.9855347 2.1559448-1.4452362.1536865-2.911911.1341324-4.3165894-.3766937-.1207123-.0438919-.2394638-.0938034-.3567352-.1462479-.049675-.0222168-.0931778-.0581894-.1949921-.1235428.182312-.2104721.3284531-.3791962.5162201-.5959702-.3997345-.0816879-.7503128-.1533356-1.1629562-.2376633.1012344-.247612.1872101-.4579163.2783813-.6809158-.6417236-.2235947-1.266655-.4413376-2.0341415-.7087555.3271179-.2489243.5046349-.3840103.7800217-.5935669-.3639412-.0922699-.6668587-.1082993-.8970184-.2459793-.1961899-.1173706-.4763145-.4419937-.429512-.5584564.2137184-.5317917-.0740662-.7468262-.4553528-.9559097-.0937576-.0514069-.1755219-.1246948-.322979-.231514.2626534-.1403351.4741325-.2533264.7980804-.4264145-.3129845-.1260681-.5212326-.2162018-.7338943-.2943344-.4861832-.1786194-.5166168-.3063278-.1520882-.6865158.1522522-.1587906.3083076-.3139343.481472-.4898605-.0548401-.1363297-.1142998-.284153-.1851845-.4603767.2476273-.1352539.4769974-.2605324.7686539-.4198303-.1857147-.1136703-.3013115-.1963043-.4268074-.259182-.5504494-.2757874-.5770988-.4941559-.0832024-.8897629.1560707-.1250114.3593025-.1916313.513382-.3184662.0934982-.0769691.2154884-.251339.185379-.325016-.1926956-.4714127.1025124-.5341034.4425812-.5946846.1935654-.034481.3816757-.0995483.7071228-.1871529-.270256-.1426888-.4334526-.2063637-.5696182-.3067245-.1527481-.112587-.4139099-.2898026-.3918343-.3829765.0434799-.1835632.2237816-.4279366.3934975-.4726906.8625717-.2274743 1.7398682-.3990899 2.6120148-.5902673z" fill="#abb8de"/><path d="m80.4269714 22.4940128c.6238785-1.0425892 1.6931381-1.4896526 2.9068298-1.2386379 1.045372.2161999 1.9524002 1.2289562 2.0765381 2.3185768.1366501 1.1994953-.409729 2.2870903-1.3912811 2.7730885-.2367859.1172409-.4861526.2691517-.6438446-.0876255-.1280365-.2896976-.3695297-.6179867.082283-.8485165 1.009964-.5153313 1.0435638-1.4555988 1.0584412-2.4039688.0009842-.0630836-.0555878-.1317101-.096344-.1901131-.6694336-.9591751-1.9823761-1.0770721-2.8377914-.2562675-.5455399.5234699-.564888.5227222-1.154831-.066536z" fill="#abb8de"/><path d="m71.1505814 43.5896797c.1387329.2405128.2170715.3763199.29599.5131187-.6947021-.0359268-1.1179886-.4821472-1.1634293-1.2949295-.038002-.6797485.0216217-1.3664398-.0393829-2.0430756-.0905991-1.0046501-.2458572-2.003643-.3837128-3.0036545-.0185623-.1346855-.0958786-.2612686-.1868973-.4980431-.2018127.2718735-.3440323.4634705-.4974213.6701126-.2504578-.6756744-.141861-1.3130798.4108658-1.6286545.4958572-.2831116 1.0768051-.5062485 1.6393127-.5615425.7416458-.0729065 1.5016327.0612717 2.2543182.0749435.9712753.0176506 1.9434357.0184059 2.9145966-.0025024.4211884-.0090599.7091751.0740509.9424896.4861946.1908035.3370399.5519867.5796242.845253.8560028.2156601.2032547.3069687.4133568.0920944.669693-1.1898499 1.419487-1.5693665 3.1810913-2.0668411 4.8929749-.2998199 1.0317001-.8319321 1.5258942-1.9071503 1.4751282-.9238129-.0436096-1.8380508-.2944183-2.7556076-.4587288-.0979766-.0175437-.189804-.069374-.3944777-.1470374zm.4213714-3.0899467c-.5084381.4680214-.7593613 1.4274063-.5273514 1.9531517.0535431.1213264.1816101.2760201.2938309.2929153.3524857.0530853.7143402.0401344 1.0714569.0673599.3450623.0263176.7016907.0250397 1.0299377.1180801.4785233.1356239.9333572.3531151 1.4054871.5146675.0814438.0278664.2323074-.0168381.2938843-.0820541.45755-.4845276.7432098-1.0463676.6692581-1.7709541-.3013229.35849-.6026459.7169838-.7869263.9362335-1.1007767-.2604713-2.087738-.4940109-3.1605301-.74786-.0778655-.3452224-.1799087-.7976569-.2890472-1.2815398zm2.1889572-3.7837754c.1005325.5514717.4947052.4105377.8716125.4641876.4737091.0674248.8709335.519413 1.4245987.3246269.0432281-.0152054.1151352.0712776.1796188.0925865.2026367.0669594.4080887.1253586.6613464.2018394-.0302505.2780342-.0703354.6464691-.1104355 1.014904.3733368-.2525902.6510544-.5416451.8682404-.8706627.1949005-.2952461.1437531-.5864372-.1631851-.8211441-.4400024-.3364487-.843811-.6415024-1.4845047-.5175781-.4722061.0913239-.9899292-.0127907-1.481926-.0737648-.6148682-.0762062-1.2241592-.1974678-1.9038162-.310585v1.3489227c.0395126.0409355.0790176.0818748.1185226.1228104.3190157-.3053206.6380312-.6106375 1.0199281-.9761428z" fill="#3e54a3"/><path d="m79.3104553 31.731638c-.2864456-.2835369-.5728912-.5670738-.8683624-.8595448.1025085-.0514545.2415466-.1212502.4791031-.2405033-.2155838-.249279-.3963547-.4582882-.6053619-.6999626.758461-.6885147 1.4662018-1.499712 2.6736374-1.2875233.2183685.0383759.4192963.1760292.628273.2678471-.1010971.1524773-.205307.3030186-.3017197.4584064-.037323.0601616-.0836182.1325817-.0805283.1972485.0325775.6811371-.3251648 1.007206-.9617844 1.1252575-.0950165.0176201-.2420273.2235622-.2227631.3110657.1088257.4942837.2718353.976326.3944168 1.4680138.0727539.2917824.1179199.592205.1512222.8914452.0233154.209549-.0458832.439785.0146637.633091.3676071 1.1736908.0990829 2.168499-.7531204 3.0425758-.3699799.3794708-.6872559.8103333-1.0284805 1.2178459-.0874405-.0672913-.174881-.1345863-.2623215-.2018738.1278229-.257618.2419434-.5232086.3863907-.7711334.2776413-.4765549.5921097-.9326134.8512497-1.4185371.1169891-.2193756.1626511-.4866638.1960449-.7381363.0379715-.2858772-.0158844-.5202255-.4141922-.4507027-.334549.0583954-.486084-.1089287-.4300385-.4484406.0472412-.2861404.1847076-.635334-.2495117-.7126503-.4408722-.078495-.5732727.2882385-.6269913.6168098-.0423279.2589226.0254288.5358467.0456085.8236465-.9865036.659481-1.2656403.4770432-1.8679962-.4175339.244812-.1852379.5258026-.3392715.7253036-.5652466.2007065-.2273254.4068832-.5295715.0677795-.8202896-.2920609-.2503929-.5476532-.1696014-.8232574.0833702-.6027451.5532608-.9961929.5962982-1.4572983.2171288-.3714905-.3054771-.4786453-.6755371-.2977066-1.1329918.4136887-1.0458584 1.5509491-1.4138298 2.7528839-.919138.5634155.2318954 1.1554565.3942356 1.7345276.5880947.0501101-.0858802.10022-.1717586.1503298-.2576388zm.6054993 1.022253c-.9137726-.3044853-1.8259125-.614048-2.7425842-.9095707-.2067032-.0666409-.4278412-.099947-.6449127-.1186848-.129364-.0111694-.2637711.0359287-.5055695.0741768.4849701.1661053.9052277.2171097 1.2095566.4321632.8257446.5835 1.7533035.5542718 2.6835098.5219155zm.614151-3.2377491c-.3980789.0812168-.6640778.1354904-.9300842.1897583.1392288.1890373.3564453.3626461.5350037.3292999.1440963-.0269069.2415542-.3035431.3950805-.5190582z" fill="#3e54a3"/><path d="m73.3703384 22.9797955c.7176285.1186523 1.2954865.4825897 1.6876831 1.0382748.5069275.7182426.9605026 1.4820461 1.3623047 2.2646103.523056 1.0186787 1.2268753 1.1878796 2.0413055.3881531.3771286-.3703136.7016678-.7941933 1.174263-1.1816959-.1115417.4705486-.2230835.9410954-.3104019 1.3094006.4946976-.1127853 1.002594-.2704945 1.5210876-.3224068.1653061-.0165462.3587341.2478199.5324707.4578438-1.0840073-.0297775-1.5591965.7663631-2.1343689 1.4113979-1.0604553 1.1892643-1.0447006 1.1555233-2.4868393.5804977-1.3457947-.5366096-2.1882095-1.5575523-2.9533157-2.7158279-.474205-.7179012-1.0119171-1.4099579-1.6126404-2.0240803-.7400055-.7565041-1.7431107-.6790142-2.7075806-.6272793-.1458893.0078239-.2909164.0316868-.4368057.0394135-.0230103.0012188-.0484848-.0440865-.141243-.1347923 1.1507797-.4569111 2.2578506-.6660099 3.4359436-.2677822 1.196991.4046173 1.7270432 1.5211868 2.5403061 2.3503113-.2540663-1.0064528-.842964-1.7953951-1.5121688-2.5660383z" fill="#abb8de"/><g fill="#3e54a3"><path d="m61.0265121 23.4704456c.0605545-.1495495.121109-.2991009.1816673-.4486504-.0253067-.0382271-.0506058-.0764523-.0759087-.1146774-.4035912.246254-.8575821.438097-1.1975861.753006-.3941689.365078-.6372261.2798958-.9590721-.0604477-.8991051-.9507694-.8780212-2.9287567.0612679-3.8359451.1320229-.1275043.2684975-.2503967.4365501-.4067154-.1224403-.1308823-.2361145-.2523975-.3513985-.3756351 1.1499138-.6768589 2.7395668-.3476753 3.7017288.7386227.4722748.5332108.7401199 1.1392155.7438965 1.8500462.0006256.1177197-.0655403.2813015-.1563187.3468342-.7597275.5484161-1.5324211 1.0788612-2.3012085 1.6147232-.0278738-.0203859-.0557478-.0407735-.083618-.0611612z"/><path d="m69.7266083 33.324585c.1407623-.0157394.2815247-.0314789.4161453-.0465279.0146255.0420685.030098.0658073.0244141.0731392-1.0301666 1.3286095-1.6590424 2.8226776-1.7516022 4.6685219-.4636002-.7606621-.4744415-1.1344109-.1799927-3.0505409-.1565933.0110855-.3023605.0214043-.5155106.0364914.391655-1.7713127 1.7168732-2.7631302 3.1023407-3.7858982-.2766418-.1320705-.461792-.2204685-.7922516-.3782349.8874664-.2846432 1.6404648-.5261536 2.3934555-.767664.0519409.0466824.1038895.0933609.155838.1400433-.1756668.2904415-.3000717.6346073-.5370712.860775-.5972977.5699959-1.2398987 1.0933781-1.8763428 1.6209698-.193924.1607552-.426918.2743874-.6420212.4096031.0675279.0731086.1350633.1462173.2025987.2193222z"/><path d="m72.6079712 28.989296c-.1921768-.2997055-.3077545-.4799519-.4153137-.6476898-1.0080872.7709064-1.533287.8679714-2.1249313.4401569-.5243301-.3791428-.6604385-1.0442982-.3473969-1.9084949-.3348694-.1138458-.6693726-.2275658-1.1090775-.3770523.2633209-.0553551.4390717-.0923042.6524582-.1371632-.0541153-.1215496-.1006012-.2259693-.2277985-.5116787.7253876.1475906 1.3517151.1916618 1.9115295.4079399.8998643.3476562 1.6060792 1.5246029 1.6605302 2.7339821zm-2.0589523-1.7122078c-.3763504.4652328-.310524.8527679.0174026 1.1058044.3409882.2631111.718399.167263 1.1598969-.2657948-.2745895-.0445919-.4434128-.1212082-.5821304-.0843906-.2975388.0789661-.3973923-.0234413-.4326935-.3042469-.0194626-.1548157-.1061173-.3011894-.1624756-.4513721z"/><path d="m77.2106552 29.8850861c-.4833832-.1322975-.9410782-.3088417-1.4139709-.3725529-.4715118-.0635262-.9582672-.0139294-1.5258865-.0139294.9433593-1.1031437 2.0637206-.6257152 2.9398574.3864823z"/><path d="m75.4956055 30.3200607c.7369843-.4922886 1.2461853-.4068413 1.6667862.2388935-.5497055-.0787849-1.0525055-.1508503-1.6667862-.2388935z"/></g></svg>