<?xml version="1.0" encoding="utf-8"?>
<!-- Generator: Adobe Illustrator 22.1.0, SVG Export Plug-In . SVG Version: 6.00 Build 0)  -->
<svg version="1.1" id="Layer_1" xmlns="http://www.w3.org/2000/svg" xmlns:xlink="http://www.w3.org/1999/xlink" x="0px" y="0px"
	 viewBox="0 0 133.9646606 78.7948227" style="enable-background:new 0 0 133.9646606 78.7948227;" xml:space="preserve">
<style type="text/css">
	.st0{fill:#4153A4;}
	.st1{fill:#121245;}
	.st2{fill:#ABB8DE;}
	.st3{fill:#2C2C81;}
	.st4{clip-path:url(#SVGID_2_);fill:#4853A4;}
	.st5{clip-path:url(#SVGID_2_);}
	.st6{fill:#B8BBD8;}
	.st7{fill:#EDEDF5;}
	.st8{fill:none;stroke:#121245;stroke-miterlimit:10;}
	.st9{fill:none;stroke:#121245;stroke-miterlimit:10;stroke-dasharray:4.1037498,4.1037498;}
	.st10{fill:#3E54A3;}
	.st11{fill:none;stroke:#121245;stroke-miterlimit:10;stroke-dasharray:3.9702759,3.9702759;}
	.st12{fill:#FFFFFF;}
</style>
<g>
	<path class="st10" d="M38.5903549,68.7671356c0-6.4411392,0-12.8521996,0-19.2801056c0.8099594,0,1.6084251,0,2.4250984,0
		c0-7.8494034,0-15.6819801,0-23.5352478c-0.8030968,0-1.6073494,0-2.4368706,0c0-0.0938148,0-0.1671524,0-0.2404919
		c0-6.2706738,0.0009727-12.5413494-0.004364-18.8120193c-0.0001717-0.2021928,0.0610809-0.2460575,0.2539444-0.2459908
		C51.7802544,6.6577501,64.7323456,6.6575575,77.6844406,6.65448c0.148468-0.0000353,0.2549744,0.0448246,0.3643951,0.1430922
		c2.9994507,2.6938162,5.9996414,5.3868256,9.0079193,8.0707655c0.2329788,0.207859,0.3307266,0.4117451,0.3305359,0.7309875
		c-0.0089798,14.7867126-0.0083466,29.573431-0.0026779,44.3601532c0.0000839,0.2204742-0.0683594,0.3622131-0.2293854,0.5062523
		c-3.0405579,2.7197266-6.0754395,5.4458008-9.1165237,8.1649323c-0.0860901,0.076973-0.2272186,0.1309509-0.3427124,0.1310043
		c-12.9589386,0.0058136-25.9178772,0.0054703-38.8768158,0.0054703
		C38.7517014,68.7671356,38.6842232,68.7671356,38.5903549,68.7671356z M39.8265495,67.5303802c0.1139679,0,0.2154198,0,0.3168678,0
		c12.3294106,0,24.6588211,0,36.9882355,0c0.0479202,0,0.0987701,0.0103149,0.1431427-0.0022354
		c0.0871811-0.0246506,0.1895294-0.0408859,0.2530365-0.0972824c1.0234909-0.9088211,2.0424042-1.8228073,3.0612793-2.736824
		c1.7932968-1.6087494,3.5842285-3.2201385,5.3820877-4.8237801c0.1322784-0.1179962,0.1775894-0.232708,0.1775436-0.4034119
		c-0.0033646-14.5065117-0.0034485-29.0130234,0.0009079-43.5195351c0.000061-0.1760025-0.0580673-0.2871418-0.1856155-0.400876
		c-1.5426483-1.3755484-3.0806503-2.7563-4.6194611-4.1361427c-1.2483597-1.1193962-2.4964676-2.2390766-3.7437592-3.359663
		c-0.108963-0.0978885-0.2155685-0.1625619-0.3781815-0.1625009C64.831604,7.892808,52.4405823,7.8923945,40.0495567,7.8928766
		c-0.0724945,0.0000024-0.1449852,0.0070014-0.2170525,0.0107112c0,5.6160569,0,11.2101326,0,16.8211117
		c0.8168793,0,1.615242,0,2.413868,0c0,8.6712093,0,17.3254642,0,25.9970684c-0.8159637,0-1.6140137,0-2.4198227,0
		C39.8265495,56.3291359,39.8265495,61.919136,39.8265495,67.5303802z"/>
	<path class="st10" d="M43.2170219,64.145752c0-3.3548584,0-6.6854286,0-10.0387993c0.8131027,0,1.6182098,0,2.4367752,0
		c0-10.9320259,0-21.8412743,0-32.7736511c-0.8038559,0-1.6087799,0-2.4301682,0c0-3.3528137,0-6.68258,0-10.0457468
		c0.0645142,0,0.1362724,0,0.2080345,0c10.8369141,0,21.6738281-0.0001764,32.5107422,0.0031128
		c0.0873871,0.0000267,0.1977386,0.0213394,0.2588196,0.0758848c2.1389389,1.910141,4.272377,3.8264465,6.4105911,5.737402
		c0.1146851,0.1024971,0.1493378,0.206913,0.1493073,0.3542156c-0.0028687,13.5068703-0.0029297,27.0137444,0.0007324,40.5206146
		c0.0000381,0.1511497-0.0439682,0.2516365-0.1556091,0.3515244c-2.1319733,1.9075928-4.2602997,3.8192711-6.3923798,5.7267494
		c-0.0546265,0.0488815-0.1412888,0.067131-0.2164307,0.0861359c-0.0514755,0.0130234-0.1088943,0.0025558-0.1636658,0.0025558
		c-10.7685242,0.0000076-21.537056,0-32.3055878,0C43.4327545,64.145752,43.337326,64.145752,43.2170219,64.145752z
		 M56.3888779,54.0986977c0.0991821,0,0.1801109,0,0.2610397,0c1.2115669,0,2.42313,0,3.634697,0
		c3.4088173,0,6.8176346-0.0008354,10.2264481,0.0027313c0.1528168,0.0001564,0.272171-0.0349846,0.3863602-0.1400948
		c0.3070602-0.2826424,0.6145172-0.5663605,0.9402313-0.8266106c0.163269-0.130455,0.2085648-0.2683144,0.2084045-0.4693527
		c-0.0051575-6.5301361-0.0042496-13.060276-0.0042572-19.590416c0-3.4566994-0.000679-6.9134007,0.0025635-10.3700981
		c0.0001221-0.1332741-0.0327377-0.2285309-0.135994-0.3178825c-0.356987-0.3088932-0.7010803-0.6328354-1.0616226-0.9373837
		c-0.084137-0.0710754-0.2137451-0.1248531-0.3225098-0.1249981c-4.6340637-0.0061245-9.2681389-0.0052662-13.9022102-0.00527
		c-0.0734444,0-0.1468849,0-0.2331505,0C56.3888779,32.2517853,56.3888779,43.159481,56.3888779,54.0986977z"/>
	<path class="st10" d="M59.7794838,24.7265015c2.9543648,0,5.8955421,0,8.8524971,0c0,8.6606789,0,17.3131638,0,25.9766083
		c-2.9527588,0-5.8936539,0-8.8524971,0C59.7794838,42.0507851,59.7794838,33.3978119,59.7794838,24.7265015z
		 M61.0124207,25.9571247c0,7.8489094,0,15.6801815,0,23.5128307c2.1366005,0,4.2557831,0,6.3877411,0
		c0-7.8421936,0-15.6732178,0-23.5128307C65.2663422,25.9571247,63.1465569,25.9571247,61.0124207,25.9571247z"/>
</g>
</svg>
