<svg enable-background="new 0 0 133.9646606 78.7948227" viewBox="0 0 133.9646606 78.7948227" xmlns="http://www.w3.org/2000/svg"><g fill="#3e54a3"><path d="m38.5903549 68.7671356c0-6.4411392 0-12.8521996 0-19.2801056h2.4250984c0-7.8494034 0-15.6819801 0-23.5352478-.8030968 0-1.6073494 0-2.4368706 0 0-.0938148 0-.1671524 0-.2404919 0-6.2706738.0009727-12.5413494-.004364-18.8120193-.0001717-.2021928.0610809-.2460575.2539444-.2459908 12.9520913.0044699 25.9041825.0042773 38.8562775.0011998.148468-.0000353.2549744.0448246.3643951.1430922 2.9994507 2.6938162 5.9996414 5.3868256 9.0079193 8.0707655.2329788.207859.3307266.4117451.3305359.7309875-.0089798 14.7867126-.0083466 29.573431-.0026779 44.3601532.0000839.2204742-.0683594.3622131-.2293854.5062523-3.0405579 2.7197266-6.0754395 5.4458008-9.1165237 8.1649323-.0860901.076973-.2272186.1309509-.3427124.1310043-12.9589386.0058136-25.9178772.0054703-38.8768158.0054703-.0674743-.000002-.1349525-.000002-.2288208-.000002zm1.2361946-1.2367554h.3168678 36.9882355c.0479202 0 .0987701.0103149.1431427-.0022354.0871811-.0246506.1895294-.0408859.2530365-.0972824 1.0234909-.9088211 2.0424042-1.8228073 3.0612793-2.736824 1.7932968-1.6087494 3.5842285-3.2201385 5.3820877-4.8237801.1322784-.1179962.1775894-.232708.1775436-.4034119-.0033646-14.5065117-.0034485-29.0130234.0009079-43.5195351.000061-.1760025-.0580673-.2871418-.1856155-.400876-1.5426483-1.3755484-3.0806503-2.7563-4.6194611-4.1361427-1.2483597-1.1193962-2.4964676-2.2390766-3.7437592-3.359663-.108963-.0978885-.2155685-.1625619-.3781815-.1625009-12.3910292.0046793-24.7820509.0042658-37.1730765.0047479-.0724945.0000024-.1449852.0070014-.2170525.0107112v16.8211117h2.413868v25.9970684c-.8159637 0-1.6140137 0-2.4198227 0z"/><path d="m43.2170219 64.145752c0-3.3548584 0-6.6854286 0-10.0387993h2.4367752c0-10.9320259 0-21.8412743 0-32.7736511-.8038559 0-1.6087799 0-2.4301682 0 0-3.3528137 0-6.68258 0-10.0457468h.2080345c10.8369141 0 21.6738281-.0001764 32.5107422.0031128.0873871.0000267.1977386.0213394.2588196.0758848 2.1389389 1.910141 4.272377 3.8264465 6.4105911 5.737402.1146851.1024971.1493378.206913.1493073.3542156-.0028687 13.5068703-.0029297 27.0137444.0007324 40.5206146.0000381.1511497-.0439682.2516365-.1556091.3515244-2.1319733 1.9075928-4.2602997 3.8192711-6.3923798 5.7267494-.0546265.0488815-.1412888.067131-.2164307.0861359-.0514755.0130234-.1088943.0025558-.1636658.0025558-10.7685242.0000076-21.537056 0-32.3055878 0-.0954283.0000019-.1908568.0000019-.3111609.0000019zm13.171856-10.0470543h.2610397 3.634697c3.4088173 0 6.8176346-.0008354 10.2264481.0027313.1528168.0001564.272171-.0349846.3863602-.1400948.3070602-.2826424.6145172-.5663605.9402313-.8266106.163269-.130455.2085648-.2683144.2084045-.4693527-.0051575-6.5301361-.0042496-13.060276-.0042572-19.590416 0-3.4566994-.000679-6.9134007.0025635-10.3700981.0001221-.1332741-.0327377-.2285309-.135994-.3178825-.356987-.3088932-.7010803-.6328354-1.0616226-.9373837-.084137-.0710754-.2137451-.1248531-.3225098-.1249981-4.6340637-.0061245-9.2681389-.0052662-13.9022102-.00527-.0734444 0-.1468849 0-.2331505 0z"/><path d="m59.7794838 24.7265015h8.8524971v25.9766083c-2.9527588 0-5.8936539 0-8.8524971 0 0-8.6523247 0-17.3052979 0-25.9766083zm1.2329369 1.2306232v23.5128307h6.3877411c0-7.8421936 0-15.6732178 0-23.5128307-2.1338196 0-4.2536049 0-6.3877411 0z"/></g></svg>