<svg enable-background="new 0 0 133.9646606 78.7948227" viewBox="0 0 133.9646606 78.7948227" xmlns="http://www.w3.org/2000/svg"><path d="m37.7504539 4.9202843h58.4640465c0 .1617274-.0000076.3083739-.0000076.4550204 0 7.7447257-.0129242 15.4894772.0033417 23.234169.0195007 9.2866821-2.5106735 17.8159752-7.5440216 25.6099548-2.9547729 4.5753708-6.5511398 8.5900192-10.6612625 12.1519852-3.0710831 2.6615067-6.3452072 5.0385056-9.8959045 7.0250168-1.1379776.6366577-1.1411743.6404724-2.2797241-.0065231-5.918396-3.3632278-11.1162109-7.615303-15.6325188-12.7029533-3.4329872-3.8672829-6.2708435-8.127552-8.4055138-12.8445129-1.521862-3.362854-2.6214218-6.8597069-3.2883682-10.4920692-.5459785-2.9735222-.7681274-5.9718914-.7637482-8.9934025.0110893-7.6522331.0036812-15.3044939.0036774-22.9567451-.0000001-.1490652.0000037-.2981317.0000037-.4799401zm23.5569077 12.3239326c0-1.76509 0-3.5023117 0-5.2439547-2.8826599 0-5.7426338 0-8.6086159 0v5.264348h1.6804466v.4725018c0 9.4900951 0 18.9801922-.0000038 28.4702892 0 .0693512-.0075836.1396828.0012474.2078857.0302505.233593-.0779343.299015-.2988396.2928772-.4586525-.0127411-.9179077-.003849-1.3831902-.003849v5.252121h8.6119308c0-1.756916 0-3.4862709 0-5.2602272-.5545959 0-1.0905647 0-1.6201401 0 0-4.0492744 0-8.0537643 0-12.0635452h14.5845375v12.078907c-.5566635 0-1.09272 0-1.634285 0v5.2468567c.0842896.0097466.1507797.0241165.2172775.024147 2.7164078.0012093 5.4328308-.001564 8.1492157.0058212.2424316.0006561.2854233-.0980949.2845764-.3095207-.0062408-1.5720253-.0030212-3.1440849-.0049438-4.7161369-.0000916-.0768509-.0204086-.1536713-.0366669-.2682533-.5520248 0-1.0902786 0-1.6359177 0 0-9.8341446 0-19.6276875 0-29.4543552h1.6446152c0-1.7699633 0-3.5065975 0-5.2384214-2.8910065 0-5.7522736 0-8.6083832 0v5.2595606h1.6295166v12.0441303c-4.8776855 0-9.7358856 0-14.5925751 0 0-4.0277824 0-8.0306492 0-12.061182.5544627-.0000001 1.081837-.0000001 1.6201976-.0000001z" fill="#3e54a3"/></svg>