<svg id="Layer_1" data-name="Layer 1" xmlns="http://www.w3.org/2000/svg" viewBox="0 0 654.76 855.8"><defs><style>.cls-1{fill:#3e54a3;}</style></defs><title>penn</title><g id="Layer_1-2" data-name="Layer 1"><path class="cls-1" d="M420.7,176.1l106-150S497.3,0,406,0H-.1V109.3s107.6,0,107.6,88.1V610L308.1,337.7V163h75C383.2,163,407.7,163,420.7,176.1Z"/><path class="cls-1" d="M583.5,58.5l-128,161c40.9,191.4-127.6,153.2-127.6,153.2l-217,262.1S110.8,764.7,0,748.9V855.8H415.8V747.6s-108.2,6.6-108.2-80.5V484.9H414.5s295.7-4,231-312.8C645.5,172,617.8,77,583.5,58.5Z"/></g></svg>