<?xml version="1.0" encoding="UTF-8" standalone="no"?>
<svg xmlns:rdf="http://www.w3.org/1999/02/22-rdf-syntax-ns#" xmlns="http://www.w3.org/2000/svg" xml:space="preserve" height="112.15" viewBox="0 0 92.014999 112.15125" width="92.015" version="1.1" xmlns:cc="http://creativecommons.org/ns#" xmlns:dc="http://purl.org/dc/elements/1.1/"><g transform="matrix(1.25 0 0 -1.25 -340.5 984.5)"><g transform="translate(.81565 .81565)"><path d="m341.72 786h-69.318l0.007-23.918v-15.071c0-20.477 23.308-41.369 34.595-48.277l1.4-0.855 1.414 0.855c11.288 6.906 34.596 27.797 34.596 48.277l-0.013 38.989h-2.681" fill="#fff"/><path d="m341.72 783.32h-66.636l0.006-21.236v-15.072c0-19.261 22.891-39.611 33.314-45.991v-0.01c0.003 0 0.006 0.003 0.008 0.003s0.004-0.003 0.005-0.003v0.01c10.426 6.38 33.315 26.73 33.315 45.991l-0.012 36.308" fill="#011f5b"/><path d="m316.74 746.19c-0.003 0.003-0.003 0.009-0.006 0.014 0.001-0.007 0.003-0.011 0.006-0.014" fill="#154281"/><path d="m43.891 9.3027v2.2891c1.1762 0 2.0586 0.35844 2.0586 1.4922v7.6699c0 1.36-0.68 2.1992-2.2188 2.1992v2.1699h7.9434s0.02539-1.2426 0.02539-2.2363c-1.6312 0-2.4004-0.65906-2.4004-2.1328 0-0.6775 0.02344-3.1445 0.02344-3.1445l5.5684 7.5137h4.0273s-0.02148-9.524-0.02148-11.584c0-1.8588 0.69906-1.9473 2.1953-1.9473v-2.2891h-8.0566v2.3086c1.9 0 2.375 0.81609 2.375 2.1523v4.2539l-6.2695-8.7148h-5.25zm19.307 0v2.2891c1.1775 0 2.0586 0.35844 2.0586 1.4922v7.6699c0 1.36-0.68125 2.1992-2.2188 2.1992v2.1699h7.9434s0.02539-1.2426 0.02539-2.2363c-1.6312 0-2.4023-0.65906-2.4023-2.1328 0-0.6775 0.02344-3.1445 0.02344-3.1445l5.5684 7.5137h4.0293s-0.02148-9.524-0.02148-11.584c0-1.8588 0.70156-1.9473 2.1953-1.9473v-2.2891h-8.0586v2.3086c1.9025 0 2.377 0.81609 2.377 2.1523v4.2539l-6.2695-8.7148h-5.25zm-36.512 0.023437s0.02344 1.1105 0.02344 2.3105c0.47625 0 2.1504 0.22359 2.1504 1.4023l0.02344 8.0352c0 1.4025-1.3572 1.8574-2.3984 1.8574v2.2168l14.031-0.02539v-4.2988h-3.1211c-0.02375 1.4475-0.88586 1.9219-1.8809 1.9219h-2.125v-4.8184h1.0625c1.04 0 1.1543 1.0859 1.1543 1.0859h1.9238v-4.3223h-1.9238s-0.000625 1.1074-1.1094 1.1074h-1.1074v-4.2539h2.0801c1.925 0 1.834 1.6504 1.834 1.6504h3.2129v-3.8691h-13.83zm-16.113 0.00195v2.2832c0.86 0 2.1052 0.31797 2.084 1.4492v8.0137c-0.02375 1.155-0.84133 1.8555-2.2676 1.8555-0.02125 0-0.04297 2.1934-0.04297 2.1934h9.0977v-2.1934c-1.72 0-2.2617-0.58992-2.2617-1.6074l0.02344-2.4648h1.6953c4.0962 0 6.3151-2.1078 6.3613-5.0703 0.045-3.1475-2.3976-4.459-5.8613-4.459h-8.8281zm6.6094 2.8262h1.4473c0.79375 0 1.7198 0.47547 1.6973 1.9492-0.02125 1.495-1.0645 1.8555-2.127 1.8555h-0.99414l-0.02344-3.8047zm-9.6602 21.66v14.922c0 19.919 23.304 43.024 37.49 52.539 14.182-9.515 37.492-32.62 37.492-52.539v-14.922c-6.765 0.03375-68.221 0.03375-74.982 0z" transform="matrix(.8 0 0 -.8 272.4 786)" fill="#fff"/><path d="m310.5 747.5h3.095c0.471 0 1.144-0.145 1.772-0.557l4.655 6.628c-1.748 0.771-3.932 0.962-6.324 0.962h-16.215s0.04-4.855 0-4.815c1.784 0 4.512-0.809 4.512-3.461v-18.148l8.505 11.979v7.412" fill="#900"/><path d="m316.74 746.2 5.549 6.755c2.296-1.941 3.013-4.932 3.013-7.793 0-6.929-4.102-10.394-12.303-10.394h-2.519v-7.079c0-2.402 1.328-4.081 4.777-4.081v-4.631h-17.773s-0.019 4.613 0 4.631c2.89 0 4.509 1.963 4.512 4.633l9.303 11.331h1.227c2.319 0 4.564 0.872 4.564 4.499-0.001 0.617-0.105 1.494-0.35 2.129" fill="#011f5b"/></g></g></svg>
