<?xml version="1.0" encoding="utf-8"?>
<!-- Generator: Adobe Illustrator 22.1.0, SVG Export Plug-In . SVG Version: 6.00 Build 0)  -->
<svg version="1.1" id="Layer_1" xmlns="http://www.w3.org/2000/svg" xmlns:xlink="http://www.w3.org/1999/xlink" x="0px" y="0px"
	 viewBox="0 0 134 78.8" style="enable-background:new 0 0 134 78.8;" xml:space="preserve">
<style type="text/css">
	.st0{fill:#A83131;}
</style>
<g id="Layer_1-2">
	<path class="st0" d="M33.5,28.7c0.1,0,0.1-0.2,0-0.2S33.4,28.7,33.5,28.7z"/>
	<path class="st0" d="M73.7,21.4l7.6-10.7c0,0-2.1-1.9-8.6-1.9H43.6v7.8c0,0,7.7,0,7.7,6.3v29.5l14.4-19.5V20.4H71
		C72,20.4,72.9,20.8,73.7,21.4z"/>
	<path class="st0" d="M85.3,13l-9.2,11.5c2.9,13.7-9.1,11-9.1,11L51.5,54.2c0,0,0,9.3-7.9,8.2V70h29.8v-7.7c0,0-7.7,0.5-7.7-5.8v-13
		h7.7c0,0,21.2-0.3,16.5-22.4C89.8,21.1,87.8,14.3,85.3,13z"/>
</g>
</svg>
