<?xml version="1.0" encoding="utf-8"?>
<!-- Generator: Adobe Illustrator 22.1.0, SVG Export Plug-In . SVG Version: 6.00 Build 0)  -->
<svg version="1.1" xmlns="http://www.w3.org/2000/svg" xmlns:xlink="http://www.w3.org/1999/xlink" x="0px" y="0px"
	 viewBox="0 0 1600 1600" style="enable-background:new 0 0 1600 1600;" xml:space="preserve">
<style type="text/css">
	.st0{fill:#3E54A3;}
	.st1{display:none;}
	.st2{display:inline;fill:none;stroke:#3E54A3;stroke-width:11;stroke-miterlimit:10;}
</style>
<g id="Layer_1">
	<g>
		<g>
			<path class="st0" d="M297.3,682.6c1.9,0,1.9-3,0-3C295.3,679.6,295.3,682.6,297.3,682.6L297.3,682.6z"/>
		</g>
	</g>
	<path class="st0" d="M892.8,550.4l106-150c0,0-29.4-26.1-120.7-26.1s-406.1,0-406.1,0v109.3c0,0,107.6,0,107.6,88.1
		s0,412.6,0,412.6l200.6-272.3V537.3h75C855.3,537.3,879.8,537.3,892.8,550.4z"/>
	<path class="st0" d="M1055.6,432.8l-128,161C968.5,785.2,800,747,800,747l-217,262.1c0,0-0.1,129.9-110.9,114.1v106.9h415.8v-108.2
		c0,0-108.2,6.6-108.2-80.5s0-182.2,0-182.2h106.9c0,0,295.7-4,231-312.8C1117.6,546.3,1089.9,451.3,1055.6,432.8z"/>
</g>
<g id="Layer_2" class="st1">
	<path class="st2" d="M1172,2367.5v170c0,0,108.1-5.2,108.1,49.8c0,54.9,0,463.5,0,463.5s8.7,75.5-108.1,75.5v156.1h472v-156.1
		c0,0-106.4,6.9-106.4-65.2V2910c0,0,350.5,37.8,350.5-252.4s-259.5-290.2-316.1-290.2S1172,2367.5,1172,2367.5z"/>
</g>
</svg>
