<svg id="Layer_1" data-name="Layer 1" xmlns="http://www.w3.org/2000/svg" viewBox="0 0 133.96 78.79"><defs><style>.cls-1{fill:#ce6363;}.cls-2{fill:#a83131;}</style></defs><title>princeton</title><path class="cls-1" d="M64.81,43.88l-.47,0V56.48l.34,0h6.41c.31,0,.31,0,.31.32v11.9c0,.32,0,.32-.31.32H60.34v0h8.59l.18,0A191.51,191.51,0,0,0,47.47,49.49c0,.26,0,.44,0,.62,0,1,0,2,0,2.92a2.85,2.85,0,0,1,0-.29q0-6.24,0-12.47a2.45,2.45,0,0,1,0-.27,3.5,3.5,0,0,1,.3.24c.94.88,1.88,1.75,2.8,2.66,1.33,1.32,2.65,2.66,4,4,.58.59,1.15,1.2,1.71,1.82q1.44,1.58,2.86,3.17c.79.9,1.57,1.81,2.34,2.72.58.68,1.14,1.36,1.71,2l.06,0a123.35,123.35,0,0,0-15.67-25l-.07,0v8c0,.12,0,.24,0,.36a2.6,2.6,0,0,1,0-.26v-8q0-6.63,0-13.28c0-.34,0-.34-.35-.34H40.69c-.32,0-.32,0-.32-.31,0-1.83,0-3.66,0-5.49,2.65,1.52,5.22,3.15,7.74,4.88,3.73,2.58,7.33,5.35,10.81,8.27,1.82,1.53,3.59,3.11,5.38,4.68v1.27h1.42l.44.42c1.29,1.22,2.61,2.43,3.87,3.68,2,2,3.89,3.93,5.83,5.91.65.68,1.27,1.38,1.91,2.07-.74.1-1.47.25-2.21.28-1.82.07-3.65.08-5.47.11a.73.73,0,0,0-.08-.09l-3.88-3.85c-.87-.85-1.73-1.7-2.61-2.54l-5.26-4.93c-1-.93-2-1.85-3-2.77L51,25.9l-.85-.73a10.9,10.9,0,0,0,.77,1C52.44,28.1,54,30,55.56,31.92c1.25,1.56,2.49,3.12,3.71,4.7C61.13,39,63,41.46,64.81,43.88Z"/><path class="cls-2" d="M53.93,5.57h7.38l1.5.89q4.55,2.67,8.84,5.73c2.58,1.85,5.1,3.79,7.5,5.89,1.28,1.12,2.56,2.25,3.8,3.43a76.8,76.8,0,0,1,6.37,6.76c1.26,1.53,2.47,3.1,3.7,4.65a1.75,1.75,0,0,1,.11.24,17,17,0,0,1-3.72,4.92,17.49,17.49,0,0,1-2.59,2,1.09,1.09,0,0,1-.19-.18Q82.7,34.7,78.42,29.77c-.21-.24-.4-.5-.6-.75a5.79,5.79,0,0,0,1.72-3.87,5.74,5.74,0,0,0-2.24-5.09A9.38,9.38,0,0,0,72,18.2c-1.4-.1-2.8-.06-4.2-.09l-.31,0c-.07-.07-.13-.15-.19-.22l-4.07-4c-.56-.54-1.12-1.06-1.69-1.58-1.13-1-2.26-2.06-3.4-3.07-.83-.75-1.69-1.49-2.53-2.23Z"/><path class="cls-1" d="M93.13,33.16a1.75,1.75,0,0,0-.11-.24c-1.23-1.55-2.44-3.12-3.7-4.65A76.8,76.8,0,0,0,83,21.51c-1.24-1.18-2.52-2.31-3.8-3.43-2.4-2.1-4.92-4-7.5-5.89q-4.29-3.06-8.84-5.73l-1.5-.89h.24c3.92,0,7.85,0,11.78,0A25.61,25.61,0,0,1,84.88,8.23a18.3,18.3,0,0,1,8.06,7.68,17.6,17.6,0,0,1,2,6.63c0,.2,0,.4,0,.61-.45-.53-.9-1.07-1.36-1.59-1-1.13-2-2.28-3.06-3.38a66.53,66.53,0,0,0-6.45-5.88A50.42,50.42,0,0,0,77,7.49l-.61-.31a4.77,4.77,0,0,0,.57.61c1.21,1.24,2.44,2.46,3.62,3.72s2.1,2.25,3.08,3.43c1.41,1.72,2.8,3.46,4.13,5.24a60.67,60.67,0,0,1,6,9.85l.37.74Z"/><path class="cls-2" d="M64.31,30.14c-1.79-1.57-3.56-3.15-5.38-4.68-3.48-2.92-7.08-5.69-10.81-8.27-2.52-1.73-5.09-3.36-7.74-4.88,0-1.86,0-3.72,0-5.58V5.6l.08,0h5.12c1.67,1.39,3.37,2.75,5,4.16s3.26,2.84,4.85,4.29c1.28,1.17,2.52,2.38,3.75,3.59s2.23,2.28,3.34,3.43c.6.63,1.19,1.27,1.78,1.91,0,.1,0,.2,0,.29v6.14C64.32,29.64,64.31,29.89,64.31,30.14Z"/><path class="cls-1" d="M60.34,69v0H48.14v0h2.58c-.06-.13-.1-.2-.14-.27a98.18,98.18,0,0,0-6.73-10.4c-.44-.61-.89-1.21-1.34-1.81l.31,0h4.34c.22,0,.3-.06.29-.28,0-.95,0-1.89,0-2.84,0-.1,0-.21,0-.31a1.9,1.9,0,0,1,.21.19c.49.52,1,1,1.47,1.58,1.52,1.73,3.05,3.45,4.54,5.21,1.68,2,3.24,4,4.73,6.15C59.07,67.12,59.7,68.07,60.34,69Z"/><path class="cls-2" d="M60.34,69c-.64-.93-1.27-1.88-1.92-2.8-1.49-2.12-3.05-4.18-4.73-6.15-1.49-1.76-3-3.48-4.54-5.21-.47-.54-1-1.06-1.47-1.58a1.9,1.9,0,0,0-.21-.19.08.08,0,0,1,0,0c0-1,0-1.94,0-2.92,0-.18,0-.36,0-.62A191.51,191.51,0,0,1,69.11,69l-.18,0Z"/><path class="cls-1" d="M64.31,23c-.59-.64-1.18-1.28-1.78-1.91-1.11-1.15-2.21-2.3-3.34-3.43S56.72,15.19,55.44,14q-2.38-2.17-4.85-4.29c-1.65-1.41-3.35-2.77-5-4.16h8.36L55.65,7c.84.74,1.7,1.48,2.53,2.23,1.14,1,2.27,2,3.4,3.07.57.52,1.13,1,1.69,1.58l4.07,4c.06.07.12.15.19.22l-2.86,0c-.35,0-.35,0-.35.33C64.32,20,64.32,21.45,64.31,23Z"/><path class="cls-1" d="M77.82,29c.2.25.39.51.6.75q4.27,4.94,8.21,10.15a1.09,1.09,0,0,0,.19.18,21.23,21.23,0,0,1-4.76,2.33,22.61,22.61,0,0,1-3.7,1l-.08-.18a63.91,63.91,0,0,0-3.66-6.64c-1.12-1.74-2.3-3.45-3.45-5.17.59-.06,1.19-.1,1.78-.2A8.79,8.79,0,0,0,77.82,29Z"/><path class="cls-2" d="M47.46,40c0-.12,0-.24,0-.36v-8l.07,0a123.35,123.35,0,0,1,15.67,25l-.06,0c-.57-.68-1.13-1.36-1.71-2-.77-.91-1.55-1.82-2.34-2.72q-1.43-1.59-2.86-3.17c-.56-.62-1.13-1.23-1.71-1.82-1.31-1.34-2.63-2.68-4-4-.92-.91-1.86-1.78-2.8-2.66a3.5,3.5,0,0,0-.3-.24A.06.06,0,0,1,47.46,40Z"/><path class="cls-2" d="M94.14,30.77,93.77,30a60.67,60.67,0,0,0-6-9.85c-1.33-1.78-2.72-3.52-4.13-5.24-1-1.18-2-2.31-3.08-3.43S78.18,9,77,7.79a4.77,4.77,0,0,1-.57-.61l.61.31a50.42,50.42,0,0,1,7.14,4.81,66.53,66.53,0,0,1,6.45,5.88c1.05,1.1,2.05,2.25,3.06,3.38.46.52.91,1.06,1.36,1.59,0,.52.08,1,.08,1.57a18.77,18.77,0,0,1-.9,5.86Z"/><path class="cls-2" d="M64.81,43.88C63,41.46,61.13,39,59.27,36.62c-1.22-1.58-2.46-3.14-3.71-4.7C54,30,52.44,28.1,50.88,26.19a10.9,10.9,0,0,1-.77-1l.85.73,4.28,3.8c1,.92,2,1.84,3,2.77l5.26,4.93c.88.84,1.74,1.69,2.61,2.54L70,43.79a.73.73,0,0,1,.08.09Z"/><path class="cls-2" d="M42.51,56.52c.45.6.9,1.2,1.34,1.81a98.18,98.18,0,0,1,6.73,10.4c0,.07.08.14.14.27H48.14s-.12-.1-.17-.16c-.59-.64-1.17-1.29-1.77-1.9-1.39-1.41-2.79-2.8-4.19-4.19-.53-.52-1.09-1-1.63-1.52,0-1.55,0-3.11,0-4.66a.09.09,0,0,1,0,0Z"/><path class="cls-2" d="M71.17,31.4c1.15,1.72,2.33,3.43,3.45,5.17a63.91,63.91,0,0,1,3.66,6.64l.08.18-.58.1c-.64-.69-1.26-1.39-1.91-2.07-1.94-2-3.87-4-5.83-5.91-1.26-1.25-2.58-2.46-3.87-3.68l-.44-.42Z"/><path class="cls-1" d="M40.38,61.23c.54.5,1.1,1,1.63,1.52,1.4,1.39,2.8,2.78,4.19,4.19.6.61,1.18,1.26,1.77,1.9.05.06.12.11.17.16v0H40.59c-.14,0-.22,0-.22-.19C40.37,66.31,40.38,63.77,40.38,61.23Z"/></svg>