<svg enable-background="new 0 0 133.9646606 78.7948227" viewBox="0 0 133.9646606 78.7948227" xmlns="http://www.w3.org/2000/svg"><path d="m64.8085632 43.8786392c-.15168.0068932-.3033676.0137901-.4704208.0213776v12.5800552c.1164856.0060158.2275009.0166893.3385162.0167427 2.1370087.0010033 4.274025.000618 6.4110413.0009384.316124.0000458.3168182.0010376.3168335.3209648.0001678 3.9664345.0001526 7.9328613.0000381 11.899292-.0000076.3225021-.0004883.3228989-.3109665.3232269-3.4887009.0036316-6.9774017.0072556-10.4661026.0100861-.096714.0000839-.1934319-.0086823-.2901459-.0133286-.0000381-.0126266-.0000648-.0252609-.0000916-.0378876 2.8654289.0016556 5.7308578.0034256 8.5962906.0039597.0441971.0000076.0884018-.0152588.178009-.0317535-6.7106667-7.0529633-13.9105949-13.4985619-21.6370659-19.4815865 0 .2596893.0008621.4419174-.0001411.6241379-.0053482.9709129-.0111618 1.9418259-.0168114 2.9127426-.0083046-.0958672-.0239296-.1917343-.0238533-.2875938.0033493-4.1581535.0079765-8.3163071.0134468-12.4744606.0001144-.0883789.0119057-.1767502.0182495-.2651215.102314.0785522.2124977.1487846.3057175.2369499.9344177.8837128 1.8809204 1.7553406 2.7949409 2.6597633 1.334343 1.3203316 2.6493607 2.6603394 3.9633369 4.0010529.5830688.5949402 1.1515007 1.2047844 1.7123489 1.8208084.9581337 1.0523911 1.9118996 2.1089287 2.8545761 3.175148.7924995.8963623 1.5711365 1.8051224 2.3473473 2.7156982.5757904.6754608 1.1378479 1.3626404 1.706028 2.0445976.0196114-.0130463.0392189-.0260849.0588341-.0391235-4.2184067-8.9670258-9.445076-17.3032532-15.6717377-25.0138588-.0207596.0064907-.0415192.0129814-.0622787.0194702v.2800083c-.0000038 2.5654697.0002213 5.1309414-.0007019 7.696413-.0000458.1209831-.0102692.2419662-.0157509.3629494-.0084686-.0877533-.0242882-.1755104-.0243301-.2632713-.0013008-2.6547279-.0027351-5.3094635-.0006599-7.9641953.0034599-4.4270802.0093842-8.8541584.0140419-13.2812386.0003586-.3392982-.0004845-.3396988-.3466225-.3397198-2.136734-.0001392-4.2734718.0000477-6.4102058-.0002384-.3201065-.000042-.3211708-.0009346-.3207321-.3136177.0025864-1.8290081.0057106-3.6580181.0086517-5.4870262 2.6480446 1.5184546 5.2247009 3.1496344 7.7374878 4.8828068 3.7387581 2.5787735 7.3375511 5.3416786 10.8123283 8.2639885 1.8192215 1.529974 3.5903625 3.1171207 5.3832169 4.6784477v1.2755566h1.4214172c.1473236.1380291.2955093.2751465.4418259.4142323 1.2900848 1.2263508 2.6027451 2.4300137 3.8643951 3.6849651 1.9622116 1.9517899 3.8951645 3.933136 5.8287735 5.9134293.6551361.670948 1.2746735 1.3766441 1.9104843 2.0664635-.7357864.0972137-1.4694138.2528114-2.2077866.2801018-1.8234711.0673981-3.6491241.0759659-5.4738998.1081848-.0257721-.0310402-.0491562-.0644913-.0776672-.0927734-1.2927475-1.2825279-2.5829544-2.5676384-3.8801422-3.8456726-.8647308-.8519592-1.7295456-1.7042656-2.6118393-2.5378838-1.7464638-1.6501007-3.5016556-3.2910156-5.2599525-4.9285202-1.0002632-.9315434-2.0061951-1.8573093-3.0231972-2.7704983-1.4200478-1.2750969-2.8522339-2.5366859-4.280674-3.8024216-.2801399-.2482319-.5668526-.4890423-.8505363-.7332764.2310562.3646927.5016937.6911983.7700043 1.0196037 1.5605278 1.9100494 3.1302643 3.8126869 4.6776161 5.7333565 1.253273 1.5556469 2.4943619 3.1216297 3.7140808 4.7036686 1.8569642 2.4085886 3.6907883 4.835026 5.5344353 7.2538797z" fill="#abb8de"/><path d="m53.9308929 5.5708733c.8329659-.0029187 1.6659317-.0084949 2.4988937-.0081897 1.6257248.0005946 3.2514534.0044785 4.8771782.0070004.501606.2958093 1.0027428.592423 1.5048981.8872957 3.0305748 1.7795868 5.977459 3.6884212 8.8351936 5.7339573 2.5866318 1.8514872 5.1036072 3.793437 7.4989166 5.8877563 1.2847061 1.12327 2.5661316 2.253067 3.7990341 3.4322014 2.2404633 2.1427574 4.4038925 4.3637943 6.3772507 6.758276 1.2598419 1.5287189 2.4674606 3.1005058 3.6956482 4.6552258.052803.0668297.076973.1562729.1144791.2351799-.9357529 1.8704224-2.1908188 3.500412-3.7182007 4.9233093-.8054199.7503242-1.6659622 1.4314461-2.5982208 2.0194435-.0628433-.0620422-.1347046-.1172981-.1872406-.1870995-2.6176529-3.4780617-5.356842-6.8575554-8.2125397-10.1429138-.2106094-.2423096-.3985977-.5042915-.5971146-.7571239 1.0638275-1.0716934 1.6441803-2.3582706 1.7204437-3.8691788.1044388-2.0690174-.5930481-3.7942314-2.2351074-5.0869122-1.5400772-1.2123909-3.3550949-1.7187138-5.2673035-1.8554344-1.3937607-.0996552-2.7968903-.0682468-4.1958237-.0960751-.1047592-.0020828-.2093811-.0106659-.314064-.0162239-.0637665-.0726299-.1230087-.1498966-.1919708-.217205-1.3552475-1.3228302-2.7086868-2.647543-4.0692215-3.9649296-.5521126-.534606-1.1144371-1.0590353-1.6821976-1.5770426-1.1292496-1.0302954-2.2606812-2.0583124-3.4004326-3.0769491-.8380814-.7490215-1.6886139-1.484189-2.5378304-2.2206497-.5677145-.4923357-1.1428526-.9761113-1.7146681-1.4637183z" fill="#3e54a3"/><path d="m93.1323853 33.1595764c-.0375061-.078907-.061676-.1683502-.1144791-.2351799-1.2281876-1.5547199-2.4358063-3.1265068-3.6956482-4.6552258-1.9733582-2.3944817-4.1367874-4.6155186-6.3772507-6.758276-1.2329025-1.1791344-2.514328-2.3089314-3.7990341-3.4322014-2.3953094-2.0943193-4.9122849-4.0362692-7.4989166-5.8877563-2.8577347-2.045536-5.8046188-3.9543705-8.8351936-5.7339573-.5021553-.2948728-1.0032921-.5914865-1.5048981-.8872957.0808449-.0023069.1616898-.006639.2425385-.0066299 3.9254494.0004573 7.8511467-.0262299 11.7762718.0097094 4.0387878.0369797 7.9243698.8085198 11.5515137 2.6537704 3.4503632 1.7553167 6.1992493 4.2581625 8.0612717 7.6822939 1.1266556 2.0718603 1.7907486 4.2895517 2.0378723 6.6332083.0211411.2004395.0274734.4024391.0406876.6037159-.4514236-.5275478-.8935089-1.0634441-1.3561935-1.5809269-1.0134354-1.1334801-2.0104675-2.2833843-3.0626755-3.3800716-2.0185242-2.1038361-4.1669388-4.0694408-6.4512863-5.8842926-2.2534409-1.7902956-4.6055298-3.4334927-7.139061-4.8073735-.2006683-.1088161-.4066925-.2077346-.6102295-.3112526.1704254.2341256.3776932.4134159.5689163.6084371 1.2125702 1.2366409 2.4397736 2.4596586 3.6263504 3.7208462 1.0527496 1.1189442 2.0997086 2.248064 3.0762558 3.4328394 1.4141922 1.7157469 2.8041382 3.4548597 4.1298981 5.2393713 2.2972565 3.0921726 4.2970734 6.3722305 5.9731369 9.8450451.1193161.2472172.2433243.4921627.3651505.7381668-.3349993.7976797-.6699984 1.5953596-1.0049974 2.3930357z" fill="#abb8de"/><path d="m64.3112183 30.1362438c-1.7928467-1.561327-3.5639877-3.1484737-5.3832092-4.6784477-3.4747772-2.9223099-7.0735703-5.685215-10.8123283-8.2639885-2.5127869-1.7331724-5.0894432-3.3643522-7.7374878-4.8828068-.0026703-1.859786-.0054321-3.7195711-.0079384-5.5793562-.0005112-.3789206-.0000763-.7578425-.0000763-1.1351233.036602-.0144935.0580521-.0304265.0794945-.0304184 1.7060814.0006509 3.412159.0025487 5.1182365.004353 1.6756401 1.3857484 3.3691216 2.7506194 5.0218811 4.1631379 1.640728 1.4022379 3.2587585 2.8324099 4.8524132 4.2879181 1.2777557 1.1669931 2.5191154 2.3751116 3.7488976 3.5929804 1.1321487 1.1211872 2.2320671 2.2751503 3.3369179 3.4235878.6050453.6289158 1.1909218 1.2762737 1.7854424 1.9153118.0028534.0969009.0081787.1938.0082016.290699.0004807 2.0468369.0007324 4.0936718-.0001144 6.1405067-.0000994.2505495-.0067217.5010969-.0103304.7516462z" fill="#3e54a3"/><path d="m60.337265 69.0001068c.0000267.0126266.0000534.0252609.0000916.0378876-2.2465057.0011139-4.4930153.0012054-6.739521.0036697-1.7211342.0018768-3.4422646.0069733-5.1633949.0096588-.0965385.0001526-.1930885-.0087357-.2896347-.0134125-.0000496-.0118256-.0001068-.0236511-.0001678-.0354767h2.5769348c-.0659103-.1300812-.0990257-.2016449-.1373901-.2702789-2.0197563-3.6134186-4.2722397-7.0763359-6.7313919-10.4055099-.4465065-.6044731-.8949318-1.2075462-1.3424721-1.811264.1045303-.0059509.2090569-.0169983.313591-.0170822 1.4466133-.001152 2.8932495-.0048561 4.3398132.003521.2188377.0012703.2920799-.0579071.2892799-.2844582-.011692-.9454079-.0054512-1.8910408-.0040932-2.8365974.0001488-.104538.0111198-.2090683.0170708-.3136024.0723381.0638771.1502953.122467.2161255.1924667.4928627.5241013.9971504 1.0383072 1.4720078 1.5783386 1.5207253 1.7294464 3.0472603 3.454277 4.5396156 5.208065 1.6772118 1.971035 3.2376556 4.0349464 4.7278404 6.1507835.6516303.9252243 1.2779044 1.8683166 1.9156951 2.8032913z" fill="#abb8de"/><path d="m60.337265 69.0001068c-.6377907-.9349747-1.2640648-1.878067-1.9156952-2.8032913-1.4901848-2.1158371-3.0506287-4.1797485-4.7278404-6.1507835-1.4923553-1.753788-3.0188904-3.4786186-4.5396156-5.208065-.4748573-.5400314-.9791451-1.0542374-1.4720078-1.5783386-.0658302-.0699997-.1437874-.1285896-.2161255-.1924667-.0075111-.0121841-.0103226-.0253677-.0084343-.0395546.0056496-.9709167.0114632-1.9418297.0168114-2.9127426.0010033-.1822205.0001411-.3644485.0001411-.6241379 7.7264709 5.9830246 14.9263992 12.4286232 21.6370659 19.4815865-.0896072.0164948-.133812.0317612-.178009.0317535-2.8654327-.0005342-5.7308617-.0023042-8.5962906-.0039598z" fill="#3e54a3"/><path d="m64.3134613 22.953392c-.5945206-.6390381-1.180397-1.286396-1.7854424-1.9153118-1.1048508-1.1484375-2.2047691-2.3024006-3.3369179-3.4235878-1.2297821-1.2178688-2.4711418-2.4259872-3.7488976-3.5929804-1.5936546-1.4555082-3.2116852-2.8856802-4.8524132-4.2879181-1.6527596-1.4125185-3.346241-2.7773895-5.0218811-4.1631379 1.5756416-.0025616 3.1512794-.0068908 4.7269211-.007112 1.2120209-.0001702 2.4240417.0048285 3.6360626.0075293.5718155.487607 1.1469536.9713826 1.7146683 1.4637184.8492165.7364607 1.699749 1.4716282 2.5378304 2.2206497 1.1397514 1.0186367 2.271183 2.0466537 3.4004326 3.0769491.5677605.5180073 1.130085 1.0424366 1.6821976 1.5770426 1.3605347 1.3173866 2.713974 2.6420994 4.0692215 3.9649296.0689621.0673084.1282043.1445751.1919708.217205-.953476.0053177-1.9069519.0110264-2.8604279.0157509-.3443604.0017033-.3440857.0006256-.3447037.3358765-.002777 1.5034656-.0057296 3.0069313-.0086211 4.5103969z" fill="#abb8de"/><path d="m77.8190689 29.015192c.1985168.2528324.3865051.5148144.5971146.7571239 2.8556976 3.2853584 5.5948868 6.6648521 8.2125397 10.1429138.052536.0698013.1243973.1250572.1872406.1870995-1.4824371.9874649-3.0809021 1.7387924-4.759285 2.3234367-1.2074585.4205971-2.4388428.7543259-3.7011719.9672928-.0243607-.0597992-.0454559-.1211815-.0735626-.1791649-1.1050568-2.2798653-2.3021317-4.5112343-3.6668167-6.6454811-1.1147232-1.7433395-2.2947159-3.4449463-3.4457626-5.1650562.5932693-.0652409 1.1902008-.1072311 1.7791214-.2000523 1.8197173-.2868117 3.4993514-.8974036 4.8705825-2.1881122z" fill="#abb8de"/><g fill="#3e54a3"><path d="m47.4580498 39.9603081c.0054817-.1209831.0157051-.2419662.0157509-.3629494.0009232-2.5654716.0006981-5.1309433.0007019-7.696413 0-.0933361 0-.1866722 0-.2800083.0207596-.0064888.0415192-.0129795.0622787-.0194702 6.2266617 7.7106056 11.453331 16.046833 15.6717377 25.0138588-.0196152.0130386-.0392227.0260773-.0588341.0391235-.5681801-.6819572-1.1302376-1.3691368-1.706028-2.0445976-.7762108-.9105759-1.5548477-1.8193359-2.3473473-2.7156982-.9426765-1.0662193-1.8964424-2.122757-2.8545761-3.175148-.5608482-.616024-1.1292801-1.2258682-1.7123489-1.8208084-1.3139763-1.3407135-2.628994-2.6807213-3.9633369-4.0010529-.9140205-.9044228-1.8605232-1.7760506-2.7949409-2.6597633-.0932198-.0881653-.2034035-.1583977-.3057175-.2369499-.0067406-.0125886-.0091897-.025963-.0073395-.0401231z"/><path d="m94.1373749 30.7665367c-.1218185-.2460003-.2458267-.4909458-.3651428-.738163-1.6760635-3.4728146-3.6758804-6.7528725-5.9731369-9.8450451-1.3257599-1.7845116-2.7157059-3.5236244-4.1298981-5.2393713-.9765472-1.1847754-2.0235062-2.3138952-3.0762558-3.4328394-1.1865768-1.2611876-2.4137802-2.4842052-3.6263504-3.7208462-.1912232-.1950211-.3984909-.3743114-.5689163-.608437.203537.103518.4095612.2024364.6102295.3112526 2.5335312 1.3738809 4.8856201 3.0170779 7.139061 4.8073735 2.2843475 1.8148518 4.4327621 3.7804565 6.4512863 5.8842926 1.0522079 1.0966873 2.0492401 2.2465916 3.0626755 3.3800716.4626846.5174828.9047699 1.0533791 1.3561935 1.5809269.0290527.5240135.0837479 1.0480881.0825806 1.5720367-.0044174 1.9993057-.2751541 3.9603462-.8988037 5.8659878-.0200578.0612832-.0422974.1218568-.0635224.1827603z"/><path d="m64.8085632 43.8786392c-1.843647-2.4188538-3.6774712-4.8452911-5.5344353-7.2538795-1.2197189-1.5820389-2.4608078-3.1480217-3.7140808-4.7036686-1.5473518-1.9206696-3.1170883-3.823307-4.6776161-5.7333565-.2683105-.3284054-.5389481-.654911-.7700043-1.0196037.2836838.2442341.5703964.4850445.8505363.7332764 1.4284401 1.2657356 2.8606262 2.5273247 4.280674 3.8024216 1.0170021.9131889 2.022934 1.8389549 3.0231972 2.7704983 1.758297 1.6375046 3.5134888 3.2784195 5.2599525 4.9285202.8822937.8336182 1.7471085 1.6859245 2.6118393 2.5378838 1.2971878 1.2780342 2.5873947 2.5631447 3.8801422 3.8456726.028511.0282822.0518951.0617332.0776672.0927696-1.7626189-.0001756-3.5252455-.0003549-5.2878722-.0005342z"/><path d="m42.5103188 56.5153809c.4475403.6037178.8959656 1.2067909 1.3424721 1.811264 2.4591522 3.329174 4.7116356 6.7920914 6.7313919 10.4055099.0383644.068634.0714798.1401978.1373901.2702789-.8900719 0-1.7335052 0-2.5769348 0-.0591583-.0549927-.1220016-.1065369-.1769066-.1654816-.589817-.6332245-1.163063-1.2827225-1.7703896-1.8986282-1.3861885-1.4057693-2.7839088-2.800293-4.1874847-4.1887321-.5286102-.5229187-1.0863342-1.0164032-1.6307907-1.5233002-.0017624-1.5506821-.0035706-3.1013527-.004612-4.6520348-.0000076-.0146294.0102234-.0292625.0212517-.058876.7014389.0000001 1.4080238.0000001 2.1146126.0000001z"/><path d="m71.1693649 31.4033546c1.1510468 1.7201118 2.3310394 3.4217186 3.4457626 5.1650581 1.3646851 2.1342468 2.5617599 4.3656158 3.6668167 6.6454811.0281067.0579834.049202.1193657.0735626.1791649-.1924667.032608-.3849258.0652199-.5773849.0978317-.6358109-.6898193-1.2553482-1.3955154-1.9104843-2.0664635-1.933609-1.9802933-3.8665619-3.9616394-5.8287735-5.9134293-1.2616501-1.2549515-2.5743103-2.4586143-3.8643951-3.6849651-.1463165-.1390858-.2945023-.2762032-.4418259-.4142342 1.8122406-.0028132 3.6244812-.0056303 5.4367218-.0084437z"/></g><path d="m40.3790665 61.2262917c.5444565.506897 1.1021805 1.0003815 1.6307907 1.5233002 1.4035759 1.3884392 2.8012962 2.7829628 4.1874847 4.1887321.6073265.6159058 1.1805725 1.2654037 1.7703896 1.8986282.0549049.0589447.1177483.1104889.1769066.1654816.000061.0118256.0001183.0236511.0001678.0354843-2.517601.0010834-5.0352058.0015869-7.5528107.0048065-.1385078.0001831-.2263412-.0129089-.2257996-.1912613.0077287-2.5417175.009594-5.0834427.0128709-7.6251716z" fill="#abb8de"/></svg>