<svg viewBox="0 0 133.96 78.79" xmlns="http://www.w3.org/2000/svg"><path d="m64.81 43.88h-.47v12.6h.34 6.41c.31 0 .31 0 .31.32v11.9c0 .32 0 .32-.31.32h-10.75 8.59.18a191.51 191.51 0 0 0 -21.64-19.53v.62 2.92a2.85 2.85 0 0 1 0-.29q0-6.24 0-12.47a2.45 2.45 0 0 1 0-.27 3.5 3.5 0 0 1 .3.24c.94.88 1.88 1.75 2.8 2.66 1.33 1.32 2.65 2.66 4 4 .58.59 1.15 1.2 1.71 1.82q1.44 1.58 2.86 3.17c.79.9 1.57 1.81 2.34 2.72.58.68 1.14 1.36 1.71 2h.06a123.35 123.35 0 0 0 -15.67-25h-.07v8 .36a2.6 2.6 0 0 1 0-.26v-8q0-6.63 0-13.28c0-.34 0-.34-.35-.34h-6.47c-.32 0-.32 0-.32-.31 0-1.83 0-3.66 0-5.49 2.65 1.52 5.22 3.15 7.74 4.88 3.73 2.58 7.33 5.35 10.81 8.27 1.82 1.53 3.59 3.11 5.38 4.68v1.27h1.42l.44.42c1.29 1.22 2.61 2.43 3.87 3.68 2 2 3.89 3.93 5.83 5.91.65.68 1.27 1.38 1.91 2.07-.74.1-1.47.25-2.21.28-1.82.07-3.65.08-5.47.11a.73.73 0 0 0 -.08-.09l-3.88-3.85c-.87-.85-1.73-1.7-2.61-2.54l-5.26-4.93c-1-.93-2-1.85-3-2.77l-4.26-3.78-.85-.73a10.9 10.9 0 0 0 .77 1c1.52 1.93 3.08 3.83 4.64 5.75 1.25 1.56 2.49 3.12 3.71 4.7 1.86 2.38 3.73 4.84 5.54 7.26z" fill="#ce6363"/><path d="m53.93 5.57h7.38l1.5.89q4.55 2.67 8.84 5.73c2.58 1.85 5.1 3.79 7.5 5.89 1.28 1.12 2.56 2.25 3.8 3.43a76.8 76.8 0 0 1 6.37 6.76c1.26 1.53 2.47 3.1 3.7 4.65a1.75 1.75 0 0 1 .11.24 17 17 0 0 1 -3.72 4.92 17.49 17.49 0 0 1 -2.59 2 1.09 1.09 0 0 1 -.19-.18q-3.93-5.2-8.21-10.13c-.21-.24-.4-.5-.6-.75a5.79 5.79 0 0 0 1.72-3.87 5.74 5.74 0 0 0 -2.24-5.09 9.38 9.38 0 0 0 -5.3-1.86c-1.4-.1-2.8-.06-4.2-.09h-.31c-.07-.07-.13-.15-.19-.22l-4.07-4c-.56-.54-1.12-1.06-1.69-1.58-1.13-1-2.26-2.06-3.4-3.07-.83-.75-1.69-1.49-2.53-2.23z" fill="#a83131"/><path d="m93.13 33.16a1.75 1.75 0 0 0 -.11-.24c-1.23-1.55-2.44-3.12-3.7-4.65a76.8 76.8 0 0 0 -6.32-6.76c-1.24-1.18-2.52-2.31-3.8-3.43-2.4-2.1-4.92-4-7.5-5.89q-4.29-3.06-8.84-5.73l-1.5-.89h.24 11.78a25.61 25.61 0 0 1 11.5 2.66 18.3 18.3 0 0 1 8.06 7.68 17.6 17.6 0 0 1 2 6.63v.61c-.45-.53-.9-1.07-1.36-1.59-1-1.13-2-2.28-3.06-3.38a66.53 66.53 0 0 0 -6.45-5.88 50.42 50.42 0 0 0 -7.07-4.81l-.61-.31a4.77 4.77 0 0 0 .57.61c1.21 1.24 2.44 2.46 3.62 3.72s2.1 2.25 3.08 3.43c1.41 1.72 2.8 3.46 4.13 5.24a60.67 60.67 0 0 1 6 9.85l.37.74z" fill="#ce6363"/><path d="m64.31 30.14c-1.79-1.57-3.56-3.15-5.38-4.68-3.48-2.92-7.08-5.69-10.81-8.27-2.52-1.73-5.09-3.36-7.74-4.88 0-1.86 0-3.72 0-5.58v-1.13h.08 5.12c1.67 1.39 3.37 2.75 5 4.16s3.26 2.84 4.85 4.29c1.28 1.17 2.52 2.38 3.75 3.59s2.23 2.28 3.34 3.43c.6.63 1.19 1.27 1.78 1.91v.29 6.14c.02.23.01.48.01.73z" fill="#a83131"/><path d="m60.34 69h-12.2 2.58c-.06-.13-.1-.2-.14-.27a98.18 98.18 0 0 0 -6.73-10.4c-.44-.61-.89-1.21-1.34-1.81h.31 4.34c.22 0 .3-.06.29-.28 0-.95 0-1.89 0-2.84 0-.1 0-.21 0-.31a1.9 1.9 0 0 1 .21.19c.49.52 1 1 1.47 1.58 1.52 1.73 3.05 3.45 4.54 5.21 1.68 2 3.24 4 4.73 6.15.67.9 1.3 1.85 1.94 2.78z" fill="#ce6363"/><path d="m60.34 69c-.64-.93-1.27-1.88-1.92-2.8-1.49-2.12-3.05-4.18-4.73-6.15-1.49-1.76-3-3.48-4.54-5.21-.47-.54-1-1.06-1.47-1.58a1.9 1.9 0 0 0 -.21-.19.08.08 0 0 1 0 0c0-1 0-1.94 0-2.92 0-.18 0-.36 0-.62a191.51 191.51 0 0 1 21.64 19.47h-.18z" fill="#a83131"/><path d="m64.31 23c-.59-.64-1.18-1.28-1.78-1.91-1.11-1.15-2.21-2.3-3.34-3.43s-2.47-2.47-3.75-3.66q-2.38-2.17-4.85-4.29c-1.65-1.41-3.35-2.77-5-4.16h8.36l1.7 1.45c.84.74 1.7 1.48 2.53 2.23 1.14 1 2.27 2 3.4 3.07.57.52 1.13 1 1.69 1.58l4.07 4c.06.07.12.15.19.22h-2.86c-.35 0-.35 0-.35.33 0 1.57 0 3.02-.01 4.57z" fill="#ce6363"/><path d="m77.82 29c.2.25.39.51.6.75q4.27 4.94 8.21 10.15a1.09 1.09 0 0 0 .19.18 21.23 21.23 0 0 1 -4.76 2.33 22.61 22.61 0 0 1 -3.7 1l-.08-.18a63.91 63.91 0 0 0 -3.66-6.64c-1.12-1.74-2.3-3.45-3.45-5.17.59-.06 1.19-.1 1.78-.2a8.79 8.79 0 0 0 4.87-2.22z" fill="#ce6363"/><g fill="#a83131"><path d="m47.46 40c0-.12 0-.24 0-.36v-8h.07a123.35 123.35 0 0 1 15.67 25h-.06c-.57-.68-1.13-1.36-1.71-2-.77-.91-1.55-1.82-2.34-2.72q-1.43-1.59-2.86-3.17c-.56-.62-1.13-1.23-1.71-1.82-1.31-1.34-2.63-2.68-4-4-.92-.91-1.86-1.78-2.8-2.66a3.5 3.5 0 0 0 -.3-.24.06.06 0 0 1 .04-.03z"/><path d="m94.14 30.77-.37-.77a60.67 60.67 0 0 0 -6-9.85c-1.33-1.78-2.72-3.52-4.13-5.24-1-1.18-2-2.31-3.08-3.43s-2.38-2.48-3.56-3.69a4.77 4.77 0 0 1 -.57-.61l.61.31a50.42 50.42 0 0 1 7.14 4.81 66.53 66.53 0 0 1 6.45 5.88c1.05 1.1 2.05 2.25 3.06 3.38.46.52.91 1.06 1.36 1.59 0 .52.08 1 .08 1.57a18.77 18.77 0 0 1 -.9 5.86z"/><path d="m64.81 43.88c-1.81-2.42-3.68-4.88-5.54-7.26-1.22-1.58-2.46-3.14-3.71-4.7-1.56-1.92-3.12-3.82-4.68-5.73a10.9 10.9 0 0 1 -.77-1l.85.73 4.28 3.8c1 .92 2 1.84 3 2.77l5.26 4.93c.88.84 1.74 1.69 2.61 2.54l3.89 3.83a.73.73 0 0 1 .08.09z"/><path d="m42.51 56.52c.45.6.9 1.2 1.34 1.81a98.18 98.18 0 0 1 6.73 10.4c0 .07.08.14.14.27h-2.58s-.12-.1-.17-.16c-.59-.64-1.17-1.29-1.77-1.9-1.39-1.41-2.79-2.8-4.19-4.19-.53-.52-1.09-1-1.63-1.52 0-1.55 0-3.11 0-4.66a.09.09 0 0 1 0 0z"/><path d="m71.17 31.4c1.15 1.72 2.33 3.43 3.45 5.17a63.91 63.91 0 0 1 3.66 6.64l.08.18-.58.1c-.64-.69-1.26-1.39-1.91-2.07-1.94-2-3.87-4-5.83-5.91-1.26-1.25-2.58-2.46-3.87-3.68l-.44-.42z"/></g><path d="m40.38 61.23c.54.5 1.1 1 1.63 1.52 1.4 1.39 2.8 2.78 4.19 4.19.6.61 1.18 1.26 1.77 1.9.05.06.12.11.17.16h-7.55c-.14 0-.22 0-.22-.19 0-2.5.01-5.04.01-7.58z" fill="#ce6363"/></svg>