<svg id="Layer_1" data-name="Layer 1" xmlns="http://www.w3.org/2000/svg" viewBox="0 0 133.96 78.79"><defs><style>.cls-1{fill:#a83131;}</style></defs><title>yale</title><path class="cls-1" d="M44.47,70.43c0-.11,0-.22,0-.32V55.77h9.08c.18-.45.25-.5.72-.5h.19c.43,0,.56.14.52.58s-.1.69-.16,1.07H45.68c0,.16,0,.3,0,.44V68.84c0,.31.12.44.42.44.13,0,.25,0,.38,0h34c.47,0,.41,0,.41-.39q0-5.69,0-11.35v-.39H71c0-.11,0-.18,0-.26,0-.91,0-1.82,0-2.73a.32.32,0,0,1,.22-.35l.9-.29a6.26,6.26,0,0,1,.09.65c0,.28,0,.57,0,.86a1.62,1.62,0,0,0,.08.49.45.45,0,0,0,.49.35H82c0,.13,0,.24,0,.36l0,13.86c0,.12,0,.23,0,.35Z"/><path class="cls-1" d="M30.93,8.1A3,3,0,0,1,31.44,8H58.31V21.27l-.31,0H55.25c-.34,0-.4.11-.23.41.07.11.13.24.2.38a1.21,1.21,0,0,1-1.4-.24A8.52,8.52,0,0,1,53,20.7c-.14-.21-.26-.44-.4-.69h4.52V9.27h-22c-.88,0-1.77,0-2.65,0-.26,0-.32.09-.32.33q0,5.17,0,10.36a1.93,1.93,0,0,0,0,.23l.29,0,6.67,0a.34.34,0,0,1,.35.17q3.27,5,6.55,9.94l.1.19-.09.07-.78.43-.19-.27c-2-3-4.09-6.06-6.12-9.1a.53.53,0,0,0-.5-.26c-2.51,0-5,0-7.52,0Z"/><path class="cls-1" d="M47.11,67.94V58.16h.35l8.46,0c.24,0,.35-.06.35-.31,0-.44,0-.89,0-1.33s0-.7,0-1c0-.14.05-.23.22-.24a8.86,8.86,0,0,0,4-1.26.7.7,0,0,1,.55-.07,19.72,19.72,0,0,0,8.31.34c0,.11,0,.21,0,.31V57.9c0,.37,0,.37.36.37H79.3c.17,0,.24.08.24.26v9.21a1.68,1.68,0,0,1,0,.2Z"/><path class="cls-1" d="M77.77,37.45c1-.52,1.08-1.59,1.68-2.3a3.16,3.16,0,0,1,1.15,1.78c.09.38.16.77.22,1.15s.16.45.49.48h.16c.22,0,.31.07.3.32A12.55,12.55,0,0,1,80.52,44a18.18,18.18,0,0,1-6.68,7.39,14.29,14.29,0,0,1-5.54,2,14.75,14.75,0,0,1-3.87.17,10.07,10.07,0,0,1-3-.65,1.08,1.08,0,0,0-1.09.09,7.42,7.42,0,0,1-3.1,1.17,7.33,7.33,0,0,1-4.48-.43,6.18,6.18,0,0,1-3.61-4.74,10.63,10.63,0,0,1-.08-3.33,4.68,4.68,0,0,1,.32-1.07.54.54,0,0,0-.06-.56q-2.26-3.43-4.51-6.87c-.51-.79-1-1.6-1.52-2.39a.38.38,0,0,1,0-.42,3.37,3.37,0,0,1,1.31-1.55,13.48,13.48,0,0,1,3.7-1.89c.4-.12.78-.32,1.22-.5l-.19-.18c-.15-.1-.31-.19-.45-.3-.44-.33-.44-.41,0-.74a17.61,17.61,0,0,0,4-4.22c.25-.38.44-.81.68-1.21a.69.69,0,0,1,.29-.27,2,2,0,0,1,1.69.07c.51.25,1,.58,1.48.86s1.16.69,1.76,1a1.53,1.53,0,0,0,1.41,0,9,9,0,0,1,8.4.17,4.14,4.14,0,0,1,1.93,2,3.14,3.14,0,0,0,.49.77,1,1,0,0,0,.84.4,1.53,1.53,0,0,1,1.32.81,1.17,1.17,0,0,1,.17,1.07,6.32,6.32,0,0,0-.18.62c-.07.31.06.48.38.5a1.49,1.49,0,0,0,.47,0A1.91,1.91,0,0,1,76.44,33c.22.64.37,1.3.59,1.94.1.31.29.59.42.89a2.09,2.09,0,0,1,.16.5c0,.2,0,.41,0,.61A3.25,3.25,0,0,0,77.77,37.45ZM58.11,28.3a.43.43,0,0,1-.41.32,8.3,8.3,0,0,0-3.28,1.15A6.3,6.3,0,0,0,52,32.21a5.48,5.48,0,0,0-.77,4,.68.68,0,0,1-.12.69,2.77,2.77,0,0,1-1-1.39,5.56,5.56,0,0,1-.13-3c0-.23.1-.44.15-.69l-.3.06a10.22,10.22,0,0,0-4.11,1.82,2.35,2.35,0,0,0-.43.4.82.82,0,0,0-.08,1.09l4.7,7.29c0,.05.08.1.13.17A9.6,9.6,0,0,1,52,40.79a11.94,11.94,0,0,0,.91-.83,1.77,1.77,0,0,0,.55-.93.63.63,0,0,1,.12-.23c.12-.16.25-.19.39,0a.6.6,0,0,1,.1.68,11,11,0,0,1-.63,1.29c-.41.68-.88,1.34-1.31,2A4.16,4.16,0,0,0,51.6,47a4.29,4.29,0,0,0,2.77,2.57,6.19,6.19,0,0,0,3.78-.15,10.22,10.22,0,0,0,3.26-2.07,22.22,22.22,0,0,0,3.1-3.6A26.11,26.11,0,0,1,67.68,40a3.59,3.59,0,0,1,1.94-1.1,9.1,9.1,0,0,1,1.28-.13c.73,0,1.46,0,2.19,0a6.39,6.39,0,0,0,1.24-.17A2.63,2.63,0,0,0,76.05,35a1.15,1.15,0,0,0-.69-.69,4.2,4.2,0,0,0-3.55.08c-1.06.5-2.07,1.12-3.09,1.7A9,9,0,0,1,66,37.25a1.67,1.67,0,0,1-1.39-.16c.41-.18.74-.35,1.09-.49a3.13,3.13,0,0,0,1.43-1.21,1.44,1.44,0,0,0,.23-1.07c0-.13-.06-.2-.22-.21-.5,0-1-.06-1.49-.1s-1-.08-1.34-.62a3.4,3.4,0,0,1-.36-.88,1.2,1.2,0,0,1,.06-.8,4.32,4.32,0,0,1,.84-.81.4.4,0,0,1,.22-.06l2.33.1,4.06.18a.52.52,0,0,0,.33-.12A.94.94,0,0,0,72,29.86a.84.84,0,0,0-.47-.34c-.44-.09-.88-.12-1.33-.17-1-.11-2-.21-3-.33a.34.34,0,0,1-.25-.2c0-.06.06-.2.13-.26s.28-.11.4-.2a3,3,0,0,0,.68-.54.87.87,0,0,0-.06-1.21,3,3,0,0,0-1.18-.85,4.39,4.39,0,0,0-1.85-.36c-.84,0-1.67.12-2.51.16a6.7,6.7,0,0,0-2.29.65c-.24.11-.48.19-.73.28A1.58,1.58,0,0,1,58,26.3c-.52-.37-1-.74-1.58-1.05a16.29,16.29,0,0,0-1.53-.7.33.33,0,0,0-.42.1A49.76,49.76,0,0,1,50.72,29a1.54,1.54,0,0,0,1,.47,1.94,1.94,0,0,0,1.86-.44c.32-.33.64-.65.92-1s.71-.94,1.06-1.42A7.64,7.64,0,0,1,58.11,28.3Zm6.63,21.47,1.06.33a9,9,0,0,0,6.54-.32,13.63,13.63,0,0,0,7-7.46,10.76,10.76,0,0,0,.74-3h-.2c-.53,0-1.07.06-1.6.05-1.67,0-3.34-.07-5-.06a7,7,0,0,0-3.15.73A4.54,4.54,0,0,0,68,42.11c-.53,1.07-1.1,2.12-1.65,3.18a36.5,36.5,0,0,1-4,6.4s0,.07-.08.16A7.12,7.12,0,0,0,64.74,49.77ZM69.91,32l-.23,0c-.65,0-1.31,0-2-.09a1.54,1.54,0,0,0-1,.33.35.35,0,0,0-.1.53,1,1,0,0,0,1.39.46,4.71,4.71,0,0,0,.62-.35Zm9.76,6.31c-.09-.6.15-1.21-.2-1.81-.26.35-.48.68-.75,1s-.57.56-.86.85A3.28,3.28,0,0,0,79.67,38.32Zm-6.52-5.89a1,1,0,0,0-1.27.78C72.69,33.3,73,33.12,73.15,32.43Zm-3.89,1a3.34,3.34,0,0,0,2.24-1.19A9.64,9.64,0,0,0,69.26,33.4Zm-3.55-.27A1.75,1.75,0,0,1,66,31.79c-.45.14-.44.49-.5.78A.57.57,0,0,0,65.71,33.13Z"/><path class="cls-1" d="M75,18.89H69.19c-.39,0-.39,0-.39-.37V11c0-.41.07-.48.48-.48h23v8.26H86.22a.5.5,0,0,0-.46.24L77.32,31.41l-.19.27c-.35-.78-1-.83-1.73-.89L75,30.74c-.72-.1-1-.45-.79-1.15a.72.72,0,0,0-.2-.76,4.22,4.22,0,0,0-1.79-1.18.44.44,0,0,1-.17-.07A3.53,3.53,0,0,1,71,26a.7.7,0,0,1,.08-.47c1.18-2,2.37-4,3.55-6C74.73,19.38,74.85,19.16,75,18.89Z"/><path class="cls-1" d="M55.78,10.51c0,.12,0,.22,0,.31,0,2.55,0,5.09,0,7.63,0,.29-.09.34-.35.34h-5a2.21,2.21,0,0,0,.07.32c.31.6.61,1.21,1,1.79s.7,1.11,1.07,1.66a.52.52,0,0,1,0,.5,10,10,0,0,1-2.48,3.67A16.11,16.11,0,0,1,47.27,29l-.19.12c-.3-.43-.59-.85-.87-1.27L40.16,19a.5.5,0,0,0-.48-.25h-6c-.2,0-.25-.06-.25-.26,0-2.54,0-5.08,0-7.62,0-.27.17-.33.36-.38a1,1,0,0,1,.24,0H55.78Z"/><path class="cls-1" d="M66.14,8H95V21.28H94.7c-2.38,0-4.75,0-7.12,0a.52.52,0,0,0-.5.27L78.42,34.34l-.18.25A1.18,1.18,0,0,1,78,32.9q4.27-6.3,8.55-12.6a.39.39,0,0,1,.38-.19h6.45c.41,0,.41,0,.41-.4V9.64c0-.11,0-.22,0-.36H67.51V20.11h5.16a1.59,1.59,0,0,1-.12.4c-.6,1-1.22,2-1.83,3-.24.38-.47.77-.72,1.15a.27.27,0,0,1-.25.1,2.26,2.26,0,0,1-.57-.14c-.34-.14-.4-.35-.2-.66.46-.72.92-1.44,1.37-2.17.06-.09.14-.29.11-.31a.71.71,0,0,0-.39-.16H66.62a.4.4,0,0,1-.46-.45l0-12.63C66.13,8.16,66.14,8.1,66.14,8Z"/><path class="cls-1" d="M64.58,29.72l-.19.16a2.94,2.94,0,0,0-1.12,2.74.74.74,0,0,0,.16.32c.18.25.38.49.56.73l0,.07a1.66,1.66,0,0,1-.5,0A2.72,2.72,0,0,1,61.61,32a1,1,0,0,1,0-.69,2.83,2.83,0,0,1,2.22-1.64,3.91,3.91,0,0,1,.68-.06Z"/></svg>