<svg enable-background="new 0 0 133.9646606 78.7948227" viewBox="0 0 133.9646606 78.7948227" xmlns="http://www.w3.org/2000/svg"><g fill="#3e54a3"><path d="m44.4726257 70.4259949c-.005455-.1066055-.0156593-.2132111-.0156784-.3198166-.0007935-4.6575394-.0006828-9.3150749-.0006828-13.9726143 0-.1138687 0-.2277412 0-.3637047h9.0858536c.1733093-.4459114.2476387-.4958572.7214394-.5005836.0624466-.0006256.1249123.0002594.1873665.0007553.4326172.0034256.5638657.1409836.5174332.5844307-.0360031.3438416-.100235.6847267-.1570358 1.0608063-3.0104752 0-6.0554962 0-9.1305466 0-.0130844.1652565-.0336456.304306-.0337105.4433632-.0017509 3.8277473-.0015831 7.6554985-.0011139 11.483242.0000381.3128204.1219673.4369965.4285812.4417267.1248856.001915.2498245.0004654.3747406.0004654 11.2958679.0000076 22.5917358.0000076 33.8876038.0000076.0446091 0 .0892258.0002213.1338348-.0000305.4666443-.0026703.4067841.0272141.4060974-.397583-.0060654-3.7831268-.0140686-7.566246-.0214691-11.3493652-.0002213-.1151314-.0000229-.2302628-.0000229-.3827286-3.3082504 0-6.5949173 0-9.9049759 0-.0099335-.110878-.0226746-.186718-.0226135-.2625504.0006714-.9100914.0086975-1.8202286.0006714-2.7302322-.0015945-.1808205.0585632-.292942.2187805-.3474846.2833786-.0964546.5702591-.1825981.9075241-.2894897.032959.247448.0743561.4457512.0823822.6453896.0114365.2849007-.0114365.5711632-.0003815.8560982.006485.1671486.0313263.3389091.081955.4977379.0729218.2287445.2147293.3480835.492691.3470688 2.9533005-.0108299 5.906662-.0067177 8.8600082-.0067177.1148834 0 .2297668-.0000038.3764572-.0000038.0058823.1280556.0153122.2396355.0155182.351223.0082779 4.6218376.0155869 9.2436714.0241241 13.8655052.0002136.1150436.0129242.2300568.0198059.3450851-12.5115508-.0000001-25.0230941-.0000001-37.5346374-.0000001z"/><path d="m30.9258862 8.1002913c.1715546-.0330734.3430958-.0949945.5146694-.0950851 8.8421249-.004696 17.6842499-.0041362 26.5263786-.0041362h.3428116v13.2721519c-.1005478.0053883-.2038002.015583-.3070641.0157299-.9189377.001318-1.837883-.0004864-2.7568207.0016289-.3387871.0007801-.3940048.1070576-.2245483.4046383.0676613.1188259.1236992.2442684.1965218.3896313-.5502357.1890907-1.0360489.1506615-1.4023285-.2423725-.3178291-.3410378-.5623474-.7520943-.826149-1.1411018-.1419754-.2093678-.2563934-.4374275-.403019-.6912918h4.5188751c0-3.5807571 0-7.1366596 0-10.7361889-.0964584 0-.1996651.0000572-.3028679-.0000086-7.2271271-.0045891-14.4542542-.0091124-21.6813812-.0138874-.8833046-.0005836-1.7667694.0063753-2.6498146-.0094023-.2564583-.0045824-.3189735.0912399-.3186417.3268499.0048523 3.4529724.0032578 6.9059553.003891 10.3589334.0000114.0700417.0083008.1400814.0143661.2360115.1035118.0061512.1986732.0164471.2938728.0167866 2.2216148.0079231 4.4432335.0159283 6.6648598.0192738.1525192.0002289.2606506.0244637.3543282.167141 2.1774902 3.3164864 4.3603783 6.6294346 6.5416489 9.9434414.0383949.0583401.0692291.1216621.1070976.1888847-.0343552.027792-.0587807.0541725-.0886574.0706787-.2569962.1419716-.5149765.2821579-.7884483.4314995-.065712-.0945206-.12677-.1800137-.1854553-.2671089-2.0429993-3.0319767-4.0876617-6.0628357-6.1241531-9.0991745-.130043-.1938896-.2657547-.2635937-.4981422-.2630005-2.5072594.0064144-5.0145493.0008106-7.5218296-.0015068 0-4.4263382 0-8.8526764 0-13.2790155z"/><path d="m47.1149826 67.9401245c0-3.2541046 0-6.4976273 0-9.7760811.1231804 0 .2359314-.0000763.3486824.0000114 2.8199844.0021439 5.6399765.0014687 8.4599304.0116539.235054.0008469.3423691-.0569229.3456039-.3023453.0058708-.4454689.0269814-.8908081.0459557-1.3360176.0148048-.3473053.0350494-.694397.0548744-1.0414658.0077782-.1361351.0452347-.229229.2181435-.2353973 1.4533463-.0518532 2.765049-.5649033 4.017971-1.2580795.1821098-.10075.3458824-.1259041.5555267-.0733032 2.7332039.6858025 5.4911613.8393936 8.310009.3451233.0052948.1082611.0144348.209301.0145264.3103523.0010376 1.1065826.0005264 2.2131653.0007477 3.3197479.0000687.3651581.0004807.3684311.3607407.3685493 3.0609512.0009995 6.1218948.0007019 9.1828461.0008659.0892334.0000076.1784744.0019455.2677002.0011253.1761322-.0016174.2446136.0725861.2443008.2598152-.0051498 3.0698624-.0036011 6.1397362-.0042801 9.2096138-.0000153.0601807-.0087128.1203613-.0145416.1958313-10.8074951.0000002-21.6002579.0000002-32.4087372.0000002z"/><path d="m77.7666092 37.445961c.9650574-.5208778 1.0842361-1.5826721 1.6825867-2.2985497.6147003.4626198.9624557 1.0745964 1.1466522 1.7818527.0985413.3783607.1608582.767128.2219009 1.1539764.0517197.327713.1619263.449173.4927673.4799423.0531998.0049477.107048.0065727.1604538.0049934.220314-.0065117.3090286.0749054.3005066.3179092-.0624313 1.7807579-.4816971 3.4728966-1.2469711 5.0780525-1.4903946 3.1260834-3.8103104 5.4990044-6.6823807 7.3811607-1.6936188 1.1098709-3.5822372 1.6481133-5.5435486 1.987114-1.2787018.2210197-2.5682678.2859879-3.8651352.1722679-1.0179634-.0892601-2.0139885-.2796402-2.9642029-.6568222-.3964462-.1573677-.756916-.1420631-1.0891991.0967178-.9306984.6688156-1.9991379.9695091-3.1008224 1.1643028-1.5289078.2703362-3.0433311.2377014-4.4817924-.4266014-2.0335083-.9391098-3.1909523-2.5598221-3.6049385-4.7380295-.2100449-1.1051483-.2208672-2.2192497-.0863495-3.3304214.0442047-.3651314.1905861-.7222862.3227234-1.0707741.0810318-.2136917.066658-.3737679-.0600777-.5659752-1.5068054-2.2852707-3.0083923-4.5740051-4.5047073-6.8661575-.5165787-.7913284-1.0111237-1.5970116-1.524559-2.3904305-.0945663-.1461296-.0956535-.2688332-.0314484-.421875.2752609-.6561012.7315712-1.1672707 1.3131294-1.5510445 1.1602592-.7656631 2.3395042-1.4974403 3.6969757-1.8870792.4052505-.1163216.785553-.3195572 1.22229-.5017471-.097683-.0904312-.1418304-.141243-.1952667-.1788597-.1457825-.1026154-.3002701-.1932812-.442749-.3000965-.4439659-.3328304-.442482-.4124126-.0218887-.7426624 1.5446739-1.2128716 2.9631195-2.5488968 4.0348434-4.2128372.2502251-.3885021.4452133-.8122196.6825142-1.2096443.0669594-.1121349.1782341-.2278919.2959175-.2745457.5678825-.2251244 1.1486969-.200964 1.6873894.0676155.5083008.2534313.9805756.5783424 1.4740028.8625984.5856171.3373623 1.1659012.6868305 1.7693558.9894657.452198.2267799.9001656.2177505 1.4029846-.0048447 2.8171272-1.2471352 5.6313744-1.368412 8.3989449.1686707.8524246.4734249 1.5531311 1.0944805 1.9350204 2.0301266.1122818.275095.3004761.5260658.4865799.7623386.2069168.2627048.5017395.4200344.8386307.4068508.6313477-.0247059.9987411.3575249 1.3227081.8100071.2308273.3223915.288559.6830463.166008 1.0682392-.0647583.2035236-.1280365.4084911-.1741028.6167622-.0690842.3123589.0544052.4798012.3752747.5044708.1581345.0121574.3257675.0162067.4774704-.0221329 1.0685806-.2700615 2.0268478.2159023 2.3850174 1.2569294.2198639.6390381.3710556 1.3015747.586586 1.9422913.1037292.3083534.2934494.586834.4276123.8862915.0710144.1584892.1299057.3299179.1518021.500946.0258484.2018776-.0133209.4119759.0114212.6141434.0214767.1755107.0927734.3449366.1500702.5450938zm-19.6559181-9.1439877c-.0801849.1948357-.182682.2964725-.4106216.317625-1.1851883.1099949-2.2620811.5821056-3.2773552 1.1513062-1.0173073.570343-1.818779 1.414526-2.3883209 2.4395103-.6882973 1.2387123-1.1109543 2.5420036-.7725792 3.9892845.0540962.2313766.076149.4802284-.1240425.6936111-.5036011-.349041-.8302078-.8273354-1.0350342-1.3923378-.357605-.9864235-.331543-1.9927902-.1332932-3.0048904.0433426-.2212791.0974541-.4404488.1521301-.6853409-.1271439.0249023-.213974.0387859-.2992783.059082-1.4844131.3531876-2.901165.8605385-4.1153755 1.8225784-.1529503.1211853-.3063202.248394-.4319191.3962402-.3035927.3573761-.325161.7043076-.0727654 1.0962982 1.5634766 2.4281807 3.1300163 4.8543854 4.696209 7.2808151.0353928.0548325.0786819.1045723.1352043.1789513.5176048-.773983 1.2456284-1.2829933 1.9202995-1.8501778.313549-.2635956.6114388-.5473213.901577-.8368073.2600441-.2594643.4797325-.5497627.558754-.9244995.0177002-.0839348.0614815-.1687279.1135826-.2377853.1197433-.1587067.2510796-.1813469.3933334-.0142097.1754227.2061081.2071342.4392509.102005.6741142-.1959724.4378128-.3817406.8852119-.6291962 1.2938385-.4152298.6856689-.8790474 1.3417511-1.3159943 2.0144653-.8676224 1.3357506-1.1768456 2.7326317-.4777565 4.249691.5710983 1.2393112 1.415802 2.1974754 2.7655258 2.5676994 1.2667694.3474731 2.5404739.2847328 3.7879105-.1517448 1.2451935-.4356918 2.2718163-1.219574 3.2514305-2.0679779 1.2091904-1.0472221 2.1584892-2.3235893 3.1016464-3.6026726.9796295-1.328537 1.9515991-2.6624069 3.1698456-3.7926979.5639648-.5232544 1.1611481-.9818611 1.9456635-1.1005516.4218826-.0638237.8490601-.1129646 1.2750549-.1246834.7311401-.0201073 1.4638977.0128937 2.1946716-.0130196.4154053-.0147285.8373718-.0647392 1.2406387-.1632767 1.7865524-.4365501 2.1714706-2.256588 1.7196732-3.5697708-.1134033-.3296165-.3564529-.5581131-.6940155-.6984177-1.1990356-.4983711-2.4042053-.4678574-3.5516586.0807762-1.0577774.5057564-2.0632553 1.1225433-3.0828934 1.7059479-.8685226.4969444-1.745636.9677887-2.7390366 1.1663246-.4424438.0884285-.8885727.1741638-1.3914108-.1567001.4037781-.1853943.7402344-.3568459 1.0894165-.49646.6119995-.244709 1.0697479-.6654015 1.4277649-1.2039452.2158051-.3246155.2861557-.6869125.2296524-1.0735817-.0187836-.1284637-.0633774-.198082-.2188568-.2053452-.4974442-.0232391-.9947586-.0593567-1.4904251-.1078033-.5144272-.0502853-1.0548401-.0797234-1.3421021-.6108475-.1502914-.2778702-.2935982-.5749435-.3554688-.8804741-.0523376-.2584648-.0753555-.6018505.0537834-.8000679.2075539-.3185635.5477715-.5523682.8407173-.8120728.0526505-.0466766.1484299-.0660877.2230148-.0633507.7755127.0284557 1.5508499.0621471 2.3260651.0980339 1.3543015.0626907 2.7083511.1311188 4.0629501.1861.1081619.0043888.2434311-.0499859.325592-.1227722.3066406-.2716293.4067535-.8001728.1848755-1.144659-.098465-.1528721-.2963181-.2969933-.4723053-.333744-.4343033-.0906887-.8817749-.1193886-1.3244324-.1687298-.9915771-.110527-1.9840088-.2138176-2.9742889-.3348656-.095108-.0116253-.2168961-.1114063-.2521896-.1998386-.024147-.0605202.0593262-.2010498.1322708-.2548351.1190414-.0877781.2811127-.1162968.402916-.2014465.2367249-.1654854.5024719-.3180046.6762085-.538826.3191223-.4055882.2753906-.8234692-.0566864-1.21451-.32341-.3808517-.7222824-.6574154-1.1817474-.8526707-.5924301-.2517567-1.2191162-.3648586-1.8514938-.3521919-.8360977.0167465-1.6701889.1159592-2.5062065.1593304-.8178291.0424309-1.5618858.3227081-2.2968369.650034-.2350998.1047058-.4791641.191288-.72369.2724018-.5418587.1797409-1.0550804.1720219-1.5455704-.1838264-.5118332-.3713303-1.0314903-.7384567-1.5800667-1.0505848-.4831505-.2749023-1.0074501-.4795799-1.5212517-.6971588-.1421928-.0602112-.2912788-.0604954-.4252663.1004047-1.2205086 1.46562-2.3342972 3.0222549-3.7265854 4.3608589.2594681.2945156.5852852.4191685.9436836.4759388.6812897.107914 1.3392372.0981541 1.8638115-.4424934.3161087-.3257961.6370964-.6499481.9217377-1.0024185.3684731-.4562893.7028961-.940073 1.0536308-1.4142494 1.0185016.356581 1.8442577.963465 2.604771 1.670069zm6.6315193 21.4716244c.3604965.1136513.7053528.2310982 1.0551529.3312263 2.2169418.6345901 4.3998871.6797638 6.5411148-.3272705 3.3220291-1.5623779 5.612999-4.0844727 6.9934616-7.458828.3883133-.9491959.6324844-1.9397545.7354355-2.981514-.0760651-.0038719-.1358109-.0113182-.1952286-.0092545-.5343399.0185852-1.0688095.0595818-1.6028976.0547485-1.6671906-.0150833-3.3344574-.075882-5.0012589-.0627441-1.0930405.0086174-2.1607819.2290764-3.1479645.729332-.9251938.4688454-1.6911926 1.1023064-2.1642685 2.0623932-.5272827 1.070076-1.0964279 2.1195145-1.6466904 3.1782799-1.1642303 2.2401352-2.3901215 4.4417076-3.9981194 6.404892-.0223427.0272751-.0331154.0640297-.0791626.1560631 1.0824968-.473587 1.804844-1.2722587 2.5104257-2.0773239zm5.1673279-17.7661362c-.0719147-.0083675-.1485748-.0220909-.2256851-.0255013-.6579285-.0291157-1.3176193-.0363693-1.9733124-.0915318-.403717-.0339661-.7259293.1121311-1.03685.3250065-.2036209.1394119-.2331161.3146973-.1072617.53302.305687.5303001.8336487.7143555 1.3924637.4655151.2176514-.0969162.4204788-.2296791.6231995-.3570175.4413376-.2772177.878273-.5614393 1.327446-.849491zm9.7610931 6.3122712c-.0898514-.5955429.1536331-1.2114677-.1961823-1.8065529-.263382.3443985-.4885254.675293-.7516251.9726143-.2662048.3008347-.5699615.5684357-.8586426.851944.53434.166027 1.2042543.1636199 1.80645-.0180054zm-6.5241394-5.893982c-.5284958-.2158165-1.1910553.2024422-1.2657318.7812767.8117828.0908738 1.1044769-.0870819 1.2657318-.7812767zm-3.8859711.9749222c.9453735-.0162125 1.6041794-.5797729 2.2404022-1.1860962-.7695465.3489304-1.5709762.6363106-2.2404022 1.1860962zm-3.550148-.2740288c-.1553345-.4764595.0418015-.8852425.2571564-1.3396931-.4518204.1424618-.4423981.4903431-.4969711.7784138-.0403748.2131005.0456695.4158974.2398147.5612793z"/><path d="m74.9968262 18.8941269c-.1567001 0-.2529907.0000763-.3492813-.0000114-1.8201675-.0016613-3.6403351-.0028439-5.4605103-.0054207-.382988-.0005417-.3832092-.002903-.3832169-.3735695-.0000687-2.5072269-.0001144-5.0144558.0000458-7.5216827.0000229-.4165573.0644608-.4813108.4786301-.4813156 7.5752182-.0000868 15.1504364-.0000629 22.7256546-.000062h.3055115v8.2551813c-.1131973.0049648-.226799.0140133-.340416.0143261-1.9182816.0053082-3.8365707.0126762-5.754837.0095005-.2100449-.0003471-.3341293.0641956-.4540482.2403164-2.8106079 4.1278419-5.6279221 8.2511196-8.4442062 12.3751011-.0549088.0804081-.1122742.1591339-.1933975.2738495-.3418274-.7783527-1.0368347-.8255405-1.7246552-.8892212-.1420059-.0131474-.2834167-.033062-.4248428-.0518074-.712532-.0944443-.9749908-.4463539-.7870865-1.1478653.0866852-.323597.0057449-.5362606-.2039185-.7621269-.5013275-.5400639-1.0807953-.9535961-1.7874603-1.1787186-.0585403-.018652-.1303101-.0291023-.1697998-.0691395-.4530334-.4593506-.8909988-.9351749-1.0445328-1.5856018-.0340195-.1441078-.000206-.3403282.0759888-.4689465 1.1767197-1.9864063 2.3661194-3.9652939 3.5509109-5.9469299.1225434-.2049656.2343903-.4163266.3854676-.6858559z"/><path d="m55.7842674 10.5120659c.0056.1202669.0139503.2163057.0139771.3123465.0007133 2.5428553-.0044708 5.0857344.0076447 7.6285315.0013504.282999-.0878029.3361187-.3476906.3348999-1.5791397-.0074005-3.1583595.0022678-4.7375526.0061951-.0793877.0001984-.1587753.0000267-.2772102.0000267.0247459.1208439.0242386.2299538.0684166.316164.3077011.6004295.604763 1.2077141.944313 1.7900181.3319016.5691891.7076492 1.1129932 1.0696297 1.6643429.1071472.1632061.1096573.3139343.0434074.4979897-.5163078 1.4344292-1.4164314 2.608717-2.4786072 3.6717892-.8542557.8549767-1.8012466 1.5966759-2.8176575 2.2499313-.0585098.0376015-.1212349.0686417-.1965561.1109047-.2941856-.4274845-.5815697-.8453064-.869175-1.2629738-2.0179672-2.930521-4.0377884-5.8597679-6.0496597-8.794466-.1262016-.1840878-.2571678-.2493248-.4780617-.2488632-1.9894943.0041637-3.979023-.0071831-5.9685249-.0042381-.2057877.0003033-.2536049-.0646496-.2523804-.2602673.0159073-2.5427933.0268288-5.0856342.0299759-7.6284733.0003242-.2640181.1664848-.3265457.3575401-.3786917.0748863-.0204401.1596947-.0050888.2399864-.0050898 7.10215-.0000849 14.2042961-.0000772 21.3064499-.0000763.1233788-.0000001.2467614-.0000001.3917351-.0000001z"/><path d="m66.1425629 8.0180941h28.8930588v13.2610579c-.1309891 0-.2347488-.000248-.3385239.0000362-2.3736343.0064983-4.7472763.0160046-7.1209183.0148926-.2292938-.0001087-.3668442.0665016-.4990845.2622242-2.8810196 4.2639713-5.7700958 8.522501-8.6579132 12.7818794-.0584641.0862312-.1204529.1700821-.1819.2565918-.5704117-.5043602-.662262-1.0960579-.2533417-1.6989479 2.8485947-4.1997414 5.7018051-8.3963528 8.5491562-12.5969372.0978241-.1443214.2032166-.1905098.3727798-.1900787 2.15065.0054798 4.3013153.0037651 6.451973.0034351.4137039-.0000648.414093-.0009556.4141083-.4028111.0001068-3.3553848.000206-6.7107687-.0005875-10.0661526-.0000305-.1134529-.0095215-.2269039-.0155411-.361105-8.7580109 0-17.4916458 0-26.2483978 0v10.8243656h5.1591492c-.0446625.1657066-.0515137.3020954-.1137772.4049435-.6045609.9986534-1.2179184 1.9919968-1.8298645 2.9861717-.2383347.3871822-.4732513.7767868-.7254181 1.1548195-.0425568.0638008-.1705246.1129494-.2495041.1017361-.1920242-.0272579-.385994-.07551-.5655136-.1487923-.3397293-.138689-.3989334-.3438225-.2026596-.6548405.4568405-.7238922.9205704-1.4434528 1.3746109-2.1690807.0596695-.0953617.136322-.2884083.1066895-.3118591-.1063766-.0841923-.2545624-.1579151-.3877258-.1592674-1.151062-.0117092-2.3022919-.0064087-3.453476-.0070019-.3038788-.0001564-.4567337-.1458702-.4576797-.450613-.0131149-4.2120533-.0245438-8.4241114-.0356064-12.6361694-.0001602-.0607472.0094909-.1215201.0159073-.1984968z"/><path d="m64.5842133 29.7160969c-.0661392.0543957-.1328583.108099-.1983261.1632881-.8521805.718401-1.2425499 1.6279011-1.1167946 2.7417126.0125885.1114655.0934334.2226181.1634178.3187637.1809616.2486.3735695.4887238.5615234.7322311-.0130768.0230904-.0261536.0461845-.0392265.0692749-.1698074 0-.3518829.0404625-.5073967-.0066833-.888546-.2693977-1.5117455-.8525124-1.8409653-1.7130241-.0754051-.1970978-.0334702-.4862118.053894-.6904392.4153442-.9708939 1.2286453-1.4380779 2.2186775-1.6439953.2232323-.0464268.456974-.0423203.6858788-.0614758.0064392.0301151.0128784.0602302.0193177.0903473z"/></g></svg>