<svg viewBox="0 0 133.96 78.79" xmlns="http://www.w3.org/2000/svg"><g fill="#a83131"><path d="m44.47 70.43c0-.11 0-.22 0-.32v-14.34h9.08c.18-.45.25-.5.72-.5h.19c.43 0 .56.14.52.58s-.1.69-.16 1.07h-9.14v.44 11.48c0 .31.12.44.42.44h.38 34c.47 0 .41 0 .41-.39q0-5.69 0-11.35v-.39h-9.89c0-.11 0-.18 0-.26 0-.91 0-1.82 0-2.73a.32.32 0 0 1 .22-.35l.9-.29a6.26 6.26 0 0 1 .09.65v.86a1.62 1.62 0 0 0 .08.49.45.45 0 0 0 .49.35h9.22v.36 13.86.35z"/><path d="m30.93 8.1a3 3 0 0 1 .51-.1h26.87v13.27h-.31-2.75c-.34 0-.4.11-.23.41.07.11.13.24.2.38a1.21 1.21 0 0 1 -1.4-.24 8.52 8.52 0 0 1 -.82-1.12c-.14-.21-.26-.44-.4-.69h4.52v-10.74h-22c-.88 0-1.77 0-2.65 0-.26 0-.32.09-.32.33q0 5.17 0 10.36a1.93 1.93 0 0 0 0 .23h.29 6.67a.34.34 0 0 1 .35.17q3.27 5 6.55 9.94l.1.19-.09.07-.78.43-.19-.27c-2-3-4.09-6.06-6.12-9.1a.53.53 0 0 0 -.5-.26c-2.51 0-5 0-7.52 0z"/><path d="m47.11 67.94v-9.78h.35 8.46c.24 0 .35-.06.35-.31 0-.44 0-.89 0-1.33s0-.7 0-1c0-.14.05-.23.22-.24a8.86 8.86 0 0 0 4-1.26.7.7 0 0 1 .55-.07 19.72 19.72 0 0 0 8.31.34v.31 3.3c0 .37 0 .37.36.37h9.59c.17 0 .24.08.24.26v9.21a1.68 1.68 0 0 1 0 .2z"/><path d="m77.77 37.45c1-.52 1.08-1.59 1.68-2.3a3.16 3.16 0 0 1 1.15 1.78c.09.38.16.77.22 1.15s.16.45.49.48h.16c.22 0 .31.07.3.32a12.55 12.55 0 0 1 -1.25 5.12 18.18 18.18 0 0 1 -6.68 7.39 14.29 14.29 0 0 1 -5.54 2 14.75 14.75 0 0 1 -3.87.17 10.07 10.07 0 0 1 -3-.65 1.08 1.08 0 0 0 -1.09.09 7.42 7.42 0 0 1 -3.1 1.17 7.33 7.33 0 0 1 -4.48-.43 6.18 6.18 0 0 1 -3.61-4.74 10.63 10.63 0 0 1 -.08-3.33 4.68 4.68 0 0 1 .32-1.07.54.54 0 0 0 -.06-.56q-2.26-3.43-4.51-6.87c-.51-.79-1-1.6-1.52-2.39a.38.38 0 0 1 0-.42 3.37 3.37 0 0 1 1.31-1.55 13.48 13.48 0 0 1 3.7-1.89c.4-.12.78-.32 1.22-.5l-.19-.18c-.15-.1-.31-.19-.45-.3-.44-.33-.44-.41 0-.74a17.61 17.61 0 0 0 4-4.22c.25-.38.44-.81.68-1.21a.69.69 0 0 1 .29-.27 2 2 0 0 1 1.69.07c.51.25 1 .58 1.48.86s1.16.69 1.76 1a1.53 1.53 0 0 0 1.41 0 9 9 0 0 1 8.4.17 4.14 4.14 0 0 1 1.93 2 3.14 3.14 0 0 0 .49.77 1 1 0 0 0 .84.4 1.53 1.53 0 0 1 1.32.81 1.17 1.17 0 0 1 .17 1.07 6.32 6.32 0 0 0 -.18.62c-.07.31.06.48.38.5a1.49 1.49 0 0 0 .47 0 1.91 1.91 0 0 1 2.42 1.23c.22.64.37 1.3.59 1.94.1.31.29.59.42.89a2.09 2.09 0 0 1 .16.5v.61a3.25 3.25 0 0 0 .16.51zm-19.66-9.15a.43.43 0 0 1 -.41.32 8.3 8.3 0 0 0 -3.28 1.15 6.3 6.3 0 0 0 -2.42 2.44 5.48 5.48 0 0 0 -.77 4 .68.68 0 0 1 -.12.69 2.77 2.77 0 0 1 -1-1.39 5.56 5.56 0 0 1 -.13-3c0-.23.1-.44.15-.69l-.3.06a10.22 10.22 0 0 0 -4.11 1.82 2.35 2.35 0 0 0 -.43.4.82.82 0 0 0 -.08 1.09l4.7 7.29c0 .05.08.1.13.17a9.6 9.6 0 0 1 1.96-1.86 11.94 11.94 0 0 0 .91-.83 1.77 1.77 0 0 0 .55-.93.63.63 0 0 1 .12-.23c.12-.16.25-.19.39 0a.6.6 0 0 1 .1.68 11 11 0 0 1 -.63 1.29c-.41.68-.88 1.34-1.31 2a4.16 4.16 0 0 0 -.53 4.23 4.29 4.29 0 0 0 2.77 2.57 6.19 6.19 0 0 0 3.78-.15 10.22 10.22 0 0 0 3.26-2.07 22.22 22.22 0 0 0 3.1-3.6 26.11 26.11 0 0 1 3.17-3.75 3.59 3.59 0 0 1 1.94-1.1 9.1 9.1 0 0 1 1.28-.13h2.19a6.39 6.39 0 0 0 1.24-.17 2.63 2.63 0 0 0 1.72-3.6 1.15 1.15 0 0 0 -.69-.69 4.2 4.2 0 0 0 -3.55.08c-1.06.5-2.07 1.12-3.09 1.7a9 9 0 0 1 -2.72 1.16 1.67 1.67 0 0 1 -1.39-.16c.41-.18.74-.35 1.09-.49a3.13 3.13 0 0 0 1.43-1.21 1.44 1.44 0 0 0 .23-1.07c0-.13-.06-.2-.22-.21-.5 0-1-.06-1.49-.1s-1-.08-1.34-.62a3.4 3.4 0 0 1 -.36-.88 1.2 1.2 0 0 1 .06-.8 4.32 4.32 0 0 1 .84-.81.4.4 0 0 1 .22-.06l2.33.1 4.06.18a.52.52 0 0 0 .33-.12.94.94 0 0 0 .21-1.14.84.84 0 0 0 -.47-.34c-.44-.09-.88-.12-1.33-.17-1-.11-2-.21-3-.33a.34.34 0 0 1 -.25-.2c0-.06.06-.2.13-.26s.28-.11.4-.2a3 3 0 0 0 .68-.54.87.87 0 0 0 -.06-1.21 3 3 0 0 0 -1.18-.85 4.39 4.39 0 0 0 -1.85-.36c-.84 0-1.67.12-2.51.16a6.7 6.7 0 0 0 -2.29.65c-.24.11-.48.19-.73.28a1.58 1.58 0 0 1 -1.54-.19c-.52-.37-1-.74-1.58-1.05a16.29 16.29 0 0 0 -1.53-.7.33.33 0 0 0 -.42.1 49.76 49.76 0 0 1 -3.75 4.35 1.54 1.54 0 0 0 1 .47 1.94 1.94 0 0 0 1.86-.44c.32-.33.64-.65.92-1s.71-.94 1.06-1.42a7.64 7.64 0 0 1 2.55 1.69zm6.63 21.47 1.06.33a9 9 0 0 0 6.54-.32 13.63 13.63 0 0 0 7-7.46 10.76 10.76 0 0 0 .74-3h-.2c-.53 0-1.07.06-1.6.05-1.67 0-3.34-.07-5-.06a7 7 0 0 0 -3.15.73 4.54 4.54 0 0 0 -2.13 2.07c-.53 1.07-1.1 2.12-1.65 3.18a36.5 36.5 0 0 1 -4 6.4s0 .07-.08.16a7.12 7.12 0 0 0 2.47-2.08zm5.17-17.77h-.23c-.65 0-1.31 0-2-.09a1.54 1.54 0 0 0 -1 .33.35.35 0 0 0 -.1.53 1 1 0 0 0 1.39.46 4.71 4.71 0 0 0 .62-.35zm9.76 6.31c-.09-.6.15-1.21-.2-1.81-.26.35-.48.68-.75 1s-.57.56-.86.85a3.28 3.28 0 0 0 1.81-.03zm-6.52-5.89a1 1 0 0 0 -1.27.78c.81.1 1.12-.08 1.27-.77zm-3.89 1a3.34 3.34 0 0 0 2.24-1.19 9.64 9.64 0 0 0 -2.24 1.17zm-3.55-.27a1.75 1.75 0 0 1 .29-1.36c-.45.14-.44.49-.5.78a.57.57 0 0 0 .21.56z"/><path d="m75 18.89h-5.81c-.39 0-.39 0-.39-.37v-7.52c0-.41.07-.48.48-.48h23v8.26h-6.06a.5.5 0 0 0 -.46.24l-8.44 12.39-.19.27c-.35-.78-1-.83-1.73-.89l-.4-.05c-.72-.1-1-.45-.79-1.15a.72.72 0 0 0 -.2-.76 4.22 4.22 0 0 0 -1.79-1.18.44.44 0 0 1 -.17-.07 3.53 3.53 0 0 1 -1.05-1.58.7.7 0 0 1 .08-.47c1.18-2 2.37-4 3.55-6 .1-.15.22-.37.37-.64z"/><path d="m55.78 10.51v.31 7.63c0 .29-.09.34-.35.34h-5a2.21 2.21 0 0 0 .07.32c.31.6.61 1.21 1 1.79s.7 1.11 1.07 1.66a.52.52 0 0 1 0 .5 10 10 0 0 1 -2.48 3.67 16.11 16.11 0 0 1 -2.82 2.27l-.19.12c-.3-.43-.59-.85-.87-1.27l-6.05-8.85a.5.5 0 0 0 -.48-.25h-6c-.2 0-.25-.06-.25-.26 0-2.54 0-5.08 0-7.62 0-.27.17-.33.36-.38a1 1 0 0 1 .24 0h21.75z"/><path d="m66.14 8h28.86v13.28h-.3c-2.38 0-4.75 0-7.12 0a.52.52 0 0 0 -.5.27l-8.66 12.79-.18.25a1.18 1.18 0 0 1 -.24-1.69q4.27-6.3 8.55-12.6a.39.39 0 0 1 .38-.19h6.45c.41 0 .41 0 .41-.4v-10.07c0-.11 0-.22 0-.36h-26.28v10.83h5.16a1.59 1.59 0 0 1 -.12.4c-.6 1-1.22 2-1.83 3-.24.38-.47.77-.72 1.15a.27.27 0 0 1 -.25.1 2.26 2.26 0 0 1 -.57-.14c-.34-.14-.4-.35-.2-.66.46-.72.92-1.44 1.37-2.17.06-.09.14-.29.11-.31a.71.71 0 0 0 -.39-.16h-3.45a.4.4 0 0 1 -.46-.45v-12.63c-.03-.08-.02-.14-.02-.24z"/><path d="m64.58 29.72-.19.16a2.94 2.94 0 0 0 -1.12 2.74.74.74 0 0 0 .16.32c.18.25.38.49.56.73v.07a1.66 1.66 0 0 1 -.5 0 2.72 2.72 0 0 1 -1.88-1.74 1 1 0 0 1 0-.69 2.83 2.83 0 0 1 2.22-1.64 3.91 3.91 0 0 1 .68-.06z"/></g></svg>