<?xml version="1.0" encoding="utf-8"?>
<!-- Generator: Adobe Illustrator 16.0.4, SVG Export Plug-In . SVG Version: 6.00 Build 0)  -->
<!DOCTYPE svg PUBLIC "-//W3C//DTD SVG 1.1//EN" "http://www.w3.org/Graphics/SVG/1.1/DTD/svg11.dtd">
<svg version="1.1" id="Layer_1" xmlns="http://www.w3.org/2000/svg" xmlns:xlink="http://www.w3.org/1999/xlink" x="0px" y="0px"
	 width="2682.3px" height="1127.2px" viewBox="0 0 2682.3 1127.2" style="enable-background:new 0 0 2682.3 1127.2;"
	 xml:space="preserve">
<style type="text/css">
<![CDATA[
	.st0{fill:#FFFFFF;}
]]>
</style>
<g>
	<path class="st0" d="M2655,735.9c-16.7-10.3-30.7-23.6-41.8-39.8c-3.4-5-6.7-10.2-9.8-15.5c-8.8-14.8-17.6-29.8-26.3-44.6
		c-2.6-4.4-5.3-8.7-8.4-12.6c-6.2-7.9-13.9-13.6-23.7-16.5c-2.8-0.9-5.7-1.6-8.6-2.1c-1.8-0.3-3.7-0.4-5.2-1.2c0-0.5-0.1-0.7,0-0.9
		c0.2-0.7,0.5-1.3,0.7-2c8.5-18.7,20.1-35.1,34.9-49.2c5.3-5.1,11-9.7,17-13.9c2-1.4,2.6-3.2,2.3-5.4c-0.3-2-1.5-3.5-3.6-4
		c-1-0.2-2-0.6-3-0.8c-7.9-2.1-16-3.6-24-5.2c-11.6-2.3-23.4-4.1-34.9-7.1c-2.4-0.6-4.8-1.1-7.2-1.2c-9.3-0.8-18.4,0.1-27.4,2.8
		c-8.7,2.7-17,6.2-25.2,10.3c-8,3.9-15.9,7.9-24.4,10.7c-1.1,0.4-2.3,0.9-3.6,0.2c-1.2-2.6-1.9-5.4-2.3-8.4
		c-0.9-7.2,0.1-14.2,2-21.2c1.5-5.4,3.7-10.5,5.8-15.7c0.9-2.2,0.7-4.1-1-5.8c-1.6-1.6-3.7-2.2-5.8-1.2c-4.3,2-8.9,3-13.5,4.1
		c-5.6,1.3-10.5,3.7-14.9,7.3c-2.2,1.7-4.4,3.5-6.4,5.4c-8.8,8.4-15.9,18.1-21.8,28.7c-4.9,8.9-8.4,18.4-11.5,28
		c-3.2,10-6.3,20-9.5,29.9c-2,6.1-4.3,12.2-7.4,17.9c-2.5,4.6-5.4,9-9.3,12.6c-3.7,3.4-7.9,5.8-12.8,6.6c-3.4,0.6-6.9,0.7-10.4,0.5
		c-8.4-0.5-16.6-2.3-24.8-4.1c-13.1-3-26.3-5.4-39.9-5.3c-1.4,0-2.8-0.2-4.1-0.6c-5.6-1.4-11.1-2.9-16.7-4.3
		c-1.5-0.4-2.4-1.1-2.6-2.8c-0.8-5.8-3.4-10.9-6.7-15.8c-1.8-2.6-3.3-5.3-4.9-8.1c-1-1.8-1.9-3.7-2-5.9c-0.1-2.3,0.9-4.1,3-5
		c1.4-0.6,3-0.9,4.6-1c2.5-0.1,4.9,0.2,7.3,0.5c10.5,1.6,20.9,3.9,31.5,5.1c10.2,1.2,20.2,0.4,29.9-3.1
		c13.7-4.9,26.5-11.6,38.8-19.4c0.6-0.4,1.2-0.7,1.7-1.2c2.2-1.9,2.7-5.2,1-7.6c-0.8-1.1-1.8-2.2-2.7-3.2
		c-4.8-4.8-9.6-9.7-14.4-14.5c-9-9-18.5-17.5-28.2-25.8c-2.3-1.9-4.6-3.8-6.6-6c-4.4-4.5-4.2-7.6,0.4-12c2.7-2.5,5.8-4.5,9-6.3
		c4.4-2.5,8.9-4.9,13.3-7.3c6.3-3.4,12.1-7.6,17.4-12.5c6.4-6,11.9-12.7,16.9-20c5.5-8.1,10.7-16.4,16.2-24.4
		c13.2-19.3,27.5-37.9,41.9-56.3c1-1.2,2-2.5,2.7-3.8c1.6-2.9,0.2-6.8-2.9-7.7c-4.2-1.3-8.4-2.1-12.8-0.9c-9.4,2.7-18.9,5-28.6,6.5
		c-8.8,1.4-17.6,2.1-26.6,0.8c-6.9-1-13.8-2.3-20.5-4.1c-14.2-3.6-28.6-6.3-43.4-5.9c-10.9,0.3-21.1,2.5-30.4,8.3
		c-2.2,1.4-4.5,2.6-6.9,3.7c-3.9,1.8-5,1.3-7.1-2.5c-0.5-0.9-0.9-1.9-1.3-2.9c-1.4-3.4-2.4-6.9-3.1-10.5c-1.8-9.4-3.6-18.8-5.4-28.3
		c-0.4-1.9-0.6-3.8-0.9-5.7c-0.8-6.1-1.3-12.1-3.1-18c-1.1-3.7-2.6-7.2-4.9-10.4c-2.2-3.1-3.9-3.7-7.7-2.7c-1.7,0.4-3.3,1-5,1.7
		c-11.5,4.3-22,10.5-31.9,17.8c-12.2,8.9-23.2,19-33.5,30c-3,3.2-6.1,6.2-9.6,8.9c-1.7,1.2-3.5,2.4-5.4,3.2c-2.3,1.1-4.7,1-6.9-0.7
		c-8.3-6.4-17.3-11.8-24.5-19.6c-2-2.2-4.3-2.6-7.1-1.8c-4.2,1.2-7.4,3.8-10.3,6.9c-6.7,7.3-11.5,15.8-15.6,24.7
		c-3.4,7.2-5.4,14.8-5.4,22.7c0,2.1-0.8,3.1-2.7,3.8c-6.2,2.3-12.4,4.7-18.5,7.3c-43.8,18-82.6,43.5-115.9,77.4
		c-12.2,12.5-24.2,25.2-36.2,37.9c-12,12.7-23.9,25.4-36.8,37.2c-22.6,20.7-47.6,37.6-75.4,50.5c-2.4,1.1-4.8,2-7.3,2.7
		c-22.7,6.5-44.8,14.3-66.5,23.7c-15,6.6-30.2,12.8-45.5,18.7c-38.5,14.6-78.4,22.5-119.5,24.3c-11.7,0.5-23.4,0.5-35.1,0.3
		c-12.6-0.1-25.1-1.7-37.5-3.9c-16.7-2.9-33.1-7.2-49.2-12.1c-9-2.7-17.8-5.7-26.8-8.6c0.6-1.4,1.7-1.5,2.7-1.8
		c8.8-2.2,17.4-4.9,26-8c21.9-7.9,42.6-18.4,62.3-30.6c4.2-2.6,8.3-5.2,12.4-7.8c1.2-0.7,2.3-1.5,3.8-1.6c4.9-0.2,9.7-1.4,14.5-2.1
		c15-2.4,29.8-5.6,44.4-9.8c17-5,33.3-11.5,48.4-20.7c14.3-8.7,26.8-19.5,37-32.8c2.3-3,4.1-6.5,6.4-9.5
		c8.5-11.4,19.6-19.8,32.1-26.4c1.2-0.7,1.9-0.3,2.1,1.1c1,5.9,3.3,11.4,6.2,16.6c3.7,6.7,8.2,13,13.3,18.8c7.1,8,15.4,14.1,25.4,18
		c17.6,7,35.9,9.8,54.8,8.8c1-0.1,2-0.4,3.1-0.7c3-0.8,3.7-4.8,1.6-6.8c-1-1-2.2-1.7-3.4-2.5c-4.8-2.9-9.5-5.9-14.4-8.5
		c-4.8-2.6-7.6-7-10.5-11.4c-0.4-0.6-0.5-1.3-0.7-2c-0.4-1.4,0.1-2.3,1.5-2.8c3.2-1.1,6.6-0.9,9.9-0.5c5.7,0.7,11.4,1.6,17.1,2.4
		c9.2,1.3,18,0.6,26.6-3.5c8.1-3.8,15.8-8.2,22.8-13.8c9.2-7.3,17.3-15.8,25.7-23.9c0.5-0.5,1-1,1.4-1.5c1-1.5,1.6-3.1,0.6-4.9
		c-1-1.8-2.5-2.3-4.4-2.1c-0.3,0-0.7,0.1-1,0.2c-4.5,0.8-9,0.5-13.6,0c-10.2-1.1-20.4-3-30.7-3.6c-3.4-0.2-5.3-1-8-2.9
		c0.9-0.6,1.7-1.2,2.6-1.8c10-6.7,18.3-15.1,24.7-25.3c7.5-11.9,12-24.8,11.3-39.1c-0.4-7.7,0.1-15.3,0.5-23c0.2-4,0.4-8,1.4-11.9
		c1.4-5.2,2.9-10.4,4.4-15.6c1.4-4.5,2.1-9.2,2.6-13.9c0.5-5.4-2.1-7.8-7.4-7.1c-1,0.1-2.1,0.2-3.1,0.4c-5.7,1-11.4,1.7-17.2,1.9
		c-11,0.3-22,0.9-33,0.9c-12.4,0-23.8,3.2-34.4,9.5c-5.9,3.5-11.5,7.2-17,11.3c-1.1,0.8-1.9,2.1-3.4,2.1c-0.2-0.1-0.4-0.2-0.4-0.3
		c-1.7-9-5.1-17.4-9-25.6c-3.4-7.1-6.8-14.1-8.3-22c-0.9-5.1-6.8-6-9.6-2.8c-3.2,3.7-6.9,7-9.9,10.8c-7.1,8.9-12.8,18.7-18.3,28.6
		c-4.6,8.3-6.8,17.1-7.1,26.5c-0.2,6.8-0.7,13.6-1.1,20.4c-0.1,2-0.7,2.2-2.7,1.5c-2.5-0.9-4.5-2.6-6.3-4.5
		c-2.9-3.1-5.1-6.6-7.2-10.2c-2.1-3.6-4-7.3-6.1-11c-0.9-1.7-1.9-3.3-3-4.9c-2.3-3.5-7.1-3.1-9-0.4c-0.5,0.7-1.1,1.4-1.6,2.1
		c-7.3,10.5-11,22.1-11.3,34.8c-0.3,11.4,2.2,22.1,5.8,32.8c3.8,11.1,9.6,20.9,18.2,28.9c3.1,2.9,5.8,6,8.8,9
		c1.3,1.3,1.7,2.5,0.8,4.2c-1.1,2-2,4.1-3.1,6c-2.1,3.6-4.9,6.8-7.8,9.9c-4.3,4.8-9.1,9.2-13,14.4c-6.3,8.4-11.1,17.7-15,27.5
		c-0.9,2.2-2.1,3.9-3.9,5.4c-12.5,11.2-26.7,19.6-42.1,26c-17.5,7.3-35.7,11.9-54.2,15.4c-0.6,0.1-1.3,0.5-1.9-0.6
		c1.2-1.1,2.5-2.3,3.8-3.4c12.2-10.8,22-23.4,28.6-38.3c9.4-21.2,11.2-43,4.8-65.4c-5.8-20.4-17-37.3-32.1-51.9
		c-1.8-1.7-3.5-3.4-5.5-4.8c-2.2-1.6-4.7-1.2-6.6,0.8c-2.4,2.7-2.5,6.3-0.1,9c1,1.2,2.3,2.2,3.4,3.3c11,10.5,19.8,22.5,25.7,36.6
		c7.1,16.9,8.9,34.4,4.6,52.3c-3.4,14.4-10.2,27-19.8,38.2c-8,9.3-17.5,17.1-27.5,24.1c-11.3,7.9-23.1,15-35.1,21.9
		c-20.5,11.7-41.9,21.5-64.6,28.2c-9.6,2.8-19.2,5-29.1,6.6c-2.4,0.4-4.8,0.7-7.2-0.1c-13.2-4.6-26.4-8.9-39.8-12.9
		c-0.8-0.2-1.9-0.5-2.3-1.1c-2.4-3.4-5.3-6.5-7.1-10.3c-1.2-2.7-0.2-4.3,2.8-4.7c3.1-0.3,6.3,0,9.4,0.4c7.3,0.9,14.5,1.8,21.9,1.7
		c5.1-0.1,10-1.1,14.8-2.9c9.5-3.7,18.1-9,26.3-14.9c5.1-3.7,5.2-6.4,0.4-10.8c-10.3-9.5-21-18.4-32.3-26.6
		c-1.6-1.1-3.1-2.2-4.3-3.8c-1-1.3-1-2.5-0.1-3.9c1.1-1.6,2.5-2.9,4.1-4c2.7-1.9,5.4-3.8,8.3-5.5c10.2-5.9,18.1-14.2,24.1-24.2
		c2.7-4.5,5.3-9.1,7.8-13.6c8.7-15.3,18.6-30,28.4-44.6c0.9-1.3,1.8-2.6,2.5-4c1.8-3.8-1.1-7.6-5.2-7.1c-1.2,0.1-2.4,0.6-3.5,0.9
		c-5.2,1.4-10.4,2.9-15.7,4.2c-12.4,2.9-24.8,3.5-37.4,0.9c-10.1-2.1-20.3-3.3-30.7-2.5c-7.8,0.6-15.1,2.5-21.6,7.1
		c-1.6,1.1-3.2,2.1-4.9,3.1c-1.4,0.8-2.2,0.5-3.1-0.8c-1.9-3-3.1-6.3-3.8-9.7c-2.1-9.2-5-18.2-6.6-27.5c-0.7-4.3-2.2-8.4-4.6-12.2
		c-2.8-4.4-4.9-5.1-9.6-3c-3.3,1.5-6.6,3.1-9.8,5c-9.7,5.7-18.1,13.1-25.8,21.2c-4.1,4.3-7.9,8.8-11.8,13.3c-1.5,1.7-3.1,3.3-5,4.6
		c-2,1.5-3.9,1.8-6.2,0.3c-5.5-3.7-11.4-6.8-16.3-11.4c-1.9-1.8-4.1-1.9-6.4-1.2c-1.7,0.5-3.2,1.4-4.5,2.6c-1.9,1.8-3.6,3.8-5.1,6
		c-3.5,5.3-6.2,10.9-8.2,16.9c-2.3,6.8-2.7,13.7-1.5,20.7c2.5,14,8.8,26,19.3,35.8c2.3,2.1,4.7,4.2,6.8,6.6c5.1,5.7,8.5,12.3,9.4,20
		c0.4,4-0.8,7.2-3.9,9.7c-1.4,1.1-2.8,2.1-4.2,3.2c-10.6,8.2-19.6,17.8-27,29c-3.2,4.8-5.7,10-7.3,15.6c-0.6,2.1,0.1,5.1-1.8,6.3
		c-1.8,1.1-4.4,0.8-6.6,1.2c-0.3,0.1-0.7,0.1-1,0.1c-16.7,1.7-33.1,5-49.3,9.2c-24,6.3-47.2,14.9-70.2,24.1
		c-12,4.8-23.9,9.8-35.8,14.6c-12,4.8-23.9,9.6-36,14.2c-20.9,8-42.1,14.7-63.9,19.9c-16.5,4-33.1,7-49.9,9.1
		c-9.9,1.2-19.8,2.2-29.7,2.3c-17.7,0.2-35.2-1.8-52.5-5.5c-6-1.3-11.9-2.9-17.8-4.5c-1.3-0.3-2.7-0.6-3.6-2
		c-3.8-6.1-7.9-11.9-12.2-17.6c-0.6-0.8-0.2-1.6,0.9-1.8c7.8-1.1,15.6-2,23.3-3.2c21.9-3.3,43.5-8.3,64.7-14.9
		c38.1-11.8,73.8-28.7,106.6-51.4c23.1-16,43.9-34.6,61.8-56.3c5.2-6.3,10.1-13,14.5-19.9c0.8-1.3,1.6-2.1,3.4-1.4
		c1.9,0.7,3.7-0.1,5.6-0.7c24.1-7.2,47.3-16.8,69.6-28.6c35-18.5,66.5-41.7,93.6-70.7c17.6-18.8,32.7-39.5,44.7-62.4
		c2.1-4,4.5-7.9,7-11.7c1-1.5,1.6-3,2-4.7c0.8-3.9,1.7-7.8,2.8-11.7c2-7.1,5-13.8,8.9-20c9.3-14.9,21.8-25.8,38.8-31
		c2-0.6,4-1.2,6.1-1.6c4-0.8,3.5-0.2,4,2.8c0.1,0.3,0.1,0.7,0.1,1c0.1,6.9,2.2,13.4,4.8,19.7c6,14.3,14.3,27.2,24.8,38.6
		c7.5,8.2,16.3,14.8,26.3,19.6c13,6.2,26.5,10.6,40.6,13.6c11.1,2.4,22.4,3.2,33.8,3.6c2.1,0.1,4.2-0.2,6.2-0.7
		c2.8-0.7,4-3.6,2.6-6.2c-0.8-1.4-1.9-2.5-3.2-3.4c-1.9-1.3-3.8-2.5-5.7-3.7c-6.1-4-12.2-8.1-18.3-12.1c-1.2-0.8-2.4-1.6-3.2-2.7
		c-2.5-3.8-5.5-7.2-7.3-11.5c-0.6-1.4-1.2-2.9-1.6-4.4c-0.7-3.3,0.2-4.5,3.4-5.3c4.5-1.1,9-0.9,13.5-0.3c7.5,0.9,14.8,2.5,22.1,4.4
		c14.6,3.7,28.7,2.3,42.5-3.4c9.4-3.9,18.1-9,26.5-14.7c14.6-10,27.7-21.7,41-33.4c1.7-1.5,3-3,2.1-5.4c-0.8-2.2-2.1-2.9-5.6-2.6
		c-9.3,0.8-18.5-0.6-27.6-2.4c-11.3-2.2-22.6-4.4-34-5.9c-5.5-0.7-10.7-2.6-15.5-5.6c0.9-1.7,2.6-2,3.9-2.7
		c22.1-12.5,38.9-29.8,49.6-53c4.1-8.8,6.8-17.9,7.3-27.7c0.4-9.6,1.1-19.2,1.7-28.7c0.8-12.4,2.8-24.6,7.3-36.3
		c2.2-5.7,4.1-11.5,5.9-17.3c1.5-5,2.7-10.1,2.8-15.4c0.1-5.4-1.7-7-6.9-6.5c-0.3,0-0.7,0.1-1,0.1c-10.4,1.3-20.9,1.8-31.3,1.7
		c-7.7,0-15.3-0.4-23-0.6c-9.6-0.3-19.2-0.6-28.8-0.7c-5.4-0.1-10.8,0.6-16.1,1.9c-7.2,1.7-13.9,4.5-20.6,7.6
		c-10.8,5.1-20.8,11.4-30.5,18.2c-1.2,0.8-2.2,2.3-4.1,1.9c-0.7-10-3.1-19.6-6.6-29c-2.5-6.7-5.2-13.3-7.8-20
		c-2.8-7.2-5.3-14.4-6.2-22.1c-0.3-2.4-1.6-4.1-2.8-6h-5.2c-0.3,1.1-1.3,1.6-2.1,2.2c-8.3,7-15.6,15-22.3,23.6
		c-8,10.2-14.8,21.1-21.6,32.1c-5.7,9.3-8.4,19.5-9.5,30.2c-0.8,8-1.4,16-2.2,24c-0.3,2.8-0.8,5.5-1.3,8.3c-0.5,2.7-1.3,3.1-4,2.2
		c-3.4-1.1-6.3-3-8.8-5.4c-2.1-2.1-4.1-4.4-5.6-6.9c-2.2-3.6-4.3-7.2-6.2-10.9c-3.4-6.7-6.6-13.5-10-20.2c-0.6-1.2-1.2-2.5-2-3.6
		c-1.9-2.6-5.3-3.1-7.8-1c-1.2,1-2.2,2.2-3.2,3.5c-15.4,19.5-20,41.8-17.7,66c0.8,8,2.7,15.8,4.7,23.6c4.2,16.9,12.3,31.4,25,43.4
		c4.1,3.8,7.7,8.1,11.5,12.2c3.4,3.7,3.3,4.5,0,8.3c-0.5,0.5-1,1-1.5,1.5c-2.3,2.4-5,4.3-7.7,6.3c-2.7,2-5.4,3.9-7.8,6.1
		c-14.4,13.4-24.2,29.7-29.4,48.6c-2.2,8.1-3.3,16.4-1.9,24.9c0.3,1.6-0.3,2.7-0.9,4c-2.5,4.8-4.9,9.6-7.6,14.4
		c-17.8,31.4-41.2,58-68.9,80.9c-34.4,28.4-73.1,49.3-115.2,63.8c-1.5,0.5-2.9,1.2-4.7,1.1c0.9-1.2,1.7-2.4,2.6-3.4
		c7.7-9.7,15.1-19.7,21.8-30.1c11.5-17.7,21.7-36.2,29.2-56c4.3-11.3,7.5-22.9,8.7-34.9c0.3-2.9,1.2-4.8,4-6
		c2.6-1.1,4.9-2.7,7.3-4.1c8.5-5.1,15.9-11.4,22.3-18.9c17.2-20.1,25.7-43.7,27.2-69.9c0.7-11.5-0.2-23-1.6-34.5
		c-1.9-16.2-7.1-31.2-14.9-45.5c-8.5-15.4-19.4-29-31.6-41.5c-12.2-12.5-25.6-23.8-39.4-34.4c-1.1-0.8-2.3-1.6-3.5-2.2
		c-0.6-0.3-1.4-0.5-2-0.4c-2.4,0.4-4.2,1.8-5,4.1c-0.8,2-0.8,4.2,0.9,5.9c1.4,1.4,2.9,2.5,4.4,3.7c11,8.7,21.6,17.7,31.6,27.5
		c9.9,9.9,19.2,20.3,27,32c8.1,12.1,14.6,25,18.3,39.2c2.2,8.5,3.1,17.1,4,25.8c1.9,18.4-0.5,36.3-7.1,53.5
		c-7.4,19.5-19.9,35.1-37.9,46.1c-0.8,0.5-1.6,1.4-2.8,0.7c-0.9-1.4-0.6-3-0.8-4.5c-1.6-11.3-5.5-21.7-13.1-30.3
		c-10-11.4-22.6-15.5-37.3-12c-20.2,4.8-33.9,25.2-29.4,45.9c2.4,10.8,8.2,18.8,18.8,22.8c3.6,1.4,7.3,2.2,11.2,2.7
		c11.6,1.3,23-0.1,34.2-3.3c0.9-0.3,1.8-1.1,3-0.2c0,0.6,0.1,1.2,0,1.9c-0.9,5.3-2.1,10.6-3.6,15.8c-4.6,15.8-11.8,30.5-19.8,44.9
		c-11.7,21-26,40.1-41,58.8c-0.3,0.4-0.7,0.9-1.1,1.1c-2.7,0.8-3.6,3.1-4.9,5.2c-10.2,16.4-22.4,31.2-36.1,44.7
		c-15.1,14.8-31.8,27.8-49.6,39.2c-31.1,19.9-64.3,35-99.6,45.5c-25.3,7.5-51.2,12.5-77.4,15.7c-3.5,0.4-6.9,0.7-10.4,1.1
		c-1.3,0.2-2.4,0-3.3-1.1c-0.4-0.5-0.9-1-1.4-1.5c-19.9-20.9-43.9-34.7-71.5-42.5c-24.4-6.8-49.3-9.5-74.5-9.7
		c-7.3-0.1-14.7,0.3-22,0.7c-19,1-37.9,3.4-56.6,6.6c-1.4,0.2-3,0.3-4,1c-2.2,1.7-4.5,1.5-7,1.2c-1.4-0.2-2.8-0.1-4.2-0.1
		c-10.8,0.2-21.6,0.4-32.4,1.4c-16.5,1.4-32.9,3.8-49.2,7.2c-0.9,0.2-1.8,0.7-3-0.2c1.1-0.7,1.9-1.3,2.8-1.8
		c4.6-2.9,9.2-5.7,13.8-8.6c15.4-9.6,30.7-19.4,46.4-28.4c17-9.8,34.9-17.5,53.8-22.8c18-5,36.2-8.9,54.4-13.3
		c14.9-3.6,29.8-7.5,44.2-12.8c3.8-1.4,7.5-2.5,11.5-3.3c20.3-3.9,39.9-9.9,58.4-19.3c3.9-2,7.9-3.6,12.1-4.8
		c6.7-1.9,13.1-1.4,19.3,1.9c4.5,2.4,8.6,5.3,12.3,8.8c5.3,5.1,10.5,10.2,15.7,15.5c4.9,5,9.9,9.9,15.3,14.3
		c10.9,8.8,23.1,15,36.8,18c4.7,1,9.4,1.1,14,0.3c3.8-0.6,7.5-1.7,11.3-1.9c2.5-0.1,4.2-1.8,4.7-4.2c0.4-2.1-0.5-3.8-1.9-5.1
		c-2.2-2-4.4-4-6.5-6c-3.4-3.3-6.5-6.8-8.9-11c-2.3-4-3.9-8.1-4.1-12.9c1.2-0.2,2.2-0.4,3.2-0.5c7.3-0.9,14.6-1.1,22-1.1
		c6.3,0.1,12.6-0.2,18.8-1c9-1.1,17.3-3.9,24.7-9.3c2.1-1.5,4.2-3.1,6.3-4.7c8.4-6.5,16.9-13,25.3-19.5c3.2-2.5,6.3-5,9.4-7.5
		c0.9-0.8,1.9-1.6,2.7-2.5c2.1-2.6,1.2-6.6-1.9-7.9c-1.4-0.6-3-0.8-4.6-1.1c-16.3-3.1-31.5-8.9-45.4-18.1c-4.2-2.8-8.3-5.7-11.9-9.7
		c1.5-1.2,2.9-2.2,4.2-3.2c7-5.5,12.3-12.3,14.9-21c1.3-4.4,2-8.8,2.3-13.4c1.1-16.2,2.4-32.4,4.2-48.5c1.6-13.9,5.5-27,13.3-38.7
		c3.8-5.6,6.3-11.6,7.7-18.1c0.3-1.2,0.7-2.3,0.9-3.5c0.2-1.2,0.3-2.4,0.3-3.6c0-1.5-0.8-2.6-2-3.5c-1-0.7-2.2-1.1-3.4-1.2
		c-4-0.2-8-0.3-12,0.7c-5.3,1.4-10.3,3.3-15.2,5.6c-11.9,5.7-24.4,8.1-37.5,8.4c-3.1,0.1-6.3,0.3-9.4,0.7c-4.1,0.6-8.3,0.9-12.5,1.3
		c-7.8,0.7-15.7,1.3-23.4,2.2c-12.4,1.5-23.7,5.7-33.5,13.5c-0.8,0.6-1.7,1.2-2.7,1.9c-1.9-2.7-2.9-5.7-3.8-8.7
		c-2.6-8.8-3.4-17.8-3.9-26.9c-0.3-6.8-0.2-13.6-0.3-20.4c-0.1-5.8-2.9-7.8-8.5-5.9c-1.6,0.5-3.2,1.3-4.8,2.1
		c-2.7,1.4-5,3.2-7.2,5.2c-11.8,10.6-21.3,23.1-29.3,36.7c-3.1,5.2-4.8,10.9-5.6,16.8c-0.6,4.1-0.8,8.3-1.2,12.5
		c-0.1,0.9-0.1,1.8-0.2,2.6c-0.1,0.6-0.7,0.8-1.2,0.5c-0.9-0.5-1.7-1.1-2.5-1.8c-3.8-3.4-6.9-7.4-10-11.4c-1.6-2.1-3.4-4-4.8-6.2
		c-2.8-4.2-7.4-4.8-11.2-0.1c-3.2,4-6,8.1-8,12.8c-3.8,9-5,18.6-4.8,28.2c0.3,13.1,2.4,26,6.1,38.7c4.3,14.6,9.6,28.8,17.8,41.8
		c2.4,3.8,5.1,7.5,7.7,11.2c1.7,2.4,3.1,5,4.3,7.8c2.3,5.2,2.4,10.5,0.1,15.7c-1.3,2.9-2.8,5.6-4.6,8.2c-2.7,3.9-5.9,7.4-9.2,10.7
		c-6.4,6.5-13.4,12.2-21.5,16.5c-7.3,3.8-14.6,7.4-22.1,10.6c-9.6,4.2-19.5,7.6-29.5,10.6c-16.4,5-33.1,8.5-49.7,12.4
		c-19.2,4.5-38.3,9.2-56.6,16.8c-0.8,0.3-1.6,0.8-2.5,0.1c0.1-1.5,1.2-2.4,2-3.5c4.6-6.2,8.9-12.5,12.6-19.3
		c8.8-15.6,15.6-32,17.6-50c1-8.7,0.9-17.4-1.1-26c-0.6-2.4-1.9-4.8-1.6-7.1c0.3-2.4,3.2-3.4,4.7-5.4c0.3-0.4,0.7-0.8,1-1.2
		c14.7-16.9,21.4-37,23.6-58.8c1.1-10.8,0.2-21.6-1.8-32.3c-4.8-25.8-17-47.4-36.5-65c-14.6-13.2-31.5-22.4-49.5-29.8
		c-0.5-0.2-1-0.4-1.5-0.5c-2.7-0.5-4.7,0.4-5.7,2.6c-1.2,2.5-0.4,5.5,2,6.9c1.5,0.9,3.2,1.5,4.8,2.2c11.7,5.1,22.9,11.1,33.3,18.6
		c17.9,13.1,31.5,29.6,38.7,50.8c8.4,24.7,8.9,49.3-0.4,73.8c-3.3,8.7-7.7,16.8-13.9,23.8c-1.2,1.4-2.3,3.1-4.1,3.7
		c-2.4-3.2-4.6-6.4-7-9.4c-4.5-5.7-9.7-10.5-16-14.1c-6.9-3.9-14.3-5.5-22.2-3.6c-4.1,1-8.1,2.1-12,3.7c-4.6,1.9-8.5,4.9-11.5,8.9
		c-3.4,4.5-4.7,9.6-4,15.3c1.1,8.4,5.9,14,13.5,17.3c4.7,2,9.6,3.2,14.5,4.3c8.8,2,17.7,1.9,26.5-0.2c4.1-1,8-2.4,11.7-4.4
		c2.1-1.1,2.8-1.2,3.4,1.8c0.8,3.9,1.3,7.9,1.4,11.9c0.3,11.7-2.2,22.9-6,33.8c-4.7,13.4-11.6,25.7-19.7,37.4
		c-6.7,9.6-14.8,18.1-22.3,27.1c-0.5,0.6-1.4,1.1-2.1,1.5c-1.3,0.8-2.7,1.5-4.1,2.4c-14.5,9-29,18.1-43.5,27.2
		c-15.2,9.5-30.7,18.8-46.9,26.6c-8.8,4.3-17.6,8.6-27.2,10.6c-6.8,1.4-13.6,3.1-20.5,4.2c-6.5,1.1-13.1,2.3-19.8,1.4
		c-1.2-0.2-2.6-0.2-3.6,0.2c-2.2,1-4.4,0.7-6.7,0.8c-10.1,0-20.2-1-30.2-2.4c-15.6-2.2-30.9-5.7-46.1-9.7
		c-30.8-8.1-60.6-18.8-89.8-31.3c-18.1-7.8-36-16.1-53.5-25.2c-3.3-1.7-6.5-3.4-9.8-5c-3.4-1.6-4.8-1.3-7.4,1.5
		c-0.7,0.8-1.1,1.8-2.4,1.8v5.2c0.8,0.3,1.5,0.8,2,1.5c1.1,1.7,2.7,2.6,4.5,3.5c20,10.3,40.2,20.2,60.9,29
		c33.1,14.2,66.9,26.1,102,34.4c3.6,0.8,7.1,1.6,9.6,4.7c0.6,0.8,1.7,1.2,2.5,1.8c19.3,13.9,37.6,29,53.8,46.5
		c9.2,9.9,17.7,20.3,24.9,31.7c2.2,3.6,3.5,4.3-2.2,5.2c-13.7,2.1-23.9,9.5-29.9,22c-5.9,12.3-1.8,26.1,9.4,33.7
		c8.1,5.5,21.4,6.9,30.3-0.6c6.1-5.1,10.2-11.4,12.1-19.1c1.6-6.4,1.5-12.8,0.3-19.2c-0.3-1.6-1.2-3.2-0.4-5.1
		c5.4,1.4,10.5,3.2,15.4,5.5c19.3,9.2,35.9,22.1,50.6,37.6c11.4,12,20.1,25.8,27.5,40.6c10.9,21.8,16.3,44.8,15.5,69.2
		c-0.1,2.8-0.2,5.6-0.2,8.4c0.1,2.9,2.1,4.9,4.9,5c2.5,0.1,4.6-1.7,5.1-4.3c0.3-1.5,0.4-3.1,0.5-4.7c0.2-7.5,0.1-15-0.6-22.5
		c-1.3-13.7-4.3-26.9-9.1-39.7c-13.2-35.2-35.5-63.4-66.2-85.1c-14.2-10.1-29.3-18.4-46.7-21.5c-1.6-0.3-2.4-1.1-3.1-2.4
		c-2.6-5.5-5.8-10.7-9.3-15.8c-7.5-10.8-16.2-20.5-25.4-29.9c-11.1-11.2-22.8-21.6-35.1-31.5c-1.5-1.2-3.3-2-4.2-4.1
		c2.5,0.3,4.9,0.6,7.2,0.9c9.7,1.5,19.4,2.4,29.2,2.6c2.1,0.1,4.3-0.2,6.2,0.5c2.4,0.9,4.8,0.9,7.2,0.8c5.1-0.2,10.1-0.8,15.1-1.9
		c4.5-1,9-0.9,13.4-0.1c0.9,0.2,1.7,0.4,2.6,0.5c23.2,3.6,45.8,9.4,68.1,16.5c43.7,14,85,33.3,125,55.7c1.5,0.9,3,1.7,4.2,3
		c1.9,2.1,4.2,3.6,6.6,5.1c9.5,6.2,18.5,13.1,27.1,20.6c2.7,2.3,5,4.9,6.7,8c1.4,2.5,1.2,3.5-0.9,5.5c-2.8,2.6-6.1,4.7-9.4,6.5
		c-3.6,2.1-7.4,4-10.9,6.2c-19.1,12.5-29.1,30.1-29.1,53.1c0,7,2.7,13.7,3.8,20.5c0.3,1.9,2,2.8,4,2.7c0.9,0,1.7-0.2,2.5-0.5
		c6.5-2.2,12.6-5.1,16.9-10.8c0.8-1.1,1.9-2.1,2.9-3c0.6-0.6,1.4-1.1,2.1-1.5c1.2-0.6,2.5-0.2,3.1,1c1.3,2.5,1.6,5.3,1.9,8.1
		c0.5,4.5,0.8,9,1.3,13.6c0.8,7.8,3.1,15,7.7,21.4c4.6,6.4,10.1,12,15.6,17.6c3.7,3.8,7,4.7,10.6-1.5c5.9-10.3,11.7-20.6,16.7-31.4
		c0.8-1.7,1.7-3.4,2.8-5c0.9-1.4,2.1-1.7,3.6-0.9c1.2,0.7,2.5,1.4,3.5,2.3c2.2,2,4.4,4,6.4,6.2c5.1,5.6,10.8,10.4,17.6,13.8
		c4.2,2.1,8.6,3.8,13.1,5.3c5.8,1.9,11.6,3.8,17.3,5.9c11.5,4.1,22.8,8.7,34.1,13.4c1.4,0.6,2.9,1.3,4.4,1.6
		c3.6,0.7,6.3-2.2,5.2-5.6c-0.4-1.1-1-2.2-1.6-3.3c-2.9-5.2-5.4-10.5-7.7-16c-3.8-9.3-5.8-18.9-5.8-29.1c0-7.3-0.4-14.7-1.9-21.9
		c-1.9-9-5.2-17.4-12.4-23.7c-0.8-0.7-1.5-1.5-2.2-2.3c-1.2-1.5-1.2-2.1,0.4-3.5c2.2-2,4.8-3.5,7.5-4.7c7.4-3.5,14.8-7,22.3-10.4
		c3.9-1.7,7.6-3.6,10.5-6.8c2.8-3,3-4.6,0.8-7.9c-2.9-4.4-6.3-8.3-10.1-12c-8.2-7.9-17.7-14.2-27.6-19.7c-2.4-1.4-4.9-2.8-7.2-4.2
		c-1.5-0.9-2.8-2-4-3.4c-0.9-1.1-1.1-2.1-0.6-3.4c2.2-5.5,4-11.2,6.9-16.4c1.9-3.3,1.6-5.2-0.9-8c-1.8-2-4.1-3.3-6.4-4.4
		c-4-1.9-8.2-3-12.4-4c-7.7-1.8-15.3-1.5-22.7,1.3c-11.1,4.2-20.2,11-26.7,21c-1.9,2.9-3.7,5.9-5.7,8.8c-3.9,5.6-9.1,9.6-15.5,12
		c-3.8,1.4-7.2,0.8-10.2-1.8c-1.6-1.4-3.1-2.9-4.8-4.1c-11.3-8-23.6-14.2-37-18c-3.8-1.1-7.2-2.5-10.5-4.4
		c-23.9-13.4-48.3-25.7-73.5-36.6c-26.6-11.5-53.9-21.1-82-28.4c-8.4-2.2-16.9-4-25.9-6.2c1.4-0.6,2.4-1.1,3.3-1.3
		c10.6-2.9,21.2-5.8,31.8-8.8c30.7-8.6,62-13.7,93.9-14.6c20.1-0.5,40.1,0.5,60,3.4c20.9,3,41.4,8.3,61.5,14.8
		c22.1,7.2,43.6,15.8,65.1,24.4c17.1,6.9,34.3,13.7,51.6,20.4c11.2,4.4,22.6,8.3,34.1,11.8c2.2,0.7,3.7,1.7,4.7,3.7
		c1.2,2.3,2.6,4.6,3.8,6.9c9.3,16.8,17.3,34.2,25.7,51.5c7.8,16.2,15.9,32.2,25.6,47.4c9.7,15.2,20.9,29.2,34.8,40.9
		c9.5,8,19.7,15,31.4,19.6c7,2.8,14.4,4.2,21.7,5.8c4.2,0.9,8.6,1,12.7,2.3c0.3,2.8,0.7,5.4,0.9,8c0.9,10.8,4.1,20.9,8.9,30.5
		c2.3,4.7,4.8,9.3,7.4,13.8c6.8,11.9,15.4,22.4,25.6,31.6c11.7,10.4,24.7,18.8,38.3,26.3c13.4,7.4,27.4,13,42.4,16
		c3.8,0.8,7.5,1.6,11.3,2.4c1,0.2,1.5,0.7,1.7,1.7c0.1,0.9,0.5,1.7,0.6,2.5c2.4,11.3,7.2,21.5,13.6,30.9c7.8,11.4,18,20.4,29.5,27.9
		c24.2,15.7,50.7,24.7,79.4,27.1c3.5,0.3,7,0.3,10.5,0.2c3.1-0.1,5.1-2.5,5.1-5.5c0-3-1.6-4.5-5-4.7c-0.9,0-1.7,0-2.6,0
		c-3.1-0.1-6.3-0.2-9.4-0.5c-17.5-1.7-34.3-6.2-50.4-13.4c-13-5.8-25.2-12.9-35.7-22.6c-9.5-8.8-17-18.9-21.8-31
		c-1.4-3.5-2.7-7.1-2.9-11.4c3.8,0,7.4,0.2,11.1,0c7.2-0.4,14.2-1.9,20.7-5.1c7.1-3.5,12.7-8.5,16.1-15.8c3.1-6.8,2.4-13.2-1.9-19.3
		c-4-5.8-9.8-8.8-16.6-10.1c-18.1-3.4-34.4,8.2-39.3,24.6c-1.1,3.7-1.6,7.5-2,11.3c-0.1,1,0.4,2.1-1.1,3c-3.8-0.9-7.9-1.6-12-2.8
		c-27.4-7.6-51.5-21.2-72.9-39.8c-9.7-8.4-17.7-18.3-23.8-29.7c-2.1-4-4.1-8.1-6.3-12c-3.9-6.9-6.3-14.4-7.5-22.2
		c-0.5-3.5-1.5-7.1-1-11c2.2,0,4.2,0,6.3,0c8.7,0.2,17.5,0.2,26-2.2c3.6-1,6.9-2.5,9.9-4.6c4.4-3.2,7.3-7.4,8.3-12.8
		c1.2-6.9-0.3-13.2-4.1-18.9c-2.2-3.3-5.5-5.4-9.3-6.5c-4.1-1.2-8.3-1.4-12.4-0.7c-11.6,2.1-21,8.1-29,16.7
		c-2.2,2.4-3.5,5.2-4.2,8.3c-0.6,2.6-1,5.1-1.4,7.7c-0.2,1.1-0.8,1.4-1.8,1.4c-0.3,0-0.7,0-1,0c-8.5-1.1-16.9-2.5-24.9-5.6
		c-12.6-5-24-12.1-34.1-21.1c-12.4-11-22.6-23.8-31.4-37.7c-9.4-14.7-17.2-30.3-24.9-46c-6.5-13.1-12.9-26.3-19.4-39.4
		c-1.9-3.9-4-7.7-6-11.7c1.9-0.5,3.4,0.1,4.8,0.4c18.1,4.2,36.5,5.8,55.1,5.8c9.6,0,19.2-0.7,28.7-1.6c16.5-1.6,32.8-4.5,49-8.1
		c23.7-5.4,46.9-12.4,69.6-20.8c5.6-2.1,11.3-2.3,17-1c14.7,3.3,25.3,12.1,32.6,25c0.2,0.3,0.1,0.7,0.1,1.2
		c-6.8,2.3-12.7,6.3-18,11.2c-5.7,5.2-10.9,10.9-15.2,17.2c-5.5,8-9.5,16.6-11.3,26.3c-0.9,5.2-1.4,10.4-1.6,15.6
		c-0.7,13.9,0.9,27.5,4.5,40.9c0.4,1.5,1,3,1.8,4.3c1.6,2.5,5.6,2.3,7-0.3c0.7-1.2,1-2.6,1.5-3.9c1.7-5.1,3.5-10.2,4.9-15.5
		c1.4-5.2,4.6-8.9,8.1-12.6c0.7-0.8,1.6-1.4,2.5-1.9c1.1-0.7,2.4-0.3,3.1,0.9c1.2,2.1,2,4.5,2.3,6.9c0.7,6.8,1.6,13.5,2,20.3
		c0.6,9.4,3.7,17.7,9.5,25c5.3,6.7,11.1,13,17.9,18.3c9.6,7.6,20,14,30.3,20.6c0.6,0.4,1.2,0.7,1.9,0.9c2.9,0.9,5.8-1.4,5.4-4.5
		c-0.1-0.7-0.4-1.3-0.6-2c-2.1-6.1-3.2-12.5-3.7-18.9c-0.4-5.7-1.1-11.5-1.7-17.2c-0.2-2.3-0.6-4.5-0.9-6.7
		c-0.4-2.8-0.4-5.6-0.1-8.4c0.1-0.7,1-1.1,1.5-0.7c0.8,0.7,1.6,1.3,2.4,2c6.5,6.2,13.9,11.1,22,14.9c15.2,6.9,30.8,10.1,47.3,5.6
		c6.9-1.9,14-3.1,21-4.6c6.4-1.3,12.8-2,19.2-1.5c3.7,0.3,7.3,0.3,11,0.7c4.9,0.5,9.8,0.1,14.6-0.7c5.9-1,7.4-3.7,5.1-9.2
		c-3.4-7.9-6-16-8.2-24.3c-2.7-10.1-5.5-20.2-8-30.4c-2.8-11.6-8.9-21.1-17.2-29.4c-4.4-4.5-9.2-8.6-14-12.6
		c-0.8-0.7-2.3-1.1-1.9-2.8c4.1-1.8,8.1-4,11.9-6.5c4.7-3.1,9.1-6.5,13.5-10c5.2-4.1,10.6-8,16.6-10.8c0.5-0.2,1-0.4,1.4-0.7
		c3-1.9,3.4-6.1,0.7-8.5c-0.9-0.8-2-1.4-3-2.1c-4.9-3.1-10-5.7-15.3-8c-8.8-3.8-18-6.5-27.2-9.4c-8.9-2.8-17.8-2.9-26.9-1.3
		c-3.6,0.6-7.2,1.4-10.8,2c-3.6,0.6-7.2,1.6-10.9,1.5c-1.1,0-1.5-0.7-1.5-1.7c0.2-3.1,1.6-5.7,3.4-8.1c2.3-3.3,5.2-6.2,8.1-8.9
		c3.7-3.4,7.5-6.8,11.3-10.2c0.9-0.8,1.9-1.6,2.6-2.6c2.2-2.8,1.6-6.3-1.4-8.1c-1-0.6-2.2-1.1-3.3-1.5c-7-2.8-14.3-4.4-21.9-4.3
		c-1.2,0-2.4,0-3.7,0c-1.3,0-2.5,0.3-4.5-0.2c1.2-0.4,1.6-0.6,2-0.8c13.5-4.2,27.2-7.4,41.2-9.8c1.5-0.2,2.8,0,4.1,0.5
		c19.5,7.7,38.4,16.5,56.1,28c11.2,7.3,21.6,15.5,30.9,25c11.2,11.6,20.8,24.4,29.3,38.1c7.7,12.5,14.5,25.5,21.7,38.2
		c9.6,17.1,20.2,33.5,33.2,48.2c16.5,18.7,28.7,39.9,37.7,63c3.6,9.2,3.7,18.3,0.6,27.7c-2.1,6.3-5.1,12.2-8.5,17.9
		c-4.2,7.1-8.7,13.9-12.5,21.2c-9.8,18.6-16.9,38.3-20.7,59c-2.3,12.4-3.5,24.9-1.6,37.5c1.2,8,3.6,15.6,7.7,22.6
		c1.6,2.7,3.5,5.2,5.6,7.5c1.1,1.2,2.4,2,4.1,2.1c2.2,0.2,4-0.2,5.6-2c4.1-4.7,8.4-9.3,12.7-14c3.6-3.9,7.5-7.3,11.9-10.2
		c1.1-0.7,2.1-0.2,2.1,1.1c0.2,5.8,0.3,11.5,0.4,17.3c0.1,9.1,2.2,17.6,6.4,25.6c8.1,15.3,17.4,29.9,29.1,42.8
		c4.2,4.7,8.8,9,14.5,11.8c0.3,0.1,0.4,0.5,0.5,0.8h9.4c0.6-1.9,2-3.5,2-5.8c0.1-4.4,0.6-8.7,1-13c0.8-10.8,2.2-21.5,4.4-32.1
		c1.5-7.2,3.7-14.2,7.3-20.6c0.7-1.3,1.2-2.9,2.8-3.7c0.5,0.5,1.1,0.9,1.6,1.4c6.6,6.6,14.3,11.6,22.9,15.5
		c9.3,4.2,19.2,6.4,29.2,8.1c8.8,1.5,17.6,2.8,26.4,4.2c8.4,1.4,16.9,2.8,25.3,4.3c11.7,2.1,23.2,4.9,34,10.2
		c3.1,1.6,6.2,3.1,9.4,4.6c5.8,2.8,11.6,5.7,17.9,7.4c3.8,1,7.6,1,11.4,0.5c3.2-0.5,5-2.4,5.1-5.7c0.2-6.5,0-12.9-3.7-18.7
		c-0.8-1.2-1.3-2.5-1.9-3.7c-8-15.4-12.7-31.7-14.4-48.9c-1.5-15.7-1.3-31.4-1.9-47.1c-0.4-9.6,0-19.2-0.3-28.8
		c-0.3-8.1-2.3-15.9-6.5-22.9c-2.9-4.8-6.4-9.1-10.6-12.9c-1.8-1.6-3.5-3.2-5.3-4.8c0.6-0.6,0.9-1.1,1.3-1.4
		c2.4-1.7,4.8-3.6,7.3-5.2c19.8-12.7,41.5-19.7,64.7-22.3c1.9-0.2,3.8-0.5,5.7-0.7c1.7-0.2,2.8-1.3,3.6-2.8c1.4-2.5,1.1-4.9-1.1-7.2
		c-4.9-5.2-10.2-10-15.6-14.8c-10.2-9-20.8-17.6-30.5-27.2c-8.3-8.2-18.3-13.2-29.4-16.3c-8.8-2.4-17.8-3.5-26.9-4.2
		c-5.4-0.4-10.8-0.7-16.2-1.3c-4.2-0.5-8.3-1.3-12.4-2c-2.2-0.4-2.3-0.9-1.8-3.3c1.3-5.4,3.7-10.1,6.9-14.5
		c3.4-4.7,7.6-8.7,12.1-12.3c2.7-2.2,5.6-4.2,8.3-6.4c1.9-1.6,2.8-3.6,1.9-6c-0.8-2.5-2.3-4.4-5.1-4.5c-3-0.1-5.8-1.1-8.7-1.9
		c-2.2-0.6-4.3-1.3-6.5-1.8c-3.6-0.8-7.2-1.6-10.9-1.2c-6.4,0.8-12.8,1.8-19,3.7c-10.4,3.2-20.3,7.5-30.1,12
		c-21.2,9.9-29.8,16.2-45.7,33.4c-3.6,3.8-7.3,7.5-11,11.2c-3.6,3.5-7.7,6.5-12.3,8.9c-7.1,3.7-14.3,4.1-21.6,0.3
		c-4.3-2.3-8.7-4.5-13.2-6.4c-3.4-1.5-6.3-3.6-9-6.1c-9.7-8.6-19.4-17.1-30-24.5c-4.8-3.4-8.9-7.2-12.4-11.8
		c-1.4-1.8-2.8-3.6-4.1-5.4c-9.6-13-17.5-26.9-25.3-41c-6.7-12.2-13.5-24.4-21.1-36.2c-12.9-20-28.4-37.6-47.3-52.1
		c-13.8-10.5-28.7-19.2-44.3-26.7c-1.7-0.8-3.4-1.4-5.5-3.1c6.8-0.4,12.8-0.9,18.8-1c18.4-0.3,36.6,0.9,54.8,3
		c2.5,0.3,4.6,1.1,6.4,3c8.1,8.3,17.8,14,28.9,17.3c5.2,1.5,10.5,2.8,15.9,2.6c3.7-0.1,7.3-0.2,11-0.3c1,0,2.1,0.1,3.1,0
		c2.7-0.2,4.1-1.3,4.9-3.9c0.3-0.9-0.3-2.1,1-2.8c0.4,0.1,0.9,0.2,1.4,0.4c15.7,5.2,31.4,10.5,47.1,15.7
		c27.1,9.1,54.4,17.6,82.6,23.1c14.1,2.8,28.2,4.7,42.5,5.6c14.1,0.8,28.3,0.6,42.4-0.2c1.8-0.1,3.4,0.2,5,1.1c3.8,2.1,7.8,4,11.7,6
		c10.2,5.3,20.5,10.5,31,15.2c18.7,8.4,38.3,14,58.1,19c3.2,0.8,6.7,1,9.6,2.4c5,2.3,10.2,3.6,15.4,4.8c12.2,2.9,24.1,7,35.8,11.7
		c3.6,1.4,7.1,3,10.3,5.2c1.6,1.1,3.2,2.2,4.5,3.5c2.3,2.2,2.4,3.2,0.9,6c-1.4,2.6-3.2,5-5.2,7.2c-3.3,3.6-6.8,7.1-10.1,10.6
		c-11.8,12.7-19,27.5-19.7,45.1c-0.5,12.6,1.6,24.7,8.5,35.6c1.8,2.8,3.2,5.8,4.8,8.7c2,3.6,4.9,4.3,8.2,2c1.9-1.3,3.6-2.8,5.4-4.2
		c3.8-2.9,6.8-6.5,8.7-11c0.6-1.3,1.1-2.6,1.8-3.8c0.8-1.5,1.7-3.1,2.7-4.5c1.6-2.2,3.3-2.2,5,0.1c0.9,1.2,1.7,2.6,2.4,4
		c0.7,1.4,1.3,2.9,1.9,4.3c2.2,5.3,4.4,10.7,6.7,15.9c3.4,7.5,8.4,13.7,15,18.5c7.2,5.3,14.8,9.9,22.9,13.7c5.4,2.6,8.2,1.3,9.6-4.4
		c1.6-6.6,3.2-13.2,4.5-19.9c1.3-6.8,2.3-13.8,3.5-20.6c0.3-1.9,0.6-3.8,1.1-5.6c0.7-2.4,2-3.2,4.3-2.7c1.9,0.4,3.7,1,5.4,1.9
		c3.3,1.6,6.5,3.4,9.7,5.2c9.2,5.4,19.2,8.2,29.8,8.7c5.4,0.3,10.8,0.3,16.2,0.5c6.4,0.2,12.9,0.3,19.3,0.8
		c12.2,0.9,24.3,2.1,36.5,3.2c1,0.1,2.1,0.2,3.1,0.1c2.6-0.4,4.2-2.4,4.2-5.1c0-1.9-1.1-3.2-2.4-4.5c-2.6-2.6-5.2-5.2-7.7-7.8
		c-10.4-10.9-18.7-23-23.1-37.5c-0.8-2.5-1.6-5-2.5-7.4c-2.4-7-5.4-13.6-9.3-19.8c-4.5-7.2-10.1-13.3-18.1-16.9
		c-1.4-0.6-2.7-1.5-4-2.4c-1.3-0.9-1.5-1.7-0.6-3.1c1.8-3,4.1-5.7,6.7-8c6.9-6.1,13.4-12.7,20.6-18.5c2.2-1.7,4.1-3.8,5.9-5.9
		c1.3-1.6,2.5-3.4,3.4-5.3c1.9-3.8,0.8-6.5-1.7-8.3c-1.9-1.3-3.6-2.8-5.5-4c-7.1-4.8-14.8-8.4-22.9-11.4c-8.7-3.2-17.7-5.3-26.7-7.3
		c-2.9-0.6-5.8-1.4-8.5-2.4c-3.6-1.4-4.3-2.5-4-6.3c0.5-6.3,0.5-12.6,2.1-18.7c0.8-3.2-0.3-5.4-2.7-7.3c-2.4-1.9-5.3-2.6-8.2-3.1
		c-6.1-1.1-12.1-0.7-18.2-0.1c-9.6,0.9-17.7,4.9-24.7,11.4c-4.1,3.8-7.5,8.3-10.4,13.1c-3.5,5.6-6.4,11.6-9.4,17.5
		c-3.4,6.7-7,13.3-11.6,19.2c-2,2.6-4.3,5-7,7c-3.5,2.6-7.2,3.2-11.3,1.2c-3-1.5-6.2-2.4-9.4-3.2c-13.8-3.4-27.8-5.2-42-5.2
		c-4.6,0-9-0.5-13.5-1.4c-4.1-0.9-8.2-1.8-12.2-2.8c-28.5-6.8-55.9-16.4-81.6-30.4c-0.7-0.4-1.6-0.7-1.2-1.8c10.1-1,20.1-2.8,30-4.7
		c35-7,68.9-17.9,101.3-32.7c28.8-13.2,58.5-23.7,89.1-31.6c3.7-1,7.5-1.7,11.4-1.4c7.1,0.5,14.3,0.6,21.4,1.4
		c14.9,1.6,29.7,4.1,44.2,8c27.4,7.2,53.1,18.2,76.4,34.5c23.6,16.5,42.6,37.1,55.6,62.9c3.7,7.4,8.2,14.7,8.3,23.4
		c2.5,14.2,7.9,27.1,17.7,37.9c1.1,1.2,2.1,2.4,3,3.6c2.2,2.9,4.6,5.7,6.6,8.8c3.5,5.5,3.1,4,0,9.2c-3.3,5.5-6.8,11-10.2,16.5
		c-3,5-5,10.3-6.3,16c-1.5,6.5-2,13.1-2.5,19.7c-1,11.9,0.1,23.7,4,35.1c4.3,12.7,11.5,23.5,21.7,32.2c4.6,4,9.8,2.6,12-3.2
		c0.7-2,1.3-4,1.9-6c2.1-6.6,4.1-13.3,6.4-19.9c1.1-3.3,2.6-6.5,4.9-9.2c1.3-1.6,2.7-3.2,4.8-3.7c1.1,1.6,1.5,3.3,2,4.9
		c1.6,5.9,3.4,11.7,4.9,17.6c3.1,12.3,8.8,23.1,17.6,32.2c2.9,3,5.7,6.1,8.7,9.1c8.4,8.7,17.5,16.6,27.9,22.8c1,0.6,2.1,1.3,3.2,1.7
		c3.8,1.5,7.4-0.2,8.9-4c0.7-1.8,0.8-3.8,0.7-5.7c-0.2-5.3,0.6-10.4,1.8-15.6c0.7-3.1,1.4-6.1,2.1-9.2c2.1-8.8,3.8-17.8,3.6-26.9
		c0-0.5,0.2-0.9,0.3-1.5c1.8-0.1,3,0.9,4.4,1.5c9.4,4.2,18.9,8.1,29.1,10.2c7.2,1.5,14.5,2.2,21.9,1.2c8.3-1.1,16.5-2.8,24.7-4.4
		c12.3-2.5,24.6-5.1,37.2-6.1c1.7-0.1,3.5-0.2,5.2-0.4c1.2-0.1,2.4-0.1,3.7-0.2c5-0.5,7.6-3.8,6.5-8.7c-1.2-5.1-3.1-10-5.5-14.7
		c-2.4-4.8-5-9.6-7.6-14.3c-4.7-8.5-7.9-17.4-9.8-26.9c-1-5.1-2.1-10.3-3.1-15.4c-3-15-10-27.8-20.6-38.7c-9.7-10.1-21.1-17.6-34-23
		c-1.3-0.5-3.3-0.4-3.9-2.4c4.1-2.8,8.8-4.2,13.4-5.7c4.6-1.6,9.3-2.9,13.9-4.6c9.6-3.6,19.3-7.3,29.7-8.1c2-0.2,3.1-1.4,3.8-3.1
		c1-2.8,0.3-5.2-2.2-6.9c-3-2-6.2-3.9-9.3-5.8c-8.9-5.5-17.9-10.9-27.3-15.5c-9.5-4.6-19.3-8.1-29.6-10.1
		c-8.4-1.6-16.7-1.5-24.8,1.5c-2.8,1-5.6,2-8.4,3c-5.4,1.9-10.8,3.9-16.3,5.8c-2.8,1-5.7,1.5-8.7,1.6c-1.2,0-2-0.8-1.8-2
		c1.2-5.7,2.9-11.2,7.1-15.4c3.8-3.9,7.8-7.5,11.9-11c2.4-2,4.3-4.5,6.4-6.8c1.6-1.7,1.6-3.8,0.7-5.9c-0.9-1.9-2.5-2.9-4.6-2.8
		c-1.9,0.1-3.9,0-5.7,0.4c-20,3.8-38.5,11-55.4,22.4c-8.5,5.7-15.8,12.6-21.3,21.4c-5.6,8.9-10,18.4-13.2,28.4
		c-2.3,7.2-3.7,14.5-3.1,22.2c0,0.5,0,1,0,1.6c0,0.8-0.4,1.3-1.2,1.3c-10.4,0.3-19.3-2.9-25.5-11.6c-3.6-5-6.3-10.4-7.9-16.4
		c-0.5-1.7-1.1-3.3-1.8-4.9c-2-4.6-4.1-9.2-6.1-13.9c-5.1-11.5-11.3-22.4-18.8-32.6c-19.8-26.7-45.3-46.3-74.9-60.8
		c-23.3-11.4-47.9-19.1-73.5-23.5c-1.4-0.2-2.8-0.3-4-1.7c6.3-0.8,12.5-1.8,18.6-2.4c9.4-1,18.7-1.8,28.2-2.4
		c15.3-1,30.7-1.7,46-1.8c15.9-0.1,31.8,0.1,47.7,0.9c8.2,0.4,16.4,0.9,24.6,1.4c4.9,0.3,9.8,0.7,14.6,1.2
		c11.5,1.2,22.9,2.4,34.3,3.7c9,1.1,18,2.2,27,3.6c11.7,1.8,23.4,3.8,35.1,5.9c18.2,3.3,36.3,7.1,54.4,11c2.5,0.5,4.6,1.5,6.5,3.1
		c5.2,4.3,11.2,7,17.6,9c7.2,2.2,14.5,3.8,21.9,5.2c10,1.8,19.9,3.7,29.5,6.9c2.7,0.9,5,0.4,6.5-1.9c1.1-1.7,2.1-1.7,3.9-1.2
		c11.8,3.1,23.6,6.1,35,10.6c8.6,3.4,17.3,6.5,25.5,10.8c7.3,3.8,14.4,7.9,20.7,13.2c6.2,5.3,10.4,11.8,11.6,19.9
		c1,6.8,0.5,13.6-0.1,20.4c-0.6,6.4-1.5,12.9-1.3,19.3c0.3,14.1,2,28.2,5.1,42c3.7,16.6,9,32.6,16.7,47.8
		c4.8,9.4,10.6,18.1,18.3,25.4c5.1,4.9,10.7,8.9,17.2,11.7c1.8,0.7,3.6,1.4,5.5,1.7c3.1,0.5,5-0.8,5.9-3.8c0.5-1.8,0.9-3.7,1.3-5.6
		c1.4-6.1,2.6-12.3,4.1-18.4c1.2-4.6,2.8-9,5.7-12.8c1.4,0.7,1.9,2.1,2.6,3.3c2.9,4.8,5.7,9.6,8.6,14.4c4.4,7.1,10.1,13,17.1,17.5
		c15.5,9.9,31.8,18.2,49.4,23.6c4.2,1.3,8.5,2.2,12.8,2.3c2.4,0.1,4.9-0.1,7.3-0.7c4.1-0.9,5.6-4.2,4-8c-0.5-1.3-1.2-2.5-1.8-3.8
		c-5-10.2-9.8-20.4-13.9-31c-2.7-7.2-5.1-14.5-6.4-22.1c-0.7-4.3-0.9-8.6-0.2-13.1c1.7,0.3,3.2,0.6,4.7,1c8.9,2,17.9,2.3,27.1,1.2
		c9.4-1.2,18.4-3.9,27.2-7.2c8.3-3.1,16.6-6.4,25-9.4c7.1-2.5,14.1-5.1,20.9-8.4c3.4-1.7,7-3.1,10.7-4.3c10.8-3.7,21.8-6,33.4-5.8
		c4.8,0.1,9.4,0.9,14,1.7c3.5,0.6,7,0.5,10.2-1.1c2.8-1.3,5.1-3,5.2-6.6c0-0.4,0.5-0.9,0.7-1.3v-10.5
		C2659.1,738,2656.9,737.1,2655,735.9 M1619.5,493.2c2.7-3.2,5.2-6.6,8-9.6c5.8-6.3,11.3-12.8,14.8-20.7c0.9-1.9,1.4-3.9,2.1-5.9
		c0.9-2.7,0.1-4.8-1.5-6.8c-0.4-0.5-1-1-1.4-1.5c-5.4-5.7-10.8-11.4-16.2-17.1c-6-6.4-9.2-14.3-11.6-22.5
		c-1.5-5.2-2.9-10.3-3.7-15.7c-1.5-10.9,0-21.2,4.9-31c0.2-0.5,0.5-0.9,1-1.7c1.8,2.9,3.2,5.3,4.6,7.6c3.1,5.3,6.7,10.2,11.2,14.4
		c5.2,4.8,11.2,6.8,18.2,6.4c2.9-0.2,5.3-2.4,5.6-5.3c0.6-5.4,1.4-10.7,1.2-16.1c-0.3-7.3,0.8-14.6,2.1-21.8
		c0.7-4.1,2.4-8.1,4.4-11.7c5.3-9.4,10.9-18.7,17.7-27.1c0.5-0.7,1.1-1.3,1.7-2c0.7-0.8,1.8-0.7,2.1,0.2c3.4,9.9,8.8,19,12.1,28.9
		c1.7,5,2.9,10,2.8,15.3c0,1,0,2.1,0.3,3.1c1.2,4.4,4.6,4.7,7.8,3.4c1.6-0.6,2.9-1.9,4.2-3c7.2-6.1,14.7-11.8,22.9-16.5
		c8.9-5.1,18.4-8.3,28.8-8.3c2.4,0,4.9,0.1,7.3-0.7c1.1-0.4,2.4-0.2,3.6-0.2c5.9,0,11.9-0.1,17.8-0.1c3.5,0,6.9,0,10.4-0.8
		c3.4-0.8,7,0.1,10.4-1c0.8-0.3,1.4,0.6,1.3,1.7c-0.8,5.7-2.6,11.2-4.2,16.7c-2.4,8.4-3.9,16.9-3.7,25.7c0.2,6.8-0.1,13.6,0.1,20.4
		c0.3,13-4.4,24.2-11.8,34.5c-4.6,6.4-10.2,12-16.6,16.6c-2.7,1.9-5.6,3.6-8.4,5.3c-1.3,0.8-2.7,1.6-4,2.5c-3.1,2.1-3.2,5.5-0.2,7.7
		c1.7,1.2,3.5,2.3,5.4,3.2c4.4,2,9.1,3.3,14,4c5.7,0.9,11.4,0.7,17.1,1.7c5.3,0.9,10.7,1.8,16.1,1.5c0.4,0,1,0.3,1.3,0.6
		c0.6,0.7,0,1.3-0.4,1.8c-1.8,1.9-3.6,3.8-5.6,5.5c-7.3,6.2-14.4,12.6-22.6,17.7c-6.5,4-13.3,6.9-20.7,8.4c-1.8,0.4-3.9,0.5-5.7,0.2
		c-2.7-0.6-5.6-0.5-8.3-1.1c-7.7-1.7-15.5-2.1-23.4-1.9c-2.7,0.1-5.1,0.9-7.5,1.9c-1.9,0.8-3.2,2.4-3.5,4.3
		c-0.4,2.6-0.6,5.2,0.5,7.7c2,4.7,4.8,8.9,7.9,12.9c1.6,2.1,4,3.3,6.3,4.6c1.2,0.7,2.4,1.4,3.7,2c0.5,0.3,0.8,0.6,0.8,1.2
		c-0.1,0.7-0.7,0.8-1.2,0.8c-15.3-1.4-30.3-4.2-44.2-11.3c-7.2-3.7-13.3-8.8-18.4-15.2c-3.9-4.9-7.7-9.9-10.9-15.3
		c-2.2-3.8-3.6-7.9-5.1-12c-0.8-2.2-0.4-4.5-0.4-6.8c0-1.2-0.1-2.4-0.9-3.5c-1.1-1.4-2.5-2-4.1-1.3c-0.5,0.2-0.9,0.4-1.4,0.7
		c-8.2,3.9-15.8,8.9-23,14.5c-3.6,2.8-6.8,6-9.5,9.7c-1.2,1.7-2.7,3.1-4.1,4.7C1617.4,495.5,1618.6,494.3,1619.5,493.2
		 M1208.5,317.9c0.6-6.1,2-12,4.1-17.7c3.3-9.1,7.9-17.4,13.6-25.2c5.1-7,11.5-12.6,18.3-17.8c4.2-3.2,7.9-6.9,11.3-10.9
		c2.9-3.5,5-7.5,4.7-12.4c-0.1-1.7-0.6-3.1-1.8-4.2c-0.3-0.2-0.5-0.5-0.7-0.8c-6.2-6.6-12.4-13.2-18.8-19.7
		c-7.3-7.5-12.8-16-15.9-26c-2.5-8-5-15.9-6.6-24.1c-1.5-8.1-2.1-16.3-1.3-24.5c1.1-10.4,3.8-20.5,9-29.8c1.1-2,2-4.1,3.9-5.4
		c2.4,1.3,2.7,3.9,3.7,6c3.9,8.8,8.4,17.2,14.4,24.8c3.4,4.3,7.4,7.9,12.4,10.3c2.8,1.3,5.7,2.5,9,2.5c1.2,0,2.4,0.4,3.6,0.6
		c3.9,0.7,6.9-1.2,7.8-5c0.9-3.9,1.5-7.9,2.3-11.7c1.2-5.9,0.1-11.9,1.8-17.6c-0.4-4.4,0.7-8.7,1.2-13c0.7-5.9,2.3-11.6,4.9-17
		c4.9-10.3,10.9-19.9,17.5-29.1c3.5-4.9,7.3-9.8,11.4-14.3c2.8-3.1,5.5-6.3,8.5-9.2c1-0.9,2.1-0.7,2.4,0.6
		c2.4,10.4,7.1,20,10.9,29.9c3,7.8,5.6,15.8,7,24c0.6,3.6,0.5,7.3,1.2,10.9c0.3,1.6-0.3,3.1-0.7,4.6c-0.6,2.4,0.9,4,2.5,5.3
		c1.7,1.3,3.6,1.3,5.4,0.3c1.2-0.6,2.4-1.5,3.5-2.3c9.4-7.3,19.3-13.7,29.6-19.7c9.2-5.4,19.1-9.4,29.6-11.6c4-0.8,8.2-1.6,12.4-1.5
		c5.9,0.1,11.9,0,17.8,0.1c3.1,0,6.3-0.2,9.4,0.7c1.3,0.4,2.8,0.2,4.2,0.2c11.4,0,22.7,0,34.1,0c2.4,0,4.9,0.1,7.3-0.7
		c1-0.3,2.1-0.3,3.1-0.3c3.2-0.1,3.8,0.7,3,3.7c-1.8,6.9-3.8,13.7-6.3,20.4c-3.2,8.6-6,17.4-7.2,26.6c-0.9,7.3-1.9,14.5-1.9,21.8
		c0,4.3,0.3,8.7-0.8,13c-0.4,1.5-0.2,3.1-0.2,4.7c0,13.4-3.9,25.7-11.2,37c-4,6.2-8.4,12-13.3,17.4c-9.2,10.3-20,18.3-32.4,24.2
		c-1.9,0.9-3.7,2-5.7,2.7c-3.2,1.1-3.3,6-0.6,7.8c2.5,1.6,4.9,3.4,7.4,4.9c6.1,3.4,12.7,5.5,19.7,6.6c7.9,1.3,15.8,2,23.6,3.8
		c5.9,1.4,11.9,2.3,17.9,3.2c3.1,0.5,6.3-0.2,9.4,1.6c0,1.1-0.6,1.5-1.1,2c-11.8,10.1-23.7,20-36.8,28.4
		c-11.8,7.5-24.6,12.3-38.2,15c-0.8,0.2-1.8,0.3-2.6,0.2c-8-1.4-16.1-2.8-24.1-4.5c-8.7-1.8-17.5-3.2-26.4-2.7
		c-1.9,0.1-3.8,0.4-5.6,1c-7.2,2.3-9,7.5-7.8,13.9c0.4,1.9,1.2,3.6,1.9,5.4c2.1,4.8,5,9.2,8,13.4c2.6,3.6,6.1,6.2,10,8.3
		c3.3,1.8,6.4,4,9.4,6.2c-0.2,1.3-1,1-1.7,1.1c-9.3,0.3-18.4-1.3-27.3-3.5c-10.6-2.7-21.1-6.2-31.1-10.8
		c-12.2-5.6-22.5-13.7-31-24.3c-7.3-9.2-13.5-19.1-18.4-29.7c-3.3-7.2-5.4-14.7-5.1-22.7c0.3-6.7-0.8-6.6-6.9-6.4
		c-4.2,0.1-8.2,1.6-12.2,2.7c-7.9,2.1-14.8,6.1-21.3,11c-12.6,9.5-21.1,22.1-26.7,36.7c-1.4,3.6-2.7,7.2-3.4,10.9
		c-0.1,0.5-0.4,1.1-1,0.9C1208.4,319,1208.5,318.4,1208.5,317.9 M1050.1,356.5c-9.3,3.2-18.7,5.7-29,5.5c-3.4,0.1-7.2-0.1-11-1.2
		c-9.4-2.7-15.1-9.7-15.4-19.4c-0.3-11.9,5.6-20.3,15.8-25.6c12.5-6.5,25.1-1.7,32.2,7.5c1.6,2.1,2.9,4.3,4,6.7
		c3.5,7.6,4.9,15.6,5.2,23.8C1052,355.2,1051.4,356,1050.1,356.5 M639.9,493.4c1.3-1.2,2.5-2.4,3.9-3.5c3.3-2.6,6.1-5.6,8.9-8.8
		c4-4.7,7.7-9.4,11-14.6c3.2-5,4.9-10.4,5.3-16.2c0.3-4.9-1.1-9.6-3-14.2c-2.2-5-5-9.6-8.3-13.9c-5.4-7-9.2-14.7-12.8-22.7
		c-3.7-8.1-6.4-16.6-8.6-25.2c-1.7-6.7-3-13.5-3.9-20.4c-0.8-5.4-0.8-10.8-0.9-16.2c-0.1-7.1,1.5-13.8,4.1-20.3
		c0.7-1.8,1.9-3.3,2.9-4.9c0.6-1,1.9-1,2.7,0c1.7,2.2,3.4,4.4,5.2,6.6c3.6,4.3,7.4,8.4,12.1,11.5c2.5,1.6,5.2,2.8,8.1,3.6
		c2.4,0.7,4.1,0.1,5.4-2c1.1-1.6,1.4-3.5,1.5-5.5c0.3-5,0.9-10,1.2-15.1c0.6-8.6,3.3-16.7,8.5-23.8c2.9-4.1,5.7-8.3,8.8-12.3
		c4.3-5.5,8.8-10.8,13.8-15.7c1.1-1.1,2.2-2.2,4.3-2.2c0,3.8,0.1,7.4,0.1,11.1c0,2.8-0.2,5.6,0.7,8.3c0.4,1.1,0.2,2.4,0.2,3.6
		c0.1,9.2,2.4,17.9,5.9,26.3c1.3,3.2,3.1,6.2,5.5,8.9c0.8,0.9,1.7,1.8,2.7,2.5c2,1.5,3.7,1.4,5.8-0.1c0.8-0.6,1.6-1.4,2.3-2.1
		c7.2-7.2,16.1-11.6,25.9-14.1c4.7-1.2,9.6-1.5,14.4-2.4c6.2-1.2,12.6,0.1,18.7-1.8c5.6,0.4,11.1-0.8,16.6-1.4
		c5-0.6,10.1-0.2,15-1.7c11.2-0.5,21.3-4.7,31.5-8.8c3.1-1.2,6.2-2.4,9.3-3.6c0.8-0.3,1.7-0.3,2.5-0.3c0.5,0,1.1,0.4,0.9,1
		c-0.4,1.9-0.7,3.8-1.5,5.5c-1.3,2.9-2.6,5.8-4.4,8.3c-6.3,9-10.1,19-12.6,29.7c-1.1,4.9-1.5,10-2.4,14.9
		c-1.1,5.9-0.1,11.9-1.7,17.7c-0.4,1.6-0.1,3.5-0.2,5.2c-0.1,3,0.2,5.9-0.8,8.8c-0.2,0.6-0.2,1.4-0.2,2.1c0.5,5.3-0.7,10.4-1.3,15.6
		c-1.2,10.1-5.4,18.6-14,24.6c-1.9,1.3-3.6,2.8-5.6,3.8c-0.5,0.2-0.9,0.5-1.3,0.8c-4.7,3.5-5,5.9-0.8,10.2
		c7.1,7.3,15.1,13.5,24,18.3c10.1,5.5,20.6,10.3,31.9,12.9c0.5,0.1,1,0.4,1.4,0.7c0.3,0.2,0.4,0.5,0.7,0.9c-0.4,0.5-0.8,1.1-1.3,1.5
		c-7,5.2-14,10.3-21,15.5c-4,3-8.1,6.1-11.9,9.4c-4.2,3.5-9.2,5-14.2,6.3c-3.5,0.9-7.2,0.9-10.8,1.3c-10.6,1.3-21.3,0.4-31.9,1
		c-3.8,0.2-7.6,0.7-11.3,2c-3,1-3.9,2.2-3.9,5.4c0,7.3,1.7,14.1,5.3,20.5c2.3,4,4.8,7.7,7.9,11c0.6,0.6,1.4,1.2,0.9,2.2
		c-0.5,0.9-1.5,0.7-2.3,0.7c-6.4,0.6-12.5-0.7-18.3-3.3c-9.1-4-17.6-9.3-25.2-15.7c-3.3-2.8-6.3-6-9.4-9.1
		c-5.1-5.1-10.1-10.2-15.2-15.2c-3.5-3.5-7.4-6.3-11.3-9.2c-3.7-2.7-7.9-4.4-12.1-6.1c-2.1-0.8-4.3-1.1-6.6-1.3
		c-7.1-0.4-13.9,0.8-20.3,3.7c-4,1.8-8,3.6-11.9,5.4c-4.4,2.1-8.9,3.9-13.6,5.5c-0.3,0.1-0.7,0-1-0.2
		C639.2,494.2,639.5,493.7,639.9,493.4 M447.1,439.7c-4.7-0.7-9.2-1.7-13.6-3.5c-2.6-1-5.1-2.3-7.2-4.2c-4-3.5-4.7-7.4-2.1-12.2
		c1.3-2.5,3.2-4.5,5.8-5.9c4.8-2.6,10-4.1,15.4-4.8c5.3-0.6,10,1.2,14.3,4.1c3.3,2.3,6.3,5,8.8,8.1c3.1,3.7,6.2,7.5,8.7,12.2
		C467.5,439.2,457.8,441.3,447.1,439.7 M288.3,734.2c1.5,0,2.1,0.8,2.5,2.1c1.5,4.4,2.5,9.3,2.4,13.8c0,6.5-1.7,12.4-5.7,17.5
		c-9.3,11.9-23.4,7.3-28.1-3.8c-2.1-5-2-10,0.9-14.6C266.7,739.1,276.1,734,288.3,734.2 M532,730.5c5.7,3.1,11.2,6.4,16,10.8
		c3.1,2.9,6.6,4.3,10.8,4.4c6,0.2,11.2-1.5,16.2-4.8c5.1-3.3,9.3-7.2,12.5-12.3c1.5-2.4,3.1-4.6,4.6-7c5.5-8.4,13-14.6,22.3-18.3
		c7.1-2.8,14.3-2.4,21.5-0.4c2.8,0.8,5.6,2,8.3,3.1c1.1,0.5,1.5,1.4,0.8,2.6c-2.3,4.1-3.7,8.6-5.3,13c-2,5.5-1.7,10.3,2.8,14.9
		c4,4.1,9,6.6,13.8,9.3c5.8,3.2,11.4,6.7,16.6,10.8c5.2,4,10,8.7,14.2,13.8c0.9,1.1,0.8,1.8-0.5,2.5c-2.2,1.1-4.3,2.2-6.6,3.3
		c-6.5,3-13.1,5.8-19.5,8.9c-3.4,1.7-6.7,3.7-9.8,6c-5.4,3.9-5.1,7.1-4.5,12.9c0.1,1.2,1.2,2.1,2,3c1.6,1.8,3.2,3.7,4.8,5.5
		c5.2,5.4,7.2,12.2,8.7,19.2c1,4.3,1.3,8.6,1,13c-0.3,6.3,0.6,12.6,1.4,18.7c0.9,7.4,3.3,14.6,6.4,21.4c0.5,1.1,1,2.2,1.4,3.4
		c0.1,0.4,0,1.1-0.3,1.4c-0.3,0.2-1,0.2-1.4,0c-13.6-5.8-27.6-10.6-41.7-15.2c-6.1-2-12-4.7-17.5-8.2c-2.1-1.3-3.9-2.9-5.7-4.6
		c-3.7-3.7-7.4-7.4-11.1-11.1c-3.1-3-6.8-4.7-11.3-4.4c-2,0.1-3.8,0.7-5.3,2c-2.5,2.2-4.7,4.5-6,7.8c-3.8,9.6-9.2,18.4-14,27.5
		c-0.9,1.7-2,1.8-3.3,0.5c-5.5-5.2-10.3-10.9-13.7-17.7c-1.4-2.8-2.3-5.8-2.7-8.9c-0.8-6.4-1.6-12.7-2.1-19.2
		c-0.2-2.9-1.1-5.9-2.2-8.6c-2.2-5.4-8.6-7.8-14-5.5c-1.9,0.8-3.8,1.8-5.2,3.4c-2.1,2.1-4.2,4.2-6.3,6.3c-1.7,1.8-3.8,3-6.3,3.6
		c-2.1-2.9-2.1-6.4-2.4-9.5c-0.8-8.6,0.2-17.1,4.1-24.9c2.3-4.7,5.1-9.1,8.6-13c6.1-7,13.8-11.6,21.9-15.9c4.6-2.5,9-5.3,12.7-9.1
		c2.1-2.1,3.1-4.7,3.7-7.4c0.5-2.2-0.5-4.5-1.3-6.6c-0.8-2.1-1.9-4.1-3.5-5.8c-4.6-4.5-8.8-9.5-14.1-13.2c-0.4-0.3-0.7-0.8-1-1.2
		C530.8,729.7,531.4,730.2,532,730.5 M658.7,645.9c-1,0-2.2-0.3-3.1,0.1c-3.3,1.4-6,0.1-8.9-1.1c-19.5-7.9-39.1-15.7-59-22.7
		c-20.6-7.2-41.4-13.5-62.8-17.8c-3.5-0.7-7.1-1.3-10.7-2c0.9-1.4,2.2-1.3,3.4-1.4c10.2-0.8,20.5-1.5,30.8-1.8
		c8.4-0.3,16.7,0,25.1,0.5c23.8,1.3,47.1,5.1,69.4,13.7c17.3,6.7,32.5,16.8,46,29.3c0.4,0.4,0.7,0.8,1,1.2c0.1,0.1,0,0.3-0.2,0.8
		c-4.3,0.5-8.7,0.8-13.2,0.9C670.6,645.8,664.7,645.8,658.7,645.9 M680.1,657.4c7.1-0.4,13.7-0.8,20.2-1.2c0.9-0.1,1.7,0.2,2.3,0.9
		c3.1,3.7,6.3,7.4,9,11.7C707,668.4,685.8,660.8,680.1,657.4 M1036.6,960.8c6.4-5.8,13.9-7.7,22.3-5.3c1.8,0.5,3.6,1.4,5.1,2.5
		c4.1,2.8,5.4,7.3,3.8,12c-0.8,2.4-2,4.5-3.9,6.1c-1.3,1.1-2.6,2.3-4.2,3.1c-9.8,5.3-20.4,6.4-32,5.5
		C1028.1,975.2,1029.8,967,1036.6,960.8 M900.3,840c4-3.4,8.4-6.1,13.4-7.9c3.3-1.2,6.7-1.7,10.2-1.6c3.3,0.1,5.7,1.5,7.3,4.2
		c1.9,3.1,2.5,6.5,1.9,10c-0.5,2.5-1.7,4.5-3.8,6c-1.9,1.3-3.9,2.2-6.1,2.9c-6.9,2.2-14,2.5-21.1,2.5c-2.8,0-5.5-0.3-8.7-0.5
		C893.2,848.8,895.7,843.9,900.3,840 M992.5,650.5c16.9-6.8,33.9-13.5,50.8-20.3c1.3-0.5,2.5-1.1,3.7-1.7c0,0,0-0.1,0-0.1l0,0.1
		c0,0,0-0.1,0-0.1c0,0,0.1,0,0.1,0.1c0.4,0,0.9-0.1,1.3-0.2c0.5-0.1,0.7,0,0.5,0.4c-0.1,0.2-0.5,0.4-0.7,0.3
		c-0.4-0.1-0.7-0.3-1.1-0.5c0,0,0,0-0.1,0c0,0,0,0,0,0c0.1,0.5,0.4,1.1,0.3,1.3c-0.9,0.8-2,1.4-3,2c-4.3,2.6-8.5,5.4-12.3,8.8
		c-4.2,3.8-7.2,8.4-9.6,13.6c-2,4.4-4.1,8.8-6.2,13.2c-0.9,1.8-1.5,2-3.2,0.8c-1.4-1-2.9-2-4.1-3.3c-4.8-5.3-10.8-8.7-17.3-11.4
		c-0.6-0.3-1.2-0.6-1.8-0.8C989.9,650.7,991.6,650.9,992.5,650.5 M1092.2,629.2c0.5,0,1.1,0,1.5,0.2c1.5,0.9,4,0,4.6,1.7
		c0.7,1.9-1.6,2.8-2.8,4c-2.2,2.3-4.4,4.5-6.7,6.7c-1.7,1.7-3.1,3.7-4.7,5.6c-4.8,6-5.9,12.8-5.2,20.2c0.1,0.9,0.3,1.7,0.5,2.5
		c1.1,3.7,1.6,4,5.5,4.2c7.6,0.4,14.9-1.1,22.2-2.7c7.6-1.7,15.2-1.9,22.9-1.4c3.1,0.2,6.2,1.1,9.1,2.1c9.3,2.9,18.6,6,27.3,10.6
		c0.5,0.2,0.9,0.5,1.4,0.8c1.2,0.7,1.3,1.7,0.3,2.5c-1.4,1.1-2.8,2.1-4.2,3.2c-5,3.7-10.1,7.4-15.1,11.2
		c-6.5,4.9-13.5,8.7-21.4,10.5c-2.5,0.6-3.6,2-4.2,4.1c-0.4,1.4-0.3,2.8,0.8,3.9c1.6,1.6,3.3,3.2,5,4.6c6.5,5.2,13.2,10.3,19,16.3
		c8.3,8.5,14,18.5,16.9,30.1c3.2,13,6.3,26,10.5,38.8c0.8,2.5,1.7,4.9,2.6,7.7c-2.3,0.8-4.1,0.5-5.8,0.5c-6.8,0-13.6,0-20.4-0.1
		c-6.1-0.1-12.1,0.8-18.1,2.1c-8.8,2-17.7,3.8-26.5,5.8c-3.8,0.9-7.7,0.9-11.5,0.3c-16.9-2.6-31.3-10.3-43.3-22.4
		c-2.1-2.1-4.1-4.3-6.3-6.3c-1.9-1.8-3.8-1.6-5.3,0.5c-0.6,0.8-1.2,1.8-1.5,2.7c-1.3,4.1-2.5,8.3-2.5,12.7c0,6.1,0.5,12.2,1.9,18.1
		c0.1,0.5,0.2,1,0.2,1.6c-0.3,4.9,1.4,9.6,1.2,14.6c-0.1,2,0.6,4.1,0.9,6.2c0.1,1.1-0.6,1.6-1.6,1.1c-0.6-0.3-1.2-0.7-1.8-1
		c-8.5-5.5-16.6-11.6-24.2-18.2c-6.3-5.4-11.1-12.1-15-19.3c-1.5-2.8-2.2-5.8-2.4-9c-0.5-7.8-1.3-15.6-2.1-23.4
		c-0.3-2.4-1.2-4.7-1.9-7.1c-0.7-2.8-2.5-4.9-4.5-6.9c-2.6-2.6-5.4-2.8-8.6-1.5c-2.1,0.9-4.1,2-5.7,3.7c-1.3,1.4-2.7,2.8-4.1,4
		c-4.3,3.7-6.8,8.4-7.7,13.9c-0.2,1-0.5,2-1.3,2.8c-1,0.1-0.7-0.9-1-1.4c-0.2-0.5-0.5-1-0.5-1.5c-0.5-3.4-1.2-6.9-1.3-10.3
		c-0.2-6.3-0.4-12.6,0-18.9c1-14.2,5.6-27.2,14.9-38.3c3.3-3.9,6.7-7.6,10.2-11.2c5.3-5.4,11.5-9,18.8-10.8c2.8-0.7,3.7-2.2,3-5
		c-0.3-1.2-0.9-2.3-1.4-3.4c-5.6-11.1-14.1-19.4-25.2-24.9c-5.6-2.8-11.7-4.6-18.2-4.7c2.8-1.8,2.8-1.7,4.9-1.9
		c13.6-1.1,25.3,3.7,35.8,11.9c2.2,1.7,4.3,3.6,6.5,5.3c1.1,0.9,2.3,1.7,3.5,2.2c7.2,3,11.1,2.3,14.7-4.7c2.2-4.2,4.2-8.4,6-12.8
		c2.1-5,4.7-9.8,8.7-13.5c2.1-1.9,4.4-3.4,6.8-4.8c7.2-4.3,14.3-8.6,22.4-11.2C1076.6,629.4,1084.3,628.9,1092.2,629.2
		 M1331.4,809.7c2.9,2.7,5.6,5.2,8.4,7.5c2.1,1.7,4.2,3.1,6.6,4.2c5.7,2.7,11.4,5.2,17,8c3.8,1.9,8.1,1.9,12.1,2.9
		c7.1-0.9,14.2-1.9,20.3-6c3.5-2.3,6.9-4.7,10-7.6c3.1-2.8,6.5-5.3,9.2-8.6c4.7-5.9,10.3-10.9,15.5-16.3c3.5-3.7,7.6-6.8,11.9-9.3
		c7.8-4.6,15.8-8.8,24.2-12.4c6.7-2.9,13.4-5.8,20.4-8.1c4.3-1.4,8.7-2.7,13.1-3.5c4.8-0.9,9.7-1.1,14.5,0.6
		c1.6,0.6,1.8,1.3,0.5,2.6c-1.6,1.6-3.2,3.2-4.8,4.8c-5.8,5.7-10.2,12.3-13,20c-1,2.8-1.9,5.6-2.1,8.6c-0.1,1.4-0.4,2.8-0.6,4.1
		c-0.7,4,0.9,6.8,4.7,8.2c4.3,1.5,8.7,2.3,13.2,3c5,0.8,10,1.4,15,2c0.5,0.1,1,0.1,1.6,0.1c8-0.1,16,1.1,23.9,2.3
		c10.6,1.6,20.6,5.3,29.2,11.9c1.2,1,2.4,2.1,3.4,3.2c4.6,5.1,10.1,9.2,15.1,13.8c6.7,6.1,13.7,11.9,20.5,17.9
		c0.3,0.3,0.5,0.9,0.5,1.3c0,0.7-0.6,0.8-1.1,0.9c-19.3,3.3-37.2,10.3-54.3,19.7c-7.2,4-13.7,8.9-20.1,14.1
		c-0.9,0.8-1.8,1.7-2.4,2.7c-2.1,3.2-1.4,6.7,1.9,8.6c5.5,3.2,10.1,7.4,14.5,11.9c4.9,5.1,7.3,11.3,8.6,18.1c1.1,5.9,1,11.8,1,17.7
		c0,10,0,19.9,0.1,29.9c0,1.9,0,3.8,0.5,5.7c0.4,1.5,0.4,3.1,0.4,4.7c0.1,4.7-0.1,9.4,0.2,14.1c0.3,5.4,1.2,10.7,1.7,16.1
		c0.5,5.4,1.5,10.7,2.9,15.9c2.9,11.4,7.1,22.2,12.6,32.6c1.3,2.5,2.6,4.9,3.3,7.7c0.3,1.1-0.3,1.8-1.4,1.4c-3.4-1.3-6.9-2.5-10.2-4
		c-4-1.8-7.9-3.7-11.7-5.8c-10.2-5.4-21.1-9.1-32.4-11.6c-5.1-1.1-10.2-2-15.5-2.3c-4.7-0.3-9.3-1.5-13.9-2.3
		c-5.6-1.1-11.3-2-16.9-2.9c-10.6-1.6-21.4-3-31.6-6.4c-8.1-2.7-15.8-6.5-22.5-12c-3.7-3-7.2-6.1-10-9.9c-2-2.8-6.8-3-9.3-0.6
		c-1.7,1.5-3.2,3.2-4.5,5c-5.6,7.8-9,16.5-11.3,25.7c-1.8,6.9-3.2,13.9-4.1,20.9c-0.5,4.5-1.5,8.9-1.4,13.5c0.1,2.7-0.7,5.4-1.1,7.9
		c-0.9,0.3-1.3-0.1-1.7-0.5c-1.9-1.8-3.8-3.6-5.5-5.6c-6.1-7.2-11.8-14.7-16.7-22.8c-4.2-7-8.8-13.8-11.7-21.6
		c-1.8-4.9-3.1-10-3.1-15.3c0-4.5-0.2-9.1,0-13.6c0.2-5.1-0.7-10.1-1.1-15.1c-0.2-2.5-1.9-4-4.5-4.2c-3.2-0.3-6.3,0.4-9.1,1.7
		c-4.6,2.2-8.9,4.8-12.6,8.4c-3.8,3.6-7.4,7.4-11.1,11.1c-1,1-1.9,2-3,3c-1.3,1.2-2.5,1.1-3.4-0.6c-2.9-5.4-4.8-11.2-5.5-17.3
		c-0.3-2.6-0.3-5.2-0.9-7.8c-0.3-1.3-0.4-2.9-0.1-4.2c1.4-4.7,0.8-9.7,1.6-14.5c1.3-7.2,2.5-14.4,4.5-21.4c2.4-8.6,5.3-17,8.7-25.2
		c3.7-8.7,7.9-17.1,12.7-25.2c1.2-2.1,2.6-4.1,3.9-6.2c3-4.9,6.4-9.6,9-14.7c2.9-5.7,5.3-11.7,5.7-18.3c0.2-3.1,1.2-6.2,0.9-9.3
		c-0.9-7.1-2-14.1-4.6-20.8c-4.1-10.2-8.5-20.2-14.2-29.7C1331.4,811.8,1330.8,811.2,1331.4,809.7 M1165.9,590.2
		c-0.6-1.3,0.2-1.8,0.8-2.4c2.1-2.5,4.4-5,6.3-7.7c6.1-8.3,14-14.6,22.4-20.3c2.2-1.5,4.5-2.6,7.1-3.3c2.9-0.8,3.6-0.6,5.3,1.9
		c1.6,2.3,2.8,4.8,3.7,7.5c1.4,4.3,2.8,8.6,4.3,12.9c1.4,4.1,3,8.1,4.8,13C1202,590.4,1184,589.2,1165.9,590.2 M1269.4,617.7
		c-6.9-1.5-13.3-4.3-19.2-8c-7.1-4.5-12.7-10.8-17.4-17.9c-3.7-5.8-6-12.1-8.1-18.6c-2-6.5-4.2-12.9-7.5-18.9
		c-1.1-2-2.4-3.8-4.1-5.4c-1.7-1.6-3.7-2.4-6.1-2.6c-5.4-0.4-10.5,0.6-15,3.5c-5.2,3.3-10.3,6.6-14.6,10.9c-0.5,0.5-1,1.1-1.5,1.4
		c-4.6,2.9-7.6,7.1-10.7,11.3c-1,1.4-2,2.8-4,4.1c0.4-3.9,3-5.8,4.6-8.1c4.9-7,11.4-12.8,17.5-18.7c1.5-1.4,3.4-2.4,5.1-3.6
		c3.2-2.4,6.1-5.2,8.1-8.8c2.9-4.8,2.6-10.2,1.7-15.3c-1.6-8.9-5.8-16.8-12.1-23.3c-2.8-2.9-5.5-5.8-8.6-8.5
		c-5.4-4.8-8.5-11-11.4-17.3c-3.1-6.7-3.7-13.7-3.2-20.9c0.1-0.9,0.1-1.8,0.4-2.6c2.1-6.3,4.5-12.5,8.4-18c0.3-0.4,0.6-0.8,1-1.2
		c1.1-1.2,1.9-1.4,3.1-0.4c4.4,3.7,9.6,6.4,14.4,9.5c2.4,1.6,5,2.2,7.9,2.2c3.9,0,7.2-1.4,10-3.9c3.6-3.3,7-6.8,10.1-10.6
		c3.5-4.3,7.7-8,11.6-12.1c5.3-5.6,11.3-10.4,17.8-14.5c2.1-1.3,4.3-2.4,6.4-3.5c1.2-0.6,1.8-0.3,2.3,1.2c1.3,3.4,1.7,7.1,2.6,10.6
		c1.8,7.4,3.9,14.8,5.6,22.2c1,4.5,2.9,8.6,5,12.6c3.1,5.9,9.8,8,15.6,5c2.3-1.2,4.5-2.7,6.7-4.1c4.6-3,9.6-4.9,15.1-5.1
		c1,0,2.1-0.2,3.1-0.5c1.7-0.5,3.5-0.5,5.2-0.4c6,0.7,12.1,1.4,18.1,2.3c4.5,0.7,8.8,1.8,13.4,1.8c0.9,0,1.8,0.1,2.6,0.4
		c2,0.7,4.2,0.9,6.2,0.5c5-0.9,10.1-0.5,15-1.7c2-0.5,4.1-0.4,6.2-1c1.8-0.5,3.6-1.4,5.5-1c0.7,2.5-1.6,3.5-2.7,5.2
		c-7.5,12.1-15.4,24.1-22.2,36.7c-3.2,6-6.9,11.7-11.2,17c-3.8,4.9-8.9,8.3-14.2,11.4c-5.1,3-10.1,6.3-14.1,10.8
		c-3.8,4.3-5.1,9-2.9,14.5c0.5,1.4,1.4,2.4,2.3,3.4c3.3,3.7,7.2,6.5,11.1,9.5c6.1,4.7,12,9.5,18,14.3c1.7,1.4,3.2,3.1,5,4.8
		c-3.3,3-6.9,4.6-10.3,6.7c-2.1,1.3-4.3,2.3-6.5,3.3c-4.9,2.3-10,3.9-15.6,3.5c-5-0.3-10.1,0.1-15.1-0.9c-3.2-0.7-6.6-0.5-9.8-1.1
		c-3.8-0.7-7.7,0.3-11.3,1.5c-4.7,1.5-7.3,6-7.6,10.9c-0.3,4.5,1.8,8.1,4,11.7c1.1,1.8,2.4,3.5,3.8,5c2.4,2.6,3.1,5.7,3.3,9
		C1280.6,619,1274.4,618.7,1269.4,617.7 M1682.5,714c5.3,1.2,10.5,2.3,15.4,4.7c5.3,2.6,10.8,2.2,16.2-0.3c4.9-2.2,8.9-5.6,12.2-9.7
		c4.2-5.2,7.7-10.8,10.7-16.7c3.4-6.5,6.7-13,10.2-19.4c3-5.5,6.6-10.7,11.4-14.9c4.5-4,9.6-6.6,15.7-7.8c5.2-1,10.4-0.8,15.6-0.8
		c0.7,0,1.4,0.1,2.1,0.2c1.2,0.3,2.3,1.5,2,2.7c-1.8,5.4-0.5,11.1-1.5,16.6c-1.2,5.9,1.7,10.5,6.6,13.8c3.2,2.1,6.8,3.6,10.6,4.3
		c9.9,1.8,19.7,4.3,29.2,7.7c7.1,2.6,13.9,5.6,20.1,10c0.4,0.3,0.9,0.5,1.3,0.9c0.8,0.6,0.9,1.5,0.3,2.3c-0.3,0.4-0.7,0.8-1.1,1.2
		c-6.7,5.4-12.9,11.1-19.1,17c-2.6,2.5-5.7,4.7-8.1,7.4c-2.4,2.7-4.8,5.5-6.5,8.8c-2.6,5.4-1.7,10.1,2.7,14.2
		c1.9,1.8,4.1,3.4,6.5,4.3c7.7,3,12.1,9.2,16,15.9c2.6,4.5,4.8,9.3,6.4,14.3c1.9,6,4.4,11.7,6.4,17.7c2.6,7.3,7,13.6,11.5,19.8
		c2.1,3,4.6,5.7,6.9,8.6c0.9,1.1,0.4,2.1-1,2c-3.5-0.1-7,0.4-10.4-0.8c-0.5-0.2-1-0.2-1.6-0.2c-9.3,0.3-18.4-1.7-27.7-1.2
		c-3.7,0.2-7.4,0.2-11-0.1c-7.4-0.6-14.9-1.1-22-3.6c-3.1-1.1-6.2-2.4-9-4.2c-4-2.5-8.2-4.6-12.5-6.6c-3.3-1.5-6.9-2.4-10.6-2.3
		c-2.2,0.1-4.1,0.7-5.8,2.1c-4.1,3.2-6.2,7.3-6.9,12.4c-1,7.4-2.3,14.7-3.6,22.1c-0.8,4.4-1.8,8.8-2.7,13.3c-0.4,2-1.3,2.5-2.9,1.6
		c-8.3-4.5-16.3-9.4-22.6-16.7c-1.2-1.3-1.9-2.9-2.8-4.4c-3.7-6.7-6.5-13.9-9.2-21.1c-1.8-4.8-4.7-8.5-8.4-11.8
		c-1.2-1.1-2.6-1.8-4.2-1.7c-0.2,0-0.3,0-0.5,0c-7.2-0.4-10,0.9-14,6.9c-2.2,3.2-4,6.6-5.4,10.2c-0.8,2.3-2.6,3.7-4.2,5.2
		c-0.6,0.5-1.3,0.2-1.8-0.3c-0.1-0.1-0.2-0.2-0.3-0.4c-3.2-5.4-6.5-10.7-7.4-17.1c-0.5-3.8-1.3-7.5-1.9-11.3c-0.1-0.9-0.2-1.8,0-2.6
		c0.9-5.5,1.3-11.1,3.1-16.4c1.8-5.1,4.3-9.9,7.1-14.5c2.9-4.6,6.5-8.7,10.4-12.4c5.2-5,9.8-10.4,13.5-16.5c2.4-3.9,3.1-8,1.5-12.5
		c-0.5-1.4-1.2-2.5-2.1-3.6c-4.7-5.4-10.3-9.3-16.9-12c-3.9-1.5-7.7-3.1-12.2-4.9C1678.9,712.6,1680.6,713.6,1682.5,714
		 M2017.3,757.5c5.7,1.2,11.5,0.6,17.2,0.5c2.6-0.1,4.1-2.6,3.6-5.3c-0.2-0.8-0.5-1.7-0.7-2.5c-1.6-7.1-0.7-11.9,1.2-19
		c2.6-10,7-19.3,12.4-28.1c5-8.1,11.7-14.7,19.7-19.9c10.9-7,22.4-12.8,34.8-16.7c1.1-0.4,2.2-1,3.6,0.2c-1.3,1.4-2.5,2.9-3.9,4.1
		c-2.8,2.5-4.9,5.4-6.4,8.8c-2.2,5.1-4.4,10.2-4,16c0.4,5.6,3,8.9,8.4,10.4c2.4,0.7,4.7,0.5,7.2,0.2c8.7-1.2,16.8-4.6,24.9-7.5
		c1.6-0.6,3.3-1.1,4.9-1.8c5.9-2.7,12.1-3,18.5-2.5c2.8,0.2,5.5,0.8,8.2,1.5c11.9,3.1,23.2,7.6,33.6,14c3.3,2,6.7,3.8,10,5.6
		c0.6,0.4,1.3,0.8,1.2,1.5c-0.1,0.7-0.8,1.1-1.5,1.3c-9.2,3.2-18.4,6.3-27.7,9.5c-2.8,1-5.6,1.9-8.4,2.8c-3,0.9-5.8,2.3-8.4,4.2
		c-3.3,2.3-6.4,4.8-9.3,7.5c-2.4,2.3-2.1,5-1.5,7.8c0.1,0.6,0.7,1.2,1.3,1.5c1.1,0.6,2.2,1,3.4,1.3c13,3.4,24.8,9.4,35.1,17.9
		c8.8,7.3,15.9,16.1,20,27c1.7,4.4,2.6,9,3.7,13.6c1.9,7.6,3.4,15.2,5.3,22.8c2.3,9.6,5.9,18.5,11,27c2.3,3.9,4.2,8.1,6.1,12.1
		c0.6,1.3,0.2,2.1-1.1,2.2c-14.6,1.2-28.8,4.4-43.1,7.1c-5.4,1-10.9,1.9-16.4,2.7c-9.4,1.3-18.3-0.6-27.2-3.1
		c-11.1-3.1-21.5-8.1-31.8-13.3c-2.1-1-4.1-1.9-6.5-1.8c-3.9,0.2-7.1,3.7-6.1,7.4c0.9,3.2,0.5,6.6,1.5,9.8c0.5,1.6,0.4,3.5,0.1,5.2
		c-1,5.8-1,11.8-2.4,17.5c-1.4,5.7-2.4,11.6-3.6,17.3c-0.4,1.8,1,4.4-1.2,5.1c-1.6,0.5-2.7-1.9-4.2-2.7c-1.2-0.7-2.2-1.7-3.2-2.7
		c-5.7-5.7-11.5-11.2-17-17.1c-5.1-5.5-10.1-11.1-13-18.2c-2-4.9-3-10-4.4-15c-1.7-6-3.4-12-5.1-18.1c-0.8-2.7-2.1-5.2-3.4-7.6
		c-1.1-2-2.8-2.9-5.1-3c-5.3-0.2-9.9,1.4-14.2,4.3c-4.6,3.1-7.8,7.4-10.3,12.2c-2.3,4.5-4.2,9.2-5.7,14c-0.8,2.5-1.6,5-2.5,7.8
		c-1.9-0.9-2.8-2.1-3.7-3.5c-4.8-7.6-7.7-16-9.4-24.7c-0.2-1.2-0.2-2.4-0.2-3.7c0-5.1-0.2-10.1,0-15.2c0.4-7.6,1.3-15.2,3.9-22.5
		c2-5.6,4.8-10.8,7.9-15.9c2.9-4.7,6.3-9.2,8.8-14.2c1.3-2.6,1.7-5.4,0.9-8.1c-0.7-2.3-1.8-4.5-2.9-6.7c-2-4-5-7.5-7.6-11.2
		C2015.5,757.1,2015.5,757.1,2017.3,757.5 M2006.8,566.5c-0.9,2.1-0.9,2.1-3.1,2c-5.9-0.5-11.8-0.9-17.7-1.5
		c-9.6-0.9-19.1-1.4-28.7-2c-18.7-1.2-37.3-1.1-56-1c-14.1,0.1-28.2,0.9-42.3,2c-14.3,1.1-28.5,2.7-42.7,4.7
		c-7.8,1.1-15.5,2.5-23.5,3.8c0.5-1.3,1.5-1.8,2.4-2.4c17.3-11.4,32.9-24.7,47.6-39.2c12.8-12.6,25-25.9,37.1-39.1
		c14.7-16.1,30.2-31.5,46.7-45.8c30.7-26.5,65.1-46.8,103-61c1.6-0.6,3.3-1.2,4.9-1.8c0.3-0.1,0.7,0,1.2,0c0.6,2.5,1.1,5,1.8,7.5
		c4.3,14.4,10.5,27.7,21.3,38.5c2.7,2.7,5.2,5.7,7.8,8.5c6.3,7,10.5,15.2,12.9,24.3c1.2,4.4,1.8,8.9,1.2,13.4
		c-0.6,4.2-2.5,7.6-5.6,10.3c-0.7,0.6-1.3,1.2-2,1.6c-10.5,6.2-18.7,15.2-26.9,24c-10.6,11.4-20.6,23.3-29.5,36
		C2012.9,554.8,2009.4,560.4,2006.8,566.5 M2105.7,583.9l-51-8.8c-8.6-1.3-17.3-2.5-25.8-3.7c-0.6-1.1,0.3-1.6,0.8-2.2
		c8.7-9.1,17.8-17.7,25.9-27.4c0.7-0.8,1.4-1.6,2.2-2.2c9.3-7.9,19.1-15.3,30.1-20.8c3-1.5,6-2.8,9.3-3.2c5.3-0.6,6.4,0.4,8.6,4.1
		c3.3,5.8,5.3,12.1,7,18.5c1.6,6.4,3.1,12.9,4.9,19.2c2.9,10.3,7.2,20,12.9,29.1c0.4,0.6,0.6,1.2,1.2,2.3
		C2122.6,587.5,2114.2,585.4,2105.7,583.9 M2213.4,616c-12.2-2.6-24.5-5.1-36.7-7.8c-9.8-2.2-17.9-7-25.3-13.9
		c-9.1-8.7-14.9-19.2-19.8-30.5c-3.5-8.2-5.4-16.9-7.3-25.5c-1.9-8.4-4.6-16.4-8.7-24c-1.4-2.7-3.4-4.9-5.7-6.8
		c-2.5-2-5.4-3-8.7-3.1c-7.6-0.3-14.3,2.2-20.9,5.6c-8.6,4.4-16.3,10.1-23.9,16c-4.2,3.3-8.3,6.8-11.8,11
		c-4.7,5.6-9.4,11.3-14.9,16.2c-0.6,0.5-1.1,1.2-2.3,1.3c1.1-3.4,3.5-5.8,5.5-8.2c4-4.9,7.9-9.7,11.9-14.6
		c4.7-5.7,9.9-10.8,14.8-16.2c5.2-5.8,11-11.1,17.8-15.3c6.6-4.1,11.5-9.5,13.6-17.2c0.3-1,0.6-2,0.7-3c0.8-10.1-0.6-19.8-4.9-29
		c-3-6.4-6.5-12.3-11.1-17.6c-3.3-3.8-6.8-7.5-10.3-11.2c-6.7-7.1-11.3-15.5-14.5-24.6c-1.4-4.1-2.8-8.3-3.7-12.5
		c-2.5-11.5-1.8-21.9,3.5-33.1c2.7-5.7,5.5-11.3,9.1-16.5c2-2.9,4.5-5.3,7.2-7.8c1.6,1.2,3.3,2.2,4.7,3.5c4.2,3.9,9,7.2,13.7,10.5
		c2.4,1.7,4.8,3.5,7.2,5.2c4.3,3.1,9.1,3.2,14,2c4-1,7.5-3,10.6-5.6c5-4.3,10.4-8.2,14.3-13.8c1.4-2,3.2-3.7,5.2-5.2
		c3-2.2,5.4-4.9,8.2-7.4c7.9-7.2,16.3-13.6,25.4-19.2c5.6-3.5,11.5-6.6,17.7-9c2.5-0.9,2.7-0.8,3.6,1.9c1,3,1.6,6,2.1,9.1
		c1.2,7.4,2.1,14.8,3.7,22.1c1.5,6.4,2.4,13,3.5,19.5c0.9,5.5,2.8,10.8,4.6,16c1.4,3.9,4,7,7.2,9.5c3.4,2.6,7.3,3,11.4,1.9
		c5-1.3,9.2-4,13.6-6.5c5.5-3.2,11.3-5.3,17.7-5.6c3.1-0.1,6.2-1.1,9.3-0.9c5.6,0.3,11.1,1,16.6,1.7c9.2,1.2,18,3.9,27,5.8
		c6.8,1.4,13.6,2.8,20.6,3c4.2,0.2,8.2,0.1,12.4,0c7.2-0.1,14.2-1.4,21.2-2.9c4.6-1,9.1-2.1,13.7-3.1c0.4-0.1,1.2,0.1,1.3,0.3
		c0.2,0.4,0,1-0.3,1.4c-5.8,7.6-11.7,15.2-17.4,22.9c-10.2,13.7-20.1,27.6-29.1,42.1c-6.6,10.5-14.3,20.3-23.7,28.4
		c-4.6,4-10,6.9-15.4,9.9c-4,2.2-8,4.3-11.9,6.6c-4.7,2.8-8.8,6.2-12.3,10.4c-5,6-4.6,13.6-1.2,19.6c1.8,3.2,4.2,6,7.2,8.2
		c1.8,1.4,3.4,2.9,5.2,4.4c11.2,9,21.3,19.1,31.3,29.3c2,2,4.7,3.6,5.6,6.6c-2,2-4.6,3.1-7,4.4c-8.4,4.6-17.1,8.7-26.3,11.5
		c-4.4,1.3-8.7,2.2-13.3,2.2c-6.6,0-13.2-0.6-19.7-1.9c-6.1-1.3-12.3-2.3-18.5-3.2c-2.9-0.4-5.9-0.9-8.8-0.9
		c-3.9-0.1-8.2,0.2-11.7,2.1c-6.3,3.5-10.8,10.1-9,18.4c1.1,4.9,3.4,9.1,5.9,13.3c1,1.6,2,3.3,3.2,4.8c3,3.9,4,8.5,5,13.1
		C2215.7,615.6,2215,616.3,2213.4,616 M2649.6,747.3c-0.1,1.6-0.7,2.3-2.2,2.4c-2.4,0.1-4.9,0.2-7.3-0.4c-2.5-0.6-5.1-1.1-7.7-1.4
		c-1-0.2-2.2-0.2-3.1,0.1c-2.1,0.7-4.1,0.7-6.2,0.7c-8.4,0-16.6,1.8-24.6,4.1c-7.5,2.2-14.9,4.8-22,8.4c-1.7,0.9-3.5,1.5-5.3,2.1
		c-9.8,3.1-19.3,7.1-28.9,10.8c-7.6,2.9-15.2,6-23.3,7.6c-4.4,0.9-8.8,1.7-13.4,1.8c-8.8,0.2-17.4-0.8-25.7-3.7
		c-0.3-0.1-0.6-0.3-1-0.4c-4.6-1-7.3,0.7-7.5,5.3c-0.2,3.3-1.3,6.5-1.2,9.8c0.3,8.2,1.7,16.2,4,24.1c3.4,11.6,7.8,22.7,13.2,33.5
		c0.8,1.6,1.5,3.1,2.2,4.7c0.5,1.2-0.1,2-1.5,1.9c-1-0.1-2.1-0.3-3.1-0.5c-5.3-1-10.3-3.2-15.3-5.2c-12.3-4.9-24.1-11.1-35-18.7
		c-6.2-4.4-11.3-9.9-15.2-16.3c-3.5-5.6-6.8-11.4-10.2-17.1c-0.7-1.2-1.5-2.4-2.3-3.5c-2.6-3.5-6.5-3.9-9.3-0.7
		c-3.3,3.8-6.4,7.8-8.4,12.5c-2.3,5.5-3.6,11.2-5.1,17c-0.8,3-1.4,6.1-2.2,9.1c-0.3,1.2-1.3,1.6-2.5,1.1c-3-1.4-5.6-3.4-8.2-5.6
		c-10.3-8.9-16.9-20.3-22.5-32.4c-2.7-6-4.8-12.3-7-18.6c-3.2-9.2-5.2-18.8-7-28.3c-1.1-6-1.7-12-2.4-18.1
		c-0.6-5.6-0.7-11.1-0.8-16.7c0-2.6-0.2-5.3,0.8-7.8c0.1-0.2,0.1-0.3,0.1-0.5c-0.2-7.3,1.8-14.6,1.1-21.9
		c-0.7-7.1-1.3-14.2-5.1-20.6c-2.5-4.2-5.5-7.9-9.2-11.2c-9-7.9-19.3-13.7-30-18.9c-1.1-0.5-2.2-1-3.4-1.5c-1-0.4-2-0.6-3.1-2.1
		c1.6,0.1,2.7,0,3.7,0.3c6.1,1.3,12.3,2.2,18.5,3.1c5.9,0.9,11.8,0.9,17.7,0.8c7.4-0.1,13.8-2.8,19.4-7.8
		c8.2-7.3,13.2-16.6,17.4-26.5c4.5-10.6,7.8-21.6,11-32.6c2.8-9.5,6-19,10.2-28c3.5-7.6,8-14.7,13.1-21.4c5.4-7.2,12-13.1,19.4-18.1
		c2.2-1.5,4.7-2.3,7.3-2.8c1-0.2,2.1-0.3,3.1,0.8c-0.4,1.7-0.8,3.6-1.4,5.4c-2.7,8.1-3,16.4-2.5,24.8c0.4,5.4,2.1,10.5,4.7,15.4
		c2.2,4.2,4.2,4.5,8.2,3.6c3.9-0.9,7.7-2.1,11.4-3.6c7.2-2.7,14.1-5.9,21-9.4c7.9-4,16-7.7,24.6-10.2c5.9-1.7,11.8-3.1,18-2.8
		c1.6,0.1,3.1,0.2,4.6,0.7c8.3,2.6,16.9,3.9,25.4,5.6c9.7,1.9,19.5,3.6,29.2,5.4c0.5,0.1,1.1,0.3,1.1,0.9c0,0.3-0.2,0.7-0.4,0.9
		c-5.3,4.5-10,9.7-15,14.6c-8.1,7.8-14.4,17-20.4,26.4c-4.9,7.6-9,15.8-12.1,24.3c-0.7,1.9-1.6,3.9-1.6,6c-0.1,3.5,1.3,5.2,4.8,5.5
		c4.8,0.4,9.7,0.9,14.4,2.2c4.9,1.3,9.7,2.9,13.9,5.9c4.3,3.1,7.9,6.8,11.1,11c3.4,4.5,5.8,9.5,8.7,14.3c2.9,4.8,5.6,9.7,8.4,14.4
		c5.9,9.9,11.8,19.7,17.8,29.6c5,8.2,10.2,16.3,16.5,23.5c5.9,6.9,12.4,13.3,19.4,19c4.5,3.7,9.3,6.8,14.1,10
		C2649,744.4,2649.7,745.5,2649.6,747.3"/>
	<path class="st0" d="M2609.2,719.3c-0.7-0.6-1.4-1-2.2-1.5c-4.1-2.7-8.1-5.4-12.2-8.1c-11.8-7.8-23.7-15.4-36.5-21.3
		c-11.8-5.4-23.9-9.5-37-10.1c-0.7,0-1.4-0.1-2.1-0.3c-6.4-1.3-12.9-0.8-19.3-0.4c-3.1,0.2-6.2,0.6-9.3,0.7
		c-3.8,0.1-7.7-0.1-11.5,0.1c-6.2,0.3-12.1-0.8-17.9-2.9c-7.7-2.8-15.6-5-23.5-6.9c-6.2-1.5-12.6-2.7-18.5-5.3
		c-7.4-3.1-14.7-6.4-21.7-10.3c-9.1-5.1-18.1-10.5-27.6-15c-0.6-0.3-1.3-0.6-1.4-1.4c1.1-0.9,2.5-1.2,3.9-1.2
		c5.6,0,11.1-1.2,16.5-2.5c16.1-3.8,32-8.1,47.4-14.3c7-2.8,13.8-6,19.8-10.5c5.6-4.1,11-8.6,15.8-13.6c3-3.1,5.9-6.4,8.9-9.6
		c5.6-6,11.3-11.9,17.7-17c11.1-8.9,22.9-16.4,36.1-21.8c0.8-0.3,1.6-0.7,2.3-1.1c1.8-1.2,2.9-3.9,2.2-5.4c-1.2-2.7-3.9-4.2-6.8-3.5
		c-1.7,0.4-3.3,1.1-4.9,1.8c-6.7,3-13.1,6.6-19.3,10.5c-10.9,7-21,14.9-30,24.3c-5.3,5.5-10.3,11.4-15.8,16.8
		c-8.8,8.7-19,15.2-30.5,19.9c-11.3,4.6-23,8.2-34.8,11.2c-10.6,2.7-21.2,5.4-32.3,5.5c-1.8,0-2.9,0.9-3.7,2.5
		c-0.7,1.3-0.8,2.6-0.3,4c0.4,1-0.2,1.7-1.2,1.8c-1.9,0.1-3.4,0.9-4.2,2.6c-1.3,2.6-0.3,5.5,2.2,7.1c0.6,0.4,1.2,0.7,2.1,1.3
		c-2.9,4.3-2.9,4.3-1.5,8.9c0.3,1,0.7,2,1,3c4.2,12.2,8.3,24.4,14.5,35.8c1.8,3.2,3.8,6.2,6.3,8.9c5,5.5,10.3,10.9,15.3,16.5
		c3.4,3.7,6.9,7.4,10.1,11.3c7.9,9.9,13.9,20.8,18.9,32.5c5.4,12.7,9.5,25.8,14.3,38.7c1,2.8,2.1,5.5,3.2,8.3
		c0.6,1.6,1.8,2.4,3.6,2.5c4.1,0.1,6.8-3.6,5.3-7.4c-1.5-4.1-3.2-8.1-4.6-12.2c-3.7-10.5-7.4-21-11.6-31.4
		c-3.8-9.2-8.1-18.1-13.5-26.6c-6.2-9.8-14.1-18.2-22-26.5c-2.2-2.3-4.5-4.4-6.6-6.7c-6.7-7.2-12.2-15.2-15.8-24.4
		c-2.3-5.8-4.2-11.8-6.2-17.8c-0.9-2.6-1.8-5.3-2.6-7.9c-0.2-0.7,0.6-1.5,1.2-1.2c0.7,0.2,1.3,0.5,1.9,0.8c9.6,5,19.3,9.8,28.7,15.1
		c5.5,3.1,11.3,5.4,17,8c4.1,1.9,8.5,3,12.9,4c6.4,1.5,12.9,2.6,19.2,4.9c2.8,1,5.6,1.8,8.4,2.7c7.8,2.5,15.8,4.3,24.1,3.9
		c3.5-0.2,7-0.8,10.4-0.8c10.8-0.1,21.6-1.1,32.4,0.7c4.8,0.8,9.6,1.7,14.2,3.1c13.8,4.1,26.5,10.7,38.5,18.4
		c8.4,5.4,16.6,10.9,24.9,16.3c0.9,0.6,1.7,1.2,2.7,1.6c1.7,0.8,3.3,0.6,4.8-0.7C2612.7,724.6,2612.7,722.2,2609.2,719.3"/>
	<path class="st0" d="M1386.5,983.7c-0.5,3.9-0.9,8-1.5,11.9c-1.9,11.8-4.4,23.6-6.7,35.3c-0.4,2.3-0.5,4.5-0.4,6.8
		c0.1,2.3,1.7,4.1,3.7,4.4c2.3,0.3,5.1-1.4,5.7-3.6c0.8-3.6,1.5-7.1,2.1-10.7c1.6-8.9,3-17.8,4.6-26.7c1.4-7.9,3-15.7,2.9-23.8
		c0-1.2,0-2.5,0.3-3.6c0.6-1.9,0.6-3.8,0.6-5.7c-0.2-7.1-0.9-14.2-1.9-21.3c-1.2-7.7-2.5-15.4-4.7-22.9c-2.2-7.3-3.6-14.8-3.7-22.6
		c0-3.9,0.7-7.6,1.2-11.4c1-7.7,2.8-15.4,4.3-23c0.1-0.7,0.4-1.3,0.6-2c0.2-0.7-0.3-1.8,1-2c1.1,0.4,1.6,1.3,2.2,2.2
		c2.7,4.3,5.4,8.6,8,12.9c5.7,9.6,11.4,19.2,18.2,28.1c4.2,5.6,8.7,10.9,14.2,15.3c3.1,2.6,6.2,5.2,8.7,8.3c4.3,5.3,9.3,10,14,14.9
		c3.3,3.5,7.2,6.1,11.2,8.5c3.7,2.3,7.6,4.3,11.5,6.3c8,4.2,15.8,8.9,23.3,14.1c9.6,6.6,17.5,14.9,24.2,24.3
		c5.9,8.3,10.7,17.2,15.3,26.1c3.9,7.6,7.4,15.4,11.2,23.1c0.6,1.2,1.1,2.5,2.2,3.5c1.5,1.4,3.1,1.5,4.8,0.8
		c1.7-0.7,3.1-1.6,3.3-3.7c0.2-2.2-0.5-4.1-1.4-6c-4-7.9-8-15.9-11.9-23.8c-4.9-9.9-10.5-19.3-16.8-28.3c-6.6-9.4-14.8-17.1-24-23.9
		c-11.1-8.2-23.3-14.6-35.6-20.9c-6.5-3.3-11.9-8-16.5-13.5c-2.2-2.7-4.5-5.3-7-7.8c-4.5-4.6-9.1-9.2-13.7-13.7
		c-8.2-8-14.7-17.2-20.6-26.9c-6.1-10-11.7-20.2-18.3-29.9c-0.4-0.5-1-1.1,0-1.8c5.3,2.5,10.8,4.8,16.4,6.8c11.4,4,23,6.7,34.7,9.5
		c11,2.6,22.1,4.3,33.6,4.2c7.4-0.1,14.6-1.1,21.7-2.9c8.8-2.2,17.4-4.9,26.1-7.3c11.8-3.2,23.8-5.2,36.1-4.7c3.5,0.1,7,0,10.5,0.1
		c3,0,5.9-0.1,8.8,0.8c1.3,0.4,2.8,0.2,4.2,0.2c1.3,0,2.3-0.7,3-1.8c2.3-3.7,0.3-8.4-4.1-8.5c-5.8-0.1-11.4-1.5-17.2-1.3
		c-6.3,0.3-12.5,0.3-18.8,0.9c-6.4,0.7-12.7,1.6-19,3c-9.2,2-18.1,4.9-27.2,7.4c-7.9,2.2-15.8,4.1-24.2,3.6
		c-2.8-0.2-5.6-0.1-8.4-0.1c-4.9,0.1-9.7-0.8-14.5-1.8c-6.8-1.4-13.6-3-20.3-4.6c-9.6-2.4-19.1-5.3-28.4-9c-2.9-1.2-5.7-2.6-8.6-3.8
		c-4.4-1.9-6.5-1.1-8.7,3.4c-0.1,0.2-0.2,0.3-0.5,0.6c-2.5-2-4.9-2-7.3,0.5c-2.9,3-1.2,5.7,0.3,8.4c-4.6,2.8-4.7,2.8-5.7,8
		c-1.6,7.7-3.2,15.3-4.3,23c-0.4,3.3-1.3,6.5-1.3,9.8c0.1,3.7,0,7.3,0,11c0,2.8,0.3,5.5,0.9,8.3c0.9,4.2,1.6,8.5,3,12.7
		c0.7,2.1,1,4.4,1.5,6.6c1.1,4.9,1.7,9.9,2.4,14.9c0.9,6.7,2,13.4,1.8,20.2C1387.2,974,1387.1,978.8,1386.5,983.7"/>
	<path class="st0" d="M1281.9,178.2c2.4,3,5,5.8,7.6,8.6c2.2,2.3,3.6,5.1,4.6,8.1c1.6,5,1.3,10.1,0.5,15c-0.6,3.9-0.8,7.6-0.4,11.4
		c0.2,1.5-0.2,2.2-1.3,3c-3.5,2.6-7,5.2-10.4,7.9c-1.5,1.2-3.1,2.3-4,4.1c-0.3,0.7-0.1,1.4,0.6,1.8c0.4,0.3,1,0.6,1.4,0.5
		c0.6-0.2,1.2-0.6,1.8-1c5.6-3.6,11.1-7.2,16.7-10.8c2.1-1.4,2.2-1.4,3.6,0.8c0.9,1.4,2.3,2.1,3.7,2.8c2.5,1.3,5.1,2.4,7.4,3.8
		c6.3,3.8,10.5,9.7,14,15.9c1.6,2.7,3.1,5.4,5.1,7.9c4,5,8.6,9.1,14.5,11.7c3.8,1.7,7.8,2,11.8,1.6c2.7-0.3,4.2-2.5,4-5.8
		c-0.1-2.6-1.1-3.5-4-3.6c-7.2-0.2-12.5-3.8-16.8-9.3c-2.4-3-4.5-6.2-6.5-9.5c-5.4-9-12.2-16.5-22.1-20.7c-1.2-0.5-2.6-0.9-3.4-2.1
		c0.6-1.7,2.2-2.2,3.6-3c1.9-1.1,3.7-2.3,5.1,0.7c0.2,0.5,1.2,0.9,1.8,0.9c3-0.1,5.9,1,8.8,1c3.4,0,6.5,0.9,9.7,1.8
		c9.4,2.8,18.1,7.2,26.3,12.6c12,7.8,25.3,11.4,39.3,12.9c1.9,0.2,3.9,0.2,5.8,0c2.5-0.3,3.9-2.3,3.9-5.3c0-2.7-1.4-4.5-3.7-4.9
		c-1-0.2-2.1-0.1-3.1-0.1c-3.8-0.1-7.6-0.2-11.4-1c-7.2-1.6-14.1-3.7-20.4-7.6c-5.5-3.4-11.1-6.5-16.8-9.6c-9.3-5-19.3-8-29.9-9.3
		c0.4-1.4,1-1.6,1.6-2c10.4-6.5,21.3-12,32.4-17c6.4-2.9,12.4-6.3,18.3-10.1c4.9-3.3,9.7-6.9,14.7-10c6.6-4.2,12.9-8.9,19.3-13.5
		c7.6-5.5,14.9-11.5,22.1-17.5c6-5.1,11.6-10.5,17.4-15.8c4.1-3.7,8-7.8,11.5-12.1c3.1-3.8,6.8-7,9.7-11c2.5-3.4,5.1-6.6,7.7-9.9
		c0.6-0.7,0.9-1.5,0.7-2.4c-0.6-2.8-3.9-4.1-6.2-2.4c-0.8,0.6-1.5,1.4-2.3,2.2c-3.6,3.6-6.9,7.4-10.3,11.1c-4.8,5.1-9.9,9.8-15,14.6
		c-8.1,7.4-16.1,15-24.5,22c-4.5,3.8-9.1,7.6-13.8,11.2c-8.9,6.7-17.8,13.5-26.8,19.9c-6,4.3-12,8.5-18.4,12
		c-9.7,5.5-20,9.9-29.5,15.7c-0.3,0.2-0.7,0.2-1,0.1c-0.5-0.3-0.5-0.9-0.3-1.4c2.2-4.4,3.1-9.2,4.2-14c0.9-3.9,1.7-7.8,1.7-11.8
		c0-4.1-0.9-7.9-1.6-11.9c-0.5-2.9-1.4-5.8-1.4-8.7c0-2.9,0.7-5.9,1.6-8.7c1.3-4.2,2.9-8.2,4.5-12.2c0.6-1.5,1.1-2.9,1.1-4.5
		c0-4-1.5-5.4-5.5-5c-1.5,0.2-2.7,0.9-3.4,2.1c-0.8,1.3-1.5,2.8-2.1,4.2c-1.8,5.3-3.6,10.6-5.4,15.8c-0.5,1.4-0.4,2.7-0.5,4.1
		c-0.3,6.1,0.5,12.1,1.6,18.2c0.8,4.1,0.8,8.4,0.1,12.5c-1.1,6.5-2.5,13-6,18.8c-1,1.7-1,3.3,0,4.9c0.3,0.4,0.6,0.9,0.8,1.3
		c1,1.7,0.9,2.2-0.8,3.3c-2.5,1.6-5.1,3.1-7.5,4.7c-3.8,2.5-7.4,5.2-11.2,7.8c-1.2,0.8-2.2,0.4-2.2-0.8c0-2.4-0.5-5.1,0.2-7.3
		c1.5-4.7-0.1-9.1-0.7-13.4c-0.8-4.8-3.2-9.1-6.8-12.8c-4.7-4.9-9.1-10.1-11-16.9c-0.4-1.3-1.1-2.5-2.2-3.5
		c-1.9-1.6-3.9-1.3-5.9-0.5c-1.7,0.7-2.2,2.2-2,3.9C1276.6,168.6,1278.3,173.8,1281.9,178.2"/>
	<path class="st0" d="M2174.6,543.6c-3.1-3.3-6.7-6.1-10.1-9.1c-4.8-4.4-9.2-9.1-13.8-13.6c-5.8-5.6-11.1-11.5-15.9-18.1
		c-3.2-4.4-6.3-8.8-8.7-13.7c-1.2-2.5-1.1-2.9,1.1-4.1c5.5-3,5.5-3,11.6-0.8c1,0.4,2,0.7,2.9,1.2c9.9,5.1,20.1,9.6,29.6,15.6
		c12.8,8.2,26,15.6,39,23.4c12,7.2,24.8,12.8,38,17.2c12.7,4.2,25.8,7.1,38.9,9.8c1.7,0.3,3.5,0.2,5.2,0.1c2-0.2,3.4-1.9,3.6-3.9
		c0.3-3-0.9-4.8-4.2-5.5c-7.8-1.8-15.6-3.4-23.4-5.3c-14.6-3.5-28.7-8.5-42.1-15.3c-7.6-3.9-15-8.1-22.3-12.7
		c-10.4-6.6-21.4-12.5-31.6-19.4c-1.1-0.8-2.4-1.4-3.7-2c-8.7-4.4-17.4-8.7-26.3-13.2c2-3,5-4.4,7.8-6.1c7.8-4.7,15.6-9.2,23.3-14
		c12.9-8.1,25.9-15.8,39.4-22.7c13.2-6.7,26.6-13.1,40.4-18.5c5-2,10.1-3.7,15.2-5.7c9.3-3.6,18.8-6.4,28.3-9
		c7.9-2.1,15.8-4.1,23.7-6.3c4-1.1,7.9-2.6,11.9-4.1c1.5-0.5,2.9-1.2,4-2.4c1.3-1.3,1.9-3.6,1.1-5.3c-0.8-1.7-2.1-2.8-4-2.9
		c-1.8-0.1-3.4,0.4-5.1,1c-5.3,2.2-10.8,3.9-16.4,5.3c-8.6,2.2-17.2,4.3-25.7,6.9c-20.2,6.1-40,13.4-59.1,22.3
		c-12.7,5.8-25.1,12.3-37.2,19.1c-4.7,2.6-9.5,5.3-13.9,8.3c-11.9,7.9-24.5,14.7-36.5,22.5c-0.5,0.3-1,0.4-1.3-0.1
		c-0.2-0.3-0.2-0.7-0.1-1c2-5.4,4-10.8,5.9-16.2c8.9-25.5,16.9-51.2,25.1-77c1.2-3.6,2.1-7.4,3.4-11c3.8-10.7,6.3-21.8,12-31.7
		c0.9-1.5,1.3-3.2,1.9-4.8c0.8-1.9,0.5-3.8,0.5-5.7c0-1.6-1.1-2.6-2.3-3.3c-1.6-1.1-5-0.8-6.5,0.4c-1.7,1.4-3,2.9-2.7,5.3
		c0.3,2.7-0.4,5.1-2,7.4c-1.9,2.9-3.2,6.2-4.2,9.5c-1.6,5.2-3.2,10.3-4.8,15.4c-4.9,15.4-9.7,30.9-14.7,46.3
		c-7.4,22.7-14.7,45.4-23.2,67.7c-1.1,2.9-2.6,5.8-3.2,8.8c-0.4,2.4-1.6,3.2-3.5,3.8c-1.3,0.4-2.1-0.1-2.5-1.1
		c-0.9-2.4-1.9-4.9-2.4-7.4c-2.1-10.2-3-20.6-3.2-31.1c-0.2-15.5-0.1-31.1-0.1-46.6c0-1.4,0-2.8,0-4.2c0-1.1-0.4-2-1.1-2.9
		c-1.7-2.1-4.1-2-6.3-1.4c-2,0.5-3,2.2-3,4.4c0,0.7,0,1.4,0,2.1c0,13.3,0,26.6,0,39.8c0,0.9-0.1,1.8,0.1,2.6
		c1.4,5.7,0.7,11.5,0.9,17.2c0.1,1.7-0.1,3.5,0.2,5.2c0.6,4.8,1.2,9.7,2,14.4c0.8,4.8,2.5,9.4,4.4,13.9c0.9,2.1,2.8,2.9,5.1,2.8
		c1-0.1,2-1.2,3.7-0.1c-3.9,2.4-3.2,5.3-1.4,8.3c0.4,0.6,0.6,1.3,0.9,1.9c5.1,9.6,11.6,18.3,18.9,26.2c9.8,10.7,20.4,20.6,31.2,30.2
		c1.1,0.9,2.2,1.8,3.5,2.2c0.6,0.2,1.4,0.3,2,0.1c2.7-0.9,4.6-4.7,3.6-7.2C2176.1,545.2,2175.3,544.4,2174.6,543.6"/>
	<path class="st0" d="M686,447.8c0.2,2.2,0.4,4.7,1.4,6.6c1.2,2.3,1.7,4.4,1.7,6.9c0,3.3,1.2,4.7,4.6,5.2c1.2,0.2,2.4,0.2,3.3,1.2
		c2.2,2.5,4.7,2.3,7.6,1.1c6-2.5,12.2-4.2,18.5-5.5c6-1.2,11.9-2.5,17.9-3.4c5.5-0.8,11-1.8,16.6-1.8c3.1,0,6.3,0,9.4,0
		c1.6,0,3.2-0.1,4.7,0.2c8.3,1.4,16.2,4,24,7c8.5,3.2,16.9,6.4,25.9,8.2c6,1.2,12,2.1,18.1,2.4c4.5,0.2,9.1,0.1,13.6,0.1
		c1,0,2.1,0,3.1-0.1c2-0.3,3.4-1.9,3.6-3.9c0.3-3.5-2.6-6.6-6.1-5.9c-2.3,0.4-4.6,0.6-6.8,0.4c-5.7-0.7-11.4-1-17.1-1.8
		c-9.7-1.4-19-4.3-28.1-7.7c-9.3-3.4-18.4-7.3-28.4-8.7c-6.6-0.9-13.3-1-19.8-0.3c-6.4,0.7-12.7,1.6-19.1,2.6
		c-9.8,1.7-19.4,3.9-28.9,6.7c-0.7,0.2-1.4,1.1-2.2,0.1c1-2.5,2.9-4.3,4.5-6.5c5.9-8.2,11.5-16.6,18.1-24.3c3.4-4,6.9-7.8,11.1-11
		c3.3-2.5,6.4-5.4,9.5-8.2c3.5-3.2,7-6.4,10.3-9.6c4-3.9,8.7-6.3,13.6-8.6c6.3-2.9,12.8-5.6,19-8.7c6.6-3.3,12.9-7.1,18.5-11.8
		c6.7-5.6,12.7-12,17.9-19.1c7.9-10.9,14.4-22.6,21.3-34.2c1.9-3.2,1.2-5.5-1.8-7.6c-2.1-1.4-5-0.9-6.4,1.3
		c-1.3,2.1-2.5,4.2-3.8,6.3c-6.4,10.8-12.6,21.7-20.5,31.6c-3.4,4.2-6.5,8.7-10.8,12c-6.8,5.2-13.8,10.1-21.7,13.6
		c-5.2,2.4-10.5,4.7-15.8,7c-2.9,1.3-5.6,2.8-8.4,4.3c-6.5,3.7-11.3,9.3-16.8,14.1c-4.2,3.7-8.3,7.5-12.6,10.9
		c-6,4.7-10.7,10.5-15.4,16.3c-3.5,4.3-6.4,9.1-9.6,13.7c-2.1,3-4.2,5.9-6.9,9.7c-1.6-6.5-2.1-12.2-2.5-17.9c-0.2-3.3,0-6.6-0.1-10
		c-0.3-5.9,0.9-11.4,2.9-16.9c2.4-6.7,4.6-13.5,6.2-20.5c1.4-5.9,2.7-11.9,2.7-18c0-1.4,0.3-2.8,0.5-4.1c0.6-3.5,0.7-7,0-10.4
		c-0.5-2.4-0.8-4.8-0.6-7.3c0.3-5.4-1-10.7-1.4-16.1c-0.5-6.2-1.7-12.4-1.9-18.7c0-0.3,0-0.7-0.1-1c-0.4-2.3-1.9-3.7-4.2-3.9
		c-4.1-0.3-6.2,1.6-6.2,5.8c0,0.7-0.1,1.4,0.1,2.1c1.5,4.7,1,9.7,1.7,14.5c1,6.5,1.6,13.1,2.1,19.7c0.6,8.7,0.8,17.5-1,26.1
		c-2.1,9.9-4.1,19.7-7.6,29.2c-1.8,4.9-3.1,10-3.6,15.2c-0.8,8.4,0,16.7,1.2,25C685.5,443.7,685.7,445.7,686,447.8"/>
	<path class="st0" d="M2040.1,774.7c2.9,1.6,5.8,3.2,8.7,4.8c0.9,0.5,2,0.9,2,2.2c0.3,5.4,2.7,10.4,3.7,15.7c1,5,0.1,9.3-2.5,13.4
		c-1.3,2.1-2.6,4.1-4,6.1c-3.2,4.3-3.7,9.3-3.4,14.4c0.1,2.7,2.2,4.4,5,4.2c2.5-0.1,4-1.3,4.5-4.2c1-5.8,3.5-10.9,6.9-15.6
		c1.5-2,2.5-4.2,3.1-6.6c1.1-4.5,0.6-9,0.3-13.6c-0.1-2.5-1.5-4.9-1.4-7.6c3.1-0.4,5.4,1.9,8.1,2.8c3.1,1,5.9,2.8,8.7,4.2
		c0,0.7,0.1,1.1,0,1.4c-1.1,2.7-0.6,4.9,1.4,7.2c2.5,2.7,4,6.1,5.1,9.6c1.5,4.8,2.7,9.7,2.3,14.9c-0.3,4.2,0.5,8.4,1.5,12.4
		c1.7,6.5,5.2,12.2,8.4,17.9c1.4,2.4,4.9,3.2,7.4,2c1.3-0.7,2.2-1.7,2.4-3.2c0.2-1.6-0.2-3-1.1-4.4c-2.1-3.4-4.1-6.9-6-10.4
		c-1.6-3.1-2.6-6.4-2.4-10.1c0.2-2.6-0.1-5.2,0.1-7.9c0.2-3.6-0.6-6.9-1.7-10.2c-1.4-4.1-3.1-8.2-5-12.1c-0.2-0.4-0.4-1.1-0.2-1.5
		c0.4-0.6,1.2-0.6,1.9-0.4c10.4,3.6,21,6.5,30.9,11.2c21.9,10.4,43.4,21.6,63.4,35.4c7.9,5.4,15.9,10.6,23.4,16.7
		c1.7,1.4,3.6,2.7,5.6,3.9c1.6,1,2.9,0.6,4.2-0.8c1.5-1.6,1.6-3.4,0.2-5.2c-2-2.5-4.9-3.9-7-6.2c-3.2-3.5-7-6.3-10.6-9.3
		c-11.2-8.9-23.3-16.5-35.9-23.3c-11.7-6.3-23.5-12.2-35.7-17.5c-11.7-5.1-23.6-9.4-35.9-12.6c-4.2-1.1-8.4-2.4-12.3-4.7
		c1.2-1,2.4-1.3,3.5-1.6c3.3-1.1,6.4-2.7,9.4-4.4c5.6-3.3,10.6-7.3,15.5-11.5c3.6-3,7.4-5.8,11.3-8.4c4.9-3.2,10.4-4.8,16.1-6
		c1.7-0.4,3.4-0.8,5-1.6c1.9-0.9,2.7-3.3,2.1-5.4c-0.5-1.9-2.1-3.3-4.1-3.4c-1.2-0.1-2.5-0.2-3.7,0.1c-7.1,1.8-14,3.9-20.5,7.6
		c-5.5,3.1-10.3,7.2-15.1,11.2c-8.2,6.7-16.9,12.2-27.5,14.4c-2.2,0.4-4,0.9-5,3.1c-0.4,1-1.4,0.8-2.3,0.4c-0.8-0.3-1.7-0.6-1.8-1.5
		c2.6-2.5,5.1-4.9,7.6-7.3c2.6-2.4,4.7-5.2,6.1-8.4c1.3-2.9,2.5-5.7,3.8-8.6c3-6.6,6.3-12.9,14.5-14.4c2.7-0.5,4-4.5,2.5-6.9
		c-1-1.6-2.4-3.4-4.5-3c-3.9,0.7-7.8,1.8-10.9,4.7c-3.9,3.6-7.3,7.5-9.5,12.4c-1.7,3.8-3.3,7.7-5.2,11.4c-2,4.1-4.6,7.8-8.8,10.1
		c-2.6,1.5-4.8,3.4-6.4,6.3c-2.3-0.9-4.4-1.7-6.4-2.6c-3.4-1.4-6.7-3-10-4.4c-0.8-0.4-1.7-0.4-2.4,0.4c-0.6,0.8-0.5,2.3,0.3,2.9
		C2038.6,773.9,2039.4,774.3,2040.1,774.7"/>
	<path class="st0" d="M1058.6,683.4c-1,2-2.7,3.7-3.6,5.7c-1.5,3.2-4,5.2-7.2,6.5c-1.6,0.7-3.2,1.3-4.9,1.7c-3.9,1-7.9,1.2-11.7,2.7
		c-1.1,0.4-2,0-2.9-0.7c-2.9-2.2-5.9-4.4-8.8-6.6c-0.6-0.4-1.2-0.8-1.9-0.7c-0.3,0.1-0.7,0.2-0.9,0.4c-0.2,0.2-0.3,0.7-0.2,0.9
		c0.6,1.5,1.9,2.6,3.1,3.5c3.8,2.6,6.7,6.1,10.2,8.9c-1.9,2.4-1.7,2.4-2.3,5.5c-0.9,5-2.4,9.7-6,13.7c-2.6,3-5.3,6-7.7,9.2
		c-4.2,5.5-5.7,11.4-5.1,18.1c0.3,3,2.8,4.5,5.7,3.2c0.9-0.4,1.4-1,1.5-2c0.1-0.9-0.1-1.7-0.1-2.6c-0.1-4.1,0.3-7.9,3-11.3
		c2.3-2.9,4.3-5.9,6.9-8.5c3.3-3.3,5.6-7.1,7-11.5c0.8-2.5,1.4-5,1.6-7.6c0.1-0.8,0.9-1.1,1.6-0.7c1.1,0.6,2,1.3,3,2.1
		c0.8,0.6,1,1.4,0.3,2.2c-1.1,1.4-1,2.8-0.6,4.4c0.6,2.2,1.2,4.4,1.5,6.6c0.4,3.5,0.5,7-0.1,10.4c-1.5,9.4-4.7,18.5-5.5,28.1
		c-0.2,2.3-0.5,4.5,0.1,6.7c0.3,1.2,0.5,2.4,0.4,3.6c-0.2,2.9,1.1,5.4,1.2,8.2c0,1.1,0.8,1.9,1.6,2.6c1.2,1,2.5,1.2,3.9,0.6
		c1.3-0.5,1.7-1.7,1.6-3c-0.1-1-0.4-2-0.5-3.1c-0.5-2.6-1.4-5-1.5-7.7c-0.4-7.4,0.6-14.6,2.7-21.6c1.8-5.9,2.8-11.8,2.6-18
		c-0.1-3.1-0.1-6.3-0.1-9.4c0-0.8-0.4-1.8,1-2.2c0.8,0.8,1.8,1.5,2.6,2.4c5.7,5.9,11.7,11.5,16.9,17.8c5.1,6.2,11.7,11,17.8,16.1
		c9.1,7.7,18.4,14.9,28.1,21.7c11.8,8.2,24.3,15,37.3,21c2.2,1,4.5,1.9,6.8,2.8c1,0.4,2,0.5,3.1,0.3c1-0.1,1.5-0.8,1.6-1.8
		c0.1-1.1-0.2-2.1-1.1-2.8c-1.2-0.7-2.5-1.3-3.7-2c-6.8-3.6-13.6-7.1-20.3-10.9c-12.8-7.5-25.1-15.7-36.9-24.6
		c-6.3-4.7-12.5-9.5-18.3-14.8c-7.5-6.8-14.4-14.2-21.6-21.4c-0.6-0.6-1.4-1.1-0.8-2.5c3,0,6.1,0,9.2,0c1.4,0,2.8,0.1,4.2-0.2
		c6-1.1,11.9-2.6,17.2-5.8c3.6-2.2,7.5-2.7,11.6-2.4c1,0.1,2.1,0.3,3.1,0.6c1.7,0.5,3.5,0.4,5.2,0.4c1.3,0,2.3-0.7,3.1-1.7
		c1.3-1.6,0.9-3.6-0.9-4.3c-1.8-0.7-3.6-1.3-5.6-1.3c-2.6,0-5.2,0-7.9,0c-4.9,0-9.7,0.9-14.1,3.1c-2.3,1.1-4.7,2.4-7.2,3
		c-5.3,1.4-10.7,3-16.4,1.5c-2.4-0.6-5.3-0.8-7.2,1.7c-0.7,0.9-1.6,0.6-2.2-0.1c-3-3-6.1-5.7-9.4-8.3c-1.3-1-2.6-2.2-4-3.3
		c1.2-1.5,2.7-1.6,4.2-1.9c8.6-1.3,15.4-5.1,19.9-12.8c2-3.5,4.3-6.7,7.9-8.9c2.1-1.3,2.5-3.3,1.8-5.5c-0.4-1.4-2.1-2.4-3.3-1.7
		C1064.7,677.8,1060.7,679.4,1058.6,683.4"/>
	<path class="st0" d="M1657,410.9c2,2.6,4.1,5.2,6.5,7.5c1.7,1.6,3,3.4,3.6,5.7c1.1,4.4,1.7,8.9,0.5,13.4c-0.3,1.2-0.6,2.4-0.1,3.6
		c0.8,1.9-0.3,3.1-1.6,4c-3.1,2.1-5.5,4.8-8.1,7.4c-1.2,1.2-1.4,2.5-0.6,3.2c1,0.8,1.9,0.4,2.9-0.1c0.6-0.3,1.2-0.7,1.8-1.1
		c2.4-1.7,5.1-3.2,7.2-5.2c2.6-2.6,4.8-2.8,7.7-0.6c1.2,0.9,2.9,1.2,4.3,1.8c4.4,1.8,7.7,4.9,10.1,8.8c2.5,3.9,5.6,7.1,8.7,10.4
		c2.5,2.6,5.5,4.2,8.7,5.7c2.5,1.1,5.1,0.9,7.7,0.6c1.2-0.1,2.1-1.2,2.2-2.6c0.1-1.5-0.6-3-1.9-3.4c-0.8-0.2-1.7-0.2-2.6-0.3
		c-3.7-0.7-6.9-2.1-9.6-4.9c-2.1-2.2-4-4.4-5.5-7c-4.3-7.1-10.3-12.2-18-15.3c-0.2-0.1-0.3-0.5-0.5-1c1.1-0.8,2.2-1.6,3.3-2.4
		c0.8-0.6,1.6-0.7,2.4,0c1.4,1.3,3.2,1.2,4.9,1.2c2.6,0.1,5.3-0.1,7.8,0.4c6.9,1.4,13.3,4.1,19.4,7.6c10.1,5.7,20.9,8.5,32.5,7.9
		c0.7,0,1.4-0.1,2.1-0.2c1.4-0.3,2.2-1.6,2.2-3.2c0-1.6-0.9-2.8-2.4-2.9c-1.9-0.2-3.8-0.1-5.8-0.2c-6.3-0.3-12.5-1.2-18.1-4.2
		c-3.7-1.9-7.5-3.8-11.2-5.6c-4.9-2.4-9.9-4.3-15.2-5.5c-2.6-0.6-5.3-1-8-1.6c0.5-1.4,1.5-1.8,2.3-2.3c5.5-3.7,11.2-7,17.1-10.2
		c3.1-1.7,6.2-3.2,9.1-5.1c9.2-6,17.8-12.8,26.5-19.5c7.2-5.5,13.6-11.9,20.6-17.8c3.5-2.9,6.2-6.6,9.3-9.9
		c4.4-4.7,8.6-9.6,12.4-14.8c2.2-3,4.3-5.9,6.4-8.9c0.9-1.3,1.5-2.7,1.4-4.4c-0.1-1.3-0.6-2.4-1.8-2.9c-1.2-0.5-2.4-0.5-3.5,0.3
		c-0.7,0.5-1.3,1.1-1.9,1.8c-1.7,2-3.2,4.1-5.1,6c-7.1,7.2-13.5,15.1-20.8,22.1c-3.3,3.1-6.4,6.5-9.8,9.5
		c-4.9,4.4-9.9,8.8-14.9,13.1c-3,2.6-6.1,5.2-9.2,7.7c-9,7.2-18.8,13.2-28.5,19.4c-1.8,1.1-3.6,2.4-5.7,3c-0.5-1-0.3-1.7,0-2.3
		c1.5-4,1.7-8.1,1.8-12.3c0.2-4.1-0.6-8-1.5-11.9c-1.5-6.7-1.4-13.1,1.5-19.4c0.5-1.1,0.9-2.3,1.2-3.4c0.6-2-0.3-3.8-1.8-4.3
		c-2.1-0.6-4,0.1-4.7,2.1c-1.2,3.3-2.3,6.6-3.2,9.9c-1.3,4.8-1.4,9.5-0.3,14.4c2.1,9.7,2.5,19.4-2.1,28.6c-0.5,1-0.6,2,0.2,2.9
		c0.9,1.1,0.4,1.8-0.6,2.6c-3.9,2.9-7.8,5.9-11.6,8.9c-0.6,0.5-1.2,1.3-2.3,0.4c0-2.5-0.1-5.1,0-7.7c0.3-5.8-1.9-10.7-5.7-14.7
		c-3.9-4.1-7.8-8-9.8-13.4c-0.2-0.6-0.8-1.2-1.4-1.4c-1.4-0.4-2.8-0.4-4,0.5c-1,0.8-1.5,2.3-0.8,3.8
		C1654,405.8,1655.2,408.5,1657,410.9"/>
	<path class="st0" d="M1703.9,793c0.1,1.6,1.1,2.6,2.6,2.8c1.8,0.2,3.1-0.6,3.5-2.3c0.5-1.7,0.8-3.4,1.1-5.1
		c1.2-7,2.1-14.1,3.5-21.1c1.8-8.9,4-17.6,6-26.4c0.3-1.2,0.5-2.4,1.9-3.2c2.3,1.1,4.6,2.3,7,3.4c1.3,0.6,1.8,1.6,1.6,2.9
		c-0.1,1-0.1,2.1-0.4,3.1c-0.5,1.5-0.7,3.1-0.7,4.6c0,10.3,0,20.6,0,30.9c0,0.7-0.1,1.4,0.1,2.1c1,3.4,1,6.9,0.8,10.4
		c-0.2,5.1,1,10,1.4,15.1c0.4,5.7,1.7,11.3,2.9,16.9c2,9.5,4.5,19,8.4,28c0.3,0.8,0.7,1.6,1.3,2.2c1.2,1.4,3.5,1.8,5.3,1
		c1.5-0.7,1.8-2,1.9-3.5c0.1-2-0.4-3.8-1.1-5.6c-2.1-5.2-3.8-10.5-5.3-15.9c-3.5-12.4-4.8-25.2-6.1-38c-0.6-6.2,0.1-12.6-1.2-18.8
		c-0.1-0.7,0-1.4,0-2.1c0-3.1,0-6.3,0-9.4c-0.2-5.9,0.1-11.8,1.1-17.7c0.4-2.5,1.4-2.6,3.1-1.7c4.9,2.6,9.8,5.3,15,7.5
		c9.3,4,18.2,8.9,27,13.9c10.6,6,20.7,12.9,30.5,20.2c8,6,15.8,12.1,22.9,19.1c3.8,3.8,7.9,7.4,12,10.9c1.7,1.5,3.7,2.6,5.6,3.9
		c1.4,0.9,3,0.9,4.5,0.6c0.9-0.2,1.6-0.8,1.9-1.6c1-2.3,0.2-5-1.8-6.5c-1.8-1.3-3.8-2.5-5.5-4c-3.5-3.1-6.9-6.4-10.4-9.5
		c-7.1-6.5-14.3-12.8-22-18.5c-5.7-4.3-11.6-8.4-17.5-12.4c-7.7-5.2-15.6-9.8-23.8-14.3c-6.3-3.4-12.6-6.7-19.2-9.6
		c-3.5-1.5-6.9-3.1-11-5.6c2.3-0.8,3.6-1.3,4.9-1.7c11.2-3.2,22.2-7.1,33.2-11.2c12.2-4.5,24.6-8.9,37.1-12.5c3-0.9,6-1.6,9.3-1.4
		c2.9,0.2,5.5-0.9,8-2.2c1.6-0.8,2.2-2.2,2.1-3.9c-0.1-2.5-1.7-4.3-4.2-4.4c-1.6-0.1-3.2-0.2-4.5,1c-1.3,1.1-2.9,1.1-4.4,1.2
		c-1.2,0-2.5-0.1-3.7,0.2c-7.5,2.1-15.1,4-22.5,6.5c-13.8,4.7-27.5,9.9-41.4,14.7c-8.5,3-17.2,5.5-26.2,7.1
		c-1.9,0.3-3.4,0.2-5.1-0.3c-1.3-0.4-2.6-1-3.8-1.7c-3.1-1.6-3.2-2.3-0.6-5c1.2-1.2,2.5-2.5,3.9-3.5c7.4-5.9,15.1-11.3,23-16.3
		c3.7-2.3,7.4-4.7,11-7.1c1.2-0.8,2.2-1.7,3.2-2.7c1.1-1.2,1.1-3.2,0.3-4.4c-0.8-1.2-2.7-1.5-4.3-0.8c-0.5,0.2-0.9,0.6-1.3,0.9
		c-8.3,5.4-16.7,10.8-24.9,16.3c-6.7,4.5-12.9,9.5-18.4,15.5c-3.1,3.4-5.3,7.2-6.5,11.7c-2.6,9.6-4.8,19.2-6.8,28.9
		c-1.5,7.7-2.9,15.4-4.2,23.1C1703.8,789.5,1703.9,791.3,1703.9,793"/>
	<path class="st0" d="M1233.1,529.5c0.9,0.6,1.7,1.3,2.6,1.7c4.9,2.6,8.2,7.7,13.8,9.2c12.4,6.7,24.7,13.8,37.7,19.3
		c10.1,4.3,20.6,7.5,31.4,9.6c5.3,1,10.7,1.5,15.9,2.6c2.5,0.6,4-0.2,5.5-1.9c1.3-1.5,1.3-3.1,0.2-4.8c-0.9-1.2-2.1-2.1-3.5-2.1
		c-3,0-5.9-0.7-8.8-1.2c-4.6-0.8-9.3-1.5-13.8-2.7c-12.5-3.2-24.5-7.8-36-13.8c-6.2-3.2-12.4-6.5-18.5-9.8
		c-3.5-1.9-7.2-3.6-10.5-5.8c-3.8-2.5-7.2-5.5-11.2-8.6c0.6-0.7,1.1-1.3,1.6-1.6c6.6-4.6,13.1-9.2,19.7-13.8
		c10.3-7.1,21-13.7,32-19.8c10.7-5.9,21.9-10.8,33.1-15.5c8.1-3.3,16.4-6,24.7-8.6c3.3-1,6.5-2.6,9.6-4.2c0.8-0.4,1.6-0.8,2.1-1.5
		c0.9-1.1,1.7-2.4,1.2-3.8c-0.6-1.5-1.7-2.7-3.4-2.9c-1.8-0.2-3.5,0-5.1,0.8c-2.8,1.5-5.7,2.5-8.7,3.5
		c-20.9,6.8-41.3,14.9-60.5,25.7c-12.9,7.3-25.4,15.3-37.3,24.1c-2.4,1.7-4.8,3.4-7.3,5c-0.4,0.2-1.1,0.3-1.4,0.1
		c-0.3-0.2-0.5-0.9-0.5-1.4c0.1-0.9,0.4-1.7,0.6-2.5c1.5-7.5,3.1-15,4.4-22.5c1-5.8,1.5-11.7,2.4-17.5c1.2-7.9,2.5-15.8,4.1-23.6
		c1.3-6.3,2.6-12.6,5.4-18.5c0.6-1.2,1.1-2.6,1.4-3.9c0.3-1.2,0.4-2.4,0.3-3.6c-0.1-2.5-1.9-4.2-4.3-4.4c-2.8-0.1-5.1,1.4-5,4.1
		c0,2.8-1,5.1-2,7.5c-1.5,3.7-2.5,7.6-3.3,11.5c-0.6,2.9-1.2,5.8-1.8,8.7c-1.2,6.7-2.4,13.3-3.5,20c-0.9,5.8-1.5,11.7-2.5,17.5
		c-0.8,5-1.9,9.9-2.8,14.8c-1.4,7.4-3.3,14.6-5.3,21.8c-1.2,4.3-4.1,6.7-7.6,8.8c-1.6,0.9-3.3,0.2-3.7-1.5
		c-0.8-3.6-1.6-7.1-2.3-10.7c-1-5.3-1.9-10.6-2.8-15.9c-0.9-5.8-2-11.7-2.4-17.5c-0.3-4.9-1.6-9.6-1.3-14.6c0.1-2.2-1.8-4.1-3.4-3.9
		c-1.9,0.3-3.7,2.4-3.7,4.5c0,0.3,0,0.7,0.2,1c0.9,2.4,0.5,4.8,0.7,7.3c0.1,1.7,0.1,3.5,0.4,5.2c0.5,4.1,1.1,8.3,1.7,12.4
		c0.6,3.9,1.1,7.9,1.8,11.8c0.7,3.9,1.5,7.9,2.3,11.8c1.3,5.9,1.4,12.1,4.8,17.4c0.2,0.3,0.3,0.7,0.1,1c-1.1,2.3,0.5,3.5,1.8,4.9
		c6,6.4,12.8,11.9,19.2,17.8c6.5,6,13.5,11.6,20.3,17.3c3.3,2.8,6.8,5.5,10.2,8.1c1.6,1.2,3.7,1,4.7-0.4c0.9-1.2,1-3.1-0.1-4.3
		c-1.4-1.5-2.9-3-4.5-4.3c-3.1-2.6-6.1-5.2-9.4-7.5c-3.4-2.5-6.3-5.5-9.4-8.3c-4.6-4-9.2-8-13.8-12c-2.4-2.1-4.4-4.4-7.1-6.2
		c-1.4-1-2.7-2.2-3.7-4c3.7-0.8,6.3-3.2,9-5.3C1229.7,528.4,1231.3,528.2,1233.1,529.5"/>
	<path class="st0" d="M529,808.7c-0.4,0.8-0.8,1.6-1.1,2.4c-0.5,1.4,0.3,2.9,1.7,3.4c2.3,0.7,4.2,0.1,5.3-2c0.8-1.4,1.4-2.8,2.1-4.2
		c4.2-8.4,8.4-16.9,13.1-25c2.3-3.9,4.6-7.8,7.4-11.4c1.5-1.9,3-3.8,5.2-4.9c8.1,7.6,8.1,4.7,3,15.5c-0.4,0.8-0.9,1.5-1.3,2.2
		c-0.4,0.8-0.9,1.5-1.1,2.3c-3,10.4-6.2,20.7-9,31.1c-2.7,10.3-4.9,20.6-4.8,31.4c0.1,6.8,0,13.6,0,20.4c0,0.9,0,1.8,0.1,2.6
		c0.4,2.6,2.5,4.2,5.2,4c2.4-0.2,3.5-1.9,3.4-4.9c-0.3-10.1-0.8-20.2,0.6-30.3c1-7.3,2.2-14.4,4.2-21.4c2.1-7.2,4.5-14.3,6.3-21.5
		c1.6-6.7,4.7-12.7,7.8-18.8c0.6,0.3,1.1,0.4,1.5,0.8c3.3,3.1,6.7,6.1,10,9.2c10.6,10.1,21,20.4,30.2,31.9
		c8.7,10.9,16.6,22.4,23.7,34.4c2.8,4.8,5.3,9.8,8.6,14.3c0.9,1.3,1.9,2.5,3.1,3.5c1.4,1.1,4.2,1.1,5.4,0c1.7-1.4,2.2-3.8,1-5.6
		c-0.9-1.5-2.2-2.7-3.1-4.2c-2.7-4.5-5.3-9-7.9-13.6c-5.5-9.5-11.6-18.7-18.3-27.4c-8-10.5-16.7-20.6-26.3-29.8
		c-5.2-4.9-9.9-10.3-15.6-14.7c-0.6-0.5-1.5-1-1.2-2.1c1.1-0.7,2.4-0.3,3.5-0.3c8.9-0.1,17.8-0.1,26.7-0.1c4.2,0,8.3-1.3,12.5-1.1
		c4,0.2,8,0,12.1,0c8.5,0,17.1-0.4,25.5,1.7c2.4,0.6,4.8-0.4,6.7-2.2c0.9-0.9,1.2-2.1,0.7-3.4c-1.3-3.6-3.2-4.7-7.2-3.8
		c-1.1,0.2-2,0.3-3.1,0.1c-6-1.1-12.1-1.5-18.1-1.8c-1,0-2.2-0.2-3.1,0.1c-3.4,1-6.9,0.7-10.4,0.8c-6.6,0.3-13.3-0.5-19.8,1
		c-11.5-0.2-23,0.7-34.5-0.7c-5.2-0.6-8-3.4-10.9-7.2c3.8-3.2,8-5.4,12.4-7.1c11.3-4.6,22.6-9.1,34.2-13c3.3-1.1,6.6-2.2,10-3.2
		c1-0.3,2-0.7,2.7-1.4c1.1-1.2,1.4-2.6,0.7-3.8c-0.8-1.3-2.1-2.1-3.4-1.8c-2.4,0.6-4.7,1.2-7,1.9c-13.5,4.2-26.6,9.4-39.7,14.7
		c-5,2-9.7,4.7-14.1,8c-0.8,0.6-1.9,1.2-2.1,2.2c-0.2,2-1.2,3-3.1,3.7c-0.9,0.3-1.6,1.3-2.3,2.1c-5.4,5.1-9,11.5-12.8,17.8
		C538.5,788.9,533.9,798.9,529,808.7"/>
</g>
</svg>
