<?xml version="1.0" encoding="utf-8"?>
<!-- Generator: Adobe Illustrator 16.0.4, SVG Export Plug-In . SVG Version: 6.00 Build 0)  -->
<!DOCTYPE svg PUBLIC "-//W3C//DTD SVG 1.1//EN" "http://www.w3.org/Graphics/SVG/1.1/DTD/svg11.dtd">
<svg version="1.1" id="Layer_1" xmlns="http://www.w3.org/2000/svg" xmlns:xlink="http://www.w3.org/1999/xlink" x="0px" y="0px"
	 width="1007.436px" height="468.2px" viewBox="0 0 1007.436 468.2" enable-background="new 0 0 1007.436 468.2"
	 xml:space="preserve">
<g>
	<path fill="#FFFFFF" d="M2573.099-1165c-16.699-10.3-30.699-23.6-41.799-39.8c-3.4-5-6.701-10.2-9.801-15.5
		c-8.799-14.8-17.6-29.8-26.299-44.6c-2.602-4.4-5.301-8.7-8.4-12.6c-6.201-7.9-13.9-13.6-23.701-16.5c-2.799-0.9-5.699-1.6-8.6-2.1
		c-1.799-0.3-3.699-0.4-5.199-1.2c0-0.5-0.1-0.7,0-0.9c0.199-0.7,0.5-1.3,0.699-2c8.5-18.7,20.1-35.1,34.9-49.2
		c5.301-5.1,11-9.7,17-13.9c2-1.4,2.6-3.2,2.301-5.4c-0.301-2-1.5-3.5-3.602-4c-1-0.2-2-0.6-3-0.8c-7.898-2.1-16-3.6-24-5.2
		c-11.6-2.3-23.398-4.1-34.898-7.1c-2.4-0.6-4.801-1.1-7.201-1.2c-9.299-0.8-18.4,0.1-27.4,2.8c-8.699,2.7-17,6.2-25.199,10.3
		c-8,3.9-15.9,7.9-24.4,10.7c-1.1,0.4-2.299,0.9-3.6,0.2c-1.199-2.6-1.9-5.4-2.301-8.4c-0.898-7.2,0.102-14.2,2-21.2
		c1.5-5.4,3.701-10.5,5.801-15.7c0.9-2.2,0.699-4.1-1-5.8c-1.6-1.6-3.699-2.2-5.801-1.2c-4.299,2-8.898,3-13.5,4.1
		c-5.6,1.3-10.5,3.7-14.898,7.3c-2.201,1.7-4.4,3.5-6.4,5.4c-8.801,8.4-15.9,18.1-21.801,28.7c-4.898,8.9-8.398,18.4-11.5,28
		c-3.199,10-6.299,20-9.5,29.9c-2,6.1-4.299,12.2-7.398,17.9c-2.5,4.6-5.4,9-9.301,12.6c-3.699,3.4-7.9,5.8-12.801,6.6
		c-3.398,0.6-6.898,0.7-10.398,0.5c-8.4-0.5-16.602-2.3-24.801-4.1c-13.1-3-26.301-5.4-39.9-5.3c-1.4,0-2.799-0.2-4.1-0.6
		c-5.6-1.4-11.1-2.9-16.699-4.3c-1.5-0.4-2.4-1.1-2.602-2.8c-0.799-5.8-3.398-10.9-6.699-15.8c-1.801-2.6-3.301-5.3-4.9-8.1
		c-1-1.8-1.9-3.7-2-5.9c-0.1-2.3,0.9-4.1,3-5c1.4-0.6,3-0.9,4.6-1c2.5-0.1,4.9,0.2,7.301,0.5c10.5,1.6,20.9,3.9,31.5,5.1
		c10.199,1.2,20.199,0.4,29.9-3.1c13.699-4.9,26.5-11.6,38.799-19.4c0.602-0.4,1.201-0.7,1.701-1.2c2.199-1.9,2.699-5.2,1-7.6
		c-0.801-1.1-1.801-2.2-2.701-3.2c-4.799-4.8-9.6-9.7-14.398-14.5c-9-9-18.5-17.5-28.201-25.8c-2.299-1.9-4.6-3.8-6.6-6
		c-4.4-4.5-4.199-7.6,0.4-12c2.699-2.5,5.799-4.5,9-6.3c4.4-2.5,8.9-4.9,13.299-7.3c6.301-3.4,12.102-7.6,17.4-12.5
		c6.4-6,11.9-12.7,16.9-20c5.5-8.1,10.699-16.4,16.199-24.4c13.201-19.3,27.5-37.9,41.9-56.3c1-1.2,2-2.5,2.699-3.8
		c1.602-2.9,0.201-6.8-2.898-7.7c-4.201-1.3-8.4-2.1-12.801-0.9c-9.4,2.7-18.9,5-28.6,6.5c-8.801,1.4-17.6,2.1-26.6,0.8
		c-6.9-1-13.801-2.3-20.5-4.1c-14.201-3.6-28.602-6.3-43.4-5.9c-10.9,0.3-21.1,2.5-30.4,8.3c-2.199,1.4-4.5,2.6-6.9,3.7
		c-3.898,1.8-5,1.3-7.1-2.5c-0.5-0.9-0.9-1.9-1.301-2.9c-1.398-3.4-2.398-6.9-3.1-10.5c-1.799-9.4-3.6-18.8-5.4-28.3
		c-0.398-1.9-0.6-3.8-0.898-5.7c-0.801-6.1-1.301-12.1-3.102-18c-1.1-3.7-2.6-7.2-4.898-10.4c-2.201-3.1-3.9-3.7-7.701-2.7
		c-1.699,0.4-3.299,1-5,1.7c-11.5,4.3-22,10.5-31.898,17.8c-12.201,8.9-23.201,19-33.5,30c-3,3.2-6.102,6.2-9.602,8.9
		c-1.699,1.2-3.5,2.4-5.398,3.2c-2.301,1.1-4.701,1-6.9-0.7c-8.301-6.4-17.301-11.8-24.5-19.6c-2-2.2-4.301-2.6-7.1-1.8
		c-4.201,1.2-7.4,3.8-10.301,6.9c-6.699,7.3-11.5,15.8-15.6,24.7c-3.4,7.2-5.4,14.8-5.4,22.7c0,2.1-0.801,3.1-2.699,3.8
		c-6.201,2.3-12.4,4.7-18.5,7.3c-43.801,18-82.602,43.5-115.9,77.4C1804-1430.5,1792-1417.8,1780-1405.1
		c-12,12.7-23.898,25.4-36.799,37.2c-22.6,20.7-47.6,37.6-75.4,50.5c-2.4,1.1-4.801,2-7.301,2.7c-22.699,6.5-44.799,14.3-66.5,23.7
		c-15,6.6-30.199,12.8-45.5,18.7c-38.5,14.6-78.398,22.5-119.5,24.3c-11.699,0.5-23.398,0.5-35.1,0.3c-12.6-0.1-25.1-1.7-37.5-3.9
		c-16.7-2.9-33.099-7.2-49.2-12.1c-9-2.7-17.8-5.7-26.8-8.6c0.6-1.4,1.7-1.5,2.7-1.8c8.8-2.2,17.399-4.9,26-8
		c21.899-7.9,42.6-18.4,62.299-30.6c4.201-2.6,8.301-5.2,12.4-7.8c1.199-0.7,2.301-1.5,3.801-1.6c4.898-0.2,9.699-1.4,14.5-2.1
		c15-2.4,29.799-5.6,44.398-9.8c17-5,33.301-11.5,48.4-20.7c14.301-8.7,26.801-19.5,37-32.8c2.301-3,4.1-6.5,6.4-9.5
		c8.5-11.4,19.6-19.8,32.1-26.4c1.201-0.7,1.9-0.3,2.1,1.1c1,5.9,3.301,11.4,6.201,16.6c3.699,6.7,8.199,13,13.299,18.8
		c7.102,8,15.4,14.1,25.4,18c17.6,7,35.9,9.8,54.801,8.8c1-0.1,2-0.4,3.1-0.7c3-0.8,3.699-4.8,1.6-6.8c-1-1-2.199-1.7-3.4-2.5
		c-4.799-2.9-9.5-5.9-14.398-8.5c-4.801-2.6-7.602-7-10.5-11.4c-0.4-0.6-0.5-1.3-0.701-2c-0.4-1.4,0.1-2.3,1.5-2.8
		c3.201-1.1,6.6-0.9,9.9-0.5c5.699,0.7,11.4,1.6,17.1,2.4c9.201,1.3,18,0.6,26.6-3.5c8.102-3.8,15.801-8.2,22.801-13.8
		c9.199-7.3,17.301-15.8,25.699-23.9c0.5-0.5,1-1,1.4-1.5c1-1.5,1.6-3.1,0.6-4.9c-1-1.8-2.5-2.3-4.398-2.1c-0.301,0-0.701,0.1-1,0.2
		c-4.5,0.8-9,0.5-13.602,0c-10.199-1.1-20.398-3-30.699-3.6c-3.4-0.2-5.301-1-8-2.9c0.9-0.6,1.699-1.2,2.6-1.8
		c10-6.7,18.301-15.1,24.701-25.3c7.5-11.9,12-24.8,11.299-39.1c-0.4-7.7,0.1-15.3,0.5-23c0.201-4,0.4-8,1.4-11.9
		c1.4-5.2,2.9-10.4,4.4-15.6c1.4-4.5,2.1-9.2,2.6-13.9c0.5-5.4-2.1-7.8-7.4-7.1c-1,0.1-2.1,0.2-3.1,0.4
		c-5.699,1-11.4,1.7-17.199,1.9c-11,0.3-22,0.9-33,0.9c-12.4,0-23.801,3.2-34.4,9.5c-5.9,3.5-11.5,7.2-17,11.3
		c-1.1,0.8-1.9,2.1-3.4,2.1c-0.199-0.1-0.4-0.2-0.4-0.3c-1.699-9-5.1-17.4-9-25.6c-3.4-7.1-6.799-14.1-8.299-22
		c-0.9-5.1-6.801-6-9.602-2.8c-3.199,3.7-6.898,7-9.898,10.8c-7.102,8.9-12.801,18.7-18.301,28.6c-4.6,8.3-6.801,17.1-7.1,26.5
		c-0.201,6.8-0.701,13.6-1.1,20.4c-0.102,2-0.701,2.2-2.701,1.5c-2.5-0.9-4.5-2.6-6.299-4.5c-2.9-3.1-5.102-6.6-7.201-10.2
		s-4-7.3-6.1-11c-0.9-1.7-1.9-3.3-3-4.9c-2.301-3.5-7.1-3.1-9-0.4c-0.5,0.7-1.1,1.4-1.6,2.1c-7.301,10.5-11,22.1-11.301,34.8
		c-0.299,11.4,2.201,22.1,5.801,32.8c3.799,11.1,9.6,20.9,18.199,28.9c3.1,2.9,5.801,6,8.801,9c1.299,1.3,1.699,2.5,0.799,4.2
		c-1.1,2-2,4.1-3.1,6c-2.1,3.6-4.9,6.8-7.799,9.9c-4.301,4.8-9.102,9.2-13,14.4c-6.301,8.4-11.102,17.7-15,27.5
		c-0.9,2.2-2.102,3.9-3.9,5.4c-12.5,11.2-26.701,19.6-42.1,26c-17.5,7.3-35.701,11.9-54.201,15.4c-0.6,0.1-1.299,0.5-1.9-0.6
		c1.201-1.1,2.5-2.3,3.801-3.4c12.199-10.8,22-23.4,28.6-38.3c9.4-21.2,11.201-43,4.801-65.4c-5.801-20.4-17-37.3-32.1-51.9
		c-1.801-1.7-3.5-3.4-5.5-4.8c-2.201-1.6-4.701-1.2-6.6,0.8c-2.4,2.7-2.5,6.3-0.102,9c1,1.2,2.301,2.2,3.4,3.3
		c11,10.5,19.801,22.5,25.701,36.6c7.1,16.9,8.898,34.4,4.6,52.3c-3.4,14.4-10.201,27-19.801,38.2c-8,9.3-17.5,17.1-27.5,24.1
		c-11.301,7.9-23.1,15-35.1,21.9c-20.5,11.7-41.9,21.5-64.6,28.2c-9.6,2.8-19.2,5-29.1,6.6c-2.4,0.4-4.801,0.7-7.2-0.1
		c-13.2-4.6-26.4-8.9-39.8-12.9c-0.801-0.2-1.9-0.5-2.301-1.1c-2.399-3.4-5.3-6.5-7.1-10.3c-1.2-2.7-0.2-4.3,2.8-4.7
		c3.101-0.3,6.301,0,9.4,0.4c7.3,0.9,14.5,1.8,21.9,1.7c5.1-0.1,10-1.1,14.8-2.9c9.5-3.7,18.1-9,26.3-14.9c5.1-3.7,5.2-6.4,0.4-10.8
		c-10.301-9.5-21-18.4-32.301-26.6c-1.6-1.1-3.1-2.2-4.3-3.8c-1-1.3-1-2.5-0.1-3.9c1.1-1.6,2.5-2.9,4.1-4c2.7-1.9,5.4-3.8,8.3-5.5
		c10.2-5.9,18.101-14.2,24.101-24.2c2.7-4.5,5.3-9.1,7.8-13.6c8.7-15.3,18.6-30,28.4-44.6c0.899-1.3,1.8-2.6,2.5-4
		c1.8-3.8-1.101-7.6-5.2-7.1c-1.2,0.1-2.4,0.6-3.5,0.9c-5.2,1.4-10.4,2.9-15.7,4.2c-12.4,2.9-24.8,3.5-37.4,0.9
		c-10.1-2.1-20.3-3.3-30.699-2.5c-7.801,0.6-15.101,2.5-21.601,7.1c-1.6,1.1-3.199,2.1-4.899,3.1c-1.4,0.8-2.2,0.5-3.101-0.8
		c-1.899-3-3.1-6.3-3.8-9.7c-2.1-9.2-5-18.2-6.6-27.5c-0.7-4.3-2.2-8.4-4.601-12.2c-2.8-4.4-4.899-5.1-9.6-3c-3.3,1.5-6.6,3.1-9.8,5
		c-9.7,5.7-18.101,13.1-25.801,21.2c-4.1,4.3-7.899,8.8-11.8,13.3c-1.5,1.7-3.1,3.3-5,4.6c-2,1.5-3.899,1.8-6.2,0.3
		c-5.5-3.7-11.399-6.8-16.3-11.4c-1.899-1.8-4.1-1.9-6.399-1.2c-1.7,0.5-3.2,1.4-4.5,2.6c-1.9,1.8-3.601,3.8-5.101,6
		c-3.5,5.3-6.2,10.9-8.2,16.9c-2.3,6.8-2.699,13.7-1.5,20.7c2.5,14,8.801,26,19.301,35.8c2.3,2.1,4.699,4.2,6.8,6.6
		c5.1,5.7,8.5,12.3,9.4,20c0.399,4-0.801,7.2-3.9,9.7c-1.4,1.1-2.8,2.1-4.2,3.2c-10.6,8.2-19.6,17.8-27,29
		c-3.199,4.8-5.699,10-7.3,15.6c-0.6,2.1,0.1,5.1-1.8,6.3c-1.801,1.1-4.4,0.8-6.601,1.2c-0.3,0.1-0.699,0.1-1,0.1
		c-16.699,1.7-33.1,5-49.3,9.2c-24,6.3-47.2,14.9-70.2,24.1c-12,4.8-23.899,9.8-35.8,14.6c-12,4.8-23.899,9.6-36,14.2
		c-20.899,8-42.1,14.7-63.899,19.9c-16.5,4-33.101,7-49.9,9.1c-9.9,1.2-19.8,2.2-29.7,2.3c-17.7,0.2-35.2-1.8-52.5-5.5
		c-6-1.3-11.9-2.9-17.8-4.5c-1.3-0.3-2.7-0.6-3.6-2c-3.801-6.1-7.9-11.9-12.2-17.6c-0.601-0.8-0.2-1.6,0.899-1.8
		c7.801-1.1,15.601-2,23.301-3.2c21.899-3.3,43.5-8.3,64.699-14.9c38.101-11.8,73.801-28.7,106.601-51.4
		c23.1-16,43.899-34.6,61.8-56.3c5.2-6.3,10.1-13,14.5-19.9c0.8-1.3,1.6-2.1,3.4-1.4c1.899,0.7,3.699-0.1,5.6-0.7
		c24.1-7.2,47.3-16.8,69.6-28.6c35-18.5,66.5-41.7,93.601-70.7c17.6-18.8,32.699-39.5,44.699-62.4c2.101-4,4.5-7.9,7-11.7
		c1-1.5,1.601-3,2-4.7c0.801-3.9,1.7-7.8,2.801-11.7c2-7.1,5-13.8,8.899-20c9.301-14.9,21.801-25.8,38.801-31c2-0.6,4-1.2,6.1-1.6
		c4-0.8,3.5-0.2,4,2.8c0.1,0.3,0.1,0.7,0.1,1c0.101,6.9,2.2,13.4,4.801,19.7c6,14.3,14.3,27.2,24.8,38.6
		c7.5,8.2,16.3,14.8,26.3,19.6c13,6.2,26.5,10.6,40.601,13.6c11.1,2.4,22.399,3.2,33.8,3.6c2.1,0.1,4.2-0.2,6.2-0.7
		c2.8-0.7,4-3.6,2.6-6.2c-0.8-1.4-1.9-2.5-3.2-3.4c-1.899-1.3-3.8-2.5-5.7-3.7c-6.1-4-12.199-8.1-18.3-12.1
		c-1.2-0.8-2.399-1.6-3.2-2.7c-2.5-3.8-5.5-7.2-7.3-11.5c-0.6-1.4-1.2-2.9-1.6-4.4c-0.7-3.3,0.2-4.5,3.399-5.3
		c4.5-1.1,9-0.9,13.5-0.3c7.5,0.9,14.801,2.5,22.101,4.4c14.6,3.7,28.7,2.3,42.5-3.4c9.398-3.9,18.1-9,26.5-14.7
		c14.6-10,27.699-21.7,41-33.4c1.699-1.5,3-3,2.1-5.4c-0.801-2.2-2.1-2.9-5.6-2.6c-9.301,0.8-18.5-0.6-27.602-2.4
		c-11.299-2.2-22.6-4.4-34-5.9c-5.5-0.7-10.699-2.6-15.5-5.6c0.9-1.7,2.602-2,3.9-2.7c22.1-12.5,38.9-29.8,49.6-53
		c4.102-8.8,6.801-17.9,7.301-27.7c0.4-9.6,1.1-19.2,1.699-28.7c0.801-12.4,2.801-24.6,7.301-36.3c2.199-5.7,4.1-11.5,5.9-17.3
		c1.5-5,2.699-10.1,2.799-15.4c0.102-5.4-1.699-7-6.898-6.5c-0.301,0-0.701,0.1-1,0.1c-10.4,1.3-20.9,1.8-31.301,1.7
		c-7.699,0-15.301-0.4-23-0.6c-9.6-0.3-19.199-0.6-28.801-0.7c-5.398-0.1-10.799,0.6-16.099,1.9c-7.2,1.7-13.9,4.5-20.6,7.6
		c-10.801,5.1-20.801,11.4-30.5,18.2c-1.2,0.8-2.2,2.3-4.101,1.9c-0.7-10-3.1-19.6-6.6-29c-2.5-6.7-5.2-13.3-7.8-20
		c-2.801-7.2-5.301-14.4-6.2-22.1c-0.3-2.4-1.601-4.1-2.8-6h-5.2c-0.3,1.1-1.3,1.6-2.101,2.2c-8.3,7-15.6,15-22.3,23.6
		c-8,10.2-14.8,21.1-21.6,32.1c-5.7,9.3-8.4,19.5-9.5,30.2c-0.8,8-1.4,16-2.2,24c-0.3,2.8-0.8,5.5-1.3,8.3c-0.5,2.7-1.3,3.1-4,2.2
		c-3.4-1.1-6.3-3-8.8-5.4c-2.101-2.1-4.101-4.4-5.601-6.9c-2.2-3.6-4.3-7.2-6.2-10.9c-3.399-6.7-6.6-13.5-10-20.2
		c-0.6-1.2-1.199-2.5-2-3.6c-1.899-2.6-5.3-3.1-7.8-1c-1.2,1-2.2,2.2-3.2,3.5c-15.399,19.5-20,41.8-17.699,66
		c0.8,8,2.699,15.8,4.699,23.6c4.2,16.9,12.301,31.4,25,43.4c4.101,3.8,7.7,8.1,11.5,12.2c3.4,3.7,3.301,4.5,0,8.3
		c-0.5,0.5-1,1-1.5,1.5c-2.3,2.4-5,4.3-7.699,6.3c-2.7,2-5.4,3.9-7.801,6.1c-14.399,13.4-24.199,29.7-29.399,48.6
		c-2.2,8.1-3.3,16.4-1.9,24.9c0.3,1.6-0.3,2.7-0.899,4c-2.5,4.8-4.9,9.6-7.601,14.4c-17.8,31.4-41.2,58-68.899,80.9
		c-34.4,28.4-73.101,49.3-115.2,63.8c-1.5,0.5-2.9,1.2-4.7,1.1c0.9-1.2,1.7-2.4,2.6-3.4c7.7-9.7,15.101-19.7,21.801-30.1
		c11.5-17.7,21.699-36.2,29.199-56c4.301-11.3,7.5-22.9,8.7-34.9c0.3-2.9,1.2-4.8,4-6c2.601-1.1,4.9-2.7,7.3-4.1
		c8.5-5.1,15.9-11.4,22.301-18.9c17.199-20.1,25.699-43.7,27.199-69.9c0.7-11.5-0.199-23-1.6-34.5c-1.9-16.2-7.1-31.2-14.9-45.5
		c-8.5-15.4-19.399-29-31.6-41.5s-25.6-23.8-39.4-34.4c-1.1-0.8-2.3-1.6-3.5-2.2c-0.6-0.3-1.399-0.5-2-0.4
		c-2.399,0.4-4.199,1.8-5,4.1c-0.8,2-0.8,4.2,0.9,5.9c1.4,1.4,2.9,2.5,4.4,3.7c11,8.7,21.6,17.7,31.6,27.5c9.9,9.9,19.2,20.3,27,32
		c8.1,12.1,14.6,25,18.3,39.2c2.2,8.5,3.101,17.1,4,25.8c1.9,18.4-0.5,36.3-7.1,53.5c-7.4,19.5-19.9,35.1-37.9,46.1
		c-0.8,0.5-1.6,1.4-2.8,0.7c-0.9-1.4-0.6-3-0.8-4.5c-1.601-11.3-5.5-21.7-13.101-30.3c-10-11.4-22.6-15.5-37.3-12
		c-20.2,4.8-33.899,25.2-29.399,45.9c2.399,10.8,8.199,18.8,18.8,22.8c3.6,1.4,7.3,2.2,11.2,2.7c11.6,1.3,23-0.1,34.199-3.3
		c0.9-0.3,1.801-1.1,3-0.2c0,0.6,0.101,1.2,0,1.9c-0.899,5.3-2.1,10.6-3.6,15.8c-4.6,15.8-11.8,30.5-19.8,44.9
		c-11.7,21-26,40.1-41,58.8c-0.3,0.4-0.7,0.9-1.1,1.1c-2.7,0.8-3.601,3.1-4.9,5.2c-10.2,16.4-22.4,31.2-36.1,44.7
		c-15.101,14.8-31.801,27.8-49.601,39.2c-31.1,19.9-64.3,35-99.6,45.5c-25.3,7.5-51.2,12.5-77.4,15.7c-3.5,0.4-6.899,0.7-10.399,1.1
		c-1.301,0.2-2.4,0-3.301-1.1c-0.399-0.5-0.899-1-1.399-1.5c-19.9-20.9-43.9-34.7-71.5-42.5c-24.4-6.8-49.3-9.5-74.5-9.7
		c-7.3-0.1-14.7,0.3-22,0.7c-19,1-37.9,3.4-56.601,6.6c-1.399,0.2-3,0.3-4,1c-2.199,1.7-4.5,1.5-7,1.2c-1.399-0.2-2.8-0.1-4.199-0.1
		c-10.801,0.2-21.601,0.4-32.4,1.4c-16.5,1.4-32.9,3.8-49.2,7.2c-0.9,0.2-1.8,0.7-3-0.2c1.1-0.7,1.9-1.3,2.8-1.8
		c4.6-2.9,9.2-5.7,13.799-8.6c15.4-9.6,30.7-19.4,46.4-28.4c17-9.8,34.9-17.5,53.8-22.8c18-5,36.2-8.9,54.4-13.3
		c14.899-3.6,29.8-7.5,44.2-12.8c3.8-1.4,7.5-2.5,11.5-3.3c20.3-3.9,39.899-9.9,58.399-19.3c3.9-2,7.9-3.6,12.101-4.8
		c6.699-1.9,13.1-1.4,19.3,1.9c4.5,2.4,8.6,5.3,12.3,8.8c5.3,5.1,10.5,10.2,15.7,15.5c4.899,5,9.899,9.9,15.3,14.3
		c10.9,8.8,23.1,15,36.8,18c4.7,1,9.4,1.1,14,0.3c3.8-0.6,7.5-1.7,11.3-1.9c2.5-0.1,4.2-1.8,4.7-4.2c0.4-2.1-0.5-3.8-1.899-5.1
		c-2.2-2-4.4-4-6.5-6c-3.4-3.3-6.5-6.8-8.9-11c-2.3-4-3.9-8.1-4.1-12.9c1.199-0.2,2.199-0.4,3.199-0.5c7.301-0.9,14.601-1.1,22-1.1
		c6.301,0.1,12.601-0.2,18.801-1c9-1.1,17.3-3.9,24.699-9.3c2.101-1.5,4.2-3.1,6.301-4.7c8.399-6.5,16.899-13,25.3-19.5
		c3.2-2.5,6.3-5,9.399-7.5c0.9-0.8,1.9-1.6,2.7-2.5c2.101-2.6,1.2-6.6-1.899-7.9c-1.4-0.6-3-0.8-4.601-1.1
		c-16.3-3.1-31.5-8.9-45.399-18.1c-4.2-2.8-8.301-5.7-11.9-9.7c1.5-1.2,2.9-2.2,4.2-3.2c7-5.5,12.3-12.3,14.899-21
		c1.301-4.4,2-8.8,2.301-13.4c1.1-16.2,2.399-32.4,4.199-48.5c1.601-13.9,5.5-27,13.301-38.7c3.8-5.6,6.3-11.6,7.699-18.1
		c0.301-1.2,0.7-2.3,0.9-3.5c0.2-1.2,0.3-2.4,0.3-3.6c0-1.5-0.8-2.6-2-3.5c-1-0.7-2.2-1.1-3.399-1.2c-4-0.2-8-0.3-12,0.7
		c-5.301,1.4-10.301,3.3-15.2,5.6c-11.9,5.7-24.4,8.1-37.5,8.4c-3.101,0.1-6.3,0.3-9.4,0.7c-4.1,0.6-8.3,0.9-12.5,1.3
		c-7.8,0.7-15.7,1.3-23.399,2.2c-12.4,1.5-23.7,5.7-33.5,13.5c-0.801,0.6-1.7,1.2-2.7,1.9c-1.9-2.7-2.9-5.7-3.8-8.7
		c-2.601-8.8-3.4-17.8-3.9-26.9c-0.3-6.8-0.2-13.6-0.3-20.4c-0.101-5.8-2.9-7.8-8.5-5.9c-1.601,0.5-3.2,1.3-4.8,2.1
		c-2.7,1.4-5,3.2-7.2,5.2c-11.8,10.6-21.3,23.1-29.3,36.7c-3.101,5.2-4.801,10.9-5.601,16.8c-0.6,4.1-0.8,8.3-1.2,12.5
		c-0.1,0.9-0.1,1.8-0.199,2.6c-0.101,0.6-0.7,0.8-1.2,0.5c-0.9-0.5-1.7-1.1-2.5-1.8c-3.8-3.4-6.9-7.4-10-11.4
		c-1.601-2.1-3.4-4-4.8-6.2c-2.801-4.2-7.4-4.8-11.2-0.1c-3.2,4-6,8.1-8,12.8c-3.8,9-5,18.6-4.8,28.2c0.3,13.1,2.399,26,6.1,38.7
		c4.3,14.6,9.6,28.8,17.8,41.8c2.4,3.8,5.101,7.5,7.7,11.2c1.7,2.4,3.1,5,4.3,7.8c2.3,5.2,2.4,10.5,0.101,15.7
		c-1.301,2.9-2.801,5.6-4.601,8.2c-2.7,3.9-5.899,7.4-9.2,10.7c-6.399,6.5-13.399,12.2-21.5,16.5c-7.3,3.8-14.6,7.4-22.1,10.6
		c-9.6,4.2-19.5,7.6-29.5,10.6c-16.4,5-33.1,8.5-49.7,12.4c-19.2,4.5-38.3,9.2-56.6,16.8c-0.8,0.3-1.601,0.8-2.5,0.1
		c0.1-1.5,1.2-2.4,2-3.5c4.6-6.2,8.899-12.5,12.6-19.3c8.8-15.6,15.601-32,17.601-50c1-8.7,0.899-17.4-1.101-26
		c-0.6-2.4-1.899-4.8-1.6-7.1c0.3-2.4,3.2-3.4,4.7-5.4c0.3-0.4,0.699-0.8,1-1.2c14.699-16.9,21.399-37,23.6-58.8
		c1.1-10.8,0.2-21.6-1.8-32.3c-4.8-25.8-17-47.4-36.5-65c-14.601-13.2-31.5-22.4-49.5-29.8c-0.5-0.2-1-0.4-1.5-0.5
		c-2.7-0.5-4.7,0.4-5.7,2.6c-1.2,2.5-0.4,5.5,2,6.9c1.5,0.9,3.2,1.5,4.8,2.2c11.7,5.1,22.9,11.1,33.3,18.6
		c17.9,13.1,31.5,29.6,38.7,50.8c8.4,24.7,8.9,49.3-0.399,73.8c-3.301,8.7-7.7,16.8-13.9,23.8c-1.2,1.4-2.3,3.1-4.1,3.7
		c-2.4-3.2-4.601-6.4-7-9.4c-4.5-5.7-9.7-10.5-16-14.1c-6.9-3.9-14.301-5.5-22.2-3.6c-4.101,1-8.101,2.1-12,3.7
		c-4.601,1.9-8.5,4.9-11.5,8.9c-3.4,4.5-4.7,9.6-4,15.3c1.1,8.4,5.899,14,13.5,17.3c4.7,2,9.6,3.2,14.5,4.3c8.8,2,17.7,1.9,26.5-0.2
		c4.1-1,8-2.4,11.7-4.4c2.1-1.1,2.8-1.2,3.399,1.8c0.8,3.9,1.3,7.9,1.4,11.9c0.3,11.7-2.2,22.9-6,33.8
		c-4.7,13.4-11.601,25.7-19.7,37.4c-6.7,9.6-14.8,18.1-22.3,27.1c-0.5,0.6-1.4,1.1-2.101,1.5c-1.3,0.8-2.699,1.5-4.1,2.4
		c-14.5,9-29,18.1-43.5,27.2c-15.2,9.5-30.7,18.8-46.9,26.6c-8.8,4.3-17.6,8.6-27.2,10.6c-6.8,1.4-13.6,3.1-20.5,4.2
		c-6.5,1.1-13.1,2.3-19.8,1.4c-1.2-0.2-2.6-0.2-3.6,0.2c-2.2,1-4.4,0.7-6.7,0.8c-10.1,0-20.2-1-30.2-2.4
		c-15.6-2.2-30.9-5.7-46.1-9.7c-30.8-8.1-60.6-18.8-89.8-31.3c-18.1-7.8-36-16.1-53.5-25.2c-3.3-1.7-6.5-3.4-9.8-5
		c-3.4-1.6-4.8-1.3-7.4,1.5c-0.7,0.8-1.1,1.8-2.4,1.8v5.2c0.8,0.3,1.5,0.8,2,1.5c1.1,1.7,2.7,2.6,4.5,3.5c20,10.3,40.2,20.2,60.9,29
		c33.1,14.2,66.9,26.1,102,34.4c3.6,0.8,7.1,1.6,9.6,4.7c0.6,0.8,1.7,1.2,2.5,1.8c19.3,13.9,37.6,29,53.8,46.5
		c9.2,9.9,17.7,20.3,24.9,31.7c2.2,3.6,3.5,4.3-2.2,5.2c-13.7,2.1-23.9,9.5-29.9,22c-5.9,12.3-1.8,26.1,9.4,33.7
		c8.1,5.5,21.4,6.9,30.3-0.6c6.1-5.1,10.2-11.4,12.1-19.1c1.6-6.4,1.5-12.8,0.3-19.2c-0.3-1.6-1.2-3.2-0.4-5.1
		c5.4,1.4,10.5,3.2,15.4,5.5c19.3,9.2,35.9,22.1,50.6,37.6c11.4,12,20.1,25.8,27.5,40.6c10.899,21.8,16.3,44.8,15.5,69.2
		c-0.101,2.8-0.2,5.601-0.2,8.4c0.1,2.9,2.1,4.9,4.899,5c2.5,0.1,4.601-1.7,5.101-4.3c0.3-1.5,0.399-3.1,0.5-4.7
		c0.2-7.5,0.1-15-0.601-22.5c-1.3-13.7-4.3-26.9-9.1-39.7c-13.2-35.2-35.5-63.4-66.2-85.1c-14.2-10.1-29.3-18.4-46.7-21.5
		c-1.6-0.3-2.4-1.1-3.1-2.4c-2.6-5.5-5.8-10.7-9.3-15.8c-7.5-10.8-16.2-20.5-25.4-29.9c-11.1-11.2-22.8-21.6-35.1-31.5
		c-1.5-1.2-3.3-2-4.2-4.1c2.5,0.3,4.9,0.6,7.2,0.9c9.7,1.5,19.4,2.4,29.2,2.6c2.1,0.1,4.3-0.2,6.2,0.5c2.4,0.9,4.8,0.9,7.2,0.8
		c5.1-0.2,10.1-0.8,15.1-1.9c4.5-1,9-0.9,13.4-0.1c0.9,0.2,1.7,0.4,2.6,0.5c23.2,3.6,45.8,9.4,68.1,16.5c43.7,14,85,33.3,125,55.7
		c1.5,0.9,3,1.7,4.2,3c1.899,2.1,4.199,3.6,6.6,5.1c9.5,6.2,18.5,13.1,27.1,20.6c2.7,2.3,5,4.9,6.7,8c1.4,2.5,1.2,3.5-0.899,5.5
		c-2.8,2.6-6.101,4.7-9.4,6.5c-3.6,2.1-7.399,4-10.899,6.2c-19.101,12.5-29.101,30.1-29.101,53.1c0,7,2.7,13.7,3.8,20.5
		c0.3,1.9,2,2.8,4,2.7c0.9,0,1.7-0.2,2.5-0.5c6.5-2.2,12.601-5.1,16.9-10.8c0.8-1.1,1.899-2.1,2.899-3c0.601-0.6,1.4-1.1,2.101-1.5
		c1.2-0.6,2.5-0.2,3.1,1c1.3,2.5,1.601,5.3,1.9,8.1c0.5,4.5,0.8,9,1.3,13.6c0.8,7.8,3.1,15,7.7,21.4c4.6,6.4,10.1,12,15.6,17.6
		c3.7,3.8,7,4.7,10.601-1.5c5.899-10.3,11.7-20.6,16.7-31.4c0.8-1.7,1.699-3.4,2.8-5c0.899-1.4,2.1-1.7,3.6-0.9
		c1.2,0.7,2.5,1.4,3.5,2.3c2.2,2,4.4,4,6.4,6.2c5.1,5.6,10.8,10.4,17.6,13.8c4.2,2.1,8.6,3.8,13.1,5.3
		c5.801,1.9,11.601,3.8,17.301,5.9c11.5,4.1,22.8,8.7,34.1,13.4c1.4,0.6,2.9,1.3,4.4,1.6c3.6,0.7,6.3-2.2,5.199-5.6
		c-0.399-1.1-1-2.2-1.6-3.3c-2.9-5.2-5.4-10.5-7.7-16c-3.8-9.3-5.8-18.899-5.8-29.1c0-7.3-0.4-14.7-1.9-21.9
		c-1.899-9-5.199-17.4-12.399-23.7c-0.8-0.7-1.5-1.5-2.2-2.3c-1.2-1.5-1.2-2.1,0.4-3.5c2.199-2,4.8-3.5,7.5-4.7
		c7.399-3.5,14.8-7,22.3-10.4c3.899-1.7,7.6-3.6,10.5-6.8c2.8-3,3-4.6,0.8-7.9c-2.9-4.4-6.3-8.3-10.1-12
		c-8.2-7.9-17.7-14.2-27.601-19.7c-2.399-1.4-4.899-2.8-7.2-4.2c-1.5-0.9-2.8-2-4-3.4c-0.899-1.1-1.1-2.1-0.6-3.4
		c2.2-5.5,4-11.2,6.9-16.4c1.899-3.3,1.6-5.2-0.9-8c-1.8-2-4.1-3.3-6.4-4.4c-4-1.9-8.199-3-12.399-4c-7.7-1.8-15.3-1.5-22.7,1.3
		c-11.1,4.2-20.2,11-26.7,21c-1.899,2.9-3.7,5.9-5.7,8.8c-3.899,5.6-9.1,9.6-15.5,12c-3.8,1.4-7.199,0.8-10.199-1.8
		c-1.601-1.4-3.101-2.9-4.801-4.1c-11.3-8-23.6-14.2-37-18c-3.8-1.1-7.199-2.5-10.5-4.4c-23.899-13.4-48.3-25.7-73.5-36.6
		c-26.6-11.5-53.899-21.1-82-28.4c-8.4-2.2-16.9-4-25.9-6.2c1.4-0.6,2.4-1.1,3.3-1.3c10.6-2.9,21.2-5.8,31.8-8.8
		c30.7-8.6,62-13.7,93.9-14.6c20.1-0.5,40.1,0.5,60,3.4c20.899,3,41.399,8.3,61.5,14.8c22.1,7.2,43.6,15.8,65.1,24.4
		c17.101,6.9,34.3,13.7,51.601,20.4c11.199,4.4,22.6,8.3,34.1,11.8c2.2,0.7,3.7,1.7,4.7,3.7c1.2,2.3,2.6,4.6,3.8,6.9
		c9.3,16.8,17.3,34.2,25.7,51.5c7.8,16.2,15.899,32.2,25.6,47.4s20.9,29.2,34.8,40.9c9.5,8,19.7,15,31.4,19.6
		c7,2.8,14.4,4.2,21.7,5.8c4.2,0.9,8.6,1,12.7,2.3c0.3,2.8,0.699,5.4,0.899,8c0.9,10.8,4.101,20.9,8.9,30.5
		c2.3,4.7,4.8,9.3,7.399,13.8c6.801,11.899,15.4,22.399,25.601,31.6c11.7,10.4,24.7,18.8,38.3,26.3c13.4,7.4,27.4,13,42.4,16
		c3.8,0.8,7.5,1.6,11.3,2.4c1,0.2,1.5,0.7,1.7,1.7c0.1,0.899,0.5,1.7,0.6,2.5c2.4,11.3,7.2,21.5,13.6,30.899
		c7.801,11.4,18,20.4,29.5,27.9c24.2,15.7,50.7,24.7,79.4,27.1c3.5,0.3,7,0.3,10.5,0.2c3.1-0.1,5.1-2.5,5.1-5.5s-1.6-4.5-5-4.7
		c-0.899,0-1.699,0-2.6,0c-3.1-0.1-6.3-0.2-9.4-0.5c-17.5-1.7-34.3-6.2-50.399-13.399c-13-5.8-25.2-12.9-35.7-22.601
		c-9.5-8.8-17-18.899-21.8-31c-1.4-3.5-2.7-7.1-2.9-11.399c3.8,0,7.4,0.2,11.1,0c7.2-0.4,14.2-1.9,20.7-5.101
		c7.101-3.5,12.7-8.5,16.101-15.8c3.1-6.8,2.399-13.2-1.9-19.3c-4-5.8-9.8-8.8-16.6-10.1c-18.101-3.4-34.4,8.2-39.301,24.6
		c-1.1,3.7-1.6,7.5-2,11.3c-0.1,1,0.4,2.1-1.1,3c-3.8-0.9-7.9-1.6-12-2.8c-27.4-7.6-51.5-21.2-72.9-39.8
		c-9.699-8.4-17.699-18.3-23.8-29.7c-2.1-4-4.1-8.1-6.3-12c-3.9-6.9-6.3-14.4-7.5-22.2c-0.5-3.5-1.5-7.1-1-11c2.2,0,4.2,0,6.3,0
		c8.7,0.2,17.5,0.2,26-2.2c3.601-1,6.9-2.5,9.9-4.6c4.4-3.2,7.3-7.4,8.3-12.8c1.2-6.9-0.3-13.2-4.1-18.9c-2.2-3.3-5.5-5.4-9.3-6.5
		c-4.101-1.2-8.301-1.4-12.4-0.7c-11.6,2.1-21,8.1-29,16.7c-2.2,2.4-3.5,5.2-4.2,8.3c-0.6,2.6-1,5.1-1.4,7.7
		c-0.199,1.1-0.8,1.4-1.8,1.4c-0.3,0-0.7,0-1,0c-8.5-1.1-16.899-2.5-24.899-5.6c-12.601-5-24-12.1-34.101-21.1
		c-12.399-11-22.6-23.8-31.399-37.7c-9.4-14.7-17.2-30.3-24.9-46c-6.5-13.1-12.9-26.3-19.4-39.4c-1.899-3.9-4-7.7-6-11.7
		c1.9-0.5,3.4,0.1,4.801,0.4c18.1,4.2,36.5,5.8,55.1,5.8c9.6,0,19.2-0.7,28.7-1.6c16.5-1.6,32.8-4.5,49-8.1
		c23.7-5.4,46.899-12.4,69.6-20.8c5.601-2.1,11.3-2.3,17-1c14.7,3.3,25.3,12.1,32.601,25c0.199,0.3,0.1,0.7,0.1,1.2
		c-6.8,2.3-12.7,6.3-18,11.2c-5.7,5.2-10.9,10.9-15.2,17.2c-5.5,8-9.5,16.6-11.3,26.3c-0.9,5.2-1.4,10.4-1.6,15.6
		c-0.7,13.9,0.899,27.5,4.5,40.9c0.399,1.5,1,3,1.8,4.3c1.6,2.5,5.6,2.3,7-0.3c0.7-1.2,1-2.6,1.5-3.9c1.7-5.1,3.5-10.2,4.899-15.5
		c1.4-5.2,4.601-8.9,8.101-12.6c0.7-0.8,1.6-1.4,2.5-1.9c1.1-0.7,2.399-0.3,3.1,0.9c1.2,2.1,2,4.5,2.3,6.9
		c0.7,6.8,1.601,13.5,2,20.3c0.601,9.4,3.7,17.7,9.5,25c5.301,6.7,11.101,13,17.9,18.3c9.6,7.6,20,14,30.3,20.6
		c0.601,0.4,1.2,0.7,1.9,0.9c2.899,0.9,5.8-1.4,5.399-4.5c-0.1-0.7-0.399-1.3-0.6-2c-2.1-6.1-3.2-12.5-3.7-18.9
		c-0.399-5.7-1.1-11.5-1.7-17.2c-0.199-2.3-0.6-4.5-0.899-6.7c-0.4-2.8-0.4-5.6-0.101-8.4c0.101-0.7,1-1.1,1.5-0.7
		c0.801,0.7,1.601,1.3,2.4,2c6.5,6.2,13.9,11.1,22,14.9c15.2,6.9,30.8,10.1,47.3,5.6c6.9-1.9,14-3.1,21-4.6c6.4-1.3,12.8-2,19.2-1.5
		c3.7,0.3,7.3,0.3,11,0.7c4.9,0.5,9.8,0.1,14.6-0.7c5.9-1,7.4-3.7,5.101-9.2c-3.4-7.9-6-16-8.2-24.3c-2.7-10.1-5.5-20.2-8-30.4
		c-2.8-11.6-8.9-21.1-17.2-29.4c-4.399-4.5-9.2-8.6-14-12.6c-0.8-0.7-2.3-1.1-1.899-2.8c4.1-1.8,8.1-4,11.899-6.5
		c4.7-3.1,9.101-6.5,13.5-10c5.2-4.1,10.601-8,16.601-10.8c0.5-0.2,1-0.4,1.399-0.7c3-1.9,3.4-6.1,0.7-8.5c-0.9-0.8-2-1.4-3-2.1
		c-4.9-3.1-10-5.7-15.3-8c-8.8-3.8-18-6.5-27.2-9.4c-8.9-2.8-17.8-2.9-26.9-1.3c-3.6,0.6-7.199,1.4-10.8,2
		c-3.6,0.6-7.2,1.6-10.899,1.5c-1.101,0-1.5-0.7-1.5-1.7c0.199-3.1,1.6-5.7,3.399-8.1c2.3-3.3,5.2-6.2,8.101-8.9
		c3.699-3.4,7.5-6.8,11.3-10.2c0.899-0.8,1.899-1.6,2.6-2.6c2.2-2.8,1.601-6.3-1.399-8.1c-1-0.6-2.2-1.1-3.301-1.5
		c-7-2.8-14.3-4.4-21.899-4.3c-1.2,0-2.4,0-3.7,0s-2.5,0.3-4.5-0.2c1.2-0.4,1.6-0.6,2-0.8c13.5-4.2,27.2-7.4,41.2-9.8
		c1.5-0.2,2.8,0,4.1,0.5c19.5,7.7,38.4,16.5,56.1,28c11.2,7.3,21.601,15.5,30.9,25c11.2,11.6,20.8,24.4,29.3,38.1
		c7.7,12.5,14.5,25.5,21.7,38.2c9.6,17.1,20.2,33.5,33.2,48.2c16.5,18.7,28.699,39.9,37.699,63c3.601,9.2,3.7,18.3,0.601,27.7
		c-2.101,6.3-5.101,12.2-8.5,17.9c-4.2,7.1-8.7,13.9-12.5,21.2c-9.8,18.6-16.9,38.3-20.7,59c-2.3,12.399-3.5,24.899-1.6,37.5
		c1.199,8,3.6,15.6,7.699,22.6c1.601,2.7,3.5,5.2,5.601,7.5c1.1,1.2,2.399,2,4.1,2.1c2.2,0.2,4-0.2,5.601-2
		c4.1-4.7,8.399-9.3,12.699-14c3.601-3.9,7.5-7.3,11.9-10.2c1.1-0.7,2.1-0.2,2.1,1.1c0.2,5.8,0.301,11.5,0.4,17.3
		c0.1,9.1,2.2,17.6,6.4,25.6c8.1,15.3,17.399,29.9,29.1,42.8c4.2,4.7,8.8,9,14.5,11.8c0.3,0.1,0.4,0.5,0.5,0.8h9.4
		c0.6-1.9,2-3.5,2-5.8c0.1-4.4,0.6-8.7,1-13c0.8-10.8,2.199-21.5,4.399-32.1c1.5-7.2,3.7-14.2,7.3-20.6c0.7-1.3,1.2-2.9,2.801-3.7
		c0.5,0.5,1.1,0.9,1.6,1.4c6.599,6.6,14.3,11.6,22.9,15.5c9.301,4.2,19.199,6.4,29.199,8.1c8.801,1.5,17.602,2.8,26.4,4.2
		c8.4,1.4,16.9,2.8,25.301,4.3c11.699,2.1,23.199,4.9,34,10.2c3.1,1.6,6.199,3.1,9.4,4.6c5.799,2.8,11.6,5.7,17.9,7.4
		c3.799,1,7.6,1,11.398,0.5c3.201-0.5,5-2.4,5.102-5.7c0.199-6.5,0-12.9-3.701-18.7c-0.799-1.2-1.299-2.5-1.9-3.7
		c-8-15.4-12.699-31.7-14.398-48.9c-1.5-15.7-1.301-31.4-1.9-47.1c-0.4-9.6,0-19.2-0.301-28.8c-0.301-8.1-2.301-15.9-6.5-22.9
		c-2.9-4.8-6.4-9.1-10.6-12.9c-1.801-1.6-3.5-3.2-5.301-4.8c0.6-0.6,0.9-1.1,1.301-1.4c2.4-1.7,4.801-3.6,7.301-5.2
		c19.799-12.7,41.5-19.7,64.699-22.3c1.9-0.2,3.801-0.5,5.699-0.7c1.701-0.2,2.801-1.3,3.6-2.8c1.4-2.5,1.102-4.9-1.1-7.2
		c-4.9-5.2-10.199-10-15.6-14.8c-10.199-9-20.801-17.6-30.5-27.2c-8.301-8.2-18.301-13.2-29.4-16.3c-8.799-2.4-17.799-3.5-26.9-4.2
		c-5.398-0.4-10.799-0.7-16.199-1.3c-4.199-0.5-8.301-1.3-12.4-2c-2.199-0.4-2.299-0.9-1.799-3.3c1.299-5.4,3.699-10.1,6.898-14.5
		c3.4-4.7,7.602-8.7,12.102-12.3c2.699-2.2,5.6-4.2,8.299-6.4c1.9-1.6,2.801-3.6,1.9-6c-0.801-2.5-2.301-4.4-5.1-4.5
		c-3-0.1-5.801-1.1-8.699-1.9c-2.201-0.6-4.301-1.3-6.5-1.8c-3.602-0.8-7.201-1.6-10.9-1.2c-6.4,0.8-12.801,1.8-19,3.7
		c-10.4,3.2-20.301,7.5-30.1,12c-21.201,9.9-29.801,16.2-45.701,33.4c-3.6,3.8-7.3,7.5-11,11.2c-3.6,3.5-7.7,6.5-12.3,8.9
		c-7.101,3.7-14.301,4.1-21.601,0.3c-4.3-2.3-8.699-4.5-13.199-6.4c-3.4-1.5-6.301-3.6-9-6.1c-9.7-8.6-19.4-17.1-30-24.5
		c-4.801-3.4-8.9-7.2-12.4-11.8c-1.4-1.8-2.8-3.6-4.1-5.4c-9.601-13-17.5-26.9-25.301-41c-6.699-12.2-13.5-24.4-21.1-36.2
		c-12.9-20-28.4-37.6-47.3-52.1c-13.801-10.5-28.7-19.2-44.301-26.7c-1.699-0.8-3.399-1.4-5.5-3.1c6.801-0.4,12.801-0.9,18.801-1
		c18.399-0.3,36.6,0.9,54.8,3c2.5,0.3,4.6,1.1,6.4,3c8.1,8.3,17.8,14,28.899,17.3c5.2,1.5,10.5,2.8,15.9,2.6c3.7-0.1,7.3-0.2,11-0.3
		c1,0,2.1,0.1,3.1,0c2.7-0.2,4.101-1.3,4.9-3.9c0.3-0.9-0.3-2.1,1-2.8c0.399,0.1,0.899,0.2,1.399,0.4
		c15.7,5.2,31.4,10.5,47.101,15.7c27.1,9.1,54.399,17.6,82.6,23.1c14.1,2.8,28.199,4.7,42.5,5.6c14.1,0.8,28.299,0.6,42.4-0.2
		c1.799-0.1,3.398,0.2,5,1.1c3.799,2.1,7.799,4,11.699,6c10.199,5.3,20.5,10.5,31,15.2c18.699,8.4,38.301,14,58.1,19
		c3.201,0.8,6.701,1,9.6,2.4c5,2.3,10.201,3.6,15.4,4.8c12.201,2.9,24.1,7,35.801,11.7c3.6,1.4,7.1,3,10.299,5.2
		c1.602,1.1,3.201,2.2,4.5,3.5c2.301,2.2,2.4,3.2,0.9,6c-1.4,2.6-3.199,5-5.199,7.2c-3.301,3.6-6.801,7.1-10.1,10.6
		c-11.801,12.7-19,27.5-19.701,45.1c-0.5,12.6,1.6,24.7,8.5,35.6c1.801,2.8,3.201,5.8,4.801,8.7c2,3.6,4.9,4.3,8.199,2
		c1.9-1.3,3.6-2.8,5.4-4.2c3.801-2.9,6.801-6.5,8.699-11c0.602-1.3,1.102-2.6,1.801-3.8c0.801-1.5,1.699-3.1,2.699-4.5
		c1.602-2.2,3.301-2.2,5,0.1c0.9,1.2,1.701,2.6,2.4,4c0.701,1.4,1.301,2.9,1.9,4.3c2.199,5.3,4.4,10.7,6.699,15.9
		c3.4,7.5,8.4,13.7,15,18.5c7.201,5.3,14.801,9.9,22.9,13.7c5.4,2.6,8.201,1.3,9.6-4.4c1.602-6.6,3.201-13.2,4.5-19.9
		c1.301-6.8,2.301-13.8,3.5-20.6c0.301-1.9,0.602-3.8,1.102-5.6c0.699-2.4,2-3.2,4.299-2.7c1.9,0.4,3.701,1,5.4,1.9
		c3.301,1.6,6.5,3.4,9.699,5.2c9.201,5.4,19.201,8.2,29.801,8.7c5.4,0.3,10.801,0.3,16.199,0.5c6.4,0.2,12.9,0.3,19.301,0.8
		c12.199,0.9,24.301,2.1,36.5,3.2c1,0.1,2.1,0.2,3.1,0.1c2.6-0.4,4.201-2.4,4.201-5.1c0-1.9-1.102-3.2-2.4-4.5
		c-2.6-2.6-5.201-5.2-7.701-7.8c-10.398-10.9-18.699-23-23.1-37.5c-0.799-2.5-1.6-5-2.5-7.4c-2.4-7-5.4-13.6-9.299-19.8
		c-4.5-7.2-10.102-13.3-18.102-16.9c-1.398-0.6-2.699-1.5-4-2.4c-1.299-0.9-1.5-1.7-0.6-3.1c1.801-3,4.1-5.7,6.701-8
		c6.898-6.1,13.398-12.7,20.6-18.5c2.199-1.7,4.1-3.8,5.9-5.9c1.299-1.6,2.5-3.4,3.398-5.3c1.9-3.8,0.801-6.5-1.699-8.3
		c-1.9-1.3-3.6-2.8-5.5-4c-7.1-4.8-14.801-8.4-22.9-11.4c-8.699-3.2-17.699-5.3-26.699-7.3c-2.9-0.6-5.801-1.4-8.5-2.4
		c-3.6-1.4-4.301-2.5-4-6.3c0.5-6.3,0.5-12.6,2.1-18.7c0.801-3.2-0.301-5.4-2.699-7.3c-2.4-1.9-5.301-2.6-8.201-3.1
		c-6.1-1.1-12.1-0.7-18.199-0.1c-9.6,0.9-17.699,4.9-24.699,11.4c-4.102,3.8-7.5,8.3-10.4,13.1c-3.5,5.6-6.4,11.6-9.4,17.5
		c-3.4,6.7-7,13.3-11.6,19.2c-2,2.6-4.301,5-7,7c-3.5,2.6-7.201,3.2-11.301,1.2c-3-1.5-6.199-2.4-9.4-3.2
		c-13.799-3.4-27.799-5.2-42-5.2c-4.6,0-9-0.5-13.5-1.4c-4.1-0.9-8.199-1.8-12.199-2.8c-28.5-6.8-55.9-16.4-81.6-30.4
		c-0.701-0.4-1.6-0.7-1.201-1.8c10.102-1,20.102-2.8,30-4.7c35-7,68.9-17.9,101.301-32.7c28.801-13.2,58.5-23.7,89.1-31.6
		c3.701-1,7.5-1.7,11.4-1.4c7.1,0.5,14.301,0.6,21.4,1.4c14.9,1.6,29.699,4.1,44.199,8c27.4,7.2,53.1,18.2,76.4,34.5
		c23.6,16.5,42.6,37.1,55.6,62.9c3.701,7.4,8.201,14.7,8.301,23.4c2.5,14.2,7.9,27.1,17.699,37.9c1.1,1.2,2.1,2.4,3,3.6
		c2.201,2.9,4.6,5.7,6.6,8.8c3.5,5.5,3.102,4,0,9.2c-3.299,5.5-6.799,11-10.199,16.5c-3,5-5,10.3-6.301,16c-1.5,6.5-2,13.1-2.5,19.7
		c-1,11.9,0.102,23.7,4,35.1c4.301,12.7,11.5,23.5,21.701,32.2c4.6,4,9.799,2.601,12-3.2c0.699-2,1.299-4,1.9-6
		c2.1-6.6,4.1-13.3,6.398-19.9c1.102-3.3,2.602-6.5,4.9-9.2c1.301-1.6,2.701-3.2,4.801-3.7c1.1,1.6,1.5,3.3,2,4.9
		c1.6,5.9,3.4,11.7,4.9,17.6c3.1,12.3,8.799,23.1,17.6,32.2c2.9,3,5.699,6.1,8.699,9.1c8.4,8.7,17.5,16.6,27.9,22.8
		c1,0.6,2.1,1.3,3.199,1.7c3.801,1.5,7.4-0.2,8.9-4c0.701-1.8,0.801-3.8,0.701-5.7c-0.201-5.3,0.6-10.4,1.799-15.6
		c0.701-3.1,1.4-6.1,2.1-9.2c2.102-8.8,3.801-17.8,3.602-26.9c0-0.5,0.199-0.9,0.299-1.5c1.801-0.1,3,0.9,4.4,1.5
		c9.4,4.2,18.9,8.1,29.1,10.2c7.201,1.5,14.5,2.2,21.9,1.2c8.301-1.1,16.5-2.8,24.699-4.4c12.301-2.5,24.602-5.1,37.201-6.1
		c1.699-0.1,3.5-0.2,5.199-0.4c1.199-0.1,2.4-0.1,3.699-0.2c5-0.5,7.602-3.8,6.5-8.7c-1.199-5.1-3.1-10-5.5-14.7
		c-2.398-4.8-5-9.6-7.6-14.3c-4.699-8.5-7.9-17.4-9.799-26.9c-1-5.1-2.102-10.3-3.102-15.4c-3-15-10-27.8-20.6-38.7
		c-9.699-10.1-21.1-17.6-34-23c-1.301-0.5-3.301-0.4-3.9-2.4c4.102-2.8,8.801-4.2,13.4-5.7c4.6-1.6,9.301-2.9,13.9-4.6
		c9.6-3.6,19.299-7.3,29.699-8.1c2-0.2,3.1-1.4,3.801-3.1c1-2.8,0.299-5.2-2.201-6.9c-3-2-6.199-3.9-9.299-5.8
		c-8.9-5.5-17.9-10.9-27.301-15.5c-9.5-4.6-19.299-8.1-29.6-10.1c-8.4-1.6-16.699-1.5-24.801,1.5c-2.799,1-5.6,2-8.398,3
		c-5.4,1.9-10.801,3.9-16.301,5.8c-2.801,1-5.699,1.5-8.699,1.6c-1.201,0-2-0.8-1.801-2c1.199-5.7,2.9-11.2,7.1-15.4
		c3.801-3.9,7.801-7.5,11.9-11c2.4-2,4.301-4.5,6.4-6.8c1.6-1.7,1.6-3.8,0.699-5.9c-0.9-1.9-2.5-2.9-4.6-2.8
		c-1.9,0.1-3.9,0-5.701,0.4c-19.998,3.8-38.498,11-55.398,22.4c-8.5,5.7-15.801,12.6-21.301,21.4c-5.6,8.9-10,18.4-13.199,28.4
		c-2.301,7.2-3.701,14.5-3.1,22.2c0,0.5,0,1,0,1.6c0,0.8-0.4,1.3-1.201,1.3c-10.4,0.3-19.299-2.9-25.5-11.6
		c-3.6-5-6.299-10.4-7.9-16.4c-0.5-1.7-1.1-3.3-1.799-4.9c-2-4.6-4.1-9.2-6.1-13.9c-5.102-11.5-11.301-22.4-18.801-32.6
		c-19.801-26.7-45.301-46.3-74.9-60.8c-23.301-11.4-47.9-19.1-73.5-23.5c-1.4-0.2-2.801-0.3-4-1.7c6.301-0.8,12.5-1.8,18.6-2.4
		c9.4-1,18.701-1.8,28.201-2.4c15.299-1,30.699-1.7,46-1.8c15.898-0.1,31.799,0.1,47.699,0.9c8.199,0.4,16.4,0.9,24.6,1.4
		c4.9,0.3,9.801,0.7,14.6,1.2c11.5,1.2,22.9,2.4,34.301,3.7c9,1.1,18,2.2,27,3.6c11.699,1.8,23.4,3.8,35.1,5.9
		c18.201,3.3,36.301,7.1,54.4,11c2.5,0.5,4.6,1.5,6.5,3.1c5.199,4.3,11.199,7,17.6,9c7.201,2.2,14.5,3.8,21.9,5.2
		c10,1.8,19.9,3.7,29.5,6.9c2.699,0.9,5,0.4,6.5-1.9c1.1-1.7,2.1-1.7,3.9-1.2c11.799,3.1,23.6,6.1,35,10.6
		c8.6,3.4,17.299,6.5,25.5,10.8c7.299,3.8,14.398,7.9,20.699,13.2c6.199,5.3,10.4,11.8,11.6,19.9c1,6.8,0.5,13.6-0.1,20.4
		c-0.6,6.4-1.5,12.9-1.301,19.3c0.301,14.1,2,28.2,5.102,42c3.699,16.6,9,32.6,16.699,47.8c4.801,9.4,10.6,18.1,18.301,25.4
		c5.1,4.9,10.699,8.9,17.199,11.7c1.801,0.7,3.6,1.4,5.5,1.7c3.1,0.5,5-0.8,5.9-3.8c0.5-1.8,0.9-3.7,1.299-5.6
		c1.4-6.1,2.602-12.3,4.102-18.4c1.199-4.6,2.799-9,5.699-12.8c1.4,0.7,1.9,2.1,2.6,3.3c2.9,4.8,5.701,9.6,8.602,14.4
		c4.398,7.1,10.1,13,17.1,17.5c15.5,9.9,31.799,18.2,49.4,23.6c4.199,1.3,8.5,2.2,12.799,2.3c2.4,0.1,4.9-0.1,7.301-0.7
		c4.1-0.9,5.6-4.2,4-8c-0.5-1.3-1.201-2.5-1.801-3.8c-5-10.2-9.799-20.4-13.9-31c-2.699-7.2-5.1-14.5-6.398-22.1
		c-0.701-4.3-0.9-8.6-0.201-13.1c1.701,0.3,3.201,0.6,4.701,1c8.898,2,17.898,2.3,27.1,1.2c9.4-1.2,18.4-3.9,27.199-7.2
		c8.301-3.1,16.602-6.4,25-9.4c7.102-2.5,14.102-5.1,20.9-8.4c3.4-1.7,7-3.1,10.699-4.3c10.801-3.7,21.801-6,33.4-5.8
		c4.801,0.1,9.4,0.9,14,1.7c3.5,0.6,7,0.5,10.201-1.1c2.799-1.3,5.1-3,5.199-6.6c0-0.4,0.5-0.9,0.699-1.3v-10.5
		C2577.099-1162.9,2575-1163.8,2573.099-1165 M1537.599-1407.7c2.701-3.2,5.201-6.6,8-9.6c5.801-6.3,11.301-12.8,14.801-20.7
		c0.9-1.9,1.4-3.9,2.1-5.9c0.9-2.7,0.1-4.8-1.5-6.8c-0.4-0.5-1-1-1.4-1.5c-5.398-5.7-10.799-11.4-16.199-17.1
		c-6-6.4-9.199-14.3-11.6-22.5c-1.5-5.2-2.9-10.3-3.701-15.7c-1.5-10.9,0-21.2,4.9-31c0.201-0.5,0.5-0.9,1-1.7
		c1.801,2.9,3.201,5.3,4.6,7.6c3.102,5.3,6.701,10.2,11.201,14.4c5.199,4.8,11.199,6.8,18.199,6.4c2.9-0.2,5.301-2.4,5.6-5.3
		c0.602-5.4,1.4-10.7,1.201-16.1c-0.301-7.3,0.799-14.6,2.1-21.8c0.699-4.1,2.4-8.1,4.4-11.7c5.299-9.4,10.9-18.7,17.699-27.1
		c0.5-0.7,1.1-1.3,1.701-2c0.699-0.8,1.799-0.7,2.1,0.2c3.4,9.9,8.799,19,12.1,28.9c1.699,5,2.9,10,2.801,15.3c0,1,0,2.1,0.299,3.1
		c1.201,4.4,4.6,4.7,7.801,3.4c1.6-0.6,2.9-1.9,4.199-3c7.201-6.1,14.701-11.8,22.9-16.5c8.9-5.1,18.4-8.3,28.801-8.3
		c2.398,0,4.898,0.1,7.299-0.7c1.1-0.4,2.4-0.2,3.6-0.2c5.9,0,11.9-0.1,17.801-0.1c3.5,0,6.9,0,10.4-0.8c3.4-0.8,7,0.1,10.4-1
		c0.799-0.3,1.398,0.6,1.299,1.7c-0.799,5.7-2.6,11.2-4.199,16.7c-2.4,8.4-3.9,16.9-3.699,25.7c0.199,6.8-0.102,13.6,0.1,20.4
		c0.299,13-4.4,24.2-11.801,34.5c-4.6,6.4-10.199,12-16.6,16.6c-2.699,1.9-5.6,3.6-8.4,5.3c-1.301,0.8-2.699,1.6-4,2.5
		c-3.1,2.1-3.199,5.5-0.199,7.7c1.699,1.2,3.5,2.3,5.4,3.2c4.398,2,9.1,3.3,14,4c5.699,0.9,11.398,0.7,17.1,1.7
		c5.299,0.9,10.699,1.8,16.1,1.5c0.4,0,1,0.3,1.301,0.6c0.6,0.7,0,1.3-0.4,1.8c-1.801,1.9-3.6,3.8-5.6,5.5
		c-7.301,6.2-14.4,12.6-22.602,17.7c-6.5,4-13.299,6.9-20.699,8.4c-1.801,0.4-3.9,0.5-5.699,0.2c-2.701-0.6-5.602-0.5-8.301-1.1
		c-7.699-1.7-15.5-2.1-23.4-1.9c-2.699,0.1-5.1,0.9-7.5,1.9c-1.9,0.8-3.199,2.4-3.5,4.3c-0.4,2.6-0.6,5.2,0.5,7.7
		c2,4.7,4.801,8.9,7.9,12.9c1.6,2.1,4,3.3,6.301,4.6c1.199,0.7,2.398,1.4,3.699,2c0.5,0.3,0.801,0.6,0.801,1.2
		c-0.102,0.7-0.701,0.8-1.201,0.8c-15.299-1.4-30.299-4.2-44.199-11.3c-7.201-3.7-13.301-8.8-18.4-15.2
		c-3.9-4.9-7.699-9.9-10.9-15.3c-2.199-3.8-3.6-7.9-5.1-12c-0.801-2.2-0.4-4.5-0.4-6.8c0-1.2-0.1-2.4-0.9-3.5
		c-1.1-1.4-2.5-2-4.1-1.3c-0.5,0.2-0.9,0.4-1.4,0.7c-8.199,3.9-15.799,8.9-23,14.5c-3.6,2.8-6.799,6-9.5,9.7
		c-1.199,1.7-2.699,3.1-4.1,4.7C1535.4-1405.4,1536.701-1406.6,1537.599-1407.7 M1126.6-1583.1c0.601-6.1,2-12,4.101-17.7
		c3.3-9.1,7.899-17.4,13.6-25.2c5.101-7,11.5-12.6,18.3-17.8c4.2-3.2,7.9-6.9,11.301-10.9c2.899-3.5,5-7.5,4.699-12.4
		c-0.1-1.7-0.6-3.1-1.8-4.2c-0.3-0.2-0.5-0.5-0.7-0.8c-6.199-6.6-12.399-13.2-18.8-19.7c-7.3-7.5-12.8-16-15.899-26
		c-2.5-8-5-15.9-6.601-24.1c-1.5-8.1-2.1-16.3-1.3-24.5c1.1-10.4,3.8-20.5,9-29.8c1.1-2,2-4.1,3.9-5.4c2.399,1.3,2.699,3.9,3.699,6
		c3.9,8.8,8.4,17.2,14.4,24.8c3.4,4.3,7.4,7.9,12.4,10.3c2.8,1.3,5.699,2.5,9,2.5c1.199,0,2.399,0.4,3.6,0.6c3.9,0.7,6.9-1.2,7.8-5
		c0.9-3.9,1.5-7.9,2.3-11.7c1.2-5.9,0.101-11.9,1.801-17.6c-0.4-4.4,0.699-8.7,1.199-13c0.7-5.9,2.301-11.6,4.9-17
		c4.9-10.3,10.9-19.9,17.5-29.1c3.5-4.9,7.3-9.8,11.4-14.3c2.8-3.1,5.5-6.3,8.5-9.2c1-0.9,2.1-0.7,2.399,0.6
		c2.4,10.4,7.101,20,10.9,29.9c3,7.8,5.6,15.8,7,24c0.6,3.6,0.5,7.3,1.2,10.9c0.3,1.6-0.301,3.1-0.7,4.6c-0.601,2.4,0.899,4,2.5,5.3
		c1.7,1.3,3.6,1.3,5.399,0.3c1.2-0.6,2.4-1.5,3.5-2.3c9.4-7.3,19.301-13.7,29.601-19.7c9.2-5.4,19.1-9.4,29.6-11.6
		c4-0.8,8.2-1.6,12.401-1.5c5.898,0.1,11.898,0,17.799,0.1c3.1,0,6.301-0.2,9.4,0.7c1.301,0.4,2.801,0.2,4.199,0.2
		c11.4,0,22.701,0,34.102,0c2.398,0,4.898,0.1,7.299-0.7c1-0.3,2.1-0.3,3.1-0.3c3.201-0.1,3.801,0.7,3,3.7
		c-1.799,6.9-3.799,13.7-6.299,20.4c-3.201,8.6-6,17.4-7.201,26.6c-0.898,7.3-1.898,14.5-1.898,21.8c0,4.3,0.299,8.7-0.801,13
		c-0.4,1.5-0.199,3.1-0.199,4.7c0,13.4-3.9,25.7-11.201,37c-4,6.2-8.4,12-13.299,17.4c-9.201,10.3-20,18.3-32.4,24.2
		c-1.9,0.9-3.701,2-5.701,2.7c-3.199,1.1-3.299,6-0.6,7.8c2.5,1.6,4.9,3.4,7.4,4.9c6.1,3.4,12.699,5.5,19.699,6.6
		c7.9,1.3,15.801,2,23.602,3.8c5.898,1.4,11.898,2.3,17.898,3.2c3.102,0.5,6.301-0.2,9.4,1.6c0,1.1-0.6,1.5-1.1,2
		c-11.801,10.1-23.699,20-36.801,28.4c-11.799,7.5-24.6,12.3-38.199,15c-0.801,0.2-1.801,0.3-2.6,0.2c-8-1.4-16.1-2.8-24.1-4.5
		c-8.7-1.8-17.5-3.2-26.4-2.7c-1.899,0.1-3.8,0.4-5.6,1c-7.2,2.3-9,7.5-7.8,13.9c0.399,1.9,1.199,3.6,1.899,5.4
		c2.101,4.8,5,9.2,8,13.4c2.601,3.6,6.101,6.2,10,8.3c3.301,1.8,6.4,4,9.4,6.2c-0.2,1.3-1,1-1.7,1.1c-9.3,0.3-18.399-1.3-27.3-3.5
		c-10.6-2.7-21.1-6.2-31.1-10.8c-12.2-5.6-22.5-13.7-31-24.3c-7.301-9.2-13.5-19.1-18.4-29.7c-3.3-7.2-5.4-14.7-5.1-22.7
		c0.3-6.7-0.801-6.6-6.9-6.4c-4.2,0.1-8.2,1.6-12.2,2.7c-7.899,2.1-14.8,6.1-21.3,11c-12.6,9.5-21.1,22.1-26.7,36.7
		c-1.399,3.6-2.699,7.2-3.399,10.9c-0.101,0.5-0.4,1.1-1,0.9C1126.4-1581.9,1126.5-1582.5,1126.6-1583.1 M968.1-1544.4
		c-9.3,3.2-18.699,5.7-29,5.5c-3.399,0.1-7.199-0.1-11-1.2c-9.399-2.7-15.1-9.7-15.399-19.4c-0.3-11.9,5.6-20.3,15.8-25.6
		c12.5-6.5,25.1-1.7,32.2,7.5c1.6,2.1,2.899,4.3,4,6.7c3.5,7.6,4.899,15.6,5.2,23.8C970-1545.7,969.5-1544.9,968.1-1544.4
		 M557.9-1407.5c1.3-1.2,2.5-2.4,3.899-3.5c3.3-2.6,6.101-5.6,8.9-8.8c4-4.7,7.7-9.4,11-14.6c3.2-5,4.899-10.4,5.3-16.2
		c0.3-4.9-1.1-9.6-3-14.2c-2.2-5-5-9.6-8.3-13.9c-5.4-7-9.2-14.7-12.8-22.7c-3.7-8.1-6.4-16.6-8.601-25.2
		c-1.7-6.7-3-13.5-3.899-20.4c-0.801-5.4-0.801-10.8-0.9-16.2c-0.1-7.1,1.5-13.8,4.1-20.3c0.7-1.8,1.9-3.3,2.9-4.9
		c0.6-1,1.9-1,2.7,0c1.7,2.2,3.399,4.4,5.2,6.6c3.6,4.3,7.399,8.4,12.1,11.5c2.5,1.6,5.2,2.8,8.1,3.6c2.4,0.7,4.101,0.1,5.4-2
		c1.1-1.6,1.4-3.5,1.5-5.5c0.3-5,0.9-10,1.2-15.1c0.6-8.6,3.3-16.7,8.5-23.8c2.899-4.1,5.7-8.3,8.8-12.3c4.3-5.5,8.8-10.8,13.8-15.7
		c1.101-1.1,2.2-2.2,4.3-2.2c0,3.8,0.101,7.4,0.101,11.1c0,2.8-0.2,5.6,0.7,8.3c0.399,1.1,0.199,2.4,0.199,3.6
		c0.101,9.2,2.4,17.9,5.9,26.3c1.3,3.2,3.1,6.2,5.5,8.9c0.8,0.9,1.7,1.8,2.7,2.5c2,1.5,3.7,1.4,5.8-0.1c0.8-0.6,1.6-1.4,2.3-2.1
		c7.2-7.2,16.101-11.6,25.9-14.1c4.7-1.2,9.6-1.5,14.399-2.4c6.2-1.2,12.601,0.1,18.7-1.8c5.601,0.4,11.101-0.8,16.601-1.4
		c5-0.6,10.1-0.2,15-1.7c11.199-0.5,21.3-4.7,31.5-8.8c3.1-1.2,6.199-2.4,9.3-3.6c0.8-0.3,1.7-0.3,2.5-0.3c0.5,0,1.1,0.4,0.899,1
		c-0.399,1.9-0.699,3.8-1.5,5.5c-1.3,2.9-2.6,5.8-4.399,8.3c-6.3,9-10.101,19-12.601,29.7c-1.1,4.9-1.5,10-2.399,14.9
		c-1.101,5.9-0.101,11.9-1.7,17.7c-0.4,1.6-0.1,3.5-0.2,5.2c-0.1,3,0.2,5.9-0.8,8.8c-0.2,0.6-0.2,1.4-0.2,2.1
		c0.5,5.3-0.7,10.4-1.3,15.6c-1.2,10.1-5.4,18.6-14,24.6c-1.9,1.3-3.6,2.8-5.6,3.8c-0.5,0.2-0.9,0.5-1.301,0.8
		c-4.699,3.5-5,5.9-0.8,10.2c7.101,7.3,15.101,13.5,24,18.3c10.101,5.5,20.601,10.3,31.9,12.9c0.5,0.1,1,0.4,1.4,0.7
		c0.3,0.2,0.399,0.5,0.699,0.9c-0.399,0.5-0.8,1.1-1.3,1.5c-7,5.2-14,10.3-21,15.5c-4,3-8.1,6.1-11.899,9.4c-4.2,3.5-9.2,5-14.2,6.3
		c-3.5,0.9-7.2,0.9-10.8,1.3c-10.601,1.3-21.301,0.4-31.9,1c-3.8,0.2-7.6,0.7-11.3,2c-3,1-3.9,2.2-3.9,5.4c0,7.3,1.7,14.1,5.3,20.5
		c2.3,4,4.8,7.7,7.9,11c0.6,0.6,1.4,1.2,0.9,2.2c-0.5,0.9-1.5,0.7-2.301,0.7c-6.399,0.6-12.5-0.7-18.3-3.3
		c-9.1-4-17.6-9.3-25.2-15.7c-3.3-2.8-6.3-6-9.399-9.1c-5.101-5.1-10.101-10.2-15.2-15.2c-3.5-3.5-7.4-6.3-11.3-9.2
		c-3.7-2.7-7.9-4.4-12.101-6.1c-2.1-0.8-4.3-1.1-6.6-1.3c-7.1-0.4-13.9,0.8-20.3,3.7c-4,1.8-8,3.6-11.9,5.4
		c-4.399,2.1-8.899,3.9-13.6,5.5c-0.3,0.1-0.7,0-1-0.2C557.3-1406.7,557.6-1407.2,557.9-1407.5 M365.2-1461.2
		c-4.7-0.7-9.2-1.7-13.601-3.5c-2.6-1-5.1-2.3-7.199-4.2c-4-3.5-4.7-7.4-2.101-12.2c1.3-2.5,3.2-4.5,5.8-5.9
		c4.801-2.6,10-4.1,15.4-4.8c5.3-0.6,10,1.2,14.3,4.1c3.3,2.3,6.3,5,8.8,8.1c3.101,3.7,6.2,7.5,8.7,12.2
		C385.6-1461.7,375.8-1459.6,365.2-1461.2 M206.4-1166.7c1.5,0,2.1,0.8,2.5,2.1c1.5,4.4,2.5,9.3,2.4,13.8c0,6.5-1.7,12.4-5.7,17.5
		c-9.3,11.9-23.4,7.3-28.1-3.8c-2.1-5-2-10,0.9-14.6C184.8-1161.9,194.2-1166.9,206.4-1166.7 M450-1170.5c5.7,3.1,11.2,6.4,16,10.8
		c3.1,2.9,6.6,4.3,10.8,4.4c6,0.2,11.2-1.5,16.2-4.8c5.1-3.3,9.3-7.2,12.5-12.3c1.5-2.4,3.1-4.6,4.6-7c5.5-8.4,13-14.6,22.301-18.3
		c7.1-2.8,14.3-2.4,21.5-0.4c2.8,0.8,5.6,2,8.3,3.1c1.1,0.5,1.5,1.4,0.8,2.6c-2.3,4.1-3.7,8.6-5.3,13c-2,5.5-1.7,10.3,2.8,14.9
		c4,4.1,9,6.6,13.8,9.3c5.8,3.2,11.4,6.7,16.601,10.8c5.199,4,10,8.7,14.199,13.8c0.9,1.1,0.801,1.8-0.5,2.5
		c-2.199,1.1-4.3,2.2-6.6,3.3c-6.5,3-13.1,5.8-19.5,8.9c-3.4,1.7-6.7,3.7-9.8,6c-5.4,3.9-5.101,7.1-4.5,12.9c0.1,1.2,1.2,2.1,2,3
		c1.6,1.8,3.2,3.7,4.8,5.5c5.2,5.4,7.2,12.2,8.7,19.2c1,4.3,1.3,8.6,1,13c-0.3,6.3,0.6,12.6,1.399,18.7c0.9,7.4,3.301,14.6,6.4,21.4
		c0.5,1.1,1,2.2,1.4,3.4c0.1,0.4,0,1.1-0.301,1.4c-0.3,0.2-1,0.2-1.399,0c-13.601-5.8-27.601-10.6-41.7-15.2c-6.1-2-12-4.7-17.5-8.2
		c-2.1-1.3-3.9-2.9-5.7-4.6c-3.7-3.7-7.399-7.4-11.1-11.1c-3.101-3-6.8-4.7-11.3-4.4c-2,0.1-3.801,0.7-5.301,2
		c-2.5,2.2-4.699,4.5-6,7.8c-3.8,9.6-9.199,18.4-14,27.5c-0.899,1.7-2,1.8-3.3,0.5c-5.5-5.2-10.3-10.9-13.7-17.7
		c-1.399-2.8-2.3-5.8-2.699-8.9c-0.801-6.4-1.601-12.7-2.101-19.2c-0.2-2.9-1.1-5.9-2.2-8.6c-2.199-5.4-8.6-7.8-14-5.5
		c-1.899,0.8-3.8,1.8-5.199,3.4c-2.101,2.1-4.2,4.2-6.301,6.3c-1.699,1.8-3.8,3-6.3,3.6c-2.1-2.9-2.1-6.4-2.399-9.5
		c-0.801-8.6,0.199-17.1,4.1-24.9c2.3-4.7,5.1-9.1,8.6-13c6.101-7,13.801-11.6,21.9-15.9c4.6-2.5,9-5.3,12.7-9.1
		c2.1-2.1,3.1-4.7,3.7-7.4c0.5-2.2-0.5-4.5-1.3-6.6c-0.801-2.1-1.9-4.1-3.5-5.8c-4.601-4.5-8.801-9.5-14.101-13.2
		c-0.399-0.3-0.7-0.8-1-1.2C448.9-1171.2,449.5-1170.8,450-1170.5 M576.8-1255c-1,0-2.2-0.3-3.1,0.1c-3.3,1.4-6,0.1-8.9-1.1
		c-19.5-7.9-39.1-15.7-59-22.7c-20.6-7.2-41.399-13.5-62.8-17.8c-3.5-0.7-7.1-1.3-10.7-2c0.9-1.4,2.2-1.3,3.4-1.4
		c10.2-0.8,20.5-1.5,30.8-1.8c8.4-0.3,16.7,0,25.1,0.5c23.801,1.3,47.101,5.1,69.4,13.7c17.3,6.7,32.5,16.8,46,29.3
		c0.4,0.4,0.7,0.8,1,1.2c0.1,0.1,0,0.3-0.2,0.8c-4.3,0.5-8.7,0.8-13.2,0.9C588.6-1255.1,582.7-1255.1,576.8-1255 M598.1-1243.5
		c7.101-0.4,13.7-0.8,20.2-1.2c0.9-0.1,1.7,0.2,2.3,0.9c3.101,3.7,6.301,7.4,9,11.7C625-1232.5,603.8-1240.2,598.1-1243.5
		 M954.7-940.1c6.399-5.8,13.899-7.7,22.3-5.3c1.8,0.5,3.6,1.4,5.1,2.5c4.101,2.8,5.4,7.3,3.801,12c-0.801,2.4-2,4.5-3.9,6.1
		c-1.3,1.1-2.6,2.3-4.2,3.1c-9.8,5.3-20.399,6.4-32,5.5C946.1-925.7,947.9-933.9,954.7-940.1 M818.4-1060.9
		c4-3.4,8.399-6.1,13.399-7.9c3.3-1.2,6.7-1.7,10.2-1.6c3.3,0.1,5.7,1.5,7.3,4.2c1.9,3.1,2.5,6.5,1.9,10c-0.5,2.5-1.7,4.5-3.8,6
		c-1.9,1.3-3.9,2.2-6.101,2.9c-6.899,2.2-14,2.5-21.1,2.5c-2.8,0-5.5-0.3-8.7-0.5C811.3-1052.1,813.7-1057,818.4-1060.9
		 M910.6-1250.4c16.9-6.8,33.9-13.5,50.801-20.3c1.3-0.5,2.5-1.1,3.699-1.7v-0.1v0.1v-0.1c0,0,0.101,0,0.101,0.1
		c0.399,0,0.899-0.1,1.3-0.2c0.5-0.1,0.7,0,0.5,0.4c-0.1,0.2-0.5,0.4-0.7,0.3c-0.399-0.1-0.7-0.3-1.1-0.5c0,0,0,0-0.101,0l0,0
		c0.101,0.5,0.4,1.1,0.301,1.3c-0.9,0.8-2,1.4-3,2c-4.301,2.6-8.5,5.4-12.301,8.8c-4.199,3.8-7.199,8.4-9.6,13.6
		c-2,4.4-4.1,8.8-6.2,13.2c-0.899,1.8-1.5,2-3.2,0.8c-1.399-1-2.899-2-4.1-3.3c-4.8-5.3-10.8-8.7-17.3-11.4
		c-0.601-0.3-1.2-0.6-1.8-0.8C908-1250.2,909.7-1250,910.6-1250.4 M1010.3-1271.7c0.5,0,1.101,0,1.5,0.2c1.5,0.9,4,0,4.601,1.7
		c0.699,1.9-1.601,2.8-2.801,4c-2.199,2.3-4.399,4.5-6.699,6.7c-1.7,1.7-3.101,3.7-4.7,5.6c-4.8,6-5.9,12.8-5.2,20.2
		c0.1,0.9,0.3,1.7,0.5,2.5c1.1,3.7,1.6,4,5.5,4.2c7.6,0.4,14.9-1.1,22.2-2.7c7.6-1.7,15.2-1.9,22.899-1.4
		c3.101,0.2,6.2,1.1,9.101,2.1c9.3,2.9,18.6,6,27.3,10.6c0.5,0.2,0.9,0.5,1.4,0.8c1.199,0.7,1.3,1.7,0.3,2.5
		c-1.4,1.1-2.8,2.1-4.2,3.2c-5,3.7-10.1,7.4-15.1,11.2c-6.5,4.9-13.5,8.7-21.4,10.5c-2.5,0.6-3.6,2-4.2,4.1
		c-0.399,1.4-0.3,2.8,0.801,3.9c1.6,1.6,3.3,3.2,5,4.6c6.5,5.2,13.199,10.3,19,16.3c8.3,8.5,14,18.5,16.899,30.1
		c3.2,13,6.301,26,10.5,38.8c0.801,2.5,1.7,4.9,2.601,7.7c-2.301,0.8-4.101,0.5-5.801,0.5c-6.8,0-13.6,0-20.399-0.1
		c-6.101-0.1-12.101,0.8-18.101,2.1c-8.8,2-17.699,3.8-26.5,5.8c-3.8,0.9-7.7,0.9-11.5,0.3c-16.899-2.6-31.3-10.3-43.3-22.4
		c-2.1-2.1-4.1-4.3-6.3-6.3c-1.9-1.8-3.8-1.6-5.3,0.5c-0.601,0.8-1.2,1.8-1.5,2.7c-1.3,4.1-2.5,8.3-2.5,12.7
		c0,6.1,0.5,12.2,1.899,18.1c0.101,0.5,0.2,1,0.2,1.6c-0.3,4.9,1.4,9.6,1.2,14.6c-0.1,2,0.6,4.1,0.9,6.2
		c0.1,1.1-0.601,1.6-1.601,1.1c-0.6-0.3-1.199-0.7-1.8-1c-8.5-5.5-16.6-11.6-24.2-18.2c-6.3-5.4-11.1-12.1-15-19.3
		c-1.5-2.8-2.199-5.8-2.399-9c-0.5-7.8-1.3-15.6-2.101-23.4c-0.3-2.4-1.199-4.7-1.899-7.1c-0.7-2.8-2.5-4.9-4.5-6.9
		c-2.601-2.6-5.4-2.8-8.601-1.5c-2.1,0.9-4.1,2-5.699,3.7c-1.301,1.4-2.7,2.8-4.101,4c-4.3,3.7-6.8,8.4-7.7,13.9
		c-0.199,1-0.5,2-1.3,2.8c-1,0.1-0.7-0.9-1-1.4c-0.2-0.5-0.5-1-0.5-1.5c-0.5-3.4-1.2-6.9-1.3-10.3c-0.2-6.3-0.4-12.6,0-18.9
		c1-14.2,5.6-27.2,14.9-38.3c3.3-3.9,6.699-7.6,10.199-11.2c5.301-5.4,11.5-9,18.801-10.8c2.8-0.7,3.699-2.2,3-5
		c-0.301-1.2-0.9-2.3-1.4-3.4c-5.6-11.1-14.1-19.4-25.2-24.9c-5.6-2.8-11.7-4.6-18.2-4.7c2.801-1.8,2.801-1.7,4.9-1.9
		c13.6-1.1,25.3,3.7,35.8,11.9c2.2,1.7,4.3,3.6,6.5,5.3c1.101,0.9,2.3,1.7,3.5,2.2c7.2,3,11.101,2.3,14.7-4.7
		c2.2-4.2,4.2-8.4,6-12.8c2.1-5,4.7-9.8,8.7-13.5c2.1-1.9,4.399-3.4,6.8-4.8c7.2-4.3,14.3-8.6,22.4-11.2
		C994.7-1271.5,1002.4-1272,1010.3-1271.7 M1249.4-1091.2c2.899,2.7,5.6,5.2,8.399,7.5c2.101,1.7,4.2,3.1,6.601,4.2
		c5.699,2.7,11.399,5.2,17,8c3.8,1.9,8.1,1.9,12.1,2.9c7.1-0.9,14.2-1.9,20.3-6c3.5-2.3,6.9-4.7,10-7.6c3.101-2.8,6.5-5.3,9.2-8.6
		c4.7-5.9,10.3-10.9,15.5-16.3c3.5-3.7,7.6-6.8,11.9-9.3c7.801-4.6,15.801-8.8,24.199-12.4c6.701-2.9,13.4-5.8,20.4-8.1
		c4.301-1.4,8.701-2.7,13.1-3.5c4.801-0.9,9.701-1.1,14.5,0.6c1.602,0.6,1.801,1.3,0.5,2.6c-1.6,1.6-3.199,3.2-4.799,4.8
		c-5.801,5.7-10.201,12.3-13,20c-1,2.8-1.9,5.6-2.1,8.6c-0.102,1.4-0.4,2.8-0.602,4.1c-0.699,4,0.9,6.8,4.701,8.2
		c4.299,1.5,8.699,2.3,13.199,3c5,0.8,10,1.4,15,2c0.5,0.1,1,0.1,1.6,0.1c8-0.1,16,1.1,23.9,2.3c10.6,1.6,20.6,5.3,29.201,11.9
		c1.199,1,2.398,2.1,3.398,3.2c4.602,5.1,10.102,9.2,15.102,13.8c6.699,6.1,13.699,11.9,20.5,17.9c0.299,0.3,0.5,0.9,0.5,1.3
		c0,0.7-0.602,0.8-1.102,0.9c-19.299,3.3-37.199,10.3-54.299,19.7c-7.201,4-13.701,8.9-20.1,14.1c-0.9,0.8-1.801,1.7-2.4,2.7
		c-2.1,3.2-1.4,6.7,1.9,8.6c5.5,3.2,10.1,7.4,14.5,11.9c4.898,5.1,7.299,11.3,8.6,18.1c1.1,5.9,1,11.8,1,17.7c0,10,0,19.9,0.1,29.9
		c0,1.9,0,3.8,0.5,5.7c0.4,1.5,0.4,3.1,0.4,4.7c0.1,4.7-0.1,9.4,0.199,14.1c0.301,5.4,1.199,10.7,1.699,16.1
		c0.5,5.4,1.5,10.7,2.9,15.9c2.9,11.4,7.1,22.2,12.6,32.6c1.301,2.5,2.602,4.9,3.301,7.7c0.301,1.1-0.301,1.8-1.4,1.4
		c-3.4-1.3-6.9-2.5-10.199-4c-4-1.8-7.9-3.7-11.699-5.8c-10.201-5.4-21.102-9.1-32.4-11.6c-5.1-1.101-10.201-2-15.5-2.3
		c-4.701-0.3-9.301-1.5-13.9-2.3c-5.6-1.1-11.301-2-16.9-2.899c-10.6-1.601-21.4-3-31.6-6.4c-8.1-2.7-15.801-6.5-22.5-12
		c-3.699-3-7.199-6.1-10-9.9c-2-2.8-6.7-3-9.3-0.6c-1.7,1.5-3.2,3.2-4.5,5c-5.6,7.8-9,16.5-11.3,25.7c-1.8,6.9-3.2,13.9-4.101,20.9
		c-0.5,4.5-1.5,8.9-1.399,13.5c0.1,2.7-0.7,5.4-1.101,7.9c-0.899,0.3-1.3-0.1-1.699-0.5c-1.9-1.8-3.801-3.6-5.5-5.6
		c-6.101-7.2-11.801-14.7-16.7-22.8c-4.2-7-8.8-13.8-11.7-21.6c-1.8-4.9-3.1-10-3.1-15.3c0-4.5-0.2-9.1,0-13.6
		c0.2-5.1-0.7-10.1-1.1-15.1c-0.2-2.5-1.9-4-4.5-4.2c-3.2-0.3-6.301,0.4-9.101,1.7c-4.6,2.2-8.899,4.8-12.6,8.4
		c-3.8,3.6-7.4,7.4-11.101,11.1c-1,1-1.899,2-3,3c-1.3,1.2-2.5,1.1-3.399-0.6c-2.9-5.4-4.8-11.2-5.5-17.3
		c-0.3-2.601-0.3-5.2-0.9-7.8c-0.3-1.3-0.399-2.9-0.1-4.2c1.399-4.7,0.8-9.7,1.6-14.5c1.3-7.2,2.5-14.4,4.5-21.4
		c2.4-8.6,5.3-17,8.7-25.2c3.7-8.7,7.9-17.1,12.7-25.2c1.199-2.1,2.6-4.1,3.899-6.2c3-4.9,6.4-9.6,9-14.7
		c2.9-5.7,5.301-11.7,5.7-18.3c0.2-3.1,1.2-6.2,0.9-9.3c-0.9-7.1-2-14.1-4.601-20.8c-4.1-10.2-8.5-20.2-14.199-29.7
		C1249.4-1089.1,1248.9-1089.7,1249.4-1091.2 M1084-1310.8c-0.6-1.3,0.2-1.8,0.8-2.4c2.101-2.5,4.4-5,6.3-7.7
		c6.101-8.3,14-14.6,22.4-20.3c2.2-1.5,4.5-2.6,7.1-3.3c2.9-0.8,3.601-0.6,5.301,1.9c1.6,2.3,2.8,4.8,3.699,7.5
		c1.4,4.3,2.801,8.6,4.301,12.9c1.399,4.1,3,8.1,4.8,13C1120.1-1310.5,1102-1311.7,1084-1310.8 M1187.5-1283.2
		c-6.9-1.5-13.3-4.3-19.2-8c-7.1-4.5-12.7-10.8-17.399-17.9c-3.7-5.8-6-12.1-8.101-18.6c-2-6.5-4.2-12.9-7.5-18.9
		c-1.1-2-2.399-3.8-4.1-5.4s-3.7-2.4-6.101-2.6c-5.399-0.4-10.5,0.6-15,3.5c-5.199,3.3-10.3,6.6-14.6,10.9c-0.5,0.5-1,1.1-1.5,1.4
		c-4.6,2.9-7.6,7.1-10.7,11.3c-1,1.4-2,2.8-4,4.1c0.4-3.9,3-5.8,4.601-8.1c4.899-7,11.399-12.8,17.5-18.7c1.5-1.4,3.399-2.4,5.1-3.6
		c3.2-2.4,6.1-5.2,8.1-8.8c2.9-4.8,2.601-10.2,1.7-15.3c-1.6-8.9-5.8-16.8-12.1-23.3c-2.8-2.9-5.5-5.8-8.601-8.5
		c-5.399-4.8-8.5-11-11.399-17.3c-3.101-6.7-3.7-13.7-3.2-20.9c0.1-0.9,0.1-1.8,0.4-2.6c2.1-6.3,4.5-12.5,8.399-18
		c0.301-0.4,0.601-0.8,1-1.2c1.101-1.2,1.9-1.4,3.101-0.4c4.399,3.7,9.6,6.4,14.399,9.5c2.4,1.6,5,2.2,7.9,2.2c3.9,0,7.2-1.4,10-3.9
		c3.6-3.3,7-6.8,10.1-10.6c3.5-4.3,7.7-8,11.601-12.1c5.3-5.6,11.3-10.4,17.8-14.5c2.1-1.3,4.3-2.4,6.4-3.5
		c1.199-0.6,1.8-0.3,2.3,1.2c1.3,3.4,1.7,7.1,2.6,10.6c1.801,7.4,3.9,14.8,5.601,22.2c1,4.5,2.899,8.6,5,12.6c3.1,5.9,9.8,8,15.6,5
		c2.3-1.2,4.5-2.7,6.7-4.1c4.6-3,9.6-4.9,15.1-5.1c1,0,2.1-0.2,3.1-0.5c1.7-0.5,3.5-0.5,5.2-0.4c6,0.7,12.101,1.4,18.101,2.3
		c4.5,0.7,8.8,1.8,13.399,1.8c0.9,0,1.8,0.1,2.601,0.4c2,0.7,4.199,0.9,6.199,0.5c5-0.9,10.101-0.5,15-1.7c2-0.5,4.101-0.4,6.2-1
		c1.8-0.5,3.601-1.4,5.5-1c0.7,2.5-1.6,3.5-2.7,5.2c-7.5,12.1-15.399,24.1-22.199,36.7c-3.2,6-6.9,11.7-11.2,17
		c-3.8,4.9-8.9,8.3-14.2,11.4c-5.1,3-10.1,6.3-14.1,10.8c-3.801,4.3-5.101,9-2.9,14.5c0.5,1.4,1.4,2.4,2.3,3.4
		c3.301,3.7,7.2,6.5,11.101,9.5c6.1,4.7,12,9.5,18,14.3c1.699,1.4,3.199,3.1,5,4.8c-3.301,3-6.9,4.6-10.301,6.7
		c-2.1,1.3-4.3,2.3-6.5,3.3c-4.899,2.3-10,3.9-15.6,3.5c-5-0.3-10.1,0.1-15.1-0.9c-3.2-0.7-6.601-0.5-9.801-1.1
		c-3.8-0.7-7.699,0.3-11.3,1.5c-4.7,1.5-7.3,6-7.6,10.9c-0.3,4.5,1.8,8.1,4,11.7c1.1,1.8,2.399,3.5,3.8,5c2.4,2.6,3.1,5.7,3.3,9
		C1198.7-1281.9,1192.4-1282.2,1187.5-1283.2 M1600.5-1186.9c5.301,1.2,10.5,2.3,15.4,4.7c5.301,2.6,10.801,2.2,16.199-0.3
		c4.9-2.2,8.9-5.6,12.201-9.7c4.199-5.2,7.699-10.8,10.699-16.7c3.4-6.5,6.701-13,10.201-19.4c3-5.5,6.6-10.7,11.398-14.9
		c4.5-4,9.602-6.6,15.701-7.8c5.199-1,10.4-0.8,15.6-0.8c0.699,0,1.4,0.1,2.1,0.2c1.199,0.3,2.301,1.5,2,2.7
		c-1.801,5.4-0.5,11.1-1.5,16.6c-1.199,5.9,1.699,10.5,6.6,13.8c3.201,2.1,6.801,3.6,10.6,4.3c9.9,1.8,19.701,4.3,29.201,7.7
		c7.1,2.6,13.9,5.6,20.1,10c0.4,0.3,0.9,0.5,1.301,0.9c0.799,0.6,0.898,1.5,0.299,2.3c-0.299,0.4-0.699,0.8-1.1,1.2
		c-6.699,5.4-12.9,11.1-19.1,17c-2.6,2.5-5.699,4.7-8.1,7.4s-4.801,5.5-6.5,8.8c-2.6,5.4-1.701,10.1,2.699,14.2
		c1.9,1.8,4.1,3.4,6.5,4.3c7.699,3,12.1,9.2,16,15.9c2.6,4.5,4.801,9.3,6.4,14.3c1.9,6,4.4,11.7,6.4,17.7c2.6,7.3,7,13.6,11.5,19.8
		c2.1,3,4.6,5.7,6.9,8.6c0.898,1.1,0.398,2.1-1,2c-3.5-0.1-7,0.4-10.4-0.8c-0.5-0.2-1-0.2-1.6-0.2c-9.301,0.3-18.4-1.7-27.701-1.2
		c-3.699,0.2-7.4,0.2-11-0.1c-7.4-0.6-14.9-1.1-22-3.6c-3.1-1.1-6.199-2.4-9-4.2c-4-2.5-8.199-4.6-12.5-6.6
		c-3.299-1.5-6.9-2.4-10.6-2.3c-2.199,0.1-4.1,0.7-5.801,2.1c-4.1,3.2-6.199,7.3-6.898,12.4c-1,7.4-2.301,14.7-3.602,22.1
		c-0.799,4.4-1.799,8.8-2.699,13.3c-0.4,2-1.301,2.5-2.9,1.6c-8.299-4.5-16.299-9.4-22.6-16.7c-1.199-1.3-1.9-2.9-2.801-4.4
		c-3.699-6.7-6.5-13.9-9.199-21.1c-1.801-4.8-4.699-8.5-8.4-11.8c-1.199-1.1-2.6-1.8-4.199-1.7c-0.201,0-0.301,0-0.5,0
		c-7.201-0.4-10,0.9-14,6.9c-2.201,3.2-4,6.6-5.4,10.2c-0.801,2.3-2.6,3.7-4.199,5.2c-0.602,0.5-1.301,0.2-1.801-0.3
		c-0.1-0.1-0.199-0.2-0.301-0.4c-3.199-5.4-6.5-10.7-7.398-17.1c-0.5-3.8-1.301-7.5-1.9-11.3c-0.1-0.9-0.201-1.8,0-2.6
		c0.9-5.5,1.299-11.1,3.1-16.4c1.801-5.1,4.301-9.9,7.1-14.5c2.9-4.6,6.5-8.7,10.4-12.4c5.199-5,9.801-10.4,13.5-16.5
		c2.4-3.9,3.1-8,1.5-12.5c-0.5-1.4-1.199-2.5-2.1-3.6c-4.701-5.4-10.301-9.3-16.9-12c-3.9-1.5-7.699-3.1-12.199-4.9
		C1596.9-1188.3,1598.701-1187.3,1600.5-1186.9 M1935.3-1143.4c5.699,1.2,11.5,0.6,17.199,0.5c2.6-0.1,4.1-2.6,3.6-5.3
		c-0.199-0.8-0.5-1.7-0.699-2.5c-1.6-7.1-0.699-11.9,1.199-19c2.602-10,7-19.3,12.4-28.1c5-8.1,11.701-14.7,19.701-19.9
		c10.898-7,22.398-12.8,34.799-16.7c1.1-0.4,2.201-1,3.6,0.2c-1.299,1.4-2.5,2.9-3.898,4.1c-2.801,2.5-4.9,5.4-6.4,8.8
		c-2.201,5.1-4.4,10.2-4,16c0.4,5.6,3,8.9,8.4,10.4c2.398,0.7,4.699,0.5,7.199,0.2c8.699-1.2,16.801-4.6,24.9-7.5
		c1.6-0.6,3.299-1.1,4.898-1.8c5.9-2.7,12.102-3,18.5-2.5c2.801,0.2,5.5,0.8,8.201,1.5c11.9,3.1,23.199,7.6,33.6,14
		c3.301,2,6.699,3.8,10,5.6c0.6,0.4,1.301,0.8,1.199,1.5c-0.1,0.7-0.799,1.1-1.5,1.3c-9.199,3.2-18.398,6.3-27.699,9.5
		c-2.801,1-5.6,1.9-8.4,2.8c-3,0.9-5.799,2.3-8.398,4.2c-3.301,2.3-6.4,4.8-9.301,7.5c-2.4,2.3-2.1,5-1.5,7.8
		c0.1,0.6,0.699,1.2,1.301,1.5c1.1,0.6,2.199,1,3.398,1.3c13,3.4,24.801,9.4,35.102,17.9c8.799,7.3,15.898,16.1,20,27
		c1.699,4.4,2.6,9,3.699,13.6c1.9,7.6,3.4,15.2,5.301,22.8c2.299,9.6,5.898,18.5,11,27c2.299,3.9,4.199,8.1,6.1,12.1
		c0.6,1.3,0.199,2.1-1.1,2.2c-14.602,1.2-28.801,4.4-43.102,7.1c-5.398,1-10.898,1.9-16.398,2.7c-9.4,1.3-18.301-0.6-27.201-3.1
		c-11.1-3.1-21.5-8.1-31.799-13.3c-2.102-1-4.102-1.9-6.5-1.8c-3.9,0.2-7.102,3.7-6.102,7.4c0.9,3.2,0.5,6.6,1.5,9.8
		c0.5,1.6,0.4,3.5,0.102,5.2c-1,5.8-1,11.8-2.4,17.5c-1.4,5.7-2.4,11.6-3.6,17.3c-0.4,1.8,1,4.4-1.201,5.1
		c-1.6,0.5-2.699-1.9-4.199-2.7c-1.201-0.7-2.201-1.7-3.201-2.7c-5.699-5.7-11.5-11.2-17-17.1c-5.1-5.5-10.1-11.1-13-18.2
		c-2-4.9-3-10-4.398-15c-1.701-6-3.4-12-5.102-18.1c-0.799-2.7-2.1-5.2-3.398-7.6c-1.102-2-2.801-2.9-5.102-3
		c-5.299-0.2-9.898,1.4-14.199,4.3c-4.6,3.1-7.801,7.4-10.301,12.2c-2.299,4.5-4.199,9.2-5.699,14c-0.801,2.5-1.6,5-2.5,7.8
		c-1.9-0.9-2.801-2.1-3.699-3.5c-4.801-7.6-7.701-16-9.4-24.7c-0.199-1.2-0.199-2.4-0.199-3.7c0-5.1-0.201-10.1,0-15.2
		c0.398-7.6,1.299-15.2,3.898-22.5c2-5.6,4.801-10.8,7.9-15.9c2.9-4.7,6.301-9.2,8.801-14.2c1.299-2.6,1.699-5.4,0.9-8.1
		c-0.701-2.3-1.801-4.5-2.9-6.7c-2-4-5-7.5-7.6-11.2C1933.5-1143.8,1933.5-1143.8,1935.3-1143.4 M1924.9-1334.4
		c-0.9,2.1-0.9,2.1-3.1,2c-5.9-0.5-11.801-0.9-17.701-1.5c-9.6-0.9-19.1-1.4-28.699-2c-18.699-1.2-37.301-1.1-56-1
		c-14.1,0.1-28.199,0.9-42.301,2c-14.299,1.1-28.5,2.7-42.699,4.7c-7.801,1.1-15.5,2.5-23.5,3.8c0.5-1.3,1.5-1.8,2.4-2.4
		c17.301-11.4,32.9-24.7,47.6-39.2c12.801-12.6,25-25.9,37.1-39.1c14.701-16.1,30.201-31.5,46.701-45.8
		c30.699-26.5,65.1-46.8,103-61c1.6-0.6,3.299-1.2,4.898-1.8c0.301-0.1,0.701,0,1.201,0c0.6,2.5,1.1,5,1.799,7.5
		c4.301,14.4,10.5,27.7,21.301,38.5c2.699,2.7,5.199,5.7,7.801,8.5c6.299,7,10.5,15.2,12.9,24.3c1.199,4.4,1.799,8.9,1.199,13.4
		c-0.6,4.2-2.5,7.6-5.6,10.3c-0.701,0.6-1.301,1.2-2,1.6c-10.5,6.2-18.701,15.2-26.9,24c-10.6,11.4-20.6,23.3-29.5,36
		C1930.9-1346.1,1927.4-1340.5,1924.9-1334.4 M2023.8-1317l-51-8.8c-8.6-1.3-17.301-2.5-25.801-3.7c-0.6-1.1,0.301-1.6,0.801-2.2
		c8.699-9.1,17.799-17.7,25.9-27.4c0.699-0.8,1.398-1.6,2.199-2.2c9.301-7.9,19.1-15.3,30.1-20.8c3-1.5,6-2.8,9.301-3.2
		c5.299-0.6,6.4,0.4,8.6,4.1c3.301,5.8,5.301,12.1,7,18.5c1.6,6.4,3.1,12.9,4.9,19.2c2.9,10.3,7.199,20,12.9,29.1
		c0.398,0.6,0.6,1.2,1.199,2.3C2040.701-1313.4,2032.3-1315.5,2023.8-1317 M2131.5-1284.9c-12.199-2.6-24.5-5.1-36.699-7.8
		c-9.801-2.2-17.9-7-25.301-13.9c-9.1-8.7-14.9-19.2-19.799-30.5c-3.5-8.2-5.4-16.9-7.301-25.5c-1.9-8.4-4.6-16.4-8.699-24
		c-1.4-2.7-3.4-4.9-5.701-6.8c-2.5-2-5.4-3-8.699-3.1c-7.6-0.3-14.301,2.2-20.9,5.6c-8.6,4.4-16.301,10.1-23.9,16
		c-4.199,3.3-8.299,6.8-11.799,11c-4.701,5.6-9.4,11.3-14.9,16.2c-0.6,0.5-1.1,1.2-2.301,1.3c1.1-3.4,3.5-5.8,5.5-8.2
		c4-4.9,7.9-9.7,11.9-14.6c4.699-5.7,9.9-10.8,14.801-16.2c5.199-5.8,11-11.1,17.799-15.3c6.6-4.1,11.5-9.5,13.6-17.2
		c0.301-1,0.602-2,0.701-3c0.799-10.1-0.6-19.8-4.9-29c-3-6.4-6.5-12.3-11.1-17.6c-3.301-3.8-6.801-7.5-10.301-11.2
		c-6.699-7.1-11.299-15.5-14.5-24.6c-1.4-4.1-2.799-8.3-3.699-12.5c-2.5-11.5-1.801-21.9,3.5-33.1c2.699-5.7,5.5-11.3,9.1-16.5
		c2-2.9,4.5-5.3,7.199-7.8c1.602,1.2,3.301,2.2,4.701,3.5c4.199,3.9,9,7.2,13.699,10.5c2.4,1.7,4.801,3.5,7.199,5.2
		c4.301,3.1,9.102,3.2,14,2c4-1,7.5-3,10.602-5.6c5-4.3,10.398-8.2,14.299-13.8c1.4-2,3.201-3.7,5.201-5.2
		c3-2.2,5.398-4.9,8.199-7.4c7.9-7.2,16.301-13.6,25.4-19.2c5.6-3.5,11.5-6.6,17.699-9c2.5-0.9,2.699-0.8,3.6,1.9
		c1,3,1.602,6,2.102,9.1c1.199,7.4,2.1,14.8,3.699,22.1c1.5,6.4,2.4,13,3.5,19.5c0.9,5.5,2.801,10.8,4.6,16c1.4,3.9,4,7,7.201,9.5
		c3.398,2.6,7.299,3,11.398,1.9c5-1.3,9.201-4,13.602-6.5c5.5-3.2,11.299-5.3,17.699-5.6c3.1-0.1,6.199-1.1,9.301-0.9
		c5.6,0.3,11.1,1,16.6,1.7c9.199,1.2,18,3.9,27,5.8c6.799,1.4,13.6,2.8,20.6,3c4.199,0.2,8.199,0.1,12.4,0
		c7.199-0.1,14.199-1.4,21.199-2.9c4.6-1,9.1-2.1,13.701-3.1c0.398-0.1,1.199,0.1,1.299,0.3c0.201,0.4,0,1-0.299,1.4
		c-5.801,7.6-11.701,15.2-17.4,22.9c-10.201,13.7-20.1,27.6-29.1,42.1c-6.602,10.5-14.301,20.3-23.701,28.4c-4.6,4-10,6.9-15.4,9.9
		c-4,2.2-8,4.3-11.898,6.6c-4.701,2.8-8.801,6.2-12.301,10.4c-5,6-4.6,13.6-1.199,19.6c1.799,3.2,4.199,6,7.199,8.2
		c1.801,1.4,3.4,2.9,5.199,4.4c11.201,9,21.301,19.1,31.301,29.3c2,2,4.699,3.6,5.6,6.6c-2,2-4.6,3.1-7,4.4
		c-8.398,4.6-17.1,8.7-26.299,11.5c-4.4,1.3-8.701,2.2-13.301,2.2c-6.6,0-13.199-0.6-19.699-1.9c-6.102-1.3-12.301-2.3-18.5-3.2
		c-2.9-0.4-5.9-0.9-8.801-0.9c-3.9-0.1-8.199,0.2-11.699,2.1c-6.301,3.5-10.801,10.1-9,18.4c1.1,4.9,3.398,9.1,5.898,13.3
		c1,1.6,2,3.3,3.201,4.8c3,3.9,4,8.5,5,13.1C2133.8-1285.3,2133-1284.6,2131.5-1284.9 M2567.599-1153.6
		c-0.1,1.6-0.699,2.3-2.199,2.4c-2.4,0.1-4.9,0.2-7.301-0.4c-2.5-0.6-5.1-1.1-7.699-1.4c-1-0.2-2.199-0.2-3.1,0.1
		c-2.1,0.7-4.1,0.7-6.201,0.7c-8.398,0-16.6,1.8-24.6,4.1c-7.5,2.2-14.9,4.8-22,8.4c-1.699,0.9-3.5,1.5-5.299,2.1
		c-9.801,3.1-19.301,7.1-28.9,10.8c-7.6,2.9-15.201,6-23.301,7.6c-4.4,0.9-8.799,1.7-13.4,1.8c-8.799,0.2-17.398-0.8-25.699-3.7
		c-0.301-0.1-0.6-0.3-1-0.4c-4.6-1-7.301,0.7-7.5,5.3c-0.199,3.3-1.301,6.5-1.199,9.8c0.299,8.2,1.699,16.2,4,24.1
		c3.398,11.6,7.799,22.7,13.199,33.5c0.801,1.6,1.5,3.1,2.199,4.7c0.5,1.2-0.1,2-1.5,1.9c-1-0.1-2.1-0.3-3.1-0.5
		c-5.299-1-10.299-3.2-15.299-5.2c-12.301-4.9-24.102-11.1-35-18.7c-6.201-4.4-11.301-9.9-15.201-16.3
		c-3.5-5.6-6.799-11.4-10.199-17.1c-0.701-1.2-1.5-2.4-2.301-3.5c-2.6-3.5-6.5-3.9-9.299-0.7c-3.301,3.8-6.4,7.8-8.4,12.5
		c-2.301,5.5-3.6,11.2-5.1,17c-0.801,3-1.4,6.1-2.201,9.1c-0.299,1.2-1.299,1.6-2.5,1.1c-3-1.4-5.6-3.4-8.199-5.6
		c-10.301-8.9-16.9-20.3-22.5-32.4c-2.701-6-4.801-12.3-7-18.6c-3.201-9.2-5.201-18.8-7-28.3c-1.1-6-1.701-12-2.4-18.1
		c-0.6-5.6-0.699-11.1-0.801-16.7c0-2.6-0.199-5.3,0.801-7.8c0.1-0.2,0.1-0.3,0.1-0.5c-0.199-7.3,1.801-14.6,1.102-21.9
		c-0.701-7.1-1.301-14.2-5.102-20.6c-2.5-4.2-5.5-7.9-9.199-11.2c-9-7.9-19.301-13.7-30-18.9c-1.1-0.5-2.199-1-3.4-1.5
		c-1-0.4-2-0.6-3.1-2.1c1.6,0.1,2.699,0,3.699,0.3c6.102,1.3,12.301,2.2,18.5,3.1c5.9,0.9,11.801,0.9,17.701,0.8
		c7.398-0.1,13.799-2.8,19.398-7.8c8.201-7.3,13.201-16.6,17.4-26.5c4.5-10.6,7.801-21.6,11-32.6c2.801-9.5,6-19,10.201-28
		c3.5-7.6,8-14.7,13.1-21.4c5.4-7.2,12-13.1,19.4-18.1c2.199-1.5,4.699-2.3,7.299-2.8c1-0.2,2.1-0.3,3.1,0.8
		c-0.398,1.7-0.799,3.6-1.398,5.4c-2.701,8.1-3,16.4-2.5,24.8c0.398,5.4,2.1,10.5,4.699,15.4c2.199,4.2,4.199,4.5,8.199,3.6
		c3.9-0.9,7.701-2.1,11.4-3.6c7.201-2.7,14.1-5.9,21-9.4c7.9-4,16-7.7,24.6-10.2c5.9-1.7,11.801-3.1,18-2.8
		c1.602,0.1,3.102,0.2,4.602,0.7c8.299,2.6,16.898,3.9,25.398,5.6c9.701,1.9,19.5,3.6,29.201,5.4c0.5,0.1,1.1,0.3,1.1,0.9
		c0,0.3-0.199,0.7-0.4,0.9c-5.299,4.5-10,9.7-15,14.6c-8.1,7.8-14.398,17-20.398,26.4c-4.9,7.6-9,15.8-12.102,24.3
		c-0.699,1.9-1.6,3.9-1.6,6c-0.1,3.5,1.301,5.2,4.801,5.5c4.799,0.4,9.699,0.9,14.398,2.2c4.9,1.3,9.701,2.9,13.9,5.9
		c4.301,3.1,7.9,6.8,11.1,11c3.4,4.5,5.801,9.5,8.701,14.3c2.9,4.8,5.6,9.7,8.4,14.4c5.898,9.9,11.799,19.7,17.799,29.6
		c5,8.2,10.201,16.3,16.5,23.5c5.9,6.9,12.4,13.3,19.4,19c4.5,3.7,9.301,6.8,14.1,10C2567.099-1156.5,2567.8-1155.4,2567.599-1153.6
		"/>
	<path fill="#FFFFFF" d="M2527.3-1181.6c-0.701-0.6-1.4-1-2.201-1.5c-4.1-2.7-8.1-5.4-12.199-8.1c-11.801-7.8-23.699-15.4-36.5-21.3
		c-11.801-5.4-23.9-9.5-37-10.1c-0.699,0-1.4-0.1-2.1-0.3c-6.4-1.3-12.9-0.8-19.301-0.4c-3.1,0.2-6.199,0.6-9.299,0.7
		c-3.801,0.1-7.701-0.1-11.5,0.1c-6.201,0.3-12.102-0.8-17.9-2.9c-7.701-2.8-15.6-5-23.5-6.9c-6.201-1.5-12.6-2.7-18.5-5.3
		c-7.4-3.1-14.701-6.4-21.701-10.3c-9.1-5.1-18.1-10.5-27.6-15c-0.6-0.3-1.299-0.6-1.4-1.4c1.102-0.9,2.5-1.2,3.9-1.2
		c5.6,0,11.1-1.2,16.5-2.5c16.1-3.8,32-8.1,47.4-14.3c7-2.8,13.801-6,19.801-10.5c5.6-4.1,11-8.6,15.799-13.6c3-3.1,5.9-6.4,8.9-9.6
		c5.6-6,11.301-11.9,17.699-17c11.102-8.9,22.9-16.4,36.102-21.8c0.799-0.3,1.6-0.7,2.299-1.1c1.801-1.2,2.9-3.9,2.201-5.4
		c-1.201-2.7-3.9-4.2-6.801-3.5c-1.699,0.4-3.301,1.1-4.9,1.8c-6.699,3-13.1,6.6-19.299,10.5c-10.9,7-21,14.9-30,24.3
		c-5.301,5.5-10.301,11.4-15.801,16.8c-8.801,8.7-19,15.2-30.5,19.9c-11.301,4.6-23,8.2-34.801,11.2
		c-10.6,2.7-21.199,5.4-32.299,5.5c-1.801,0-2.9,0.9-3.701,2.5c-0.699,1.3-0.799,2.6-0.299,4c0.398,1-0.201,1.7-1.201,1.8
		c-1.898,0.1-3.398,0.9-4.199,2.6c-1.301,2.6-0.301,5.5,2.199,7.1c0.602,0.4,1.201,0.7,2.102,1.3c-2.9,4.3-2.9,4.3-1.5,8.9
		c0.299,1,0.699,2,1,3c4.199,12.2,8.299,24.4,14.5,35.8c1.799,3.2,3.799,6.2,6.299,8.9c5,5.5,10.301,10.9,15.301,16.5
		c3.4,3.7,6.9,7.4,10.1,11.3c7.9,9.9,13.9,20.8,18.9,32.5c5.4,12.7,9.5,25.8,14.299,38.7c1,2.8,2.102,5.5,3.201,8.3
		c0.6,1.6,1.799,2.4,3.6,2.5c4.1,0.1,6.801-3.6,5.301-7.4c-1.5-4.1-3.201-8.1-4.602-12.2c-3.699-10.5-7.398-21-11.6-31.4
		c-3.799-9.2-8.1-18.1-13.5-26.6c-6.199-9.8-14.1-18.2-22-26.5c-2.199-2.3-4.5-4.4-6.6-6.7c-6.699-7.2-12.199-15.2-15.801-24.4
		c-2.299-5.8-4.199-11.8-6.199-17.8c-0.9-2.6-1.801-5.3-2.6-7.9c-0.201-0.7,0.6-1.5,1.199-1.2c0.699,0.2,1.301,0.5,1.9,0.8
		c9.6,5,19.299,9.8,28.699,15.1c5.5,3.1,11.301,5.4,17,8c4.1,1.9,8.5,3,12.9,4c6.4,1.5,12.9,2.6,19.199,4.9
		c2.801,1,5.602,1.8,8.4,2.7c7.801,2.5,15.801,4.3,24.1,3.9c3.5-0.2,7-0.8,10.4-0.8c10.801-0.1,21.6-1.1,32.4,0.7
		c4.799,0.8,9.6,1.7,14.199,3.1c13.801,4.1,26.5,10.7,38.5,18.4c8.4,5.4,16.6,10.9,24.9,16.3c0.9,0.6,1.699,1.2,2.699,1.6
		c1.701,0.8,3.301,0.6,4.801-0.7C2530.701-1176.3,2530.701-1178.7,2527.3-1181.6"/>
	<path fill="#FFFFFF" d="M1304.5-917.2c-0.5,3.9-0.9,8-1.5,11.9c-1.9,11.8-4.4,23.6-6.7,35.3c-0.399,2.3-0.5,4.5-0.399,6.8
		c0.1,2.3,1.699,4.1,3.699,4.4c2.301,0.3,5.101-1.4,5.7-3.6c0.8-3.6,1.5-7.1,2.101-10.7c1.6-8.9,3-17.8,4.6-26.7
		c1.4-7.9,3-15.7,2.9-23.8c0-1.2,0-2.5,0.3-3.6c0.6-1.9,0.6-3.8,0.6-5.7c-0.2-7.1-0.899-14.2-1.899-21.3c-1.2-7.7-2.5-15.4-4.7-22.9
		c-2.2-7.3-3.601-14.8-3.7-22.6c0-3.9,0.7-7.6,1.2-11.4c1-7.7,2.8-15.4,4.3-23c0.1-0.7,0.4-1.3,0.6-2c0.2-0.7-0.3-1.8,1-2
		c1.101,0.4,1.601,1.3,2.2,2.2c2.7,4.3,5.4,8.6,8,12.9c5.7,9.6,11.4,19.2,18.2,28.1c4.201,5.6,8.701,10.9,14.201,15.3
		c3.1,2.6,6.199,5.2,8.699,8.3c4.301,5.3,9.301,10,14,14.9c3.301,3.5,7.199,6.1,11.199,8.5c3.701,2.3,7.6,4.3,11.5,6.3
		c8,4.2,15.801,8.9,23.301,14.1c9.6,6.6,17.5,14.9,24.199,24.3c5.9,8.3,10.701,17.2,15.301,26.1c3.9,7.6,7.4,15.4,11.199,23.1
		c0.6,1.2,1.1,2.5,2.201,3.5c1.5,1.4,3.1,1.5,4.799,0.8c1.701-0.7,3.1-1.6,3.301-3.7c0.199-2.2-0.5-4.1-1.4-6
		c-4-7.9-8-15.9-11.9-23.8c-4.9-9.9-10.5-19.3-16.799-28.3c-6.602-9.4-14.801-17.1-24-23.9c-11.102-8.2-23.301-14.6-35.602-20.9
		c-6.5-3.3-11.898-8-16.5-13.5c-2.199-2.7-4.5-5.3-7-7.8c-4.5-4.6-9.1-9.2-13.699-13.7c-8.199-8-14.699-17.2-20.6-26.9
		c-6.1-10-11.699-20.2-18.3-29.9c-0.4-0.5-1-1.1,0-1.8c5.3,2.5,10.8,4.8,16.4,6.8c11.4,4,23,6.7,34.699,9.5
		c11,2.6,22.102,4.3,33.602,4.2c7.398-0.1,14.6-1.1,21.699-2.9c8.801-2.2,17.4-4.9,26.1-7.3c11.801-3.2,23.801-5.2,36.1-4.7
		c3.5,0.1,7,0,10.5,0.1c3,0,5.9-0.1,8.801,0.8c1.301,0.4,2.801,0.2,4.199,0.2c1.301,0,2.301-0.7,3-1.8c2.301-3.7,0.301-8.4-4.1-8.5
		c-5.799-0.1-11.4-1.5-17.199-1.3c-6.301,0.3-12.5,0.3-18.801,0.9c-6.4,0.7-12.699,1.6-19,3c-9.199,2-18.1,4.9-27.199,7.4
		c-7.9,2.2-15.801,4.1-24.201,3.6c-2.799-0.2-5.6-0.1-8.398-0.1c-4.9,0.1-9.701-0.8-14.5-1.8c-6.801-1.4-13.602-3-20.301-4.6
		c-9.6-2.4-19.1-5.3-28.4-9c-2.9-1.2-5.7-2.6-8.6-3.8c-4.4-1.9-6.5-1.1-8.7,3.4c-0.101,0.2-0.2,0.3-0.5,0.6c-2.5-2-4.9-2-7.3,0.5
		c-2.9,3-1.2,5.7,0.3,8.4c-4.601,2.8-4.7,2.8-5.7,8c-1.6,7.7-3.2,15.3-4.3,23c-0.4,3.3-1.3,6.5-1.3,9.8c0.1,3.7,0,7.3,0,11
		c0,2.8,0.3,5.5,0.899,8.3c0.9,4.2,1.601,8.5,3,12.7c0.7,2.1,1,4.4,1.5,6.6c1.101,4.9,1.7,9.9,2.4,14.9c0.899,6.7,2,13.4,1.8,20.2
		C1305.2-926.9,1305.2-922.1,1304.5-917.2"/>
	<path fill="#FFFFFF" d="M1200-1722.7c2.4,3,5,5.8,7.6,8.6c2.2,2.3,3.601,5.1,4.601,8.1c1.6,5,1.3,10.1,0.5,15
		c-0.601,3.9-0.8,7.6-0.4,11.4c0.2,1.5-0.2,2.2-1.3,3c-3.5,2.6-7,5.2-10.4,7.9c-1.5,1.2-3.1,2.3-4,4.1c-0.3,0.7-0.1,1.4,0.601,1.8
		c0.399,0.3,1,0.6,1.399,0.5c0.601-0.2,1.2-0.6,1.801-1c5.6-3.6,11.1-7.2,16.699-10.8c2.101-1.4,2.2-1.4,3.601,0.8
		c0.899,1.4,2.3,2.1,3.699,2.8c2.5,1.3,5.101,2.4,7.4,3.8c6.3,3.8,10.5,9.7,14,15.9c1.6,2.7,3.1,5.4,5.1,7.9
		c4,5,8.601,9.1,14.5,11.7c3.801,1.7,7.801,2,11.801,1.6c2.699-0.3,4.199-2.5,4-5.8c-0.101-2.6-1.101-3.5-4-3.6
		c-7.2-0.2-12.5-3.8-16.801-9.3c-2.399-3-4.5-6.2-6.5-9.5c-5.399-9-12.199-16.5-22.1-20.7c-1.2-0.5-2.6-0.9-3.4-2.1
		c0.601-1.7,2.2-2.2,3.601-3c1.899-1.1,3.699-2.3,5.1,0.7c0.2,0.5,1.2,0.9,1.8,0.9c3-0.1,5.9,1,8.801,1c3.399,0,6.5,0.9,9.699,1.8
		c9.4,2.8,18.101,7.2,26.301,12.6c12,7.8,25.3,11.4,39.3,12.9c1.9,0.2,3.9,0.2,5.8,0c2.5-0.3,3.9-2.3,3.9-5.3c0-2.7-1.4-4.5-3.7-4.9
		c-1-0.2-2.1-0.1-3.1-0.1c-3.801-0.1-7.601-0.2-11.4-1c-7.2-1.6-14.1-3.7-20.4-7.6c-5.5-3.4-11.1-6.5-16.8-9.6
		c-9.3-5-19.3-8-29.899-9.3c0.399-1.4,1-1.6,1.6-2c10.4-6.5,21.3-12,32.4-17c6.399-2.9,12.399-6.3,18.3-10.1
		c4.899-3.3,9.7-6.9,14.7-10c6.6-4.2,12.899-8.9,19.3-13.5c7.6-5.5,14.899-11.5,22.1-17.5c6-5.1,11.6-10.5,17.4-15.8
		c4.1-3.7,8-7.8,11.5-12.1c3.1-3.8,6.799-7,9.699-11c2.5-3.4,5.1-6.6,7.699-9.9c0.602-0.7,0.9-1.5,0.701-2.4
		c-0.6-2.8-3.9-4.1-6.201-2.4c-0.799,0.6-1.5,1.4-2.299,2.2c-3.6,3.6-6.9,7.4-10.301,11.1c-4.801,5.1-9.9,9.8-15,14.6
		c-8.1,7.4-16.1,15-24.5,22c-4.5,3.8-9.1,7.6-13.8,11.2c-8.899,6.7-17.8,13.5-26.8,19.9c-6,4.3-12,8.5-18.399,12
		c-9.7,5.5-20,9.9-29.5,15.7c-0.301,0.2-0.7,0.2-1,0.1c-0.5-0.3-0.5-0.9-0.301-1.4c2.2-4.4,3.101-9.2,4.2-14
		c0.9-3.9,1.7-7.8,1.7-11.8c0-4.1-0.9-7.9-1.6-11.9c-0.5-2.9-1.4-5.8-1.4-8.7s0.7-5.9,1.6-8.7c1.301-4.2,2.9-8.2,4.5-12.2
		c0.601-1.5,1.101-2.9,1.101-4.5c0-4-1.5-5.4-5.5-5c-1.5,0.2-2.7,0.9-3.4,2.1c-0.8,1.3-1.5,2.8-2.1,4.2
		c-1.801,5.3-3.601,10.6-5.4,15.8c-0.5,1.4-0.4,2.7-0.5,4.1c-0.3,6.1,0.5,12.1,1.6,18.2c0.801,4.1,0.801,8.4,0.101,12.5
		c-1.101,6.5-2.5,13-6,18.8c-1,1.7-1,3.3,0,4.9c0.3,0.4,0.6,0.9,0.8,1.3c1,1.7,0.9,2.2-0.8,3.3c-2.5,1.6-5.101,3.1-7.5,4.7
		c-3.801,2.5-7.4,5.2-11.2,7.8c-1.2,0.8-2.2,0.4-2.2-0.8c0-2.4-0.5-5.1,0.2-7.3c1.5-4.7-0.1-9.1-0.7-13.4
		c-0.8-4.8-3.199-9.1-6.8-12.8c-4.7-4.9-9.1-10.1-11-16.9c-0.4-1.3-1.1-2.5-2.2-3.5c-1.899-1.6-3.899-1.3-5.899-0.5
		c-1.7,0.7-2.2,2.2-2,3.9C1194.6-1732.4,1196.3-1727.1,1200-1722.7"/>
	<path fill="#FFFFFF" d="M2092.701-1357.3c-3.102-3.3-6.701-6.1-10.102-9.1c-4.799-4.4-9.199-9.1-13.799-13.6
		c-5.801-5.6-11.102-11.5-15.9-18.1c-3.199-4.4-6.301-8.8-8.699-13.7c-1.201-2.5-1.102-2.9,1.1-4.1c5.5-3,5.5-3,11.6-0.8
		c1,0.4,2,0.7,2.9,1.2c9.898,5.1,20.1,9.6,29.6,15.6c12.801,8.2,26,15.6,39,23.4c12,7.2,24.801,12.8,38,17.2
		c12.699,4.2,25.801,7.1,38.9,9.8c1.699,0.3,3.5,0.2,5.199,0.1c2-0.2,3.4-1.9,3.6-3.9c0.301-3-0.898-4.8-4.199-5.5
		c-7.801-1.8-15.6-3.4-23.4-5.3c-14.6-3.5-28.699-8.5-42.1-15.3c-7.6-3.9-15-8.1-22.301-12.7c-10.398-6.6-21.398-12.5-31.6-19.4
		c-1.1-0.8-2.4-1.4-3.699-2c-8.701-4.4-17.4-8.7-26.301-13.2c2-3,5-4.4,7.801-6.1c7.799-4.7,15.6-9.2,23.299-14
		c12.9-8.1,25.9-15.8,39.4-22.7c13.199-6.7,26.6-13.1,40.4-18.5c5-2,10.1-3.7,15.199-5.7c9.301-3.6,18.801-6.4,28.301-9
		c7.9-2.1,15.799-4.1,23.699-6.3c4-1.1,7.9-2.6,11.9-4.1c1.5-0.5,2.9-1.2,4-2.4c1.301-1.3,1.9-3.6,1.1-5.3c-0.799-1.7-2.1-2.8-4-2.9
		c-1.799-0.1-3.4,0.4-5.1,1c-5.301,2.2-10.801,3.9-16.4,5.3c-8.6,2.2-17.199,4.3-25.699,6.9c-20.201,6.1-40,13.4-59.1,22.3
		c-12.701,5.8-25.102,12.3-37.201,19.1c-4.699,2.6-9.5,5.3-13.9,8.3c-11.898,7.9-24.5,14.7-36.5,22.5c-0.5,0.3-1,0.4-1.299-0.1
		c-0.201-0.3-0.201-0.7-0.1-1c2-5.4,4-10.8,5.898-16.2c8.9-25.5,16.9-51.2,25.102-77c1.199-3.6,2.1-7.4,3.398-11
		c3.801-10.7,6.301-21.8,12-31.7c0.9-1.5,1.301-3.2,1.9-4.8c0.801-1.9,0.5-3.8,0.5-5.7c0-1.6-1.1-2.6-2.301-3.3
		c-1.6-1.1-5-0.8-6.5,0.4c-1.699,1.4-3,2.9-2.699,5.3c0.301,2.7-0.4,5.1-2,7.4c-1.9,2.9-3.199,6.2-4.199,9.5
		c-1.602,5.2-3.201,10.3-4.801,15.4c-4.9,15.4-9.699,30.9-14.699,46.3c-7.4,22.7-14.701,45.4-23.201,67.7
		c-1.1,2.9-2.6,5.8-3.199,8.8c-0.4,2.4-1.6,3.2-3.5,3.8c-1.301,0.4-2.1-0.1-2.5-1.1c-0.9-2.4-1.9-4.9-2.4-7.4
		c-2.1-10.2-3-20.6-3.199-31.1c-0.201-15.5-0.1-31.1-0.1-46.6c0-1.4,0-2.8,0-4.2c0-1.1-0.4-2-1.102-2.9c-1.699-2.1-4.1-2-6.299-1.4
		c-2,0.5-3,2.2-3,4.4c0,0.7,0,1.4,0,2.1c0,13.3,0,26.6,0,39.8c0,0.9-0.1,1.8,0.1,2.6c1.4,5.7,0.699,11.5,0.9,17.2
		c0.1,1.7-0.1,3.5,0.199,5.2c0.6,4.8,1.201,9.7,2,14.4c0.801,4.8,2.5,9.4,4.4,13.9c0.9,2.1,2.801,2.9,5.1,2.8c1-0.1,2-1.2,3.699-0.1
		c-3.898,2.4-3.199,5.3-1.398,8.3c0.398,0.6,0.6,1.3,0.898,1.9c5.102,9.6,11.602,18.3,18.9,26.2c9.801,10.7,20.4,20.6,31.201,30.2
		c1.1,0.9,2.199,1.8,3.5,2.2c0.6,0.2,1.398,0.3,2,0.1c2.699-0.9,4.6-4.7,3.6-7.2C2094.201-1355.7,2093.4-1356.5,2092.701-1357.3"/>
	<path fill="#FFFFFF" d="M604-1453.1c0.2,2.2,0.4,4.7,1.4,6.6c1.199,2.3,1.699,4.4,1.699,6.9c0,3.3,1.2,4.7,4.601,5.2
		c1.2,0.2,2.399,0.2,3.3,1.2c2.2,2.5,4.7,2.3,7.6,1.1c6-2.5,12.2-4.2,18.5-5.5c6-1.2,11.9-2.5,17.9-3.4c5.5-0.8,11-1.8,16.6-1.8
		c3.101,0,6.301,0,9.4,0c1.6,0,3.2-0.1,4.7,0.2c8.3,1.4,16.2,4,24,7c8.5,3.2,16.899,6.4,25.899,8.2c6,1.2,12,2.1,18.101,2.4
		c4.5,0.2,9.1,0.1,13.6,0.1c1,0,2.101,0,3.101-0.1c2-0.3,3.399-1.9,3.6-3.9c0.3-3.5-2.6-6.6-6.1-5.9c-2.301,0.4-4.601,0.6-6.801,0.4
		c-5.699-0.7-11.399-1-17.1-1.8c-9.7-1.4-19-4.3-28.1-7.7c-9.301-3.4-18.4-7.3-28.4-8.7c-6.6-0.9-13.3-1-19.8-0.3
		c-6.4,0.7-12.7,1.6-19.101,2.6c-9.8,1.7-19.399,3.9-28.899,6.7c-0.7,0.2-1.4,1.1-2.2,0.1c1-2.5,2.9-4.3,4.5-6.5
		c5.9-8.2,11.5-16.6,18.1-24.3c3.4-4,6.9-7.8,11.101-11c3.3-2.5,6.399-5.4,9.5-8.2c3.5-3.2,7-6.4,10.3-9.6c4-3.9,8.7-6.3,13.6-8.6
		c6.301-2.9,12.801-5.6,19-8.7c6.601-3.3,12.9-7.1,18.5-11.8c6.7-5.6,12.7-12,17.9-19.1c7.9-10.9,14.4-22.6,21.3-34.2
		c1.9-3.2,1.2-5.5-1.8-7.6c-2.1-1.4-5-0.9-6.4,1.3c-1.3,2.1-2.5,4.2-3.8,6.3c-6.399,10.8-12.6,21.7-20.5,31.6
		c-3.399,4.2-6.5,8.7-10.8,12c-6.8,5.2-13.8,10.1-21.7,13.6c-5.2,2.4-10.5,4.7-15.8,7c-2.9,1.3-5.6,2.8-8.4,4.3
		c-6.5,3.7-11.3,9.3-16.8,14.1c-4.2,3.7-8.3,7.5-12.6,10.9c-6,4.7-10.7,10.5-15.4,16.3c-3.5,4.3-6.399,9.1-9.6,13.7
		c-2.101,3-4.2,5.9-6.9,9.7c-1.6-6.5-2.1-12.2-2.5-17.9c-0.2-3.3,0-6.6-0.1-10c-0.3-5.9,0.899-11.4,2.899-16.9
		c2.4-6.7,4.601-13.5,6.2-20.5c1.4-5.9,2.7-11.9,2.7-18c0-1.4,0.3-2.8,0.5-4.1c0.6-3.5,0.7-7,0-10.4c-0.5-2.4-0.8-4.8-0.6-7.3
		c0.3-5.4-1-10.7-1.4-16.1c-0.5-6.2-1.7-12.4-1.9-18.7c0-0.3,0-0.7-0.1-1c-0.4-2.3-1.9-3.7-4.2-3.9c-4.1-0.3-6.2,1.6-6.2,5.8
		c0,0.7-0.1,1.4,0.101,2.1c1.5,4.7,1,9.7,1.7,14.5c1,6.5,1.6,13.1,2.1,19.7c0.6,8.7,0.8,17.5-1,26.1c-2.1,9.9-4.1,19.7-7.6,29.2
		c-1.801,4.9-3.101,10-3.601,15.2c-0.8,8.4,0,16.7,1.2,25C603.5-1457.2,603.8-1455.2,604-1453.1"/>
	<path fill="#FFFFFF" d="M1958.201-1126.2c2.898,1.6,5.799,3.2,8.699,4.8c0.9,0.5,2,0.9,2,2.2c0.301,5.4,2.699,10.4,3.699,15.7
		c1,5,0.102,9.3-2.5,13.4c-1.299,2.1-2.6,4.1-4,6.1c-3.199,4.3-3.699,9.3-3.398,14.4c0.1,2.7,2.199,4.4,5,4.2c2.5-0.1,4-1.3,4.5-4.2
		c1-5.8,3.5-10.9,6.898-15.6c1.5-2,2.5-4.2,3.102-6.6c1.1-4.5,0.6-9,0.299-13.6c-0.1-2.5-1.5-4.9-1.4-7.6
		c3.102-0.4,5.4,1.9,8.102,2.8c3.1,1,5.898,2.8,8.699,4.2c0,0.7,0.1,1.1,0,1.4c-1.1,2.7-0.6,4.9,1.4,7.2c2.5,2.7,4,6.1,5.1,9.6
		c1.5,4.8,2.699,9.7,2.301,14.9c-0.301,4.2,0.5,8.4,1.5,12.4c1.699,6.5,5.199,12.2,8.398,17.9c1.4,2.4,4.9,3.2,7.4,2
		c1.301-0.7,2.201-1.7,2.4-3.2c0.199-1.6-0.199-3-1.1-4.4c-2.1-3.4-4.1-6.9-6-10.4c-1.6-3.1-2.6-6.4-2.4-10.1
		c0.199-2.6-0.1-5.2,0.1-7.9c0.201-3.6-0.6-6.9-1.699-10.2c-1.4-4.1-3.1-8.2-5-12.1c-0.201-0.4-0.4-1.1-0.201-1.5
		c0.4-0.6,1.201-0.6,1.9-0.4c10.4,3.6,21,6.5,30.9,11.2c21.9,10.4,43.4,21.6,63.4,35.4c7.9,5.4,15.9,10.6,23.4,16.7
		c1.699,1.4,3.6,2.7,5.6,3.9c1.6,1,2.9,0.6,4.199-0.8c1.5-1.6,1.6-3.4,0.201-5.2c-2-2.5-4.9-3.9-7-6.2c-3.201-3.5-7-6.3-10.602-9.3
		c-11.199-8.9-23.299-16.5-35.898-23.3c-11.701-6.3-23.5-12.2-35.701-17.5c-11.699-5.1-23.6-9.4-35.9-12.6
		c-4.199-1.1-8.398-2.4-12.299-4.7c1.199-1,2.4-1.3,3.5-1.6c3.299-1.1,6.4-2.7,9.4-4.4c5.6-3.3,10.6-7.3,15.5-11.5
		c3.6-3,7.398-5.8,11.299-8.4c4.9-3.2,10.4-4.8,16.1-6c1.701-0.4,3.4-0.8,5-1.6c1.9-0.9,2.701-3.3,2.102-5.4
		c-0.5-1.9-2.102-3.3-4.102-3.4c-1.199-0.1-2.5-0.2-3.699,0.1c-7.1,1.8-14,3.9-20.5,7.6c-5.5,3.1-10.301,7.2-15.1,11.2
		c-8.199,6.7-16.9,12.2-27.5,14.4c-2.199,0.4-4,0.9-5,3.1c-0.4,1-1.4,0.8-2.301,0.4c-0.799-0.3-1.699-0.6-1.799-1.5
		c2.6-2.5,5.1-4.9,7.6-7.3c2.6-2.4,4.699-5.2,6.1-8.4c1.301-2.9,2.5-5.7,3.801-8.6c3-6.6,6.299-12.9,14.5-14.4
		c2.699-0.5,4-4.5,2.5-6.9c-1-1.6-2.4-3.4-4.5-3c-3.9,0.7-7.801,1.8-10.9,4.7c-3.9,3.6-7.301,7.5-9.5,12.4
		c-1.701,3.8-3.301,7.7-5.201,11.4c-2,4.1-4.6,7.8-8.799,10.1c-2.6,1.5-4.801,3.4-6.4,6.3c-2.301-0.9-4.4-1.7-6.4-2.6
		c-3.4-1.4-6.699-3-10-4.4c-0.799-0.4-1.699-0.4-2.4,0.4c-0.6,0.8-0.5,2.3,0.301,2.9S1957.4-1126.6,1958.201-1126.2"/>
	<path fill="#FFFFFF" d="M976.6-1217.5c-1,2-2.699,3.7-3.6,5.7c-1.5,3.2-4,5.2-7.2,6.5c-1.6,0.7-3.2,1.3-4.899,1.7
		c-3.9,1-7.9,1.2-11.7,2.7c-1.101,0.4-2,0-2.9-0.7c-2.899-2.2-5.899-4.4-8.8-6.6c-0.6-0.4-1.2-0.8-1.9-0.7
		c-0.3,0.1-0.699,0.2-0.899,0.4s-0.3,0.7-0.2,0.9c0.6,1.5,1.9,2.6,3.1,3.5c3.8,2.6,6.7,6.1,10.2,8.9c-1.9,2.4-1.7,2.4-2.3,5.5
		c-0.9,5-2.4,9.7-6,13.7c-2.6,3-5.3,6-7.7,9.2c-4.2,5.5-5.7,11.4-5.1,18.1c0.3,3,2.8,4.5,5.7,3.2c0.899-0.4,1.399-1,1.5-2
		c0.1-0.9-0.101-1.7-0.101-2.6c-0.1-4.1,0.3-7.9,3-11.3c2.3-2.9,4.3-5.9,6.9-8.5c3.3-3.3,5.6-7.1,7-11.5c0.8-2.5,1.399-5,1.6-7.6
		c0.101-0.8,0.9-1.1,1.601-0.7c1.1,0.6,2,1.3,3,2.1c0.8,0.6,1,1.4,0.3,2.2c-1.101,1.4-1,2.8-0.601,4.4c0.601,2.2,1.2,4.4,1.5,6.6
		c0.4,3.5,0.5,7-0.1,10.4c-1.5,9.4-4.7,18.5-5.5,28.1c-0.2,2.3-0.5,4.5,0.1,6.7c0.301,1.2,0.5,2.4,0.4,3.6c-0.2,2.9,1.1,5.4,1.2,8.2
		c0,1.1,0.8,1.9,1.6,2.6c1.2,1,2.5,1.2,3.9,0.6c1.3-0.5,1.7-1.7,1.6-3c-0.1-1-0.399-2-0.5-3.1c-0.5-2.6-1.399-5-1.5-7.7
		c-0.399-7.4,0.601-14.6,2.7-21.6c1.8-5.9,2.8-11.8,2.6-18c-0.1-3.1-0.1-6.3-0.1-9.4c0-0.8-0.4-1.8,1-2.2c0.8,0.8,1.8,1.5,2.6,2.4
		c5.7,5.9,11.7,11.5,16.9,17.8c5.1,6.2,11.7,11,17.8,16.1c9.101,7.7,18.4,14.9,28.101,21.7c11.8,8.2,24.3,15,37.3,21
		c2.2,1,4.5,1.9,6.8,2.8c1,0.4,2,0.5,3.1,0.3c1-0.1,1.5-0.8,1.601-1.8c0.1-1.1-0.2-2.1-1.101-2.8c-1.199-0.7-2.5-1.3-3.699-2
		c-6.801-3.6-13.601-7.1-20.301-10.9c-12.8-7.5-25.1-15.7-36.899-24.6c-6.3-4.7-12.5-9.5-18.3-14.8c-7.5-6.8-14.4-14.2-21.601-21.4
		c-0.6-0.6-1.399-1.1-0.8-2.5c3,0,6.1,0,9.2,0c1.399,0,2.8,0.1,4.2-0.2c6-1.1,11.899-2.6,17.199-5.8c3.601-2.2,7.5-2.7,11.601-2.4
		c1,0.1,2.1,0.3,3.1,0.6c1.7,0.5,3.5,0.4,5.2,0.4c1.3,0,2.3-0.7,3.1-1.7c1.301-1.6,0.9-3.6-0.899-4.3c-1.8-0.7-3.601-1.3-5.601-1.3
		c-2.6,0-5.199,0-7.899,0c-4.9,0-9.7,0.9-14.101,3.1c-2.3,1.1-4.699,2.4-7.199,3c-5.301,1.4-10.7,3-16.4,1.5
		c-2.4-0.6-5.3-0.8-7.2,1.7c-0.7,0.9-1.6,0.6-2.2-0.1c-3-3-6.1-5.7-9.399-8.3c-1.3-1-2.601-2.2-4-3.3c1.2-1.5,2.7-1.6,4.2-1.9
		c8.6-1.3,15.399-5.1,19.899-12.8c2-3.5,4.3-6.7,7.9-8.9c2.1-1.3,2.5-3.3,1.8-5.5c-0.4-1.4-2.1-2.4-3.3-1.7
		C982.7-1223.1,978.7-1221.5,976.6-1217.5"/>
	<path fill="#FFFFFF" d="M1575.099-1490c2,2.6,4.102,5.2,6.5,7.5c1.701,1.6,3,3.4,3.602,5.7c1.1,4.4,1.699,8.9,0.5,13.4
		c-0.301,1.2-0.602,2.4-0.102,3.6c0.801,1.9-0.299,3.1-1.6,4c-3.1,2.1-5.5,4.8-8.1,7.4c-1.199,1.2-1.4,2.5-0.6,3.2
		c1,0.8,1.9,0.4,2.9-0.1c0.6-0.3,1.199-0.7,1.799-1.1c2.4-1.7,5.1-3.2,7.201-5.2c2.6-2.6,4.799-2.8,7.699-0.6
		c1.199,0.9,2.9,1.2,4.301,1.8c4.398,1.8,7.699,4.9,10.1,8.8c2.5,3.9,5.6,7.1,8.699,10.4c2.5,2.6,5.5,4.2,8.701,5.7
		c2.5,1.1,5.1,0.9,7.699,0.6c1.199-0.1,2.1-1.2,2.199-2.6c0.102-1.5-0.6-3-1.898-3.4c-0.801-0.2-1.701-0.2-2.602-0.3
		c-3.699-0.7-6.898-2.1-9.6-4.9c-2.1-2.2-4-4.4-5.5-7c-4.299-7.1-10.299-12.2-18-15.3c-0.199-0.1-0.299-0.5-0.5-1
		c1.1-0.8,2.201-1.6,3.301-2.4c0.799-0.6,1.6-0.7,2.4,0c1.398,1.3,3.199,1.2,4.898,1.2c2.602,0.1,5.301-0.1,7.801,0.4
		c6.9,1.4,13.301,4.1,19.4,7.6c10.1,5.7,20.9,8.5,32.5,7.9c0.699,0,1.4-0.1,2.1-0.2c1.4-0.3,2.199-1.6,2.199-3.2
		s-0.898-2.8-2.398-2.9c-1.9-0.2-3.801-0.1-5.801-0.2c-6.301-0.3-12.5-1.2-18.1-4.2c-3.701-1.9-7.5-3.8-11.201-5.6
		c-4.898-2.4-9.898-4.3-15.199-5.5c-2.6-0.6-5.301-1-8-1.6c0.5-1.4,1.5-1.8,2.301-2.3c5.5-3.7,11.199-7,17.1-10.2
		c3.1-1.7,6.199-3.2,9.1-5.1c9.199-6,17.801-12.8,26.5-19.5c7.199-5.5,13.6-11.9,20.6-17.8c3.5-2.9,6.201-6.6,9.301-9.9
		c4.4-4.7,8.6-9.6,12.4-14.8c2.199-3,4.299-5.9,6.398-8.9c0.9-1.3,1.5-2.7,1.4-4.4c-0.1-1.3-0.6-2.4-1.799-2.9
		c-1.201-0.5-2.4-0.5-3.5,0.3c-0.701,0.5-1.301,1.1-1.9,1.8c-1.701,2-3.201,4.1-5.1,6c-7.102,7.2-13.5,15.1-20.801,22.1
		c-3.301,3.1-6.4,6.5-9.801,9.5c-4.898,4.4-9.898,8.8-14.898,13.1c-3,2.6-6.102,5.2-9.201,7.7c-9,7.2-18.799,13.2-28.5,19.4
		c-1.799,1.1-3.6,2.4-5.699,3c-0.5-1-0.301-1.7,0-2.3c1.5-4,1.699-8.1,1.799-12.3c0.201-4.1-0.6-8-1.5-11.9
		c-1.5-6.7-1.398-13.1,1.5-19.4c0.5-1.1,0.9-2.3,1.201-3.4c0.6-2-0.301-3.8-1.801-4.3c-2.1-0.6-4,0.1-4.699,2.1
		c-1.201,3.3-2.301,6.6-3.201,9.9c-1.299,4.8-1.398,9.5-0.299,14.4c2.1,9.7,2.5,19.4-2.1,28.6c-0.5,1-0.602,2,0.199,2.9
		c0.9,1.1,0.4,1.8-0.6,2.6c-3.9,2.9-7.801,5.9-11.6,8.9c-0.602,0.5-1.201,1.3-2.301,0.4c0-2.5-0.1-5.1,0-7.7
		c0.301-5.8-1.9-10.7-5.699-14.7c-3.9-4.1-7.801-8-9.801-13.4c-0.199-0.6-0.801-1.2-1.4-1.4c-1.4-0.4-2.799-0.4-4,0.5
		c-1,0.8-1.5,2.3-0.799,3.8C1572-1495.1,1573.201-1492.4,1575.099-1490"/>
	<path fill="#FFFFFF" d="M1622-1107.9c0.1,1.6,1.1,2.6,2.6,2.8c1.801,0.2,3.102-0.6,3.5-2.3c0.5-1.7,0.801-3.4,1.102-5.1
		c1.199-7,2.1-14.1,3.5-21.1c1.799-8.9,4-17.6,6-26.4c0.299-1.2,0.5-2.4,1.898-3.2c2.301,1.1,4.602,2.3,7,3.4
		c1.301,0.6,1.801,1.6,1.602,2.9c-0.102,1-0.102,2.1-0.4,3.1c-0.5,1.5-0.701,3.1-0.701,4.6c0,10.3,0,20.6,0,30.9
		c0,0.7-0.1,1.4,0.102,2.1c1,3.4,1,6.9,0.799,10.4c-0.199,5.1,1,10,1.4,15.1c0.4,5.7,1.699,11.3,2.9,16.9c2,9.5,4.5,19,8.4,28
		c0.299,0.8,0.699,1.6,1.299,2.2c1.201,1.4,3.5,1.8,5.301,1c1.5-0.7,1.801-2,1.9-3.5c0.1-2-0.4-3.8-1.1-5.6
		c-2.102-5.2-3.801-10.5-5.301-15.9c-3.5-12.4-4.801-25.2-6.1-38c-0.6-6.2,0.1-12.6-1.201-18.8c-0.1-0.7,0-1.4,0-2.1
		c0-3.1,0-6.3,0-9.4c-0.199-5.9,0.102-11.8,1.102-17.7c0.398-2.5,1.398-2.6,3.1-1.7c4.9,2.6,9.799,5.3,15,7.5
		c9.299,4,18.199,8.9,27,13.9c10.6,6,20.699,12.9,30.5,20.2c8,6,15.799,12.1,22.9,19.1c3.799,3.8,7.898,7.4,12,10.9
		c1.699,1.5,3.699,2.6,5.6,3.9c1.4,0.9,3,0.9,4.5,0.6c0.9-0.2,1.6-0.8,1.9-1.6c1-2.3,0.199-5-1.801-6.5c-1.801-1.3-3.801-2.5-5.5-4
		c-3.5-3.1-6.9-6.4-10.4-9.5c-7.1-6.5-14.301-12.8-22-18.5c-5.699-4.3-11.6-8.4-17.5-12.4c-7.699-5.2-15.6-9.8-23.801-14.3
		c-6.299-3.4-12.6-6.7-19.199-9.6c-3.5-1.5-6.9-3.1-11-5.6c2.301-0.8,3.6-1.3,4.9-1.7c11.199-3.2,22.199-7.1,33.199-11.2
		c12.201-4.5,24.6-8.9,37.1-12.5c3-0.9,6-1.6,9.301-1.4c2.9,0.2,5.5-0.9,8-2.2c1.6-0.8,2.199-2.2,2.1-3.9
		c-0.1-2.5-1.699-4.3-4.199-4.4c-1.6-0.1-3.199-0.2-4.5,1c-1.301,1.1-2.9,1.1-4.4,1.2c-1.199,0-2.5-0.1-3.699,0.2
		c-7.5,2.1-15.1,4-22.5,6.5c-13.801,4.7-27.5,9.9-41.4,14.7c-8.5,3-17.199,5.5-26.199,7.1c-1.9,0.3-3.4,0.2-5.102-0.3
		c-1.299-0.4-2.6-1-3.799-1.7c-3.1-1.6-3.201-2.3-0.6-5c1.199-1.2,2.5-2.5,3.898-3.5c7.4-5.9,15.102-11.3,23-16.3
		c3.701-2.3,7.4-4.7,11-7.1c1.201-0.8,2.201-1.7,3.201-2.7c1.1-1.2,1.1-3.2,0.299-4.4c-0.799-1.2-2.699-1.5-4.299-0.8
		c-0.5,0.2-0.9,0.6-1.301,0.9c-8.301,5.4-16.699,10.8-24.9,16.3c-6.699,4.5-12.9,9.5-18.4,15.5c-3.1,3.4-5.299,7.2-6.5,11.7
		c-2.6,9.6-4.799,19.2-6.799,28.9c-1.5,7.7-2.9,15.4-4.201,23.1C1621.8-1111.4,1621.9-1109.7,1622-1107.9"/>
	<path fill="#FFFFFF" d="M1151.1-1371.4c0.9,0.6,1.7,1.3,2.601,1.7c4.899,2.6,8.2,7.7,13.8,9.2c12.4,6.7,24.7,13.8,37.7,19.3
		c10.1,4.3,20.6,7.5,31.399,9.6c5.301,1,10.7,1.5,15.9,2.6c2.5,0.6,4-0.2,5.5-1.9c1.3-1.5,1.3-3.1,0.2-4.8
		c-0.9-1.2-2.101-2.1-3.5-2.1c-3,0-5.9-0.7-8.8-1.2c-4.601-0.8-9.301-1.5-13.801-2.7c-12.5-3.2-24.5-7.8-36-13.8
		c-6.199-3.2-12.399-6.5-18.5-9.8c-3.5-1.9-7.199-3.6-10.5-5.8c-3.8-2.5-7.199-5.5-11.199-8.6c0.6-0.7,1.1-1.3,1.6-1.6
		c6.6-4.6,13.1-9.2,19.7-13.8c10.3-7.1,21-13.7,32-19.8c10.699-5.9,21.899-10.8,33.1-15.5c8.1-3.3,16.4-6,24.7-8.6
		c3.3-1,6.5-2.6,9.6-4.2c0.8-0.4,1.6-0.8,2.1-1.5c0.9-1.1,1.7-2.4,1.2-3.8c-0.6-1.5-1.7-2.7-3.399-2.9c-1.801-0.2-3.5,0-5.101,0.8
		c-2.8,1.5-5.7,2.5-8.7,3.5c-20.899,6.8-41.3,14.9-60.5,25.7c-12.899,7.3-25.399,15.3-37.3,24.1c-2.399,1.7-4.8,3.4-7.3,5
		c-0.4,0.2-1.1,0.3-1.4,0.1c-0.3-0.2-0.5-0.9-0.5-1.4c0.101-0.9,0.4-1.7,0.601-2.5c1.5-7.5,3.1-15,4.399-22.5
		c1-5.8,1.5-11.7,2.4-17.5c1.2-7.9,2.5-15.8,4.1-23.6c1.301-6.3,2.601-12.6,5.4-18.5c0.6-1.2,1.1-2.6,1.4-3.9
		c0.3-1.2,0.399-2.4,0.3-3.6c-0.101-2.5-1.9-4.2-4.3-4.4c-2.801-0.1-5.101,1.4-5,4.1c0,2.8-1,5.1-2,7.5c-1.5,3.7-2.5,7.6-3.301,11.5
		c-0.6,2.9-1.199,5.8-1.8,8.7c-1.2,6.7-2.399,13.3-3.5,20c-0.899,5.8-1.5,11.7-2.5,17.5c-0.8,5-1.899,9.9-2.8,14.8
		c-1.4,7.4-3.3,14.6-5.3,21.8c-1.2,4.3-4.101,6.7-7.601,8.8c-1.6,0.9-3.3,0.2-3.699-1.5c-0.801-3.6-1.601-7.1-2.301-10.7
		c-1-5.3-1.899-10.6-2.8-15.9c-0.9-5.8-2-11.7-2.4-17.5c-0.3-4.9-1.6-9.6-1.3-14.6c0.1-2.2-1.8-4.1-3.4-3.9
		c-1.899,0.3-3.699,2.4-3.699,4.5c0,0.3,0,0.7,0.199,1c0.9,2.4,0.5,4.8,0.7,7.3c0.101,1.7,0.101,3.5,0.4,5.2
		c0.5,4.1,1.1,8.3,1.7,12.4c0.6,3.9,1.1,7.9,1.8,11.8s1.5,7.9,2.3,11.8c1.3,5.9,1.4,12.1,4.8,17.4c0.2,0.3,0.301,0.7,0.101,1
		c-1.101,2.3,0.5,3.5,1.8,4.9c6,6.4,12.8,11.9,19.2,17.8c6.5,6,13.5,11.6,20.3,17.3c3.3,2.8,6.8,5.5,10.2,8.1
		c1.6,1.2,3.699,1,4.699-0.4c0.9-1.2,1-3.1-0.1-4.3c-1.4-1.5-2.9-3-4.5-4.3c-3.1-2.6-6.1-5.2-9.4-7.5c-3.399-2.5-6.3-5.5-9.399-8.3
		c-4.601-4-9.2-8-13.8-12c-2.4-2.1-4.4-4.4-7.101-6.2c-1.399-1-2.7-2.2-3.7-4c3.7-0.8,6.301-3.2,9-5.3
		C1147.8-1372.5,1149.3-1372.7,1151.1-1371.4"/>
	<path fill="#FFFFFF" d="M447-1092.2c-0.4,0.8-0.8,1.6-1.1,2.4c-0.5,1.4,0.3,2.9,1.699,3.4c2.301,0.7,4.2,0.1,5.301-2
		c0.8-1.4,1.399-2.8,2.1-4.2c4.2-8.4,8.4-16.9,13.1-25c2.301-3.9,4.601-7.8,7.4-11.4c1.5-1.9,3-3.8,5.2-4.9c8.1,7.6,8.1,4.7,3,15.5
		c-0.4,0.8-0.9,1.5-1.3,2.2c-0.4,0.8-0.9,1.5-1.101,2.3c-3,10.4-6.2,20.7-9,31.1c-2.7,10.3-4.899,20.6-4.8,31.4
		c0.1,6.8,0,13.6,0,20.4c0,0.9,0,1.8,0.1,2.6c0.4,2.6,2.5,4.2,5.2,4c2.4-0.2,3.5-1.9,3.4-4.9c-0.3-10.1-0.8-20.2,0.6-30.3
		c1-7.3,2.2-14.4,4.2-21.4c2.1-7.2,4.5-14.3,6.3-21.5c1.601-6.7,4.7-12.7,7.8-18.8c0.601,0.3,1.101,0.4,1.5,0.8
		c3.301,3.1,6.7,6.1,10,9.2c10.601,10.1,21,20.4,30.2,31.9c8.7,10.9,16.601,22.4,23.7,34.4c2.8,4.8,5.3,9.8,8.6,14.3
		c0.9,1.3,1.9,2.5,3.101,3.5c1.399,1.1,4.2,1.1,5.399,0c1.7-1.4,2.2-3.8,1-5.6c-0.899-1.5-2.199-2.7-3.1-4.2
		c-2.7-4.5-5.3-9-7.9-13.6c-5.5-9.5-11.6-18.7-18.3-27.4c-8-10.5-16.7-20.6-26.3-29.8c-5.2-4.9-9.9-10.3-15.6-14.7
		c-0.601-0.5-1.5-1-1.2-2.1c1.1-0.7,2.399-0.3,3.5-0.3c8.899-0.1,17.8-0.1,26.7-0.1c4.199,0,8.3-1.3,12.5-1.1c4,0.2,8,0,12.1,0
		c8.5,0,17.1-0.4,25.5,1.7c2.4,0.6,4.8-0.4,6.7-2.2c0.899-0.9,1.2-2.1,0.7-3.4c-1.301-3.6-3.2-4.7-7.2-3.8
		c-1.101,0.2-2,0.3-3.101,0.1c-6-1.1-12.1-1.5-18.1-1.8c-1,0-2.2-0.2-3.1,0.1c-3.4,1-6.9,0.7-10.4,0.8c-6.6,0.3-13.3-0.5-19.8,1
		c-11.5-0.2-23,0.7-34.5-0.7c-5.2-0.6-8-3.4-10.9-7.2c3.8-3.2,8-5.4,12.4-7.1c11.3-4.6,22.6-9.1,34.2-13c3.3-1.1,6.6-2.2,10-3.2
		c1-0.3,2-0.7,2.699-1.4c1.101-1.2,1.4-2.6,0.7-3.8c-0.8-1.3-2.1-2.1-3.399-1.8c-2.4,0.6-4.7,1.2-7,1.9
		c-13.5,4.2-26.601,9.4-39.7,14.7c-5,2-9.7,4.7-14.101,8c-0.8,0.6-1.899,1.2-2.1,2.2c-0.2,2-1.2,3-3.1,3.7
		c-0.9,0.3-1.601,1.3-2.301,2.1c-5.399,5.1-9,11.5-12.8,17.8C456.6-1112,452-1102,447-1092.2"/>
</g>
<text transform="matrix(1 0 0 1 -304.0396 1030.8501)" fill="#FFFFFF" font-family="'AvengeanceMightiestAvenger'" font-size="400" letter-spacing="6">H</text>
<text transform="matrix(1 0 0 1 -36.4395 1030.8501)" fill="#FFFFFF" font-family="'AvengeanceMightiestAvenger'" font-size="400" letter-spacing="-2">E</text>
<text transform="matrix(1 0 0 1 182.7603 1030.8501)" fill="#FFFFFF" font-family="'AvengeanceMightiestAvenger'" font-size="400">Y </text>
<text transform="matrix(1 0 0 1 517.5605 1030.8501)" fill="#FFFFFF" font-family="'AvengeanceMightiestAvenger'" font-size="400" letter-spacing="-6">D</text>
<text transform="matrix(1 0 0 1 771.9604 1030.8501)" fill="#FFFFFF" font-family="'AvengeanceMightiestAvenger'" font-size="400" letter-spacing="-40">A</text>
<text transform="matrix(1 0 0 1 980.3604 1030.8501)" fill="#FFFFFF" font-family="'AvengeanceMightiestAvenger'" font-size="400">Y </text>
<text transform="matrix(1 0 0 1 1315.1606 1030.8501)" fill="#FFFFFF" font-family="'AvengeanceMightiestAvenger'" font-size="400" letter-spacing="-6">2</text>
<text transform="matrix(1 0 0 1 1534.7603 1030.8501)" fill="#FFFFFF" font-family="'AvengeanceMightiestAvenger'" font-size="400" letter-spacing="-16">0</text>
<text transform="matrix(1 0 0 1 1811.1606 1030.8501)" fill="#FFFFFF" font-family="'AvengeanceMightiestAvenger'" font-size="400" letter-spacing="4">1</text>
<text transform="matrix(1 0 0 1 1975.9604 1030.8501)" fill="#FFFFFF" font-family="'AvengeanceMightiestAvenger'" font-size="400">5</text>
<g>
	
		<text transform="matrix(1 0 0 1 104.3462 315.0073)" fill="#FFFFFF" font-family="'AvengeanceMightiestAvenger'" font-size="200" letter-spacing="3">where:</text>
</g>
<g>
	
		<text transform="matrix(1 0 0 1 -243.6885 -519.0762)" fill="#FFFFFF" font-family="'AvengeanceMightiestAvenger'" font-size="200" letter-spacing="3">when:</text>
</g>
</svg>
