<?xml version="1.0" encoding="utf-8"?>
<!-- Generator: Adobe Illustrator 16.0.0, SVG Export Plug-In . SVG Version: 6.00 Build 0)  -->
<!DOCTYPE svg PUBLIC "-//W3C//DTD SVG 1.1//EN" "http://www.w3.org/Graphics/SVG/1.1/DTD/svg11.dtd">
<svg version="1.1" id="Layer_1" xmlns="http://www.w3.org/2000/svg" xmlns:xlink="http://www.w3.org/1999/xlink" x="0px" y="0px"
	 width="700px" height="883px" viewBox="0 0 700 883" enable-background="new 0 0 700 883" xml:space="preserve">
<text transform="matrix(1 0 0 1 166.4634 259.2212)"><tspan x="0" y="0" fill="#5D5E5E" font-family="'NeuzeitGro-Bla'" font-size="25.9176">Circuit-Level Modeling</tspan><tspan x="0" y="35.702" fill="#5D5E5E" font-family="'NeuzeitGro-Reg'" font-size="25.9176">ESE-370</tspan><tspan x="0" y="116.419" fill="#5D5E5E" font-family="'NeuzeitGro-Bla'" font-size="25.9176">Advanced Seminar in Financial Engineering</tspan><tspan x="0" y="152.122" fill="#5D5E5E" font-family="'NeuzeitGro-Reg'" font-size="25.9176">FNCE-392</tspan><tspan x="0" y="228.183" fill="#5D5E5E" font-family="'NeuzeitGro-Bla'" font-size="25.9176">Integrated Human Anatomy: </tspan><tspan x="0" y="268.542" fill="#5D5E5E" font-family="'NeuzeitGro-Bla'" font-size="25.9176">Physiology and Assessment I</tspan><tspan x="0" y="304.244" fill="#5D5E5E" font-family="'NeuzeitGro-Reg'" font-size="25.9176">NURS-163</tspan><tspan x="0" y="380.304" fill="#5D5E5E" font-family="'NeuzeitGro-Bla'" font-size="25.9176">Integrated Human Anatomy: </tspan><tspan x="0" y="420.664" fill="#5D5E5E" font-family="'NeuzeitGro-Bla'" font-size="25.9176">Physiology and Assessment II</tspan><tspan x="0" y="456.365" fill="#5D5E5E" font-family="'NeuzeitGro-Reg'" font-size="25.9176">NURS-164</tspan><tspan x="0" y="532.427" fill="#5D5E5E" font-family="'NeuzeitGro-Bla'" font-size="25.9176">Accounting for Complex Financial Structures</tspan><tspan x="0" y="568.128" fill="#5D5E5E" font-family="'NeuzeitGro-Reg'" font-size="25.9176">ACCT-243</tspan></text>
<path fill="none" stroke="#A4B744" stroke-miterlimit="10" d="M71.429,250.84c0,13.01-10.547,23.556-23.558,23.556
	S24.314,263.85,24.314,250.84c0-13.013,10.547-23.558,23.558-23.558S71.429,237.828,71.429,250.84"/>
<text transform="matrix(1 0 0 1 40.8975 263.2632)" fill="#A3B643" font-family="'HelveticaNeue-CondensedBold'" font-size="32.9683">1</text>
<path fill="none" stroke="#A4B744" stroke-miterlimit="10" d="M71.429,367.183c0,13.011-10.547,23.557-23.558,23.557
	s-23.558-10.546-23.558-23.557c0-13.012,10.547-23.558,23.558-23.558S71.429,354.171,71.429,367.183"/>
<text transform="matrix(1 0 0 1 40.8975 379.6064)" fill="#A3B643" font-family="'HelveticaNeue-CondensedBold'" font-size="32.9683">2</text>
<path fill="none" stroke="#A4B744" stroke-miterlimit="10" d="M71.429,480.606c0,13.011-10.547,23.557-23.558,23.557
	s-23.558-10.546-23.558-23.557c0-13.012,10.547-23.558,23.558-23.558S71.429,467.594,71.429,480.606"/>
<text transform="matrix(1 0 0 1 40.8975 493.0293)" fill="#A3B643" font-family="'HelveticaNeue-CondensedBold'" font-size="32.9683">3</text>
<path fill="none" stroke="#A4B744" stroke-miterlimit="10" d="M71.429,630.801c0,13.01-10.547,23.557-23.558,23.557
	s-23.558-10.547-23.558-23.557c0-13.012,10.547-23.558,23.558-23.558S71.429,617.789,71.429,630.801"/>
<text transform="matrix(1 0 0 1 40.8975 643.2246)" fill="#A3B643" font-family="'HelveticaNeue-CondensedBold'" font-size="32.9683">4</text>
<path fill="none" stroke="#A4B744" stroke-miterlimit="10" d="M71.429,784.607c0,13.01-10.547,23.559-23.558,23.559
	s-23.558-10.549-23.558-23.559c0-13.012,10.547-23.557,23.558-23.557S71.429,771.596,71.429,784.607"/>
<text transform="matrix(1 0 0 1 40.8975 797.0312)" fill="#A3B643" font-family="'HelveticaNeue-CondensedBold'" font-size="32.9683">5</text>
<text transform="matrix(1 0 0 1 87.8696 261.3462)" fill="#A3B643" font-family="'HelveticaNeue-CondensedBold'" font-size="29.4222">3.89</text>
<text transform="matrix(1 0 0 1 87.8696 378.7583)" fill="#A3B643" font-family="'HelveticaNeue-CondensedBold'" font-size="29.4222">3.83</text>
<text transform="matrix(1 0 0 1 87.8696 490.8193)" fill="#A3B643" font-family="'HelveticaNeue-CondensedBold'" font-size="29.4222">3.82</text>
<text transform="matrix(1 0 0 1 87.8696 641.2637)" fill="#A3B643" font-family="'HelveticaNeue-CondensedBold'" font-size="29.4222">3.75</text>
<text transform="matrix(1 0 0 1 87.8696 794.9102)" fill="#A3B643" font-family="'HelveticaNeue-CondensedBold'" font-size="29.4222">3.73</text>
<text transform="matrix(1.1349 0 0 1 419.5059 871.9531)" fill="#6A5E67" font-family="'NeuzeitGro-Reg'" font-size="11.9008">Matthew Mantica | Online Graphics Associate</text>
<rect x="96.389" y="165.979" fill="none" width="489.128" height="26.156"/>
<text transform="matrix(1 0 0 1 144.937 178.5078)" fill="#5D5E5E" font-family="'NeuzeitGro-Bla'" font-size="18.784">Based on rating out of 4.00 on course difficulty</text>
<rect x="-4.153" y="32.429" fill="none" width="708.305" height="124.842"/>
<text transform="matrix(1 0 0 1 146.3062 73.8706)"><tspan x="0" y="0" fill="#5D5E5E" font-family="'NeuzeitGro-Reg'" font-size="62.1317">Penn's</tspan><tspan x="168.995" y="0" fill="#5D5E5E" font-family="'NeuzeitGro-Bla'" font-size="62.1317"> Hardest</tspan><tspan x="-106.43" y="64.378" fill="#5D5E5E" font-family="'NeuzeitGro-Reg'" font-size="62.1317">Undergraduate Classes</tspan></text>
</svg>
