<?xml version="1.0" encoding="utf-8"?>
<!-- Generator: Adobe Illustrator 16.0.0, SVG Export Plug-In . SVG Version: 6.00 Build 0)  -->
<!DOCTYPE svg PUBLIC "-//W3C//DTD SVG 1.1//EN" "http://www.w3.org/Graphics/SVG/1.1/DTD/svg11.dtd">
<svg version="1.1" id="Layer_1" xmlns="http://www.w3.org/2000/svg" xmlns:xlink="http://www.w3.org/1999/xlink" x="0px" y="0px"
	 width="700px" height="883px" viewBox="0 0 700 883" enable-background="new 0 0 700 883" xml:space="preserve">
<text transform="matrix(1 0 0 1 156.6108 263.1343)"><tspan x="0" y="0" fill="#5D5E5E" font-family="'NeuzeitGro-Bla'" font-size="26.4534">Ensemble Performance: Samba Ensemble</tspan><tspan x="0" y="36.44" fill="#5D5E5E" font-family="'NeuzeitGro-Reg'" font-size="26.4534">MUSC-007</tspan><tspan x="0" y="116.609" fill="#5D5E5E" font-family="'NeuzeitGro-Bla'" font-size="26.4534">Psychology of Food: Psychological, Cultural, </tspan><tspan x="0" y="153.049" fill="#5D5E5E" font-family="'NeuzeitGro-Bla'" font-size="26.4534">and Biological Perspectives</tspan><tspan x="0" y="189.489" fill="#5D5E5E" font-family="'NeuzeitGro-Reg'" font-size="26.4534">PSYC-070</tspan><tspan x="0" y="269.658" fill="#5D5E5E" font-family="'NeuzeitGro-Bla'" font-size="26.4534">Italian Conversation in Residence</tspan><tspan x="0" y="306.098" fill="#5D5E5E" font-family="'NeuzeitGro-Reg'" font-size="26.4534">ITAL-180</tspan><tspan x="0" y="386.267" fill="#5D5E5E" font-family="'NeuzeitGro-Bla'" font-size="26.4534">Film in Residence: Film Culture in Residence</tspan><tspan x="0" y="422.707" fill="#5D5E5E" font-family="'NeuzeitGro-Reg'" font-size="26.4534">CINE-180</tspan><tspan x="0" y="502.875" fill="#5D5E5E" font-family="'NeuzeitGro-Bla'" font-size="26.4534">Russian Film 1900-1945</tspan><tspan x="0" y="539.316" fill="#5D5E5E" font-family="'NeuzeitGro-Reg'" font-size="26.4534">CINE-164</tspan></text>
<text transform="matrix(1.1349 0 0 1 414.7266 861.6475)" fill="#6A5E67" font-family="'NeuzeitGro-Reg'" font-size="12.1468">Matthew Mantica | Online Graphics Associate</text>
<rect x="96.24" y="162.979" fill="none" width="489.129" height="26.156"/>
<text transform="matrix(1 0 0 1 144.7881 175.5078)" fill="#5D5E5E" font-family="'NeuzeitGro-Bla'" font-size="18.784">Based on rating out of 4.00 on course difficulty</text>
<rect x="516.152" y="816.896" fill="none" width="173.848" height="20.299"/>
<text transform="matrix(1 0 0 1 528.6748 829.4238)" fill="#5D5E5E" font-family="'NeuzeitGro-Bla'" font-size="18.784">Half credit course</text>
<rect x="-4.302" y="29.429" fill="none" width="708.306" height="124.842"/>
<text transform="matrix(1 0 0 1 161.2856 70.8706)"><tspan x="0" y="0" fill="#5D5E5E" font-family="'NeuzeitGro-Reg'" font-size="62.1317">Penn's</tspan><tspan x="168.994" y="0" fill="#5D5E5E" font-family="'NeuzeitGro-Bla'" font-size="62.1317"> Easiest</tspan><tspan x="-121.558" y="64.378" fill="#5D5E5E" font-family="'NeuzeitGro-Reg'" font-size="62.1317">Undergraduate Classes</tspan></text>
<path fill="none" stroke="#A4B744" stroke-miterlimit="10" d="M68.199,253.625c0,13.279-10.764,24.043-24.045,24.043
	c-13.278,0-24.044-10.764-24.044-24.043c0-13.281,10.766-24.045,24.044-24.045C57.436,229.581,68.199,240.344,68.199,253.625"/>
<text transform="matrix(1 0 0 1 37.0366 266.3057)" fill="#A3B643" font-family="'HelveticaNeue-CondensedBold'" font-size="33.6498">1</text>
<path fill="none" stroke="#A4B744" stroke-miterlimit="10" d="M68.199,373.975c0,13.28-10.764,24.044-24.044,24.044
	c-13.278,0-24.045-10.764-24.045-24.044s10.767-24.044,24.045-24.044C57.436,349.931,68.199,360.695,68.199,373.975"/>
<text transform="matrix(1 0 0 1 37.0376 386.6553)" fill="#A3B643" font-family="'HelveticaNeue-CondensedBold'" font-size="33.6498">2</text>
<path fill="none" stroke="#A4B744" stroke-miterlimit="10" d="M68.199,525.356c0,13.279-10.764,24.043-24.044,24.043
	c-13.278,0-24.045-10.764-24.045-24.043s10.767-24.043,24.045-24.043C57.436,501.313,68.199,512.077,68.199,525.356"/>
<text transform="matrix(1 0 0 1 37.0376 538.0371)" fill="#A3B643" font-family="'HelveticaNeue-CondensedBold'" font-size="33.6498">3</text>
<path fill="none" stroke="#A4B744" stroke-miterlimit="10" d="M68.199,642.493c0,13.279-10.764,24.045-24.044,24.045
	c-13.278,0-24.045-10.766-24.045-24.045s10.767-24.045,24.045-24.045C57.436,618.448,68.199,629.214,68.199,642.493"/>
<text transform="matrix(1 0 0 1 37.0376 655.1748)" fill="#A3B643" font-family="'HelveticaNeue-CondensedBold'" font-size="33.6498">4</text>
<path fill="none" stroke="#A4B744" stroke-miterlimit="10" d="M68.199,757.44c0,13.277-10.764,24.043-24.044,24.043
	c-13.278,0-24.045-10.766-24.045-24.043c0-13.281,10.767-24.045,24.045-24.045C57.436,733.396,68.199,744.159,68.199,757.44"/>
<text transform="matrix(1 0 0 1 37.0376 770.1191)" fill="#A3B643" font-family="'HelveticaNeue-CondensedBold'" font-size="33.6498">5</text>
<text transform="matrix(1 0 0 1 84.979 264.3486)" fill="#A3B643" font-family="'HelveticaNeue-CondensedBold'" font-size="30.0304">0.72</text>
<text transform="matrix(1 0 0 1 84.98 385.79)" fill="#A3B643" font-family="'HelveticaNeue-CondensedBold'" font-size="30.0304">0.80</text>
<text transform="matrix(1 0 0 1 84.98 535.7812)" fill="#A3B643" font-family="'HelveticaNeue-CondensedBold'" font-size="30.0304">0.90</text>
<text transform="matrix(1 0 0 1 84.98 653.1729)" fill="#A3B643" font-family="'HelveticaNeue-CondensedBold'" font-size="30.0304">0.96</text>
<text transform="matrix(1 0 0 1 84.98 767.9541)" fill="#A3B643" font-family="'HelveticaNeue-CondensedBold'" font-size="30.0304">1.01</text>
<rect x="657.279" y="244.792" fill="none" width="29.842" height="38.167"/>
<text transform="matrix(1 0 0 1 657.2808 273.7798)" fill="#A4B744" font-family="'NeuzeitGro-Reg'" font-size="43.4588">*</text>
<rect x="675.844" y="621.483" fill="none" width="29.842" height="38.166"/>
<text transform="matrix(1 0 0 1 675.8442 650.4688)" fill="#A4B744" font-family="'NeuzeitGro-Reg'" font-size="43.4588">*</text>
<rect x="552.122" y="508.601" fill="none" width="29.843" height="38.168"/>
<text transform="matrix(1 0 0 1 552.123 537.5869)" fill="#A4B744" font-family="'NeuzeitGro-Reg'" font-size="43.4588">*</text>
<rect x="491.646" y="814.203" fill="none" width="51.443" height="65.797"/>
<text transform="matrix(1 0 0 1 491.646 858.5879)" fill="#A4B744" font-family="'NeuzeitGro-Reg'" font-size="66.5409">*</text>
</svg>
