<?xml version="1.0" encoding="utf-8"?>
<!-- Generator: Adobe Illustrator 16.0.4, SVG Export Plug-In . SVG Version: 6.00 Build 0)  -->
<!DOCTYPE svg PUBLIC "-//W3C//DTD SVG 1.1//EN" "http://www.w3.org/Graphics/SVG/1.1/DTD/svg11.dtd">
<svg version="1.1" id="Layer_1" xmlns="http://www.w3.org/2000/svg" xmlns:xlink="http://www.w3.org/1999/xlink" x="0px" y="0px"
	 width="461.607px" height="210.364px" viewBox="0 0 461.607 210.364" enable-background="new 0 0 461.607 210.364"
	 xml:space="preserve">
<g>
	<g>
		<path fill="#FFFFFF" d="M90.921,36.392c-0.31-0.721-0.673-1.523-1.085-2.402c-0.414-0.876-0.775-1.678-1.085-2.402
			c-0.31-0.721-0.519-1.187-0.62-1.395c-0.724-1.755-1.37-3.564-1.937-5.424c-0.569-1.859-1.239-3.692-2.015-5.501
			c-0.775-1.806-1.68-3.511-2.712-5.114c-1.034-1.601-2.378-2.968-4.028-4.106c-1.859-1.341-3.746-2.375-5.656-3.099
			c-1.913-0.722-3.824-1.368-5.734-1.937c-1.912-0.567-3.873-1.109-5.889-1.627c-2.014-0.516-4.055-1.186-6.121-2.014
			c-0.518-0.206-1.162-0.412-1.937-0.62c-0.774-0.206-1.216-0.31-1.317-0.31c-1.447,0.208-2.815,0.542-4.105,1.007
			c-1.293,0.465-2.584,0.828-3.875,1.085c-1.293,0.259-2.609,0.286-3.951,0.078c-1.344-0.206-2.688-0.93-4.029-2.169H11.426
			c-2.17,0-3.773,0.697-4.805,2.092C5.588,3.927,5.072,5.477,5.072,7.182s0.542,3.281,1.627,4.726
			c1.084,1.448,2.658,2.223,4.727,2.325h15.031c0.825,0.104,1.522,0.44,2.092,1.007c0.566,0.569,0.852,1.266,0.852,2.092
			c0.412,14.155,0.438,28.358,0.078,42.614c-0.363,14.257-0.697,28.513-1.008,42.77c0,2.583-0.026,5.114-0.077,7.593
			c-0.054,2.479-0.232,4.908-0.542,7.283c-0.311,2.378-0.828,4.702-1.55,6.973c-0.724,2.274-1.758,4.547-3.1,6.818
			c-2.067-0.31-4.314-0.256-6.741,0.155c-2.428,0.414-4.752,1.111-6.973,2.092c-2.223,0.983-4.184,2.169-5.889,3.564
			c-1.705,1.395-2.816,2.867-3.332,4.417c-0.518,1.55-0.285,3.099,0.697,4.649c0.98,1.55,3.022,2.995,6.121,4.339
			c2.48,1.031,4.933,1.419,7.361,1.162c2.426-0.259,4.982-0.336,7.67-0.232c0.206,0,0.93,0.179,2.17,0.542
			c1.24,0.361,1.961,0.542,2.17,0.542c0.516,0,1.472,0.024,2.866,0.077c1.396,0.051,2.892,0.078,4.494,0.078
			c1.601,0,3.099-0.026,4.493-0.078c1.395-0.053,2.35-0.077,2.867-0.077c0.311-0.104,0.748-0.337,1.317-0.697
			c0.566-0.363,1.213-0.698,1.937-1.007c0.723-0.31,1.395-0.62,2.016-0.93c0.619-0.31,1.084-0.519,1.395-0.62
			c0.825-0.31,1.704-0.286,2.634,0.078c0.93,0.361,1.884,0.775,2.866,1.24c0.981,0.465,1.938,0.876,2.867,1.24
			c0.93,0.36,1.807,0.36,2.635,0c0.826-0.363,1.574-1.189,2.246-2.479c0.672-1.293,1.163-3.383,1.473-6.276
			c0.206-1.032,0.283-2.169,0.232-3.409c-0.053-1.24-0.491-2.271-1.316-3.1c-3.928-0.31-7.311-0.721-10.15-1.239
			c-2.843-0.516-5.219-1.446-7.129-2.79c-1.912-1.341-3.385-3.278-4.416-5.811c-1.033-2.53-1.604-5.966-1.705-10.305
			c0-0.93-0.025-2.557-0.076-4.881c-0.055-2.325-0.078-4.777-0.078-7.361c0-2.581,0.023-5.036,0.078-7.361
			c0.051-2.324,0.076-3.951,0.076-4.881c0.102-0.516,0.311-1.264,0.621-2.247c0.309-0.981,0.773-1.678,1.395-2.092
			c0.411,0,1.213-0.051,2.401-0.155c1.187-0.102,2.401-0.232,3.642-0.388c1.24-0.155,2.402-0.283,3.486-0.387
			c1.085-0.102,1.833-0.155,2.247-0.155c1.342-0.206,3.022-0.412,5.036-0.62c2.015-0.206,4.029-0.489,6.044-0.852
			c2.015-0.361,3.925-0.853,5.733-1.472c1.807-0.62,3.278-1.395,4.416-2.325c6.301-5.68,11.235-12.165,14.799-19.448
			c3.564-7.283,4.727-15.314,3.487-24.096C91.386,37.581,91.23,37.116,90.921,36.392z M79.066,54.6
			c-1.189,4.288-3.308,7.957-6.354,11.002c-3.049,3.048-7.155,4.727-12.32,5.036c-0.518,0-1.447,0.027-2.789,0.078
			c-1.344,0.053-2.765,0.078-4.262,0.078c-1.498,0-2.893-0.024-4.184-0.078c-1.293-0.051-2.195-0.078-2.711-0.078
			c-0.209,0-0.725-0.128-1.551-0.387c-0.828-0.257-1.344-0.489-1.549-0.697c-1.139-0.722-2.092-1.601-2.867-2.634
			c-0.775-1.032-1.215-2.22-1.316-3.564c0-1.031-0.054-2.867-0.156-5.501c-0.104-2.634-0.232-5.424-0.387-8.368
			c-0.154-2.944-0.285-5.734-0.387-8.368c-0.105-2.634-0.156-4.467-0.156-5.501c-0.104-2.479-0.154-5.346-0.154-8.601
			c0-3.254,0.722-6.068,2.17-8.445c0.721-1.136,1.549-1.884,2.479-2.247c0.93-0.361,1.938-0.489,3.021-0.387
			c1.086,0.104,2.17,0.31,3.255,0.62s2.092,0.569,3.021,0.775c0.206,0,0.749,0.053,1.628,0.155c0.876,0.104,1.781,0.208,2.711,0.31
			c0.93,0.104,1.807,0.232,2.635,0.387c0.826,0.155,1.342,0.286,1.549,0.388c0.207,0,0.567,0.208,1.086,0.62
			c0.516,0.414,1.084,0.853,1.704,1.317s1.162,0.93,1.627,1.395s0.799,0.75,1.007,0.853c0.93,0.724,1.807,1.24,2.635,1.549
			c0.826,0.31,1.601,0.62,2.324,0.93c0.722,0.31,1.445,0.724,2.17,1.24c0.721,0.519,1.549,1.395,2.479,2.634
			c2.271,3.409,3.744,7.438,4.417,12.087C80.512,45.845,80.252,50.314,79.066,54.6z"/>
		<path fill="#FFFFFF" d="M188.236,95.277c-1.034-1.961-2.429-2.944-4.184-2.944c-1.758,0-3.1,0.983-4.029,2.944
			c-0.209,0.518-0.492,1.395-0.853,2.634c-0.363,1.24-0.751,2.583-1.162,4.029c-0.414,1.448-0.828,2.843-1.239,4.184
			c-0.414,1.344-0.674,2.274-0.775,2.79c-0.311,1.138-0.673,2.971-1.084,5.501c-0.414,2.533-1.008,5.089-1.783,7.67
			c-0.774,2.584-1.809,4.881-3.099,6.896c-1.293,2.015-2.921,3.022-4.882,3.022h-21.694c-2.169,0-3.9-0.671-5.19-2.015
			c-1.293-1.341-2.248-2.944-2.867-4.804c-0.62-1.86-1.008-3.797-1.162-5.811c-0.155-2.015-0.232-3.744-0.232-5.191
			c0-0.102,0-0.876,0-2.324c0-1.446-0.027-3.1-0.078-4.959c-0.053-1.859-0.077-3.743-0.077-5.656c0-1.91,0-3.433,0-4.571
			c0-0.722,0-1.937,0-3.642s0.024-3.486,0.077-5.346c0.051-1.859,0.078-3.615,0.078-5.269c0-1.651,0-2.79,0-3.409
			c0.825-1.136,1.781-2.116,2.866-2.944c1.085-0.826,2.298-1.24,3.642-1.24c3.719,0,6.509,0.596,8.368,1.782
			c1.859,1.189,3.2,2.712,4.028,4.571c0.826,1.859,1.291,3.823,1.396,5.889c0.102,2.068,0.206,4.029,0.31,5.889
			c0.102,1.859,0.361,3.385,0.775,4.571c0.411,1.188,1.395,1.782,2.943,1.782c1.756,0,3.1-0.852,4.029-2.557
			s1.395-3.278,1.395-4.727c0-2.375-0.259-4.75-0.774-7.128c-0.519-2.375-0.774-4.855-0.774-7.438c0-3.409,0.283-6.741,0.852-9.995
			c0.566-3.254,0.853-6.637,0.853-10.15c0-0.412,0-1.084,0-2.014c0-0.93-0.026-1.884-0.077-2.867
			c-0.054-0.98-0.078-1.937-0.078-2.867s0-1.549,0-1.859c-0.31-1.136-0.956-2.325-1.937-3.564c-0.983-1.24-2.146-1.86-3.487-1.86
			c-1.138,0-2.041,1.138-2.711,3.409c-0.674,2.273-1.499,4.78-2.48,7.516c-0.982,2.739-2.3,5.245-3.951,7.516
			c-1.653,2.274-4.029,3.409-7.128,3.409c-1.964,0-3.796-0.903-5.501-2.712c-1.705-1.806-2.557-3.692-2.557-5.656V19.346
			c0-0.412,0.232-0.853,0.697-1.317s0.98-0.876,1.549-1.24c0.566-0.361,1.137-0.697,1.705-1.007c0.566-0.31,1.008-0.516,1.316-0.62
			c1.652-0.412,3.461-1.031,5.424-1.859c1.962-0.826,3.926-1.601,5.889-2.325c1.961-0.722,3.848-1.368,5.656-1.937
			c1.807-0.566,3.383-0.852,4.727-0.852c0.206,0,0.465,0.026,0.775,0.077c0.31,0.053,0.516,0.078,0.619,0.078
			c2.375,2.169,4.906,4.649,7.594,7.438c2.685,2.79,4.699,5.734,6.043,8.833c0.722,1.758,1.187,4.261,1.395,7.516
			c0.206,3.254,0.543,6.508,1.008,9.763c0.465,3.254,1.341,6.097,2.634,8.523c1.29,2.428,3.383,3.642,6.276,3.642
			c0-7.334-0.26-14.489-0.775-21.462c-0.518-6.973-1.344-14.179-2.479-21.617c-0.62-2.891-1.859-4.983-3.72-6.276
			c-1.859-1.291-4.184-1.937-6.974-1.937c-0.518,0-1.293,0.027-2.324,0.078c-1.033,0.053-1.653,0.077-1.859,0.077
			c-0.208,0.104-0.619,0.31-1.24,0.62c-0.619,0.31-1.316,0.62-2.092,0.93c-0.774,0.31-1.498,0.596-2.169,0.852
			c-0.673,0.259-1.111,0.388-1.317,0.388c-0.619,0-1.266-0.206-1.938-0.62c-0.672-0.412-1.344-0.903-2.014-1.472
			c-0.674-0.566-1.395-1.058-2.17-1.472c-0.774-0.412-1.576-0.62-2.402-0.62h-2.324c-0.414,0-1.421,0.078-3.021,0.232
			c-1.603,0.155-3.307,0.31-5.113,0.465c-1.809,0.155-3.514,0.31-5.113,0.465c-1.604,0.155-2.611,0.232-3.022,0.232h-0.774H134
			c-0.209-0.102-0.646-0.283-1.317-0.542c-0.673-0.257-1.396-0.542-2.169-0.853c-0.775-0.31-1.5-0.593-2.17-0.852
			c-0.674-0.257-1.061-0.388-1.162-0.388h-1.859c-2.068,0-4.494,0-7.283,0c-2.79,0-5.424,0.286-7.904,0.853
			c-2.479,0.569-4.598,1.603-6.353,3.099c-1.758,1.499-2.635,3.746-2.635,6.741c0,1.448,0.257,2.944,0.774,4.494
			c0.517,1.549,1.705,2.324,3.564,2.324h16.271l2.635,2.79v63.689c0.102,0.31,0.232,0.853,0.387,1.627
			c0.155,0.774,0.311,1.603,0.465,2.479c0.155,0.879,0.283,1.705,0.388,2.479c0.102,0.775,0.155,1.317,0.155,1.627
			c0,1.034-0.054,2.843-0.155,5.424c-0.104,2.583-0.232,5.322-0.388,8.213c-0.154,2.894-0.31,5.632-0.465,8.213
			c-0.154,2.583-0.285,4.339-0.387,5.269c-0.725,2.893-1.551,5.114-2.48,6.663c-0.93,1.55-2.118,2.712-3.563,3.487
			c-1.448,0.775-3.229,1.293-5.347,1.55c-2.118,0.259-4.625,0.491-7.516,0.697c-2.273,0.724-3.59,1.809-3.951,3.254
			c-0.363,1.448-0.543,3.048-0.543,4.804c0,1.758,0.18,3.358,0.543,4.804c0.361,1.448,1.678,2.53,3.951,3.254
			c2.375,0.31,4.441,0.542,6.199,0.697c1.755,0.155,3.382,0.284,4.881,0.388c1.496,0.102,2.995,0.179,4.494,0.232
			c1.496,0.051,3.228,0.078,5.191,0.078h4.959c0.721,0,2.401-0.078,5.035-0.233c2.635-0.155,5.475-0.31,8.523-0.465
			c3.046-0.155,5.912-0.31,8.6-0.465c2.686-0.155,4.34-0.232,4.959-0.232c3.306-0.104,6.974-0.131,11.003-0.077
			c4.028,0.051,7.593-0.337,10.692-1.163c1.135-0.31,2.143-1.472,3.021-3.486c0.877-2.015,1.627-4.494,2.247-7.438
			s1.136-6.172,1.55-9.685c0.411-3.511,0.721-6.946,0.93-10.305c0.205-3.356,0.361-6.482,0.465-9.375
			c0.102-2.891,0.154-5.114,0.154-6.663c0-0.31-0.025-1.085-0.077-2.325C188.26,96.362,188.236,95.587,188.236,95.277z"/>
		<path fill="#FFFFFF" d="M233.02,53.283c0.826,1.24,1.86,2.145,3.1,2.712c1.24,0.569,2.17,1.576,2.789,3.021
			c0.516,1.24,1.008,3.23,1.473,5.966c0.465,2.738,1.084,5.501,1.859,8.291c0.775,2.789,1.729,5.244,2.867,7.36
			c1.135,2.119,2.635,3.177,4.494,3.177c0.411,0,0.619-0.256,0.619-0.775c0.206-0.31,0.334-1.109,0.388-2.402
			c0.051-1.291,0.077-2.143,0.077-2.557c0-0.62-0.026-1.574-0.077-2.867c-0.054-1.291-0.182-1.988-0.388-2.092
			c0-0.412-0.259-1.291-0.774-2.634c-0.519-1.341-1.061-2.813-1.628-4.417c-0.568-1.6-1.084-3.072-1.549-4.417
			c-0.465-1.341-0.751-2.22-0.853-2.634c-1.034-3.615-1.964-7.566-2.789-11.854c-0.828-4.286-1.034-8.341-0.62-12.165
			c-0.93-2.065-2.119-4.106-3.564-6.121c-1.447-2.014-2.169-4.208-2.169-6.585c0-1.756,0.438-3.356,1.317-4.804
			c0.876-1.445,1.316-3.099,1.316-4.958c0-1.24-0.542-2.479-1.627-3.719c-1.084-1.24-2.377-2.375-3.873-3.409
			c-1.5-1.031-3.076-1.859-4.727-2.479c-1.654-0.62-3.1-0.93-4.34-0.93c-1.033,0-1.963,0.155-2.789,0.465
			c-0.828,0.31-1.705,0.465-2.635,0.465c-1.549,0-2.997-0.438-4.338-1.317c-1.344-0.876-2.895-1.317-4.649-1.317
			c-1.138,0-2.455,0.363-3.951,1.085c-1.499,0.724-2.944,1.627-4.339,2.712c-1.395,1.084-2.584,2.247-3.564,3.486
			c-0.982,1.24-1.473,2.378-1.473,3.409c0,1.964,0.543,3.385,1.628,4.262c1.085,0.879,2.349,1.603,3.796,2.169
			c1.445,0.569,2.892,1.138,4.34,1.705c1.445,0.569,2.58,1.472,3.408,2.711c0.62,0.93,1.085,1.991,1.395,3.177
			c0.311,1.189,0.516,2.351,0.621,3.487c0.102,1.138,0.179,2.273,0.232,3.409c0.051,1.138,0.179,2.169,0.387,3.099
			c0,0.208,0.129,0.673,0.388,1.395c0.257,0.724,0.516,1.526,0.774,2.402c0.257,0.879,0.516,1.68,0.775,2.402
			c0.256,0.724,0.387,1.188,0.387,1.395c0,0.104,0.051,0.518,0.155,1.24c0.102,0.724,0.155,1.293,0.155,1.705
			c0,1.034-0.182,1.937-0.543,2.712c-0.363,0.774-0.774,1.499-1.239,2.169c-0.465,0.673-0.879,1.395-1.239,2.169
			c-0.363,0.775-0.543,1.68-0.543,2.712v2.014c0,0.208,0.102,0.775,0.311,1.705c0.205,0.93,0.411,1.913,0.619,2.944
			c0.206,1.034,0.388,2.015,0.543,2.944c0.154,0.93,0.232,1.499,0.232,1.705c0.102,0.518-0.054,1.317-0.465,2.402
			c-0.414,1.085-0.828,1.886-1.24,2.402v8.368c0,2.479,0.154,4.958,0.465,7.438s0.465,4.959,0.465,7.438
			c0,1.758-0.311,3.463-0.93,5.114c-0.62,1.654-0.93,3.358-0.93,5.114c0,1.448,0.154,2.79,0.465,4.029s0.465,2.533,0.465,3.874
			c0,4.237-0.697,7.491-2.092,9.763c-1.395,2.273-2.92,4.261-4.572,5.966s-3.176,3.409-4.57,5.114s-2.092,4.005-2.092,6.896
			c0,0.208,0.023,0.673,0.077,1.395c0.051,0.724,0.077,1.189,0.077,1.395c0.311,0.828,0.826,1.448,1.55,1.859
			c0.722,0.414,1.55,0.751,2.479,1.007c0.93,0.259,1.807,0.414,2.635,0.465c0.825,0.053,1.496,0.078,2.014,0.078
			c2.686,0,5.293-0.155,7.826-0.465c2.529-0.31,5.138-0.465,7.825-0.465c2.892,0,5.63,0.155,8.213,0.465
			c2.581,0.31,5.269,0.465,8.058,0.465c0.516,0,1.318-0.232,2.402-0.697c1.085-0.465,1.627-1.058,1.627-1.782v-12.397
			c0-0.93-0.852-1.472-2.557-1.627s-3.591-0.489-5.656-1.007c-2.068-0.516-3.951-1.496-5.656-2.944
			c-1.705-1.445-2.557-4.029-2.557-7.748c0-0.206,0.024-0.748,0.078-1.627c0.051-0.876,0.128-1.833,0.232-2.867
			c0.102-1.032,0.179-1.988,0.232-2.867c0.051-0.877,0.076-1.419,0.076-1.627v-1.859c0-4.235-0.387-8.47-1.162-12.707
			c-0.774-4.235-1.162-8.523-1.162-12.862c0-1.341,0.155-2.581,0.465-3.719c0.311-1.136,0.465-2.325,0.465-3.564
			c0-1.445-0.207-2.813-0.619-4.106c-0.414-1.291-0.62-2.659-0.62-4.106c0-1.24,0.232-2.375,0.697-3.409
			c0.466-1.031,0.954-2.039,1.472-3.021c0.517-0.981,1.008-1.938,1.473-2.867s0.697-1.961,0.697-3.099
			c0-1.136-0.285-1.961-0.852-2.479c-0.569-0.516-0.854-1.341-0.854-2.479c0-2.375,1.291-3.564,3.875-3.564
			c0.721,0,1.549,0.363,2.479,1.085c0.93,0.724,1.342,1.499,1.24,2.324c-0.104,0.414-0.363,1.138-0.775,2.169
			C233.535,52.302,233.227,52.973,233.02,53.283z"/>
		<path fill="#FFFFFF" d="M271.605,115.887c-0.828-5.371-1.293-10.538-1.395-15.496c-0.619-1.032-1.24-1.729-1.859-2.092
			c-0.124-0.072-0.249-0.117-0.374-0.179c0.601-1.42,1.172-2.829,1.787-4.048c-3.117-0.98-5.224,0.319-5.365,3.454
			c-0.705,0.039-1.504-0.089-2.401-0.389c-0.209,0-0.543-0.128-1.008-0.387c-0.465-0.257-0.982-0.542-1.549-0.853
			c-0.446-0.243-0.852-0.486-1.234-0.73c-1.137-3.866-5.3-8.947-10.271-7.762c0.166,2.83,1.424,7.425,3.182,11.282h-0.277h-0.62
			c-0.104,0-0.491-0.102-1.162-0.31c-0.673-0.206-1.061-0.361-1.162-0.465h-0.62c-1.034,0-1.627,0.492-1.782,1.472
			c-0.154,0.983-0.232,1.782-0.232,2.402c0,2.479,0.489,3.978,1.473,4.494c0.98,0.518,2.039,0.801,3.177,0.852
			c1.136,0.053,2.194,0.232,3.177,0.542c0.98,0.31,1.473,1.499,1.473,3.564c0,1.034-0.287,1.937-0.854,2.712
			c-0.568,0.775-1.215,1.499-1.936,2.169c-0.725,0.673-1.371,1.395-1.938,2.169c-0.569,0.775-0.906,1.681-1.008,2.712
			c-0.208,1.55,0.051,2.843,0.775,3.874c0.721,1.034,1.573,2.015,2.557,2.944c0.98,0.93,2.014,1.835,3.1,2.712
			c1.084,0.879,1.936,1.886,2.557,3.021c0.516,1.138,0.721,2.274,0.619,3.409c-0.104,1.138,0.258,2.223,1.086,3.254
			c1.549,1.758,2.789,3.021,3.719,3.796s2.479,1.162,4.648,1.162c1.65,0,2.943-0.542,3.873-1.627
			c0.93-1.084,1.574-2.375,1.938-3.874c0.361-1.496,0.566-3.046,0.621-4.649c0.051-1.601,0.023-2.968-0.078-4.106
			C273.311,126.27,272.432,121.26,271.605,115.887z"/>
		<path fill="#FFFFFF" d="M286.637,0.286h-13.947c-2.377,0-5.088-0.077-8.135-0.232c-3.049-0.155-5.941,0.027-8.678,0.542
			c-2.738,0.518-5.036,1.576-6.896,3.177c-1.859,1.603-2.789,4.16-2.789,7.67c0,2.274,0.748,3.85,2.248,4.727
			c1.496,0.879,3.227,1.549,5.191,2.014c1.961,0.465,3.82,1.007,5.578,1.627c1.756,0.62,2.891,1.859,3.408,3.719
			c0.311,4.339,0.697,8.472,1.162,12.397c0.465,3.928,0.697,8.058,0.697,12.397c0,3.823-0.104,7.206-0.309,10.15
			c-0.209,2.944-1.5,5.915-3.875,8.91c0.311,1.138,1.008,2.068,2.092,2.789c1.086,0.724,1.729,1.705,1.938,2.944v9.917
			c0.102,1.138,0.438,2.402,1.008,3.797c0.566,1.395,1.523,2.092,2.867,2.092c0.309,0,0.697-0.024,1.162-0.078
			c0.465-0.051,0.748-0.334,0.852-0.852c0.102-2.581,0.412-5.138,0.93-7.67c0.516-2.53,0.775-5.037,0.775-7.516
			c0-1.755-0.156-3.486-0.465-5.191c-0.311-1.705-0.465-3.434-0.465-5.191c0-6.404,0.334-12.731,1.006-18.983
			c0.672-6.249,0.904-12.629,0.697-19.138c0.104-1.859,0.723-3.099,1.861-3.719c1.135-0.62,2.4-1.085,3.795-1.395
			c1.395-0.31,2.814-0.67,4.262-1.084c1.445-0.412,2.582-1.341,3.41-2.79c0.205-0.412,0.488-0.98,0.852-1.705
			c0.361-0.721,0.697-1.445,1.008-2.169c0.309-0.721,0.594-1.368,0.852-1.937c0.258-0.566,0.389-0.903,0.389-1.007
			c0.102-0.102,0.154-0.516,0.154-1.24c0-0.721,0-1.239,0-1.549c0-1.136-0.078-2.194-0.232-3.177
			C288.885,1.552,288.082,0.804,286.637,0.286z"/>
		<path fill="#FFFFFF" d="M388.834,2.533c-0.154-0.98-0.957-1.729-2.402-2.247h-13.947c-2.377,0-5.088-0.077-8.135-0.232
			c-3.049-0.155-5.941,0.027-8.678,0.542c-2.738,0.518-5.037,1.576-6.896,3.177c-1.859,1.603-2.789,4.16-2.789,7.67
			c0,2.274,0.748,3.85,2.248,4.727c1.496,0.879,3.227,1.549,5.191,2.014c1.961,0.465,3.82,1.007,5.578,1.627
			c1.756,0.62,2.891,1.859,3.408,3.719c0.311,4.339,0.697,8.472,1.162,12.397c0.465,3.928,0.697,8.058,0.697,12.397
			c0,3.823-0.104,7.206-0.309,10.15c-0.209,2.944-1.5,5.915-3.875,8.91c0.311,1.138,1.008,2.068,2.092,2.789
			c1.086,0.724,1.729,1.705,1.938,2.944v9.917c0.102,1.138,0.438,2.402,1.008,3.797c0.566,1.395,1.523,2.092,2.867,2.092
			c0.309,0,0.697-0.024,1.162-0.078c0.465-0.051,0.748-0.334,0.852-0.852c0.102-2.581,0.412-5.138,0.93-7.67
			c0.516-2.53,0.775-5.037,0.775-7.516c0-1.755-0.156-3.486-0.465-5.191c-0.311-1.705-0.465-3.434-0.465-5.191
			c0-6.404,0.334-12.731,1.006-18.983c0.672-6.249,0.904-12.629,0.697-19.138c0.104-1.859,0.723-3.099,1.861-3.719
			c1.135-0.62,2.4-1.085,3.795-1.395c1.395-0.31,2.814-0.67,4.262-1.084c1.445-0.412,2.582-1.341,3.41-2.79
			c0.205-0.412,0.488-0.98,0.852-1.705c0.361-0.721,0.697-1.445,1.008-2.169c0.309-0.721,0.594-1.368,0.852-1.937
			c0.258-0.566,0.389-0.903,0.389-1.007c0.102-0.102,0.154-0.516,0.154-1.24c0-0.721,0-1.239,0-1.549
			C389.066,4.574,388.988,3.516,388.834,2.533z"/>
		<path fill="#FFFFFF" d="M371.4,115.887c-0.828-5.371-1.293-10.538-1.395-15.496c-0.117-0.195-0.234-0.367-0.352-0.538
			c0.613-1.958,0.502-4.235-0.527-7.097c-3.454-0.914-4.755,1.867-5.868,4.727c-0.457-0.06-0.943-0.171-1.466-0.346
			c-0.035,0-0.095-0.025-0.136-0.032c-2.788-3.722-7.327-9.421-10.768-8.478c-4.073,1.116-2.02,5.884,0.37,9.746l-0.314,0.314
			h-0.311h-0.619c-0.104,0-0.492-0.102-1.162-0.31c-0.674-0.206-1.061-0.361-1.162-0.465h-0.619c-1.035,0-1.627,0.492-1.783,1.472
			c-0.154,0.983-0.232,1.782-0.232,2.402c0,2.479,0.49,3.978,1.473,4.494c0.98,0.518,2.039,0.801,3.176,0.852
			c1.137,0.053,2.195,0.232,3.178,0.542c0.98,0.31,1.473,1.499,1.473,3.564c0,1.034-0.287,1.937-0.854,2.712
			c-0.568,0.775-1.215,1.499-1.938,2.169c-0.723,0.673-1.369,1.395-1.936,2.169c-0.57,0.775-0.906,1.681-1.008,2.712
			c-0.209,1.55,0.051,2.843,0.775,3.874c0.721,1.034,1.574,2.015,2.557,2.944c0.98,0.93,2.014,1.835,3.1,2.712
			c1.084,0.879,1.936,1.886,2.557,3.021c0.516,1.138,0.721,2.274,0.619,3.409c-0.104,1.138,0.258,2.223,1.086,3.254
			c1.549,1.758,2.789,3.021,3.719,3.796s2.479,1.162,4.648,1.162c1.65,0,2.943-0.542,3.873-1.627
			c0.93-1.084,1.574-2.375,1.938-3.874c0.361-1.496,0.566-3.046,0.621-4.649c0.051-1.601,0.023-2.968-0.078-4.106
			C373.105,126.27,372.227,121.26,371.4,115.887z"/>
		<path fill="#FFFFFF" d="M332.814,53.283c0.826,1.24,1.859,2.145,3.1,2.712c1.24,0.569,2.17,1.576,2.789,3.021
			c0.516,1.24,1.008,3.23,1.473,5.966c0.465,2.738,1.084,5.501,1.859,8.291c0.775,2.789,1.729,5.244,2.867,7.36
			c1.135,2.119,2.635,3.177,4.494,3.177c0.41,0,0.619-0.256,0.619-0.775c0.205-0.31,0.334-1.109,0.387-2.402
			c0.051-1.291,0.078-2.143,0.078-2.557c0-0.62-0.027-1.574-0.078-2.867c-0.053-1.291-0.182-1.988-0.387-2.092
			c0-0.412-0.26-1.291-0.775-2.634c-0.518-1.341-1.061-2.813-1.627-4.417c-0.568-1.6-1.084-3.072-1.549-4.417
			c-0.465-1.341-0.75-2.22-0.852-2.634c-1.035-3.615-1.965-7.566-2.791-11.854c-0.828-4.286-1.033-8.341-0.619-12.165
			c-0.93-2.065-2.119-4.106-3.564-6.121c-1.447-2.014-2.17-4.208-2.17-6.585c0-1.756,0.439-3.356,1.318-4.804
			c0.877-1.445,1.316-3.099,1.316-4.958c0-1.24-0.541-2.479-1.627-3.719c-1.084-1.24-2.377-2.375-3.873-3.409
			c-1.5-1.031-3.076-1.859-4.727-2.479c-1.654-0.62-3.1-0.93-4.34-0.93c-1.033,0-1.963,0.155-2.789,0.465
			c-0.828,0.31-1.705,0.465-2.635,0.465c-1.549,0-2.996-0.438-4.338-1.317c-1.344-0.876-2.895-1.317-4.648-1.317
			c-1.139,0-2.455,0.363-3.953,1.085c-1.498,0.724-2.943,1.627-4.338,2.712c-1.395,1.084-2.584,2.247-3.564,3.486
			c-0.982,1.24-1.473,2.378-1.473,3.409c0,1.964,0.543,3.385,1.627,4.262c1.086,0.879,2.35,1.603,3.797,2.169
			c1.445,0.569,2.891,1.138,4.34,1.705c1.445,0.569,2.58,1.472,3.408,2.711c0.621,0.93,1.086,1.991,1.395,3.177
			c0.311,1.189,0.516,2.351,0.621,3.487c0.102,1.138,0.178,2.273,0.232,3.409c0.051,1.138,0.178,2.169,0.387,3.099
			c0,0.208,0.129,0.673,0.387,1.395c0.258,0.724,0.516,1.526,0.775,2.402c0.256,0.879,0.516,1.68,0.775,2.402
			c0.256,0.724,0.387,1.188,0.387,1.395c0,0.104,0.051,0.518,0.154,1.24c0.104,0.724,0.156,1.293,0.156,1.705
			c0,1.034-0.182,1.937-0.543,2.712c-0.363,0.774-0.775,1.499-1.24,2.169c-0.465,0.673-0.879,1.395-1.238,2.169
			c-0.363,0.775-0.543,1.68-0.543,2.712v2.014c0,0.208,0.102,0.775,0.311,1.705c0.205,0.93,0.41,1.913,0.619,2.944
			c0.205,1.034,0.387,2.015,0.543,2.944c0.154,0.93,0.232,1.499,0.232,1.705c0.102,0.518-0.055,1.317-0.465,2.402
			c-0.414,1.085-0.828,1.886-1.24,2.402v8.368c0,2.479,0.154,4.958,0.465,7.438s0.465,4.959,0.465,7.438
			c0,1.758-0.311,3.463-0.93,5.114c-0.619,1.654-0.93,3.358-0.93,5.114c0,1.448,0.154,2.79,0.465,4.029s0.465,2.533,0.465,3.874
			c0,4.237-0.697,7.491-2.092,9.763c-1.395,2.273-2.92,4.261-4.572,5.966s-3.176,3.409-4.57,5.114s-2.092,4.005-2.092,6.896
			c0,0.208,0.023,0.673,0.076,1.395c0.051,0.724,0.078,1.189,0.078,1.395c0.311,0.828,0.826,1.448,1.549,1.859
			c0.723,0.414,1.551,0.751,2.48,1.007c0.93,0.259,1.807,0.414,2.635,0.465c0.824,0.053,1.496,0.078,2.014,0.078
			c2.686,0,5.293-0.155,7.826-0.465c2.529-0.31,5.137-0.465,7.824-0.465c2.893,0,5.631,0.155,8.215,0.465
			c2.58,0.31,5.268,0.465,8.057,0.465c0.516,0,1.318-0.232,2.402-0.697s1.627-1.058,1.627-1.782v-12.397
			c0-0.93-0.852-1.472-2.557-1.627s-3.59-0.489-5.656-1.007c-2.068-0.516-3.951-1.496-5.656-2.944
			c-1.705-1.445-2.557-4.029-2.557-7.748c0-0.206,0.023-0.748,0.078-1.627c0.051-0.876,0.127-1.833,0.232-2.867
			c0.102-1.032,0.178-1.988,0.232-2.867c0.051-0.877,0.076-1.419,0.076-1.627v-1.859c0-4.235-0.387-8.47-1.162-12.707
			c-0.773-4.235-1.162-8.523-1.162-12.862c0-1.341,0.156-2.581,0.465-3.719c0.311-1.136,0.465-2.325,0.465-3.564
			c0-1.445-0.207-2.813-0.619-4.106c-0.414-1.291-0.619-2.659-0.619-4.106c0-1.24,0.232-2.375,0.697-3.409
			c0.465-1.031,0.953-2.039,1.471-3.021c0.516-0.981,1.008-1.938,1.473-2.867s0.697-1.961,0.697-3.099
			c0-1.136-0.285-1.961-0.852-2.479c-0.57-0.516-0.854-1.341-0.854-2.479c0-2.375,1.291-3.564,3.875-3.564
			c0.721,0,1.549,0.363,2.479,1.085c0.93,0.724,1.342,1.499,1.24,2.324c-0.104,0.414-0.363,1.138-0.775,2.169
			C333.33,52.302,333.021,52.973,332.814,53.283z"/>
	</g>
	<rect x="72.853" y="139.051" transform="matrix(0.9984 -0.057 0.057 0.9984 -9.2109 15.4656)" width="387.35" height="60.324"/>
	
		<rect x="108.505" y="154.478" transform="matrix(0.9984 -0.057 0.057 0.9984 -9.3214 15.5762)" fill="none" width="319.857" height="33.482"/>
	
		<text transform="matrix(0.9984 -0.057 0.057 0.9984 113.5586 191.5034)" fill="#FFF200" font-family="'Courier'" font-size="44" letter-spacing="5">DICTIONARY</text>
</g>
</svg>
