<!-- Generator: Adobe Illustrator 18.0.0, SVG Export Plug-In  -->
<svg version="1.1"
	 xmlns="http://www.w3.org/2000/svg" xmlns:xlink="http://www.w3.org/1999/xlink" xmlns:a="http://ns.adobe.com/AdobeSVGViewerExtensions/3.0/"
	 x="0px" y="0px" width="48px" height="48px" viewBox="0 0 48 48" enable-background="new 0 0 48 48" xml:space="preserve">
<defs>
</defs>
<g>
	<path fill="#FFFFFF" d="M32.2,24c0,4.5-3.7,8.2-8.2,8.2c-4.5,0-8.2-3.7-8.2-8.2c0-1.1,0.2-2.1,0.6-3.1h-4.5v12.3
		c0,1.6,1.3,2.7,2.9,2.7h18.4c1.6,0,2.7-1.1,2.7-2.7V20.9h-4.3C32,21.9,32.2,22.9,32.2,24z"/>
	<polygon fill="#FFFFFF" points="35.9,17.5 35.9,13.1 35.9,12.5 35,12.5 30.5,12.5 30.7,17.6 	"/>
	<path fill="#FFFFFF" d="M24,29.3c2.9,0,5.3-2.4,5.3-5.3c0-1.1-0.4-2.2-1-3.1c-1-1.3-2.5-2.2-4.3-2.2c-1.8,0-3.3,0.9-4.3,2.2
		c-0.6,0.9-1,1.9-1,3.1C18.7,26.9,21.1,29.3,24,29.3z"/>
	<path fill="#FFFFFF" d="M24,0C10.7,0,0,10.7,0,24c0,13.3,10.7,24,24,24c13.3,0,24-10.7,24-24C48,10.7,37.3,0,24,0z M38.9,20.9v12.3
		c0,3.2-2.5,5.7-5.7,5.7H14.8c-3.2,0-5.9-2.5-5.9-5.7V20.9v-6.1c0-3.2,2.7-5.9,5.9-5.9h18.4c3.2,0,5.7,2.7,5.7,5.9V20.9z"/>
</g>
</svg>