<?xml version="1.0" encoding="utf-8"?>
<!-- Generator: Adobe Illustrator 16.0.4, SVG Export Plug-In . SVG Version: 6.00 Build 0)  -->
<!DOCTYPE svg PUBLIC "-//W3C//DTD SVG 1.1//EN" "http://www.w3.org/Graphics/SVG/1.1/DTD/svg11.dtd">
<svg version="1.1" xmlns="http://www.w3.org/2000/svg" xmlns:xlink="http://www.w3.org/1999/xlink" x="0px" y="0px" width="232.3px"
	 height="138px" viewBox="0 0 232.3 138" style="enable-background:new 0 0 232.3 138;" xml:space="preserve">
<style type="text/css">
<![CDATA[
	.st0{fill:#FFFFFF;}
]]>
</style>
<g id="sky">
	<path class="st0" d="M136.5,32.6c14.9,0,27.3,11,29.4,25.4c0.5,0,1.1-0.1,1.6-0.1c10.3,0,18.6,8.7,18.9,19.6c1.7-1,3.7-1.5,5.8-1.5
		c6.6,0,11.9,5.3,11.9,11.9c0,6.6-6.7,13.8-13.3,13.8c-55.7,0.2-92.8,0.7-148.3,0.4c-7.5,0-14.3-3.5-14.3-11
		c0-7.5,6.1-13.5,13.5-13.5c1.9,0,3.8,0.4,5.5,1.2c3-5,8.5-8.4,14.8-8.4c2.5,0,4.8,0.5,7,1.5c1.2-7.6,7.8-13.5,15.7-13.5
		c6.3,0,11.7,3.6,14.3,8.9c2.3-1.4,5-2.3,7.8-2.5c-0.1-0.8-0.1-1.5-0.1-2.3C106.8,45.9,120.1,32.6,136.5,32.6"/>
	<path class="st0" d="M187.7-184.8c9.9,0,18,7.3,19.4,16.8c0.3,0,0.7-0.1,1.1-0.1c6.8,0,12.3,5.8,12.5,12.9c1.1-0.6,2.4-1,3.8-1
		c4.3,0,7.9,3.5,7.9,7.9c0,4.3-4.4,9.1-8.8,9.1c-36.8,0.1-61.2,0.5-97.9,0.2c-4.9,0-9.4-2.3-9.4-7.3c0-4.9,4-8.9,8.9-8.9
		c1.3,0,2.5,0.3,3.6,0.8c2-3.3,5.6-5.5,9.8-5.5c1.6,0,3.2,0.3,4.6,1c0.8-5,5.1-8.9,10.4-8.9c4.1,0,7.7,2.4,9.4,5.9
		c1.5-0.9,3.3-1.5,5.2-1.6c0-0.5-0.1-1-0.1-1.5C168-176,176.8-184.8,187.7-184.8"/>
	<path class="st0" d="M488.4,107.1c15.3,0,27.9,11.3,30.1,26c0.5,0,1.1-0.1,1.6-0.1c10.5,0,19.1,8.9,19.3,20c1.8-1,3.8-1.5,5.9-1.5
		c6.7,0,12.2,5.5,12.2,12.2c0,6.7-6.9,14.1-13.6,14.1c-57,0.2-94.9,0.8-151.7,0.4c-7.6,0-14.6-3.6-14.6-11.3
		c0-7.6,6.2-13.9,13.9-13.9c2,0,3.9,0.4,5.6,1.2c3.1-5.1,8.7-8.6,15.2-8.6c2.5,0,4.9,0.5,7.1,1.5c1.2-7.8,8-13.8,16.1-13.8
		c6.4,0,12,3.7,14.6,9.1c2.4-1.4,5.1-2.3,8-2.5c-0.1-0.8-0.1-1.6-0.1-2.4C458,120.7,471.6,107.1,488.4,107.1"/>
	<path class="st0" d="M526.5,44.5c9.8,0,17.9,7.2,19.3,16.6c0.3,0,0.7-0.1,1-0.1c6.7,0,12.2,5.7,12.4,12.8c1.1-0.6,2.4-1,3.8-1
		c4.3,0,7.8,3.5,7.8,7.8c0,4.3-4.4,9-8.7,9c-36.5,0.1-60.8,0.5-97.2,0.2c-4.9,0-9.4-2.3-9.4-7.2c0-4.9,4-8.9,8.9-8.9
		c1.3,0,2.5,0.3,3.6,0.8c2-3.3,5.6-5.5,9.7-5.5c1.6,0,3.2,0.3,4.6,1c0.8-5,5.1-8.8,10.3-8.8c4.1,0,7.7,2.4,9.4,5.9
		c1.5-0.9,3.3-1.5,5.1-1.6c0-0.5-0.1-1-0.1-1.5C507.1,53.3,515.8,44.5,526.5,44.5"/>
	<path class="st0" d="M423.4,6.2c0,0.7,0,1.3-0.1,2c2.4,0.2,4.7,1,6.7,2.1c2.2-4.5,6.9-7.6,12.2-7.6c6.8,0,12.5,5,13.5,11.5
		c1.8-0.8,3.8-1.3,6-1.3c5.4,0,10.1,2.9,12.7,7.2c1.4-0.6,3-1,4.7-1c6.4,0,11.6,5.2,11.6,11.6s-5.8,9.4-12.2,9.4
		c-47.5,0.3-79.2-0.2-126.9-0.3c-5.6,0-11.4-6.2-11.4-11.8c0-5.6,4.6-10.2,10.2-10.2c1.8,0,3.5,0.5,5,1.3
		c0.2-9.3,7.4-16.7,16.1-16.7c0.5,0,0.9,0,1.4,0.1c1.8-12.3,12.4-21.7,25.2-21.7C412-19.2,423.4-7.8,423.4,6.2"/>
	<path class="st0" d="M301.4-216.2c-9,0-16.5,6.7-17.7,15.3c-0.3,0-0.6,0-1,0c-6.2,0-11.2,5.3-11.4,11.8c-1-0.6-2.2-0.9-3.5-0.9
		c-4,0-7.2,3.2-7.2,7.2c0,4,4.1,8.3,8,8.3c33.6,0.1,56,0.4,89.5,0.2c4.5,0,8.6-2.1,8.6-6.7c0-4.5-3.7-8.2-8.2-8.2
		c-1.2,0-2.3,0.2-3.3,0.7c-1.8-3-5.2-5.1-9-5.1c-1.5,0-2.9,0.3-4.2,0.9c-0.7-4.6-4.7-8.1-9.5-8.1c-3.8,0-7.1,2.2-8.6,5.4
		c-1.4-0.8-3-1.4-4.7-1.5c0-0.5,0.1-0.9,0.1-1.4C319.3-208.1,311.2-216.2,301.4-216.2"/>
</g>
<g id="clouds">
</g>
</svg>
