<?xml version="1.0" encoding="utf-8"?>
<!-- Generator: Adobe Illustrator 16.0.4, SVG Export Plug-In . SVG Version: 6.00 Build 0)  -->
<!DOCTYPE svg PUBLIC "-//W3C//DTD SVG 1.1//EN" "http://www.w3.org/Graphics/SVG/1.1/DTD/svg11.dtd">
<svg version="1.1" id="Layer_1" xmlns="http://www.w3.org/2000/svg" xmlns:xlink="http://www.w3.org/1999/xlink" x="0px" y="0px"
	 width="3939.563px" height="496.588px" viewBox="0 0 3939.563 496.588" enable-background="new 0 0 3939.563 496.588"
	 xml:space="preserve">
<g>
	<g>
		<path fill="#FFFFFF" d="M352.069,73.711c0-0.677,0.609-0.677,1.215-0.677c-7.903,18.973-24.935,35.233-41.963,40.658v180.926
			l26.154-28.467c-6.692,39.98-35.275,81.996-70.545,94.191c-42.572,14.231-92.441,7.454-123.453-28.458
			c-27.978-29.812-29.802-81.316-18.247-120.615c9.121-32.525,33.45-64.378,61.424-81.996
			c-29.799,39.982-43.786,102.321-21.896,151.786c18.247,34.562,51.694,46.084,86.967,41.337c18.854-2.707,36.49-9.484,52.3-22.358
			V117.756c-53.519,6.777-103.991-8.81-158.119-4.742c-10.945,0.679-21.285,4.742-28.583,14.904
			c1.219-18.294,9.123-35.911,23.72-47.43c20.066-14.908,48.046-10.846,72.979-10.163C259.633,73.034,307.067,87.264,352.069,73.711
			L352.069,73.711z"/>
		<path fill="#FFFFFF" d="M1243,92.684l9.732-2.707c-0.609,14.226-9.732,27.779-21.287,33.201
			c-15.203,7.454-27.973-4.065-39.527-10.843c-4.863-0.677-8.512,1.357-11.555,4.743l-4.26-5.42l40.139-42.016
			C1220.499,80.488,1230.233,93.362,1243,92.684L1243,92.684z"/>
		<path fill="#FFFFFF" d="M1325.711,106.236v208.028c9.73,2.033,17.635,8.132,23.715,16.938l16.422-8.806l3.041,6.1
			c-16.418,10.843-35.271,20.327-50.475,35.915c-11.557-12.878-23.719-23.041-40.139-19.651l-13.379,3.388
			c-0.609-10.842,5.473-23.037,15.809-28.458l3.043-1.357V111.658c-1.215-8.812-4.867-16.262-10.34-23.043
			c24.33,2.713,45.611-5.42,64.463-18.973C1332.399,80.488,1326.924,92.684,1325.711,106.236L1325.711,106.236z"/>
		<path fill="#FFFFFF" d="M2808.981,106.236v208.028c9.121,2.033,17.027,8.132,23.111,16.938l16.418-8.806l3.648,6.1
			c-17.029,10.843-35.271,20.327-51.084,35.915c-10.945-12.878-23.719-23.041-40.137-19.651l-13.381,3.388
			c-0.609-10.842,6.082-23.037,15.812-28.458l3.65-1.357l-0.609-206.674c-0.609-8.812-4.863-16.262-10.342-23.043
			c24.33,2.713,45.613-5.42,64.467-18.973C2815.059,80.488,2809.586,92.684,2808.981,106.236L2808.981,106.236z"/>
		<path fill="#FFFFFF" d="M3445.102,92.684l9.73-2.707c-0.609,14.226-9.127,27.779-20.68,33.201
			c-15.811,7.454-27.975-4.065-40.137-10.843c-4.865-0.677-8.514,1.357-10.949,4.743l-4.863-5.42l40.139-42.016
			C3423.206,80.488,3432.936,93.362,3445.102,92.684L3445.102,92.684z"/>
		<path fill="#FFFFFF" d="M417.141,70.325c-21.286,38.621-8.516,92.832-12.164,139.589l73.588-53.534
			c6.688,11.519,17.633,21.007,31.014,20.33c4.867,0,8.514-2.713,12.773-4.064c-1.219,12.197-7.301,24.39-17.637,30.492
			c-1.215,35.234-0.611,72.502-0.611,107.74c1.221,11.519,4.869,21.687,11.557,29.813c-16.418-2.707-37.096-5.42-52.299,2.713
			c-4.867,3.39-6.082,8.129-4.867,13.553c7.297,12.193,23.109,14.228,27.367,29.136c1.824,13.553,0.607,27.106-9.121,35.916
			c-7.301,5.42-15.205,9.487-24.934,9.487c9.121-12.198,12.77-27.785,9.121-44.048c-1.824-12.874-14.594-23.037-8.516-37.945
			c6.082-13.553,9.73-28.462,9.123-44.724l0.607-94.865c-3.039-2.033-6.688-3.391-9.73-6.776l-9.73-12.201l-37.705,27.784v94.191
			c9.121,4.061,18.246,7.454,25.543,16.266c-14.598,7.445-28.582,19.646-40.748,33.877c-14.593-14.231-30.405-23.716-49.868-23.716
			c3.649-10.843,13.38-20.331,23.11-25.074l-0.605-204.641c-1.823-7.455-4.258-14.909-9.73-21.009
			C377.004,92.007,397.68,82.522,417.141,70.325L417.141,70.325z"/>
		<path fill="#FFFFFF" d="M993.053,291.901V174.676c0-26.427-1.824-52.177-12.77-73.859c-10.336-17.621-27.363-27.782-45.002-30.491
			c-56.557-4.745-112.508,19.651-166.633,0c-0.607,10.836,1.824,21.003,5.473,30.491c21.283,36.591,68.113,23.717,100.953,21.004
			v180.925c-44.393-1.355-82.707,23.717-107.643,65.052c35.881-25.749,92.436-25.749,128.32-0.674
			c30.408-27.784,67.502-40.661,106.426-46.082C997.922,312.233,994.27,302.745,993.053,291.901z M945.62,326.462l-10.338,4.067
			c-15.203-16.943-33.451-25.75-52.908-27.784V120.468c19.457-1.355,47.436-8.81,58.99,14.229l3.648,12.878l0.607,175.501V326.462z"
			/>
		<path fill="#FFFFFF" d="M1865.743,125.888l25.543-25.071c-24.324-4.068-47.434-13.553-63.855-35.912l-62.641,45.397V90.649h-6.688
			v25.072l-21.287,14.91c-0.607-10.164-2.432-19.652-5.473-28.463c-5.473-14.905-18.85-29.135-32.84-31.169
			c-23.109-4.064-43.785,4.741-57.166,25.748c-7.906,12.198-9.121,32.525-3.037,45.402c0.605-9.485,3.037-17.617,9.729-24.395
			c6.689-7.454,19.459-8.132,27.975-4.063c22.5,14.226,12.164,46.752,14.594,71.15h-10.336
			c-12.773,0.674-25.543,8.128-30.408,21.681c-4.865,16.266-0.607,33.204,6.08,46.078l2.434-8.127
			c6.08-12.88,18.852-14.914,32.23-13.557v57.598c-8.512,0-15.809,3.386-23.109,7.454c-22.5,14.229-30.408,40.653-31.014,67.759
			c13.379-18.969,32.232-28.457,54.123-28.457c0.609,37.27,3.648,77.249-20.678,102.999c19.463,2.034,35.883-7.454,48.047-24.397
			c12.77,15.589,27.975,23.719,46.824,23.045v-89.449c10.949,3.389,21.285,9.488,30.408,15.586
			c17.639-31.853,46.828-52.177,79.061-52.177c-4.258-8.133-6.082-16.942-7.906-26.423L1865.743,125.888z M1758.102,426.752
			c-6.082-1.357-12.162-5.426-15.203-12.197c-6.691-12.878-4.258-29.813-4.867-45.404V138.765l20.07-14.91V426.752z
			 M1820.131,316.973c-17.027-12.87-34.057-25.071-54.123-30.491V119.112l19.457-14.91c6.084,14.91,20.072,24.399,34.666,23.716
			V316.973z"/>
		<path fill="#FFFFFF" d="M266.931,259.376c-4.868,32.525-36.49,37.949-58.385,45.403c6.691-6.775,9.73-15.587,10.949-25.071
			c0.605-37.268,0-74.54,0-111.131l-17.638,7.454v-8.806c22.501-8.133,43.786-19.651,65.073-32.529V259.376L266.931,259.376z"/>
		<path fill="#FFFFFF" d="M861.694,135.373c-5.473,8.812-7.299,20.33-6.689,32.525l-1.213,92.158
			c-6.691,31.17-37.1,42.016-60.814,48.108c19.457-12.195,12.16-39.979,13.984-62.339c-11.557,0.674-28.582-4.743-32.84,10.841
			l-1.217,8.811c-5.473-16.265-7.904-41.337,3.041-55.563c7.906-8.811,18.854-10.845,30.41-10.845
			c0.605-20.325,9.727-39.298,26.148-50.144C841.627,142.827,851.356,138.086,861.694,135.373L861.694,135.373z"/>
		<path fill="#FFFFFF" d="M1259.422,180.096c-4.256,10.841-13.377,20.329-23.107,24.394v94.866c0.604,7.454,2.43,14.23,8.512,18.977
			c4.867,4.064,10.949,6.099,17.637,6.099v5.42c-15.203,8.134-29.191,20.331-42.572,33.204
			c-13.984-7.453-23.715-23.036-24.934-39.303l-0.605-117.229c-9.73-3.386-18.248-8.127-25.543-16.261
			c14.598-7.454,28.582-19.651,40.744-33.883C1224.151,170.611,1239.352,180.774,1259.422,180.096L1259.422,180.096z"/>
		<path fill="#FFFFFF" d="M1554.374,180.096c-4.258,10.841-13.379,20.329-23.111,24.394v107.744
			c-0.609,18.296,16.42,28.458,13.381,47.437c0,25.744-16.418,48.782-36.49,60.982c-24.324,15.583-60.814,18.301-87.572,6.776
			c-12.77-5.42-30.406-17.615-42.57-2.71l-1.824,2.033c1.217-18.3,7.906-39.304,25.543-47.432c10.34-3.39,23.111-2.716,31.621,5.421
			c15.812,13.548,26.154,43.366,49.26,37.268c9.73-2.034,19.463-8.81,23.111-18.977c9.123-21.004-3.648-39.304-13.984-54.885
			c-3.045-12.197-2.436-25.751-3.045-39.304l-73.584,54.211c-3.648-7.453-11.555-16.261-19.461-18.295
			c-8.512-2.034-17.027,0-24.934,2.709c0-13.553,9.121-25.745,19.461-31.171l-0.609-96.898c0-8.13-4.254-16.262-10.945-20.33
			c-4.865-2.034-10.34-2.708-15.812-2.708v-5.425c12.164-7.455,23.717-18.973,33.449-31.844c12.158,2.03,26.148,9.484,31.621,23.716
			l3.648,17.616l0.611,110.453c7.906,2.034,15.811,9.488,19.461,17.618l37.703-27.785v-94.188
			c-9.73-2.708-18.242-8.127-25.545-16.261c13.99-7.454,27.98-18.973,40.139-33.883
			C1518.495,170.611,1534.303,180.774,1554.374,180.096L1554.374,180.096z"/>
		<path fill="#FFFFFF" d="M2185.629,176.71c4.26,0,7.908-2.713,12.166-4.064c-0.609,12.197-6.693,24.39-17.029,30.492
			c-1.828,31.174-1.219,65.048-0.609,96.9c0,8.127,4.26,16.26,11.557,20.328c4.258,2.03,9.732,2.709,15.205,2.709v5.421
			c-12.166,8.127-24.936,19.651-33.451,33.199c-12.162-3.386-25.541-10.162-31.014-24.39l-4.258-17.616l-0.609-110.453
			c-7.908-2.034-14.594-10.84-18.854-18.3l-37.703,27.784v94.191c9.121,4.061,18.242,7.454,25.541,16.266
			c-14.596,7.445-28.584,20.325-40.744,35.233c-13.99-15.588-31.016-25.072-50.479-25.072c4.258-10.161,13.379-20.331,23.109-24.393
			v-94.87c-0.604-6.775-2.434-12.874-6.688-18.294c-5.473-4.747-12.773-6.1-18.852-6.777v-5.421
			c14.594-8.133,28.582-18.294,41.354-31.847c14.594,4.741,25.543,23.037,26.758,40.659v11.518l72.979-53.534
			C2160.698,167.898,2172.252,177.387,2185.629,176.71L2185.629,176.71z"/>
		<path fill="#FFFFFF" d="M2379.629,176.71c4.867,0,8.516-2.713,12.77-4.064c-1.217,12.197-7.297,24.39-17.635,30.492
			c-1.219,31.174-1.219,65.048-0.609,96.9c0.609,8.127,4.26,16.26,11.555,20.328c4.26,2.03,9.732,2.709,15.814,2.709v5.421
			c-12.773,8.127-24.936,19.651-34.061,33.199c-12.158-3.386-25.539-10.162-31.012-24.39l-4.258-17.616V209.236
			c-8.516-2.034-15.203-10.84-19.461-18.3l-37.705,27.784v94.191c9.123,4.061,18.242,7.454,25.545,16.266
			c-14.6,7.445-28.584,20.325-40.748,35.233c-13.99-15.588-30.406-25.072-49.869-25.072c3.648-10.161,13.381-20.331,22.502-24.393
			v-94.87c0-6.775-2.432-12.874-6.689-18.294c-5.473-4.747-12.768-6.1-18.85-6.777v-5.421c14.594-8.133,28.58-18.294,41.35-31.847
			c14.594,4.741,25.547,23.037,26.76,40.659v11.518l73.584-53.534C2355.305,167.898,2366.25,177.387,2379.629,176.71
			L2379.629,176.71z"/>
		<path fill="#FFFFFF" d="M2749.991,180.096c-4.258,10.841-13.988,20.329-23.109,24.394v107.744
			c-0.609,18.296,15.809,28.458,13.379,47.437c-0.609,25.744-17.027,48.782-37.1,60.982c-23.715,15.583-60.203,18.301-86.963,6.776
			c-12.77-5.42-31.016-17.615-43.176-2.71l-1.824,2.033c1.215-18.3,7.9-39.304,25.539-47.432c10.34-3.39,23.109-2.716,31.627,5.421
			c15.809,13.548,26.148,43.366,49.863,37.268c9.125-2.034,18.854-8.81,23.109-18.977c8.518-21.004-3.648-39.304-13.984-54.885
			c-3.043-12.197-3.043-25.751-3.043-39.304l-73.584,54.211c-4.26-7.453-11.555-16.261-19.461-18.295
			c-9.121-2.034-17.639,0-24.934,2.709c-0.609-13.553,8.516-25.745,19.461-31.171l-0.609-96.898
			c-0.611-8.13-4.258-16.262-11.557-20.33c-4.863-2.034-10.336-2.708-15.203-2.708v-5.425c12.166-7.455,23.721-18.973,32.842-31.844
			c12.77,2.03,26.148,9.484,31.621,23.716l4.258,17.616l0.611,110.453c7.904,2.034,15.203,9.488,19.461,17.618l37.094-27.785
			v-94.188c-9.73-2.708-18.242-8.127-25.539-16.261c14.592-7.454,28.582-18.973,40.744-33.883
			C2713.502,170.611,2729.92,180.774,2749.991,180.096L2749.991,180.096z"/>
		<path fill="#FFFFFF" d="M2892.905,180.096l4.256,16.939l1.217,99.611c0,16.266,13.379,29.815,26.15,34.556
			c9.121,10.168,20.066-0.673,29.799-2.706V206.523c-9.732-2.708-18.244-8.127-25.541-16.261
			c14.594-7.454,28.582-18.973,40.744-33.883c13.986,14.231,30.404,24.395,50.477,23.716c-4.256,10.841-13.988,20.329-23.109,24.394
			v97.583c0.609,10.161,3.037,20.324,10.34,27.778c-40.139,0.679-77.236,10.168-108.252,34.561
			c-14.596-3.39-29.189-9.487-37.096-25.072c-6.084-14.908-7.297-31.847-6.084-49.464l-1.213-75.219
			c-1.219-7.454-3.65-14.231-9.732-17.621c-5.473-2.708-10.943-4.064-16.422-4.064v-4.742c12.164-7.454,23.721-18.973,32.84-31.849
			C2874.053,158.41,2887.43,165.191,2892.905,180.096L2892.905,180.096z"/>
		<path fill="#FFFFFF" d="M3356.309,176.71c4.258,0,7.908-2.713,12.164-4.064c-0.609,12.197-6.689,24.39-17.637,30.492
			c-1.215,31.174-0.605,65.048,0,96.9c0,8.127,3.648,16.26,10.947,20.328c4.865,2.03,10.338,2.709,15.811,2.709v5.421
			c-12.158,8.127-24.932,19.651-33.445,33.199c-12.773-3.386-26.152-10.162-31.625-24.39l-3.648-17.616l-0.605-110.453
			c-8.518-2.034-14.6-10.84-18.857-18.3l-37.703,27.784v94.191c8.518,4.061,17.637,7.454,25.543,16.266
			c-15.205,7.445-29.191,20.325-40.746,35.233c-13.986-15.588-31.014-25.072-50.475-25.072
			c4.254-10.161,13.379-20.331,23.109-24.393v-94.87c-0.609-6.775-2.434-12.874-6.691-18.294c-6.082-4.747-12.771-6.1-19.463-6.777
			v-5.421c14.6-8.133,29.193-18.294,41.963-31.847c14.598,4.741,25.545,23.037,26.76,40.659v11.518l72.979-53.534
			C3331.375,167.898,3342.932,177.387,3356.309,176.71L3356.309,176.71z"/>
		<path fill="#FFFFFF" d="M3462.129,180.096c-4.258,10.841-13.988,20.329-23.111,24.394v94.866
			c0.609,7.454,2.436,14.23,7.908,18.977c5.473,4.064,11.555,6.099,18.242,6.099v5.42c-15.814,8.134-29.799,20.331-43.178,33.204
			c-13.377-7.453-23.719-23.036-24.324-39.303l-1.219-117.229c-9.121-3.386-17.633-8.127-24.936-16.261
			c13.99-7.454,27.977-19.651,40.748-33.883C3426.25,170.611,3442.059,180.774,3462.129,180.096L3462.129,180.096z"/>
		<path fill="#FFFFFF" d="M3809.377,176.71c4.258,0,7.906-2.713,12.164-4.064c-0.609,12.197-6.686,24.39-17.027,30.492
			c-1.824,31.174-1.215,65.048-0.609,96.9c0,8.127,4.258,16.26,11.555,20.328c4.26,2.03,9.732,2.709,15.205,2.709v5.421
			c-12.162,8.127-24.936,19.651-33.447,33.199c-12.164-3.386-25.545-10.162-31.018-24.39l-4.258-17.616l-0.605-110.453
			c-7.904-2.034-14.598-10.84-18.85-18.3l-37.711,27.784v94.191c9.127,4.061,18.248,7.454,25.545,16.266
			c-14.596,7.445-29.191,20.325-40.748,35.233c-13.982-15.588-31.012-25.072-50.475-25.072
			c4.258-10.161,13.381-20.331,23.111-24.393v-94.87c-0.609-6.775-2.436-12.874-6.693-18.294c-5.473-4.747-12.768-6.1-18.85-6.777
			v-5.421c14.594-8.133,28.58-18.294,41.352-31.847c14.6,4.741,25.545,23.037,26.758,40.659v11.518l72.98-53.534
			C3784.448,167.898,3795.999,177.387,3809.377,176.71L3809.377,176.71z"/>
		<path fill="#FFFFFF" d="M639.721,333.236c-16.418-10.84-33.445-18.972-52.906-22.358V282.42l93.045-57.601
			c-21.895-18.969-35.275-44.045-45.002-68.439c-27.367,25.75-65.07,31.849-100.951,24.395c6.688,7.454,9.727,16.261,10.945,25.749
			l0.605,106.389c-9.727,4.061-19.457,15.584-23.717,25.745c34.666-3.386,63.25,11.524,91.832,25.754l55.947-42.015
			c-1.215-2.707-1.824-5.424-4.254-7.45C657.36,321.724,648.239,327.144,639.721,333.236z M587.42,188.229l14.598-4.064
			c9.73,19.651,19.461,39.977,31.621,58.953l-46.219,28.458V188.229z"/>
		<path fill="#FFFFFF" d="M1984.942,333.236c-16.424-10.84-34.057-18.972-52.908-22.358V282.42l92.441-57.601
			c-21.287-18.969-34.666-44.045-44.396-68.439c-27.369,25.75-65.684,31.849-101.562,24.395c6.688,7.454,9.727,16.261,10.945,25.749
			l1.215,106.389c-10.336,4.061-19.461,15.584-23.715,25.745c34.057-3.386,62.639,11.524,91.221,25.754l56.561-42.015
			c-1.219-2.707-2.434-5.424-4.258-7.45C2001.969,321.724,1993.458,327.144,1984.942,333.236z M1932.639,188.229l14.598-4.064
			c9.727,19.651,19.459,39.977,31.018,58.953l-45.615,28.458V188.229z"/>
		<path fill="#FFFFFF" d="M1157.862,317.655c-6.08-6.104-8.516-14.91-9.732-23.72v-90.798c10.947-6.103,17.029-18.295,20.074-30.492
			c-6.084,4.064-13.381,6.772-21.895,5.42c-9.125-2.713-16.42-13.553-22.502-21.686c-12.166,13.553-24.936,25.75-41.963,26.429
			c-13.988,2.034-21.895-14.91-26.758-26.429c-8.516,16.266-23.111,24.395-36.49,29.815c10.342,8.81,21.896,14.908,34.057,18.973
			c14.598,4.068,26.76-2.709,35.879-14.905c3.646,8.807,12.164,16.261,19.463,20.325v27.105c-4.863-2.707-10.336-4.741-15.816-6.099
			c-29.795-3.386-58.988,8.133-74.797,37.952c-10.949,18.969-11.555,50.143-1.219,69.792c9.73,16.263,24.936,22.356,40.748,25.072
			l51.693-39.98l4.863,14.227c5.473,12.876,17.637,23.038,31.016,23.038l34.666-34.552
			C1171.241,325.786,1163.944,323.752,1157.862,317.655z M1107.995,316.298c-7.908,6.099-16.42,14.231-25.541,7.454
			c-14.598-4.744-31.016-16.942-34.061-35.236c-2.428-14.231,0-28.459,9.732-38.621c12.166-13.553,35.273-15.583,49.869-4.068
			V316.298z"/>
		<path fill="#FFFFFF" d="M3164.747,317.655c-6.693-6.104-9.123-14.91-9.732-23.72v-90.798
			c10.342-6.103,17.027-18.295,20.068-30.492c-6.688,4.064-13.986,6.772-21.893,5.42c-9.73-2.713-17.027-13.553-22.5-21.686
			c-12.164,13.553-25.545,25.75-41.963,26.429c-13.988,2.034-21.896-14.91-26.758-26.429c-8.516,16.266-23.111,24.395-36.488,29.815
			c10.338,8.81,21.895,14.908,34.055,18.973c14.594,4.068,26.758-2.709,35.879-14.905c3.65,8.807,11.557,16.261,19.463,20.325
			v27.105c-4.863-2.707-10.336-4.741-15.812-6.099c-29.799-3.386-58.99,8.133-74.801,37.952
			c-10.949,18.969-11.555,50.143-1.219,69.792c9.127,16.263,24.936,22.356,40.748,25.072l51.693-39.98l4.863,14.227
			c5.473,12.876,17.637,23.038,31.016,23.038l34.666-34.552C3178.125,325.786,3170.219,323.752,3164.747,317.655z M3114.877,316.298
			c-8.514,6.099-16.418,14.231-25.545,7.454c-14.594-4.744-31.621-16.942-34.055-35.236c-2.43-14.231,0-28.459,9.73-38.621
			c12.166-13.553,35.273-15.583,49.869-4.068V316.298z"/>
		<path fill="#FFFFFF" d="M3617.813,317.655c-6.082-6.104-8.516-14.91-9.73-23.72v-90.798c10.945-6.103,17.029-18.295,20.07-30.492
			c-6.082,4.064-13.377,6.772-21.895,5.42c-9.121-2.713-16.418-13.553-22.5-21.686c-12.166,13.553-24.934,25.75-41.963,26.429
			c-13.988,2.034-21.895-14.91-26.758-26.429c-8.516,16.266-23.109,24.395-36.49,29.815c10.34,8.81,21.895,14.908,34.057,18.973
			c14.598,4.068,26.758-2.709,35.879-14.905c3.652,8.807,12.164,16.261,19.463,20.325v27.105
			c-4.865-2.707-10.338-4.741-15.811-6.099c-31.018-4.064-61.424,9.488-76.021,41.338c-10.336,18.294-9.727,48.108,0,66.406
			c9.732,16.263,24.936,22.356,40.746,25.072l51.693-39.98l4.865,14.227c5.473,12.876,17.637,23.038,31.016,23.038l34.664-34.552
			C3631.194,325.786,3623.897,323.752,3617.813,317.655z M3567.946,316.298c-7.908,6.099-16.42,14.231-25.539,7.454
			c-14.6-4.744-31.02-16.942-33.451-35.236c-3.041-14.231-0.609-28.459,9.121-38.621c12.164-13.553,35.275-15.583,49.869-4.068
			V316.298z"/>
		<path fill="#FFFFFF" d="M2560.247,240.406l-54.121-0.679c20.066-22.358,38.916-45.4,48.648-72.502
			c3.043-3.39-0.607-6.103-3.039-7.454c-3.041,6.093-7.297,12.874-13.379,14.904c-16.422,4.068-29.191-6.777-40.137-18.296
			c-24.936,22.364-57.166,33.883-91.221,26.429c4.861,6.098,7.295,13.553,8.51,21.007c-0.605,23.715,5.473,52.178-8.51,69.794
			l49.867,0.675c-23.719,23.041-48.045,49.468-62.643,78.604c-4.254,4.747,3.043,4.747,4.867,6.781
			c3.648-6.103,10.336-14.231,17.027-16.944c20.066-5.42,35.27,10.163,51.086,21.686c24.932-25.072,58.988-33.882,93.043-25.072
			c-4.252-7.454-7.906-15.587-8.512-25.074C2552.95,289.875,2545.042,259.376,2560.247,240.406z M2453.213,253.28v-65.052
			l10.949-2.033c10.336,12.874,23.109,22.362,39.529,18.973c13.379-2.709,24.936-11.519,35.271-21.687
			c-15.205,25.076-35.883,48.113-57.166,69.12C2472.676,253.959,2462.944,253.28,2453.213,253.28z M2511.598,331.202l-9.123,3.396
			c-6.691-13.558-19.461-24.399-32.84-26.434c-18.852-2.033-32.84,8.133-48.045,14.91c19.463-23.037,42.572-45.401,66.287-63.019
			h23.721V331.202z"/>
	</g>
</g>
</svg>
