<?xml version="1.0" encoding="utf-8"?>
<!-- Generator: Adobe Illustrator 16.0.4, SVG Export Plug-In . SVG Version: 6.00 Build 0)  -->
<!DOCTYPE svg PUBLIC "-//W3C//DTD SVG 1.1//EN" "http://www.w3.org/Graphics/SVG/1.1/DTD/svg11.dtd">
<svg version="1.1" id="Layer_1" xmlns="http://www.w3.org/2000/svg" xmlns:xlink="http://www.w3.org/1999/xlink" x="0px" y="0px"
	 width="927px" height="1780.521px" viewBox="0 0 927 1780.521" enable-background="new 0 0 927 1780.521" xml:space="preserve">
<g id="Layer_2" display="none">
	<rect x="-139.9" y="-97.6" display="inline" fill="#77BFDE" width="1082.9" height="478.5"/>
	
		<image display="inline" overflow="visible" enable-background="new    " width="396" height="290" xlink:href="D2ECBE7011E5C703.png"  transform="matrix(1 0 0 1 -639 -29.5996)">
	</image>
</g>
<g>
	<path fill="#E0975C" d="M500.747-19.391l-33-0.1l-1,1332.8l0.1,0.701c0.2,18.799,0,67.398-24.399,89.799
		c-12.2,11.201-29,14.701-51.4,10.801c-33.6-5.9-47.9-32.6-50.1-55.701c-3-31.6,14-49.699,29.5-55.5l-11.7-30.898
		c-34.2,13-54.5,48.898-50.6,89.5c1.9,19.898,9.7,38.898,22,53.6c13.9,16.699,33,27.5,55.4,31.4c32.7,5.699,59.5-0.701,79.5-19.102
		c17.8-16.398,30.601-41.1,33.5-74c1.7-19.6,1.8-38.199,1.5-42.1L500.747-19.391z"/>
</g>
<g opacity="0.43">
	<g>
		<g>
			<path fill="#AF7647" d="M489.347-8.291c0,0,1.801,914.1,3.7,1114.301c0.5,50,0.9,100.1,1.4,147c0.2,23.5,0.399,46.1,0.6,67.699
				c0.2,10.699-0.5,21.1-1.7,31.1c-1.3,10-3.199,19.6-5.899,28.5c-2.601,9-6,17.301-10.101,24.801c-4.1,7.5-8.899,14-14.3,19.4
				c-5.399,5.299-11.3,9.5-17.2,12.398c-2.899,1.5-5.899,2.602-8.699,3.602c-1.4,0.398-2.801,0.898-4.2,1.199
				c-1.4,0.301-2.8,0.699-4.101,0.9c-5.399,1-10.199,1.5-14.5,1.5c-1.1,0.1-2.1,0-3.1,0s-1.9,0-2.8-0.1
				c-1.8-0.102-3.4-0.201-4.9-0.301c-1.5-0.199-2.7-0.301-3.899-0.4c-1.101-0.199-2-0.299-2.8-0.4c-1.5-0.199-2.3-0.299-2.3-0.299
				s0.8,0.1,2.3,0.4c0.7,0.1,1.7,0.299,2.8,0.398c1.1,0.102,2.399,0.301,3.899,0.5c1.5,0.201,3.101,0.201,4.9,0.4
				c0.899,0.1,1.8,0.1,2.8,0.1s2,0.102,3.1,0c4.301,0,9.2-0.398,14.601-1.299c1.399-0.201,2.7-0.6,4.1-0.9
				c1.4-0.301,2.8-0.801,4.3-1.199c2.9-1,5.9-2,8.801-3.5c6-2.9,12-7,17.5-12.301c5.5-5.4,10.399-11.9,14.6-19.4s7.7-15.9,10.4-24.9
				c2.8-9,4.8-18.6,6.199-28.699c1.4-10.1,2.2-20.5,2.101-31.4c0-21.5-0.101-44.199-0.101-67.6c0-46.9-0.1-97-0.1-147
				c-0.2-200.2-0.4-1114.3-0.4-1114.3L489.347-8.291z"/>
		</g>
	</g>
</g>
</svg>
