<?xml version="1.0" encoding="utf-8"?>
<!-- Generator: Adobe Illustrator 21.0.0, SVG Export Plug-In . SVG Version: 6.00 Build 0)  -->
<svg version="1.1" id="Layer_1" xmlns="http://www.w3.org/2000/svg" xmlns:xlink="http://www.w3.org/1999/xlink" x="0px" y="0px"
	 viewBox="0 0 54 40.7" style="enable-background:new 0 0 54 40.7;" xml:space="preserve">
<style type="text/css">
	.st0{fill-rule:evenodd;clip-rule:evenodd;fill:#808184;}
	.st1{fill-rule:evenodd;clip-rule:evenodd;fill:#131933;}
	.st2{fill-rule:evenodd;clip-rule:evenodd;fill:#FFFFFF;}
	.st3{fill-rule:evenodd;clip-rule:evenodd;fill:#808283;}
</style>
<g>
	<path class="st0" d="M45.4,11.2c0.1,0.6,0.5,1,0.9,1.3c2.8,2.2,4.1,4.9,3.5,8.5c0,0.2,0,0.4,0,0.7c1.2,0,2.5,0,3.8,0
		c-0.5,1.9-1.3,3.5-1.9,5.3c1.5,0.8,2.6,2.1,2.3,3.8c-0.3,1.6-0.3,3.2-1.3,4.6c-0.2,0.2-0.2,0.5-0.2,0.7c-0.3,1-0.8,1.9-1.6,2.5
		c-0.2,0.1-0.4,0.2-0.5,0.3c-1.2,1.8-3.1,1.8-5,1.8c-13.7,0-27.3,0-41,0c-0.7,0-1.5-0.1-2.2-0.1c-1.3-0.1-1.8-1.3-1.3-2.7
		c0.7-1.7,1.4-3.3,2.1-5c0.1-0.2,0.3-0.4,0.2-0.9c-1,0-2,0-3.2,0c0.4-1,0.8-1.8,1.1-2.5c1.5-3.3,1.5-3.3,0.8-7.2
		c0-0.1,0-0.3-0.1-0.4c0.4-0.3,0.9,0,1.4-0.2c-0.1-0.7-0.4-1.5-0.3-2.2c-2-1.4-2-1.4-1.8-2.5c1.3,0.1,2-1,2.7-1.8
		c1.7-1.9,2.7-4.2,4.5-6c0.4-0.4,0.3-1,0.5-1.5c0-0.3-0.4-0.1-0.5-0.4c0.6-2.2,2.2-3.6,4.4-4.5C14.9,2,17,2.1,19.1,2.7
		c0.4-0.9,0.4-1.7,1-2.4c1.5,0.1,3,0.4,4.3,1.2c1,0.7,2.1,0.7,3.1,0.6C29,2,30.6,2,32.3,2.1c1.6-1.3,3.3-2.3,5.6-2.1
		c0.6,1.4,0.8,2.9,1,4.4c1.5,0.7,3,1.5,4.3,2.6c1.3,1.2,2.2,2.5,3.1,4C46,11.3,45.7,11.1,45.4,11.2c0-0.1,0-0.1-0.1-0.1
		C45.3,11.1,45.3,11.2,45.4,11.2z M44.1,9.7c0.1,0.1,0.2,0.1,0.3,0c0-0.1-0.1-0.1-0.1-0.2c-1.5-2.3-3.6-3.9-6.3-4.6
		c0.1-1.5-0.1-2.9-0.7-4.2c-1.9,0.1-3.4,1.1-4.8,2.3c-2.4-0.3-4.8-0.2-7.2,0.2c-1.5-1.1-3.1-1.9-4.9-2c-0.4,0.7-0.3,1.4-0.6,2
		c-0.7,0.3-1.3,0.3-2,0.1c-2.4-0.6-4.6-0.1-6.6,1.3C10.6,4.9,10,5.5,9.8,6.2c0.3,0,0.5-0.3,0.8-0.1c-0.8,1-1.1,2.2-1.3,3.4
		c-1,0.8-1.7,1.8-2.2,3c-0.1,0.2-0.2,0.5-0.3,0.6c-1.1,0.8-1.8,1.9-2.5,3c-0.5,0.8-1.1,1.5-2,1.8c0.5,0.7,1.2,0.7,1.9,0.9
		c-0.3,1.4-0.1,2.6,0.8,3.7c-0.7,0.1-1.4-0.1-2,0.1c0,0.2,0,0.3,0,0.4c0.8,2.3,0.2,4.3-0.9,6.3c-0.1,0.2-0.2,0.5-0.3,0.8
		c-0.1,0.4-0.4,0.7-0.3,1.2c1,0,2,0,3.2,0c-0.7,1.7-1.4,3.2-2.1,4.9c13.8,0,27.4,0,41,0c0,0.2,0,0.3,0,0.4c0,1.6,0.6,2.5,1.9,3
		c2,0.7,3,0.2,4.2-0.9c1.1-1,2.2-2,2.4-3.5c0,0,0,0,0.1-0.1c0.9-1.4,1-3,1.1-4.6c0.1-1.6-0.9-2.6-2.6-2.9c0.7-1.7,1.3-3.4,2-5.1
		c-1.4,0-2.6,0-3.9,0c0.1-0.3,0.1-0.5,0.2-0.7c0.7-3.1,0-5.9-2.4-8c-1.4-1.2-1.9-2.8-3.1-4.2C43.7,9.6,43.9,9.6,44.1,9.7z M8.6,39.3
		c0.3-0.3,0.2-0.6,0.5-0.8c0.3,0.2,0.4,0.6,0.8,0.8c0.3,0,0.6,0.1,0.9-0.1c0.3-0.6,0.6-1.2,0.7-1.9c-0.3-0.1-0.6-0.1-0.9,0
		c-0.1,0.2-0.3,0.5-0.4,0.7c-0.2-0.3-0.4-0.5-0.6-0.8c-0.5,0-1-0.1-1.6,0.1c0.4,0.7-0.3,1.2-0.3,1.9C8,39.4,8.4,39.4,8.6,39.3z
		 M27.2,37.4c-1.1-0.3-2.2-0.2-3.5,0c0.7,0.8-0.2,1.3-0.1,1.9c0.4,0.1,0.7,0.1,1,0c0.3-0.2,0.2-0.6,0.5-0.7c0.2,0.3,0.4,0.5,0.5,0.7
		c0.4,0,0.8,0.1,1.1,0c0.1-0.3-0.4-0.4-0.3-0.8C26.8,38.3,27.3,38.1,27.2,37.4z M4.6,38.9c0-0.6,0.5-1,0.4-1.6c-0.5,0-1-0.1-1.6,0.1
		c0.6,0.6-0.2,1.1-0.1,1.6c1.6,1.1,3.3,0.3,3.6-1.7c-0.4-0.1-0.7-0.1-1,0C5.3,37.8,5.6,38.8,4.6,38.9z M21,38.7
		c0.4-0.5,1.1,0.1,1.3-0.6c-0.3-0.3-0.7,0-0.9-0.3c0.4-0.3,1,0.1,1.3-0.5c-1-0.2-2.3-0.2-2.9,0.1c0.7,0.7-0.3,1.1-0.1,1.9
		c0.8,0,1.7,0.1,2.8-0.2C21.9,38.7,21.4,39.1,21,38.7z M17.9,37.3c-0.2,0.3-0.5,0.6-0.8,0.9c-0.2-0.3,0-0.7-0.3-0.9
		c-0.4,0.1-0.9-0.2-1.3,0.2c0.7,0.5,0.3,1.3,0.7,1.8c0.3,0,0.7,0,1.1,0c0.5-0.7,1.3-1.2,1.8-2C18.6,37.2,18.3,37.3,17.9,37.3z
		 M29.6,38.8c-0.5,0.1-1.1,0.2-1.6,0.3c0,0.1,0,0.2,0,0.2c1.9,0.2,2.8,0.2,2.7-0.9c-0.2-0.3-0.7-0.1-0.9-0.5
		c0.3-0.3,0.9,0.1,1.2-0.4c-1.8-0.3-2.3-0.2-2.5,0.8C28.8,38.6,29.4,38.4,29.6,38.8z M41.5,37.3c-0.4,0.2-0.5,0.5-0.8,0.6
		c-0.2-0.2-0.2-0.5-0.5-0.6c-0.3,0.1-0.8-0.2-1.2,0.3c0.4,0.2,0.7,0.5,0.8,1c-0.1,0.2-0.1,0.4-0.2,0.8c0.4,0,0.8,0,1.2,0
		c0.2-0.9,1.1-1.2,1.6-1.9C42.1,37.2,41.8,37.3,41.5,37.3z M35.2,37.4c0,0.5,0.5,0.3,0.6,0.6c0,0.5-0.5,0.9-0.4,1.4
		c0.4,0,0.7,0,1.1,0c0.2-0.5,0.4-1,0.6-1.4c0.3-0.2,0.8,0.1,0.9-0.5C37.1,37.4,36.1,37.4,35.2,37.4z M13.6,39.3
		c0.2-0.6,0.6-1.2,0.7-2c-0.6,0-1.1-0.1-1.7,0.1c0.6,0.7-0.3,1.2-0.2,1.9C12.8,39.4,13.2,39.4,13.6,39.3z M32.3,37.4
		c0.5,0.8-0.3,1.3-0.2,1.9c0.4,0.1,0.7,0.1,1.2,0c0.1-0.7,0.6-1.2,0.7-2C33.4,37.3,32.9,37.2,32.3,37.4z"/>
	<path class="st1" d="M44.1,9.7c-0.2,0-0.4-0.1-0.8-0.2c1.1,1.5,1.7,3.1,3.1,4.2c2.4,2.1,3.1,4.9,2.4,8c0,0.2-0.1,0.4-0.2,0.7
		c1.3,0,2.5,0,3.9,0c-0.7,1.8-1.3,3.4-2,5.1c1.7,0.3,2.7,1.3,2.6,2.9C53.1,32,53,33.7,52.1,35c0,0,0,0-0.1,0.1
		c-0.3,1.6-1.3,2.5-2.4,3.5c-1.2,1.2-2.2,1.6-4.2,0.9c-1.3-0.4-1.9-1.4-1.9-3c0-0.1,0-0.2,0-0.4c-13.6,0-27.2,0-41,0
		c0.7-1.7,1.4-3.3,2.1-4.9c-1.1,0-2.2,0-3.2,0c-0.1-0.5,0.2-0.8,0.3-1.2c0.1-0.3,0.2-0.5,0.3-0.8c1.1-2,1.7-4.1,0.9-6.3
		c0-0.1,0-0.2,0-0.4c0.6-0.2,1.3,0,2-0.1c-0.9-1.1-1.1-2.3-0.8-3.7c-0.7-0.2-1.4-0.2-1.9-0.9c0.9-0.3,1.5-1.1,2-1.8
		c0.7-1.1,1.4-2.2,2.5-3c0.2-0.1,0.2-0.4,0.3-0.6c0.5-1.1,1.2-2.2,2.2-3c0.2-1.2,0.6-2.4,1.3-3.4C10.3,6,10.1,6.3,9.8,6.2
		c0.3-0.8,0.8-1.3,1.4-1.7c2-1.4,4.2-1.9,6.6-1.3c0.7,0.2,1.3,0.2,2-0.1c0.2-0.6,0.2-1.3,0.6-2c1.8,0.1,3.4,0.9,4.9,2
		c2.4-0.4,4.8-0.5,7.2-0.2c1.4-1.2,2.9-2.2,4.8-2.3C37.9,2,38.1,3.4,38,4.9c2.7,0.8,4.8,2.3,6.3,4.6C44.3,9.6,44.2,9.6,44.1,9.7z
		 M17.7,21.9C17.8,21.9,17.8,21.9,17.7,21.9C17.8,21.9,17.8,21.9,17.7,21.9C17.7,21.9,17.7,22,17.7,21.9
		C17.7,21.9,17.7,21.9,17.7,21.9z M18.6,14.8C18.6,14.8,18.6,14.8,18.6,14.8C18.6,14.8,18.6,14.8,18.6,14.8c0,0.1,0,0.3,0.2,0.3
		c0.1,0.3,0.2,0.6,0.4,0.9c0.4,1.1,0.7,2.1,0.1,3.3c0,0.1-0.1,0.1-0.2,0.2c-0.3,0-0.5,0.1-0.6,0.3c-0.1,0.5-0.3,1-0.4,1.5
		c-0.1,0-0.1,0.1,0,0.2c0,0,0.1-0.1,0.1-0.1c0.6-0.5,0.8-1.2,1-1.9c0.1,0,0.1-0.1,0.2-0.1c0.4-0.1,0.6-0.4,0.8-0.7
		c0.3-0.9-0.4-2.9-1.3-3.5C18.8,15,18.7,14.9,18.6,14.8z M29.4,24.4c-0.1,0.1-0.1,0.2-0.2,0.3C29,25,29,25.3,28.9,25.7
		c-0.2,0.2-0.3,0.6-0.3,0.9c-0.2,0.2-0.3,0.6-0.3,0.9c-0.2,0.2-0.3,0.6-0.3,0.9c-0.4,0.5-0.4,1.1-0.2,1.8c1.4,0.6,2.8,0.1,4.2,0.3
		c0.4-0.9,0.8-1.7,1-2.5c-0.5,0-0.7,0.3-0.9,0.6c-0.1,0.1-0.2,0.1-0.3,0.2c-0.5,0.1-1,0.2-1.6-0.1c0.2-1.2,0.8-2.3,1.3-3.5
		c0.3,0,0.6,0,0.8,0c0.3,0,0.5-0.1,0.8,0.1c0.2,0.2,0.4,0.5,0.5,0.8c0.3-0.2,0.3-0.5,0.3-0.7c0.3-0.6,0.6-1.2,0.7-1.9
		c-1.3,0-2.5,0-3.6,0c-0.4,0-0.7,0.1-1,0.4c-0.1,0.1-0.1,0.1-0.2,0.2C29.6,24,29.5,24.2,29.4,24.4z M30.3,20.2L30.3,20.2
		c-0.7,0.4-1.5,0.2-2,0.2c-0.4-0.1-0.4-0.5-0.8-0.5c-0.1,0.6,0.1,1,0.6,1.1c0.7,0.1,1.3,0.2,2,0c0.4-0.1,0.5-0.4,0.5-0.7
		c0-0.1,0.1-0.3-0.1-0.3C30.4,19.9,30.3,20,30.3,20.2z M31.1,14.3c0.2-0.1,0.3-0.3,0.3-0.5c-0.2-0.4-0.5,0-0.8-0.1
		c0.1-0.4-0.3-0.4-0.4-0.6c0.3-0.5,0.2-1,0.2-1.5c0.2-0.3,0.5-0.7,0.7-1c1.1-0.3,1.9-1,2.7-1.5c0.2,0.1,0.4,0.2,0.6,0.3
		c0.4-0.6,0.2-1.3,0.3-2c0.5,0.1,0.5,0.6,1,0.8c-0.2-1-0.6-1.8-1.4-2.4c0.4-0.2,0.8-0.3,1-0.8C35.2,5,35.1,4.9,35,4.9
		c-0.2-0.3,0.3-0.4,0-0.7c-0.1,0-0.2,0-0.3,0c0-0.6,0.5-0.8,0.8-1.2c0,0,0.1,0,0.1-0.1c0.1,0,0.1-0.1,0.2-0.1c0.2,0,0.3-0.3,0.6-0.2
		c0.2,1.3-0.1,2.5-0.6,3.7C35.9,6.6,36,6.9,36.3,7c0.4-0.4,0.1-1.1,0.4-1.5c1-1.4,0.4-2.7,0.1-4.2c-1.8,0.7-3.3,1.8-4.3,3.3
		C32.7,5,32.9,5,33.1,5c0.1,0.1,0.2,0.3,0.4,0.5c-0.8-0.1-1.5-0.2-2.2,0c-0.5-0.6,0.2-0.8,0.3-1.2c0.1-0.2,0.4-0.3,0.2-0.8
		c-1.9-0.2-3.8,0.2-5.7,0.1c0,0.5,0.2,0.6,0.4,0.7C26.6,4.7,27,4.8,27,5.2c-0.1,0-0.2,0.1-0.3,0.1c-0.5,0-1,0-1.6,0
		c0.1-0.2,0.4-0.3,0.3-0.6C24.3,3.2,22.9,2.2,21,2c-0.7,2.2-0.3,4.1,0.8,6c0.2-0.4,0.4-0.6,0.4-1c-0.9-1.3-1.1-2.8-0.7-4.4
		c0.2,0.1,0.4,0.2,0.5,0.3c0.1,0,0.1,0,0.2,0l0,0c0.5,0.6,1,1.1,1.4,1.7c-0.2,0.3-0.5-0.1-0.7,0.1c0,0.2,0.2,0.6-0.3,0.7
		C22.9,5.6,23,5.9,23.3,6c0.2-0.1,0.4-0.2,0.6-0.4c0.3,0.2,0,0.3-0.1,0.5c-0.5,0.5-0.9,1-1,1.7c-0.1,0.1-0.1,0.2,0,0.3
		c0.1-0.1,0.1-0.2,0.2-0.3C23.4,7.4,23.5,7,24,6.9l0,0c-0.2,1-0.6,2.1,0.2,3.1c0.2-0.2,0.4-0.3,0.5-0.5c0.9,0.5,1.9,1,2.9,1
		c0.3,0.4,0.6,0.8,0.8,1.1c0,0.6,0,1.1,0,1.6c-0.9-0.2-0.5-1.4-1.4-1.5c-0.3,0.1-0.6,0.2-0.9,0.3c-0.3-0.1-0.6-0.2-0.9-0.3
		c-0.5,0.5-1.1,0.4-1.7,0.6c-0.2-0.4,0.2-0.6,0-1c-0.2-0.2-0.4-0.4-0.7-0.6c-0.1,0.5-0.2,1-0.3,1.6c-1.3-1.1-0.2-3.1-1.8-4
		c-0.4,0.5-1,0-1.5,0c0.2,1.1,0.9,1.9,1.4,2.9c-0.8-0.3-1.1-1-1.8-1.3c0.1,3,1.2,5.3,4,6.7c-0.6,0.5-1.3,0.9-1.4,1.9
		c1.1-0.7,2.2-0.6,3.3-0.6c0-0.4-0.6-0.2-0.6-0.6c0.6-0.2,1.1,0.1,1.6,0.3c0.4,0.8,0.6,1.6,0.8,2.4c0.5,1.8,1.2,2.3,3.1,2.2
		c1.1-0.1,1.8-0.7,2.2-1.7c0.3-0.9,0.4-1.9,1-2.7c0.1-0.1,0.1-0.1,0.2-0.2c0.5-0.3,0.9-0.6,1.4-0.7c-0.2,0.3-0.3,0.5-0.5,0.8
		c1.1-0.2,2.2-0.3,3.2,0c0.1-0.3-0.1-0.4-0.2-0.5c-0.3-0.3-0.6-0.5-0.9-0.8c2.8-1.6,4.1-3.9,3.7-6.6c-0.5,0.1-0.9,0.5-1.5,0.3
		c0.5-0.7,1.1-1.2,1.2-2.1C38.6,8,38.1,8.2,37.6,8C37,7.8,37,8.4,36.7,8.6c0.3,1.5-0.1,2.7-0.9,3.9c-0.1-0.6,0-1.3-0.4-1.8
		c-0.3,0.2-0.5,0.5-0.6,0.7c0,0.4,0.4,0.5,0.2,0.9c-1-0.4-2.1-0.4-3.1-0.5c-0.5,0.2-0.7,0.7-0.9,1.1c-0.1,0-0.2,0-0.2,0.2
		c0.1,0.1,0.2,0,0.3-0.1c0.4-0.5,1.1,0.3,1.5-0.2c1.6-0.1,2.2,0.5,1.9,1.9c-0.1,0.2-0.2,0.4-0.1,0.6l0,0c-0.7,0.3-1.3,0.8-2.1,0.7
		c-0.1-0.4,0.4-0.4,0.6-0.6c-0.1-0.1-0.2-0.2-0.5-0.3c0.6-0.1,0.6-0.4,0.3-0.7c0.2-0.3,0.8-0.4,0.7-0.9c-1.3-0.2-1.9,0.6-1.8,2.3
		c-1.1,0.6-1.1,0.6-1.4,1.2c0.4,0.2,0.7,0.5,1.2,0.3c0.2,0,0.4,0,0.5-0.2l0,0c1.1-1.1,2.7-0.9,4-1.3c-0.6,0.4-1.3,0.7-2,0.9
		c-0.6,0.1-0.9,0.4-1.2,0.9c-0.1,0.1-0.1,0.1-0.2,0.2c-0.8,0.3-0.8,1-1,1.6c-0.3,1.1-0.6,2.1-1.9,2.3c-2.3-0.1-2.4-0.2-2.9-2.4
		c0-0.2-0.1-0.4-0.1-0.6c-0.1-0.5-0.4-0.9-0.9-1.1c-0.1-0.5-0.5-0.6-0.9-0.7c-0.9-0.2-1.7-0.5-2.4-1.1c0.6,0.1,1.2,0.4,1.8,0.5
		c0.6,0.2,1.3,0.2,2,0.3c0.7,0.9,1.6,1.1,2.4,0.4c-0.1-0.8-0.9-0.8-1.4-1.2c-0.2-1.9-0.5-2.6-1.7-2.2c0,0.4,0.4,0.5,0.5,0.8
		c-0.2,0.1-0.3,0.1-0.5,0.2c0.2,0.2,0.4,0.3,0.6,0.5c0,0.3-0.3,0.2-0.3,0.3c0.1,0.3,0.5,0.2,0.5,0.6c-0.5,0.2-0.9-0.1-1.3-0.3
		c-0.6-0.6-1-1.3-0.6-2.2c0.4-0.7,1-0.9,1.8-0.8c0.3,0.5,0.7-0.1,1.1,0.2c0.3,0.2,0.7,0.4,0.8,1l0,0c-0.1,0-0.2,0-0.3,0
		c0,0-0.1,0-0.1-0.1c0,0.1,0,0.1,0,0.1c0,1.2,1,1.3,1.8,1.5C30,15.2,30.8,15.2,31.1,14.3L31.1,14.3z M47,32.1L47,32.1
		c0.4,0.9,1.1,1.2,2,1.2c0.4,0,0.9-0.1,0.8-0.7c0-0.4-0.2-0.6-0.6-0.8c-0.4,0.3-0.9,0.2-1.3,0.1c-0.4-0.1-0.9-0.4-1.3-0.6
		c0,0.3,0.1,0.4,0.2,0.6C46.8,32,46.8,32.1,47,32.1z M27.7,18.3c-0.2-0.1-0.4-0.2-0.6,0c0,0.4,0.2,0.7,0.6,1c0-0.2,0-0.4,0-0.5
		c0.9-0.7,1.9-0.5,2.8-0.4c0.1,0.2,0.2,0.4,0.3,0.5c0.4-0.1,0.4-0.1,0.5-0.7c-0.1-0.1-0.3-0.1-0.5-0.1c-0.5-0.3-1-0.4-1.5-0.8
		C29,18,28.3,18.1,27.7,18.3z M13.4,17.5L13.4,17.5c-1.1,0.2-1.5,1.2-0.9,2.1c0.5,0.8,1.1,1.5,1.4,2.3c0.2-0.1,0.2-0.2,0.2-0.3
		c0.1-0.3,0.3-0.6,0.3-0.9c0.1-1.1,0.3-2.3-0.8-3.1C13.6,17.5,13.5,17.4,13.4,17.5z M16.9,21L16.9,21c0.8-1,0.8-2.1,0.4-3.2
		c-0.1-0.4-0.4-0.8-0.9-0.7c-1,0.4-1.1,0.7-1,2c0.7,0.6,1,1.4,1.3,2.2C16.9,21.3,16.9,21.2,16.9,21z M44.4,37.1
		C44.3,37,44.2,36.9,44,37c0.1,0.1,0.1,0.2,0.2,0.2c0.7,1.3,1.6,1.8,2.6,1.1c0.1-0.5-0.1-0.7-0.6-0.9C45.5,38,45,37.4,44.4,37.1z
		 M51.6,33.3c-0.6,0.5-1.4,0-2,0.7c0.4,0.6,0.2,1.2-0.1,1.7c-0.3,0.1-0.5,0.2-0.9,0.3c0.4,0.6,0.1,1.2,0.1,1.8c1-0.3,1.6-1,2-1.8
		c-0.4-0.2-0.9,0.4-1.2-0.3C50.8,35.4,51.6,34.5,51.6,33.3c0,0,0.1,0,0.2-0.1C51.7,33.3,51.6,33.3,51.6,33.3z M8.6,17.1
		c0,0.2,0,0.5,0.3,0.6c0.6-0.6,1.5-0.4,2.2-0.5c0.2-0.4,0-0.8,0-1.1c0.3,0,0.4,0.2,0.7,0.4c0.2,0.2,0.3,0.4,0.6,0.5
		c0.5-0.3,1.1-0.4,1.6-0.6c-0.1-0.4-0.1-0.8-0.2-1.1c0.5,0.1,0.7,0.6,1,0.9c0.1,0.2,0.2,0.4,0.4,0.3c0.9-0.4,1.8-0.1,2.6,0.2
		c0.3-1.3-1.6-2.6-3.4-2.4c-0.4,0-0.8,0.1-1.2,0.3c-0.5,0.1-0.9-0.3-1.4-0.1c-0.5-0.1-0.9,0.3-1.2,0.7c-0.2,0-0.3,0-0.5,0
		c-0.4-0.3-0.8,0-1.2,0c0.4-0.5,2.8-1.6,3.4-1.5c0.1,0,0.1,0,0.2,0c0.5,0.2,0.9,0,1.4-0.3c-0.5-0.4-1.1-0.5-1.6-0.8
		c1.3-0.6,2.5,0.3,3.7-0.1c1.1-1.4,0.1-2.4-0.8-3.5c0.9,0.1,1.6,0.5,2.4,0.9c-0.6-1.3-1.7-1.5-2.8-2.1c0.7-0.3,0.9-0.8,1.1-1.3
		c0.2-0.5,0-1.1,0.2-1.6c0.7-0.3,1.3-0.2,1.9,0c-0.2,0.3-0.4,0.6-0.5,0.8c-0.1,0.1-0.3,0.1-0.2,0.3c0.1-0.1,0.2-0.2,0.3-0.2
		c0.8-0.3,1.6-0.7,2.3-1c0.1-0.3,0.1-0.5-0.1-0.8c-0.8,0.5-1.6,0.3-2.5,0c-0.5-0.2-1.1-0.3-1.7-0.1c-1.1,0.1-2.1,0.4-3.1,1
		c0.3,0.1,0.4,0.1,0.7,0.2c-1.4,0.9-2.3,2-2.6,3.7c0.6-0.1,1.1-0.2,1.7-0.2c0.3,0.2,0.8-0.2,1,0.3c-2.3,0.3-4.4,1.7-4.7,3.4
		c0.6,0,1.2-0.1,1.8-0.1c0.1,0,0.3,0.1,0.4,0.1c0,0.1,0,0.1-0.1,0.2c-2.9,0.5-4.7,2.5-6.1,4.9c0.5,0.2,0.8-0.4,1.3-0.3
		c-0.1,0.4-0.4,0.7-0.4,1.1l0,0c-0.2,0.1-0.2,0.2-0.2,0.4c-0.2,0.3-0.2,0.5,0,0.8c0.7-0.6,0.8-0.6,2.2-0.8c0.4-0.5,0.2-1.4,1.1-1.6
		C8.5,16.9,8.5,17,8.6,17.1z M10.6,22.3C10.6,22.3,10.6,22.3,10.6,22.3c0,0.1,0,0.1,0,0.2c0.1,0.1,0.2,0.2,0.3,0.1
		c0-0.5-0.1-1-0.1-1.4c0-0.5,0.2-1,0.3-1.5c-0.3-0.5-0.3-1.3-1.2-1.1c-0.9,0.1-1.1,0.6-1,1.4C9.1,20.8,9.7,21.7,10.6,22.3L10.6,22.3
		z M7,19.5c-0.8,0-1.2,0.3-1.1,1.1c0.2,1.2,0.7,2.2,1.9,2.7c0,0.1,0.1,0.1,0.2,0c0,0-0.1-0.1-0.1-0.1c0-0.1,0-0.1,0-0.2
		c-0.1-0.6-0.1-1.2,0.1-1.9C8.3,20.5,7.9,19.8,7,19.5z M45.2,35.9c0.4,0.7,1,1.2,1.8,1.5c0.5,0.2,0.9,0.2,1.2-0.3
		c0.3-0.5-0.1-0.8-0.5-1.1c-0.8,0.5-1.5,0-2.3-0.3c-0.1-0.1-0.2-0.2-0.3-0.1C45,35.7,45.1,35.8,45.2,35.9z M52.1,30.7
		c0-1.2-0.4-1.8-1.4-2.1c-0.2-0.2-0.3-0.2-0.5,0.1c-0.1,0.5,0.6,0.7,0.4,1.3c-0.7,0.1-1.7,0-1.9,1.1c0,0,0,0.1,0,0.1
		c0,0,0.1,0,0.1-0.1c1.3,0,1.4,0.1,1.8,2.1C51.7,32.8,52.2,31.9,52.1,30.7z M40.1,8.7c-0.1,1,1,1.5,1.2,2.3
		c-0.2,0.2-0.5-0.1-0.6,0.3c0.5,0.8,1.2,1.6,1.5,2.5c-1.8,2.1-2.1,4.1-0.8,5.6c0.1-0.2,0.1-0.4,0.2-0.6c0.1-0.2,0.1-0.4,0.4-0.4
		c0,0.1,0,0.3,0.1,0.4c0.5,2.7,1.3,3.1,4.1,2.9c0.9-0.1,1.2-0.4,1.3-1.7c0.7-2.2-0.3-4.7-2.4-6.3c-0.2-0.2-0.6-0.4-0.7-0.6
		c-0.8-1.9-2-3.6-3.5-5.2c0.3,0,0.6-0.1,0.8-0.1c-0.7-0.9-2.5-1.9-4.2-2.3c-0.2,0.1-0.3,0.3-0.3,0.6c0.7,1.1,1.2,1.2,2.4,0.7
		C40,7.5,39.7,8.2,40.1,8.7z M8.4,26.6c0.4-0.2,0.7-0.4,1-0.6c0.6-0.5,0.8-1.1,0.7-1.8c-0.1-0.4-0.5-0.6-0.9-0.5
		c-0.1,0.1,0.1,0.3-0.3,0.5c-1.4-0.1-3-1-4.8-0.5c0.1,0.4,0.1,0.7,0.2,1.2c0.7,0,1.3,0,2,0c0,0,0,0.1,0,0.1c-0.5,0.2-1,0.4-1.5,0.6
		c-0.6,1.5-1.3,3-1.9,4.5c1.4,0,2.7,0.1,4,0C8.4,29.9,9.3,27.8,8.4,26.6z M24.4,26.8c1.5,1.1,0,2.2,0.1,3.2c0.6,0,1.1,0,1.6,0
		c1.1-2.3,1.1-2.4,0.5-3.4c1.6-1,1.9-1.5,1.6-2.8c-1.9-0.5-3.9-0.1-5.9-0.2c0,0.5,0,0.9,0.2,1.3c0.6,0,1.3,0,2,0c0,0,0,0.1,0,0.1
		c-0.5,0.2-1,0.4-1.5,0.6c-0.6,1.5-1.2,2.9-1.8,4.5c0.7,0.1,1.4,0.1,2,0C23.6,29,24,27.9,24.4,26.8z M35.7,28.6
		c0.5,0,0.9-0.1,1.3,0.1c0.1,0.5-0.3,1,0,1.5c0.5,0.1,1,0.1,1.5,0c0.2-1.8,0.4-3.5,0.6-5.3c0.1-0.6-0.1-1.1-0.8-1.2
		c-0.9,0-1.8,0-2.7,0c-0.2,0.4-0.4,0.8-0.4,1.3c0.5,0,0.9,0,1.4,0c-1.1,0.4-1.6,1.2-1.9,2.2c-0.2,0.5-0.5,1-0.7,1.5
		c-0.2,0.5-0.6,1-0.6,1.5c0.6,0,1.1,0,1.7,0C35.3,29.6,35.5,29.1,35.7,28.6z M20.3,30.1c0.2-1.9,0.4-3.7,0.6-5.5c0.1-0.6-0.3-1-1-1
		c-0.9,0-1.7,0-2.6,0c-0.2,0.4-0.3,0.8-0.5,1.3c0.6,0,1,0,1.7,0c-0.6,0.4-1.2,0.5-1.4,0.9c-0.8,1.4-1.4,2.9-2.1,4.4
		c0.7,0.1,1.2,0.1,1.8,0c0.3-0.5,0.5-1,0.8-1.5c0.4,0.1,0.8-0.1,1.2,0.1c0.1,0.5-0.2,1,0,1.5C19.3,30.2,19.7,30.2,20.3,30.1z
		 M50.3,25.6c0.3-0.7,0.6-1.3,0.7-2c-1.3,0-2.5,0-3.7,0c-0.6,0-1,0.3-1.3,0.8c-0.3,0.6-0.5,1.2-0.8,1.8c0.8,0.5,1.5,1,2.2,1.4
		c-0.5,1.2-0.6,1.3-2.5,1.2c-0.3-0.1-0.2-0.5-0.6-0.5c-0.2,0.6-0.4,1.1-0.7,1.8c1.3,0,2.6,0,3.8,0c0.5,0,1.1-0.3,1.3-0.9
		c0.3-0.6,0.5-1.3,0.8-2c-0.7-0.5-1.4-0.9-2.1-1.3c0.3-1.1,0.4-1.1,2.3-1C49.9,25.1,50,25.2,50.3,25.6z M16.2,23.6
		c-1.9,0-3.6,0-5.5,0c0.1,0.4-0.1,0.8,0.3,1.3c0.5,0,1,0,1.7,0c-0.7,0.3-1.1,0.5-1.6,0.7c-0.3,1.5-1.5,2.7-1.1,4.4c1.4,0,2.7,0,4,0
		c0.2-0.5,0.5-1.1,0.6-1.9c-0.9,0.9-1.8,0.6-2.8,0.6c0.2-0.5,0.3-1,0.6-1.4c0.3,0,0.6-0.1,0.9-0.1c0.1-0.4,0.5-0.6,0.5-1.1
		c-0.3,0-0.6,0-1-0.1c0.2-0.5,0.3-0.9,0.5-1.3c0.6,0,1.1,0,1.6,0c0.2,0.1,0.2,0.5,0.6,0.6C15.8,24.9,16,24.3,16.2,23.6z M45.3,23.6
		c-1.8,0-3.5,0-5.2,0c-0.1,0.5,0,0.8,0.3,1.2c0.8,0,1.5,0,2.3,0c0,0,0,0.1,0,0.1c-0.5,0.2-1,0.4-1.5,0.6c-0.6,1.5-1.2,3-1.8,4.5
		c0.7,0,1.3,0,2,0c0.7-1.7,1.4-3.5,2.1-5.2c0.5,0,1,0,1.5,0C45.1,24.4,45.3,24.1,45.3,23.6z M31.6,34.5c0.4,0.2,0.7,0.2,1.1,0
		c0.1-0.8,0.2-1.7,0.1-2.5c-0.4-0.1-0.8-0.1-1.1,0c-0.3,0.3-0.5,0.7-0.8,1.1c-0.2-0.4,0-0.8-0.4-1.1c-0.5,0.1-1.1-0.2-1.5,0
		c-0.5,0.5,0.2,0.4,0,0.7c-0.4,0.6-0.7,1.2-1.1,1.8c0.4,0.2,0.6,0.2,0.9,0.1c0.4-0.3,0.4-0.9,0.8-1.2c0,0.4,0.1,0.8,0.1,1.2
		c0.3,0.1,0.6,0.1,0.9,0c0.3-0.3,0.5-0.7,0.9-1.2C31.6,33.9,31.6,34.2,31.6,34.5z M11.8,32.1c0.6,1-0.5,1.6-0.4,2.5
		c0.3,0.1,0.6,0.1,0.8,0c0.3-0.3,0.2-0.8,0.6-1.1c0.2,0.4,0.4,0.7,0.6,1.1c0.4,0.1,0.7,0.1,1-0.1c0.3-0.8,0.7-1.6,1-2.5
		c-0.4,0-0.7-0.1-1,0c-0.3,0.3-0.2,0.7-0.6,0.9c-0.2-0.3-0.4-0.6-0.5-0.9C12.9,31.9,12.4,31.9,11.8,32.1z M43.8,34.5
		c0.3-0.8,0.7-1.6,1-2.4c-0.4-0.2-0.7-0.1-0.9-0.1c-0.2,0.3-0.3,0.6-0.5,0.9c-0.3-0.3-0.3-0.8-0.7-1c-0.5,0.1-1-0.2-1.5,0.2
		c0.5,0.9-0.5,1.6-0.4,2.4c0.3,0.2,0.6,0.2,0.9,0c0.2-0.3,0.3-0.7,0.5-1c0.4,0.3,0.4,0.8,0.8,1.1C43.1,34.7,43.4,34.7,43.8,34.5z
		 M8.8,32.1c-1.1-0.3-2.2-0.2-3.4-0.1c0.7,1-0.4,1.7-0.3,2.6c0.8,0,1.6,0,2.3,0c0.5,0,0.9-0.3,0.9-0.8C8.5,33.3,8.6,32.7,8.8,32.1z
		 M20.1,32.1c0.5,1-0.4,1.6-0.4,2.4c0.4,0.2,0.7,0.2,1.1,0c0.6-1.1,0.6-1.1,1.1-1c0.1,0.4-0.3,0.7-0.2,1.1c0.3,0.1,0.7,0.1,1.1,0
		c0.3-0.8,0.7-1.6,1-2.5c-0.4-0.2-0.8-0.2-1.1-0.1c-0.4,0.3-0.3,1.2-1.1,0.9c-0.1-0.3,0.3-0.6,0-0.9C21.1,32,20.6,31.8,20.1,32.1z
		 M36.6,34.4c1,0.5,2,0.5,2.8,0c0.7-0.4,1.1-1.2,0.9-2.2c-1-0.4-1.9-0.4-2.8,0.1C36.9,32.7,36.6,33.5,36.6,34.4z M19.4,32.1
		c-2.5-0.5-4,0.4-3.6,2.4c0.9,0.3,1.8,0.3,2.7,0c0.3-0.5,0.5-1,0.6-1.5c-0.5-0.1-1-0.2-1.5,0.1c-0.1,0.3,0.4,0.4,0.2,0.7
		c-0.2,0.4-0.5,0.4-0.9,0.1c0.1-0.5,0.3-1,0.6-1.3C18.1,32.3,18.8,32.7,19.4,32.1z M27.2,32c-0.7,0-1.4-0.1-2.1,0
		c-0.3,0.3,0.2,0.5-0.1,0.8c-0.4,0.6-1,1-1.3,1.7c0.3,0.2,0.6,0.2,0.8,0.1c0.2-0.2,0.3-0.4,0.5-0.5c0.3,0,0.6-0.1,0.9,0
		c0.1,0.2,0.1,0.3,0.2,0.5c0.4,0,0.7,0.1,1-0.1C27.2,33.7,27.2,32.9,27.2,32z M33.8,32.1c0.2,0.5,0.6,0.2,0.7,0.5
		c-0.2,0.6-0.5,1.2-0.7,1.8c0.4,0.2,0.8,0.2,1.1,0.1c0.3-0.7,0.6-1.4,0.9-2c0.7-0.1,0.7-0.1,1-0.6C35.7,32,34.8,31.8,33.8,32.1z
		 M11.2,32c-0.6-0.1-1.1-0.1-1.6,0.1c0.5,1-0.5,1.6-0.5,2.5c0.4,0,0.7,0.1,1.1-0.1C10.5,33.7,11,33,11.2,32z M49.2,34.3
		c-0.9-0.7-2.2,0.1-3.1-0.9c0.4,1.4,1.4,2.2,2.4,2C49,35.4,49.3,35.1,49.2,34.3z M38.7,19.8c-0.2,0.8-0.6,1.7-0.2,2.5
		c0.4,0,0.8,0,1.3,0C39.1,21.6,38.8,20.8,38.7,19.8z M29.4,16.6c0.5-0.5,1.2-0.6,1.7-1.2c0-0.1-0.1-0.1-0.1-0.2
		c-0.5,0.3-1.1,0.6-1.6,0.8c-0.6-0.1-0.9-0.6-1.6-0.5C28.4,15.9,28.8,16.2,29.4,16.6z M25.4,10.6c-0.1,0.5,0.1,0.8,0.5,0.9
		c0.4,0.1,0.7-0.1,0.9-0.5c-0.3-0.2-0.5,0.3-0.9,0.1C25.6,11.1,25.8,10.7,25.4,10.6z M31.9,10.9c0.4,0.5,0.7,0.6,1.1,0.4
		c0.3-0.2,0.5-0.5,0.3-0.9c0,0-0.1,0-0.1-0.1c-0.3,0.1-0.1,0.5-0.5,0.6C32.5,11,32.3,11,31.9,10.9z M48.5,38c-0.4,0-0.7-0.1-1,0.1
		c0,0.3,0,0.5,0.3,0.6C48.2,38.7,48.4,38.5,48.5,38z M33.6,11.4c-0.1,0-0.3,0-0.2,0.3C33.5,11.6,33.6,11.6,33.6,11.4z M33.8,10.5
		c-0.1,0.3-0.2,0.4,0,0.5C33.8,10.9,33.8,10.8,33.8,10.5z M24.9,11.5c0.1-0.1,0.1-0.1,0-0.2C24.8,11.3,24.8,11.4,24.9,11.5z
		 M22.7,4.6L22.7,4.6L22.7,4.6L22.7,4.6z M4.3,17.5c0,0,0.1,0,0.1,0C4.4,17.5,4.3,17.5,4.3,17.5z"/>
	<path class="st1" d="M8.6,39.3c-0.3,0-0.6,0.1-0.9-0.1c0-0.6,0.7-1.1,0.3-1.9c0.5-0.2,1.1-0.1,1.6-0.1c0.2,0.2,0.4,0.5,0.6,0.8
		c0.1-0.3,0.3-0.5,0.4-0.7c0.3-0.1,0.6-0.1,0.9,0c-0.1,0.7-0.5,1.3-0.7,1.9c-0.3,0.2-0.6,0.1-0.9,0.1c-0.4-0.2-0.5-0.6-0.8-0.8
		C8.9,38.7,8.9,39.1,8.6,39.3z"/>
	<path class="st1" d="M27.2,37.4c0.1,0.7-0.4,0.8-0.7,1.1c0,0.3,0.4,0.4,0.3,0.8c-0.4,0.1-0.7,0.1-1.1,0c-0.2-0.2-0.4-0.5-0.5-0.7
		c-0.3,0.2-0.3,0.5-0.5,0.7c-0.3,0.1-0.7,0.1-1,0c-0.1-0.6,0.8-1.1,0.1-1.9C25,37.3,26.1,37.2,27.2,37.4z M25.2,38
		c0.7,0,0.8,0,0.7-0.2C25.6,37.8,25.6,37.8,25.2,38z"/>
	<path class="st1" d="M4.6,38.9c1-0.1,0.7-1.1,1.3-1.6c0.3-0.1,0.7-0.1,1,0c-0.3,2-2,2.8-3.6,1.7c-0.1-0.6,0.7-1,0.1-1.6
		c0.6-0.2,1.1-0.1,1.6-0.1C5.1,37.9,4.5,38.3,4.6,38.9z"/>
	<path class="st1" d="M21,38.7c0.4,0.3,0.9,0,1.5,0.5c-1.1,0.3-2,0.1-2.8,0.2c-0.2-0.7,0.8-1.2,0.1-1.9c0.6-0.3,1.9-0.3,2.9-0.1
		c-0.3,0.6-0.9,0.2-1.3,0.5c0.2,0.3,0.6,0,0.9,0.3C22.1,38.8,21.4,38.2,21,38.7z"/>
	<path class="st1" d="M17.9,37.3c0.5,0,0.7-0.1,1.1,0c-0.5,0.8-1.2,1.3-1.8,2c-0.4,0-0.8,0-1.1,0c-0.4-0.6,0-1.4-0.7-1.8
		c0.5-0.4,0.9-0.2,1.3-0.2c0.3,0.3,0.2,0.6,0.3,0.9C17.4,37.9,17.6,37.6,17.9,37.3z"/>
	<path class="st1" d="M29.6,38.8c-0.2-0.4-0.8-0.2-1-0.6c0.2-0.9,0.7-1.1,2.5-0.8c-0.3,0.6-0.9,0.2-1.2,0.4c0.2,0.4,0.7,0.2,0.9,0.5
		c0.1,1.1-0.9,1.1-2.7,0.9c0-0.1,0-0.2,0-0.2C28.5,39,29.1,38.9,29.6,38.8z"/>
	<path class="st1" d="M41.5,37.3c0.3,0,0.6-0.1,0.9,0.1c-0.5,0.7-1.4,1-1.6,1.9c-0.4,0-0.8,0-1.2,0c0.1-0.3,0.2-0.6,0.2-0.8
		c-0.1-0.5-0.4-0.8-0.8-1c0.4-0.4,0.9-0.2,1.2-0.3c0.3,0.1,0.3,0.4,0.5,0.6C41,37.9,41.1,37.5,41.5,37.3z"/>
	<path class="st1" d="M35.2,37.4c0.9,0,1.9,0,2.8,0c-0.1,0.6-0.6,0.3-0.9,0.5c-0.2,0.4-0.4,0.9-0.6,1.4c-0.4,0-0.8,0-1.1,0
		c-0.1-0.6,0.4-0.9,0.4-1.4C35.7,37.6,35.2,37.9,35.2,37.4z"/>
	<path class="st1" d="M13.6,39.3c-0.4,0.1-0.8,0.1-1.1,0c-0.1-0.7,0.8-1.1,0.2-1.9c0.6-0.3,1.1-0.1,1.7-0.1
		C14.3,38.1,13.9,38.7,13.6,39.3z"/>
	<path class="st1" d="M32.3,37.4c0.6-0.2,1.1-0.1,1.6-0.1c0,0.8-0.5,1.3-0.7,2c-0.4,0.1-0.8,0.1-1.2,0C32,38.7,32.8,38.2,32.3,37.4z
		"/>
	<path class="st1" d="M44.3,9.5c0,0.1,0.1,0.1,0.1,0.2c-0.1,0.1-0.2,0.1-0.3,0C44.2,9.6,44.3,9.6,44.3,9.5z"/>
	<path class="st2" d="M45.4,11.2c0,0,0-0.1-0.1-0.1C45.4,11.1,45.4,11.1,45.4,11.2C45.4,11.2,45.4,11.2,45.4,11.2z"/>
	<path class="st3" d="M31.6,4.3c-0.1,0.4-0.8,0.7-0.3,1.2C32.2,5.9,33.2,6,34,6.7c-0.2,1.5-1,2.5-2.3,3.1c-0.9,0.4-1.4,0.9-1.8,1.8
		c0.3,0.4-0.1,1,0.3,1.5c0.1,0.2,0.6,0.2,0.4,0.6c0.3,0.1,0.6-0.3,0.8,0.1c-0.3,0-0.3,0.3-0.3,0.5l0,0c-0.6,0.3-1.6,0.2-1.7,1.2
		c-0.8-0.2-1.8-0.3-1.8-1.5c0,0,0.1-0.1,0.1-0.1c0.1,0,0.2,0,0.3,0c0,0,0,0,0.1,0c0,0,0,0-0.1,0c-0.1-0.5-0.5-0.8-0.8-1
		c-0.4-0.2-0.8,0.3-1.1-0.2c-0.2-0.4-0.5-0.4-0.9-0.4c-0.9-0.1-1.3,0.5-1.8,1.1c-1-0.2-1.7-0.8-2.6-1.2c-0.3-0.2-0.6-0.4-0.9-0.6
		c-0.1,0-0.2-0.1-0.3-0.1c0,0-0.1,0-0.1-0.1c0,0,0,0.1,0.1,0.1c0.1,0.1,0.2,0.2,0.3,0.3c0.2,0.2,0.5,0.3,0.7,0.5
		c0.8,0.7,1.7,1.2,2.7,1.5c-0.1,0.1-0.1,0.2-0.2,0.3c-0.5-0.2-1.1-0.4-1.6-0.6c-0.4-0.2-0.8-0.5-1.2-0.7c-0.1-0.1-0.1-0.2-0.2,0
		c0,0.2,0.1,0.2,0.2,0.3c0.3,0.2,0.7,0.4,1.1,0.6c0.6,0.3,1.3,0.6,1.9,0.9c-0.1,0.1-0.2,0.1-0.3,0.2c-0.4,0-0.7-0.4-1.2-0.2
		c0.7,0.6,1.4,0.7,2.1,1c0.3,0,0.5,0.5,0.9,0.2c0.4,0.2,0.8,0.5,1.3,0.3c0.1-0.4-0.4-0.3-0.5-0.6c0-0.1,0.3,0,0.3-0.3
		c-0.2-0.1-0.4-0.3-0.6-0.5c0.2-0.1,0.4-0.1,0.5-0.2c-0.1-0.4-0.6-0.4-0.5-0.8c1.3-0.4,1.5,0.3,1.7,2.2c0.5,0.3,1.3,0.4,1.4,1.2
		c-0.8,0.7-1.7,0.5-2.4-0.4c-0.7-0.1-1.3-0.2-2-0.3c-0.6-0.1-1.2-0.4-1.8-0.5c0.7,0.6,1.5,0.9,2.4,1.1c0.4,0.1,0.8,0.1,0.9,0.7
		c0,0,0,0-0.1,0.1c-0.5-0.2-1-0.5-1.6-0.3c0,0.4,0.5,0.2,0.6,0.6c-1.1,0-2.2-0.1-3.3,0.6c0-1,0.8-1.4,1.4-1.9
		c-2.7-1.4-3.8-3.7-4-6.7c0.7,0.3,1,1,1.8,1.3c-0.5-1-1.2-1.8-1.4-2.9c0.6,0,1.1,0.5,1.5,0c1.6,0.9,0.5,2.9,1.8,4
		c0.1-0.6,0.2-1.1,0.3-1.6c0.3,0.3,0.5,0.5,0.7,0.6c0.2,0.4-0.2,0.6,0,1c0.5-0.2,1.2-0.2,1.7-0.6c0.3,0.1,0.6,0.2,0.9,0.3
		c0.3-0.1,0.6-0.2,0.9-0.3c0.9,0.1,0.5,1.3,1.4,1.5c0-0.5,0-1,0-1.6c-0.2-0.3-0.5-0.7-0.8-1.1c-1-0.1-2-0.5-2.9-1
		c-0.1-0.3-0.2-0.6-0.2-0.8c-0.4-1.5-0.1-2.8,1.7-3.1c0.2,0,0.4,0,0.6-0.2c0.1,0,0.2-0.1,0.3-0.1c0-0.4-0.4-0.6-0.5-0.9
		c0.7-0.3,1.3-0.3,2,0c0.2,0.1,0.5,0.2,0.7,0.1C30,4.2,30.8,4.1,31.6,4.3z M21.4,14.6c0.1,0,0.2,0.1,0.3,0.1c0.1,0,0-0.1,0-0.2
		c-0.4-0.2-0.8-0.3-1.2-0.5l0,0l0,0C20.7,14.3,21,14.5,21.4,14.6z M30,6.1C29,7,28.7,9,29.3,10c0.3-0.3,0.6-0.5,0.9-0.8
		C29.7,8.3,29.8,7.2,30,6.1c0.1,0,0.1,0,0.1-0.1C30.1,6.1,30,6.1,30,6.1z"/>
	<path class="st3" d="M8.5,16.8c-0.8,0.2-0.6,1.1-1.1,1.6c-1.4,0.2-1.4,0.2-2.2,0.8c-0.2-0.2-0.3-0.5,0-0.8c0.1-0.1,0.2-0.2,0.2-0.4
		l0,0c0.5-0.2,1-0.3,1.5-0.5C7.1,17,7.3,16.5,7.5,16c-0.4-0.3-0.6,0.3-0.9,0.1c0.8-1.8,2.4-2.7,4.1-3.3c0.4-0.1,0.8-0.1,1.1-0.5
		c-0.3,0-0.7,0-1,0c-0.1,0-0.3-0.1-0.4-0.1c0.2-1.1,1.1-1.7,2-2.2c0.7-0.4,1.4-0.6,2.2-1c-0.5-0.3-0.8-0.1-1.2,0
		c-0.2-0.6-0.7-0.2-1-0.3c0.3-1.6,1-2.9,2.4-3.7c0-0.3-0.3-0.2-0.2-0.4c0.4-0.3,0.9-0.2,1.2-0.6c0.6-0.2,1.1-0.1,1.7,0.1
		c0.9,0.3,1.7,0.5,2.5,0c0.2,0.3,0.2,0.5,0.1,0.8c-0.8,0.3-1.5,0.6-2.3,1c0,0-0.1-0.1-0.1-0.1c0.2-0.3,0.3-0.5,0.5-0.8
		c-0.7-0.2-1.3-0.3-1.9,0c-0.2,0.5,0,1.1-0.2,1.6c-0.2,0.5-0.4,1-1.1,1.3c1.1,0.6,2.2,0.8,2.8,2.1c-0.8-0.4-1.4-0.8-2.4-0.9
		c0.9,1.1,1.9,2.2,0.8,3.5c-1.2,0.4-2.4-0.5-3.7,0.1c0.6,0.3,1.2,0.4,1.6,0.8c-0.4,0.3-0.8,0.5-1.4,0.3c-0.1,0-0.1,0-0.2,0
		c-0.6-0.1-3,1-3.4,1.5C8.5,15.5,8.6,16.2,8.5,16.8z"/>
	<path class="st2" d="M40.1,8.7c-0.4-0.6,0-1.2-0.3-1.8c-1.1,0.5-1.7,0.4-2.4-0.7c0-0.3,0.1-0.4,0.3-0.6c1.6,0.4,3.4,1.4,4.2,2.3
		c-0.3,0-0.5,0.1-0.8,0.1c1.5,1.6,2.7,3.2,3.5,5.2c0.1,0.3,0.5,0.4,0.7,0.6c2.1,1.6,3,4.1,2.4,6.3c-0.1,0-0.2,0-0.3,0.1
		c-1.4,0.6-2.3,0.2-2.7-1.3c-0.2-0.6-0.2-1.3-0.4-1.9c-0.4,0.2-0.3,0.7-0.8,1c-0.2-1.1-0.2-2.2,0-3.3c-0.3-0.9-0.9-1.6-1.3-2.3
		c0-0.4,0.4-0.4,0.3-0.7C41.9,10.4,41,9.3,40.1,8.7z"/>
	<path class="st3" d="M40.1,8.7c0.9,0.5,1.8,1.6,2.3,3c0.1,0.3-0.3,0.3-0.3,0.7c0.5,0.7,1.1,1.4,1.3,2.3c-0.2,1.1-0.2,2.2,0,3.3
		c0.5-0.2,0.4-0.8,0.8-1c0.1,0.7,0.2,1.3,0.4,1.9c0.4,1.5,1.2,1.9,2.7,1.3c0.1,0,0.2-0.1,0.3-0.1c-0.2,1.3-0.4,1.7-1.3,1.7
		c-2.9,0.2-3.6-0.2-4.1-2.9c0-0.1,0-0.3-0.1-0.4c-0.3,0-0.3,0.2-0.4,0.4c-0.1,0.2-0.1,0.4-0.2,0.6c-1.2-1.5-1-3.5,0.8-5.6
		c-0.3-0.9-1-1.7-1.5-2.5c0-0.4,0.4-0.1,0.6-0.3C41.1,10.2,40,9.8,40.1,8.7z"/>
	<path class="st2" d="M8.4,26.6c1,1.2,0.1,3.3-1.5,3.5c-1.3,0.1-2.6,0-4,0c0.6-1.5,1.3-3,1.9-4.5c0.5-0.2,1-0.4,1.5-0.6
		c0,0,0-0.1,0-0.1c-0.7,0-1.3,0-2,0c-0.1-0.5-0.1-0.8-0.2-1.2c1.7-0.6,3.3,0.3,4.8,0.5c0.5-0.2,0.2-0.4,0.3-0.5
		c0.4,0,0.8,0.1,0.9,0.5c0.1,0.7-0.1,1.4-0.7,1.8C9.1,26.2,8.7,26.4,8.4,26.6z M7.7,25.5L7.7,25.5c0.4-0.1,0.7-0.3,1-0.7
		C8,24.9,7.5,24.6,7,25c-0.2,0.5-0.4,0.9-0.6,1.4c0.4-0.2,0.8-0.3,1.1-0.7l0,0C7.6,25.7,7.7,25.7,7.7,25.5z M7,27.8
		c-0.2-0.4-0.4-0.7-0.8-1c-0.3,0.6-0.6,1.3-0.8,2c0.4,0.1,0.7,0.1,1,0C6.8,28.5,6.9,28.2,7,27.8z"/>
	<path class="st2" d="M24.4,26.8C24,27.9,23.6,29,23.2,30c-0.6,0.1-1.2,0.1-2,0c0.6-1.5,1.2-3,1.8-4.5c0.5-0.2,1-0.4,1.5-0.6
		c0,0,0-0.1,0-0.1c-0.7,0-1.4,0-2,0c-0.2-0.4-0.3-0.8-0.2-1.3c2,0.1,4-0.3,5.9,0.2c0.3,1.3,0,1.8-1.6,2.8c0.6,1,0.6,1.1-0.5,3.4
		c-0.5,0-1.1,0-1.6,0C24.4,29,26,28,24.4,26.8z M25.2,26.1L25.2,26.1c0.1-0.1,0.1-0.1,0.2-0.2c0.5-0.3,1-0.6,1.4-1.1
		c-0.6,0-1.1,0-1.6,0c-0.1,0.4-0.3,0.7-0.4,1c-0.1,0.1-0.3,0.3-0.1,0.5c0.1-0.1,0.2-0.1,0.2-0.2l0,0C25,26.2,25.1,26.1,25.2,26.1z"
		/>
	<path class="st2" d="M35.7,28.6c-0.2,0.5-0.5,1-0.7,1.5c-0.5,0-1.1,0-1.7,0c0-0.6,0.4-1,0.6-1.5c0.2-0.5,0.5-1,0.7-1.5
		c0.4-1,0.9-1.8,1.9-2.2c-0.5,0-0.9,0-1.4,0c0-0.5,0.2-0.8,0.4-1.3c0.9,0,1.8,0,2.7,0c0.7,0,0.9,0.6,0.8,1.2
		c-0.2,1.8-0.4,3.5-0.6,5.3c-0.5,0.2-1,0.1-1.5,0c-0.3-0.5,0.1-1,0-1.5C36.6,28.5,36.2,28.6,35.7,28.6z M36.9,26.1
		c-0.3,0.3-0.4,0.7-0.6,1.1c0.3,0.1,0.6,0.1,1,0c0.1-0.7,0.2-1.5,0.3-2.3c-0.1,0-0.1,0-0.2,0C37.3,25.3,37,25.6,36.9,26.1L36.9,26.1
		z"/>
	<path class="st2" d="M20.3,30.1c-0.6,0.1-1,0.1-1.5,0c-0.1-0.5,0.1-1,0-1.5c-0.4-0.2-0.8-0.1-1.2-0.1c-0.3,0.5-0.5,1-0.8,1.5
		c-0.6,0.1-1.1,0.1-1.8,0c0.7-1.5,1.4-3,2.1-4.4c0.2-0.4,0.8-0.5,1.4-0.9c-0.7,0-1.2,0-1.7,0c0.2-0.5,0.3-0.8,0.5-1.3
		c0.9,0,1.7,0,2.6,0c0.7,0,1,0.4,1,1C20.7,26.5,20.5,28.3,20.3,30.1z M18.6,26.4c-0.3,0.2-0.4,0.5-0.4,0.8c0.3,0,0.6,0,0.9,0
		c0-0.2,0-0.3,0-0.4c0.1-0.2,0.1-0.4,0.1-0.6c0-0.2,0-0.3,0.1-0.5c0.1-0.3,0.2-0.6,0.1-0.9c-0.2,0-0.3,0.1-0.3,0.2
		C19,25.5,18.6,25.9,18.6,26.4L18.6,26.4z"/>
	<path class="st2" d="M50.3,25.6c-0.2-0.3-0.3-0.5-0.5-0.7c-2-0.1-2-0.1-2.3,1c0.7,0.4,1.4,0.9,2.1,1.3c-0.3,0.7-0.5,1.3-0.8,2
		c-0.2,0.5-0.8,0.8-1.3,0.9c-1.2,0.1-2.5,0-3.8,0c0.2-0.6,0.5-1.2,0.7-1.8c0.4,0,0.3,0.4,0.6,0.5c1.8,0.1,2,0.1,2.5-1.2
		c-0.7-0.5-1.4-0.9-2.2-1.4c0.3-0.6,0.5-1.2,0.8-1.8c0.3-0.5,0.7-0.8,1.3-0.8c1.2,0,2.4,0,3.7,0C50.8,24.3,50.6,24.8,50.3,25.6z"/>
	<path class="st2" d="M16.2,23.6c-0.3,0.7-0.5,1.2-0.7,1.8c-0.4-0.1-0.3-0.4-0.6-0.6c-0.5,0-1,0-1.6,0c-0.2,0.4-0.3,0.8-0.5,1.3
		c0.4,0,0.7,0.1,1,0.1c0,0.5-0.4,0.7-0.5,1.1c-0.3,0-0.6,0.1-0.9,0.1c-0.3,0.4-0.4,0.8-0.6,1.4c1,0,1.9,0.3,2.8-0.6
		C14.5,29,14.3,29.5,14,30c-1.3,0-2.6,0-4,0c-0.4-1.7,0.9-3,1.1-4.4c0.5-0.2,0.9-0.4,1.6-0.7c-0.7,0-1.2,0-1.7,0
		c-0.3-0.4-0.2-0.8-0.3-1.3C12.6,23.6,14.3,23.6,16.2,23.6z"/>
	<path class="st2" d="M37.6,8c0.5,0.2,1,0,1.5,0.1C39.1,9,38.5,9.5,38,10.2c0.6,0.2,1-0.3,1.5-0.3c0.4,2.6-0.9,4.9-3.7,6.6
		c0.3,0.3,0.6,0.5,0.9,0.8c-0.2,0.3-0.4,0.1-0.5,0c-0.6-0.3-1.3-0.4-2-0.3c-0.5,0.1-1,0.5-1.4,0.7c0,0-0.1-0.1-0.1-0.1
		c0.3-0.5,0.6-0.8,1.2-0.9c0.7-0.2,1.4-0.4,2-0.9c-1.3,0.4-2.9,0.2-4,1.3c-0.1-0.4,0.4-0.6,0.3-1c0.8,0.1,1.4-0.4,2.1-0.7
		c0.1,0.1,0,0.3,0.2,0.3c0,0,0.1-0.1,0.2-0.1c0.6-0.1,1.2-0.3,1.8-0.6c0.1-0.1,0.3-0.1,0.3-0.3c-0.2-0.1-0.3,0-0.5,0.1
		c-0.6,0.2-1.4,0.1-1.9,0.7c-0.1,0-0.1-0.1-0.2-0.1c-0.1-0.2,0.1-0.4,0.1-0.6c0.3-1.4-0.2-2-1.9-1.9c0.7-0.6,1.4-0.5,2.7,0.4
		c1.3-0.3,2.3-1.1,3.1-2.1c-0.4-0.3-1-0.1-1.3-0.6c0.4-0.6,1-0.9,1.1-1.6C38,8.5,37.6,8.4,37.6,8z M37.8,13.3
		c-0.7,0.3-1.4,0.9-2.3,0.8c0-0.3,0.3-0.3,0.5-0.4c0.8-0.4,1.5-0.7,2.1-1.4c0.2-0.1,0.4-0.3,0.4-0.6c-0.2,0.2-0.3,0.3-0.4,0.4
		c-0.9,0.7-1.9,1.2-3,1.5c0,0.4,0.3,0.3,0.4,0.5c-0.1,0.3-0.6,0.2-0.4,0.7c1-0.2,1.9-0.6,2.7-1.2c0.2-0.1,0.4-0.2,0.4-0.4
		C38,13.1,37.9,13.2,37.8,13.3z M37.1,14.7c0.2-0.1,0.4,0,0.4-0.3C37.3,14.4,37.2,14.4,37.1,14.7z"/>
	<path class="st2" d="M45.3,23.6c0,0.5-0.2,0.8-0.5,1.2c-0.5,0-0.9,0-1.5,0c-0.7,1.8-1.4,3.5-2.1,5.2c-0.6,0-1.2,0-2,0
		c0.6-1.5,1.2-3,1.8-4.5c0.5-0.2,1-0.4,1.5-0.6c0,0,0-0.1,0-0.1c-0.8,0-1.6,0-2.3,0c-0.2-0.4-0.3-0.8-0.3-1.2
		C41.8,23.6,43.5,23.6,45.3,23.6z"/>
	<path class="st2" d="M30.2,13.1c-0.4-0.5,0-1.1-0.3-1.5c0.4-0.9,0.9-1.4,1.8-1.8c1.3-0.6,2.1-1.6,2.3-3.1c-0.8-0.7-1.8-0.8-2.7-1.2
		c0.7-0.2,1.4-0.2,2.2,0c-0.2-0.2-0.3-0.4-0.4-0.5c0.3-0.1,0.3-0.4,0.5-0.5C34.2,4,34.5,3,35.5,3.1c-0.3,0.4-0.8,0.6-0.8,1.2l0,0
		c-0.1,0-0.2,0.1-0.2,0.2c-0.3,0.3-0.5,0.6-0.6,1c0.1,0.2,0.3,0.3,0.5,0.4c0.8,0.5,1.2,1.3,1.4,2.4c-0.5-0.2-0.5-0.7-1-0.8
		c-0.1,0.7,0.1,1.4-0.3,2c-0.2-0.1-0.4-0.2-0.6-0.3c-0.9,0.6-1.7,1.3-2.7,1.5c-0.2,0.3-0.5,0.7-0.7,1C30.3,12.1,30.5,12.6,30.2,13.1
		z"/>
	<path class="st2" d="M31.6,34.5c0-0.3,0-0.6-0.1-1.1c-0.4,0.5-0.7,0.8-0.9,1.2c-0.3,0.2-0.6,0.1-0.9,0c0-0.4-0.1-0.7-0.1-1.2
		c-0.5,0.3-0.5,0.8-0.8,1.2c-0.3,0.1-0.5,0.1-0.9-0.1c0.4-0.6,0.7-1.2,1.1-1.8c0.2-0.3-0.5-0.2,0-0.7c0.3-0.2,0.9,0.1,1.5,0
		c0.4,0.3,0.1,0.7,0.4,1.1c0.3-0.4,0.6-0.7,0.8-1.1c0.4-0.1,0.7-0.1,1.1,0c0.1,0.8,0,1.7-0.1,2.5C32.3,34.7,32,34.7,31.6,34.5z"/>
	<path class="st3" d="M37.6,8c0,0.5,0.4,0.5,0.6,0.7c-0.2,0.7-0.8,1-1.1,1.6c0.3,0.5,0.8,0.4,1.3,0.6c-0.8,1-1.8,1.9-3.1,2.1
		c-1.3-0.9-2-0.9-2.7-0.4c-0.5,0.5-1.1-0.3-1.5,0.2c0,0-0.1-0.1-0.1-0.1c0.1-0.4,0.3-0.9,0.9-1.1c1,0.1,2.1,0.2,3.1,0.5
		c0.2-0.3-0.2-0.5-0.2-0.9c0.1-0.2,0.3-0.5,0.6-0.7c0.5,0.5,0.3,1.2,0.4,1.8c0.8-1.2,1.3-2.4,0.9-3.9C37,8.4,37,7.8,37.6,8z"/>
	<path class="st3" d="M35.5,3.1c-1-0.1-1.3,0.9-1.9,1.4c-0.2,0.2-0.2,0.5-0.5,0.5c-0.2,0-0.3,0-0.6-0.3c1-1.6,2.5-2.6,4.3-3.3
		c0.3,1.5,0.9,2.8-0.1,4.2c-0.3,0.4,0,1-0.4,1.5c-0.3-0.1-0.4-0.4-0.5-0.6c0.4-1.2,0.8-2.4,0.6-3.7c-0.3-0.1-0.4,0.2-0.6,0.2
		c0,0-0.1,0-0.1,0C35.6,2.9,35.6,2.9,35.5,3.1C35.6,3,35.5,3.1,35.5,3.1z"/>
	<path class="st2" d="M11.8,32.1c0.6-0.2,1.2-0.1,1.7-0.1c0.2,0.3,0.4,0.6,0.5,0.9c0.4-0.2,0.3-0.7,0.6-0.9c0.2-0.1,0.5-0.1,1,0
		c-0.4,0.9-0.7,1.7-1,2.5c-0.4,0.2-0.7,0.2-1,0.1c-0.2-0.3-0.4-0.7-0.6-1.1c-0.4,0.3-0.3,0.8-0.6,1.1c-0.3,0.1-0.5,0.1-0.8,0
		C11.3,33.7,12.4,33.1,11.8,32.1z"/>
	<path class="st2" d="M43.8,34.5c-0.4,0.2-0.7,0.1-0.9,0.1c-0.4-0.3-0.3-0.9-0.8-1.1c-0.2,0.4-0.4,0.7-0.5,1c-0.3,0.1-0.6,0.2-0.9,0
		c0-0.8,0.9-1.4,0.4-2.4c0.5-0.4,1.1-0.1,1.5-0.2c0.4,0.2,0.4,0.7,0.7,1c0.2-0.3,0.4-0.6,0.5-0.9c0.3-0.1,0.6-0.1,0.9,0.1
		C44.5,32.9,44.2,33.7,43.8,34.5z"/>
	<path class="st2" d="M8.8,32.1c-0.2,0.6-0.3,1.2-0.4,1.7c-0.1,0.4-0.4,0.8-0.9,0.8c-0.8,0-1.5,0-2.3,0c-0.1-0.9,1-1.6,0.3-2.6
		C6.6,31.9,7.7,31.8,8.8,32.1z M6.5,34c0.5,0.1,0.7,0,0.8-0.5C6.7,33.2,6.6,33.5,6.5,34z M7,32.9c0.4,0.1,0.6,0,0.7-0.3
		C7.3,32.4,7.1,32.4,7,32.9z"/>
	<path class="st2" d="M10.7,12.7c-1.7,0.6-3.3,1.5-4.1,3.3c0.4,0.3,0.5-0.3,0.9-0.1c-0.2,0.5-0.4,1.1-0.6,1.6
		c-0.5,0.2-1,0.3-1.5,0.5c-0.1-0.4,0.3-0.7,0.4-1.1c-0.5-0.1-0.7,0.6-1.3,0.3c1.4-2.5,3.2-4.4,6.1-4.9
		C10.6,12.5,10.6,12.6,10.7,12.7z"/>
	<path class="st2" d="M20.1,32.1c0.5-0.3,1.1-0.1,1.5-0.1c0.3,0.3-0.1,0.6,0,0.9c0.8,0.3,0.7-0.6,1.1-0.9c0.3-0.1,0.6-0.1,1.1,0.1
		c-0.4,0.8-0.7,1.7-1,2.5c-0.4,0.1-0.8,0.1-1.1,0c-0.1-0.4,0.3-0.7,0.2-1.1c-0.6-0.1-0.6-0.1-1.1,1c-0.3,0.2-0.7,0.2-1.1,0
		C19.6,33.7,20.6,33.1,20.1,32.1z"/>
	<path class="st3" d="M22.1,2.9c-0.1-0.1-0.3-0.2-0.5-0.3c-0.4,1.7-0.2,3.1,0.7,4.4c0,0.4-0.1,0.6-0.4,1c-1.2-1.9-1.5-3.8-0.8-6
		c1.9,0.2,3.3,1.2,4.4,2.7c0,0.3-0.3,0.4-0.3,0.6c-0.4-0.1-0.4-0.5-0.7-0.7c-0.6-0.7-1.2-1.6-2.2-1.7l0,0c0,0,0-0.1-0.1-0.1
		C22.1,2.8,22.1,2.9,22.1,2.9z"/>
	<path class="st2" d="M15.5,3.8c-0.3,0.5-0.8,0.3-1.2,0.6c-0.1,0.2,0.2,0.1,0.2,0.4c-1.4,0.8-2,2.1-2.4,3.7
		c-0.5,0.1-1.1,0.2-1.7,0.2c0.2-1.7,1.2-2.8,2.6-3.7c-0.3-0.1-0.4-0.1-0.7-0.2C13.4,4.2,14.4,3.9,15.5,3.8z"/>
	<path class="st2" d="M36.6,34.4c0-0.9,0.3-1.7,1-2.1c0.8-0.5,1.8-0.4,2.8-0.1c0.2,1-0.2,1.7-0.9,2.2C38.6,34.9,37.6,34.8,36.6,34.4
		z M37.9,34c0.7,0.2,1.1-0.3,1.2-1.4C38.3,32.5,38.1,32.9,37.9,34z"/>
	<path class="st2" d="M19.4,32.1c-0.6,0.6-1.2,0.2-1.8,0.5c-0.3,0.3-0.5,0.8-0.6,1.3c0.4,0.2,0.6,0.2,0.9-0.1
		c0.2-0.3-0.3-0.4-0.2-0.7c0.4-0.2,0.9-0.1,1.5-0.1c-0.1,0.6-0.3,1-0.6,1.5c-0.9,0.3-1.8,0.2-2.7,0C15.4,32.5,16.9,31.6,19.4,32.1z"
		/>
	<path class="st2" d="M27.2,32c0,0.9,0,1.7,0,2.5c-0.3,0.3-0.7,0.2-1,0.1c-0.1-0.2-0.2-0.4-0.2-0.5C25.6,34,25.4,34,25,34
		c-0.2,0.2-0.3,0.4-0.5,0.5c-0.3,0.1-0.5,0.1-0.8-0.1c0.3-0.7,0.9-1.1,1.3-1.7c0.3-0.3-0.2-0.5,0.1-0.8C25.8,31.9,26.5,31.9,27.2,32
		z M26,32.9c-0.2,0.2-0.5,0.2-0.4,0.6C26.1,33.6,26.1,33.3,26,32.9z"/>
	<path class="st2" d="M22.2,2.9c1.1,0.1,1.6,1,2.2,1.7c0.2,0.2,0.3,0.6,0.7,0.7c0.5,0,1,0,1.6,0c-0.1,0.2-0.4,0.1-0.6,0.2
		c-1.8,0.4-2,1.7-1.7,3.1c0.1,0.3,0.1,0.6,0.2,0.8c-0.2,0.1-0.3,0.3-0.5,0.5c-0.8-1-0.4-2.1-0.2-3.1c0,0,0,0,0-0.1c0,0,0,0,0,0.1
		c-0.5,0.1-0.6,0.6-0.9,0.8c-0.1,0-0.1,0-0.2,0c0.1-0.7,0.5-1.2,1-1.7C24,5.9,24.2,5.8,24,5.6c0-0.4,0-0.7-0.3-1
		C23.2,4,22.7,3.5,22.2,2.9z"/>
	<path class="st3" d="M48.8,31c0.2-1.1,1.1-0.9,1.9-1.1c0.2-0.6-0.5-0.8-0.4-1.3c0.1-0.3,0.3-0.2,0.5-0.1c0.6,0.8,1.1,1.6,0.4,2.5
		c0.5,0,0.7-0.5,1-0.5c0.1,1.2-0.4,2.1-1.4,2.6C50.3,31.3,50.2,31.1,48.8,31C48.9,31.1,48.8,31.1,48.8,31z"/>
	<path class="st2" d="M13.2,8.9c0.4-0.1,0.8-0.2,1.2,0c-0.8,0.3-1.5,0.6-2.2,1c-0.9,0.5-1.8,1.1-2,2.2c-0.6,0-1.2,0.1-1.8,0.1
		C8.8,10.6,10.9,9.2,13.2,8.9z"/>
	<path class="st3" d="M32.3,16.1c0.1,0.4-0.4,0.6-0.3,1l0,0c-0.2,0-0.4,0-0.5,0.2c-0.5,0.2-0.8-0.1-1.2-0.3c0.3-0.6,0.3-0.6,1.4-1.2
		c-0.1-1.7,0.5-2.5,1.8-2.3c0,0.5-0.5,0.6-0.7,0.9c0.3,0.3,0.3,0.6-0.3,0.7c0.2,0.2,0.3,0.2,0.5,0.3C32.7,15.7,32.2,15.6,32.3,16.1z
		"/>
	<path class="st0" d="M14.1,21.6c0,0.1,0,0.2-0.2,0.3c-0.4-0.8-0.9-1.6-1.4-2.3c-0.6-0.9-0.1-1.8,0.9-2.1c0.3,1.1,0.7,2.2,0.6,3.4
		C13.9,21.1,13.9,21.4,14.1,21.6z"/>
	<path class="st2" d="M33.8,32.1c1-0.4,2-0.1,3-0.2c-0.3,0.5-0.3,0.5-1,0.6c-0.3,0.7-0.6,1.4-0.9,2c-0.4,0.1-0.7,0.2-1.1-0.1
		c0.2-0.6,0.5-1.2,0.7-1.8C34.4,32.3,34,32.6,33.8,32.1z"/>
	<path class="st0" d="M16.7,21.3c-0.3-0.9-0.7-1.7-1.3-2.2c-0.2-1.3,0-1.6,1-2c0.6,1.3,0.7,2.6,0.5,4l0,0
		C16.8,21.1,16.8,21.2,16.7,21.3z"/>
	<path class="st2" d="M31.6,4.3c-0.8-0.2-1.6-0.1-2.3,0.2c-0.3,0.1-0.5,0-0.7-0.1c-0.7-0.3-1.3-0.3-2,0c-0.2-0.1-0.4-0.2-0.4-0.7
		c1.9,0.1,3.8-0.3,5.7-0.1C32,3.9,31.7,4.1,31.6,4.3z"/>
	<path class="st3" d="M14.4,14.2c1.8-0.2,3.6,1,3.4,2.4c-0.9-0.3-1.7-0.6-2.6-0.2c-0.1,0.1-0.3-0.2-0.4-0.3c0.4-0.5,1.3-0.1,1.6-0.8
		c-0.2-0.3-0.5-0.4-0.8-0.5C15.2,14.5,14.7,14.6,14.4,14.2z"/>
	<path class="st3" d="M25.7,17.5c0.5,0.2,0.8,0.5,0.9,1.1c0,0.2,0.1,0.4,0.1,0.6c0.5,2.2,0.6,2.3,2.9,2.4c-0.1,0.2-0.1,0.4-0.2,0.6
		c-1.9,0.1-2.6-0.4-3.1-2.2C26.2,19.2,26,18.4,25.7,17.5C25.7,17.6,25.7,17.6,25.7,17.5z"/>
	<path class="st2" d="M11.2,32c-0.2,0.9-0.7,1.7-1,2.5c-0.4,0.2-0.7,0.1-1.1,0.1c-0.1-0.9,0.9-1.6,0.5-2.5
		C10.1,31.9,10.6,31.9,11.2,32z"/>
	<path class="st0" d="M49.2,34.3c0.1,0.8-0.2,1-0.8,1.1c-1,0.1-1.9-0.6-2.4-2C47,34.4,48.3,33.7,49.2,34.3z"/>
	<path class="st2" d="M45.4,35.7c0.7,0.3,1.5,0.8,2.3,0.3c0.4,0.3,0.8,0.6,0.5,1.1c-0.3,0.5-0.8,0.5-1.2,0.3
		c-0.8-0.3-1.3-0.8-1.8-1.5C45.3,35.8,45.4,35.8,45.4,35.7z"/>
	<path class="st2" d="M7.8,23.3c-1.2-0.5-1.7-1.5-1.9-2.8c-0.1-0.8,0.3-1.1,1.1-1.1c-0.3,1.3-0.1,2.6,0.9,3.6
		C7.9,23.2,7.9,23.2,7.8,23.3C7.9,23.3,7.8,23.3,7.8,23.3z"/>
	<path class="st2" d="M10.6,22.3c-0.9-0.6-1.4-1.4-1.6-2.5c-0.1-0.7,0.1-1.3,1-1.4c-0.1,1.1,0,2.1,0.5,3.1
		C10.5,21.8,10.7,22,10.6,22.3z"/>
	<path class="st2" d="M10.7,15c0.3-0.4,0.6-0.7,1.2-0.7c0.2,0.6,1.3,0.5,1,1.4c-0.4,0.2-0.8,0.4-1.2,0.6C11.4,16.3,11.3,16,11,16
		C10.9,15.7,10.6,15.4,10.7,15z"/>
	<path class="st2" d="M14.4,14.2c0.3,0.4,0.8,0.3,1.1,0.5c0.3,0.2,0.6,0.2,0.8,0.5c-0.3,0.7-1.2,0.3-1.6,0.8c-0.3-0.3-0.5-0.8-1-0.9
		l0,0c-0.1-0.1-0.1-0.1-0.2-0.2c-0.1-0.2-0.4-0.2-0.4-0.5C13.6,14.3,14,14.2,14.4,14.2z"/>
	<path class="st0" d="M10.6,22.3c0.1-0.3,0-0.5-0.1-0.7c-0.5-1-0.5-2-0.5-3.1c0.9-0.2,1,0.6,1.2,1.1c-0.1,0.5-0.4,1-0.3,1.5
		c0,0.5,0.1,1,0.1,1.4c-0.1,0.1-0.2,0-0.3-0.1c0,0,0.1-0.1,0.1-0.1C10.7,22.3,10.6,22.3,10.6,22.3L10.6,22.3z"/>
	<path class="st2" d="M23.2,14.2c0.1-0.1,0.2-0.2,0.2-0.3c0.1-0.2,0.1-0.3,0-0.5c0.5-0.6,0.9-1.2,1.8-1.1c0.3,0,0.7,0.1,0.9,0.4
		c-0.8-0.1-1.5,0-1.8,0.8c-0.4,0.9,0,1.6,0.6,2.2c-0.4,0.3-0.6-0.2-0.9-0.2c0-0.6-0.6-0.5-0.9-0.8c0.1-0.1,0.2-0.1,0.3-0.2
		c0.1,0,0.2-0.1,0.1-0.3C23.3,14.3,23.3,14.3,23.2,14.2z"/>
	<path class="st2" d="M29.5,22.2c0.1-0.2,0.1-0.4,0.2-0.6c1.3-0.3,1.6-1.3,1.9-2.3c0.2-0.6,0.2-1.3,1-1.6c0,0,0.1,0.1,0.1,0.1
		c-0.6,0.8-0.7,1.8-1,2.7C31.3,21.6,30.6,22.2,29.5,22.2z"/>
	<path class="st2" d="M8.5,16.8c0-0.6,0-1.2,0.4-1.8c0.4,0,0.8-0.3,1.2,0c-0.1,0.5,0.3,0.8,0.2,1.3c-0.7,0-1.2,0.6-1.8,0.7
		C8.5,17,8.5,16.9,8.5,16.8z"/>
	<path class="st0" d="M7.9,23.1C7,22.1,6.7,20.8,7,19.5c0.9,0.3,1.3,1,1,1.8C7.8,21.9,7.8,22.5,7.9,23.1z"/>
	<path class="st3" d="M49.5,35.7c0.3-0.6,0.5-1.2,0.1-1.7c0.5-0.7,1.4-0.2,2-0.7l0,0C51.6,34.5,50.8,35.4,49.5,35.7
		C49.6,35.8,49.5,35.7,49.5,35.7z"/>
	<path class="st3" d="M13.2,14.5c0,0.3,0.3,0.3,0.4,0.5c0.1,0.1,0.1,0.1,0.2,0.2l0,0c0,0.4,0.1,0.7,0.2,1.1
		c-0.6,0.2-1.2,0.3-1.6,0.6c-0.4,0-0.5-0.3-0.6-0.5c0.4-0.2,0.8-0.4,1.2-0.6c0.3-1-0.8-0.9-1-1.4C12.3,14.1,12.8,14.6,13.2,14.5z"/>
	<path class="st3" d="M8.6,17.1c0.6-0.2,1.1-0.7,1.8-0.7c0.1-0.5-0.3-0.9-0.2-1.3c0.2,0,0.3,0,0.5,0c-0.1,0.4,0.2,0.7,0.3,1
		c0.1,0.4,0.3,0.7,0,1.1c-0.7,0.1-1.6-0.1-2.2,0.5C8.5,17.5,8.6,17.3,8.6,17.1z"/>
	<path class="st2" d="M44.4,37.1c0.6,0.3,1.2,0.8,1.8,0.4c0.5,0.2,0.7,0.5,0.6,0.9c-1,0.6-1.9,0.2-2.6-1.1
		C44.3,37.2,44.3,37.2,44.4,37.1z"/>
	<path class="st2" d="M32,28.4c0.2-0.2,0.5-0.5,0.9-0.6c-0.2,0.9-0.6,1.7-1,2.5c-1.4-0.2-2.9,0.3-4.2-0.3c-0.2-0.7-0.2-1.3,0.2-1.8
		c0,0,0.1,0.1,0.1,0.1c-0.1,0.6-0.5,1.1,0.2,1.7c1.2,0,2.4,0,3.7,0c0.2-0.5,0.5-1,0.6-1.6C32.3,28.5,32.2,28.5,32,28.4
		C32.1,28.5,32,28.4,32,28.4z"/>
	<path class="st3" d="M49.6,35.8c0.2,0.7,0.7,0.1,1.2,0.3c-0.4,0.9-1,1.5-2,1.8c0-0.7,0.3-1.3-0.1-1.8C49,35.9,49.3,35.8,49.6,35.8
		C49.5,35.7,49.6,35.8,49.6,35.8z"/>
	<path class="st2" d="M16.9,21.1c0.2-1.4,0.1-2.7-0.5-4c0.5-0.1,0.8,0.3,0.9,0.7C17.7,18.9,17.7,20.1,16.9,21.1z"/>
	<path class="st2" d="M33.9,25.3c-0.1,0.2,0,0.5-0.3,0.7c-0.2-0.3-0.4-0.6-0.5-0.8C32.7,25,32.5,25,32.2,25c-0.3,0-0.5,0-0.8,0
		c-0.4,1.2-1,2.2-1.3,3.5c0.6,0.2,1.1,0.2,1.6,0.1c0,0,0.1,0.1,0.1,0.1c-0.6,0.3-1.3,0.2-2,0c0.2-1.4,1-2.6,1.4-3.9
		c0.7,0,1.3,0,2.2,0c0,0-0.1,0.8,0.4,0.3C33.8,25.2,33.8,25.2,33.9,25.3z"/>
	<path class="st2" d="M46.8,31.9c-0.1-0.2-0.2-0.3-0.2-0.6c0.4,0.2,0.9,0.4,1.3,0.6c0.4,0.1,0.9,0.2,1.3-0.1
		c0.3,0.2,0.6,0.4,0.6,0.8c-1,0.3-2,0-2.9-0.5l0,0C47,32,46.9,31.9,46.8,31.9z"/>
	<path class="st3" d="M19.3,19.3c0.6-1.1,0.3-2.2-0.1-3.3c-0.1-0.3-0.2-0.6-0.4-0.9l0,0c0.9,0.6,1.7,2.5,1.3,3.5
		C20,19,19.7,19.3,19.3,19.3C19.3,19.3,19.3,19.3,19.3,19.3z"/>
	<path class="st2" d="M14.1,21.6c-0.2-0.2-0.2-0.4-0.2-0.6c0.1-1.2-0.3-2.3-0.6-3.4l0,0c0.1,0,0.2,0.1,0.2,0.1
		c1.1,0.8,0.9,2,0.8,3.1C14.4,21,14.2,21.3,14.1,21.6z"/>
	<path class="st2" d="M30,23.8c0.3-0.3,0.6-0.4,1-0.4c1.2,0,2.4,0,3.6,0c-0.1,0.7-0.4,1.3-0.7,1.9c0,0-0.1-0.1-0.1-0.1
		c0.2-0.5,0.3-1,0.5-1.6c-1.5,0.2-2.9-0.2-4.2,0.3C30,23.8,30,23.8,30,23.8z"/>
	<path class="st0" d="M30.1,20.9c-0.7,0.3-1.3,0.2-2,0c-0.5-0.1-0.8-0.5-0.6-1.1c0.4,0,0.4,0.4,0.8,0.5c0.6,0,1.3,0.2,2-0.2
		C30.3,20.4,30.2,20.7,30.1,20.9z"/>
	<path class="st0" d="M30.8,18.9c-0.1-0.1-0.2-0.3-0.3-0.5c-0.9,0-1.9-0.3-2.8,0.4c0-0.2,0-0.3,0-0.5c0.6-0.2,1.3-0.3,1.6-1
		c0.5,0.4,1,0.5,1.5,0.8C30.9,18.4,30.8,18.6,30.8,18.9z"/>
	<path class="st3" d="M38.7,19.8c0.1,0.9,0.4,1.8,1.1,2.5c-0.5,0-0.9,0-1.3,0C38.1,21.5,38.5,20.7,38.7,19.8z"/>
	<path class="st3" d="M34.2,16.9c0.7-0.1,1.4,0,2,0.3c0.2,0.1,0.3,0.3,0.5,0c0.2,0.1,0.3,0.3,0.2,0.5c-1.1-0.3-2.1-0.3-3.2,0
		C33.9,17.4,34.1,17.2,34.2,16.9z"/>
	<path class="st2" d="M52.1,30.7c-0.4,0-0.5,0.5-1,0.5c0.7-1,0.2-1.8-0.4-2.5C51.7,28.9,52.1,29.5,52.1,30.7z"/>
	<path class="st0" d="M47,32.1c0.9,0.5,1.8,0.8,2.9,0.5c0.1,0.6-0.4,0.7-0.8,0.7C48.1,33.3,47.4,33,47,32.1z"/>
	<path class="st0" d="M29.4,16.6c-0.6-0.4-1-0.7-1.6-1c0.7-0.1,1,0.4,1.6,0.5c0.5-0.2,1-0.5,1.6-0.8c0,0.1,0.1,0.1,0.1,0.2
		C30.6,16,29.9,16.1,29.4,16.6z"/>
	<path class="st3" d="M34.3,5.8c-0.2-0.1-0.4-0.2-0.5-0.4c0.1-0.4,0.3-0.7,0.6-1c0.1-0.1,0.1-0.1,0.2-0.2l0,0c0.1,0,0.2,0,0.3,0
		c0.3,0.2-0.2,0.4,0,0.7c0,0,0.2,0.1,0.3,0.1C35.1,5.6,34.7,5.6,34.3,5.8z"/>
	<path class="st3" d="M23.7,4.6c0.3,0.3,0.3,0.6,0.3,1c-0.2,0.1-0.4,0.2-0.6,0.4c-0.3,0-0.4-0.3-0.8-0.5c0.6-0.1,0.4-0.5,0.3-0.7
		C23.2,4.5,23.5,5,23.7,4.6z"/>
	<path class="st2" d="M29.3,15.5c0.2-1,1.1-0.8,1.7-1.2C30.8,15.2,30,15.2,29.3,15.5z"/>
	<path class="st3" d="M18,21.4c0.1-0.5,0.3-1,0.4-1.5c0.2-0.2,0.4-0.3,0.6-0.3c0,0,0,0,0,0C18.9,20.2,18.7,20.9,18,21.4
		C18.1,21.4,18.1,21.4,18,21.4z"/>
	<path class="st0" d="M25.4,10.6c0.4,0.1,0.3,0.5,0.5,0.5c0.3,0.2,0.5-0.3,0.9-0.1c-0.2,0.4-0.4,0.6-0.9,0.5
		C25.4,11.4,25.2,11.1,25.4,10.6z"/>
	<path class="st0" d="M31.9,10.9c0.4,0,0.6,0.1,0.7,0.1c0.4-0.1,0.2-0.6,0.5-0.6c0.1,0,0.1,0,0.1,0.1c0.2,0.4,0,0.7-0.3,0.9
		C32.6,11.5,32.3,11.5,31.9,10.9z"/>
	<path class="st3" d="M48.5,38c-0.1,0.5-0.4,0.6-0.7,0.7c-0.3-0.1-0.4-0.3-0.3-0.6C47.8,37.9,48.1,38,48.5,38z"/>
	<path class="st2" d="M27.7,18.3c0,0.2,0,0.3,0,0.5c0,0.1,0,0.3,0,0.5c-0.4-0.3-0.5-0.6-0.6-1C27.4,18.1,27.6,18.2,27.7,18.3z"/>
	<path class="st2" d="M10.7,12.7c0-0.1,0-0.2,0-0.3c0-0.1,0-0.1,0.1-0.2c0.3,0,0.7,0,1,0C11.4,12.6,11,12.6,10.7,12.7z"/>
	<path class="st2" d="M30.8,18.9c0-0.3,0-0.5,0.1-0.8c0.2,0,0.3-0.1,0.5,0.1C31.2,18.8,31.2,18.8,30.8,18.9z"/>
	<path class="st2" d="M30.1,20.9c0.1-0.3,0.1-0.5,0.2-0.8v0c0.1,0,0.2,0,0.3,0C30.6,20.5,30.5,20.8,30.1,20.9z"/>
	<path class="st2" d="M27.9,28.3c0.1-0.3,0.1-0.6,0.3-0.9c0,0,0.1,0.1,0.1,0.1c-0.1,0.3-0.2,0.6-0.3,0.9
		C28,28.3,27.9,28.3,27.9,28.3z"/>
	<path class="st2" d="M28.2,27.4c0.1-0.3,0.1-0.6,0.3-0.9c0,0,0.1,0.1,0.1,0.1c-0.1,0.3-0.2,0.6-0.3,0.9
		C28.3,27.5,28.3,27.4,28.2,27.4z"/>
	<path class="st2" d="M28.6,26.5c0.1-0.3,0.1-0.6,0.3-0.9c0,0,0.1,0.1,0.1,0.1c-0.1,0.3-0.2,0.6-0.3,0.9
		C28.6,26.6,28.6,26.6,28.6,26.5z"/>
	<path class="st2" d="M28.9,25.7c0.1-0.3,0.1-0.6,0.4-0.9c0,0,0.1,0.1,0.1,0.1c-0.1,0.3-0.2,0.6-0.4,0.9
		C29,25.7,28.9,25.7,28.9,25.7z"/>
	<path class="st2" d="M31.1,14.3c0-0.2,0-0.5,0.3-0.5C31.3,14,31.3,14.2,31.1,14.3z"/>
	<path class="st2" d="M29.4,24.4c0.1-0.2,0.1-0.4,0.4-0.5c0,0,0.1,0.1,0.1,0.1c-0.1,0.2-0.2,0.3-0.3,0.5
		C29.5,24.5,29.5,24.5,29.4,24.4z"/>
	<path class="st3" d="M33.6,11.4c0,0.2-0.1,0.3-0.2,0.3C33.3,11.4,33.5,11.4,33.6,11.4z"/>
	<path class="st0" d="M30.7,20.2c-0.1,0-0.2,0-0.3,0c0-0.2,0.1-0.3,0.2-0.3C30.8,19.9,30.7,20.1,30.7,20.2z"/>
	<path class="st3" d="M33.8,10.5c0,0.3,0,0.4,0,0.5C33.6,10.9,33.7,10.8,33.8,10.5z"/>
	<path class="st0" d="M45.4,35.7c-0.1,0.1-0.1,0.1-0.2,0.2c-0.1-0.1-0.2-0.2-0.1-0.3C45.3,35.5,45.4,35.6,45.4,35.7z"/>
	<path class="st0" d="M44.4,37.1c-0.1,0.1-0.1,0.1-0.2,0.2c-0.1-0.1-0.1-0.2-0.2-0.2C44.2,36.9,44.3,37,44.4,37.1z"/>
	<path class="st3" d="M22.9,7.7c0.1,0,0.1,0,0.2,0C23,7.8,22.9,7.9,22.9,8C22.7,7.9,22.8,7.8,22.9,7.7z"/>
	<path class="st3" d="M17.4,5.7c-0.1,0.1-0.2,0.1-0.3,0.2C17.1,5.7,17.2,5.6,17.4,5.7C17.4,5.6,17.4,5.7,17.4,5.7z"/>
	<path class="st2" d="M31.4,17.3c0.1-0.3,0.3-0.2,0.5-0.2C31.8,17.3,31.6,17.3,31.4,17.3z"/>
	<path class="st2" d="M31.7,28.6c0.1-0.1,0.2-0.1,0.3-0.2c0,0,0.1,0.1,0.1,0.1c-0.1,0.1-0.2,0.1-0.3,0.2
		C31.8,28.7,31.7,28.6,31.7,28.6z"/>
	<path class="st3" d="M18.6,14.8c0.1,0.1,0.2,0.2,0.2,0.3l0,0C18.6,15.1,18.6,15,18.6,14.8L18.6,14.8z"/>
	<path class="st2" d="M5.5,18.1c0,0.2,0,0.3-0.2,0.4C5.3,18.3,5.3,18.1,5.5,18.1z"/>
	<path class="st3" d="M24.9,11.5c-0.1-0.1-0.1-0.1,0-0.2C25,11.3,25,11.4,24.9,11.5z"/>
	<path class="st3" d="M31.1,13c-0.1,0.1-0.1,0.2-0.3,0.1C30.8,12.9,30.9,12.9,31.1,13C31,12.9,31.1,12.9,31.1,13z"/>
	<path class="st2" d="M16.7,21.3c0.1-0.1,0.1-0.2,0.2-0.3C16.9,21.2,16.9,21.3,16.7,21.3z"/>
	<path class="st2" d="M29.3,24.8c0.1-0.1,0.1-0.2,0.2-0.3c0,0,0.1,0.1,0.1,0.1c-0.1,0.1-0.1,0.2-0.2,0.3
		C29.3,24.9,29.3,24.8,29.3,24.8z"/>
	<path class="st2" d="M35.6,3c0-0.1,0-0.1,0-0.2c0,0,0.1,0,0.1,0C35.7,2.9,35.6,3,35.6,3z"/>
	<path class="st2" d="M22.1,2.9c0,0,0.1-0.1,0.1-0.1c0,0,0.1,0.1,0.1,0.1C22.2,2.9,22.1,2.9,22.1,2.9z"/>
	<polygon class="st3" points="22.7,4.6 22.7,4.5 22.7,4.5 	"/>
	<path class="st3" d="M18.1,21.4c0,0-0.1,0.1-0.1,0.1C17.9,21.4,18,21.4,18.1,21.4C18.1,21.4,18.1,21.4,18.1,21.4z"/>
	<path class="st3" d="M17.7,21.9C17.8,21.9,17.8,21.9,17.7,21.9C17.8,21.9,17.8,21.9,17.7,21.9L17.7,21.9z"/>
	<path class="st3" d="M17.7,21.9C17.7,21.9,17.7,21.9,17.7,21.9C17.7,22,17.7,21.9,17.7,21.9L17.7,21.9z"/>
	<path class="st2" d="M10.6,22.3c0,0,0.1,0,0.1,0.1c0,0-0.1,0.1-0.1,0.1C10.6,22.4,10.6,22.4,10.6,22.3
		C10.6,22.3,10.6,22.3,10.6,22.3z"/>
	<path class="st2" d="M7.9,23.3c0,0,0.1,0.1,0.1,0.1C7.9,23.4,7.9,23.4,7.9,23.3C7.8,23.3,7.9,23.3,7.9,23.3z"/>
	<path class="st3" d="M19.3,19.4c-0.1,0-0.1,0.1-0.2,0.1c0,0,0,0,0,0C19.2,19.4,19.2,19.4,19.3,19.4C19.3,19.3,19.3,19.3,19.3,19.4z
		"/>
	<path class="st2" d="M32.5,17.7c0.1-0.1,0.1-0.1,0.2-0.2c0,0,0.1,0.1,0.1,0.1c-0.1,0.1-0.1,0.1-0.2,0.2
		C32.6,17.8,32.6,17.7,32.5,17.7z"/>
	<path class="st2" d="M29.8,23.9c0.1-0.1,0.1-0.1,0.2-0.2c0,0,0.1,0.1,0.1,0.1C30,23.9,30,24,29.9,24C29.9,24,29.8,24,29.8,23.9z"/>
	<path class="st0" d="M13.6,17.6c-0.1,0-0.2-0.1-0.2-0.1C13.5,17.4,13.6,17.5,13.6,17.6z"/>
	<path class="st2" d="M4.3,17.5c0,0,0.1,0,0.1,0C4.4,17.5,4.3,17.5,4.3,17.5z"/>
	<path class="st3" d="M18.6,14.8C18.6,14.8,18.6,14.8,18.6,14.8C18.6,14.8,18.6,14.8,18.6,14.8L18.6,14.8z"/>
	<path class="st3" d="M48.9,31.1c0,0-0.1,0-0.1,0.1C48.8,31.1,48.8,31.1,48.9,31.1C48.8,31.1,48.9,31.1,48.9,31.1z"/>
	<path class="st3" d="M27.5,14c0,0,0-0.1,0-0.1C27.5,13.9,27.6,13.9,27.5,14C27.6,13.9,27.6,14,27.5,14z"/>
	<path class="st0" d="M46.8,31.9c0.1,0,0.1,0.1,0.1,0.2C46.8,32.1,46.8,32,46.8,31.9z"/>
	<path class="st3" d="M51.6,33.3c0,0,0.1,0,0.2-0.1C51.7,33.3,51.7,33.3,51.6,33.3L51.6,33.3z"/>
	<path class="st0" d="M25.2,38c0.4-0.2,0.4-0.2,0.7-0.2C26,38,26,38,25.2,38z"/>
	<path class="st1" d="M30.1,6.2c-0.2,1-0.4,2,0.2,3c-0.3,0.3-0.6,0.5-0.9,0.8C28.7,9,29,7,30.1,6.2C30,6.2,30,6.2,30.1,6.2z"/>
	<path class="st2" d="M23.4,13.5c0.1,0.2,0.1,0.3,0,0.5c-1-0.4-1.9-0.9-2.7-1.5c0.1-0.1,0.1-0.1,0.2-0.2
		C21.7,12.7,22.5,13.2,23.4,13.5z"/>
	<path class="st2" d="M23,14.9c0.3,0.2,0.9,0.2,0.9,0.8c-0.7-0.3-1.5-0.4-2.1-1C22.3,14.5,22.6,14.9,23,14.9z"/>
	<path class="st2" d="M23.2,14.2c0.1,0.1,0.2,0.1,0.3,0.2c0,0.1,0,0.2-0.1,0.3c-0.6-0.3-1.3-0.6-1.9-0.9c0.1-0.1,0.1-0.1,0.2-0.2
		C22.1,13.8,22.6,14,23.2,14.2z"/>
	<path class="st0" d="M21.5,13.6c-0.1,0.1-0.1,0.1-0.2,0.2c-0.3-0.2-0.7-0.4-1.1-0.6c0-0.1,0-0.2,0-0.2
		C20.7,13.1,21.1,13.3,21.5,13.6z"/>
	<path class="st0" d="M20.5,14c0.4,0.2,0.8,0.3,1.2,0.5c-0.1,0-0.2,0.1-0.3,0.1C21,14.5,20.7,14.3,20.5,14L20.5,14z"/>
	<path class="st0" d="M20.8,12.2c-0.1,0.1-0.1,0.1-0.2,0.2c-0.2-0.2-0.5-0.3-0.7-0.5c0-0.1,0-0.2,0-0.3C20.2,11.8,20.5,12,20.8,12.2
		z"/>
	<path class="st2" d="M20.3,12.9c0,0.1,0,0.2,0,0.2c-0.1-0.1-0.2-0.1-0.2-0.3C20.2,12.7,20.3,12.8,20.3,12.9z"/>
	<path class="st2" d="M19.9,11.6c0,0.1,0,0.2,0,0.3c-0.1-0.1-0.2-0.2-0.3-0.3l0.1-0.1C19.8,11.5,19.9,11.6,19.9,11.6z"/>
	<path class="st2" d="M21.4,14.6c0.1,0,0.2-0.1,0.3-0.1c0,0.1,0.1,0.2,0,0.2C21.6,14.7,21.5,14.6,21.4,14.6z"/>
	<path class="st1" d="M30,6.1c0,0,0.1,0,0.1-0.1C30.1,6.1,30.1,6.2,30,6.1C30,6.2,30,6.2,30,6.1z"/>
	<path class="st2" d="M19.6,11.6c0,0,0-0.1-0.1-0.1C19.6,11.5,19.6,11.5,19.6,11.6C19.7,11.5,19.6,11.6,19.6,11.6z"/>
	<path class="st1" d="M27.9,14C28,14,28,14,27.9,14C28,14,28,14,27.9,14L27.9,14z"/>
	<polygon class="st0" points="20.5,14 20.5,13.9 20.5,14 	"/>
	<path class="st3" d="M7,27.8c-0.1,0.4-0.2,0.8-0.5,1c-0.3,0.1-0.7,0.1-1,0c0.2-0.7,0.5-1.3,0.8-2C6.6,27.1,6.8,27.3,7,27.8z"/>
	<path class="st2" d="M7.4,25.7c-0.3,0.4-0.7,0.5-1.1,0.7C6.6,25.9,6.8,25.4,7,25c0,0,0.1,0.1,0.1,0.1c0,0.1,0,0.3-0.1,0.4
		C7.2,25.6,7.3,25.6,7.4,25.7z"/>
	<path class="st2" d="M7,25c0.5-0.4,1-0.1,1.7-0.2c-0.3,0.4-0.6,0.6-1,0.7c-0.1-0.1,0.1-0.3-0.2-0.5c-0.1,0-0.3,0-0.4,0
		C7.1,25.1,7,25,7,25z"/>
	<path class="st1" d="M7.1,25.1c0.2,0,0.3,0,0.4,0c0.2,0.1,0.1,0.3,0.2,0.5h0c-0.1,0-0.2,0-0.3,0.2l0,0c-0.1-0.1-0.2-0.1-0.4-0.2
		C7.1,25.4,7.1,25.2,7.1,25.1z"/>
	<path class="st2" d="M7.5,25.7c0-0.1,0.1-0.2,0.3-0.2C7.7,25.7,7.6,25.7,7.5,25.7z"/>
	<path class="st3" d="M24.8,25.9c0.1-0.3,0.3-0.7,0.4-1c0.5,0,1,0,1.6,0c-0.4,0.5-0.9,0.8-1.4,1.1c-0.1,0.1-0.1,0.1-0.2,0.2h0
		c-0.1,0-0.1,0.1-0.2,0.1l0,0C24.9,26.1,24.9,26,24.8,25.9z"/>
	<path class="st2" d="M24.8,25.9c0,0.1,0.1,0.2,0.1,0.3c-0.1,0.1-0.2,0.1-0.2,0.2C24.6,26.2,24.7,26,24.8,25.9z"/>
	<path class="st2" d="M25.2,26.1c0.1-0.1,0.1-0.1,0.2-0.2C25.3,26,25.2,26,25.2,26.1z"/>
	<path class="st2" d="M25,26.2c0.1,0,0.1-0.1,0.2-0.1C25.1,26.1,25,26.2,25,26.2z"/>
	<path class="st2" d="M36.9,26.1c0-0.5,0.3-0.8,0.5-1.2c0.1,0,0.1,0,0.2,0c-0.1,0.8-0.2,1.5-0.3,2.3c-0.4,0.2-0.6,0.2-1,0
		C36.5,26.8,36.6,26.4,36.9,26.1c0.2,0.3-0.3,0.6,0,1.1C37.1,26.7,37.5,26.4,36.9,26.1z"/>
	<path class="st3" d="M19.3,25.7c0,0.2,0,0.3-0.1,0.5c-0.2,0.2-0.1,0.4-0.1,0.6c0,0.1,0,0.3,0,0.4c-0.3,0-0.6,0-0.9,0
		c0-0.3,0.1-0.6,0.4-0.8c0.1,0.1-0.1,0.4,0.2,0.5c0.1-0.3,0.3-0.5-0.2-0.5c0-0.5,0.4-0.9,0.6-1.4C19.4,25.2,19.2,25.5,19.3,25.7z"/>
	<path class="st2" d="M19.3,25.7c-0.1-0.2,0.1-0.5-0.1-0.7c0-0.1,0.1-0.2,0.3-0.2C19.5,25.1,19.4,25.4,19.3,25.7z"/>
	<path class="st2" d="M19.1,26.8c0-0.2-0.1-0.4,0.1-0.6C19.3,26.4,19.3,26.6,19.1,26.8z"/>
	<path class="st2" d="M35.6,14.1c0-0.2-0.3-0.1-0.4-0.5c1-0.3,2.1-0.8,3-1.5c0,0.1,0,0.2,0,0.2c-0.6,0.7-1.4,1-2.1,1.4
		C35.9,13.9,35.6,13.8,35.6,14.1L35.6,14.1z"/>
	<path class="st2" d="M37.8,13.6c-0.8,0.6-1.7,1-2.7,1.2c-0.1-0.5,0.4-0.4,0.4-0.7l0,0c0.9,0.1,1.5-0.5,2.3-0.8
		C37.8,13.4,37.8,13.5,37.8,13.6z"/>
	<path class="st2" d="M36.6,15c-0.6,0.3-1.2,0.5-1.8,0.6c-0.1,0-0.2-0.1-0.3-0.1c0.5-0.6,1.3-0.4,1.9-0.7
		C36.5,14.8,36.6,14.9,36.6,15z"/>
	<path class="st0" d="M38.2,12.4c0-0.1,0-0.2,0-0.2c0.1-0.1,0.2-0.2,0.4-0.4C38.6,12.1,38.4,12.2,38.2,12.4z"/>
	<path class="st0" d="M37.8,13.6c0-0.1,0-0.2,0-0.2c0.1-0.1,0.2-0.2,0.4-0.2C38.2,13.4,38,13.5,37.8,13.6z"/>
	<path class="st0" d="M34.5,15.4c0.1,0,0.2,0.1,0.3,0.1c-0.1,0-0.2,0.1-0.2,0.1c-0.2,0-0.2-0.2-0.2-0.3l0,0
		C34.4,15.4,34.5,15.4,34.5,15.4z"/>
	<path class="st0" d="M37.1,14.7c0.1-0.3,0.2-0.3,0.4-0.3C37.5,14.6,37.3,14.6,37.1,14.7z"/>
	<path class="st0" d="M36.6,15c-0.1-0.1-0.1-0.1-0.2-0.2c0.1-0.1,0.3-0.2,0.5-0.1C37,14.9,36.8,14.9,36.6,15z"/>
	<path class="st1" d="M34.7,4.3c-0.1,0.1-0.1,0.1-0.2,0.2C34.5,4.3,34.5,4.2,34.7,4.3z"/>
	<path class="st1" d="M6.5,34c0.1-0.5,0.2-0.8,0.8-0.5C7.2,34,7,34.2,6.5,34z"/>
	<path class="st1" d="M7,32.9c0.1-0.5,0.3-0.5,0.7-0.3C7.6,32.9,7.4,33,7,32.9z"/>
	<path class="st1" d="M37.9,34c0.1-1.1,0.4-1.5,1.2-1.4C39.1,33.7,38.7,34.1,37.9,34z"/>
	<path class="st1" d="M26,32.9c0.1,0.4,0.1,0.7-0.4,0.6C25.5,33.1,25.8,33.1,26,32.9z"/>
	<path class="st1" d="M24,6.9C24,6.9,24,6.8,24,6.9C24,6.8,24,6.8,24,6.9L24,6.9z"/>
	<path class="st1" d="M13.8,15.2c-0.1-0.1-0.1-0.1-0.2-0.2C13.6,15.1,13.7,15.1,13.8,15.2z"/>
	<path class="st2" d="M29.9,24c0.1-0.1,0.1-0.1,0.2-0.2c1.4-0.5,2.8-0.1,4.2-0.3c-0.2,0.6-0.4,1.1-0.5,1.6c-0.5,0.5-0.4-0.3-0.4-0.3
		c-0.9,0-1.5,0-2.2,0c-0.4,1.3-1.2,2.5-1.4,3.9c0.8,0.1,1.4,0.3,2,0c0.1-0.1,0.2-0.1,0.3-0.2c0.1,0,0.2,0,0.3-0.1
		c0,0.6-0.4,1-0.6,1.6c-1.3,0-2.5,0-3.7,0c-0.7-0.5-0.3-1.1-0.2-1.7c0.1-0.3,0.2-0.6,0.3-0.9c0.1-0.3,0.2-0.6,0.3-0.9
		c0.1-0.3,0.2-0.6,0.3-0.9c0.1-0.3,0.2-0.6,0.4-0.9c0.1-0.1,0.1-0.2,0.2-0.3C29.7,24.4,29.8,24.2,29.9,24z"/>
	<path class="st1" d="M36.9,26.1c0.6,0.3,0.2,0.6,0,1.1C36.6,26.7,37.1,26.4,36.9,26.1L36.9,26.1z"/>
	<path class="st1" d="M18.6,26.4c0.5-0.1,0.3,0.2,0.2,0.5C18.5,26.8,18.7,26.5,18.6,26.4L18.6,26.4z"/>
</g>
</svg>
