<?xml version="1.0" encoding="utf-8"?>
<!-- Generator: Adobe Illustrator 21.0.0, SVG Export Plug-In . SVG Version: 6.00 Build 0)  -->
<svg version="1.1" id="Layer_1" xmlns="http://www.w3.org/2000/svg" xmlns:xlink="http://www.w3.org/1999/xlink" x="0px" y="0px"
	 viewBox="0 0 64.6 40.7" style="enable-background:new 0 0 64.6 40.7;" xml:space="preserve">
<style type="text/css">
	.st0{fill:#FFFFFF;}
	.st1{fill:#131832;}
</style>
<g transform="matrix(1.25 0 0 -1.25 -575.81 809.23)">
	<g transform="translate(.55507 .83260)">
		<path class="st0" d="M511.7,631.2c-0.1,6.5-1.1,10-3.6,12.5c-2.4,2.4-5.4,2.8-9.5,2.8h-38.6l18-24.2h5.5V614h15.2
			c4.1,0,7.1,0.5,9.5,2.8c2.5,2.5,3.5,6.1,3.6,12.8L511.7,631.2L511.7,631.2z M495.6,636.2h1.7c0.7,0,1.1,0,1.4,0
			c0.1-0.8,0.2-2.5,0.2-5l0-1.6c0-1.1,0-4-0.2-5.2c-0.3,0-0.7,0-1.4,0h-1.7V636.2z"/>
		<path class="st1" d="M464.1,644.6l4.7-6.4h10.1l4.4,6.4H464.1z M485.3,644.6l-4.4-6.4h7.4l-3-1.6v-5.4h8.4v7h3.7
			c1.8,0,2.5-0.1,2.9-0.5c0.4-0.4,0.6-1.5,0.6-6.5h8.8c-0.1,6.5-1.1,9.3-3,11.1c-1.7,1.7-3.9,2.2-8,2.2H485.3L485.3,644.6z
			 M483.5,636.5l-13.5,0l4-5.4h9.5V636.5L483.5,636.5z M475.2,629.6l4.2-5.7l3.9,5.7H475.2L475.2,629.6z M485.2,629.6l-4-5.7h7
			l-3-1.5l0-6.4h13.4c4.1,0,6.3,0.5,8.1,2.2c1.9,1.9,2.9,4.7,3,11.4h-8.8c0-5.2-0.2-6.3-0.6-6.7c-0.4-0.4-1.1-0.5-2.9-0.5h-3.7v7.2
			H485.2L485.2,629.6z"/>
	</g>
</g>
</svg>
