<?xml version="1.0" encoding="utf-8"?>
<!-- Generator: Adobe Illustrator 21.0.0, SVG Export Plug-In . SVG Version: 6.00 Build 0)  -->
<svg version="1.1" id="Layer_1" xmlns="http://www.w3.org/2000/svg" xmlns:xlink="http://www.w3.org/1999/xlink" x="0px" y="0px"
	 viewBox="0 0 49 43.1" style="enable-background:new 0 0 49 43.1;" xml:space="preserve">
<style type="text/css">
	.st0{fill:#121A33;}
	.st1{fill:#FFFFFF;}
	.st2{fill:#FDFDFD;}
	.st3{fill:#C7C6C5;}
</style>
<path class="st0" d="M49,0.7c-0.8,1.7-0.9,3.6-1.3,5.3c-0.8,3.1-1.4,6.1-2.1,9.2c-0.5,0.2-0.8-0.2-1.1-0.4c-1.8-1.3-3.6-2.6-5.4-3.9
	c-0.4-0.2-0.7-0.5-1.2-0.5c-4.4,0-8.9,0-13.3,0c-0.5,0-0.8,0.1-0.8,0.6c-0.2,1-0.4,2-0.6,3c-0.1,0.5-0.2,0.9-0.4,1.4
	c4.7,0,9.3,0,13.9,0c0.9,0,1.2,0.1,0.9,1.1c-0.7,2.5-1.2,5.1-1.8,7.6c-4.7,0-9.3,0-14,0c-0.5,0-1.1-0.2-1.2,0.6
	c-0.2,0.9-0.4,1.9-0.6,2.8c-0.9,3.5-1.7,7.1-2.6,10.6c-0.1,0.5-0.3,0.9-0.4,1.4c-0.6,0-1.3,0-1.9,0c-4.5,0-9.1,0-13.6,0
	c0-0.2,0-0.3,0-0.5c1.6-7.1,3.3-14.3,4.9-21.5C7,15.1,7.8,12.7,8,10.2C8.4,9.7,8.3,9,8.5,8.5c0.4-1,0.1-1.6-0.7-2.3
	c-1.2-1-2.4-2.1-3.6-3.1C3.1,2.3,2.2,1.1,0.9,0.5C0.8,0.3,0.6,0.2,0.5,0c15.9,0,31.7,0,47.6,0C48.7,0,49.2-0.1,49,0.7z M43.8,11.3
	c0.6-2.6,1.1-5.1,1.8-7.5c0.3-1.1,0-1.3-1.1-1.3c-11.8,0-23.6,0-35.4,0c-0.4,0-0.9-0.1-1.4,0.2c0.8,1.1,1.8,1.8,2.8,2.6
	c1,0.7,1,1.4,0.7,2.5c-2.2,9.4-4.4,18.9-6.5,28.4c-0.2,0.8,0,1,0.8,1c2.9,0,5.7,0,8.6,0c0.8,0,1.1-0.2,1.3-1c1-4.3,2.1-8.5,3-12.8
	c0.3-1.2,0.7-1.7,2-1.7c3.6,0.1,7.3,0,10.9,0c2.6,0,2.5,0,3.1-2.5c0.3-1,0-1.2-0.9-1.2c-4.3,0-8.6,0-12.8,0c-0.8,0-1-0.1-0.8-1
	c0.7-2.7,1.3-5.3,1.8-8c0.2-0.8,0.5-1,1.3-1c4.4,0,8.9,0.1,13.3,0c2.1-0.1,3.9,0.3,5.4,1.8C42.3,10.3,43,10.7,43.8,11.3z"/>
<path class="st1" d="M0.8,43.1c0.3-1.2,0.7-2.4,0.7-3.6c4.5,0,9.1,0,13.6,0c0.6,0,1.3,0,1.9,0c-0.1,1.2-0.5,2.4-0.8,3.5
	C11.1,43.1,5.9,43.1,0.8,43.1z"/>
<path class="st1" d="M8,10.2C6.5,9.6,5.6,8.3,4.3,7.3C2.9,6.2,1.5,4.9,0,3.6c0-0.3,0-0.7,0-1C0.6,2.1,0.2,1,0.9,0.5
	c1.3,0.7,2.2,1.8,3.3,2.7c1.2,1,2.4,2.1,3.6,3.1c0.8,0.6,1.1,1.3,0.7,2.3C8.3,9,8.4,9.7,8,10.2z"/>
<path class="st2" d="M0.9,0.5C0.2,1,0.6,2.1,0,2.7c0-0.8,0-1.5,0-2.3C0-0.1,0.3,0,0.5,0C0.6,0.2,0.8,0.3,0.9,0.5z"/>
<path class="st1" d="M23.2,14c0.2-1,0.4-2,0.6-3c0.1-0.5,0.4-0.6,0.8-0.6c4.4,0,8.9,0,13.3,0c0.5,0,0.8,0.3,1.2,0.5
	c1.8,1.3,3.6,2.6,5.4,3.9c0.3,0.2,0.6,0.6,1.1,0.4c0,1-0.4,1.9-0.6,3c-0.1,0.7-0.4,0.8-1,0.3c-1.7-1.3-3.4-2.4-5.1-3.7
	c-0.8-0.6-1.5-0.8-2.4-0.8C32.1,14.1,27.7,14,23.2,14z"/>
<path class="st1" d="M20.1,27.6c0.2-0.9,0.4-1.9,0.6-2.8c0.1-0.8,0.8-0.6,1.2-0.6c4.7,0,9.3,0,14,0c-0.7,3.5-0.7,3.5-4.2,3.5
	C27.8,27.7,23.9,27.6,20.1,27.6z"/>
<path class="st3" d="M43.8,11.3c-0.8-0.6-1.5-1-2.1-1.5c-1.5-1.5-3.3-1.9-5.4-1.8C31.9,8.1,27.4,8,23,8c-0.8,0-1.1,0.2-1.3,1
	c-0.6,2.7-1.2,5.4-1.8,8c-0.2,0.9,0,1,0.8,1c4.3,0,8.6,0,12.8,0c1,0,1.2,0.2,0.9,1.2c-0.6,2.4-0.6,2.5-3.1,2.5
	c-3.6,0-7.3,0.1-10.9,0c-1.4,0-1.8,0.4-2,1.7c-0.9,4.3-2,8.5-3,12.8c-0.2,0.8-0.5,1-1.3,1c-2.9,0-5.7,0-8.6,0c-0.8,0-0.9-0.2-0.8-1
	C6.9,26.7,9,17.2,11.2,7.8c0.2-1,0.2-1.7-0.7-2.5c-1-0.8-2.1-1.5-2.8-2.6c0.5-0.3,0.9-0.2,1.4-0.2c11.8,0,23.6,0,35.4,0
	c1.1,0,1.4,0.1,1.1,1.3C44.9,6.2,44.4,8.6,43.8,11.3z"/>
</svg>
