<?xml version="1.0" encoding="utf-8"?>
<!-- Generator: Adobe Illustrator 21.0.0, SVG Export Plug-In . SVG Version: 6.00 Build 0)  -->
<svg version="1.1" id="Layer_1" xmlns="http://www.w3.org/2000/svg" xmlns:xlink="http://www.w3.org/1999/xlink" x="0px" y="0px"
	 viewBox="0 0 59.8 37.8" style="enable-background:new 0 0 59.8 37.8;" xml:space="preserve">
<style type="text/css">
	.st0{fill:#131933;stroke:#FFFFFF;stroke-width:1.8;}
</style>
<g transform="matrix(1.25 0 0 -1.25 -385.85 468.7)">
	<path class="st0" d="M328,358h3.5l0.4,2.2h2.2c-0.6-4-4.7-6.4-9.3-6c-4.6,0.3-8.8,2.9-8.8,7.3c0,4.8,4.1,7.9,8.7,8.1
		c2.9,0.1,6-1,8.1-2.8c0.2-0.1,0.1,0,0.3-0.2h4.2v7.7h-4.1v-2.7h0c-2.1,1.5-5.6,2.6-9.3,2.6c-7.8,0-14.6-6.1-14.5-12.8
		c0.1-6.9,7.3-11.9,15.1-11.3c3.6,0.3,6.9,1.2,9.1,2.4v-1.1h4.4v8.7h2.1v-10.5h-2.5v-4.1h10.8v4.1h-2.5v10.5h6.1l0.4-2.2h3.5v6.8
		H328V358L328,358z"/>
</g>
</svg>
