<?xml version="1.0" encoding="utf-8"?>
<!-- Generator: Adobe Illustrator 21.0.0, SVG Export Plug-In . SVG Version: 6.00 Build 0)  -->
<svg version="1.1" id="Layer_1" xmlns="http://www.w3.org/2000/svg" xmlns:xlink="http://www.w3.org/1999/xlink" x="0px" y="0px"
	 viewBox="0 0 35.6 41.9" style="enable-background:new 0 0 35.6 41.9;" xml:space="preserve">
<style type="text/css">
	.st0{fill:#FFFFFF;stroke:#131832;stroke-width:7.200000e-02;stroke-miterlimit:10;}
	.st1{fill:#131832;stroke:#131832;stroke-width:7.200000e-02;stroke-miterlimit:10;}
	.st2{fill:#131832;}
	.st3{fill:#FFFFFF;}
</style>
<g>
	<g>
		<g>
			<path class="st0" d="M0.1,0.1v13.7c0,17.5,11.8,24.5,17.7,27.9c5.9-3.4,17.7-10.4,17.7-27.9V0.1H17.8H0.1z"/>
			<path class="st1" d="M17.8,41.8L17.8,41.8c-2.8-1.6-7.3-4.2-11.1-8.7C2.3,27.9,0,21.4,0,13.8V0h35.6v13.8
				c0,7.6-2.2,14.1-6.7,19.3C25.1,37.6,20.6,40.2,17.8,41.8L17.8,41.8z M0.2,0.2v13.6c0,7.5,2.2,14,6.6,19.2c3.7,4.4,8.3,7,11,8.6
				c2.7-1.6,7.2-4.2,11-8.6c4.4-5.2,6.6-11.7,6.6-19.2V0.2H0.2z"/>
		</g>
	</g>
	<g>
		<g>
			<path class="st2" d="M1.5,1.5v12.3c0,16.2,10.3,22.8,16.3,26.3c6-3.5,16.3-10,16.3-26.3V1.5H17.8H1.5z"/>
			<path class="st2" d="M17.8,40.2L17.8,40.2c-3.6-2.1-7.3-4.5-10.5-8.4c-3.9-4.8-5.9-10.9-5.9-18V1.4h32.7v12.4
				c0,7.1-2,13.1-5.9,18C25.2,35.6,21.4,38.1,17.8,40.2L17.8,40.2z M1.6,1.6v12.2c0,7,2,13,5.9,17.9c3.1,3.8,6.8,6.2,10.3,8.3
				c3.5-2.1,7.2-4.5,10.3-8.3C32,26.8,34,20.8,34,13.8V1.6H1.6z"/>
		</g>
	</g>
	<g>
		<path class="st3" d="M9.2,5v3.4h1.1v16.2H9.2V28H15v-3.4h-1.1v-6.3h7.9v6.3h-1.1V28h5.8v-3.4h-1.1V8.4h1.1V5h-5.8v3.4h1.1v6.3
			h-7.9V8.4H15V5H9.2z"/>
	</g>
	<g>
		<path class="st2" d="M27.3,28.9h-7.6v-5.2h1.1v-4.6h-6.1v4.6h1.1v5.2H8.3v-5.2h1.1V9.3H8.3V4.1h7.6v5.2h-1.1v4.6h6.1V9.3h-1.1V4.1
			h7.6v5.2h-1.1v14.5h1.1V28.9z M19.9,28.7h7.2v-4.8H26V9.1h1.1V4.3h-7.2v4.8h1.1V14h-6.5V9.1h1.1V4.3H8.5v4.8h1.1v14.8H8.5v4.8h7.2
			v-4.8h-1.1V19h6.5v4.9h-1.1V28.7z"/>
	</g>
	<g>
		<polygon class="st3" points="21.4,27.2 25.7,27.2 25.7,25.4 24.5,25.4 24.5,7.6 25.7,7.6 25.7,5.8 21.4,5.8 21.4,7.6 22.6,7.6 
			22.6,15.5 13.1,15.5 13.1,7.6 14.2,7.6 14.2,5.8 10,5.8 10,7.6 11.1,7.6 11.1,25.4 10,25.4 10,27.2 14.2,27.2 14.2,25.4 
			13.1,25.4 13.1,17.5 22.6,17.5 22.6,25.4 21.4,25.4 		"/>
	</g>
	<g>
		<g>
			<path class="st3" d="M0.5,0.4v0.2v13.2c0,17.1,11.3,24,17.3,27.5l0.1,0.1l0.1-0.1c5.9-3.4,17.3-10.4,17.3-27.5V0.7V0.4H35H17.8
				H0.6H0.5z M0.8,0.9h17h17v12.9c0,16.8-11,23.6-17,27.1c-6-3.5-17-10.2-17-27.1V0.9z"/>
		</g>
	</g>
</g>
</svg>
