<?xml version="1.0" encoding="utf-8"?>
<!-- Generator: Adobe Illustrator 21.0.0, SVG Export Plug-In . SVG Version: 6.00 Build 0)  -->
<svg version="1.1" id="Layer_1" xmlns="http://www.w3.org/2000/svg" xmlns:xlink="http://www.w3.org/1999/xlink" x="0px" y="0px"
	 viewBox="0 0 56.3 40.7" style="enable-background:new 0 0 56.3 40.7;" xml:space="preserve">
<style type="text/css">
	.st0{fill-rule:evenodd;clip-rule:evenodd;fill:#D5D5D7;}
	.st1{fill-rule:evenodd;clip-rule:evenodd;fill:#131933;}
	.st2{fill-rule:evenodd;clip-rule:evenodd;fill:#FFFFFF;}
</style>
<g>
	<path class="st0" d="M0,22.2c1.1-0.1,2.2-0.6,3.3-0.9c1.7-0.5,3.3-1,5.1-1.5c-1.3-1.5-2.4-3-2.7-4.9c-0.6-0.1-1.2,0.1-1.7,0
		c-1.2-2.5-1.2-5.1,0-7.7c1.5,0.1,3,0.3,4.7,0.4c1-0.8,2.1-1.7,3.4-2.3c3.3-1.8,6.8-2.8,10.5-3.3c2.2-0.3,4.5-0.5,6.7-0.4
		c2,0.1,4,0.2,6,0.6c1.3-1,2.9-1.6,4.5-1.9C41.2,0,42.6-0.1,44,0.1c0.6,0.1,1.3,0.3,1.8,0.8c0.3,0.2,0.6,0.3,0.9,0.4
		c1.3,0.4,2.4,1.2,3.3,2.2c1.4,1.6,2.1,4.3,0,6.5c2.1,3.8,1,7-1.9,10c2.6,0.7,5.1,1.3,7.5,2.1c0.1,1.9,0.2,3.8,0.3,5.7
		c-0.6,0-1.1-0.3-1.7-0.4c-0.2,0.8,0.5,0.6,0.9,0.8c0.4,0.2,0.9,0.2,1.2,0.5c0,0.6,0,1.3,0,1.9c-0.1,1.7,0,3.4,0.2,5.2
		c0.1,0.6,0.1,1.2,0,1.8c-0.1,1.3-1.5,2.3-3,2.1c-1.2-0.1-2.3-0.7-3.4-1c-3.5-1-7.1-1.7-10.8-2.1c-2.8-0.3-5.6-0.7-8.4-0.6
		c-0.3,0-0.5-0.1-0.7-0.3c-1.6,0.4-3.1,0.4-4.6-0.3c-0.3,0.1-0.2,0.4-0.5,0.5c-2.3,0.1-4.6,0.3-6.9,0.5C12.6,37.1,7.3,38.3,2.1,40
		c-0.7,0.2-1.4,0.5-2.1,0.7c0-1.3,0-2.5,0-3.8c0.2-0.2,0.6-0.2,0.8-0.4c0.1-0.3,0.1-0.6-0.1-0.9c-0.3,0-0.5,0.1-0.8,0.1
		c0-1.7,0-3.3,0-5c0.4-0.1,0.8-0.2,1.2-0.4c0-1.5,0-3,0-4.5c-0.5,0-0.8,0.2-1.2,0.3C0,25,0,23.6,0,22.2z M35.4,2.6
		c-0.5-0.1-1-0.2-1.6-0.2c-3.2-0.4-6.5-0.5-9.7-0.2C18.5,2.9,13.2,4.3,8.8,8.1c-1.5-0.1-3-0.3-4.5-0.4c-1,2.3-1.1,4.6,0,6.8
		c0.6,0,1.2-0.1,1.8-0.1c0.3,2.4,1.5,4.1,3.2,5.7c-3,0.9-5.8,1.7-8.7,2.5c0,1,0,2,0,2.9c0.4,0.1,0.7-0.2,1-0.1c0,1.8,0,3.6,0,5.3
		c-0.3,0.3-0.8,0.2-1,0.5c0,1.3,0,2.6,0,3.9c0.2,0.1,0.5-0.1,0.6,0.2c0,0.5,0,1.1,0,1.6C1,37,0.7,37.1,0.5,37.2c0,1,0,1.9,0,2.9
		c7.9-2.7,16-4.2,24.2-4.6c0.3-0.2,0.3-0.6,0.5-0.7c1.7,1.1,3.5,1,5.3,0.3c0.1,0.1,0.1,0.3,0.2,0.4c2.5,0.1,4.9,0.3,7.3,0.6
		c4.3,0.5,8.6,1.2,12.8,2.5c0.8,0.3,1.6,0.6,2.4,0.7c1.8,0.2,2.9-0.9,2.7-2.7c-0.2-1.3-0.2-2.6-0.3-3.9c-0.1-1.2,0.1-2.4,0.1-3.6
		c-0.8-0.2-1.5-0.5-2.2-0.7c0-0.5-0.1-0.9,0.1-1.4c0.6,0.2,1,0.3,1.6,0.5c0-1.7,0-3.3-0.1-4.9c-2.6-0.9-5.3-1.4-8-2.2
		c3.3-3,4.6-6.2,2.2-10.3c1.9-1.8,2-4,0.4-6c-0.9-1.1-2-1.9-3.4-2.3c-0.2-0.1-0.5-0.1-0.7-0.3c-0.7-0.6-1.6-0.9-2.6-0.9
		C40.3,0.4,37.7,1,35.4,2.6z"/>
	<path class="st1" d="M35.4,2.6c2.4-1.7,4.9-2.3,7.7-2.2c0.9,0,1.8,0.3,2.6,0.9c0.2,0.2,0.4,0.2,0.7,0.3c1.3,0.4,2.5,1.2,3.4,2.3
		c1.6,2,1.5,4.1-0.4,6c2.4,4,1,7.3-2.2,10.3c2.7,0.8,5.4,1.3,8,2.2c0.2,1.6,0.2,3.2,0.1,4.9c-0.5-0.2-1-0.3-1.6-0.5
		c-0.1,0.5-0.1,1-0.1,1.4c0.7,0.2,1.4,0.5,2.2,0.7c0,1.2-0.1,2.4-0.1,3.6c0.1,1.3,0.1,2.6,0.3,3.9c0.2,1.8-0.9,2.9-2.7,2.7
		c-0.9-0.1-1.6-0.5-2.4-0.7c-4.2-1.3-8.4-2-12.8-2.5c-2.4-0.3-4.9-0.5-7.3-0.6c-0.1-0.1-0.1-0.3-0.2-0.4c-1.8,0.7-3.6,0.8-5.3-0.3
		c-0.3,0.2-0.2,0.5-0.5,0.7c-8.2,0.3-16.3,1.9-24.2,4.6c0-1,0-1.9,0-2.9C0.7,37.1,1,37,1.2,36.9c0-0.6,0-1.1,0-1.6
		c-0.2-0.2-0.4-0.1-0.6-0.2c0-1.3,0-2.6,0-3.9c0.3-0.3,0.7-0.2,1-0.5c0-1.8,0-3.5,0-5.3c-0.4-0.1-0.6,0.3-1,0.1c0-0.9,0-1.9,0-2.9
		c2.9-0.8,5.7-1.7,8.7-2.5c-1.7-1.6-3-3.3-3.2-5.7c-0.6,0-1.2,0.1-1.8,0.1c-1.1-2.3-1-4.5,0-6.8c1.5,0.1,3,0.3,4.5,0.4
		c4.4-3.8,9.7-5.2,15.2-5.8c3.2-0.4,6.5-0.3,9.7,0.2C34.3,2.5,34.8,2.6,35.4,2.6z M31.4,18.2c-0.1-0.1-0.1,0-0.1,0.1
		C31.3,18.3,31.4,18.2,31.4,18.2c0-0.1,0.1-0.1,0.1-0.2c0.1,0,0.1-0.1,0.2-0.1c0.1,0,0.1,0,0.2-0.1c3.7-2.6,7.8-4.4,12.1-6.2
		c-2.9-1.1-5.8-1.1-8.7-0.6c0.1,1.3,0.1,2.5,0,3.7c-1.2,0.7-2.5,1.7-3.5,2.9c0,0-0.1,0.1-0.1,0.1c0,0.1-0.1,0.1-0.1,0.2
		c0,0,0,0.1,0.1,0.1c-0.1,0-0.1-0.1-0.2,0C31.4,18.1,31.4,18.2,31.4,18.2z M41.1,2.6c0.7-0.6,1.5-0.8,2.3-1c0-0.2-0.1-0.2-0.2-0.2
		c-2.3-0.1-4.4,0.3-6.4,1.3c-1.3,0.7-2.6,1.5-3.9,2.2c-0.2,0.1-0.4,0.3-0.8,0.3c0.6-0.5,1.2-0.9,1.7-1.5c-2.1,0.2-3.8,1.2-5.7,1.6
		c-0.1,0.7-0.1,1.4-0.5,2.1C25.6,8.3,23.5,9,21.2,9c1.7,0.6,3.6,0.6,5.4,1.2c0,0.2,0.1,0.4,0.2,0.6c-0.1,1-0.6,1.8-0.9,2.7
		c0.2,0.1,0.3,0.3,0.5,0.4c0.6-0.8,1.4-0.8,2.2-0.3c0.3-0.2,0.6-0.3,1-0.5c-0.3,0.5-0.6,0.8-1,1c-0.7-0.2-1.3,0.1-1.7,0.8
		c-0.4-0.6-1-0.9-1.5-1.3c-0.1-0.3,0.1-0.6-0.2-0.9c-1.6,0.1-3.2,0.3-4.7,0.4c-0.3,0.2-0.4,0.4-0.7,0.5c-0.1-0.3,0.1-0.6-0.2-0.9
		c-1-0.1-2.1,0.1-3.2,0c1.3-0.6,2.7-0.3,4-0.7c0.4-1.1,0.3-2.2-0.2-3.2c-1.7-0.2-3.3-0.6-4.9-1.2c-0.6,0.7-0.9,1.4-1.3,2.2
		c-1.7-0.1-3.3-0.2-4.7-0.3C8.9,9.5,9.1,9.2,8.8,9C8.2,9,7.6,8.9,6.9,8.8C6.3,8.8,5.6,8.7,5,8.7c-0.8,1.7-0.8,3.2,0,4.9
		c1.2-0.1,2.4-0.2,3.7-0.4c-0.2-1.7-0.2-1.8,0.1-2.3c0.1,0.6,0,1.2,0.5,1.7c1.7-0.1,3.4-0.2,5.2-0.3c-0.2,0.8,0.4,1.8,1.4,2.4
		c0.8-0.4,1.7-0.8,2.7-0.6c-0.9,0-1.8,0.3-2.4,1c-1-0.3-2-0.6-2.5-1.6c-0.9,1.2-1.7,2.3-1.1,3.7c0.5,1.3,1.5,2,2.9,2.4
		c0.2-0.3,0.4-0.5,0.6-0.7c0.3,0.3,0.5,0.7,0.9,0.8c0.7-0.1,1.4-0.5,1.9-1c0.5-0.5,0.7-1.3,1-2.1c0.2,0.4,0.3,0.7,0.4,1
		c2.9,0.5,5.7,1.7,8.5,2.9c2.1-2.9,3-3.8,5.1-5.2c0.6-0.4,0.8-0.8,0.8-1.5c0-1-0.3-2-0.6-3c2.2-0.7,4.5-0.9,6.7-0.8
		c0.1-0.1,0.2-0.2,0.3-0.4c1.2-1.4,1.2-2.1-0.3-3.3c-0.5-0.4-1-0.7-1.6-1.1c1.2,0.2,2.2,0.6,3,1.2c0.3-0.1,0.3-0.6,0.7-0.6
		c0.1,0.5-0.2,0.9-0.1,1.4c0.3,1.4,1.1,2.2,2.4,2.5c1.5,0.4,2.9,0.1,3.9-1.2c0.8-1.1,0.7-2.3,0.1-3.4c-1.1-1.8-2.7-2.7-4.8-2.9
		C43.3,2.2,42.2,2.4,41.1,2.6z M29.8,19.4c-0.1,0.5,0.2,0.5,0.4,0.5c0.4,0.1,0.7,0.3,0.7,0.8c0,2.1,0,4.3,0,6.4
		c0,0.5-0.3,0.7-0.8,0.7c-0.8,0-1.2-0.1-1.5-0.9c-0.2-0.5-0.4-1-0.6-1.5c-0.7-1.8-1.5-3.5-2.2-5.3c-0.4-0.2-0.8-0.4-1.1-0.4
		c-0.2,0.1-0.2,0.3-0.3,0.5c-0.8,2-1.7,4.1-2.5,6.1c-0.3,0.8-0.6,1.6-1.6,1.9c-0.2,0.1-0.2,0.3,0,0.5c1-0.2,2.1-0.2,3.1-0.2
		c0.1-0.2,0.1-0.3,0-0.5c-0.3-0.1-0.7,0-1-0.4c-0.2-0.7,0.2-1.3,0.4-1.9c1,0,2,0,3,0c0.2,0.6,0.6,1.1,0.5,1.8
		c-0.1,0.2-0.3,0.3-0.5,0.3c-0.2,0.1-0.4,0-0.6,0.2c-0.1,0.1-0.1,0.2,0,0.4c4.1,0,8.2-0.1,12.4,0.5c0-0.9,0-1.7,0-2.5
		c-0.2,0-0.3-0.1-0.5,0c-0.6,1.2-0.8,1.5-1.7,1.5c-0.4,0-0.9,0-1.3,0c-0.9-0.1-1.2-0.5-1.2-1.4c0-1.8,0-3.6,0-5.4
		c0-0.4,0-0.7,0.4-0.9c0.2,0,0.5-0.1,0.7-0.1c0.1-0.2,0.1-0.3,0-0.5C32.8,19.5,31.3,19.4,29.8,19.4z M1.7,24c0.3,0,0.6-0.1,0.8,0
		c0.4,0.2,0.3,0.5,0.3,0.9c0,1.9,0,3.8,0,5.6c0,0.7-0.2,1.2-0.9,1.5c-0.3,0.1-0.4,0.2-0.2,0.6c2.5-0.9,5.2-1.5,7.8-2.1
		c0.1-0.9,0.1-1.9,0.1-2.7c-0.3-0.2-0.6,0-0.8-0.3c-0.1-0.5,0.1-0.9,0.4-1.4c0.7-0.1,1.4-0.4,2.2-0.4c0.2,0.4,0.4,0.7,0.4,1.1
		c0,0.5-0.7,0.3-0.8,0.9c1.1-0.3,2.2-0.3,3.2-0.8c-0.6-0.3-0.8-0.9-1.1-1.4c-0.6-1.5-1.3-3-1.9-4.4c-0.4-0.1-0.6,0.1-0.7,0.4
		c-0.1,0.4-0.3,0.9-0.5,1.3c-0.9,1.9-1.1,4.1-2.8,5.8C7.9,28.2,8.5,28.1,9,28c-0.2,1.4-1,2.2-2.6,2.5c-1,0.2-1.4-0.1-1.4-1.1
		c0-1.7,0-3.4,0-5.1c0-0.7,0.2-1.2,0.9-1.5c0.2-0.1,0.5-0.2,0.2-0.6C4.7,22.6,3.3,23,2,23.4C1.7,23.5,1.6,23.6,1.7,24z M34.2,32.5
		c0.4-0.1,0.5,0.1,0.7,0.3c0.2,0.3,0.4,0.6,0.7,0.9c0.5,0.8,1.3,1.2,2.2,1.2c0.7,0,1.3,0.1,1.9,0.2c1.3,0.2,2.6,0.4,3.9,0.6
		c0.2-1.2,0.2-1.2-0.2-1.4c-0.2,0.1-0.2,0.5-0.6,0.6c-0.6,0.1-1.2-0.1-1.9-0.3c0-0.6,0-1.1,0-1.7c0.5,0.2,1.1,0.1,1.5,0.4
		c0.2,0.2,0.1,0.7,0.6,0.5c0-0.6,0-1.1,0-1.7c-0.5-0.3-0.4,0.2-0.6,0.3c-0.5,0-1,0-1.5-0.2c0-0.6,0-1.1,0-1.6
		c0.7,0.1,1.3,0.1,1.9,0.4c0.2,0.2,0,0.8,0.6,0.6c0.1-0.4,0.1-0.8,0-1.2c-1.7-0.3-3.3-0.6-4.9-0.7c-0.1,0.1-0.1,0.3,0,0.4
		c0.7,0.2,0.8,0.3,0.8,0.6c0,1.2,0.1,2.4,0,3.7c-1.9,0.4-2.3-1.2-3.1-2.2c0.6-0.3,1.1-0.6,1.1-1.3c0-0.7-0.4-1.2-1.1-1.4
		c-1.4-0.5-2.9-0.3-4.4-0.3c0,0.7,0.7,0.3,0.9,0.7c0.1,1.3,0.1,2.6,0,3.9c-0.3,0.1-0.6,0.1-0.8,0.1c-0.1,0.2-0.1,0.4,0.1,0.6
		c1,0,2.1,0,3.2,0c0-0.6-0.6-0.3-0.8-0.8C34.2,33.4,34.2,32.9,34.2,32.5z M46.8,21.4c-0.2,0.3,0,0.5,0.2,0.5
		c0.7,0.2,0.9,0.7,0.9,1.4c0,1.9,0,3.8,0,5.7c0,0.3,0,0.7-0.3,0.8c-0.3,0.2-0.6-0.1-0.9,0.1c-0.1,0.4,0.2,0.4,0.5,0.5
		c1,0.2,2.1,0.5,3.1,0.8c1.4,0.4,2.7,0.8,4.1,1.2c0-0.1,0.1-0.2,0.1-0.3c0-0.8,0-1.5,0-2.2c-0.2-0.1-0.3-0.3-0.5-0.2
		c-0.7,1.5-1.1,1.6-2.6,1.1c-0.2-0.1-0.3-0.1-0.5-0.2c-0.5-0.2-0.8-0.7-0.8-1.2c0-0.8,0-1.7,0-2.6c0.9,0.1,1.5,0.6,1.7,1.4
		c0.1,0.3,0.1,0.7,0.7,0.6c0-1.2,0-2.3,0-3.5c-0.2,0-0.3-0.1-0.5,0c-0.1,0.3-0.1,0.7-0.5,0.9c-0.4,0.1-0.8,0.1-1.3-0.1
		c0-1.1,0-2.1,0-3.2c1.6-0.1,2.8,0.7,3.2,2.1c0.1,0.3,0.2,0.5,0.6,0.4c0-0.8,0-1.5,0-2.3C51.6,22.6,49.2,22,46.8,21.4z M11.1,30.9
		c0,0.5,0.5,0.2,0.5,0.5c-0.3,0.4-0.6,0.8-1,1.2c-0.3-0.4-0.6-0.6-0.7-1c0.1-0.3,0.7-0.2,0.5-0.7c-1.2,0-3.2,0.6-3.4,1
		c0.3,0.2,0.6,0,1,0.2c0.5,0.5,1.1,1,1.6,1.6c-0.5,0.5-0.9,1-1.3,1.6c-0.4,0.5-1.1,0.8-1.3,1.4c0.8-0.2,1.6-0.2,2.3-0.5
		c0.2-0.6-0.4-0.2-0.5-0.5c0.4-0.6,0.8-1.1,1.3-1.6c0.3,0.4,0.8,0.7,0.9,1.1c-0.1,0.4-0.7,0.2-0.4,0.8c2.1-0.4,4.1-0.8,6.2-1.1
		c0.2,0,0.4-0.1,0.3-0.4c-0.2-0.2-0.5,0-0.8-0.3c-0.1-0.4-0.1-0.9,0-1.4c0.6,0,1.2-0.1,1.7-0.3c0.9-0.4,1.4-1.2,1.2-2
		c-0.2-0.7-0.8-1.1-1.8-1c-1,0.1-2.1,0.3-3.1,0.6c-0.2,0.1-0.3,0.2-0.3,0.4c0.2,0.1,0.5,0,0.6,0.2c0,1.2,0,2.5,0,3.8
		c-1.4,0.9-2,0.2-3.5-1.7c0.7-1,1.5-1.8,2.5-2.6C12.7,30.5,11.8,30.5,11.1,30.9z M19.5,20.2c-1.4-0.6-2.6-0.5-3.7,0.3
		c-0.9,0.6-1.3,1.6-1.2,2.7c0.1,1.1,0.9,1.5,1.8,1.9c0.2,0.1,0.4,0.1,0.6,0.2c0.4,0.1,0.9,0.2,1.3,0.4c0.8,0.5,1,1.6,0.3,2.2
		c-0.8,0.8-2.3,0.7-3-0.2c-0.3-0.3-0.4-0.7-0.6-1.1c0-0.1-0.1-0.1-0.1-0.1c-0.2,0-0.3,0-0.4,0.1c0,0.9,0,1.8,0,2.7
		c0.2,0,0.4,0,0.5-0.1c0.1-0.2,0.1-0.4,0.2-0.6c1.5,0.9,3,0.7,4.4-0.3c1-0.7,1.4-1.7,1.2-2.9c-0.2-1.1-1-1.6-1.9-1.9
		c-0.7-0.2-1.3-0.4-2-0.7c-0.5-0.2-0.7-0.5-0.7-1c0-0.5,0.2-0.9,0.7-1.1c0.5-0.3,1-0.3,1.5-0.2c0.8,0.2,1.1,0.8,1.4,1.5
		c0.2,0,0.3,0.1,0.5,0c0-0.8,0-1.5,0-2.3C19.8,19.6,19.6,19.8,19.5,20.2z M38.3,20c-0.1,0.4,0.1,0.5,0.3,0.5
		c0.7,0.2,0.9,0.7,0.9,1.3c0,1.9,0,3.7,0,5.6c0,0.4,0,0.7-0.3,0.9c-0.3,0.2-0.7,0.1-1,0.2c-0.1,0.2-0.1,0.3,0.1,0.5
		c2.6,0.2,5.3,0.8,8,1.3c0-0.8,0-1.5,0-2.3c0-0.3-0.2-0.4-0.5-0.4c-0.1,0.2-0.1,0.3-0.2,0.5c-0.3,0.6-0.7,1-1.4,1
		c-0.9,0-1.8,0-2.4-0.9c-0.1-0.2-0.1-0.4-0.1-0.6c0-0.5,0-1,0-1.6c0-1.6,0-3.1,0-4.6c0.3-0.5,0.8-0.3,1.1-0.4c0.1-0.2,0.1-0.3,0-0.4
		C41.3,20.4,39.8,20.2,38.3,20z M48.3,34.3c1.1-0.5,1.3-1.3,0.7-2.2c-0.3-0.4-0.8-0.7-1.3-0.9c-0.9-0.3-1.8-0.5-2.7-0.6
		c-0.4,0-0.8-0.2-1.1-0.1c0,0.6,0.8,0.4,0.8,0.9c0,1.3,0,2.5,0,3.7c-0.3,0.2-0.6,0-0.8,0.2c0.2,0.4,2.5,1,3.1,0.8
		c-0.9-1.3-0.9-1.3-0.7-2.1c0.3,0,0.4,0.3,0.6,0.5c0.3,0.5,0.6,1,1,1.5c0.7,0.9,1.7,1,2.7,1.1c-0.3-0.6-1-0.7-1.3-1.3
		C49.1,35.4,48.7,34.9,48.3,34.3z M28.2,34.4c0.2,0,0.4,0,0.7,0c1.5-0.2,2.5-1.2,2.6-2.6c0.1-1.6-1.1-2.8-2.9-2.9
		c-2-0.1-3.5,1-3.6,2.6C24.9,33.3,26.1,34.4,28.2,34.4z M4,33.1c0.6-0.1,1.2-0.4,1.7-0.4c0.3,0.1,0.2,0.7,0.7,0.4
		c0.1-0.4,0.1-0.8-0.1-1.3c-1.5,0.4-2.9,0.9-4.4,1.3c-0.2,0.1-0.4,0.2-0.3,0.4c0.2,0.2,0.5-0.1,0.8,0.3c0,1.1,0,2.2,0,3.4
		c0,0.3-0.2,0.5-0.5,0.7C1.7,38,1.4,38,1.6,38.5c1.7-0.5,3.3-1,5-1.5c0-0.5,0.2-0.9,0-1.4c-0.6,0.2-0.5,0.9-1.1,1.1
		c-0.5,0.2-1,0.4-1.6,0.4c0-0.6,0-1.1,0-1.6c0.4-0.2,0.9-0.4,1.4-0.4c0.2,0,0.1,0.4,0.5,0.4C6.2,34.9,6,34.3,6,33.7
		c-0.6,0-0.4,0.5-0.7,0.7C5,34.5,4.5,34.8,4,34.8C4,34.2,4,33.7,4,33.1z M10,8.5c0.2,0.3,0.4,0.2,0.6,0.2c1.3-1.4,2.9-2.4,4.6-3.2
		c5.2-2.3,10.6-2.9,16.2-2.5c0.6,0,1.1-0.1,1.6-0.3c-1.3-0.2-2.7-0.3-4-0.4c-2.7,0-5.3,0.2-8,0.7c-3.2,0.7-6.3,1.7-9,3.6
		C11.3,7.3,10.6,7.8,10,8.5z M24.7,32.8c-0.8,0-0.8,0.8-1.3,1c-0.5,0.2-1.1,0.1-1.6,0.1c0-1.3,0-2.6,0-3.9c0.2-0.3,0.8,0,0.7-0.7
		c-1.1,0.1-2.1,0.2-3.2,0.2c0,0.2-0.1,0.3,0.1,0.5c0.2,0,0.4,0,0.6,0.1c0,1.4,0,2.7,0,3.9c-0.2,0.4-0.8,0.1-0.6,0.8
		c1.6-0.1,3.2-0.2,4.7-0.4C24.3,33.8,24.5,33.4,24.7,32.8z M50.9,35.8c0.1,0.5,0,1.1,0.3,1.7c0.4-0.1,0.8,0.1,1.1,0.3
		c0.5,0.2,0.9,0.4,1.4,0.3c0.7,0,1.1-0.4,1.1-1.2c0-0.6-0.3-1.2-0.7-1.6c-0.5-0.5-1-0.9-1.4-1.3c-0.3-0.3-0.6-0.5-0.5-0.9
		c0.2-0.2,0.5-0.2,0.8-0.1c0.5,0.2,0.8,0.6,1,1c0.1,0.2,0.2,0.6,0.6,0.4c-0.1-0.5,0-1-0.2-1.5c-0.7,0-1.2-0.5-1.8-0.6
		c-0.5-0.1-1.1-0.2-1.4,0.3c-0.4,0.5-0.2,1.1,0.1,1.6c0.3,0.4,0.6,0.7,1,1c0.3,0.3,0.6,0.6,0.9,0.9c0.3,0.3,0.5,0.6,0.3,1
		c-0.3,0.3-0.6,0.2-0.9,0.1c-0.5-0.2-0.8-0.6-1.1-1.1C51.4,36.1,51.4,35.7,50.9,35.8z M45,19.8c4.1-2.9,4.7-7.1,3-9.2
		c-0.2,0.3-0.2,0.3-0.1,0.6c0.5,1.8,0.2,3.5-0.9,4.9c-0.8,1.1-1.9,1.9-3.1,2.6c-0.3,0.2-0.6,0.2-0.8,0.6
		C43.7,19.5,44.3,19.6,45,19.8z M12.9,19.2c-0.5-0.4-0.7-1-1.1-1.3c-1.2-1-2.3-2.2-2.7-3.7c-0.2,0-0.4,0-0.6,0
		c-0.2,0-0.4-0.1-0.5,0.1c0.1,1.8,1.6,4,3.5,5.3C11.9,19.4,12.3,19.3,12.9,19.2z M23.4,10.5c-0.9,0-1.7-0.2-2.5-0.1
		c0.1,0.5,0.1,0.9,0,1.3c0.8,0,1.6,0,2.5,0c0.1,0.1,0.2,0.2,0.3,0.3c0.2,0,0.4-0.1,0.6-0.2c0.1-0.5,0.1-1,0-1.5
		c-0.2-0.1-0.4-0.1-0.5-0.1C23.6,10.2,23.6,10.5,23.4,10.5z"/>
	<path class="st2" d="M43,5.9c-0.4,0-0.4,0.4-0.7,0.6c-0.8-0.6-1.8-1-3-1.2c0.6,0.4,1.2,0.7,1.6,1.1c1.4,1.2,1.5,1.9,0.3,3.3
		C41.1,9.8,41,9.9,40.8,10c-2.3-0.1-4.5,0.1-6.7,0.8c0.3,1,0.6,2,0.6,3c0,0.7-0.2,1.1-0.8,1.5c-2.1,1.4-3,2.3-5.1,5.2
		c-2.7-1.2-5.5-2.4-8.5-2.9c-0.1-0.3-0.3-0.6-0.4-1c-0.2,0.8-0.4,1.5-1,2.1c-0.5,0.6-1.2,0.9-1.9,1c-0.5-0.1-0.6-0.5-0.9-0.8
		c-0.2,0.2-0.4,0.5-0.6,0.7c-1.4-0.4-2.4-1.1-2.9-2.4c-0.6-1.5,0.2-2.6,1.1-3.7c0.5,1,1.4,1.4,2.5,1.6c0.6-0.7,1.4-1,2.4-1
		c-1-0.3-1.9,0.1-2.7,0.6c-1-0.6-1.6-1.6-1.4-2.4c-1.7,0.1-3.4,0.2-5.2,0.3c-0.4-0.5-0.4-1.1-0.5-1.7c-0.3,0.5-0.3,0.6-0.1,2.3
		c-1.2,0.1-2.5,0.2-3.7,0.4c-0.8-1.6-0.8-3.2,0-4.9c0.6,0.1,1.3,0.1,1.9,0.2C7.6,8.9,8.2,9,8.8,9c0.3,0.1,0.1,0.5,0.6,0.6
		c1.4,0.1,3,0.2,4.7,0.3c0.4-0.7,0.7-1.5,1.3-2.2c1.6,0.6,3.2,1,4.9,1.2c0.5,1,0.6,2.1,0.2,3.2c-1.3,0.4-2.8,0.1-4,0.7
		c1.1,0.1,2.1-0.1,3.2,0c0.3,0.3,0.2,0.6,0.2,0.9c0.3-0.1,0.4-0.3,0.7-0.5c1.5-0.1,3.1-0.3,4.7-0.4c0.2,0.3,0.1,0.6,0.2,0.9
		c0.4,0.4,1,0.7,1.5,1.3c0.4-0.7,1-1,1.7-0.8c0.4-0.2,0.7-0.6,1-1c-0.4,0.2-0.7,0.4-1,0.5c-0.8-0.5-1.6-0.5-2.2,0.3
		c-0.2-0.1-0.3-0.3-0.5-0.4c0.4-0.9,0.8-1.7,0.9-2.7c-0.1-0.2-0.2-0.4-0.2-0.6C24.8,9.7,23,9.7,21.2,9c2.3-0.1,4.4-0.8,6.5-1.6
		c0.3-0.7,0.4-1.4,0.5-2.1c1.9-0.5,3.6-1.5,5.7-1.6c-0.5,0.6-1.2,1-1.7,1.5c0.3,0,0.6-0.2,0.8-0.3c1.3-0.7,2.6-1.5,3.9-2.2
		c2-1.1,4.2-1.5,6.4-1.3c0.1,0,0.2,0,0.2,0.2c-0.8,0.2-1.6,0.5-2.3,1c0,0-0.1,0-0.1-0.1c-0.2-0.2-0.4-0.1-0.6,0
		C37.9,3,35.5,4,33.3,5.3c-0.1,0-0.1,0.1-0.2,0.1c0.2,0,0.3,0,0.2-0.1c0.4,0.1,0.7-0.1,1-0.2c1.5-0.4,2.9-0.7,4.4-0.4
		C40,4.9,41.2,5.4,42.2,6C42.6,6,42.5,5.5,43,5.6C43,5.7,42.8,5.8,43,5.9L43,5.9z M28.4,18.9c1.2-0.7,2-1.6,2.3-2.7
		c0,0,0-0.1-0.1-0.1c-0.1,0.1-0.2,0.4-0.4,0.4c-0.4,0-0.8,0-1.2,0c-0.3,0.3-0.5,1-1.1,0.6c-0.2-0.5,0.2-0.9-0.1-1.5
		c-0.2,0.6-0.4,1.1-0.5,1.6C27.8,17.7,28.1,18.2,28.4,18.9z M8.1,11.7C7,12,6,11.8,4.9,11.9c0,0.4,0.1,0.8,0.2,1.2
		c1-0.1,2-0.2,3.1-0.3C8.2,12.4,8.2,12.1,8.1,11.7z M14.7,11.4c-1.8,0-3.6,0-5.4,0c0,0.3,0,0.5,0.3,0.7c1.6-0.1,3.1-0.2,4.7-0.2
		C14.5,11.9,14.7,11.8,14.7,11.4z M31.4,9.3c-0.4-0.4-0.8-0.3-1.3,0c-0.9,0.5-1.8,1.1-3,1.4c1.1,0.8,1.4,0.8,2.2,0.1
		c-0.1-0.1-0.3,0.1-0.4-0.2C29.8,10.3,30.4,9.3,31.4,9.3z M15.2,11.7c0.2-0.7,0.1-1.4-0.5-2c-0.1,0.1-0.2,0.2-0.3,0.3
		C15,10.4,15.1,11.1,15.2,11.7z M7.6,11.4c0,0,0-0.1,0-0.1c-0.9,0-1.8,0-2.7,0c0,0,0,0.1,0,0.1C5.8,11.4,6.7,11.4,7.6,11.4z"/>
	<path class="st0" d="M29.8,19.4c1.5,0.1,3,0.1,4.5,0.2c0.1,0.2,0.1,0.3,0,0.5c-0.2,0-0.5,0.1-0.7,0.1c-0.4,0.2-0.4,0.6-0.4,0.9
		c0,1.8,0,3.6,0,5.4c0,0.9,0.3,1.3,1.2,1.4c0.4,0.1,0.8,0.1,1.3,0c0.9-0.1,1.1-0.3,1.7-1.5c0.1-0.1,0.3-0.1,0.5,0c0,0.8,0,1.6,0,2.5
		c-4.2-0.6-8.3-0.6-12.4-0.5c-0.1-0.2-0.1-0.3,0-0.4c0.2-0.2,0.4-0.1,0.6-0.2c0.2-0.1,0.3-0.1,0.5-0.3c0.1-0.6-0.3-1.2-0.5-1.8
		c-1,0-2,0-3,0c-0.2,0.6-0.7,1.2-0.4,1.9c0.3,0.4,0.7,0.3,1,0.4c0.1,0.1,0.1,0.3,0,0.5c-1,0-2.1,0-3.1,0.2c-0.2-0.2-0.2-0.4,0-0.5
		c0.9-0.3,1.2-1.1,1.6-1.9c0.8-2,1.7-4.1,2.5-6.1c0.1-0.2,0.1-0.3,0.3-0.5c0.4,0,0.7,0.2,1.1,0.4c0.7,1.7,1.4,3.5,2.2,5.3
		c0.2,0.5,0.4,1,0.6,1.5c0.3,0.7,0.7,0.9,1.5,0.9c0.5,0,0.8-0.3,0.8-0.7c0-2.1,0-4.3,0-6.4c0-0.5-0.3-0.7-0.7-0.8
		C30,19.9,29.6,19.9,29.8,19.4z M24.4,21.8c-0.4,1.1-0.8,2.1-1.2,3.1c0.9,0,1.6,0,2.4,0C25.2,23.9,24.9,22.9,24.4,21.8z"/>
	<path class="st0" d="M1.7,24c-0.1-0.3,0-0.5,0.2-0.5c1.4-0.4,2.8-0.8,4.2-1.2c0.3,0.4,0,0.5-0.2,0.6C5.2,23,5,23.6,5,24.3
		c0,1.7,0,3.4,0,5.1c0,1.1,0.4,1.3,1.4,1.1C8,30.2,8.8,29.4,9,28c-0.6,0.1-1.1,0.2-1.7,0.4c1.6-1.7,1.9-3.9,2.8-5.8
		c0.2-0.4,0.3-0.8,0.5-1.3c0.1-0.3,0.3-0.5,0.7-0.4c0.6,1.5,1.3,2.9,1.9,4.4c0.2,0.5,0.4,1.1,1.1,1.4c-1,0.4-2.1,0.5-3.2,0.8
		c0.1-0.6,0.8-0.4,0.8-0.9c0-0.4-0.2-0.7-0.4-1.1c-0.7,0-1.4,0.2-2.2,0.4c-0.2,0.5-0.5,0.9-0.4,1.4c0.2,0.3,0.5,0.1,0.8,0.3
		c0,0.9-0.1,1.8-0.1,2.7c-2.7,0.6-5.3,1.2-7.8,2.1c-0.2-0.4,0-0.5,0.2-0.6c0.7-0.3,0.9-0.8,0.9-1.5c0-1.9,0-3.8,0-5.6
		c0-0.3,0-0.7-0.3-0.9C2.3,23.8,2,23.9,1.7,24z M9.5,25.3c0.7-0.1,1.2-0.2,1.7-0.4c-0.3-0.6-0.5-1.2-0.8-2
		C10,23.8,9.8,24.5,9.5,25.3z"/>
	<path class="st2" d="M34.2,32.5c0,0.5,0,0.9,0,1.2c0.2,0.5,0.8,0.2,0.8,0.8c-1.1,0-2.2,0-3.2,0c-0.2-0.2-0.2-0.4-0.1-0.6
		c0.2,0,0.5-0.1,0.8-0.1c0.1-1.3,0.1-2.6,0-3.9c-0.2-0.4-0.8,0-0.9-0.7c1.5,0,3-0.2,4.4,0.3c0.8,0.3,1.1,0.8,1.1,1.4
		c0,0.7-0.4,1.1-1.1,1.3c0.9,1,1.2,2.6,3.1,2.2c0.1-1.2,0.1-2.5,0-3.7c0-0.3-0.2-0.4-0.8-0.6c0-0.1-0.1-0.2,0-0.4
		c1.6,0.2,3.2,0.4,4.9,0.7c0,0.4,0.1,0.8,0,1.2c-0.6,0.1-0.3-0.5-0.6-0.6c-0.6-0.3-1.2-0.3-1.9-0.4c0,0.6,0,1.1,0,1.6
		c0.5,0.2,1,0.2,1.5,0.2c0.2-0.1,0.2-0.6,0.6-0.3c0,0.5,0,1.1,0,1.7c-0.5,0.2-0.4-0.3-0.6-0.5c-0.4-0.3-0.9-0.2-1.5-0.4
		c0,0.6,0,1.1,0,1.7c0.6,0.1,1.3,0.3,1.9,0.3c0.4-0.2,0.4-0.5,0.6-0.6c0.4,0.2,0.4,0.3,0.2,1.4c-1.3-0.2-2.6-0.4-3.9-0.6
		c-0.6-0.1-1.3-0.2-1.9-0.2c-0.9,0-1.7-0.4-2.2-1.2c-0.2-0.3-0.4-0.6-0.7-0.9C34.8,32.6,34.6,32.4,34.2,32.5z M34.2,29.8
		c0,0.7-0.1,1.4,0.1,2c0.9,0,0.9,0,1.4-0.5c0.1-0.4,0.1-0.7,0-1.1C35.3,29.7,34.8,29.7,34.2,29.8z"/>
	<path class="st0" d="M46.8,21.4c2.4,0.6,4.8,1.2,7.1,1.9c0,0.8,0,1.5,0,2.3c-0.4,0.1-0.5-0.1-0.6-0.4c-0.5-1.5-1.7-2.2-3.2-2.1
		c0,1.1,0,2.1,0,3.2c0.5,0.2,0.9,0.1,1.3,0.1c0.4-0.2,0.3-0.6,0.5-0.9c0.2-0.1,0.3,0,0.5,0c0,1.2,0,2.3,0,3.5
		c-0.5,0.1-0.6-0.2-0.7-0.6c-0.2-0.9-0.8-1.3-1.7-1.4c0,0.9,0,1.7,0,2.6c0,0.6,0.3,1,0.8,1.2c0.2,0.1,0.3,0.1,0.5,0.2
		c1.6,0.5,1.9,0.3,2.6-1.1c0.2-0.1,0.3,0,0.5,0.2c0,0.7,0,1.5,0,2.2c0,0.1,0,0.1-0.1,0.3c-1.4-0.4-2.7-0.8-4.1-1.2
		c-1-0.3-2.1-0.5-3.1-0.8c-0.3-0.1-0.6,0-0.5-0.5c0.3-0.2,0.6,0.1,0.9-0.1c0.3-0.2,0.3-0.5,0.3-0.8c0-1.9,0-3.8,0-5.7
		c0-0.7-0.2-1.2-0.9-1.4C46.7,21.9,46.6,21.8,46.8,21.4z"/>
	<path class="st2" d="M11.1,30.9c0.7-0.4,1.6-0.4,2.5-0.5c-1,0.7-1.8,1.6-2.5,2.6c1.5,1.8,2.1,2.6,3.5,1.7c0-1.3,0-2.6,0-3.8
		c-0.2-0.3-0.5-0.1-0.6-0.2c-0.1-0.3,0-0.4,0.3-0.4c1-0.2,2-0.5,3.1-0.6c1-0.1,1.6,0.4,1.8,1c0.2,0.8-0.3,1.7-1.2,2
		c-0.5,0.2-1.1,0.3-1.7,0.3c-0.1,0.5-0.1,1,0,1.4c0.3,0.3,0.6,0,0.8,0.3c0.1,0.3-0.1,0.4-0.3,0.4c-2.1,0.2-4.2,0.6-6.2,1.1
		c-0.3-0.6,0.4-0.4,0.4-0.8c-0.2-0.4-0.6-0.7-0.9-1.1c-0.5,0.5-0.9,1-1.3,1.6c0.1,0.3,0.7-0.1,0.5,0.5c-0.7,0.3-1.5,0.4-2.3,0.5
		c0.2-0.7,1-0.9,1.3-1.4c0.4-0.6,0.9-1,1.3-1.6c-0.5-0.6-1.1-1.1-1.6-1.6c-0.4-0.2-0.7,0-1-0.2c0.2-0.5,2.1-1.1,3.4-1
		c0.2,0.5-0.3,0.4-0.5,0.7c0.1,0.4,0.5,0.6,0.7,1c0.4-0.4,0.7-0.8,1-1.2C11.5,31.1,11.1,31.4,11.1,30.9z M16.1,32.4
		c0.6,0.1,1-0.1,1.2-0.6c0.2-0.5,0.3-1-0.1-1.4c-0.3-0.4-0.7-0.3-1.2-0.1c0,0.6,0,1.1,0,1.7C16.1,32.1,16.1,32.3,16.1,32.4z"/>
	<path class="st0" d="M19.5,20.2c0.1-0.4,0.3-0.6,0.8-0.5c0,0.7,0,1.5,0,2.3c-0.2,0.1-0.3,0.1-0.5,0c-0.3-0.7-0.6-1.3-1.4-1.5
		c-0.5-0.2-1-0.1-1.5,0.2c-0.4,0.2-0.7,0.6-0.7,1.1c0,0.5,0.3,0.9,0.7,1c0.7,0.2,1.3,0.4,2,0.7c0.9,0.3,1.7,0.9,1.9,1.9
		c0.2,1.2-0.2,2.2-1.2,2.9c-1.4,0.9-2.8,1.2-4.4,0.3c-0.1,0.2-0.2,0.4-0.2,0.6c-0.2,0.1-0.3,0.2-0.5,0.1c0-0.9,0-1.8,0-2.7
		c0.1-0.1,0.2-0.2,0.4-0.1c0,0,0.1,0.1,0.1,0.1c0.2,0.4,0.3,0.8,0.6,1.1c0.7,0.9,2.2,1,3,0.2c0.7-0.7,0.5-1.8-0.3-2.2
		c-0.4-0.2-0.8-0.3-1.3-0.4c-0.2-0.1-0.4-0.1-0.6-0.2c-0.9-0.3-1.7-0.8-1.8-1.9c-0.1-1.1,0.3-2.1,1.2-2.7
		C16.9,19.7,18.1,19.6,19.5,20.2z"/>
	<path class="st0" d="M38.3,20c1.5,0.2,3.1,0.4,4.5,0.7c0.1,0.2,0.1,0.3,0,0.4c-0.3,0.1-0.8-0.1-1.1,0.4c0,1.5,0,3,0,4.6
		c0,0.5,0,1,0,1.6c0,0.2,0,0.5,0.1,0.6c0.6,0.8,1.5,0.8,2.4,0.9c0.7,0,1.2-0.4,1.4-1c0.1-0.2,0.1-0.3,0.2-0.5c0.3-0.1,0.5,0,0.5,0.4
		c0,0.7,0,1.4,0,2.3c-2.7-0.5-5.3-1.1-8-1.3c-0.2-0.1-0.2-0.3-0.1-0.5c0.3-0.1,0.6,0,1-0.2c0.2-0.2,0.3-0.6,0.3-0.9
		c0-1.8,0-3.7,0-5.6c0-0.7-0.2-1.2-0.9-1.3C38.4,20.5,38.2,20.4,38.3,20z"/>
	<path class="st2" d="M31.7,17.7c1-1.2,2.3-2.2,3.5-2.9c0.1-1.3,0.2-2.5,0-3.7c2.9-0.6,5.8-0.6,8.7,0.6c-4.3,1.8-8.4,3.5-12.1,6.2
		C31.8,17.7,31.8,17.7,31.7,17.7z"/>
	<path class="st2" d="M41.1,2.6c1.1-0.2,2.2-0.4,3.4-0.3c2.1,0.2,3.7,1.1,4.8,2.9c0.6,1.1,0.8,2.3-0.1,3.4c-1,1.3-2.4,1.6-3.9,1.2
		c-1.3-0.3-2.1-1.1-2.4-2.5C42.8,6.8,43,6.3,43,5.9l0,0c0.3-0.1,0.3-0.3,0.1-0.4c0.2-0.7,0.7-0.7,1.3-0.7c-0.1,0.2-0.3,0.3-0.5,0.5
		c-0.6,0.6-1,1.3-0.8,2.2c0.3,1.3,1.8,2,3.3,1.5c1.4-0.4,2-1.7,1.5-3c-0.6-1.4-1.7-2.2-3.1-2.5c-1.6-0.4-3.2-0.1-4.9,0.6
		c0.3-0.6,0.6-1,1-1.4C41,2.6,41,2.6,41.1,2.6z"/>
	<path class="st2" d="M48.3,34.3c0.4,0.6,0.8,1.1,1.1,1.7c0.3,0.6,1,0.7,1.3,1.3c-1-0.1-2-0.2-2.7-1.1c-0.4-0.5-0.6-1-1-1.5
		c-0.1-0.2-0.2-0.5-0.6-0.5c-0.2,0.8-0.2,0.8,0.7,2.1c-0.6,0.2-2.9-0.3-3.1-0.8c0.2-0.2,0.5,0,0.8-0.2c0-1.2,0-2.4,0-3.7
		c0-0.5-0.8-0.3-0.8-0.9c0.4-0.2,0.8,0,1.1,0.1c0.9,0.1,1.8,0.3,2.7,0.6c0.5,0.2,1,0.4,1.3,0.9C49.6,33,49.4,33.7,48.3,34.3z
		 M47.5,33.5c0.6-1.1,0-2.1-1.2-2.1c0,0.7,0,1.4,0,2.1C46.7,33.6,47.1,33.6,47.5,33.5z"/>
	<path class="st2" d="M28.2,34.4c-2.1,0-3.3-1.1-3.2-2.8c0.1-1.6,1.6-2.8,3.6-2.6c1.8,0.1,2.9,1.3,2.9,2.9c-0.1,1.4-1.1,2.4-2.6,2.6
		C28.6,34.4,28.3,34.4,28.2,34.4z M29.8,32c0-0.8-0.1-1.5-0.7-2.1c-0.7-0.7-1.9-0.5-2.3,0.4c-0.3,0.7-0.3,1.4-0.1,2.1
		c0.3,1.1,1,1.7,1.8,1.6C29.4,33.8,29.8,33.2,29.8,32z"/>
	<path class="st2" d="M4,33.1c0,0.6,0,1.1,0,1.6c0.6,0,1-0.2,1.3-0.3c0.3-0.3,0.2-0.7,0.7-0.7c0,0.6,0.2,1.3-0.1,1.8
		c-0.4,0-0.3-0.3-0.5-0.4c-0.5,0-1,0.2-1.4,0.4c0,0.5,0,1,0,1.6c0.6-0.1,1.1-0.3,1.6-0.4c0.6-0.2,0.4-1,1.1-1.1c0.1,0.5-0.1,1,0,1.4
		c-1.7,0.5-3.4,1-5,1.5C1.4,38,1.7,38,1.9,37.9c0.3-0.1,0.5-0.3,0.5-0.7c0-1.2,0-2.3,0-3.4c-0.3-0.3-0.6-0.1-0.8-0.3
		c-0.1-0.3,0.1-0.4,0.3-0.4c1.5-0.4,2.9-0.9,4.4-1.3c0.1,0.5,0.1,0.9,0.1,1.3c-0.5,0.2-0.4-0.4-0.7-0.4C5.1,32.7,4.6,33,4,33.1z"/>
	<path class="st0" d="M10,8.5c0.6-0.7,1.3-1.3,2.1-1.8c2.7-1.9,5.8-2.9,9-3.6c2.6-0.5,5.3-0.8,8-0.7c1.3,0,2.7,0.1,4,0.4
		c-0.5,0.2-1,0.3-1.6,0.3c-5.6-0.4-11,0.2-16.2,2.5c-1.7,0.8-3.3,1.8-4.6,3.2C10.4,8.8,10.2,8.8,10,8.5z"/>
	<path class="st2" d="M24.7,32.8c-0.2,0.6-0.4,1.1-0.6,1.6c-1.6,0.1-3.2,0.2-4.7,0.4c-0.1-0.7,0.5-0.4,0.6-0.8c0-1.2,0-2.5,0-3.9
		c-0.2,0-0.4,0-0.6-0.1c-0.1-0.2-0.1-0.3-0.1-0.5c1.1-0.1,2.1-0.2,3.2-0.2c0.1,0.7-0.5,0.4-0.7,0.7c0,1.3,0,2.6,0,3.9
		c0.6,0,1.1,0.1,1.6-0.1C23.9,33.6,23.9,32.8,24.7,32.8z"/>
	<path class="st2" d="M50.9,35.8c0.5-0.1,0.5,0.2,0.6,0.5c0.2,0.5,0.6,0.9,1.1,1.1c0.3,0.1,0.6,0.2,0.9-0.1c0.2-0.4,0-0.7-0.3-1
		c-0.3-0.3-0.6-0.6-0.9-0.9c-0.3-0.3-0.7-0.6-1-1c-0.3-0.5-0.5-1.1-0.1-1.6c0.4-0.5,0.9-0.5,1.4-0.3c0.6,0.1,1.2,0.6,1.8,0.6
		c0.2,0.5,0.1,1,0.2,1.5c-0.4,0.1-0.5-0.2-0.6-0.4c-0.2-0.5-0.6-0.8-1-1c-0.2-0.1-0.5-0.2-0.8,0.1c-0.1,0.4,0.3,0.7,0.5,0.9
		c0.5,0.5,1,0.9,1.4,1.3c0.4,0.4,0.7,0.9,0.7,1.6c0,0.7-0.4,1.1-1.1,1.2c-0.5,0-1-0.1-1.4-0.3c-0.4-0.2-0.7-0.4-1.1-0.3
		C50.9,36.9,50.9,36.4,50.9,35.8z"/>
	<path class="st0" d="M45,19.8c-0.7-0.1-1.3-0.3-2-0.4c0.2-0.3,0.5-0.4,0.8-0.6c1.2-0.7,2.3-1.5,3.1-2.6c1.1-1.5,1.5-3.1,0.9-4.9
		c-0.1-0.3-0.1-0.3,0.1-0.6C49.7,12.7,49.1,16.9,45,19.8z"/>
	<path class="st0" d="M12.9,19.2c-0.6,0.2-1,0.3-1.4,0.4c-1.9-1.2-3.4-3.5-3.5-5.3c0.1-0.2,0.4-0.1,0.5-0.1c0.2,0,0.3,0,0.6,0
		c0.5,1.5,1.5,2.7,2.7,3.7C12.2,18.2,12.4,18.7,12.9,19.2z"/>
	<path class="st2" d="M23.4,10.5c0.2,0,0.2-0.3,0.4-0.4c0.1,0,0.3,0.1,0.5,0.1c0.2,0.5,0.1,1,0,1.5C24.1,12,23.9,12,23.7,12
		c-0.1-0.1-0.2-0.2-0.3-0.3c-0.9,0-1.7,0-2.5,0c0-0.4,0.1-0.8,0-1.3C21.7,10.3,22.5,10.5,23.4,10.5z M23.4,11.3
		c-0.7-0.1-1.4-0.2-2,0.1C22.1,11.4,22.8,11.5,23.4,11.3z M23.9,11.6c0.2-0.1,0.2-0.2,0-0.4C23.9,11.4,23.8,11.5,23.9,11.6z"/>
	<path class="st2" d="M31.9,17.8c0,0.1-0.1,0.1-0.2,0.1c0,0-0.1-0.1-0.1-0.1c0,0,0.1-0.1,0.1-0.1C31.8,17.7,31.8,17.7,31.9,17.8z"/>
	<path class="st2" d="M31.7,17.9c0,0.1-0.1,0.1-0.2,0.1l0,0c0,0,0-0.1-0.1-0.1c0-0.1,0.1-0.1,0.1-0.2C31.6,17.8,31.7,17.9,31.7,17.9
		z"/>
	<path class="st2" d="M31.4,18.2c0,0-0.1,0.1-0.1,0.1C31.3,18.2,31.3,18.2,31.4,18.2L31.4,18.2z"/>
	<path class="st2" d="M31.5,18c0,0.1-0.1,0.1-0.1,0.2l0,0c0,0,0-0.1,0-0.1C31.4,18,31.5,18,31.5,18L31.5,18z"/>
	<path class="st1" d="M41,2.5c-0.5,0.3-0.7,0.8-1,1.4c1.7-0.7,3.3-1,4.9-0.6c1.4,0.3,2.6,1.1,3.1,2.5c0.5,1.3-0.1,2.6-1.5,3
		c-1.5,0.5-3-0.2-3.3-1.5c-0.2-0.9,0.2-1.6,0.8-2.2c0.2-0.2,0.3-0.3,0.5-0.5c-0.6,0-1.1,0.1-1.3,0.7l0,0c-0.1,0-0.1-0.1-0.2,0
		c-0.1,0.1,0,0.1,0,0.2l0,0C42.5,5.5,42.6,6,42.2,6c-1-0.6-2.2-1.1-3.4-1.4c-1.5-0.3-3,0-4.4,0.4c-0.3,0.1-0.6,0.3-1,0.2l0,0
		C35.5,4,37.9,3,40.4,2.5C40.6,2.5,40.8,2.3,41,2.5z"/>
	<path class="st1" d="M28.4,18.9c-0.3-0.6-0.6-1.2-1.1-1.6c0.1-0.5,0.3-1,0.5-1.6c0.2,0.6-0.2,1,0.1,1.5c0.6,0.4,0.8-0.3,1.1-0.6
		c0.4,0,0.8,0,1.2,0c0.2-0.1,0.2-0.3,0.4-0.4c0,0,0.1,0.1,0.1,0.1C30.4,17.3,29.6,18.2,28.4,18.9z"/>
	<path class="st1" d="M8.1,11.7c0.1,0.4,0.1,0.7,0.1,1.1c-1,0.1-2,0.2-3.1,0.3c-0.2-0.4-0.3-0.8-0.2-1.2C6,11.8,7,12,8.1,11.7z"/>
	<path class="st1" d="M14.7,11.4c0,0.4-0.2,0.4-0.4,0.4c-1.6,0.1-3.2,0.2-4.7,0.2c-0.2-0.2-0.3-0.4-0.3-0.7
		C11.1,11.4,12.9,11.4,14.7,11.4z"/>
	<path class="st1" d="M31.4,9.3c-1.1,0.1-1.6,1-2.5,1.3c0.1,0.3,0.3,0.1,0.4,0.2c-0.8,0.7-1.1,0.6-2.2-0.1c1.1-0.3,2-0.9,3-1.4
		C30.6,9,31,8.9,31.4,9.3z"/>
	<path class="st1" d="M15.2,11.7c-0.2-0.6-0.2-1.2-0.7-1.7c0.1-0.1,0.2-0.2,0.3-0.3C15.3,10.3,15.4,10.9,15.2,11.7z"/>
	<path class="st1" d="M7.6,11.4c-0.9,0-1.8,0-2.7,0c0,0,0-0.1,0-0.1c0.9,0,1.8,0,2.7,0C7.6,11.3,7.6,11.3,7.6,11.4z"/>
	<path class="st1" d="M43.1,5.4c0.2,0.2,0.2,0.3-0.1,0.4c-0.1-0.1,0-0.2,0-0.3l0,0C43.1,5.6,43.1,5.5,43.1,5.4L43.1,5.4z"/>
	<path class="st1" d="M33.3,5.3c0.1,0.1,0,0.1-0.2,0.1C33.2,5.3,33.3,5.3,33.3,5.3L33.3,5.3z"/>
	<path class="st1" d="M24.4,21.8c0.4,1.1,0.8,2,1.2,3.1c-0.8,0-1.6,0-2.4,0C23.6,23.9,24,22.9,24.4,21.8z"/>
	<path class="st1" d="M9.5,25.3c0.3-0.8,0.6-1.5,0.9-2.4c0.3,0.8,0.6,1.4,0.8,2C10.7,25.1,10.1,25.2,9.5,25.3z"/>
	<path class="st1" d="M34.2,29.8c0.6-0.1,1.1-0.1,1.4,0.5c0.1,0.3,0.1,0.7,0,1.1c-0.5,0.5-0.5,0.5-1.4,0.5
		C34.1,31.2,34.2,30.5,34.2,29.8z"/>
	<path class="st1" d="M16.1,32.4c0-0.2,0-0.3,0-0.4c0-0.5,0-1.1,0-1.7c0.4-0.2,0.9-0.3,1.2,0.1c0.3,0.4,0.3,0.9,0.1,1.4
		C17.2,32.4,16.7,32.5,16.1,32.4z"/>
	<path class="st1" d="M47.5,33.5c-0.4,0.1-0.8,0.1-1.2,0c0-0.7,0-1.4,0-2.1C47.5,31.4,48.1,32.4,47.5,33.5z"/>
	<path class="st1" d="M29.8,32c0,1.2-0.4,1.9-1.3,2c-0.8,0.1-1.6-0.5-1.8-1.6c-0.2-0.7-0.2-1.4,0.1-2.1c0.4-0.9,1.6-1.2,2.3-0.4
		C29.6,30.4,29.8,31.2,29.8,32z"/>
	<path class="st1" d="M23.4,11.3c-0.7,0.2-1.4,0.1-2,0.1C22.1,11.1,22.7,11.2,23.4,11.3z"/>
	<path class="st1" d="M23.9,11.6c-0.1-0.1-0.1-0.2,0-0.4C24.1,11.4,24.1,11.5,23.9,11.6z"/>
	<path class="st2" d="M43.1,5.4c0,0.1-0.1,0.2-0.2,0.2c0-0.1-0.1-0.1,0-0.2C43,5.3,43.1,5.4,43.1,5.4z"/>
</g>
</svg>
