<?xml version="1.0" encoding="utf-8"?>
<!-- Generator: Adobe Illustrator 21.0.0, SVG Export Plug-In . SVG Version: 6.00 Build 0)  -->
<svg version="1.1" id="Layer_1" xmlns="http://www.w3.org/2000/svg" xmlns:xlink="http://www.w3.org/1999/xlink" x="0px" y="0px"
	 viewBox="0 0 45.3 40.7" style="enable-background:new 0 0 45.3 40.7;" xml:space="preserve">
<style type="text/css">
	.st0{fill:#FFFFFF;}
	.st1{fill:#131933;}
</style>
<g transform="matrix(1.25 0 0 -1.25 -363.2 875.25)">
	<g transform="matrix(2.6143 0 0 2.6143 -596.12 -1011.9)">
		<path class="st0" d="M341.6,654.9v-2.2h1v-0.3h-3.5v-2.2h0.8v-3h-0.8v-2.2h3.5v-0.3h-1v-2.2h4.3v2.2h-1v0.3h2.2l1.3-2.5h1.9v2.5
			h1.3l1.4,1.4v4.6l-1.4,1.4h-1.3v0.3h1v2.2H347v-2.2h1v-0.3h-2.2l-1.3,2.5L341.6,654.9L341.6,654.9z M342.1,650.2h0.5v-3h-0.5
			V650.2z M347,650.2h1.1v-2.1L347,650.2z M350.3,650.2h0.4l0.1-0.1v-2.8l-0.1-0.1h-0.4V650.2L350.3,650.2z M344.8,649.3l1.1-2.1
			h-1.1V649.3z"/>
		<path class="st1" d="M341.9,654.6V653h1v-0.8h-3.5v-1.7h0.8v-3.6h-0.8v-1.7h3.5v-0.8h-1v-1.7h3.7v1.7h-1v0.8h2.7l1.3-2.5h1.5v2.5
			h1.4l1.3,1.3v4.4l-1.3,1.3H350v0.8h1v1.7h-3.7V653h1v-0.8h-2.7l-1.3,2.5H341.9L341.9,654.6z M341.9,650.4h1v-3.6h-1V650.4z
			 M344.6,650.4l1.8-3.6h-1.8V650.4z M346.5,650.4h1.8v-3.6L346.5,650.4z M350,650.4h0.8l0.3-0.3v-3l-0.3-0.3H350V650.4L350,650.4z"
			/>
	</g>
</g>
</svg>
