<?xml version="1.0" encoding="utf-8"?>
<!-- Generator: Adobe Illustrator 21.0.0, SVG Export Plug-In . SVG Version: 6.00 Build 0)  -->
<svg version="1.1" id="Layer_1" xmlns="http://www.w3.org/2000/svg" xmlns:xlink="http://www.w3.org/1999/xlink" x="0px" y="0px"
	 viewBox="0 0 35.8 41" style="enable-background:new 0 0 35.8 41;" xml:space="preserve">
<style type="text/css">
	.st0{fill:#FFFFFF;}
	.st1{fill:#131933;}
</style>
<g transform="matrix(1.25 0 0 -1.25 -75.912 726.37)">
	<g transform="translate(.29845 .29845)">
		<g>
			<path class="st0" d="M60.4,548v7.6h3.5v17.6h-3.5v7.6h16.9c3.3,0,6.3-1,8.4-2.8c2.1-1.8,3.3-4.4,3.3-7.3c0-2.9-1.2-5.5-3.3-7.3
				c-2.1-1.8-5.1-2.8-8.4-2.8h-3.5v-4.9h3.5V548H60.4z M75.8,549.4v4.8h-3.5v7.6h5c6,0,10.2,3.6,10.2,8.8c0,5.2-4.2,8.8-10.2,8.8H62
				v-4.8h3.5v-20.4H62v-4.8H75.8z M72.3,566.6v8h3.8c3.2,0,5.3-1.6,5.3-4c0-2.4-2.1-4-5.3-4H72.3z M76.1,568c2.4,0,3.8,1,3.8,2.6
				c0,1.6-1.4,2.6-3.8,2.6h-2.3V568H76.1z"/>
			<path class="st1" d="M77.3,580.7c3.3,0,6.3-1,8.4-2.8c2.1-1.8,3.3-4.4,3.3-7.3c0-2.9-1.2-5.4-3.3-7.2c-2.1-1.8-5.1-2.8-8.4-2.8
				h-3.6v-5.1h3.5v-7.4H60.5v7.4H64v17.9h-3.5v7.4h1.6H77.3 M61.8,574.5h3.5v-20.2h-3.5v-5.1h14.1v5.1h-3.5v7.4h4.9
				c6.1,0,10.3,3.7,10.3,8.9c0,5.2-4.2,8.9-10.3,8.9H62.1h-0.3V574.5 M76.1,574.5c3.1,0,5.2-1.5,5.2-3.9c0-2.3-2-3.9-5.2-3.9h-3.7
				v7.7h0.6H76.1 M73.7,567.9h2.4c2.4,0,3.9,1,3.9,2.7c0,1.7-1.5,2.7-3.9,2.7h-2.4V567.9 M77.3,580.9H62.1h-1.6h-0.2v-0.2v-7.4v-0.2
				h0.2h3.3v-17.4h-3.3h-0.2v-0.2v-7.4v-0.2h0.2h16.7h0.2v0.2v7.4v0.2h-0.2h-3.3v4.6h3.4c3.4,0,6.4,1,8.5,2.9
				c2.2,1.9,3.3,4.5,3.3,7.4c0,2.9-1.2,5.6-3.3,7.4C83.7,579.9,80.7,580.9,77.3,580.9L77.3,580.9z M62.1,579.3L62.1,579.3h15.3
				c5.9,0,10.1-3.6,10.1-8.7c0-5.1-4.2-8.7-10.1-8.7h-4.9h-0.2v-0.2v-7.4v-0.2h0.2h3.3v-4.6H62.1v4.6h3.3h0.2v0.2v20.2v0.2h-0.2
				h-3.3V579.3L62.1,579.3z M76.1,574.7h-3h-0.6h-0.2v-0.2v-7.7v-0.2h0.2h3.7c3.3,0,5.4,1.6,5.4,4.1
				C81.5,573.1,79.4,574.7,76.1,574.7L76.1,574.7z M73.9,573.1h2.1c2.3,0,3.6-0.9,3.6-2.5c0-1.6-1.4-2.5-3.6-2.5h-2.1V573.1
				L73.9,573.1z"/>
		</g>
		<path class="st1" d="M61.2,580.1v-3.3c4.4-2.5,8.5-5.8,11.9-8.8v2.7v0.9c-3.2,3.5-6.6,6.5-9.3,8.6h-1.6H61.2L61.2,580.1z
			 M67.9,580.1c2.2-1.8,4.5-3.9,6.8-6.2h1.4c2.8,0,4.5-1.3,4.5-3.3c0-0.8-0.3-1.6-0.9-2.1c1.6-1.8,3.1-3.6,4.5-5.5
			c1.4,0.9,2.5,2.1,3.2,3.5c-4.5,6.1-10.3,10.5-15.8,13.6H67.9L67.9,580.1z M78.9,579.4c5.1-4.8,7.6-9,8.9-11.8
			c0.3,0.9,0.5,1.9,0.5,3c0,0.3,0,0.5,0,0.8C83.5,577.3,78.9,579.4,78.9,579.4L78.9,579.4z M65.8,570.6c2.7-3.2,5.2-6.4,7.5-9.4h2.6
			C70.7,566.4,65.8,570.6,65.8,570.6z M76.4,567.3c-0.1,0-0.2,0-0.4,0h-2.3c2.8-2.6,5-4.9,6-6c0.1,0,0.2,0,0.3,0.1
			C79,563.5,77.8,565.5,76.4,567.3L76.4,567.3z M64.7,567.3v-4.2c2.6-2.4,5.2-5.2,7.9-8.4C72.6,554.7,69.9,560.9,64.7,567.3z
			 M64.7,558.4v-1.8c2.8-2.9,4.8-5.5,6.4-7.9h4.4C71.7,552.7,67.8,556,64.7,558.4L64.7,558.4z M61.2,554.9v-2.3
			c1.3-1.2,2.6-2.5,3.8-3.9h1.3c-0.9,1.7-2.3,3.9-4.1,6.2H61.2L61.2,554.9z"/>
		<path class="st0" d="M63.8,580.1c2.7-2.2,6.1-5.1,9.3-8.6v2.4h1.6c-2.3,2.3-4.6,4.4-6.8,6.2H63.8L63.8,580.1z M71.6,580.1
			c5.4-3.1,11.3-7.5,15.8-13.6c0.2,0.4,0.3,0.7,0.5,1.1c-1.3,2.8-3.8,6.9-8.9,11.8c0,0,4.5-2.1,9.3-8c-0.4,5.2-4.8,8.7-10.9,8.7
			H71.6L71.6,580.1z M61.2,576.8v-2.9h3.5v-2.2v-4.4c5.2-6.3,7.9-12.6,7.9-12.6c-2.6,3.2-5.3,6-7.9,8.4v-2v-2.7
			c3.1-2.4,7-5.7,10.8-9.7h1.1v6.2h-3.5v6.2h0.2c-2.3,3-4.8,6.2-7.5,9.4c0,0,4.8-4.1,10.1-9.4h1.4c0.8,0,1.6,0.1,2.4,0.2
			c-1,1.1-3.2,3.4-6,6h-0.7v0.6C69.7,570.9,65.6,574.3,61.2,576.8L61.2,576.8z M79.7,568.5c-0.7-0.7-1.8-1.1-3.3-1.2
			c1.3-1.9,2.6-3.9,3.6-5.9c1.6,0.3,3,0.8,4.2,1.6C82.8,564.8,81.3,566.7,79.7,568.5L79.7,568.5z M64.7,556.6v-1.7h-2.5
			c1.8-2.3,3.2-4.5,4.1-6.2h4.7C69.5,551.1,67.5,553.7,64.7,556.6L64.7,556.6z M61.2,552.5v-3.9H65
			C63.8,550.1,62.5,551.3,61.2,552.5L61.2,552.5z"/>
	</g>
</g>
</svg>
