<?xml version="1.0" encoding="utf-8"?>
<!-- Generator: Adobe Illustrator 21.0.0, SVG Export Plug-In . SVG Version: 6.00 Build 0)  -->
<svg version="1.1" id="Layer_1" xmlns="http://www.w3.org/2000/svg" xmlns:xlink="http://www.w3.org/1999/xlink" x="0px" y="0px"
	 viewBox="0 0 66.2 40.7" style="enable-background:new 0 0 66.2 40.7;" xml:space="preserve">
<style type="text/css">
	.st0{fill-rule:evenodd;clip-rule:evenodd;fill:#FFFFFF;}
	.st1{fill-rule:evenodd;clip-rule:evenodd;fill:#131933;}
	.st2{fill-rule:evenodd;clip-rule:evenodd;fill:#131832;}
</style>
<g>
	<path class="st0" d="M9.6,6.7c0.7-0.5,1.4-1,2.1-1.5c2.6-1.7,5.5-3,8.6-3.7c1.2-0.3,2.4-0.5,3.7-0.6c1.9-0.2,3.8-0.3,5.6-0.4
		c1.4-0.1,2.9-0.1,4.3-0.1c1.5,0,2.9,0,4.4-0.1c0.8,0,1.7-0.2,2.5-0.2C42.1,0,43.4,0,44.8,0c1.1,0,2.2,0.1,3.3,0.2
		c2.5,0.3,4.9,0.7,7.3,1.5c1.4,0.5,2.8,1.2,3.9,2.2c1.3,1.2,2.1,2.6,2.4,4.3c0.1,0.6,0.2,1.1,0.2,1.7c0,0.1,0.1,0.2,0.1,0.2
		c1,0.6,1.9,1.3,2.7,2.3c0.8,1,1.4,2.2,1.5,3.5c0.1,1.3-0.1,2.6-0.7,3.7c-1,1.9-2.5,3.4-4.4,4.4c-0.7,0.3-1.3,0.6-2.1,0.8
		c0,0-0.1,0-0.1,0c0.4-0.3,0.6-0.7,0.7-1.2c0-0.1,0-0.1,0-0.2c0-0.1,0-0.1-0.1-0.1c-1,0.5-2,0.7-3.1,0.8c-0.1,0-0.1,0.1-0.1,0.2
		c0,1.1,0,2.1,0,3.2c0,0.2,0,0.2-0.2,0.2c-0.5,0-0.5,0-0.5,0.5c0,1.7,0,3.5,0,5.2c0,1.9-0.6,3.6-2,5c-1,1-2.2,1.6-3.6,1.9
		c-1.5,0.4-2.9,0.4-4.4,0.3c-1.2-0.1-2.4-0.4-3.5-0.9c-2-1-3.2-2.6-3.7-4.8c-0.1-0.7-0.2-1.3-0.2-2c0-1.6,0-3.3,0-4.9
		c0-0.1,0.1-0.2-0.1-0.2c-0.1,0-0.3,0-0.4,0c-0.1,0,0,0.1,0,0.2c0,1.2,0,2.4,0,3.6c0,1.2,0,2.4,0,3.6c-0.1,2.4-1.4,4.3-3.9,5
		c-0.9,0.3-1.8,0.4-2.7,0.4c-1.6,0.1-3.1-0.1-4.7-0.6c-0.1,0-0.2,0-0.2,0.1c-0.1,0.1-0.3,0.2-0.4,0.3c-0.1,0.2-0.2,0.1-0.4,0
		c-0.8-0.5-1.7-1-2.5-1.5c-0.1-0.1-0.2-0.1-0.3,0c-1,0.7-2.2,1.1-3.4,1.4c-1.5,0.3-3.1,0.3-4.6,0.2c-1.5-0.1-3-0.4-4.4-0.8
		c-0.1,0-0.2,0-0.3,0.1c-0.1,0.2-0.3,0.2-0.5,0.1c-1-0.3-2-0.5-3-0.7c-0.2,0-0.2-0.1-0.1-0.3c0.8-2,1.7-4,2.5-5.9
		c0-0.1,0-0.2-0.1-0.3c-0.2-0.2-0.4-0.4-0.5-0.7C8.1,32,8,32,7.9,32.1c-0.4,0.2-0.9,0.5-1.3,0.8c0.1-0.2,0.1-0.3,0.2-0.4
		c0.2-0.6,0.5-1.1,0.8-1.7c0-0.1,0.1-0.2,0-0.3c-0.2-1.5,0.1-2.8,1.1-4c0.7-0.9,1.6-1.5,2.7-1.9c0.2-0.1,0.3-0.2,0.4-0.3
		c0.6-0.7,1.2-1.3,1.9-1.9c0,0,0.1-0.1,0.1-0.1c-2.1-0.3-4.3-0.1-6.4,0.2c-2.1,0.3-4.2,0.7-6.1,1.5c0.2-0.2,0.3-0.4,0.5-0.6
		c1.3-1.5,2.9-2.7,4.6-3.8c2.2-1.4,4.6-2.5,7.1-3.5c1.7-0.7,3.5-1.2,5.3-1.7c0.2,0,0.4-0.1,0.6-0.2c-0.7-0.1-1.4-0.1-2.1-0.1
		c-1.3,0.1-2.6,0.2-3.9,0.5c-1.8,0.4-3.5,0.9-5.2,1.5c-2.8,1.1-5.5,2.5-8.1,4.1c0,0-0.1,0.1-0.1,0c0.1-0.3,0.3-0.6,0.5-0.9
		c1.1-2,2.4-3.8,4-5.4c3.5-3.6,7.8-6,12.7-7.2c0.5-0.1,0.9-0.3,1.3-0.5c-0.2,0-0.4-0.1-0.5-0.1c-1.1-0.1-2.2-0.1-3.3-0.1
		c-1.7,0.1-3.3,0.3-4.9,0.6C9.8,6.7,9.7,6.7,9.6,6.7C9.6,6.7,9.6,6.7,9.6,6.7z M20.8,19.5C20.7,19.5,20.7,19.5,20.8,19.5L20.8,19.5
		c-0.2,0.2-0.4,0.3-0.4,0.5c0,0,0,0,0,0c0,0,0,0,0,0c0,0,0,0,0,0c0.2-0.1,0.4-0.2,0.6-0.4h0c0.3-0.1,0.6-0.3,0.8-0.5
		c0,0,0.1,0,0.1-0.1c1.5-0.9,3.1-1.5,4.7-2.1c0.9-0.3,1.9-0.6,2.8-0.8c0.6-0.1,1.1-0.3,1.7-0.3c0.3,0,0.5,0,0.8-0.2
		c0.2,0,0.3,0,0.5-0.1c-1.5,0-3,0-4.5,0c-0.8,0-1.6,0-2.5,0c-0.1,0-0.1,0-0.2,0c-0.3,0.2-0.7,0.3-1,0.6c-0.6,0.4-1.1,0.8-1.6,1.3
		c-0.5,0.4-0.9,0.9-1.3,1.4C21.1,19.1,20.9,19.3,20.8,19.5L20.8,19.5z M22.6,15.2L22.6,15.2c0.2,0,0.5-0.1,0.7-0.2
		c0.3-0.1,0.6-0.1,0.9-0.2h0c0.1,0,0.1,0,0.2,0c0.5-0.1,1.1-0.2,1.6-0.3c0.7-0.1,1.5-0.2,2.2-0.4c0.2,0,0.4,0.1,0.5-0.1
		c0,0,0.1,0,0.1,0c0.1,0.1,0.1,0,0.2,0c0.4,0,0.9-0.1,1.3-0.1c1.1,0,2.2-0.1,3.2,0.1c0.5,0.1,0.9,0.1,1.4,0.2
		c0.8,0.2,1.7,0.4,2.5,0.6c0.2,0.1,0.5,0.2,0.7,0.1c0,0,0,0,0.1,0c0,0.1,0.2,0.1,0.3,0.1l0,0c0,0,0.1,0,0.1,0
		c0.4,0.1,0.9,0.1,1.3,0.2c0.6,0.1,1.3,0,1.9-0.1c0.6-0.1,1-0.4,1.5-0.7c0.1,0,0.1-0.1,0-0.1c-0.1-0.1-0.2-0.2-0.3-0.3l0,0
		c0,0,0-0.1-0.1-0.1l0,0c0-0.1-0.1-0.2-0.2-0.3c-0.4-0.5-0.7-1.1-0.8-1.7c0-0.1-0.1-0.2-0.2-0.2c-0.3-0.1-0.6-0.3-0.8-0.4
		c-1-0.5-2-1-3-1.4c-0.3-0.1-0.6-0.3-0.9-0.4c-0.2-0.1-0.4-0.2-0.7-0.2c0.1-0.1,0.1,0,0.2,0c0.4,0,0.8,0,1.2,0c0.1,0,0.2,0,0.2,0
		c0,0,0.1,0,0.1,0c0,0,0.1,0,0.1,0c0,0,0-0.1,0-0.1c0,0-0.1-0.1-0.1-0.1c-0.2-0.2-0.3-0.4-0.4-0.8c0.7,0.5,1.4,0.5,2.1,0.6
		c0.7,0.1,1.4,0.1,2.1,0.1c0.5,0,1,0,1.5,0.2c0,0,0.1,0.1,0.1,0c0-0.1,0-0.1-0.1-0.1c-0.6-0.7-1.4-1.3-2.3-1.6c0,0,0.1,0,0.1-0.1
		c0.5-0.2,0.9-0.3,1.4-0.3c0.8,0,1.5,0,2.2,0.2c1.1,0.3,2.2,0.8,3.1,1.6c0.5,0.4,1,0.8,1.6,1c1.1,0.6,2.2,0.9,3.4,1.2
		c0.6,0.1,1.2,0.2,1.9,0.2c0.3,0,0.7,0,1,0c0.5,0,1.1-0.1,1.6-0.3c0.7-0.2,1.3-0.6,1.5-1.4c0.1-0.5,0.2-1.1,0-1.6
		c-0.2-0.8-0.8-1.4-1.5-1.8c-0.8-0.5-1.8-0.7-2.7-0.9c-0.8-0.2-1.6-0.4-2.4-0.6c-0.8-0.2-1.5-0.4-2.3-0.6c-1-0.2-1.9-0.4-2.9-0.6
		c-0.6-0.1-1.2-0.2-1.9-0.2c-0.6,0-1.2,0-1.7,0.1c-0.7,0.1-1.3,0.2-1.9,0.5c-1,0.4-2,0.6-3,0.6c-0.7,0-1.3,0-1.9-0.1
		c-0.4,0-0.8-0.1-1.1-0.1c-0.4,0-0.9-0.1-1.3-0.1c-0.3,0-0.7-0.1-1.1-0.1c-0.3,0-0.6-0.1-0.9-0.1c-0.7-0.1-1.4-0.1-2-0.2
		c-0.8-0.1-1.5-0.1-2.3-0.1c-0.6,0-1.2,0-1.8,0.1c-0.4,0-0.9,0.1-1.3,0.1c-1,0.1-1.9,0.4-2.8,0.7c-0.2,0.1-0.4,0.1-0.7,0.3
		c2.1,0.3,4,0.9,5.8,2c-0.2,0.1-0.4,0-0.6,0c-0.8,0.1-1.6,0.2-2.4,0.3c-0.7,0.1-1.4,0.2-2.1,0.3c-0.7,0.1-1.5,0.3-2.2,0.4
		c-0.6,0.1-1.3,0.3-1.9,0.5c-0.9,0.2-1.7,0.5-2.5,0.8c-1,0.3-2.1,0.7-3.1,1.2c-1,0.4-1.9,0.9-2.8,1.4c-1,0.6-2,1.3-3,2
		c-0.4,0.3-0.8,0.6-1.1,1c-0.4,0.3-0.7,0.6-1,1c-0.1,0.1-0.2,0.2-0.2,0.3c0,0,0,0,0,0c0,0,0,0,0,0c0.4-0.3,0.8-0.6,1.2-0.8
		c0.2-0.2,0.5-0.3,0.8-0.5c0.3-0.1,0.6-0.3,0.9-0.5c0.4-0.2,0.8-0.4,1.2-0.6l0,0c0.1,0,0.1,0,0.2,0c0.8-0.3,1.6-0.6,2.5-0.9
		c1.2-0.4,2.4-0.7,3.7-0.9c0.9-0.2,1.8-0.3,2.7-0.4c0.7-0.1,1.4-0.2,2.1-0.2c0.1,0,0.1,0,0.1-0.1c0,0,0,0,0.1,0c0.1,0.1,0.2,0,0.2,0
		c0.4,0,0.7-0.1,1.1-0.1c0.2,0,0.5,0,0.7,0c0.1,0,0.2,0,0.2-0.1c0,0,0,0,0.1,0c0.1,0.1,0.2,0,0.2,0c0.3,0,0.6,0,0.9,0
		c1.2,0,2.3,0,3.5,0c0.5,0,1,0,1.6,0.1c0.2,0,0.4,0.1,0.6,0.1c0.3,0,0.6,0.1,0.9,0c0,0,0.1,0,0.1,0c0.2,0.1,0.5,0.1,0.8,0.1
		c0,0,0,0,0.1,0c0,0.1,0.1,0.1,0.2,0.1c0.1,0,0.2,0,0.3,0c0.4,0,0.9,0.1,1.3,0.1h0c0,0.1,0,0.1-0.1,0.1c-0.8,0.2-1.6,0.5-2.4,0.7
		c-0.3,0.1-0.7,0.2-1,0.3v0c-0.3,0-0.5,0.2-0.8,0.2c-0.3,0.1-0.6,0.2-0.9,0.3l0,0c-0.5,0.1-0.9,0.3-1.3,0.4c-1.3,0.5-2.6,1-3.8,1.7
		c-0.3,0.2-0.5,0.3-0.8,0.5c0,0-0.1,0-0.1,0.1c0,0,0.1,0,0.1,0c0.3-0.1,0.5-0.1,0.8-0.3h0C22.4,15.3,22.5,15.2,22.6,15.2z M48.6,11
		c0-0.1-0.1-0.1-0.2-0.1c-0.6-0.2-1.1-0.5-1.6-0.9c-0.1-0.1-0.1,0-0.2,0.1c-0.1,0.2-0.1,0.4-0.2,0.5c-0.2,0.6-0.2,1.2-0.1,1.7
		c0.2,0.8,0.7,1.3,1.4,1.7c0.8,0.4,1.6,0.5,2.5,0.3c0.6-0.1,1.2-0.5,1.6-1c0.2-0.3,0.4-0.6,0.5-0.9c0-0.1,0-0.2-0.1-0.2
		c-0.3-0.1-0.6-0.2-0.9-0.3c-0.1,0-0.3-0.1-0.4-0.1c0.1,0.3,0.1,0.5,0.1,0.8c-0.2,0.8-0.9,1.3-1.7,1.1c-0.6-0.1-1.1-0.7-1-1.2
		c0.4,0.1,0.7,0.1,0.9-0.2C49.5,11.9,49.3,11.1,48.6,11z M18.3,21.5C18.2,21.5,18.2,21.5,18.3,21.5c-0.8,0.5-1.6,1-2.3,1.5
		c-0.2,0.2-0.5,0.4-0.7,0.7c0,0-0.1,0.1-0.1,0.1c0,0.1,0.1,0,0.1,0c0.6,0,1.1,0,1.7,0.1c0.6,0,1.1,0.1,1.7,0.2
		c0.5,0.1,0.9,0.1,1.4,0.2c0.1,0,0.2,0,0.3,0c0.6-0.2,1.2-0.3,1.8-0.5c0.9-0.2,1.7-0.5,2.6-0.7c1.4-0.4,2.7-0.7,4.1-1.1
		c0.8-0.2,1.6-0.4,2.4-0.6c0.2,0,0.3-0.1,0.5-0.1c-0.1,0-0.3-0.1-0.4-0.1c-2,0-3.9,0-5.9,0c-0.1,0-0.2,0-0.2,0c-0.1,0-0.2,0-0.2,0
		c-0.1-0.1-0.2-0.1-0.3,0c0,0,0,0-0.1,0c-0.2-0.1-0.4,0-0.6,0c-0.3,0-0.5,0-0.8,0c-0.1,0-0.2,0-0.2,0c0-0.1-0.1-0.1-0.2-0.1
		c-1.2,0-2.5,0-3.7,0C18.8,21.2,18.5,21.3,18.3,21.5z M55.2,24.9c0-0.1-0.1,0-0.2,0c-2.2,0-4.4,0-6.6,0c-0.2,0-0.2,0-0.2,0.2
		c0,0.6,0,1.1,0,1.7c0,0.1,0,0.1,0,0.2c0.2,0.1,0.3,0,0.5,0.1c0.1,0,0.2,0.1,0.2,0.2c0,2.1,0,4.2,0,6.3c0,0.3-0.1,0.6-0.3,0.8
		c-0.3,0.3-0.8,0.4-1.2,0.5c-0.5,0.1-1,0-1.5,0c-0.4-0.1-0.8-0.2-1.1-0.7c-0.2-0.3-0.2-0.6-0.2-0.9c0-1.9,0-3.8,0-5.7
		c0-0.5,0-0.5,0.5-0.5c0.1,0,0.2-0.1,0.2-0.2c0-0.6,0-1.3,0-1.9c0-0.1-0.1,0-0.2,0c-2.2,0-4.4,0-6.7,0c-0.1,0-0.2,0-0.2,0.2
		c0,0.6,0,1.2,0,1.8c0,0.1,0,0.1,0,0.2c0.2,0.1,0.3,0,0.5,0.1c0.2,0,0.2,0.1,0.2,0.2c0,2,0,4,0,6.1c0,0.6,0.1,1.2,0.2,1.8
		c0.4,1.5,1.2,2.7,2.6,3.5c1.3,0.8,2.7,1.1,4.2,1.1c0,0,0.1,0,0.1,0c0.5,0,0.9,0,1.4,0c0,0,0.1,0,0.1,0c0.1,0,0.3,0,0.4,0
		c0.7-0.1,1.4-0.2,2.1-0.4c1-0.3,1.8-0.7,2.6-1.4c1.3-1.2,1.8-2.7,1.8-4.4c0-2.1,0-4.2,0-6.3c0-0.1,0-0.2,0.2-0.2c0.1,0,0.2,0,0.4,0
		c0.1,0,0.1,0,0.1-0.2C55.2,26.2,55.2,25.5,55.2,24.9z M16.9,39.8c0.4,0,0.9,0,1.3-0.1c0.7-0.1,1.4-0.2,2-0.5c1.1-0.4,2-0.9,2.8-1.9
		c0.9-1.2,1.2-2.6,0.9-4c-0.2-1.1-0.9-2-1.9-2.5c-0.2-0.1-0.2-0.2-0.1-0.4c0.7-1.4,1.4-2.9,2.2-4.3c0.1-0.2,0.1-0.2-0.1-0.3
		c-0.4-0.1-0.9-0.3-1.3-0.5c-0.3-0.1-0.5-0.1-0.7,0.2c0,0-0.1,0.1-0.1,0.1c-0.1,0.1-0.2,0.1-0.3,0.1c-0.8-0.2-1.7-0.4-2.5-0.6
		c-1.1-0.2-2.2-0.3-3.3-0.4c-0.6,0-1.2,0-1.7,0.1c-0.9,0.1-1.8,0.3-2.7,0.7c-0.8,0.4-1.5,0.9-2.1,1.7c-0.4,0.6-0.7,1.3-0.8,2.1
		c-0.1,0.5,0,1,0.1,1.4c0.2,0.8,0.6,1.4,1.2,1.9c0.1,0.1,0.1,0.1,0.1,0.3C9.4,33.9,9,35,8.5,36c-0.3,0.8-0.7,1.6-1,2.4
		c-0.1,0.1,0,0.2,0.1,0.2c0.5,0.1,1,0.2,1.5,0.4c0.2,0,0.3,0,0.4-0.1c0.1-0.2,0.2-0.2,0.4-0.1c0.9,0.3,1.9,0.6,2.8,0.7
		c0.8,0.1,1.6,0.2,2.3,0.2c0,0,0,0,0,0C15.7,39.8,16.3,39.8,16.9,39.8C16.9,39.8,16.9,39.8,16.9,39.8z M60,20.3
		c-0.1,0-0.1,0-0.2,0.1c-1.4,0.6-2.8,1-4.3,1c-1.5,0-2.8-0.5-3.9-1.6c-0.1-0.1-0.2-0.1-0.3-0.1c-0.7,0-1.4,0.1-2.1,0.1
		c-2,0.1-3.9,0.3-5.9,0.4c-0.3,0-0.6,0-0.9,0c0.4-0.2,0.8-0.3,1.2-0.4c2.8-0.8,5.7-1.7,8.5-2.5c0.2,0,0.2,0,0.3,0.1
		c0.4,0.8,0.9,1.3,1.7,1.7c1,0.4,2,0.4,3,0.2c0.4-0.1,0.7-0.2,0.8-0.6c0-0.1,0.1-0.1,0.1-0.2c0.5-0.9,0.9-1.8,1.4-2.8
		c0-0.1,0.1-0.2,0.2-0.1c1,0.4,1.9,0.9,2.3,2c0.4,0.8,0.4,1.7,0.2,2.6c0,0.1-0.1,0.2-0.1,0.4c0,0.1-0.1,0.2-0.1,0.4
		c0,0,0.1,0,0.1-0.1c0.7-1.1,1.2-2.2,1.3-3.5c0.1-0.9-0.1-1.7-0.6-2.4c-0.2-0.3-0.5-0.6-0.8-0.8c-0.1,0-0.1-0.1,0-0.2
		c0.4-0.4,0.9-0.6,1.5-0.4c0,0,0,0,0,0c0,0,0,0,0,0c0,0,0,0,0,0c0-0.1,0-0.1,0-0.2c-0.3-0.8-0.8-1.4-1.5-1.8
		C61,11.1,60.1,11,59.1,11c0,0-0.1,0-0.1,0c-1.3,0.7-2.6,1.4-3.8,2.2c-0.5,0.3-0.9,0.7-1.2,1.2c-0.1,0.3-0.3,0.4-0.6,0.6
		c-1.2,1-2.5,1.7-4,2.3c-2.8,1.2-5.8,1.7-8.8,1.8c-0.2,0-0.4,0.1-0.6,0.3c0,0-0.1,0.1-0.1,0.1c-0.5,0.6-0.4,1.1,0.3,1.5
		c0.5,0.3,1.1,0.4,1.7,0.4c0.2,0,0.4,0.1,0.7,0c0.8-0.3,1.7-0.4,2.5-0.4c1.6,0,3.3,0.3,4.8,0.7c1.2,0.3,2.4,0.7,3.6,0.8
		c1.5,0.1,2.9-0.1,4.2-0.7C58.7,21.6,59.5,21.1,60,20.3C60,20.3,60.1,20.3,60,20.3C60,20.3,60,20.3,60,20.3z M31,30.7
		c0,1.2,0,2.3,0,3.4c0,0.2,0,0.3-0.1,0.5c0,0.2-0.1,0.3-0.4,0.3c-0.5,0-1,0-1.4-0.1c-0.4-0.1-0.9-0.2-1.2-0.4
		c-0.1-0.1-0.1-0.1-0.1-0.2c0-0.2,0.1-0.4,0.1-0.6c0-0.1,0-0.2-0.2-0.3c-0.5-0.2-1.1-0.4-1.6-0.5c-0.1,0-0.2-0.1-0.2,0.1
		c-0.2,0.5-0.4,1-0.6,1.5c-0.3,0.8-0.7,1.6-1,2.4c-0.2,0.5-0.4,1-0.6,1.5c0,0.1,0,0.2,0.1,0.3c0.4,0.2,0.7,0.4,1.1,0.6
		c0.1,0.1,0.3,0.2,0.4,0.2c0.2,0,0.3-0.2,0.4-0.3c0,0,0,0,0,0c0.1-0.1,0.2-0.1,0.3-0.1c0.4,0.1,0.8,0.3,1.3,0.4
		c0.8,0.2,1.5,0.3,2.3,0.3c0.8,0,1.6,0,2.5-0.1c0.8-0.1,1.7-0.3,2.4-0.8c0.9-0.5,1.5-1.3,1.9-2.4c0.2-0.6,0.3-1.3,0.3-2
		c0-2.4,0-4.9,0-7.3c0-0.1,0-0.1,0-0.2c0,0,0-0.1,0.1-0.1c0.2,0,0.3-0.1,0.4-0.1c0.1,0,0.2,0,0.2-0.2c0-0.6,0-1.2,0-1.8
		c0-0.1,0-0.2-0.2-0.2c-2.2,0-4.4,0-6.6,0c-0.1,0-0.2,0-0.2,0.2c0,0.5,0,1.1,0,1.6c0,0.3,0,0.3,0.3,0.4c0.1,0,0.1,0,0.2,0
		c0.2,0,0.2,0.1,0.2,0.2C31,28.4,31,29.6,31,30.7z"/>
	<path class="st0" d="M58.1,25.1c0,0.1-0.1,0.2-0.1,0.2c0,0.1,0,0.2-0.1,0.2c-0.1,0-0.1-0.1-0.1-0.2c0-0.1-0.1-0.2-0.1-0.3
		c0,0.1,0,0.2,0,0.3c0,0.1,0,0.1-0.1,0.1c-0.1,0-0.1-0.1-0.1-0.1c0-0.2,0-0.3,0-0.5c0,0,0-0.1,0.1-0.1c0.1,0,0.1,0,0.2,0.1
		c0,0.1,0.1,0.3,0.2,0.4c0.1-0.2,0.1-0.3,0.2-0.4c0-0.1,0.1-0.1,0.2-0.1c0.1,0,0.1,0.1,0.1,0.1c0,0.2,0,0.3,0,0.5c0,0,0,0.1-0.1,0.1
		c-0.1,0-0.1,0-0.1-0.1C58.1,25.4,58.1,25.2,58.1,25.1C58.1,25.1,58.1,25.1,58.1,25.1z"/>
	<path class="st0" d="M57,24.8c0.1,0,0.1,0,0.2,0c0,0,0.1,0,0.1,0.1c0,0.1,0,0.1-0.1,0.1c-0.2,0-0.2,0.1-0.2,0.2c0,0.1,0,0.2,0,0.3
		c0,0.1,0,0.1-0.1,0.1c-0.1,0-0.1-0.1-0.1-0.1c0-0.1,0-0.2,0-0.3c0-0.1,0-0.2-0.2-0.2c0,0-0.1,0-0.1-0.1c0-0.1,0-0.1,0.1-0.1
		C56.8,24.8,56.9,24.8,57,24.8z"/>
	<path class="st0" d="M9.6,6.7C9.6,6.7,9.6,6.7,9.6,6.7C9.6,6.7,9.6,6.7,9.6,6.7C9.6,6.7,9.6,6.7,9.6,6.7z"/>
	<path class="st1" d="M30,10.8C30,10.8,29.9,10.8,30,10.8c-0.1-0.1-0.1-0.1-0.2-0.1c-0.3,0-0.7,0-1-0.1c-0.5-0.1-1.1-0.1-1.7-0.1
		c-1.6-0.1-3.1,0-4.7,0c-0.1,0-0.2,0-0.2,0.1c0,0,0,0-0.1,0c-0.1,0-0.1,0-0.2,0c-0.7,0-1.3,0.1-2,0.1c-0.1,0-0.1,0-0.1,0.1
		c0,0,0,0-0.1,0c-0.2,0-0.4-0.1-0.6,0c-0.3,0.1-0.7,0.1-1,0.1c-0.3,0.1-0.6,0.1-1,0.1c-0.2,0-0.4,0-0.5,0.1
		c-0.2,0.1-0.5,0.1-0.7,0.1c-0.2,0-0.4,0.1-0.6,0.1c-0.1,0-0.3,0-0.4,0.1c-0.2,0.1-0.5,0.2-0.7,0.2c0,0-0.1,0-0.1,0
		c-0.3,0.2-0.7,0.2-1,0.3c-0.4,0.1-0.7,0.2-1.1,0.3c-0.4,0.1-0.8,0.2-1.2,0.4c-0.4,0.1-0.7,0.3-1.1,0.4c-0.2,0.1-0.5,0.2-0.7,0.3
		c-0.1,0-0.3,0.1-0.4,0.2l0,0c-0.1,0-0.2,0-0.2,0c-0.3,0.1-0.5,0.3-0.9,0.4c-0.1,0-0.1,0.1-0.1,0.2c-0.3,0.2-0.6,0.3-0.9,0.5
		c-0.2,0-0.4,0.1-0.5,0.2c-0.3,0.2-0.6,0.4-0.8,0.6c0-0.2,0.1-0.2,0.2-0.3c0.1-0.1,0.3-0.2,0.4-0.4c0.3-0.4,0.7-0.7,1.1-1
		c0.9-0.8,1.9-1.4,3-2c0.9-0.5,1.8-1,2.8-1.4c1-0.4,2-0.8,3.1-1.2c0.8-0.3,1.7-0.5,2.5-0.8C18.7,8,19.4,7.9,20,7.7
		c0.7-0.2,1.5-0.3,2.2-0.4c0.7-0.1,1.4-0.2,2.1-0.3c0.8-0.1,1.6-0.2,2.4-0.3c0.2,0,0.4,0,0.6,0c-1.8-1.1-3.7-1.7-5.8-2
		c0.2-0.2,0.5-0.2,0.7-0.3C23.1,4,24,3.7,25,3.6c0.4-0.1,0.9-0.1,1.3-0.1c0.6-0.1,1.2-0.1,1.8-0.1c0.8,0,1.5,0,2.3,0.1
		c0.7,0.1,1.4,0.1,2,0.2c0.3,0,0.6,0.1,0.9,0.1c0.3,0.1,0.7,0.1,1.1,0.1C34.8,4,35.2,4,35.6,4c0.4,0,0.8,0.1,1.1,0.1
		c0.6,0.1,1.3,0.1,1.9,0.1c1,0,2-0.2,3-0.6c0.6-0.3,1.3-0.4,1.9-0.5c0.6-0.1,1.2-0.1,1.7-0.1c0.6,0,1.2,0.1,1.9,0.2
		c1,0.1,1.9,0.4,2.9,0.6c0.8,0.2,1.5,0.4,2.3,0.6C53.2,4.6,54,4.9,54.8,5c0.9,0.2,1.8,0.4,2.7,0.9c0.7,0.4,1.3,1,1.5,1.8
		c0.2,0.5,0.1,1.1,0,1.6c-0.2,0.8-0.8,1.1-1.5,1.4c-0.5,0.2-1,0.2-1.6,0.3c-0.3,0-0.7,0-1,0c-0.6,0-1.3-0.1-1.9-0.2
		c-1.2-0.2-2.3-0.6-3.4-1.2c-0.6-0.3-1.1-0.7-1.6-1c-0.9-0.7-2-1.2-3.1-1.6c-0.7-0.2-1.5-0.2-2.2-0.2c-0.5,0-0.9,0.1-1.4,0.3
		c0,0-0.1,0-0.1,0.1c0.9,0.4,1.6,0.9,2.3,1.6c0,0,0.1,0.1,0.1,0.1c0,0.1-0.1,0-0.1,0c-0.5-0.1-1-0.2-1.5-0.2c-0.7,0-1.4,0-2.1-0.1
		c-0.7-0.1-1.4-0.1-2.1-0.6c0.1,0.3,0.3,0.5,0.4,0.8c0,0,0.1,0.1,0.1,0.1c0,0,0.1,0.1,0,0.1c0,0.1-0.1,0-0.1,0c0,0-0.1,0-0.1,0
		c-0.6,0-1.2,0-1.8,0c0.1,0.1,0.1,0.1,0.2,0.1c0.2,0,0.5,0.1,0.7,0.2c0,0,0,0.1,0.1,0.1c0.3,0.1,0.6,0.2,0.9,0.3
		c0.4,0.1,0.7,0.3,1.1,0.5c0.5,0.2,1,0.5,1.4,0.7c0.4,0.2,0.8,0.4,1.1,0.6c0.1,0.1,0.3,0.1,0.3,0.3c0.1,0.5,0.3,0.9,0.5,1.3
		c0.2,0.2,0.3,0.5,0.5,0.6l0,0c0,0.1,0,0.1,0.1,0.1l0,0c0,0,0,0.1,0,0.1c0.3,0.2,0.2,0.3-0.1,0.4c-0.5,0.4-1.1,0.6-1.7,0.6
		c-0.5,0-1,0-1.5,0c-0.4-0.1-0.8-0.2-1.3-0.1l0,0c0-0.2-0.2-0.1-0.3-0.1c0,0,0,0-0.1,0c-0.1-0.2-0.3-0.1-0.5-0.2
		c-0.2,0-0.4-0.1-0.6-0.1c-0.4-0.1-0.8-0.2-1.2-0.3c-0.2-0.1-0.4-0.1-0.6-0.1c-0.2,0-0.4-0.1-0.6-0.1c-0.2,0-0.4,0-0.6-0.1
		c-0.3-0.1-0.7-0.1-1-0.1c-1.4,0-2.8-0.1-4.2,0.1c-0.1,0-0.1,0-0.2,0.1c0,0-0.1,0-0.1,0c-0.3,0-0.5,0.1-0.8,0.1
		c-0.3,0-0.6,0.1-0.9,0.1c0,0,0,0,0,0c-0.3,0.1-0.7,0.1-1.1,0.2c-0.3,0.1-0.7,0.1-1,0.2c-0.1,0-0.2,0-0.4,0.1c-0.1,0-0.3,0-0.4,0.2
		h0c-0.5-0.1-0.9,0.2-1.4,0.3c0,0-0.2,0-0.2,0.1l0,0c-0.1,0-0.3-0.1-0.3,0.1h0c-0.1,0-0.2,0-0.2,0c0,0-0.1,0-0.1,0c0,0,0,0,0-0.1
		c0.2-0.1,0.4-0.2,0.6-0.3c0.5-0.2,1-0.5,1.5-0.7c0.3-0.2,0.7-0.3,1-0.4c0.4-0.2,0.8-0.3,1.2-0.5c0.3-0.1,0.5-0.2,0.8-0.3
		c0.1,0,0.2,0,0.2-0.2l0,0c0.1,0,0.2,0,0.3,0c0.3-0.1,0.6-0.2,0.9-0.3c0.2-0.1,0.4-0.1,0.5-0.2v0c0.2,0,0.3,0,0.4-0.1
		c0.2-0.1,0.5-0.1,0.7-0.2c0.4-0.2,0.8-0.3,1.2-0.4c0.4-0.1,0.8-0.3,1.2-0.3c0.1,0,0.1-0.1,0.1-0.1c0-0.1-0.1,0-0.1-0.1h0
		c0-0.1,0-0.1-0.1-0.1c-0.2,0-0.3-0.1-0.4-0.1c-0.4,0-0.8-0.2-1.3-0.1c0,0,0,0-0.1,0c0,0,0-0.1-0.1-0.1C30.5,10.8,30.2,10.8,30,10.8
		z"/>
	<path class="st2" d="M63.4,13.7c-0.5-0.2-1.1,0-1.5,0.4c-0.1,0.1,0,0.1,0,0.2c0.3,0.2,0.6,0.5,0.8,0.8c0.5,0.7,0.7,1.5,0.6,2.4
		c-0.1,1.3-0.6,2.4-1.3,3.5c0,0,0,0-0.1,0.1c0-0.2,0.1-0.3,0.1-0.4c0-0.1,0.1-0.2,0.1-0.4c0.2-0.9,0.2-1.7-0.2-2.6
		c-0.5-1-1.3-1.6-2.3-2c-0.1,0-0.1,0-0.2,0.1c-0.5,0.9-0.9,1.8-1.4,2.8c0,0.1-0.1,0.1-0.1,0.2c-0.1,0.4-0.4,0.5-0.8,0.6
		c-1,0.2-2,0.3-3-0.2c-0.8-0.3-1.3-0.9-1.7-1.7c-0.1-0.1-0.1-0.2-0.3-0.1c-2.8,0.8-5.7,1.7-8.5,2.5c-0.4,0.1-0.8,0.2-1.2,0.4
		c0.3,0,0.6,0,0.9,0c2-0.1,3.9-0.3,5.9-0.4c0.7,0,1.4-0.1,2.1-0.1c0.1,0,0.2,0,0.3,0.1c1.1,1.1,2.4,1.6,3.9,1.6c1.5,0,2.9-0.4,4.3-1
		c0.1,0,0.1-0.1,0.2-0.1l0,0c-0.6,0.8-1.3,1.3-2.2,1.7c-1.3,0.6-2.8,0.8-4.2,0.7c-1.2-0.1-2.4-0.4-3.6-0.8c-1.6-0.4-3.2-0.7-4.8-0.7
		c-0.9,0-1.7,0.1-2.5,0.4c-0.2,0.1-0.4,0-0.7,0c-0.6-0.1-1.2-0.2-1.7-0.4c-0.7-0.3-0.8-0.9-0.3-1.5c0,0,0.1-0.1,0.1-0.1
		c0.1-0.2,0.3-0.2,0.6-0.3c3-0.1,6-0.6,8.8-1.8c1.4-0.6,2.8-1.3,4-2.3c0.2-0.2,0.4-0.4,0.6-0.6c0.3-0.5,0.8-0.9,1.2-1.2
		c1.2-0.9,2.5-1.6,3.8-2.2c0,0,0.1,0,0.1,0c1,0,1.9,0.1,2.8,0.6c0.7,0.5,1.2,1.1,1.5,1.8C63.4,13.6,63.4,13.6,63.4,13.7L63.4,13.7z"
		/>
	<path class="st1" d="M15.1,39.8c-0.8,0-1.6-0.1-2.3-0.2c-1-0.2-1.9-0.4-2.8-0.7c-0.2-0.1-0.3-0.1-0.4,0.1c-0.1,0.1-0.2,0.2-0.4,0.1
		c-0.5-0.1-1-0.3-1.5-0.4c-0.1,0-0.2-0.1-0.1-0.2c0.3-0.8,0.7-1.6,1-2.4C9,35,9.4,33.9,9.9,32.8c0.1-0.1,0-0.2-0.1-0.3
		c-0.6-0.5-1.1-1.1-1.2-1.9c-0.1-0.5-0.1-0.9-0.1-1.4c0.1-0.8,0.4-1.4,0.8-2.1c0.5-0.7,1.3-1.3,2.1-1.7c0.9-0.4,1.8-0.6,2.7-0.7
		c0.6-0.1,1.2-0.1,1.7-0.1c1.1,0.1,2.2,0.2,3.3,0.4c0.9,0.2,1.7,0.4,2.5,0.6c0.1,0,0.2,0,0.3-0.1c0,0,0.1-0.1,0.1-0.1
		c0.2-0.3,0.4-0.3,0.7-0.2c0.4,0.2,0.9,0.3,1.3,0.5c0.2,0.1,0.2,0.1,0.1,0.3c-0.7,1.4-1.4,2.9-2.2,4.3c-0.1,0.2-0.1,0.3,0.1,0.4
		c1,0.6,1.6,1.4,1.9,2.5c0.3,1.5,0,2.8-0.9,4c-0.7,0.9-1.7,1.5-2.8,1.9c-0.7,0.2-1.3,0.4-2,0.5c-0.4,0.1-0.9,0.1-1.3,0.1
		C16.3,39.8,15.7,39.8,15.1,39.8z M15.3,35.9c-0.4,0-0.9-0.1-1.3-0.2c-0.9-0.2-1.8-0.4-2.6-0.9c-0.4-0.2-0.7-0.5-0.5-1
		c0-0.2-0.1-0.2-0.2-0.2c-0.1-0.1-0.1,0.1-0.1,0.1c-0.6,1.3-1.1,2.7-1.7,4c-0.1,0.1,0,0.2,0.1,0.2c0.1,0,0.2,0,0.3-0.1
		c0.2-0.2,0.4-0.2,0.6-0.2c0.5,0.2,1,0.3,1.4,0.5c2.2,0.6,4.5,0.8,6.8,0.5c1-0.1,2-0.4,2.9-0.9c1.2-0.7,2-1.7,2.1-3.1
		c0.1-1.4-0.4-2.5-1.6-3.2c-0.9-0.5-1.9-0.7-2.9-0.9c-1.2-0.2-2.4-0.2-3.6-0.4c-0.5-0.1-1-0.1-1.5-0.3c-0.3-0.1-0.5-0.3-0.5-0.6
		c0-0.3,0.2-0.5,0.4-0.7c0.5-0.3,1-0.4,1.5-0.4c0.6,0,1.3,0,1.9,0c0.5,0,1,0.1,1.5,0.2c0.7,0.1,1.5,0.3,2.2,0.6
		c0.3,0.1,0.5,0.3,0.5,0.7c0,0.1,0.2,0.1,0.2,0.2c0.1,0.1,0.1-0.1,0.1-0.1c0.2-0.4,0.4-0.9,0.7-1.3c0.3-0.6,0.6-1.2,0.9-1.8
		c0.1-0.1,0-0.1-0.1-0.2c-0.1,0-0.2,0-0.3,0.1c-0.2,0.2-0.5,0.3-0.8,0.2c-0.1,0-0.3-0.1-0.4-0.1c-1.8-0.5-3.7-0.9-5.6-0.9
		c-1.2,0-2.3,0.1-3.4,0.5c-1.1,0.4-2,1-2.6,2.1c-0.4,0.9-0.5,1.8,0,2.8c0.4,0.7,1,1.1,1.7,1.4c1,0.4,2.1,0.6,3.2,0.7
		c1.1,0.1,2.2,0.2,3.2,0.3c0.4,0,0.9,0.1,1.3,0.3c0.3,0.2,0.4,0.4,0.4,0.7c-0.1,0.4-0.4,0.7-0.7,0.9c-0.6,0.3-1.2,0.4-1.9,0.4
		C16.4,35.9,15.8,35.9,15.3,35.9z M18.5,34.6c-0.2-0.1-0.4-0.1-0.6-0.1c-0.7-0.1-1.4-0.2-2.1-0.2c-0.6-0.1-1.1-0.1-1.7-0.2
		c-0.7-0.1-1.4-0.2-2.1-0.4c-0.2,0-0.2,0-0.3,0.1c-0.1,0.1,0,0.2,0.1,0.3c0.1,0,0.2,0.1,0.3,0.2c1.1,0.5,2.3,0.7,3.5,0.8
		c0.6,0,1.2,0,1.8-0.1C17.9,34.9,18.2,34.8,18.5,34.6z M14.3,29.2c0.3,0,0.6,0.1,0.8,0.1c0.7,0.1,1.4,0.1,2.1,0.2
		c0.4,0,0.8,0.1,1.2,0.2c0.4,0.1,0.8,0.1,1.2,0.2c0,0,0.1,0.1,0.1,0c0-0.1,0-0.1-0.1-0.1c-0.2-0.1-0.3-0.1-0.5-0.2
		c-0.9-0.2-1.8-0.4-2.7-0.5c-0.5,0-0.9,0-1.4,0C14.9,29.1,14.7,29.1,14.3,29.2z"/>
	<path class="st1" d="M46,39.8c-1.5,0-2.9-0.3-4.2-1.1c-1.4-0.8-2.2-2-2.6-3.5c-0.1-0.6-0.2-1.2-0.2-1.8c0-2,0-4,0-6.1
		c0-0.1,0-0.2-0.2-0.2c-0.2,0-0.3,0-0.5-0.1c0-0.6,0-1.3,0-1.9c0-0.1,0-0.2,0.2-0.2c2.3,0,4.5,0,6.8,0c0,0.6,0,1.3,0,1.9
		c0,0.1-0.1,0.2-0.2,0.2c-0.5,0-0.5,0-0.5,0.5c0,1.9,0,3.8,0,5.7c0,0.3,0,0.6,0.2,0.9c0.2,0.4,0.6,0.6,1.1,0.7c0.5,0.1,1,0.1,1.5,0
		c0.4-0.1,0.9-0.1,1.2-0.5c0.2-0.2,0.3-0.5,0.3-0.8c0-2.1,0-4.2,0-6.3c0-0.1,0-0.2-0.2-0.2c-0.2,0-0.3,0-0.5-0.1c0-0.6,0-1.2,0-1.8
		c0-0.2,0.1-0.3,0.3-0.3c2.2,0,4.5,0,6.7,0c0,0.6,0,1.3,0,1.9c0,0.1,0,0.2-0.1,0.2c-0.1,0-0.2,0-0.4,0c-0.2,0-0.2,0.1-0.2,0.2
		c0,2.1,0,4.2,0,6.3c0,1.7-0.6,3.2-1.8,4.4c-0.7,0.7-1.6,1.1-2.6,1.4c-0.7,0.2-1.4,0.3-2.1,0.4c-0.1,0-0.3,0-0.4,0
		C47.1,39.8,46.5,39.8,46,39.8z M53.4,35L53.4,35C53.4,35,53.4,35,53.4,35c0.1-0.3,0.3-0.6,0.2-0.9c0-0.1,0-0.2,0.1-0.4
		c0-0.2,0.1-0.4-0.1-0.5c0,0,0-0.1,0-0.1c0.1,0,0.1-0.1,0.1-0.2c0-2.1,0-4.2,0-6.3c0-0.3,0.1-0.4,0.4-0.4c0.3,0,0.3-0.1,0.2-0.4
		c0,0,0,0,0,0c0-0.1-0.1,0-0.1,0c-1.6,0-3.2,0-4.8,0c-0.1,0-0.1,0-0.2,0.1c0,0.1-0.1,0.1,0,0.2c0.1,0.1,0.2,0.2,0.3,0.1h0
		c0,0,0,0.1,0.1,0.1c0.3,0.1,0.4,0.1,0.4,0.5c0,2.2,0,4.4,0,6.6c0,0.2,0,0.3-0.1,0.5c0,0.2-0.1,0.4-0.1,0.6
		c-0.1,0.1-0.1,0.2-0.2,0.3c-0.3,0.4-0.6,0.6-1,0.8c-1,0.4-1.9,0.4-2.9,0.2c-1.2-0.2-1.8-0.9-1.9-2.1c0,0,0-0.1,0-0.1
		c0-2.3,0-4.7,0-7c0.1-0.2,0.3-0.2,0.5-0.2c0.1,0,0.2,0,0.2-0.1c0-0.1,0.1-0.2-0.1-0.3c-0.1-0.1-0.1,0-0.2,0c-1.5,0-3,0-4.6,0
		c-0.1,0-0.2,0-0.2,0c-0.1,0.2-0.1,0.3,0.2,0.3c0.2,0,0.4,0,0.4,0.2c0,2.4,0,4.7,0,7.1c0,0.1,0,0.1,0,0.2c0,0.1,0,0.2,0,0.3
		c0.1,0.7,0.2,1.4,0.6,2.1c0.6,1.2,1.7,2,2.9,2.4c0.9,0.3,1.8,0.4,2.8,0.5c1.2,0,2.3,0,3.4-0.3c1-0.3,1.9-0.7,2.6-1.5
		c0.4-0.5,0.7-1,1-1.6c0,0,0.1,0,0.1-0.1C53.4,35.2,53.4,35.1,53.4,35z"/>
	<path class="st1" d="M25,21.3c0.1,0,0.2,0,0.2,0c0.1,0,0.2,0,0.2,0c1.9,0,3.8,0,5.7,0c0.1,0,0.2,0,0.2,0.2
		c-0.8,0.2-1.6,0.4-2.4,0.6c-1.4,0.4-2.7,0.7-4.1,1.1c-0.9,0.2-1.7,0.5-2.6,0.7c-0.6,0.2-1.2,0.3-1.8,0.5c-0.1,0-0.2,0-0.3,0
		c-0.5-0.1-0.9-0.2-1.4-0.2c-0.6-0.1-1.1-0.2-1.7-0.2c-0.6,0-1.1-0.1-1.7-0.1c0,0-0.1,0-0.1,0c0,0,0-0.1,0.1-0.1
		c0.2-0.2,0.4-0.5,0.7-0.7c0.7-0.6,1.5-1,2.2-1.5c0,0,0.1,0,0.1,0c0.1,0,0.1,0,0.2,0c0.2-0.2,0.5-0.2,0.8-0.2c1.3,0,2.5,0,3.8,0
		c0.1,0,0.2,0,0.2,0c0.5,0,0.9,0,1.4,0c0,0,0,0,0.1,0C24.8,21.3,24.9,21.3,25,21.3z"/>
	<path class="st1" d="M31.9,15.7c-0.2,0.1-0.5,0.1-0.8,0.2c-0.6,0.1-1.1,0.2-1.7,0.3c-0.9,0.2-1.9,0.5-2.8,0.8
		c-1.6,0.6-3.2,1.3-4.7,2.1c0,0-0.1,0-0.1,0.1c-0.2,0-0.4,0.2-0.6,0.3c-0.1,0-0.2,0.1-0.2,0.2h0c0,0-0.1,0-0.1,0
		c-0.2,0.1-0.1,0-0.1-0.1h0c0.1,0,0.1,0,0.1-0.1l0,0c0.2-0.2,0.4-0.3,0.5-0.6c0.4-0.5,0.8-1,1.3-1.4c0.5-0.5,1.1-0.9,1.6-1.3
		c0.3-0.2,0.7-0.4,1-0.6c0.1,0,0.1,0,0.2,0c0.8,0,1.6,0,2.5,0c0.1,0.1,0.2,0,0.2,0c1.2,0,2.4,0,3.6,0C31.7,15.6,31.8,15.6,31.9,15.7
		z"/>
	<path class="st1" d="M48.2,12.6c0,0.4,0.5,1,1,1.2c0.8,0.2,1.5-0.3,1.7-1.1c0.1-0.3,0-0.5-0.1-0.8c0.2,0,0.3,0.1,0.4,0.1
		c0.3,0.1,0.6,0.2,0.9,0.3c0.1,0,0.1,0.1,0.1,0.2c-0.1,0.3-0.3,0.7-0.5,0.9c-0.4,0.5-0.9,0.9-1.6,1c-0.9,0.2-1.7,0.1-2.5-0.3
		c-0.7-0.4-1.2-0.9-1.4-1.7c-0.1-0.6-0.1-1.2,0.1-1.7c0.1-0.2,0.1-0.4,0.2-0.5c0-0.1,0.1-0.1,0.2-0.1c0.5,0.4,1.1,0.6,1.6,0.9
		c0.1,0,0.1,0,0.2,0.1c-0.1,0-0.2,0-0.3,0c-0.3,0.1-0.6,0.3-0.6,0.6C47.6,12.1,47.8,12.4,48.2,12.6z"/>
	<path class="st2" d="M31,30.7c0-1.2,0-2.3,0-3.5c0-0.2,0-0.3-0.2-0.2c-0.1,0-0.1,0-0.2,0c-0.3,0-0.3,0-0.3-0.4c0-0.5,0-1.1,0-1.6
		c0-0.1,0-0.2,0.2-0.2c2.2,0,4.4,0,6.6,0c0.1,0,0.2,0,0.2,0.2c0,0.6,0,1.2,0,1.8c0,0.1,0,0.2-0.2,0.2c-0.2,0-0.3,0.1-0.4,0.1
		c0,0-0.1,0-0.1,0.1c0,0.1,0,0.1,0,0.2c0,2.4,0,4.9,0,7.3c0,0.7-0.1,1.3-0.3,2c-0.3,1-0.9,1.8-1.9,2.4c-0.7,0.4-1.6,0.7-2.4,0.8
		c-0.8,0.1-1.6,0.1-2.5,0.1c-0.8,0-1.6-0.1-2.3-0.3c-0.4-0.1-0.8-0.2-1.3-0.4c-0.1,0-0.2,0-0.3,0.1c0,0,0,0,0,0
		c-0.1,0.1-0.2,0.3-0.4,0.3c-0.2,0-0.3-0.1-0.4-0.2c-0.4-0.2-0.7-0.4-1.1-0.6c-0.1-0.1-0.1-0.1-0.1-0.3c0.2-0.5,0.4-1,0.6-1.5
		c0.3-0.8,0.7-1.6,1-2.4c0.2-0.5,0.4-1,0.6-1.5c0-0.1,0.1-0.1,0.2-0.1c0.5,0.2,1.1,0.4,1.6,0.5c0.1,0,0.2,0.1,0.2,0.3
		c0,0.2-0.1,0.4-0.1,0.6c0,0.1,0,0.2,0.1,0.2c0.4,0.2,0.8,0.3,1.2,0.4c0.5,0.1,0.9,0.1,1.4,0.1c0.2,0,0.3-0.1,0.4-0.3
		c0-0.2,0.1-0.3,0.1-0.5C31,33,31,31.9,31,30.7z M31.2,30.7c0,1.2,0,2.3,0,3.5c0,0.2-0.1,0.4-0.1,0.6c0,0.1-0.1,0.1-0.1,0.2
		c-0.2,0.1-0.5,0.1-0.7,0.1c-0.3-0.1-0.6,0-0.9-0.1c-0.5-0.1-0.9-0.2-1.4-0.4c-0.1,0-0.1-0.1-0.1-0.2c0-0.2,0-0.3,0-0.5
		c0.1-0.2,0-0.4-0.3-0.5c-0.4-0.1-0.7-0.2-1.1-0.4c-0.2-0.1-0.4,0-0.5,0.1c-0.2,0.4-0.3,0.9-0.5,1.3c-0.1,0.3-0.2,0.6-0.4,0.9
		c-0.1,0.2-0.1,0.3-0.2,0.5c-0.1,0.2-0.2,0.5-0.4,0.8c-0.2,0.5-0.4,1-0.6,1.5c-0.1,0.2,0,0.5,0.2,0.6c0.2,0.1,0.3,0.2,0.5,0.3
		c0.2,0.2,0.4,0.2,0.6,0.3c0.1,0.1,0.2,0.1,0.3-0.1c0.1-0.1,0.1-0.1,0.2-0.2c0.1-0.1,0.2-0.2,0.3-0.1c0.1,0.1,0.2,0.1,0.3,0.1
		c0.2,0.1,0.3,0.1,0.5,0.1c0.3,0.1,0.6,0.2,0.9,0.2c0,0,0.1,0,0.1,0c0.4,0.2,0.8,0.2,1.2,0.2c1.1,0,2.3,0.1,3.4-0.1
		c0.2,0,0.4,0,0.6-0.1c0.4-0.2,0.8-0.2,1.1-0.4c0.1,0,0.1-0.1,0.2-0.2c0.2-0.1,0.4-0.3,0.7-0.4c0.2-0.2,0.4-0.4,0.6-0.7
		c0,0,0-0.1,0.1-0.1c0.2-0.2,0.3-0.5,0.4-0.7c0.2-0.3,0.3-0.7,0.3-1.1c0.1-0.5,0.1-0.9,0.1-1.4c0-2.4,0-4.8,0-7.2
		c0-0.2,0.1-0.3,0.3-0.3c0,0,0.1,0,0.1,0c0.2,0,0.2-0.1,0.2-0.2c0-0.5,0-1,0-1.5c0-0.2-0.1-0.2-0.2-0.2c-1.2,0-2.3,0-3.5,0
		c-1,0-2,0-2.9,0c-0.1,0-0.2,0-0.2,0.2c0,0.5,0,1.1,0,1.6c0,0.1,0,0.2,0.2,0.2c0.1,0,0.2,0.1,0.4,0c0.1,0,0.2,0.2,0.2,0.3
		C31.2,28.4,31.2,29.6,31.2,30.7z"/>
	<path class="st0" d="M48.2,12.6c-0.4-0.2-0.5-0.5-0.5-0.9c0-0.3,0.3-0.6,0.6-0.6c0.1,0,0.2,0,0.3,0c0.7,0.1,0.9,0.9,0.5,1.3
		C48.9,12.6,48.5,12.7,48.2,12.6z"/>
	<path class="st2" d="M8.6,13.5c0.1-0.2,0.2-0.2,0.4-0.2c0.3-0.1,0.5-0.2,0.7-0.3c0.4-0.1,0.7-0.3,1.1-0.4c0.4-0.1,0.8-0.3,1.2-0.4
		c0.3-0.1,0.7-0.2,1.1-0.3c0.3-0.1,0.7-0.1,1-0.3c0,0,0.1,0,0.1,0c0.2,0,0.5-0.1,0.7-0.2c0.1,0,0.3,0,0.4-0.1c0.2,0,0.4-0.1,0.6-0.1
		c0.2-0.1,0.5,0,0.7-0.1c0.2-0.1,0.4-0.1,0.5-0.1c0.3,0,0.7-0.1,1-0.1c0.3-0.1,0.7,0,1-0.1c0.2-0.1,0.4,0,0.6,0c0,0.1,0,0.1-0.1,0.1
		c-0.7,0-1.4,0.1-2.1,0.2c-0.9,0.1-1.8,0.3-2.7,0.4c-1.2,0.2-2.5,0.6-3.7,0.9c-0.8,0.3-1.7,0.6-2.5,0.9C8.7,13.5,8.7,13.5,8.6,13.5z
		"/>
	<path class="st2" d="M28.8,14c0-0.1,0.1-0.1,0.2-0.1c1.4-0.1,2.8-0.1,4.2-0.1c0.3,0,0.7,0,1,0.1c0.2,0.1,0.4,0.1,0.6,0.1
		c0.2,0,0.4,0.1,0.6,0.1c0.2,0.1,0.4,0.1,0.6,0.1c0.4,0.1,0.8,0.2,1.2,0.3c0.2,0,0.4,0.1,0.6,0.1c0.2,0,0.4,0,0.5,0.2
		c-0.3,0-0.5-0.1-0.7-0.1c-0.8-0.2-1.7-0.4-2.5-0.6C34.5,14.1,34,14,33.6,14c-1.1-0.1-2.2-0.1-3.2-0.1c-0.4,0-0.9,0.1-1.3,0.1
		C28.9,14,28.9,14,28.8,14z"/>
	<path class="st2" d="M22.2,10.6c0-0.1,0.1-0.1,0.2-0.1c1.6,0,3.1,0,4.7,0c0.6,0,1.1,0,1.7,0.1c0.3,0.1,0.7,0,1,0.1
		c0.1,0,0.1,0,0.1,0.1c-0.3,0-0.6,0-0.9,0c-0.2,0-0.4-0.1-0.6-0.1c-0.5,0-1,0-1.6-0.1c-1.2-0.1-2.3,0-3.5,0c-0.3,0-0.6,0-0.9,0
		C22.3,10.7,22.2,10.7,22.2,10.6z"/>
	<path class="st2" d="M42.9,13.8c-0.3-0.1-0.4-0.4-0.5-0.6c-0.3-0.4-0.4-0.8-0.5-1.3c0-0.2-0.2-0.2-0.3-0.3
		c-0.4-0.2-0.7-0.4-1.1-0.6c-0.5-0.2-1-0.5-1.4-0.7c-0.4-0.2-0.7-0.4-1.1-0.5c-0.3-0.1-0.6-0.2-0.9-0.3c0,0-0.1,0-0.1-0.1
		c0.3,0.1,0.6,0.2,0.9,0.4c1,0.4,2,0.9,3,1.4c0.3,0.1,0.5,0.3,0.8,0.4c0.1,0.1,0.2,0.1,0.2,0.2c0.1,0.6,0.4,1.2,0.8,1.7
		C42.8,13.6,42.9,13.7,42.9,13.8z"/>
	<path class="st2" d="M27.4,12.8c0,0.1-0.1,0.1-0.2,0.2c-0.3,0.1-0.6,0.2-0.8,0.3c-0.4,0.1-0.8,0.3-1.2,0.5c-0.3,0.1-0.7,0.3-1,0.4
		c-0.5,0.2-1,0.5-1.5,0.7c-0.2,0.1-0.4,0.2-0.6,0.3c0,0,0,0,0,0.1c0,0,0,0,0.1,0c0.1,0,0.2,0,0.2,0c-0.2,0.1-0.5,0.2-0.8,0.3
		c0,0-0.1,0-0.1,0c0,0,0-0.1,0.1-0.1c0.3-0.2,0.5-0.3,0.8-0.5c1.2-0.7,2.5-1.2,3.8-1.7C26.6,13.1,27,12.9,27.4,12.8z"/>
	<path class="st2" d="M38.5,14.9c0.4-0.1,0.9,0,1.3,0.1c0.5,0.1,1,0.1,1.5,0c0.6,0,1.2-0.2,1.7-0.6c0.2-0.2,0.3-0.3,0.1-0.4
		c0,0,0-0.1,0-0.1c0.1,0.1,0.2,0.2,0.3,0.3c0.1,0.1,0,0.1,0,0.1c-0.5,0.3-0.9,0.6-1.5,0.7c-0.6,0.1-1.3,0.1-1.9,0.1
		C39.5,15.1,39.1,15.1,38.5,14.9C38.6,15,38.6,15,38.5,14.9z"/>
	<path class="st2" d="M24.2,14.8c0.1-0.1,0.2-0.1,0.4-0.2c0.1,0,0.2-0.1,0.4-0.1c0.3-0.1,0.7-0.1,1-0.2c0.4-0.1,0.7-0.1,1.1-0.2
		c0,0,0,0,0,0c0.3,0,0.6-0.1,0.9-0.1c0.2,0,0.5-0.1,0.8-0.1c-0.1,0.2-0.3,0.1-0.5,0.1c-0.7,0.1-1.5,0.2-2.2,0.4
		c-0.5,0.1-1.1,0.2-1.6,0.3C24.3,14.8,24.2,14.8,24.2,14.8z"/>
	<path class="st2" d="M23.1,21.3c-1.3,0-2.5,0-3.8,0c-0.3,0-0.6,0-0.8,0.2c-0.1,0-0.1,0-0.2,0c0.2-0.2,0.5-0.3,0.8-0.3
		c1.2,0,2.5,0,3.7,0C22.9,21.2,23,21.1,23.1,21.3z"/>
	<path class="st2" d="M55.2,24.9c-2.2,0-4.5,0-6.7,0c-0.2,0-0.3,0.1-0.3,0.3c0,0.6,0,1.2,0,1.8c-0.1-0.1,0-0.1,0-0.2
		c0-0.6,0-1.1,0-1.7c0-0.2,0.1-0.2,0.2-0.2c2.2,0,4.4,0,6.6,0C55.1,24.8,55.2,24.8,55.2,24.9z"/>
	<path class="st2" d="M45.3,24.9c-2.3,0-4.5,0-6.8,0c-0.1,0-0.2,0.1-0.2,0.2c0,0.6,0,1.3,0,1.9c-0.1,0,0-0.1,0-0.2
		c0-0.6,0-1.2,0-1.8c0-0.1,0-0.2,0.2-0.2c2.2,0,4.4,0,6.7,0C45.2,24.8,45.3,24.8,45.3,24.9z"/>
	<path class="st2" d="M32.6,11.1c0,0,0.1,0,0.1,0.1c0,0,0,0.1-0.1,0.1c-0.4,0.1-0.8,0.2-1.2,0.3c-0.4,0.1-0.8,0.2-1.2,0.4
		c-0.2,0.1-0.4,0.1-0.7,0.2c-0.1,0-0.3,0.1-0.4,0.1c0.3-0.2,0.6-0.2,1-0.3C30.9,11.7,31.7,11.4,32.6,11.1
		C32.6,11.2,32.6,11.2,32.6,11.1z"/>
	<path class="st2" d="M5.7,14.6c-0.1,0.2-0.3,0.3-0.4,0.4c-0.1,0.1-0.2,0.1-0.2,0.3C5.4,15.1,5.7,15,6,14.8c0.2-0.1,0.3-0.2,0.5-0.2
		C6.3,14.7,6,14.9,5.7,15c-0.4,0.3-0.8,0.6-1.2,0.8l0,0c0-0.1,0.1-0.2,0.2-0.3C5,15.3,5.3,14.9,5.7,14.6z"/>
	<path class="st2" d="M31.3,21.4c0.1-0.2-0.1-0.2-0.2-0.2c-1.9,0-3.8,0-5.7,0c-0.1,0-0.2,0-0.2,0c0.1-0.1,0.2,0,0.2,0
		c2,0,3.9,0,5.9,0c0.1,0,0.3,0,0.4,0.1C31.6,21.3,31.5,21.4,31.3,21.4z"/>
	<path class="st2" d="M31.9,15.7c-0.1-0.1-0.1,0-0.2,0c-1.2,0-2.4,0-3.6,0c-0.1,0-0.2,0-0.2,0c1.5,0,3,0,4.5,0
		C32.2,15.7,32,15.7,31.9,15.7z"/>
	<path class="st2" d="M19.8,10.8c0-0.1,0.1-0.1,0.1-0.1c0.7,0.1,1.3-0.1,2-0.1c0.1,0,0.1,0,0.2,0c-0.1,0.1-0.1,0.1-0.2,0.1
		c-0.2,0-0.5,0-0.7,0c-0.4,0-0.7,0.1-1.1,0.1C20,10.8,19.9,10.9,19.8,10.8z"/>
	<path class="st2" d="M29.1,12.3c-0.1,0.1-0.3,0.2-0.5,0.2c-0.3,0.1-0.6,0.2-0.9,0.3c-0.1,0-0.2,0-0.3,0c0.3-0.2,0.6-0.2,0.9-0.3
		C28.6,12.4,28.8,12.3,29.1,12.3z"/>
	<path class="st2" d="M30.8,10.9c0.4-0.1,0.8,0.1,1.3,0.1c0.1,0,0.3,0.1,0.4,0.1c0.1,0,0.1,0,0.1,0.1c-0.5,0-0.9-0.1-1.3-0.1
		c-0.1,0-0.2,0-0.3,0C30.9,11,30.9,11,30.8,10.9z"/>
	<path class="st2" d="M22.6,15.2c0-0.1,0.1-0.1,0.2-0.1c0.5-0.1,0.9-0.3,1.4-0.3c-0.3,0.1-0.6,0.2-0.9,0.2
		C23.1,15.1,22.9,15.2,22.6,15.2z"/>
	<path class="st2" d="M7.4,14.1c0-0.1,0.1-0.1,0.1-0.2c0.3-0.1,0.6-0.3,0.9-0.4c0.1,0,0.2,0,0.2,0C8.2,13.7,7.8,13.9,7.4,14.1z"/>
	<path class="st2" d="M20.7,19.6c0,0.1,0,0.2,0.1,0.1c0,0,0.1,0,0.1,0c-0.2,0.2-0.4,0.3-0.6,0.4h0C20.4,19.8,20.6,19.7,20.7,19.6z"
		/>
	<path class="st2" d="M36.3,9.2c0,0-0.1,0-0.2-0.1c0.6,0,1.2,0,1.8,0c-0.1,0.1-0.2,0-0.2,0c-0.4,0-0.8,0-1.2,0
		C36.4,9.1,36.4,9.1,36.3,9.2z"/>
	<path class="st2" d="M30,10.8c0.2-0.1,0.5,0,0.7,0c0,0,0.1,0,0.1,0.1C30.5,10.9,30.2,10.9,30,10.8z"/>
	<path class="st2" d="M20.9,19.6c0-0.1,0.1-0.2,0.2-0.2c0.2-0.1,0.3-0.3,0.6-0.3C21.5,19.4,21.2,19.5,20.9,19.6z"/>
	<path class="st2" d="M15.1,39.8c0.6,0,1.2,0,1.8,0c0,0,0,0,0,0C16.3,39.8,15.7,39.8,15.1,39.8C15.2,39.8,15.1,39.8,15.1,39.8z"/>
	<path class="st2" d="M46,39.8c0.5,0,1.1,0,1.6,0c0,0-0.1,0-0.1,0c-0.5,0-0.9,0-1.4,0C46.1,39.8,46,39.8,46,39.8z"/>
	<path class="st2" d="M21.3,18.9c-0.1,0.3-0.3,0.4-0.5,0.6C20.9,19.3,21.1,19.1,21.3,18.9z"/>
	<path class="st2" d="M24.7,21.3c-0.5,0-0.9,0-1.4,0c0.2-0.1,0.5,0,0.8,0C24.3,21.2,24.5,21.2,24.7,21.3z"/>
	<path class="st2" d="M38.3,14.9c0.1,0,0.2-0.1,0.3,0.1C38.5,14.9,38.3,15,38.3,14.9z"/>
	<path class="st2" d="M22.3,15.3c0.1-0.2,0.2,0,0.3-0.1C22.5,15.2,22.4,15.3,22.3,15.3z"/>
	<path class="st2" d="M25,21.3c-0.1,0-0.2,0-0.3,0C24.8,21.2,24.9,21.2,25,21.3z"/>
	<path class="st2" d="M43,13.9C42.9,13.9,42.9,13.9,43,13.9C43,13.8,43,13.8,43,13.9z"/>
	<path class="st2" d="M20.8,19.5C20.8,19.5,20.8,19.6,20.8,19.5C20.7,19.5,20.7,19.5,20.8,19.5z"/>
	<path class="st2" d="M60,20.3C60,20.3,60,20.3,60,20.3C60.1,20.3,60,20.3,60,20.3L60,20.3z"/>
	<path class="st2" d="M20.4,20C20.4,20,20.4,20,20.4,20C20.4,20,20.4,20,20.4,20C20.4,20,20.4,20,20.4,20L20.4,20z"/>
	<path class="st2" d="M4.5,15.9C4.5,15.9,4.5,15.9,4.5,15.9C4.5,15.9,4.5,15.9,4.5,15.9L4.5,15.9z"/>
	<path class="st2" d="M63.4,13.7C63.4,13.7,63.4,13.7,63.4,13.7C63.4,13.7,63.4,13.7,63.4,13.7C63.4,13.7,63.4,13.7,63.4,13.7
		L63.4,13.7z"/>
	<path class="st0" d="M14.8,28.2c-0.5,0-1.1,0.1-1.5,0.4c-0.3,0.2-0.4,0.4-0.4,0.7c0,0.3,0.3,0.5,0.5,0.6c0.5,0.2,1,0.3,1.5,0.3
		c1.2,0.1,2.4,0.2,3.6,0.4c1,0.2,2,0.4,2.9,0.9c1.3,0.7,1.8,1.8,1.6,3.2c-0.1,1.4-0.9,2.4-2.1,3.1c-0.9,0.5-1.9,0.8-2.9,0.9
		c-2.3,0.3-4.6,0.1-6.8-0.5c-0.5-0.1-1-0.3-1.4-0.5c-0.2-0.1-0.4,0-0.6,0.2C9.1,38,9.1,38,8.9,38c-0.1,0-0.2-0.1-0.1-0.2
		c0.6-1.3,1.1-2.7,1.7-4c0-0.1,0-0.2,0.1-0.1c0.1,0,0.2,0.1,0.2,0.2c-0.1,0.5,0.2,0.8,0.5,1c0.8,0.5,1.7,0.7,2.6,0.9
		c0.4,0.1,0.8,0.2,1.3,0.2c0.5,0.1,1.1,0.1,1.6,0c0.7,0,1.3-0.1,1.9-0.4c0.4-0.2,0.7-0.5,0.7-0.9c0.1-0.4,0-0.6-0.4-0.7
		c-0.4-0.2-0.8-0.3-1.3-0.3c-1.1-0.1-2.2-0.2-3.2-0.3c-1.1-0.1-2.2-0.3-3.2-0.7c-0.7-0.3-1.4-0.7-1.7-1.4c-0.5-0.9-0.4-1.9,0-2.8
		c0.5-1.1,1.5-1.7,2.6-2.1c1.1-0.4,2.2-0.5,3.4-0.5c1.9,0,3.8,0.4,5.6,0.9c0.1,0,0.3,0.1,0.4,0.1c0.3,0.1,0.6,0,0.8-0.2
		c0.1-0.1,0.2-0.1,0.3-0.1c0.1,0,0.1,0.1,0.1,0.2c-0.3,0.6-0.6,1.2-0.9,1.8c-0.2,0.4-0.4,0.9-0.7,1.3c0,0,0,0.2-0.1,0.1
		c-0.1,0-0.3,0-0.2-0.2c0-0.4-0.2-0.5-0.5-0.7c-0.7-0.3-1.4-0.5-2.2-0.6c-0.5-0.1-1-0.2-1.5-0.2C16.1,28.1,15.5,28.1,14.8,28.2z
		 M21.5,32.4C21.5,32.4,21.5,32.4,21.5,32.4C21.5,32.4,21.5,32.4,21.5,32.4c0,0.1,0,0.1,0,0.1c0.5,1,0.4,2-0.1,2.9
		c-0.5,0.9-1.3,1.3-2.2,1.6c-1,0.4-2.1,0.5-3.2,0.5c-0.6,0-1.2,0-1.8,0c-0.5,0-1-0.1-1.5-0.2c-0.9-0.1-1.7-0.3-2.6-0.6
		c-0.2-0.1-0.2,0-0.2,0.1c-0.1,0.1,0,0.2,0.1,0.2c0.3,0.1,0.6,0.2,0.9,0.3c1.3,0.4,2.7,0.7,4.1,0.7c0.9,0,1.9,0.1,2.8-0.1
		c1-0.1,2.1-0.4,3-0.9c1.3-0.8,1.8-2,1.5-3.4C22.2,33.2,22,32.7,21.5,32.4z M12.3,29.9c-0.1-0.3-0.2-0.5-0.1-0.7
		c0.1-0.6,0.4-0.9,0.9-1.2c0.8-0.5,1.8-0.5,2.7-0.5c0.8,0,1.7,0.1,2.5,0.2c0.9,0.2,1.8,0.3,2.7,0.8c0.1,0.1,0.1,0,0.2,0
		c0.2-0.3,0.3-0.6,0.5-0.9c0-0.1,0-0.1-0.1-0.2c-0.6-0.2-0.6-0.2-0.8,0.4c0,0,0,0,0,0c-0.1,0.3-0.1,0.3-0.4,0.2
		c-0.7-0.4-1.5-0.6-2.4-0.7c-0.7-0.1-1.3-0.2-2-0.2c-0.9-0.1-1.8,0-2.6,0.2c-0.5,0.1-1,0.4-1.4,0.9C11.4,28.6,11.6,29.5,12.3,29.9z
		 M10.6,31c0.1,0.1,0.1,0.1,0.2,0.2c0.5,0.4,1.1,0.7,1.7,0.8c0.8,0.2,1.7,0.4,2.6,0.5c0.7,0.1,1.4,0.1,2,0.2
		c0.6,0.1,1.1,0.1,1.7,0.2c0.3,0.1,0.6,0.2,1,0.3c-0.3-0.4-0.7-0.6-1.1-0.7c-0.7-0.2-1.4-0.3-2-0.3c-1-0.1-1.9-0.2-2.9-0.3
		c-0.8-0.1-1.7-0.3-2.5-0.6C11,31.2,10.8,31.1,10.6,31z"/>
	<path class="st0" d="M18.5,34.6c-0.3,0.2-0.6,0.3-0.9,0.3c-0.6,0.1-1.2,0.2-1.8,0.1c-1.2-0.1-2.4-0.3-3.5-0.8
		c-0.1,0-0.2-0.1-0.3-0.2c-0.1-0.1-0.2-0.1-0.1-0.3c0.1-0.2,0.1-0.2,0.3-0.1c0.7,0.2,1.4,0.3,2.1,0.4c0.6,0.1,1.1,0.1,1.7,0.2
		c0.7,0.1,1.4,0.1,2.1,0.2C18.1,34.5,18.3,34.5,18.5,34.6z"/>
	<path class="st0" d="M14.3,29.2c0.3-0.1,0.6-0.1,0.9-0.1c0.5,0,0.9,0,1.4,0c0.9,0.1,1.8,0.2,2.7,0.5c0.2,0,0.3,0.1,0.5,0.2
		c0.1,0,0.1,0.1,0.1,0.1c0,0.1-0.1,0-0.1,0c-0.4-0.1-0.8-0.1-1.2-0.2c-0.4-0.1-0.8-0.1-1.2-0.2c-0.7-0.1-1.4-0.1-2.1-0.2
		C14.9,29.3,14.7,29.2,14.3,29.2z"/>
	<path class="st2" d="M14.8,28.2c0.6-0.1,1.3-0.1,1.9,0C16.1,28.2,15.5,28.2,14.8,28.2z"/>
	<path class="st2" d="M16.9,35.9c-0.5,0.1-1.1,0.1-1.6,0C15.8,35.9,16.4,35.9,16.9,35.9z"/>
	<path class="st0" d="M44.3,25.8c0.1,0.1,0.1,0.2,0.1,0.3c0,0.1-0.1,0.1-0.2,0.1c-0.2,0.1-0.4,0-0.5,0.2c-0.1,0.1,0,0.2,0,0.2
		c0,2.2,0,4.4,0,6.6c0,0.1,0,0.2,0,0.3c0.1,1.2,0.7,1.9,1.9,2.1c1,0.2,2,0.2,2.9-0.2c0.4-0.2,0.7-0.4,1-0.8c0.1-0.1,0.1-0.2,0.2-0.3
		c0.2-0.4,0.2-0.8,0.2-1.2c0-2.2,0-4.3,0-6.5c0-0.4-0.1-0.5-0.5-0.5h0c-0.1,0-0.2-0.1-0.2-0.3c0-0.2,0.2-0.1,0.3-0.1
		c1.1,0,2.1,0,3.2,0c0.5,0,1.1,0,1.6,0c0,0,0,0,0,0c0,0.2-0.1,0.3-0.3,0.3c-0.4,0-0.4,0.1-0.4,0.5c0,1.7,0,3.3,0,5
		c0,0.5,0,1.1,0,1.6c0,0,0,0.1,0,0.1c0,0.6-0.1,1.2-0.3,1.8l0,0c0,0.1-0.1,0.2-0.1,0.3c-0.2,0.6-0.5,1.1-1,1.6
		c-0.7,0.8-1.6,1.3-2.6,1.5c-1.1,0.3-2.3,0.4-3.4,0.3c-0.9,0-1.9-0.2-2.8-0.5c-1.3-0.4-2.3-1.2-2.9-2.4c-0.3-0.6-0.5-1.3-0.6-2.1
		c0-0.1,0-0.2,0-0.3c0,0,0,0,0,0c0-2.3,0-4.7,0-7c0-0.1,0-0.1,0-0.2c-0.1-0.2-0.3-0.2-0.4-0.2c-0.2-0.1-0.3-0.1-0.2-0.3c0,0,0,0,0,0
		C41,25.8,42.6,25.8,44.3,25.8C44.3,25.8,44.3,25.8,44.3,25.8z M41.8,36.6C41.8,36.5,41.8,36.5,41.8,36.6
		C41.8,36.5,41.8,36.5,41.8,36.6C41.8,36.6,41.8,36.6,41.8,36.6C41.8,36.6,41.9,36.6,41.8,36.6C41.9,36.6,41.9,36.6,41.8,36.6
		C41.9,36.6,41.8,36.6,41.8,36.6z M43.5,35.1C43.5,35.1,43.5,35.1,43.5,35.1C43.5,35.1,43.5,35.1,43.5,35.1
		c-0.1-0.2-0.2-0.4-0.2-0.5C43,34.1,43,33.5,43,33c0-1.7,0-3.3,0-5c0-0.4,0-0.9,0-1.3c0-0.1,0-0.1,0-0.2c-0.1,0-0.3,0-0.4,0
		c-0.1,0-0.1,0.1-0.1,0.2c0,2,0,4,0,6c0,0.5,0.1,1,0.3,1.5C42.9,34.5,43.1,34.9,43.5,35.1z M42,36.6C42,36.7,42,36.7,42,36.6
		c0.2,0.3,0.5,0.5,0.8,0.7c1,0.6,2.1,0.8,3.2,0.8c1.3,0.1,2.5,0,3.7-0.4c0.7-0.2,1.3-0.5,1.9-1.1c0.9-0.8,1.2-1.9,1.3-3
		c0-2.2,0-4.5,0-6.7c0-0.1,0-0.2,0-0.4c0,0,0-0.1,0-0.1c-0.1,0-0.3,0-0.4,0c-0.1,0-0.1,0.2-0.1,0.2c0,2.2,0,4.3,0,6.5
		c0,0.5-0.1,1-0.3,1.5c-0.4,1-1.1,1.7-2,2.2c-1,0.5-2.1,0.7-3.3,0.7c-0.8,0-1.5,0-2.3-0.1c-0.7-0.1-1.3-0.3-1.9-0.6
		C42.4,36.8,42.2,36.7,42,36.6z"/>
	<path class="st2" d="M49.4,26.1c0.4,0,0.5,0.2,0.5,0.5c0,2.2,0,4.3,0,6.5c0,0.4,0,0.8-0.2,1.2c0-0.2,0.1-0.4,0.1-0.6
		c0-0.2,0.1-0.3,0.1-0.5c0-2.2,0-4.4,0-6.6C49.8,26.3,49.8,26.3,49.4,26.1C49.4,26.2,49.4,26.2,49.4,26.1z"/>
	<path class="st2" d="M53.6,33.2c0-0.5,0-1.1,0-1.6c0-1.7,0-3.3,0-5c0-0.3,0.1-0.4,0.4-0.5c0.2,0,0.3-0.1,0.3-0.3
		c0.1,0.3,0.1,0.4-0.2,0.4c-0.3,0-0.4,0.1-0.4,0.4c0,2.1,0,4.2,0,6.3C53.7,33,53.8,33.2,53.6,33.2z"/>
	<path class="st2" d="M39.9,26.4c0.1,0.1,0,0.1,0,0.2c0,2.3,0,4.7,0,7c0,0,0,0,0,0c-0.1,0,0-0.1,0-0.2
		C39.9,31.1,39.9,28.7,39.9,26.4z"/>
	<path class="st2" d="M43.7,33.5c0-0.1,0-0.2,0-0.3c0-2.2,0-4.4,0-6.6c0-0.1,0-0.2,0-0.2c0,2.3,0,4.7,0,7
		C43.7,33.4,43.7,33.5,43.7,33.5z"/>
	<path class="st2" d="M54.3,25.8c-0.5,0-1.1,0-1.6,0c-1.1,0-2.1,0-3.2,0c-0.1,0-0.2-0.1-0.3,0.1c0,0.2,0.1,0.2,0.2,0.3
		c-0.1,0-0.2,0-0.3-0.1c0-0.1,0-0.1,0-0.2c0-0.1,0.1-0.1,0.2-0.1c1.6,0,3.2,0,4.8,0C54.2,25.7,54.2,25.7,54.3,25.8z"/>
	<path class="st2" d="M44.3,25.8C44.3,25.8,44.3,25.8,44.3,25.8c-1.7,0-3.3,0-4.9,0c0,0,0,0,0,0c0.1-0.1,0.1,0,0.2,0
		c1.5,0,3,0,4.6,0C44.2,25.7,44.2,25.7,44.3,25.8z"/>
	<path class="st2" d="M53.4,35.1c0.2-0.6,0.2-1.2,0.3-1.8c0.2,0.2,0.1,0.4,0.1,0.5c0,0.1-0.1,0.2-0.1,0.4
		C53.6,34.5,53.5,34.7,53.4,35.1C53.4,35,53.4,35,53.4,35.1z"/>
	<path class="st2" d="M53.3,35.3c0-0.1,0-0.2,0.1-0.3C53.4,35.1,53.4,35.2,53.3,35.3C53.4,35.4,53.3,35.4,53.3,35.3z"/>
	<path class="st1" d="M31.2,30.7c0-1.2,0-2.3,0-3.5c0-0.2-0.1-0.4-0.2-0.3c-0.2,0-0.3-0.1-0.4,0c-0.1,0-0.2,0-0.2-0.2
		c0-0.5,0-1.1,0-1.6c0-0.2,0-0.2,0.2-0.2c1,0,2,0,2.9,0c1.2,0,2.3,0,3.5,0c0.2,0,0.2,0,0.2,0.2c0,0.5,0,1,0,1.5c0,0.2,0,0.2-0.2,0.2
		c0,0-0.1,0-0.1,0c-0.3,0-0.3,0.1-0.3,0.3c0,2.4,0,4.8,0,7.2c0,0.5,0,1-0.1,1.4c-0.1,0.4-0.2,0.7-0.3,1.1c-0.1,0.2-0.2,0.5-0.4,0.7
		c0,0,0,0.1-0.1,0.1c-0.2,0.2-0.4,0.5-0.6,0.7c-0.2,0.2-0.4,0.3-0.7,0.4c-0.1,0-0.2,0.1-0.2,0.2c-0.3,0.2-0.7,0.2-1.1,0.4
		c-0.2,0.1-0.4,0.1-0.6,0.1c-1.1,0.2-2.3,0.1-3.4,0.1c-0.4,0-0.8,0-1.2-0.2c0,0-0.1,0-0.1,0c-0.3,0-0.6-0.1-0.9-0.2
		c-0.2-0.1-0.4-0.1-0.5-0.1c-0.1,0-0.2-0.1-0.3-0.1c-0.2-0.1-0.2,0-0.3,0.1c-0.1,0.1-0.2,0.1-0.2,0.2c-0.1,0.1-0.2,0.1-0.3,0.1
		c-0.2-0.1-0.4-0.2-0.6-0.3c-0.2-0.1-0.3-0.2-0.5-0.3c-0.2-0.1-0.3-0.3-0.2-0.6c0.2-0.5,0.4-1,0.6-1.5c0.1-0.3,0.2-0.5,0.4-0.8
		c0.1-0.2,0.1-0.3,0.2-0.5c0.1-0.3,0.2-0.6,0.4-0.9c0.2-0.4,0.3-0.9,0.5-1.3c0.1-0.2,0.2-0.2,0.5-0.1c0.4,0.1,0.7,0.3,1.1,0.4
		c0.3,0.1,0.4,0.2,0.3,0.5c-0.1,0.2,0,0.3,0,0.5c0,0.1,0.1,0.1,0.1,0.2c0.4,0.2,0.9,0.3,1.4,0.4c0.3,0.1,0.6,0,0.9,0.1
		c0.3,0.1,0.5,0,0.7-0.1c0.1,0,0.1-0.1,0.1-0.2c0-0.2,0.1-0.4,0.1-0.6C31.2,33.1,31.2,31.9,31.2,30.7z M31.5,35.6
		C31.5,35.5,31.5,35.6,31.5,35.6c-0.3,0.2-0.5,0.3-0.8,0.3c-0.7,0.1-1.3,0-2-0.1c-0.5-0.1-1-0.3-1.5-0.6c-0.3-0.2-0.5-0.5-0.4-0.9
		c0-0.2-0.1-0.2-0.2-0.2c-0.1-0.1-0.1,0-0.2,0.1c-0.5,1.3-1,2.6-1.6,3.8c0,0.1-0.1,0.2,0,0.2c0.1,0,0.2,0.3,0.4,0.1
		c0.2-0.2,0.5-0.3,0.8-0.2c0.7,0.3,1.5,0.5,2.2,0.6c1.1,0.2,2.2,0.2,3.3,0.1c1.1-0.1,2.2-0.4,3-1.1c0.1,0,0.1,0,0.2-0.1
		c0.1-0.1,0.2-0.2,0.2-0.3c0.2-0.3,0.4-0.6,0.5-0.9c0-0.1,0.1-0.3,0.1-0.4c0-0.2,0.2-0.4,0-0.6c0,0,0-0.1,0-0.1
		c0.1,0,0.1-0.2,0.1-0.2c0-2.8,0-5.6,0-8.4c0-0.2,0.1-0.3,0.2-0.4c0.1-0.1,0.2,0,0.3,0c0.2,0,0.3-0.2,0.3-0.3c0-0.2-0.2-0.2-0.3-0.2
		c-1.6,0-3.1,0-4.7,0c-0.1,0-0.2,0-0.2,0c-0.1,0.1,0,0.2,0,0.3c0.1,0.1,0.1,0.1,0.3,0.1c0.2,0,0.3,0.1,0.3,0.3c0,2.7,0,5.4,0,8
		c0,0.2-0.1,0.4-0.1,0.6C31.7,35.3,31.5,35.4,31.5,35.6C31.6,35.6,31.5,35.6,31.5,35.6z"/>
	<path class="st2" d="M21.5,32.4c0.4,0.3,0.7,0.8,0.8,1.3c0.3,1.4-0.2,2.6-1.5,3.4c-0.9,0.6-1.9,0.8-3,0.9c-0.9,0.1-1.9,0.1-2.8,0.1
		c-1.4-0.1-2.7-0.3-4.1-0.7c-0.3-0.1-0.6-0.2-0.9-0.3c-0.1,0-0.2-0.1-0.1-0.2c0-0.1,0.1-0.2,0.2-0.1c0.8,0.3,1.7,0.5,2.6,0.6
		c0.5,0.1,1,0.1,1.5,0.2c0.6,0,1.2,0.1,1.8,0c1.1-0.1,2.2-0.2,3.2-0.5c0.9-0.3,1.7-0.8,2.2-1.6c0.5-0.9,0.6-1.9,0.1-2.9
		C21.5,32.5,21.5,32.5,21.5,32.4L21.5,32.4z"/>
	<path class="st2" d="M12.3,29.9c-0.7-0.4-0.8-1.3-0.4-1.9c0.3-0.5,0.8-0.7,1.4-0.9c0.9-0.2,1.8-0.2,2.6-0.2c0.7,0,1.3,0.1,2,0.2
		c0.8,0.1,1.6,0.3,2.4,0.7c0.3,0.2,0.3,0.2,0.4-0.2c0,0,0,0,0,0c0.2-0.5,0.3-0.5,0.8-0.4c0.1,0,0.1,0.1,0.1,0.2
		c-0.2,0.3-0.3,0.6-0.5,0.9c0,0.1-0.1,0.1-0.2,0c-0.8-0.5-1.7-0.7-2.7-0.8c-0.8-0.1-1.7-0.2-2.5-0.2c-0.9,0-1.9,0-2.7,0.5
		c-0.5,0.3-0.8,0.6-0.9,1.2C12.1,29.4,12.2,29.6,12.3,29.9z"/>
	<path class="st2" d="M10.6,31c0.2,0.1,0.4,0.2,0.6,0.3c0.8,0.3,1.6,0.5,2.5,0.6c1,0.1,1.9,0.2,2.9,0.3c0.7,0.1,1.4,0.1,2,0.3
		c0.4,0.1,0.8,0.3,1.1,0.7c-0.3-0.2-0.7-0.3-1-0.3c-0.6-0.1-1.1-0.2-1.7-0.2c-0.7-0.1-1.4-0.1-2-0.2c-0.9-0.1-1.7-0.2-2.6-0.5
		c-0.6-0.2-1.2-0.4-1.7-0.8C10.7,31.1,10.7,31.1,10.6,31z"/>
	<path class="st2" d="M21.5,32.4C21.5,32.4,21.5,32.4,21.5,32.4C21.5,32.4,21.5,32.4,21.5,32.4L21.5,32.4z"/>
	<path class="st2" d="M42,36.6c0.2,0.1,0.4,0.2,0.6,0.3c0.6,0.3,1.3,0.5,1.9,0.6c0.7,0.1,1.5,0.2,2.3,0.1c1.1-0.1,2.2-0.2,3.3-0.7
		c0.9-0.5,1.6-1.2,2-2.2c0.2-0.5,0.3-1,0.3-1.5c0.1-2.2,0-4.3,0-6.5c0-0.1,0-0.2,0.1-0.2c0.1,0,0.3,0,0.4,0c0,0,0,0.1,0,0.1
		c0,0.1,0,0.2,0,0.4c0,2.2,0,4.5,0,6.7c0,1.2-0.4,2.2-1.3,3c-0.5,0.5-1.2,0.8-1.9,1.1c-1.2,0.4-2.5,0.4-3.7,0.4
		c-1.1,0-2.2-0.2-3.2-0.8C42.5,37.2,42.2,37,42,36.6C42,36.7,42,36.7,42,36.6z"/>
	<path class="st2" d="M43.5,35.1c-0.3-0.2-0.5-0.6-0.7-0.9c-0.2-0.5-0.3-1-0.3-1.5c0-2,0-4,0-6c0-0.1,0-0.2,0.1-0.2
		c0.1,0,0.3,0,0.4,0c0.1,0,0,0.1,0,0.2c0,0.4,0,0.9,0,1.3c0,1.7,0,3.3,0,5c0,0.5,0,1.1,0.3,1.6C43.3,34.7,43.4,34.9,43.5,35.1
		L43.5,35.1z"/>
	<path class="st2" d="M41.8,36.6C41.8,36.6,41.9,36.6,41.8,36.6C41.9,36.6,41.9,36.6,41.8,36.6C41.9,36.6,41.8,36.6,41.8,36.6
		L41.8,36.6z"/>
	<path class="st2" d="M41.8,36.6C41.8,36.6,41.8,36.6,41.8,36.6C41.8,36.5,41.8,36.5,41.8,36.6C41.8,36.5,41.8,36.5,41.8,36.6
		L41.8,36.6z"/>
	<path class="st2" d="M43.5,35.1C43.5,35.1,43.5,35.1,43.5,35.1C43.5,35.1,43.5,35.1,43.5,35.1L43.5,35.1z"/>
	<path class="st0" d="M31.3,26.1c0-0.1,0-0.2,0-0.3c0.1,0,0.2,0,0.3,0c1.5,0,3.1,0,4.6,0c0.2,0,0.2,0.1,0.2,0.2
		c0,0.1-0.2,0.1-0.3,0.1c-0.3,0.1-0.4,0.2-0.4,0.5c0,2.9,0,5.8,0,8.7c0,0,0,0,0,0.1c-0.1,0.9-0.4,1.7-1,2.3c-0.9,0.8-1.9,1-3,1.1
		c-1.1,0.1-2.2,0.1-3.3-0.1c-0.8-0.1-1.5-0.3-2.2-0.6c-0.3-0.1-0.5-0.1-0.8,0.2c-0.2,0.2-0.3-0.1-0.4-0.1c-0.1,0,0-0.1,0-0.2
		c0.5-1.3,1-2.6,1.6-3.8c0-0.1,0.1-0.2,0.2-0.1c0.1,0,0.2,0,0.2,0.2c-0.1,0.4,0.1,0.7,0.4,0.9c0.4,0.3,1,0.5,1.5,0.6
		c0.7,0.1,1.3,0.2,2,0.1c0.3,0,0.5-0.1,0.7-0.3c0,0,0,0,0.1,0c0,0,0,0,0,0c0.2-0.2,0.4-0.5,0.4-0.9c0-0.2,0-0.5,0-0.7
		c0-2.4,0-4.8,0-7.2c0-0.1,0-0.2,0-0.3c0-0.2-0.1-0.3-0.3-0.3C31.6,26.1,31.4,26.1,31.3,26.1z M35,30.8c0-1.4,0-2.8,0-4.1
		c0-0.1,0-0.2-0.1-0.2c-0.1,0-0.3,0-0.4,0c-0.1,0,0,0.2,0,0.3c0,2.5,0,5,0,7.5c0,0.5-0.1,1.1-0.3,1.6c-0.4,0.8-1.1,1.3-1.9,1.5
		c-0.6,0.2-1.2,0.2-1.8,0.3c-0.8,0.1-1.7,0-2.5-0.1c-0.6-0.1-1.2-0.2-1.7-0.4C26,37,26.1,37.2,26,37.2c-0.1,0.1,0,0.1,0.1,0.1
		c1,0.3,2,0.6,3.1,0.7c1.2,0.1,2.5,0.1,3.7-0.3c0.8-0.2,1.5-0.7,1.8-1.5c0.2-0.5,0.3-1.1,0.3-1.6C35,33.5,35,32.1,35,30.8z"/>
	<path class="st2" d="M35.7,35.3c0-2.9,0-5.8,0-8.7c0-0.3,0.1-0.4,0.4-0.5c0.1,0,0.2,0,0.3-0.1c0.1-0.2,0-0.2-0.2-0.2
		c-1.5,0-3.1,0-4.6,0c-0.1,0-0.2,0-0.3,0c0.1-0.1,0.1,0,0.2,0c1.6,0,3.1,0,4.7,0c0.1,0,0.3,0,0.3,0.2c0,0.1-0.1,0.3-0.3,0.3
		c-0.1,0-0.2,0-0.3,0c-0.1,0.1-0.2,0.2-0.2,0.4c0,2.8,0,5.6,0,8.4C35.8,35.1,35.8,35.2,35.7,35.3z"/>
	<path class="st2" d="M31.3,26.1c0.1,0,0.3,0,0.4,0.1c0.2,0,0.3,0.2,0.3,0.3c0,0.1,0,0.2,0,0.3c0,2.4,0,4.8,0,7.2c0,0.2,0,0.5,0,0.7
		c0,0.3-0.2,0.6-0.4,0.9c-0.1-0.2,0.2-0.2,0.2-0.4c0-0.2,0.1-0.4,0.1-0.6c0-2.7,0-5.4,0-8c0-0.2-0.1-0.3-0.3-0.3
		C31.4,26.2,31.4,26.2,31.3,26.1z"/>
	<path class="st2" d="M34.7,37.6c0.6-0.6,0.9-1.4,1-2.3c0.2,0.2,0,0.4,0,0.6c0,0.1-0.1,0.3-0.1,0.4c-0.1,0.3-0.3,0.6-0.5,0.9
		c-0.1,0.1-0.1,0.2-0.2,0.3C34.8,37.6,34.7,37.7,34.7,37.6z"/>
	<path class="st2" d="M31.5,35.6C31.5,35.6,31.5,35.6,31.5,35.6C31.5,35.6,31.5,35.5,31.5,35.6z"/>
	<path class="st2" d="M35,30.8c0,1.3,0,2.6,0,3.9c0,0.5-0.1,1.1-0.3,1.6c-0.4,0.8-1,1.2-1.8,1.5c-1.2,0.3-2.4,0.3-3.7,0.3
		c-1.1-0.1-2.1-0.4-3.1-0.7c-0.1,0-0.2,0-0.1-0.1c0-0.1,0-0.2,0.2-0.2c0.6,0.2,1.1,0.3,1.7,0.4c0.8,0.1,1.6,0.2,2.5,0.1
		c0.6,0,1.2-0.1,1.8-0.3c0.8-0.2,1.5-0.7,1.9-1.5c0.2-0.5,0.3-1,0.3-1.6c0-2.5,0-5,0-7.5c0-0.1-0.1-0.2,0-0.3c0.1,0,0.3,0,0.4,0
		c0.1,0,0.1,0.1,0.1,0.2C35,28.1,35,29.5,35,30.8z"/>
</g>
</svg>
