<?xml version="1.0" encoding="utf-8"?>
<!-- Generator: Adobe Illustrator 21.0.0, SVG Export Plug-In . SVG Version: 6.00 Build 0)  -->
<svg version="1.1" id="Layer_1" xmlns="http://www.w3.org/2000/svg" xmlns:xlink="http://www.w3.org/1999/xlink" x="0px" y="0px"
	 viewBox="0 0 34.8 40.7" style="enable-background:new 0 0 34.8 40.7;" xml:space="preserve">
<style type="text/css">
	.st0{fill-rule:evenodd;clip-rule:evenodd;fill:#FFFFFF;}
</style>
<g>
	<path class="st0" d="M34.8,0c0,4.6,0,9.3,0,13.9c-1,0-2,0-3,0c0-3.6,0-7.3,0-10.9C22.2,3,12.6,3,3,3c0,3.6,0,7.3,0,10.9
		c-1,0-2,0-3,0C0,9.3,0,4.6,0,0C11.6,0,23.2,0,34.8,0z"/>
	<path class="st0" d="M8.9,13.9c-1,0-2,0-3,0C6,11.2,6,8.6,6,6c3.3,0,6.6,0,9.9,0c0,9.6,0,19.2,0,28.8c-2.6,0-5.3,0-7.9,0
		c0,0,0-0.1,0-0.1c0-0.9,0-1.8,0-2.7c0-0.1,0-0.2,0.2-0.2c1.5,0,3.1,0,4.6,0c0.1,0,0.1,0,0.2,0c0-0.1,0-0.1,0-0.2c0-7.5,0-15,0-22.5
		c0-0.1,0-0.2-0.2-0.2c-1.2,0-2.4,0-3.7,0C9,8.9,8.9,9,8.9,9.1c0,1.5,0,3.1,0,4.6C8.9,13.8,8.9,13.8,8.9,13.9z"/>
	<path class="st0" d="M18.9,6c3.3,0,6.6,0,9.9,0c0,2.6,0,5.3,0,7.9c-1,0-2,0-3,0c0-0.1,0-0.1,0-0.2c0-1.5,0-3.1,0-4.6
		c0-0.2,0-0.2-0.2-0.2c-1.2,0-2.4,0-3.6,0c-0.1,0-0.1,0-0.2,0c0,7.6,0,15.2,0,22.8c0.1,0,0.1,0,0.2,0c1.5,0,3.1,0,4.6,0
		c0.1,0,0.2,0,0.2,0.2c0,0.9,0,1.8,0,2.7c0,0,0,0.1,0,0.2c-2.7,0-5.3,0-7.9,0C18.9,25.2,18.9,15.6,18.9,6z"/>
	<path class="st0" d="M26.8,37.8c0,0,0,0.1,0,0.1c0,0.9,0,1.8,0,2.7c0,0.1,0,0.2-0.2,0.2c-6.2,0-12.4,0-18.6,0c-0.1,0-0.2,0-0.2-0.2
		c0-0.9,0-1.8,0-2.7c0,0,0-0.1,0-0.1C14.2,37.8,20.5,37.8,26.8,37.8z"/>
</g>
</svg>
