<?xml version="1.0" encoding="utf-8"?>
<!-- Generator: Adobe Illustrator 21.0.0, SVG Export Plug-In . SVG Version: 6.00 Build 0)  -->
<svg version="1.1" id="Layer_1" xmlns="http://www.w3.org/2000/svg" xmlns:xlink="http://www.w3.org/1999/xlink" x="0px" y="0px"
	 viewBox="0 0 45.9 40.7" style="enable-background:new 0 0 45.9 40.7;" xml:space="preserve">
<style type="text/css">
	.st0{fill:#131933;}
	.st1{fill:#A6A8AB;}
	.st2{fill:#FFFFFF;}
</style>
<g transform="matrix(1.25 0 0 -1.25 -595.82 662.14)">
	<g transform="translate(.43307 .32480)">
		<path class="st0" d="M513.3,529.4l-15.6,0v-3.5l0.5-0.2c0.3-0.1,0.4-0.3,0.5-0.5c0-0.1,0-0.2,0-0.2c0-0.1,0-0.3-0.1-0.5
			c0,0,0,0,0,0c-0.1-0.2-0.2-0.6-0.5-1.2c0,0-2.3-6.1-2.9-7.6c-0.7,1.7-3.3,8.8-3.3,8.8c-0.1,0.2-0.1,0.4-0.1,0.5c0,0.1,0,0.2,0,0.2
			c0.1,0.2,0.3,0.4,0.5,0.5l0.5,0.2l0,3.5l-16,0l0-3.5l0.4-0.2c0,0,1-0.5,1.5-2.1c0.4-1.2,6.3-16.7,8.1-21.5c0,0,0-0.1,0-0.1
			c0.5-1.3,0.3-1.4,0.1-1.5c0,0-0.4-0.2-0.4-0.2l0-3.4l17.4,0v3.4l-0.4,0.2c-0.1,0.1-0.2,0.1-0.2,0.4c0,0.2,0.1,0.6,0.3,1.1l0.3,0.7
			c4.9,12.9,7.6,20.1,7.8,20.9c0.5,1.6,1.5,2.1,1.5,2.1l0.4,0.2l0,0.5v3H513.3L513.3,529.4z"/>
		<path class="st1" d="M506.2,527.9l-10.8-27.2l-10.6,27.2h-1.5l11.4-29.5l1.2,0l11.7,29.5H506.2z"/>
		<path class="st2" d="M511.7,527.1c-0.6-0.5-1.3-1.4-1.8-2.8c-0.3-0.8-3.2-8.7-8-21.3l-0.1-0.2l-0.1-0.2c-0.3-0.8-0.7-1.7-0.2-2.6
			c0.1-0.2,0.3-0.4,0.5-0.6v-0.3l-13.2,0v0.3c0.2,0.2,0.4,0.4,0.5,0.6c0.5,0.9,0.1,1.8-0.2,2.6l-0.1,0.2l-0.1,0.2
			c-4.8,12.6-7.7,20.6-8,21.3c-0.5,1.5-1.3,2.3-1.8,2.8l0,0.2l11.8,0v-0.2c-0.4-0.3-0.7-0.7-0.8-1c-0.2-0.5-0.4-1.3,0-2.4l4-10.7
			l1.2-3.3l1.3,3.3l4,10.7c0.4,1.1,0.2,1.9,0,2.4c-0.1,0.3-0.4,0.7-0.8,1v0.2l11.8,0V527.1z M512.9,528.6l-14.4,0l0-2.2
			c0.8-0.4,1.3-1.2,0.9-2.2c-1.6-4.2-4-10.7-4-10.7s-2.4,6.5-4,10.7c-0.4,1.1,0,1.9,0.9,2.2l0,2.2l-14.4,0v-2.2c0,0,1.2-0.6,1.9-2.6
			c0.4-1.3,7.6-20.3,8.1-21.6c0.4-1.1,0.7-2-0.3-2.5l0-2.1l15.8,0l0,2.1c-0.9,0.5-0.7,1.4-0.3,2.5c0.5,1.3,7.6,20.3,8.1,21.6
			c0.7,2,1.9,2.6,1.9,2.6V528.6L512.9,528.6z"/>
	</g>
</g>
</svg>
