<?xml version="1.0" encoding="utf-8"?>
<!-- Generator: Adobe Illustrator 21.0.0, SVG Export Plug-In . SVG Version: 6.00 Build 0)  -->
<svg version="1.1" id="Layer_1" xmlns="http://www.w3.org/2000/svg" xmlns:xlink="http://www.w3.org/1999/xlink" x="0px" y="0px"
	 viewBox="0 0 43.1 42" style="enable-background:new 0 0 43.1 42;" xml:space="preserve">
<style type="text/css">
	.st0{fill:#A6A8AB;}
	.st1{fill:#FFFFFF;}
</style>
<g transform="matrix(1.25 0 0 -1.25 -67.5 432.65)">
	<g>
		<g>
			<g transform="matrix(.24743 0 0 -.24414 102.13 322.76)">
				<path class="st0" d="M-135-66.4c-0.2,0-4.8,0-7.2,0c-0.5,0.6,0.5,1.1,0.4,1.8c-2.6,0.9-3.9-1.4-4.8-3.1
					c-0.1-0.4-0.7-1.2-0.9-1.5l9.9,0l0.1-23.6l-54.1-0.1l-0.1,0.3v23.7l15.6,0.1c5.1,7.5,10.1,15,14.8,22.7l-2,1.1l-14.1-21.2l-17,0
					l0-29.3l0.5-0.2h59L-135-66.4z"/>
			</g>
			<g transform="matrix(.24743 0 0 -.24414 166.61 346.09)">
				<path class="st0" d="M-315.8-0.1l-0.1,29.2l-16.9,0c-6.5,9.8-12.9,19.6-19.6,29.3c-0.9-0.9-1.4-2.1-0.9-3.3
					c6.2-9.7,12.8-19.1,19.2-28.6h15l0.4-0.1V2.7l-57-0.1c0,1.3,0,21.9,0,23.9h0.4h10.8v0.6c-2.3,3.1-3.8,6.6-5.9,9.7
					c-0.9-0.2-3.1-0.5-2-2l3.3-5.3l-0.4-0.5h-8.6l-0.5-0.6l-0.1-28.6h62.4L-315.8-0.1L-315.8-0.1z"/>
			</g>
			<g transform="matrix(.24743 0 0 -.24414 126.18 266.16)">
				<path class="st0" d="M-202.5-227.3c0.6,1.6-0.4,4,0.9,5.1h20.7l0,32.4l-52.4,0l-29.1,0v-32.6l19.8,0c0-1.5,1.6-1,2.6-1.1
					c1.1,1.1-0.2,2.4,0.2,3.7l-20,0l-0.1,0.7v26l0.4,0.5h75.5h0.4l0-26.7l-21.6,0l0-7C-204.2-227-203.3-227.1-202.5-227.3"/>
			</g>
			<g transform="matrix(.24743 0 0 -.24414 97.675 341.7)">
				<path class="st0" d="M-122.5-12.6V5.6c-0.5,0-7.9,0-11.6,0c0.6,3.1,3.4,5.8,4.8,8.8c-1.7,5.7-7.1,10.7-12.1,13.9
					c-5.1-7.6-10.1-15-15.4-22.7c-4.6-0.1-12.9,0-14.2,0l0.1-17.8l0.7-0.4h47.4L-122.5-12.6z"/>
			</g>
			<g transform="matrix(.24743 0 0 -.24414 161.81 327.17)">
				<path class="st0" d="M-302.4-53.9c-0.9,0-12.5,0-13.9,0c-6.4,9.5-12.8,18.9-19.2,28.4c-1.2-3.9-8,0.2-6.2-5.5
					c-1-1.6-2.9-3.1-4.8-3.5c-1.1-1.1-2.4-2.7-2.4-4.2c3-5,6-9.9,8.8-15l-13.4,0v-18l0.4-0.4h50.7V-53.9z"/>
			</g>
			<g transform="matrix(.24743 0 0 -.24414 104.8 315.35)">
				<path class="st0" d="M-142.5-87.5c1.7-1,3.5-1.7,5.5-2c5.5-1.2,11.3-0.1,15.4,3.3c2.6,1.7,2.2,6.1,5.9,5.7
					c1,0.3,2.1,1.4,2.4,2.4c1,1.7-2.2,4.5,1.3,4.2c2.2-0.9,4.4,0.4,5.3,2.4c0.8,2.1,1,4.5,2.2,6.4c1,1-0.1,2.8,0.9,3.7
					c2.1-1.3,2.3-3.6,3.5-5.1c2.3,1.8,2.7,4.4,3.1,7c0.7,0.8,1.3,0.2,2,0.7c0,12.7-9.4,24-20.3,29.7c-7.1,3.1-17,4.5-24.4,1.3
					c-1.5-0.2-2.4,1-3.5,1.5c-4.9,2.1-11.4,2.8-16.1-0.2c-6.1-3.6-7.4-10.6-6.6-17.4l0.9-2.6c-4.3-7.2-9.4-14.1-13.7-21.4
					c1.2-3.8,5.3-5.2,8.2-7.1c1.8-0.7,3.8-1.1,5.5-2.2c-0.7-0.6-1.8-1-2.2-2c4.5-3.4,9-7.8,11.2-13c4-2,7.1,2.4,10.6,3.7
					C-144.5-87.6-143.6-87.3-142.5-87.5"/>
			</g>
			<g transform="matrix(.24743 0 0 -.24414 121.72 264.91)">
				<path class="st0" d="M-189.9-230.9v8.8l0.7,0h20.7l0.5,0.1v21.2l-0.5,0h-70c0-0.2,0-21.1,0-21.6l19.8,0c0.5-2,0-4.4,0.4-6.4
					c3.6,0,6.7-1.4,9.7-3.1C-203-230.1-196-229.7-189.9-230.9"/>
			</g>
		</g>
		<g transform="matrix(.24743 0 0 -.24414 102.5 313.43)">
			<path class="st1" d="M-136-92.9c2.9,0.2,5.1-2.1,8.1-2.2c4.4-0.6,10.2-1.4,13,2.8c0.3,1.4-0.4,2.5-1.6,3.1
				c-0.5,0.2-1.4,0.4-1.5,1.1l0.4,0.5l9.7,1.1c1.3,0.3,1.3,1.9,0.9,2.8l-0.7,0.7l-14.5-0.7c-0.8,0.4-1.5,1.3-2.2,2
				c-0.3,2,0.3,3.8,2,4.8c1.7,0.1,3.4,0.6,5.3,0.5c0.7,2.1-1,3.9-2.7,5.1c-1,0.5-2.2,0.7-3.1,1.6c0.8,0.7,2.4,0.5,3.3,0.2
				c7-1.6,12.6-10,20.5-6.2c1.7,1.3,1.4,3.7,1.1,5.5c-2.5,7.1-12.1,1.7-16.9,5.5c-6.9,5.6-9.8,14.1-17.4,19.4
				c-3.4,2.7-7.5,4-12.1,3.1c-3.2-0.5-5.8-3.2-6.8-6.2c-2.9-6.9,3.9-10.9,5.5-16.5c0.1-0.7-0.2-1.1-0.7-1.5
				c-0.9,0.2-0.8,1.1-1.1,1.8c-1.9,2.9-5.3,4.3-7,7.1c-3.6-5.7-7.3-11.3-10.8-17c-0.3-2.2,2.3-3,3.5-4.2c2.3-1.2,4.9-2.1,7.5-2.7
				c-1.1,3.7-1.2,8.8,2.2,11.2c0.8-0.8,0.1-2.1,0-3.1c0-5.3,2.7-9.8,7.3-12.8c2.4-1,4.7-2.3,7.5-2.4l0.5-0.7c-1.7-1.7-3.6-3-5.7-3.7
				c-1.8,2.2-3.2,5.2-6,6.4c-1.6,0-3.3,0.1-4.4-1.1c3-2.9,5.7-6.8,8.4-9.9C-141.3-97.1-139-94.3-136-92.9"/>
		</g>
		<g transform="matrix(.24743 0 0 -.24414 115.49 304.29)">
			<path class="st1" d="M-172.5-118.9c-0.5,0.8-0.9,1.9-0.4,2.9c-0.7,0.1-0.2-0.7-0.7-0.9C-173.4-117.7-173.4-118.9-172.5-118.9"/>
		</g>
		<g transform="matrix(.24743 0 0 -.24414 122.79 303.93)">
			<path class="st1" d="M-192.9-119.9c-2.7,0.3-5.3,5.1-7.7,1.5c-0.5-1.2,0.9-1.2,1.3-1.8C-197.1-120.2-195.1-120.1-192.9-119.9"/>
		</g>
		<g transform="matrix(.24743 0 0 -.24414 125.46 303.76)">
			<path class="st1" d="M-200.4-120.4c-1.4,1.3-3.1,2.9-5.3,2.8C-204.1-118.9-202.2-119.5-200.4-120.4"/>
		</g>
		<g transform="matrix(.24743 0 0 -.24414 128.13 303.25)">
			<path class="st1" d="M-207.9-121.9c-0.2,0.7-0.5,1.5-1.3,1.8h-1.5C-210.4-121.2-209.3-122.4-207.9-121.9"/>
		</g>
		<g transform="matrix(.24743 0 0 -.24414 139.54 292.87)">
			<path class="st1" d="M-239.9-151.4c-1.2,0.3-2.8,0.3-4,0c1.5-1,2.6-2.5,3.5-3.9C-239.6-154.5-240.1-152.7-239.9-151.4"/>
		</g>
		<g transform="matrix(.24743 0 0 -.24414 140.26 291.11)">
			<path class="st1" d="M-241.9-156.4c-1.1,10.3-9,20.5-18.9,23.8c-4.5,1.7-10.1,0.7-14.3-0.9c-1.5,1.9-3.4,3.8-5.5,4.6
				c5.8-7,9.1-15,13.2-22.7C-261.5-159.1-250.7-155.4-241.9-156.4"/>
		</g>
		<g transform="matrix(.24743 0 0 -.24414 113.16 307.98)">
			<path class="st0" d="M-165.9-108.4c-2.3,1.5-3.4,4.2-2.8,6.8c0.7,0.6,1.1,1.3,1.5,2c-1.3,0.5-2.5-0.5-3.5-1.1
				c-0.9-1.2-2.3-2.5-1.7-4c0.9-2.4,3.1-3.6,5.5-3.9C-166.7-108.6-166.1-108.8-165.9-108.4"/>
		</g>
	</g>
</g>
</svg>
