<!-- Generator: Adobe Illustrator 18.0.0, SVG Export Plug-In  -->
<svg version="1.1"
	 xmlns="http://www.w3.org/2000/svg" xmlns:xlink="http://www.w3.org/1999/xlink" xmlns:a="http://ns.adobe.com/AdobeSVGViewerExtensions/3.0/"
	 x="0px" y="0px" width="102.4px" height="102.4px" viewBox="0 0 102.4 102.4" enable-background="new 0 0 102.4 102.4"
	 xml:space="preserve">
<defs>
</defs>
<g>
	<g>
		<path fill="#FE3432" d="M102.4,51.2c0,28.3-22.9,51.2-51.2,51.2C22.9,102.4,0,79.5,0,51.2C0,22.9,22.9,0,51.2,0
			C79.5,0,102.4,22.9,102.4,51.2z"/>
	</g>
	<g>
		<path fill="#FE3432" d="M102.4,51.2c0,28.3-22.9,51.2-51.2,51.2C22.9,102.4,0,79.5,0,51.2C0,22.9,22.9,0,51.2,0
			C79.5,0,102.4,22.9,102.4,51.2z"/>
	</g>
	<g id="Lozenge_1_">
		<path fill="#FFFFFF" d="M82.5,38.4c0,0-0.6-4.4-2.5-6.4c-2.4-2.5-5.2-2.6-6.4-2.7c-9-0.6-22.4-0.6-22.4-0.6h0c0,0-13.4,0-22.4,0.6
			c-1.2,0.1-4,0.2-6.4,2.7c-1.9,1.9-2.5,6.4-2.5,6.4s-0.6,5.2-0.6,10.4v4.9c0,5.2,0.6,10.4,0.6,10.4s0.6,4.4,2.5,6.3
			c2.4,2.5,5.6,2.5,7.1,2.7c5.1,0.5,21.8,0.6,21.8,0.6s13.4,0,22.4-0.7c1.2-0.1,4-0.2,6.4-2.7c1.9-1.9,2.5-6.3,2.5-6.3
			s0.6-5.2,0.6-10.4v-4.9C83.2,43.6,82.5,38.4,82.5,38.4z M44.6,59.5l0-18l17.3,9L44.6,59.5z"/>
	</g>
</g>
</svg>