<!-- Generator: Adobe Illustrator 18.0.0, SVG Export Plug-In  -->
<svg version="1.1"
	 xmlns="http://www.w3.org/2000/svg" xmlns:xlink="http://www.w3.org/1999/xlink" xmlns:a="http://ns.adobe.com/AdobeSVGViewerExtensions/3.0/"
	 x="0px" y="0px" width="102.4px" height="102.4px" viewBox="0 0 102.4 102.4" enable-background="new 0 0 102.4 102.4"
	 xml:space="preserve">
<defs>
</defs>
<g>
	<path fill="#2DAAE1" d="M102.4,51.2c0,28.3-22.9,51.2-51.2,51.2C22.9,102.4,0,79.5,0,51.2C0,22.9,22.9,0,51.2,0
		C79.5,0,102.4,22.9,102.4,51.2z"/>
	<path fill="#FFFFFF" d="M81.4,26.1c-2.5,1.5-5.3,2.6-8.3,3.2c-2.4-2.6-5.8-4.1-9.6-4.1c-7.2,0-13.1,5.9-13.1,13.1c0,1,0.1,2,0.3,3
		c-10.9-0.5-20.6-5.8-27.1-13.7c-1.1,1.9-1.8,4.2-1.8,6.6c0,4.6,2.3,8.6,5.8,10.9c-2.1-0.1-4.2-0.7-5.9-1.6c0,0.1,0,0.1,0,0.2
		c0,6.4,4.5,11.7,10.5,12.9C31.2,56.8,30,57,28.8,57c-0.8,0-1.7-0.1-2.5-0.2c1.7,5.2,6.5,9,12.3,9.1c-4.5,3.5-10.2,5.6-16.3,5.6
		c-1.1,0-2.1-0.1-3.1-0.2c5.8,3.7,12.7,5.9,20.1,5.9c24.1,0,37.4-20,37.4-37.4c0-0.6,0-1.1,0-1.7c2.6-1.8,4.8-4.2,6.5-6.8
		c-2.4,1-4.9,1.7-7.5,2.1C78.4,31.8,80.4,29.2,81.4,26.1z"/>
</g>
</svg>