<!-- Generator: Adobe Illustrator 18.0.0, SVG Export Plug-In  -->
<svg version="1.1"
	 xmlns="http://www.w3.org/2000/svg" xmlns:xlink="http://www.w3.org/1999/xlink" xmlns:a="http://ns.adobe.com/AdobeSVGViewerExtensions/3.0/"
	 x="0px" y="0px" width="102.4px" height="102.4px" viewBox="0 0 102.4 102.4" enable-background="new 0 0 102.4 102.4"
	 xml:space="preserve">
<defs>
</defs>
<g>
	<path fill="#3C5B9B" d="M102.4,51.2c0,28.3-22.9,51.2-51.2,51.2C22.9,102.4,0,79.5,0,51.2C0,22.9,22.9,0,51.2,0
		C79.5,0,102.4,22.9,102.4,51.2z"/>
	<path fill="#FFFFFF" d="M42.6,83.2h13.3c0,0,0-17.6,0-32h9l1.2-11.3H55.9v-6.6c0-2.5,1.7-3.1,2.8-3.1s7.1,0,7.1,0v-11l-9.8,0
		c-10.9,0-13.4,8.2-13.4,13.4v7.3h-6.3v11.3h6.3C42.6,65.7,42.6,83.2,42.6,83.2z"/>
</g>
</svg>