<!-- Generator: Adobe Illustrator 18.0.0, SVG Export Plug-In  -->
<svg version="1.1"
	 xmlns="http://www.w3.org/2000/svg" xmlns:xlink="http://www.w3.org/1999/xlink" xmlns:a="http://ns.adobe.com/AdobeSVGViewerExtensions/3.0/"
	 x="0px" y="0px" width="102.4px" height="102.4px" viewBox="0 0 102.4 102.4" enable-background="new 0 0 102.4 102.4"
	 xml:space="preserve">
<defs>
</defs>
<g>
	<path fill="#517FA4" d="M102.4,51.2c0,28.3-22.9,51.2-51.2,51.2C22.9,102.4,0,79.5,0,51.2C0,22.9,22.9,0,51.2,0
		C79.5,0,102.4,22.9,102.4,51.2z"/>
	<path fill="#FFFFFF" d="M70.8,19.2H31.6c-6.8,0-12.4,5.5-12.4,12.4v13.1v26.2c0,6.8,5.5,12.4,12.4,12.4h39.3
		c6.8,0,12.4-5.5,12.4-12.4V44.6V31.6C83.2,24.7,77.6,19.2,70.8,19.2z M74.4,26.6l1.4,0V28v9.4l-10.8,0l0-10.8L74.4,26.6z
		 M42.1,44.6c2-2.8,5.4-4.7,9.1-4.7s7.1,1.9,9.1,4.7c1.3,1.8,2.1,4.1,2.1,6.6c0,6.2-5.1,11.3-11.3,11.3c-6.2,0-11.3-5.1-11.3-11.3
		C39.9,48.7,40.7,46.5,42.1,44.6z M77,70.8c0,3.4-2.8,6.1-6.1,6.1H31.6c-3.4,0-6.1-2.7-6.1-6.1V44.6H35c-0.8,2-1.3,4.2-1.3,6.6
		c0,9.6,7.8,17.5,17.5,17.5c9.6,0,17.5-7.8,17.5-17.5c0-2.3-0.5-4.5-1.3-6.6H77V70.8z"/>
</g>
</svg>