<!-- Generator: Adobe Illustrator 18.0.0, SVG Export Plug-In  -->
<svg version="1.1"
	 xmlns="http://www.w3.org/2000/svg" xmlns:xlink="http://www.w3.org/1999/xlink" xmlns:a="http://ns.adobe.com/AdobeSVGViewerExtensions/3.0/"
	 x="0px" y="0px" width="48px" height="48px" viewBox="0 0 48 48" enable-background="new 0 0 48 48" xml:space="preserve">
<defs>
</defs>
<g>
	<path fill="#FFFFFF" d="M24,0C10.8,0,0,10.7,0,24c0,13.2,10.8,24,24,24c13.3,0,24-10.8,24-24C48,10.7,37.3,0,24,0z M35.9,17.9
		c0,0.3,0,0.5,0,0.8c0,8.1-6.2,17.5-17.5,17.5c-3.5,0-6.7-1-9.4-2.8c0.5,0,1,0.1,1.5,0.1c2.9,0,5.5-1,7.6-2.6c-2.7,0-5-1.8-5.8-4.3
		c0.4,0.1,0.8,0.1,1.2,0.1c0.6,0,1.1-0.1,1.6-0.2c-2.8-0.6-4.9-3.1-4.9-6v-0.1c0.8,0.5,1.8,0.7,2.8,0.8c-1.7-1.1-2.7-3-2.7-5.1
		c0-1.1,0.3-2.2,0.8-3.1c3,3.7,7.6,6.2,12.7,6.4c-0.1-0.5-0.2-0.9-0.2-1.4c0-3.4,2.8-6.2,6.2-6.2c1.8,0,3.4,0.8,4.5,1.9
		c1.4-0.3,2.7-0.8,3.9-1.5c-0.5,1.4-1.4,2.6-2.7,3.4c1.2-0.1,2.4-0.5,3.5-1C38.2,15.9,37.1,17,35.9,17.9z"/>
</g>
</svg>