<!-- Generator: Adobe Illustrator 18.0.0, SVG Export Plug-In  -->
<svg version="1.1"
	 xmlns="http://www.w3.org/2000/svg" xmlns:xlink="http://www.w3.org/1999/xlink" xmlns:a="http://ns.adobe.com/AdobeSVGViewerExtensions/3.0/"
	 x="0px" y="0px" width="559.9px" height="56.3px" viewBox="0 0 559.9 56.3" enable-background="new 0 0 559.9 56.3"
	 xml:space="preserve">
<defs>
</defs>
<g>
	<g>
		<path fill="#FFFFFF" d="M35.4,1.3c0-0.1,0.1-0.1,0.2-0.1c-1.2,2.9-3.8,5.3-6.3,6.1v27.3l3.9-4.3c-1,6-5.3,12.4-10.6,14.2
			c-6.4,2.1-13.9,1.1-18.6-4.3C-0.3,35.8-0.5,28,1.2,22.1c1.4-4.9,5-9.7,9.3-12.4c-4.5,6-6.6,15.4-3.3,22.9
			c2.8,5.2,7.8,6.9,13.1,6.2c2.8-0.4,5.5-1.4,7.9-3.4V8C20.1,9,12.5,6.6,4.3,7.3C2.7,7.4,1.1,8,0,9.5c0.2-2.8,1.4-5.4,3.6-7.2
			c3-2.2,7.2-1.6,11-1.5C21.5,1.2,28.6,3.4,35.4,1.3L35.4,1.3z"/>
		<path fill="#FFFFFF" d="M169.7,4.2l1.5-0.4c-0.1,2.1-1.5,4.2-3.2,5c-2.3,1.1-4.2-0.6-6-1.6c-0.7-0.1-1.3,0.2-1.7,0.7l-0.6-0.8
			l6.1-6.3C166.3,2.3,167.8,4.3,169.7,4.2L169.7,4.2z"/>
		<path fill="#FFFFFF" d="M182.2,6.2v31.4c1.5,0.3,2.7,1.2,3.6,2.6l2.5-1.3l0.5,0.9c-2.5,1.6-5.3,3.1-7.6,5.4
			c-1.7-1.9-3.6-3.5-6.1-3l-2,0.5c-0.1-1.6,0.8-3.5,2.4-4.3l0.5-0.2V7.1c-0.2-1.3-0.7-2.5-1.6-3.5c3.7,0.4,6.9-0.8,9.7-2.9
			C183.2,2.3,182.4,4.2,182.2,6.2L182.2,6.2z"/>
		<path fill="#FFFFFF" d="M405.8,6.2v31.4c1.4,0.3,2.6,1.2,3.5,2.6l2.5-1.3l0.5,0.9c-2.6,1.6-5.3,3.1-7.7,5.4
			c-1.7-1.9-3.6-3.5-6.1-3l-2,0.5c-0.1-1.6,0.9-3.5,2.4-4.3l0.6-0.2l-0.1-31.2c-0.1-1.3-0.7-2.5-1.6-3.5c3.7,0.4,6.9-0.8,9.7-2.9
			C406.8,2.3,405.9,4.2,405.8,6.2L405.8,6.2z"/>
		<path fill="#FFFFFF" d="M501.8,4.2l1.5-0.4c-0.1,2.1-1.4,4.2-3.1,5c-2.4,1.1-4.2-0.6-6.1-1.6c-0.7-0.1-1.3,0.2-1.7,0.7l-0.7-0.8
			l6.1-6.3C498.5,2.3,499.9,4.3,501.8,4.2L501.8,4.2z"/>
		<path fill="#FFFFFF" d="M45.2,0.8c-3.2,5.8-1.3,14-1.8,21l11.1-8.1c1,1.7,2.7,3.2,4.7,3.1c0.7,0,1.3-0.4,1.9-0.6
			c-0.2,1.8-1.1,3.7-2.7,4.6c-0.2,5.3-0.1,10.9-0.1,16.2c0.2,1.7,0.7,3.3,1.7,4.5c-2.5-0.4-5.6-0.8-7.9,0.4c-0.7,0.5-0.9,1.2-0.7,2
			c1.1,1.8,3.5,2.1,4.1,4.4c0.3,2,0.1,4.1-1.4,5.4c-1.1,0.8-2.3,1.4-3.8,1.4c1.4-1.8,1.9-4.2,1.4-6.6c-0.3-1.9-2.2-3.5-1.3-5.7
			c0.9-2,1.5-4.3,1.4-6.7L52,21.9c-0.5-0.3-1-0.5-1.5-1L49.1,19l-5.7,4.2v14.2c1.4,0.6,2.8,1.1,3.9,2.5c-2.2,1.1-4.3,3-6.1,5.1
			c-2.2-2.1-4.6-3.6-7.5-3.6c0.5-1.6,2-3.1,3.5-3.8L37,6.7c-0.3-1.1-0.6-2.2-1.5-3.2C39.2,4.1,42.3,2.7,45.2,0.8L45.2,0.8z"/>
		<path fill="#FFFFFF" d="M132,34.2V16.6c0-4-0.3-7.9-1.9-11.1c-1.6-2.7-4.1-4.2-6.8-4.6c-8.5-0.7-17,3-25.1,0
			C98.1,2.5,98.5,4,99,5.4c3.2,5.5,10.3,3.6,15.2,3.2v27.3c-6.7-0.2-12.5,3.6-16.2,9.8c5.4-3.9,13.9-3.9,19.3-0.1
			c4.6-4.2,10.2-6.1,16-6.9C132.8,37.3,132.2,35.9,132,34.2z M124.9,39.4l-1.6,0.6c-2.3-2.6-5-3.9-8-4.2V8.4
			c2.9-0.2,7.2-1.3,8.9,2.1l0.5,1.9l0.1,26.5V39.4z"/>
		<path fill="#FFFFFF" d="M263.6,9.2l3.9-3.8c-3.7-0.6-7.2-2-9.6-5.4l-9.4,6.8v-3h-1v3.8l-3.2,2.2c-0.1-1.5-0.4-3-0.8-4.3
			c-0.8-2.2-2.8-4.4-5-4.7c-3.5-0.6-6.6,0.7-8.6,3.9c-1.2,1.8-1.4,4.9-0.5,6.8c0.1-1.4,0.5-2.7,1.5-3.7c1-1.1,2.9-1.2,4.2-0.6
			c3.4,2.1,1.8,7.1,2.2,10.7h-1.6c-1.9,0.1-3.9,1.2-4.6,3.3c-0.7,2.5-0.1,5,0.9,6.9l0.4-1.2c0.9-1.9,2.8-2.2,4.9-2v8.7
			c-1.3,0-2.4,0.5-3.5,1.1c-3.4,2.1-4.6,6.1-4.7,10.2c2-2.9,4.9-4.3,8.2-4.3c0.1,5.6,0.6,11.6-3.1,15.5c2.9,0.3,5.4-1.1,7.2-3.7
			c1.9,2.4,4.2,3.6,7.1,3.5V42.6c1.7,0.5,3.2,1.4,4.6,2.3c2.7-4.8,7.1-7.9,11.9-7.9c-0.6-1.2-0.9-2.6-1.2-4L263.6,9.2z M247.4,54.6
			c-0.9-0.2-1.8-0.8-2.3-1.8c-1-1.9-0.6-4.5-0.7-6.8V11.1l3-2.2V54.6z M256.8,38c-2.6-1.9-5.1-3.8-8.2-4.6V8.2l2.9-2.2
			c0.9,2.2,3,3.7,5.2,3.6V38z"/>
		<path fill="#FFFFFF" d="M22.6,29.3c-0.7,4.9-5.5,5.7-8.8,6.8c1-1,1.5-2.4,1.7-3.8c0.1-5.6,0-11.2,0-16.8l-2.7,1.1v-1.3
			c3.4-1.2,6.6-3,9.8-4.9V29.3L22.6,29.3z"/>
		<path fill="#FFFFFF" d="M112.2,10.6c-0.8,1.3-1.1,3.1-1,4.9L111,29.4c-1,4.7-5.6,6.3-9.2,7.3c2.9-1.8,1.8-6,2.1-9.4
			c-1.7,0.1-4.3-0.7-5,1.6l-0.2,1.3c-0.8-2.5-1.2-6.2,0.5-8.4c1.2-1.3,2.8-1.6,4.6-1.6c0.1-3.1,1.5-5.9,3.9-7.6
			C109.2,11.8,110.7,11,112.2,10.6L112.2,10.6z"/>
		<path fill="#FFFFFF" d="M172.2,17.4c-0.6,1.6-2,3.1-3.5,3.7v14.3c0.1,1.1,0.4,2.1,1.3,2.9c0.7,0.6,1.7,0.9,2.7,0.9v0.8
			c-2.3,1.2-4.4,3.1-6.4,5c-2.1-1.1-3.6-3.5-3.8-5.9l-0.1-17.7c-1.5-0.5-2.8-1.2-3.9-2.5c2.2-1.1,4.3-3,6.1-5.1
			C166.9,15.9,169.2,17.5,172.2,17.4L172.2,17.4z"/>
		<path fill="#FFFFFF" d="M216.7,17.4c-0.6,1.6-2,3.1-3.5,3.7v16.2c-0.1,2.8,2.5,4.3,2,7.2c0,3.9-2.5,7.4-5.5,9.2
			c-3.7,2.4-9.2,2.8-13.2,1c-1.9-0.8-4.6-2.7-6.4-0.4l-0.3,0.3c0.2-2.8,1.2-5.9,3.9-7.2c1.6-0.5,3.5-0.4,4.8,0.8
			c2.4,2,3.9,6.5,7.4,5.6c1.5-0.3,2.9-1.3,3.5-2.9c1.4-3.2-0.5-5.9-2.1-8.3c-0.5-1.8-0.4-3.9-0.5-5.9L195.7,45
			c-0.5-1.1-1.7-2.5-2.9-2.8c-1.3-0.3-2.6,0-3.8,0.4c0-2,1.4-3.9,2.9-4.7l-0.1-14.6c0-1.2-0.6-2.5-1.7-3.1c-0.7-0.3-1.6-0.4-2.4-0.4
			V19c1.8-1.1,3.6-2.9,5-4.8c1.8,0.3,3.9,1.4,4.8,3.6l0.5,2.7l0.1,16.7c1.2,0.3,2.4,1.4,2.9,2.7l5.7-4.2V21.4
			c-1.5-0.4-2.8-1.2-3.9-2.5c2.1-1.1,4.2-2.9,6.1-5.1C211.3,15.9,213.7,17.5,216.7,17.4L216.7,17.4z"/>
		<path fill="#FFFFFF" d="M311.9,16.9c0.6,0,1.2-0.4,1.8-0.6c-0.1,1.8-1,3.7-2.6,4.6c-0.3,4.7-0.2,9.8-0.1,14.6
			c0,1.2,0.6,2.5,1.7,3.1c0.6,0.3,1.5,0.4,2.3,0.4v0.8c-1.8,1.2-3.8,3-5,5c-1.8-0.5-3.9-1.5-4.7-3.7l-0.6-2.7l-0.1-16.7
			c-1.2-0.3-2.2-1.6-2.8-2.8l-5.7,4.2v14.2c1.4,0.6,2.8,1.1,3.9,2.5c-2.2,1.1-4.3,3.1-6.1,5.3c-2.1-2.3-4.7-3.8-7.6-3.8
			c0.6-1.5,2-3.1,3.5-3.7V23.4c-0.1-1-0.4-1.9-1-2.8c-0.8-0.7-1.9-0.9-2.8-1v-0.8c2.2-1.2,4.3-2.8,6.2-4.8c2.2,0.7,3.9,3.5,4,6.1
			v1.7l11-8.1C308.1,15.5,309.8,17,311.9,16.9L311.9,16.9z"/>
		<path fill="#FFFFFF" d="M341.1,16.9c0.7,0,1.3-0.4,1.9-0.6c-0.2,1.8-1.1,3.7-2.7,4.6c-0.2,4.7-0.2,9.8-0.1,14.6
			c0.1,1.2,0.6,2.5,1.7,3.1c0.6,0.3,1.5,0.4,2.4,0.4v0.8c-1.9,1.2-3.8,3-5.1,5c-1.8-0.5-3.9-1.5-4.7-3.7l-0.6-2.7V21.8
			c-1.3-0.3-2.3-1.6-2.9-2.8l-5.7,4.2v14.2c1.4,0.6,2.8,1.1,3.9,2.5c-2.2,1.1-4.3,3.1-6.1,5.3c-2.1-2.3-4.6-3.8-7.5-3.8
			c0.5-1.5,2-3.1,3.4-3.7V23.4c0-1-0.4-1.9-1-2.8c-0.8-0.7-1.9-0.9-2.8-1v-0.8c2.2-1.2,4.3-2.8,6.2-4.8c2.2,0.7,3.9,3.5,4,6.1v1.7
			l11.1-8.1C337.4,15.5,339.1,17,341.1,16.9L341.1,16.9z"/>
		<path fill="#FFFFFF" d="M397,17.4c-0.6,1.6-2.1,3.1-3.5,3.7v16.2c-0.1,2.8,2.4,4.3,2,7.2c-0.1,3.9-2.6,7.4-5.6,9.2
			c-3.6,2.4-9.1,2.8-13.1,1c-1.9-0.8-4.7-2.7-6.5-0.4l-0.3,0.3c0.2-2.8,1.2-5.9,3.9-7.2c1.6-0.5,3.5-0.4,4.8,0.8
			c2.4,2,3.9,6.5,7.5,5.6c1.4-0.3,2.8-1.3,3.5-2.9c1.3-3.2-0.6-5.9-2.1-8.3c-0.5-1.8-0.5-3.9-0.5-5.9L376,45
			c-0.6-1.1-1.7-2.5-2.9-2.8c-1.4-0.3-2.7,0-3.8,0.4c-0.1-2,1.3-3.9,2.9-4.7l-0.1-14.6c-0.1-1.2-0.6-2.5-1.7-3.1
			c-0.7-0.3-1.6-0.4-2.3-0.4V19c1.8-1.1,3.6-2.9,5-4.8c1.9,0.3,3.9,1.4,4.8,3.6l0.6,2.7l0.1,16.7c1.2,0.3,2.3,1.4,2.9,2.7l5.6-4.2
			V21.4c-1.5-0.4-2.8-1.2-3.9-2.5c2.2-1.1,4.3-2.9,6.1-5.1C391.5,15.9,393.9,17.5,397,17.4L397,17.4z"/>
		<path fill="#FFFFFF" d="M418.5,17.4l0.6,2.6l0.2,15c0,2.5,2,4.5,3.9,5.2c1.4,1.5,3-0.1,4.5-0.4V21.4c-1.5-0.4-2.8-1.2-3.9-2.5
			c2.2-1.1,4.3-2.9,6.1-5.1c2.1,2.1,4.6,3.7,7.6,3.6c-0.6,1.6-2.1,3.1-3.5,3.7v14.7c0.1,1.5,0.5,3.1,1.6,4.2
			c-6.1,0.1-11.6,1.5-16.3,5.2c-2.2-0.5-4.4-1.4-5.6-3.8c-0.9-2.2-1.1-4.8-0.9-7.5l-0.2-11.3c-0.2-1.1-0.5-2.1-1.5-2.7
			c-0.8-0.4-1.7-0.6-2.5-0.6v-0.7c1.8-1.1,3.6-2.9,5-4.8C415.7,14.1,417.7,15.1,418.5,17.4L418.5,17.4z"/>
		<path fill="#FFFFFF" d="M488.4,16.9c0.6,0,1.2-0.4,1.8-0.6c-0.1,1.8-1,3.7-2.7,4.6c-0.2,4.7-0.1,9.8,0,14.6c0,1.2,0.5,2.5,1.7,3.1
			c0.7,0.3,1.6,0.4,2.4,0.4v0.8c-1.8,1.2-3.8,3-5,5c-1.9-0.5-3.9-1.5-4.8-3.7l-0.5-2.7l-0.1-16.7c-1.3-0.3-2.2-1.6-2.8-2.8l-5.7,4.2
			v14.2c1.3,0.6,2.7,1.1,3.9,2.5c-2.3,1.1-4.4,3.1-6.1,5.3c-2.1-2.3-4.7-3.8-7.6-3.8c0.6-1.5,2-3.1,3.5-3.7V23.4
			c-0.1-1-0.4-1.9-1-2.8c-0.9-0.7-1.9-0.9-2.9-1v-0.8c2.2-1.2,4.4-2.8,6.3-4.8c2.2,0.7,3.9,3.5,4,6.1v1.7l11-8.1
			C484.6,15.5,486.4,17,488.4,16.9L488.4,16.9z"/>
		<path fill="#FFFFFF" d="M504.3,17.4c-0.6,1.6-2.1,3.1-3.5,3.7v14.3c0.1,1.1,0.4,2.1,1.2,2.9c0.8,0.6,1.7,0.9,2.8,0.9v0.8
			c-2.4,1.2-4.5,3.1-6.5,5c-2-1.1-3.6-3.5-3.7-5.9l-0.2-17.7c-1.4-0.5-2.7-1.2-3.8-2.5c2.1-1.1,4.2-3,6.1-5.1
			C498.9,15.9,501.3,17.5,504.3,17.4L504.3,17.4z"/>
		<path fill="#FFFFFF" d="M556.7,16.9c0.6,0,1.2-0.4,1.8-0.6c-0.1,1.8-1,3.7-2.6,4.6c-0.3,4.7-0.2,9.8-0.1,14.6
			c0,1.2,0.6,2.5,1.7,3.1c0.6,0.3,1.5,0.4,2.3,0.4v0.8c-1.8,1.2-3.8,3-5,5c-1.8-0.5-3.9-1.5-4.7-3.7l-0.6-2.7l-0.1-16.7
			c-1.2-0.3-2.2-1.6-2.8-2.8l-5.7,4.2v14.2c1.4,0.6,2.8,1.1,3.9,2.5c-2.2,1.1-4.4,3.1-6.1,5.3c-2.1-2.3-4.7-3.8-7.6-3.8
			c0.6-1.5,2-3.1,3.5-3.7V23.4c-0.1-1-0.4-1.9-1-2.8c-0.8-0.7-1.9-0.9-2.8-1v-0.8c2.2-1.2,4.3-2.8,6.2-4.8c2.2,0.7,3.9,3.5,4,6.1
			v1.7l11-8.1C552.9,15.5,554.7,17,556.7,16.9L556.7,16.9z"/>
		<path fill="#FFFFFF" d="M78.8,40.5c-2.5-1.6-5-2.9-8-3.4v-4.3l14-8.7c-3.3-2.9-5.3-6.6-6.8-10.3c-4.1,3.9-9.8,4.8-15.2,3.7
			c1,1.1,1.5,2.5,1.7,3.9l0.1,16c-1.5,0.6-2.9,2.3-3.6,3.9c5.2-0.5,9.5,1.7,13.8,3.9l8.4-6.3c-0.2-0.4-0.3-0.8-0.6-1.1
			C81.4,38.7,80.1,39.5,78.8,40.5z M70.9,18.6l2.2-0.6c1.5,3,2.9,6,4.8,8.9l-7,4.3V18.6z"/>
		<path fill="#FFFFFF" d="M281.6,40.5c-2.5-1.6-5.1-2.9-8-3.4v-4.3l13.9-8.7c-3.2-2.9-5.2-6.6-6.7-10.3c-4.1,3.9-9.9,4.8-15.3,3.7
			c1,1.1,1.5,2.5,1.7,3.9l0.2,16c-1.6,0.6-2.9,2.3-3.6,3.9c5.1-0.5,9.4,1.7,13.8,3.9l8.5-6.3c-0.2-0.4-0.4-0.8-0.6-1.1
			C284.2,38.7,282.9,39.5,281.6,40.5z M273.7,18.6l2.2-0.6c1.5,3,2.9,6,4.7,8.9l-6.9,4.3V18.6z"/>
		<path fill="#FFFFFF" d="M156.9,38.1c-0.9-0.9-1.3-2.2-1.5-3.6V20.8c1.7-0.9,2.6-2.8,3-4.6c-0.9,0.6-2,1-3.3,0.8
			c-1.4-0.4-2.5-2-3.4-3.3c-1.8,2-3.8,3.9-6.3,4c-2.1,0.3-3.3-2.2-4-4c-1.3,2.5-3.5,3.7-5.5,4.5c1.6,1.3,3.3,2.2,5.1,2.9
			c2.2,0.6,4-0.4,5.4-2.2c0.6,1.3,1.8,2.5,2.9,3.1v4.1c-0.7-0.4-1.6-0.7-2.4-0.9c-4.5-0.5-8.9,1.2-11.3,5.7
			c-1.7,2.9-1.7,7.6-0.2,10.5c1.5,2.5,3.8,3.4,6.1,3.8l7.8-6l0.7,2.1c0.8,1.9,2.7,3.5,4.7,3.5l5.2-5.2
			C158.9,39.3,157.8,39,156.9,38.1z M149.4,37.9c-1.2,0.9-2.5,2.1-3.9,1.1c-2.2-0.7-4.7-2.6-5.1-5.3c-0.4-2.1,0-4.3,1.5-5.8
			c1.8-2,5.3-2.3,7.5-0.6V37.9z"/>
		<path fill="#FFFFFF" d="M459.5,38.1c-1-0.9-1.4-2.2-1.5-3.6V20.8c1.6-0.9,2.6-2.8,3-4.6c-1,0.6-2.1,1-3.3,0.8
			c-1.5-0.4-2.6-2-3.4-3.3c-1.8,2-3.9,3.9-6.3,4c-2.1,0.3-3.3-2.2-4-4c-1.3,2.5-3.5,3.7-5.5,4.5c1.6,1.3,3.3,2.2,5.1,2.9
			c2.2,0.6,4-0.4,5.4-2.2c0.5,1.3,1.7,2.5,2.9,3.1v4.1c-0.7-0.4-1.6-0.7-2.4-0.9c-4.5-0.5-8.9,1.2-11.3,5.7
			c-1.6,2.9-1.7,7.6-0.2,10.5c1.4,2.5,3.8,3.4,6.1,3.8l7.8-6l0.7,2.1c0.8,1.9,2.7,3.5,4.7,3.5l5.2-5.2
			C461.5,39.3,460.3,39,459.5,38.1z M452,37.9c-1.3,0.9-2.5,2.1-3.9,1.1c-2.2-0.7-4.8-2.6-5.1-5.3c-0.4-2.1,0-4.3,1.5-5.8
			c1.8-2,5.3-2.3,7.5-0.6V37.9z"/>
		<path fill="#FFFFFF" d="M527.8,38.1c-0.9-0.9-1.3-2.2-1.5-3.6V20.8c1.7-0.9,2.6-2.8,3-4.6c-0.9,0.6-2,1-3.3,0.8
			c-1.4-0.4-2.5-2-3.4-3.3c-1.8,2-3.8,3.9-6.3,4c-2.1,0.3-3.3-2.2-4-4c-1.3,2.5-3.5,3.7-5.5,4.5c1.6,1.3,3.3,2.2,5.1,2.9
			c2.2,0.6,4-0.4,5.4-2.2c0.5,1.3,1.8,2.5,2.9,3.1v4.1c-0.7-0.4-1.6-0.7-2.4-0.9c-4.7-0.6-9.3,1.4-11.5,6.2c-1.6,2.8-1.5,7.3,0,10
			c1.5,2.5,3.8,3.4,6.1,3.8l7.8-6l0.7,2.1c0.8,1.9,2.7,3.5,4.7,3.5l5.2-5.2C529.8,39.3,528.7,39,527.8,38.1z M520.3,37.9
			c-1.2,0.9-2.5,2.1-3.9,1.1c-2.2-0.7-4.7-2.6-5-5.3c-0.5-2.1-0.1-4.3,1.4-5.8c1.8-2,5.3-2.3,7.5-0.6V37.9z"/>
		<path fill="#FFFFFF" d="M368.3,26.5l-8.2-0.1c3-3.4,5.9-6.8,7.3-10.9c0.5-0.5-0.1-0.9-0.5-1.1c-0.5,0.9-1.1,1.9-2,2.2
			c-2.5,0.6-4.4-1-6.1-2.8c-3.8,3.4-8.6,5.1-13.8,4c0.7,0.9,1.1,2,1.3,3.2c-0.1,3.6,0.8,7.9-1.3,10.5l7.5,0.1
			c-3.6,3.5-7.2,7.5-9.4,11.9c-0.6,0.7,0.5,0.7,0.7,1c0.5-0.9,1.6-2.1,2.6-2.6c3-0.8,5.3,1.5,7.7,3.3c3.8-3.8,8.9-5.1,14-3.8
			c-0.6-1.1-1.2-2.3-1.3-3.8C367.2,33.9,366.1,29.3,368.3,26.5z M352.2,28.4v-9.8l1.7-0.3c1.6,1.9,3.5,3.4,6,2.9
			c2-0.4,3.8-1.7,5.3-3.3c-2.3,3.8-5.4,7.3-8.6,10.4C355.1,28.5,353.7,28.4,352.2,28.4z M361,40.2l-1.4,0.5c-1-2-2.9-3.7-5-4
			c-2.8-0.3-5,1.2-7.2,2.2c2.9-3.5,6.4-6.8,10-9.5h3.6V40.2z"/>
	</g>
</g>
</svg>