<?xml version="1.0" encoding="utf-8"?>
<!-- Generator: Adobe Illustrator 16.0.4, SVG Export Plug-In . SVG Version: 6.00 Build 0)  -->
<!DOCTYPE svg PUBLIC "-//W3C//DTD SVG 1.1//EN" "http://www.w3.org/Graphics/SVG/1.1/DTD/svg11.dtd">
<svg version="1.1" id="Layer_1" xmlns="http://www.w3.org/2000/svg" xmlns:xlink="http://www.w3.org/1999/xlink" x="0px" y="0px"
	 width="807.081px" height="360.036px" viewBox="103.28 292.299 807.081 360.036"
	 enable-background="new 103.28 292.299 807.081 360.036" xml:space="preserve">
<path fill="#FFFFFF" d="M609.68,511.543c-14.774,14.644-32.286,26.08-51.733,33.487c-19.144,7.289-39.496,10.843-59.643,14.086
	c-25.789,4.151-51.238,9.032-76.756,14.649c-10.381,2.286-20.778,4.397-31.23,6.325c-8.845,1.633-17.885,3.083-26.898,2.271
	c-13.777-1.241-17.367-15.881-16.275-27.383c1.431-15.082,8.641-29.807,14.957-43.346c6.385-13.688,13.699-27.244,18.143-41.732
	c2.584-8.434,5.131-23.957-5.155-28.575c-5.545-2.49-11.698-0.906-17.115,1.181c-7.144,2.753-13.862,6.524-20.562,10.194
	c-6.64,3.635-13.289,7.446-20.322,10.279c-1.603,0.645-3.236,1.208-4.892,1.702c-1.044,0.312-3.488,0.862-3.737,0.896
	c-0.688,0.089-1.38,0.12-2.073,0.138c-0.152,0.003-1.354-0.073-1.393-0.042c-0.166-0.028-0.333-0.058-0.498-0.096
	c-2.405-13.682,4.72-27.604,9.894-39.867c5.503-13.053,11.099-27.627,6.359-41.787c-0.778-2.323-3.313-4.229-5.86-3.328
	c-18.807,6.652-31.006,24.919-43.373,39.493c-16.56,19.516-33.118,38.924-48.733,59.22c-9.062,11.78-17.955,23.718-26.78,35.699
	c4.774-9.539,9.622-19.039,14.653-28.438c12.458-23.279,25.688-46.139,38.163-69.409c6.245-11.647,12.264-23.418,17.929-35.36
	c2.632-5.549,4.607-12.587,8.533-17.319c3.544-4.274,6.15-9.165,7.7-14.493c1.85-6.363,1.28-13.174-0.456-19.479
	c-0.52-1.886-2.413-2.818-4.25-2.415c-14.938,3.292-24.369,17.065-32.893,28.62c-2.436,3.3,3.036,6.375,5.456,3.189
	c6.911-9.1,14.561-20.163,25.739-24.153c0.682,4.111,0.619,8.186-0.438,12.351c-0.674,2.653-1.895,5.084-3.264,7.438
	c-1.709,2.938-4.469,5.183-5.838,8.267c-5.339,12.036-11.214,23.832-17.309,35.499c-12.255,23.46-25.602,46.325-38.503,69.431
	c-16.116,28.86-30.437,58.684-45.489,88.109c-10.134,14.728-19.6,29.916-27.508,45.961c-2.909,5.9-5.524,11.948-7.917,18.075
	c-1.94,4.969,5.707,7.733,8.32,3.507c11.72-18.943,22.138-38.594,32.147-58.467c1.498-2.209,3.006-4.408,4.526-6.596
	c14.123-20.331,29.292-39.946,43.978-59.87c16.019-21.733,33.055-42.703,50.636-63.188c6.601-7.688,13.143-15.415,19.706-23.135
	c6.522-7.671,13.49-15.4,22.163-20.678c0.327-0.198,0.661-0.385,0.994-0.57c2.001,15.732-8.661,32.232-13.952,46.269
	c-3.212,8.516-5.485,17.724-4.437,26.869c0.513,4.465,1.256,7.793,5.652,9.576c2.148,0.872,4.543,1.13,6.848,1.083
	c11.596-0.238,22.987-7.407,32.829-12.813c5.509-3.025,10.983-6.123,16.645-8.857c2.149-1.039,4.274-1.954,6.522-2.738
	c2.062-0.721,4.624-1.265,5.719-1.322c0.429-0.022,0.859,0,1.289,0.023c0.062,0.018,0.146,0.039,0.279,0.069
	c0.491,0.108,0.548,0.074,0.553,0.063c-0.001,0.013,0.041,0.104,0.65,0.514c-0.707-0.479-0.441-0.254-0.162-0.013
	c0.11,0.148,0.36,0.465,0.429,0.578c0.058,0.098,0.1,0.166,0.136,0.223c0.022,0.068,0.05,0.148,0.088,0.259
	c0.236,0.651,0.377,1.336,0.512,2.016c0.92,4.616-0.624,10.187-2.151,15.009c-4.563,14.401-12.15,27.838-18.498,41.493
	c-6.627,14.26-13.032,29.037-14.812,44.8c-1.482,13.136,2.897,27.733,14.997,34.628c7.517,4.282,17.437,3.721,25.708,2.876
	c8.338-0.852,16.499-2.698,24.764-4.01c13.118-2.079,26.128-5.589,39.102-8.428c13.091-2.867,26.216-5.573,39.441-7.745
	c40.961-6.729,83.9-11.68,117.535-38.442c6.189-4.925,11.901-10.461,17.249-16.281C619.427,513.536,613.607,507.647,609.68,511.543z
	"/>
<path fill="#FFFFFF" d="M878.399,355.929c-22.98,2.269-46.049,3.348-69.073,5.068c-11.492,0.857-22.872,2.097-34.213,3.624
	c0.404-4.348-5.348-6.866-8.436-2.743c-1.731,2.312-3.972,3.952-6.506,4.925c-6.339,0.987-12.676,2.043-19.023,3.17
	c-27.046,4.8-54.296,8.533-81.258,13.628c0.341-2.044,0.511-4.099,0.45-6.148c-0.092-3.203-0.931-6.611-2.874-9.21
	c-2.358-3.156-4.818-3.601-8.7-3.154c-4.025,0.463-7.901,1.44-11.723,2.778c-16.656,5.838-30.716,17.578-44.368,28.385
	c-13.528,10.71-27.362,21.13-41.072,31.617c-12.841,9.824-26.487,19.521-41.758,25.179c0.986-6.634,5.824-13.702,9.029-18.677
	c5.833-9.045,12.753-17.334,19.633-25.587c8.406-10.08,15.93-20.858,24.174-31.076c2.443-3.03,4.923-6.034,7.427-9.016
	c8.811-9.962,17.662-19.885,26.596-29.738c4.056-4.474-2.432-11.058-6.655-6.654c-12.442,12.966-24.389,26.379-35.716,40.331
	c-50.082,57.309-98.854,115.763-150.071,172.072c-3.203,3.521,1.947,8.734,5.241,5.241c31.236-33.125,61.301-67.302,91.173-101.649
	c-1.198,4.299-1.566,8.721-0.416,13.018c0.714,2.661,3.608,4.311,6.265,3.557c28.945-8.23,51.753-29.501,75.14-47.339
	c6.36-4.854,12.697-9.769,19.068-14.633c0.668,1.79,2.39,3.125,4.766,2.393c12.879-3.963,25.912-7.202,39.036-10.012
	c-5.592,11.703-12.981,22.603-20.383,33.196c-8.677,12.418-17.875,24.463-27.027,36.529c-6.873,9.062-14.024,18.058-20.021,27.738
	c-0.966,1.56-1.881,3.16-2.633,4.834c-1.398,3.107-0.401,6.882,3.201,7.871c16.229,4.462,33.352-5.879,46.722-13.859
	c7.866-4.693,15.521-9.736,23.473-14.287c6.911-3.957,14.159-7.437,22.221-8.077c6.121-0.488,8.828,1.604,10.189,7.13
	c1.726,7.019,0.681,14.547,0.978,21.688c0.293,7.084,1.095,15.026,5.263,21.02c4.017,5.773,10.174,7.957,16.886,8.824
	c10.392,1.346,21.587-0.853,31.837-2.354c13.439-1.97,26.717-4.932,39.844-8.398c26.419-6.979,52.066-16.589,77.413-26.719
	c5.363-2.143,3.195-10.853-2.434-8.828c-24.672,8.873-49.497,17.367-74.818,24.205c-12.635,3.411-25.422,6.281-38.329,8.457
	c-10.372,1.749-21.278,3.531-31.837,2.896c-5.084-0.306-9.021-1.905-10.816-6.408c-2.81-7.046-2.16-15.044-2.21-22.458
	c-0.043-7.02-0.39-14.236-3.484-20.653c-3.094-6.41-9.876-9.094-16.611-9.262c-17.296-0.431-33.226,11.74-47.18,20.389
	c-7.812,4.841-15.72,9.593-24.149,13.288c-3.977,1.742-8.457,3.277-12.932,3.648c3.563-5.663,7.911-10.984,11.812-16.207
	c8.745-11.711,17.68-23.283,26.29-35.097c8.631-11.843,17.072-23.916,24.218-36.728c2.578-4.625,5.322-9.706,7.339-14.993
	c27.286-5.287,54.893-9.074,82.302-13.761c3.589-0.614,7.17-1.211,10.749-1.8c0.893,1.187,2.312,1.979,4.27,1.908
	c5.053-0.183,9.784-1.794,13.585-4.694c13.608-1.997,27.241-3.668,41.072-4.724c20.132-1.535,40.308-2.5,60.431-4.156
	c0.202,2.139,2.293,4.214,4.609,3.376c4.926-1.781,7.73-2.766,8.408-8.51C883.035,358.091,880.581,355.714,878.399,355.929z
	 M614.182,392.8c10.311-7.54,22.273-15.607,35.293-17.221c0.04,0.142,0.08,0.284,0.116,0.425c0.454,1.698,0.129,0.062,0.201,1.447
	c0.055,1.016-0.019,2.036-0.121,3.046c0.018-0.369-0.349,1.827-0.45,2.269c-0.234,1.05-0.538,2.082-0.854,3.108
	c-12.427,2.561-24.777,5.48-37,9.02C612.306,394.198,613.238,393.49,614.182,392.8z"/>
</svg>
