<!-- Generator: Adobe Illustrator 18.0.0, SVG Export Plug-In  -->
<svg version="1.1"
	 xmlns="http://www.w3.org/2000/svg" xmlns:xlink="http://www.w3.org/1999/xlink" xmlns:a="http://ns.adobe.com/AdobeSVGViewerExtensions/3.0/"
	 x="0px" y="0px" width="871.3px" height="242.7px" viewBox="0 0 871.3 242.7" enable-background="new 0 0 871.3 242.7"
	 xml:space="preserve">
<defs>
</defs>
<g>
	<g>
		<path d="M143.8,39.2l-28.7,17c-5.4-9.3-10.5-15.4-15.3-18.2c-5.1-3.2-11.6-4.9-19.6-4.9c-9.8,0-17.9,2.8-24.4,8.3
			c-6.5,5.5-9.7,12.3-9.7,20.6c0,11.4,8.5,20.6,25.6,27.6l23.4,9.6c19.1,7.7,33,17.1,41.8,28.1c8.8,11.1,13.2,24.6,13.2,40.7
			c0,21.6-7.2,39.3-21.6,53.4c-14.5,14.2-32.4,21.2-53.9,21.2c-20.3,0-37.1-6-50.3-18.1c-13-12-21.2-29-24.4-50.8l35.8-7.9
			c1.6,13.7,4.4,23.2,8.5,28.5c7.3,10.1,17.9,15.2,31.8,15.2c11,0,20.2-3.7,27.4-11.1c7.3-7.4,10.9-16.7,10.9-28
			c0-4.5-0.6-8.7-1.9-12.5c-1.3-3.8-3.2-7.3-5.9-10.4c-2.7-3.2-6.1-6.2-10.4-8.9c-4.2-2.8-9.3-5.4-15.2-7.9l-22.6-9.4
			C26.5,107.8,10.4,88,10.4,62c0-17.6,6.7-32.3,20-44.1C43.9,6,60.6,0,80.6,0C107.6,0,128.6,13.1,143.8,39.2"/>
		<path fill="#FFFFFF" d="M143.8,39.2l-28.7,17c-5.4-9.3-10.5-15.4-15.3-18.2c-5.1-3.2-11.6-4.9-19.6-4.9c-9.8,0-17.9,2.8-24.4,8.3
			c-6.5,5.5-9.7,12.3-9.7,20.6c0,11.4,8.5,20.6,25.6,27.6l23.4,9.6c19.1,7.7,33,17.1,41.8,28.1c8.8,11.1,13.2,24.6,13.2,40.7
			c0,21.6-7.2,39.3-21.6,53.4c-14.5,14.2-32.4,21.2-53.9,21.2c-20.3,0-37.1-6-50.3-18.1c-13-12-21.2-29-24.4-50.8l35.8-7.9
			c1.6,13.7,4.4,23.2,8.5,28.5c7.3,10.1,17.9,15.2,31.8,15.2c11,0,20.2-3.7,27.4-11.1c7.3-7.4,10.9-16.7,10.9-28
			c0-4.5-0.6-8.7-1.9-12.5c-1.3-3.8-3.2-7.3-5.9-10.4c-2.7-3.2-6.1-6.2-10.4-8.9c-4.2-2.8-9.3-5.4-15.2-7.9l-22.6-9.4
			C26.5,107.8,10.4,88,10.4,62c0-17.6,6.7-32.3,20-44.1C43.9,6,60.6,0,80.6,0C107.6,0,128.6,13.1,143.8,39.2z"/>
		<path d="M336.7,138.9l72.7,99.7h-43.3l-67.2-95.8h-6.4v95.8h-35.2V4.7h41.5c31,0,53.4,5.8,67.2,17.4c15.2,12.9,22.8,30,22.8,51.2
			c0,16.6-4.8,30.8-14.3,42.7C364.9,127.9,352.3,135.6,336.7,138.9 M292.5,112.1h11.3c33.6,0,50.3-12.8,50.3-38.4
			c0-24-16.3-35.9-49-35.9h-12.6V112.1z"/>
		<path fill="#FFFFFF" d="M336.7,138.9l72.7,99.7h-43.3l-67.2-95.8h-6.4v95.8h-35.2V4.7h41.5c31,0,53.4,5.8,67.2,17.4
			c15.2,12.9,22.8,30,22.8,51.2c0,16.6-4.8,30.8-14.3,42.7C364.9,127.9,352.3,135.6,336.7,138.9z M292.5,112.1h11.3
			c33.6,0,50.3-12.8,50.3-38.4c0-24-16.3-35.9-49-35.9h-12.6V112.1z"/>
		<polyline points="557.8,37.8 464,37.8 464,94.2 555.1,94.2 555.1,127.3 464,127.3 464,205.5 557.8,205.5 557.8,238.6 428.8,238.6 
			428.8,4.7 557.8,4.7 		"/>
		<polygon fill="#FFFFFF" points="557.8,37.8 464,37.8 464,94.2 555.1,94.2 555.1,127.3 464,127.3 464,205.5 557.8,205.5 
			557.8,238.6 428.8,238.6 428.8,4.7 557.8,4.7 		"/>
		<polyline points="717.9,37.8 624,37.8 624,94.2 715.1,94.2 715.1,127.3 624,127.3 624,205.5 717.9,205.5 717.9,238.6 588.8,238.6 
			588.8,4.7 717.9,4.7 		"/>
		<polygon fill="#FFFFFF" points="717.9,37.8 624,37.8 624,94.2 715.1,94.2 715.1,127.3 624,127.3 624,205.5 717.9,205.5 
			717.9,238.6 588.8,238.6 588.8,4.7 717.9,4.7 		"/>
		<polyline points="817.6,37.8 817.6,238.6 782.4,238.6 782.4,37.8 728.6,37.8 728.6,4.7 871.3,4.7 871.3,37.8 		"/>
		<polygon fill="#FFFFFF" points="817.6,37.8 817.6,238.6 782.4,238.6 782.4,37.8 728.6,37.8 728.6,4.7 871.3,4.7 871.3,37.8 		"/>
		<polyline points="208.3,26.3 208.3,160.1 185,160.1 185,26.3 149.1,26.3 149.1,4.1 244,4.1 244,26.3 		"/>
		<polygon fill="#FFFFFF" points="208.3,26.3 208.3,160.1 185,160.1 185,26.3 149.1,26.3 149.1,4.1 244,4.1 244,26.3 		"/>
		<path fill="#FFFFFF" d="M184.4,182.3c3.7-0.1,6.6-2.7,6.6-6.5c0-3.4-2.8-6.1-6.2-6.1c-3.6,0-5.8,2.4-6,5.9h-2
			c0.3-4.7,3.2-7.8,8.1-7.8c4.5,0,8.1,3.5,8.1,8c0,3.2-1.8,6-4.7,7.2c3.1,1.2,5.1,4.3,5.1,7.6c0,5.2-3.9,9.2-9.2,9.2
			c-4.7,0-8.7-3.3-8.7-8.1h2c0.3,3.6,2.8,6.2,6.6,6.2c3.9,0,7.2-3.3,7.2-7.2c0-4.1-3.2-6.7-7.1-6.7"/>
		<path fill="#FFFFFF" d="M184.4,182.3c3.7-0.1,6.6-2.7,6.6-6.5c0-3.4-2.8-6.1-6.2-6.1c-3.6,0-5.8,2.4-6,5.9h-2
			c0.3-4.7,3.2-7.8,8.1-7.8c4.5,0,8.1,3.5,8.1,8c0,3.2-1.8,6-4.7,7.2c3.1,1.2,5.1,4.3,5.1,7.6c0,5.2-3.9,9.2-9.2,9.2
			c-4.7,0-8.7-3.3-8.7-8.1h2c0.3,3.6,2.8,6.2,6.6,6.2c3.9,0,7.2-3.3,7.2-7.2c0-4.1-3.2-6.7-7.1-6.7V182.3z"/>
		<path fill="#FFFFFF" d="M220.9,191.7v1.9h-4.4v5.9h-2v-5.9h-16.9v-0.3l18.6-26.1h0.3v24.5 M214.5,173.2h-0.3l-13,18.2v0.2h13.2
			V173.2z"/>
		<path fill="#FFFFFF" d="M220.9,191.7v1.9h-4.4v5.9h-2v-5.9h-16.9v-0.3l18.6-26.1h0.3v24.5H220.9z M214.5,173.2h-0.3l-13,18.2v0.2
			h13.2V173.2z"/>
		<polyline fill="#FFFFFF" points="182.2,236.7 180.3,236.7 180.3,207.3 172.2,207.3 172.2,205.5 190.3,205.5 190.3,207.3 
			182.2,207.3 		"/>
		<polygon fill="#FFFFFF" points="182.2,236.7 180.3,236.7 180.3,207.3 172.2,207.3 172.2,205.5 190.3,205.5 190.3,207.3 
			182.2,207.3 		"/>
		<polyline fill="#FFFFFF" points="214.5,218.7 214.5,205.5 216.4,205.5 216.4,236.7 214.5,236.7 214.5,220.6 195.5,220.6 
			195.5,236.7 193.5,236.7 193.5,205.5 195.5,205.5 195.5,218.7 		"/>
		<polygon fill="#FFFFFF" points="214.5,218.7 214.5,205.5 216.4,205.5 216.4,236.7 214.5,236.7 214.5,220.6 195.5,220.6 
			195.5,236.7 193.5,236.7 193.5,205.5 195.5,205.5 195.5,218.7 		"/>
	</g>
</g>
</svg>