<!-- Generator: Adobe Illustrator 18.0.0, SVG Export Plug-In  -->
<svg version="1.1"
	 xmlns="http://www.w3.org/2000/svg" xmlns:xlink="http://www.w3.org/1999/xlink" xmlns:a="http://ns.adobe.com/AdobeSVGViewerExtensions/3.0/"
	 x="0px" y="0px" width="48px" height="48px" viewBox="0 0 48 48" enable-background="new 0 0 48 48" xml:space="preserve">
<defs>
</defs>
<g>
	<path fill="#FFFFFF" d="M24,0C10.8,0,0,10.7,0,24c0,13.2,10.8,24,24,24c13.3,0,24-10.8,24-24C48,10.7,37.3,0,24,0z M30.4,24h-4.2
		c0,6.7,0,15,0,15H20c0,0,0-8.2,0-15h-3v-5.3h3v-3.4c0-2.5,1.2-6.3,6.3-6.3l4.6,0v5.1c0,0-2.8,0-3.3,0c-0.6,0-1.3,0.3-1.3,1.4v3.1
		H31L30.4,24z"/>
</g>
</svg>