<!-- Generator: Adobe Illustrator 18.0.0, SVG Export Plug-In  -->
<svg version="1.1"
	 xmlns="http://www.w3.org/2000/svg" xmlns:xlink="http://www.w3.org/1999/xlink" xmlns:a="http://ns.adobe.com/AdobeSVGViewerExtensions/3.0/"
	 x="0px" y="0px" width="138.6px" height="27.6px" viewBox="0 0 138.6 27.6" enable-background="new 0 0 138.6 27.6"
	 xml:space="preserve">
<defs>
</defs>
<g>
	<g>
		<path fill="#8F9194" d="M51.8,10.1c-0.1-0.1-0.2-0.3-0.4-0.4c-1-0.9-2-1.7-2-1.7s-3.8-2-4.4-2.4c-0.4-0.2-3-1.2-5.3-2c0,0,0,0,0,0
			c-1.5-0.5-2.9-1-3.6-1.2c-0.4-0.1-1-0.3-1.6-0.4c0,0,0,0,0,0c-0.8-0.2-1.8-0.4-2.6-0.6h0c-0.3-0.1-0.6-0.1-0.8-0.2
			c-0.1,0-0.1,0-0.2,0c0,0-0.1,0-0.1,0h0l0,0h0c0,0,0,0,0,0c-0.6-0.1-1-0.2-1-0.2l0.2,0.3L30,1.4l0.2,0.4L31.5,4
			c0.2-0.1,0.6-0.1,0.8-0.1c0,0,0.1,0,0.1,0l0.8,1.2l0.1-0.2l0.4-0.7l0.2-0.3c0,0,0.6,0.1,0.9,0.2c1.7,0.4,3.1,1.1,3,1.6
			c-0.1,0.4-2.8,0.3-2.8,0.3L34.8,6l-0.4,0.6L34.1,7l-0.8-1.4c0,0,0,0,0,0c-0.1-0.1-0.8-0.4-1.3-0.8l2.7,4.7l0.2,0.3l0,0l0.3,0.6
			l0.8,1.4l0.1,0.2l0,0l0.8,1.5l0.5,0.1l0,0l0.3,0l0.5,0.1l7,1l4.3-0.8l0.5-0.4l0.1-0.1l0.1-0.1l1.9-1.2
			C52.4,12.1,52.5,11,51.8,10.1z"/>
		<path fill="#8F9194" d="M38.2,12.8l-3.8-6.2L34.1,7l-0.8-1.4c0,0,0,0,0,0c-0.1-0.1-0.8-0.4-1.3-0.8c-0.3-0.2-0.6-0.5-0.6-0.6
			c0,0,0.1-0.1,0.1-0.1c0.2-0.1,0.6-0.1,0.8-0.1c0,0,0.1,0,0.1,0l0.8,1.2l0.1-0.2l-2.2-3.6l0-0.1l-0.2,0l-0.1,0h0L30,1.4l-4.9,0.8
			c-0.8,0-2.3,0.2-3.9,0.4h0c-2.4,0.3-4.8,0.8-4.8,0.8s-6.3,1.2-11,3.4C5.2,6.8,5,6.9,4.8,7c0,0,0,0,0,0C1.9,8.5,1.5,10,1.5,10.7
			c0,0,0,0.1,0,0.1c0,0.2,0,0.3,0,0.3l0.9,1.7l5.9,2.6l0,0l0.7,0.3l3,0.1c0,0,0,0,0,0l4.4,0.2c0,0,0,0,0,0l5.5,0.2l0.4,0l0.8-0.1
			l9-1.4c0,0,0.1,0,0.1,0l5.1-0.8h0l0.1,0l0.6-0.1l0.4-0.1L38.2,12.8z M20.8,5.8c1.8-0.3,3.3-0.1,3.3,0.4c0.1,0.5-1.3,1.1-3.1,1.4
			c-1.8,0.3-3.3,0.1-3.3-0.4C17.6,6.7,19,6.1,20.8,5.8z M23.5,4.7c-0.1-0.5,1.3-1.1,3.1-1.4c1.8-0.3,3.3-0.1,3.3,0.4
			C30,4.1,28.6,4.7,26.8,5C25.1,5.3,23.6,5.2,23.5,4.7z M32.7,6.4c0.1,0.5-1.3,1.1-3.1,1.4c-1.8,0.3-3.3,0.1-3.3-0.4
			C26.2,7,27.6,6.3,29.3,6C31.1,5.8,32.6,5.9,32.7,6.4z"/>
		<path fill="#8F9194" d="M0.9,9.8c0,0,0.5,2.3,0.9,2.6c0.3,0.2,1.2,3.9,18.4,3.6c4.2-0.1,17.5-2,17.5-2l-0.7-2c0,0-13,2.3-20.3,2.3
			C6.7,14,2.5,12.8,0.9,9.8z"/>
		<path fill="#8F9194" d="M37.7,13.9l1-1.9c5.8,0.9,5.1,0.9,7.9,1.2c2.6,0.3,6.1,0.5,7-0.5c0,0-1.1,1.9-2.1,2.2
			C50.5,15.1,51,15.4,37.7,13.9z"/>
		<path fill="#4C5157" d="M33.3,4.9l-0.1,0.2l-0.8-1.2c0,0,0,0-0.1,0l-1.5-2.7l0-0.1l0,0l-0.1-0.1l0,0l0.5-1l0.7,1l0,0v0.7
			c0.6,0.7,1.2,1.6,1.8,2.5L33.3,4.9z"/>
		<path fill="#4C5157" d="M38.6,12l-0.4,0.8l-0.4,0.8l-0.1,0.2l-0.1,0.1l0-0.1l-0.1-0.2l-0.7-1.7l0,0l-1.3-2.2l-2.3-4c0,0,0,0,0,0
			L34.1,7l0.3-0.4L34.8,6c1.2,2.2,2,4.2,2,4.2l0.9-0.5L38.6,12z"/>
		<ellipse fill="#8B8E93" cx="19.6" cy="10.1" rx="15.8" ry="2"/>
		<path fill="#6A747A" d="M30.9,1.7c0,0-25.9,2.8-23.7,7.8c2.2,5,27.9,0.3,27.9,0.3l1.1,2c0,0-31.5,6.9-33.9-2.3
			c0,0,1.5-5.7,25.6-8.7l2.7,0.3L30.9,1.7L30.9,1.7z"/>
		<path fill="#7C8186" d="M30.8,1.2c0,0-26.8,3-24.5,8.2c2.3,5.2,29.5,0.2,29.5,0.2l1.1,2.3c0,0-33.4,7.2-36-2.5c0,0,1.5-6,27-9.2
			L30.1,0L30.8,1.2z"/>
		<path fill="#6A747A" d="M39.1,12c0,0,15,3.4,13.8-0.4C51.6,7.7,33.5,1.3,32.6,1l-0.7-0.3l0,1l8.7,3.5c0,0,7.9,3.3,9.3,5.5
			c1.5,2.2-11.6-0.8-11.6-0.8L39.1,12z"/>
		<path fill="#7C8186" d="M38.6,12c0,0,16.3,3.7,14.9-0.4c-1.4-4.1-21-11.1-21.9-11.4L31.2,0l0.7,1c0,0,17.2,7.1,18.8,9.5
			c1.6,2.4-13-0.8-13-0.8L38.6,12z"/>
		<g>
			<path fill="#FFFFFF" d="M7.9,24.4v-4.6H4.3v1.6c0.4,0.2,0.4,0.6,0.4,0.9V25c-0.2,0.1-0.3,0.1-0.5,0.1c-0.7,0-0.7-0.7-0.7-1.1
				v-2.8c0-0.5,0-0.9-0.2-1.4H0v1.6c0.4,0.3,0.4,0.6,0.4,0.9v2c0,0.6-0.1,1.4,0.3,1.9c0.4,0.6,1.2,0.8,2,0.8c0.8,0,1.5-0.2,2.2-0.6
				v0.5h3.4v-1.6C7.8,25.1,7.9,24.8,7.9,24.4z"/>
			<path fill="#FFFFFF" d="M17,24.4v-2.7c0-0.6-0.1-1.1-0.6-1.6c-0.3-0.3-0.9-0.5-1.6-0.5c-0.7,0-1.4,0.1-2.3,0.6v-0.4H9.1v1.6
				c0.4,0.2,0.4,0.5,0.4,0.9v2.2c0,0.4,0,0.7-0.4,0.9v1.6H13v-1.6c-0.4-0.2-0.4-0.6-0.4-0.9v-2.7c0.5-0.2,0.9,0,1.1,0.3
				c0.1,0.3,0.1,0.6,0.1,0.6v2.1c0,0.7,0,1.5,0.2,2.2h3.4v-1.6C17,25.1,17,24.7,17,24.4z"/>
			<path fill="#FFFFFF" d="M25.7,24.6v-7.3h-3.5v1.6c0.4,0.2,0.3,0.6,0.3,1v0.4c-0.6-0.4-1.3-0.5-1.9-0.5c-1.6,0-2.5,0.7-2.5,2.2
				v2.7c0,1.5,0.5,2.5,2.4,2.5c0.7,0,1.5-0.2,2.1-0.6v0.4h3.5v-1.6C25.6,25.1,25.7,24.8,25.7,24.6z M22.5,25
				c-0.2,0.1-0.4,0.1-0.6,0.1c-0.6,0-0.6-0.6-0.6-1v-1.6c0-0.4,0-0.9,0.6-0.9c0.2,0,0.4,0.1,0.6,0.1V25z"/>
			<path fill="#FFFFFF" d="M30.4,19.7c-3,0-3.7,0.8-3.7,2.7v1.9c0,0.9,0,1.6,0.9,2.2c0.7,0.4,2,0.6,3.3,0.5c1.3-0.1,2.6-0.4,3.3-0.9
				v-1.8h-3.2v0.3c0,0.4,0,0.8-0.6,0.8c-0.5,0-0.6-0.5-0.6-0.8v-0.7h4.3v-1.7C34.3,20.5,33.5,19.7,30.4,19.7z M31.1,22.3h-1.2V22
				c0-0.3,0.1-0.7,0.6-0.7c0.6,0,0.6,0.4,0.6,0.7V22.3z"/>
			<path fill="#FFFFFF" d="M39.7,19.7c-0.7,0-1,0.2-1.4,0.7v-0.6H35v1.6c0.4,0.2,0.4,0.6,0.4,0.9v2c0,0.4,0,0.7-0.4,0.9v1.6h4v-1.6
				c-0.3-0.1-0.3-0.2-0.4-0.4c-0.1-0.2-0.1-0.5-0.1-0.8v-0.7c0-0.8,0.2-1.4,1.3-1.4h0.3v-2.4C40,19.7,39.9,19.7,39.7,19.7z"/>
		</g>
		<g>
			<path fill="#FFFFFF" d="M43.7,22.8v-1.2h-0.6v-1.5l-1.9,0.5v1h-0.2v1.2h0.2v2.4c0,0.4,0,0.9,0.3,1.3c0.3,0.3,0.8,0.4,1.3,0.4
				l1-0.1v-1.2c-0.6-0.1-0.6-0.3-0.6-0.8v-1.9H43.7z"/>
			<path fill="#FFFFFF" d="M48.9,24.9V23c0-0.4,0-0.8-0.4-1.1c-0.2-0.2-0.5-0.3-0.9-0.3c-0.4,0-0.9,0.1-1.3,0.3v-2.1h-2.2V21
				c0.3,0.1,0.3,0.4,0.2,0.7V25c0,0.3,0,0.5-0.2,0.6v1.1h2.4v-1.1c-0.3-0.1-0.2-0.4-0.2-0.7V23c0.3-0.1,0.5,0,0.7,0.2
				c0.1,0.2,0.1,0.4,0.1,0.5v1.5c0,0.5,0,1.1,0.1,1.6h2v-1.1C48.8,25.5,48.9,25.2,48.9,24.9z"/>
			<path fill="#FFFFFF" d="M51.8,21.5c-1.8,0-2.3,0.6-2.2,2v1.4c0,0.6,0,1.2,0.6,1.6c0.4,0.3,1.2,0.4,2,0.4c0.8-0.1,1.6-0.3,2-0.7
				v-1.3h-1.9v0.2c0,0.3,0,0.6-0.4,0.6c-0.3,0-0.4-0.3-0.4-0.6v-0.5h2.6v-1.2C54.2,22.2,53.7,21.5,51.8,21.5z M52.3,23.4h-0.7v-0.2
				c0-0.2,0-0.5,0.4-0.5c0.3,0,0.4,0.3,0.4,0.5V23.4z"/>
		</g>
		<g>
			<path fill="#FFFFFF" d="M61.9,16.3c-0.8,0-1.5,0.2-2.2,0.7v-4.3h-4.6v2.4c0.5,0.4,0.5,0.9,0.5,1.4v9.6c1.4,1.2,3.4,1.5,5.2,1.5
				c3.3,0,4.4-1.3,4.4-3.9v-4C65.3,17.6,64.3,16.3,61.9,16.3z M61.3,23.6c0,0.5-0.1,0.9-0.3,1c-0.2,0.2-0.6,0.2-1.2,0v-5.1
				c0.6-0.2,1-0.2,1.2,0c0.2,0.2,0.3,0.5,0.3,1V23.6z"/>
			<path fill="#FFFFFF" d="M76.1,23.5v-7h-4.5V19c0.5,0.3,0.5,0.9,0.5,1.4v4c-0.2,0.1-0.4,0.2-0.7,0.2c-0.9,0-0.8-1.1-0.8-1.7v-4.3
				c0-0.7-0.1-1.4-0.2-2.1h-4.3V19c0.5,0.4,0.5,0.8,0.5,1.4v3c0,0.9-0.1,2.1,0.4,2.9c0.5,0.9,1.5,1.3,2.5,1.3c1,0,2-0.3,2.8-0.9v0.7
				h4.4v-2.4C76.1,24.6,76.1,24.1,76.1,23.5z"/>
			<path fill="#FFFFFF" d="M82,19h1.3v-2.5H82v-3.3l-4,1.1v2.1h-0.5V19H78v5c0,0.9-0.1,2,0.7,2.7c0.7,0.7,1.8,0.8,2.7,0.8l2-0.2
				v-2.5C82,24.8,82,24.3,82,23.2V19z"/>
			<path fill="#FFFFFF" d="M88.5,19h1.3v-2.5h-1.3v-3.3l-4,1.1v2.1H84V19h0.5v5c0,0.9-0.1,2,0.7,2.7c0.7,0.7,1.8,0.8,2.7,0.8l2-0.2
				v-2.5c-1.4-0.2-1.3-0.6-1.3-1.7V19z"/>
			<path fill="#FFFFFF" d="M99,17c-0.9-0.5-2.6-0.6-3.7-0.6c-1.2,0-2.5,0.1-3.5,0.9c-1,0.8-1,2.1-1,3.2v2.8c0,1.4,0,2.7,1.3,3.6
				c0.9,0.6,2.5,0.7,3.6,0.7c1.2,0,2.7-0.1,3.7-0.9c1-0.8,1-2.2,1-3.4v-2.8C100.3,19.1,100.3,17.8,99,17z M95.5,25.1
				c-0.8,0-0.8-0.9-0.8-1.5v-3.1c0-0.6-0.1-1.6,0.8-1.6c0.9,0,0.8,1,0.8,1.6v3.1C96.3,24.2,96.3,25.1,95.5,25.1z"/>
			<path fill="#FFFFFF" d="M111.5,23.5v-4c0-0.9-0.1-1.7-0.8-2.4c-0.4-0.4-1.1-0.7-2-0.7c-0.9,0-1.8,0.2-2.9,0.9v-0.7h-4.4V19
				c0.5,0.4,0.5,0.8,0.5,1.3v3.3c0,0.5,0,1-0.5,1.4v2.4h5v-2.4c-0.5-0.3-0.5-0.9-0.5-1.4v-4c0.7-0.3,1.1,0,1.4,0.4
				c0.2,0.4,0.1,0.9,0.1,1V24c0,1.1,0,2.3,0.2,3.4h4.3v-2.4C111.4,24.7,111.5,24.1,111.5,23.5z"/>
		</g>
		<g>
			<path fill="#FFFFFF" d="M114.1,25.2c-0.6,0-1.2,0.5-1.2,1.2c0,0.7,0.5,1.2,1.2,1.2c0.7,0,1.2-0.5,1.2-1.2
				C115.2,25.7,114.7,25.2,114.1,25.2z"/>
			<path fill="#FFFFFF" d="M119.5,23.3h2.3v-1.8c-0.8-0.6-1.9-0.8-2.9-0.8c-2.2,0-2.7,0.8-2.7,2.2v2.2c0,0.8,0,2.4,2.8,2.4
				c0.9,0,2.2-0.2,2.8-0.9v-2h-2.3V25c0,0.3,0.1,1-0.4,1c-0.5,0-0.5-0.5-0.5-0.8v-2.1c0-0.3,0-0.8,0.5-0.8c0.5,0,0.4,0.5,0.4,0.9
				V23.3z"/>
			<path fill="#FFFFFF" d="M127.5,21.1c-0.6-0.3-1.6-0.4-2.2-0.4c-0.7,0-1.5,0.1-2.1,0.5c-0.6,0.5-0.6,1.2-0.6,1.9v1.7
				c0,0.9,0,1.7,0.8,2.2c0.6,0.4,1.5,0.4,2.2,0.4c0.7,0,1.6-0.1,2.2-0.6c0.6-0.5,0.6-1.3,0.6-2v-1.7
				C128.3,22.4,128.2,21.6,127.5,21.1z M125.4,26c-0.5,0-0.5-0.5-0.5-0.9v-1.9c0-0.4-0.1-1,0.5-1c0.5,0,0.5,0.6,0.5,1v1.9
				C125.9,25.5,125.9,26,125.4,26z"/>
			<path fill="#FFFFFF" d="M138.3,25.1V23c0-0.5,0-1.2-0.3-1.6c-0.2-0.4-1.5-1.2-3.3,0c-0.5-0.6-1.6-1-3.1-0.1v-0.4h-2.6v1.5
				c0.3,0.2,0.3,0.5,0.3,0.9v1.9c0,0.3,0,0.6-0.3,0.8v1.5h3v-1.5c-0.3-0.2-0.3-0.5-0.3-0.9v-2.4c0.9-0.2,0.9,0.3,0.9,1.1v1.6
				c0,0.7,0,1.4,0.1,2h2.6v-1.5c-0.3-0.3-0.3-0.5-0.3-0.9v-2.4c0.9-0.2,0.9,0.3,0.9,1.1v1.6c0,0.7,0,1.4,0.1,2h2.6v-1.5
				C138.3,25.7,138.3,25.4,138.3,25.1z"/>
		</g>
	</g>
</g>
</svg>